<?xml version="1.0" encoding="UTF-8" standalone="no"?>
<svg
   xmlns:dc="http://purl.org/dc/elements/1.1/"
   xmlns:cc="http://creativecommons.org/ns#"
   xmlns:rdf="http://www.w3.org/1999/02/22-rdf-syntax-ns#"
   xmlns:svg="http://www.w3.org/2000/svg"
   xmlns="http://www.w3.org/2000/svg"
   xmlns:sodipodi="http://sodipodi.sourceforge.net/DTD/sodipodi-0.dtd"
   xmlns:inkscape="http://www.inkscape.org/namespaces/inkscape"
   width="32"
   height="32"
   version="1"
   id="svg12"
   sodipodi:docname="network-workgroup.svg"
   inkscape:version="0.92.2 2405546, 2018-03-11">
  <metadata
     id="metadata18">
    <rdf:RDF>
      <cc:Work
         rdf:about="">
        <dc:format>image/svg+xml</dc:format>
        <dc:type
           rdf:resource="http://purl.org/dc/dcmitype/StillImage" />
      </cc:Work>
    </rdf:RDF>
  </metadata>
  <defs
     id="defs16" />
  <sodipodi:namedview
     pagecolor="#ececec"
     bordercolor="#666666"
     borderopacity="1"
     objecttolerance="10"
     gridtolerance="10"
     guidetolerance="10"
     inkscape:pageopacity="0"
     inkscape:pageshadow="2"
     inkscape:window-width="1680"
     inkscape:window-height="972"
     id="namedview14"
     showgrid="false"
     inkscape:zoom="7.375"
     inkscape:cx="-50.577085"
     inkscape:cy="11.11744"
     inkscape:window-x="1360"
     inkscape:window-y="0"
     inkscape:window-maximized="1"
     inkscape:current-layer="svg12" />
  <path
     style="fill:#d53e45;fill-opacity:1;stroke:none;stroke-width:0.14515875;stroke-miterlimit:4;stroke-dasharray:none;stroke-opacity:1"
     d="m 27.90368,6.727131 c 1.168734,-7.388e-4 2.109629,0.9408941 2.109629,2.1096297 V 26.447279 c 0,1.168735 -0.940895,2.109629 -2.109629,2.109629 H 4.09632 c -1.168734,0 -2.109682,-0.940894 -2.109629,-2.109629 l 7.31e-4,-16.244505 7.31e-4,-5.0669085 c 0,-0.9377965 0.754977,-1.6927733 1.692774,-1.6927733 h 9.09082 c 0.937797,0 1.704839,0.3713212 2.299888,1.096152 L 16.8735,6.734104 Z"
     id="rect4549-3-3"
     inkscape:connector-curvature="0"
     sodipodi:nodetypes="sssssscsssscs" />
  <path
     style="opacity:1;fill:#ececec;fill-opacity:1;stroke-width:1.30139554"
     d="m 16,11.255734 c -3.593153,0 -6.506978,2.913825 -6.506978,6.506978 0,3.593153 2.913825,6.506978 6.506978,6.506978 3.593153,0 6.506978,-2.913825 6.506978,-6.506978 0,-3.593153 -2.913825,-6.506977 -6.506978,-6.506978 z m -0.464598,1.801133 c 0.06246,-0.0065 0.14055,0.0039 0.203017,0 0.0078,0.02993 -0.04555,0.135344 -0.115824,0.290211 -0.451584,0.986456 -0.477612,2.142096 -0.05857,2.760259 0.07548,0.111922 0.145757,0.218635 0.145757,0.231648 0,0.01432 -0.08199,0.02993 -0.174387,0.02993 -0.217333,0 -0.422954,-0.132742 -0.842004,-0.4659 -0.187401,-0.147058 -0.42946,-0.27069 -0.523161,-0.290211 -0.148359,-0.02863 -0.187401,-0.01562 -0.377405,0.174387 -0.17829,0.178291 -0.232949,0.273293 -0.232949,0.435968 0,0.615559 0.731384,1.106186 2.091343,1.393794 1.846679,0.391721 2.302168,0.743097 2.352923,1.713938 0.06377,1.218107 -0.584326,2.136891 -2.004149,2.847453 -0.169182,0.08459 -0.277197,0.117127 -0.348774,0.144456 -0.03123,-0.0027 -0.05596,0.0039 -0.08719,0 -0.01171,-0.03644 -0.02863,-0.124934 -0.02863,-0.290212 0,-0.646793 -0.255074,-1.311807 -0.638985,-1.684005 -0.102815,-0.100209 -0.391721,-0.312336 -0.638985,-0.464599 -0.247266,-0.153565 -0.497133,-0.331855 -0.551792,-0.407337 -0.0924,-0.126234 -0.100209,-0.203017 -0.02993,-0.435967 0.128839,-0.424255 0.282404,-0.661109 0.581724,-0.929196 0.156167,-0.140551 0.313637,-0.258978 0.348774,-0.26158 0.03384,-0.0027 -0.200415,-0.07287 -0.551791,-0.145758 -0.352679,-0.07157 -0.86673,-0.222538 -1.133516,-0.318841 -0.486722,-0.175689 -1.143927,-0.546587 -1.393795,-0.813372 -0.01038,-0.01171 -0.02082,-0.01952 -0.02993,-0.02863 0.359186,-1.430234 1.366465,-2.602791 2.701698,-3.166295 0.2798,-0.118427 0.567408,-0.200415 0.871935,-0.26158 0.150961,-0.03123 0.30843,-0.04294 0.464598,-0.05857 z m 4.357072,2.178535 c 0.109317,0.06767 0.52186,0.959129 0.638986,1.393794 0.152263,0.562204 0.14055,1.534346 0,2.091343 -0.05336,0.213429 -0.122332,0.411241 -0.144455,0.435967 -0.02343,0.02473 -0.106711,-0.117125 -0.204319,-0.29021 -0.0976,-0.173086 -0.408639,-0.54008 -0.667617,-0.813373 -0.748302,-0.788646 -0.865428,-1.199887 -0.551792,-1.829761 0.15747,-0.317542 0.844606,-1.039815 0.929197,-0.98776 z"
     id="path14-6"
     inkscape:connector-curvature="0" />
</svg>
