<?xml version="1.0" encoding="UTF-8" standalone="no"?>
<svg
   xmlns:dc="http://purl.org/dc/elements/1.1/"
   xmlns:cc="http://creativecommons.org/ns#"
   xmlns:rdf="http://www.w3.org/1999/02/22-rdf-syntax-ns#"
   xmlns:svg="http://www.w3.org/2000/svg"
   xmlns="http://www.w3.org/2000/svg"
   xmlns:sodipodi="http://sodipodi.sourceforge.net/DTD/sodipodi-0.dtd"
   xmlns:inkscape="http://www.inkscape.org/namespaces/inkscape"
   height="32"
   width="32"
   version="1"
   id="svg22"
   sodipodi:docname="user-trash-full.svg"
   inkscape:version="0.92.4 5da689c313, 2019-01-14">
  <metadata
     id="metadata28">
    <rdf:RDF>
      <cc:Work
         rdf:about="">
        <dc:format>image/svg+xml</dc:format>
        <dc:type
           rdf:resource="http://purl.org/dc/dcmitype/StillImage" />
      </cc:Work>
    </rdf:RDF>
  </metadata>
  <defs
     id="defs26" />
  <sodipodi:namedview
     pagecolor="#ffffff"
     bordercolor="#666666"
     borderopacity="1"
     objecttolerance="10"
     gridtolerance="10"
     guidetolerance="10"
     inkscape:pageopacity="0"
     inkscape:pageshadow="2"
     inkscape:window-width="1680"
     inkscape:window-height="972"
     id="namedview24"
     showgrid="false"
     inkscape:zoom="10.429825"
     inkscape:cx="-12.478171"
     inkscape:cy="20.202872"
     inkscape:window-x="1360"
     inkscape:window-y="0"
     inkscape:window-maximized="1"
     inkscape:current-layer="svg22" />
  <rect
     style="opacity:1;fill:#d53e45;fill-opacity:1;fill-rule:evenodd;stroke:none;stroke-width:1.03534329;stroke-linecap:round;stroke-linejoin:bevel;stroke-miterlimit:4;stroke-dasharray:none;stroke-dashoffset:0;stroke-opacity:1"
     id="rect4497-3-3-3-6-3-3"
     width="28.203388"
     height="28.203388"
     x="1.8983061"
     y="1.8983059"
     ry="5.575182" />
  <path
     style="fill:#f9f9f9;fill-opacity:1;stroke:none;stroke-width:1.06090665px;stroke-linecap:butt;stroke-linejoin:miter;stroke-opacity:1"
     d="m 8.16793,11.864439 2.554411,12.88172 h 4.121787 6.638826 l 2.554411,-12.88172 c -5.289812,0 -10.579623,0 -15.869435,0 z"
     id="path839-6"
     inkscape:connector-curvature="0"
     sodipodi:nodetypes="cccccc" />
  <path
     style="fill:#4d4d4d;fill-opacity:1;stroke-width:0.00978923"
     d="m 16.662942,21.909996 c -0.26559,-0.460378 -0.481443,-0.843661 -0.479673,-0.851738 0.0017,-0.0081 0.219072,-0.388525 0.482892,-0.84544 l 0.479672,-0.830754 0.0049,0.348356 0.0049,0.348356 0.908323,0.0025 0.908323,0.0025 -0.01155,-0.02208 c -0.0064,-0.01214 -0.194526,-0.339247 -0.418166,-0.726901 -0.223639,-0.387653 -0.469154,-0.813247 -0.545589,-0.945764 l -0.138973,-0.240939 0.851525,-0.491683 c 0.468339,-0.270425 0.854747,-0.487983 0.858686,-0.483463 0.01975,0.02266 0.871618,1.513099 0.889751,1.556716 0.03392,0.08158 0.06005,0.205791 0.06667,0.316948 0.0098,0.164515 -0.02771,0.346166 -0.10199,0.493758 -0.02093,0.04159 -0.307149,0.538284 -1.035128,1.796325 -0.176108,0.304336 -0.206005,0.347243 -0.310787,0.446016 -0.156219,0.147262 -0.3448,0.234258 -0.560399,0.258522 -0.0505,0.0057 -0.360675,0.0099 -0.726727,0.01 l -0.638623,8.1e-5 -0.0026,0.347871 -0.0026,0.347872 z m -2.847898,0.130872 c -0.268158,-0.03486 -0.532769,-0.197691 -0.681486,-0.419351 -0.05704,-0.08502 -1.161435,-1.99783 -1.21289,-2.100728 -0.119514,-0.239002 -0.124934,-0.563651 -0.01363,-0.816504 0.01799,-0.04087 0.176604,-0.323024 0.352472,-0.627002 0.252532,-0.436487 0.317175,-0.555098 0.307466,-0.564165 -0.0068,-0.0063 -0.133434,-0.08093 -0.281496,-0.165822 -0.148062,-0.08489 -0.277893,-0.160299 -0.288513,-0.16758 -0.01629,-0.01117 0.133342,-0.01324 0.95535,-0.01324 h 0.97466 l 0.484812,0.839427 c 0.266646,0.461685 0.48348,0.840978 0.481851,0.842874 -0.0016,0.0019 -0.137863,-0.07457 -0.302745,-0.169914 -0.164882,-0.09535 -0.301663,-0.171483 -0.303959,-0.169188 -0.0069,0.0069 -0.905062,1.564143 -0.905062,1.569248 0,0.0026 0.499985,0.0047 1.111078,0.0047 h 1.111078 v 0.983818 0.983818 l -0.8639,-0.0012 c -0.475144,-6.83e-4 -0.891433,-0.0048 -0.925085,-0.0092 z m 0.398492,-5.363697 c -0.465276,-0.268642 -0.847291,-0.492446 -0.848923,-0.497341 -0.0043,-0.01267 0.852816,-1.494319 0.899477,-1.555015 0.122291,-0.159074 0.317297,-0.286894 0.525397,-0.344379 l 0.09503,-0.02625 h 1.287284 1.287284 l 0.08752,0.02228 c 0.101002,0.02572 0.239801,0.08878 0.329728,0.149821 0.0789,0.05355 0.188594,0.162838 0.239937,0.239043 0.02176,0.03231 0.181805,0.305424 0.355645,0.606933 0.17384,0.301508 0.316919,0.549228 0.317953,0.55049 0.0011,0.0013 0.138143,-0.07642 0.304685,-0.172624 0.166542,-0.0962 0.303894,-0.173971 0.305226,-0.172816 0.0014,0.0011 -0.216724,0.381668 -0.484567,0.845584 l -0.486988,0.84348 -0.978108,4.9e-5 c -0.537959,3e-5 -0.976272,-0.0016 -0.974028,-0.0036 0.0022,-0.002 0.136233,-0.07964 0.297756,-0.17255 0.161522,-0.09291 0.297328,-0.172242 0.301792,-0.176294 0.0062,-0.0056 -0.83121,-1.47373 -0.889128,-1.55888 -0.01,-0.01469 -0.08965,0.11805 -0.55811,0.929976 -0.300552,0.520911 -0.551508,0.954623 -0.557681,0.963806 -0.01,0.01488 -0.10343,-0.03654 -0.85718,-0.471742 z"
     id="path916-0-7"
     inkscape:connector-curvature="0" />
  <path
     inkscape:connector-curvature="0"
     style="fill:#ffffff;fill-opacity:1;stroke:none;stroke-width:1.28091824px;stroke-linecap:butt;stroke-linejoin:miter;stroke-opacity:1"
     d="M 17.807601,5.6101904 12.982194,7.424316 12.134486,6.5147449 10.069559,10.448974 h 9.973514 L 20.46609,7.3624523 17.376224,8.6214725 17.041823,8.2185192 Z m -3.703492,2.8674894 1.218892,0.9062273 -0.20064,0.3394168 -1.06674,-1.1453233 z"
     id="path1024-6-5" />
  <path
     inkscape:connector-curvature="0"
     style="fill:#e6e6e6;fill-opacity:1;stroke:none;stroke-width:1.28091824px;stroke-linecap:butt;stroke-linejoin:miter;stroke-opacity:1"
     d="m 17.807601,5.6101904 -1.329244,3.1567467 -4.343871,-2.2521922 1.966279,2.3625443 -1.009891,1.5716848 h 2.305695 l 1.914447,-1.3075077 1.344293,1.3075077 h 3.767028 L 20.46609,7.3624523 19.855809,9.1999862 19.347519,8.9458414 Z"
     id="path1043-75-3" />
</svg>
