<?xml version="1.0" encoding="UTF-8"?>
<svg xmlns="http://www.w3.org/2000/svg" xmlns:xlink="http://www.w3.org/1999/xlink" width="12pt" height="12pt" viewBox="0 0 12 12" version="1.1">
<g id="surface1">
<path style=" stroke:none;fill-rule:nonzero;fill:rgb(81.960784%,85.098039%,89.019608%);fill-opacity:1;" d="M 4.328125 2.183594 C 3.40625 2.183594 2.660156 2.929688 2.660156 3.851562 C 2.660156 4.058594 2.695312 4.261719 2.769531 4.453125 C 3.367188 3.503906 4.367188 2.835938 5.53125 2.691406 C 5.214844 2.367188 4.78125 2.183594 4.328125 2.183594 Z M 7.671875 2.183594 C 7.21875 2.183594 6.785156 2.367188 6.472656 2.691406 C 7.632812 2.835938 8.628906 3.503906 9.226562 4.449219 C 9.300781 4.261719 9.339844 4.058594 9.339844 3.851562 C 9.339844 2.929688 8.59375 2.183594 7.671875 2.183594 Z M 6 3.136719 C 4.15625 3.136719 2.660156 4.632812 2.660156 6.476562 C 2.660156 7.265625 2.9375 8.027344 3.445312 8.628906 C 3.515625 8.710938 3.585938 8.792969 3.664062 8.867188 C 3.519531 8.851562 3.378906 8.902344 3.277344 9.003906 C 3.089844 9.191406 3.089844 9.492188 3.277344 9.679688 C 3.460938 9.863281 3.765625 9.863281 3.949219 9.679688 C 4.078125 9.550781 4.121094 9.367188 4.070312 9.199219 C 4.160156 9.261719 4.253906 9.320312 4.351562 9.378906 C 4.441406 9.429688 4.539062 9.476562 4.632812 9.523438 C 4.644531 9.527344 4.652344 9.53125 4.660156 9.535156 C 4.746094 9.570312 4.832031 9.605469 4.917969 9.632812 C 4.945312 9.644531 4.972656 9.652344 5 9.660156 C 5.074219 9.683594 5.152344 9.707031 5.230469 9.726562 C 5.261719 9.730469 5.292969 9.738281 5.324219 9.746094 C 5.402344 9.761719 5.476562 9.773438 5.554688 9.785156 C 5.589844 9.789062 5.625 9.792969 5.664062 9.796875 C 5.746094 9.808594 5.828125 9.8125 5.910156 9.816406 C 5.941406 9.816406 5.96875 9.816406 6 9.816406 C 6.113281 9.816406 6.222656 9.8125 6.332031 9.800781 C 6.90625 9.742188 7.449219 9.539062 7.921875 9.207031 C 7.921875 9.207031 7.925781 9.203125 7.929688 9.203125 C 7.878906 9.371094 7.925781 9.554688 8.050781 9.679688 C 8.234375 9.863281 8.539062 9.863281 8.722656 9.679688 C 8.910156 9.492188 8.910156 9.191406 8.722656 9.003906 C 8.621094 8.898438 8.476562 8.851562 8.328125 8.867188 C 8.402344 8.792969 8.476562 8.71875 8.542969 8.640625 C 8.546875 8.632812 8.550781 8.628906 8.558594 8.625 C 8.558594 8.621094 8.5625 8.617188 8.5625 8.617188 C 8.625 8.539062 8.683594 8.464844 8.738281 8.382812 C 8.75 8.371094 8.757812 8.359375 8.765625 8.34375 C 8.816406 8.269531 8.863281 8.195312 8.90625 8.117188 C 8.917969 8.09375 8.929688 8.074219 8.941406 8.054688 C 8.984375 7.976562 9.019531 7.898438 9.054688 7.820312 C 9.066406 7.796875 9.074219 7.773438 9.085938 7.75 C 9.113281 7.679688 9.140625 7.605469 9.164062 7.53125 C 9.179688 7.496094 9.1875 7.460938 9.199219 7.425781 C 9.21875 7.355469 9.238281 7.285156 9.253906 7.214844 C 9.261719 7.179688 9.273438 7.140625 9.28125 7.101562 C 9.292969 7.03125 9.304688 6.960938 9.3125 6.890625 C 9.316406 6.847656 9.320312 6.808594 9.324219 6.769531 C 9.335938 6.671875 9.339844 6.574219 9.339844 6.476562 C 9.339844 4.632812 7.84375 3.136719 6 3.136719 Z M 6 4.089844 C 7.316406 4.089844 8.386719 5.160156 8.386719 6.476562 C 8.386719 7.796875 7.316406 8.863281 6 8.863281 C 4.683594 8.863281 3.613281 7.796875 3.613281 6.476562 C 3.613281 6.398438 3.617188 6.316406 3.625 6.238281 C 3.75 5.019531 4.773438 4.089844 6 4.089844 Z M 7.1875 5.042969 C 7.125 5.046875 7.066406 5.070312 7.023438 5.117188 L 6 6.140625 L 5.214844 5.355469 C 5.15625 5.292969 5.066406 5.265625 4.980469 5.289062 C 4.898438 5.308594 4.832031 5.375 4.8125 5.457031 C 4.789062 5.542969 4.8125 5.632812 4.875 5.691406 L 5.832031 6.644531 C 5.925781 6.738281 6.074219 6.738281 6.167969 6.644531 L 7.363281 5.453125 C 7.433594 5.382812 7.453125 5.28125 7.414062 5.1875 C 7.375 5.097656 7.285156 5.039062 7.1875 5.042969 Z M 7.1875 5.042969 "/>
</g>
</svg>
