<?xml version="1.0" encoding="UTF-8"?>
<svg xmlns="http://www.w3.org/2000/svg" xmlns:xlink="http://www.w3.org/1999/xlink" width="12pt" height="12pt" viewBox="0 0 12 12" version="1.1">
<defs>
<filter id="alpha" filterUnits="objectBoundingBox" x="0%" y="0%" width="100%" height="100%">
  <feColorMatrix type="matrix" in="SourceGraphic" values="0 0 0 0 1 0 0 0 0 1 0 0 0 0 1 0 0 0 1 0"/>
</filter>
<mask id="mask0">
  <g filter="url(#alpha)">
<rect x="0" y="0" width="12" height="12" style="fill:rgb(0%,0%,0%);fill-opacity:0.301961;stroke:none;"/>
  </g>
</mask>
<clipPath id="clip1">
  <rect width="12" height="12"/>
</clipPath>
<g id="surface6" clip-path="url(#clip1)">
<path style=" stroke:none;fill-rule:nonzero;fill:rgb(81.960784%,85.098039%,89.019608%);fill-opacity:1;" d="M 6.953125 2.183594 L 6.953125 3 C 8.21875 3.402344 9.136719 4.597656 9.136719 6 C 9.136719 7.402344 8.21875 8.597656 6.953125 9 L 6.953125 9.816406 C 8.671875 9.394531 9.953125 7.855469 9.953125 6 C 9.953125 4.144531 8.671875 2.605469 6.953125 2.183594 Z M 6.953125 2.183594 "/>
</g>
</defs>
<g id="surface1">
<path style=" stroke:none;fill-rule:nonzero;fill:rgb(81.960784%,85.098039%,89.019608%);fill-opacity:1;" d="M 5.863281 2.183594 L 3.683594 4.363281 L 2.046875 4.363281 L 2.046875 7.636719 L 3.683594 7.636719 L 5.863281 9.816406 Z M 6.953125 4.363281 L 6.953125 7.636719 C 7.53125 7.320312 7.929688 6.710938 7.929688 6 C 7.929688 5.289062 7.539062 4.679688 6.953125 4.363281 Z M 6.953125 4.363281 "/>
<use xlink:href="#surface6" mask="url(#mask0)"/>
</g>
</svg>
