<?xml version="1.0" encoding="UTF-8"?>
<svg xmlns="http://www.w3.org/2000/svg" xmlns:xlink="http://www.w3.org/1999/xlink" width="12pt" height="12pt" viewBox="0 0 12 12" version="1.1">
<g id="surface1">
<path style=" stroke:none;fill-rule:nonzero;fill:rgb(81.960784%,85.098039%,89.019608%);fill-opacity:1;" d="M 6 2.183594 C 5.351562 2.183594 4.8125 2.613281 4.636719 3.207031 L 7.433594 6 L 7.433594 3.613281 C 7.433594 2.820312 6.792969 2.183594 6 2.183594 Z M 4.566406 4.808594 L 4.566406 6 C 4.566406 6.792969 5.207031 7.433594 6 7.433594 C 6.335938 7.433594 6.640625 7.3125 6.882812 7.121094 Z M 3.136719 5.523438 L 3.136719 6 C 3.136719 7.417969 4.167969 8.589844 5.523438 8.820312 L 5.523438 9.816406 L 6.476562 9.816406 L 6.476562 8.820312 C 7.019531 8.730469 7.503906 8.484375 7.894531 8.136719 L 7.222656 7.460938 C 6.894531 7.738281 6.46875 7.910156 6 7.910156 C 4.9375 7.910156 4.089844 7.0625 4.089844 6 L 4.089844 5.523438 Z M 7.910156 5.523438 L 7.910156 6 C 7.910156 6.144531 7.882812 6.285156 7.851562 6.421875 L 8.601562 7.167969 C 8.765625 6.8125 8.863281 6.417969 8.863281 6 L 8.863281 5.523438 Z M 7.910156 5.523438 "/>
<path style=" stroke:none;fill-rule:nonzero;fill:rgb(81.960784%,85.098039%,89.019608%);fill-opacity:1;" d="M 3.375 2.660156 L 9.339844 8.625 L 8.625 9.339844 L 2.660156 3.375 Z M 3.375 2.660156 "/>
<path style=" stroke:none;fill-rule:nonzero;fill:rgb(81.960784%,85.098039%,89.019608%);fill-opacity:1;" d="M 3.375 2.660156 L 9.339844 8.625 L 8.625 9.339844 L 2.660156 3.375 Z M 3.375 2.660156 "/>
</g>
</svg>
