<?xml version="1.0" encoding="UTF-8"?>
<svg xmlns="http://www.w3.org/2000/svg" xmlns:xlink="http://www.w3.org/1999/xlink" width="12pt" height="12pt" viewBox="0 0 12 12" version="1.1">
<defs>
<filter id="alpha" filterUnits="objectBoundingBox" x="0%" y="0%" width="100%" height="100%">
  <feColorMatrix type="matrix" in="SourceGraphic" values="0 0 0 0 1 0 0 0 0 1 0 0 0 0 1 0 0 0 1 0"/>
</filter>
<mask id="mask0">
  <g filter="url(#alpha)">
<rect x="0" y="0" width="12" height="12" style="fill:rgb(0%,0%,0%);fill-opacity:0.301961;stroke:none;"/>
  </g>
</mask>
<clipPath id="clip1">
  <rect width="12" height="12"/>
</clipPath>
<g id="surface6" clip-path="url(#clip1)">
<path style=" stroke:none;fill-rule:nonzero;fill:rgb(81.960784%,85.098039%,89.019608%);fill-opacity:1;" d="M 6 1.636719 C 4.335938 1.636719 3 3.097656 3 4.910156 L 3 7.089844 C 3 8.902344 4.335938 10.363281 6 10.363281 C 7.664062 10.363281 9 8.902344 9 7.089844 L 9 4.910156 C 9 3.097656 7.664062 1.636719 6 1.636719 Z M 5.726562 2.339844 L 8.039062 4.652344 L 6.4375 6 L 8.039062 7.347656 L 5.726562 9.660156 L 5.726562 6.59375 L 4.402344 7.707031 L 4.050781 7.292969 L 5.589844 6 L 4.050781 4.707031 L 4.402344 4.292969 L 5.726562 5.40625 Z M 6.273438 3.660156 L 6.273438 5.425781 L 7.234375 4.621094 Z M 6.273438 6.574219 L 6.273438 8.339844 L 7.234375 7.378906 Z M 6.273438 6.574219 "/>
</g>
</defs>
<g id="surface1">
<use xlink:href="#surface6" mask="url(#mask0)"/>
</g>
</svg>
