<?xml version="1.0" encoding="UTF-8"?>
<svg xmlns="http://www.w3.org/2000/svg" xmlns:xlink="http://www.w3.org/1999/xlink" width="12pt" height="12pt" viewBox="0 0 12 12" version="1.1">
<g id="surface1">
<path style=" stroke:none;fill-rule:nonzero;fill:rgb(81.960784%,85.098039%,89.019608%);fill-opacity:1;" d="M 2.726562 1.910156 C 2.273438 1.910156 1.910156 2.273438 1.910156 2.726562 L 1.910156 9.273438 C 1.910156 9.726562 2.273438 10.089844 2.726562 10.089844 L 9.273438 10.089844 C 9.726562 10.089844 10.089844 9.726562 10.089844 9.273438 L 10.089844 2.726562 C 10.089844 2.273438 9.726562 1.910156 9.273438 1.910156 Z M 7.363281 5.726562 L 7.363281 4.636719 C 7.363281 4.03125 6.878906 3.546875 6.273438 3.546875 L 5.726562 3.546875 C 5.121094 3.546875 4.625 4.03125 4.636719 4.636719 L 4.089844 4.636719 C 4.089844 3.730469 4.820312 3 5.726562 3 L 6.273438 3 C 7.179688 3 7.910156 3.730469 7.910156 4.636719 L 7.910156 5.726562 C 8.210938 5.726562 8.453125 5.972656 8.453125 6.273438 L 8.453125 8.453125 C 8.453125 8.753906 8.210938 9 7.910156 9 L 4.089844 9 C 3.789062 9 3.546875 8.753906 3.546875 8.453125 L 3.546875 6.273438 C 3.546875 5.726562 4.089844 5.726562 4.089844 5.726562 M 6 6.273438 C 5.546875 6.273438 5.183594 6.636719 5.183594 7.089844 C 5.183594 7.433594 5.398438 7.746094 5.726562 7.859375 L 5.726562 8.453125 L 6.273438 8.453125 L 6.273438 7.859375 C 6.601562 7.746094 6.816406 7.433594 6.816406 7.089844 C 6.816406 6.636719 6.453125 6.273438 6 6.273438 Z M 6 6.273438 "/>
</g>
</svg>
