<?xml version="1.0" encoding="UTF-8"?>
<svg xmlns="http://www.w3.org/2000/svg" xmlns:xlink="http://www.w3.org/1999/xlink" width="12pt" height="12pt" viewBox="0 0 12 12" version="1.1">
<g id="surface1">
<path style=" stroke:none;fill-rule:nonzero;fill:rgb(81.960784%,85.098039%,89.019608%);fill-opacity:1;" d="M 3.816406 2.726562 C 3.210938 2.726562 2.726562 3.210938 2.726562 3.816406 L 2.726562 8.183594 C 2.726562 8.789062 3.210938 9.273438 3.816406 9.273438 L 8.183594 9.273438 C 8.789062 9.273438 9.273438 8.789062 9.273438 8.183594 L 9.273438 3.816406 C 9.273438 3.210938 8.789062 2.726562 8.183594 2.726562 Z M 3.816406 3.273438 L 8.183594 3.273438 C 8.480469 3.273438 8.726562 3.519531 8.726562 3.816406 L 8.726562 8.183594 C 8.726562 8.480469 8.480469 8.726562 8.183594 8.726562 L 3.816406 8.726562 C 3.519531 8.726562 3.273438 8.480469 3.273438 8.183594 L 3.273438 3.816406 C 3.273438 3.519531 3.519531 3.273438 3.816406 3.273438 Z M 3.816406 3.273438 "/>
<path style=" stroke:none;fill-rule:nonzero;fill:rgb(81.960784%,85.098039%,89.019608%);fill-opacity:1;" d="M 4.910156 5.453125 L 7.089844 5.453125 C 7.695312 5.453125 8.183594 5.699219 8.183594 6 C 8.183594 6.300781 7.695312 6.546875 7.089844 6.546875 L 4.910156 6.546875 C 4.304688 6.546875 3.816406 6.300781 3.816406 6 C 3.816406 5.699219 4.304688 5.453125 4.910156 5.453125 Z M 4.910156 5.453125 "/>
</g>
</svg>
