<?xml version="1.0" encoding="UTF-8"?>
<svg xmlns="http://www.w3.org/2000/svg" xmlns:xlink="http://www.w3.org/1999/xlink" width="12pt" height="12pt" viewBox="0 0 12 12" version="1.1">
<g id="surface1">
<path style=" stroke:none;fill-rule:nonzero;fill:rgb(81.960784%,85.098039%,89.019608%);fill-opacity:1;" d="M 2.726562 1.636719 C 1.636719 1.636719 1.636719 2.726562 1.636719 2.726562 L 1.636719 7.636719 C 1.636719 7.636719 1.636719 8.726562 2.726562 8.726562 L 9.273438 8.726562 C 9.273438 8.726562 10.363281 8.726562 10.363281 7.636719 L 10.363281 2.726562 C 10.363281 2.726562 10.363281 1.636719 9.273438 1.636719 Z M 2.726562 2.726562 L 9.273438 2.726562 L 9.273438 7.089844 L 2.726562 7.089844 Z M 3.273438 9.816406 L 3.273438 10.363281 L 8.726562 10.363281 L 8.726562 9.816406 C 8.726562 9.273438 8.183594 9.273438 8.183594 9.273438 L 3.816406 9.273438 C 3.816406 9.273438 3.273438 9.273438 3.273438 9.816406 Z M 3.273438 9.816406 "/>
<path style=" stroke:none;fill-rule:nonzero;fill:rgb(81.960784%,85.098039%,89.019608%);fill-opacity:1;" d="M 4.363281 3.273438 L 4.363281 4.363281 L 4.910156 4.363281 L 4.910156 3.273438 Z M 7.089844 3.273438 L 7.089844 4.363281 L 7.636719 4.363281 L 7.636719 3.273438 Z M 4.363281 5.453125 L 4.363281 6 L 7.636719 6 L 7.636719 5.453125 Z M 7.636719 6 L 7.636719 6.546875 L 8.183594 6.546875 L 8.183594 6 Z M 4.363281 6 L 3.816406 6 L 3.816406 6.546875 L 4.363281 6.546875 Z M 4.363281 6 "/>
</g>
</svg>
