<?xml version="1.0" encoding="UTF-8"?>
<svg xmlns="http://www.w3.org/2000/svg" xmlns:xlink="http://www.w3.org/1999/xlink" width="12pt" height="12pt" viewBox="0 0 12 12" version="1.1">
<g id="surface1">
<path style=" stroke:none;fill-rule:nonzero;fill:rgb(81.960784%,85.098039%,89.019608%);fill-opacity:1;" d="M 4.363281 6 C 4.363281 6.601562 3.875 7.089844 3.273438 7.089844 C 2.671875 7.089844 2.183594 6.601562 2.183594 6 C 2.183594 5.398438 2.671875 4.910156 3.273438 4.910156 C 3.875 4.910156 4.363281 5.398438 4.363281 6 Z M 4.363281 6 "/>
<path style=" stroke:none;fill-rule:nonzero;fill:rgb(81.960784%,85.098039%,89.019608%);fill-opacity:1;" d="M 7.089844 6 C 7.089844 6.601562 6.601562 7.089844 6 7.089844 C 5.398438 7.089844 4.910156 6.601562 4.910156 6 C 4.910156 5.398438 5.398438 4.910156 6 4.910156 C 6.601562 4.910156 7.089844 5.398438 7.089844 6 Z M 7.089844 6 "/>
<path style=" stroke:none;fill-rule:nonzero;fill:rgb(81.960784%,85.098039%,89.019608%);fill-opacity:1;" d="M 9.816406 6 C 9.816406 6.601562 9.328125 7.089844 8.726562 7.089844 C 8.125 7.089844 7.636719 6.601562 7.636719 6 C 7.636719 5.398438 8.125 4.910156 8.726562 4.910156 C 9.328125 4.910156 9.816406 5.398438 9.816406 6 Z M 9.816406 6 "/>
</g>
</svg>
