<?xml version="1.0" encoding="UTF-8"?>
<svg xmlns="http://www.w3.org/2000/svg" xmlns:xlink="http://www.w3.org/1999/xlink" width="12pt" height="12pt" viewBox="0 0 12 12" version="1.1">
<g id="surface1">
<path style=" stroke:none;fill-rule:nonzero;fill:rgb(81.960784%,85.098039%,89.019608%);fill-opacity:1;" d="M 6 2.183594 C 3.890625 2.183594 2.183594 3.890625 2.183594 6 C 2.183594 8.109375 3.890625 9.816406 6 9.816406 C 8.109375 9.816406 9.816406 8.109375 9.816406 6 C 9.816406 3.890625 8.109375 2.183594 6 2.183594 Z M 6 3.683594 C 6.375 3.683594 6.683594 3.988281 6.683594 4.363281 C 6.683594 4.738281 6.375 5.046875 6 5.046875 C 5.625 5.046875 5.316406 4.738281 5.316406 4.363281 C 5.316406 3.988281 5.625 3.683594 6 3.683594 Z M 5.453125 5.453125 L 6.546875 5.453125 L 6.546875 8.183594 L 5.453125 8.183594 Z M 5.453125 5.453125 "/>
</g>
</svg>
