<?xml version="1.0" encoding="UTF-8"?>
<svg xmlns="http://www.w3.org/2000/svg" xmlns:xlink="http://www.w3.org/1999/xlink" width="12pt" height="12pt" viewBox="0 0 12 12" version="1.1">
<defs>
<filter id="alpha" filterUnits="objectBoundingBox" x="0%" y="0%" width="100%" height="100%">
  <feColorMatrix type="matrix" in="SourceGraphic" values="0 0 0 0 1 0 0 0 0 1 0 0 0 0 1 0 0 0 1 0"/>
</filter>
<mask id="mask0">
  <g filter="url(#alpha)">
<rect x="0" y="0" width="12" height="12" style="fill:rgb(0%,0%,0%);fill-opacity:0.301961;stroke:none;"/>
  </g>
</mask>
<clipPath id="clip1">
  <rect width="12" height="12"/>
</clipPath>
<g id="surface6" clip-path="url(#clip1)">
<path style=" stroke:none;fill-rule:nonzero;fill:rgb(81.960784%,85.098039%,89.019608%);fill-opacity:1;" d="M 6 2.03125 L 4.804688 3.273438 L 3.273438 3.273438 L 3.273438 4.804688 L 2.03125 6 L 3.273438 7.210938 L 3.273438 8.726562 L 4.804688 8.726562 L 6 9.96875 L 7.210938 8.726562 L 8.726562 8.726562 L 8.726562 7.210938 L 9.96875 6 L 8.726562 4.910156 L 8.726562 3.273438 L 7.210938 3.273438 Z M 6 3.816406 C 7.207031 3.816406 8.183594 4.792969 8.183594 6 C 8.183594 7.207031 7.207031 8.183594 6 8.183594 C 4.792969 8.183594 3.816406 7.207031 3.816406 6 C 3.816406 4.792969 4.792969 3.816406 6 3.816406 Z M 6 3.816406 "/>
</g>
</defs>
<g id="surface1">
<path style=" stroke:none;fill-rule:nonzero;fill:rgb(81.960784%,85.098039%,89.019608%);fill-opacity:1;" d="M 6 4.363281 C 5.09375 4.363281 4.363281 5.09375 4.363281 6 C 4.363281 6.90625 5.09375 7.636719 6 7.636719 Z M 6 4.363281 "/>
<use xlink:href="#surface6" mask="url(#mask0)"/>
</g>
</svg>
