<?xml version="1.0" encoding="UTF-8"?>
<svg xmlns="http://www.w3.org/2000/svg" xmlns:xlink="http://www.w3.org/1999/xlink" width="12pt" height="12pt" viewBox="0 0 12 12" version="1.1">
<defs>
<filter id="alpha" filterUnits="objectBoundingBox" x="0%" y="0%" width="100%" height="100%">
  <feColorMatrix type="matrix" in="SourceGraphic" values="0 0 0 0 1 0 0 0 0 1 0 0 0 0 1 0 0 0 1 0"/>
</filter>
<mask id="mask0">
  <g filter="url(#alpha)">
<rect x="0" y="0" width="12" height="12" style="fill:rgb(0%,0%,0%);fill-opacity:0.301961;stroke:none;"/>
  </g>
</mask>
<clipPath id="clip1">
  <rect width="12" height="12"/>
</clipPath>
<g id="surface6" clip-path="url(#clip1)">
<path style=" stroke:none;fill-rule:nonzero;fill:rgb(81.960784%,85.098039%,89.019608%);fill-opacity:1;" d="M 2.726562 2.453125 C 2.726562 2.453125 2.183594 2.453125 2.183594 3 L 2.183594 5.726562 C 2.183594 5.183594 2.726562 5.183594 2.726562 5.183594 L 5.453125 5.183594 L 6.546875 6.273438 L 9.273438 6.273438 C 9.273438 6.273438 9.816406 6.273438 9.816406 6.816406 L 9.816406 4.089844 C 9.816406 3.546875 9.273438 3.546875 9.273438 3.546875 L 6.546875 3.546875 L 5.453125 2.453125 Z M 2.726562 2.453125 "/>
</g>
</defs>
<g id="surface1">
<use xlink:href="#surface6" mask="url(#mask0)"/>
<path style=" stroke:none;fill-rule:nonzero;fill:rgb(81.960784%,85.098039%,89.019608%);fill-opacity:1;" d="M 2.726562 5.726562 C 2.726562 5.726562 2.183594 5.726562 2.183594 6.273438 L 2.183594 9 C 2.183594 9 2.183594 9.546875 2.726562 9.546875 L 9.273438 9.546875 C 9.273438 9.546875 9.816406 9.546875 9.816406 9 L 9.816406 7.363281 C 9.816406 6.816406 9.273438 6.816406 9.273438 6.816406 L 6.546875 6.816406 L 5.453125 5.726562 Z M 2.726562 5.726562 "/>
</g>
</svg>
