<?xml version="1.0" encoding="UTF-8"?>
<svg xmlns="http://www.w3.org/2000/svg" xmlns:xlink="http://www.w3.org/1999/xlink" width="12pt" height="12pt" viewBox="0 0 12 12" version="1.1">
<defs>
<filter id="alpha" filterUnits="objectBoundingBox" x="0%" y="0%" width="100%" height="100%">
  <feColorMatrix type="matrix" in="SourceGraphic" values="0 0 0 0 1 0 0 0 0 1 0 0 0 0 1 0 0 0 1 0"/>
</filter>
<mask id="mask0">
  <g filter="url(#alpha)">
<rect x="0" y="0" width="12" height="12" style="fill:rgb(0%,0%,0%);fill-opacity:0.301961;stroke:none;"/>
  </g>
</mask>
<clipPath id="clip1">
  <rect width="12" height="12"/>
</clipPath>
<g id="surface6" clip-path="url(#clip1)">
<path style=" stroke:none;fill-rule:nonzero;fill:rgb(81.960784%,85.098039%,89.019608%);fill-opacity:1;" d="M 6 2.183594 C 3.890625 2.183594 2.183594 3.894531 2.183594 6 C 2.183594 8.109375 3.890625 9.816406 6 9.816406 C 8.109375 9.816406 9.816406 8.109375 9.816406 6 C 9.816406 3.894531 8.109375 2.183594 6 2.183594 Z M 6 3.273438 C 7.507812 3.273438 8.726562 4.492188 8.726562 6 C 8.726562 7.507812 7.507812 8.726562 6 8.726562 C 4.492188 8.726562 3.273438 7.507812 3.273438 6 C 3.273438 4.492188 4.492188 3.273438 6 3.273438 Z M 6 3.273438 "/>
</g>
</defs>
<g id="surface1">
<use xlink:href="#surface6" mask="url(#mask0)"/>
</g>
</svg>
