<?xml version="1.0" encoding="UTF-8"?>
<svg xmlns="http://www.w3.org/2000/svg" xmlns:xlink="http://www.w3.org/1999/xlink" width="12pt" height="12pt" viewBox="0 0 12 12" version="1.1">
<g id="surface1">
<path style=" stroke:none;fill-rule:nonzero;fill:rgb(81.960784%,85.098039%,89.019608%);fill-opacity:1;" d="M 7.910156 6 C 6.855469 6 6 6.855469 6 7.910156 C 6 8.960938 6.855469 9.816406 7.910156 9.816406 C 8.960938 9.816406 9.816406 8.960938 9.816406 7.910156 C 9.816406 6.855469 8.960938 6 7.910156 6 Z M 7.636719 6.546875 L 8.183594 6.546875 L 8.183594 9.273438 L 7.636719 9.273438 L 7.636719 7.363281 L 7.089844 7.363281 L 7.089844 7.089844 C 7.636719 7.089844 7.636719 6.546875 7.636719 6.546875 Z M 7.636719 6.546875 "/>
<path style=" stroke:none;fill-rule:nonzero;fill:rgb(81.960784%,85.098039%,89.019608%);fill-opacity:1;" d="M 4.910156 2.183594 L 4.910156 3.273438 L 3.816406 3.273438 C 2.910156 3.273438 2.183594 4.003906 2.183594 4.910156 L 2.183594 7.089844 C 2.183594 7.996094 2.910156 8.726562 3.816406 8.726562 L 5.597656 8.726562 C 5.503906 8.464844 5.457031 8.1875 5.453125 7.910156 C 5.457031 7.816406 5.460938 7.726562 5.472656 7.636719 L 3.816406 7.636719 C 3.515625 7.636719 3.273438 7.394531 3.273438 7.089844 L 3.273438 4.910156 C 3.273438 4.605469 3.515625 4.363281 3.816406 4.363281 L 4.910156 4.363281 L 4.910156 5.453125 L 7.089844 3.816406 Z M 7.636719 3.273438 L 7.636719 4.363281 L 8.183594 4.363281 C 8.484375 4.363281 8.726562 4.605469 8.726562 4.910156 L 8.726562 5.597656 C 9.15625 5.75 9.53125 6.015625 9.816406 6.367188 L 9.816406 4.910156 C 9.816406 4.003906 9.089844 3.273438 8.183594 3.273438 Z M 7.636719 3.273438 "/>
</g>
</svg>
