<?xml version="1.0" encoding="UTF-8"?>
<svg xmlns="http://www.w3.org/2000/svg" xmlns:xlink="http://www.w3.org/1999/xlink" width="12pt" height="12pt" viewBox="0 0 12 12" version="1.1">
<g id="surface1">
<path style=" stroke:none;fill-rule:nonzero;fill:rgb(81.960784%,85.098039%,89.019608%);fill-opacity:1;" d="M 4.089844 6 C 3.039062 6 2.183594 6.855469 2.183594 7.910156 C 2.183594 8.960938 3.039062 9.816406 4.089844 9.816406 C 5.144531 9.816406 6 8.960938 6 7.910156 C 6 6.855469 5.144531 6 4.089844 6 Z M 3.816406 6.546875 L 4.363281 6.546875 L 4.363281 9.273438 L 3.816406 9.273438 L 3.816406 7.363281 L 3.273438 7.363281 L 3.273438 7.089844 C 3.816406 7.089844 3.816406 6.546875 3.816406 6.546875 Z M 3.816406 6.546875 "/>
<path style=" stroke:none;fill-rule:nonzero;fill:rgb(81.960784%,85.098039%,89.019608%);fill-opacity:1;" d="M 7.089844 2.183594 L 4.910156 3.816406 L 7.089844 5.453125 L 7.089844 4.363281 L 8.183594 4.363281 C 8.484375 4.363281 8.726562 4.605469 8.726562 4.910156 L 8.726562 7.089844 C 8.726562 7.394531 8.484375 7.636719 8.183594 7.636719 L 6.527344 7.636719 C 6.539062 7.726562 6.542969 7.816406 6.546875 7.910156 C 6.542969 8.1875 6.496094 8.464844 6.402344 8.726562 L 8.183594 8.726562 C 9.089844 8.726562 9.816406 7.996094 9.816406 7.089844 L 9.816406 4.910156 C 9.816406 4.003906 9.089844 3.273438 8.183594 3.273438 L 7.089844 3.273438 Z M 3.816406 3.273438 C 2.910156 3.273438 2.183594 4.003906 2.183594 4.910156 L 2.183594 6.371094 C 2.46875 6.015625 2.84375 5.75 3.273438 5.597656 L 3.273438 4.910156 C 3.273438 4.605469 3.515625 4.363281 3.816406 4.363281 L 4.363281 4.363281 L 4.363281 3.273438 Z M 3.816406 3.273438 "/>
</g>
</svg>
