<?xml version="1.0" encoding="UTF-8"?>
<svg xmlns="http://www.w3.org/2000/svg" xmlns:xlink="http://www.w3.org/1999/xlink" width="12pt" height="12pt" viewBox="0 0 12 12" version="1.1">
<g id="surface1">
<path style=" stroke:none;fill-rule:nonzero;fill:rgb(81.960784%,85.098039%,89.019608%);fill-opacity:1;" d="M 3.273438 2.183594 C 2.667969 2.183594 2.183594 2.667969 2.183594 3.273438 L 2.183594 8.726562 C 2.183594 9.332031 2.667969 9.816406 3.273438 9.816406 L 8.726562 9.816406 C 9.332031 9.816406 9.816406 9.332031 9.816406 8.726562 L 9.816406 3.273438 C 9.816406 2.667969 9.332031 2.183594 8.726562 2.183594 Z M 4.910156 3.273438 L 7.089844 3.273438 C 8.183594 3.273438 8.183594 4.363281 8.183594 4.363281 L 8.183594 4.910156 L 7.089844 4.910156 L 7.089844 4.363281 L 4.910156 4.363281 L 4.910156 7.636719 L 7.089844 7.636719 L 7.089844 7.089844 L 6 7.089844 L 6 6 L 8.183594 6 L 8.183594 7.636719 C 8.183594 7.636719 8.183594 8.726562 7.089844 8.726562 L 4.910156 8.726562 C 4.910156 8.726562 3.816406 8.726562 3.816406 7.636719 L 3.816406 4.363281 C 3.816406 3.273438 4.910156 3.273438 4.910156 3.273438 Z M 4.910156 3.273438 "/>
</g>
</svg>
