<?xml version="1.0" encoding="UTF-8"?>
<svg xmlns="http://www.w3.org/2000/svg" xmlns:xlink="http://www.w3.org/1999/xlink" width="12pt" height="12pt" viewBox="0 0 12 12" version="1.1">
<defs>
<filter id="alpha" filterUnits="objectBoundingBox" x="0%" y="0%" width="100%" height="100%">
  <feColorMatrix type="matrix" in="SourceGraphic" values="0 0 0 0 1 0 0 0 0 1 0 0 0 0 1 0 0 0 1 0"/>
</filter>
<mask id="mask0">
  <g filter="url(#alpha)">
<rect x="0" y="0" width="12" height="12" style="fill:rgb(0%,0%,0%);fill-opacity:0.301961;stroke:none;"/>
  </g>
</mask>
<clipPath id="clip1">
  <rect width="12" height="12"/>
</clipPath>
<g id="surface6" clip-path="url(#clip1)">
<path style=" stroke:none;fill-rule:nonzero;fill:rgb(81.960784%,85.098039%,89.019608%);fill-opacity:1;" d="M 4.089844 2.453125 C 2.738281 2.453125 1.636719 3.554688 1.636719 4.910156 C 1.636719 6.265625 2.738281 7.363281 4.089844 7.363281 C 5.132812 7.363281 6.054688 6.710938 6.402344 5.726562 L 8.183594 5.726562 L 8.183594 6.273438 L 9.816406 6.273438 L 9.816406 5.726562 L 10.363281 5.726562 L 10.363281 4.089844 L 6.402344 4.089844 C 6.054688 3.113281 5.132812 2.460938 4.089844 2.453125 Z M 4.089844 4.089844 C 4.542969 4.089844 4.910156 4.457031 4.910156 4.910156 C 4.910156 5.363281 4.542969 5.726562 4.089844 5.726562 C 3.636719 5.726562 3.273438 5.363281 3.273438 4.910156 C 3.273438 4.457031 3.636719 4.089844 4.089844 4.089844 Z M 4.089844 4.089844 "/>
</g>
</defs>
<g id="surface1">
<use xlink:href="#surface6" mask="url(#mask0)"/>
<path style=" stroke:none;fill-rule:nonzero;fill:rgb(81.960784%,85.098039%,89.019608%);fill-opacity:1;" d="M 7.636719 6.816406 L 7.636719 7.363281 C 7.636719 7.515625 7.691406 7.65625 7.789062 7.757812 L 8.214844 8.183594 L 7.789062 8.605469 C 7.691406 8.710938 7.636719 8.851562 7.636719 9 L 7.636719 9.546875 L 8.183594 9.546875 C 8.335938 9.546875 8.476562 9.492188 8.574219 9.394531 L 9 8.96875 L 9.425781 9.394531 C 9.523438 9.492188 9.671875 9.546875 9.816406 9.546875 L 10.363281 9.546875 L 10.363281 9 C 10.363281 8.851562 10.308594 8.710938 10.210938 8.605469 L 9.785156 8.183594 L 10.210938 7.757812 C 10.308594 7.65625 10.363281 7.515625 10.363281 7.363281 L 10.363281 6.816406 L 9.816406 6.816406 C 9.671875 6.816406 9.523438 6.871094 9.425781 6.972656 L 9 7.402344 L 8.574219 6.972656 C 8.476562 6.871094 8.335938 6.816406 8.183594 6.816406 Z M 7.636719 6.816406 "/>
</g>
</svg>
