<?xml version="1.0" encoding="UTF-8"?>
<svg xmlns="http://www.w3.org/2000/svg" xmlns:xlink="http://www.w3.org/1999/xlink" width="12pt" height="12pt" viewBox="0 0 12 12" version="1.1">
<defs>
<filter id="alpha" filterUnits="objectBoundingBox" x="0%" y="0%" width="100%" height="100%">
  <feColorMatrix type="matrix" in="SourceGraphic" values="0 0 0 0 1 0 0 0 0 1 0 0 0 0 1 0 0 0 1 0"/>
</filter>
<mask id="mask0">
  <g filter="url(#alpha)">
<rect x="0" y="0" width="12" height="12" style="fill:rgb(0%,0%,0%);fill-opacity:0.301961;stroke:none;"/>
  </g>
</mask>
<clipPath id="clip1">
  <rect width="12" height="12"/>
</clipPath>
<g id="surface6" clip-path="url(#clip1)">
<path style=" stroke:none;fill-rule:nonzero;fill:rgb(81.960784%,85.098039%,89.019608%);fill-opacity:1;" d="M 4.15625 3.546875 C 3.578125 3.546875 3.050781 3.753906 2.632812 4.089844 L 5.6875 4.089844 C 5.261719 3.75 4.730469 3.546875 4.15625 3.546875 Z M 2.117188 7.363281 C 2.558594 8.019531 3.308594 8.453125 4.15625 8.453125 C 4.988281 8.453125 5.738281 8.03125 6.1875 7.363281 Z M 8.246094 7.363281 L 8.246094 7.910156 L 9.882812 7.910156 L 9.882812 7.363281 Z M 8.246094 7.363281 "/>
</g>
</defs>
<g id="surface1">
<path style=" stroke:none;fill-rule:nonzero;fill:rgb(81.960784%,85.098039%,89.019608%);fill-opacity:1;" d="M 4.429688 5.726562 C 4.429688 6.328125 3.941406 6.816406 3.339844 6.816406 C 2.734375 6.816406 2.246094 6.328125 2.246094 5.726562 C 2.246094 5.125 2.734375 4.636719 3.339844 4.636719 C 3.941406 4.636719 4.429688 5.125 4.429688 5.726562 Z M 4.429688 5.726562 "/>
<path style=" stroke:none;fill-rule:nonzero;fill:rgb(81.960784%,85.098039%,89.019608%);fill-opacity:1;" d="M 7.15625 5.726562 C 7.15625 6.328125 6.667969 6.816406 6.066406 6.816406 C 5.464844 6.816406 4.972656 6.328125 4.972656 5.726562 C 4.972656 5.125 5.464844 4.636719 6.066406 4.636719 C 6.667969 4.636719 7.15625 5.125 7.15625 5.726562 Z M 7.15625 5.726562 "/>
<path style=" stroke:none;fill-rule:nonzero;fill:rgb(81.960784%,85.098039%,89.019608%);fill-opacity:1;" d="M 9.882812 5.726562 C 9.882812 6.328125 9.394531 6.816406 8.792969 6.816406 C 8.191406 6.816406 7.703125 6.328125 7.703125 5.726562 C 7.703125 5.125 8.191406 4.636719 8.792969 4.636719 C 9.394531 4.636719 9.882812 5.125 9.882812 5.726562 Z M 9.882812 5.726562 "/>
<use xlink:href="#surface6" mask="url(#mask0)"/>
</g>
</svg>
