<?xml version="1.0" encoding="UTF-8"?>
<svg xmlns="http://www.w3.org/2000/svg" xmlns:xlink="http://www.w3.org/1999/xlink" width="12pt" height="12pt" viewBox="0 0 12 12" version="1.1">
<g id="surface1">
<path style=" stroke:none;fill-rule:nonzero;fill:rgb(81.960784%,85.098039%,89.019608%);fill-opacity:1;" d="M 6 2.726562 C 4.335938 2.726562 2.769531 3.3125 1.636719 4.363281 L 6 9.273438 L 10.363281 4.363281 C 9.230469 3.3125 7.664062 2.726562 6 2.726562 Z M 6 3.816406 C 6.605469 3.816406 7.089844 4.308594 7.089844 4.910156 C 7.089844 5.515625 6.605469 6 6 6 L 6 6.546875 L 5.453125 6.546875 L 5.453125 5.453125 L 6 5.453125 C 6.304688 5.453125 6.546875 5.214844 6.546875 4.910156 C 6.546875 4.609375 6.304688 4.363281 6 4.363281 C 5.699219 4.363281 5.453125 4.609375 5.453125 4.910156 L 4.910156 4.910156 C 4.910156 4.308594 5.398438 3.816406 6 3.816406 Z M 5.453125 7.089844 L 6 7.089844 L 6 7.636719 L 5.453125 7.636719 Z M 5.453125 7.089844 "/>
</g>
</svg>
