<?xml version="1.0" encoding="UTF-8"?>
<svg xmlns="http://www.w3.org/2000/svg" xmlns:xlink="http://www.w3.org/1999/xlink" width="12pt" height="12pt" viewBox="0 0 12 12" version="1.1">
<defs>
<filter id="alpha" filterUnits="objectBoundingBox" x="0%" y="0%" width="100%" height="100%">
  <feColorMatrix type="matrix" in="SourceGraphic" values="0 0 0 0 1 0 0 0 0 1 0 0 0 0 1 0 0 0 1 0"/>
</filter>
<mask id="mask0">
  <g filter="url(#alpha)">
<rect x="0" y="0" width="12" height="12" style="fill:rgb(0%,0%,0%);fill-opacity:0.301961;stroke:none;"/>
  </g>
</mask>
<clipPath id="clip1">
  <rect width="12" height="12"/>
</clipPath>
<g id="surface6" clip-path="url(#clip1)">
<path style=" stroke:none;fill-rule:nonzero;fill:rgb(81.960784%,85.098039%,89.019608%);fill-opacity:1;" d="M 3.816406 2.453125 L 3.816406 3.546875 L 8.183594 3.546875 L 8.183594 2.453125 Z M 2.726562 4.089844 C 2.453125 4.089844 2.183594 4.363281 2.183594 4.636719 L 9.816406 4.636719 C 9.816406 4.363281 9.546875 4.089844 9.273438 4.089844 Z M 3.816406 7.910156 L 3.816406 9.546875 L 8.183594 9.546875 L 8.183594 7.910156 Z M 3.816406 7.910156 "/>
</g>
</defs>
<g id="surface1">
<use xlink:href="#surface6" mask="url(#mask0)"/>
<path style=" stroke:none;fill-rule:nonzero;fill:rgb(81.960784%,85.098039%,89.019608%);fill-opacity:1;" d="M 4.363281 6.273438 C 4.363281 6.875 3.875 7.363281 3.273438 7.363281 C 2.671875 7.363281 2.183594 6.875 2.183594 6.273438 C 2.183594 5.671875 2.671875 5.183594 3.273438 5.183594 C 3.875 5.183594 4.363281 5.671875 4.363281 6.273438 Z M 4.363281 6.273438 "/>
<path style=" stroke:none;fill-rule:nonzero;fill:rgb(81.960784%,85.098039%,89.019608%);fill-opacity:1;" d="M 7.089844 6.273438 C 7.089844 6.875 6.601562 7.363281 6 7.363281 C 5.398438 7.363281 4.910156 6.875 4.910156 6.273438 C 4.910156 5.671875 5.398438 5.183594 6 5.183594 C 6.601562 5.183594 7.089844 5.671875 7.089844 6.273438 Z M 7.089844 6.273438 "/>
<path style=" stroke:none;fill-rule:nonzero;fill:rgb(81.960784%,85.098039%,89.019608%);fill-opacity:1;" d="M 9.816406 6.273438 C 9.816406 6.875 9.328125 7.363281 8.726562 7.363281 C 8.125 7.363281 7.636719 6.875 7.636719 6.273438 C 7.636719 5.671875 8.125 5.183594 8.726562 5.183594 C 9.328125 5.183594 9.816406 5.671875 9.816406 6.273438 Z M 9.816406 6.273438 "/>
</g>
</svg>
