<?xml version="1.0" encoding="UTF-8"?>
<svg xmlns="http://www.w3.org/2000/svg" xmlns:xlink="http://www.w3.org/1999/xlink" width="12pt" height="12pt" viewBox="0 0 12 12" version="1.1">
<g id="surface1">
<path style=" stroke:none;fill-rule:nonzero;fill:rgb(81.960784%,85.098039%,89.019608%);fill-opacity:1;" d="M 6 4.363281 C 5.09375 4.363281 4.363281 5.09375 4.363281 6 C 4.363281 6.90625 5.09375 7.636719 6 7.636719 C 6.90625 7.636719 7.636719 6.90625 7.636719 6 C 7.636719 5.09375 6.90625 4.363281 6 4.363281 Z M 6 4.363281 "/>
<path style=" stroke:none;fill-rule:nonzero;fill:rgb(81.960784%,85.098039%,89.019608%);fill-opacity:1;" d="M 6 2.183594 C 3.894531 2.183594 2.183594 3.894531 2.183594 6 C 2.183594 8.105469 3.894531 9.816406 6 9.816406 C 8.105469 9.816406 9.816406 8.105469 9.816406 6 C 9.816406 3.894531 8.105469 2.183594 6 2.183594 Z M 6 2.726562 C 7.8125 2.726562 9.273438 4.1875 9.273438 6 C 9.273438 7.8125 7.8125 9.273438 6 9.273438 C 4.1875 9.273438 2.726562 7.8125 2.726562 6 C 2.726562 4.1875 4.1875 2.726562 6 2.726562 Z M 6 2.726562 "/>
</g>
</svg>
