<?xml version="1.0" encoding="UTF-8"?>
<svg xmlns="http://www.w3.org/2000/svg" xmlns:xlink="http://www.w3.org/1999/xlink" width="12pt" height="12pt" viewBox="0 0 12 12" version="1.1">
<g id="surface1">
<path style=" stroke:none;fill-rule:nonzero;fill:rgb(32.156863%,58.039216%,88.627451%);fill-opacity:1;" d="M 6 1.910156 L 2.726562 3 L 2.726562 6.816406 C 2.726562 7.949219 3.589844 8.722656 4.332031 9.238281 C 5.074219 9.757812 6 10.089844 6 10.089844 C 6 10.089844 6.925781 9.757812 7.667969 9.238281 C 8.410156 8.714844 9.273438 7.929688 9.273438 6.816406 L 9.273438 3 Z M 4.773438 3.824219 L 6 5.050781 L 7.226562 3.824219 L 7.902344 4.5 L 6.675781 5.726562 L 7.902344 6.953125 L 7.226562 7.632812 L 6 6.402344 L 4.773438 7.632812 L 4.097656 6.953125 L 5.324219 5.726562 L 4.097656 4.5 Z M 4.773438 3.824219 "/>
</g>
</svg>
