<?xml version="1.0" encoding="UTF-8"?>
<svg xmlns="http://www.w3.org/2000/svg" xmlns:xlink="http://www.w3.org/1999/xlink" width="12pt" height="12pt" viewBox="0 0 12 12" version="1.1">
<g id="surface1">
<path style=" stroke:none;fill-rule:nonzero;fill:rgb(81.960784%,85.098039%,89.019608%);fill-opacity:1;" d="M 6 1.636719 C 5.398438 1.636719 4.910156 2.125 4.910156 2.726562 L 2.726562 2.726562 C 2.425781 2.726562 2.183594 2.96875 2.183594 3.273438 L 2.183594 9.273438 C 2.183594 9.574219 2.425781 9.816406 2.726562 9.816406 L 7.636719 9.816406 L 7.636719 8.183594 L 3.816406 8.183594 L 3.816406 7.636719 L 7.636719 7.636719 L 7.636719 6.546875 L 3.816406 6.546875 L 3.816406 6 L 7.636719 6 L 7.636719 4.910156 L 3.816406 4.910156 L 3.816406 4.363281 L 8.183594 4.363281 L 8.183594 4.910156 L 9.816406 4.910156 L 9.816406 3.273438 C 9.816406 2.96875 9.574219 2.726562 9.273438 2.726562 L 7.089844 2.726562 C 7.089844 2.125 6.601562 1.636719 6 1.636719 Z M 6 2.183594 C 6.300781 2.183594 6.546875 2.425781 6.546875 2.726562 C 6.546875 3.027344 6.300781 3.273438 6 3.273438 C 5.699219 3.273438 5.453125 3.027344 5.453125 2.726562 C 5.453125 2.425781 5.699219 2.183594 6 2.183594 Z M 6 2.183594 "/>
<path style=" stroke:none;fill-rule:nonzero;fill:rgb(32.156863%,58.039216%,88.627451%);fill-opacity:1;" d="M 8.183594 5.453125 L 8.183594 7.636719 L 8.316406 8.726562 L 9.136719 8.726562 L 9.273438 7.636719 L 9.273438 5.453125 Z M 8.183594 9.273438 L 8.183594 10.363281 L 9.273438 10.363281 L 9.273438 9.273438 Z M 8.183594 9.273438 "/>
</g>
</svg>
