<?xml version="1.0" encoding="UTF-8"?>
<svg xmlns="http://www.w3.org/2000/svg" xmlns:xlink="http://www.w3.org/1999/xlink" width="12pt" height="12pt" viewBox="0 0 12 12" version="1.1">
<g id="surface1">
<path style=" stroke:none;fill-rule:nonzero;fill:rgb(81.960784%,85.098039%,89.019608%);fill-opacity:1;" d="M 2.183594 2.453125 C 1.636719 2.453125 1.636719 3 1.636719 3 L 1.636719 9 C 1.636719 9 1.636719 9.546875 2.183594 9.546875 L 9.816406 9.546875 C 9.816406 9.546875 10.363281 9.546875 10.363281 9 L 10.363281 3 C 10.363281 2.453125 9.816406 2.453125 9.816406 2.453125 Z M 2.726562 3.546875 L 9.273438 3.546875 L 9.273438 6.816406 L 2.726562 6.816406 Z M 2.726562 7.363281 L 5.453125 7.363281 L 5.453125 8.453125 L 2.726562 8.453125 Z M 6.546875 7.363281 L 9.273438 7.363281 L 9.273438 8.453125 L 6.546875 8.453125 Z M 6.546875 7.363281 "/>
</g>
</svg>
