<?xml version="1.0" encoding="UTF-8"?>
<svg xmlns="http://www.w3.org/2000/svg" xmlns:xlink="http://www.w3.org/1999/xlink" width="12pt" height="12pt" viewBox="0 0 12 12" version="1.1">
<defs>
<filter id="alpha" filterUnits="objectBoundingBox" x="0%" y="0%" width="100%" height="100%">
  <feColorMatrix type="matrix" in="SourceGraphic" values="0 0 0 0 1 0 0 0 0 1 0 0 0 0 1 0 0 0 1 0"/>
</filter>
<mask id="mask0">
  <g filter="url(#alpha)">
<rect x="0" y="0" width="12" height="12" style="fill:rgb(0%,0%,0%);fill-opacity:0.301961;stroke:none;"/>
  </g>
</mask>
<clipPath id="clip1">
  <rect width="12" height="12"/>
</clipPath>
<g id="surface6" clip-path="url(#clip1)">
<path style=" stroke:none;fill-rule:nonzero;fill:rgb(81.960784%,85.098039%,89.019608%);fill-opacity:1;" d="M 5.453125 2.183594 C 4.550781 2.183594 3.816406 2.914062 3.816406 3.816406 C 3.816406 4.71875 4.550781 5.453125 5.453125 5.453125 C 6.359375 5.453125 7.089844 4.71875 7.089844 3.816406 C 7.089844 2.914062 6.359375 2.183594 5.453125 2.183594 Z M 5.453125 6.546875 C 2.183594 6.546875 2.183594 8.726562 2.183594 8.726562 L 2.183594 9.273438 L 5.867188 9.273438 C 5.597656 8.871094 5.453125 8.394531 5.453125 7.910156 C 5.453125 7.429688 5.59375 6.960938 5.859375 6.5625 C 5.726562 6.550781 5.597656 6.546875 5.453125 6.546875 Z M 5.453125 6.546875 "/>
</g>
</defs>
<g id="surface1">
<use xlink:href="#surface6" mask="url(#mask0)"/>
<path style=" stroke:none;fill-rule:nonzero;fill:rgb(81.960784%,85.098039%,89.019608%);fill-opacity:1;" d="M 7.910156 6 C 6.855469 6 6 6.855469 6 7.910156 C 6 8.960938 6.855469 9.816406 7.910156 9.816406 C 8.960938 9.816406 9.816406 8.960938 9.816406 7.910156 C 9.816406 6.855469 8.960938 6 7.910156 6 Z M 7.636719 6.546875 L 8.183594 6.546875 L 8.183594 7.636719 L 9.273438 7.636719 L 9.273438 8.183594 L 7.636719 8.183594 Z M 7.636719 6.546875 "/>
</g>
</svg>
