<?xml version="1.0" encoding="UTF-8"?>
<svg xmlns="http://www.w3.org/2000/svg" xmlns:xlink="http://www.w3.org/1999/xlink" width="12pt" height="12pt" viewBox="0 0 12 12" version="1.1">
<defs>
<filter id="alpha" filterUnits="objectBoundingBox" x="0%" y="0%" width="100%" height="100%">
  <feColorMatrix type="matrix" in="SourceGraphic" values="0 0 0 0 1 0 0 0 0 1 0 0 0 0 1 0 0 0 1 0"/>
</filter>
<mask id="mask0">
  <g filter="url(#alpha)">
<rect x="0" y="0" width="12" height="12" style="fill:rgb(0%,0%,0%);fill-opacity:0.301961;stroke:none;"/>
  </g>
</mask>
<clipPath id="clip1">
  <rect width="12" height="12"/>
</clipPath>
<g id="surface6" clip-path="url(#clip1)">
<path style=" stroke:none;fill-rule:nonzero;fill:rgb(81.960784%,85.098039%,89.019608%);fill-opacity:1;" d="M 6 2.453125 C 6.90625 2.453125 7.636719 3.183594 7.636719 4.089844 C 7.636719 4.992188 6.90625 5.726562 6 5.726562 C 5.09375 5.726562 4.363281 4.992188 4.363281 4.089844 C 4.363281 3.183594 5.09375 2.453125 6 2.453125 Z M 6 6.816406 C 9.273438 6.8125 9.273438 9 9.273438 9 L 9.273438 9.546875 L 2.726562 9.546875 L 2.726562 9 C 2.726562 9 2.726562 6.816406 6 6.816406 Z M 6 6.816406 "/>
</g>
</defs>
<g id="surface1">
<use xlink:href="#surface6" mask="url(#mask0)"/>
</g>
</svg>
