<?xml version="1.0" encoding="UTF-8"?>
<svg xmlns="http://www.w3.org/2000/svg" xmlns:xlink="http://www.w3.org/1999/xlink" width="12pt" height="12pt" viewBox="0 0 12 12" version="1.1">
<g id="surface1">
<path style=" stroke:none;fill-rule:nonzero;fill:rgb(81.960784%,85.098039%,89.019608%);fill-opacity:1;" d="M 5.453125 2.183594 C 4.546875 2.183594 3.816406 2.910156 3.816406 3.816406 L 3.816406 4.910156 L 2.726562 4.910156 L 4.363281 7.089844 L 6 4.910156 L 4.910156 4.910156 L 4.910156 3.816406 C 4.910156 3.515625 5.152344 3.273438 5.453125 3.273438 L 7.636719 3.273438 C 7.9375 3.273438 8.183594 3.515625 8.183594 3.816406 L 8.183594 8.183594 C 8.183594 8.484375 7.9375 8.726562 7.636719 8.726562 L 6 8.726562 L 6 9.816406 L 7.636719 9.816406 C 8.542969 9.816406 9.273438 9.089844 9.273438 8.183594 L 9.273438 3.816406 C 9.273438 2.910156 8.542969 2.183594 7.636719 2.183594 Z M 5.453125 2.183594 "/>
</g>
</svg>
