<?xml version="1.0" encoding="UTF-8"?>
<svg xmlns="http://www.w3.org/2000/svg" xmlns:xlink="http://www.w3.org/1999/xlink" width="12pt" height="12pt" viewBox="0 0 12 12" version="1.1">
<g id="surface1">
<path style=" stroke:none;fill-rule:nonzero;fill:rgb(81.960784%,85.098039%,89.019608%);fill-opacity:1;" d="M 8.726562 10.089844 C 9.480469 10.089844 10.089844 9.480469 10.089844 8.726562 C 10.089844 8.035156 9.566406 7.46875 8.894531 7.378906 C 8.679688 6.742188 8.078125 6.273438 7.363281 6.273438 C 6.648438 6.273438 6.054688 6.742188 5.832031 7.378906 C 5.160156 7.46875 4.636719 8.035156 4.636719 8.726562 C 4.636719 9.480469 5.246094 10.089844 6 10.089844 "/>
<path style=" stroke:none;fill-rule:nonzero;fill:rgb(81.960784%,85.098039%,89.019608%);fill-opacity:1;" d="M 5.726562 1.910156 C 3.609375 1.910156 1.910156 3.617188 1.910156 5.726562 C 1.910156 7.277344 2.832031 8.605469 4.160156 9.207031 C 4.121094 9.050781 4.089844 8.894531 4.089844 8.726562 C 4.089844 8.078125 4.449219 7.554688 4.960938 7.230469 C 4.421875 6.609375 4.089844 5.796875 4.089844 4.910156 C 4.089844 3.691406 4.707031 2.558594 5.726562 1.910156 Z M 5.726562 1.910156 "/>
</g>
</svg>
