<?xml version="1.0" encoding="UTF-8"?>
<svg xmlns="http://www.w3.org/2000/svg" xmlns:xlink="http://www.w3.org/1999/xlink" width="12pt" height="12pt" viewBox="0 0 12 12" version="1.1">
<g id="surface1">
<path style=" stroke:none;fill-rule:nonzero;fill:rgb(81.960784%,85.098039%,89.019608%);fill-opacity:1;" d="M 4.910156 5.453125 L 4.910156 8.183594 L 5.453125 8.183594 L 5.453125 10.363281 L 7.089844 7.636719 L 6.546875 7.636719 L 7.363281 5.453125 Z M 4.910156 5.453125 "/>
<path style=" stroke:none;fill-rule:nonzero;fill:rgb(81.960784%,85.098039%,89.019608%);fill-opacity:1;" d="M 6 1.636719 C 4.871094 1.636719 3.910156 2.328125 3.496094 3.304688 C 2.445312 3.464844 1.636719 4.359375 1.636719 5.453125 C 1.636719 6.660156 2.613281 7.636719 3.816406 7.636719 L 4.363281 7.636719 L 4.363281 4.910156 L 8.148438 4.910156 L 7.332031 7.089844 L 8.054688 7.089844 L 7.730469 7.636719 L 8.453125 7.636719 C 9.507812 7.636719 10.363281 6.78125 10.363281 5.726562 C 10.363281 4.746094 9.628906 3.945312 8.679688 3.835938 C 8.425781 2.585938 7.324219 1.636719 6 1.636719 Z M 6 1.636719 "/>
</g>
</svg>
