<?xml version="1.0" encoding="UTF-8"?>
<svg xmlns="http://www.w3.org/2000/svg" xmlns:xlink="http://www.w3.org/1999/xlink" width="12pt" height="12pt" viewBox="0 0 12 12" version="1.1">
<g id="surface1">
<path style=" stroke:none;fill-rule:nonzero;fill:rgb(81.960784%,85.098039%,89.019608%);fill-opacity:1;" d="M 7.636719 6.546875 C 6.921875 6.546875 6.328125 7.015625 6.105469 7.652344 C 5.433594 7.738281 4.910156 8.308594 4.910156 9 C 4.910156 9.753906 5.519531 10.363281 6.273438 10.363281 L 9 10.363281 C 9.753906 10.363281 10.363281 9.753906 10.363281 9 C 10.363281 8.308594 9.839844 7.738281 9.167969 7.652344 C 8.949219 7.015625 8.351562 6.546875 7.636719 6.546875 Z M 7.636719 6.546875 "/>
<path style=" stroke:none;fill-rule:nonzero;fill:rgb(81.960784%,85.098039%,89.019608%);fill-opacity:1;" d="M 5.453125 1.636719 L 5.183594 2.199219 C 5.269531 2.191406 5.363281 2.183594 5.453125 2.183594 L 5.726562 2.183594 Z M 5.453125 2.726562 C 3.949219 2.726562 2.726562 3.949219 2.726562 5.453125 C 2.726562 6.683594 3.550781 7.703125 4.667969 8.046875 C 4.789062 7.871094 4.9375 7.71875 5.109375 7.585938 C 5.128906 7.578125 5.148438 7.558594 5.164062 7.550781 C 5.203125 7.523438 5.246094 7.496094 5.289062 7.472656 C 5.433594 7.386719 5.585938 7.308594 5.742188 7.261719 C 5.78125 7.183594 5.824219 7.105469 5.867188 7.035156 C 6.125 6.628906 6.496094 6.304688 6.945312 6.132812 C 6.945312 6.132812 6.945312 6.132812 6.949219 6.132812 C 7.035156 6.09375 7.132812 6.066406 7.226562 6.050781 C 7.25 6.042969 7.277344 6.03125 7.296875 6.03125 C 7.40625 6.011719 7.523438 6 7.636719 6 C 7.71875 6 7.800781 6.003906 7.875 6.023438 C 7.957031 6.027344 8.039062 6.042969 8.117188 6.066406 C 8.160156 5.867188 8.183594 5.667969 8.183594 5.453125 C 8.183594 3.949219 6.960938 2.726562 5.453125 2.726562 Z M 2.761719 2.761719 L 2.949219 3.34375 C 3.070312 3.203125 3.203125 3.070312 3.34375 2.949219 Z M 8.148438 2.761719 L 7.550781 2.96875 L 7.515625 2.96875 C 7.59375 3.027344 7.667969 3.085938 7.738281 3.152344 C 7.8125 3.21875 7.882812 3.285156 7.941406 3.359375 Z M 2.183594 5.183594 L 1.636719 5.453125 L 2.199219 5.726562 C 2.191406 5.632812 2.183594 5.546875 2.183594 5.453125 C 2.183594 5.4375 2.183594 5.410156 2.183594 5.367188 C 2.1875 5.308594 2.191406 5.242188 2.199219 5.183594 Z M 8.710938 5.183594 C 8.714844 5.273438 8.726562 5.363281 8.726562 5.453125 C 8.726562 5.472656 8.726562 5.5 8.726562 5.542969 C 8.722656 5.601562 8.714844 5.667969 8.710938 5.726562 L 8.726562 5.726562 L 9.273438 5.453125 Z M 2.96875 7.550781 L 2.761719 8.148438 L 3.359375 7.941406 L 3.394531 7.941406 C 3.316406 7.882812 3.238281 7.820312 3.167969 7.757812 C 3.097656 7.691406 3.027344 7.625 2.96875 7.550781 Z M 2.96875 7.550781 "/>
</g>
</svg>
