<?xml version="1.0" encoding="UTF-8" standalone="no"?>
<svg
   xmlns:dc="http://purl.org/dc/elements/1.1/"
   xmlns:cc="http://creativecommons.org/ns#"
   xmlns:rdf="http://www.w3.org/1999/02/22-rdf-syntax-ns#"
   xmlns:svg="http://www.w3.org/2000/svg"
   xmlns="http://www.w3.org/2000/svg"
   xmlns:sodipodi="http://sodipodi.sourceforge.net/DTD/sodipodi-0.dtd"
   xmlns:inkscape="http://www.inkscape.org/namespaces/inkscape"
   width="32"
   height="32"
   version="1"
   id="svg16"
   sodipodi:docname="application-vnd.sun.xml.base.svg"
   inkscape:version="0.92.1 r">
  <metadata
     id="metadata22">
    <rdf:RDF>
      <cc:Work
         rdf:about="">
        <dc:format>image/svg+xml</dc:format>
        <dc:type
           rdf:resource="http://purl.org/dc/dcmitype/StillImage" />
      </cc:Work>
    </rdf:RDF>
  </metadata>
  <defs
     id="defs20" />
  <sodipodi:namedview
     pagecolor="#ffffff"
     bordercolor="#666666"
     borderopacity="1"
     objecttolerance="10"
     gridtolerance="10"
     guidetolerance="10"
     inkscape:pageopacity="0"
     inkscape:pageshadow="2"
     inkscape:window-width="1680"
     inkscape:window-height="978"
     id="namedview18"
     showgrid="false"
     inkscape:zoom="7.375"
     inkscape:cx="-31.050847"
     inkscape:cy="5.0169492"
     inkscape:window-x="0"
     inkscape:window-y="0"
     inkscape:window-maximized="1"
     inkscape:current-layer="svg16" />
  <path
     style="opacity:1;fill:#e81d62;fill-opacity:1;fill-rule:evenodd;stroke:none;stroke-width:1.02788651;stroke-linecap:round;stroke-linejoin:bevel;stroke-miterlimit:4;stroke-dasharray:none;stroke-dashoffset:0;stroke-opacity:1"
     d="M 21.186981,2.0000002 H 7.536011 C 4.469605,2.0000002 2,4.4676665 2,7.5340723 V 24.463989 C 2,27.530395 4.469605,30 7.536011,30 h 16.929917 c 3.066406,0 5.534071,-2.469605 5.534071,-5.536011 v -13.65097 z"
     id="path4508"
     inkscape:connector-curvature="0" />
  <path
     style="opacity:1;fill:#bf1851;fill-opacity:1;fill-rule:evenodd;stroke:none;stroke-width:1.02788651;stroke-linecap:round;stroke-linejoin:bevel;stroke-miterlimit:4;stroke-dasharray:none;stroke-dashoffset:0;stroke-opacity:1"
     d="M 29.999999,10.813019 21.186981,2.0000003 v 3.2789473 c 0,3.0664056 2.467666,5.5340714 5.534072,5.5340714 z"
     id="rect4497-3"
     inkscape:connector-curvature="0" />
  <path
     style="fill:#ffb2af;fill-opacity:1;stroke-width:1.46101701"
     d="m 15.930454,10.864407 c -2.991647,0 -5.547141,0.671963 -6.6060476,1.622881 -0.088916,0.07984 -0.1697024,0.159874 -0.2368017,0.243433 -0.063739,0.07941 -0.1172525,0.16108 -0.1601812,0.243432 a 7.1318847,2.5966102 0 0 0 -0.031351,0.07608 c -0.024444,0.05582 -0.05167,0.110415 -0.066168,0.167359 a 7.1318847,2.5966102 0 0 0 -0.031351,0.243432 c 3.917e-4,0.08437 0.015511,0.169911 0.038295,0.253574 a 7.1318847,2.5966102 0 0 0 0.097507,0.243433 7.1318847,2.5966102 0 0 0 0.1636763,0.240896 7.1318847,2.5966102 0 0 0 0.226353,0.235826 7.1318847,2.5966102 0 0 0 6.6060472,1.622881 7.1318847,2.5966102 0 0 0 6.606048,-1.622881 7.1318847,2.5966102 0 0 0 0.0035,0 7.1318847,2.5966102 0 0 0 0.19153,-0.20286 c 0.01147,-0.01316 0.02757,-0.02482 0.03832,-0.03804 a 7.1318847,2.5966102 0 0 0 0.114909,-0.17243 c 0.01658,-0.02716 0.03801,-0.0538 0.05224,-0.08114 a 7.1318847,2.5966102 0 0 0 0.0592,-0.144539 c 0.01373,-0.03808 0.02923,-0.07582 0.0383,-0.114108 a 7.1318847,2.5966102 0 0 0 0.03134,-0.218075 7.1318847,2.5966102 0 0 0 -0.0383,-0.261183 c -0.06954,-0.250577 -0.237916,-0.487943 -0.487532,-0.71255 -1.059084,-0.95036 -3.614221,-1.622882 -6.606047,-1.622882 z m -6.6060476,5.19322 c -0.345896,0.337559 -0.5240544,0.698955 -0.5258373,1.06248 0,1.564458 3.1933019,2.832436 7.1318849,2.832436 3.938584,0 7.131885,-1.267978 7.131885,-2.832436 -0.0018,-0.363525 -0.179941,-0.724921 -0.525837,-1.06248 -1.089395,1.069804 -3.701587,1.946159 -6.606048,1.947458 -2.904459,-0.0013 -5.516651,-0.877654 -6.6060476,-1.947458 z m 0,3.894916 c -0.345896,0.337559 -0.5240544,0.698954 -0.5258373,1.062479 0,1.564458 3.1933019,2.832436 7.1318849,2.832436 3.938584,0 7.131885,-1.267978 7.131885,-2.832436 -0.0018,-0.363525 -0.179941,-0.72492 -0.525837,-1.062479 C 21.447107,21.022346 18.834915,21.898702 15.930454,21.9 13.025995,21.8987 10.413803,21.022346 9.3244064,19.952543 Z"
     id="path12"
     inkscape:connector-curvature="0" />
</svg>
