<?xml version="1.0" encoding="UTF-8" standalone="no"?>
<svg
   xmlns:dc="http://purl.org/dc/elements/1.1/"
   xmlns:cc="http://creativecommons.org/ns#"
   xmlns:rdf="http://www.w3.org/1999/02/22-rdf-syntax-ns#"
   xmlns:svg="http://www.w3.org/2000/svg"
   xmlns="http://www.w3.org/2000/svg"
   xmlns:sodipodi="http://sodipodi.sourceforge.net/DTD/sodipodi-0.dtd"
   xmlns:inkscape="http://www.inkscape.org/namespaces/inkscape"
   width="32"
   height="32"
   version="1.1"
   id="svg37"
   sodipodi:docname="application-msword-template.svg"
   inkscape:version="0.92.1 r">
  <metadata
     id="metadata41">
    <rdf:RDF>
      <cc:Work
         rdf:about="">
        <dc:format>image/svg+xml</dc:format>
        <dc:type
           rdf:resource="http://purl.org/dc/dcmitype/StillImage" />
      </cc:Work>
    </rdf:RDF>
  </metadata>
  <sodipodi:namedview
     pagecolor="#ffffff"
     bordercolor="#666666"
     borderopacity="1"
     objecttolerance="10"
     gridtolerance="10"
     guidetolerance="10"
     inkscape:pageopacity="0"
     inkscape:pageshadow="2"
     inkscape:window-width="640"
     inkscape:window-height="480"
     id="namedview39"
     showgrid="false"
     inkscape:zoom="8.375"
     inkscape:cx="-6.6865672"
     inkscape:cy="16"
     inkscape:current-layer="svg37" />
  <defs
     id="defs13">
    <linearGradient
       id="a"
       y1="392.36"
       y2="365.36"
       x2="0"
       gradientUnits="userSpaceOnUse"
       gradientTransform="translate(309.57,152.44)">
      <stop
         stop-color="#ffffff"
         stop-opacity="0"
         id="stop2" />
      <stop
         offset="1"
         stop-color="#ffffff"
         stop-opacity=".2"
         id="stop4" />
    </linearGradient>
    <linearGradient
       id="b"
       y1="17"
       y2="24"
       x1="47"
       x2="54"
       gradientUnits="userSpaceOnUse"
       gradientTransform="translate(-34.52239,-8.23881)">
      <stop
         stop-color="#060606"
         id="stop7" />
      <stop
         offset="1"
         stop-opacity="0"
         id="stop9" />
    </linearGradient>
    <path
       id="c"
       d="m389.57 545.8v-28h15l7 7v21h-14z" />
  </defs>
  <g
     id="g4542"
     transform="translate(63.283582,7.522388)">
    <path
       inkscape:connector-curvature="0"
       id="path4508"
       d="m -42.096601,-5.5223881 h -13.65097 c -3.066406,0 -5.536011,2.4676663 -5.536011,5.53407214 V 16.941601 c 0,3.066406 2.469605,5.536011 5.536011,5.536011 h 16.929917 c 3.066406,0 5.534072,-2.469605 5.534072,-5.536011 V 3.290631 Z"
       style="opacity:1;fill:#2e2e7a;fill-opacity:1;fill-rule:evenodd;stroke:none;stroke-width:1.02788651;stroke-linecap:round;stroke-linejoin:bevel;stroke-miterlimit:4;stroke-dasharray:none;stroke-dashoffset:0;stroke-opacity:1" />
    <path
       inkscape:connector-curvature="0"
       id="rect4497-3"
       d="m -33.283582,3.290631 -8.813019,-8.813019 v 3.2789473 c 0,3.06640564 2.467666,5.5340717 5.534072,5.5340717 z"
       style="opacity:1;fill:#9696e2;fill-opacity:1;fill-rule:evenodd;stroke:none;stroke-width:1.02788651;stroke-linecap:round;stroke-linejoin:bevel;stroke-miterlimit:4;stroke-dasharray:none;stroke-dashoffset:0;stroke-opacity:1" />
  </g>
  <path
     style="opacity:0.75;fill:#9696e2;fill-opacity:1"
     inkscape:connector-curvature="0"
     id="path33"
     d="m 11.5,22.955224 c -0.554,0 -1,-0.446 -1,-1 v -10 c 0,-0.554 0.446,-1 1,-1 h 9 c 0.554,0 1,0.446 1,1 v 10 c 0,0.554 -0.446,1 -1,1 z m 0,-1 h 9 v -10 h -9 z m 1,-2 v -1 h 7 v 1 z m 0,-2 v -1 h 7 v 1 z m 0,-2 v -1 h 7 v 1 z m 0,-2 v -1 h 7 v 1 z" />
</svg>
