<?xml version="1.0" encoding="UTF-8" standalone="no"?>
<svg
   xmlns:dc="http://purl.org/dc/elements/1.1/"
   xmlns:cc="http://creativecommons.org/ns#"
   xmlns:rdf="http://www.w3.org/1999/02/22-rdf-syntax-ns#"
   xmlns:svg="http://www.w3.org/2000/svg"
   xmlns="http://www.w3.org/2000/svg"
   xmlns:sodipodi="http://sodipodi.sourceforge.net/DTD/sodipodi-0.dtd"
   xmlns:inkscape="http://www.inkscape.org/namespaces/inkscape"
   width="32"
   height="32"
   id="svg2"
   version="1.1"
   inkscape:version="0.92.1 r"
   sodipodi:docname="application-json.svg">
  <metadata
     id="metadata39">
    <rdf:RDF>
      <cc:Work
         rdf:about="">
        <dc:format>image/svg+xml</dc:format>
        <dc:type
           rdf:resource="http://purl.org/dc/dcmitype/StillImage" />
        <dc:title />
      </cc:Work>
    </rdf:RDF>
  </metadata>
  <sodipodi:namedview
     pagecolor="#ffffff"
     bordercolor="#666666"
     borderopacity="1"
     objecttolerance="10"
     gridtolerance="10"
     guidetolerance="10"
     inkscape:pageopacity="0"
     inkscape:pageshadow="2"
     inkscape:window-width="1278"
     inkscape:window-height="1377"
     id="namedview37"
     showgrid="false"
     inkscape:zoom="7.375"
     inkscape:cx="-8.7715125"
     inkscape:cy="18.876748"
     inkscape:window-x="1280"
     inkscape:window-y="36"
     inkscape:window-maximized="0"
     inkscape:current-layer="svg2" />
  <defs
     id="defs4">
    <linearGradient
       id="a"
       y1="392.36"
       y2="365.36"
       x2="0"
       gradientUnits="userSpaceOnUse"
       gradientTransform="translate(309.57,152.44)">
      <stop
         stop-color="#ffffff"
         stop-opacity="0"
         id="stop7" />
      <stop
         offset="1"
         stop-color="#ffffff"
         stop-opacity=".2"
         id="stop9" />
    </linearGradient>
    <linearGradient
       id="b"
       y1="17"
       y2="24"
       x1="47"
       x2="54"
       gradientUnits="userSpaceOnUse"
       gradientTransform="translate(-27,-8)">
      <stop
         stop-color="#060606"
         id="stop12" />
      <stop
         offset="1"
         stop-opacity="0"
         id="stop14" />
    </linearGradient>
    <path
       id="c"
       d="m389.57 545.8v-28h15l7 7v21h-14z" />
  </defs>
  <g
     id="g4509"
     transform="translate(26.101695,-0.47457615)">
    <path
       inkscape:connector-curvature="0"
       id="path4508"
       d="M -4.9147139,2.4745763 H -18.565684 c -3.066406,0 -5.536011,2.4676663 -5.536011,5.5340721 V 24.938565 c 0,3.066406 2.469605,5.536011 5.536011,5.536011 h 16.9299171 c 3.066406,0 5.534072,-2.469605 5.534072,-5.536011 v -13.65097 z"
       style="opacity:1;fill:#cf74e0;fill-opacity:1;fill-rule:evenodd;stroke:none;stroke-width:1.02788651;stroke-linecap:round;stroke-linejoin:bevel;stroke-miterlimit:4;stroke-dasharray:none;stroke-dashoffset:0;stroke-opacity:1" />
    <path
       inkscape:connector-curvature="0"
       id="rect4497-3"
       d="m 3.8983051,11.287595 -8.813019,-8.8130186 v 3.2789473 c 0,3.0664056 2.467666,5.5340713 5.53407198,5.5340713 z"
       style="opacity:1;fill:#e7baf0;fill-opacity:1;fill-rule:evenodd;stroke:none;stroke-width:1.02788651;stroke-linecap:round;stroke-linejoin:bevel;stroke-miterlimit:4;stroke-dasharray:none;stroke-dashoffset:0;stroke-opacity:1" />
  </g>
  <path
     inkscape:connector-curvature="0"
     style="color:#000000;opacity:1;color-interpolation:sRGB;color-interpolation-filters:linearRGB;fill:#ffffff;stroke-width:1;color-rendering:auto;image-rendering:auto;shape-rendering:auto;text-rendering:auto"
     d="m 13.638523,8.9143895 c -1.37556,0.4852835 -2.361476,1.7793725 -2.361476,3.3225975 v 0.449861 c 0,0.873747 -0.477018,1.627057 -1.180738,2.034412 v 2.557479 c 0.70372,0.407355 1.180738,1.158305 1.180738,2.032051 v 0.449861 c 0,1.543225 0.985916,2.837314 2.361476,3.322597 v -1.289366 c -0.70372,-0.407354 -1.180738,-1.160666 -1.180738,-2.034412 v -0.449861 c 0,-1.53496 -0.97529,-2.819603 -2.337861,-3.311971 1.362571,-0.492367 2.337861,-1.777011 2.337861,-3.311971 v -0.449861 c 0,-0.873746 0.477018,-1.627057 1.180738,-2.034411 z m 4.722954,0 v 1.2893655 c 0.70372,0.407356 1.180738,1.160666 1.180738,2.034413 v 0.449861 c 0,1.533778 0.976471,2.819602 2.337862,3.311971 -1.362573,0.491187 -2.337862,1.777011 -2.337862,3.311971 v 0.449861 c 0,0.873746 -0.477018,1.627058 -1.180738,2.034412 v 1.289366 c 1.37556,-0.485283 2.361476,-1.779373 2.361476,-3.322598 v -0.449861 c 0,-0.873746 0.477019,-1.624695 1.180739,-2.032051 v -2.557479 c -0.70372,-0.407354 -1.180739,-1.160666 -1.180739,-2.034412 v -0.449861 c 0,-1.543224 -0.985916,-2.8373136 -2.361476,-3.322597"
     id="path35" />
</svg>
