<?xml version="1.0" encoding="UTF-8" standalone="no"?>
<svg
   xmlns:dc="http://purl.org/dc/elements/1.1/"
   xmlns:cc="http://creativecommons.org/ns#"
   xmlns:rdf="http://www.w3.org/1999/02/22-rdf-syntax-ns#"
   xmlns:svg="http://www.w3.org/2000/svg"
   xmlns="http://www.w3.org/2000/svg"
   xmlns:sodipodi="http://sodipodi.sourceforge.net/DTD/sodipodi-0.dtd"
   xmlns:inkscape="http://www.inkscape.org/namespaces/inkscape"
   width="32"
   height="32"
   version="1.1"
   id="svg35"
   sodipodi:docname="application-vnd.appimage.svg"
   inkscape:version="0.92.4 5da689c313, 2019-01-14">
  <metadata
     id="metadata39">
    <rdf:RDF>
      <cc:Work
         rdf:about="">
        <dc:format>image/svg+xml</dc:format>
        <dc:type
           rdf:resource="http://purl.org/dc/dcmitype/StillImage" />
        <dc:title></dc:title>
      </cc:Work>
    </rdf:RDF>
  </metadata>
  <sodipodi:namedview
     pagecolor="#ffffff"
     bordercolor="#666666"
     borderopacity="1"
     objecttolerance="10"
     gridtolerance="10"
     guidetolerance="10"
     inkscape:pageopacity="0"
     inkscape:pageshadow="2"
     inkscape:window-width="640"
     inkscape:window-height="480"
     id="namedview37"
     showgrid="false"
     inkscape:zoom="8.375"
     inkscape:cx="5.8732006"
     inkscape:cy="21.877452"
     inkscape:current-layer="svg35" />
  <defs
     id="defs13">
    <linearGradient
       id="a"
       y1="524.8"
       x1="404.57"
       y2="531.8"
       x2="411.57"
       gradientUnits="userSpaceOnUse">
      <stop
         stop-color="#383e51"
         id="stop2" />
      <stop
         offset="1"
         stop-color="#655c6f"
         stop-opacity="0"
         id="stop4" />
    </linearGradient>
    <linearGradient
       id="b"
       y1="3"
       y2="61"
       x2="0"
       gradientUnits="userSpaceOnUse"
       gradientTransform="matrix(0.5,0,0,-0.48276,384.57,547.25)">
      <stop
         stop-color="#ffffff"
         stop-opacity="0"
         id="stop7" />
      <stop
         offset="1"
         stop-color="#ffffff"
         stop-opacity=".2"
         id="stop9" />
    </linearGradient>
    <path
       id="c"
       d="m389.57 545.8v-28h15l7 7v21h-7z" />
  </defs>
  <path
     style="opacity:1;fill:#1fa5cd;fill-opacity:1;fill-rule:evenodd;stroke:none;stroke-width:1.02788651;stroke-linecap:round;stroke-linejoin:bevel;stroke-miterlimit:4;stroke-dasharray:none;stroke-dashoffset:0;stroke-opacity:1"
     d="M 21.186981,1.9999998 H 7.536011 C 4.469605,1.9999998 2,4.4676661 2,7.5340722 V 24.463989 C 2,27.530395 4.469605,30 7.536011,30 H 24.465928 C 27.532334,30 30,27.530395 30,24.463989 v -13.65097 z"
     id="path4508"
     inkscape:connector-curvature="0" />
  <path
     style="opacity:1;fill:#55c9fa;fill-opacity:1;fill-rule:evenodd;stroke:none;stroke-width:1.02788651;stroke-linecap:round;stroke-linejoin:bevel;stroke-miterlimit:4;stroke-dasharray:none;stroke-dashoffset:0;stroke-opacity:1"
     d="M 30,10.813019 21.186981,1.9999999 v 3.2789473 c 0,3.066406 2.467666,5.5340718 5.534072,5.5340718 z"
     id="rect4497-3"
     inkscape:connector-curvature="0" />
  <path
     style="fill:#ffffff;stroke-width:0.99999994"
     d="m 14.077357,25.170911 c -0.05479,-0.03401 -0.121258,-0.0965 -0.147714,-0.13886 -0.02645,-0.04236 -0.13252,-0.500866 -0.2357,-1.018901 -0.103181,-0.518034 -0.200775,-0.952942 -0.216876,-0.966461 -0.0161,-0.01352 -0.158799,-0.08107 -0.317108,-0.150122 -0.347744,-0.15167 -0.892612,-0.468322 -1.215854,-0.706595 l -0.237221,-0.174866 -0.913212,0.305 c -0.502266,0.167749 -0.961967,0.304999 -1.0215558,0.304999 -0.2463076,0 -0.2807658,-0.047 -1.1884714,-1.620797 C 8.1035716,20.171944 7.6918999,19.436746 7.6688185,19.370537 7.5841041,19.127524 7.6546892,19.034621 8.4636887,18.324352 l 0.7480389,-0.656751 -0.031119,-0.217285 c -0.03864,-0.269772 -0.040537,-1.154747 -0.00328,-1.545211 l 0.027815,-0.291726 -0.7244382,-0.62934 c -0.3984396,-0.346137 -0.7473271,-0.670078 -0.7753049,-0.71987 -0.1233431,-0.219516 -0.08982,-0.295884 0.8278678,-1.885924 0.4812007,-0.833757 0.910142,-1.554514 0.9532024,-1.601683 0.157278,-0.172285 0.2622453,-0.157273 1.2741473,0.182225 0.899759,0.301873 0.944968,0.312984 1.027447,0.252502 0.51552,-0.378027 1.518375,-0.94382 1.672898,-0.94382 0.05216,0 0.04431,0.03246 0.255166,-1.0545026 0.175868,-0.9065853 0.219298,-1.0264012 0.407011,-1.1228697 0.0692,-0.035561 0.531147,-0.04755 1.849259,-0.047974 1.898158,-6.113e-4 1.949232,0.00437 2.079736,0.2035629 0.03439,0.052474 0.139055,0.4899829 0.232605,0.9722436 0.2124,1.0949428 0.200987,1.0495378 0.263828,1.0495378 0.10569,0 1.015691,0.489642 1.384229,0.744809 l 0.378804,0.262276 0.933042,-0.316027 c 1.004345,-0.340176 1.110462,-0.355396 1.268786,-0.181965 0.04306,0.04717 0.472002,0.767926 0.953202,1.601683 0.917695,1.590052 0.951218,1.666421 0.827857,1.885924 -0.02798,0.04979 -0.376488,0.374774 -0.774458,0.722183 l -0.723579,0.631652 0.02697,0.308602 c 0.0364,0.416637 0.03411,1.256521 -0.0042,1.52371 l -0.03112,0.217285 0.748039,0.656751 c 0.807321,0.708795 0.879474,0.803489 0.79559,1.044121 -0.02268,0.06508 -0.434224,0.800254 -0.914531,1.633732 -0.912047,1.582677 -0.941668,1.6229 -1.195122,1.6229 -0.06269,0 -0.520262,-0.138816 -1.016827,-0.308481 l -0.902846,-0.308481 -0.24195,0.178346 c -0.327565,0.241455 -0.871036,0.557621 -1.220584,0.710078 -0.158309,0.06905 -0.301126,0.13672 -0.317372,0.150385 -0.01624,0.01367 -0.113362,0.448346 -0.215815,0.965958 -0.102451,0.517611 -0.214608,0.984354 -0.249238,1.037204 -0.11947,0.182334 -0.146578,0.184741 -2.068929,0.183657 -1.597919,-9e-4 -1.82329,-0.0083 -1.911156,-0.06286 z m 3.475865,-5.48365 1.503257,-1.801809 -0.914239,-0.01028 -0.914239,-0.01028 v -2.632025 -2.632031 l -0.130484,-0.130484 -0.130485,-0.130484 h -0.967119 -0.967119 l -0.130485,0.130484 -0.130484,0.130484 v 2.632031 2.632031 l -0.914196,0.01028 -0.914196,0.01028 1.514037,1.814886 c 0.83272,0.998186 1.531689,1.809 1.553266,1.801808 0.02157,-0.0072 0.715695,-0.82389 1.542486,-1.814885 z"
     id="path855"
     inkscape:connector-curvature="0" />
</svg>
