<?xml version="1.0" encoding="UTF-8" standalone="no"?>
<!-- Created with Inkscape (http://www.inkscape.org/) -->

<svg
   xmlns:dc="http://purl.org/dc/elements/1.1/"
   xmlns:cc="http://creativecommons.org/ns#"
   xmlns:rdf="http://www.w3.org/1999/02/22-rdf-syntax-ns#"
   xmlns:svg="http://www.w3.org/2000/svg"
   xmlns="http://www.w3.org/2000/svg"
   xmlns:sodipodi="http://sodipodi.sourceforge.net/DTD/sodipodi-0.dtd"
   xmlns:inkscape="http://www.inkscape.org/namespaces/inkscape"
   width="32"
   version="1.1"
   height="32"
   id="svg32"
   inkscape:version="0.92.1 r"
   sodipodi:docname="application-x-rpm.svg">
  <sodipodi:namedview
     pagecolor="#ffffff"
     bordercolor="#666666"
     borderopacity="1"
     objecttolerance="10"
     gridtolerance="10"
     guidetolerance="10"
     inkscape:pageopacity="0"
     inkscape:pageshadow="2"
     inkscape:window-width="1920"
     inkscape:window-height="1025"
     id="namedview60"
     showgrid="false"
     inkscape:zoom="10.429825"
     inkscape:cx="-12.217101"
     inkscape:cy="11.658679"
     inkscape:window-x="0"
     inkscape:window-y="26"
     inkscape:window-maximized="1"
     inkscape:current-layer="layer1" />
  <defs
     id="defs5455" />
  <metadata
     id="metadata5458">
    <rdf:RDF>
      <cc:Work
         rdf:about="">
        <dc:format>image/svg+xml</dc:format>
        <dc:type
           rdf:resource="http://purl.org/dc/dcmitype/StillImage" />
      </cc:Work>
    </rdf:RDF>
  </metadata>
  <g
     inkscape:label="Capa 1"
     inkscape:groupmode="layer"
     id="layer1"
     transform="matrix(1 0 0 1 -384.57143 -515.798)">
    <rect
       width="0"
       x="375.89221"
       y="526.79797"
       height="10.999983"
       style="fill:#ffffff"
       id="rect4035" />
    <rect
       width="0"
       x="375.57144"
       y="525.79797"
       height="10.999983"
       style="fill:#ffffff"
       id="rect4035-4" />
    <rect
       width="0"
       x="374.03558"
       y="525.68414"
       height="11.1139"
       style="fill:#fbd2bf"
       id="rect4035-3" />
    <rect
       width="0"
       x="375.57144"
       y="525.79797"
       height="10.999983"
       style="fill:#fbd2bf"
       id="rect4035-1" />
    <rect
       width="0"
       x="375.57144"
       y="525.79797"
       height="10.999983"
       style="fill:#fbfbfb"
       id="rect4035-5" />
    <rect
       width="0"
       x="375.89221"
       y="526.79797"
       height="10.999983"
       style="fill:#ffffff"
       id="rect4035-53" />
    <rect
       width="0"
       x="375.57144"
       y="525.79797"
       height="10.999983"
       style="fill:#ffffff"
       id="rect4035-4-5" />
    <g
       id="g4522"
       transform="translate(39.20269,-2.09756)">
      <path
         inkscape:connector-curvature="0"
         id="path4508"
         d="m 366.55572,519.89556 h -13.65097 c -3.0664,0 -5.53601,2.46767 -5.53601,5.53407 v 16.92992 c 0,3.0664 2.46961,5.53601 5.53601,5.53601 h 16.92992 c 3.0664,0 5.53407,-2.46961 5.53407,-5.53601 v -13.65097 z"
         style="opacity:1;fill:#df4440;fill-opacity:1;fill-rule:evenodd;stroke:none;stroke-width:1.02788651;stroke-linecap:round;stroke-linejoin:bevel;stroke-miterlimit:4;stroke-dasharray:none;stroke-dashoffset:0;stroke-opacity:1" />
      <path
         inkscape:connector-curvature="0"
         id="rect4497-3"
         d="m 375.36874,528.70858 -8.81302,-8.81302 v 3.27895 c 0,3.0664 2.46767,5.53407 5.53407,5.53407 z"
         style="opacity:1;fill:#f7d0cf;fill-opacity:1;fill-rule:evenodd;stroke:none;stroke-width:1.02788651;stroke-linecap:round;stroke-linejoin:bevel;stroke-miterlimit:4;stroke-dasharray:none;stroke-dashoffset:0;stroke-opacity:1" />
      <g
         style="fill:#f7d0cf;fill-opacity:1"
         transform="translate(346.36874,515.90986)"
         id="g4528">
        <path
           inkscape:connector-curvature="0"
           id="path16"
           d="m 15,14 c -1.105333,0 -2,0.9 -2,2 v 4 c 0,1.1 0.895,2 2,2 1.105,0 2,-0.9 2,-2 v -4 c 0,-1.1 -0.894667,-2 -2,-2 z m 0,1 c 0.552,0 1,0.4 1,1 0,0.499999 -0.448,1 -1,1 -0.552,0 -1,-0.500001 -1,-1 0,-0.6 0.448,-1 1,-1 z m 0,3 c 0.552285,0 1,0.447715 1,1 v 1 c 0,0.552285 -0.447715,1 -1,1 -0.552285,0 -1,-0.447715 -1,-1 v -1 c 0,-0.552285 0.447715,-1 1,-1 z"
           style="opacity:1;fill:#f7d0cf;fill-opacity:1" />
        <path
           inkscape:connector-curvature="0"
           id="path18"
           d="m 14,4 v 1 h 1 V 4 Z m 0,2 v 1 h 1 V 6 Z m 0,2 v 1 h 1 V 8 Z m 0,2 v 1 h 1 v -1 z m 0,2 v 1 h 1 v -1 z"
           style="opacity:1;fill:#f7d0cf;fill-opacity:1" />
        <path
           inkscape:connector-curvature="0"
           id="path20"
           d="m 15,5 v 1 h 1 V 5 Z m 0,2 v 1 h 1 V 7 Z m 0,2 v 1 h 1 V 9 Z m 0,2 v 1 h 1 v -1 z m 0,2 v 1 h 1 v -1 z"
           style="opacity:1;fill:#f7d0cf;fill-opacity:1" />
      </g>
      <path
         d="m 368.6748,537.16721 a 4.0824223,4.0824281 0 0 0 -4.08242,4.08243 4.0824223,4.0824281 0 0 0 4.08242,4.08242 4.0824223,4.0824281 0 0 0 4.08242,-4.08242 4.0824223,4.0824281 0 0 0 -4.08242,-4.08243 z m 0,0.68041 a 3.4020195,3.4020244 0 0 1 3.40202,3.40202 3.4020195,3.4020244 0 0 1 -3.40202,3.40201 3.4020195,3.4020244 0 0 1 -3.40202,-3.40201 3.4020195,3.4020244 0 0 1 3.40202,-3.40202 z m 0,0.6804 a 2.7216148,2.7216148 0 0 0 -1.74087,0.63123 l 0.43588,0.5236 a 2.0412111,2.0412111 0 0 1 1.30499,-0.47443 2.0412111,2.0412111 0 0 1 2.04121,2.04122 h 0.68041 a 2.7216148,2.7216148 0 0 0 -2.72162,-2.72162 z m 0.6804,1.36081 -1.0897,2.17941 a 0.68040371,0.68040371 0 0 0 -0.2711,0.5422 0.68040371,0.68040371 0 0 0 0.6804,0.68041 0.68040371,0.68040371 0 0 0 0.6804,-0.68041 0.68040371,0.68040371 0 0 0 -0.17142,-0.44917 z m -3.04055,0.012 a 2.7216148,2.7216148 0 0 0 -0.36146,1.34885 h 0.6804 a 2.0412111,2.0412111 0 0 1 0.2711,-1.0113 z"
         id="path4139"
         style="fill:#fcbcbe;stroke-width:1"
         inkscape:connector-curvature="0"
         inkscape:label="Capa 1" />
    </g>
  </g>
</svg>
