<?xml version="1.0" encoding="UTF-8" standalone="no"?>
<svg
   xmlns:dc="http://purl.org/dc/elements/1.1/"
   xmlns:cc="http://creativecommons.org/ns#"
   xmlns:rdf="http://www.w3.org/1999/02/22-rdf-syntax-ns#"
   xmlns:svg="http://www.w3.org/2000/svg"
   xmlns="http://www.w3.org/2000/svg"
   xmlns:sodipodi="http://sodipodi.sourceforge.net/DTD/sodipodi-0.dtd"
   xmlns:inkscape="http://www.inkscape.org/namespaces/inkscape"
   width="32"
   height="32"
   version="1.1"
   id="svg37"
   sodipodi:docname="image-tiff.svg"
   inkscape:version="0.92.1 r">
  <metadata
     id="metadata41">
    <rdf:RDF>
      <cc:Work
         rdf:about="">
        <dc:format>image/svg+xml</dc:format>
        <dc:type
           rdf:resource="http://purl.org/dc/dcmitype/StillImage" />
      </cc:Work>
    </rdf:RDF>
  </metadata>
  <sodipodi:namedview
     pagecolor="#ffffff"
     bordercolor="#666666"
     borderopacity="1"
     objecttolerance="10"
     gridtolerance="10"
     guidetolerance="10"
     inkscape:pageopacity="0"
     inkscape:pageshadow="2"
     inkscape:window-width="640"
     inkscape:window-height="480"
     id="namedview39"
     showgrid="false"
     inkscape:zoom="8.375"
     inkscape:cx="-6.6865672"
     inkscape:cy="16"
     inkscape:current-layer="svg37" />
  <defs
     id="defs13">
    <linearGradient
       id="a"
       y1="17"
       x1="47"
       y2="24"
       gradientUnits="userSpaceOnUse"
       x2="54"
       gradientTransform="translate(360.57 510.8)">
      <stop
         stop-color="#060606"
         id="stop2" />
      <stop
         offset="1"
         stop-opacity="0"
         id="stop4" />
    </linearGradient>
    <linearGradient
       id="b"
       y1="392.36"
       y2="320.48"
       gradientUnits="userSpaceOnUse"
       x2="0"
       gradientTransform="matrix(.5 0 0 .42294 378.57 378.93)">
      <stop
         stop-color="#ffffff"
         stop-opacity="0"
         id="stop7" />
      <stop
         offset="1"
         stop-color="#ffffff"
         stop-opacity=".2"
         id="stop9" />
    </linearGradient>
    <path
       color-rendering="auto"
       color-interpolation-filters="linearRGB"
       shape-rendering="auto"
       image-rendering="auto"
       text-rendering="auto"
       id="c"
       color-interpolation="sRGB"
       color="#000000"
       d="m386.57 545.8v-25h21l7 7v18h-7z" />
  </defs>
  <g
     id="g4531"
     transform="translate(46.328358,8.358209)">
    <path
       inkscape:connector-curvature="0"
       id="path4508"
       d="m -25.141377,-6.358209 h -13.65097 c -3.066406,0 -5.536011,2.4676663 -5.536011,5.53407224 V 16.10578 c 0,3.066406 2.469605,5.536011 5.536011,5.536011 h 16.929917 c 3.066406,0 5.534072,-2.469605 5.534072,-5.536011 V 2.4548101 Z"
       style="opacity:1;fill:#d9282d;fill-opacity:1;fill-rule:evenodd;stroke:none;stroke-width:1.02788651;stroke-linecap:round;stroke-linejoin:bevel;stroke-miterlimit:4;stroke-dasharray:none;stroke-dashoffset:0;stroke-opacity:1" />
    <path
       inkscape:connector-curvature="0"
       id="rect4497-3"
       d="m -16.328358,2.4548101 -8.813019,-8.813019 v 3.2789473 c 0,3.06640584 2.467666,5.5340717 5.534072,5.5340717 z"
       style="opacity:1;fill:#ed9697;fill-opacity:1;fill-rule:evenodd;stroke:none;stroke-width:1.02788651;stroke-linecap:round;stroke-linejoin:bevel;stroke-miterlimit:4;stroke-dasharray:none;stroke-dashoffset:0;stroke-opacity:1" />
    <path
       d="m -35.227858,3.4552241 a 1.5,1.5 0 0 0 -1.5,1.4999999 1.5,1.5 0 0 0 1.5,1.5 1.5,1.5 0 0 0 1.5,-1.5 1.5,1.5 0 0 0 -1.5,-1.4999999 m 0,0.9999999 a 0.5,0.5 0 0 1 0.5,0.5 0.5,0.5 0 0 1 -0.5,0.5 0.5,0.5 0 0 1 -0.5,-0.5 0.5,0.5 0 0 1 0.5,-0.5 m 9.5,1 -5.6,5.58 -2.6,-2.58 -6,6 h 1.406 l 3.119,-3.082 1.408,-1.404 1.564,1.418 1.102,1.068 5.6,-5.398 3.594,3.398 h 1.406 z"
       id="path27-3"
       inkscape:connector-curvature="0"
       style="color:#000000;opacity:1;color-interpolation:sRGB;color-interpolation-filters:linearRGB;fill:#f5c8c9;fill-opacity:1;stroke-width:2;color-rendering:auto;image-rendering:auto;shape-rendering:auto;text-rendering:auto" />
  </g>
</svg>
