<?xml version="1.0" encoding="UTF-8" standalone="no"?>
<svg
   xmlns:dc="http://purl.org/dc/elements/1.1/"
   xmlns:cc="http://creativecommons.org/ns#"
   xmlns:rdf="http://www.w3.org/1999/02/22-rdf-syntax-ns#"
   xmlns:svg="http://www.w3.org/2000/svg"
   xmlns="http://www.w3.org/2000/svg"
   xmlns:sodipodi="http://sodipodi.sourceforge.net/DTD/sodipodi-0.dtd"
   xmlns:inkscape="http://www.inkscape.org/namespaces/inkscape"
   width="32"
   height="32"
   version="1.1"
   id="svg35"
   sodipodi:docname="x-office-contact.svg"
   inkscape:version="0.92.1 r">
  <metadata
     id="metadata39">
    <rdf:RDF>
      <cc:Work
         rdf:about="">
        <dc:format>image/svg+xml</dc:format>
        <dc:type
           rdf:resource="http://purl.org/dc/dcmitype/StillImage" />
      </cc:Work>
    </rdf:RDF>
  </metadata>
  <sodipodi:namedview
     pagecolor="#ffffff"
     bordercolor="#666666"
     borderopacity="1"
     objecttolerance="10"
     gridtolerance="10"
     guidetolerance="10"
     inkscape:pageopacity="0"
     inkscape:pageshadow="2"
     inkscape:window-width="640"
     inkscape:window-height="480"
     id="namedview37"
     showgrid="false"
     inkscape:zoom="8.375"
     inkscape:cx="-6.6865672"
     inkscape:cy="16"
     inkscape:current-layer="svg35" />
  <defs
     id="defs13">
    <linearGradient
       id="a"
       y1="392.36"
       y2="365.36"
       gradientUnits="userSpaceOnUse"
       x2="0"
       gradientTransform="translate(309.57,152.44)">
      <stop
         stop-color="#ffffff"
         stop-opacity="0"
         id="stop2" />
      <stop
         offset="1"
         stop-color="#ffffff"
         stop-opacity=".2"
         id="stop4" />
    </linearGradient>
    <linearGradient
       id="b"
       y1="17"
       x1="47"
       y2="24"
       gradientUnits="userSpaceOnUse"
       x2="54"
       gradientTransform="translate(-27,-8)">
      <stop
         stop-color="#060606"
         id="stop7" />
      <stop
         offset="1"
         stop-opacity="0"
         id="stop9" />
    </linearGradient>
    <path
       id="c"
       d="m389.57 545.8v-28h15l7 7v21h-14z" />
  </defs>
  <g
     id="g4539"
     transform="translate(36.41791,-0.119403)">
    <path
       inkscape:connector-curvature="0"
       id="path4508"
       d="m -15.230929,2.119403 h -13.65097 c -3.066406,0 -5.536011,2.4676663 -5.536011,5.5340721 V 24.583392 c 0,3.066406 2.469605,5.536011 5.536011,5.536011 h 16.929917 c 3.0664056,0 5.5340716,-2.469605 5.5340716,-5.536011 v -13.65097 z"
       style="opacity:1;fill:#3abdfc;fill-opacity:1;fill-rule:evenodd;stroke:none;stroke-width:1.02788651;stroke-linecap:round;stroke-linejoin:bevel;stroke-miterlimit:4;stroke-dasharray:none;stroke-dashoffset:0;stroke-opacity:1" />
    <path
       inkscape:connector-curvature="0"
       id="rect4497-3"
       d="M -6.4179104,10.932422 -15.230929,2.1194031 v 3.2789473 c 0,3.0664056 2.467666,5.5340716 5.5340716,5.5340716 z"
       style="opacity:1;fill:#9fdffd;fill-opacity:1;fill-rule:evenodd;stroke:none;stroke-width:1.02788651;stroke-linecap:round;stroke-linejoin:bevel;stroke-miterlimit:4;stroke-dasharray:none;stroke-dashoffset:0;stroke-opacity:1" />
  </g>
  <path
     style="opacity:0.75;fill:#ffffff"
     inkscape:connector-curvature="0"
     id="path29"
     d="m 14.0005,10.716418 c -1.385,0 -2.5,1.115 -2.5,2.5 0,1.385 1.115,2.5 2.5,2.5 1.385,0 2.5,-1.115 2.5,-2.5 0,-1.385 -1.115,-2.5 -2.5,-2.5 m 0,1 c 0.831,0 1.5,0.669 1.5,1.5 0,0.831 -0.669,1.5 -1.5,1.5 -0.831,0 -1.5,-0.669 -1.5,-1.5 0,-0.831 0.669,-1.5 1.5,-1.5 m 5.5,1 c -1.108,0 -2,0.892 -2,2 0,1.108 0.892,2 2,2 1.108,0 2,-0.892 2,-2 0,-1.108 -0.892,-2 -2,-2 m 0,1 c 0.554,0 1,0.446 1,1 0,0.554 -0.446,1 -1,1 -0.554,0 -1,-0.446 -1,-1 0,-0.554 0.446,-1 1,-1 m -5.5,3 c -2.493,0 -4.5,2.01 -4.5,4.5 v 1.5 h 9 v -1.5 c 0,-2.493 -2.01,-4.5 -4.5,-4.5 m 0,1 c 1.939,0 3.5,1.561 3.5,3.5 v 0.5 h -7 v -0.5 c 0,-1.939 1.561,-3.5 3.5,-3.5 m 5.5,0 c -0.555,0 -1.067,0.16 -1.512,0.42 0.243,0.237 0.465,0.495 0.656,0.777 0.26,-0.123 0.547,-0.197 0.855,-0.197 1.108,0 2,0.892 2,2 h -2.1 c 0.065,0.323 0.1,0.657 0.1,1 h 3 v -1 c 0,-1.662 -1.338,-3 -3,-3" />
</svg>
