<?xml version="1.0" encoding="UTF-8"?>
<svg xmlns="http://www.w3.org/2000/svg" xmlns:xlink="http://www.w3.org/1999/xlink" width="12pt" height="12pt" viewBox="0 0 12 12" version="1.1">
<g id="surface1">
<path style=" stroke:none;fill-rule:nonzero;fill:rgb(36.078431%,38.039216%,42.352941%);fill-opacity:1;" d="M 3.816406 2.183594 L 3.816406 3.367188 C 3.164062 3.597656 2.726562 4.214844 2.726562 4.910156 C 2.726562 5.601562 3.164062 6.21875 3.816406 6.449219 L 3.816406 9.816406 L 4.910156 9.816406 L 4.910156 6.449219 C 5.5625 6.21875 6 5.601562 6 4.910156 C 6 4.214844 5.5625 3.597656 4.910156 3.367188 L 4.910156 2.183594 Z M 7.089844 2.183594 L 7.089844 6.09375 C 6.4375 6.324219 6 6.941406 6 7.636719 C 6 8.328125 6.4375 8.945312 7.089844 9.175781 L 7.089844 9.816406 L 8.183594 9.816406 L 8.183594 9.179688 C 8.835938 8.945312 9.273438 8.328125 9.273438 7.636719 C 9.273438 6.945312 8.835938 6.328125 8.183594 6.097656 L 8.183594 2.183594 Z M 7.089844 2.183594 "/>
</g>
</svg>
