<?xml version="1.0" encoding="UTF-8"?>
<svg xmlns="http://www.w3.org/2000/svg" xmlns:xlink="http://www.w3.org/1999/xlink" width="12pt" height="12pt" viewBox="0 0 12 12" version="1.1">
<g id="surface1">
<path style=" stroke:none;fill-rule:nonzero;fill:rgb(36.078431%,38.039216%,42.352941%);fill-opacity:1;" d="M 3.273438 2.1875 C 2.667969 2.1875 2.183594 2.671875 2.183594 3.277344 L 2.183594 8.734375 C 2.183594 9.335938 2.667969 9.824219 3.273438 9.824219 L 8.726562 9.824219 C 9.332031 9.824219 9.816406 9.335938 9.816406 8.734375 L 9.816406 3.277344 C 9.816406 2.671875 9.332031 2.1875 8.726562 2.1875 Z M 6 3.816406 C 7.203125 3.816406 8.183594 4.796875 8.183594 6 L 8.183594 6.273438 C 8.183594 6.722656 7.816406 7.089844 7.363281 7.089844 C 7.121094 7.089844 6.894531 6.984375 6.738281 6.800781 C 6.542969 6.976562 6.285156 7.089844 6 7.089844 C 5.398438 7.089844 4.910156 6.601562 4.910156 6 C 4.910156 5.398438 5.398438 4.910156 6 4.910156 C 6.601562 4.910156 7.089844 5.398438 7.089844 6 L 7.089844 6.273438 C 7.089844 6.421875 7.214844 6.546875 7.363281 6.546875 C 7.515625 6.546875 7.636719 6.421875 7.636719 6.273438 L 7.636719 6 C 7.636719 5.097656 6.902344 4.363281 6 4.363281 C 5.097656 4.363281 4.363281 5.097656 4.363281 6 C 4.363281 6.902344 5.097656 7.636719 6 7.636719 L 7.363281 7.636719 C 7.363281 7.636719 7.636719 7.636719 7.636719 7.910156 C 7.621094 8.183594 7.363281 8.183594 7.363281 8.183594 L 6 8.183594 C 4.796875 8.183594 3.816406 7.203125 3.816406 6 C 3.816406 4.796875 4.796875 3.816406 6 3.816406 Z M 6 5.453125 C 5.699219 5.453125 5.453125 5.699219 5.453125 6 C 5.453125 6.300781 5.699219 6.546875 6 6.546875 C 6.300781 6.546875 6.546875 6.300781 6.546875 6 C 6.546875 5.699219 6.300781 5.453125 6 5.453125 Z M 6 5.453125 "/>
</g>
</svg>
