<?xml version="1.0" encoding="UTF-8"?>
<svg xmlns="http://www.w3.org/2000/svg" xmlns:xlink="http://www.w3.org/1999/xlink" width="12pt" height="12pt" viewBox="0 0 12 12" version="1.1">
<g id="surface1">
<path style=" stroke:none;fill-rule:nonzero;fill:rgb(36.078431%,38.039216%,42.352941%);fill-opacity:1;" d="M 6 2.183594 C 3.894531 2.183594 2.183594 3.894531 2.183594 6 C 2.183594 8.105469 3.894531 9.816406 6 9.816406 C 8.105469 9.816406 9.816406 8.105469 9.816406 6 C 9.816406 3.894531 8.105469 2.183594 6 2.183594 Z M 6 3.273438 C 6.554688 3.273438 7.070312 3.429688 7.5 3.714844 L 3.714844 7.5 C 3.429688 7.070312 3.273438 6.554688 3.273438 6 C 3.273438 4.496094 4.496094 3.273438 6 3.273438 Z M 8.285156 4.5 C 8.570312 4.929688 8.726562 5.445312 8.726562 6 C 8.726562 7.503906 7.503906 8.726562 6 8.726562 C 5.445312 8.726562 4.929688 8.570312 4.5 8.285156 Z M 8.285156 4.5 "/>
</g>
</svg>
