<?xml version="1.0" encoding="UTF-8"?>
<svg xmlns="http://www.w3.org/2000/svg" xmlns:xlink="http://www.w3.org/1999/xlink" width="12pt" height="12pt" viewBox="0 0 12 12" version="1.1">
<defs>
<filter id="alpha" filterUnits="objectBoundingBox" x="0%" y="0%" width="100%" height="100%">
  <feColorMatrix type="matrix" in="SourceGraphic" values="0 0 0 0 1 0 0 0 0 1 0 0 0 0 1 0 0 0 1 0"/>
</filter>
<mask id="mask0">
  <g filter="url(#alpha)">
<rect x="0" y="0" width="12" height="12" style="fill:rgb(0%,0%,0%);fill-opacity:0.301961;stroke:none;"/>
  </g>
</mask>
<clipPath id="clip1">
  <rect width="12" height="12"/>
</clipPath>
<g id="surface7" clip-path="url(#clip1)">
<path style=" stroke:none;fill-rule:nonzero;fill:rgb(36.078431%,38.039216%,42.352941%);fill-opacity:1;" d="M 2.179688 4.414062 L 2.179688 7.585938 L 3.769531 7.585938 L 5.949219 9.816406 L 5.949219 2.179688 L 3.769531 4.414062 Z M 2.179688 4.414062 "/>
</g>
<mask id="mask1">
  <g filter="url(#alpha)">
<rect x="0" y="0" width="12" height="12" style="fill:rgb(0%,0%,0%);fill-opacity:0.301961;stroke:none;"/>
  </g>
</mask>
<clipPath id="clip2">
  <rect width="12" height="12"/>
</clipPath>
<g id="surface10" clip-path="url(#clip2)">
<path style=" stroke:none;fill-rule:nonzero;fill:rgb(36.078431%,38.039216%,42.352941%);fill-opacity:1;" d="M 7.042969 2.183594 L 7.042969 3 C 8.308594 3.402344 9.222656 4.597656 9.222656 6 C 9.222656 7.402344 8.308594 8.597656 7.042969 9 L 7.042969 9.816406 C 8.757812 9.394531 10.042969 7.855469 10.042969 6 C 10.042969 4.144531 8.757812 2.605469 7.042969 2.183594 Z M 7.042969 2.183594 "/>
</g>
<mask id="mask2">
  <g filter="url(#alpha)">
<rect x="0" y="0" width="12" height="12" style="fill:rgb(0%,0%,0%);fill-opacity:0.301961;stroke:none;"/>
  </g>
</mask>
<clipPath id="clip3">
  <rect width="12" height="12"/>
</clipPath>
<g id="surface13" clip-path="url(#clip3)">
<path style=" stroke:none;fill-rule:nonzero;fill:rgb(36.078431%,38.039216%,42.352941%);fill-opacity:1;" d="M 8.019531 6 C 8.019531 5.289062 7.625 4.679688 7.042969 4.363281 L 7.042969 7.636719 C 7.621094 7.320312 8.019531 6.710938 8.019531 6 Z M 8.019531 6 "/>
</g>
</defs>
<g id="surface1">
<use xlink:href="#surface7" mask="url(#mask0)"/>
<use xlink:href="#surface10" mask="url(#mask1)"/>
<use xlink:href="#surface13" mask="url(#mask2)"/>
</g>
</svg>
