<?xml version="1.0" encoding="UTF-8"?>
<svg xmlns="http://www.w3.org/2000/svg" xmlns:xlink="http://www.w3.org/1999/xlink" width="12pt" height="12pt" viewBox="0 0 12 12" version="1.1">
<g id="surface1">
<path style=" stroke:none;fill-rule:nonzero;fill:rgb(36.078431%,38.039216%,42.352941%);fill-opacity:1;" d="M 6 2.183594 C 5.886719 2.542969 5.734375 2.898438 5.570312 3.242188 C 4.730469 4.960938 3.414062 6.136719 3.289062 7.222656 C 3.285156 7.238281 3.277344 7.257812 3.273438 7.273438 L 3.285156 7.277344 C 3.28125 7.3125 3.273438 7.351562 3.273438 7.386719 C 3.273438 8.730469 4.492188 9.816406 6 9.816406 C 7.507812 9.816406 8.726562 8.730469 8.726562 7.386719 C 8.726562 7.351562 8.71875 7.3125 8.714844 7.277344 L 8.726562 7.273438 C 8.722656 7.257812 8.714844 7.238281 8.710938 7.222656 C 8.585938 6.136719 7.269531 4.960938 6.429688 3.242188 C 6.265625 2.898438 6.113281 2.542969 6 2.183594 Z M 6 2.183594 "/>
</g>
</svg>
