<?xml version="1.0" encoding="UTF-8"?>
<svg xmlns="http://www.w3.org/2000/svg" xmlns:xlink="http://www.w3.org/1999/xlink" width="12pt" height="12pt" viewBox="0 0 12 12" version="1.1">
<g id="surface1">
<path style=" stroke:none;fill-rule:nonzero;fill:rgb(36.078431%,38.039216%,42.352941%);fill-opacity:1;" d="M 3.222656 2.199219 C 2.949219 2.222656 2.765625 2.460938 2.710938 2.710938 C 2.550781 3.199219 2.386719 3.691406 2.234375 4.179688 L 2.183594 4.382812 L 2.183594 8.746094 C 2.183594 9.046875 2.425781 9.292969 2.726562 9.292969 L 9.273438 9.292969 C 9.574219 9.292969 9.816406 9.046875 9.816406 8.746094 L 9.816406 4.382812 L 9.75 4.128906 C 9.566406 3.585938 9.398438 3.027344 9.203125 2.492188 C 9.085938 2.25 8.820312 2.175781 8.574219 2.199219 Z M 3.667969 3.292969 L 8.324219 3.292969 C 8.382812 3.46875 8.445312 3.65625 8.503906 3.835938 L 3.488281 3.835938 C 3.550781 3.65625 3.609375 3.476562 3.667969 3.292969 Z M 6 4.929688 L 7.5 6.566406 L 6.546875 6.566406 L 6.546875 8.199219 L 5.453125 8.199219 L 5.453125 6.566406 L 4.5 6.566406 Z M 6 4.929688 "/>
</g>
</svg>
