<?xml version="1.0" encoding="UTF-8"?>
<svg xmlns="http://www.w3.org/2000/svg" xmlns:xlink="http://www.w3.org/1999/xlink" width="12pt" height="12pt" viewBox="0 0 12 12" version="1.1">
<g id="surface1">
<path style=" stroke:none;fill-rule:nonzero;fill:rgb(32.156863%,58.039216%,88.627451%);fill-opacity:1;" d="M 9.273438 2.726562 C 5.664062 2.726562 2.738281 5.648438 2.726562 9.253906 L 2.726562 9.289062 C 2.726562 9.582031 2.964844 9.816406 3.257812 9.816406 L 4.910156 9.816406 C 5.210938 9.816406 5.457031 9.574219 5.457031 9.269531 L 5.457031 8.179688 C 5.457031 7.878906 5.210938 7.632812 4.910156 7.632812 L 4.65625 7.632812 C 5.148438 6.238281 6.242188 5.144531 7.636719 4.652344 L 7.636719 4.90625 C 7.636719 5.210938 7.878906 5.453125 8.183594 5.453125 L 9.273438 5.453125 C 9.574219 5.453125 9.820312 5.210938 9.820312 4.90625 L 9.820312 3.269531 C 9.820312 2.96875 9.589844 2.726562 9.289062 2.726562 Z M 9.273438 2.726562 "/>
</g>
</svg>
