<?xml version="1.0" encoding="UTF-8"?>
<svg xmlns="http://www.w3.org/2000/svg" xmlns:xlink="http://www.w3.org/1999/xlink" width="12pt" height="12pt" viewBox="0 0 12 12" version="1.1">
<g id="surface1">
<path style=" stroke:none;fill-rule:nonzero;fill:rgb(36.078431%,38.039216%,42.352941%);fill-opacity:1;" d="M 3.273438 2.1875 C 2.667969 2.1875 2.183594 2.671875 2.183594 3.277344 L 2.183594 8.734375 C 2.183594 9.335938 2.667969 9.824219 3.273438 9.824219 L 8.726562 9.824219 C 9.332031 9.824219 9.816406 9.335938 9.816406 8.734375 L 9.816406 3.277344 C 9.816406 2.671875 9.332031 2.1875 8.726562 2.1875 Z M 5.28125 3.273438 L 5.453125 3.273438 L 5.453125 3.683594 L 5.261719 3.683594 C 5.003906 3.683594 4.835938 3.726562 4.761719 3.8125 C 4.679688 3.894531 4.640625 4.074219 4.640625 4.347656 L 4.640625 5.0625 C 4.640625 5.363281 4.601562 5.582031 4.515625 5.71875 C 4.433594 5.855469 4.289062 5.949219 4.085938 5.996094 C 4.289062 6.046875 4.433594 6.144531 4.515625 6.28125 C 4.601562 6.417969 4.640625 6.636719 4.640625 6.933594 L 4.640625 7.652344 C 4.640625 7.925781 4.679688 8.105469 4.761719 8.1875 C 4.835938 8.269531 5.003906 8.3125 5.261719 8.3125 L 5.453125 8.3125 L 5.453125 8.726562 L 5.28125 8.726562 C 4.824219 8.726562 4.515625 8.65625 4.363281 8.515625 C 4.210938 8.371094 4.132812 8.085938 4.132812 7.660156 L 4.132812 6.972656 C 4.132812 6.683594 4.082031 6.480469 3.984375 6.371094 C 3.886719 6.257812 3.707031 6.203125 3.445312 6.203125 L 3.273438 6.203125 L 3.273438 5.789062 L 3.445312 5.789062 C 3.707031 5.789062 3.886719 5.734375 3.984375 5.625 C 4.082031 5.511719 4.132812 5.3125 4.132812 5.027344 L 4.132812 4.335938 C 4.132812 3.910156 4.210938 3.625 4.363281 3.484375 C 4.515625 3.34375 4.824219 3.273438 5.28125 3.273438 Z M 6.546875 3.273438 L 6.71875 3.273438 C 7.175781 3.273438 7.484375 3.34375 7.636719 3.484375 C 7.789062 3.625 7.867188 3.910156 7.867188 4.335938 L 7.867188 5.027344 C 7.867188 5.3125 7.917969 5.511719 8.015625 5.625 C 8.113281 5.734375 8.292969 5.789062 8.554688 5.789062 L 8.726562 5.789062 L 8.726562 6.203125 L 8.554688 6.203125 C 8.292969 6.203125 8.113281 6.257812 8.015625 6.371094 C 7.917969 6.480469 7.867188 6.683594 7.867188 6.972656 L 7.867188 7.660156 C 7.867188 8.085938 7.789062 8.371094 7.636719 8.515625 C 7.484375 8.65625 7.175781 8.726562 6.71875 8.726562 L 6.546875 8.726562 L 6.546875 8.3125 L 6.738281 8.3125 C 6.996094 8.3125 7.164062 8.269531 7.238281 8.1875 C 7.320312 8.105469 7.359375 7.925781 7.359375 7.652344 L 7.359375 6.933594 C 7.359375 6.636719 7.398438 6.417969 7.484375 6.28125 C 7.566406 6.144531 7.710938 6.046875 7.914062 5.996094 C 7.710938 5.949219 7.566406 5.855469 7.484375 5.71875 C 7.398438 5.582031 7.359375 5.363281 7.359375 5.0625 L 7.359375 4.347656 C 7.359375 4.074219 7.320312 3.894531 7.238281 3.8125 C 7.164062 3.726562 6.996094 3.683594 6.738281 3.683594 L 6.546875 3.683594 Z M 6.546875 3.273438 "/>
</g>
</svg>
