<?xml version="1.0" encoding="UTF-8"?>
<svg xmlns="http://www.w3.org/2000/svg" xmlns:xlink="http://www.w3.org/1999/xlink" width="12pt" height="12pt" viewBox="0 0 12 12" version="1.1">
<g id="surface1">
<path style=" stroke:none;fill-rule:nonzero;fill:rgb(36.078431%,38.039216%,42.352941%);fill-opacity:1;" d="M 5.726562 1.65625 L 5.726562 2.644531 L 6.273438 2.644531 L 6.273438 1.65625 Z M 3.101562 2.734375 L 2.710938 3.125 L 3.410156 3.839844 L 3.800781 3.429688 Z M 8.898438 2.734375 L 8.199219 3.429688 L 8.589844 3.839844 L 9.289062 3.125 Z M 6 3.292969 C 4.492188 3.292969 3.273438 4.515625 3.273438 6.019531 C 3.273438 7.527344 4.492188 8.75 6 8.75 C 7.507812 8.75 8.726562 7.527344 8.726562 6.019531 C 8.726562 4.515625 7.507812 3.292969 6 3.292969 Z M 6 3.839844 L 6 8.203125 C 4.796875 8.203125 3.816406 7.226562 3.816406 6.019531 C 3.816406 4.816406 4.796875 3.839844 6 3.839844 Z M 1.636719 5.75 L 1.636719 6.292969 L 2.625 6.292969 L 2.625 5.75 Z M 9.375 5.75 L 9.375 6.292969 L 10.363281 6.292969 L 10.363281 5.75 Z M 3.410156 8.21875 L 2.710938 8.917969 L 3.101562 9.3125 L 3.800781 8.613281 Z M 8.589844 8.21875 L 8.199219 8.613281 L 8.898438 9.3125 L 9.289062 8.917969 Z M 5.726562 9.394531 L 5.726562 10.386719 L 6.273438 10.386719 L 6.273438 9.394531 Z M 5.726562 9.394531 "/>
</g>
</svg>
