<?xml version="1.0" encoding="UTF-8"?>
<svg xmlns="http://www.w3.org/2000/svg" xmlns:xlink="http://www.w3.org/1999/xlink" width="12pt" height="12pt" viewBox="0 0 12 12" version="1.1">
<g id="surface1">
<path style=" stroke:none;fill-rule:nonzero;fill:rgb(36.078431%,38.039216%,42.352941%);fill-opacity:1;" d="M 8.453125 2.183594 C 7.804688 2.183594 7.25 2.636719 7.117188 3.273438 L 4.089844 3.273438 C 3.335938 3.273438 2.726562 4.15625 2.726562 4.910156 C 2.726562 5.664062 3.335938 6.546875 4.089844 6.546875 L 7.910156 6.546875 C 8.359375 6.546875 8.726562 7.183594 8.726562 7.636719 C 8.726562 8.089844 8.359375 8.726562 7.910156 8.726562 L 4.878906 8.726562 C 4.75 8.09375 4.191406 7.636719 3.546875 7.636719 C 2.792969 7.636719 2.183594 8.246094 2.183594 9 C 2.183594 9.753906 2.792969 10.363281 3.546875 10.363281 C 4.195312 10.363281 4.75 9.90625 4.882812 9.273438 L 7.910156 9.273438 C 8.664062 9.273438 9.273438 8.390625 9.273438 7.636719 C 9.273438 6.882812 8.664062 6 7.910156 6 L 4.089844 6 C 3.640625 6 3.273438 5.359375 3.273438 4.910156 C 3.273438 4.457031 3.640625 3.816406 4.089844 3.816406 L 7.121094 3.816406 C 7.25 4.453125 7.808594 4.90625 8.453125 4.910156 C 9.207031 4.910156 9.816406 4.296875 9.816406 3.546875 C 9.816406 2.792969 9.207031 2.183594 8.453125 2.183594 Z M 8.453125 2.183594 "/>
</g>
</svg>
