<?xml version="1.0" encoding="UTF-8"?>
<svg xmlns="http://www.w3.org/2000/svg" xmlns:xlink="http://www.w3.org/1999/xlink" width="12pt" height="12pt" viewBox="0 0 12 12" version="1.1">
<g id="surface1">
<path style=" stroke:none;fill-rule:nonzero;fill:rgb(36.078431%,38.039216%,42.352941%);fill-opacity:1;" d="M 3.277344 2.183594 C 2.050781 2.183594 2.1875 3.273438 2.1875 3.273438 L 2.1875 9.816406 L 9.820312 9.816406 L 9.820312 3.273438 C 9.820312 2.183594 8.730469 2.183594 8.730469 2.183594 L 7.640625 2.183594 L 7.640625 4.363281 L 8.730469 4.363281 L 8.730469 8.726562 L 3.277344 8.726562 L 3.277344 4.363281 L 4.367188 4.363281 L 4.367188 2.183594 Z M 4.914062 2.183594 L 6.003906 3.816406 L 7.09375 2.183594 Z M 5.148438 4.910156 C 4.566406 4.910156 4.320312 5.101562 4.320312 5.59375 C 4.320312 5.59375 4.308594 5.914062 4.304688 6 C 4.28125 6.203125 4.210938 6.371094 3.988281 6.371094 L 3.824219 6.371094 L 3.824219 6.722656 L 3.988281 6.722656 C 4.3125 6.722656 4.320312 7.074219 4.320312 7.375 C 4.320312 7.472656 4.328125 7.578125 4.332031 7.636719 C 4.378906 8.023438 4.625 8.183594 5.148438 8.183594 L 5.148438 7.859375 C 4.902344 7.859375 4.816406 7.792969 4.78125 7.636719 C 4.761719 7.574219 4.761719 7.355469 4.753906 7.25 C 4.753906 7.023438 4.6875 6.6875 4.359375 6.546875 C 4.617188 6.4375 4.710938 6.203125 4.738281 6 C 4.753906 5.941406 4.75 5.878906 4.753906 5.835938 C 4.753906 5.363281 4.757812 5.230469 5.148438 5.230469 Z M 5.730469 4.910156 L 5.730469 5.453125 L 6.277344 5.453125 L 6.277344 4.910156 Z M 6.859375 4.910156 L 6.859375 5.230469 C 7.25 5.230469 7.253906 5.363281 7.253906 5.835938 C 7.257812 5.878906 7.253906 5.941406 7.269531 6 C 7.296875 6.203125 7.390625 6.4375 7.648438 6.546875 C 7.320312 6.6875 7.253906 7.023438 7.253906 7.25 C 7.246094 7.355469 7.246094 7.574219 7.226562 7.636719 C 7.191406 7.792969 7.105469 7.859375 6.859375 7.859375 L 6.859375 8.183594 C 7.382812 8.183594 7.632812 8.023438 7.675781 7.636719 C 7.679688 7.578125 7.6875 7.472656 7.6875 7.375 C 7.6875 7.074219 7.695312 6.722656 8.019531 6.722656 L 8.183594 6.722656 L 8.183594 6.371094 L 8.019531 6.371094 C 7.796875 6.371094 7.730469 6.203125 7.703125 6 C 7.699219 5.914062 7.6875 5.59375 7.6875 5.59375 C 7.6875 5.101562 7.441406 4.910156 6.859375 4.910156 Z M 5.730469 6 L 5.730469 8.183594 L 6.277344 8.183594 L 6.277344 6 Z M 5.730469 6 "/>
</g>
</svg>
