<?xml version="1.0" encoding="UTF-8"?>
<svg xmlns="http://www.w3.org/2000/svg" xmlns:xlink="http://www.w3.org/1999/xlink" width="12pt" height="12pt" viewBox="0 0 12 12" version="1.1">
<g id="surface1">
<path style=" stroke:none;fill-rule:nonzero;fill:rgb(36.078431%,38.039216%,42.352941%);fill-opacity:1;" d="M 3.816406 2.183594 C 3.214844 2.183594 2.726562 2.671875 2.726562 3.273438 C 2.726562 3.585938 2.863281 3.882812 3.097656 4.089844 C 2.863281 4.296875 2.726562 4.597656 2.726562 4.910156 C 2.726562 5.511719 3.214844 6 3.816406 6 C 4.421875 6 4.910156 5.511719 4.910156 4.910156 C 4.910156 4.597656 4.773438 4.296875 4.539062 4.089844 C 4.773438 3.882812 4.910156 3.585938 4.910156 3.273438 C 4.910156 2.671875 4.421875 2.183594 3.816406 2.183594 Z M 6 2.183594 L 6 2.726562 C 7.472656 2.730469 8.808594 3.578125 9.441406 4.910156 L 7.472656 4.910156 L 7.472656 5.453125 L 10.199219 5.453125 L 10.199219 2.726562 L 9.652344 2.726562 L 9.652344 4.175781 C 8.851562 2.9375 7.476562 2.183594 6 2.183594 Z M 3.816406 2.726562 C 4.121094 2.726562 4.363281 2.972656 4.363281 3.273438 C 4.363281 3.574219 4.121094 3.816406 3.816406 3.816406 C 3.515625 3.816406 3.273438 3.574219 3.273438 3.273438 C 3.273438 2.972656 3.515625 2.726562 3.816406 2.726562 Z M 3.816406 4.363281 C 4.121094 4.363281 4.363281 4.609375 4.363281 4.910156 C 4.363281 5.210938 4.121094 5.453125 3.816406 5.453125 C 3.515625 5.453125 3.273438 5.210938 3.273438 4.910156 C 3.273438 4.609375 3.515625 4.363281 3.816406 4.363281 Z M 6.546875 6 L 6.546875 6.546875 L 7.089844 6.546875 L 7.089844 9.816406 L 7.636719 9.816406 L 7.636719 6 Z M 9.273438 6 C 8.671875 6 8.183594 6.488281 8.183594 7.089844 L 8.183594 8.726562 C 8.183594 9.328125 8.671875 9.816406 9.273438 9.816406 C 9.875 9.816406 10.363281 9.328125 10.363281 8.726562 C 10.363281 8.125 9.875 7.636719 9.273438 7.636719 C 9.082031 7.636719 8.894531 7.6875 8.726562 7.785156 L 8.726562 7.089844 C 8.726562 6.789062 8.972656 6.546875 9.273438 6.546875 C 9.574219 6.546875 9.816406 6.789062 9.816406 7.089844 L 10.363281 7.089844 C 10.363281 6.488281 9.875 6 9.273438 6 Z M 2.183594 6.546875 L 2.183594 9.273438 L 2.726562 9.273438 L 2.726562 7.824219 C 3.527344 9.0625 4.90625 9.816406 6.382812 9.816406 L 6.382812 9.273438 C 4.910156 9.269531 3.570312 8.421875 2.941406 7.089844 L 4.910156 7.089844 L 4.910156 6.546875 Z M 9.273438 8.183594 C 9.574219 8.183594 9.816406 8.425781 9.816406 8.726562 C 9.816406 9.027344 9.574219 9.273438 9.273438 9.273438 C 8.972656 9.273438 8.726562 9.027344 8.726562 8.726562 C 8.726562 8.425781 8.972656 8.183594 9.273438 8.183594 Z M 9.273438 8.183594 "/>
</g>
</svg>
