<?xml version="1.0" encoding="UTF-8"?>
<svg xmlns="http://www.w3.org/2000/svg" xmlns:xlink="http://www.w3.org/1999/xlink" width="12pt" height="12pt" viewBox="0 0 12 12" version="1.1">
<g id="surface1">
<path style=" stroke:none;fill-rule:nonzero;fill:rgb(36.078431%,38.039216%,42.352941%);fill-opacity:1;" d="M 3.273438 2.183594 L 3.273438 3.003906 L 2.183594 3.003906 L 2.183594 4.09375 L 3.273438 4.09375 L 3.273438 4.910156 L 5.457031 4.910156 L 5.457031 4.09375 L 6.546875 4.09375 L 6.546875 4.910156 L 8.730469 4.910156 L 8.730469 4.09375 L 9.820312 4.09375 L 9.820312 3.003906 L 8.730469 3.003906 L 8.730469 2.183594 L 6.546875 2.183594 L 6.546875 3.003906 L 5.457031 3.003906 L 5.457031 2.183594 Z M 3.273438 7.09375 L 3.273438 7.910156 L 2.183594 7.910156 L 2.183594 9.003906 L 3.273438 9.003906 L 3.273438 9.820312 L 5.457031 9.820312 L 5.457031 9.003906 L 6.546875 9.003906 L 6.546875 9.820312 L 8.730469 9.820312 L 8.730469 9.003906 L 9.820312 9.003906 L 9.820312 7.910156 L 8.730469 7.910156 L 8.730469 7.09375 L 6.546875 7.09375 L 6.546875 7.910156 L 5.457031 7.910156 L 5.457031 7.09375 Z M 3.273438 7.09375 "/>
</g>
</svg>
