<?xml version="1.0" encoding="UTF-8"?>
<svg xmlns="http://www.w3.org/2000/svg" xmlns:xlink="http://www.w3.org/1999/xlink" width="12pt" height="12pt" viewBox="0 0 12 12" version="1.1">
<g id="surface1">
<path style=" stroke:none;fill-rule:nonzero;fill:rgb(36.078431%,38.039216%,42.352941%);fill-opacity:1;" d="M 4.902344 2.191406 L 4.910156 5.464844 L 3.632812 5.464844 L 5.453125 8.117188 L 5.453125 7.035156 C 5.453125 6.480469 5.945312 6.027344 6.476562 6.027344 L 7.996094 6.027344 L 8.386719 5.464844 L 7.089844 5.464844 L 7.085938 2.191406 Z M 6.476562 6.574219 C 6.207031 6.574219 6 6.765625 6 7.035156 L 6 9.878906 C 6 10.144531 6.207031 10.339844 6.476562 10.339844 L 9.886719 10.339844 C 10.152344 10.339844 10.363281 10.144531 10.363281 9.878906 L 10.363281 7.035156 C 10.363281 6.765625 10.152344 6.574219 9.886719 6.574219 Z M 7.089844 7.089844 L 9.273438 7.089844 L 9.273438 9.816406 L 8.726562 9.816406 L 8.726562 8.726562 L 7.636719 8.726562 L 7.636719 9.816406 L 7.089844 9.816406 Z M 7.636719 7.636719 L 7.636719 8.183594 L 8.726562 8.183594 L 8.726562 7.636719 Z M 2.183594 9.289062 L 2.183594 10.363281 L 5.59375 10.363281 C 5.511719 10.21875 5.457031 10.054688 5.457031 9.878906 L 5.457031 9.289062 Z M 2.183594 9.289062 "/>
</g>
</svg>
