<?xml version="1.0" encoding="UTF-8"?>
<svg xmlns="http://www.w3.org/2000/svg" xmlns:xlink="http://www.w3.org/1999/xlink" width="12pt" height="12pt" viewBox="0 0 12 12" version="1.1">
<g id="surface1">
<path style=" stroke:none;fill-rule:nonzero;fill:rgb(36.078431%,38.039216%,42.352941%);fill-opacity:1;" d="M 4.363281 2.730469 L 1.636719 6.003906 L 4.363281 9.273438 L 10.363281 9.273438 L 10.363281 2.730469 Z M 5.453125 4.367188 L 6 4.367188 C 6.152344 4.367188 6.285156 4.425781 6.386719 4.527344 L 7.089844 5.230469 L 7.796875 4.527344 C 7.890625 4.425781 8.023438 4.367188 8.175781 4.367188 L 8.722656 4.367188 L 8.722656 4.910156 C 8.722656 5.0625 8.660156 5.199219 8.5625 5.296875 L 7.855469 6.003906 L 8.558594 6.707031 C 8.660156 6.804688 8.71875 6.941406 8.71875 7.09375 L 8.71875 7.636719 L 8.175781 7.636719 C 8.023438 7.636719 7.886719 7.578125 7.789062 7.480469 L 7.082031 6.773438 L 6.378906 7.480469 C 6.289062 7.578125 6.15625 7.636719 6.003906 7.636719 L 5.457031 7.636719 L 5.457031 7.09375 C 5.457031 6.941406 5.519531 6.804688 5.617188 6.707031 L 6.324219 6.003906 L 5.617188 5.296875 C 5.519531 5.199219 5.457031 5.0625 5.457031 4.910156 Z M 5.453125 4.367188 "/>
</g>
</svg>
