<?xml version="1.0" encoding="UTF-8"?>
<svg xmlns="http://www.w3.org/2000/svg" xmlns:xlink="http://www.w3.org/1999/xlink" width="12pt" height="12pt" viewBox="0 0 12 12" version="1.1">
<g id="surface1">
<path style=" stroke:none;fill-rule:nonzero;fill:rgb(36.078431%,38.039216%,42.352941%);fill-opacity:1;" d="M 3.273438 2.1875 C 3.273438 2.1875 2.726562 2.1875 2.726562 2.734375 L 2.726562 9.277344 C 2.726562 9.824219 3.273438 9.824219 3.273438 9.824219 L 8.726562 9.824219 C 8.726562 9.824219 9.273438 9.824219 9.273438 9.277344 L 9.273438 7.097656 C 9.273438 5.460938 7.636719 5.460938 7.636719 5.460938 L 7.089844 5.457031 L 7.089844 4.367188 L 4.636719 6.003906 L 7.089844 7.640625 L 7.089844 6.546875 L 7.636719 6.550781 C 7.636719 6.550781 8.183594 6.550781 8.183594 7.097656 L 8.183594 8.734375 L 3.816406 8.734375 L 3.816406 3.28125 L 8.183594 3.28125 L 8.183594 4.914062 L 9.273438 4.914062 L 9.273438 2.734375 C 9.273438 2.1875 8.726562 2.1875 8.726562 2.1875 Z M 3.273438 2.1875 "/>
</g>
</svg>
