<?xml version="1.0" encoding="UTF-8"?>
<svg xmlns="http://www.w3.org/2000/svg" xmlns:xlink="http://www.w3.org/1999/xlink" width="12pt" height="12pt" viewBox="0 0 12 12" version="1.1">
<g id="surface1">
<path style=" stroke:none;fill-rule:nonzero;fill:rgb(36.078431%,38.039216%,42.352941%);fill-opacity:1;" d="M 5.785156 1.636719 C 5.726562 1.636719 5.667969 1.648438 5.613281 1.675781 L 1.851562 3.554688 C 1.71875 3.621094 1.636719 3.746094 1.636719 3.902344 L 1.636719 8.078125 C 1.636719 8.222656 1.71875 8.355469 1.847656 8.421875 L 5.609375 10.320312 C 5.664062 10.351562 5.722656 10.363281 5.785156 10.363281 C 5.878906 10.363281 5.972656 10.3125 5.972656 10.316406 L 9.71875 8.421875 C 9.851562 8.355469 9.933594 8.222656 9.933594 8.078125 L 9.933594 3.898438 C 9.933594 3.753906 9.847656 3.621094 9.71875 3.554688 L 5.957031 1.675781 C 5.902344 1.648438 5.84375 1.636719 5.785156 1.636719 Z M 5.785156 2.453125 L 8.683594 3.898438 L 5.785156 5.347656 L 2.886719 3.898438 Z M 2.40625 4.523438 L 5.398438 6.015625 L 5.398438 9.351562 L 2.40625 7.839844 Z M 9.160156 4.523438 L 9.160156 7.839844 L 6.167969 9.351562 L 6.167969 6.015625 Z M 9.160156 4.523438 "/>
</g>
</svg>
