<?xml version="1.0" encoding="UTF-8"?>
<svg xmlns="http://www.w3.org/2000/svg" xmlns:xlink="http://www.w3.org/1999/xlink" width="12pt" height="12pt" viewBox="0 0 12 12" version="1.1">
<g id="surface1">
<path style=" stroke:none;fill-rule:nonzero;fill:rgb(36.078431%,38.039216%,42.352941%);fill-opacity:1;" d="M 3.179688 1.636719 C 1.289062 3.398438 1.078125 6.472656 2.871094 8.398438 C 4.5 10.144531 7.320312 10.335938 9.085938 8.65625 C 10.667969 7.152344 10.835938 4.546875 9.289062 2.929688 C 7.917969 1.496094 5.5625 1.347656 4.109375 2.777344 C 2.835938 4.027344 2.710938 6.164062 4.011719 7.46875 C 5.128906 8.59375 7.019531 8.691406 8.164062 7.507812 C 9.125 6.515625 9.203125 4.839844 8.144531 3.851562 C 7.28125 3.042969 5.84375 2.988281 5.015625 3.941406 C 4.371094 4.683594 4.339844 5.90625 5.183594 6.570312 C 5.492188 6.8125 5.867188 6.925781 6.253906 6.898438 C 6.636719 6.871094 7.050781 6.671875 7.292969 6.292969 C 7.457031 6.035156 7.511719 5.753906 7.460938 5.453125 C 7.414062 5.148438 7.183594 4.792969 6.8125 4.671875 C 6.496094 4.570312 6.316406 4.585938 6.117188 4.699219 C 5.96875 4.78125 5.839844 4.925781 5.808594 5.15625 C 5.785156 5.339844 5.832031 5.523438 5.859375 5.707031 C 5.558594 5.46875 5.574219 4.964844 5.839844 4.660156 C 6.226562 4.214844 6.960938 4.242188 7.398438 4.65625 C 7.980469 5.199219 7.933594 6.171875 7.378906 6.746094 C 6.6875 7.464844 5.484375 7.398438 4.78125 6.695312 C 3.933594 5.84375 4.019531 4.398438 4.871094 3.558594 C 5.871094 2.578125 7.539062 2.683594 8.503906 3.691406 C 9.609375 4.847656 9.488281 6.761719 8.335938 7.859375 C 7.027344 9.105469 4.890625 8.960938 3.667969 7.648438 C 2.300781 6.183594 2.464844 3.796875 3.921875 2.441406 Z M 3.179688 1.636719 "/>
</g>
</svg>
