<?xml version="1.0" encoding="UTF-8"?>
<svg xmlns="http://www.w3.org/2000/svg" xmlns:xlink="http://www.w3.org/1999/xlink" width="12pt" height="12pt" viewBox="0 0 12 12" version="1.1">
<g id="surface1">
<path style=" stroke:none;fill-rule:nonzero;fill:rgb(36.078431%,38.039216%,42.352941%);fill-opacity:1;" d="M 2.183594 2.183594 L 2.183594 6.546875 L 3.273438 6.546875 L 3.273438 5.453125 L 4.363281 5.453125 L 4.363281 6.546875 L 5.453125 6.546875 L 5.453125 5.453125 L 6.546875 5.453125 L 6.546875 6.546875 L 7.636719 6.546875 L 7.636719 5.453125 L 8.726562 5.453125 L 8.726562 6.546875 L 9.816406 6.546875 L 9.816406 2.183594 Z M 3.273438 3.273438 L 4.363281 3.273438 L 4.363281 4.363281 L 3.273438 4.363281 Z M 5.453125 3.273438 L 6.546875 3.273438 L 6.546875 4.363281 L 5.453125 4.363281 Z M 7.636719 3.273438 L 8.726562 3.273438 L 8.726562 4.363281 L 7.636719 4.363281 Z M 2.726562 7.089844 L 2.726562 7.636719 L 3.425781 7.636719 L 2.726562 8.335938 L 2.726562 9.121094 L 4.210938 7.636719 L 5.609375 7.636719 L 5.453125 7.789062 L 4.910156 8.335938 L 3.972656 9.273438 L 2.726562 9.273438 L 2.726562 9.816406 L 6.546875 9.816406 L 6.546875 8.878906 L 6.152344 9.273438 L 4.753906 9.273438 L 4.910156 9.121094 L 5.453125 8.574219 L 6.390625 7.636719 L 6.546875 7.636719 L 6.546875 7.089844 Z M 7.089844 7.636719 L 8.183594 9.816406 L 9.273438 7.636719 Z M 7.089844 7.636719 "/>
</g>
</svg>
