<?xml version="1.0" encoding="UTF-8"?>
<svg xmlns="http://www.w3.org/2000/svg" xmlns:xlink="http://www.w3.org/1999/xlink" width="12pt" height="12pt" viewBox="0 0 12 12" version="1.1">
<g id="surface1">
<path style=" stroke:none;fill-rule:nonzero;fill:rgb(36.078431%,38.039216%,42.352941%);fill-opacity:1;" d="M 9.816406 2.183594 C 9.277344 2.292969 8.777344 2.609375 8.480469 3.0625 C 8.378906 3.019531 8.300781 3 8.183594 3 C 8.097656 3 8.015625 3.015625 7.9375 3.039062 C 7.785156 3.097656 7.652344 3.160156 7.527344 3.222656 C 6.980469 2.898438 6.359375 2.726562 5.726562 2.726562 C 3.769531 2.726562 2.183594 4.316406 2.183594 6.273438 C 2.183594 8.230469 3.769531 9.816406 5.726562 9.816406 C 7.683594 9.816406 9.273438 8.230469 9.273438 6.273438 C 9.273438 5.683594 9.121094 5.101562 8.839844 4.582031 C 8.886719 4.425781 8.929688 4.253906 8.960938 4.0625 C 8.984375 3.984375 9 3.902344 9 3.816406 C 9 3.636719 8.996094 3.5625 8.894531 3.425781 C 9.113281 3.070312 9.40625 2.835938 9.816406 2.726562 Z M 9.816406 2.183594 "/>
</g>
</svg>
