<?xml version="1.0" encoding="UTF-8"?>
<svg xmlns="http://www.w3.org/2000/svg" xmlns:xlink="http://www.w3.org/1999/xlink" width="12pt" height="12pt" viewBox="0 0 12 12" version="1.1">
<g id="surface1">
<path style=" stroke:none;fill-rule:nonzero;fill:rgb(36.078431%,38.039216%,42.352941%);fill-opacity:1;" d="M 5.183594 2.183594 C 3.53125 2.183594 2.183594 3.535156 2.183594 5.183594 C 2.183594 5.761719 2.335938 6.308594 2.625 6.769531 L 3.425781 5.96875 C 3.320312 5.730469 3.273438 5.460938 3.273438 5.183594 C 3.273438 4.121094 4.121094 3.273438 5.183594 3.273438 C 5.460938 3.273438 5.710938 3.339844 5.949219 3.445312 L 6.410156 2.984375 L 6.75 2.628906 C 6.292969 2.34375 5.757812 2.183594 5.183594 2.183594 Z M 7.96875 2.726562 C 7.871094 2.726562 7.773438 2.765625 7.695312 2.84375 L 6.933594 3.609375 L 8.390625 5.070312 L 9.15625 4.308594 C 9.3125 4.152344 9.3125 3.910156 9.15625 3.753906 L 8.246094 2.84375 C 8.167969 2.765625 8.070312 2.726562 7.96875 2.726562 Z M 6.410156 4.132812 L 2.726562 7.816406 L 2.726562 9.273438 L 4.183594 9.273438 L 7.867188 5.59375 Z M 7.703125 6.921875 L 6.921875 7.691406 L 8.898438 9.667969 C 9.421875 10.179688 10.1875 9.394531 9.664062 8.882812 Z M 7.703125 6.921875 "/>
</g>
</svg>
