<?xml version="1.0" encoding="UTF-8"?>
<svg xmlns="http://www.w3.org/2000/svg" xmlns:xlink="http://www.w3.org/1999/xlink" width="12pt" height="12pt" viewBox="0 0 12 12" version="1.1">
<g id="surface1">
<path style=" stroke:none;fill-rule:nonzero;fill:rgb(36.078431%,38.039216%,42.352941%);fill-opacity:1;" d="M 4.089844 2.730469 C 3.335938 2.730469 2.726562 3.34375 2.726562 4.09375 C 2.726562 4.847656 3.335938 5.457031 4.089844 5.457031 C 4.335938 5.457031 4.558594 5.382812 4.753906 5.269531 L 5.828125 6.277344 L 4.753906 7.28125 C 4.558594 7.171875 4.335938 7.09375 4.089844 7.09375 C 3.335938 7.09375 2.726562 7.707031 2.726562 8.457031 C 2.726562 9.210938 3.335938 9.824219 4.089844 9.824219 C 4.84375 9.824219 5.453125 9.210938 5.453125 8.457031 C 5.453125 8.332031 5.433594 8.214844 5.402344 8.101562 L 6.5625 6.976562 L 9 9.277344 L 9.816406 9.277344 L 9.816406 8.730469 L 5.402344 4.453125 C 5.433594 4.339844 5.453125 4.21875 5.453125 4.09375 C 5.453125 3.34375 4.84375 2.730469 4.089844 2.730469 Z M 9 3.277344 L 6.851562 5.304688 L 7.566406 6.003906 L 9.816406 3.824219 L 9.816406 3.277344 Z M 4.089844 3.550781 C 4.390625 3.550781 4.636719 3.792969 4.636719 4.09375 C 4.636719 4.394531 4.390625 4.640625 4.089844 4.640625 C 3.789062 4.640625 3.546875 4.394531 3.546875 4.09375 C 3.546875 3.792969 3.789062 3.550781 4.089844 3.550781 Z M 4.089844 7.914062 C 4.390625 7.914062 4.636719 8.15625 4.636719 8.457031 C 4.636719 8.761719 4.390625 9.003906 4.089844 9.003906 C 3.789062 9.003906 3.546875 8.761719 3.546875 8.457031 C 3.546875 8.15625 3.789062 7.914062 4.089844 7.914062 Z M 4.089844 7.914062 "/>
</g>
</svg>
