<?xml version="1.0" encoding="UTF-8"?>
<svg xmlns="http://www.w3.org/2000/svg" xmlns:xlink="http://www.w3.org/1999/xlink" width="12pt" height="12pt" viewBox="0 0 12 12" version="1.1">
<g id="surface1">
<path style=" stroke:none;fill-rule:nonzero;fill:rgb(36.078431%,38.039216%,42.352941%);fill-opacity:1;" d="M 1.910156 1.636719 L 1.683594 1.753906 L 1.65625 2.007812 L 1.847656 2.175781 L 1.910156 2.183594 L 2.453125 2.183594 L 2.679688 2.0625 L 2.707031 1.808594 L 2.515625 1.644531 L 2.457031 1.636719 Z M 3.546875 1.636719 L 3.320312 1.753906 L 3.292969 2.007812 L 3.484375 2.175781 L 3.546875 2.183594 L 4.089844 2.183594 L 4.316406 2.0625 L 4.34375 1.808594 L 4.152344 1.644531 L 4.09375 1.636719 Z M 5.183594 1.636719 L 4.957031 1.753906 L 4.929688 2.007812 L 5.121094 2.175781 L 5.183594 2.183594 L 5.726562 2.183594 L 5.953125 2.0625 L 5.980469 1.808594 L 5.789062 1.644531 L 5.726562 1.636719 Z M 6.820312 1.636719 L 6.59375 1.753906 L 6.566406 2.007812 L 6.757812 2.175781 L 6.816406 2.183594 L 7.363281 2.183594 L 7.589844 2.0625 L 7.617188 1.808594 L 7.425781 1.644531 L 7.363281 1.636719 Z M 8.457031 1.636719 L 8.230469 1.753906 L 8.203125 2.007812 L 8.394531 2.175781 L 8.453125 2.183594 L 9 2.183594 L 9.226562 2.0625 L 9.253906 1.808594 L 9.0625 1.644531 L 9 1.636719 Z M 10.089844 1.910156 L 9.816406 2.453125 L 9.9375 2.679688 L 10.191406 2.707031 L 10.355469 2.515625 L 10.363281 2.453125 Z M 1.808594 2.746094 L 1.640625 2.9375 L 1.636719 3 L 1.636719 3.546875 L 1.753906 3.769531 L 2.007812 3.800781 L 2.175781 3.605469 L 2.179688 3.546875 L 2.179688 3 L 2.0625 2.773438 Z M 3.273438 3.273438 L 3.273438 4.363281 L 6.546875 4.363281 L 6.546875 3.273438 Z M 9.992188 3.292969 L 9.824219 3.484375 L 9.816406 3.546875 L 9.816406 4.089844 L 9.9375 4.316406 L 10.191406 4.34375 L 10.355469 4.152344 L 10.363281 4.089844 L 10.363281 3.546875 L 10.242188 3.320312 Z M 1.808594 4.382812 L 1.640625 4.574219 L 1.636719 4.636719 L 1.636719 5.183594 L 1.753906 5.40625 L 2.007812 5.433594 L 2.175781 5.242188 L 2.179688 5.183594 L 2.179688 4.636719 L 2.0625 4.410156 Z M 9.992188 4.929688 L 9.824219 5.121094 L 9.816406 5.183594 L 9.816406 5.726562 L 9.9375 5.953125 L 10.191406 5.980469 L 10.355469 5.789062 L 10.363281 5.726562 L 10.363281 5.183594 L 10.242188 4.957031 Z M 4.363281 5.453125 L 4.363281 6.546875 L 7.636719 6.546875 L 7.636719 5.453125 Z M 1.808594 6.019531 L 1.640625 6.210938 L 1.636719 6.273438 L 1.636719 6.816406 L 1.753906 7.042969 L 2.007812 7.070312 L 2.175781 6.878906 L 2.179688 6.816406 L 2.179688 6.273438 L 2.0625 6.046875 Z M 9.992188 6.566406 L 9.824219 6.757812 L 9.816406 6.816406 L 9.816406 7.363281 L 9.9375 7.589844 L 10.191406 7.617188 L 10.355469 7.425781 L 10.363281 7.363281 L 10.363281 6.816406 L 10.242188 6.59375 Z M 5.453125 7.636719 L 5.453125 8.726562 L 8.726562 8.726562 L 8.726562 7.636719 Z M 1.808594 7.65625 L 1.640625 7.847656 L 1.636719 7.910156 L 1.636719 8.453125 L 1.753906 8.679688 L 2.007812 8.707031 L 2.175781 8.515625 L 2.179688 8.453125 L 2.179688 7.910156 L 2.0625 7.683594 Z M 9.992188 8.199219 L 9.824219 8.394531 L 9.816406 8.453125 L 9.816406 9 L 9.9375 9.226562 L 10.191406 9.253906 L 10.355469 9.0625 L 10.363281 9 L 10.363281 8.453125 L 10.242188 8.230469 Z M 1.808594 9.292969 L 1.640625 9.484375 L 1.636719 9.546875 L 1.910156 10.089844 L 2.183594 9.546875 L 2.0625 9.320312 Z M 3.003906 9.816406 L 2.773438 9.9375 L 2.746094 10.191406 L 2.9375 10.355469 L 3.003906 10.363281 L 3.546875 10.363281 L 3.773438 10.246094 L 3.800781 9.992188 L 3.609375 9.824219 L 3.546875 9.816406 Z M 4.640625 9.816406 L 4.410156 9.9375 L 4.378906 10.191406 L 4.574219 10.355469 L 4.640625 10.363281 L 5.183594 10.363281 L 5.410156 10.246094 L 5.4375 9.992188 L 5.246094 9.824219 L 5.183594 9.816406 Z M 6.277344 9.816406 L 6.046875 9.9375 L 6.015625 10.191406 L 6.210938 10.355469 L 6.277344 10.363281 L 6.820312 10.363281 L 7.046875 10.246094 L 7.074219 9.992188 L 6.882812 9.824219 L 6.820312 9.816406 Z M 7.914062 9.816406 L 7.683594 9.9375 L 7.652344 10.191406 L 7.847656 10.355469 L 7.914062 10.363281 L 8.457031 10.363281 L 8.683594 10.246094 L 8.710938 9.992188 L 8.519531 9.824219 L 8.457031 9.816406 Z M 9.546875 9.816406 L 9.320312 9.9375 L 9.289062 10.191406 L 9.484375 10.355469 L 9.546875 10.363281 L 10.09375 10.089844 Z M 9.546875 9.816406 "/>
</g>
</svg>
