<?xml version="1.0" encoding="UTF-8"?>
<svg xmlns="http://www.w3.org/2000/svg" xmlns:xlink="http://www.w3.org/1999/xlink" width="12pt" height="12pt" viewBox="0 0 12 12" version="1.1">
<g id="surface1">
<path style=" stroke:none;fill-rule:nonzero;fill:rgb(36.078431%,38.039216%,42.352941%);fill-opacity:1;" d="M 5.175781 2.179688 C 3.523438 2.179688 2.175781 3.53125 2.175781 5.179688 C 2.175781 6.828125 3.523438 8.179688 5.175781 8.179688 C 5.804688 8.179688 6.398438 7.984375 6.882812 7.652344 L 8.890625 9.664062 C 9.03125 9.800781 9.234375 9.855469 9.425781 9.800781 C 9.613281 9.75 9.761719 9.597656 9.808594 9.40625 C 9.859375 9.21875 9.800781 9.015625 9.660156 8.878906 L 7.648438 6.867188 C 7.980469 6.382812 8.195312 5.808594 8.195312 5.179688 C 8.195312 3.53125 6.828125 2.179688 5.175781 2.179688 Z M 5.175781 3.269531 C 6.238281 3.269531 7.085938 4.117188 7.085938 5.179688 C 7.085938 6.242188 6.238281 7.089844 5.175781 7.089844 C 4.113281 7.089844 3.265625 6.242188 3.265625 5.179688 C 3.265625 4.117188 4.113281 3.269531 5.175781 3.269531 Z M 5.175781 3.269531 "/>
</g>
</svg>
