<?xml version="1.0" encoding="UTF-8"?>
<svg xmlns="http://www.w3.org/2000/svg" xmlns:xlink="http://www.w3.org/1999/xlink" width="12pt" height="12pt" viewBox="0 0 12 12" version="1.1">
<g id="surface1">
<path style=" stroke:none;fill-rule:nonzero;fill:rgb(94.901961%,47.45098%,20.784314%);fill-opacity:1;" d="M 3.816406 3.273438 L 4.910156 3.273438 L 4.910156 8.726562 L 3.816406 8.726562 Z M 3.816406 3.273438 "/>
<path style=" stroke:none;fill-rule:nonzero;fill:rgb(1.568627%,53.72549%,41.568627%);fill-opacity:1;" d="M 6 3.273438 L 7.089844 3.273438 L 7.089844 8.726562 L 6 8.726562 Z M 6 3.273438 "/>
<path style=" stroke:none;fill-rule:nonzero;fill:rgb(22.745098%,32.54902%,60.784314%);fill-opacity:1;" d="M 8.183594 3.273438 L 9.273438 3.273438 L 9.273438 8.726562 L 8.183594 8.726562 Z M 8.183594 3.273438 "/>
<path style=" stroke:none;fill-rule:nonzero;fill:rgb(99.215686%,82.352941%,52.156863%);fill-opacity:1;" d="M 2.726562 3.273438 L 3.816406 3.273438 L 3.816406 8.726562 L 2.726562 8.726562 Z M 2.726562 3.273438 "/>
<path style=" stroke:none;fill-rule:nonzero;fill:rgb(11.372549%,60%,95.294118%);fill-opacity:1;" d="M 7.089844 3.273438 L 8.183594 3.273438 L 8.183594 8.726562 L 7.089844 8.726562 Z M 7.089844 3.273438 "/>
<path style=" stroke:none;fill-rule:nonzero;fill:rgb(49.803922%,80%,45.490196%);fill-opacity:1;" d="M 4.910156 3.273438 L 6 3.273438 L 6 8.726562 L 4.910156 8.726562 Z M 4.910156 3.273438 "/>
</g>
</svg>
