<?xml version="1.0" encoding="UTF-8"?>
<svg xmlns="http://www.w3.org/2000/svg" xmlns:xlink="http://www.w3.org/1999/xlink" width="12pt" height="12pt" viewBox="0 0 12 12" version="1.1">
<g id="surface1">
<path style=" stroke:none;fill-rule:nonzero;fill:rgb(36.078431%,38.039216%,42.352941%);fill-opacity:1;" d="M 6.425781 2.726562 C 6.398438 2.722656 6.367188 2.730469 6.347656 2.75 C 6.324219 2.769531 6.3125 2.796875 6.308594 2.828125 L 6.1875 4.183594 C 6.179688 4.246094 6.222656 4.300781 6.28125 4.308594 C 6.621094 4.34375 6.945312 4.441406 7.25 4.597656 C 7.261719 4.605469 7.28125 4.609375 7.296875 4.609375 C 7.308594 4.609375 7.316406 4.605469 7.328125 4.601562 C 7.355469 4.59375 7.378906 4.570312 7.390625 4.542969 L 7.941406 3.316406 C 7.96875 3.261719 7.945312 3.195312 7.894531 3.167969 C 7.429688 2.925781 6.9375 2.78125 6.425781 2.726562 Z M 5.410156 2.746094 C 4.898438 2.820312 4.410156 2.988281 3.957031 3.246094 C 3.90625 3.277344 3.886719 3.34375 3.914062 3.402344 L 4.507812 4.605469 C 4.527344 4.644531 4.566406 4.664062 4.601562 4.664062 C 4.621094 4.664062 4.636719 4.660156 4.652344 4.652344 C 4.953125 4.480469 5.273438 4.371094 5.609375 4.320312 C 5.664062 4.3125 5.707031 4.257812 5.699219 4.195312 L 5.527344 2.84375 C 5.519531 2.78125 5.464844 2.738281 5.410156 2.746094 Z M 8.675781 3.726562 C 8.644531 3.730469 8.621094 3.746094 8.601562 3.769531 L 7.800781 4.824219 C 7.78125 4.847656 7.773438 4.878906 7.777344 4.90625 C 7.78125 4.9375 7.792969 4.964844 7.816406 4.984375 C 8.078125 5.214844 8.300781 5.488281 8.476562 5.800781 C 8.496094 5.835938 8.53125 5.855469 8.566406 5.855469 C 8.585938 5.855469 8.605469 5.851562 8.621094 5.839844 L 9.710938 5.140625 C 9.734375 5.125 9.753906 5.101562 9.757812 5.070312 C 9.765625 5.042969 9.761719 5.011719 9.746094 4.984375 C 9.484375 4.511719 9.148438 4.097656 8.75 3.75 C 8.730469 3.730469 8.703125 3.722656 8.675781 3.726562 Z M 3.195312 3.839844 C 3.167969 3.835938 3.140625 3.847656 3.121094 3.867188 C 2.734375 4.230469 2.414062 4.660156 2.167969 5.140625 C 2.15625 5.167969 2.152344 5.199219 2.160156 5.226562 C 2.167969 5.257812 2.1875 5.28125 2.210938 5.292969 L 3.324219 5.949219 C 3.34375 5.957031 3.359375 5.960938 3.378906 5.960938 C 3.414062 5.960938 3.449219 5.941406 3.46875 5.902344 C 3.632812 5.585938 3.84375 5.300781 4.097656 5.0625 C 4.121094 5.042969 4.132812 5.015625 4.132812 4.984375 C 4.136719 4.953125 4.128906 4.921875 4.109375 4.902344 L 3.269531 3.878906 C 3.25 3.855469 3.226562 3.839844 3.195312 3.839844 Z M 10.03125 5.90625 L 8.820312 6.3125 C 8.761719 6.332031 8.730469 6.398438 8.75 6.457031 C 8.835938 6.753906 8.878906 7.066406 8.878906 7.382812 C 8.878906 7.429688 8.878906 7.476562 8.878906 7.527344 C 8.875 7.558594 8.886719 7.585938 8.90625 7.609375 C 8.925781 7.632812 8.949219 7.644531 8.980469 7.644531 L 10.25 7.707031 C 10.25 7.707031 10.25 7.707031 10.253906 7.707031 C 10.308594 7.707031 10.355469 7.660156 10.359375 7.601562 C 10.363281 7.523438 10.363281 7.453125 10.363281 7.382812 C 10.363281 6.90625 10.296875 6.433594 10.164062 5.980469 C 10.148438 5.921875 10.089844 5.886719 10.03125 5.90625 Z M 4.152344 6.039062 C 4.128906 6.042969 4.109375 6.050781 4.089844 6.070312 C 4.054688 6.105469 4.046875 6.164062 4.070312 6.210938 L 5.007812 8.09375 C 5.003906 8.132812 5.003906 8.167969 5.003906 8.207031 C 5.003906 8.492188 5.105469 8.757812 5.292969 8.957031 C 5.480469 9.160156 5.730469 9.269531 5.996094 9.269531 C 6.261719 9.269531 6.511719 9.160156 6.699219 8.957031 C 6.886719 8.757812 6.988281 8.492188 6.988281 8.207031 C 6.988281 7.921875 6.886719 7.652344 6.699219 7.453125 C 6.511719 7.253906 6.261719 7.140625 5.996094 7.140625 C 5.976562 7.140625 5.960938 7.140625 5.941406 7.140625 L 4.222656 6.054688 C 4.199219 6.039062 4.175781 6.035156 4.152344 6.039062 Z M 1.917969 6.074219 C 1.890625 6.066406 1.863281 6.070312 1.835938 6.085938 C 1.8125 6.101562 1.796875 6.125 1.789062 6.15625 C 1.6875 6.554688 1.636719 6.964844 1.636719 7.382812 C 1.636719 7.453125 1.636719 7.523438 1.640625 7.601562 C 1.644531 7.660156 1.691406 7.707031 1.746094 7.707031 C 1.75 7.707031 1.75 7.707031 1.753906 7.707031 L 3.019531 7.644531 C 3.050781 7.644531 3.074219 7.632812 3.09375 7.609375 C 3.113281 7.585938 3.125 7.558594 3.121094 7.527344 C 3.121094 7.476562 3.121094 7.429688 3.121094 7.382812 C 3.121094 7.105469 3.152344 6.832031 3.21875 6.570312 C 3.234375 6.511719 3.203125 6.449219 3.144531 6.429688 Z M 1.917969 6.074219 "/>
</g>
</svg>
