<?xml version="1.0" encoding="UTF-8"?>
<svg xmlns="http://www.w3.org/2000/svg" xmlns:xlink="http://www.w3.org/1999/xlink" width="12pt" height="12pt" viewBox="0 0 12 12" version="1.1">
<g id="surface1">
<path style=" stroke:none;fill-rule:nonzero;fill:rgb(36.078431%,38.039216%,42.352941%);fill-opacity:1;" d="M 1.636719 2.734375 L 1.636719 9.277344 L 7.089844 9.277344 L 7.089844 3.824219 C 7.089844 2.734375 6 2.734375 6 2.734375 Z M 7.089844 2.734375 C 7.089844 2.734375 7.636719 2.734375 7.636719 3.824219 L 7.636719 9.277344 L 8.183594 9.277344 L 8.183594 3.824219 C 8.183594 2.734375 7.089844 2.734375 7.089844 2.734375 Z M 8.183594 2.734375 C 8.183594 2.734375 8.726562 2.734375 8.726562 3.824219 L 8.726562 9.277344 L 9.273438 9.277344 L 9.273438 3.824219 C 9.273438 2.734375 8.183594 2.734375 8.183594 2.734375 Z M 3.273438 4.367188 L 5.726562 6.003906 L 3.273438 7.640625 Z M 3.273438 4.367188 "/>
</g>
</svg>
