<?xml version="1.0" encoding="UTF-8"?>
<svg xmlns="http://www.w3.org/2000/svg" xmlns:xlink="http://www.w3.org/1999/xlink" width="12pt" height="12pt" viewBox="0 0 12 12" version="1.1">
<g id="surface1">
<path style=" stroke:none;fill-rule:nonzero;fill:rgb(36.078431%,38.039216%,42.352941%);fill-opacity:1;" d="M 2.511719 2.183594 C 2.402344 2.207031 2.183594 2.308594 2.183594 2.679688 L 2.183594 7.140625 C 2.183594 7.140625 2.183594 7.636719 2.570312 7.636719 L 7.246094 7.636719 C 7.246094 7.636719 7.636719 7.636719 7.636719 7.140625 L 7.636719 3.78125 C 7.636719 3.285156 7.246094 3.273438 7.246094 3.273438 L 5.453125 3.273438 L 4.363281 2.183594 L 2.570312 2.183594 C 2.570312 2.183594 2.546875 2.175781 2.511719 2.183594 Z M 8.183594 5.453125 L 8.183594 7.6875 C 8.183594 8.183594 7.792969 8.183594 7.792969 8.183594 L 4.363281 8.183594 L 4.363281 9.324219 C 4.363281 9.324219 4.363281 9.816406 4.753906 9.816406 L 9.429688 9.816406 C 9.429688 9.816406 9.816406 9.820312 9.816406 9.324219 L 9.816406 5.960938 C 9.816406 5.46875 9.429688 5.453125 9.429688 5.453125 Z M 8.183594 5.453125 "/>
</g>
</svg>
