<?xml version="1.0" encoding="UTF-8"?>
<svg xmlns="http://www.w3.org/2000/svg" xmlns:xlink="http://www.w3.org/1999/xlink" width="12pt" height="12pt" viewBox="0 0 12 12" version="1.1">
<g id="surface1">
<path style=" stroke:none;fill-rule:nonzero;fill:rgb(36.078431%,38.039216%,42.352941%);fill-opacity:1;" d="M 4.089844 2.726562 L 2.726562 4.363281 L 5.453125 4.363281 Z M 6.546875 4.363281 L 6.546875 9.273438 L 7.089844 9.273438 L 7.089844 8.851562 C 7.390625 9.121094 7.777344 9.273438 8.183594 9.273438 C 9.085938 9.273438 9.816406 8.539062 9.816406 7.636719 C 9.816406 6.734375 9.085938 6 8.183594 6 C 7.777344 6 7.390625 6.148438 7.089844 6.417969 L 7.089844 4.363281 Z M 3.757812 4.910156 L 2.183594 9.273438 L 2.816406 9.273438 L 3.359375 8.027344 L 4.875 8.027344 L 5.363281 9.273438 L 6 9.273438 L 4.558594 4.910156 Z M 4.15625 5.585938 L 4.753906 7.402344 L 3.496094 7.402344 Z M 8.183594 6.546875 C 8.785156 6.546875 9.273438 7.035156 9.273438 7.636719 C 9.273438 8.238281 8.785156 8.726562 8.183594 8.726562 C 7.578125 8.726562 7.089844 8.238281 7.089844 7.636719 C 7.089844 7.035156 7.578125 6.546875 8.183594 6.546875 Z M 8.183594 6.546875 "/>
</g>
</svg>
