<?xml version="1.0" encoding="UTF-8"?>
<svg xmlns="http://www.w3.org/2000/svg" xmlns:xlink="http://www.w3.org/1999/xlink" width="12pt" height="12pt" viewBox="0 0 12 12" version="1.1">
<g id="surface1">
<path style=" stroke:none;fill-rule:nonzero;fill:rgb(36.078431%,38.039216%,42.352941%);fill-opacity:1;" d="M 4.089844 1.636719 C 2.828125 1.636719 2.535156 3.03125 2.472656 4.910156 L 1.636719 4.910156 L 1.636719 7.089844 L 3.816406 7.089844 L 3.816406 4.910156 L 3.027344 4.910156 C 3.085938 3.34375 3.3125 2.183594 4.089844 2.183594 C 5.015625 2.183594 5.515625 3.335938 5.667969 4.910156 L 4.910156 4.910156 L 4.910156 7.089844 L 5.808594 7.089844 C 6.042969 8.988281 6.714844 10.363281 7.910156 10.363281 C 9.273438 10.363281 9.375 8.976562 9.503906 7.089844 L 10.363281 7.089844 L 10.363281 4.910156 L 8.183594 4.910156 L 8.183594 7.089844 L 8.960938 7.089844 C 8.847656 8.671875 8.765625 9.816406 7.910156 9.816406 C 6.996094 9.816406 6.539062 8.683594 6.351562 7.089844 L 7.089844 7.089844 L 7.089844 4.910156 L 6.210938 4.910156 C 6.011719 3.03125 5.296875 1.636719 4.089844 1.636719 Z M 4.089844 1.636719 "/>
</g>
</svg>
