<?xml version="1.0" encoding="UTF-8"?>
<svg xmlns="http://www.w3.org/2000/svg" xmlns:xlink="http://www.w3.org/1999/xlink" width="12pt" height="12pt" viewBox="0 0 12 12" version="1.1">
<g id="surface1">
<path style=" stroke:none;fill-rule:nonzero;fill:rgb(36.078431%,38.039216%,42.352941%);fill-opacity:1;" d="M 4.910156 4.363281 C 4.304688 4.363281 3.816406 4.851562 3.816406 5.453125 L 3.816406 6.835938 L 3.820312 6.835938 C 3.828125 7.28125 4.191406 7.636719 4.636719 7.636719 C 5.089844 7.636719 5.453125 7.269531 5.453125 6.816406 C 5.453125 6.367188 5.089844 6 4.636719 6 C 4.628906 6 4.625 6 4.621094 6 L 4.363281 6 L 4.363281 5.453125 C 4.363281 5.152344 4.609375 4.910156 4.910156 4.910156 Z M 7.089844 4.363281 C 6.488281 4.363281 6 4.851562 6 5.453125 L 6 6.835938 C 6.011719 7.28125 6.375 7.636719 6.816406 7.636719 C 7.269531 7.636719 7.636719 7.269531 7.636719 6.816406 C 7.636719 6.367188 7.269531 6 6.816406 6 C 6.8125 6 6.808594 6 6.800781 6 L 6.546875 6 L 6.546875 5.453125 C 6.546875 5.152344 6.789062 4.910156 7.089844 4.910156 Z M 7.089844 4.363281 "/>
</g>
</svg>
