<?xml version="1.0" encoding="UTF-8"?>
<svg xmlns="http://www.w3.org/2000/svg" xmlns:xlink="http://www.w3.org/1999/xlink" width="12pt" height="12pt" viewBox="0 0 12 12" version="1.1">
<g id="surface1">
<path style=" stroke:none;fill-rule:nonzero;fill:rgb(36.078431%,38.039216%,42.352941%);fill-opacity:1;" d="M 6.628906 2.183594 C 6.378906 2.183594 6.164062 2.347656 6.101562 2.585938 L 5.066406 6.445312 L 4.652344 5.726562 C 4.554688 5.558594 4.375 5.453125 4.179688 5.453125 L 2.726562 5.453125 C 2.425781 5.453125 2.183594 5.699219 2.183594 6 L 2.183594 6.546875 C 2.183594 6.847656 2.425781 7.089844 2.726562 7.089844 L 3.550781 7.089844 L 4.96875 9.546875 C 5.078125 9.738281 5.292969 9.84375 5.511719 9.8125 C 5.730469 9.785156 5.910156 9.628906 5.96875 9.414062 L 7.464844 3.816406 L 9.273438 3.816406 C 9.574219 3.816406 9.820312 3.574219 9.820312 3.273438 L 9.820312 2.726562 C 9.820312 2.425781 9.574219 2.183594 9.273438 2.183594 Z M 6.628906 2.183594 "/>
</g>
</svg>
