<?xml version="1.0" encoding="UTF-8"?>
<svg xmlns="http://www.w3.org/2000/svg" xmlns:xlink="http://www.w3.org/1999/xlink" width="12pt" height="12pt" viewBox="0 0 12 12" version="1.1">
<g id="surface1">
<path style=" stroke:none;fill-rule:nonzero;fill:rgb(36.078431%,38.039216%,42.352941%);fill-opacity:1;" d="M 7.089844 2.726562 L 8.453125 4.363281 L 9.816406 2.726562 Z M 6.546875 3.273438 L 6.546875 9.273438 L 7.089844 9.273438 L 7.089844 8.851562 C 7.390625 9.121094 7.777344 9.273438 8.183594 9.273438 C 9.085938 9.273438 9.816406 8.539062 9.816406 7.636719 C 9.816406 6.734375 9.085938 6 8.183594 6 C 7.777344 6 7.390625 6.148438 7.089844 6.417969 L 7.089844 3.273438 Z M 3.816406 6 C 2.914062 6 2.183594 6.734375 2.183594 7.636719 C 2.183594 8.539062 2.914062 9.273438 3.816406 9.273438 C 4.222656 9.273438 4.609375 9.125 4.910156 8.855469 L 4.910156 9.273438 L 5.453125 9.273438 L 5.453125 6 L 4.910156 6 L 4.910156 6.417969 C 4.609375 6.148438 4.222656 6 3.816406 6 Z M 3.816406 6.546875 C 4.421875 6.546875 4.910156 7.035156 4.910156 7.636719 C 4.910156 8.238281 4.421875 8.726562 3.816406 8.726562 C 3.214844 8.726562 2.726562 8.238281 2.726562 7.636719 C 2.726562 7.035156 3.214844 6.546875 3.816406 6.546875 Z M 8.183594 6.546875 C 8.785156 6.546875 9.273438 7.035156 9.273438 7.636719 C 9.273438 8.238281 8.785156 8.726562 8.183594 8.726562 C 7.578125 8.726562 7.089844 8.238281 7.089844 7.636719 C 7.089844 7.035156 7.578125 6.546875 8.183594 6.546875 Z M 8.183594 6.546875 "/>
</g>
</svg>
