<?xml version="1.0" encoding="UTF-8"?>
<svg xmlns="http://www.w3.org/2000/svg" xmlns:xlink="http://www.w3.org/1999/xlink" width="12pt" height="12pt" viewBox="0 0 12 12" version="1.1">
<g id="surface1">
<path style=" stroke:none;fill-rule:nonzero;fill:rgb(36.078431%,38.039216%,42.352941%);fill-opacity:1;" d="M 2.183594 2.171875 L 2.183594 4.898438 L 4.910156 4.898438 L 4.910156 3.808594 L 7.089844 3.808594 L 7.089844 4.898438 L 9.816406 4.898438 L 9.816406 2.171875 L 7.089844 2.171875 L 7.089844 3.261719 L 4.910156 3.261719 L 4.910156 2.171875 Z M 4.910156 5.445312 L 6 7.082031 L 7.089844 5.445312 Z M 2.183594 7.082031 L 2.183594 9.808594 L 4.910156 9.808594 L 4.910156 8.714844 L 5.453125 8.714844 L 5.453125 8.171875 L 4.910156 8.171875 L 4.910156 7.082031 Z M 7.089844 7.082031 L 7.089844 8.171875 L 6.546875 8.171875 L 6.546875 8.714844 L 7.089844 8.714844 L 7.089844 9.808594 L 9.816406 9.808594 L 9.816406 7.082031 Z M 7.089844 7.082031 "/>
</g>
</svg>
