<?xml version="1.0" encoding="UTF-8"?>
<svg xmlns="http://www.w3.org/2000/svg" xmlns:xlink="http://www.w3.org/1999/xlink" width="12pt" height="12pt" viewBox="0 0 12 12" version="1.1">
<g id="surface1">
<path style=" stroke:none;fill-rule:nonzero;fill:rgb(36.078431%,38.039216%,42.352941%);fill-opacity:1;" d="M 3.617188 2.726562 L 2.183594 6.546875 L 2.628906 6.546875 L 3.089844 5.335938 L 4.570312 5.335938 L 5.015625 6.546875 L 5.457031 6.546875 L 4.058594 2.726562 Z M 7.09375 2.726562 L 7.09375 7.636719 L 7.640625 7.636719 L 7.640625 2.726562 Z M 8.730469 2.726562 L 8.730469 7.636719 L 9.277344 7.636719 L 9.277344 2.726562 Z M 3.839844 3.1875 C 3.875 3.316406 4.078125 3.90625 4.433594 4.960938 L 3.226562 4.960938 Z M 2.730469 7.089844 L 2.730469 7.636719 L 3.277344 7.636719 L 3.277344 7.089844 Z M 4.367188 7.089844 L 4.367188 7.636719 L 4.914062 7.636719 L 4.914062 7.089844 Z M 2.730469 8.183594 L 3.820312 9.273438 L 4.914062 8.183594 Z M 7.09375 8.183594 L 8.183594 9.273438 L 9.277344 8.183594 Z M 7.09375 8.183594 "/>
</g>
</svg>
