<?xml version="1.0" encoding="UTF-8"?>
<svg xmlns="http://www.w3.org/2000/svg" xmlns:xlink="http://www.w3.org/1999/xlink" width="12pt" height="12pt" viewBox="0 0 12 12" version="1.1">
<g id="surface1">
<path style=" stroke:none;fill-rule:nonzero;fill:rgb(36.078431%,38.039216%,42.352941%);fill-opacity:1;" d="M 4.089844 1.636719 C 3.035156 1.636719 2.183594 2.613281 2.183594 3.816406 L 2.183594 5.453125 C 2.183594 6.660156 3.035156 7.636719 4.089844 7.636719 C 5.144531 7.636719 6 6.660156 6 5.453125 L 6 3.816406 C 6 2.613281 5.144531 1.636719 4.089844 1.636719 Z M 8.453125 1.636719 C 7.398438 1.636719 6.546875 2.613281 6.546875 3.816406 L 6.546875 5.453125 C 6.546875 6.660156 7.398438 7.636719 8.453125 7.636719 C 9.507812 7.636719 10.363281 6.660156 10.363281 5.453125 L 10.363281 3.816406 C 10.363281 2.613281 9.507812 1.636719 8.453125 1.636719 Z M 4.089844 2.726562 C 4.542969 2.726562 4.910156 3.296875 4.910156 4 L 4.910156 5.273438 C 4.910156 5.976562 4.542969 6.546875 4.089844 6.546875 C 3.640625 6.546875 3.273438 5.976562 3.273438 5.273438 L 3.273438 4 C 3.273438 3.296875 3.640625 2.726562 4.089844 2.726562 Z M 8.453125 2.726562 C 8.90625 2.726562 9.273438 3.296875 9.273438 4 L 9.273438 5.273438 C 9.273438 5.976562 8.90625 6.546875 8.453125 6.546875 C 8.003906 6.546875 7.636719 5.976562 7.636719 5.273438 L 7.636719 4 C 7.636719 3.296875 8.003906 2.726562 8.453125 2.726562 Z M 1.636719 7.089844 L 1.636719 7.636719 L 2.183594 7.636719 L 2.183594 7.089844 Z M 8.183594 8.183594 L 8.183594 9 L 7.363281 9 L 7.363281 9.546875 L 8.183594 9.546875 L 8.183594 10.363281 L 8.726562 10.363281 L 8.726562 9.546875 L 9.546875 9.546875 L 9.546875 9 L 8.726562 9 L 8.726562 8.183594 Z M 8.183594 8.183594 "/>
</g>
</svg>
