<?xml version="1.0" encoding="UTF-8"?>
<svg xmlns="http://www.w3.org/2000/svg" xmlns:xlink="http://www.w3.org/1999/xlink" width="12pt" height="12pt" viewBox="0 0 12 12" version="1.1">
<g id="surface1">
<path style=" stroke:none;fill-rule:nonzero;fill:rgb(36.078431%,38.039216%,42.352941%);fill-opacity:1;" d="M 5.453125 2.183594 L 2.726562 9.816406 L 4.089844 9.816406 L 4.671875 8.183594 L 7.089844 8.183594 L 7.089844 6 L 7.984375 6 L 6.546875 2.183594 Z M 6 4.363281 L 6.953125 7.089844 L 5.046875 7.089844 Z M 7.636719 6.546875 L 7.636719 9.816406 L 9.273438 9.816406 C 9.878906 9.816406 10.363281 9.332031 10.363281 8.726562 C 10.363281 8.285156 10.101562 7.90625 9.722656 7.738281 C 9.78125 7.625 9.816406 7.5 9.816406 7.363281 C 9.816406 6.910156 9.453125 6.546875 9 6.546875 Z M 8.183594 7.089844 L 9 7.089844 C 9.152344 7.089844 9.273438 7.210938 9.273438 7.363281 C 9.273438 7.515625 9.152344 7.636719 9 7.636719 L 8.183594 7.636719 Z M 8.183594 8.183594 L 9.273438 8.183594 C 9.574219 8.183594 9.816406 8.425781 9.816406 8.726562 C 9.816406 9.03125 9.574219 9.273438 9.273438 9.273438 L 8.183594 9.273438 Z M 8.183594 8.183594 "/>
</g>
</svg>
