<?xml version="1.0" encoding="UTF-8"?>
<svg xmlns="http://www.w3.org/2000/svg" xmlns:xlink="http://www.w3.org/1999/xlink" width="12pt" height="12pt" viewBox="0 0 12 12" version="1.1">
<g id="surface1">
<path style=" stroke:none;fill-rule:nonzero;fill:rgb(36.078431%,38.039216%,42.352941%);fill-opacity:1;" d="M 2.183594 2.183594 L 2.183594 9.816406 L 9.816406 9.816406 L 9.816406 2.183594 Z M 3.273438 3.273438 L 8.726562 3.273438 L 8.726562 8.726562 L 3.273438 8.726562 Z M 3.828125 3.816406 C 3.824219 3.816406 3.816406 3.824219 3.816406 3.828125 L 3.816406 4.351562 C 3.816406 4.359375 3.824219 4.363281 3.828125 4.363281 L 8.171875 4.363281 C 8.175781 4.363281 8.183594 4.359375 8.183594 4.351562 L 8.183594 3.828125 C 8.183594 3.824219 8.175781 3.816406 8.171875 3.816406 Z M 3.828125 5.453125 C 3.824219 5.453125 3.816406 5.460938 3.816406 5.464844 L 3.816406 5.988281 C 3.816406 5.996094 3.824219 6 3.828125 6 L 8.171875 6 C 8.175781 6 8.183594 5.996094 8.183594 5.988281 L 8.183594 5.464844 C 8.183594 5.460938 8.175781 5.453125 8.171875 5.453125 Z M 3.828125 6.980469 C 3.824219 6.980469 3.816406 6.988281 3.816406 6.992188 L 3.816406 7.515625 C 3.816406 7.523438 3.824219 7.527344 3.828125 7.527344 L 8.171875 7.527344 C 8.175781 7.527344 8.183594 7.523438 8.183594 7.515625 L 8.183594 6.992188 C 8.183594 6.988281 8.175781 6.980469 8.171875 6.980469 Z M 3.828125 6.980469 "/>
</g>
</svg>
