<?xml version="1.0" encoding="UTF-8"?>
<svg xmlns="http://www.w3.org/2000/svg" xmlns:xlink="http://www.w3.org/1999/xlink" width="12pt" height="12pt" viewBox="0 0 12 12" version="1.1">
<g id="surface1">
<path style=" stroke:none;fill-rule:nonzero;fill:rgb(36.078431%,38.039216%,42.352941%);fill-opacity:1;" d="M 5.046875 2.183594 L 4.960938 3.1875 C 4.640625 3.304688 4.347656 3.476562 4.085938 3.695312 L 3.171875 3.265625 L 2.214844 4.917969 L 3.046875 5.492188 C 3.015625 5.660156 3 5.832031 3 6 C 3 6.171875 3.015625 6.339844 3.042969 6.507812 L 2.214844 7.082031 L 3.171875 8.734375 L 4.082031 8.304688 C 4.34375 8.523438 4.640625 8.695312 4.960938 8.808594 L 5.042969 9.820312 L 6.953125 9.820312 L 7.035156 8.8125 C 7.355469 8.695312 7.652344 8.523438 7.914062 8.304688 L 8.828125 8.738281 L 9.78125 7.082031 L 8.953125 6.507812 C 8.980469 6.339844 8.996094 6.171875 8.996094 6 C 8.996094 5.832031 8.984375 5.660156 8.953125 5.492188 L 9.78125 4.917969 L 8.828125 3.265625 L 7.914062 3.695312 C 7.652344 3.476562 7.355469 3.308594 7.035156 3.191406 L 6.953125 2.183594 Z M 6 4.910156 C 6.601562 4.910156 7.089844 5.398438 7.089844 6 C 7.089844 6.601562 6.601562 7.089844 6 7.089844 C 5.398438 7.089844 4.910156 6.601562 4.910156 6 C 4.910156 5.398438 5.398438 4.910156 6 4.910156 Z M 6 4.910156 "/>
</g>
</svg>
