<?xml version="1.0" encoding="UTF-8"?>
<svg xmlns="http://www.w3.org/2000/svg" xmlns:xlink="http://www.w3.org/1999/xlink" width="12pt" height="12pt" viewBox="0 0 12 12" version="1.1">
<g id="surface1">
<path style=" stroke:none;fill-rule:nonzero;fill:rgb(36.078431%,38.039216%,42.352941%);fill-opacity:1;" d="M 4.363281 2.742188 L 2.183594 3.289062 L 4.910156 3.835938 L 7.089844 3.289062 Z M 8.726562 2.742188 L 8.183594 3.289062 L 7.636719 3.835938 L 8.726562 4.925781 L 8.726562 4.222656 C 9.066406 4.738281 9.273438 5.351562 9.273438 6.015625 C 9.273438 7.828125 7.8125 8.742188 6 8.742188 L 6 9.289062 C 8.117188 9.289062 9.816406 8.132812 9.816406 6.015625 C 9.816406 4.976562 9.398438 4.039062 8.726562 3.351562 Z M 2.183594 3.835938 L 2.183594 6.5625 L 4.363281 7.105469 L 4.363281 4.378906 Z M 7.089844 3.835938 L 4.910156 4.378906 L 4.910156 7.105469 L 7.089844 6.5625 Z M 7.089844 3.835938 "/>
</g>
</svg>
