<?xml version="1.0" encoding="UTF-8"?>
<svg xmlns="http://www.w3.org/2000/svg" xmlns:xlink="http://www.w3.org/1999/xlink" width="12pt" height="12pt" viewBox="0 0 12 12" version="1.1">
<g id="surface1">
<path style=" stroke:none;fill-rule:nonzero;fill:rgb(36.078431%,38.039216%,42.352941%);fill-opacity:1;" d="M 2.726562 2.183594 L 2.726562 2.730469 L 2.183594 2.730469 L 2.183594 3.820312 L 2.726562 3.820312 L 2.726562 5.457031 L 2.183594 5.457031 L 2.183594 6.546875 L 2.726562 6.546875 L 2.726562 8.183594 L 2.183594 8.183594 L 2.183594 9.273438 L 2.726562 9.273438 L 2.726562 9.820312 L 3.816406 9.820312 L 3.816406 9.273438 L 5.453125 9.273438 L 5.453125 9.820312 L 6.546875 9.820312 L 6.546875 9.273438 L 8.183594 9.273438 L 8.183594 9.820312 L 9.273438 9.820312 L 9.273438 9.273438 L 9.816406 9.273438 L 9.816406 8.183594 L 9.273438 8.183594 L 9.273438 6.546875 L 9.816406 6.546875 L 9.816406 5.457031 L 9.273438 5.457031 L 9.273438 3.820312 L 9.816406 3.820312 L 9.816406 2.730469 L 9.273438 2.730469 L 9.273438 2.183594 L 8.183594 2.183594 L 8.183594 2.730469 L 6.546875 2.730469 L 6.546875 2.183594 L 5.453125 2.183594 L 5.453125 2.730469 L 3.816406 2.730469 L 3.816406 2.183594 Z M 3.816406 3.820312 L 5.453125 3.820312 L 5.453125 5.457031 L 3.816406 5.457031 Z M 6.546875 3.820312 L 8.183594 3.820312 L 8.183594 5.457031 L 6.546875 5.457031 Z M 3.816406 6.546875 L 5.453125 6.546875 L 5.453125 8.183594 L 3.816406 8.183594 Z M 6.546875 6.546875 L 8.183594 6.546875 L 8.183594 8.183594 L 6.546875 8.183594 Z M 6.546875 6.546875 "/>
</g>
</svg>
