<?xml version="1.0" encoding="UTF-8"?>
<svg xmlns="http://www.w3.org/2000/svg" xmlns:xlink="http://www.w3.org/1999/xlink" width="12pt" height="12pt" viewBox="0 0 12 12" version="1.1">
<g id="surface1">
<path style=" stroke:none;fill-rule:nonzero;fill:rgb(36.078431%,38.039216%,42.352941%);fill-opacity:1;" d="M 7.636719 3.808594 C 7.492188 3.808594 7.355469 3.867188 7.253906 3.96875 L 6.003906 5.21875 L 4.757812 3.972656 C 4.753906 3.972656 4.753906 3.96875 4.75 3.96875 C 4.648438 3.867188 4.511719 3.8125 4.367188 3.8125 L 4.363281 3.816406 C 4.0625 3.816406 3.816406 4.0625 3.816406 4.363281 C 3.816406 4.507812 3.875 4.648438 3.976562 4.75 L 5.230469 6 L 3.976562 7.25 C 3.878906 7.351562 3.820312 7.488281 3.820312 7.632812 C 3.820312 7.933594 4.066406 8.175781 4.367188 8.175781 C 4.511719 8.175781 4.648438 8.121094 4.75 8.019531 L 6.003906 6.765625 L 7.246094 8.011719 C 7.351562 8.117188 7.492188 8.175781 7.636719 8.175781 C 7.941406 8.175781 8.183594 7.933594 8.183594 7.632812 C 8.183594 7.488281 8.125 7.347656 8.023438 7.246094 L 6.769531 5.992188 L 8.015625 4.746094 C 8.121094 4.644531 8.183594 4.503906 8.183594 4.355469 C 8.183594 4.054688 7.941406 3.808594 7.636719 3.808594 Z M 7.636719 3.808594 "/>
</g>
</svg>
