<?xml version="1.0" encoding="UTF-8"?>
<svg xmlns="http://www.w3.org/2000/svg" xmlns:xlink="http://www.w3.org/1999/xlink" width="12pt" height="12pt" viewBox="0 0 12 12" version="1.1">
<g id="surface1">
<path style=" stroke:none;fill-rule:nonzero;fill:rgb(36.078431%,38.039216%,42.352941%);fill-opacity:1;" d="M 6 2.179688 C 3.890625 2.179688 2.183594 3.890625 2.183594 5.996094 C 2.183594 8.105469 3.890625 9.816406 6 9.816406 C 8.109375 9.816406 9.816406 8.105469 9.816406 5.996094 C 9.816406 3.890625 8.109375 2.179688 6 2.179688 Z M 5.726562 3.238281 C 5.765625 3.234375 5.808594 3.238281 5.847656 3.238281 C 5.851562 3.253906 5.820312 3.316406 5.777344 3.40625 C 5.511719 3.984375 5.5 4.664062 5.746094 5.027344 C 5.789062 5.09375 5.828125 5.15625 5.828125 5.164062 C 5.828125 5.171875 5.78125 5.179688 5.726562 5.179688 C 5.601562 5.179688 5.480469 5.101562 5.234375 4.90625 C 5.125 4.820312 4.980469 4.746094 4.925781 4.738281 C 4.839844 4.71875 4.816406 4.726562 4.703125 4.839844 C 4.601562 4.941406 4.566406 5 4.566406 5.09375 C 4.566406 5.457031 4.996094 5.742188 5.796875 5.914062 C 6.878906 6.140625 7.144531 6.347656 7.175781 6.917969 C 7.214844 7.632812 6.832031 8.171875 6 8.589844 C 5.902344 8.636719 5.835938 8.65625 5.796875 8.675781 C 5.777344 8.671875 5.761719 8.675781 5.746094 8.675781 C 5.738281 8.652344 5.726562 8.601562 5.726562 8.503906 C 5.726562 8.125 5.578125 7.734375 5.351562 7.515625 C 5.292969 7.457031 5.121094 7.332031 4.976562 7.242188 C 4.832031 7.152344 4.6875 7.046875 4.652344 7.003906 C 4.597656 6.929688 4.59375 6.882812 4.636719 6.746094 C 4.710938 6.5 4.800781 6.359375 4.976562 6.203125 C 5.070312 6.121094 5.160156 6.050781 5.183594 6.050781 C 5.203125 6.046875 5.066406 6.007812 4.859375 5.964844 C 4.652344 5.921875 4.347656 5.832031 4.191406 5.777344 C 3.90625 5.671875 3.523438 5.457031 3.375 5.300781 C 3.367188 5.292969 3.363281 5.289062 3.359375 5.28125 C 3.570312 4.441406 4.160156 3.753906 4.941406 3.425781 C 5.105469 3.355469 5.277344 3.308594 5.453125 3.269531 C 5.542969 3.253906 5.636719 3.246094 5.726562 3.238281 Z M 8.285156 4.515625 C 8.347656 4.554688 8.589844 5.078125 8.660156 5.332031 C 8.75 5.664062 8.742188 6.234375 8.660156 6.558594 C 8.628906 6.683594 8.585938 6.800781 8.574219 6.816406 C 8.558594 6.832031 8.511719 6.746094 8.453125 6.644531 C 8.398438 6.542969 8.214844 6.328125 8.0625 6.167969 C 7.625 5.707031 7.554688 5.464844 7.738281 5.09375 C 7.832031 4.90625 8.234375 4.484375 8.285156 4.515625 Z M 8.285156 4.515625 "/>
</g>
</svg>
