<?xml version="1.0" encoding="UTF-8"?>
<svg xmlns="http://www.w3.org/2000/svg" xmlns:xlink="http://www.w3.org/1999/xlink" width="12pt" height="12pt" viewBox="0 0 12 12" version="1.1">
<g id="surface1">
<path style=" stroke:none;fill-rule:nonzero;fill:rgb(36.078431%,38.039216%,42.352941%);fill-opacity:1;" d="M 6.546875 2.726562 C 6.046875 2.726562 5.558594 2.886719 5.261719 3.253906 C 4.964844 3.625 4.878906 4.074219 4.84375 4.597656 C 4.824219 4.855469 4.816406 5.140625 4.820312 5.453125 L 4.363281 5.453125 C 4.0625 5.453125 3.816406 5.699219 3.816406 6 C 3.816406 6.300781 4.0625 6.546875 4.363281 6.546875 L 4.847656 6.546875 C 4.875 7.308594 4.910156 8.207031 4.910156 9.273438 C 4.90625 9.46875 5.007812 9.652344 5.179688 9.75 C 5.347656 9.851562 5.558594 9.851562 5.730469 9.75 C 5.898438 9.652344 6.003906 9.46875 6 9.273438 C 6 8.203125 5.96875 7.296875 5.945312 6.546875 L 6.546875 6.546875 C 6.847656 6.546875 7.089844 6.300781 7.089844 6 C 7.089844 5.699219 6.847656 5.453125 6.546875 5.453125 L 5.914062 5.453125 C 5.914062 5.152344 5.914062 4.894531 5.929688 4.675781 C 5.960938 4.246094 6.050781 4.015625 6.109375 3.941406 C 6.171875 3.867188 6.226562 3.820312 6.546875 3.816406 C 6.742188 3.820312 6.925781 3.71875 7.023438 3.546875 C 7.125 3.378906 7.125 3.167969 7.023438 2.996094 C 6.925781 2.828125 6.742188 2.722656 6.546875 2.726562 Z M 6.546875 2.726562 "/>
</g>
</svg>
