<?xml version="1.0" encoding="UTF-8"?>
<svg xmlns="http://www.w3.org/2000/svg" xmlns:xlink="http://www.w3.org/1999/xlink" width="12pt" height="12pt" viewBox="0 0 12 12" version="1.1">
<g id="surface1">
<path style=" stroke:none;fill-rule:nonzero;fill:rgb(36.078431%,38.039216%,42.352941%);fill-opacity:1;" d="M 6 1.636719 L 5.390625 3.347656 C 5.089844 3.414062 4.808594 3.535156 4.554688 3.695312 L 2.914062 2.914062 L 3.695312 4.554688 C 3.535156 4.808594 3.414062 5.089844 3.347656 5.390625 L 1.636719 6 L 3.347656 6.609375 C 3.414062 6.910156 3.535156 7.191406 3.695312 7.445312 L 2.914062 9.085938 L 4.554688 8.304688 C 4.8125 8.464844 5.089844 8.585938 5.390625 8.652344 L 6 10.363281 L 6.609375 8.652344 C 6.910156 8.585938 7.191406 8.464844 7.441406 8.304688 L 9.085938 9.085938 L 8.304688 7.441406 C 8.464844 7.191406 8.585938 6.910156 8.652344 6.609375 L 10.363281 6 L 8.652344 5.390625 C 8.585938 5.089844 8.464844 4.8125 8.304688 4.554688 L 9.085938 2.914062 L 7.445312 3.695312 C 7.191406 3.535156 6.910156 3.414062 6.609375 3.347656 Z M 4.910156 4.910156 C 5.210938 4.910156 5.453125 5.152344 5.453125 5.453125 C 5.453125 5.753906 5.210938 6 4.910156 6 C 4.609375 6 4.363281 5.753906 4.363281 5.453125 C 4.363281 5.152344 4.609375 4.910156 4.910156 4.910156 Z M 7.089844 4.910156 C 7.390625 4.910156 7.636719 5.152344 7.636719 5.453125 C 7.636719 5.753906 7.390625 6 7.089844 6 C 6.789062 6 6.546875 5.753906 6.546875 5.453125 C 6.546875 5.152344 6.789062 4.910156 7.089844 4.910156 Z M 7.363281 6.816406 C 7.480469 6.8125 7.585938 6.886719 7.625 7 C 7.664062 7.109375 7.625 7.230469 7.535156 7.304688 C 7.535156 7.304688 6.828125 7.90625 6 7.910156 C 5.175781 7.910156 4.46875 7.324219 4.46875 7.324219 C 4.386719 7.265625 4.347656 7.167969 4.359375 7.066406 C 4.371094 6.96875 4.4375 6.886719 4.527344 6.847656 C 4.621094 6.8125 4.726562 6.828125 4.804688 6.894531 C 4.804688 6.894531 5.460938 7.367188 6 7.363281 C 6.539062 7.363281 7.195312 6.878906 7.195312 6.878906 C 7.242188 6.839844 7.300781 6.816406 7.363281 6.816406 Z M 7.363281 6.816406 "/>
</g>
</svg>
