<?xml version="1.0" encoding="UTF-8"?>
<svg xmlns="http://www.w3.org/2000/svg" xmlns:xlink="http://www.w3.org/1999/xlink" width="12pt" height="12pt" viewBox="0 0 12 12" version="1.1">
<g id="surface1">
<path style=" stroke:none;fill-rule:nonzero;fill:rgb(36.078431%,38.039216%,42.352941%);fill-opacity:1;" d="M 5.453125 1.65625 C 3.640625 1.65625 2.183594 3.117188 2.183594 4.929688 L 2.183594 7.113281 L 1.636719 9.292969 L 3.816406 8.203125 L 5.453125 8.203125 C 5.902344 8.203125 6.324219 8.113281 6.710938 7.953125 C 6.640625 7.785156 6.601562 7.601562 6.574219 7.414062 C 6.234375 7.566406 5.855469 7.65625 5.453125 7.65625 L 2.726562 7.65625 L 2.726562 4.929688 C 2.726562 3.421875 3.945312 2.203125 5.453125 2.203125 C 6.964844 2.203125 8.183594 3.421875 8.183594 4.929688 C 8.183594 4.957031 8.179688 4.980469 8.175781 5.007812 C 8.355469 4.960938 8.535156 4.929688 8.726562 4.929688 C 8.726562 3.117188 7.269531 1.65625 5.453125 1.65625 Z M 8.726562 5.476562 C 7.820312 5.476562 7.089844 6.207031 7.089844 7.113281 C 7.089844 7.644531 7.347656 8.113281 7.742188 8.410156 L 8.726562 10.375 L 9.714844 8.402344 C 10.105469 8.074219 10.363281 7.582031 10.363281 7.09375 C 10.363281 6.183594 9.632812 5.457031 8.726562 5.457031 Z M 8.726562 5.476562 "/>
<path style=" stroke:none;fill-rule:nonzero;fill:rgb(36.078431%,38.039216%,42.352941%);fill-opacity:1;" d="M 1.636719 8.148438 L 1.636719 8.160156 L 1.644531 8.160156 C 1.644531 8.15625 1.640625 8.152344 1.636719 8.148438 Z M 1.636719 8.148438 "/>
</g>
</svg>
