<?xml version="1.0" encoding="UTF-8"?>
<svg xmlns="http://www.w3.org/2000/svg" xmlns:xlink="http://www.w3.org/1999/xlink" width="12pt" height="12pt" viewBox="0 0 12 12" version="1.1">
<g id="surface1">
<path style=" stroke:none;fill-rule:nonzero;fill:rgb(36.078431%,38.039216%,42.352941%);fill-opacity:1;" d="M 6 2.183594 C 4.625 2.183594 3.507812 3.296875 3.507812 4.667969 C 3.507812 4.910156 3.542969 5.144531 3.605469 5.367188 C 3.292969 5.617188 2.074219 6.707031 2.574219 8.121094 C 2.574219 8.121094 3 8.085938 3.347656 7.445312 C 3.453125 7.855469 3.652344 8.226562 3.917969 8.539062 C 3.527344 8.65625 3.257812 8.878906 3.257812 9.136719 C 3.257812 9.511719 3.828125 9.816406 4.527344 9.816406 C 5.003906 9.816406 5.417969 9.679688 5.636719 9.472656 C 5.753906 9.488281 5.875 9.496094 6 9.496094 C 6.125 9.496094 6.246094 9.488281 6.363281 9.472656 C 6.582031 9.679688 6.996094 9.816406 7.472656 9.816406 C 8.171875 9.816406 8.742188 9.511719 8.742188 9.136719 C 8.742188 8.878906 8.476562 8.65625 8.082031 8.539062 C 8.351562 8.226562 8.546875 7.855469 8.652344 7.445312 C 9.003906 8.085938 9.425781 8.121094 9.425781 8.121094 C 9.929688 6.707031 8.707031 5.617188 8.394531 5.367188 C 8.460938 5.144531 8.496094 4.910156 8.496094 4.667969 C 8.496094 3.296875 7.378906 2.183594 6 2.183594 Z M 6 2.183594 "/>
</g>
</svg>
