<?xml version="1.0" encoding="UTF-8"?>
<svg xmlns="http://www.w3.org/2000/svg" xmlns:xlink="http://www.w3.org/1999/xlink" width="12pt" height="12pt" viewBox="0 0 12 12" version="1.1">
<g id="surface1">
<path style=" stroke:none;fill-rule:nonzero;fill:rgb(36.078431%,38.039216%,42.352941%);fill-opacity:1;" d="M 7.679688 2.183594 C 6.691406 2.183594 5.886719 3.042969 5.886719 4.109375 C 5.886719 4.261719 5.90625 4.40625 5.933594 4.550781 C 4.445312 4.46875 3.125 3.699219 2.242188 2.535156 C 2.089844 2.820312 2 3.152344 2 3.503906 C 2 4.171875 2.316406 4.761719 2.796875 5.109375 C 2.503906 5.097656 2.226562 5.011719 1.988281 4.867188 C 1.988281 4.875 1.988281 4.882812 1.988281 4.890625 C 1.988281 5.824219 2.605469 6.605469 3.421875 6.78125 C 3.273438 6.824219 3.113281 6.847656 2.949219 6.847656 C 2.835938 6.847656 2.722656 6.835938 2.613281 6.816406 C 2.84375 7.582031 3.503906 8.136719 4.285156 8.152344 C 3.675781 8.671875 2.902344 8.980469 2.0625 8.980469 C 1.917969 8.980469 1.777344 8.96875 1.636719 8.953125 C 2.429688 9.5 3.371094 9.816406 4.378906 9.816406 C 7.675781 9.816406 9.476562 6.878906 9.476562 4.332031 C 9.476562 4.25 9.472656 4.167969 9.472656 4.082031 C 9.820312 3.8125 10.125 3.472656 10.363281 3.085938 C 10.042969 3.238281 9.699219 3.34375 9.335938 3.390625 C 9.707031 3.148438 9.988281 2.773438 10.121094 2.324219 C 9.777344 2.542969 9.394531 2.703125 8.984375 2.789062 C 8.660156 2.414062 8.195312 2.183594 7.679688 2.183594 Z M 7.679688 2.183594 "/>
</g>
</svg>
