<?xml version="1.0" encoding="UTF-8"?>
<svg xmlns="http://www.w3.org/2000/svg" xmlns:xlink="http://www.w3.org/1999/xlink" width="12pt" height="12pt" viewBox="0 0 12 12" version="1.1">
<g id="surface1">
<path style=" stroke:none;fill-rule:nonzero;fill:rgb(36.078431%,38.039216%,42.352941%);fill-opacity:1;" d="M 6 1.636719 C 4.796875 1.636719 3.816406 2.613281 3.816406 3.816406 C 3.816406 5.023438 4.796875 6 6 6 C 7.203125 6 8.183594 5.023438 8.183594 3.816406 C 8.183594 2.613281 7.203125 1.636719 6 1.636719 Z M 6 6.539062 C 3.804688 6.539062 1.910156 8.183594 1.636719 10.363281 L 6.933594 10.363281 C 6.371094 9.914062 6 9.226562 6 8.453125 C 6 7.6875 6.363281 7.003906 6.917969 6.554688 C 6.515625 6.546875 6.101562 6.539062 6 6.539062 Z M 8.453125 6.546875 C 7.398438 6.546875 6.546875 7.398438 6.546875 8.453125 C 6.546875 9.507812 7.398438 10.363281 8.453125 10.363281 C 9.507812 10.363281 10.363281 9.507812 10.363281 8.453125 L 9.546875 9.136719 L 8.726562 9.816406 L 8.726562 8.726562 L 7.089844 8.726562 L 7.089844 8.183594 L 8.726562 8.183594 L 8.726562 7.089844 L 9.546875 7.773438 L 10.363281 8.453125 C 10.363281 7.398438 9.507812 6.546875 8.453125 6.546875 Z M 8.453125 6.546875 "/>
</g>
</svg>
