<?xml version="1.0" encoding="UTF-8"?>
<svg xmlns="http://www.w3.org/2000/svg" xmlns:xlink="http://www.w3.org/1999/xlink" width="12pt" height="12pt" viewBox="0 0 12 12" version="1.1">
<g id="surface1">
<path style=" stroke:none;fill-rule:nonzero;fill:rgb(36.078431%,38.039216%,42.352941%);fill-opacity:1;" d="M 6 2.183594 C 3.890625 2.183594 2.183594 3.894531 2.183594 6.003906 C 2.183594 8.109375 3.890625 9.820312 6 9.820312 C 8.109375 9.820312 9.816406 8.109375 9.816406 6.003906 C 9.816406 3.894531 8.109375 2.183594 6 2.183594 Z M 5.289062 3.820312 C 5.566406 3.824219 5.808594 3.832031 5.863281 3.839844 L 5.835938 4.085938 C 5.722656 4.121094 5.175781 4.132812 5.03125 4.179688 C 5.402344 4.875 5.984375 5.765625 6.175781 6.113281 C 6.28125 5.921875 7.195312 5.128906 7.226562 4.851562 C 7.082031 4.816406 6.613281 4.730469 6.535156 4.730469 L 6.492188 4.417969 C 6.621094 4.390625 7.296875 4.417969 7.636719 4.417969 C 7.925781 4.417969 8.550781 4.417969 8.726562 4.4375 L 8.566406 4.730469 C 8.46875 4.742188 8.074219 4.855469 7.941406 4.890625 C 7.800781 4.9375 6.5 6.203125 6.414062 6.511719 C 6.398438 6.621094 6.386719 6.789062 6.386719 6.941406 L 6.378906 7.195312 C 6.378906 7.371094 6.417969 7.660156 6.4375 7.816406 C 6.523438 7.839844 7.140625 7.820312 7.253906 7.84375 L 7.238281 8.164062 C 7.128906 8.15625 6.34375 8.15625 5.894531 8.15625 C 5.667969 8.15625 4.9375 8.191406 4.710938 8.179688 L 4.753906 7.875 C 4.875 7.863281 5.386719 7.902344 5.5 7.753906 C 5.554688 7.679688 5.539062 7.601562 5.539062 7.171875 L 5.539062 6.964844 C 5.539062 6.871094 5.539062 6.691406 5.519531 6.523438 C 5.472656 6.34375 4.328125 4.542969 4.03125 4.257812 C 3.945312 4.222656 3.410156 4.152344 3.277344 4.117188 L 3.273438 3.84375 C 3.339844 3.800781 3.933594 3.851562 4.511719 3.824219 C 4.699219 3.816406 5.011719 3.816406 5.289062 3.820312 Z M 5.289062 3.820312 "/>
</g>
</svg>
