<?xml version="1.0" encoding="UTF-8"?>
<svg xmlns="http://www.w3.org/2000/svg" xmlns:xlink="http://www.w3.org/1999/xlink" width="12pt" height="12pt" viewBox="0 0 12 12" version="1.1">
<defs>
<filter id="alpha" filterUnits="objectBoundingBox" x="0%" y="0%" width="100%" height="100%">
  <feColorMatrix type="matrix" in="SourceGraphic" values="0 0 0 0 1 0 0 0 0 1 0 0 0 0 1 0 0 0 1 0"/>
</filter>
<mask id="mask0">
  <g filter="url(#alpha)">
<rect x="0" y="0" width="12" height="12" style="fill:rgb(0%,0%,0%);fill-opacity:0.301961;stroke:none;"/>
  </g>
</mask>
<clipPath id="clip1">
  <rect width="12" height="12"/>
</clipPath>
<g id="surface6" clip-path="url(#clip1)">
<path style=" stroke:none;fill-rule:nonzero;fill:rgb(36.078431%,38.039216%,42.352941%);fill-opacity:1;" d="M 9.273438 2.945312 C 9.25 3.492188 9.148438 4.054688 8.792969 4.566406 C 8.339844 5.21875 7.5 5.734375 6.042969 6.027344 C 4.65625 6.304688 3.933594 6.839844 3.488281 7.476562 C 3.402344 7.59375 3.339844 7.722656 3.273438 7.847656 L 3.273438 8.726562 L 9.273438 8.726562 Z M 9.273438 2.945312 "/>
</g>
</defs>
<g id="surface1">
<path style=" stroke:none;fill-rule:nonzero;fill:rgb(36.078431%,38.039216%,42.352941%);fill-opacity:1;" d="M 2.183594 2.183594 L 2.183594 9.816406 L 2.394531 9.816406 C 2.4375 9.828125 2.480469 9.828125 2.519531 9.816406 L 9.816406 9.816406 L 9.816406 8.726562 L 3.273438 8.726562 L 3.273438 7.847656 C 3.339844 7.722656 3.402344 7.59375 3.488281 7.476562 C 3.933594 6.839844 4.65625 6.304688 6.042969 6.027344 C 7.5 5.734375 8.339844 5.21875 8.792969 4.566406 C 9.246094 3.914062 9.289062 3.167969 9.28125 2.492188 C 9.28125 2.421875 9.25 2.351562 9.199219 2.300781 C 9.144531 2.246094 9.074219 2.21875 9 2.222656 C 8.847656 2.226562 8.730469 2.351562 8.734375 2.503906 C 8.746094 3.148438 8.695312 3.75 8.34375 4.253906 C 7.992188 4.757812 7.3125 5.214844 5.933594 5.492188 C 4.648438 5.75 3.816406 6.25 3.273438 6.867188 L 3.273438 2.183594 Z M 2.183594 2.183594 "/>
<use xlink:href="#surface6" mask="url(#mask0)"/>
</g>
</svg>
