<?xml version="1.0" encoding="UTF-8"?>
<svg xmlns="http://www.w3.org/2000/svg" xmlns:xlink="http://www.w3.org/1999/xlink" width="12pt" height="12pt" viewBox="0 0 12 12" version="1.1">
<g id="surface1">
<path style=" stroke:none;fill-rule:nonzero;fill:rgb(36.078431%,38.039216%,42.352941%);fill-opacity:1;" d="M 2.183594 2.183594 L 2.183594 3.273438 L 4.363281 3.273438 L 4.363281 4.363281 L 5.453125 4.363281 L 5.453125 2.183594 Z M 5.453125 4.363281 L 5.453125 5.453125 L 7.636719 5.453125 L 7.636719 4.363281 Z M 7.636719 4.363281 L 8.726562 4.363281 L 8.726562 3.273438 L 7.636719 3.273438 Z M 7.636719 3.273438 L 7.636719 2.183594 L 6.546875 2.183594 L 6.546875 3.273438 Z M 5.453125 5.453125 L 4.363281 5.453125 L 4.363281 6.546875 L 5.453125 6.546875 Z M 4.363281 6.546875 L 3.273438 6.546875 L 3.273438 7.636719 L 4.363281 7.636719 Z M 3.273438 6.546875 L 3.273438 5.453125 L 2.183594 5.453125 L 2.183594 6.546875 Z M 3.273438 5.453125 L 4.363281 5.453125 L 4.363281 4.363281 L 3.273438 4.363281 Z M 7.636719 6.546875 L 7.636719 7.636719 L 8.726562 7.636719 L 8.726562 6.546875 Z M 8.726562 7.636719 L 8.726562 9.816406 L 9.816406 9.816406 L 9.816406 7.636719 Z M 5.453125 7.636719 L 5.453125 8.726562 L 6.546875 8.726562 L 6.546875 7.636719 Z M 6.546875 8.726562 L 6.546875 9.816406 L 7.636719 9.816406 L 7.636719 8.726562 Z M 3.273438 8.726562 L 3.273438 9.816406 L 4.363281 9.816406 L 4.363281 8.726562 Z M 3.273438 8.726562 "/>
</g>
</svg>
