<?xml version="1.0" encoding="UTF-8"?>
<svg xmlns="http://www.w3.org/2000/svg" xmlns:xlink="http://www.w3.org/1999/xlink" width="12pt" height="12pt" viewBox="0 0 12 12" version="1.1">
<g id="surface1">
<path style=" stroke:none;fill-rule:nonzero;fill:rgb(36.078431%,38.039216%,42.352941%);fill-opacity:1;" d="M 6 2.714844 C 5.5 2.71875 5.011719 2.875 4.714844 3.246094 C 4.417969 3.613281 4.332031 4.066406 4.296875 4.589844 C 4.277344 4.847656 4.273438 5.128906 4.273438 5.445312 L 3.816406 5.445312 C 3.515625 5.445312 3.273438 5.6875 3.273438 5.988281 C 3.273438 6.292969 3.515625 6.535156 3.816406 6.535156 L 4.304688 6.535156 C 4.328125 7.296875 4.363281 8.195312 4.363281 9.261719 C 4.359375 9.457031 4.464844 9.640625 4.632812 9.742188 C 4.804688 9.839844 5.015625 9.839844 5.183594 9.742188 C 5.355469 9.640625 5.457031 9.457031 5.453125 9.261719 C 5.453125 8.191406 5.425781 7.289062 5.398438 6.535156 L 6 6.535156 C 6.300781 6.535156 6.546875 6.292969 6.546875 5.988281 C 6.546875 5.6875 6.300781 5.445312 6 5.445312 L 5.371094 5.445312 C 5.367188 5.140625 5.371094 4.882812 5.386719 4.667969 C 5.417969 4.234375 5.503906 4.003906 5.5625 3.929688 C 5.625 3.855469 5.683594 3.808594 6 3.808594 C 6.199219 3.808594 6.378906 3.707031 6.480469 3.535156 C 6.578125 3.367188 6.578125 3.15625 6.480469 2.988281 C 6.378906 2.816406 6.195312 2.714844 6 2.714844 Z M 6.386719 7.492188 L 6 7.878906 L 6.769531 8.652344 L 6 9.421875 L 6.386719 9.808594 L 7.15625 9.035156 L 7.929688 9.808594 L 8.3125 9.421875 L 7.542969 8.652344 L 8.3125 7.878906 L 7.929688 7.492188 L 7.15625 8.265625 Z M 6.386719 7.492188 "/>
</g>
</svg>
