<?xml version="1.0" encoding="UTF-8"?>
<svg xmlns="http://www.w3.org/2000/svg" xmlns:xlink="http://www.w3.org/1999/xlink" width="12pt" height="12pt" viewBox="0 0 12 12" version="1.1">
<g id="surface1">
<path style=" stroke:none;fill-rule:nonzero;fill:rgb(36.078431%,38.039216%,42.352941%);fill-opacity:1;" d="M 2.726562 1.636719 C 2.121094 1.636719 1.636719 2.121094 1.636719 2.726562 L 1.636719 9.273438 C 1.636719 9.878906 2.121094 10.363281 2.726562 10.363281 L 9.273438 10.363281 C 9.878906 10.363281 10.363281 9.878906 10.363281 9.273438 L 10.363281 2.726562 C 10.363281 2.121094 9.878906 1.636719 9.273438 1.636719 Z M 3.664062 2.726562 L 8.335938 2.726562 C 8.855469 2.726562 9.273438 3.144531 9.273438 3.664062 L 9.273438 8.335938 C 9.273438 8.855469 8.855469 9.273438 8.335938 9.273438 L 3.664062 9.273438 C 3.144531 9.273438 2.726562 8.855469 2.726562 8.335938 L 2.726562 3.664062 C 2.726562 3.144531 3.144531 2.726562 3.664062 2.726562 Z M 5.3125 3.273438 L 5.253906 3.992188 C 5.023438 4.074219 4.808594 4.199219 4.621094 4.351562 L 3.960938 4.046875 L 3.273438 5.226562 L 3.871094 5.640625 C 3.851562 5.757812 3.839844 5.878906 3.839844 6 C 3.839844 6.121094 3.847656 6.242188 3.871094 6.363281 L 3.273438 6.773438 L 3.960938 7.953125 L 4.617188 7.648438 C 4.808594 7.800781 5.023438 7.921875 5.253906 8.007812 L 5.3125 8.726562 L 6.6875 8.726562 L 6.75 8.007812 C 6.980469 7.925781 7.191406 7.800781 7.378906 7.648438 L 8.039062 7.953125 L 8.726562 6.773438 L 8.128906 6.359375 C 8.152344 6.242188 8.160156 6.121094 8.164062 6 C 8.164062 5.878906 8.152344 5.757812 8.132812 5.636719 L 8.726562 5.226562 L 8.039062 4.046875 L 7.382812 4.351562 C 7.195312 4.199219 6.980469 4.078125 6.75 3.992188 L 6.6875 3.273438 Z M 6 5.222656 C 6.433594 5.222656 6.785156 5.570312 6.789062 6 C 6.785156 6.429688 6.433594 6.777344 6 6.777344 C 5.566406 6.777344 5.214844 6.429688 5.214844 6 C 5.214844 5.570312 5.566406 5.222656 6 5.222656 Z M 6 5.222656 "/>
</g>
</svg>
