<?xml version="1.0" encoding="UTF-8"?>
<svg xmlns="http://www.w3.org/2000/svg" xmlns:xlink="http://www.w3.org/1999/xlink" width="12pt" height="12pt" viewBox="0 0 12 12" version="1.1">
<g id="surface1">
<path style=" stroke:none;fill-rule:nonzero;fill:rgb(36.078431%,38.039216%,42.352941%);fill-opacity:1;" d="M 6.015625 2.214844 C 3.914062 2.214844 2.214844 3.914062 2.214844 6.015625 C 2.214844 8.117188 3.914062 9.816406 6.015625 9.816406 C 8.117188 9.816406 9.816406 8.117188 9.816406 6.015625 C 9.816406 3.914062 8.117188 2.214844 6.015625 2.214844 Z M 4.363281 4.367188 L 4.910156 4.367188 C 5.058594 4.367188 5.203125 4.421875 5.300781 4.519531 L 6 5.214844 L 6.699219 4.519531 C 6.796875 4.421875 6.9375 4.367188 7.09375 4.367188 L 7.636719 4.367188 L 7.636719 4.910156 C 7.636719 5.0625 7.582031 5.203125 7.484375 5.304688 L 6.785156 6 L 7.484375 6.699219 C 7.582031 6.800781 7.636719 6.941406 7.636719 7.09375 L 7.636719 7.636719 L 7.09375 7.636719 C 6.941406 7.636719 6.796875 7.582031 6.699219 7.484375 L 6 6.785156 L 5.300781 7.484375 C 5.203125 7.582031 5.0625 7.636719 4.910156 7.636719 L 4.363281 7.636719 L 4.363281 7.09375 C 4.363281 6.941406 4.417969 6.796875 4.515625 6.699219 L 5.214844 6 L 4.515625 5.300781 C 4.417969 5.203125 4.363281 5.0625 4.363281 4.910156 Z M 4.363281 4.367188 "/>
</g>
</svg>
