<?xml version="1.0" encoding="UTF-8"?>
<svg xmlns="http://www.w3.org/2000/svg" xmlns:xlink="http://www.w3.org/1999/xlink" width="12pt" height="12pt" viewBox="0 0 12 12" version="1.1">
<g id="surface1">
<path style=" stroke:none;fill-rule:nonzero;fill:rgb(36.078431%,38.039216%,42.352941%);fill-opacity:1;" d="M 5.453125 2.183594 C 5.152344 2.183594 4.910156 2.425781 4.910156 2.726562 L 4.910156 4.910156 L 2.726562 4.910156 C 2.425781 4.910156 2.183594 5.152344 2.183594 5.453125 L 2.183594 9.273438 C 2.183594 9.574219 2.425781 9.816406 2.726562 9.816406 L 9.273438 9.816406 C 9.574219 9.816406 9.816406 9.574219 9.816406 9.273438 L 9.816406 2.726562 C 9.816406 2.425781 9.574219 2.183594 9.273438 2.183594 Z M 7.636719 3.816406 L 8.183594 3.816406 L 8.183594 7.636719 L 6 7.636719 L 6 8.183594 L 4.363281 7.363281 L 6 6.546875 L 6 7.089844 L 7.636719 7.089844 Z M 7.636719 3.816406 "/>
</g>
</svg>
