<?xml version="1.0" encoding="UTF-8"?>
<svg xmlns="http://www.w3.org/2000/svg" xmlns:xlink="http://www.w3.org/1999/xlink" width="12pt" height="12pt" viewBox="0 0 12 12" version="1.1">
<g id="surface1">
<path style=" stroke:none;fill-rule:nonzero;fill:rgb(36.078431%,38.039216%,42.352941%);fill-opacity:1;" d="M 2.726562 2.726562 C 2.425781 2.726562 2.183594 2.972656 2.183594 3.273438 L 2.183594 3.816406 C 2.183594 4.121094 2.425781 4.363281 2.726562 4.363281 L 4.363281 4.363281 L 4.363281 7.636719 L 2.726562 7.636719 C 2.425781 7.636719 2.183594 7.878906 2.183594 8.183594 L 2.183594 8.726562 C 2.183594 9.027344 2.425781 9.273438 2.726562 9.273438 L 5.453125 9.273438 C 5.753906 9.273438 6 9.027344 6 8.726562 L 6 7.089844 L 7.089844 7.089844 L 7.089844 8.183594 L 9.816406 6 L 7.089844 3.816406 L 7.089844 4.910156 L 6 4.910156 L 6 3.273438 C 6 2.972656 5.753906 2.726562 5.453125 2.726562 Z M 2.726562 2.726562 "/>
</g>
</svg>
