<?xml version="1.0" encoding="UTF-8"?>
<svg xmlns="http://www.w3.org/2000/svg" xmlns:xlink="http://www.w3.org/1999/xlink" width="12pt" height="12pt" viewBox="0 0 12 12" version="1.1">
<g id="surface1">
<path style=" stroke:none;fill-rule:nonzero;fill:rgb(36.078431%,38.039216%,42.352941%);fill-opacity:1;" d="M 3.664062 1.535156 L 2.882812 2.3125 L 2.105469 2.3125 C 0.546875 2.3125 0.546875 3.871094 0.546875 3.871094 L 0.546875 9.328125 C 0.546875 10.886719 2.105469 10.886719 2.105469 10.886719 L 9.894531 10.886719 C 11.453125 10.886719 11.453125 9.328125 11.453125 9.328125 L 11.453125 3.871094 C 11.453125 2.3125 9.894531 2.3125 9.894531 2.3125 L 9.117188 2.3125 L 8.335938 1.535156 Z M 6 3.871094 C 7.289062 3.871094 8.335938 4.917969 8.335938 6.210938 C 8.335938 7.5 7.289062 8.546875 6 8.546875 C 4.710938 8.546875 3.664062 7.5 3.664062 6.210938 C 3.664062 4.917969 4.710938 3.871094 6 3.871094 Z M 6 3.871094 "/>
</g>
</svg>
