<?xml version="1.0" encoding="UTF-8"?>
<svg xmlns="http://www.w3.org/2000/svg" xmlns:xlink="http://www.w3.org/1999/xlink" width="12pt" height="12pt" viewBox="0 0 12 12" version="1.1">
<g id="surface1">
<path style=" stroke:none;fill-rule:nonzero;fill:rgb(36.078431%,38.039216%,42.352941%);fill-opacity:1;" d="M 3.765625 1.636719 C 2.257812 1.636719 1.636719 2.855469 1.636719 4.363281 L 1.636719 7.636719 C 1.636719 9.144531 2.257812 10.363281 3.765625 10.363281 C 5.269531 10.363281 5.726562 9.144531 5.726562 7.636719 L 5.726562 4.363281 C 5.726562 2.855469 5.269531 1.636719 3.765625 1.636719 Z M 3.765625 2.183594 C 4.96875 2.183594 5.183594 3.160156 5.183594 4.363281 L 5.183594 7.636719 C 5.183594 8.839844 4.96875 9.816406 3.765625 9.816406 C 2.558594 9.816406 2.183594 8.839844 2.183594 7.636719 L 2.183594 4.363281 C 2.183594 3.160156 2.558594 2.183594 3.765625 2.183594 Z M 9.816406 3.816406 L 9.816406 4.363281 L 10.363281 4.363281 L 10.363281 3.816406 Z M 6.546875 5.453125 L 6.546875 10.363281 L 7.089844 10.363281 L 7.089844 7.089844 C 7.089844 6.488281 7.578125 6 8.183594 6 C 8.785156 6 8.726562 6.488281 8.726562 7.089844 L 9.273438 7.089844 C 9.273438 6.1875 9.085938 5.453125 8.183594 5.453125 C 7.777344 5.457031 7.390625 5.605469 7.089844 5.875 L 7.089844 5.453125 Z M 9.816406 5.453125 L 9.816406 10.363281 L 10.363281 10.363281 L 10.363281 5.453125 Z M 9.816406 5.453125 "/>
</g>
</svg>
