<?xml version="1.0" encoding="UTF-8"?>
<svg xmlns="http://www.w3.org/2000/svg" xmlns:xlink="http://www.w3.org/1999/xlink" width="12pt" height="12pt" viewBox="0 0 12 12" version="1.1">
<g id="surface1">
<path style=" stroke:none;fill-rule:nonzero;fill:rgb(36.078431%,38.039216%,42.352941%);fill-opacity:1;" d="M 2.726562 1.636719 L 4.261719 10.363281 L 7.226562 10.363281 L 9.273438 1.636719 Z M 3.546875 2.726562 C 3.695312 2.726562 3.816406 2.847656 3.816406 3 C 3.816406 3.152344 3.695312 3.273438 3.546875 3.273438 C 3.394531 3.273438 3.273438 3.152344 3.273438 3 C 3.273438 2.847656 3.394531 2.726562 3.546875 2.726562 Z M 7.363281 2.726562 C 7.515625 2.726562 7.636719 2.847656 7.636719 3 C 7.636719 3.152344 7.515625 3.273438 7.363281 3.273438 C 7.214844 3.273438 7.089844 3.152344 7.089844 3 C 7.089844 2.847656 7.214844 2.726562 7.363281 2.726562 Z M 5.949219 3.820312 C 6.789062 3.792969 7.511719 4.40625 7.621094 5.238281 C 7.742188 6.136719 7.113281 6.957031 6.214844 7.078125 C 5.320312 7.195312 4.496094 6.566406 4.378906 5.667969 C 4.257812 4.773438 4.886719 3.949219 5.785156 3.832031 C 5.839844 3.824219 5.894531 3.820312 5.949219 3.820312 Z M 6.816406 7.636719 C 6.96875 7.636719 7.089844 7.757812 7.089844 7.910156 C 7.089844 8.0625 6.96875 8.183594 6.816406 8.183594 C 6.667969 8.183594 6.546875 8.0625 6.546875 7.910156 C 6.546875 7.757812 6.667969 7.636719 6.816406 7.636719 Z M 5.183594 8.726562 C 5.332031 8.726562 5.453125 8.851562 5.453125 9 C 5.453125 9.152344 5.332031 9.273438 5.183594 9.273438 C 5.03125 9.273438 4.910156 9.152344 4.910156 9 C 4.910156 8.851562 5.03125 8.726562 5.183594 8.726562 Z M 5.183594 8.726562 "/>
</g>
</svg>
