<?xml version="1.0" encoding="UTF-8"?>
<svg xmlns="http://www.w3.org/2000/svg" xmlns:xlink="http://www.w3.org/1999/xlink" width="12pt" height="12pt" viewBox="0 0 12 12" version="1.1">
<g id="surface1">
<path style=" stroke:none;fill-rule:nonzero;fill:rgb(36.078431%,38.039216%,42.352941%);fill-opacity:1;" d="M 5.183594 2.183594 C 4.746094 2.183594 4.363281 2.535156 4.363281 2.972656 L 4.363281 3.816406 L 2.707031 3.816406 C 2.417969 3.816406 2.183594 3.996094 2.183594 4.289062 L 2.183594 6 L 2.972656 6 C 3.410156 6 3.816406 6.378906 3.816406 6.816406 C 3.816406 7.253906 3.410156 7.636719 2.972656 7.636719 L 2.183594 7.636719 L 2.183594 9.289062 C 2.183594 9.582031 2.417969 9.816406 2.707031 9.816406 L 4.363281 9.816406 L 4.363281 9.289062 C 4.363281 8.851562 4.375 8.203125 5.183594 8.183594 C 5.992188 8.160156 6 8.886719 6 9.289062 L 6 9.816406 L 7.710938 9.816406 C 8.003906 9.816406 8.183594 9.582031 8.183594 9.289062 L 8.183594 7.636719 L 9.027344 7.636719 C 9.464844 7.636719 9.816406 7.253906 9.816406 6.816406 C 9.816406 6.378906 9.460938 6.066406 9.027344 6 L 8.183594 6 L 8.183594 4.289062 C 8.183594 3.996094 8.003906 3.816406 7.710938 3.816406 L 6 3.816406 L 6 2.972656 C 6 2.535156 5.621094 2.183594 5.183594 2.183594 Z M 5.183594 2.183594 "/>
</g>
</svg>
