<?xml version="1.0" encoding="UTF-8"?>
<svg xmlns="http://www.w3.org/2000/svg" xmlns:xlink="http://www.w3.org/1999/xlink" width="12pt" height="12pt" viewBox="0 0 12 12" version="1.1">
<g id="surface1">
<path style=" stroke:none;fill-rule:nonzero;fill:rgb(36.078431%,38.039216%,42.352941%);fill-opacity:1;" d="M 9.152344 3.257812 L 9.136719 3.289062 C 9.09375 3.28125 9.054688 3.277344 9.011719 3.277344 C 8.566406 3.277344 8.179688 3.671875 8.179688 4.105469 C 8.179688 4.300781 8.261719 4.480469 8.386719 4.625 L 6.683594 7.652344 C 6.640625 7.644531 6.601562 7.640625 6.558594 7.640625 C 6.550781 7.640625 6.542969 7.640625 6.535156 7.640625 L 5.695312 5.277344 C 5.878906 5.128906 6 4.902344 6 4.652344 C 6 4.214844 5.640625 3.820312 5.195312 3.820312 C 4.746094 3.820312 4.363281 4.214844 4.363281 4.652344 C 4.363281 4.683594 4.367188 4.714844 4.371094 4.746094 L 3.019531 5.421875 C 2.875 5.277344 2.679688 5.183594 2.464844 5.183594 C 2.019531 5.183594 1.632812 5.578125 1.636719 6.015625 C 1.632812 6.453125 2.019531 6.820312 2.464844 6.820312 C 2.914062 6.820312 3.273438 6.453125 3.273438 6.015625 C 3.273438 5.976562 3.265625 5.9375 3.261719 5.898438 L 4.613281 5.222656 C 4.765625 5.363281 4.964844 5.453125 5.183594 5.457031 L 6.039062 7.839844 C 5.851562 7.996094 5.726562 8.226562 5.726562 8.46875 C 5.726562 8.90625 6.109375 9.277344 6.558594 9.277344 C 7.003906 9.277344 7.363281 8.90625 7.363281 8.46875 C 7.363281 8.269531 7.285156 8.078125 7.15625 7.929688 L 8.84375 4.929688 L 9.167969 7.203125 C 8.910156 7.351562 8.726562 7.625 8.726562 7.925781 C 8.726562 8.363281 9.109375 8.730469 9.558594 8.730469 C 10.003906 8.730469 10.363281 8.363281 10.363281 7.925781 C 10.363281 7.539062 10.082031 7.1875 9.707031 7.109375 L 9.378906 4.820312 C 9.640625 4.683594 9.816406 4.414062 9.816406 4.105469 C 9.816406 3.71875 9.535156 3.367188 9.15625 3.292969 Z M 9.152344 3.257812 "/>
</g>
</svg>
