<?xml version="1.0" encoding="UTF-8"?>
<svg xmlns="http://www.w3.org/2000/svg" xmlns:xlink="http://www.w3.org/1999/xlink" width="12pt" height="12pt" viewBox="0 0 12 12" version="1.1">
<g id="surface1">
<path style=" stroke:none;fill-rule:nonzero;fill:rgb(36.078431%,38.039216%,42.352941%);fill-opacity:1;" d="M 9.011719 2.730469 C 8.566406 2.730469 8.179688 3.125 8.179688 3.558594 C 8.179688 3.996094 8.566406 4.367188 9.011719 4.367188 C 9.457031 4.367188 9.816406 3.996094 9.816406 3.558594 C 9.816406 3.125 9.457031 2.730469 9.011719 2.730469 Z M 5.191406 3.273438 C 4.746094 3.273438 4.359375 3.667969 4.363281 4.105469 C 4.359375 4.542969 4.746094 4.910156 5.191406 4.910156 C 5.636719 4.910156 6 4.542969 5.996094 4.105469 C 6 3.667969 5.636719 3.273438 5.191406 3.273438 Z M 2.464844 5.457031 C 2.019531 5.457031 1.632812 5.851562 1.632812 6.289062 C 1.632812 6.722656 2.019531 7.09375 2.464844 7.09375 C 2.820312 7.09375 3.113281 6.859375 3.222656 6.546875 L 10.363281 6.546875 L 10.363281 6.003906 L 3.214844 6.003906 C 3.101562 5.691406 2.808594 5.457031 2.464844 5.457031 Z M 9.554688 7.09375 C 9.109375 7.09375 8.722656 7.488281 8.726562 7.925781 C 8.722656 8.359375 9.109375 8.730469 9.554688 8.730469 C 10.003906 8.730469 10.363281 8.359375 10.363281 7.925781 C 10.363281 7.488281 10.003906 7.09375 9.554688 7.09375 Z M 6.554688 7.636719 C 6.109375 7.636719 5.722656 8.03125 5.726562 8.46875 C 5.722656 8.90625 6.109375 9.273438 6.554688 9.273438 C 7.003906 9.273438 7.363281 8.90625 7.363281 8.46875 C 7.363281 8.03125 7.003906 7.636719 6.554688 7.636719 Z M 6.554688 7.636719 "/>
</g>
</svg>
