<?xml version="1.0" encoding="UTF-8"?>
<svg xmlns="http://www.w3.org/2000/svg" xmlns:xlink="http://www.w3.org/1999/xlink" width="12pt" height="12pt" viewBox="0 0 12 12" version="1.1">
<g id="surface1">
<path style=" stroke:none;fill-rule:nonzero;fill:rgb(36.078431%,38.039216%,42.352941%);fill-opacity:1;" d="M 6 2.183594 C 3.890625 2.183594 2.183594 3.894531 2.183594 6.003906 C 2.183594 8.109375 3.890625 9.820312 6 9.820312 C 8.109375 9.820312 9.816406 8.109375 9.816406 6.003906 C 9.816406 3.894531 8.109375 2.183594 6 2.183594 Z M 6 3.273438 C 7.507812 3.273438 8.726562 4.496094 8.726562 6.003906 C 8.726562 7.507812 7.507812 8.730469 6 8.730469 C 4.492188 8.730469 3.273438 7.507812 3.273438 6.003906 C 3.273438 4.496094 4.492188 3.273438 6 3.273438 Z M 6 4.367188 C 5.097656 4.367188 4.363281 5.097656 4.363281 6.003906 C 4.363281 6.90625 5.097656 7.636719 6 7.636719 C 6.515625 7.636719 7 7.394531 7.308594 6.984375 L 6.871094 6.65625 C 6.664062 6.929688 6.34375 7.09375 6 7.09375 C 5.398438 7.09375 4.910156 6.605469 4.910156 6.003906 C 4.910156 5.398438 5.398438 4.910156 6 4.910156 C 6.34375 4.910156 6.667969 5.074219 6.871094 5.347656 L 7.308594 5.019531 C 7 4.609375 6.515625 4.367188 6 4.367188 Z M 6 4.367188 "/>
</g>
</svg>
