<?xml version="1.0" encoding="UTF-8"?>
<svg xmlns="http://www.w3.org/2000/svg" xmlns:xlink="http://www.w3.org/1999/xlink" width="12pt" height="12pt" viewBox="0 0 12 12" version="1.1">
<g id="surface1">
<path style=" stroke:none;fill-rule:nonzero;fill:rgb(36.078431%,38.039216%,42.352941%);fill-opacity:1;" d="M 2.726562 2.730469 C 2.121094 2.730469 1.636719 3.214844 1.636719 3.820312 L 1.636719 8.183594 C 1.636719 8.789062 2.121094 9.273438 2.726562 9.273438 L 9.273438 9.273438 C 9.878906 9.273438 10.363281 8.789062 10.363281 8.183594 L 10.363281 3.820312 C 10.363281 3.214844 9.878906 2.730469 9.273438 2.730469 Z M 6 3.816406 C 6.601562 3.816406 7.089844 4.304688 7.089844 4.910156 C 7.089844 5.511719 6.601562 6 6 6 C 5.398438 6 4.910156 5.511719 4.910156 4.910156 C 4.910156 4.304688 5.398438 3.816406 6 3.816406 Z M 6 6.546875 C 8.183594 6.542969 8.183594 7.855469 8.183594 7.855469 L 8.183594 8.183594 L 3.816406 8.183594 L 3.816406 7.855469 C 3.816406 7.855469 3.816406 6.546875 6 6.546875 Z M 6 6.546875 "/>
</g>
</svg>
