<?xml version="1.0" encoding="UTF-8"?>
<svg xmlns="http://www.w3.org/2000/svg" xmlns:xlink="http://www.w3.org/1999/xlink" width="12pt" height="12pt" viewBox="0 0 12 12" version="1.1">
<g id="surface1">
<path style=" stroke:none;fill-rule:nonzero;fill:rgb(36.078431%,38.039216%,42.352941%);fill-opacity:1;" d="M 7.519531 2.183594 C 7.007812 2.183594 6.527344 2.417969 6.207031 2.832031 L 3.105469 6.796875 C 2.820312 7.160156 2.691406 7.617188 2.738281 8.082031 C 2.785156 8.546875 3.007812 8.964844 3.355469 9.261719 L 3.558594 9.429688 C 3.859375 9.679688 4.234375 9.816406 4.621094 9.816406 C 4.679688 9.816406 4.738281 9.816406 4.796875 9.808594 C 5.246094 9.761719 5.644531 9.535156 5.929688 9.175781 C 5.929688 9.175781 5.929688 9.175781 8.019531 6.5 C 8.390625 6.023438 8.320312 5.324219 7.859375 4.9375 L 7.753906 4.847656 C 7.566406 4.691406 7.324219 4.601562 7.082031 4.601562 C 6.753906 4.601562 6.449219 4.75 6.246094 5.011719 L 4.15625 7.683594 C 4.023438 7.859375 4.046875 8.117188 4.214844 8.257812 C 4.285156 8.316406 4.375 8.347656 4.464844 8.347656 C 4.582031 8.347656 4.695312 8.292969 4.769531 8.199219 L 6.859375 5.527344 C 6.914062 5.457031 6.992188 5.417969 7.082031 5.417969 C 7.148438 5.417969 7.207031 5.4375 7.261719 5.480469 L 7.367188 5.570312 C 7.425781 5.621094 7.460938 5.691406 7.46875 5.769531 C 7.476562 5.851562 7.457031 5.925781 7.410156 5.988281 L 5.324219 8.65625 C 5.152344 8.878906 4.894531 9.003906 4.621094 9.003906 C 4.414062 9.003906 4.210938 8.929688 4.050781 8.796875 L 3.851562 8.628906 C 3.664062 8.46875 3.546875 8.246094 3.519531 7.996094 C 3.496094 7.75 3.566406 7.503906 3.71875 7.308594 L 6.816406 3.34375 C 6.988281 3.121094 7.246094 2.996094 7.519531 2.996094 C 7.726562 2.996094 7.929688 3.070312 8.089844 3.203125 L 8.289062 3.371094 C 8.675781 3.699219 8.738281 4.289062 8.421875 4.6875 C 8.359375 4.773438 8.328125 4.878906 8.339844 4.988281 C 8.347656 5.097656 8.402344 5.191406 8.480469 5.261719 C 8.550781 5.320312 8.640625 5.351562 8.730469 5.351562 C 8.847656 5.351562 8.960938 5.296875 9.035156 5.203125 C 9.320312 4.839844 9.449219 4.382812 9.402344 3.917969 C 9.355469 3.453125 9.136719 3.035156 8.785156 2.738281 L 8.582031 2.570312 C 8.285156 2.320312 7.90625 2.183594 7.519531 2.183594 Z M 7.519531 2.183594 "/>
</g>
</svg>
