<?xml version="1.0" encoding="UTF-8"?>
<svg xmlns="http://www.w3.org/2000/svg" xmlns:xlink="http://www.w3.org/1999/xlink" width="12pt" height="12pt" viewBox="0 0 12 12" version="1.1">
<g id="surface1">
<path style=" stroke:none;fill-rule:nonzero;fill:rgb(36.078431%,38.039216%,42.352941%);fill-opacity:1;" d="M 2.640625 2.1875 C 2.488281 2.210938 2.183594 2.324219 2.183594 2.734375 L 2.183594 8.734375 C 2.183594 8.734375 2.183594 9.277344 2.726562 9.277344 L 9.273438 9.277344 C 9.273438 9.277344 9.816406 9.277344 9.816406 8.734375 L 9.816406 3.824219 C 9.816406 3.277344 9.273438 3.277344 9.273438 3.277344 L 6.546875 3.277344 L 5.453125 2.1875 L 2.726562 2.1875 C 2.726562 2.1875 2.691406 2.179688 2.640625 2.1875 Z M 6.167969 3.816406 C 6.460938 3.816406 6.730469 3.863281 6.976562 3.953125 C 7.222656 4.042969 7.433594 4.171875 7.613281 4.339844 C 7.792969 4.507812 7.929688 4.710938 8.03125 4.953125 C 8.132812 5.191406 8.183594 5.460938 8.183594 5.761719 C 8.183594 5.933594 8.160156 6.101562 8.117188 6.265625 C 8.078125 6.429688 8.015625 6.578125 7.929688 6.710938 C 7.84375 6.839844 7.738281 6.949219 7.605469 7.027344 C 7.480469 7.109375 7.328125 7.148438 7.152344 7.148438 C 7.082031 7.148438 7.015625 7.140625 6.953125 7.125 C 6.894531 7.109375 6.835938 7.082031 6.785156 7.050781 C 6.734375 7.019531 6.6875 6.984375 6.648438 6.945312 C 6.613281 6.902344 6.582031 6.855469 6.5625 6.804688 L 6.519531 6.804688 C 6.484375 6.847656 6.445312 6.894531 6.398438 6.933594 C 6.351562 6.976562 6.300781 7.011719 6.242188 7.046875 C 6.183594 7.078125 6.121094 7.101562 6.050781 7.121094 C 5.984375 7.140625 5.90625 7.148438 5.828125 7.148438 C 5.671875 7.148438 5.535156 7.125 5.414062 7.074219 C 5.296875 7.023438 5.195312 6.949219 5.117188 6.859375 C 5.035156 6.761719 4.972656 6.652344 4.929688 6.523438 C 4.886719 6.390625 4.867188 6.246094 4.867188 6.085938 C 4.867188 5.902344 4.894531 5.734375 4.953125 5.582031 C 5.007812 5.429688 5.089844 5.296875 5.199219 5.1875 C 5.304688 5.074219 5.4375 4.988281 5.589844 4.929688 C 5.742188 4.867188 5.914062 4.835938 6.105469 4.835938 C 6.191406 4.835938 6.277344 4.839844 6.367188 4.847656 C 6.453125 4.855469 6.539062 4.871094 6.621094 4.882812 C 6.703125 4.898438 6.78125 4.914062 6.855469 4.929688 C 6.925781 4.949219 6.988281 4.96875 7.039062 4.984375 L 6.980469 6.101562 C 6.976562 6.140625 6.976562 6.179688 6.976562 6.21875 L 6.976562 6.289062 C 6.976562 6.363281 6.980469 6.425781 6.992188 6.472656 C 7.007812 6.523438 7.019531 6.558594 7.039062 6.589844 C 7.058594 6.613281 7.082031 6.632812 7.105469 6.644531 C 7.132812 6.65625 7.160156 6.660156 7.1875 6.660156 C 7.253906 6.660156 7.308594 6.636719 7.355469 6.589844 C 7.40625 6.539062 7.445312 6.476562 7.476562 6.394531 C 7.507812 6.3125 7.53125 6.214844 7.546875 6.109375 C 7.5625 5.996094 7.574219 5.882812 7.574219 5.757812 C 7.574219 5.53125 7.539062 5.328125 7.46875 5.148438 C 7.398438 4.972656 7.300781 4.820312 7.171875 4.699219 C 7.050781 4.578125 6.902344 4.484375 6.730469 4.417969 C 6.554688 4.355469 6.371094 4.320312 6.167969 4.320312 C 5.886719 4.320312 5.636719 4.367188 5.417969 4.457031 C 5.203125 4.550781 5.023438 4.675781 4.875 4.839844 C 4.730469 5 4.621094 5.195312 4.546875 5.417969 C 4.472656 5.640625 4.433594 5.882812 4.433594 6.148438 C 4.433594 6.394531 4.46875 6.613281 4.53125 6.800781 C 4.597656 6.992188 4.691406 7.148438 4.820312 7.28125 C 4.949219 7.40625 5.105469 7.507812 5.292969 7.574219 C 5.480469 7.640625 5.695312 7.671875 5.941406 7.671875 C 6.042969 7.671875 6.152344 7.664062 6.261719 7.652344 C 6.371094 7.640625 6.476562 7.625 6.585938 7.601562 C 6.695312 7.582031 6.800781 7.554688 6.90625 7.527344 C 7.011719 7.496094 7.109375 7.460938 7.203125 7.425781 L 7.203125 7.9375 C 7.03125 8.011719 6.835938 8.070312 6.625 8.113281 C 6.414062 8.160156 6.1875 8.183594 5.945312 8.183594 C 5.609375 8.183594 5.308594 8.136719 5.046875 8.042969 C 4.78125 7.953125 4.5625 7.820312 4.378906 7.648438 C 4.199219 7.476562 4.058594 7.265625 3.964844 7.015625 C 3.867188 6.765625 3.816406 6.480469 3.816406 6.164062 C 3.816406 5.945312 3.84375 5.730469 3.894531 5.53125 C 3.941406 5.328125 4.015625 5.140625 4.109375 4.96875 C 4.203125 4.792969 4.320312 4.636719 4.453125 4.496094 C 4.589844 4.351562 4.746094 4.234375 4.921875 4.132812 C 5.09375 4.03125 5.285156 3.953125 5.496094 3.902344 C 5.707031 3.847656 5.929688 3.816406 6.167969 3.816406 Z M 6.105469 5.320312 C 5.996094 5.320312 5.90625 5.34375 5.828125 5.386719 C 5.753906 5.433594 5.691406 5.492188 5.644531 5.5625 C 5.597656 5.636719 5.5625 5.71875 5.539062 5.816406 C 5.519531 5.90625 5.511719 6 5.511719 6.097656 C 5.511719 6.296875 5.546875 6.441406 5.617188 6.53125 C 5.6875 6.617188 5.777344 6.660156 5.894531 6.660156 C 5.972656 6.660156 6.039062 6.644531 6.097656 6.609375 C 6.152344 6.574219 6.199219 6.527344 6.234375 6.464844 C 6.269531 6.398438 6.300781 6.324219 6.320312 6.238281 C 6.339844 6.148438 6.351562 6.050781 6.355469 5.941406 L 6.390625 5.351562 C 6.351562 5.339844 6.308594 5.335938 6.261719 5.328125 C 6.210938 5.324219 6.160156 5.320312 6.105469 5.320312 Z M 6.105469 5.320312 "/>
</g>
</svg>
