<?xml version="1.0" encoding="UTF-8"?>
<svg xmlns="http://www.w3.org/2000/svg" xmlns:xlink="http://www.w3.org/1999/xlink" width="12pt" height="12pt" viewBox="0 0 12 12" version="1.1">
<g id="surface1">
<path style=" stroke:none;fill-rule:nonzero;fill:rgb(36.078431%,38.039216%,42.352941%);fill-opacity:1;" d="M 2.730469 2.730469 C 2.125 2.730469 1.640625 3.214844 1.640625 3.820312 L 1.640625 8.183594 C 1.640625 8.789062 2.125 9.273438 2.730469 9.273438 L 7.058594 9.273438 C 7.054688 9.261719 7.054688 9.253906 7.054688 9.242188 L 7.054688 7.605469 C 7.054688 7.304688 7.300781 7.058594 7.601562 7.058594 L 7.601562 6.785156 C 7.601562 6.039062 8.21875 5.421875 8.964844 5.421875 C 9.710938 5.421875 10.328125 6.039062 10.328125 6.785156 L 10.328125 7.058594 C 10.339844 7.058594 10.355469 7.058594 10.367188 7.058594 L 10.367188 3.820312 C 10.367188 3.214844 9.878906 2.730469 9.277344 2.730469 Z M 2.730469 3.820312 L 6.003906 5.457031 L 9.277344 3.820312 L 9.277344 4.910156 L 6.003906 6.546875 L 2.730469 4.910156 Z M 8.964844 5.96875 C 8.511719 5.96875 8.148438 6.335938 8.148438 6.785156 L 8.148438 7.605469 L 7.601562 7.605469 L 7.601562 9.242188 L 10.328125 9.242188 L 10.328125 7.605469 L 9.78125 7.605469 L 9.78125 6.785156 C 9.78125 6.335938 9.417969 5.96875 8.964844 5.96875 Z M 8.964844 6.511719 C 9.117188 6.511719 9.238281 6.636719 9.238281 6.785156 L 9.238281 7.605469 L 8.691406 7.605469 L 8.691406 6.785156 C 8.691406 6.636719 8.8125 6.511719 8.964844 6.511719 Z M 8.964844 6.511719 "/>
</g>
</svg>
