<?xml version="1.0" encoding="UTF-8"?>
<svg xmlns="http://www.w3.org/2000/svg" xmlns:xlink="http://www.w3.org/1999/xlink" width="12pt" height="12pt" viewBox="0 0 12 12" version="1.1">
<g id="surface1">
<path style=" stroke:none;fill-rule:nonzero;fill:rgb(36.078431%,38.039216%,42.352941%);fill-opacity:1;" d="M 6.058594 1.636719 C 4.878906 1.621094 3.746094 2.082031 2.910156 2.914062 C 1.207031 4.617188 1.207031 7.382812 2.910156 9.085938 C 4.613281 10.789062 7.375 10.789062 9.082031 9.085938 C 10.785156 7.382812 10.785156 4.617188 9.082031 2.914062 C 8.277344 2.113281 7.195312 1.652344 6.058594 1.636719 Z M 5.941406 2.183594 C 6.878906 2.167969 7.785156 2.503906 8.492188 3.117188 L 7.726562 3.882812 C 6.816406 3.042969 5.742188 2.5 4.769531 2.386719 C 5.144531 2.257812 5.542969 2.1875 5.941406 2.183594 Z M 4.289062 2.894531 C 5.199219 2.84375 6.359375 3.363281 7.339844 4.269531 L 5.996094 5.613281 L 3.511719 3.132812 C 3.726562 2.992188 3.992188 2.914062 4.289062 2.894531 Z M 8.882812 3.5 C 9.765625 4.523438 10.042969 5.933594 9.609375 7.214844 C 9.492188 6.246094 8.949219 5.175781 8.109375 4.269531 Z M 3.125 3.515625 L 5.609375 6 L 4.265625 7.34375 C 3.035156 6.007812 2.558594 4.40625 3.125 3.515625 Z M 7.726562 4.65625 C 8.957031 5.992188 9.433594 7.59375 8.863281 8.484375 L 6.382812 6 Z M 2.382812 4.785156 C 2.5 5.753906 3.042969 6.824219 3.882812 7.730469 L 3.109375 8.5 C 2.226562 7.476562 1.949219 6.066406 2.382812 4.785156 Z M 5.996094 6.386719 L 8.476562 8.867188 C 7.585938 9.433594 5.988281 8.957031 4.652344 7.730469 Z M 4.265625 8.117188 C 5.175781 8.957031 6.25 9.5 7.222656 9.613281 C 5.941406 10.046875 4.523438 9.769531 3.5 8.882812 Z M 4.265625 8.117188 "/>
</g>
</svg>
