<?xml version="1.0" encoding="UTF-8"?>
<svg xmlns="http://www.w3.org/2000/svg" xmlns:xlink="http://www.w3.org/1999/xlink" width="12pt" height="12pt" viewBox="0 0 12 12" version="1.1">
<g id="surface1">
<path style=" stroke:none;fill-rule:nonzero;fill:rgb(36.078431%,38.039216%,42.352941%);fill-opacity:1;" d="M 1.636719 1.636719 L 1.636719 10.363281 L 10.363281 10.363281 L 10.363281 1.636719 Z M 2.183594 2.183594 L 4.363281 2.183594 L 4.363281 4.363281 L 2.183594 4.363281 Z M 4.910156 2.183594 L 7.089844 2.183594 L 7.089844 4.363281 L 4.910156 4.363281 Z M 7.636719 2.183594 L 9.816406 2.183594 L 9.816406 4.363281 L 7.636719 4.363281 Z M 2.183594 4.910156 L 4.363281 4.910156 L 4.363281 7.089844 L 2.183594 7.089844 Z M 4.910156 4.910156 L 7.089844 4.910156 L 7.089844 7.089844 L 4.910156 7.089844 Z M 7.636719 4.910156 L 9.816406 4.910156 L 9.816406 7.089844 L 7.636719 7.089844 Z M 2.183594 7.636719 L 4.363281 7.636719 L 4.363281 9.816406 L 2.183594 9.816406 Z M 4.910156 7.636719 L 7.089844 7.636719 L 7.089844 9.816406 L 4.910156 9.816406 Z M 7.636719 7.636719 L 9.816406 7.636719 L 9.816406 9.816406 L 7.636719 9.816406 Z M 7.636719 7.636719 "/>
</g>
</svg>
