<?xml version="1.0" encoding="UTF-8"?>
<svg xmlns="http://www.w3.org/2000/svg" xmlns:xlink="http://www.w3.org/1999/xlink" width="12pt" height="12pt" viewBox="0 0 12 12" version="1.1">
<g id="surface1">
<path style=" stroke:none;fill-rule:nonzero;fill:rgb(36.078431%,38.039216%,42.352941%);fill-opacity:1;" d="M 1.636719 1.636719 L 1.636719 10.363281 L 10.363281 10.363281 L 10.363281 1.636719 Z M 2.183594 2.183594 L 4.363281 2.183594 L 4.363281 4.75 C 3.03125 4.480469 2.183594 3.902344 2.183594 3.273438 Z M 4.910156 2.183594 L 7.089844 2.183594 L 7.089844 4.839844 C 6.738281 4.886719 6.371094 4.910156 6 4.910156 C 5.628906 4.910156 5.261719 4.886719 4.910156 4.839844 Z M 7.636719 2.183594 L 9.816406 2.183594 L 9.816406 3.273438 C 9.816406 3.902344 8.96875 4.480469 7.636719 4.75 Z M 2.183594 4.324219 C 2.664062 4.761719 3.433594 5.105469 4.363281 5.292969 L 4.363281 6.707031 C 3.433594 6.894531 2.664062 7.238281 2.183594 7.675781 Z M 9.816406 4.328125 L 9.816406 7.671875 C 9.332031 7.234375 8.5625 6.894531 7.636719 6.707031 L 7.636719 5.292969 C 8.5625 5.105469 9.332031 4.765625 9.816406 4.328125 Z M 4.910156 5.382812 C 5.265625 5.429688 5.632812 5.453125 6 5.453125 C 6.367188 5.453125 6.734375 5.429688 7.089844 5.382812 L 7.089844 6.617188 C 6.734375 6.570312 6.367188 6.546875 6 6.546875 C 5.632812 6.546875 5.265625 6.570312 4.910156 6.617188 Z M 6 7.089844 C 6.371094 7.089844 6.738281 7.113281 7.089844 7.160156 L 7.089844 9.816406 L 4.910156 9.816406 L 4.910156 7.160156 C 5.261719 7.113281 5.628906 7.089844 6 7.089844 Z M 4.363281 7.25 L 4.363281 9.816406 L 2.183594 9.816406 L 2.183594 8.726562 C 2.183594 8.097656 3.03125 7.519531 4.363281 7.25 Z M 7.636719 7.25 C 8.96875 7.519531 9.816406 8.097656 9.816406 8.726562 L 9.816406 9.816406 L 7.636719 9.816406 Z M 7.636719 7.25 "/>
</g>
</svg>
