<?xml version="1.0" encoding="UTF-8"?>
<svg xmlns="http://www.w3.org/2000/svg" xmlns:xlink="http://www.w3.org/1999/xlink" width="12pt" height="12pt" viewBox="0 0 12 12" version="1.1">
<g id="surface1">
<path style=" stroke:none;fill-rule:nonzero;fill:rgb(36.078431%,38.039216%,42.352941%);fill-opacity:1;" d="M 6 2.183594 C 4.492188 2.183594 3.273438 3.40625 3.273438 4.910156 C 3.273438 5.003906 3.28125 5.09375 3.289062 5.183594 C 3.296875 5.273438 3.308594 5.367188 3.324219 5.457031 C 3.636719 7.375 4.910156 8.730469 6 9.820312 C 7.089844 8.730469 8.363281 7.375 8.675781 5.457031 C 8.691406 5.367188 8.703125 5.273438 8.710938 5.183594 C 8.71875 5.09375 8.726562 5.003906 8.726562 4.910156 C 8.726562 3.40625 7.507812 2.183594 6 2.183594 Z M 6 3.820312 C 6.601562 3.820312 7.089844 4.308594 7.089844 4.910156 C 7.089844 5.515625 6.601562 6.003906 6 6.003906 C 5.398438 6.003906 4.910156 5.515625 4.910156 4.910156 C 4.910156 4.308594 5.398438 3.820312 6 3.820312 Z M 6 3.820312 "/>
</g>
</svg>
