<?xml version="1.0" encoding="UTF-8"?>
<svg xmlns="http://www.w3.org/2000/svg" xmlns:xlink="http://www.w3.org/1999/xlink" width="12pt" height="12pt" viewBox="0 0 12 12" version="1.1">
<g id="surface1">
<path style=" stroke:none;fill-rule:nonzero;fill:rgb(36.078431%,38.039216%,42.352941%);fill-opacity:1;" d="M 2.726562 2.183594 C 2.425781 2.183594 2.183594 2.425781 2.183594 2.726562 L 2.183594 6 C 2.183594 6.300781 2.425781 6.546875 2.726562 6.546875 L 9.273438 6.546875 C 9.574219 6.546875 9.816406 6.300781 9.816406 6 L 9.816406 2.726562 C 9.816406 2.425781 9.574219 2.183594 9.273438 2.183594 Z M 3.273438 3.273438 L 3.816406 3.273438 L 3.816406 4.363281 L 4.363281 4.363281 L 4.363281 3.273438 L 5.453125 3.273438 L 5.453125 4.363281 L 6 4.363281 L 6 3.273438 L 7.089844 3.273438 L 7.089844 4.363281 L 7.636719 4.363281 L 7.636719 3.273438 L 8.726562 3.273438 L 8.726562 5.453125 L 3.273438 5.453125 Z M 3.816406 7.089844 L 2.183594 8.453125 L 3.816406 9.816406 Z M 8.183594 7.089844 L 8.183594 9.816406 L 9.816406 8.453125 Z M 8.183594 7.089844 "/>
</g>
</svg>
