<?xml version="1.0" encoding="UTF-8"?>
<svg xmlns="http://www.w3.org/2000/svg" xmlns:xlink="http://www.w3.org/1999/xlink" width="12pt" height="12pt" viewBox="0 0 12 12" version="1.1">
<g id="surface1">
<path style=" stroke:none;fill-rule:nonzero;fill:rgb(36.078431%,38.039216%,42.352941%);fill-opacity:1;" d="M 2.726562 3.292969 C 2.425781 3.292969 2.183594 3.535156 2.183594 3.835938 L 2.183594 8.199219 C 2.183594 8.503906 2.425781 8.746094 2.726562 8.746094 L 9.273438 8.746094 C 9.574219 8.746094 9.816406 8.503906 9.816406 8.199219 L 9.816406 3.835938 C 9.816406 3.535156 9.574219 3.292969 9.273438 3.292969 Z M 3.273438 6.019531 L 4.363281 6.019531 L 4.363281 6.566406 L 3.273438 6.566406 Z M 4.910156 6.019531 L 7.089844 6.019531 L 7.089844 6.566406 L 4.910156 6.566406 Z M 7.636719 6.019531 L 8.726562 6.019531 L 8.726562 6.566406 L 7.636719 6.566406 Z M 3.273438 7.109375 L 3.816406 7.109375 L 3.816406 7.65625 L 3.273438 7.65625 Z M 4.363281 7.109375 L 6.546875 7.109375 L 6.546875 7.65625 L 4.363281 7.65625 Z M 7.089844 7.109375 L 8.726562 7.109375 L 8.726562 7.65625 L 7.089844 7.65625 Z M 7.089844 7.109375 "/>
</g>
</svg>
