<?xml version="1.0" encoding="UTF-8"?>
<svg xmlns="http://www.w3.org/2000/svg" xmlns:xlink="http://www.w3.org/1999/xlink" width="12pt" height="12pt" viewBox="0 0 12 12" version="1.1">
<g id="surface1">
<path style=" stroke:none;fill-rule:nonzero;fill:rgb(36.078431%,38.039216%,42.352941%);fill-opacity:1;" d="M 2.183594 2.183594 C 1.878906 2.183594 1.636719 2.425781 1.636719 2.726562 L 1.636719 4.910156 C 1.636719 5.210938 1.878906 5.453125 2.183594 5.453125 L 4.910156 5.453125 L 4.910156 6.546875 L 2.183594 6.546875 C 1.878906 6.546875 1.636719 6.789062 1.636719 7.089844 L 1.636719 9.273438 C 1.636719 9.574219 1.878906 9.816406 2.183594 9.816406 L 6 9.816406 C 6.300781 9.816406 6.546875 9.574219 6.546875 9.273438 L 6.546875 7.636719 L 9.273438 7.636719 C 9.574219 7.636719 9.816406 7.390625 9.816406 7.089844 L 9.816406 4.910156 C 9.816406 4.609375 9.574219 4.363281 9.273438 4.363281 L 6.546875 4.363281 L 6.546875 2.726562 C 6.546875 2.425781 6.300781 2.183594 6 2.183594 Z M 2.183594 2.183594 "/>
</g>
</svg>
