<?xml version="1.0" encoding="UTF-8"?>
<svg xmlns="http://www.w3.org/2000/svg" xmlns:xlink="http://www.w3.org/1999/xlink" width="12pt" height="12pt" viewBox="0 0 12 12" version="1.1">
<g id="surface1">
<path style=" stroke:none;fill-rule:nonzero;fill:rgb(36.078431%,38.039216%,42.352941%);fill-opacity:1;" d="M 1.636719 2.183594 L 1.636719 9.816406 C 3.53125 9.816406 5.425781 9.816406 7.320312 9.820312 L 7.25 9.75 C 7.039062 9.535156 7.039062 9.191406 7.25 8.976562 L 7.5 8.726562 L 2.183594 8.726562 L 2.183594 8.183594 L 7.5 8.183594 L 7.25 7.929688 C 7.039062 7.71875 7.039062 7.371094 7.25 7.160156 L 7.320312 7.089844 L 6.546875 7.089844 L 6.546875 6.546875 L 9.816406 6.546875 L 9.816406 6.554688 C 9.992188 6.523438 10.167969 6.582031 10.292969 6.707031 L 10.363281 6.773438 L 10.363281 2.183594 C 7.453125 2.183594 4.546875 2.179688 1.636719 2.183594 Z M 4.910156 3.273438 L 4.910156 7.089844 L 2.183594 7.089844 L 2.183594 3.273438 Z M 6.546875 3.273438 L 9.816406 3.273438 L 9.816406 3.816406 L 6.546875 3.816406 Z M 6.546875 4.910156 L 9.816406 4.910156 L 9.816406 5.453125 L 6.546875 5.453125 Z M 8.089844 7.089844 L 7.636719 7.546875 L 8.546875 8.453125 L 7.636719 9.363281 L 8.089844 9.816406 L 9 8.910156 L 9.910156 9.816406 L 10.363281 9.363281 L 9.453125 8.453125 L 10.363281 7.546875 L 9.910156 7.089844 L 9 8 Z M 8.089844 7.089844 "/>
</g>
</svg>
