<?xml version="1.0" encoding="UTF-8"?>
<svg xmlns="http://www.w3.org/2000/svg" xmlns:xlink="http://www.w3.org/1999/xlink" width="12pt" height="12pt" viewBox="0 0 12 12" version="1.1">
<g id="surface1">
<path style=" stroke:none;fill-rule:nonzero;fill:rgb(36.078431%,38.039216%,42.352941%);fill-opacity:1;" d="M 10.046875 2.726562 C 9.96875 2.730469 9.894531 2.765625 9.84375 2.828125 C 9.792969 2.886719 9.773438 2.96875 9.785156 3.046875 C 9.902344 3.921875 9.707031 5.160156 9.101562 6.144531 C 8.789062 6.652344 8.371094 7.09375 7.835938 7.402344 C 7.613281 6.566406 6.859375 5.984375 6 5.984375 C 5.128906 5.988281 4.371094 6.582031 4.15625 7.429688 C 3.601562 7.117188 3.179688 6.667969 2.863281 6.148438 C 2.269531 5.164062 2.089844 3.925781 2.222656 3.050781 C 2.238281 2.96875 2.210938 2.886719 2.15625 2.824219 C 2.101562 2.761719 2.019531 2.726562 1.9375 2.734375 C 1.808594 2.742188 1.703125 2.839844 1.6875 2.96875 C 1.53125 3.988281 1.730469 5.316406 2.398438 6.429688 C 2.789062 7.078125 3.359375 7.640625 4.101562 8.003906 C 4.152344 9.019531 4.988281 9.816406 6 9.816406 C 7.019531 9.816406 7.859375 9.003906 7.898438 7.976562 C 8.617188 7.613281 9.175781 7.0625 9.5625 6.433594 C 10.246094 5.320312 10.460938 3.992188 10.324219 2.972656 C 10.308594 2.832031 10.191406 2.722656 10.046875 2.726562 Z M 10.046875 2.726562 "/>
</g>
</svg>
