<?xml version="1.0" encoding="UTF-8"?>
<svg xmlns="http://www.w3.org/2000/svg" xmlns:xlink="http://www.w3.org/1999/xlink" width="12pt" height="12pt" viewBox="0 0 12 12" version="1.1">
<g id="surface1">
<path style=" stroke:none;fill-rule:nonzero;fill:rgb(36.078431%,38.039216%,42.352941%);fill-opacity:1;" d="M 10.03125 2.914062 C 9.953125 2.917969 9.875 2.953125 9.828125 3.015625 C 9.777344 3.078125 9.753906 3.15625 9.769531 3.234375 C 9.886719 4.105469 9.691406 5.363281 9.082031 6.363281 C 8.734375 6.9375 8.261719 7.425781 7.636719 7.742188 L 7.636719 6.546875 L 4.363281 6.546875 L 4.363281 7.785156 C 3.699219 7.472656 3.207031 6.964844 2.851562 6.367188 C 2.257812 5.367188 2.078125 4.109375 2.207031 3.238281 C 2.222656 3.15625 2.199219 3.074219 2.140625 3.011719 C 2.085938 2.949219 2.003906 2.917969 1.921875 2.921875 C 1.792969 2.929688 1.6875 3.03125 1.671875 3.15625 C 1.515625 4.171875 1.710938 5.515625 2.382812 6.644531 C 2.757812 7.273438 3.308594 7.8125 4.007812 8.183594 L 3.226562 8.183594 C 3.109375 7.855469 2.800781 7.636719 2.453125 7.636719 C 2.003906 7.636719 1.636719 8.003906 1.636719 8.453125 C 1.636719 8.90625 2.003906 9.273438 2.453125 9.273438 C 2.800781 9.273438 3.109375 9.054688 3.226562 8.726562 L 4.363281 8.726562 L 4.363281 9.816406 L 7.636719 9.816406 L 7.636719 8.726562 L 8.773438 8.726562 C 8.890625 9.054688 9.199219 9.273438 9.546875 9.273438 C 9.996094 9.273438 10.363281 8.90625 10.363281 8.453125 C 10.363281 8.003906 9.996094 7.636719 9.546875 7.636719 C 9.199219 7.636719 8.890625 7.855469 8.773438 8.183594 L 7.90625 8.183594 C 8.609375 7.8125 9.167969 7.277344 9.546875 6.648438 C 10.230469 5.519531 10.445312 4.175781 10.308594 3.160156 C 10.296875 3.019531 10.175781 2.910156 10.03125 2.914062 Z M 10.03125 2.914062 "/>
</g>
</svg>
