<?xml version="1.0" encoding="UTF-8"?>
<svg xmlns="http://www.w3.org/2000/svg" xmlns:xlink="http://www.w3.org/1999/xlink" width="12pt" height="12pt" viewBox="0 0 12 12" version="1.1">
<g id="surface1">
<path style=" stroke:none;fill-rule:nonzero;fill:rgb(36.078431%,38.039216%,42.352941%);fill-opacity:1;" d="M 2.191406 1.636719 L 2.191406 2.726562 L 1.914062 2.726562 C 1.546875 2.722656 1.546875 3.277344 1.914062 3.273438 L 2.191406 3.273438 L 2.191406 4.363281 L 4.375 4.363281 L 4.375 3.273438 L 7.101562 3.273438 L 7.101562 4.363281 L 9.285156 4.363281 L 9.285156 3.273438 L 9.554688 3.273438 C 9.917969 3.273438 9.917969 2.726562 9.554688 2.726562 L 9.285156 2.726562 L 9.285156 1.636719 L 7.101562 1.636719 L 7.101562 2.726562 L 4.375 2.726562 L 4.375 1.636719 Z M 5.453125 4.378906 L 5.453125 5.46875 L 4.363281 5.46875 L 5.726562 7.105469 L 7.089844 5.46875 L 6 5.46875 L 6 4.378906 Z M 2.191406 7.636719 L 2.191406 8.726562 L 1.914062 8.726562 C 1.546875 8.722656 1.546875 9.277344 1.914062 9.273438 L 2.191406 9.273438 L 2.191406 10.363281 L 4.375 10.363281 L 4.375 7.636719 Z M 7.101562 7.636719 L 7.101562 10.363281 L 9.285156 10.363281 L 9.285156 9.273438 L 9.554688 9.273438 C 9.917969 9.273438 9.917969 8.726562 9.554688 8.726562 L 9.285156 8.726562 L 9.285156 7.636719 Z M 7.101562 7.636719 "/>
</g>
</svg>
