<?xml version="1.0" encoding="UTF-8"?>
<svg xmlns="http://www.w3.org/2000/svg" xmlns:xlink="http://www.w3.org/1999/xlink" width="12pt" height="12pt" viewBox="0 0 12 12" version="1.1">
<g id="surface1">
<path style=" stroke:none;fill-rule:nonzero;fill:rgb(36.078431%,38.039216%,42.352941%);fill-opacity:1;" d="M 3.273438 2.183594 C 2.667969 2.183594 2.183594 2.667969 2.183594 3.273438 L 2.183594 8.726562 C 2.183594 9.332031 2.667969 9.816406 3.273438 9.816406 L 8.726562 9.816406 C 9.332031 9.816406 9.816406 9.332031 9.816406 8.726562 L 9.816406 3.273438 C 9.816406 2.667969 9.332031 2.183594 8.726562 2.183594 Z M 4.910156 3.816406 C 5.511719 3.816406 6 4.304688 6 4.910156 C 6 5.511719 5.511719 6 4.910156 6 C 4.304688 6 3.816406 5.511719 3.816406 4.910156 C 3.816406 4.304688 4.304688 3.816406 4.910156 3.816406 Z M 6.546875 3.816406 L 8.183594 3.816406 L 8.183594 6 L 6.546875 6 Z M 4.363281 6.546875 L 5.453125 6.546875 L 5.453125 8.183594 L 4.363281 8.183594 Z M 7.363281 6.546875 L 8.183594 8.183594 L 6.546875 8.183594 Z M 7.363281 6.546875 "/>
</g>
</svg>
