<?xml version="1.0" encoding="UTF-8"?>
<svg xmlns="http://www.w3.org/2000/svg" xmlns:xlink="http://www.w3.org/1999/xlink" width="12pt" height="12pt" viewBox="0 0 12 12" version="1.1">
<g id="surface1">
<path style=" stroke:none;fill-rule:nonzero;fill:rgb(36.078431%,38.039216%,42.352941%);fill-opacity:1;" d="M 4.3125 1.621094 L 4.3125 1.671875 C 3.574219 1.59375 2.964844 1.773438 2.523438 2.121094 C 2.078125 2.472656 1.8125 2.980469 1.703125 3.523438 C 1.542969 4.300781 1.691406 5.164062 2.128906 5.820312 L 2.128906 7.621094 L 4.3125 7.621094 L 4.3125 6.984375 C 4.671875 7.035156 5.042969 7.0625 5.425781 7.070312 C 5.421875 7.1875 5.417969 7.3125 5.417969 7.429688 C 5.414062 8.191406 5.457031 8.878906 5.71875 9.398438 C 6.207031 10.375 7.191406 10.535156 8.128906 10.257812 L 8.128906 10.347656 L 10.3125 10.347656 L 10.3125 8.289062 C 10.410156 7.898438 10.367188 7.496094 10.117188 7.121094 C 9.855469 6.722656 9.355469 6.617188 8.785156 6.566406 C 8.214844 6.511719 7.53125 6.535156 6.820312 6.550781 C 6.539062 6.554688 6.269531 6.53125 5.984375 6.53125 C 6.003906 6.039062 6.023438 5.558594 6.027344 5.058594 C 6.027344 4.625 6.015625 4.199219 5.96875 3.800781 L 6.492188 3.800781 L 6.492188 1.621094 Z M 3.832031 2.199219 C 3.96875 2.191406 4.117188 2.195312 4.273438 2.214844 C 4.289062 2.214844 4.296875 2.222656 4.3125 2.222656 L 4.3125 3.800781 L 5.414062 3.800781 C 5.464844 4.183594 5.484375 4.605469 5.480469 5.054688 C 5.476562 5.535156 5.457031 6.023438 5.441406 6.515625 C 5.042969 6.5 4.664062 6.472656 4.3125 6.421875 L 4.3125 5.4375 L 2.542969 5.4375 C 2.230469 4.914062 2.109375 4.234375 2.234375 3.632812 C 2.324219 3.191406 2.535156 2.808594 2.863281 2.546875 C 3.109375 2.355469 3.421875 2.222656 3.832031 2.199219 Z M 7.859375 7.078125 C 8.179688 7.078125 8.476562 7.085938 8.734375 7.109375 C 9.253906 7.15625 9.574219 7.289062 9.664062 7.421875 C 9.8125 7.648438 9.828125 7.902344 9.75 8.164062 L 8.128906 8.164062 L 8.128906 9.695312 C 7.386719 9.976562 6.589844 9.921875 6.207031 9.15625 C 6.027344 8.796875 5.960938 8.164062 5.960938 7.429688 C 5.960938 7.320312 5.96875 7.191406 5.972656 7.082031 C 6.261719 7.078125 6.550781 7.101562 6.832031 7.09375 C 7.191406 7.085938 7.535156 7.078125 7.859375 7.078125 Z M 7.859375 7.078125 "/>
</g>
</svg>
