<?xml version="1.0" encoding="UTF-8"?>
<svg xmlns="http://www.w3.org/2000/svg" xmlns:xlink="http://www.w3.org/1999/xlink" width="12pt" height="12pt" viewBox="0 0 12 12" version="1.1">
<g id="surface1">
<path style=" stroke:none;fill-rule:nonzero;fill:rgb(36.078431%,38.039216%,42.352941%);fill-opacity:1;" d="M 6.015625 1.636719 L 3.835938 3.273438 L 6.015625 4.910156 L 6.015625 3.820312 C 7.222656 3.820312 8.199219 4.796875 8.199219 6 C 8.199219 7.207031 7.222656 8.183594 6.015625 8.183594 C 4.8125 8.183594 3.835938 7.207031 3.835938 6 C 3.835938 5.699219 3.589844 5.457031 3.289062 5.457031 C 2.988281 5.457031 2.742188 5.699219 2.742188 6 C 2.742188 6.019531 2.746094 6.039062 2.746094 6.054688 C 2.777344 7.835938 4.226562 9.273438 6.015625 9.273438 C 7.824219 9.273438 9.289062 7.808594 9.289062 6 C 9.289062 4.195312 7.824219 2.726562 6.015625 2.726562 Z M 6.015625 1.636719 "/>
</g>
</svg>
