<?xml version="1.0" encoding="UTF-8"?>
<svg xmlns="http://www.w3.org/2000/svg" xmlns:xlink="http://www.w3.org/1999/xlink" width="12pt" height="12pt" viewBox="0 0 12 12" version="1.1">
<g id="surface1">
<path style=" stroke:none;fill-rule:nonzero;fill:rgb(36.078431%,38.039216%,42.352941%);fill-opacity:1;" d="M 2.726562 2.726562 L 2.726562 9.273438 L 9.273438 9.273438 L 9.273438 8.726562 L 3.273438 8.726562 L 3.273438 2.726562 Z M 3.816406 2.726562 L 3.816406 3.273438 L 4.363281 3.273438 L 4.363281 2.726562 Z M 4.910156 2.726562 L 4.910156 3.273438 L 5.453125 3.273438 L 5.453125 2.726562 Z M 8.183594 3.273438 L 8.183594 3.816406 L 8.726562 3.816406 L 8.726562 3.273438 Z M 8.726562 3.816406 L 8.726562 4.363281 L 9.273438 4.363281 L 9.273438 3.816406 Z M 8.726562 4.363281 L 8.183594 4.363281 L 8.183594 4.910156 L 8.726562 4.910156 Z M 8.183594 4.363281 L 8.183594 3.816406 L 7.636719 3.816406 L 7.636719 4.363281 Z M 3.816406 3.816406 L 3.816406 4.363281 L 4.363281 4.363281 L 4.363281 3.816406 Z M 4.910156 3.816406 L 4.910156 4.363281 L 5.453125 4.363281 L 5.453125 3.816406 Z M 6.546875 5.453125 L 6.546875 6 L 7.089844 6 L 7.089844 5.453125 Z M 7.636719 5.453125 L 7.636719 6 L 8.183594 6 L 8.183594 5.453125 Z M 4.363281 6.546875 L 4.363281 7.089844 L 4.910156 7.089844 L 4.910156 6.546875 Z M 4.910156 7.089844 L 4.910156 7.636719 L 5.453125 7.636719 L 5.453125 7.089844 Z M 4.910156 7.636719 L 4.363281 7.636719 L 4.363281 8.183594 L 4.910156 8.183594 Z M 4.363281 7.636719 L 4.363281 7.089844 L 3.816406 7.089844 L 3.816406 7.636719 Z M 6.546875 6.546875 L 6.546875 7.089844 L 7.089844 7.089844 L 7.089844 6.546875 Z M 7.636719 6.546875 L 7.636719 7.089844 L 8.183594 7.089844 L 8.183594 6.546875 Z M 7.636719 6.546875 "/>
</g>
</svg>
