<?xml version="1.0" encoding="UTF-8"?>
<svg xmlns="http://www.w3.org/2000/svg" xmlns:xlink="http://www.w3.org/1999/xlink" width="12pt" height="12pt" viewBox="0 0 12 12" version="1.1">
<g id="surface1">
<path style=" stroke:none;fill-rule:nonzero;fill:rgb(36.078431%,38.039216%,42.352941%);fill-opacity:1;" d="M 2.726562 2.179688 L 2.726562 2.183594 C 2.164062 2.214844 2.183594 2.726562 2.183594 2.726562 L 2.183594 9.273438 C 2.183594 9.273438 2.164062 9.785156 2.726562 9.816406 L 9.273438 9.816406 C 9.816406 9.816406 9.816406 9.273438 9.816406 9.273438 L 9.816406 2.726562 C 9.816406 2.726562 9.816406 2.183594 9.273438 2.183594 L 6.253906 2.183594 L 6.425781 2.386719 L 7.140625 3.273438 L 8.726562 3.273438 L 8.726562 7.089844 L 7.089844 7.089844 C 7.089844 7.695312 6.605469 8.183594 6 8.183594 C 5.394531 8.183594 4.910156 7.695312 4.910156 7.089844 L 3.273438 7.089844 L 3.273438 3.273438 L 4.859375 3.273438 L 5.574219 2.386719 L 5.742188 2.179688 Z M 6 2.726562 L 3.816406 5.453125 L 4.910156 5.453125 L 4.910156 6.546875 L 7.089844 6.546875 L 7.089844 5.453125 L 8.183594 5.453125 Z M 6 2.726562 "/>
</g>
</svg>
