<?xml version="1.0" encoding="UTF-8"?>
<svg xmlns="http://www.w3.org/2000/svg" xmlns:xlink="http://www.w3.org/1999/xlink" width="12pt" height="12pt" viewBox="0 0 12 12" version="1.1">
<g id="surface1">
<path style=" stroke:none;fill-rule:nonzero;fill:rgb(36.078431%,38.039216%,42.352941%);fill-opacity:1;" d="M 9.546875 2.152344 C 9.175781 2.152344 8.863281 2.402344 8.765625 2.742188 C 5.859375 3.34375 3.292969 5.285156 2.773438 8.738281 C 2.4375 8.839844 2.195312 9.148438 2.195312 9.515625 C 2.195312 9.96875 2.558594 10.335938 3.011719 10.335938 C 3.460938 10.335938 3.828125 9.96875 3.828125 9.515625 C 3.828125 9.175781 3.617188 8.882812 3.320312 8.761719 C 3.523438 7.464844 4.03125 6.410156 4.742188 5.574219 C 5.503906 6.355469 5.988281 7.171875 6.109375 7.832031 C 6.230469 8.507812 6.058594 9.078125 5.570312 9.566406 L 5.957031 9.953125 C 6.554688 9.351562 6.792969 8.558594 6.644531 7.734375 C 6.496094 6.921875 5.929688 6.011719 5.109375 5.179688 C 5.203125 5.089844 5.300781 5.003906 5.398438 4.917969 C 6.203125 5.6875 7.015625 6.164062 7.796875 6.308594 C 8.621094 6.457031 9.410156 6.21875 10.011719 5.617188 L 9.625 5.234375 C 9.136719 5.722656 8.566406 5.894531 7.894531 5.769531 C 7.269531 5.65625 6.558594 5.257812 5.832031 4.574219 C 6.695312 3.949219 7.710938 3.527344 8.796875 3.296875 C 8.921875 3.585938 9.210938 3.789062 9.546875 3.789062 C 9.996094 3.789062 10.363281 3.421875 10.363281 2.972656 C 10.363281 2.519531 9.996094 2.152344 9.546875 2.152344 Z M 9.546875 2.152344 "/>
</g>
</svg>
