<?xml version="1.0" encoding="UTF-8"?>
<svg xmlns="http://www.w3.org/2000/svg" xmlns:xlink="http://www.w3.org/1999/xlink" width="12pt" height="12pt" viewBox="0 0 12 12" version="1.1">
<g id="surface1">
<path style=" stroke:none;fill-rule:nonzero;fill:rgb(36.078431%,38.039216%,42.352941%);fill-opacity:1;" d="M 8.183594 1.636719 C 7.277344 1.636719 6.546875 2.371094 6.546875 3.273438 C 6.546875 3.402344 6.570312 3.515625 6.597656 3.632812 L 4.839844 4.722656 C 4.5625 4.5 4.203125 4.367188 3.816406 4.367188 C 2.914062 4.367188 2.183594 5.097656 2.183594 6.003906 C 2.183594 6.90625 2.914062 7.636719 3.816406 7.636719 C 4.203125 7.636719 4.5625 7.503906 4.839844 7.28125 L 6.597656 8.371094 C 6.570312 8.488281 6.546875 8.601562 6.546875 8.730469 C 6.546875 9.632812 7.277344 10.367188 8.183594 10.367188 C 9.085938 10.367188 9.816406 9.632812 9.816406 8.730469 C 9.816406 7.824219 9.085938 7.09375 8.183594 7.09375 C 7.796875 7.09375 7.4375 7.226562 7.160156 7.449219 L 5.402344 6.359375 C 5.429688 6.242188 5.453125 6.128906 5.453125 6.003906 C 5.453125 5.875 5.429688 5.761719 5.402344 5.644531 L 7.160156 4.554688 C 7.4375 4.777344 7.796875 4.910156 8.183594 4.910156 C 9.085938 4.910156 9.816406 4.179688 9.816406 3.273438 C 9.816406 2.371094 9.085938 1.636719 8.183594 1.636719 Z M 8.183594 1.636719 "/>
</g>
</svg>
