<?xml version="1.0" encoding="UTF-8"?>
<svg xmlns="http://www.w3.org/2000/svg" xmlns:xlink="http://www.w3.org/1999/xlink" width="12pt" height="12pt" viewBox="0 0 12 12" version="1.1">
<g id="surface1">
<path style=" stroke:none;fill-rule:nonzero;fill:rgb(36.078431%,38.039216%,42.352941%);fill-opacity:1;" d="M 2.183594 2.183594 L 2.183594 3.273438 L 9.816406 3.273438 L 9.816406 2.183594 Z M 6.546875 4.363281 L 6.546875 7.636719 L 8.726562 7.636719 L 8.726562 8.726562 L 6.546875 8.726562 L 6.546875 9.816406 L 9.816406 9.816406 L 9.816406 6.546875 L 7.636719 6.546875 L 7.636719 5.453125 L 9.816406 5.453125 L 9.816406 4.363281 Z M 2.183594 4.367188 L 2.183594 5.457031 L 5.453125 5.457031 L 5.453125 4.367188 Z M 2.183594 6.546875 L 2.183594 7.636719 L 5.453125 7.636719 L 5.453125 6.546875 Z M 2.183594 8.726562 L 2.183594 9.816406 L 5.453125 9.816406 L 5.453125 8.726562 Z M 2.183594 8.726562 "/>
</g>
</svg>
