<?xml version="1.0" encoding="UTF-8"?>
<svg xmlns="http://www.w3.org/2000/svg" xmlns:xlink="http://www.w3.org/1999/xlink" width="12pt" height="12pt" viewBox="0 0 12 12" version="1.1">
<g id="surface1">
<path style=" stroke:none;fill-rule:nonzero;fill:rgb(36.078431%,38.039216%,42.352941%);fill-opacity:1;" d="M 2.183594 2.183594 L 2.183594 4.910156 L 4.910156 4.910156 L 4.910156 3.820312 L 5.453125 3.820312 L 5.453125 3.273438 L 4.910156 3.273438 L 4.910156 2.183594 Z M 7.089844 2.183594 L 7.089844 3.273438 L 6.546875 3.273438 L 6.546875 3.820312 L 7.089844 3.820312 L 7.089844 4.910156 L 9.816406 4.910156 L 9.816406 2.183594 Z M 4.910156 5.457031 L 6 7.09375 L 7.089844 5.457031 Z M 2.183594 7.09375 L 2.183594 9.820312 L 4.910156 9.820312 L 4.910156 8.730469 L 7.089844 8.730469 L 7.089844 9.820312 L 9.816406 9.820312 L 9.816406 7.09375 L 7.089844 7.09375 L 7.089844 8.183594 L 4.910156 8.183594 L 4.910156 7.09375 Z M 2.183594 7.09375 "/>
</g>
</svg>
