<?xml version="1.0" encoding="UTF-8"?>
<svg xmlns="http://www.w3.org/2000/svg" xmlns:xlink="http://www.w3.org/1999/xlink" width="12pt" height="12pt" viewBox="0 0 12 12" version="1.1">
<g id="surface1">
<path style=" stroke:none;fill-rule:nonzero;fill:rgb(36.078431%,38.039216%,42.352941%);fill-opacity:1;" d="M 5.035156 2.183594 L 4.953125 3.1875 C 4.628906 3.304688 4.332031 3.476562 4.066406 3.695312 L 3.144531 3.265625 L 2.183594 4.917969 L 3.019531 5.492188 C 2.988281 5.660156 2.972656 5.832031 2.972656 6 C 2.972656 6.171875 2.988281 6.339844 3.015625 6.507812 L 2.183594 7.082031 L 3.144531 8.734375 L 4.066406 8.304688 C 4.328125 8.523438 4.628906 8.695312 4.953125 8.808594 L 5.035156 9.816406 L 6.964844 9.816406 L 7.046875 8.8125 C 7.371094 8.695312 7.667969 8.523438 7.933594 8.304688 L 8.855469 8.734375 L 9.816406 7.082031 L 8.980469 6.507812 C 9.011719 6.339844 9.027344 6.167969 9.027344 6 C 9.027344 5.828125 9.011719 5.660156 8.984375 5.492188 L 9.816406 4.917969 L 8.855469 3.265625 L 7.933594 3.695312 C 7.671875 3.476562 7.371094 3.304688 7.046875 3.191406 L 6.964844 2.183594 Z M 6.546875 4.363281 L 6.164062 5.507812 L 7.636719 6 L 5.453125 7.636719 L 5.835938 6.492188 L 4.363281 6 Z M 6.546875 4.363281 "/>
</g>
</svg>
