<?xml version="1.0" encoding="UTF-8"?>
<svg xmlns="http://www.w3.org/2000/svg" xmlns:xlink="http://www.w3.org/1999/xlink" width="12pt" height="12pt" viewBox="0 0 12 12" version="1.1">
<g id="surface1">
<path style=" stroke:none;fill-rule:nonzero;fill:rgb(36.078431%,38.039216%,42.352941%);fill-opacity:1;" d="M 3.1875 1.636719 L 3.1875 1.640625 C 3.035156 1.664062 2.726562 1.765625 2.726562 2.148438 L 2.726562 8.761719 C 2.726562 9.269531 3.273438 9.273438 3.273438 9.273438 L 7.363281 9.273438 C 6.308594 9.273438 5.453125 8.417969 5.453125 7.363281 C 5.453125 6.308594 6.308594 5.453125 7.363281 5.453125 C 8.363281 5.453125 9.191406 6.222656 9.265625 7.21875 C 9.269531 6.019531 9.269531 4.578125 9.265625 3.675781 L 7.085938 1.636719 L 3.273438 1.636719 C 3.273438 1.636719 3.238281 1.628906 3.1875 1.636719 Z M 7.375 5.886719 C 6.558594 5.886719 5.890625 6.554688 5.890625 7.367188 C 5.890625 8.183594 6.558594 8.851562 7.375 8.851562 C 7.640625 8.851562 7.890625 8.769531 8.105469 8.648438 C 8.128906 8.691406 8.15625 8.730469 8.191406 8.765625 L 9.199219 9.753906 C 9.359375 9.914062 9.617188 9.914062 9.777344 9.753906 C 9.9375 9.59375 9.9375 9.335938 9.777344 9.175781 L 8.773438 8.1875 C 8.738281 8.152344 8.699219 8.121094 8.652344 8.101562 C 8.777344 7.886719 8.855469 7.632812 8.855469 7.367188 C 8.855469 6.554688 8.191406 5.886719 7.375 5.886719 Z M 7.375 6.429688 C 7.894531 6.429688 8.3125 6.847656 8.3125 7.367188 C 8.3125 7.890625 7.894531 8.304688 7.375 8.304688 C 6.851562 8.304688 6.4375 7.890625 6.4375 7.367188 C 6.4375 6.847656 6.851562 6.429688 7.375 6.429688 Z M 7.375 6.429688 "/>
</g>
</svg>
