<?xml version="1.0" encoding="UTF-8"?>
<svg xmlns="http://www.w3.org/2000/svg" xmlns:xlink="http://www.w3.org/1999/xlink" width="12pt" height="12pt" viewBox="0 0 12 12" version="1.1">
<g id="surface1">
<path style=" stroke:none;fill-rule:nonzero;fill:rgb(36.078431%,38.039216%,42.352941%);fill-opacity:1;" d="M 6 1.636719 C 4.800781 1.636719 3.835938 2.613281 3.816406 3.816406 L 3.816406 4.363281 L 4.910156 4.363281 L 4.910156 3.816406 C 4.910156 3.214844 5.394531 2.726562 6 2.726562 C 6.605469 2.726562 7.089844 3.214844 7.089844 3.816406 L 7.089844 6 L 3.273438 6 C 2.96875 6 2.726562 6.242188 2.726562 6.546875 L 2.726562 9.816406 C 2.726562 10.121094 2.96875 10.363281 3.273438 10.363281 L 8.726562 10.363281 C 9.03125 10.363281 9.273438 10.121094 9.273438 9.816406 L 9.273438 6.546875 C 9.273438 6.242188 9.03125 6 8.726562 6 L 8.183594 6 L 8.183594 3.851562 C 8.183594 2.628906 7.207031 1.636719 6 1.636719 Z M 6 1.636719 "/>
</g>
</svg>
