<?xml version="1.0" encoding="UTF-8"?>
<svg xmlns="http://www.w3.org/2000/svg" xmlns:xlink="http://www.w3.org/1999/xlink" width="12pt" height="12pt" viewBox="0 0 12 12" version="1.1">
<g id="surface1">
<path style=" stroke:none;fill-rule:nonzero;fill:rgb(36.078431%,38.039216%,42.352941%);fill-opacity:1;" d="M 6 1.636719 C 5.734375 2.566406 5.09375 3.367188 4.808594 4.003906 C 4.707031 4.195312 4.636719 4.40625 4.636719 4.636719 C 4.636719 5.390625 5.246094 6 6 6 C 6.753906 6 7.363281 5.390625 7.363281 4.636719 C 7.363281 4.40625 7.308594 4.195312 7.210938 4.003906 C 6.925781 3.367188 6.265625 2.566406 6 1.636719 Z M 3.546875 6 C 3.28125 6.929688 2.636719 7.730469 2.351562 8.371094 C 2.253906 8.558594 2.183594 8.769531 2.183594 9 C 2.183594 9.753906 2.789062 10.363281 3.546875 10.363281 C 4.300781 10.363281 4.910156 9.753906 4.910156 9 C 4.910156 8.769531 4.855469 8.558594 4.753906 8.371094 C 4.46875 7.730469 3.8125 6.929688 3.546875 6 Z M 8.453125 6 C 8.1875 6.929688 7.546875 7.730469 7.261719 8.371094 C 7.160156 8.558594 7.089844 8.769531 7.089844 9 C 7.089844 9.753906 7.699219 10.363281 8.453125 10.363281 C 9.210938 10.363281 9.816406 9.753906 9.816406 9 C 9.816406 8.769531 9.765625 8.558594 9.664062 8.371094 C 9.378906 7.730469 8.71875 6.929688 8.453125 6 Z M 8.453125 6 "/>
</g>
</svg>
