<?xml version="1.0" encoding="UTF-8"?>
<svg xmlns="http://www.w3.org/2000/svg" xmlns:xlink="http://www.w3.org/1999/xlink" width="12pt" height="12pt" viewBox="0 0 12 12" version="1.1">
<g id="surface1">
<path style=" stroke:none;fill-rule:nonzero;fill:rgb(36.078431%,38.039216%,42.352941%);fill-opacity:1;" d="M 4.363281 1.636719 C 2.851562 1.636719 1.636719 2.851562 1.636719 4.363281 C 1.636719 5.875 2.851562 7.089844 4.363281 7.089844 L 5.453125 7.089844 L 5.453125 6 L 4.363281 6 C 3.457031 6 2.726562 5.269531 2.726562 4.363281 C 2.726562 3.457031 3.457031 2.726562 4.363281 2.726562 L 5.453125 2.726562 L 5.453125 1.636719 Z M 6.546875 1.636719 L 6.546875 2.726562 L 7.636719 2.726562 C 8.542969 2.726562 9.273438 3.457031 9.273438 4.363281 C 9.273438 5.269531 8.542969 6 7.636719 6 L 6.546875 6 L 6.546875 7.089844 L 7.636719 7.089844 C 9.148438 7.089844 10.363281 5.875 10.363281 4.363281 C 10.363281 2.851562 9.148438 1.636719 7.636719 1.636719 Z M 4.363281 3.816406 L 4.363281 4.910156 L 7.636719 4.910156 L 7.636719 3.816406 Z M 8.40625 7.664062 L 7.636719 8.433594 L 8.214844 9.015625 L 7.636719 9.59375 L 8.40625 10.363281 L 8.984375 9.785156 L 9.566406 10.363281 L 10.335938 9.59375 L 9.757812 9.015625 L 10.335938 8.433594 L 9.566406 7.664062 L 8.984375 8.242188 Z M 8.40625 7.664062 "/>
</g>
</svg>
