<?xml version="1.0" encoding="UTF-8"?>
<svg xmlns="http://www.w3.org/2000/svg" xmlns:xlink="http://www.w3.org/1999/xlink" width="12pt" height="12pt" viewBox="0 0 12 12" version="1.1">
<g id="surface1">
<path style=" stroke:none;fill-rule:nonzero;fill:rgb(36.078431%,38.039216%,42.352941%);fill-opacity:1;" d="M 4.910156 2.726562 C 4.003906 2.726562 3.273438 3.460938 3.273438 4.363281 C 3.273438 5.265625 4.003906 6 4.910156 6 C 5.8125 6 6.546875 5.265625 6.546875 4.363281 C 6.546875 3.460938 5.8125 2.726562 4.910156 2.726562 Z M 7.636719 3.792969 C 7.425781 3.792969 7.226562 3.839844 7.046875 3.921875 C 7.074219 4.0625 7.089844 4.210938 7.089844 4.363281 C 7.089844 4.964844 6.84375 5.511719 6.445312 5.90625 C 6.695312 6.292969 7.132812 6.546875 7.636719 6.546875 C 8.417969 6.546875 9.050781 5.929688 9.050781 5.171875 C 9.050781 4.410156 8.417969 3.792969 7.636719 3.792969 Z M 4.910156 7.089844 C 1.636719 7.09375 1.636719 9.273438 1.636719 9.273438 L 1.636719 9.820312 C 2.117188 9.820312 9.007812 9.820312 7.089844 9.816406 C 6.789062 9.816406 6.546875 9.574219 6.546875 9.273438 L 6.546875 8.183594 C 6.546875 7.878906 6.789062 7.636719 7.089844 7.636719 L 7.175781 7.636719 C 6.691406 7.324219 5.976562 7.089844 4.910156 7.089844 Z M 8.183594 7.089844 L 8.183594 8.183594 L 7.089844 8.183594 L 7.089844 9.273438 L 8.183594 9.273438 L 8.183594 10.363281 L 9.273438 10.363281 L 9.273438 9.273438 L 10.363281 9.273438 L 10.363281 8.183594 L 9.273438 8.183594 L 9.273438 7.089844 Z M 8.183594 7.089844 "/>
</g>
</svg>
