<?xml version="1.0" encoding="UTF-8"?>
<svg xmlns="http://www.w3.org/2000/svg" xmlns:xlink="http://www.w3.org/1999/xlink" width="12pt" height="12pt" viewBox="0 0 12 12" version="1.1">
<g id="surface1">
<path style=" stroke:none;fill-rule:nonzero;fill:rgb(36.078431%,38.039216%,42.352941%);fill-opacity:1;" d="M 7.636719 1.636719 L 7.636719 2.589844 C 7.445312 2.578125 7.25 2.5625 7.070312 2.570312 C 6.5 2.582031 5.996094 2.667969 5.554688 2.816406 C 4.667969 3.113281 4.039062 3.667969 3.613281 4.339844 C 3.007812 5.296875 2.796875 6.488281 2.722656 7.636719 L 1.636719 7.636719 L 1.636719 10.363281 L 4.363281 10.363281 L 4.363281 9.242188 C 6.6875 8.988281 8.132812 7.714844 8.878906 6.371094 C 9.269531 5.671875 9.472656 4.964844 9.542969 4.363281 L 10.363281 4.363281 L 10.363281 1.636719 Z M 7.085938 3.113281 C 7.257812 3.109375 7.449219 3.125 7.636719 3.132812 L 7.636719 4.363281 L 8.996094 4.363281 C 8.925781 4.878906 8.742188 5.496094 8.40625 6.105469 C 7.734375 7.308594 6.480469 8.4375 4.363281 8.679688 L 4.363281 7.636719 L 3.285156 7.636719 C 3.355469 6.542969 3.554688 5.453125 4.074219 4.632812 C 4.441406 4.046875 4.957031 3.59375 5.726562 3.335938 C 6.113281 3.207031 6.5625 3.128906 7.085938 3.113281 Z M 7.085938 3.113281 "/>
</g>
</svg>
