<?xml version="1.0" encoding="UTF-8"?>
<svg xmlns="http://www.w3.org/2000/svg" xmlns:xlink="http://www.w3.org/1999/xlink" width="12pt" height="12pt" viewBox="0 0 12 12" version="1.1">
<g id="surface1">
<path style=" stroke:none;fill-rule:nonzero;fill:rgb(36.078431%,38.039216%,42.352941%);fill-opacity:1;" d="M 4.910156 2.726562 C 4.003906 2.726562 3.273438 3.460938 3.273438 4.363281 C 3.273438 5.265625 4.003906 6 4.910156 6 C 5.8125 6 6.546875 5.265625 6.546875 4.363281 C 6.546875 3.460938 5.8125 2.726562 4.910156 2.726562 Z M 7.632812 3.789062 L 7.636719 3.789062 C 7.425781 3.789062 7.226562 3.839844 7.046875 3.921875 C 7.074219 4.0625 7.089844 4.210938 7.089844 4.363281 C 7.089844 4.964844 6.84375 5.511719 6.445312 5.90625 C 6.695312 6.289062 7.132812 6.542969 7.632812 6.542969 C 8.414062 6.542969 9.050781 5.929688 9.050781 5.167969 C 9.050781 4.40625 8.414062 3.789062 7.632812 3.789062 Z M 4.910156 7.089844 C 1.636719 7.089844 1.636719 9.273438 1.636719 9.273438 L 1.636719 9.816406 L 8.183594 9.816406 L 8.183594 9.273438 C 8.183594 9.273438 8.183594 7.085938 4.910156 7.089844 Z M 7.636719 7.089844 C 7.53125 7.089844 7.433594 7.097656 7.335938 7.101562 C 7.714844 7.320312 8.003906 7.582031 8.210938 7.855469 C 8.722656 8.539062 8.726562 9.273438 8.726562 9.273438 L 10.363281 9.273438 L 10.363281 8.726562 C 10.363281 8.726562 10.363281 7.089844 7.636719 7.089844 Z M 7.636719 7.089844 "/>
</g>
</svg>
