<?xml version="1.0" encoding="UTF-8"?>
<svg xmlns="http://www.w3.org/2000/svg" xmlns:xlink="http://www.w3.org/1999/xlink" width="12pt" height="12pt" viewBox="0 0 12 12" version="1.1">
<g id="surface1">
<path style=" stroke:none;fill-rule:nonzero;fill:rgb(36.078431%,38.039216%,42.352941%);fill-opacity:1;" d="M 9.8125 1.90625 C 9.742188 1.90625 9.675781 1.9375 9.625 1.988281 L 6.429688 5.183594 L 5.183594 5.183594 L 5.183594 5.949219 L 2.105469 6.828125 C 2.007812 6.851562 1.933594 6.925781 1.90625 7.023438 C 1.878906 7.121094 1.910156 7.222656 1.984375 7.292969 C 2.054688 7.359375 2.160156 7.382812 2.257812 7.351562 L 5.0625 6.550781 L 1.988281 9.625 C 1.917969 9.691406 1.890625 9.792969 1.914062 9.890625 C 1.9375 9.984375 2.011719 10.058594 2.109375 10.085938 C 2.203125 10.109375 2.304688 10.082031 2.375 10.011719 L 5.566406 6.816406 L 6.816406 6.816406 L 6.816406 6.050781 L 9.894531 5.171875 C 10.027344 5.132812 10.109375 5.003906 10.089844 4.867188 C 10.070312 4.730469 9.953125 4.632812 9.816406 4.632812 C 9.792969 4.636719 9.765625 4.640625 9.742188 4.644531 L 6.9375 5.449219 L 10.011719 2.375 C 10.089844 2.296875 10.117188 2.175781 10.070312 2.070312 C 10.027344 1.96875 9.925781 1.902344 9.8125 1.90625 Z M 9.8125 1.90625 "/>
</g>
</svg>
