<?xml version="1.0" encoding="UTF-8"?>
<svg xmlns="http://www.w3.org/2000/svg" xmlns:xlink="http://www.w3.org/1999/xlink" width="12pt" height="12pt" viewBox="0 0 12 12" version="1.1">
<g id="surface1">
<path style=" stroke:none;fill-rule:nonzero;fill:rgb(36.078431%,38.039216%,42.352941%);fill-opacity:1;" d="M 2.183594 2.453125 L 2.191406 2.453125 C 2.046875 2.449219 1.921875 2.558594 1.90625 2.703125 C 1.894531 2.851562 2 2.980469 2.148438 2.996094 C 2.148438 2.996094 4.160156 3.277344 5.582031 4.1875 C 6.296875 4.640625 6.84375 5.226562 6.976562 5.996094 C 7.113281 6.765625 6.851562 7.777344 5.789062 9.101562 C 5.726562 9.183594 5.710938 9.296875 5.757812 9.390625 C 5.800781 9.484375 5.894531 9.542969 5.996094 9.546875 C 7.972656 9.546875 9.035156 8.816406 9.5625 8.066406 C 10.085938 7.3125 10.085938 6.542969 10.085938 6.542969 C 10.085938 6.445312 10.035156 6.351562 9.949219 6.304688 C 9.863281 6.253906 9.757812 6.253906 9.675781 6.304688 C 9.589844 6.351562 9.539062 6.445312 9.539062 6.542969 C 9.539062 6.542969 9.539062 7.136719 9.109375 7.75 C 8.738281 8.285156 7.921875 8.765625 6.523438 8.898438 C 7.304688 7.75 7.652344 6.730469 7.507812 5.898438 C 7.335938 4.929688 6.65625 4.222656 5.867188 3.722656 C 4.292969 2.71875 2.210938 2.453125 2.210938 2.453125 C 2.203125 2.453125 2.195312 2.453125 2.183594 2.453125 Z M 2.183594 2.453125 "/>
</g>
</svg>
