<?xml version="1.0" encoding="UTF-8"?>
<svg xmlns="http://www.w3.org/2000/svg" xmlns:xlink="http://www.w3.org/1999/xlink" width="12pt" height="12pt" viewBox="0 0 12 12" version="1.1">
<g id="surface1">
<path style=" stroke:none;fill-rule:nonzero;fill:rgb(36.078431%,38.039216%,42.352941%);fill-opacity:1;" d="M 8.515625 1.75 C 8.4375 1.75 8.367188 1.789062 8.316406 1.847656 C 8.269531 1.90625 8.25 1.984375 8.257812 2.0625 L 8.414062 3.199219 L 7.847656 3.765625 L 7.683594 2.546875 C 7.667969 2.40625 7.542969 2.300781 7.398438 2.308594 C 7.320312 2.3125 7.25 2.347656 7.203125 2.410156 C 7.152344 2.46875 7.132812 2.546875 7.144531 2.621094 L 7.363281 4.25 L 6.429688 5.183594 L 5.183594 5.183594 L 5.183594 5.949219 L 4.511719 6.140625 L 4.367188 5.09375 C 4.351562 4.949219 4.226562 4.84375 4.085938 4.851562 C 4.007812 4.855469 3.9375 4.890625 3.886719 4.953125 C 3.839844 5.011719 3.816406 5.089844 3.828125 5.164062 L 3.980469 6.292969 L 3.0625 6.554688 L 2.929688 5.59375 C 2.914062 5.449219 2.789062 5.34375 2.644531 5.351562 C 2.566406 5.355469 2.496094 5.390625 2.445312 5.453125 C 2.398438 5.511719 2.378906 5.589844 2.386719 5.664062 L 2.53125 6.707031 L 2.105469 6.828125 C 2.007812 6.851562 1.933594 6.925781 1.90625 7.023438 C 1.878906 7.121094 1.910156 7.222656 1.984375 7.292969 C 2.054688 7.359375 2.160156 7.382812 2.257812 7.351562 L 2.605469 7.253906 L 2.816406 8.796875 L 1.988281 9.625 C 1.917969 9.691406 1.890625 9.792969 1.914062 9.890625 C 1.9375 9.984375 2.011719 10.058594 2.109375 10.085938 C 2.203125 10.109375 2.304688 10.082031 2.375 10.011719 L 2.90625 9.476562 L 2.960938 9.867188 C 2.96875 9.96875 3.03125 10.054688 3.125 10.09375 C 3.214844 10.132812 3.324219 10.117188 3.402344 10.054688 C 3.480469 9.992188 3.515625 9.894531 3.5 9.792969 L 3.390625 8.992188 L 4.234375 8.152344 L 4.398438 9.367188 C 4.410156 9.46875 4.472656 9.554688 4.5625 9.59375 C 4.65625 9.632812 4.761719 9.617188 4.839844 9.554688 C 4.917969 9.492188 4.957031 9.390625 4.9375 9.292969 L 4.71875 7.667969 L 5.566406 6.816406 L 6.816406 6.816406 L 6.816406 6.050781 L 7.578125 5.832031 L 7.714844 6.824219 C 7.734375 6.972656 7.871094 7.078125 8.019531 7.058594 C 8.167969 7.039062 8.273438 6.898438 8.253906 6.75 L 8.109375 5.679688 L 8.726562 5.503906 L 8.832031 6.265625 C 8.839844 6.363281 8.902344 6.449219 8.996094 6.488281 C 9.085938 6.527344 9.195312 6.515625 9.273438 6.453125 C 9.351562 6.390625 9.386719 6.289062 9.371094 6.191406 L 9.257812 5.351562 L 9.894531 5.171875 C 10.027344 5.132812 10.109375 5.003906 10.089844 4.867188 C 10.070312 4.730469 9.953125 4.632812 9.816406 4.632812 C 9.792969 4.636719 9.765625 4.640625 9.742188 4.644531 L 9.183594 4.804688 L 8.992188 3.394531 L 10.011719 2.375 C 10.089844 2.296875 10.117188 2.175781 10.070312 2.070312 C 10.027344 1.96875 9.925781 1.902344 9.8125 1.90625 C 9.742188 1.90625 9.675781 1.9375 9.625 1.988281 L 8.898438 2.714844 L 8.800781 1.988281 C 8.785156 1.847656 8.660156 1.742188 8.515625 1.75 Z M 8.507812 3.878906 L 8.652344 4.957031 L 8.035156 5.132812 L 7.941406 4.445312 Z M 7.457031 4.929688 L 7.503906 5.285156 L 6.9375 5.449219 Z M 5.0625 6.550781 L 4.625 6.988281 L 4.585938 6.6875 Z M 4.054688 6.839844 L 4.140625 7.472656 L 3.300781 8.3125 L 3.132812 7.101562 Z M 4.054688 6.839844 "/>
</g>
</svg>
