<?xml version="1.0" encoding="UTF-8"?>
<svg xmlns="http://www.w3.org/2000/svg" xmlns:xlink="http://www.w3.org/1999/xlink" width="12pt" height="12pt" viewBox="0 0 12 12" version="1.1">
<g id="surface1">
<path style=" stroke:none;fill-rule:nonzero;fill:rgb(36.078431%,38.039216%,42.352941%);fill-opacity:1;" d="M 3.816406 2.183594 L 3.816406 3.273438 L 8.183594 3.273438 L 8.183594 2.183594 Z M 2.726562 3.816406 C 2.453125 3.816406 2.183594 4.089844 2.183594 4.363281 L 2.183594 6.546875 C 2.183594 6.816406 2.453125 7.089844 2.726562 7.089844 L 3.273438 7.089844 L 3.273438 6 L 6.066406 6 C 6.429688 5.65625 6.914062 5.4375 7.449219 5.4375 C 8.421875 5.4375 9.242188 6.136719 9.425781 7.058594 C 9.640625 6.980469 9.816406 6.765625 9.816406 6.546875 L 9.816406 4.363281 C 9.816406 4.089844 9.546875 3.816406 9.273438 3.816406 Z M 7.449219 5.96875 C 6.636719 5.96875 5.96875 6.632812 5.96875 7.449219 C 5.96875 8.265625 6.636719 8.933594 7.449219 8.933594 C 7.714844 8.933594 7.96875 8.851562 8.183594 8.726562 C 8.203125 8.773438 8.234375 8.8125 8.269531 8.847656 L 9.273438 9.835938 C 9.433594 9.996094 9.695312 9.996094 9.855469 9.835938 C 10.015625 9.675781 10.015625 9.417969 9.855469 9.257812 L 8.847656 8.269531 C 8.8125 8.234375 8.773438 8.203125 8.730469 8.183594 C 8.851562 7.964844 8.933594 7.714844 8.933594 7.449219 C 8.933594 6.632812 8.265625 5.96875 7.449219 5.96875 Z M 7.449219 6.511719 C 7.972656 6.511719 8.386719 6.929688 8.386719 7.449219 C 8.386719 7.972656 7.972656 8.386719 7.449219 8.386719 C 6.929688 8.386719 6.511719 7.972656 6.511719 7.449219 C 6.511719 6.929688 6.929688 6.511719 7.449219 6.511719 Z M 3.816406 6.546875 L 3.816406 9.273438 L 6.597656 9.273438 C 5.914062 8.949219 5.4375 8.25 5.4375 7.449219 C 5.4375 7.125 5.519531 6.816406 5.660156 6.546875 Z M 3.816406 6.546875 "/>
</g>
</svg>
