<?xml version="1.0" encoding="UTF-8"?>
<svg xmlns="http://www.w3.org/2000/svg" xmlns:xlink="http://www.w3.org/1999/xlink" width="12pt" height="12pt" viewBox="0 0 12 12" version="1.1">
<g id="surface1">
<path style=" stroke:none;fill-rule:nonzero;fill:rgb(36.078431%,38.039216%,42.352941%);fill-opacity:1;" d="M 3.273438 2.183594 C 3.273438 2.183594 2.726562 2.183594 2.726562 2.730469 L 2.726562 4.230469 L 3.816406 4.859375 L 3.816406 3.273438 L 8.183594 3.273438 L 8.183594 8.171875 L 1.636719 4.359375 L 1.636719 8.175781 L 8.183594 8.175781 L 8.183594 8.730469 L 2.726562 8.730469 L 2.726562 9.273438 C 2.726562 9.820312 3.273438 9.820312 3.273438 9.820312 L 8.726562 9.820312 C 8.726562 9.820312 9.273438 9.820312 9.273438 9.273438 L 9.273438 2.730469 C 9.273438 2.183594 8.726562 2.183594 8.726562 2.183594 Z M 2.726562 6.027344 L 4.425781 7.105469 L 2.726562 7.105469 Z M 2.726562 6.027344 "/>
</g>
</svg>
