<?xml version="1.0" encoding="UTF-8"?>
<svg xmlns="http://www.w3.org/2000/svg" xmlns:xlink="http://www.w3.org/1999/xlink" width="12pt" height="12pt" viewBox="0 0 12 12" version="1.1">
<g id="surface1">
<path style=" stroke:none;fill-rule:nonzero;fill:rgb(36.078431%,38.039216%,42.352941%);fill-opacity:1;" d="M 6 1.636719 C 3.589844 1.636719 1.636719 3.589844 1.636719 6 C 1.636719 8.410156 3.589844 10.363281 6 10.363281 C 8.410156 10.363281 10.363281 8.410156 10.363281 6 C 10.363281 3.589844 8.410156 1.636719 6 1.636719 Z M 6.84375 2.679688 C 6.84375 5.800781 9.238281 6.253906 8.628906 8.03125 C 8.277344 9.046875 7.429688 9.816406 5.949219 9.816406 C 5.945312 9.816406 5.941406 9.816406 5.9375 9.816406 C 6.667969 9.8125 7.089844 9.429688 7.261719 8.925781 C 7.570312 8.035156 6.371094 7.808594 6.371094 6.25 C 5.253906 6.695312 4.585938 7.742188 4.585938 8.480469 C 4.585938 9.121094 5.035156 9.652344 5.632812 9.785156 C 4.304688 9.625 3.273438 8.511719 3.273438 7.140625 C 3.273438 5.664062 4.609375 3.570312 6.84375 2.679688 Z M 6.84375 2.679688 "/>
</g>
</svg>
