<?xml version="1.0" encoding="UTF-8"?>
<svg xmlns="http://www.w3.org/2000/svg" xmlns:xlink="http://www.w3.org/1999/xlink" width="12pt" height="12pt" viewBox="0 0 12 12" version="1.1">
<g id="surface1">
<path style=" stroke:none;fill-rule:nonzero;fill:rgb(36.078431%,38.039216%,42.352941%);fill-opacity:1;" d="M 6 1.636719 C 3.589844 1.636719 1.636719 3.589844 1.636719 6 C 1.636719 8.410156 3.589844 10.363281 6 10.363281 C 8.410156 10.363281 10.363281 8.410156 10.363281 6 C 10.363281 3.589844 8.410156 1.636719 6 1.636719 Z M 4.910156 3.273438 L 8.183594 3.273438 L 8.183594 7.636719 C 8.183594 8.238281 7.695312 8.726562 7.089844 8.726562 C 6.488281 8.726562 6 8.238281 6 7.636719 C 6 7.035156 6.488281 6.546875 7.089844 6.546875 C 7.28125 6.546875 7.46875 6.597656 7.636719 6.691406 L 7.636719 4.363281 L 5.453125 4.363281 L 5.453125 7.636719 C 5.453125 8.238281 4.964844 8.726562 4.363281 8.726562 C 3.761719 8.726562 3.273438 8.238281 3.273438 7.636719 C 3.273438 7.035156 3.761719 6.546875 4.363281 6.546875 C 4.554688 6.546875 4.742188 6.597656 4.910156 6.691406 Z M 4.910156 3.273438 "/>
</g>
</svg>
