<?xml version="1.0" encoding="UTF-8"?>
<svg xmlns="http://www.w3.org/2000/svg" xmlns:xlink="http://www.w3.org/1999/xlink" width="12pt" height="12pt" viewBox="0 0 12 12" version="1.1">
<g id="surface1">
<path style=" stroke:none;fill-rule:nonzero;fill:rgb(36.078431%,38.039216%,42.352941%);fill-opacity:1;" d="M 2.726562 2.726562 C 2.121094 2.726562 1.636719 3.214844 1.636719 3.816406 L 1.636719 8.183594 C 1.636719 8.785156 2.121094 9.273438 2.726562 9.273438 L 9.273438 9.273438 C 9.878906 9.273438 10.363281 8.785156 10.363281 8.183594 L 10.363281 3.816406 C 10.363281 3.214844 9.878906 2.726562 9.273438 2.726562 Z M 5.453125 4.363281 L 6.546875 4.363281 L 6.546875 5.453125 L 7.636719 5.453125 L 7.636719 6.542969 L 6.546875 6.542969 L 6.546875 7.632812 L 5.453125 7.632812 L 5.453125 6.542969 L 4.363281 6.542969 L 4.363281 5.453125 L 5.453125 5.453125 Z M 5.453125 4.363281 "/>
</g>
</svg>
