<?xml version="1.0" encoding="UTF-8"?>
<svg xmlns="http://www.w3.org/2000/svg" xmlns:xlink="http://www.w3.org/1999/xlink" width="12pt" height="12pt" viewBox="0 0 12 12" version="1.1">
<g id="surface1">
<path style=" stroke:none;fill-rule:nonzero;fill:rgb(36.078431%,38.039216%,42.352941%);fill-opacity:1;" d="M 2.726562 2.726562 C 2.121094 2.726562 1.636719 3.214844 1.636719 3.816406 L 1.636719 8.183594 C 1.636719 8.785156 2.121094 9.273438 2.726562 9.273438 L 6 9.273438 L 6 6.546875 L 2.726562 4.910156 L 2.726562 3.816406 L 6 5.453125 L 9.273438 3.816406 L 9.273438 4.910156 L 8.183594 5.453125 L 9.816406 5.453125 C 10.015625 5.453125 10.203125 5.511719 10.363281 5.609375 L 10.363281 3.816406 C 10.363281 3.214844 9.878906 2.726562 9.273438 2.726562 Z M 7.089844 6 C 6.789062 6 6.546875 6.242188 6.546875 6.546875 L 6.546875 9.273438 C 6.546875 9.574219 6.789062 9.816406 7.089844 9.816406 L 9.816406 9.816406 C 10.121094 9.816406 10.363281 9.574219 10.363281 9.273438 L 10.363281 6.546875 C 10.363281 6.242188 10.121094 6 9.816406 6 Z M 7.089844 6.546875 L 7.636719 6.546875 L 7.636719 7.089844 L 8.183594 7.089844 L 8.183594 7.636719 L 8.726562 7.636719 L 8.726562 7.089844 L 9.273438 7.089844 L 9.273438 6.546875 L 9.816406 6.546875 L 9.816406 9.273438 L 9.273438 9.273438 L 9.273438 7.636719 L 8.726562 7.636719 L 8.726562 8.183594 L 8.183594 8.183594 L 8.183594 7.636719 L 7.636719 7.636719 L 7.636719 9.273438 L 7.089844 9.273438 Z M 7.089844 6.546875 "/>
</g>
</svg>
