<?xml version="1.0" encoding="UTF-8"?>
<svg xmlns="http://www.w3.org/2000/svg" xmlns:xlink="http://www.w3.org/1999/xlink" width="12pt" height="12pt" viewBox="0 0 12 12" version="1.1">
<g id="surface1">
<path style=" stroke:none;fill-rule:nonzero;fill:rgb(36.078431%,38.039216%,42.352941%);fill-opacity:1;" d="M 3.816406 2.730469 C 3.816406 2.730469 2.726562 2.730469 2.726562 3.820312 L 2.726562 7.636719 C 2.726562 8.183594 2.183594 8.183594 2.183594 8.183594 L 1.636719 8.183594 L 1.636719 9.273438 L 10.363281 9.273438 L 10.363281 8.183594 L 9.816406 8.183594 C 9.816406 8.183594 9.273438 8.183594 9.273438 7.636719 L 9.273438 3.820312 C 9.273438 3.820312 9.273438 2.730469 8.183594 2.730469 Z M 5.453125 4.367188 L 6.546875 4.367188 L 6.546875 5.457031 L 7.636719 5.457031 L 7.636719 6.546875 L 6.546875 6.546875 L 6.546875 7.636719 L 5.453125 7.636719 L 5.453125 6.546875 L 4.363281 6.546875 L 4.363281 5.457031 L 5.453125 5.457031 Z M 5.453125 4.367188 "/>
</g>
</svg>
