<?xml version="1.0" encoding="UTF-8"?>
<svg xmlns="http://www.w3.org/2000/svg" xmlns:xlink="http://www.w3.org/1999/xlink" width="12pt" height="12pt" viewBox="0 0 12 12" version="1.1">
<g id="surface1">
<path style=" stroke:none;fill-rule:nonzero;fill:rgb(36.078431%,38.039216%,42.352941%);fill-opacity:1;" d="M 6 2.726562 C 4.488281 2.726562 3.273438 3.945312 3.273438 5.453125 L 3.273438 9.273438 L 5.453125 9.273438 L 5.453125 5.453125 C 5.453125 5.152344 5.699219 4.910156 6 4.910156 C 6.300781 4.910156 6.546875 5.152344 6.546875 5.453125 L 6.546875 9.273438 L 8.726562 9.273438 L 8.726562 5.453125 C 8.726562 3.945312 7.511719 2.726562 6 2.726562 Z M 6 3.273438 C 7.207031 3.273438 8.183594 4.246094 8.183594 5.453125 L 8.183594 8.726562 L 7.089844 8.726562 L 7.089844 5.453125 C 7.089844 4.851562 6.605469 4.363281 6 4.363281 C 5.394531 4.363281 4.910156 4.851562 4.910156 5.453125 L 4.910156 8.726562 L 3.816406 8.726562 L 3.816406 5.453125 C 3.816406 4.246094 4.792969 3.273438 6 3.273438 Z M 6 3.273438 "/>
</g>
</svg>
