<?xml version="1.0" encoding="UTF-8"?>
<svg xmlns="http://www.w3.org/2000/svg" xmlns:xlink="http://www.w3.org/1999/xlink" width="12pt" height="12pt" viewBox="0 0 12 12" version="1.1">
<g id="surface1">
<path style=" stroke:none;fill-rule:nonzero;fill:rgb(36.078431%,38.039216%,42.352941%);fill-opacity:1;" d="M 3.546875 2.183594 C 2.792969 2.183594 2.183594 2.792969 2.183594 3.546875 C 2.183594 4.195312 2.636719 4.75 3.273438 4.882812 L 3.273438 7.066406 C 2.636719 7.195312 2.183594 7.753906 2.183594 8.398438 C 2.183594 9.152344 2.792969 9.765625 3.546875 9.765625 C 4.296875 9.765625 4.910156 9.152344 4.910156 8.398438 C 4.910156 7.753906 4.453125 7.195312 3.816406 7.0625 L 3.816406 4.878906 C 4.03125 4.835938 4.230469 4.742188 4.398438 4.609375 L 5.0625 5.105469 C 4.960938 5.296875 4.910156 5.511719 4.910156 5.726562 C 4.910156 6.480469 5.519531 7.089844 6.273438 7.089844 C 7.027344 7.089844 7.636719 6.480469 7.636719 5.726562 C 7.636719 4.972656 7.027344 4.363281 6.273438 4.363281 C 5.949219 4.363281 5.636719 4.480469 5.390625 4.6875 L 4.742188 4.203125 C 4.851562 4 4.910156 3.773438 4.910156 3.546875 C 4.910156 2.792969 4.296875 2.183594 3.546875 2.183594 Z M 7.910156 6.546875 L 7.789062 6.648438 L 6 8.183594 L 7.089844 8.183594 L 7.089844 9.816406 L 8.726562 9.816406 L 8.726562 8.183594 L 9.816406 8.183594 L 8.027344 6.648438 Z M 7.910156 6.546875 "/>
</g>
</svg>
