<?xml version="1.0" encoding="UTF-8"?>
<svg xmlns="http://www.w3.org/2000/svg" xmlns:xlink="http://www.w3.org/1999/xlink" width="12pt" height="12pt" viewBox="0 0 12 12" version="1.1">
<defs>
<filter id="alpha" filterUnits="objectBoundingBox" x="0%" y="0%" width="100%" height="100%">
  <feColorMatrix type="matrix" in="SourceGraphic" values="0 0 0 0 1 0 0 0 0 1 0 0 0 0 1 0 0 0 1 0"/>
</filter>
<mask id="mask0">
  <g filter="url(#alpha)">
<rect x="0" y="0" width="12" height="12" style="fill:rgb(0%,0%,0%);fill-opacity:0.301961;stroke:none;"/>
  </g>
</mask>
<clipPath id="clip1">
  <rect width="12" height="12"/>
</clipPath>
<g id="surface6" clip-path="url(#clip1)">
<path style=" stroke:none;fill-rule:nonzero;fill:rgb(36.078431%,38.039216%,42.352941%);fill-opacity:1;" d="M 3.816406 2.726562 C 3.816406 2.726562 2.726562 2.726562 2.726562 3.816406 L 2.726562 7.636719 C 2.726562 8.183594 2.183594 8.183594 2.183594 8.183594 L 1.636719 8.183594 L 1.636719 9.273438 L 10.363281 9.273438 L 10.363281 8.183594 L 9.816406 8.183594 C 9.816406 8.183594 9.273438 8.183594 9.273438 7.636719 L 9.273438 3.816406 C 9.273438 3.816406 9.273438 2.726562 8.183594 2.726562 Z M 5.453125 4.363281 L 6.546875 4.363281 L 6.546875 5.453125 L 7.636719 5.453125 L 7.636719 6.546875 L 6.546875 6.546875 L 6.546875 7.636719 L 5.453125 7.636719 L 5.453125 6.546875 L 4.363281 6.546875 L 4.363281 5.453125 L 5.453125 5.453125 Z M 5.453125 4.363281 "/>
</g>
</defs>
<g id="surface1">
<use xlink:href="#surface6" mask="url(#mask0)"/>
</g>
</svg>
