<?xml version="1.0" encoding="UTF-8"?>
<svg xmlns="http://www.w3.org/2000/svg" xmlns:xlink="http://www.w3.org/1999/xlink" width="12pt" height="12pt" viewBox="0 0 12 12" version="1.1">
<g id="surface1">
<path style=" stroke:none;fill-rule:nonzero;fill:rgb(36.078431%,38.039216%,42.352941%);fill-opacity:1;" d="M 7.636719 1.636719 L 7.636719 4.910156 L 9.273438 4.910156 C 9.878906 4.910156 10.363281 4.421875 10.363281 3.816406 C 10.363281 3.375 10.101562 3 9.722656 2.828125 C 9.78125 2.714844 9.816406 2.589844 9.816406 2.453125 C 9.816406 2 9.453125 1.636719 9 1.636719 Z M 5.453125 2.183594 L 2.726562 9.816406 L 4.089844 9.816406 L 4.671875 8.183594 L 7.328125 8.183594 L 7.910156 9.816406 L 9.425781 9.816406 L 6.546875 2.183594 Z M 8.183594 2.183594 L 9 2.183594 C 9.152344 2.183594 9.273438 2.304688 9.273438 2.453125 C 9.273438 2.605469 9.152344 2.726562 9 2.726562 L 8.183594 2.726562 Z M 8.183594 3.273438 L 9.273438 3.273438 C 9.574219 3.273438 9.816406 3.515625 9.816406 3.816406 C 9.816406 4.121094 9.574219 4.363281 9.273438 4.363281 L 8.183594 4.363281 Z M 6 4.363281 L 6.953125 7.089844 L 5.046875 7.089844 Z M 6 4.363281 "/>
</g>
</svg>
