<?xml version="1.0" encoding="UTF-8"?>
<svg xmlns="http://www.w3.org/2000/svg" xmlns:xlink="http://www.w3.org/1999/xlink" width="12pt" height="12pt" viewBox="0 0 12 12" version="1.1">
<g id="surface1">
<path style=" stroke:none;fill-rule:nonzero;fill:rgb(36.078431%,38.039216%,42.352941%);fill-opacity:1;" d="M 6.441406 2.21875 C 5.910156 2.222656 5.460938 2.605469 5.371094 3.132812 C 5.273438 3.726562 5.675781 4.285156 6.269531 4.386719 C 6.863281 4.484375 7.425781 4.082031 7.523438 3.488281 C 7.625 2.894531 7.222656 2.332031 6.628906 2.234375 C 6.566406 2.222656 6.503906 2.21875 6.441406 2.21875 Z M 4.136719 2.953125 C 3.835938 2.953125 3.59375 3.199219 3.59375 3.5 C 3.59375 3.800781 3.835938 4.042969 4.136719 4.042969 C 4.4375 4.042969 4.683594 3.800781 4.683594 3.5 C 4.683594 3.199219 4.4375 2.953125 4.136719 2.953125 Z M 8.675781 3.484375 C 8.375 3.484375 8.128906 3.726562 8.128906 4.027344 C 8.128906 4.332031 8.375 4.574219 8.675781 4.574219 C 8.976562 4.574219 9.21875 4.332031 9.21875 4.027344 C 9.21875 3.726562 8.976562 3.484375 8.675781 3.484375 Z M 3.304688 4.460938 C 2.773438 4.464844 2.320312 4.851562 2.234375 5.375 C 2.136719 5.96875 2.539062 6.53125 3.132812 6.628906 C 3.726562 6.726562 4.289062 6.328125 4.386719 5.734375 C 4.488281 5.136719 4.085938 4.574219 3.488281 4.476562 C 3.429688 4.46875 3.367188 4.460938 3.304688 4.460938 Z M 6.132812 5.242188 C 5.832031 5.242188 5.585938 5.484375 5.585938 5.785156 C 5.585938 6.085938 5.832031 6.332031 6.132812 6.332031 C 6.433594 6.332031 6.679688 6.085938 6.679688 5.785156 C 6.679688 5.484375 6.433594 5.242188 6.132812 5.242188 Z M 8.6875 5.355469 C 8.15625 5.359375 7.703125 5.742188 7.617188 6.265625 C 7.515625 6.863281 7.917969 7.421875 8.511719 7.523438 C 9.109375 7.621094 9.671875 7.21875 9.769531 6.625 C 9.867188 6.03125 9.464844 5.46875 8.871094 5.371094 C 8.808594 5.359375 8.746094 5.355469 8.6875 5.355469 Z M 3.269531 7.308594 C 2.96875 7.308594 2.726562 7.554688 2.726562 7.855469 C 2.726562 8.15625 2.96875 8.398438 3.269531 8.398438 C 3.570312 8.398438 3.816406 8.15625 3.816406 7.855469 C 3.816406 7.554688 3.570312 7.308594 3.269531 7.308594 Z M 5.546875 7.597656 C 5.015625 7.601562 4.566406 7.988281 4.480469 8.511719 C 4.382812 9.105469 4.78125 9.667969 5.375 9.765625 C 5.972656 9.867188 6.535156 9.464844 6.632812 8.867188 C 6.730469 8.273438 6.328125 7.714844 5.734375 7.613281 C 5.671875 7.605469 5.609375 7.597656 5.546875 7.597656 Z M 8.050781 8.183594 C 7.75 8.183594 7.507812 8.425781 7.507812 8.726562 C 7.507812 9.027344 7.75 9.273438 8.050781 9.273438 C 8.351562 9.273438 8.597656 9.027344 8.597656 8.726562 C 8.597656 8.425781 8.351562 8.183594 8.050781 8.183594 Z M 8.050781 8.183594 "/>
</g>
</svg>
