<?xml version="1.0" encoding="UTF-8"?>
<svg xmlns="http://www.w3.org/2000/svg" xmlns:xlink="http://www.w3.org/1999/xlink" width="12pt" height="12pt" viewBox="0 0 12 12" version="1.1">
<g id="surface1">
<path style=" stroke:none;fill-rule:nonzero;fill:rgb(36.078431%,38.039216%,42.352941%);fill-opacity:1;" d="M 6.390625 2.339844 C 5.511719 2.339844 4.710938 2.695312 4.121094 3.265625 C 4.542969 3.09375 4.996094 3.003906 5.453125 3.003906 C 7.414062 3.003906 9 4.589844 9 6.546875 C 9 7.003906 8.910156 7.457031 8.738281 7.878906 C 9.308594 7.289062 9.664062 6.492188 9.664062 5.613281 C 9.664062 3.816406 8.1875 2.339844 6.390625 2.339844 Z M 5.453125 3.273438 C 3.65625 3.273438 2.183594 4.75 2.183594 6.546875 C 2.183594 8.34375 3.65625 9.816406 5.453125 9.816406 C 7.25 9.816406 8.726562 8.34375 8.726562 6.546875 C 8.726562 4.75 7.25 3.273438 5.453125 3.273438 Z M 5.453125 5.609375 C 5.96875 5.609375 6.390625 6.03125 6.390625 6.546875 C 6.390625 7.058594 5.96875 7.480469 5.453125 7.480469 C 4.941406 7.480469 4.519531 7.058594 4.519531 6.546875 C 4.519531 6.03125 4.941406 5.609375 5.453125 5.609375 Z M 5.453125 5.609375 "/>
</g>
</svg>
