<?xml version="1.0" encoding="UTF-8"?>
<svg xmlns="http://www.w3.org/2000/svg" xmlns:xlink="http://www.w3.org/1999/xlink" width="12pt" height="12pt" viewBox="0 0 12 12" version="1.1">
<g id="surface1">
<path style=" stroke:none;fill-rule:nonzero;fill:rgb(60%,60%,60%);fill-opacity:1;" d="M 0.816406 2 L 0.816406 10 L 2.289062 10 L 2.289062 4.945312 L 5.480469 10 L 6.886719 10 L 6.886719 2 L 5.398438 2 L 5.398438 7.074219 L 2.226562 2 Z M 9.105469 3.492188 C 8.496094 3.492188 7.964844 3.703125 7.578125 4.113281 L 7.574219 4.113281 C 7.191406 4.523438 7.003906 5.085938 7.003906 5.734375 C 7.003906 6.519531 7.195312 7.144531 7.625 7.546875 L 7.628906 7.546875 C 8.011719 7.898438 8.488281 8.070312 9 8.089844 L 7.097656 8.089844 L 7.097656 9.398438 L 11.074219 9.398438 L 11.074219 8.089844 L 9.125 8.089844 C 9.707031 8.070312 10.226562 7.878906 10.597656 7.476562 L 10.601562 7.472656 C 10.992188 7.050781 11.183594 6.472656 11.183594 5.796875 C 11.183594 5.128906 10.996094 4.554688 10.617188 4.132812 C 10.238281 3.710938 9.710938 3.492188 9.105469 3.492188 Z M 9.085938 4.734375 C 9.234375 4.734375 9.367188 4.792969 9.523438 4.960938 L 9.527344 4.964844 C 9.652344 5.097656 9.746094 5.363281 9.746094 5.796875 C 9.746094 6.207031 9.660156 6.46875 9.527344 6.625 C 9.378906 6.796875 9.25 6.855469 9.089844 6.855469 C 8.910156 6.855469 8.785156 6.792969 8.644531 6.617188 C 8.523438 6.457031 8.4375 6.179688 8.4375 5.765625 C 8.4375 5.367188 8.523438 5.113281 8.644531 4.964844 C 8.789062 4.792969 8.914062 4.734375 9.085938 4.734375 Z M 9.085938 4.734375 "/>
</g>
</svg>
