<?xml version="1.0" encoding="UTF-8"?>
<svg xmlns="http://www.w3.org/2000/svg" xmlns:xlink="http://www.w3.org/1999/xlink" width="12pt" height="12pt" viewBox="0 0 12 12" version="1.1">
<g id="surface1">
<path style=" stroke:none;fill-rule:nonzero;fill:rgb(36.078431%,38.039216%,42.352941%);fill-opacity:1;" d="M 7.636719 1.636719 L 7.636719 2.484375 C 7.4375 2.496094 7.242188 2.507812 7.027344 2.527344 C 6.332031 2.59375 5.574219 2.707031 4.910156 2.925781 L 4.910156 2.726562 L 2.726562 2.726562 L 2.726562 4.910156 L 2.796875 4.910156 C 2.484375 5.648438 2.292969 6.507812 2.164062 7.304688 C 2.144531 7.421875 2.132812 7.523438 2.117188 7.636719 L 1.636719 7.636719 L 1.636719 9.816406 L 2.183594 9.816406 L 2.453125 9.824219 L 2.453125 9.816406 L 3.816406 9.816406 L 3.816406 7.636719 L 2.667969 7.636719 C 2.679688 7.550781 2.6875 7.476562 2.699219 7.390625 C 2.84375 6.535156 3.082031 5.617188 3.414062 4.910156 L 4.910156 4.910156 L 4.910156 3.519531 C 5.542969 3.285156 6.34375 3.140625 7.082031 3.070312 C 7.273438 3.050781 7.453125 3.039062 7.636719 3.03125 L 7.636719 3.816406 L 9.816406 3.816406 L 9.816406 1.636719 Z M 5.453125 4.910156 L 8.074219 9.816406 L 9.816406 7.976562 Z M 5.453125 4.910156 "/>
</g>
</svg>
