<?xml version="1.0" encoding="UTF-8"?>
<svg xmlns="http://www.w3.org/2000/svg" xmlns:xlink="http://www.w3.org/1999/xlink" width="12pt" height="12pt" viewBox="0 0 12 12" version="1.1">
<g id="surface1">
<path style=" stroke:none;fill-rule:nonzero;fill:rgb(36.078431%,38.039216%,42.352941%);fill-opacity:1;" d="M 2.757812 3.273438 L 3.929688 4.164062 L 2.726562 5.078125 L 2.726562 5.09375 L 3.917969 6 L 3.941406 6 L 5.128906 5.09375 L 3.929688 4.179688 L 5.125 3.273438 Z M 5.164062 3.273438 L 6.332031 4.164062 L 7.503906 3.273438 Z M 7.589844 3.273438 L 8.726562 4.136719 L 8.726562 3.273438 Z M 6.359375 4.179688 L 5.15625 5.09375 L 6.34375 6 L 7.546875 5.085938 Z M 7.546875 5.085938 L 8.726562 5.984375 L 8.726562 4.1875 Z M 7.640625 6.554688 L 7.640625 7.640625 L 6.546875 7.640625 L 6.546875 8.183594 L 7.640625 8.183594 L 7.640625 9.273438 L 9.277344 7.914062 Z M 3.816406 7.632812 L 3.816406 8.195312 L 4.363281 8.195312 L 4.363281 7.632812 Z M 4.917969 7.632812 L 4.917969 8.195312 L 5.992188 8.195312 L 5.992188 7.632812 Z M 4.917969 7.632812 "/>
</g>
</svg>
