<?xml version="1.0" encoding="UTF-8"?>
<svg xmlns="http://www.w3.org/2000/svg" xmlns:xlink="http://www.w3.org/1999/xlink" width="12pt" height="12pt" viewBox="0 0 12 12" version="1.1">
<defs>
<filter id="alpha" filterUnits="objectBoundingBox" x="0%" y="0%" width="100%" height="100%">
  <feColorMatrix type="matrix" in="SourceGraphic" values="0 0 0 0 1 0 0 0 0 1 0 0 0 0 1 0 0 0 1 0"/>
</filter>
<mask id="mask0">
  <g filter="url(#alpha)">
<rect x="0" y="0" width="12" height="12" style="fill:rgb(0%,0%,0%);fill-opacity:0.301961;stroke:none;"/>
  </g>
</mask>
<clipPath id="clip1">
  <rect width="12" height="12"/>
</clipPath>
<g id="surface6" clip-path="url(#clip1)">
<path style=" stroke:none;fill-rule:nonzero;fill:rgb(36.078431%,38.039216%,42.352941%);fill-opacity:1;" d="M 2.726562 2.726562 L 2.726562 6.546875 L 7.089844 6.546875 L 7.089844 6 L 9.273438 6 L 9.273438 2.726562 Z M 2.726562 2.726562 "/>
</g>
</defs>
<g id="surface1">
<path style=" stroke:none;fill-rule:nonzero;fill:rgb(36.078431%,38.039216%,42.352941%);fill-opacity:1;" d="M 2.726562 2.726562 L 2.726562 3.273438 L 8.726562 3.273438 L 8.726562 6 L 9.273438 6 L 9.273438 2.726562 Z M 2.726562 4.363281 L 2.726562 4.910156 L 6.546875 4.910156 L 6.546875 6.546875 L 7.089844 6.546875 L 7.089844 4.363281 Z M 7.640625 6.554688 L 7.640625 7.640625 L 6.546875 7.640625 L 6.546875 8.183594 L 7.640625 8.183594 L 7.640625 9.273438 L 9.277344 7.914062 Z M 3.816406 7.632812 L 3.816406 8.195312 L 4.363281 8.195312 L 4.363281 7.632812 Z M 4.917969 7.632812 L 4.917969 8.195312 L 5.992188 8.195312 L 5.992188 7.632812 Z M 4.917969 7.632812 "/>
<use xlink:href="#surface6" mask="url(#mask0)"/>
</g>
</svg>
