<?xml version="1.0" encoding="UTF-8"?>
<svg xmlns="http://www.w3.org/2000/svg" xmlns:xlink="http://www.w3.org/1999/xlink" width="12pt" height="12pt" viewBox="0 0 12 12" version="1.1">
<g id="surface1">
<path style=" stroke:none;fill-rule:nonzero;fill:rgb(36.078431%,38.039216%,42.352941%);fill-opacity:1;" d="M 6.003906 2.558594 C 5.007812 2.558594 4.191406 3.40625 4.164062 4.460938 C 4.136719 4.46875 4.113281 4.480469 4.089844 4.492188 C 3.859375 4.617188 3.800781 5.007812 3.957031 5.367188 C 4.085938 5.660156 4.308594 5.839844 4.515625 5.832031 C 4.667969 6.800781 5.277344 7.519531 6.003906 7.519531 C 6.007812 7.519531 6.007812 7.519531 6.011719 7.519531 C 6.738281 7.519531 7.351562 6.800781 7.503906 5.832031 C 7.707031 5.839844 7.933594 5.660156 8.058594 5.367188 C 8.214844 5.007812 8.15625 4.617188 7.925781 4.492188 C 7.902344 4.480469 7.878906 4.46875 7.855469 4.460938 C 7.824219 3.40625 7.011719 2.558594 6.011719 2.558594 C 6.007812 2.558594 6.007812 2.558594 6.003906 2.558594 Z M 7.304688 7.675781 C 7.148438 8.050781 6.609375 8.332031 5.96875 8.332031 C 5.332031 8.332031 4.800781 8.054688 4.640625 7.683594 C 3.292969 7.820312 2.3125 8.160156 2.195312 8.558594 C 2.191406 8.5625 2.195312 8.566406 2.195312 8.570312 C 2.191406 8.585938 2.1875 8.597656 2.1875 8.613281 C 2.1875 8.621094 2.183594 8.625 2.183594 8.632812 C 2.183594 8.632812 2.183594 8.636719 2.183594 8.636719 L 2.183594 9.628906 C 2.183594 9.734375 2.265625 9.816406 2.371094 9.816406 L 9.625 9.816406 C 9.730469 9.816406 9.816406 9.734375 9.816406 9.628906 L 9.816406 8.636719 C 9.816406 8.632812 9.820312 8.628906 9.816406 8.625 C 9.816406 8.601562 9.808594 8.582031 9.800781 8.558594 C 9.679688 8.15625 8.675781 7.8125 7.304688 7.675781 Z M 7.304688 7.675781 "/>
</g>
</svg>
