<?xml version="1.0" encoding="UTF-8"?>
<svg xmlns="http://www.w3.org/2000/svg" xmlns:xlink="http://www.w3.org/1999/xlink" width="12pt" height="12pt" viewBox="0 0 12 12" version="1.1">
<g id="surface1">
<path style=" stroke:none;fill-rule:nonzero;fill:rgb(36.078431%,38.039216%,42.352941%);fill-opacity:1;" d="M 6 2.050781 L 1.636719 6.3125 L 2.46875 7.160156 L 3.089844 6.621094 L 3.507812 9.945312 L 8.492188 9.945312 L 8.910156 6.621094 L 9.53125 7.140625 L 10.363281 6.3125 Z M 6 4.960938 C 6.6875 4.960938 7.246094 5.519531 7.246094 6.207031 C 7.246094 6.894531 6.6875 7.453125 6 7.453125 C 5.3125 7.453125 4.753906 6.894531 4.753906 6.207031 C 4.753906 5.519531 5.3125 4.960938 6 4.960938 Z M 6 8.285156 C 6.230469 8.285156 6.414062 8.472656 6.414062 8.699219 C 6.414062 8.929688 6.230469 9.117188 6 9.117188 C 5.769531 9.117188 5.585938 8.929688 5.585938 8.699219 C 5.585938 8.472656 5.769531 8.285156 6 8.285156 Z M 6 8.285156 "/>
</g>
</svg>
