<?xml version="1.0" encoding="UTF-8"?>
<svg xmlns="http://www.w3.org/2000/svg" xmlns:xlink="http://www.w3.org/1999/xlink" width="12pt" height="12pt" viewBox="0 0 12 12" version="1.1">
<g id="surface1">
<path style=" stroke:none;fill-rule:nonzero;fill:rgb(36.078431%,38.039216%,42.352941%);fill-opacity:1;" d="M 1.636719 2.183594 L 1.636719 9.816406 C 3.273438 9.816406 4.910156 9.816406 6.546875 9.816406 L 6.546875 6.542969 L 9.816406 6.542969 L 9.816406 6.546875 L 10.363281 6.546875 L 10.363281 2.183594 C 7.453125 2.183594 4.546875 2.179688 1.636719 2.183594 Z M 6.546875 3.273438 L 9.816406 3.273438 L 9.816406 3.816406 L 6.546875 3.816406 Z M 3.546875 3.816406 C 4 3.816406 4.363281 4.183594 4.363281 4.636719 L 4.363281 5.453125 L 4.910156 5.453125 L 4.910156 7.089844 L 2.183594 7.089844 L 2.183594 5.453125 L 2.726562 5.453125 L 2.726562 4.636719 C 2.726562 4.183594 3.09375 3.816406 3.546875 3.816406 Z M 3.546875 4.363281 C 3.394531 4.363281 3.273438 4.484375 3.273438 4.636719 L 3.273438 5.453125 L 3.816406 5.453125 L 3.816406 4.636719 C 3.816406 4.484375 3.695312 4.363281 3.546875 4.363281 Z M 6.546875 4.90625 L 9.816406 4.90625 L 9.816406 5.453125 L 6.546875 5.453125 Z M 6.546875 4.90625 "/>
<path style=" stroke:none;fill-rule:nonzero;fill:rgb(32.156863%,58.039216%,88.627451%);fill-opacity:1;" d="M 8.726562 7.089844 L 8.726562 7.636719 L 7.089844 7.636719 L 7.089844 9.273438 L 8.726562 9.273438 L 8.726562 9.816406 L 10.363281 8.453125 Z M 8.726562 7.089844 "/>
</g>
</svg>
