<?xml version="1.0" encoding="UTF-8"?>
<svg xmlns="http://www.w3.org/2000/svg" xmlns:xlink="http://www.w3.org/1999/xlink" width="12pt" height="12pt" viewBox="0 0 12 12" version="1.1">
<g id="surface1">
<path style=" stroke:none;fill-rule:nonzero;fill:rgb(36.078431%,38.039216%,42.352941%);fill-opacity:1;" d="M 3.273438 2.183594 C 2.046875 2.183594 2.183594 3.273438 2.183594 3.273438 L 2.183594 9.816406 L 6.546875 9.816406 L 6.546875 8.726562 L 3.273438 8.726562 L 3.273438 4.910156 L 5.453125 4.910156 L 5.453125 3.816406 L 3.273438 3.816406 L 3.273438 3.273438 L 8.726562 3.273438 L 8.726562 5.453125 L 5.453125 5.453125 L 5.453125 6.546875 L 9.816406 6.546875 L 9.816406 3.273438 C 9.816406 2.183594 8.726562 2.183594 8.726562 2.183594 Z M 4.363281 7.089844 L 4.363281 8.183594 L 6.546875 8.183594 L 6.546875 7.089844 Z M 7.085938 7.089844 L 7.085938 10.363281 L 9.8125 10.363281 L 9.8125 7.089844 Z M 7.632812 8.183594 L 8.175781 8.183594 L 8.175781 8.726562 L 7.632812 8.726562 Z M 8.722656 8.183594 L 9.269531 8.183594 L 9.269531 8.726562 L 8.722656 8.726562 Z M 7.632812 9.273438 L 8.175781 9.273438 L 8.175781 9.816406 L 7.632812 9.816406 Z M 8.722656 9.273438 L 9.269531 9.273438 L 9.269531 9.816406 L 8.722656 9.816406 Z M 8.722656 9.273438 "/>
</g>
</svg>
