<?xml version="1.0" encoding="UTF-8"?>
<svg xmlns="http://www.w3.org/2000/svg" xmlns:xlink="http://www.w3.org/1999/xlink" width="12pt" height="12pt" viewBox="0 0 12 12" version="1.1">
<g id="surface1">
<path style=" stroke:none;fill-rule:nonzero;fill:rgb(36.078431%,38.039216%,42.352941%);fill-opacity:1;" d="M 3.273438 2.183594 C 2.046875 2.183594 2.183594 3.273438 2.183594 3.273438 L 2.183594 9.816406 L 9.816406 9.816406 L 9.816406 3.273438 C 9.816406 2.183594 8.726562 2.183594 8.726562 2.183594 Z M 3.273438 3.273438 L 8.726562 3.273438 L 8.726562 3.363281 L 5.4375 7.125 L 4.210938 5.898438 C 4.007812 5.691406 3.632812 5.691406 3.425781 5.898438 C 3.324219 6 3.273438 6.144531 3.273438 6.289062 C 3.273438 6.433594 3.324219 6.578125 3.425781 6.683594 L 5.0625 8.316406 L 5.488281 8.726562 L 5.863281 8.285156 L 8.726562 5.011719 L 8.726562 8.726562 L 3.273438 8.726562 Z M 3.273438 3.273438 "/>
</g>
</svg>
