<?xml version="1.0" encoding="UTF-8"?>
<svg xmlns="http://www.w3.org/2000/svg" xmlns:xlink="http://www.w3.org/1999/xlink" width="12pt" height="12pt" viewBox="0 0 12 12" version="1.1">
<g id="surface1">
<path style=" stroke:none;fill-rule:nonzero;fill:rgb(36.078431%,38.039216%,42.352941%);fill-opacity:1;" d="M 2.726562 2.183594 C 2.726562 2.183594 2.6875 2.183594 2.628906 2.195312 C 2.515625 2.210938 2.433594 2.25 2.371094 2.304688 C 2.359375 2.316406 2.347656 2.324219 2.335938 2.335938 C 2.324219 2.347656 2.316406 2.359375 2.304688 2.371094 C 2.25 2.433594 2.210938 2.515625 2.195312 2.628906 C 2.183594 2.6875 2.183594 2.726562 2.183594 2.726562 L 2.183594 9.273438 C 2.183594 9.816406 2.726562 9.816406 2.726562 9.816406 L 9.273438 9.816406 C 9.273438 9.816406 9.816406 9.816406 9.816406 9.273438 L 9.816406 2.726562 C 9.816406 2.726562 9.816406 2.6875 9.804688 2.628906 C 9.789062 2.515625 9.75 2.433594 9.695312 2.371094 C 9.6875 2.359375 9.675781 2.347656 9.664062 2.335938 C 9.652344 2.324219 9.640625 2.316406 9.628906 2.304688 C 9.566406 2.25 9.484375 2.210938 9.371094 2.195312 C 9.3125 2.183594 9.273438 2.183594 9.273438 2.183594 Z M 3.273438 3.816406 L 4.910156 3.816406 L 4.910156 7.089844 L 3.273438 7.089844 Z M 5.453125 4.363281 L 6.546875 4.363281 L 6.546875 4.910156 L 5.453125 4.910156 Z M 7.636719 4.363281 L 7.636719 6 L 8.726562 6 L 7.089844 8.183594 L 7.089844 6.546875 L 6 6.589844 Z M 7.636719 4.363281 "/>
</g>
</svg>
