<?xml version="1.0" encoding="UTF-8"?>
<svg xmlns="http://www.w3.org/2000/svg" xmlns:xlink="http://www.w3.org/1999/xlink" width="12pt" height="12pt" viewBox="0 0 12 12" version="1.1">
<g id="surface1">
<path style=" stroke:none;fill-rule:nonzero;fill:rgb(36.078431%,38.039216%,42.352941%);fill-opacity:1;" d="M 4.363281 2.730469 L 3.816406 3.273438 L 3.273438 3.273438 C 2.183594 3.273438 2.183594 4.367188 2.183594 4.367188 L 2.183594 8.183594 C 2.183594 9.273438 3.273438 9.273438 3.273438 9.273438 L 8.726562 9.273438 C 9.816406 9.273438 9.816406 8.183594 9.816406 8.183594 L 9.816406 4.367188 C 9.816406 3.273438 8.726562 3.273438 8.726562 3.273438 L 8.183594 3.273438 L 7.636719 2.730469 Z M 6 4.367188 C 6.902344 4.367188 7.636719 5.097656 7.636719 6.003906 C 7.636719 6.90625 6.902344 7.636719 6 7.636719 C 5.097656 7.636719 4.363281 6.90625 4.363281 6.003906 C 4.363281 5.097656 5.097656 4.367188 6 4.367188 Z M 6 4.367188 "/>
</g>
</svg>
