<?xml version="1.0" encoding="UTF-8"?>
<svg xmlns="http://www.w3.org/2000/svg" xmlns:xlink="http://www.w3.org/1999/xlink" width="12pt" height="12pt" viewBox="0 0 12 12" version="1.1">
<g id="surface1">
<path style=" stroke:none;fill-rule:nonzero;fill:rgb(36.078431%,38.039216%,42.352941%);fill-opacity:1;" d="M 3.273438 2.183594 C 2.046875 2.183594 2.183594 3.273438 2.183594 3.273438 L 2.183594 9.816406 L 9.816406 9.816406 L 9.816406 3.273438 C 9.816406 2.183594 8.726562 2.183594 8.726562 2.183594 Z M 3.273438 3.273438 L 8.726562 3.273438 L 8.726562 8.726562 L 3.273438 8.726562 Z M 3.816406 3.816406 L 3.816406 4.910156 L 4.910156 4.910156 L 4.910156 3.816406 Z M 5.453125 3.816406 L 5.453125 4.910156 L 6.546875 4.910156 L 6.546875 3.816406 Z M 7.089844 3.816406 L 7.089844 4.910156 L 8.183594 4.910156 L 8.183594 3.816406 Z M 3.816406 5.453125 L 3.816406 6.546875 L 4.910156 6.546875 L 4.910156 5.453125 Z M 5.453125 5.453125 L 5.453125 6.546875 L 6.546875 6.546875 L 6.546875 5.453125 Z M 7.089844 5.453125 L 7.089844 6.546875 L 8.183594 6.546875 L 8.183594 5.453125 Z M 3.816406 7.089844 L 3.816406 8.183594 L 4.910156 8.183594 L 4.910156 7.089844 Z M 5.453125 7.089844 L 5.453125 8.183594 L 6.546875 8.183594 L 6.546875 7.089844 Z M 7.089844 7.089844 L 7.089844 8.183594 L 8.183594 8.183594 L 8.183594 7.089844 Z M 7.089844 7.089844 "/>
</g>
</svg>
