<?xml version="1.0" encoding="UTF-8"?>
<svg xmlns="http://www.w3.org/2000/svg" xmlns:xlink="http://www.w3.org/1999/xlink" width="12pt" height="12pt" viewBox="0 0 12 12" version="1.1">
<g id="surface1">
<path style=" stroke:none;fill-rule:nonzero;fill:rgb(36.078431%,38.039216%,42.352941%);fill-opacity:1;" d="M 4.910156 2.726562 C 3.105469 2.726562 1.636719 4.191406 1.636719 6 C 1.636719 7.808594 3.105469 9.273438 4.910156 9.273438 C 5.28125 9.269531 5.652344 9.207031 6 9.082031 C 6.351562 9.207031 6.722656 9.269531 7.09375 9.273438 C 8.902344 9.273438 10.367188 7.808594 10.367188 6 C 10.367188 4.191406 8.902344 2.726562 7.09375 2.726562 C 6.722656 2.726562 6.351562 2.792969 6.003906 2.917969 C 5.652344 2.792969 5.28125 2.726562 4.910156 2.726562 Z M 4.640625 3.835938 C 4.113281 4.433594 3.820312 5.203125 3.820312 6 C 3.820312 6.796875 4.113281 7.566406 4.640625 8.164062 C 3.550781 8.027344 2.730469 7.097656 2.730469 6 C 2.730469 4.898438 3.550781 3.972656 4.640625 3.835938 Z M 7.363281 3.835938 C 8.453125 3.972656 9.273438 4.898438 9.273438 6 C 9.273438 7.101562 8.453125 8.027344 7.363281 8.164062 C 7.890625 7.566406 8.183594 6.796875 8.183594 6 C 8.183594 5.203125 7.890625 4.433594 7.363281 3.835938 Z M 6.003906 4.113281 C 6.675781 4.503906 7.09375 5.222656 7.09375 6 C 7.09375 6.777344 6.675781 7.496094 6 7.886719 C 5.328125 7.496094 4.910156 6.777344 4.910156 6 C 4.914062 5.222656 5.328125 4.503906 6.003906 4.113281 Z M 6.003906 4.113281 "/>
</g>
</svg>
