<?xml version="1.0" encoding="UTF-8"?>
<svg xmlns="http://www.w3.org/2000/svg" xmlns:xlink="http://www.w3.org/1999/xlink" width="12pt" height="12pt" viewBox="0 0 12 12" version="1.1">
<g id="surface1">
<path style=" stroke:none;fill-rule:nonzero;fill:rgb(36.078431%,38.039216%,42.352941%);fill-opacity:1;" d="M 2.726562 1.636719 C 1.636719 1.636719 1.636719 2.726562 1.636719 2.726562 L 1.636719 7.636719 C 1.636719 7.636719 1.636719 8.726562 2.726562 8.726562 L 9.273438 8.726562 C 9.273438 8.726562 10.363281 8.730469 10.363281 7.636719 L 10.363281 2.726562 C 10.363281 2.726562 10.363281 1.636719 9.273438 1.636719 Z M 4.363281 2.726562 L 7.636719 4.828125 L 6.039062 5.960938 L 4.445312 7.089844 L 4.402344 4.910156 Z M 3.804688 9.273438 C 3.804688 9.273438 3.273438 9.273438 3.273438 9.820312 L 3.273438 10.363281 L 8.726562 10.363281 L 8.726562 9.820312 C 8.726562 9.273438 8.183594 9.273438 8.183594 9.273438 Z M 3.804688 9.273438 "/>
</g>
</svg>
