<?xml version="1.0" encoding="UTF-8"?>
<svg xmlns="http://www.w3.org/2000/svg" xmlns:xlink="http://www.w3.org/1999/xlink" width="12pt" height="12pt" viewBox="0 0 12 12" version="1.1">
<g id="surface1">
<path style=" stroke:none;fill-rule:nonzero;fill:rgb(36.078431%,38.039216%,42.352941%);fill-opacity:1;" d="M 2.730469 2.183594 C 1.503906 2.183594 1.640625 3.273438 1.640625 3.273438 L 1.640625 9.816406 L 6.003906 9.816406 L 6.003906 8.726562 L 2.730469 8.726562 L 2.730469 4.910156 L 4.914062 4.910156 L 4.914062 3.816406 L 2.730469 3.816406 L 2.730469 3.273438 L 8.1875 3.273438 L 8.1875 5.453125 L 4.914062 5.453125 L 4.914062 6.546875 L 9.277344 6.546875 L 9.277344 3.273438 C 9.277344 2.183594 8.1875 2.183594 8.1875 2.183594 Z M 3.824219 7.089844 L 3.824219 8.183594 L 6.003906 8.183594 L 6.003906 7.089844 Z M 7.863281 7.277344 L 7.089844 8.050781 L 7.863281 8.820312 L 7.089844 9.59375 L 7.863281 10.363281 L 8.632812 9.59375 L 9.40625 10.363281 L 10.175781 9.59375 L 9.40625 8.820312 L 10.175781 8.050781 L 9.40625 7.277344 L 8.632812 8.050781 Z M 7.863281 7.277344 "/>
</g>
</svg>
