<?xml version="1.0" encoding="UTF-8"?>
<svg xmlns="http://www.w3.org/2000/svg" xmlns:xlink="http://www.w3.org/1999/xlink" width="12pt" height="12pt" viewBox="0 0 12 12" version="1.1">
<g id="surface1">
<path style=" stroke:none;fill-rule:nonzero;fill:rgb(36.078431%,38.039216%,42.352941%);fill-opacity:1;" d="M 2.4375 2.25 L 3.5625 2.25 C 3.667969 2.25 3.75 2.332031 3.75 2.4375 L 3.75 3.5625 C 3.75 3.667969 3.667969 3.75 3.5625 3.75 L 2.4375 3.75 C 2.332031 3.75 2.25 3.667969 2.25 3.5625 L 2.25 2.4375 C 2.25 2.332031 2.332031 2.25 2.4375 2.25 Z M 2.4375 2.25 "/>
<path style=" stroke:none;fill-rule:nonzero;fill:rgb(36.078431%,38.039216%,42.352941%);fill-opacity:1;" d="M 5.4375 2.25 L 6.5625 2.25 C 6.667969 2.25 6.75 2.332031 6.75 2.4375 L 6.75 3.5625 C 6.75 3.667969 6.667969 3.75 6.5625 3.75 L 5.4375 3.75 C 5.332031 3.75 5.25 3.667969 5.25 3.5625 L 5.25 2.4375 C 5.25 2.332031 5.332031 2.25 5.4375 2.25 Z M 5.4375 2.25 "/>
<path style=" stroke:none;fill-rule:nonzero;fill:rgb(36.078431%,38.039216%,42.352941%);fill-opacity:1;" d="M 8.4375 2.25 L 9.5625 2.25 C 9.667969 2.25 9.75 2.332031 9.75 2.4375 L 9.75 3.5625 C 9.75 3.667969 9.667969 3.75 9.5625 3.75 L 8.4375 3.75 C 8.332031 3.75 8.25 3.667969 8.25 3.5625 L 8.25 2.4375 C 8.25 2.332031 8.332031 2.25 8.4375 2.25 Z M 8.4375 2.25 "/>
<path style=" stroke:none;fill-rule:nonzero;fill:rgb(36.078431%,38.039216%,42.352941%);fill-opacity:1;" d="M 8.4375 5.25 L 9.5625 5.25 C 9.667969 5.25 9.75 5.332031 9.75 5.4375 L 9.75 6.5625 C 9.75 6.667969 9.667969 6.75 9.5625 6.75 L 8.4375 6.75 C 8.332031 6.75 8.25 6.667969 8.25 6.5625 L 8.25 5.4375 C 8.25 5.332031 8.332031 5.25 8.4375 5.25 Z M 8.4375 5.25 "/>
<path style=" stroke:none;fill-rule:nonzero;fill:rgb(36.078431%,38.039216%,42.352941%);fill-opacity:1;" d="M 5.4375 5.25 L 6.5625 5.25 C 6.667969 5.25 6.75 5.332031 6.75 5.4375 L 6.75 6.5625 C 6.75 6.667969 6.667969 6.75 6.5625 6.75 L 5.4375 6.75 C 5.332031 6.75 5.25 6.667969 5.25 6.5625 L 5.25 5.4375 C 5.25 5.332031 5.332031 5.25 5.4375 5.25 Z M 5.4375 5.25 "/>
<path style=" stroke:none;fill-rule:nonzero;fill:rgb(36.078431%,38.039216%,42.352941%);fill-opacity:1;" d="M 2.4375 5.25 L 3.5625 5.25 C 3.667969 5.25 3.75 5.332031 3.75 5.4375 L 3.75 6.5625 C 3.75 6.667969 3.667969 6.75 3.5625 6.75 L 2.4375 6.75 C 2.332031 6.75 2.25 6.667969 2.25 6.5625 L 2.25 5.4375 C 2.25 5.332031 2.332031 5.25 2.4375 5.25 Z M 2.4375 5.25 "/>
<path style=" stroke:none;fill-rule:nonzero;fill:rgb(36.078431%,38.039216%,42.352941%);fill-opacity:1;" d="M 2.4375 8.25 L 3.5625 8.25 C 3.667969 8.25 3.75 8.332031 3.75 8.4375 L 3.75 9.5625 C 3.75 9.667969 3.667969 9.75 3.5625 9.75 L 2.4375 9.75 C 2.332031 9.75 2.25 9.667969 2.25 9.5625 L 2.25 8.4375 C 2.25 8.332031 2.332031 8.25 2.4375 8.25 Z M 2.4375 8.25 "/>
<path style=" stroke:none;fill-rule:nonzero;fill:rgb(36.078431%,38.039216%,42.352941%);fill-opacity:1;" d="M 5.4375 8.25 L 6.5625 8.25 C 6.667969 8.25 6.75 8.332031 6.75 8.4375 L 6.75 9.5625 C 6.75 9.667969 6.667969 9.75 6.5625 9.75 L 5.4375 9.75 C 5.332031 9.75 5.25 9.667969 5.25 9.5625 L 5.25 8.4375 C 5.25 8.332031 5.332031 8.25 5.4375 8.25 Z M 5.4375 8.25 "/>
<path style=" stroke:none;fill-rule:nonzero;fill:rgb(36.078431%,38.039216%,42.352941%);fill-opacity:1;" d="M 8.4375 8.25 L 9.5625 8.25 C 9.667969 8.25 9.75 8.332031 9.75 8.4375 L 9.75 9.5625 C 9.75 9.667969 9.667969 9.75 9.5625 9.75 L 8.4375 9.75 C 8.332031 9.75 8.25 9.667969 8.25 9.5625 L 8.25 8.4375 C 8.25 8.332031 8.332031 8.25 8.4375 8.25 Z M 8.4375 8.25 "/>
</g>
</svg>
