<?xml version="1.0" encoding="UTF-8"?>
<svg xmlns="http://www.w3.org/2000/svg" xmlns:xlink="http://www.w3.org/1999/xlink" width="12pt" height="12pt" viewBox="0 0 12 12" version="1.1">
<g id="surface1">
<path style=" stroke:none;fill-rule:nonzero;fill:rgb(36.078431%,38.039216%,42.352941%);fill-opacity:1;" d="M 2.183594 2.183594 L 2.183594 9.816406 L 9.816406 9.816406 L 9.816406 8.183594 L 9.273438 8.183594 L 9.273438 7.636719 L 8.726562 7.636719 L 8.726562 6 L 8.183594 6 L 8.183594 4.910156 L 7.636719 4.910156 L 7.636719 6.546875 L 7.089844 6.546875 L 7.089844 5.453125 L 6.546875 5.453125 L 6.546875 4.363281 L 6 4.363281 L 6 2.726562 L 5.453125 2.726562 L 5.453125 3.816406 L 4.910156 3.816406 L 4.910156 4.910156 L 4.363281 4.910156 L 4.363281 5.453125 L 3.816406 5.453125 L 3.816406 6 L 3.273438 6 L 3.273438 3.816406 L 2.726562 3.816406 L 2.726562 2.183594 Z M 2.183594 2.183594 "/>
</g>
</svg>
