<?xml version="1.0" encoding="UTF-8"?>
<svg xmlns="http://www.w3.org/2000/svg" xmlns:xlink="http://www.w3.org/1999/xlink" width="12pt" height="12pt" viewBox="0 0 12 12" version="1.1">
<defs>
<filter id="alpha" filterUnits="objectBoundingBox" x="0%" y="0%" width="100%" height="100%">
  <feColorMatrix type="matrix" in="SourceGraphic" values="0 0 0 0 1 0 0 0 0 1 0 0 0 0 1 0 0 0 1 0"/>
</filter>
<mask id="mask0">
  <g filter="url(#alpha)">
<rect x="0" y="0" width="12" height="12" style="fill:rgb(0%,0%,0%);fill-opacity:0.301961;stroke:none;"/>
  </g>
</mask>
<clipPath id="clip1">
  <rect width="12" height="12"/>
</clipPath>
<g id="surface6" clip-path="url(#clip1)">
<path style=" stroke:none;fill-rule:nonzero;fill:rgb(36.078431%,38.039216%,42.352941%);fill-opacity:1;" d="M 9 7.5 L 3 7.5 L 3 9 L 9 9 Z M 9 7.5 "/>
</g>
<mask id="mask1">
  <g filter="url(#alpha)">
<rect x="0" y="0" width="12" height="12" style="fill:rgb(0%,0%,0%);fill-opacity:0.301961;stroke:none;"/>
  </g>
</mask>
<clipPath id="clip2">
  <rect width="12" height="12"/>
</clipPath>
<g id="surface9" clip-path="url(#clip2)">
<path style=" stroke:none;fill-rule:nonzero;fill:rgb(36.078431%,38.039216%,42.352941%);fill-opacity:1;" d="M 9 3 L 3 3 L 3 4.5 L 9 4.5 Z M 9 3 "/>
</g>
<mask id="mask2">
  <g filter="url(#alpha)">
<rect x="0" y="0" width="12" height="12" style="fill:rgb(0%,0%,0%);fill-opacity:0.301961;stroke:none;"/>
  </g>
</mask>
<clipPath id="clip3">
  <rect width="12" height="12"/>
</clipPath>
<g id="surface12" clip-path="url(#clip3)">
<path style=" stroke:none;fill-rule:nonzero;fill:rgb(36.078431%,38.039216%,42.352941%);fill-opacity:1;" d="M 7.5 9.75 L 4.5 9.75 L 4.5 10.5 L 7.5 10.5 Z M 7.5 9.75 "/>
</g>
<mask id="mask3">
  <g filter="url(#alpha)">
<rect x="0" y="0" width="12" height="12" style="fill:rgb(0%,0%,0%);fill-opacity:0.301961;stroke:none;"/>
  </g>
</mask>
<clipPath id="clip4">
  <rect width="12" height="12"/>
</clipPath>
<g id="surface15" clip-path="url(#clip4)">
<path style=" stroke:none;fill-rule:nonzero;fill:rgb(36.078431%,38.039216%,42.352941%);fill-opacity:1;" d="M 7.5 1.5 L 4.5 1.5 L 4.5 2.25 L 7.5 2.25 Z M 7.5 1.5 "/>
</g>
</defs>
<g id="surface1">
<use xlink:href="#surface6" mask="url(#mask0)"/>
<use xlink:href="#surface9" mask="url(#mask1)"/>
<path style=" stroke:none;fill-rule:nonzero;fill:rgb(36.078431%,38.039216%,42.352941%);fill-opacity:1;" d="M 10.5 5.25 L 1.5 5.25 L 1.5 6.75 L 10.5 6.75 Z M 10.5 5.25 "/>
<use xlink:href="#surface12" mask="url(#mask2)"/>
<use xlink:href="#surface15" mask="url(#mask3)"/>
</g>
</svg>
