<?xml version="1.0" encoding="UTF-8"?>
<svg xmlns="http://www.w3.org/2000/svg" xmlns:xlink="http://www.w3.org/1999/xlink" width="12pt" height="12pt" viewBox="0 0 12 12" version="1.1">
<g id="surface1">
<path style=" stroke:none;fill-rule:nonzero;fill:rgb(36.078431%,38.039216%,42.352941%);fill-opacity:1;" d="M 2.726562 2.183594 C 2.726562 2.183594 2.6875 2.183594 2.628906 2.195312 C 2.515625 2.210938 2.433594 2.25 2.371094 2.304688 C 2.359375 2.316406 2.347656 2.324219 2.335938 2.335938 C 2.324219 2.347656 2.316406 2.359375 2.304688 2.371094 C 2.25 2.433594 2.210938 2.515625 2.195312 2.628906 C 2.183594 2.6875 2.183594 2.726562 2.183594 2.726562 L 2.183594 9.273438 C 2.183594 9.816406 2.726562 9.816406 2.726562 9.816406 L 6 9.816406 L 6 8.726562 L 3.273438 8.726562 L 3.273438 4.910156 L 8.726562 4.910156 L 8.726562 6 L 9.816406 6 L 9.816406 2.726562 C 9.816406 2.726562 9.816406 2.6875 9.804688 2.628906 C 9.789062 2.515625 9.75 2.433594 9.695312 2.371094 C 9.683594 2.359375 9.675781 2.347656 9.664062 2.335938 C 9.652344 2.324219 9.640625 2.316406 9.628906 2.304688 C 9.566406 2.25 9.484375 2.210938 9.371094 2.195312 C 9.3125 2.183594 9.273438 2.183594 9.273438 2.183594 Z M 6.816406 6.546875 C 6.816406 6.546875 6.796875 6.546875 6.769531 6.550781 C 6.714844 6.558594 6.671875 6.582031 6.640625 6.605469 C 6.632812 6.613281 6.628906 6.617188 6.621094 6.621094 C 6.617188 6.628906 6.613281 6.632812 6.605469 6.640625 C 6.582031 6.671875 6.558594 6.714844 6.550781 6.769531 C 6.546875 6.796875 6.546875 6.816406 6.546875 6.816406 L 6.546875 10.089844 C 6.546875 10.363281 6.816406 10.363281 6.816406 10.363281 L 10.089844 10.363281 C 10.089844 10.363281 10.363281 10.363281 10.363281 10.089844 L 10.363281 6.816406 C 10.363281 6.816406 10.363281 6.796875 10.355469 6.769531 C 10.347656 6.714844 10.328125 6.671875 10.300781 6.640625 C 10.296875 6.632812 10.292969 6.628906 10.285156 6.621094 C 10.28125 6.617188 10.273438 6.613281 10.269531 6.605469 C 10.238281 6.582031 10.195312 6.558594 10.140625 6.550781 C 10.109375 6.546875 10.089844 6.546875 10.089844 6.546875 Z M 7.089844 8.183594 L 9.816406 8.183594 L 9.816406 9.816406 L 7.089844 9.816406 Z M 7.089844 8.183594 "/>
</g>
</svg>
