<?xml version="1.0" encoding="UTF-8"?>
<svg xmlns="http://www.w3.org/2000/svg" xmlns:xlink="http://www.w3.org/1999/xlink" width="12pt" height="12pt" viewBox="0 0 12 12" version="1.1">
<g id="surface1">
<path style=" stroke:none;fill-rule:nonzero;fill:rgb(36.078431%,38.039216%,42.352941%);fill-opacity:1;" d="M 3.375 2.730469 C 3.015625 2.730469 2.726562 3.027344 2.726562 3.394531 L 2.726562 5.457031 L 3.820312 5.457031 L 3.820312 3.820312 L 5.457031 3.820312 L 5.457031 2.730469 Z M 6.546875 2.730469 L 6.546875 3.820312 L 8.183594 3.820312 L 8.183594 5.457031 L 9.273438 5.457031 L 9.273438 3.394531 C 9.273438 3.027344 8.988281 2.730469 8.625 2.730469 Z M 4.902344 4.363281 L 4.902344 7.636719 L 7.085938 7.636719 L 7.085938 4.363281 Z M 2.726562 6.546875 L 2.726562 8.609375 C 2.726562 8.976562 3.015625 9.273438 3.375 9.273438 L 5.457031 9.273438 L 5.457031 8.183594 L 3.820312 8.183594 L 3.820312 6.546875 Z M 8.183594 6.546875 L 8.183594 8.183594 L 6.546875 8.183594 L 6.546875 9.273438 L 8.625 9.273438 C 8.988281 9.273438 9.273438 8.976562 9.273438 8.609375 L 9.273438 6.546875 Z M 8.183594 6.546875 "/>
</g>
</svg>
