<?xml version="1.0" encoding="UTF-8"?>
<svg xmlns="http://www.w3.org/2000/svg" xmlns:xlink="http://www.w3.org/1999/xlink" width="12pt" height="12pt" viewBox="0 0 12 12" version="1.1">
<g id="surface1">
<path style=" stroke:none;fill-rule:nonzero;fill:rgb(36.078431%,38.039216%,42.352941%);fill-opacity:1;" d="M 3.375 2.726562 C 3.011719 2.726562 2.726562 3.027344 2.726562 3.390625 L 2.726562 5.453125 L 3.816406 5.453125 L 3.816406 3.816406 L 5.453125 3.816406 L 5.453125 2.726562 Z M 6.546875 2.726562 L 6.546875 3.816406 L 8.183594 3.816406 L 8.183594 5.453125 L 9.273438 5.453125 L 9.273438 3.390625 C 9.273438 3.027344 8.988281 2.726562 8.625 2.726562 Z M 5.453125 4.363281 L 5.453125 7.636719 L 6.546875 7.636719 L 6.546875 4.363281 Z M 4.910156 4.910156 L 3.816406 6 L 4.910156 7.089844 Z M 7.089844 4.910156 L 7.089844 7.089844 L 8.183594 6 Z M 2.726562 6.546875 L 2.726562 8.609375 C 2.726562 8.972656 3.011719 9.273438 3.375 9.273438 L 5.453125 9.273438 L 5.453125 8.183594 L 3.816406 8.183594 L 3.816406 6.546875 Z M 8.183594 6.546875 L 8.183594 8.183594 L 6.546875 8.183594 L 6.546875 9.273438 L 8.625 9.273438 C 8.988281 9.273438 9.273438 8.972656 9.273438 8.609375 L 9.273438 6.546875 Z M 8.183594 6.546875 "/>
</g>
</svg>
