<?xml version="1.0" encoding="UTF-8" standalone="no"?>
<svg
   xmlns:dc="http://purl.org/dc/elements/1.1/"
   xmlns:cc="http://creativecommons.org/ns#"
   xmlns:rdf="http://www.w3.org/1999/02/22-rdf-syntax-ns#"
   xmlns:svg="http://www.w3.org/2000/svg"
   xmlns="http://www.w3.org/2000/svg"
   xmlns:sodipodi="http://sodipodi.sourceforge.net/DTD/sodipodi-0.dtd"
   xmlns:inkscape="http://www.inkscape.org/namespaces/inkscape"
   width="32"
   height="32"
   version="1"
   id="svg20"
   sodipodi:docname="folder-tar.svg"
   inkscape:version="0.92.2 2405546, 2018-03-11">
  <metadata
     id="metadata26">
    <rdf:RDF>
      <cc:Work
         rdf:about="">
        <dc:format>image/svg+xml</dc:format>
        <dc:type
           rdf:resource="http://purl.org/dc/dcmitype/StillImage" />
      </cc:Work>
    </rdf:RDF>
  </metadata>
  <defs
     id="defs24" />
  <sodipodi:namedview
     pagecolor="#ffffff"
     bordercolor="#666666"
     borderopacity="1"
     objecttolerance="10"
     gridtolerance="10"
     guidetolerance="10"
     inkscape:pageopacity="0"
     inkscape:pageshadow="2"
     inkscape:window-width="1680"
     inkscape:window-height="972"
     id="namedview22"
     showgrid="false"
     inkscape:zoom="7.375"
     inkscape:cx="-9.8305079"
     inkscape:cy="25.627119"
     inkscape:window-x="1360"
     inkscape:window-y="0"
     inkscape:window-maximized="1"
     inkscape:current-layer="svg20" />
  <path
     style="fill:#5294e2;fill-opacity:1;stroke:none;stroke-width:0.14515875;stroke-miterlimit:4;stroke-dasharray:none;stroke-opacity:1"
     d="m 27.90368,6.7271305 c 1.168734,-7.39e-4 2.109629,0.940894 2.109629,2.109629 V 26.447279 c 0,1.168735 -0.940895,2.109629 -2.109629,2.109629 H 4.096321 c -1.168735,0 -2.109682,-0.940894 -2.10963,-2.109629 l 7.31e-4,-16.244506 7.32e-4,-5.0669085 c 0,-0.937796 0.754977,-1.692773 1.692773,-1.692773 h 9.09082 c 0.937797,0 1.704839,0.371321 2.299888,1.096152 l 1.801865,2.19486 z"
     id="rect4549-3"
     inkscape:connector-curvature="0"
     sodipodi:nodetypes="sssssscsssscs" />
  <path
     style="opacity:1;fill:#ececec;fill-opacity:1;stroke-width:1.27118647"
     d="M 16,6.5167505 V 7.787937 h 1.271186 V 6.5167505 Z M 16,7.787937 H 14.728814 V 9.0591234 H 16 Z m 0,1.2711864 V 10.33031 h 1.271186 V 9.0591234 Z m 0,1.2711866 h -1.271186 v 1.271187 H 16 Z m 0,1.271187 v 1.271186 c 0.701695,0 1.271186,-0.635593 1.271186,-1.271186 z m 0,1.271186 c -1.404661,0 -2.542373,1.144068 -2.542373,2.542373 v 5.084746 c 0,1.398305 1.137712,2.542373 2.542373,2.542373 1.404661,0 2.542373,-1.144068 2.542373,-2.542373 v -5.084746 c 0,-1.398305 -1.137712,-2.542373 -2.542373,-2.542373 z m 0,1.271187 c 0.701695,0 1.271186,0.508474 1.271186,1.271186 0,0.635593 -0.569491,1.271187 -1.271186,1.271187 -0.701695,0 -1.271186,-0.635594 -1.271186,-1.271187 0,-0.762712 0.569491,-1.271186 1.271186,-1.271186 z m 0,3.813559 c 0.701695,0 1.271186,0.508475 1.271186,1.271187 v 1.271186 c 0,0.635593 -0.569491,1.271186 -1.271186,1.271186 -0.701695,0 -1.271186,-0.635593 -1.271186,-1.271186 v -1.271186 c 0,-0.762712 0.569491,-1.271187 1.271186,-1.271187 z"
     id="path14"
     inkscape:connector-curvature="0" />
</svg>
