<?xml version="1.0" encoding="UTF-8" standalone="no"?>
<svg
   xmlns:dc="http://purl.org/dc/elements/1.1/"
   xmlns:cc="http://creativecommons.org/ns#"
   xmlns:rdf="http://www.w3.org/1999/02/22-rdf-syntax-ns#"
   xmlns:svg="http://www.w3.org/2000/svg"
   xmlns="http://www.w3.org/2000/svg"
   xmlns:sodipodi="http://sodipodi.sourceforge.net/DTD/sodipodi-0.dtd"
   xmlns:inkscape="http://www.inkscape.org/namespaces/inkscape"
   width="32"
   height="32"
   version="1"
   id="svg16"
   sodipodi:docname="folder-gnome.svg"
   inkscape:version="0.92.2 2405546, 2018-03-11">
  <metadata
     id="metadata22">
    <rdf:RDF>
      <cc:Work
         rdf:about="">
        <dc:format>image/svg+xml</dc:format>
        <dc:type
           rdf:resource="http://purl.org/dc/dcmitype/StillImage" />
      </cc:Work>
    </rdf:RDF>
  </metadata>
  <defs
     id="defs20" />
  <sodipodi:namedview
     pagecolor="#ffffff"
     bordercolor="#666666"
     borderopacity="1"
     objecttolerance="10"
     gridtolerance="10"
     guidetolerance="10"
     inkscape:pageopacity="0"
     inkscape:pageshadow="2"
     inkscape:window-width="1680"
     inkscape:window-height="972"
     id="namedview18"
     showgrid="false"
     inkscape:zoom="7.375"
     inkscape:cx="-7.5932201"
     inkscape:cy="18.983051"
     inkscape:window-x="1360"
     inkscape:window-y="0"
     inkscape:window-maximized="1"
     inkscape:current-layer="svg16" />
  <path
     style="fill:#5294e2;fill-opacity:1;stroke:none;stroke-width:0.14515875;stroke-miterlimit:4;stroke-dasharray:none;stroke-opacity:1"
     d="m 27.90368,6.7271306 c 1.168734,-7.39e-4 2.109629,0.940894 2.109629,2.109629 V 26.44728 c 0,1.168735 -0.940895,2.109629 -2.109629,2.109629 H 4.09632 c -1.168734,0 -2.109682,-0.940894 -2.109629,-2.109629 l 7.31e-4,-16.244507 7.32e-4,-5.0669084 c 0,-0.937796 0.754977,-1.6927731 1.692773,-1.6927731 h 9.09082 c 0.937797,0 1.704839,0.3713211 2.299888,1.0961521 l 1.801865,2.19486 z"
     id="rect4549-3"
     inkscape:connector-curvature="0"
     sodipodi:nodetypes="sssssscsssscs" />
  <path
     style="opacity:1;fill:#ececec;fill-opacity:1;stroke-width:1.08136129"
     d="m 20.273701,10.191491 c -2.745576,0 -3.260304,4.171892 -1.715039,4.171892 1.544184,0 4.461697,-4.171892 1.715039,-4.171892 z m -4.229204,0.642328 c -0.04325,-0.0011 -0.08975,0.0032 -0.138414,0.0087 -1.557161,0.196808 -1.00891,2.829923 -0.180588,2.878584 0.801289,0.04866 1.679354,-2.882909 0.317921,-2.887235 z m -2.697996,0.972144 c -0.09516,-0.0065 -0.200052,0.01189 -0.317921,0.05947 -1.250053,0.513647 -0.189238,2.634196 0.510403,2.491456 0.63584,-0.129763 0.726675,-2.491456 -0.192482,-2.550931 z m -2.040529,1.732341 c -0.109218,-0.0022 -0.226005,0.0346 -0.351443,0.128682 -1.0013401,0.74722 0.336304,2.552012 0.925646,2.27194 0.514728,-0.245469 0.185994,-2.372507 -0.575285,-2.399541 z m 5.911802,1.72369 c -2.169211,-0.03785 -5.030493,1.062978 -5.518187,3.275443 -0.528785,2.391971 2.175699,5.71175 4.995889,5.71175 1.388468,0 2.988883,-1.268436 3.28842,-2.874258 0.229249,-1.225182 -2.691508,-0.734244 -2.586616,0.07569 0.125438,0.972144 -0.703966,1.452269 -1.51715,0.82616 -2.588779,-1.99403 4.285435,-2.988882 3.831263,-5.712831 -0.140577,-0.847788 -1.192741,-1.279251 -2.493619,-1.301959 z"
     id="path14"
     inkscape:connector-curvature="0" />
</svg>
