<?xml version="1.0" encoding="UTF-8" standalone="no"?>
<svg
   xmlns:dc="http://purl.org/dc/elements/1.1/"
   xmlns:cc="http://creativecommons.org/ns#"
   xmlns:rdf="http://www.w3.org/1999/02/22-rdf-syntax-ns#"
   xmlns:svg="http://www.w3.org/2000/svg"
   xmlns="http://www.w3.org/2000/svg"
   xmlns:sodipodi="http://sodipodi.sourceforge.net/DTD/sodipodi-0.dtd"
   xmlns:inkscape="http://www.inkscape.org/namespaces/inkscape"
   width="32"
   height="32"
   version="1"
   id="svg12"
   sodipodi:docname="network-workgroup.svg"
   inkscape:version="0.92.2 2405546, 2018-03-11">
  <metadata
     id="metadata18">
    <rdf:RDF>
      <cc:Work
         rdf:about="">
        <dc:format>image/svg+xml</dc:format>
        <dc:type
           rdf:resource="http://purl.org/dc/dcmitype/StillImage" />
      </cc:Work>
    </rdf:RDF>
  </metadata>
  <defs
     id="defs16" />
  <sodipodi:namedview
     pagecolor="#ffffff"
     bordercolor="#666666"
     borderopacity="1"
     objecttolerance="10"
     gridtolerance="10"
     guidetolerance="10"
     inkscape:pageopacity="0"
     inkscape:pageshadow="2"
     inkscape:window-width="1680"
     inkscape:window-height="972"
     id="namedview14"
     showgrid="false"
     inkscape:zoom="7.375"
     inkscape:cx="15.389017"
     inkscape:cy="13.286932"
     inkscape:window-x="0"
     inkscape:window-y="0"
     inkscape:window-maximized="1"
     inkscape:current-layer="svg12" />
  <path
     style="fill:#ffffff;stroke-width:1"
     d="m 16,7.3559321 c -4.773995,0 -8.644068,3.8700729 -8.644068,8.6440679 0,4.773995 3.870073,8.644068 8.644068,8.644068 4.773995,0 8.644068,-3.870073 8.644068,-8.644068 0,-4.773995 -3.870073,-8.6440678 -8.644068,-8.6440679 z m -0.808693,1.7237487 c 0.09405,-0.00985 0.212372,0.00562 0.30727,0 0.01125,0.044984 -0.06663,0.2063807 -0.173895,0.4406444 -0.683068,1.4922158 -0.723422,3.2393888 -0.08948,4.1734638 0.114721,0.169354 0.219479,0.330221 0.219479,0.351166 0,0.02095 -0.123487,0.04389 -0.263374,0.04389 -0.328388,1e-6 -0.639717,-0.19954 -1.274662,-0.70233 -0.282067,-0.223354 -0.648056,-0.410561 -0.790123,-0.438956 -0.223086,-0.04457 -0.282042,-0.02526 -0.570643,0.263374 -0.268515,0.268471 -0.351165,0.414345 -0.351165,0.660122 0,0.932024 1.107155,1.671024 3.163864,2.106992 2.793092,0.591979 3.480192,1.122824 3.557237,2.591532 0.09673,1.84172 -0.882845,3.230064 -3.03049,4.305151 -0.256336,0.128358 -0.419197,0.179692 -0.526747,0.221167 -0.04766,-0.0042 -0.08586,0.0042 -0.133376,0 -0.01827,-0.05694 -0.04389,-0.188652 -0.04389,-0.438957 0,-0.978193 -0.38472,-1.986265 -0.965704,-2.549324 -0.155954,-0.151162 -0.591765,-0.470851 -0.965705,-0.702331 -0.373926,-0.231467 -0.751634,-0.499818 -0.835706,-0.614539 -0.139292,-0.190372 -0.149254,-0.30675 -0.04221,-0.658435 0.195079,-0.642309 0.426509,-1.002197 0.877913,-1.408037 0.236654,-0.212766 0.474322,-0.389138 0.526748,-0.393374 0.05244,-0.0042 -0.301747,-0.11228 -0.834018,-0.221166 -0.532244,-0.109097 -1.312759,-0.337159 -1.715307,-0.482852 -0.736098,-0.266346 -1.729791,-0.826094 -2.108679,-1.230766 -0.01602,-0.01716 -0.02998,-0.02871 -0.04389,-0.04389 0.542857,-2.162405 2.066106,-3.933922 4.085672,-4.7880026 0.422569,-0.1787317 0.858719,-0.3010063 1.318558,-0.3950616 0.229048,-0.046816 0.465831,-0.065436 0.70233,-0.08948 z m 6.591101,3.2955512 c 0.165124,0.102068 0.789419,1.452409 0.967394,2.110368 0.229775,0.849427 0.213144,2.318358 0,3.162175 -0.08113,0.321162 -0.186583,0.621041 -0.221168,0.658435 -0.03458,0.0374 -0.16142,-0.175815 -0.308958,-0.437268 -0.147547,-0.261413 -0.616243,-0.817504 -1.007911,-1.230767 -1.130536,-1.192944 -1.309267,-1.815043 -0.835706,-2.767115 0.23882,-0.480098 1.278554,-1.574696 1.406349,-1.495828 z"
     id="path10-3"
     inkscape:connector-curvature="0" />
  <path
     style="fill:#5294e2;fill-opacity:1;stroke:none;stroke-width:0.14515875;stroke-miterlimit:4;stroke-dasharray:none;stroke-opacity:1"
     d="m 27.90368,6.7271307 c 1.168734,-7.388e-4 2.109629,0.9408941 2.109629,2.1096297 V 26.447279 c 0,1.168735 -0.940895,2.109629 -2.109629,2.109629 H 4.09632 c -1.168734,0 -2.109682,-0.940894 -2.109629,-2.109629 l 7.31e-4,-16.244506 7.31e-4,-5.0669078 c 0,-0.9377965 0.754977,-1.6927733 1.692774,-1.6927733 h 9.09082 c 0.937797,0 1.704839,0.3713212 2.299888,1.096152 L 16.8735,6.7341037 Z"
     id="rect4549-3"
     inkscape:connector-curvature="0"
     sodipodi:nodetypes="sssssscsssscs" />
  <path
     style="opacity:1;fill:#000000;fill-opacity:0.65098039"
     d="m 16,12.220339 c -2.761,0 -5,2.239 -5,5 0,2.761 2.239,5 5,5 2.761,0 5,-2.239 5,-5 0,-2.761 -2.239,-5 -5,-5 z m -0.357,1.384 c 0.048,-0.005 0.108,0.003 0.156,0 0.006,0.023 -0.035,0.104 -0.089,0.223 -0.347,0.758 -0.367,1.646 -0.045,2.121 0.058,0.086 0.112,0.168 0.112,0.178 0,0.011 -0.063,0.023 -0.134,0.023 -0.167,0 -0.325,-0.102 -0.647,-0.358 -0.144,-0.113 -0.33,-0.208 -0.402,-0.223 -0.114,-0.022 -0.144,-0.012 -0.29,0.134 -0.137,0.137 -0.179,0.21 -0.179,0.335 0,0.473 0.562,0.85 1.607,1.071 1.419,0.301 1.769,0.571 1.808,1.317 0.049,0.936 -0.449,1.642 -1.54,2.188 -0.13,0.065 -0.213,0.09 -0.268,0.111 -0.024,-0.002 -0.043,0.003 -0.067,0 -0.009,-0.028 -0.022,-0.096 -0.022,-0.223 0,-0.497 -0.196,-1.008 -0.491,-1.294 -0.079,-0.077 -0.301,-0.24 -0.491,-0.357 -0.19,-0.118 -0.382,-0.255 -0.424,-0.313 -0.071,-0.097 -0.077,-0.156 -0.023,-0.335 0.099,-0.326 0.217,-0.508 0.447,-0.714 0.12,-0.108 0.241,-0.199 0.268,-0.201 0.026,-0.002 -0.154,-0.056 -0.424,-0.112 -0.271,-0.055 -0.666,-0.171 -0.871,-0.245 -0.374,-0.135 -0.879,-0.42 -1.071,-0.625 -0.008,-0.009 -0.016,-0.015 -0.023,-0.022 0.276,-1.099 1.05,-2 2.076,-2.433 0.215,-0.091 0.436,-0.154 0.67,-0.201 0.116,-0.024 0.237,-0.033 0.357,-0.045 z m 3.348,1.674 c 0.084,0.052 0.401,0.737 0.491,1.071 0.117,0.432 0.108,1.179 0,1.607 -0.041,0.164 -0.094,0.316 -0.111,0.335 -0.018,0.019 -0.082,-0.09 -0.157,-0.223 -0.075,-0.133 -0.314,-0.415 -0.513,-0.625 -0.575,-0.606 -0.665,-0.922 -0.424,-1.406 0.121,-0.244 0.649,-0.799 0.714,-0.759 z"
     id="path14"
     inkscape:connector-curvature="0" />
</svg>
