<?xml version="1.0" encoding="UTF-8" standalone="no"?>
<svg
   xmlns:dc="http://purl.org/dc/elements/1.1/"
   xmlns:cc="http://creativecommons.org/ns#"
   xmlns:rdf="http://www.w3.org/1999/02/22-rdf-syntax-ns#"
   xmlns:svg="http://www.w3.org/2000/svg"
   xmlns="http://www.w3.org/2000/svg"
   xmlns:sodipodi="http://sodipodi.sourceforge.net/DTD/sodipodi-0.dtd"
   xmlns:inkscape="http://www.inkscape.org/namespaces/inkscape"
   width="32"
   height="32"
   version="1"
   id="svg16"
   sodipodi:docname="folder-network.svg"
   inkscape:version="0.92.1 r">
  <metadata
     id="metadata22">
    <rdf:RDF>
      <cc:Work
         rdf:about="">
        <dc:format>image/svg+xml</dc:format>
        <dc:type
           rdf:resource="http://purl.org/dc/dcmitype/StillImage" />
      </cc:Work>
    </rdf:RDF>
  </metadata>
  <defs
     id="defs20" />
  <sodipodi:namedview
     pagecolor="#ffffff"
     bordercolor="#666666"
     borderopacity="1"
     objecttolerance="10"
     gridtolerance="10"
     guidetolerance="10"
     inkscape:pageopacity="0"
     inkscape:pageshadow="2"
     inkscape:window-width="1680"
     inkscape:window-height="994"
     id="namedview18"
     showgrid="false"
     inkscape:zoom="29.5"
     inkscape:cx="4.8383181"
     inkscape:cy="14.331455"
     inkscape:window-x="0"
     inkscape:window-y="0"
     inkscape:window-maximized="1"
     inkscape:current-layer="svg16" />
  <path
     style="fill:#7dc842;fill-opacity:1;stroke:none;stroke-width:0.14515875;stroke-miterlimit:4;stroke-dasharray:none;stroke-opacity:1"
     d="m 27.90368,6.7271305 c 1.168734,-7.388e-4 2.109629,0.9408941 2.109629,2.1096297 V 26.447279 c 0,1.168735 -0.940895,2.109629 -2.109629,2.109629 H 4.09632 c -1.168734,0 -2.109682,-0.940894 -2.109629,-2.109629 l 7.31e-4,-16.244506 7.31e-4,-5.066908 c 0,-0.9377965 0.754977,-1.6927733 1.692774,-1.6927733 h 9.09082 c 0.937797,0 1.704839,0.3713212 2.299888,1.096152 L 16.8735,6.7341035 Z"
     id="rect4549-3"
     inkscape:connector-curvature="0"
     sodipodi:nodetypes="sssssscsssscs" />
  <path
     style="opacity:1;fill:#000000;fill-opacity:0.65098041"
     d="m 16,12.762712 c -2.761,0 -5,2.239 -5,5 0,2.761 2.239,5 5,5 2.761,0 5,-2.239 5,-5 0,-2.761 -2.239,-5 -5,-5 z m -0.357,1.384 c 0.048,-0.005 0.108,0.003 0.156,0 0.006,0.023 -0.035,0.104 -0.089,0.223 -0.347,0.758 -0.367,1.646 -0.045,2.121 0.058,0.086 0.112,0.168 0.112,0.178 0,0.011 -0.063,0.023 -0.134,0.023 -0.167,0 -0.325,-0.102 -0.647,-0.358 -0.144,-0.113 -0.33,-0.208 -0.402,-0.223 -0.114,-0.022 -0.144,-0.012 -0.29,0.134 -0.137,0.137 -0.179,0.21 -0.179,0.335 0,0.473 0.562,0.85 1.607,1.071 1.419,0.301 1.769,0.571 1.808,1.317 0.049,0.936 -0.449,1.642 -1.54,2.188 -0.13,0.065 -0.213,0.09 -0.268,0.111 -0.024,-0.002 -0.043,0.003 -0.067,0 -0.009,-0.028 -0.022,-0.096 -0.022,-0.223 0,-0.497 -0.196,-1.008 -0.491,-1.294 -0.079,-0.077 -0.301,-0.24 -0.491,-0.357 -0.19,-0.118 -0.382,-0.255 -0.424,-0.313 -0.071,-0.097 -0.077,-0.156 -0.023,-0.335 0.099,-0.326 0.217,-0.508 0.447,-0.714 0.12,-0.108 0.241,-0.199 0.268,-0.201 0.026,-0.002 -0.154,-0.056 -0.424,-0.112 -0.271,-0.055 -0.666,-0.171 -0.871,-0.245 -0.374,-0.135 -0.879,-0.42 -1.071,-0.625 -0.008,-0.009 -0.016,-0.015 -0.023,-0.022 0.276,-1.099 1.05,-2 2.076,-2.433 0.215,-0.091 0.436,-0.154 0.67,-0.201 0.116,-0.024 0.237,-0.033 0.357,-0.045 z m 3.348,1.674 c 0.084,0.052 0.401,0.737 0.491,1.071 0.117,0.432 0.108,1.179 0,1.607 -0.041,0.164 -0.094,0.316 -0.111,0.335 -0.018,0.019 -0.082,-0.09 -0.157,-0.223 -0.075,-0.133 -0.314,-0.415 -0.513,-0.625 -0.575,-0.606 -0.665,-0.922 -0.424,-1.406 0.121,-0.244 0.649,-0.799 0.714,-0.759 z"
     id="path14"
     inkscape:connector-curvature="0" />
</svg>
