<?xml version="1.0" encoding="UTF-8" standalone="no"?>
<svg
   xmlns:dc="http://purl.org/dc/elements/1.1/"
   xmlns:cc="http://creativecommons.org/ns#"
   xmlns:rdf="http://www.w3.org/1999/02/22-rdf-syntax-ns#"
   xmlns:svg="http://www.w3.org/2000/svg"
   xmlns="http://www.w3.org/2000/svg"
   xmlns:sodipodi="http://sodipodi.sourceforge.net/DTD/sodipodi-0.dtd"
   xmlns:inkscape="http://www.inkscape.org/namespaces/inkscape"
   width="32"
   height="32"
   version="1"
   id="svg12"
   sodipodi:docname="folder-drag-accept.svg"
   inkscape:version="0.92.2 2405546, 2018-03-11">
  <metadata
     id="metadata18">
    <rdf:RDF>
      <cc:Work
         rdf:about="">
        <dc:format>image/svg+xml</dc:format>
        <dc:type
           rdf:resource="http://purl.org/dc/dcmitype/StillImage" />
      </cc:Work>
    </rdf:RDF>
  </metadata>
  <defs
     id="defs16" />
  <sodipodi:namedview
     pagecolor="#ffffff"
     bordercolor="#666666"
     borderopacity="1"
     objecttolerance="10"
     gridtolerance="10"
     guidetolerance="10"
     inkscape:pageopacity="0"
     inkscape:pageshadow="2"
     inkscape:window-width="1680"
     inkscape:window-height="972"
     id="namedview14"
     showgrid="false"
     showguides="true"
     inkscape:guide-bbox="true"
     inkscape:zoom="7.375"
     inkscape:cx="-26.741922"
     inkscape:cy="-1.5078571"
     inkscape:window-x="1360"
     inkscape:window-y="0"
     inkscape:window-maximized="1"
     inkscape:current-layer="svg12">
    <sodipodi:guide
       position="-11.79661,10.711864"
       orientation="0,1"
       id="guide4516"
       inkscape:locked="false" />
  </sodipodi:namedview>
  <g
     id="g824"
     transform="translate(40.135593,-6.915254)">
    <path
       sodipodi:nodetypes="sssssscsssscs"
       inkscape:connector-curvature="0"
       id="rect4549-36"
       d="m -12.231913,13.642384 c 1.168734,-7.38e-4 2.109629,0.940894 2.109629,2.10963 v 17.610519 c 0,1.168735 -0.940895,2.109629 -2.109629,2.109629 h -23.80736 c -1.168735,0 -2.109682,-0.940894 -2.109629,-2.109629 l 7.31e-4,-16.244506 7.31e-4,-5.066908 c 0,-0.937797 0.754977,-1.692774 1.692773,-1.692774 h 9.090821 c 0.937797,0 1.704839,0.371322 2.299888,1.096152 l 1.801865,2.19486 z"
       style="fill:#59a142;fill-opacity:1;stroke:none;stroke-width:0.14515875;stroke-miterlimit:4;stroke-dasharray:none;stroke-opacity:1" />
    <path
       sodipodi:nodetypes="csssscc"
       inkscape:connector-curvature="0"
       id="rect4549-3-7"
       d="m -10.122284,22.237289 v 11.125245 c 0,1.168735 -0.940895,2.109629 -2.109629,2.109629 h -23.80736 c -1.168735,0 -2.109682,-0.940894 -2.109629,-2.109629 l 5.01e-4,-11.125244 c 10.665105,0 20.259927,-1e-6 28.026117,-1e-6 z"
       style="fill:#7dc842;fill-opacity:1;stroke:none;stroke-width:0.14515875;stroke-miterlimit:4;stroke-dasharray:none;stroke-opacity:1" />
  </g>
</svg>
