<?xml version="1.0" encoding="UTF-8" standalone="no"?>
<svg
   xmlns:dc="http://purl.org/dc/elements/1.1/"
   xmlns:cc="http://creativecommons.org/ns#"
   xmlns:rdf="http://www.w3.org/1999/02/22-rdf-syntax-ns#"
   xmlns:svg="http://www.w3.org/2000/svg"
   xmlns="http://www.w3.org/2000/svg"
   xmlns:sodipodi="http://sodipodi.sourceforge.net/DTD/sodipodi-0.dtd"
   xmlns:inkscape="http://www.inkscape.org/namespaces/inkscape"
   width="32"
   height="32"
   version="1"
   id="svg16"
   sodipodi:docname="folder-visiting.svg"
   inkscape:version="0.92.1 r">
  <metadata
     id="metadata22">
    <rdf:RDF>
      <cc:Work
         rdf:about="">
        <dc:format>image/svg+xml</dc:format>
        <dc:type
           rdf:resource="http://purl.org/dc/dcmitype/StillImage" />
      </cc:Work>
    </rdf:RDF>
  </metadata>
  <defs
     id="defs20" />
  <sodipodi:namedview
     pagecolor="#ffffff"
     bordercolor="#666666"
     borderopacity="1"
     objecttolerance="10"
     gridtolerance="10"
     guidetolerance="10"
     inkscape:pageopacity="0"
     inkscape:pageshadow="2"
     inkscape:window-width="1680"
     inkscape:window-height="994"
     id="namedview18"
     showgrid="false"
     inkscape:zoom="10.429825"
     inkscape:cx="-15.932546"
     inkscape:cy="12.229477"
     inkscape:window-x="0"
     inkscape:window-y="0"
     inkscape:window-maximized="1"
     inkscape:current-layer="svg16" />
  <path
     style="fill:#7dc842;fill-opacity:1;stroke:none;stroke-width:0.14515875;stroke-miterlimit:4;stroke-dasharray:none;stroke-opacity:1"
     d="m 27.903703,6.7271298 c 1.168734,-7.38e-4 2.109629,0.940894 2.109629,2.10963 V 26.44728 c 0,1.168735 -0.940895,2.109629 -2.109629,2.109629 H 4.096344 c -1.168734,0 -2.109681,-0.940894 -2.109629,-2.109629 l 7.31e-4,-16.244507 7.32e-4,-5.0669082 c 0,-0.937797 0.754977,-1.692774 1.692773,-1.692774 h 9.09082 c 0.937797,0 1.704839,0.371322 2.299888,1.096152 l 1.801865,2.19486 z"
     id="rect4549-3-3"
     inkscape:connector-curvature="0"
     sodipodi:nodetypes="sssssscsssscs" />
  <path
     inkscape:connector-curvature="0"
     style="fill:#4f9942;fill-opacity:1;stroke:none;stroke-width:0.14515875;stroke-miterlimit:4;stroke-dasharray:none;stroke-opacity:1"
     d="m 2.376977,9.2851558 c -0.152241,0 -0.25027,0.1186872 -0.388672,0.1601563 v 0.7578129 2.177734 l 27.140624,15.669922 c 0.508217,-0.384514 0.884766,-0.914269 0.884766,-1.603515 V 24.927734 L 2.917992,9.2851558 Z m 6.833984,0 20.802734,12.0097662 V 17.662109 L 15.501977,9.2851558 Z m 12.582032,0 8.220702,4.7441412 V 10.396484 L 28.085961,9.2851558 Z m -19.804688,6.7285162 -0.002,3.632812 15.431641,8.910157 h 6.292969 z m -0.002,7.263672 v 3.169922 c -1.1e-5,0.238629 0.179577,0.395811 0.251953,0.609375 l 2.595703,1.5 h 6.292969 z"
     id="path4511" />
</svg>
