<?xml version="1.0" encoding="UTF-8" standalone="no"?>
<svg
   xmlns:dc="http://purl.org/dc/elements/1.1/"
   xmlns:cc="http://creativecommons.org/ns#"
   xmlns:rdf="http://www.w3.org/1999/02/22-rdf-syntax-ns#"
   xmlns:svg="http://www.w3.org/2000/svg"
   xmlns="http://www.w3.org/2000/svg"
   xmlns:sodipodi="http://sodipodi.sourceforge.net/DTD/sodipodi-0.dtd"
   xmlns:inkscape="http://www.inkscape.org/namespaces/inkscape"
   width="32"
   height="32"
   version="1.1"
   viewBox="0 0 32 32"
   id="svg6"
   sodipodi:docname="distributor-logo-freebsd.svg"
   inkscape:version="0.92.1 r">
  <metadata
     id="metadata12">
    <rdf:RDF>
      <cc:Work
         rdf:about="">
        <dc:format>image/svg+xml</dc:format>
        <dc:type
           rdf:resource="http://purl.org/dc/dcmitype/StillImage" />
        <dc:title></dc:title>
      </cc:Work>
    </rdf:RDF>
  </metadata>
  <defs
     id="defs10" />
  <sodipodi:namedview
     pagecolor="#ffffff"
     bordercolor="#666666"
     borderopacity="1"
     objecttolerance="10"
     gridtolerance="10"
     guidetolerance="10"
     inkscape:pageopacity="0"
     inkscape:pageshadow="2"
     inkscape:window-width="1680"
     inkscape:window-height="966"
     id="namedview8"
     showgrid="false"
     inkscape:zoom="14.75"
     inkscape:cx="8"
     inkscape:cy="8"
     inkscape:window-x="0"
     inkscape:window-y="0"
     inkscape:window-maximized="1"
     inkscape:current-layer="svg6" />
  <g
     id="g843"
     transform="matrix(1.762712,0,0,1.762712,1.8983044,-26.305035)">
    <path
       inkscape:connector-curvature="0"
       id="path2"
       d="m 3.0052445,16.016361 c -0.3694106,-0.03249 -0.7932913,-0.03085 -1.2818055,0.140635 -0.4966643,0.174348 -1.01951642,0.582823 -1.30907788,1.043049 -0.52084808,0.82799 -0.41469533743,1.292356 -0.38571045,1.74818 0.02898489,0.455823 0.1213627,0.883888 0.27077653,1.326272 0.29785637,0.881942 0.8213693,1.718282 1.312974,2.519724 -0.2488132,0.725436 -0.5926575,1.428094 -0.59415,2.201339 v 0.0039 c 0,3.842593 3.149463,7.00053 6.9817489,7.00053 3.8322859,0 6.9817489,-3.157937 6.9817489,-7.000533 3e-6,-0.002 3e-6,-0.0039 0,-0.0059 -0.0023,-0.773686 -0.346229,-1.475791 -0.596098,-2.201339 0.491654,-0.801133 1.016932,-1.635433 1.314922,-2.51777 0.149413,-0.442383 0.241792,-0.870449 0.270777,-1.326273 0.02898,-0.455824 0.135144,-0.920187 -0.385711,-1.74818 -0.289561,-0.460226 -0.812413,-0.868701 -1.309078,-1.043048 -0.488515,-0.171487 -0.912395,-0.173122 -1.281806,-0.140636 -0.328038,0.02441 -0.548066,0.07921 -0.705187,0.115243 -0.0072,0.0013 -0.01429,0.0026 -0.02142,0.0039 -1.270828,0.306518 -2.5335545,0.980242 -3.7869798,1.822405 -0.023865,0.01602 -0.052964,0.06749 -0.077921,0.08399 -0.1337667,-0.008 -0.2652008,-0.04266 -0.399351,-0.04297 -0.00519,-2e-5 -0.01039,-2e-5 -0.015584,0 -0.1318031,7.85e-4 -0.2601508,0.03667 -0.3915548,0.04493 -0.025422,-0.01691 -0.053632,-0.06964 -0.077921,-0.08594 C 6.265411,17.115705 5.0026847,16.441982 3.731861,16.135464 c -0.00714,-0.0013 -0.014279,-0.0026 -0.021428,-0.0039 -0.15712,-0.03604 -0.377149,-0.09084 -0.7051879,-0.115243 z"
       style="fill:#fb5140" />
    <path
       inkscape:connector-curvature="0"
       id="path4"
       d="m 2.8320312,18.007812 c -0.3759609,-0.03439 -0.6139993,0.05038 -0.7460937,0.259766 -0.1411276,0.223748 -0.1053188,0.796668 0.087891,1.367188 0.211138,0.623494 0.7445268,1.645323 1.2050781,2.396484 0.7217103,-1.119107 1.8360651,-1.958155 3.1484376,-2.324219 -0.04337,-0.02973 -0.071007,-0.0511 -0.1230469,-0.08594 -1.0970498,-0.735116 -2.3522153,-1.34706 -3.1503911,-1.53906 -0.1569674,-0.03591 -0.2965458,-0.06666 -0.421875,-0.07422 z m 10.3359378,0 c -0.125329,0.0076 -0.264908,0.03831 -0.421875,0.07422 -0.798176,0.192 -2.053341,0.803945 -3.1503909,1.539063 C 9.0373611,19.994889 8.9998299,20.044477 9,20.423828 c 1.323e-4,0.270992 0.02146,0.3605 0.1582031,0.644531 0.3786293,0.785197 1.2251259,1.587965 1.9492189,1.847657 0.321223,0.115275 0.732545,0.111243 0.884766,-0.0078 0.382273,-0.299719 1.506166,-2.30539 1.833984,-3.27344 0.193209,-0.57052 0.229019,-1.14344 0.08789,-1.367188 -0.132094,-0.209386 -0.370132,-0.294159 -0.746093,-0.259766 z M 8,20 a 5,5 0 0 0 -5,5 5,5 0 0 0 5,5 5,5 0 0 0 5,-5 5,5 0 0 0 -0.419922,-1.988281 c -0.08124,0.106083 -0.167047,0.201053 -0.279297,0.289062 v 0.002 C 12.054584,23.49529 11.839823,23.49805 11.617188,23.5 11.39455,23.501948 11.165547,23.467856 10.939453,23.386719 10.023871,23.058351 9.1563368,22.21287 8.7089844,21.285156 8.5634981,20.982965 8.5001454,20.721568 8.5,20.423828 8.499948,20.307903 8.515458,20.170867 8.550781,20.033203 A 5,5 0 0 0 8,20 Z"
       style="fill:#ffffff" />
  </g>
</svg>
