<?xml version="1.0" encoding="UTF-8" standalone="no"?>
<svg
   xmlns:dc="http://purl.org/dc/elements/1.1/"
   xmlns:cc="http://creativecommons.org/ns#"
   xmlns:rdf="http://www.w3.org/1999/02/22-rdf-syntax-ns#"
   xmlns:svg="http://www.w3.org/2000/svg"
   xmlns="http://www.w3.org/2000/svg"
   xmlns:sodipodi="http://sodipodi.sourceforge.net/DTD/sodipodi-0.dtd"
   xmlns:inkscape="http://www.inkscape.org/namespaces/inkscape"
   width="22"
   height="22"
   viewBox="0 0 22 22"
   version="1.1"
   id="svg7"
   sodipodi:docname="ksnapshot.svg"
   inkscape:version="0.92.1 r">
  <metadata
     id="metadata11">
    <rdf:RDF>
      <cc:Work
         rdf:about="">
        <dc:format>image/svg+xml</dc:format>
        <dc:type
           rdf:resource="http://purl.org/dc/dcmitype/StillImage" />
        <dc:title></dc:title>
      </cc:Work>
    </rdf:RDF>
  </metadata>
  <sodipodi:namedview
     pagecolor="#ffffff"
     bordercolor="#666666"
     borderopacity="1"
     objecttolerance="10"
     gridtolerance="10"
     guidetolerance="10"
     inkscape:pageopacity="0"
     inkscape:pageshadow="2"
     inkscape:window-width="640"
     inkscape:window-height="480"
     id="namedview9"
     showgrid="false"
     inkscape:zoom="13"
     inkscape:cx="-3.6153846"
     inkscape:cy="11"
     inkscape:current-layer="svg7" />
  <defs
     id="defs3">
    <style
       type="text/css"
       id="current-color-scheme">
   .ColorScheme-Text { color:#5c616c; } .ColorScheme-Highlight { color:#5294e2; }
  </style>
  </defs>
  <path
     inkscape:connector-curvature="0"
     style="color:#5c616c;opacity:1;fill:currentColor;stroke-width:1"
     class="ColorScheme-Text"
     d="M 6.7142852,2.8131871 5.2857138,4.2417585 H 3.8571424 c -2.85714293,0 -2.85714293,2.8571429 -2.85714293,2.8571429 v 9.9999996 c 0,2.857143 2.85714293,2.857143 2.85714293,2.857143 H 18.142857 C 21,19.956044 21,17.098901 21,17.098901 V 7.0989014 C 21,4.2417585 18.142857,4.2417585 18.142857,4.2417585 H 16.714286 L 15.285715,2.8131871 Z M 11,7.0989014 c 2.366858,0 4.285715,1.9188571 4.285715,4.2857136 0,2.366857 -1.918857,4.285715 -4.285715,4.285715 -2.3668575,0 -4.2857148,-1.918858 -4.2857148,-4.285715 0,-2.3668565 1.9188573,-4.2857136 4.2857148,-4.2857136 z"
     id="path5-3" />
</svg>
