<?xml version="1.0" encoding="UTF-8"?>
<svg xmlns="http://www.w3.org/2000/svg" xmlns:xlink="http://www.w3.org/1999/xlink" width="12pt" height="12pt" viewBox="0 0 12 12" version="1.1">
<g id="surface1">
<path style=" stroke:none;fill-rule:nonzero;fill:rgb(82.745098%,85.490196%,89.019608%);fill-opacity:1;" d="M 7.636719 2.726562 C 6.945312 2.726562 6.328125 3.164062 6.097656 3.816406 L 2.183594 3.816406 L 2.183594 4.910156 L 6.09375 4.910156 C 6.324219 5.5625 6.941406 6 7.636719 6 C 8.328125 6 8.945312 5.5625 9.175781 4.910156 L 9.816406 4.910156 L 9.816406 3.816406 L 9.179688 3.816406 C 8.945312 3.164062 8.328125 2.726562 7.636719 2.726562 Z M 4.910156 6 C 4.214844 6 3.597656 6.4375 3.367188 7.089844 L 2.183594 7.089844 L 2.183594 8.183594 L 3.367188 8.183594 C 3.597656 8.835938 4.214844 9.273438 4.910156 9.273438 C 5.601562 9.273438 6.21875 8.835938 6.449219 8.183594 L 9.816406 8.183594 L 9.816406 7.089844 L 6.449219 7.089844 C 6.21875 6.4375 5.601562 6 4.910156 6 Z M 4.910156 6 "/>
</g>
</svg>
