<?xml version="1.0" encoding="UTF-8"?>
<svg xmlns="http://www.w3.org/2000/svg" xmlns:xlink="http://www.w3.org/1999/xlink" width="12pt" height="12pt" viewBox="0 0 12 12" version="1.1">
<g id="surface1">
<path style=" stroke:none;fill-rule:nonzero;fill:rgb(82.745098%,85.490196%,89.019608%);fill-opacity:1;" d="M 2.640625 2.1875 C 2.488281 2.210938 2.179688 2.324219 2.179688 2.734375 L 2.179688 8.734375 C 2.179688 8.734375 2.179688 9.277344 2.726562 9.277344 L 9.269531 9.277344 C 9.269531 9.277344 9.816406 9.277344 9.816406 8.734375 L 9.816406 3.824219 C 9.816406 3.277344 9.269531 3.277344 9.269531 3.277344 L 6.542969 3.277344 L 5.453125 2.1875 L 2.726562 2.1875 C 2.726562 2.1875 2.691406 2.179688 2.640625 2.1875 Z M 5.453125 4.367188 L 6.542969 4.367188 L 6.542969 5.460938 L 7.632812 5.460938 L 7.632812 6.550781 L 6.542969 6.550781 L 6.542969 7.640625 L 5.453125 7.640625 L 5.453125 6.550781 L 4.363281 6.550781 L 4.363281 5.460938 L 5.453125 5.460938 Z M 5.453125 4.367188 "/>
</g>
</svg>
