<?xml version="1.0" encoding="UTF-8"?>
<svg xmlns="http://www.w3.org/2000/svg" xmlns:xlink="http://www.w3.org/1999/xlink" width="12pt" height="12pt" viewBox="0 0 12 12" version="1.1">
<g id="surface1">
<path style=" stroke:none;fill-rule:nonzero;fill:rgb(82.745098%,85.490196%,89.019608%);fill-opacity:1;" d="M 4.363281 2.183594 C 4.0625 2.183594 3.816406 2.425781 3.816406 2.726562 L 3.816406 4.363281 L 2.726562 4.363281 C 2.425781 4.363281 2.183594 4.605469 2.183594 4.910156 L 2.183594 9.273438 C 2.183594 9.574219 2.425781 9.816406 2.726562 9.816406 L 9.273438 9.816406 C 9.574219 9.816406 9.816406 9.574219 9.816406 9.273438 L 9.816406 4.910156 C 9.816406 4.605469 9.574219 4.363281 9.273438 4.363281 L 8.183594 4.363281 L 8.183594 2.726562 C 8.183594 2.425781 7.9375 2.183594 7.636719 2.183594 Z M 4.910156 3.273438 L 7.089844 3.273438 L 7.089844 4.363281 L 4.910156 4.363281 Z M 4.910156 3.273438 "/>
</g>
</svg>
