<?xml version="1.0" encoding="UTF-8"?>
<svg xmlns="http://www.w3.org/2000/svg" xmlns:xlink="http://www.w3.org/1999/xlink" width="12pt" height="12pt" viewBox="0 0 12 12" version="1.1">
<g id="surface1">
<path style=" stroke:none;fill-rule:nonzero;fill:rgb(82.745098%,85.490196%,89.019608%);fill-opacity:1;" d="M 2.183594 2.179688 L 2.183594 3.371094 C 5.742188 3.371094 8.628906 6.253906 8.628906 9.816406 L 9.816406 9.816406 C 9.816406 5.597656 6.398438 2.179688 2.183594 2.179688 Z M 2.183594 4.558594 L 2.183594 5.75 C 4.425781 5.75 6.25 7.570312 6.25 9.816406 L 7.4375 9.816406 C 7.4375 6.914062 5.085938 4.558594 2.183594 4.558594 Z M 3.320312 7.539062 C 2.691406 7.539062 2.183594 8.050781 2.183594 8.679688 C 2.183594 9.308594 2.691406 9.820312 3.320312 9.820312 C 3.953125 9.820312 4.460938 9.308594 4.460938 8.679688 C 4.460938 8.050781 3.953125 7.539062 3.320312 7.539062 Z M 3.320312 7.539062 "/>
</g>
</svg>
