<?xml version="1.0" encoding="UTF-8"?>
<svg xmlns="http://www.w3.org/2000/svg" xmlns:xlink="http://www.w3.org/1999/xlink" width="12pt" height="12pt" viewBox="0 0 12 12" version="1.1">
<g id="surface1">
<path style=" stroke:none;fill-rule:nonzero;fill:rgb(82.745098%,85.490196%,89.019608%);fill-opacity:1;" d="M 3.273438 2.183594 C 2.667969 2.183594 2.183594 2.667969 2.183594 3.273438 L 2.183594 4.90625 L 3.273438 4.910156 L 3.273438 3.273438 L 8.726562 3.273438 L 8.726562 8.726562 L 3.273438 8.726562 L 3.273438 7.089844 L 2.183594 7.085938 L 2.183594 8.726562 C 2.183594 9.332031 2.667969 9.816406 3.273438 9.816406 L 8.726562 9.816406 C 9.332031 9.816406 9.816406 9.332031 9.816406 8.726562 L 9.816406 3.273438 C 9.816406 2.667969 9.332031 2.183594 8.726562 2.183594 Z M 5.570312 3.816406 L 4.8125 4.574219 L 5.703125 5.464844 L 1.636719 5.453125 L 1.636719 6.546875 L 5.703125 6.558594 L 4.8125 7.449219 L 5.570312 8.203125 L 7.75 6 Z M 5.570312 3.816406 "/>
</g>
</svg>
