<?xml version="1.0" encoding="UTF-8"?>
<svg xmlns="http://www.w3.org/2000/svg" xmlns:xlink="http://www.w3.org/1999/xlink" width="12pt" height="12pt" viewBox="0 0 12 12" version="1.1">
<g id="surface1">
<path style=" stroke:none;fill-rule:nonzero;fill:rgb(82.745098%,85.490196%,89.019608%);fill-opacity:1;" d="M 3.222656 2.199219 C 2.953125 2.222656 2.765625 2.460938 2.710938 2.710938 C 2.554688 3.199219 2.390625 3.691406 2.234375 4.179688 L 2.183594 4.382812 L 2.183594 8.746094 C 2.183594 9.046875 2.425781 9.292969 2.730469 9.292969 L 9.273438 9.292969 C 9.578125 9.292969 9.820312 9.046875 9.820312 8.746094 L 9.820312 4.382812 L 9.753906 4.128906 C 9.566406 3.585938 9.402344 3.027344 9.207031 2.492188 C 9.089844 2.25 8.824219 2.175781 8.574219 2.199219 Z M 3.671875 3.292969 L 8.324219 3.292969 C 8.382812 3.46875 8.445312 3.65625 8.503906 3.835938 L 3.492188 3.835938 C 3.550781 3.65625 3.609375 3.476562 3.671875 3.292969 Z M 5.457031 4.929688 L 6.546875 4.929688 L 6.546875 6.566406 L 7.503906 6.566406 L 6.003906 8.199219 L 4.503906 6.566406 L 5.457031 6.566406 Z M 5.457031 4.929688 "/>
</g>
</svg>
