<?xml version="1.0" encoding="UTF-8"?>
<svg xmlns="http://www.w3.org/2000/svg" xmlns:xlink="http://www.w3.org/1999/xlink" width="12pt" height="12pt" viewBox="0 0 12 12" version="1.1">
<defs>
<filter id="alpha" filterUnits="objectBoundingBox" x="0%" y="0%" width="100%" height="100%">
  <feColorMatrix type="matrix" in="SourceGraphic" values="0 0 0 0 1 0 0 0 0 1 0 0 0 0 1 0 0 0 1 0"/>
</filter>
<mask id="mask0">
  <g filter="url(#alpha)">
<rect x="0" y="0" width="12" height="12" style="fill:rgb(0%,0%,0%);fill-opacity:0.301961;stroke:none;"/>
  </g>
</mask>
<clipPath id="clip1">
  <rect width="12" height="12"/>
</clipPath>
<g id="surface6" clip-path="url(#clip1)">
<path style=" stroke:none;fill-rule:nonzero;fill:rgb(82.745098%,85.490196%,89.019608%);fill-opacity:1;" d="M 6 2.183594 L 3.769531 4.414062 L 2.230469 4.414062 L 2.230469 7.585938 L 3.769531 7.585938 L 6 9.816406 Z M 7.09375 2.183594 L 7.09375 3 C 8.359375 3.402344 9.273438 4.597656 9.273438 6 C 9.273438 7.402344 8.359375 8.597656 7.09375 9 L 7.09375 9.816406 C 8.808594 9.394531 10.09375 7.855469 10.09375 6 C 10.09375 4.144531 8.808594 2.605469 7.09375 2.183594 Z M 7.089844 4.363281 L 7.089844 7.636719 C 7.667969 7.320312 8.066406 6.710938 8.066406 6 C 8.066406 5.289062 7.675781 4.679688 7.089844 4.363281 Z M 7.089844 4.363281 "/>
</g>
</defs>
<g id="surface1">
<use xlink:href="#surface6" mask="url(#mask0)"/>
</g>
</svg>
