<?xml version="1.0" encoding="UTF-8"?>
<svg xmlns="http://www.w3.org/2000/svg" xmlns:xlink="http://www.w3.org/1999/xlink" width="12pt" height="12pt" viewBox="0 0 12 12" version="1.1">
<g id="surface1">
<path style=" stroke:none;fill-rule:nonzero;fill:rgb(82.745098%,85.490196%,89.019608%);fill-opacity:1;" d="M 8.019531 6 C 8.019531 5.289062 7.625 4.679688 7.042969 4.363281 L 7.042969 7.636719 C 7.621094 7.320312 8.019531 6.710938 8.019531 6 Z M 2.183594 4.414062 L 2.183594 7.585938 L 3.71875 7.585938 L 5.949219 9.816406 L 5.949219 2.183594 L 3.71875 4.414062 Z M 7.042969 2.183594 L 7.042969 3 C 8.308594 3.402344 9.222656 4.597656 9.222656 6 C 9.222656 7.402344 8.308594 8.597656 7.042969 9 L 7.042969 9.816406 C 8.761719 9.394531 10.042969 7.855469 10.042969 6 C 10.042969 4.144531 8.761719 2.605469 7.042969 2.183594 Z M 7.042969 2.183594 "/>
</g>
</svg>
