<?xml version="1.0" encoding="UTF-8"?>
<svg xmlns="http://www.w3.org/2000/svg" xmlns:xlink="http://www.w3.org/1999/xlink" width="12pt" height="12pt" viewBox="0 0 12 12" version="1.1">
<g id="surface1">
<path style=" stroke:none;fill-rule:nonzero;fill:rgb(82.745098%,85.490196%,89.019608%);fill-opacity:1;" d="M 2.726562 2.726562 C 2.183594 2.726562 2.183594 3.273438 2.183594 3.273438 L 2.183594 8.726562 C 2.183594 9.273438 2.726562 9.273438 2.726562 9.273438 L 6.546875 9.273438 L 6.546875 8.5 L 6.863281 8.183594 L 3.273438 8.183594 L 3.273438 6.816406 L 4.636719 5.214844 L 6.441406 7.261719 L 7.601562 6.136719 L 8.253906 6.789062 L 8.886719 6.15625 L 9.273438 5.773438 L 9.816406 6.316406 L 9.816406 3.273438 C 9.816406 2.726562 9.273438 2.726562 9.273438 2.726562 Z M 9.273438 6.542969 L 7.089844 8.726562 L 7.089844 9.816406 L 8.183594 9.816406 L 8.503906 9.492188 L 8.726562 9.269531 L 9.273438 8.726562 L 9.816406 8.179688 L 10.363281 7.632812 Z M 9.273438 6.542969 "/>
</g>
</svg>
