<?xml version="1.0" encoding="UTF-8"?>
<svg xmlns="http://www.w3.org/2000/svg" xmlns:xlink="http://www.w3.org/1999/xlink" width="12pt" height="12pt" viewBox="0 0 12 12" version="1.1">
<g id="surface1">
<path style=" stroke:none;fill-rule:nonzero;fill:rgb(82.745098%,85.490196%,89.019608%);fill-opacity:1;" d="M 7.636719 2.183594 L 7.324219 3.0625 L 6.480469 2.660156 L 6.878906 3.503906 L 6 3.816406 L 6.878906 4.132812 L 6.480469 4.976562 L 7.324219 4.574219 L 7.636719 5.453125 L 7.949219 4.574219 L 8.792969 4.976562 L 8.394531 4.132812 L 9.273438 3.816406 L 8.394531 3.503906 L 8.792969 2.660156 L 7.949219 3.0625 Z M 4.910156 2.726562 C 4.796875 3.089844 4.644531 3.445312 4.480469 3.789062 C 3.636719 5.507812 2.324219 6.683594 2.195312 7.769531 C 2.195312 7.785156 2.183594 7.800781 2.183594 7.820312 L 2.191406 7.820312 C 2.191406 7.859375 2.183594 7.894531 2.183594 7.933594 C 2.183594 9.277344 3.402344 10.363281 4.910156 10.363281 C 6.414062 10.363281 7.636719 9.277344 7.636719 7.933594 C 7.636719 7.894531 7.628906 7.859375 7.625 7.820312 L 7.636719 7.820312 C 7.632812 7.800781 7.625 7.785156 7.621094 7.769531 C 7.496094 6.683594 6.179688 5.507812 5.339844 3.789062 C 5.175781 3.441406 5.023438 3.089844 4.910156 2.726562 Z M 4.910156 2.726562 "/>
</g>
</svg>
