<?xml version="1.0" encoding="UTF-8"?>
<svg xmlns="http://www.w3.org/2000/svg" xmlns:xlink="http://www.w3.org/1999/xlink" width="12pt" height="12pt" viewBox="0 0 12 12" version="1.1">
<g id="surface1">
<path style=" stroke:none;fill-rule:nonzero;fill:rgb(82.745098%,85.490196%,89.019608%);fill-opacity:1;" d="M 4.363281 1.636719 C 4.273438 1.636719 4.179688 1.640625 4.089844 1.648438 C 4 1.660156 3.910156 1.671875 3.820312 1.691406 C 3.8125 1.691406 3.804688 1.695312 3.800781 1.695312 C 3.632812 1.730469 3.472656 1.78125 3.3125 1.847656 C 3.308594 1.847656 3.304688 1.851562 3.300781 1.851562 L 3.292969 1.855469 C 3.140625 1.921875 2.996094 2 2.859375 2.089844 C 2.851562 2.097656 2.839844 2.101562 2.832031 2.105469 C 2.695312 2.199219 2.570312 2.304688 2.453125 2.421875 C 2.445312 2.429688 2.4375 2.4375 2.429688 2.445312 C 2.320312 2.554688 2.21875 2.675781 2.128906 2.804688 C 2.117188 2.824219 2.101562 2.839844 2.089844 2.859375 C 2.007812 2.988281 1.933594 3.121094 1.875 3.261719 C 1.863281 3.285156 1.851562 3.304688 1.84375 3.332031 C 1.78125 3.472656 1.738281 3.625 1.703125 3.777344 C 1.695312 3.804688 1.691406 3.832031 1.683594 3.863281 C 1.675781 3.902344 1.671875 3.945312 1.664062 3.988281 C 1.660156 4.03125 1.652344 4.078125 1.648438 4.128906 C 1.640625 4.207031 1.636719 4.285156 1.636719 4.363281 C 1.636719 4.507812 1.648438 4.652344 1.671875 4.792969 C 1.675781 4.816406 1.679688 4.839844 1.683594 4.863281 C 1.710938 5 1.746094 5.132812 1.792969 5.265625 C 1.796875 5.28125 1.804688 5.300781 1.8125 5.316406 C 1.859375 5.449219 1.921875 5.578125 1.988281 5.703125 C 1.992188 5.710938 2 5.71875 2.003906 5.726562 C 2.074219 5.851562 2.15625 5.96875 2.246094 6.082031 C 2.25 6.082031 2.253906 6.085938 2.253906 6.089844 C 2.347656 6.199219 2.445312 6.304688 2.554688 6.398438 C 2.566406 6.410156 2.578125 6.417969 2.589844 6.429688 C 2.699219 6.523438 2.8125 6.609375 2.9375 6.683594 C 2.941406 6.6875 2.949219 6.691406 2.957031 6.695312 C 3.222656 6.855469 3.511719 6.96875 3.816406 7.03125 C 3.816406 7.03125 3.816406 7.03125 3.816406 7.035156 L 3.816406 10.363281 L 4.910156 10.363281 L 4.910156 7.035156 C 5.03125 7.007812 5.152344 6.976562 5.269531 6.933594 C 5.289062 6.925781 5.308594 6.917969 5.328125 6.910156 C 5.558594 6.824219 5.773438 6.707031 5.972656 6.5625 C 5.988281 6.550781 6.003906 6.539062 6.019531 6.527344 C 6.113281 6.453125 6.207031 6.375 6.289062 6.289062 C 6.378906 6.203125 6.460938 6.109375 6.535156 6.007812 C 6.546875 5.996094 6.554688 5.980469 6.566406 5.96875 C 6.632812 5.875 6.691406 5.78125 6.746094 5.679688 C 6.753906 5.671875 6.757812 5.660156 6.765625 5.652344 C 6.824219 5.539062 6.878906 5.421875 6.921875 5.300781 L 6.925781 5.292969 C 6.96875 5.167969 7.007812 5.042969 7.03125 4.914062 C 7.03125 4.910156 7.03125 4.910156 7.035156 4.910156 L 10.363281 4.910156 L 10.363281 3.816406 L 7.035156 3.816406 C 7.003906 3.671875 6.960938 3.527344 6.90625 3.390625 C 6.902344 3.375 6.898438 3.359375 6.890625 3.34375 C 6.839844 3.21875 6.78125 3.097656 6.710938 2.980469 C 6.695312 2.953125 6.679688 2.929688 6.664062 2.902344 C 6.59375 2.789062 6.515625 2.683594 6.429688 2.582031 C 6.417969 2.570312 6.402344 2.558594 6.390625 2.542969 C 6.304688 2.449219 6.214844 2.359375 6.117188 2.277344 C 6.101562 2.265625 6.089844 2.253906 6.074219 2.242188 C 5.972656 2.160156 5.863281 2.085938 5.746094 2.019531 C 5.722656 2.003906 5.699219 1.988281 5.671875 1.972656 C 5.558594 1.910156 5.4375 1.855469 5.316406 1.808594 C 5.292969 1.800781 5.269531 1.792969 5.242188 1.785156 C 5.117188 1.742188 4.988281 1.707031 4.855469 1.683594 C 4.847656 1.679688 4.84375 1.679688 4.835938 1.679688 C 4.679688 1.652344 4.523438 1.636719 4.363281 1.636719 Z M 4.363281 1.636719 "/>
</g>
</svg>
