<?xml version="1.0" encoding="UTF-8"?>
<svg xmlns="http://www.w3.org/2000/svg" xmlns:xlink="http://www.w3.org/1999/xlink" width="12pt" height="12pt" viewBox="0 0 12 12" version="1.1">
<g id="surface1">
<path style=" stroke:none;fill-rule:nonzero;fill:rgb(82.745098%,85.490196%,89.019608%);fill-opacity:1;" d="M 6 2.183594 C 4.492188 2.183594 3.273438 3.402344 3.273438 4.910156 C 3.273438 4.910156 3.273438 4.910156 3.273438 4.914062 C 2.585938 5.425781 2.183594 6.234375 2.183594 7.089844 C 2.183594 8.597656 3.402344 9.816406 4.910156 9.816406 C 5.285156 9.816406 5.65625 9.738281 5.996094 9.589844 C 6.34375 9.738281 6.714844 9.816406 7.089844 9.816406 C 8.597656 9.816406 9.816406 8.597656 9.816406 7.089844 C 9.816406 6.234375 9.414062 5.425781 8.726562 4.914062 C 8.726562 4.910156 8.726562 4.910156 8.726562 4.910156 C 8.726562 3.402344 7.507812 2.183594 6 2.183594 Z M 6 2.183594 "/>
</g>
</svg>
