<?xml version="1.0" encoding="UTF-8"?>
<svg xmlns="http://www.w3.org/2000/svg" xmlns:xlink="http://www.w3.org/1999/xlink" width="12pt" height="12pt" viewBox="0 0 12 12" version="1.1">
<defs>
<filter id="alpha" filterUnits="objectBoundingBox" x="0%" y="0%" width="100%" height="100%">
  <feColorMatrix type="matrix" in="SourceGraphic" values="0 0 0 0 1 0 0 0 0 1 0 0 0 0 1 0 0 0 1 0"/>
</filter>
<mask id="mask0">
  <g filter="url(#alpha)">
<rect x="0" y="0" width="12" height="12" style="fill:rgb(0%,0%,0%);fill-opacity:0.301961;stroke:none;"/>
  </g>
</mask>
<clipPath id="clip1">
  <rect width="12" height="12"/>
</clipPath>
<g id="surface6" clip-path="url(#clip1)">
<path style=" stroke:none;fill-rule:nonzero;fill:rgb(82.745098%,85.490196%,89.019608%);fill-opacity:1;" d="M 6 2.183594 C 4.191406 2.183594 2.726562 3.648438 2.726562 5.453125 C 2.726562 6.59375 3.3125 7.59375 4.191406 8.183594 L 3.816406 8.183594 C 2.726562 8.183594 2.726562 9.273438 2.726562 9.273438 L 2.726562 9.816406 L 9.273438 9.816406 L 9.273438 9.273438 C 9.273438 9.273438 9.273438 8.183594 8.183594 8.183594 L 7.808594 8.183594 C 8.6875 7.59375 9.273438 6.59375 9.273438 5.453125 C 9.273438 3.648438 7.808594 2.183594 6 2.183594 Z M 6 4.367188 C 6.601562 4.367188 7.089844 4.855469 7.089844 5.457031 C 7.089844 6.058594 6.601562 6.546875 6 6.546875 C 5.398438 6.546875 4.910156 6.058594 4.910156 5.457031 C 4.910156 4.855469 5.398438 4.367188 6 4.367188 Z M 6 4.367188 "/>
</g>
</defs>
<g id="surface1">
<use xlink:href="#surface6" mask="url(#mask0)"/>
</g>
</svg>
