<?xml version="1.0" encoding="UTF-8"?>
<svg xmlns="http://www.w3.org/2000/svg" xmlns:xlink="http://www.w3.org/1999/xlink" width="12pt" height="12pt" viewBox="0 0 12 12" version="1.1">
<g id="surface1">
<path style=" stroke:none;fill-rule:nonzero;fill:rgb(99.215686%,73.72549%,29.411765%);fill-opacity:1;" d="M 9.816406 7.089844 C 9.816406 8.597656 8.597656 9.816406 7.089844 9.816406 C 5.585938 9.816406 4.363281 8.597656 4.363281 7.089844 C 4.363281 5.585938 5.585938 4.363281 7.089844 4.363281 C 8.597656 4.363281 9.816406 5.585938 9.816406 7.089844 Z M 9.816406 7.089844 "/>
<path style=" stroke:none;fill-rule:nonzero;fill:rgb(32.156863%,58.039216%,88.627451%);fill-opacity:1;" d="M 7.636719 7.089844 C 7.636719 8.597656 6.414062 9.816406 4.910156 9.816406 C 3.402344 9.816406 2.183594 8.597656 2.183594 7.089844 C 2.183594 5.585938 3.402344 4.363281 4.910156 4.363281 C 6.414062 4.363281 7.636719 5.585938 7.636719 7.089844 Z M 7.636719 7.089844 "/>
<path style=" stroke:none;fill-rule:nonzero;fill:rgb(30.980392%,93.72549%,25.882353%);fill-opacity:1;" d="M 8.726562 4.910156 C 8.726562 6.414062 7.507812 7.636719 6 7.636719 C 4.492188 7.636719 3.273438 6.414062 3.273438 4.910156 C 3.273438 3.402344 4.492188 2.183594 6 2.183594 C 7.507812 2.183594 8.726562 3.402344 8.726562 4.910156 Z M 8.726562 4.910156 "/>
</g>
</svg>
