<?xml version="1.0" encoding="UTF-8"?>
<svg xmlns="http://www.w3.org/2000/svg" xmlns:xlink="http://www.w3.org/1999/xlink" width="12pt" height="12pt" viewBox="0 0 12 12" version="1.1">
<g id="surface1">
<path style=" stroke:none;fill-rule:nonzero;fill:rgb(82.745098%,85.490196%,89.019608%);fill-opacity:1;" d="M 3 2.183594 L 3 3.273438 L 2.183594 3.273438 L 2.183594 5.453125 L 3 5.453125 L 3 6.546875 L 2.183594 6.546875 L 2.183594 8.726562 L 3 8.726562 L 3 9.816406 L 4.089844 9.816406 L 4.089844 8.726562 L 4.910156 8.726562 L 4.910156 6.546875 L 4.089844 6.546875 L 4.089844 5.453125 L 4.910156 5.453125 L 4.910156 3.273438 L 4.089844 3.273438 L 4.089844 2.183594 Z M 7.910156 2.183594 L 7.910156 3.273438 L 7.089844 3.273438 L 7.089844 5.453125 L 7.910156 5.453125 L 7.910156 6.546875 L 7.089844 6.546875 L 7.089844 8.726562 L 7.910156 8.726562 L 7.910156 9.816406 L 9 9.816406 L 9 8.726562 L 9.816406 8.726562 L 9.816406 6.546875 L 9 6.546875 L 9 5.453125 L 9.816406 5.453125 L 9.816406 3.273438 L 9 3.273438 L 9 2.183594 Z M 7.910156 2.183594 "/>
</g>
</svg>
