<?xml version="1.0" encoding="UTF-8"?>
<svg xmlns="http://www.w3.org/2000/svg" xmlns:xlink="http://www.w3.org/1999/xlink" width="12pt" height="12pt" viewBox="0 0 12 12" version="1.1">
<g id="surface1">
<path style=" stroke:none;fill-rule:nonzero;fill:rgb(82.745098%,85.490196%,89.019608%);fill-opacity:1;" d="M 4.089844 3.816406 C 2.734375 3.816406 1.636719 4.917969 1.636719 6.273438 C 1.636719 7.628906 2.734375 8.726562 4.089844 8.726562 C 5.128906 8.726562 6.054688 8.070312 6.402344 7.089844 L 8.183594 7.089844 L 8.183594 8.179688 L 9.816406 8.179688 L 9.816406 7.085938 L 10.363281 7.089844 L 10.363281 5.453125 L 6.402344 5.453125 C 6.054688 4.476562 5.128906 3.820312 4.089844 3.816406 Z M 4.089844 5.453125 C 4.542969 5.453125 4.910156 5.820312 4.910156 6.273438 C 4.910156 6.722656 4.542969 7.089844 4.089844 7.089844 C 3.640625 7.089844 3.273438 6.722656 3.273438 6.273438 C 3.273438 5.820312 3.640625 5.453125 4.089844 5.453125 Z M 4.089844 5.453125 "/>
</g>
</svg>
