<?xml version="1.0" encoding="UTF-8"?>
<svg xmlns="http://www.w3.org/2000/svg" xmlns:xlink="http://www.w3.org/1999/xlink" width="12pt" height="12pt" viewBox="0 0 12 12" version="1.1">
<g id="surface1">
<path style=" stroke:none;fill-rule:nonzero;fill:rgb(82.745098%,85.490196%,89.019608%);fill-opacity:1;" d="M 3.253906 2.726562 C 3.253906 2.726562 2.183594 2.726562 2.183594 3.816406 L 2.183594 7.089844 C 2.183594 7.695312 2.667969 8.183594 3.273438 8.183594 L 6 8.183594 L 7.089844 9.820312 L 8.183594 8.183594 L 8.726562 8.183594 C 8.726562 8.183594 9.816406 8.183594 9.816406 7.089844 L 9.816406 3.816406 C 9.816406 2.726562 8.726562 2.726562 8.726562 2.726562 Z M 5.230469 3.910156 L 6 4.683594 L 6.769531 3.910156 L 7.542969 4.683594 L 6.769531 5.453125 L 7.542969 6.226562 L 6.769531 6.996094 L 6 6.226562 L 5.230469 6.996094 L 4.457031 6.226562 L 5.230469 5.453125 L 4.457031 4.683594 Z M 5.230469 3.910156 "/>
</g>
</svg>
