<?xml version="1.0" encoding="UTF-8"?>
<svg xmlns="http://www.w3.org/2000/svg" xmlns:xlink="http://www.w3.org/1999/xlink" width="12pt" height="12pt" viewBox="0 0 12 12" version="1.1">
<g id="surface1">
<path style=" stroke:none;fill-rule:nonzero;fill:rgb(82.745098%,85.490196%,89.019608%);fill-opacity:1;" d="M 2.183594 2.183594 L 2.183594 5.453125 L 5.453125 5.453125 L 5.453125 2.183594 Z M 6.546875 2.183594 L 6.546875 5.453125 L 9.816406 5.453125 L 9.816406 2.183594 Z M 2.183594 6.546875 L 2.183594 9.816406 L 5.453125 9.816406 L 5.453125 6.546875 Z M 8.183594 6.546875 C 7.089844 6.546875 7.089844 7.089844 7.089844 7.089844 L 7.089844 8.183594 L 6.546875 8.183594 L 6.546875 9.816406 L 9.816406 9.816406 L 9.816406 8.183594 L 9.273438 8.183594 L 9.273438 7.089844 C 9.273438 7.089844 9.273438 6.546875 8.183594 6.546875 Z M 8.183594 7.089844 C 8.386719 7.089844 8.726562 7.214844 8.726562 7.363281 L 8.726562 8.183594 L 7.636719 8.183594 L 7.636719 7.363281 C 7.636719 7.214844 7.976562 7.089844 8.183594 7.089844 Z M 8.183594 7.089844 "/>
</g>
</svg>
