<?xml version="1.0" encoding="UTF-8"?>
<svg xmlns="http://www.w3.org/2000/svg" xmlns:xlink="http://www.w3.org/1999/xlink" width="12pt" height="12pt" viewBox="0 0 12 12" version="1.1">
<g id="surface1">
<path style=" stroke:none;fill-rule:nonzero;fill:rgb(82.745098%,85.490196%,89.019608%);fill-opacity:1;" d="M 3.816406 2.726562 L 3.816406 3.816406 L 7.089844 3.816406 C 7.324219 3.816406 7.636719 4.152344 7.636719 4.363281 L 7.636719 4.910156 L 4.910156 4.910156 C 4.40625 4.910156 3.960938 5.117188 3.683594 5.4375 C 3.402344 5.757812 3.269531 6.152344 3.273438 6.546875 C 3.277344 6.9375 3.417969 7.335938 3.699219 7.652344 C 3.976562 7.96875 4.414062 8.183594 4.910156 8.183594 L 8.726562 8.183594 L 8.726562 7.722656 C 8.734375 7.671875 8.726562 7.636719 8.726562 7.636719 L 8.726562 4.363281 C 8.726562 3.472656 8.007812 2.726562 7.089844 2.726562 Z M 4.910156 6 L 7.636719 6 L 7.636719 7.089844 L 4.910156 7.089844 C 4.691406 7.089844 4.601562 7.03125 4.515625 6.9375 C 4.433594 6.84375 4.363281 6.699219 4.363281 6.546875 C 4.363281 6.394531 4.421875 6.242188 4.5 6.152344 C 4.578125 6.0625 4.679688 6 4.910156 6 Z M 2.726562 8.726562 L 2.726562 9.816406 L 9.273438 9.816406 L 9.273438 8.726562 Z M 2.726562 8.726562 "/>
</g>
</svg>
