<?xml version="1.0" encoding="UTF-8"?>
<svg xmlns="http://www.w3.org/2000/svg" xmlns:xlink="http://www.w3.org/1999/xlink" width="12pt" height="12pt" viewBox="0 0 12 12" version="1.1">
<g id="surface1">
<path style=" stroke:none;fill-rule:nonzero;fill:rgb(82.745098%,85.490196%,89.019608%);fill-opacity:1;" d="M 2.183594 2.726562 L 2.183594 9.273438 L 3.273438 9.273438 L 3.273438 2.726562 Z M 4.363281 3.273438 L 4.363281 4.363281 L 7.632812 4.363281 C 7.867188 4.363281 8.179688 4.699219 8.179688 4.910156 L 8.179688 5.453125 L 5.453125 5.453125 C 4.953125 5.453125 4.507812 5.664062 4.226562 5.984375 C 3.945312 6.300781 3.816406 6.699219 3.816406 7.089844 C 3.820312 7.484375 3.964844 7.882812 4.246094 8.199219 C 4.523438 8.515625 4.957031 8.726562 5.453125 8.726562 L 9.269531 8.726562 L 9.269531 8.265625 C 9.277344 8.214844 9.269531 8.183594 9.269531 8.183594 L 9.269531 4.910156 C 9.269531 4.019531 8.550781 3.273438 7.632812 3.273438 Z M 5.453125 6.546875 L 8.179688 6.546875 L 8.179688 7.636719 L 5.453125 7.636719 C 5.238281 7.636719 5.144531 7.578125 5.0625 7.484375 C 4.980469 7.390625 4.910156 7.242188 4.910156 7.089844 C 4.90625 6.9375 4.964844 6.789062 5.046875 6.699219 C 5.125 6.609375 5.222656 6.546875 5.453125 6.546875 Z M 5.453125 6.546875 "/>
</g>
</svg>
