<?xml version="1.0" encoding="UTF-8"?>
<svg xmlns="http://www.w3.org/2000/svg" xmlns:xlink="http://www.w3.org/1999/xlink" width="12pt" height="12pt" viewBox="0 0 12 12" version="1.1">
<g id="surface1">
<path style=" stroke:none;fill-rule:nonzero;fill:rgb(82.745098%,85.490196%,89.019608%);fill-opacity:1;" d="M 3.273438 2.722656 C 3.273438 2.722656 2.726562 2.722656 2.726562 3.265625 L 2.726562 6.546875 L 3.816406 6.546875 L 3.816406 3.816406 L 8.183594 3.816406 L 8.183594 6.535156 L 9.273438 6.535156 L 9.273438 3.265625 C 9.273438 2.722656 8.726562 2.722656 8.726562 2.722656 Z M 3.816406 7.089844 L 3.816406 8.183594 L 4.910156 8.183594 L 4.910156 7.089844 Z M 7.089844 7.089844 L 7.089844 8.183594 L 8.183594 8.183594 L 8.183594 7.089844 Z M 2.726562 8.726562 L 2.726562 9.816406 L 3.816406 9.816406 L 3.816406 8.726562 Z M 5.453125 8.726562 L 5.453125 9.816406 L 6.546875 9.816406 L 6.546875 8.726562 Z M 8.183594 8.726562 L 8.183594 9.816406 L 9.273438 9.816406 L 9.273438 8.726562 Z M 8.183594 8.726562 "/>
</g>
</svg>
