<?xml version="1.0" encoding="UTF-8"?>
<svg xmlns="http://www.w3.org/2000/svg" xmlns:xlink="http://www.w3.org/1999/xlink" width="12pt" height="12pt" viewBox="0 0 12 12" version="1.1">
<g id="surface1">
<path style=" stroke:none;fill-rule:nonzero;fill:rgb(82.745098%,85.490196%,89.019608%);fill-opacity:1;" d="M 4.910156 2.183594 C 4.609375 2.183594 4.363281 2.425781 4.363281 2.726562 L 4.363281 4.363281 L 2.726562 4.363281 C 2.425781 4.363281 2.183594 4.609375 2.183594 4.910156 L 2.183594 7.089844 C 2.183594 7.390625 2.425781 7.636719 2.726562 7.636719 L 4.363281 7.636719 L 4.363281 9.273438 C 4.363281 9.574219 4.609375 9.816406 4.910156 9.816406 L 7.089844 9.816406 C 7.390625 9.816406 7.636719 9.574219 7.636719 9.273438 L 7.636719 7.636719 L 9.273438 7.636719 C 9.574219 7.636719 9.816406 7.390625 9.816406 7.089844 L 9.816406 4.910156 C 9.816406 4.609375 9.574219 4.363281 9.273438 4.363281 L 7.636719 4.363281 L 7.636719 2.726562 C 7.636719 2.425781 7.390625 2.183594 7.089844 2.183594 Z M 5.453125 3.273438 L 6.546875 3.273438 L 6.546875 5.453125 L 8.726562 5.453125 L 8.726562 6.546875 L 6.546875 6.546875 L 6.546875 8.726562 L 5.453125 8.726562 L 5.453125 6.546875 L 3.273438 6.546875 L 3.273438 5.453125 L 5.453125 5.453125 Z M 5.453125 3.273438 "/>
</g>
</svg>
