<?xml version="1.0" encoding="UTF-8"?>
<svg xmlns="http://www.w3.org/2000/svg" xmlns:xlink="http://www.w3.org/1999/xlink" width="12pt" height="12pt" viewBox="0 0 12 12" version="1.1">
<g id="surface1">
<path style=" stroke:none;fill-rule:nonzero;fill:rgb(82.745098%,85.490196%,89.019608%);fill-opacity:1;" d="M 2.183594 2.183594 L 2.183594 9.816406 L 6.546875 9.816406 L 6.546875 8.726562 L 5.453125 8.726562 L 5.453125 7.636719 L 6.546875 7.636719 L 6.546875 6.546875 L 5.453125 6.546875 L 5.453125 5.453125 L 6.546875 5.453125 L 6.546875 4.363281 L 5.453125 4.363281 L 5.453125 3.273438 L 6.546875 3.273438 L 6.546875 2.183594 Z M 7.089844 2.726562 L 7.089844 6.546875 L 7.636719 6.546875 L 7.636719 6.390625 L 8.574219 5.453125 L 9.121094 4.910156 L 9.273438 4.753906 L 9.273438 6.152344 L 8.878906 6.546875 L 9.816406 6.546875 L 9.816406 2.726562 L 9.273438 2.726562 L 9.273438 3.972656 L 8.335938 4.910156 L 7.789062 5.453125 L 7.636719 5.609375 L 7.636719 4.210938 L 9.121094 2.726562 L 8.335938 2.726562 L 7.636719 3.425781 L 7.636719 2.726562 Z M 3.273438 3.273438 L 4.363281 3.273438 L 4.363281 4.363281 L 3.273438 4.363281 Z M 3.273438 5.453125 L 4.363281 5.453125 L 4.363281 6.546875 L 3.273438 6.546875 Z M 7.636719 7.089844 L 7.636719 9.273438 L 9.816406 8.183594 Z M 3.273438 7.636719 L 4.363281 7.636719 L 4.363281 8.726562 L 3.273438 8.726562 Z M 3.273438 7.636719 "/>
</g>
</svg>
