<?xml version="1.0" encoding="UTF-8"?>
<svg xmlns="http://www.w3.org/2000/svg" xmlns:xlink="http://www.w3.org/1999/xlink" width="12pt" height="12pt" viewBox="0 0 12 12" version="1.1">
<g id="surface1">
<path style=" stroke:none;fill-rule:nonzero;fill:rgb(82.745098%,85.490196%,89.019608%);fill-opacity:1;" d="M 2.183594 2.183594 L 2.183594 9.816406 L 9.816406 9.816406 L 9.816406 2.183594 Z M 3.273438 3.273438 L 4.363281 3.273438 L 4.363281 4.363281 L 3.273438 4.363281 Z M 4.910156 3.273438 L 5.609375 3.273438 L 4.910156 3.972656 Z M 6.390625 3.273438 L 7.089844 3.273438 L 7.089844 3.972656 L 4.910156 6.152344 L 4.910156 4.753906 Z M 7.636719 3.273438 L 8.726562 3.273438 L 8.726562 4.363281 L 7.636719 4.363281 Z M 7.089844 4.753906 L 7.089844 6.152344 L 4.910156 8.335938 L 4.910156 6.9375 Z M 3.273438 5.453125 L 4.363281 5.453125 L 4.363281 6.546875 L 3.273438 6.546875 Z M 7.636719 5.453125 L 8.726562 5.453125 L 8.726562 6.546875 L 7.636719 6.546875 Z M 7.089844 6.9375 L 7.089844 8.726562 L 5.300781 8.726562 Z M 3.273438 7.636719 L 4.363281 7.636719 L 4.363281 8.726562 L 3.273438 8.726562 Z M 7.636719 7.636719 L 8.726562 7.636719 L 8.726562 8.726562 L 7.636719 8.726562 Z M 7.636719 7.636719 "/>
</g>
</svg>
