<?xml version="1.0" encoding="UTF-8"?>
<svg xmlns="http://www.w3.org/2000/svg" xmlns:xlink="http://www.w3.org/1999/xlink" width="12pt" height="12pt" viewBox="0 0 12 12" version="1.1">
<g id="surface1">
<path style=" stroke:none;fill-rule:nonzero;fill:rgb(82.745098%,85.490196%,89.019608%);fill-opacity:1;" d="M 6 1.636719 C 5.398438 1.636719 4.910156 2.125 4.910156 2.730469 L 3.273438 2.730469 C 2.726562 2.730469 2.726562 3.273438 2.726562 3.273438 L 2.726562 9.273438 C 2.726562 9.820312 3.273438 9.820312 3.273438 9.820312 L 8.726562 9.820312 C 8.726562 9.820312 9.273438 9.820312 9.273438 9.273438 L 9.273438 3.273438 C 9.273438 2.730469 8.726562 2.730469 8.726562 2.730469 L 7.089844 2.730469 C 7.089844 2.652344 7.089844 2.578125 7.074219 2.507812 C 6.972656 2.011719 6.527344 1.636719 6 1.636719 Z M 6 2.183594 C 6.226562 2.183594 6.410156 2.328125 6.496094 2.523438 C 6.523438 2.589844 6.546875 2.652344 6.546875 2.730469 C 6.546875 3.03125 6.300781 3.273438 6 3.273438 C 5.699219 3.273438 5.453125 3.03125 5.453125 2.730469 C 5.453125 2.429688 5.699219 2.183594 6 2.183594 Z M 3.816406 3.820312 L 4.363281 3.820312 L 4.363281 4.367188 L 7.636719 4.367188 L 7.636719 3.820312 L 8.183594 3.820312 L 8.183594 8.730469 L 3.816406 8.730469 Z M 3.816406 3.820312 "/>
</g>
</svg>
