<?xml version="1.0" encoding="UTF-8"?>
<svg xmlns="http://www.w3.org/2000/svg" xmlns:xlink="http://www.w3.org/1999/xlink" width="12pt" height="12pt" viewBox="0 0 12 12" version="1.1">
<g id="surface1">
<path style=" stroke:none;fill-rule:nonzero;fill:rgb(82.745098%,85.490196%,89.019608%);fill-opacity:1;" d="M 3.546875 2.183594 C 2.792969 2.183594 2.183594 2.792969 2.183594 3.546875 C 2.183594 4.195312 2.636719 4.75 3.273438 4.882812 L 3.273438 7.089844 L 2.183594 7.089844 L 2.183594 9.816406 L 4.910156 9.816406 L 4.910156 7.089844 L 3.816406 7.089844 L 3.816406 4.878906 C 4.351562 4.769531 4.769531 4.351562 4.882812 3.816406 L 7.089844 3.816406 L 7.089844 4.910156 L 9.816406 4.910156 L 9.816406 2.183594 L 7.089844 2.183594 L 7.089844 3.273438 L 4.878906 3.273438 C 4.75 2.636719 4.191406 2.183594 3.546875 2.183594 Z M 6 5.453125 L 6 8.796875 L 6.691406 8.453125 L 7.527344 9.273438 L 7.441406 8.128906 L 8.183594 7.839844 Z M 6 5.453125 "/>
</g>
</svg>
