<?xml version="1.0" encoding="UTF-8"?>
<svg xmlns="http://www.w3.org/2000/svg" xmlns:xlink="http://www.w3.org/1999/xlink" width="12pt" height="12pt" viewBox="0 0 12 12" version="1.1">
<g id="surface1">
<path style=" stroke:none;fill-rule:nonzero;fill:rgb(82.745098%,85.490196%,89.019608%);fill-opacity:1;" d="M 1.636719 2.730469 L 1.636719 9.273438 L 7.636719 9.273438 L 10.363281 6.003906 L 7.636719 2.730469 Z M 3.277344 4.367188 L 3.824219 4.367188 C 3.976562 4.367188 4.109375 4.425781 4.203125 4.527344 L 4.910156 5.230469 L 5.613281 4.527344 C 5.714844 4.425781 5.847656 4.367188 6 4.367188 L 6.546875 4.367188 L 6.546875 4.910156 C 6.546875 5.0625 6.488281 5.199219 6.382812 5.296875 L 5.679688 6.003906 L 6.386719 6.707031 C 6.488281 6.804688 6.546875 6.941406 6.546875 7.09375 L 6.546875 7.636719 L 6.003906 7.636719 C 5.847656 7.636719 5.710938 7.578125 5.621094 7.480469 L 4.914062 6.773438 L 4.210938 7.480469 C 4.109375 7.578125 3.972656 7.636719 3.824219 7.636719 L 3.277344 7.636719 L 3.277344 7.09375 C 3.277344 6.941406 3.339844 6.804688 3.4375 6.707031 L 4.140625 6.003906 L 3.4375 5.296875 C 3.339844 5.199219 3.277344 5.0625 3.277344 4.910156 Z M 3.277344 4.367188 "/>
</g>
</svg>
