<?xml version="1.0" encoding="UTF-8"?>
<svg xmlns="http://www.w3.org/2000/svg" xmlns:xlink="http://www.w3.org/1999/xlink" width="12pt" height="12pt" viewBox="0 0 12 12" version="1.1">
<g id="surface1">
<path style=" stroke:none;fill-rule:nonzero;fill:rgb(82.745098%,85.490196%,89.019608%);fill-opacity:1;" d="M 5.453125 2.183594 L 5.453125 3.273438 L 6.546875 3.273438 L 6.546875 4.363281 L 5.453125 4.363281 L 5.453125 5.453125 L 6.546875 5.453125 L 6.546875 6.546875 L 5.453125 6.546875 L 5.453125 7.636719 L 6.546875 7.636719 L 6.546875 8.726562 L 5.453125 8.726562 L 5.453125 9.816406 L 9.816406 9.816406 L 9.816406 2.183594 Z M 2.183594 2.726562 L 2.183594 6.546875 L 3.121094 6.546875 L 2.726562 6.152344 L 2.726562 4.753906 L 2.878906 4.910156 L 3.425781 5.453125 L 4.363281 6.390625 L 4.363281 6.546875 L 4.910156 6.546875 L 4.910156 2.726562 L 4.363281 2.726562 L 4.363281 3.425781 L 3.664062 2.726562 L 2.878906 2.726562 L 4.363281 4.210938 L 4.363281 5.609375 L 4.210938 5.453125 L 3.664062 4.910156 L 2.726562 3.972656 L 2.726562 2.726562 Z M 7.636719 3.273438 L 8.726562 3.273438 L 8.726562 4.363281 L 7.636719 4.363281 Z M 7.636719 5.453125 L 8.726562 5.453125 L 8.726562 6.546875 L 7.636719 6.546875 Z M 4.363281 7.089844 L 2.183594 8.183594 L 4.363281 9.273438 Z M 7.636719 7.636719 L 8.726562 7.636719 L 8.726562 8.726562 L 7.636719 8.726562 Z M 7.636719 7.636719 "/>
</g>
</svg>
