<?xml version="1.0" encoding="UTF-8"?>
<svg xmlns="http://www.w3.org/2000/svg" xmlns:xlink="http://www.w3.org/1999/xlink" width="12pt" height="12pt" viewBox="0 0 12 12" version="1.1">
<g id="surface1">
<path style=" stroke:none;fill-rule:nonzero;fill:rgb(82.745098%,85.490196%,89.019608%);fill-opacity:1;" d="M 2.183594 2.183594 L 2.183594 9.816406 L 9.816406 9.816406 L 9.816406 2.183594 Z M 3.273438 3.273438 L 5.453125 3.273438 L 5.453125 5.058594 C 5.292969 5.152344 5.160156 5.285156 5.066406 5.441406 C 5.0625 5.449219 5.058594 5.457031 5.054688 5.46875 C 5.015625 5.53125 4.984375 5.601562 4.964844 5.675781 C 4.957031 5.695312 4.949219 5.714844 4.945312 5.738281 C 4.925781 5.820312 4.910156 5.910156 4.910156 6 C 4.910156 6.089844 4.925781 6.179688 4.945312 6.261719 C 4.949219 6.285156 4.957031 6.304688 4.964844 6.324219 C 4.984375 6.398438 5.015625 6.46875 5.054688 6.53125 C 5.058594 6.542969 5.0625 6.550781 5.066406 6.558594 C 5.160156 6.714844 5.292969 6.847656 5.453125 6.941406 L 5.453125 8.726562 L 3.273438 8.726562 Z M 6.546875 3.273438 L 8.726562 3.273438 L 8.726562 8.726562 L 6.546875 8.726562 L 6.546875 6.941406 C 6.707031 6.847656 6.839844 6.714844 6.933594 6.558594 C 6.9375 6.550781 6.941406 6.542969 6.945312 6.53125 C 6.984375 6.46875 7.015625 6.398438 7.035156 6.324219 C 7.042969 6.304688 7.050781 6.285156 7.054688 6.261719 C 7.074219 6.179688 7.089844 6.089844 7.089844 6 C 7.089844 5.910156 7.074219 5.820312 7.054688 5.738281 C 7.050781 5.714844 7.042969 5.695312 7.035156 5.675781 C 7.015625 5.601562 6.984375 5.53125 6.945312 5.46875 C 6.941406 5.457031 6.9375 5.449219 6.933594 5.441406 C 6.839844 5.285156 6.707031 5.152344 6.546875 5.058594 Z M 6.546875 3.273438 "/>
</g>
</svg>
