<?xml version="1.0" encoding="UTF-8"?>
<svg xmlns="http://www.w3.org/2000/svg" xmlns:xlink="http://www.w3.org/1999/xlink" width="12pt" height="12pt" viewBox="0 0 12 12" version="1.1">
<g id="surface1">
<path style=" stroke:none;fill-rule:nonzero;fill:rgb(82.745098%,85.490196%,89.019608%);fill-opacity:1;" d="M 2.183594 2.183594 L 2.183594 9.820312 L 9.816406 9.820312 L 9.816406 2.183594 Z M 3.273438 3.273438 L 8.726562 3.273438 L 8.726562 5.457031 L 6.941406 5.457031 C 6.847656 5.296875 6.714844 5.164062 6.558594 5.070312 C 6.550781 5.0625 6.539062 5.058594 6.53125 5.054688 C 6.46875 5.019531 6.398438 4.988281 6.324219 4.964844 C 6.304688 4.960938 6.285156 4.953125 6.261719 4.949219 C 6.179688 4.925781 6.089844 4.910156 6 4.910156 C 5.910156 4.910156 5.820312 4.925781 5.738281 4.949219 C 5.714844 4.953125 5.695312 4.960938 5.675781 4.964844 C 5.601562 4.988281 5.53125 5.019531 5.46875 5.054688 C 5.457031 5.058594 5.449219 5.0625 5.441406 5.070312 C 5.285156 5.164062 5.152344 5.296875 5.058594 5.457031 L 3.273438 5.457031 Z M 3.273438 6.546875 L 5.058594 6.546875 C 5.152344 6.707031 5.285156 6.839844 5.441406 6.933594 C 5.449219 6.941406 5.460938 6.945312 5.46875 6.949219 C 5.53125 6.988281 5.601562 7.015625 5.675781 7.039062 C 5.695312 7.046875 5.714844 7.050781 5.738281 7.058594 C 5.820312 7.078125 5.910156 7.09375 6 7.09375 C 6.089844 7.09375 6.179688 7.078125 6.261719 7.058594 C 6.285156 7.050781 6.304688 7.046875 6.324219 7.039062 C 6.398438 7.015625 6.46875 6.988281 6.53125 6.949219 C 6.542969 6.945312 6.550781 6.941406 6.558594 6.933594 C 6.714844 6.839844 6.847656 6.707031 6.941406 6.546875 L 8.726562 6.546875 L 8.726562 8.730469 L 3.273438 8.730469 Z M 3.273438 6.546875 "/>
</g>
</svg>
