<?xml version="1.0" encoding="UTF-8"?>
<svg xmlns="http://www.w3.org/2000/svg" xmlns:xlink="http://www.w3.org/1999/xlink" width="12pt" height="12pt" viewBox="0 0 12 12" version="1.1">
<g id="surface1">
<path style=" stroke:none;fill-rule:nonzero;fill:rgb(82.745098%,85.490196%,89.019608%);fill-opacity:1;" d="M 6 2.183594 C 5.113281 2.183594 4.292969 2.390625 3.699219 2.816406 C 3.101562 3.238281 2.726562 3.882812 2.726562 4.738281 C 2.730469 5.703125 3.304688 6.949219 3.992188 7.96875 C 4.339844 8.480469 4.714844 8.929688 5.066406 9.261719 C 5.417969 9.589844 5.742188 9.800781 5.996094 9.816406 L 6.003906 9.816406 C 6.257812 9.800781 6.582031 9.589844 6.933594 9.261719 C 7.285156 8.929688 7.660156 8.480469 8.007812 7.96875 C 8.695312 6.949219 9.269531 5.703125 9.273438 4.738281 C 9.273438 3.882812 8.898438 3.238281 8.300781 2.816406 C 7.707031 2.390625 6.886719 2.183594 6 2.183594 Z M 6.007812 3.273438 L 6.675781 4.710938 L 8.183594 4.945312 L 7.085938 6.058594 L 7.332031 7.636719 L 5.988281 6.886719 L 4.636719 7.628906 L 4.902344 6.050781 L 3.816406 4.929688 L 5.328125 4.703125 Z M 6.007812 3.273438 "/>
</g>
</svg>
