<?xml version="1.0" encoding="UTF-8"?>
<svg xmlns="http://www.w3.org/2000/svg" xmlns:xlink="http://www.w3.org/1999/xlink" width="12pt" height="12pt" viewBox="0 0 12 12" version="1.1">
<g id="surface1">
<path style=" stroke:none;fill-rule:nonzero;fill:rgb(82.745098%,85.490196%,89.019608%);fill-opacity:1;" d="M 5.453125 2.234375 L 5.453125 3.324219 C 4.390625 3.542969 3.542969 4.390625 3.324219 5.457031 L 2.183594 5.457031 L 2.183594 6.546875 L 3.324219 6.546875 C 3.542969 7.613281 4.390625 8.460938 5.453125 8.679688 L 5.453125 9.820312 L 6.546875 9.820312 L 6.546875 8.679688 C 7.609375 8.460938 8.457031 7.613281 8.675781 6.546875 L 9.816406 6.546875 L 9.816406 5.457031 L 8.675781 5.457031 C 8.457031 4.390625 7.609375 3.542969 6.546875 3.324219 L 6.546875 2.234375 Z M 6 4.910156 C 6.601562 4.910156 7.089844 5.398438 7.089844 6.003906 C 7.089844 6.605469 6.601562 7.09375 6 7.09375 C 5.398438 7.09375 4.910156 6.605469 4.910156 6.003906 C 4.910156 5.398438 5.398438 4.910156 6 4.910156 Z M 6 4.910156 "/>
</g>
</svg>
