<?xml version="1.0" encoding="UTF-8"?>
<svg xmlns="http://www.w3.org/2000/svg" xmlns:xlink="http://www.w3.org/1999/xlink" width="12pt" height="12pt" viewBox="0 0 12 12" version="1.1">
<g id="surface1">
<path style=" stroke:none;fill-rule:nonzero;fill:rgb(82.745098%,85.490196%,89.019608%);fill-opacity:1;" d="M 4.089844 2.183594 C 3.042969 2.183594 2.183594 3.042969 2.183594 4.089844 C 2.183594 5.140625 3.042969 6 4.089844 6 C 4.582031 6 5.019531 5.800781 5.359375 5.492188 L 3.246094 8.664062 C 3.082031 8.910156 3.144531 9.246094 3.390625 9.414062 L 3.832031 9.722656 C 3.953125 9.804688 4.101562 9.835938 4.246094 9.808594 C 4.386719 9.78125 4.515625 9.695312 4.597656 9.574219 L 6.128906 7.273438 C 6.058594 7.476562 6 7.683594 6 7.910156 C 6 8.957031 6.859375 9.816406 7.910156 9.816406 C 8.957031 9.816406 9.816406 8.957031 9.816406 7.910156 C 9.816406 6.859375 8.957031 6 7.910156 6 C 7.417969 6 6.980469 6.199219 6.640625 6.507812 L 8.753906 3.335938 C 8.917969 3.089844 8.855469 2.753906 8.609375 2.585938 L 8.167969 2.277344 C 8.046875 2.195312 7.898438 2.164062 7.753906 2.191406 C 7.613281 2.21875 7.484375 2.304688 7.402344 2.425781 L 5.871094 4.726562 C 5.941406 4.523438 6 4.316406 6 4.089844 C 6 3.042969 5.140625 2.183594 4.089844 2.183594 Z M 4.089844 3.273438 C 4.5625 3.273438 4.910156 3.621094 4.910156 4.089844 C 4.910156 4.5625 4.5625 4.910156 4.089844 4.910156 C 3.621094 4.910156 3.273438 4.5625 3.273438 4.089844 C 3.273438 3.621094 3.621094 3.273438 4.089844 3.273438 Z M 7.910156 7.089844 C 8.378906 7.089844 8.726562 7.4375 8.726562 7.910156 C 8.726562 8.378906 8.378906 8.726562 7.910156 8.726562 C 7.4375 8.726562 7.089844 8.378906 7.089844 7.910156 C 7.089844 7.4375 7.4375 7.089844 7.910156 7.089844 Z M 7.910156 7.089844 "/>
</g>
</svg>
