<?xml version="1.0" encoding="UTF-8"?>
<svg xmlns="http://www.w3.org/2000/svg" xmlns:xlink="http://www.w3.org/1999/xlink" width="12pt" height="12pt" viewBox="0 0 12 12" version="1.1">
<g id="surface1">
<path style=" stroke:none;fill-rule:nonzero;fill:rgb(82.745098%,85.490196%,89.019608%);fill-opacity:1;" d="M 2.914062 2.148438 L 2.144531 2.914062 L 4.707031 5.476562 C 4.289062 5.523438 3.921875 5.707031 3.679688 5.984375 C 3.398438 6.300781 3.265625 6.699219 3.269531 7.089844 C 3.273438 7.484375 3.417969 7.882812 3.695312 8.199219 C 3.976562 8.515625 4.410156 8.726562 4.90625 8.726562 L 7.957031 8.726562 L 9.082031 9.851562 L 9.851562 9.085938 Z M 5.128906 3.273438 L 6.21875 4.363281 L 7.089844 4.363281 C 7.324219 4.363281 7.632812 4.699219 7.632812 4.910156 L 7.632812 5.453125 L 7.308594 5.453125 L 8.726562 6.871094 L 8.726562 4.910156 C 8.726562 4.019531 8.003906 3.273438 7.089844 3.273438 Z M 4.90625 6.546875 L 5.777344 6.546875 L 6.867188 7.636719 L 4.90625 7.636719 C 4.691406 7.636719 4.597656 7.578125 4.515625 7.484375 C 4.433594 7.390625 4.363281 7.242188 4.363281 7.089844 C 4.359375 6.9375 4.417969 6.789062 4.496094 6.699219 C 4.578125 6.609375 4.675781 6.546875 4.90625 6.546875 Z M 4.90625 6.546875 "/>
</g>
</svg>
