<?xml version="1.0" encoding="UTF-8"?>
<svg xmlns="http://www.w3.org/2000/svg" xmlns:xlink="http://www.w3.org/1999/xlink" width="12pt" height="12pt" viewBox="0 0 12 12" version="1.1">
<g id="surface1">
<path style=" stroke:none;fill-rule:nonzero;fill:rgb(82.745098%,85.490196%,89.019608%);fill-opacity:1;" d="M 3.546875 2.726562 C 2.792969 2.726562 2.183594 3.335938 2.183594 4.089844 C 2.183594 4.84375 2.792969 5.453125 3.546875 5.453125 C 4.296875 5.453125 4.910156 4.84375 4.910156 4.089844 C 4.910156 3.335938 4.296875 2.726562 3.546875 2.726562 Z M 6 2.726562 L 6 3.816406 L 9.273438 3.816406 L 9.273438 2.726562 Z M 6 4.363281 L 6 5.453125 L 8.183594 5.453125 L 8.183594 4.363281 Z M 3.546875 7.089844 C 2.792969 7.089844 2.183594 7.703125 2.183594 8.453125 C 2.183594 9.207031 2.792969 9.816406 3.546875 9.816406 C 4.296875 9.816406 4.910156 9.207031 4.910156 8.453125 C 4.910156 7.703125 4.296875 7.089844 3.546875 7.089844 Z M 6 7.089844 L 6 8.183594 L 9.273438 8.183594 L 9.273438 7.089844 Z M 6 8.726562 L 6 9.816406 L 7.089844 9.816406 L 7.089844 8.726562 Z M 7.636719 8.726562 L 7.636719 9.816406 L 9.273438 9.816406 L 9.273438 8.726562 Z M 7.636719 8.726562 "/>
</g>
</svg>
