<?xml version="1.0" encoding="UTF-8"?>
<svg xmlns="http://www.w3.org/2000/svg" xmlns:xlink="http://www.w3.org/1999/xlink" width="12pt" height="12pt" viewBox="0 0 12 12" version="1.1">
<g id="surface1">
<path style=" stroke:none;fill-rule:nonzero;fill:rgb(82.745098%,85.490196%,89.019608%);fill-opacity:1;" d="M 2.726562 1.636719 L 2.726562 2.726562 L 6 2.726562 C 6.234375 2.726562 6.546875 3.0625 6.546875 3.273438 L 6.546875 3.816406 L 3.816406 3.816406 C 3.316406 3.816406 2.871094 4.027344 2.589844 4.347656 C 2.308594 4.664062 2.179688 5.0625 2.183594 5.453125 C 2.183594 5.847656 2.328125 6.246094 2.609375 6.5625 C 2.886719 6.878906 3.324219 7.089844 3.816406 7.089844 L 7.636719 7.089844 L 7.636719 3.273438 C 7.636719 2.382812 6.917969 1.636719 6 1.636719 Z M 3.816406 4.910156 L 6.546875 4.910156 L 6.546875 6 L 3.816406 6 C 3.601562 6 3.507812 5.941406 3.425781 5.847656 C 3.34375 5.753906 3.273438 5.605469 3.273438 5.453125 C 3.273438 5.300781 3.328125 5.152344 3.410156 5.0625 C 3.488281 4.972656 3.585938 4.910156 3.816406 4.910156 Z M 8.183594 6.542969 C 8.183594 6.542969 8.183594 7.152344 8.183594 7.636719 L 2.148438 7.636719 L 2.148438 8.726562 L 8.183594 8.726562 C 8.183594 9.210938 8.183594 9.816406 8.183594 9.816406 L 10.363281 8.179688 Z M 8.183594 6.542969 "/>
</g>
</svg>
