<?xml version="1.0" encoding="UTF-8"?>
<svg xmlns="http://www.w3.org/2000/svg" xmlns:xlink="http://www.w3.org/1999/xlink" width="12pt" height="12pt" viewBox="0 0 12 12" version="1.1">
<g id="surface1">
<path style=" stroke:none;fill-rule:nonzero;fill:rgb(82.745098%,85.490196%,89.019608%);fill-opacity:1;" d="M 4.910156 1.636719 L 4.910156 2.726562 L 8.183594 2.726562 C 8.414062 2.726562 8.726562 3.0625 8.726562 3.273438 L 8.726562 3.816406 L 6 3.816406 C 5.5 3.816406 5.054688 4.027344 4.773438 4.347656 C 4.492188 4.664062 4.359375 5.0625 4.363281 5.453125 C 4.367188 5.847656 4.511719 6.246094 4.789062 6.5625 C 5.070312 6.878906 5.503906 7.089844 6 7.089844 L 9.816406 7.089844 L 9.816406 3.273438 C 9.816406 2.382812 9.097656 1.636719 8.183594 1.636719 Z M 6 4.910156 L 8.726562 4.910156 L 8.726562 6 L 6 6 C 5.78125 6 5.691406 5.941406 5.609375 5.847656 C 5.523438 5.753906 5.457031 5.605469 5.453125 5.453125 C 5.453125 5.300781 5.511719 5.152344 5.589844 5.0625 C 5.671875 4.972656 5.769531 4.910156 6 4.910156 Z M 3.816406 6.542969 L 1.636719 8.179688 L 3.816406 9.816406 L 3.816406 8.71875 L 9.785156 8.71875 L 9.785156 7.628906 L 3.816406 7.628906 Z M 3.816406 6.542969 "/>
</g>
</svg>
