<?xml version="1.0" encoding="UTF-8"?>
<svg xmlns="http://www.w3.org/2000/svg" xmlns:xlink="http://www.w3.org/1999/xlink" width="12pt" height="12pt" viewBox="0 0 12 12" version="1.1">
<g id="surface1">
<path style=" stroke:none;fill-rule:nonzero;fill:rgb(82.745098%,85.490196%,89.019608%);fill-opacity:1;" d="M 4.910156 1.65625 L 4.910156 2.277344 C 4.375 2.351562 3.921875 2.492188 3.566406 2.710938 C 3.015625 3.046875 2.738281 3.5625 2.738281 4.253906 C 2.738281 5.453125 3.589844 5.847656 4.910156 6.210938 L 4.910156 8.933594 C 4.269531 8.878906 3.683594 8.757812 3.066406 8.492188 L 2.726562 9.234375 C 3.035156 9.398438 3.453125 9.539062 3.976562 9.664062 C 4.273438 9.730469 4.582031 9.773438 4.910156 9.800781 L 4.910156 10.386719 L 5.453125 10.386719 L 5.453125 9.828125 C 5.546875 9.828125 5.625 9.839844 5.722656 9.839844 C 5.8125 9.839844 5.90625 9.832031 6 9.828125 L 6 10.386719 L 6.546875 10.386719 L 6.546875 9.773438 C 7.632812 9.617188 8.714844 9.117188 8.703125 7.761719 C 8.667969 6.765625 8.046875 6.394531 6.546875 5.867188 L 6.546875 3.164062 C 7.039062 3.230469 7.636719 3.367188 8.304688 3.699219 L 8.726562 2.859375 C 8.425781 2.699219 7.726562 2.441406 7.285156 2.347656 C 7.046875 2.296875 6.800781 2.261719 6.546875 2.238281 L 6.546875 1.65625 L 6 1.65625 L 6 2.210938 C 5.949219 2.210938 5.902344 2.203125 5.851562 2.203125 C 5.710938 2.203125 5.585938 2.214844 5.453125 2.222656 L 5.453125 1.65625 Z M 5.691406 3.101562 C 5.777344 3.101562 5.890625 3.109375 6 3.113281 L 6 5.675781 C 5.914062 5.648438 5.859375 5.625 5.769531 5.597656 C 5.671875 5.570312 5.558594 5.539062 5.453125 5.507812 L 5.453125 3.109375 C 5.535156 3.105469 5.613281 3.101562 5.691406 3.101562 Z M 4.910156 3.164062 L 4.910156 5.34375 C 4.238281 5.105469 3.625 4.746094 3.640625 4.148438 C 3.609375 3.582031 4.1875 3.28125 4.910156 3.164062 Z M 5.453125 6.355469 C 5.554688 6.382812 5.632812 6.40625 5.738281 6.433594 C 5.828125 6.457031 5.914062 6.484375 6 6.511719 L 6 8.960938 C 5.917969 8.964844 5.832031 8.972656 5.753906 8.972656 C 5.648438 8.96875 5.554688 8.964844 5.453125 8.960938 Z M 6.546875 6.683594 C 7.246094 6.925781 7.8125 7.246094 7.796875 7.808594 C 7.777344 8.570312 7.179688 8.835938 6.546875 8.925781 Z M 6.546875 6.683594 "/>
</g>
</svg>
