<?xml version="1.0" encoding="UTF-8"?>
<svg xmlns="http://www.w3.org/2000/svg" xmlns:xlink="http://www.w3.org/1999/xlink" width="12pt" height="12pt" viewBox="0 0 12 12" version="1.1">
<g id="surface1">
<path style=" stroke:none;fill-rule:nonzero;fill:rgb(82.745098%,85.490196%,89.019608%);fill-opacity:1;" d="M 3.648438 3.273438 L 2.183594 7.089844 L 2.640625 7.089844 L 3.101562 5.878906 L 4.621094 5.878906 L 5.0625 7.089844 L 5.523438 7.089844 L 4.109375 3.273438 Z M 5.453125 3.273438 L 5.453125 3.816406 L 7.636719 3.816406 L 7.636719 3.273438 Z M 8.726562 3.273438 L 8.726562 5.453125 L 9.816406 4.363281 Z M 3.871094 3.734375 C 3.90625 3.863281 4.101562 4.453125 4.464844 5.503906 L 3.238281 5.503906 Z M 6 4.910156 L 6 5.453125 L 7.636719 5.453125 L 7.636719 4.910156 Z M 6.546875 6.546875 L 6.546875 7.089844 L 7.636719 7.089844 L 7.636719 6.546875 Z M 8.726562 6.546875 L 8.726562 8.726562 L 9.816406 7.636719 Z M 2.183594 8.183594 L 2.183594 8.726562 L 7.636719 8.726562 L 7.636719 8.183594 Z M 2.183594 8.183594 "/>
</g>
</svg>
