<?xml version="1.0" encoding="UTF-8"?>
<svg xmlns="http://www.w3.org/2000/svg" xmlns:xlink="http://www.w3.org/1999/xlink" width="12pt" height="12pt" viewBox="0 0 12 12" version="1.1">
<g id="surface1">
<path style=" stroke:none;fill-rule:nonzero;fill:rgb(82.745098%,85.490196%,89.019608%);fill-opacity:1;" d="M 4.910156 2.183594 L 2.183594 9.816406 L 3.546875 9.816406 L 4.125 8.183594 L 6.074219 8.183594 C 6.097656 8.140625 6.125 8.101562 6.160156 8.070312 L 6.546875 7.683594 C 6.757812 7.46875 7.105469 7.46875 7.316406 7.683594 L 7.636719 8.003906 L 7.636719 6.976562 C 7.636719 6.882812 7.660156 6.792969 7.707031 6.710938 L 6 2.183594 Z M 5.453125 4.363281 L 6.410156 7.089844 L 4.5 7.089844 Z M 8.183594 6.976562 L 8.183594 9.320312 L 6.929688 8.070312 L 6.546875 8.453125 L 8.339844 10.25 L 8.453125 10.363281 L 10.363281 8.453125 L 9.976562 8.070312 L 8.726562 9.320312 L 8.726562 6.976562 Z M 8.183594 6.976562 "/>
</g>
</svg>
