<?xml version="1.0" encoding="UTF-8"?>
<svg xmlns="http://www.w3.org/2000/svg" xmlns:xlink="http://www.w3.org/1999/xlink" width="12pt" height="12pt" viewBox="0 0 12 12" version="1.1">
<g id="surface1">
<path style=" stroke:none;fill-rule:nonzero;fill:rgb(82.745098%,85.490196%,89.019608%);fill-opacity:1;" d="M 6 2.183594 C 3.890625 2.183594 2.183594 3.894531 2.183594 6.003906 C 2.183594 8.109375 3.890625 9.820312 6 9.820312 C 8.109375 9.820312 9.816406 8.109375 9.816406 6.003906 C 9.816406 3.894531 8.109375 2.183594 6 2.183594 Z M 6 3.273438 C 6.09375 3.273438 6.179688 3.28125 6.273438 3.292969 C 6.28125 3.292969 6.285156 3.292969 6.292969 3.292969 C 6.351562 3.296875 6.40625 3.308594 6.460938 3.316406 C 6.523438 3.328125 6.582031 3.34375 6.648438 3.359375 C 6.789062 3.394531 6.925781 3.441406 7.058594 3.496094 C 7.128906 3.527344 7.191406 3.5625 7.261719 3.597656 C 7.261719 3.605469 7.261719 3.609375 7.261719 3.617188 C 7.277344 3.621094 7.285156 3.652344 7.3125 3.667969 C 7.324219 3.671875 7.320312 3.679688 7.328125 3.683594 C 7.34375 3.695312 7.367188 3.703125 7.363281 3.71875 C 7.359375 3.738281 7.328125 3.734375 7.3125 3.753906 C 7.316406 3.785156 7.285156 3.78125 7.277344 3.804688 C 7.285156 3.816406 7.308594 3.820312 7.3125 3.835938 C 7.308594 3.855469 7.273438 3.851562 7.277344 3.871094 C 7.308594 3.894531 7.335938 3.875 7.363281 3.871094 C 7.425781 3.863281 7.480469 3.867188 7.515625 3.835938 C 7.511719 3.808594 7.570312 3.8125 7.566406 3.785156 C 7.585938 3.796875 7.601562 3.808594 7.621094 3.820312 C 7.613281 3.824219 7.609375 3.835938 7.601562 3.835938 C 7.589844 3.84375 7.578125 3.847656 7.566406 3.855469 C 7.554688 3.863281 7.535156 3.878906 7.515625 3.886719 C 7.503906 3.898438 7.480469 3.941406 7.464844 3.941406 C 7.449219 3.941406 7.425781 3.917969 7.414062 3.921875 C 7.398438 3.929688 7.398438 3.949219 7.378906 3.957031 C 7.34375 3.96875 7.273438 3.9375 7.261719 3.992188 C 7.277344 4.023438 7.335938 4.007812 7.363281 4.023438 C 7.378906 4.035156 7.410156 4.074219 7.414062 4.09375 C 7.417969 4.109375 7.421875 4.179688 7.414062 4.195312 C 7.398438 4.238281 7.34375 4.230469 7.296875 4.230469 L 7.261719 4.230469 C 7.175781 4.222656 7.09375 4.1875 7.058594 4.246094 C 7.058594 4.292969 7.066406 4.324219 7.058594 4.367188 C 7.050781 4.394531 7.003906 4.425781 7.003906 4.449219 C 7.007812 4.464844 7.035156 4.484375 7.039062 4.503906 C 7.042969 4.511719 7.035156 4.527344 7.039062 4.535156 C 7.054688 4.5625 7.082031 4.53125 7.109375 4.535156 C 7.132812 4.542969 7.160156 4.578125 7.160156 4.601562 C 7.160156 4.621094 7.152344 4.652344 7.140625 4.671875 C 7.117188 4.707031 7.074219 4.703125 7.039062 4.722656 C 7.011719 4.738281 7.003906 4.78125 6.988281 4.808594 C 6.96875 4.839844 6.949219 4.851562 6.953125 4.894531 C 6.929688 4.941406 6.902344 4.972656 6.851562 4.996094 C 6.835938 5.003906 6.816406 5.003906 6.800781 5.011719 C 6.789062 5.019531 6.78125 5.046875 6.765625 5.066406 C 6.746094 5.085938 6.726562 5.097656 6.714844 5.117188 C 6.707031 5.128906 6.707031 5.148438 6.699219 5.167969 C 6.6875 5.191406 6.664062 5.195312 6.648438 5.21875 C 6.640625 5.230469 6.636719 5.253906 6.628906 5.269531 C 6.613281 5.300781 6.59375 5.328125 6.597656 5.355469 C 6.597656 5.378906 6.628906 5.382812 6.628906 5.40625 C 6.632812 5.417969 6.613281 5.425781 6.613281 5.441406 C 6.613281 5.460938 6.628906 5.472656 6.628906 5.492188 C 6.632812 5.53125 6.605469 5.546875 6.597656 5.574219 C 6.59375 5.589844 6.601562 5.597656 6.597656 5.609375 C 6.589844 5.628906 6.5625 5.652344 6.5625 5.675781 C 6.5625 5.695312 6.59375 5.703125 6.597656 5.726562 C 6.597656 5.746094 6.578125 5.765625 6.578125 5.78125 C 6.585938 5.808594 6.640625 5.839844 6.664062 5.863281 C 6.695312 5.894531 6.738281 5.917969 6.75 5.949219 C 6.761719 5.976562 6.761719 6.03125 6.785156 6.050781 C 6.800781 6.066406 6.832031 6.070312 6.851562 6.085938 C 6.871094 6.101562 6.882812 6.105469 6.902344 6.121094 C 6.9375 6.148438 6.988281 6.210938 7.039062 6.207031 C 7.066406 6.199219 7.09375 6.175781 7.125 6.171875 C 7.15625 6.167969 7.195312 6.152344 7.226562 6.15625 C 7.253906 6.160156 7.285156 6.171875 7.3125 6.171875 C 7.339844 6.167969 7.367188 6.167969 7.398438 6.15625 C 7.453125 6.132812 7.539062 6.09375 7.621094 6.101562 C 7.679688 6.113281 7.679688 6.179688 7.722656 6.207031 C 7.769531 6.210938 7.800781 6.195312 7.839844 6.207031 C 7.871094 6.210938 7.90625 6.25 7.910156 6.273438 C 7.910156 6.296875 7.878906 6.328125 7.875 6.34375 C 7.867188 6.375 7.878906 6.40625 7.875 6.425781 C 7.871094 6.441406 7.855469 6.460938 7.859375 6.476562 C 7.859375 6.492188 7.878906 6.527344 7.890625 6.546875 C 7.910156 6.570312 7.9375 6.589844 7.960938 6.613281 C 8 6.660156 8.019531 6.707031 8.046875 6.769531 C 8.050781 6.785156 8.039062 6.800781 8.046875 6.820312 C 8.035156 6.910156 8.003906 6.972656 7.941406 7.074219 C 7.914062 7.109375 7.875 7.136719 7.875 7.175781 C 7.871094 7.273438 7.929688 7.339844 7.925781 7.433594 C 7.917969 7.558594 7.9375 7.570312 7.925781 7.636719 C 7.96875 7.660156 7.9375 7.730469 7.925781 7.773438 C 7.90625 7.828125 7.886719 7.839844 7.875 7.878906 C 7.902344 7.890625 7.945312 7.882812 7.976562 7.878906 C 7.976562 7.878906 7.972656 7.878906 7.972656 7.882812 C 7.957031 7.898438 7.941406 7.914062 7.925781 7.925781 C 7.808594 8.042969 7.675781 8.15625 7.539062 8.25 C 7.527344 8.257812 7.511719 8.269531 7.5 8.277344 C 7.394531 8.347656 7.28125 8.410156 7.164062 8.464844 C 7.105469 8.492188 7.050781 8.519531 6.992188 8.542969 C 6.992188 8.542969 6.988281 8.542969 6.988281 8.542969 C 6.898438 8.582031 6.804688 8.609375 6.707031 8.636719 C 6.542969 8.679688 6.375 8.710938 6.203125 8.722656 C 6.136719 8.726562 6.070312 8.726562 6 8.726562 C 5.898438 8.726562 5.800781 8.722656 5.703125 8.710938 C 5.597656 8.699219 5.492188 8.679688 5.386719 8.65625 C 5.257812 8.621094 5.132812 8.570312 5.011719 8.523438 C 5.007812 8.515625 4.992188 8.5 4.996094 8.492188 C 5.023438 8.480469 5.074219 8.53125 5.097656 8.492188 C 5.105469 8.472656 5.082031 8.421875 5.097656 8.40625 C 5.105469 8.390625 5.160156 8.390625 5.183594 8.386719 C 5.210938 8.382812 5.25 8.378906 5.265625 8.371094 C 5.285156 8.359375 5.304688 8.320312 5.300781 8.285156 C 5.300781 8.269531 5.28125 8.265625 5.265625 8.25 C 5.257812 8.238281 5.273438 8.230469 5.265625 8.21875 C 5.253906 8.199219 5.222656 8.195312 5.214844 8.164062 C 5.253906 8.15625 5.3125 8.199219 5.371094 8.183594 C 5.394531 8.175781 5.441406 8.121094 5.453125 8.097656 C 5.457031 8.089844 5.449219 8.074219 5.453125 8.066406 C 5.460938 8.054688 5.46875 8.035156 5.472656 8.03125 C 5.476562 8.015625 5.46875 8.023438 5.472656 8.015625 C 5.480469 7.984375 5.507812 7.964844 5.523438 7.945312 C 5.535156 7.929688 5.5625 7.910156 5.574219 7.894531 C 5.585938 7.875 5.582031 7.875 5.589844 7.859375 C 5.597656 7.808594 5.5625 7.765625 5.574219 7.722656 C 5.585938 7.675781 5.664062 7.644531 5.710938 7.621094 C 5.726562 7.613281 5.746094 7.609375 5.761719 7.605469 C 5.792969 7.59375 5.832031 7.582031 5.863281 7.570312 C 5.914062 7.550781 5.921875 7.515625 5.949219 7.46875 C 5.960938 7.449219 5.980469 7.417969 5.984375 7.398438 C 5.984375 7.386719 5.980469 7.382812 5.984375 7.367188 C 5.984375 7.351562 5.980469 7.332031 5.984375 7.316406 C 5.988281 7.292969 6 7.238281 6 7.210938 C 6 7.191406 5.984375 7.179688 5.984375 7.160156 C 5.980469 7.089844 6.007812 7.097656 6.035156 7.058594 C 6.046875 7.039062 6.058594 7.003906 6.066406 6.992188 C 6.113281 6.925781 6.191406 6.902344 6.1875 6.804688 C 6.183594 6.769531 6.160156 6.695312 6.136719 6.683594 C 6.121094 6.679688 6.105469 6.675781 6.085938 6.667969 C 6.019531 6.644531 5.964844 6.570312 5.898438 6.566406 L 5.863281 6.566406 C 5.835938 6.566406 5.808594 6.550781 5.777344 6.546875 C 5.761719 6.542969 5.722656 6.554688 5.710938 6.546875 C 5.691406 6.539062 5.691406 6.503906 5.675781 6.496094 C 5.664062 6.488281 5.640625 6.484375 5.625 6.476562 C 5.597656 6.46875 5.589844 6.449219 5.558594 6.445312 C 5.546875 6.445312 5.535156 6.449219 5.523438 6.445312 C 5.503906 6.441406 5.488281 6.4375 5.472656 6.425781 C 5.453125 6.414062 5.429688 6.410156 5.421875 6.394531 C 5.4375 6.335938 5.382812 6.328125 5.371094 6.292969 C 5.363281 6.277344 5.375 6.238281 5.371094 6.222656 C 5.363281 6.203125 5.339844 6.1875 5.316406 6.171875 C 5.277344 6.140625 5.253906 6.128906 5.199219 6.121094 C 5.171875 6.117188 5.144531 6.125 5.113281 6.121094 C 5.082031 6.117188 5.035156 6.097656 5.011719 6.070312 C 4.988281 6.042969 4.980469 6.015625 4.960938 6.003906 C 4.941406 5.992188 4.921875 5.980469 4.910156 5.96875 C 4.902344 5.960938 4.898438 5.964844 4.890625 5.949219 C 4.882812 5.929688 4.863281 5.925781 4.875 5.898438 C 4.851562 5.890625 4.863281 5.921875 4.839844 5.917969 C 4.820312 5.886719 4.804688 5.855469 4.753906 5.867188 C 4.734375 5.871094 4.714844 5.917969 4.6875 5.917969 C 4.667969 5.917969 4.648438 5.871094 4.621094 5.867188 C 4.597656 5.859375 4.566406 5.886719 4.550781 5.882812 C 4.527344 5.878906 4.519531 5.863281 4.5 5.847656 C 4.484375 5.839844 4.457031 5.8125 4.449219 5.816406 C 4.421875 5.816406 4.402344 5.867188 4.363281 5.847656 C 4.34375 5.824219 4.402344 5.820312 4.378906 5.796875 C 4.363281 5.78125 4.359375 5.808594 4.347656 5.816406 C 4.332031 5.824219 4.3125 5.824219 4.296875 5.832031 C 4.257812 5.847656 4.222656 5.851562 4.191406 5.867188 C 4.164062 5.878906 4.15625 5.890625 4.140625 5.917969 C 4.128906 5.941406 4.109375 5.984375 4.089844 5.984375 C 4.066406 5.984375 4.058594 5.960938 4.039062 5.949219 C 3.976562 5.921875 3.9375 5.964844 3.886719 5.96875 C 3.839844 5.96875 3.765625 5.894531 3.765625 5.847656 C 3.769531 5.820312 3.78125 5.78125 3.785156 5.746094 C 3.785156 5.71875 3.816406 5.6875 3.816406 5.660156 C 3.820312 5.628906 3.753906 5.613281 3.734375 5.609375 C 3.683594 5.601562 3.621094 5.632812 3.5625 5.609375 C 3.550781 5.589844 3.574219 5.578125 3.578125 5.558594 C 3.582031 5.550781 3.574219 5.535156 3.578125 5.523438 C 3.585938 5.507812 3.621094 5.492188 3.628906 5.472656 C 3.636719 5.460938 3.625 5.441406 3.628906 5.421875 C 3.636719 5.402344 3.664062 5.386719 3.664062 5.371094 C 3.667969 5.351562 3.644531 5.332031 3.628906 5.320312 C 3.585938 5.324219 3.554688 5.324219 3.527344 5.339844 C 3.46875 5.363281 3.484375 5.4375 3.425781 5.457031 C 3.40625 5.464844 3.382812 5.46875 3.359375 5.476562 C 3.347656 5.480469 3.335938 5.476562 3.324219 5.476562 C 3.328125 5.464844 3.328125 5.453125 3.332031 5.441406 C 3.335938 5.4375 3.339844 5.429688 3.339844 5.421875 C 3.378906 5.246094 3.441406 5.074219 3.511719 4.914062 L 3.527344 4.914062 C 3.550781 4.917969 3.5625 4.945312 3.578125 4.945312 C 3.628906 4.953125 3.640625 4.898438 3.683594 4.878906 C 3.722656 4.882812 3.746094 4.871094 3.785156 4.878906 C 3.808594 4.882812 3.847656 4.910156 3.871094 4.910156 C 3.886719 4.910156 3.886719 4.890625 3.902344 4.894531 C 3.917969 4.898438 3.953125 4.925781 3.953125 4.945312 C 3.957031 4.96875 3.929688 5.003906 3.9375 5.03125 C 3.964844 5.058594 4.019531 5.066406 4.058594 5.082031 C 4.082031 5.0625 4.0625 5.023438 4.058594 4.996094 C 4.054688 4.984375 4.058594 4.957031 4.058594 4.945312 C 4.054688 4.925781 4.039062 4.910156 4.039062 4.894531 C 4.039062 4.816406 4.105469 4.789062 4.160156 4.757812 C 4.179688 4.746094 4.207031 4.714844 4.226562 4.707031 C 4.253906 4.691406 4.273438 4.703125 4.296875 4.691406 C 4.335938 4.667969 4.367188 4.632812 4.398438 4.605469 C 4.414062 4.570312 4.394531 4.519531 4.398438 4.484375 C 4.414062 4.476562 4.433594 4.484375 4.449219 4.484375 C 4.472656 4.480469 4.484375 4.449219 4.5 4.433594 C 4.507812 4.425781 4.523438 4.425781 4.535156 4.417969 C 4.558594 4.398438 4.5625 4.375 4.585938 4.367188 C 4.59375 4.359375 4.605469 4.351562 4.621094 4.347656 C 4.636719 4.34375 4.660156 4.339844 4.6875 4.332031 C 4.703125 4.324219 4.75 4.320312 4.753906 4.316406 C 4.765625 4.304688 4.753906 4.277344 4.753906 4.261719 C 4.769531 4.203125 4.855469 4.199219 4.910156 4.179688 C 4.949219 4.164062 4.984375 4.121094 5.027344 4.128906 C 5.019531 4.15625 4.988281 4.160156 4.996094 4.195312 C 5.003906 4.246094 5.0625 4.183594 5.078125 4.175781 C 5.113281 4.164062 5.171875 4.140625 5.214844 4.125 C 5.253906 4.113281 5.320312 4.101562 5.285156 4.058594 C 5.253906 4.054688 5.242188 4.082031 5.214844 4.09375 C 5.199219 4.097656 5.195312 4.078125 5.183594 4.074219 C 5.167969 4.074219 5.164062 4.09375 5.148438 4.09375 C 5.132812 4.085938 5.117188 4.058594 5.113281 4.039062 C 5.109375 3.996094 5.144531 3.988281 5.164062 3.957031 C 5.152344 3.914062 5.097656 3.9375 5.0625 3.921875 C 5.066406 3.898438 5.085938 3.875 5.113281 3.871094 C 5.136719 3.867188 5.203125 3.875 5.214844 3.886719 C 5.222656 3.894531 5.203125 3.910156 5.214844 3.921875 C 5.230469 3.933594 5.25 3.929688 5.265625 3.921875 C 5.273438 3.890625 5.226562 3.910156 5.234375 3.886719 C 5.269531 3.863281 5.339844 3.878906 5.386719 3.871094 C 5.414062 3.867188 5.449219 3.851562 5.472656 3.835938 C 5.492188 3.824219 5.5 3.800781 5.523438 3.820312 C 5.527344 3.84375 5.519531 3.859375 5.503906 3.871094 C 5.464844 3.910156 5.417969 3.949219 5.386719 3.992188 C 5.40625 4.011719 5.4375 4.003906 5.472656 4.007812 C 5.484375 4.011719 5.507812 4.003906 5.523438 4.007812 C 5.539062 4.011719 5.5625 4.003906 5.574219 4.007812 C 5.597656 4.011719 5.601562 4.058594 5.625 4.058594 C 5.660156 4.058594 5.644531 4.015625 5.625 3.992188 C 5.632812 3.964844 5.652344 3.941406 5.640625 3.921875 C 5.625 3.886719 5.558594 3.933594 5.558594 3.886719 C 5.554688 3.859375 5.582031 3.859375 5.589844 3.835938 C 5.585938 3.785156 5.628906 3.78125 5.625 3.734375 C 5.621094 3.714844 5.605469 3.71875 5.589844 3.699219 C 5.582031 3.691406 5.582031 3.65625 5.574219 3.648438 C 5.546875 3.625 5.492188 3.644531 5.488281 3.597656 C 5.488281 3.570312 5.492188 3.542969 5.488281 3.511719 C 5.484375 3.484375 5.460938 3.398438 5.4375 3.394531 C 5.40625 3.386719 5.390625 3.445312 5.351562 3.460938 C 5.332031 3.472656 5.289062 3.484375 5.265625 3.480469 C 5.253906 3.472656 5.234375 3.46875 5.234375 3.445312 C 5.230469 3.421875 5.257812 3.410156 5.265625 3.394531 C 5.269531 3.390625 5.265625 3.382812 5.265625 3.378906 C 5.28125 3.375 5.292969 3.371094 5.308594 3.367188 C 5.367188 3.351562 5.425781 3.335938 5.484375 3.324219 C 5.492188 3.328125 5.5 3.328125 5.503906 3.324219 C 5.578125 3.3125 5.652344 3.300781 5.726562 3.292969 C 5.816406 3.28125 5.90625 3.273438 6 3.273438 Z M 4.890625 3.53125 C 4.875 3.628906 4.78125 3.667969 4.671875 3.667969 C 4.644531 3.691406 4.667969 3.734375 4.652344 3.769531 C 4.640625 3.796875 4.597656 3.824219 4.566406 3.820312 C 4.546875 3.820312 4.515625 3.789062 4.515625 3.769531 C 4.515625 3.746094 4.554688 3.746094 4.535156 3.71875 C 4.535156 3.710938 4.546875 3.707031 4.550781 3.699219 C 4.5625 3.695312 4.574219 3.691406 4.585938 3.683594 C 4.683594 3.625 4.785156 3.578125 4.890625 3.53125 Z M 7.175781 3.632812 C 7.167969 3.636719 7.167969 3.644531 7.160156 3.648438 C 7.136719 3.664062 7.125 3.679688 7.109375 3.683594 C 7.085938 3.691406 7.058594 3.699219 7.058594 3.71875 C 7.054688 3.734375 7.074219 3.738281 7.074219 3.753906 C 7.066406 3.773438 7.0625 3.777344 7.058594 3.804688 C 7.085938 3.847656 7.140625 3.792969 7.175781 3.785156 C 7.191406 3.78125 7.203125 3.78125 7.210938 3.769531 C 7.21875 3.753906 7.21875 3.738281 7.226562 3.71875 C 7.234375 3.695312 7.265625 3.6875 7.261719 3.664062 C 7.257812 3.644531 7.210938 3.628906 7.175781 3.632812 Z M 4.191406 3.972656 C 4.21875 3.996094 4.253906 4.039062 4.210938 4.058594 C 4.203125 4.0625 4.136719 4.078125 4.125 4.074219 C 4.121094 4.074219 4.113281 4.0625 4.109375 4.058594 C 4.136719 4.03125 4.164062 4 4.191406 3.972656 Z M 4.296875 4.074219 C 4.308594 4.074219 4.3125 4.109375 4.328125 4.109375 C 4.34375 4.109375 4.355469 4.089844 4.363281 4.09375 C 4.386719 4.097656 4.402344 4.144531 4.378906 4.160156 C 4.363281 4.167969 4.359375 4.140625 4.347656 4.144531 C 4.308594 4.152344 4.289062 4.230469 4.261719 4.230469 C 4.234375 4.222656 4.21875 4.164062 4.246094 4.144531 C 4.246094 4.128906 4.242188 4.125 4.246094 4.109375 C 4.253906 4.101562 4.273438 4.074219 4.296875 4.074219 Z M 4.160156 4.09375 C 4.167969 4.09375 4.171875 4.085938 4.175781 4.09375 C 4.171875 4.121094 4.164062 4.128906 4.140625 4.144531 C 4.101562 4.167969 4.070312 4.195312 4.058594 4.246094 C 4.054688 4.261719 4.007812 4.300781 3.988281 4.296875 C 3.945312 4.289062 4.011719 4.207031 4.023438 4.195312 C 4.035156 4.183594 4.042969 4.175781 4.058594 4.160156 C 4.070312 4.144531 4.078125 4.117188 4.089844 4.109375 C 4.105469 4.101562 4.136719 4.09375 4.160156 4.09375 Z M 7.859375 4.179688 C 7.902344 4.171875 7.925781 4.21875 7.941406 4.246094 C 7.960938 4.269531 8 4.300781 8.027344 4.316406 C 8.042969 4.324219 8.0625 4.339844 8.078125 4.347656 C 8.113281 4.363281 8.179688 4.417969 8.183594 4.449219 C 8.183594 4.46875 8.160156 4.484375 8.164062 4.503906 C 8.191406 4.507812 8.214844 4.460938 8.214844 4.433594 C 8.265625 4.503906 8.308594 4.578125 8.351562 4.65625 C 8.371094 4.691406 8.402344 4.722656 8.421875 4.757812 C 8.394531 4.765625 8.390625 4.769531 8.386719 4.792969 C 8.382812 4.824219 8.398438 4.871094 8.351562 4.878906 C 8.324219 4.882812 8.289062 4.851562 8.25 4.84375 C 8.234375 4.835938 8.210938 4.847656 8.199219 4.84375 C 8.167969 4.832031 8.171875 4.792969 8.148438 4.773438 C 8.132812 4.765625 8.085938 4.742188 8.0625 4.742188 C 8.046875 4.742188 8.042969 4.746094 8.027344 4.742188 C 8.011719 4.734375 7.976562 4.75 7.960938 4.742188 C 7.945312 4.730469 7.914062 4.703125 7.910156 4.691406 C 7.902344 4.667969 7.960938 4.65625 7.960938 4.636719 C 7.960938 4.625 7.945312 4.609375 7.941406 4.585938 C 7.941406 4.574219 7.945312 4.5625 7.941406 4.554688 C 7.941406 4.539062 7.914062 4.535156 7.890625 4.535156 L 7.839844 4.535156 C 7.816406 4.535156 7.769531 4.53125 7.738281 4.535156 L 7.6875 4.535156 C 7.640625 4.542969 7.605469 4.53125 7.566406 4.535156 C 7.542969 4.535156 7.492188 4.558594 7.464844 4.570312 C 7.453125 4.578125 7.449219 4.578125 7.433594 4.585938 C 7.425781 4.59375 7.40625 4.601562 7.398438 4.605469 C 7.382812 4.613281 7.359375 4.632812 7.347656 4.636719 C 7.324219 4.644531 7.300781 4.632812 7.261719 4.636719 C 7.234375 4.636719 7.195312 4.621094 7.191406 4.585938 C 7.191406 4.535156 7.28125 4.5625 7.328125 4.554688 C 7.347656 4.546875 7.359375 4.53125 7.378906 4.519531 C 7.390625 4.511719 7.386719 4.507812 7.398438 4.503906 C 7.414062 4.492188 7.445312 4.464844 7.449219 4.449219 C 7.449219 4.4375 7.445312 4.425781 7.449219 4.417969 C 7.449219 4.40625 7.46875 4.398438 7.484375 4.382812 C 7.507812 4.359375 7.523438 4.328125 7.550781 4.316406 C 7.570312 4.304688 7.59375 4.296875 7.601562 4.28125 C 7.605469 4.265625 7.601562 4.265625 7.601562 4.246094 C 7.613281 4.238281 7.625 4.234375 7.636719 4.230469 C 7.664062 4.222656 7.6875 4.230469 7.722656 4.230469 C 7.734375 4.230469 7.757812 4.238281 7.773438 4.230469 C 7.785156 4.222656 7.792969 4.203125 7.808594 4.195312 C 7.820312 4.1875 7.839844 4.179688 7.859375 4.179688 Z M 8.164062 4.503906 L 8.097656 4.503906 C 8.074219 4.503906 8.042969 4.488281 8.027344 4.503906 C 8.046875 4.535156 8.085938 4.546875 8.128906 4.554688 C 8.148438 4.542969 8.15625 4.523438 8.164062 4.503906 Z M 4.433594 4.195312 L 4.484375 4.195312 C 4.496094 4.195312 4.511719 4.191406 4.515625 4.195312 C 4.507812 4.230469 4.425781 4.226562 4.398438 4.210938 C 4.398438 4.199219 4.414062 4.199219 4.433594 4.195312 Z M 4.3125 4.261719 C 4.289062 4.28125 4.265625 4.304688 4.226562 4.316406 C 4.207031 4.320312 4.179688 4.320312 4.175781 4.296875 C 4.171875 4.269531 4.207031 4.285156 4.226562 4.28125 C 4.25 4.273438 4.285156 4.265625 4.3125 4.261719 Z M 7.859375 4.261719 C 7.839844 4.269531 7.832031 4.308594 7.859375 4.316406 C 7.871094 4.308594 7.878906 4.285156 7.875 4.261719 C 7.867188 4.253906 7.863281 4.257812 7.859375 4.261719 Z M 7.824219 4.347656 C 7.824219 4.378906 7.828125 4.40625 7.824219 4.433594 C 7.839844 4.46875 7.882812 4.441406 7.890625 4.417969 C 7.902344 4.359375 7.882812 4.339844 7.859375 4.347656 C 7.847656 4.355469 7.832031 4.339844 7.824219 4.347656 Z M 3.308594 5.628906 C 3.335938 5.65625 3.355469 5.695312 3.390625 5.710938 C 3.40625 5.71875 3.425781 5.726562 3.441406 5.730469 C 3.457031 5.734375 3.464844 5.726562 3.476562 5.730469 C 3.507812 5.738281 3.539062 5.753906 3.5625 5.761719 C 3.597656 5.777344 3.632812 5.832031 3.664062 5.847656 C 3.667969 5.867188 3.660156 5.886719 3.664062 5.898438 C 3.679688 5.917969 3.691406 5.9375 3.714844 5.949219 C 3.742188 5.964844 3.757812 5.988281 3.785156 6.003906 C 3.792969 6.007812 3.804688 5.996094 3.816406 6.003906 C 3.855469 6.011719 3.871094 6.0625 3.902344 6.054688 C 3.921875 6.046875 3.917969 6.023438 3.921875 6.003906 C 3.933594 5.988281 3.949219 5.96875 3.972656 5.96875 C 4.003906 5.96875 4.011719 6.019531 4.023438 6.054688 C 4.03125 6.070312 4.050781 6.085938 4.058594 6.105469 C 4.066406 6.136719 4.0625 6.238281 4.058594 6.257812 C 4.046875 6.28125 4.007812 6.28125 3.988281 6.308594 C 3.980469 6.320312 3.980469 6.351562 3.972656 6.359375 C 3.957031 6.375 3.949219 6.378906 3.9375 6.394531 C 3.933594 6.402344 3.925781 6.417969 3.921875 6.429688 C 3.902344 6.464844 3.871094 6.488281 3.886719 6.53125 C 3.890625 6.546875 3.921875 6.5625 3.921875 6.582031 C 3.921875 6.605469 3.875 6.625 3.871094 6.648438 C 3.867188 6.667969 3.878906 6.691406 3.886719 6.71875 C 3.890625 6.738281 3.925781 6.757812 3.9375 6.769531 C 3.957031 6.789062 3.972656 6.828125 3.988281 6.855469 C 4.023438 6.90625 4.039062 6.972656 4.074219 7.023438 C 4.09375 7.050781 4.128906 7.066406 4.140625 7.09375 C 4.148438 7.105469 4.136719 7.132812 4.140625 7.144531 C 4.160156 7.1875 4.25 7.242188 4.296875 7.261719 C 4.316406 7.273438 4.34375 7.269531 4.363281 7.28125 C 4.390625 7.296875 4.453125 7.339844 4.464844 7.367188 C 4.480469 7.390625 4.476562 7.449219 4.484375 7.484375 C 4.492188 7.53125 4.480469 7.570312 4.484375 7.621094 C 4.484375 7.648438 4.5 7.660156 4.5 7.691406 C 4.5 7.699219 4.5 7.730469 4.5 7.742188 C 4.5 7.777344 4.503906 7.808594 4.5 7.84375 C 4.5 7.863281 4.5 7.878906 4.5 7.894531 C 4.5 7.910156 4.515625 7.914062 4.515625 7.929688 C 4.519531 7.945312 4.5 7.96875 4.5 7.980469 C 4.503906 8.015625 4.527344 8.03125 4.535156 8.066406 C 4.539062 8.089844 4.554688 8.152344 4.550781 8.183594 C 4.550781 8.199219 4.535156 8.21875 4.535156 8.234375 C 4.53125 8.25 4.535156 8.257812 4.535156 8.269531 C 4.53125 8.28125 4.535156 8.289062 4.535156 8.296875 C 4.511719 8.285156 4.492188 8.273438 4.472656 8.261719 C 4.332031 8.164062 4.195312 8.046875 4.074219 7.929688 C 4.058594 7.910156 4.039062 7.894531 4.023438 7.878906 C 3.925781 7.773438 3.832031 7.65625 3.75 7.535156 C 3.742188 7.527344 3.738281 7.511719 3.734375 7.503906 C 3.636719 7.359375 3.5625 7.21875 3.496094 7.058594 C 3.488281 7.046875 3.480469 7.035156 3.476562 7.023438 C 3.417969 6.882812 3.375 6.734375 3.339844 6.582031 C 3.335938 6.554688 3.328125 6.527344 3.324219 6.496094 C 3.308594 6.421875 3.296875 6.347656 3.289062 6.273438 C 3.28125 6.183594 3.273438 6.097656 3.273438 6.003906 C 3.273438 5.871094 3.289062 5.75 3.308594 5.628906 Z M 4.363281 5.917969 C 4.390625 5.90625 4.386719 5.949219 4.363281 5.949219 C 4.34375 5.957031 4.34375 5.925781 4.363281 5.917969 Z M 4.363281 5.917969 "/>
</g>
</svg>
