<?xml version="1.0" encoding="UTF-8"?>
<svg xmlns="http://www.w3.org/2000/svg" xmlns:xlink="http://www.w3.org/1999/xlink" width="12pt" height="12pt" viewBox="0 0 12 12" version="1.1">
<g id="surface1">
<path style=" stroke:none;fill-rule:nonzero;fill:rgb(82.745098%,85.490196%,89.019608%);fill-opacity:1;" d="M 1.636719 2.726562 L 1.636719 9.273438 L 7.089844 9.273438 L 10.363281 6 L 7.089844 2.726562 Z M 3.816406 3.816406 L 4.363281 3.816406 L 4.363281 4.363281 L 3.816406 4.363281 C 3.515625 4.363281 3.273438 4.609375 3.273438 4.910156 L 3.273438 5.453125 C 3.273438 5.664062 3.195312 5.855469 3.066406 6 C 3.195312 6.144531 3.273438 6.335938 3.273438 6.546875 L 3.273438 7.089844 C 3.273438 7.390625 3.515625 7.636719 3.816406 7.636719 L 4.363281 7.636719 L 4.363281 8.183594 L 3.816406 8.183594 C 3.214844 8.183594 2.726562 7.695312 2.726562 7.089844 L 2.726562 6.546875 C 2.726562 6.394531 2.605469 6.273438 2.453125 6.273438 L 2.183594 6.273438 L 2.183594 5.726562 L 2.453125 5.726562 C 2.605469 5.726562 2.726562 5.605469 2.726562 5.453125 L 2.726562 4.910156 C 2.726562 4.304688 3.214844 3.816406 3.816406 3.816406 Z M 4.910156 3.816406 L 5.453125 3.816406 C 6.058594 3.816406 6.546875 4.304688 6.546875 4.910156 L 6.546875 5.453125 C 6.546875 5.605469 6.667969 5.726562 6.816406 5.726562 L 7.089844 5.726562 L 7.089844 6.273438 L 6.816406 6.273438 C 6.667969 6.273438 6.546875 6.394531 6.546875 6.546875 L 6.546875 7.089844 C 6.546875 7.695312 6.058594 8.183594 5.453125 8.183594 L 4.910156 8.183594 L 4.910156 7.636719 L 5.453125 7.636719 C 5.753906 7.636719 6 7.390625 6 7.089844 L 6 6.546875 C 6 6.335938 6.074219 6.144531 6.203125 6 C 6.074219 5.855469 6 5.664062 6 5.453125 L 6 4.910156 C 6 4.609375 5.753906 4.363281 5.453125 4.363281 L 4.910156 4.363281 Z M 4.910156 3.816406 "/>
</g>
</svg>
