<?xml version="1.0" encoding="UTF-8"?>
<svg xmlns="http://www.w3.org/2000/svg" xmlns:xlink="http://www.w3.org/1999/xlink" width="12pt" height="12pt" viewBox="0 0 12 12" version="1.1">
<g id="surface1">
<path style=" stroke:none;fill-rule:nonzero;fill:rgb(82.745098%,85.490196%,89.019608%);fill-opacity:1;" d="M 4.910156 2.726562 L 1.636719 6 L 4.910156 9.273438 L 10.363281 9.273438 L 10.363281 2.726562 Z M 6.546875 3.816406 L 7.089844 3.816406 L 7.089844 4.363281 L 6.546875 4.363281 C 6.246094 4.363281 6 4.609375 6 4.910156 L 6 5.453125 C 6 5.664062 5.925781 5.855469 5.796875 6 C 5.925781 6.144531 6 6.335938 6 6.546875 L 6 7.089844 C 6 7.390625 6.246094 7.636719 6.546875 7.636719 L 7.089844 7.636719 L 7.089844 8.183594 L 6.546875 8.183594 C 5.941406 8.183594 5.453125 7.695312 5.453125 7.089844 L 5.453125 6.546875 C 5.453125 6.394531 5.332031 6.273438 5.183594 6.273438 L 4.910156 6.273438 L 4.910156 5.726562 L 5.183594 5.726562 C 5.332031 5.726562 5.453125 5.605469 5.453125 5.453125 L 5.453125 4.910156 C 5.453125 4.304688 5.941406 3.816406 6.546875 3.816406 Z M 7.636719 3.816406 L 8.183594 3.816406 C 8.785156 3.816406 9.273438 4.304688 9.273438 4.910156 L 9.273438 5.453125 C 9.273438 5.605469 9.394531 5.726562 9.546875 5.726562 L 9.816406 5.726562 L 9.816406 6.273438 L 9.546875 6.273438 C 9.394531 6.273438 9.273438 6.394531 9.273438 6.546875 L 9.273438 7.089844 C 9.273438 7.695312 8.785156 8.183594 8.183594 8.183594 L 7.636719 8.183594 L 7.636719 7.636719 L 8.183594 7.636719 C 8.484375 7.636719 8.726562 7.390625 8.726562 7.089844 L 8.726562 6.546875 C 8.726562 6.335938 8.804688 6.144531 8.933594 6 C 8.804688 5.855469 8.726562 5.664062 8.726562 5.453125 L 8.726562 4.910156 C 8.726562 4.609375 8.484375 4.363281 8.183594 4.363281 L 7.636719 4.363281 Z M 7.636719 3.816406 "/>
</g>
</svg>
