<?xml version="1.0" encoding="UTF-8"?>
<svg xmlns="http://www.w3.org/2000/svg" xmlns:xlink="http://www.w3.org/1999/xlink" width="12pt" height="12pt" viewBox="0 0 12 12" version="1.1">
<g id="surface1">
<path style=" stroke:none;fill-rule:nonzero;fill:rgb(82.745098%,85.490196%,89.019608%);fill-opacity:1;" d="M 2.726562 2.183594 C 2.726562 2.183594 2.183594 2.183594 2.183594 2.726562 L 2.183594 5.453125 L 3.273438 5.453125 L 3.273438 4.910156 L 3.707031 4.910156 L 4.636719 3.976562 L 5.023438 3.59375 L 6.339844 4.910156 L 8.726562 4.910156 L 8.726562 8.726562 L 5.816406 8.726562 L 5.027344 9.523438 L 4.234375 8.726562 L 3.277344 8.726562 L 3.277344 7.640625 L 2.1875 7.636719 L 2.1875 9.273438 C 2.1875 9.273438 2.1875 9.816406 2.734375 9.816406 L 9.277344 9.816406 C 9.824219 9.816406 9.824219 9.273438 9.824219 9.273438 L 9.824219 2.726562 C 9.824219 2.726562 9.824219 2.183594 9.277344 2.183594 Z M 5.023438 4.363281 L 4.269531 5.121094 L 5.160156 6.011719 L 1.640625 6 L 1.640625 7.089844 L 5.164062 7.101562 L 4.273438 7.992188 L 5.03125 8.75 L 7.210938 6.546875 Z M 5.023438 4.363281 "/>
</g>
</svg>
