<?xml version="1.0" encoding="UTF-8"?>
<svg xmlns="http://www.w3.org/2000/svg" xmlns:xlink="http://www.w3.org/1999/xlink" width="12pt" height="12pt" viewBox="0 0 12 12" version="1.1">
<g id="surface1">
<path style=" stroke:none;fill-rule:nonzero;fill:rgb(82.745098%,85.490196%,89.019608%);fill-opacity:1;" d="M 2.726562 2.726562 C 2.726562 2.726562 1.636719 2.726562 1.636719 3.816406 L 1.636719 8.183594 C 1.636719 9.273438 2.726562 9.273438 2.726562 9.273438 L 8.726562 9.273438 C 8.726562 9.273438 9.816406 9.273438 9.816406 8.183594 L 9.816406 3.816406 C 9.816406 2.726562 8.726562 2.726562 8.726562 2.726562 Z M 2.863281 3.816406 L 3.683594 3.816406 C 3.757812 3.816406 3.816406 3.878906 3.816406 3.953125 L 3.816406 4.773438 C 3.816406 4.847656 3.757812 4.910156 3.683594 4.910156 L 2.863281 4.910156 C 2.789062 4.910156 2.726562 4.847656 2.726562 4.773438 L 2.726562 3.953125 C 2.726562 3.878906 2.789062 3.816406 2.863281 3.816406 Z M 4.5 3.816406 L 5.316406 3.816406 C 5.394531 3.816406 5.453125 3.878906 5.453125 3.953125 L 5.453125 4.773438 C 5.453125 4.847656 5.394531 4.910156 5.316406 4.910156 L 4.5 4.910156 C 4.425781 4.910156 4.363281 4.847656 4.363281 4.773438 L 4.363281 3.953125 C 4.363281 3.878906 4.425781 3.816406 4.5 3.816406 Z M 6.136719 3.816406 L 6.953125 3.816406 C 7.03125 3.816406 7.089844 3.878906 7.089844 3.953125 L 7.089844 4.773438 C 7.089844 4.847656 7.03125 4.910156 6.953125 4.910156 L 6.136719 4.910156 C 6.0625 4.910156 6 4.847656 6 4.773438 L 6 3.953125 C 6 3.878906 6.0625 3.816406 6.136719 3.816406 Z M 7.773438 3.816406 L 8.589844 3.816406 C 8.667969 3.816406 8.726562 3.878906 8.726562 3.953125 L 8.726562 4.773438 C 8.726562 4.847656 8.667969 4.910156 8.589844 4.910156 L 7.773438 4.910156 C 7.695312 4.910156 7.636719 4.847656 7.636719 4.773438 L 7.636719 3.953125 C 7.636719 3.878906 7.695312 3.816406 7.773438 3.816406 Z M 2.863281 5.453125 L 3.683594 5.453125 C 3.757812 5.453125 3.816406 5.515625 3.816406 5.589844 L 3.816406 6.410156 C 3.816406 6.484375 3.757812 6.546875 3.683594 6.546875 L 2.863281 6.546875 C 2.789062 6.546875 2.726562 6.484375 2.726562 6.410156 L 2.726562 5.589844 C 2.726562 5.515625 2.789062 5.453125 2.863281 5.453125 Z M 4.5 5.453125 L 5.316406 5.453125 C 5.394531 5.453125 5.453125 5.515625 5.453125 5.589844 L 5.453125 6.410156 C 5.453125 6.484375 5.394531 6.546875 5.316406 6.546875 L 4.5 6.546875 C 4.425781 6.546875 4.363281 6.484375 4.363281 6.410156 L 4.363281 5.589844 C 4.363281 5.515625 4.425781 5.453125 4.5 5.453125 Z M 6.136719 5.453125 L 6.953125 5.453125 C 7.03125 5.453125 7.089844 5.515625 7.089844 5.589844 L 7.089844 6.410156 C 7.089844 6.484375 7.03125 6.546875 6.953125 6.546875 L 6.136719 6.546875 C 6.0625 6.546875 6 6.484375 6 6.410156 L 6 5.589844 C 6 5.515625 6.0625 5.453125 6.136719 5.453125 Z M 7.773438 5.453125 L 8.589844 5.453125 C 8.667969 5.453125 8.726562 5.515625 8.726562 5.589844 L 8.726562 6.410156 C 8.726562 6.484375 8.667969 6.546875 8.589844 6.546875 L 7.773438 6.546875 C 7.695312 6.546875 7.636719 6.484375 7.636719 6.410156 L 7.636719 5.589844 C 7.636719 5.515625 7.695312 5.453125 7.773438 5.453125 Z M 3.953125 7.089844 L 7.5 7.089844 C 7.574219 7.089844 7.636719 7.152344 7.636719 7.226562 L 7.636719 8.046875 C 7.636719 8.121094 7.574219 8.183594 7.5 8.183594 L 3.953125 8.183594 C 3.878906 8.183594 3.816406 8.121094 3.816406 8.046875 L 3.816406 7.226562 C 3.816406 7.152344 3.878906 7.089844 3.953125 7.089844 Z M 3.953125 7.089844 "/>
</g>
</svg>
