<?xml version="1.0" encoding="UTF-8"?>
<svg xmlns="http://www.w3.org/2000/svg" xmlns:xlink="http://www.w3.org/1999/xlink" width="12pt" height="12pt" viewBox="0 0 12 12" version="1.1">
<g id="surface1">
<path style=" stroke:none;fill-rule:nonzero;fill:rgb(82.745098%,85.490196%,89.019608%);fill-opacity:1;" d="M 6.546875 9.816406 L 5.453125 9.816406 L 5.453125 8.726562 L 6.546875 8.726562 Z M 7.675781 5.589844 L 7.183594 6.09375 C 6.789062 6.492188 6.546875 6.816406 6.546875 7.636719 L 5.453125 7.636719 L 5.453125 7.363281 C 5.453125 6.761719 5.699219 6.21875 6.09375 5.820312 L 6.769531 5.132812 C 6.972656 4.9375 7.089844 4.664062 7.089844 4.363281 C 7.089844 3.761719 6.601562 3.273438 6 3.273438 C 5.398438 3.273438 4.910156 3.761719 4.910156 4.363281 L 3.816406 4.363281 C 3.816406 3.15625 4.792969 2.183594 6 2.183594 C 7.207031 2.183594 8.183594 3.15625 8.183594 4.363281 C 8.183594 4.84375 7.984375 5.28125 7.675781 5.589844 Z M 7.675781 5.589844 "/>
</g>
</svg>
