<?xml version="1.0" encoding="UTF-8"?>
<svg xmlns="http://www.w3.org/2000/svg" xmlns:xlink="http://www.w3.org/1999/xlink" width="12pt" height="12pt" viewBox="0 0 12 12" version="1.1">
<g id="surface1">
<path style=" stroke:none;fill-rule:nonzero;fill:rgb(82.745098%,85.490196%,89.019608%);fill-opacity:1;" d="M 6.425781 2.183594 C 6.15625 2.183594 5.863281 2.214844 5.550781 2.28125 C 5.242188 2.347656 4.945312 2.5 4.664062 2.734375 C 4.453125 2.921875 4.296875 3.136719 4.191406 3.375 C 4.089844 3.609375 4.035156 3.84375 4.035156 4.078125 C 4.035156 4.269531 4.070312 4.464844 4.144531 4.65625 C 4.214844 4.84375 4.320312 5.011719 4.457031 5.160156 C 4.59375 5.304688 4.765625 5.425781 4.96875 5.519531 C 5.171875 5.605469 5.40625 5.652344 5.667969 5.652344 L 5.824219 5.652344 C 5.878906 5.644531 5.929688 5.636719 5.984375 5.628906 C 5.957031 5.6875 5.933594 5.75 5.914062 5.808594 C 5.894531 5.863281 5.886719 5.933594 5.886719 6.019531 C 5.886719 6.175781 5.914062 6.304688 5.972656 6.410156 C 6.039062 6.511719 6.109375 6.609375 6.179688 6.699219 C 6.066406 6.707031 5.9375 6.71875 5.785156 6.730469 C 5.632812 6.746094 5.476562 6.769531 5.304688 6.800781 C 5.132812 6.835938 4.960938 6.878906 4.785156 6.933594 C 4.613281 6.992188 4.453125 7.070312 4.300781 7.164062 C 4.011719 7.335938 3.816406 7.535156 3.710938 7.765625 C 3.597656 7.996094 3.542969 8.207031 3.542969 8.386719 C 3.542969 8.570312 3.585938 8.75 3.671875 8.914062 C 3.753906 9.089844 3.886719 9.242188 4.0625 9.375 C 4.242188 9.511719 4.460938 9.617188 4.722656 9.699219 C 4.992188 9.777344 5.304688 9.816406 5.65625 9.816406 C 6.078125 9.816406 6.449219 9.761719 6.769531 9.648438 C 7.097656 9.542969 7.371094 9.394531 7.585938 9.214844 C 7.804688 9.042969 7.964844 8.84375 8.078125 8.617188 C 8.1875 8.390625 8.246094 8.160156 8.246094 7.925781 C 8.246094 7.75 8.222656 7.597656 8.175781 7.464844 C 8.132812 7.332031 8.066406 7.210938 7.988281 7.105469 C 7.917969 6.996094 7.828125 6.894531 7.722656 6.800781 C 7.625 6.710938 7.523438 6.613281 7.417969 6.523438 L 7.066406 6.242188 C 7.011719 6.195312 6.957031 6.140625 6.898438 6.082031 C 6.839844 6.015625 6.808594 5.925781 6.808594 5.8125 C 6.808594 5.695312 6.839844 5.601562 6.898438 5.53125 C 6.957031 5.457031 7.019531 5.386719 7.085938 5.320312 C 7.1875 5.238281 7.292969 5.15625 7.390625 5.070312 C 7.488281 4.976562 7.574219 4.875 7.65625 4.769531 C 7.734375 4.65625 7.796875 4.527344 7.84375 4.386719 C 7.886719 4.246094 7.910156 4.085938 7.910156 3.898438 C 7.910156 3.710938 7.886719 3.542969 7.832031 3.394531 C 7.78125 3.25 7.71875 3.121094 7.644531 3.015625 C 7.574219 2.902344 7.496094 2.808594 7.417969 2.734375 C 7.339844 2.65625 7.269531 2.59375 7.210938 2.546875 L 7.210938 2.542969 L 7.824219 2.542969 L 8.453125 2.183594 Z M 5.804688 2.511719 L 5.808594 2.511719 C 6.007812 2.511719 6.1875 2.578125 6.335938 2.703125 C 6.496094 2.824219 6.625 2.976562 6.730469 3.164062 C 6.835938 3.351562 6.914062 3.550781 6.964844 3.765625 C 7.019531 3.976562 7.046875 4.175781 7.046875 4.355469 C 7.046875 4.449219 7.03125 4.566406 7.003906 4.707031 C 6.980469 4.847656 6.910156 4.972656 6.800781 5.085938 C 6.71875 5.167969 6.617188 5.234375 6.496094 5.289062 C 6.378906 5.339844 6.257812 5.367188 6.132812 5.367188 L 6.128906 5.367188 C 5.921875 5.367188 5.738281 5.308594 5.582031 5.1875 C 5.429688 5.0625 5.300781 4.90625 5.199219 4.726562 C 5.097656 4.546875 5.023438 4.351562 4.972656 4.144531 C 4.925781 3.9375 4.902344 3.75 4.902344 3.585938 C 4.902344 3.449219 4.914062 3.320312 4.941406 3.195312 C 4.972656 3.066406 5.03125 2.949219 5.117188 2.84375 C 5.195312 2.742188 5.296875 2.664062 5.421875 2.601562 C 5.546875 2.542969 5.675781 2.511719 5.804688 2.511719 Z M 6.152344 6.980469 L 6.40625 6.980469 C 6.441406 6.980469 6.476562 6.984375 6.515625 6.992188 C 6.699219 7.125 6.859375 7.242188 6.996094 7.351562 C 7.136719 7.457031 7.246094 7.5625 7.332031 7.660156 C 7.417969 7.761719 7.480469 7.863281 7.519531 7.960938 C 7.566406 8.070312 7.589844 8.1875 7.589844 8.3125 C 7.589844 8.628906 7.464844 8.882812 7.214844 9.085938 C 6.972656 9.292969 6.613281 9.394531 6.140625 9.394531 C 5.609375 9.394531 5.1875 9.28125 4.871094 9.054688 C 4.5625 8.828125 4.410156 8.535156 4.410156 8.171875 C 4.410156 7.992188 4.441406 7.84375 4.507812 7.722656 C 4.582031 7.601562 4.664062 7.5 4.753906 7.421875 C 4.847656 7.339844 4.9375 7.277344 5.03125 7.230469 C 5.128906 7.191406 5.203125 7.160156 5.257812 7.140625 C 5.359375 7.109375 5.46875 7.078125 5.582031 7.050781 C 5.691406 7.03125 5.796875 7.015625 5.894531 7 C 5.996094 6.992188 6.078125 6.988281 6.152344 6.980469 Z M 6.152344 6.980469 "/>
</g>
</svg>
