<?xml version="1.0" encoding="UTF-8"?>
<svg xmlns="http://www.w3.org/2000/svg" xmlns:xlink="http://www.w3.org/1999/xlink" width="12pt" height="12pt" viewBox="0 0 12 12" version="1.1">
<g id="surface1">
<path style=" stroke:none;fill-rule:nonzero;fill:rgb(82.745098%,85.490196%,89.019608%);fill-opacity:1;" d="M 2.914062 2.148438 L 2.148438 2.914062 L 3.300781 4.066406 C 2.101562 4.871094 1.636719 6 1.636719 6 C 1.636719 6 2.726562 8.730469 6 8.730469 C 6.644531 8.730469 7.195312 8.617188 7.679688 8.445312 L 9.085938 9.851562 L 9.851562 9.085938 Z M 6 3.273438 C 5.714844 3.273438 5.449219 3.300781 5.199219 3.339844 L 6.246094 4.386719 C 6.953125 4.496094 7.507812 5.050781 7.617188 5.757812 L 9.3125 7.457031 C 10.0625 6.746094 10.363281 6.003906 10.363281 6.003906 C 10.363281 6.003906 9.273438 3.273438 6 3.273438 Z M 4.527344 5.292969 L 6.707031 7.472656 C 6.488281 7.582031 6.246094 7.636719 6 7.636719 C 5.097656 7.636719 4.363281 6.90625 4.363281 6.003906 C 4.363281 5.757812 4.421875 5.515625 4.527344 5.292969 Z M 4.527344 5.292969 "/>
</g>
</svg>
