<?xml version="1.0" encoding="UTF-8"?>
<svg xmlns="http://www.w3.org/2000/svg" xmlns:xlink="http://www.w3.org/1999/xlink" width="12pt" height="12pt" viewBox="0 0 12 12" version="1.1">
<g id="surface1">
<path style=" stroke:none;fill-rule:nonzero;fill:rgb(82.745098%,85.490196%,89.019608%);fill-opacity:1;" d="M 3.273438 2.183594 C 2.667969 2.183594 2.183594 2.667969 2.183594 3.273438 L 2.183594 8.726562 C 2.183594 9.332031 2.667969 9.816406 3.273438 9.816406 L 7.089844 9.816406 C 7.695312 9.816406 8.183594 9.332031 8.183594 8.726562 L 8.183594 3.273438 C 8.183594 2.667969 7.695312 2.183594 7.089844 2.183594 Z M 8.726562 6 L 8.726562 7.089844 L 9.816406 7.089844 L 9.816406 6 Z M 3.816406 7.636719 L 6.546875 7.636719 L 6.546875 8.726562 L 3.816406 8.726562 Z M 8.726562 7.636719 L 8.726562 9.816406 L 9.816406 9.816406 L 9.816406 7.636719 Z M 8.726562 7.636719 "/>
</g>
</svg>
