<?xml version="1.0" encoding="UTF-8"?>
<svg xmlns="http://www.w3.org/2000/svg" xmlns:xlink="http://www.w3.org/1999/xlink" width="12pt" height="12pt" viewBox="0 0 12 12" version="1.1">
<defs>
<filter id="alpha" filterUnits="objectBoundingBox" x="0%" y="0%" width="100%" height="100%">
  <feColorMatrix type="matrix" in="SourceGraphic" values="0 0 0 0 1 0 0 0 0 1 0 0 0 0 1 0 0 0 1 0"/>
</filter>
<mask id="mask0">
  <g filter="url(#alpha)">
<rect x="0" y="0" width="12" height="12" style="fill:rgb(0%,0%,0%);fill-opacity:0.301961;stroke:none;"/>
  </g>
</mask>
<clipPath id="clip1">
  <rect width="12" height="12"/>
</clipPath>
<g id="surface6" clip-path="url(#clip1)">
<path style=" stroke:none;fill-rule:nonzero;fill:rgb(82.745098%,85.490196%,89.019608%);fill-opacity:1;" d="M 3.816406 2.183594 L 3.816406 3.816406 L 2.183594 3.816406 L 2.183594 4.910156 L 3.816406 4.910156 L 3.816406 7.089844 L 2.183594 7.089844 L 2.183594 8.183594 L 3.816406 8.183594 L 3.816406 9.816406 L 4.910156 9.816406 L 4.910156 8.183594 L 7.089844 8.183594 L 7.089844 9.816406 L 8.183594 9.816406 L 8.183594 8.183594 L 9.816406 8.183594 L 9.816406 7.089844 L 8.183594 7.089844 L 8.183594 4.910156 L 9.816406 4.910156 L 9.816406 3.816406 L 8.183594 3.816406 L 8.183594 2.183594 L 7.089844 2.183594 L 7.089844 3.816406 L 4.910156 3.816406 L 4.910156 2.183594 Z M 4.910156 4.910156 L 7.089844 4.910156 L 7.089844 7.089844 L 4.910156 7.089844 Z M 4.910156 4.910156 "/>
</g>
</defs>
<g id="surface1">
<use xlink:href="#surface6" mask="url(#mask0)"/>
</g>
</svg>
