<?xml version="1.0" encoding="UTF-8"?>
<svg xmlns="http://www.w3.org/2000/svg" xmlns:xlink="http://www.w3.org/1999/xlink" width="12pt" height="12pt" viewBox="0 0 12 12" version="1.1">
<g id="surface1">
<path style=" stroke:none;fill-rule:nonzero;fill:rgb(82.745098%,85.490196%,89.019608%);fill-opacity:1;" d="M 7.644531 1.636719 C 7.457031 1.710938 7.269531 1.800781 7.113281 1.929688 C 6.363281 2.535156 6.351562 3.539062 7.09375 4.164062 C 7.246094 4.296875 7.433594 4.394531 7.621094 4.46875 C 7.632812 4.476562 7.632812 5.589844 7.632812 5.589844 C 8.445312 6 8.917969 6.546875 9.269531 7.089844 L 9.269531 4.5 C 9.457031 4.429688 9.632812 4.324219 9.789062 4.199219 C 10.542969 3.589844 10.550781 2.589844 9.8125 1.964844 C 9.65625 1.832031 9.472656 1.734375 9.285156 1.65625 L 9.273438 2.875 C 9.269531 3.125 9.027344 3.273438 8.722656 3.273438 L 8.179688 3.273438 C 7.878906 3.269531 7.632812 3.105469 7.632812 2.855469 Z M 5.996094 6 C 3.816406 6 2.726562 7.636719 2.726562 9.273438 L 1.773438 9.273438 C 1.636719 9.273438 1.636719 9.359375 1.636719 9.410156 L 1.636719 10.226562 C 1.636719 10.363281 1.710938 10.363281 1.773438 10.363281 L 10.222656 10.363281 C 10.332031 10.367188 10.359375 10.292969 10.359375 10.226562 L 10.359375 9.410156 C 10.371094 9.328125 10.359375 9.273438 10.222656 9.273438 L 9.269531 9.273438 C 9.269531 7.636719 8.179688 6 5.996094 6 Z M 5.996094 7.636719 C 7.28125 7.636719 7.632812 8.597656 7.632812 9.273438 L 4.363281 9.273438 C 4.363281 8.621094 4.746094 7.636719 5.996094 7.636719 Z M 5.996094 7.636719 "/>
</g>
</svg>
