<?xml version="1.0" encoding="UTF-8"?>
<svg xmlns="http://www.w3.org/2000/svg" xmlns:xlink="http://www.w3.org/1999/xlink" width="12pt" height="12pt" viewBox="0 0 12 12" version="1.1">
<g id="surface1">
<path style=" stroke:none;fill-rule:nonzero;fill:rgb(82.745098%,85.490196%,89.019608%);fill-opacity:1;" d="M 4.480469 2.183594 L 4.3125 2.335938 L 2.335938 4.3125 L 2.179688 4.484375 L 2.179688 7.515625 L 2.335938 7.6875 L 4.3125 9.664062 L 4.480469 9.816406 L 7.515625 9.816406 L 7.6875 9.664062 L 9.664062 7.6875 L 9.816406 7.515625 L 9.816406 4.484375 L 9.664062 4.3125 L 7.6875 2.335938 L 7.515625 2.183594 Z M 4.90625 3.273438 L 7.089844 3.273438 L 8.726562 4.910156 L 8.726562 7.089844 L 7.089844 8.726562 L 4.90625 8.726562 L 3.273438 7.089844 L 3.273438 4.910156 Z M 5.148438 3.816406 L 3.816406 5.148438 L 3.816406 6.851562 L 5.148438 8.183594 L 6.851562 8.183594 L 8.179688 6.851562 L 8.179688 5.148438 L 6.851562 3.816406 Z M 5.148438 3.816406 "/>
</g>
</svg>
