<?xml version="1.0" encoding="UTF-8"?>
<svg xmlns="http://www.w3.org/2000/svg" xmlns:xlink="http://www.w3.org/1999/xlink" width="12pt" height="12pt" viewBox="0 0 12 12" version="1.1">
<g id="surface1">
<path style=" stroke:none;fill-rule:nonzero;fill:rgb(82.745098%,85.490196%,89.019608%);fill-opacity:1;" d="M 3.109375 -0.0429688 C 2.53125 -0.0429688 2.0625 0.425781 2.0625 1.007812 L 2.0625 10.910156 C 2.0625 11.492188 2.53125 11.957031 3.109375 11.957031 L 8.945312 11.957031 C 9.523438 11.957031 9.992188 11.492188 9.992188 10.910156 L 9.992188 1.007812 C 9.992188 0.425781 9.523438 -0.0429688 8.945312 -0.0429688 Z M 3.382812 1.679688 L 8.671875 1.679688 L 8.671875 8.457031 L 3.382812 8.457031 Z M 7.097656 9.570312 L 8.230469 9.570312 C 8.441406 9.570312 8.609375 9.738281 8.609375 9.945312 L 8.609375 10.15625 C 8.609375 10.367188 8.441406 10.535156 8.230469 10.535156 L 7.097656 10.535156 C 6.886719 10.535156 6.71875 10.367188 6.71875 10.15625 L 6.71875 9.945312 C 6.71875 9.738281 6.886719 9.570312 7.097656 9.570312 Z M 7.097656 9.570312 "/>
<path style=" stroke:none;fill-rule:nonzero;fill:rgb(100%,45.098039%,34.117647%);fill-opacity:1;" d="M 3.761719 9.570312 L 5.019531 9.570312 C 5.195312 9.570312 5.335938 9.710938 5.335938 9.882812 L 5.335938 10.21875 C 5.335938 10.394531 5.195312 10.535156 5.019531 10.535156 L 3.761719 10.535156 C 3.589844 10.535156 3.449219 10.394531 3.449219 10.21875 L 3.449219 9.882812 C 3.449219 9.710938 3.589844 9.570312 3.761719 9.570312 Z M 3.761719 9.570312 "/>
</g>
</svg>
