<?xml version="1.0" encoding="UTF-8"?>
<svg xmlns="http://www.w3.org/2000/svg" xmlns:xlink="http://www.w3.org/1999/xlink" width="12pt" height="12pt" viewBox="0 0 12 12" version="1.1">
<g id="surface1">
<path style=" stroke:none;fill-rule:nonzero;fill:rgb(82.745098%,85.490196%,89.019608%);fill-opacity:1;" d="M 8.183594 2.183594 C 7.277344 2.183594 6.546875 2.914062 6.546875 3.816406 C 6.546875 4.722656 7.277344 5.453125 8.183594 5.453125 C 9.085938 5.453125 9.816406 4.722656 9.816406 3.816406 C 9.816406 2.914062 9.085938 2.183594 8.183594 2.183594 Z M 6 2.191406 C 3.890625 2.191406 2.183594 3.898438 2.183594 6.007812 C 2.183594 8.117188 3.890625 9.828125 6 9.828125 C 7.050781 9.824219 8.003906 9.394531 8.695312 8.707031 L 9.816406 9.828125 L 9.816406 6.554688 L 6.542969 6.554688 L 7.917969 7.925781 C 7.425781 8.421875 6.753906 8.734375 6 8.734375 C 4.492188 8.734375 3.273438 7.515625 3.273438 6.007812 C 3.273438 4.503906 4.492188 3.28125 6 3.28125 Z M 6 2.191406 "/>
</g>
</svg>
