<?xml version="1.0" encoding="UTF-8"?>
<svg xmlns="http://www.w3.org/2000/svg" xmlns:xlink="http://www.w3.org/1999/xlink" width="12pt" height="12pt" viewBox="0 0 12 12" version="1.1">
<g id="surface1">
<path style=" stroke:none;fill-rule:nonzero;fill:rgb(82.745098%,85.490196%,89.019608%);fill-opacity:1;" d="M 3.300781 2.183594 C 2.679688 2.183594 2.183594 2.679688 2.183594 3.300781 L 2.183594 8.699219 C 2.183594 9.320312 2.679688 9.816406 3.300781 9.816406 L 8.699219 9.816406 C 9.320312 9.816406 9.816406 9.320312 9.816406 8.699219 L 9.816406 3.300781 C 9.816406 2.679688 9.320312 2.183594 8.699219 2.183594 Z M 6 3.816406 C 7.203125 3.816406 8.183594 4.796875 8.183594 6 C 8.183594 7.203125 7.203125 8.183594 6 8.183594 L 3.816406 8.183594 L 3.816406 6 C 3.816406 4.796875 4.796875 3.816406 6 3.816406 Z M 6 4.910156 C 5.398438 4.910156 4.910156 5.398438 4.910156 6 C 4.910156 6.601562 5.398438 7.089844 6 7.089844 C 6.601562 7.089844 7.089844 6.601562 7.089844 6 C 7.089844 5.398438 6.601562 4.910156 6 4.910156 Z M 6 4.910156 "/>
</g>
</svg>
