<?xml version="1.0" encoding="UTF-8"?>
<svg xmlns="http://www.w3.org/2000/svg" xmlns:xlink="http://www.w3.org/1999/xlink" width="12pt" height="12pt" viewBox="0 0 12 12" version="1.1">
<defs>
<filter id="alpha" filterUnits="objectBoundingBox" x="0%" y="0%" width="100%" height="100%">
  <feColorMatrix type="matrix" in="SourceGraphic" values="0 0 0 0 1 0 0 0 0 1 0 0 0 0 1 0 0 0 1 0"/>
</filter>
<mask id="mask0">
  <g filter="url(#alpha)">
<rect x="0" y="0" width="12" height="12" style="fill:rgb(0%,0%,0%);fill-opacity:0.301961;stroke:none;"/>
  </g>
</mask>
<clipPath id="clip1">
  <rect width="12" height="12"/>
</clipPath>
<g id="surface6" clip-path="url(#clip1)">
<path style=" stroke:none;fill-rule:nonzero;fill:rgb(82.745098%,85.490196%,89.019608%);fill-opacity:1;" d="M 2.726562 2.183594 C 2.726562 2.183594 2.183594 2.183594 2.183594 2.730469 L 2.183594 8.730469 C 2.183594 8.730469 2.183594 9.273438 2.726562 9.273438 L 9.273438 9.273438 C 9.273438 9.273438 9.816406 9.273438 9.816406 8.730469 L 9.816406 3.820312 C 9.816406 3.273438 9.273438 3.273438 9.273438 3.273438 L 6.546875 3.273438 L 5.453125 2.183594 Z M 7.910156 5.453125 L 8.816406 6.15625 L 7.910156 6.859375 L 7.910156 6.390625 C 7.40625 6.390625 7 6.808594 7 7.324219 C 7 7.839844 7.40625 8.261719 7.910156 8.261719 C 8.410156 8.261719 8.816406 7.839844 8.816406 7.324219 C 8.816406 7.261719 8.84375 7.203125 8.882812 7.160156 C 8.925781 7.113281 8.984375 7.089844 9.046875 7.089844 C 9.171875 7.089844 9.273438 7.195312 9.273438 7.324219 C 9.273438 7.332031 9.273438 7.339844 9.273438 7.347656 C 9.257812 8.113281 8.65625 8.726562 7.910156 8.726562 C 7.15625 8.726562 6.546875 8.097656 6.546875 7.324219 C 6.546875 6.550781 7.15625 5.921875 7.910156 5.921875 Z M 7.910156 5.453125 "/>
</g>
</defs>
<g id="surface1">
<use xlink:href="#surface6" mask="url(#mask0)"/>
</g>
</svg>
