<?xml version="1.0" encoding="UTF-8"?>
<svg xmlns="http://www.w3.org/2000/svg" xmlns:xlink="http://www.w3.org/1999/xlink" width="12pt" height="12pt" viewBox="0 0 12 12" version="1.1">
<g id="surface1">
<path style=" stroke:none;fill-rule:nonzero;fill:rgb(82.745098%,85.490196%,89.019608%);fill-opacity:1;" d="M 3.894531 1.792969 L 3.195312 2.492188 L 2.492188 2.492188 C 1.089844 2.492188 1.089844 3.894531 1.089844 3.894531 L 1.089844 8.804688 C 1.089844 10.207031 2.492188 10.207031 2.492188 10.207031 L 9.507812 10.207031 C 10.910156 10.207031 10.910156 8.804688 10.910156 8.804688 L 10.910156 3.894531 C 10.910156 2.492188 9.507812 2.492188 9.507812 2.492188 L 8.804688 2.492188 L 8.105469 1.792969 Z M 6 3.894531 C 7.160156 3.894531 8.105469 4.839844 8.105469 6 C 8.105469 7.160156 7.160156 8.105469 6 8.105469 C 4.839844 8.105469 3.894531 7.160156 3.894531 6 C 3.894531 4.839844 4.839844 3.894531 6 3.894531 Z M 6 3.894531 "/>
</g>
</svg>
