<?xml version="1.0" encoding="UTF-8"?>
<svg xmlns="http://www.w3.org/2000/svg" xmlns:xlink="http://www.w3.org/1999/xlink" width="12pt" height="12pt" viewBox="0 0 12 12" version="1.1">
<g id="surface1">
<path style=" stroke:none;fill-rule:nonzero;fill:rgb(82.745098%,85.490196%,89.019608%);fill-opacity:1;" d="M 4.363281 1.519531 L 4.363281 1.636719 C 4.363281 1.796875 4.347656 1.960938 4.316406 2.117188 C 4.300781 2.207031 4.28125 2.296875 4.257812 2.382812 C 4.230469 2.472656 4.203125 2.558594 4.167969 2.640625 C 3.90625 3.300781 3.398438 3.828125 2.75 4.117188 C 2.671875 4.15625 2.585938 4.1875 2.503906 4.214844 C 2.5 4.214844 2.5 4.214844 2.5 4.214844 C 2.496094 4.214844 2.492188 4.214844 2.492188 4.214844 C 2.410156 4.242188 2.328125 4.265625 2.242188 4.285156 C 2.242188 4.285156 2.238281 4.285156 2.234375 4.285156 C 2.039062 4.324219 1.835938 4.34375 1.636719 4.339844 L 1.636719 4.886719 C 1.894531 4.882812 2.15625 4.851562 2.40625 4.789062 L 2.925781 6.34375 C 2.507812 6.398438 2.074219 6.507812 1.636719 6.507812 L 1.636719 6.871094 C 2.554688 6.871094 3.453125 6.644531 4.253906 6.222656 L 4.621094 6.796875 L 4.914062 7.257812 C 5.070312 7.164062 5.222656 7.066406 5.375 6.964844 L 5.371094 6.957031 C 6.503906 6.167969 7.386719 5.027344 7.839844 3.652344 L 9.015625 3.988281 L 9.417969 4.125 C 9.679688 3.320312 9.816406 2.445312 9.816406 1.597656 L 9.273438 1.597656 C 9.269531 2.207031 9.1875 2.832031 9.039062 3.429688 L 4.84375 2.230469 C 4.890625 1.996094 4.914062 1.757812 4.910156 1.519531 Z M 4.695312 2.792969 L 7.320312 3.542969 C 6.902344 4.789062 6.101562 5.820312 5.078125 6.539062 L 4.726562 5.984375 L 4.496094 5.621094 C 4.371094 5.707031 4.242188 5.789062 4.113281 5.867188 C 3.898438 5.992188 3.671875 6.097656 3.441406 6.191406 L 2.925781 4.644531 C 3.742188 4.292969 4.382812 3.625 4.695312 2.792969 Z M 6.613281 5.886719 C 6.496094 6.023438 6.371094 6.15625 6.242188 6.285156 L 7.03125 7.019531 C 5.605469 8.449219 3.671875 9.269531 1.636719 9.273438 L 1.636719 9.816406 C 3.820312 9.8125 5.898438 8.929688 7.425781 7.386719 L 8.632812 8.503906 C 7.894531 9.257812 7.039062 9.882812 6.101562 10.363281 L 7.203125 10.363281 C 7.867188 9.9375 8.480469 9.4375 9.03125 8.875 L 9.035156 8.878906 C 9.164062 8.75 9.285156 8.617188 9.40625 8.480469 L 9.402344 8.480469 C 9.753906 8.089844 10.074219 7.667969 10.363281 7.226562 L 10.363281 6.113281 C 9.992188 6.832031 9.53125 7.496094 8.996094 8.101562 L 7.808594 6.996094 L 7.410156 6.628906 Z M 6.613281 5.886719 "/>
</g>
</svg>
