<?xml version="1.0" encoding="UTF-8"?>
<svg xmlns="http://www.w3.org/2000/svg" xmlns:xlink="http://www.w3.org/1999/xlink" width="12pt" height="12pt" viewBox="0 0 12 12" version="1.1">
<g id="surface1">
<path style=" stroke:none;fill-rule:nonzero;fill:rgb(82.745098%,85.490196%,89.019608%);fill-opacity:1;" d="M 3.835938 1.636719 L 3.449219 2.621094 C 2.828125 2.433594 2.21875 2.183594 1.636719 1.867188 L 1.636719 2.625 C 2.144531 2.878906 2.667969 3.09375 3.203125 3.257812 L 2.390625 5.355469 C 2.132812 5.238281 1.882812 5.105469 1.636719 4.964844 L 1.636719 5.730469 C 1.804688 5.816406 1.972656 5.90625 2.144531 5.984375 L 1.636719 7.292969 L 1.636719 9.15625 L 1.667969 9.078125 C 2.925781 9.695312 4.28125 10.03125 5.652344 10.097656 L 5.652344 10.363281 L 6.328125 10.363281 L 6.328125 10.109375 C 7.707031 10.085938 9.082031 9.789062 10.363281 9.214844 L 10.363281 7.191406 L 9.988281 6.222656 C 10.113281 6.171875 10.238281 6.109375 10.363281 6.054688 L 10.363281 5.324219 C 10.15625 5.417969 9.953125 5.511719 9.742188 5.589844 L 8.871094 3.351562 C 9.378906 3.214844 9.878906 3.039062 10.363281 2.824219 L 10.363281 2.074219 C 9.800781 2.34375 9.222656 2.5625 8.625 2.71875 L 8.207031 1.636719 L 7.476562 1.636719 L 7.953125 2.867188 C 7.414062 2.96875 6.863281 3.019531 6.3125 3.027344 L 6.3125 1.636719 L 5.628906 1.636719 L 5.632812 3.007812 C 5.125 2.980469 4.613281 2.910156 4.113281 2.796875 L 4.5625 1.636719 Z M 3.863281 3.433594 C 4.449219 3.570312 5.039062 3.652344 5.636719 3.683594 L 5.640625 6.1875 C 4.75 6.121094 3.863281 5.929688 3.015625 5.613281 Z M 8.203125 3.507812 L 9.101562 5.808594 C 8.195312 6.078125 7.257812 6.214844 6.320312 6.214844 L 6.316406 3.699219 C 6.949219 3.695312 7.582031 3.628906 8.203125 3.507812 Z M 2.769531 6.242188 C 3.699219 6.589844 4.667969 6.792969 5.644531 6.863281 L 5.652344 9.421875 C 4.363281 9.355469 3.09375 9.027344 1.914062 8.441406 Z M 9.347656 6.4375 L 10.171875 8.554688 C 8.953125 9.117188 7.640625 9.414062 6.324219 9.4375 L 6.320312 6.886719 C 7.339844 6.890625 8.363281 6.738281 9.347656 6.4375 Z M 9.347656 6.4375 "/>
</g>
</svg>
