<?xml version="1.0" encoding="UTF-8"?>
<svg xmlns="http://www.w3.org/2000/svg" xmlns:xlink="http://www.w3.org/1999/xlink" width="12pt" height="12pt" viewBox="0 0 12 12" version="1.1">
<g id="surface1">
<path style=" stroke:none;fill-rule:nonzero;fill:rgb(82.745098%,85.490196%,89.019608%);fill-opacity:1;" d="M 6 1.609375 L 6 1.636719 C 3.589844 1.636719 1.636719 3.589844 1.636719 6 C 1.636719 6.875 1.898438 7.730469 2.390625 8.453125 C 2.355469 8.496094 2.320312 8.542969 2.292969 8.589844 C 2.082031 8.976562 2.214844 9.457031 2.589844 9.683594 C 2.898438 9.859375 3.289062 9.8125 3.550781 9.574219 C 4.273438 10.066406 5.125 10.332031 6 10.335938 C 8.410156 10.335938 10.363281 8.382812 10.363281 5.972656 C 10.363281 3.5625 8.410156 1.609375 6 1.609375 Z M 6 2.183594 C 8.109375 2.183594 9.816406 3.890625 9.816406 6 C 9.816406 8.109375 8.109375 9.816406 6 9.816406 C 5.214844 9.816406 4.449219 9.574219 3.808594 9.125 C 3.851562 8.796875 3.695312 8.472656 3.410156 8.304688 C 3.25 8.210938 3.0625 8.171875 2.878906 8.199219 C 2.429688 7.558594 2.183594 6.796875 2.183594 6.015625 C 2.183594 3.90625 3.890625 2.199219 6 2.199219 Z M 6 3.273438 C 4.492188 3.273438 3.273438 4.492188 3.273438 6 C 3.273438 7.507812 4.492188 8.726562 6 8.726562 C 6.609375 8.726562 7.199219 8.523438 7.675781 8.148438 C 8.039062 8.253906 8.429688 8.101562 8.617188 7.773438 C 8.777344 7.496094 8.761719 7.148438 8.574219 6.890625 C 8.675781 6.605469 8.726562 6.304688 8.726562 6 C 8.726562 4.492188 7.507812 3.273438 6 3.273438 Z M 6 3.816406 C 7.203125 3.816406 8.183594 4.796875 8.183594 6 C 8.179688 6.191406 8.15625 6.382812 8.105469 6.570312 C 7.75 6.480469 7.382812 6.640625 7.199219 6.953125 C 7.046875 7.21875 7.054688 7.546875 7.222656 7.804688 C 6.859375 8.050781 6.4375 8.183594 6 8.1875 C 4.796875 8.1875 3.816406 7.210938 3.816406 6.003906 C 3.816406 4.800781 4.796875 3.824219 6 3.824219 Z M 6 4.910156 C 5.398438 4.910156 4.910156 5.398438 4.910156 6 C 4.910156 6.601562 5.398438 7.089844 6 7.089844 C 6.601562 7.089844 7.089844 6.601562 7.089844 6 C 7.089844 5.398438 6.601562 4.910156 6 4.910156 Z M 6 4.910156 "/>
</g>
</svg>
