<?xml version="1.0" encoding="UTF-8"?>
<svg xmlns="http://www.w3.org/2000/svg" xmlns:xlink="http://www.w3.org/1999/xlink" width="12pt" height="12pt" viewBox="0 0 12 12" version="1.1">
<g id="surface1">
<path style=" stroke:none;fill-rule:nonzero;fill:rgb(82.745098%,85.490196%,89.019608%);fill-opacity:1;" d="M 3.558594 1.636719 L 5.140625 2.335938 C 4.878906 2.839844 4.546875 3.304688 4.160156 3.71875 L 2.082031 1.648438 L 1.644531 1.648438 L 1.644531 2.164062 L 3.671875 4.1875 C 3.28125 4.527344 2.847656 4.820312 2.378906 5.054688 L 1.945312 4.082031 L 1.652344 3.394531 L 1.644531 5.046875 L 1.765625 5.320312 C 1.722656 5.335938 1.679688 5.359375 1.636719 5.375 L 1.636719 6.089844 C 1.773438 6.046875 1.90625 5.988281 2.039062 5.9375 L 3.097656 8.316406 C 2.625 8.5 2.140625 8.652344 1.636719 8.761719 L 1.636719 9.453125 C 2.234375 9.332031 2.8125 9.152344 3.371094 8.933594 L 3.988281 10.332031 L 4.714844 10.332031 L 3.980469 8.667969 C 4.898438 8.230469 5.738281 7.660156 6.480469 6.980469 L 8.347656 8.839844 C 7.738281 9.410156 7.078125 9.921875 6.367188 10.363281 L 7.578125 10.363281 C 8.015625 10.042969 8.429688 9.6875 8.828125 9.316406 L 9.847656 10.332031 L 10.332031 10.335938 L 10.332031 9.871094 L 9.304688 8.84375 C 9.679688 8.460938 10.039062 8.058594 10.363281 7.628906 L 10.363281 6.457031 C 9.914062 7.144531 9.398438 7.78125 8.828125 8.371094 L 6.964844 6.511719 C 7.691406 5.753906 8.300781 4.882812 8.769531 3.929688 L 10.328125 4.617188 L 10.332031 3.882812 L 9.039062 3.324219 C 9.261719 2.785156 9.441406 2.226562 9.570312 1.644531 L 8.875 1.644531 C 8.761719 2.132812 8.609375 2.601562 8.421875 3.054688 L 6.019531 2.015625 C 6.070312 1.890625 6.128906 1.773438 6.171875 1.644531 L 5.453125 1.644531 C 5.4375 1.683594 5.421875 1.714844 5.40625 1.75 L 5.144531 1.636719 Z M 5.757812 2.605469 L 8.152344 3.660156 C 7.722656 4.539062 7.15625 5.335938 6.488281 6.035156 L 4.636719 4.191406 C 5.078125 3.71875 5.457031 3.1875 5.757812 2.605469 Z M 4.152344 4.660156 L 6.003906 6.507812 C 5.320312 7.125 4.546875 7.648438 3.707031 8.050781 L 2.652344 5.667969 C 3.195312 5.398438 3.699219 5.058594 4.152344 4.660156 Z M 4.152344 4.660156 "/>
</g>
</svg>
