<?xml version="1.0" encoding="UTF-8"?>
<svg xmlns="http://www.w3.org/2000/svg" xmlns:xlink="http://www.w3.org/1999/xlink" width="12pt" height="12pt" viewBox="0 0 12 12" version="1.1">
<g id="surface1">
<path style=" stroke:none;fill-rule:nonzero;fill:rgb(82.745098%,85.490196%,89.019608%);fill-opacity:1;" d="M 7.636719 1.5625 L 7.636719 1.636719 L 4.765625 5.550781 C 4.847656 5.574219 4.929688 5.605469 5.011719 5.636719 C 4.726562 5.523438 4.417969 5.453125 4.089844 5.453125 C 3.441406 5.453125 2.816406 5.714844 2.355469 6.175781 C 2.226562 6.304688 2.113281 6.449219 2.015625 6.605469 L 3.15625 7.746094 L 2.394531 8.785156 C 2.578125 9.136719 2.863281 9.421875 3.214844 9.605469 L 4.253906 8.84375 L 5.398438 9.988281 C 5.550781 9.886719 5.695312 9.773438 5.824219 9.644531 C 6.285156 9.183594 6.542969 8.558594 6.546875 7.910156 C 6.546875 7.59375 6.480469 7.292969 6.371094 7.011719 C 6.402344 7.085938 6.425781 7.160156 6.449219 7.234375 L 10.363281 4.289062 Z M 3.226562 1.683594 L 1.683594 3.226562 L 3.6875 5.230469 L 5.230469 3.6875 Z M 8.3125 6.769531 L 6.769531 8.316406 L 8.773438 10.316406 L 10.316406 8.773438 Z M 2.042969 9.226562 L 1.636719 9.824219 L 2.183594 10.371094 L 2.738281 9.964844 C 2.460938 9.78125 2.226562 9.546875 2.042969 9.269531 Z M 2.042969 9.226562 "/>
</g>
</svg>
