<?xml version="1.0" encoding="UTF-8"?>
<svg xmlns="http://www.w3.org/2000/svg" xmlns:xlink="http://www.w3.org/1999/xlink" width="12pt" height="12pt" viewBox="0 0 12 12" version="1.1">
<defs>
<filter id="alpha" filterUnits="objectBoundingBox" x="0%" y="0%" width="100%" height="100%">
  <feColorMatrix type="matrix" in="SourceGraphic" values="0 0 0 0 1 0 0 0 0 1 0 0 0 0 1 0 0 0 1 0"/>
</filter>
<mask id="mask0">
  <g filter="url(#alpha)">
<rect x="0" y="0" width="12" height="12" style="fill:rgb(0%,0%,0%);fill-opacity:0.301961;stroke:none;"/>
  </g>
</mask>
<clipPath id="clip1">
  <rect width="12" height="12"/>
</clipPath>
<g id="surface6" clip-path="url(#clip1)">
<path style=" stroke:none;fill-rule:nonzero;fill:rgb(82.745098%,85.490196%,89.019608%);fill-opacity:1;" d="M 1.65625 5.597656 C 1.65625 5.609375 1.65625 5.625 1.652344 5.636719 C 1.65625 5.625 1.65625 5.617188 1.65625 5.605469 C 1.65625 5.601562 1.65625 5.601562 1.65625 5.597656 Z M 2.191406 6.242188 C 2.316406 8.253906 3.984375 9.816406 6 9.816406 C 8.011719 9.816406 9.675781 8.253906 9.804688 6.246094 C 9.054688 6.75 7.628906 7.089844 6 7.089844 C 4.367188 7.089844 2.9375 6.75 2.191406 6.242188 Z M 10.34375 6.375 C 10.335938 6.457031 10.328125 6.539062 10.316406 6.621094 C 10.328125 6.539062 10.335938 6.457031 10.34375 6.375 Z M 1.660156 6.445312 C 1.679688 6.636719 1.714844 6.824219 1.761719 7.011719 C 1.714844 6.824219 1.679688 6.640625 1.660156 6.445312 Z M 1.761719 7.011719 C 1.773438 7.0625 1.785156 7.113281 1.796875 7.164062 C 1.785156 7.113281 1.773438 7.0625 1.761719 7.011719 Z M 1.796875 7.164062 C 1.847656 7.34375 1.90625 7.523438 1.980469 7.699219 C 1.90625 7.527344 1.847656 7.34375 1.796875 7.164062 Z M 10.289062 6.792969 C 10.273438 6.878906 10.253906 6.96875 10.230469 7.054688 C 10.253906 6.96875 10.273438 6.878906 10.289062 6.792969 Z M 10.1875 7.21875 C 10.164062 7.304688 10.136719 7.386719 10.105469 7.46875 C 10.132812 7.386719 10.164062 7.304688 10.1875 7.21875 Z M 10.046875 7.628906 C 10.011719 7.714844 9.972656 7.796875 9.933594 7.882812 C 9.972656 7.796875 10.011719 7.714844 10.046875 7.628906 Z M 1.980469 7.699219 C 2.039062 7.832031 2.101562 7.964844 2.167969 8.089844 C 2.101562 7.964844 2.035156 7.832031 1.980469 7.699219 Z M 9.871094 8.011719 C 9.828125 8.089844 9.785156 8.167969 9.738281 8.242188 C 9.785156 8.167969 9.828125 8.089844 9.871094 8.011719 Z M 2.226562 8.183594 C 2.277344 8.269531 2.328125 8.363281 2.386719 8.445312 C 2.332031 8.359375 2.277344 8.273438 2.226562 8.183594 Z M 9.640625 8.398438 C 9.601562 8.460938 9.558594 8.519531 9.515625 8.578125 C 9.558594 8.519531 9.601562 8.460938 9.640625 8.398438 Z M 2.515625 8.621094 C 2.558594 8.679688 2.601562 8.734375 2.648438 8.789062 C 2.601562 8.734375 2.5625 8.675781 2.519531 8.621094 Z M 9.390625 8.746094 C 9.34375 8.800781 9.292969 8.855469 9.242188 8.910156 C 9.292969 8.855469 9.34375 8.800781 9.390625 8.746094 Z M 2.792969 8.953125 C 2.839844 9.003906 2.886719 9.054688 2.933594 9.101562 C 2.886719 9.054688 2.839844 9.003906 2.792969 8.953125 Z M 9.101562 9.066406 C 9.054688 9.113281 9.003906 9.160156 8.953125 9.207031 C 9.003906 9.160156 9.054688 9.113281 9.101562 9.066406 Z M 3.089844 9.242188 C 3.144531 9.292969 3.199219 9.34375 3.253906 9.390625 C 3.199219 9.34375 3.144531 9.292969 3.089844 9.242188 Z M 8.789062 9.355469 C 8.734375 9.398438 8.679688 9.441406 8.621094 9.484375 C 8.675781 9.441406 8.734375 9.398438 8.789062 9.355469 Z M 3.421875 9.515625 C 3.480469 9.558594 3.539062 9.601562 3.601562 9.640625 C 3.539062 9.601562 3.480469 9.558594 3.421875 9.515625 Z M 8.445312 9.613281 C 8.359375 9.667969 8.273438 9.722656 8.183594 9.773438 C 8.269531 9.722656 8.363281 9.671875 8.445312 9.613281 Z M 3.757812 9.738281 C 3.832031 9.785156 3.910156 9.828125 3.988281 9.871094 C 3.910156 9.828125 3.832031 9.785156 3.757812 9.738281 Z M 4.117188 9.933594 C 4.203125 9.972656 4.285156 10.011719 4.371094 10.046875 C 4.285156 10.011719 4.203125 9.972656 4.117188 9.933594 Z M 7.699219 10.019531 C 7.527344 10.09375 7.347656 10.148438 7.164062 10.199219 C 7.347656 10.152344 7.523438 10.09375 7.699219 10.019531 Z M 7.164062 10.199219 C 7.113281 10.214844 7.0625 10.230469 7.011719 10.242188 C 7.0625 10.230469 7.113281 10.214844 7.164062 10.199219 Z M 7.011719 10.242188 C 6.824219 10.285156 6.640625 10.320312 6.445312 10.339844 C 6.636719 10.320312 6.824219 10.285156 7.011719 10.242188 Z M 4.53125 10.105469 C 4.613281 10.132812 4.695312 10.164062 4.78125 10.1875 C 4.695312 10.164062 4.613281 10.136719 4.53125 10.105469 Z M 4.945312 10.230469 C 5.03125 10.253906 5.121094 10.273438 5.207031 10.289062 C 5.121094 10.273438 5.03125 10.253906 4.945312 10.230469 Z M 5.378906 10.316406 C 5.460938 10.328125 5.542969 10.335938 5.625 10.34375 C 5.542969 10.335938 5.460938 10.328125 5.378906 10.316406 Z M 5.378906 10.316406 "/>
</g>
</defs>
<g id="surface1">
<path style=" stroke:none;fill-rule:nonzero;fill:rgb(82.745098%,85.490196%,89.019608%);fill-opacity:1;" d="M 6 1.636719 C 3.589844 1.636719 1.636719 3.589844 1.636719 6 C 1.636719 8.410156 3.589844 10.363281 6 10.363281 C 8.410156 10.363281 10.363281 8.410156 10.363281 6 C 10.363281 3.589844 8.410156 1.636719 6 1.636719 Z M 6 2.183594 C 8.109375 2.183594 9.816406 3.890625 9.816406 6 C 9.816406 8.109375 8.109375 9.816406 6 9.816406 C 3.890625 9.816406 2.183594 8.109375 2.183594 6 C 2.183594 3.890625 3.890625 2.183594 6 2.183594 Z M 6 2.183594 "/>
<use xlink:href="#surface6" mask="url(#mask0)"/>
</g>
</svg>
