<?xml version="1.0" encoding="UTF-8"?>
<svg xmlns="http://www.w3.org/2000/svg" xmlns:xlink="http://www.w3.org/1999/xlink" width="12pt" height="12pt" viewBox="0 0 12 12" version="1.1">
<g id="surface1">
<path style=" stroke:none;fill-rule:nonzero;fill:rgb(82.745098%,85.490196%,89.019608%);fill-opacity:1;" d="M 6 1.585938 L 6 1.636719 C 5.832031 1.636719 5.664062 1.648438 5.5 1.667969 C 5.46875 1.671875 5.4375 1.675781 5.410156 1.679688 L 5.40625 1.679688 C 3.558594 1.925781 2.191406 3.289062 2.183594 4.894531 L 2.183594 9.261719 C 2.183594 9.863281 3.890625 10.351562 6 10.351562 C 8.109375 10.351562 9.816406 9.863281 9.816406 9.261719 L 9.816406 4.894531 C 9.816406 3.574219 8.886719 2.382812 7.464844 1.878906 C 7.453125 1.875 7.445312 1.871094 7.433594 1.867188 C 7.363281 1.84375 7.292969 1.824219 7.222656 1.800781 C 7.171875 1.785156 7.121094 1.773438 7.070312 1.757812 C 7 1.742188 6.929688 1.726562 6.859375 1.714844 C 6.804688 1.703125 6.75 1.691406 6.695312 1.683594 C 6.628906 1.671875 6.5625 1.664062 6.492188 1.65625 C 6.433594 1.648438 6.375 1.644531 6.3125 1.636719 C 6.210938 1.617188 6.105469 1.597656 6 1.585938 Z M 7.152344 2.359375 C 8.433594 2.761719 9.277344 3.785156 9.273438 4.921875 C 9.273438 5.527344 7.808594 6.015625 6 6.015625 C 4.191406 6.015625 2.726562 5.527344 2.726562 4.921875 C 2.726562 3.8125 3.539062 2.8125 4.773438 2.394531 C 4.214844 3.207031 3.921875 4.265625 3.839844 5.195312 C 4.4375 5.371094 5.203125 5.46875 6 5.46875 C 6.164062 4.105469 6.652344 3.152344 7.152344 2.375 Z M 2.726562 5.742188 C 3.414062 6.234375 4.65625 6.539062 6 6.539062 C 7.34375 6.539062 8.585938 6.234375 9.273438 5.742188 L 9.273438 9.265625 C 9.273438 9.566406 7.808594 9.8125 6 9.8125 C 4.191406 9.8125 2.726562 9.566406 2.726562 9.265625 Z M 2.726562 5.742188 "/>
</g>
</svg>
