<?xml version="1.0" encoding="UTF-8"?>
<svg xmlns="http://www.w3.org/2000/svg" xmlns:xlink="http://www.w3.org/1999/xlink" width="12pt" height="12pt" viewBox="0 0 12 12" version="1.1">
<g id="surface1">
<path style=" stroke:none;fill-rule:nonzero;fill:rgb(82.745098%,85.490196%,89.019608%);fill-opacity:1;" d="M 7.597656 1.609375 C 7 1.625 6.453125 1.585938 5.839844 1.746094 C 4.800781 2.179688 4.195312 3.140625 3.921875 4.183594 C 3.902344 4.269531 3.78125 4.613281 3.78125 5.039062 L 3.78125 6.601562 C 3.75 7.449219 3.148438 7.96875 2.519531 8.4375 C 2.226562 8.644531 1.921875 8.824219 1.636719 9.039062 L 1.636719 10.335938 C 3.257812 10.332031 3.972656 10.324219 5.058594 10.328125 C 5.933594 8.984375 6.515625 8.039062 6.53125 6.644531 L 6.53125 5.039062 C 6.566406 4.699219 6.695312 4.339844 6.972656 4.308594 C 7.457031 4.28125 7.851562 4.421875 8.113281 4.585938 C 8.257812 4.679688 8.578125 4.882812 9.078125 4.882812 L 10.363281 4.882812 L 10.363281 2.152344 L 9.742188 2.152344 C 9.300781 2.1875 8.957031 1.890625 8.554688 1.746094 C 8.355469 1.695312 8.011719 1.609375 7.597656 1.609375 Z M 7.597656 1.609375 "/>
</g>
</svg>
