<?xml version="1.0" encoding="UTF-8"?>
<svg xmlns="http://www.w3.org/2000/svg" xmlns:xlink="http://www.w3.org/1999/xlink" width="12pt" height="12pt" viewBox="0 0 12 12" version="1.1">
<g id="surface1">
<path style=" stroke:none;fill-rule:nonzero;fill:rgb(82.745098%,85.490196%,89.019608%);fill-opacity:1;" d="M 5.183594 1.636719 C 5.03125 1.636719 4.910156 1.757812 4.910156 1.910156 C 4.910156 2.058594 5.03125 2.183594 5.183594 2.183594 C 5.332031 2.183594 5.453125 2.058594 5.453125 1.910156 C 5.453125 1.757812 5.332031 1.636719 5.183594 1.636719 Z M 6.816406 1.636719 C 6.667969 1.636719 6.546875 1.757812 6.546875 1.910156 C 6.546875 2.058594 6.667969 2.183594 6.816406 2.183594 C 6.96875 2.183594 7.089844 2.058594 7.089844 1.910156 C 7.089844 1.757812 6.96875 1.636719 6.816406 1.636719 Z M 4.089844 2.183594 C 3.941406 2.183594 3.816406 2.304688 3.816406 2.453125 C 3.816406 2.605469 3.941406 2.726562 4.089844 2.726562 C 4.242188 2.726562 4.363281 2.605469 4.363281 2.453125 C 4.363281 2.304688 4.242188 2.183594 4.089844 2.183594 Z M 7.910156 2.183594 C 7.757812 2.183594 7.636719 2.304688 7.636719 2.453125 C 7.636719 2.605469 7.757812 2.726562 7.910156 2.726562 C 8.058594 2.726562 8.183594 2.605469 8.183594 2.453125 C 8.183594 2.304688 8.058594 2.183594 7.910156 2.183594 Z M 3 2.726562 C 2.847656 2.726562 2.726562 2.847656 2.726562 3 C 2.726562 3.152344 2.847656 3.273438 3 3.273438 C 3.152344 3.273438 3.273438 3.152344 3.273438 3 C 3.273438 2.847656 3.152344 2.726562 3 2.726562 Z M 9 2.726562 C 8.847656 2.726562 8.726562 2.847656 8.726562 3 C 8.726562 3.152344 8.847656 3.273438 9 3.273438 C 9.152344 3.273438 9.273438 3.152344 9.273438 3 C 9.273438 2.847656 9.152344 2.726562 9 2.726562 Z M 2.453125 3.816406 C 2.304688 3.816406 2.183594 3.941406 2.183594 4.089844 C 2.183594 4.242188 2.304688 4.363281 2.453125 4.363281 C 2.605469 4.363281 2.726562 4.242188 2.726562 4.089844 C 2.726562 3.941406 2.605469 3.816406 2.453125 3.816406 Z M 9.546875 3.816406 C 9.394531 3.816406 9.273438 3.941406 9.273438 4.089844 C 9.273438 4.242188 9.394531 4.363281 9.546875 4.363281 C 9.695312 4.363281 9.816406 4.242188 9.816406 4.089844 C 9.816406 3.941406 9.695312 3.816406 9.546875 3.816406 Z M 1.910156 4.910156 C 1.757812 4.910156 1.636719 5.03125 1.636719 5.183594 C 1.636719 5.332031 1.757812 5.453125 1.910156 5.453125 C 2.058594 5.453125 2.183594 5.332031 2.183594 5.183594 C 2.183594 5.03125 2.058594 4.910156 1.910156 4.910156 Z M 10.089844 4.910156 C 9.941406 4.910156 9.816406 5.03125 9.816406 5.183594 C 9.816406 5.332031 9.941406 5.453125 10.089844 5.453125 C 10.242188 5.453125 10.363281 5.332031 10.363281 5.183594 C 10.363281 5.03125 10.242188 4.910156 10.089844 4.910156 Z M 1.910156 6.546875 C 1.757812 6.546875 1.636719 6.667969 1.636719 6.816406 C 1.636719 6.96875 1.757812 7.089844 1.910156 7.089844 C 2.058594 7.089844 2.183594 6.96875 2.183594 6.816406 C 2.183594 6.667969 2.058594 6.546875 1.910156 6.546875 Z M 10.089844 6.546875 C 9.941406 6.546875 9.816406 6.667969 9.816406 6.816406 C 9.816406 6.96875 9.941406 7.089844 10.089844 7.089844 C 10.242188 7.089844 10.363281 6.96875 10.363281 6.816406 C 10.363281 6.667969 10.242188 6.546875 10.089844 6.546875 Z M 2.453125 7.636719 C 2.304688 7.636719 2.183594 7.757812 2.183594 7.910156 C 2.183594 8.058594 2.304688 8.183594 2.453125 8.183594 C 2.605469 8.183594 2.726562 8.058594 2.726562 7.910156 C 2.726562 7.757812 2.605469 7.636719 2.453125 7.636719 Z M 9.546875 7.636719 C 9.394531 7.636719 9.273438 7.757812 9.273438 7.910156 C 9.273438 8.058594 9.394531 8.183594 9.546875 8.183594 C 9.695312 8.183594 9.816406 8.058594 9.816406 7.910156 C 9.816406 7.757812 9.695312 7.636719 9.546875 7.636719 Z M 3 8.726562 C 2.847656 8.726562 2.726562 8.847656 2.726562 9 C 2.726562 9.152344 2.847656 9.273438 3 9.273438 C 3.152344 9.273438 3.273438 9.152344 3.273438 9 C 3.273438 8.847656 3.152344 8.726562 3 8.726562 Z M 9 8.726562 C 8.847656 8.726562 8.726562 8.847656 8.726562 9 C 8.726562 9.152344 8.847656 9.273438 9 9.273438 C 9.152344 9.273438 9.273438 9.152344 9.273438 9 C 9.273438 8.847656 9.152344 8.726562 9 8.726562 Z M 4.089844 9.273438 C 3.941406 9.273438 3.816406 9.394531 3.816406 9.546875 C 3.816406 9.695312 3.941406 9.816406 4.089844 9.816406 C 4.242188 9.816406 4.363281 9.695312 4.363281 9.546875 C 4.363281 9.394531 4.242188 9.273438 4.089844 9.273438 Z M 7.910156 9.273438 C 7.757812 9.273438 7.636719 9.394531 7.636719 9.546875 C 7.636719 9.695312 7.757812 9.816406 7.910156 9.816406 C 8.058594 9.816406 8.183594 9.695312 8.183594 9.546875 C 8.183594 9.394531 8.058594 9.273438 7.910156 9.273438 Z M 5.183594 9.816406 C 5.03125 9.816406 4.910156 9.941406 4.910156 10.089844 C 4.910156 10.242188 5.03125 10.363281 5.183594 10.363281 C 5.332031 10.363281 5.453125 10.242188 5.453125 10.089844 C 5.453125 9.941406 5.332031 9.816406 5.183594 9.816406 Z M 6.816406 9.816406 C 6.667969 9.816406 6.546875 9.941406 6.546875 10.089844 C 6.546875 10.242188 6.667969 10.363281 6.816406 10.363281 C 6.96875 10.363281 7.089844 10.242188 7.089844 10.089844 C 7.089844 9.941406 6.96875 9.816406 6.816406 9.816406 Z M 6.816406 9.816406 "/>
</g>
</svg>
