<?xml version="1.0" encoding="UTF-8"?>
<svg xmlns="http://www.w3.org/2000/svg" xmlns:xlink="http://www.w3.org/1999/xlink" width="12pt" height="12pt" viewBox="0 0 12 12" version="1.1">
<g id="surface1">
<path style=" stroke:none;fill-rule:nonzero;fill:rgb(82.745098%,85.490196%,89.019608%);fill-opacity:1;" d="M 6 2.191406 C 3.890625 2.191406 2.183594 3.898438 2.183594 6.007812 C 2.183594 8.117188 3.890625 9.828125 6 9.828125 C 7.730469 9.828125 9.195312 8.679688 9.664062 7.097656 L 8.488281 7.097656 C 8.066406 8.058594 7.117188 8.734375 6 8.734375 C 4.492188 8.734375 3.273438 7.515625 3.273438 6.007812 C 3.273438 4.503906 4.492188 3.28125 6 3.28125 C 6.753906 3.28125 7.425781 3.59375 7.917969 4.089844 L 6.546875 5.464844 L 9.820312 5.464844 L 9.820312 2.191406 L 8.703125 3.308594 C 8.007812 2.621094 7.054688 2.191406 6.003906 2.191406 Z M 6 2.191406 "/>
</g>
</svg>
