<?xml version="1.0" encoding="UTF-8"?>
<svg xmlns="http://www.w3.org/2000/svg" xmlns:xlink="http://www.w3.org/1999/xlink" width="12pt" height="12pt" viewBox="0 0 12 12" version="1.1">
<g id="surface1">
<path style=" stroke:none;fill-rule:nonzero;fill:rgb(82.745098%,85.490196%,89.019608%);fill-opacity:1;" d="M 9.816406 1.636719 L 9.816406 2.949219 L 7.636719 4.953125 L 7.636719 6 L 6 6 L 6 2.183594 L 5.453125 2.183594 L 5.453125 6 L 1.636719 6 L 1.636719 6.546875 L 5.453125 6.546875 L 5.453125 8.3125 L 3.816406 9.816406 L 1.636719 9.816406 L 1.636719 10.363281 L 4.027344 10.363281 L 5.453125 9.054688 L 5.453125 10.363281 L 6 10.363281 L 6 8.554688 L 8.183594 6.550781 L 8.183594 6.546875 L 9.816406 6.546875 L 9.816406 6 L 8.183594 6 L 8.183594 5.191406 L 10.363281 3.1875 L 10.363281 1.636719 Z M 6 6.546875 L 7.378906 6.546875 L 6 7.8125 Z M 6 6.546875 "/>
</g>
</svg>
