<?xml version="1.0" encoding="UTF-8"?>
<svg xmlns="http://www.w3.org/2000/svg" xmlns:xlink="http://www.w3.org/1999/xlink" width="12pt" height="12pt" viewBox="0 0 12 12" version="1.1">
<g id="surface1">
<path style=" stroke:none;fill-rule:nonzero;fill:rgb(82.745098%,85.490196%,89.019608%);fill-opacity:1;" d="M 3.390625 2.726562 C 3.023438 2.726562 2.726562 3.011719 2.726562 3.375 L 2.726562 5.453125 L 3.816406 5.453125 L 3.816406 3.816406 L 5.453125 3.816406 L 5.453125 2.726562 Z M 7.636719 2.726562 L 7.636719 3.816406 L 6 3.816406 L 6 4.910156 L 7.636719 4.910156 L 7.636719 6 L 9.273438 4.363281 Z M 2.726562 6 L 2.726562 9.273438 L 6 9.273438 L 6 6 Z M 8.179688 6.546875 L 8.179688 8.183594 L 6.542969 8.183594 L 6.542969 9.273438 L 8.605469 9.273438 C 8.972656 9.273438 9.269531 8.988281 9.269531 8.625 L 9.269531 6.546875 Z M 8.179688 6.546875 "/>
</g>
</svg>
