<?xml version="1.0" encoding="UTF-8"?>
<svg xmlns="http://www.w3.org/2000/svg" xmlns:xlink="http://www.w3.org/1999/xlink" width="12pt" height="12pt" viewBox="0 0 12 12" version="1.1">
<g id="surface1">
<path style=" stroke:none;fill-rule:nonzero;fill:rgb(82.745098%,85.490196%,89.019608%);fill-opacity:1;" d="M 2.183594 1.636719 L 2.183594 9.273438 L 1.636719 9.273438 L 1.636719 9.816406 L 2.183594 9.816406 L 2.183594 10.363281 L 2.726562 10.363281 L 2.726562 9.816406 L 10.363281 9.816406 L 10.363281 9.273438 L 9.902344 9.273438 L 9.800781 9.171875 L 9.339844 8.726562 L 8.640625 8.011719 L 8.25 7.636719 L 7.089844 8.777344 L 6.375 8.078125 L 5.933594 7.636719 L 4.839844 6.546875 L 2.726562 6.546875 L 2.726562 5.453125 L 4.839844 5.453125 L 5.933594 4.363281 L 6.375 3.902344 L 7.089844 3.203125 L 8.25 4.363281 L 10.363281 2.25 L 10.363281 2.128906 L 10.246094 2.128906 L 9.972656 1.875 L 9.410156 2.4375 L 8.964844 2.878906 L 8.25 3.597656 L 7.089844 2.4375 L 6 3.527344 L 5.539062 3.972656 L 4.621094 4.910156 L 2.726562 4.910156 L 2.726562 1.636719 Z M 2.726562 7.089844 L 4.621094 7.089844 L 5.539062 8.011719 L 6.800781 9.273438 L 2.726562 9.273438 Z M 8.25 8.402344 L 8.964844 9.101562 L 9.125 9.273438 L 7.378906 9.273438 Z M 8.25 8.402344 "/>
</g>
</svg>
