<?xml version="1.0" encoding="UTF-8"?>
<svg xmlns="http://www.w3.org/2000/svg" xmlns:xlink="http://www.w3.org/1999/xlink" width="12pt" height="12pt" viewBox="0 0 12 12" version="1.1">
<g id="surface1">
<path style=" stroke:none;fill-rule:nonzero;fill:rgb(82.745098%,85.490196%,89.019608%);fill-opacity:1;" d="M 1.636719 1.636719 L 1.636719 10.363281 L 10.363281 10.363281 L 10.363281 1.636719 Z M 2.183594 2.183594 L 9.816406 2.183594 L 9.816406 3.484375 C 8.746094 2.996094 7.394531 2.730469 6 2.726562 C 4.605469 2.730469 3.253906 2.996094 2.183594 3.480469 Z M 6 3.273438 C 7.429688 3.273438 8.800781 3.558594 9.816406 4.058594 L 9.816406 5.207031 C 9.050781 4.6875 7.585938 4.363281 6 4.363281 C 4.410156 4.363281 2.949219 4.6875 2.183594 5.210938 L 2.183594 4.0625 C 3.199219 3.558594 4.570312 3.273438 6 3.273438 Z M 6 4.910156 C 8.109375 4.910156 9.816406 5.398438 9.816406 6 C 9.816406 6.601562 8.109375 7.089844 6 7.089844 C 3.890625 7.089844 2.183594 6.601562 2.183594 6 C 2.183594 5.398438 3.890625 4.910156 6 4.910156 Z M 9.816406 6.789062 L 9.816406 7.941406 C 8.800781 8.441406 7.429688 8.726562 6 8.726562 C 4.570312 8.726562 3.199219 8.441406 2.183594 7.9375 L 2.183594 6.792969 C 2.949219 7.3125 4.414062 7.636719 6 7.636719 C 7.589844 7.636719 9.050781 7.3125 9.816406 6.789062 Z M 9.816406 8.515625 L 9.816406 9.816406 L 2.183594 9.816406 L 2.183594 8.519531 C 3.253906 9.003906 4.605469 9.269531 6 9.273438 C 7.394531 9.269531 8.746094 9.003906 9.816406 8.515625 Z M 9.816406 8.515625 "/>
</g>
</svg>
