<?xml version="1.0" encoding="UTF-8"?>
<svg xmlns="http://www.w3.org/2000/svg" xmlns:xlink="http://www.w3.org/1999/xlink" width="12pt" height="12pt" viewBox="0 0 12 12" version="1.1">
<g id="surface1">
<path style=" stroke:none;fill-rule:nonzero;fill:rgb(82.745098%,85.490196%,89.019608%);fill-opacity:1;" d="M 6 2.183594 C 3.890625 2.183594 2.183594 3.890625 2.183594 6 C 2.183594 8.109375 3.890625 9.816406 6 9.816406 C 8.109375 9.816406 9.816406 8.109375 9.816406 6 C 9.816406 3.890625 8.109375 2.183594 6 2.183594 Z M 6 3.273438 C 7.507812 3.273438 8.726562 4.492188 8.726562 6 C 8.726562 7.507812 7.507812 8.726562 6 8.726562 C 4.492188 8.726562 3.273438 7.507812 3.273438 6 C 3.273438 4.492188 4.492188 3.273438 6 3.273438 Z M 6.050781 3.816406 C 4.847656 3.816406 3.871094 4.796875 3.871094 6 C 3.871094 7.203125 4.847656 8.183594 6.050781 8.183594 C 7.257812 8.183594 8.234375 7.203125 8.234375 6 C 8.234375 4.867188 7.367188 3.925781 6.238281 3.828125 C 6 3.816406 6.050781 3.816406 6.050781 3.816406 Z M 6.050781 4.363281 C 6.957031 4.363281 7.6875 5.097656 7.6875 6 C 7.6875 6.902344 6.957031 7.636719 6.050781 7.636719 C 5.148438 7.636719 4.414062 6.902344 4.414062 6 C 4.414062 5.097656 5.148438 4.363281 6.050781 4.363281 Z M 6.050781 4.910156 C 5.449219 4.910156 4.960938 5.394531 4.960938 6 C 4.960938 6.605469 5.449219 7.089844 6.050781 7.089844 C 6.65625 7.089844 7.144531 6.605469 7.144531 6 C 7.144531 5.886719 7.121094 5.78125 7.089844 5.679688 C 7.003906 5.867188 6.816406 6 6.597656 6 C 6.296875 6 6.050781 5.757812 6.050781 5.453125 C 6.050781 5.234375 6.183594 5.046875 6.371094 4.960938 C 6.269531 4.929688 6.164062 4.910156 6.050781 4.910156 Z M 6.050781 4.910156 "/>
</g>
</svg>
