<?xml version="1.0" encoding="UTF-8"?>
<svg xmlns="http://www.w3.org/2000/svg" xmlns:xlink="http://www.w3.org/1999/xlink" width="12pt" height="12pt" viewBox="0 0 12 12" version="1.1">
<g id="surface1">
<path style=" stroke:none;fill-rule:nonzero;fill:rgb(82.745098%,85.490196%,89.019608%);fill-opacity:1;" d="M 3.273438 2.183594 C 2.667969 2.183594 2.183594 2.667969 2.183594 3.273438 L 2.183594 8.726562 C 2.183594 9.332031 2.667969 9.816406 3.273438 9.816406 L 8.726562 9.816406 C 9.332031 9.816406 9.816406 9.332031 9.816406 8.726562 L 9.816406 6.546875 L 8.726562 6.542969 L 8.726562 8.726562 L 3.273438 8.726562 L 3.273438 3.273438 L 5.453125 3.273438 L 5.453125 2.183594 Z M 6 2.183594 L 6 3.273438 L 7.957031 3.273438 L 5.503906 5.722656 L 5.117188 6.109375 L 5.121094 6.113281 C 4.984375 6.214844 4.90625 6.375 4.902344 6.546875 C 4.902344 6.847656 5.148438 7.089844 5.449219 7.089844 C 5.617188 7.089844 5.777344 7.011719 5.882812 6.878906 L 5.886719 6.882812 L 6.269531 6.496094 L 8.722656 4.042969 L 8.722656 6 L 9.8125 6.003906 L 9.8125 2.183594 Z M 6 2.183594 "/>
</g>
</svg>
