<?xml version="1.0" encoding="UTF-8"?>
<svg xmlns="http://www.w3.org/2000/svg" xmlns:xlink="http://www.w3.org/1999/xlink" width="12pt" height="12pt" viewBox="0 0 12 12" version="1.1">
<g id="surface1">
<path style=" stroke:none;fill-rule:nonzero;fill:rgb(82.745098%,85.490196%,89.019608%);fill-opacity:1;" d="M 3.273438 3.273438 L 3.273438 4.363281 L 8.726562 4.363281 L 8.726562 3.273438 Z M 3.273438 5.453125 L 3.273438 6.546875 L 6.921875 6.546875 C 7.339844 6.210938 7.875 6 8.453125 6 C 8.546875 6 8.636719 6.023438 8.726562 6.035156 L 8.726562 5.453125 Z M 3.273438 7.636719 L 3.273438 8.726562 L 6.035156 8.726562 C 6.023438 8.636719 6 8.546875 6 8.453125 C 6 8.164062 6.0625 7.894531 6.152344 7.636719 Z M 3.273438 7.636719 "/>
<path style=" stroke:none;fill-rule:nonzero;fill:rgb(32.156863%,58.039216%,88.627451%);fill-opacity:1;" d="M 8.453125 6.546875 C 7.398438 6.546875 6.546875 7.398438 6.546875 8.453125 C 6.546875 9.507812 7.398438 10.363281 8.453125 10.363281 C 9.507812 10.363281 10.363281 9.507812 10.363281 8.453125 C 10.363281 7.398438 9.507812 6.546875 8.453125 6.546875 Z M 7.089844 8.183594 L 9.816406 8.183594 L 9.816406 8.726562 L 7.089844 8.726562 Z M 7.089844 8.183594 "/>
</g>
</svg>
