<?xml version="1.0" encoding="UTF-8"?>
<svg xmlns="http://www.w3.org/2000/svg" xmlns:xlink="http://www.w3.org/1999/xlink" width="12pt" height="12pt" viewBox="0 0 12 12" version="1.1">
<g id="surface1">
<path style=" stroke:none;fill-rule:nonzero;fill:rgb(32.156863%,58.039216%,88.627451%);fill-opacity:1;" d="M 3.273438 2.183594 C 2.667969 2.183594 2.183594 2.667969 2.183594 3.273438 L 2.183594 8.726562 C 2.183594 9.332031 2.667969 9.816406 3.273438 9.816406 L 8.726562 9.816406 C 9.332031 9.816406 9.816406 9.332031 9.816406 8.726562 L 9.816406 3.273438 C 9.816406 2.667969 9.332031 2.183594 8.726562 2.183594 Z M 6 3.816406 C 6.601562 3.816406 7.089844 4.304688 7.089844 4.910156 C 7.089844 5.511719 6.601562 6 6 6 C 5.398438 6 4.910156 5.511719 4.910156 4.910156 C 4.910156 4.304688 5.398438 3.816406 6 3.816406 Z M 6 6.546875 C 8.183594 6.542969 8.183594 8 8.183594 8 L 8.183594 8.183594 L 3.816406 8.183594 L 3.816406 8 C 3.816406 8 3.816406 6.546875 6 6.546875 Z M 6 6.546875 "/>
</g>
</svg>
