<?xml version="1.0" encoding="UTF-8"?>
<svg xmlns="http://www.w3.org/2000/svg" xmlns:xlink="http://www.w3.org/1999/xlink" width="12pt" height="12pt" viewBox="0 0 12 12" version="1.1">
<defs>
<filter id="alpha" filterUnits="objectBoundingBox" x="0%" y="0%" width="100%" height="100%">
  <feColorMatrix type="matrix" in="SourceGraphic" values="0 0 0 0 1 0 0 0 0 1 0 0 0 0 1 0 0 0 1 0"/>
</filter>
<mask id="mask0">
  <g filter="url(#alpha)">
<rect x="0" y="0" width="12" height="12" style="fill:rgb(0%,0%,0%);fill-opacity:0.301961;stroke:none;"/>
  </g>
</mask>
<clipPath id="clip1">
  <rect width="12" height="12"/>
</clipPath>
<g id="surface6" clip-path="url(#clip1)">
<path style=" stroke:none;fill-rule:nonzero;fill:rgb(36.078431%,38.039216%,42.352941%);fill-opacity:1;" d="M 6 0.75 C 3.101562 0.75 0.75 3.101562 0.75 6 C 0.75 8.898438 3.101562 11.25 6 11.25 C 8.898438 11.25 11.25 8.898438 11.25 6 C 11.25 3.101562 8.898438 0.75 6 0.75 Z M 6 2.25 C 8.070312 2.25 9.75 3.929688 9.75 6 C 9.75 8.070312 8.070312 9.75 6 9.75 C 3.929688 9.75 2.25 8.070312 2.25 6 C 2.25 3.929688 3.929688 2.25 6 2.25 Z M 6 2.25 "/>
</g>
</defs>
<g id="surface1">
<use xlink:href="#surface6" mask="url(#mask0)"/>
</g>
</svg>
