<?xml version="1.0" encoding="UTF-8"?>
<svg xmlns="http://www.w3.org/2000/svg" xmlns:xlink="http://www.w3.org/1999/xlink" width="12pt" height="12pt" viewBox="0 0 12 12" version="1.1">
<g id="surface1">
<path style=" stroke:none;fill-rule:nonzero;fill:rgb(82.745098%,85.490196%,89.019608%);fill-opacity:1;" d="M 2.726562 2.183594 C 2.164062 2.214844 2.183594 2.726562 2.183594 2.726562 L 2.183594 9.273438 C 2.183594 9.273438 2.164062 9.785156 2.726562 9.816406 L 9.273438 9.816406 C 9.816406 9.816406 9.816406 9.273438 9.816406 9.273438 L 9.816406 2.726562 C 9.816406 2.726562 9.816406 2.183594 9.273438 2.183594 L 7.636719 2.183594 L 7.636719 3.273438 L 8.726562 3.273438 L 8.726562 7.089844 L 7.09375 7.089844 C 7.09375 7.695312 6.605469 8.183594 6.003906 8.183594 C 5.398438 8.183594 4.910156 7.695312 4.910156 7.089844 L 3.273438 7.089844 L 3.273438 3.273438 L 4.367188 3.273438 L 4.367188 2.183594 Z M 4.910156 2.183594 L 4.910156 4.363281 L 3.816406 4.363281 L 6 7.089844 L 8.183594 4.363281 L 7.089844 4.363281 L 7.089844 2.183594 Z M 4.910156 2.183594 "/>
</g>
</svg>
