<?xml version="1.0" encoding="UTF-8"?>
<svg xmlns="http://www.w3.org/2000/svg" xmlns:xlink="http://www.w3.org/1999/xlink" width="12pt" height="12pt" viewBox="0 0 12 12" version="1.1">
<g id="surface1">
<path style=" stroke:none;fill-rule:nonzero;fill:rgb(82.745098%,85.490196%,89.019608%);fill-opacity:1;" d="M 9.273438 2.726562 L 2.726562 2.726562 C 2.121094 2.726562 1.636719 3.214844 1.636719 3.816406 L 1.636719 8.183594 C 1.636719 8.785156 2.121094 9.273438 2.726562 9.273438 L 8.726562 9.273438 L 8.726562 5.453125 C 8.726562 5.335938 8.765625 5.222656 8.839844 5.125 L 6.003906 6.542969 L 2.730469 4.90625 L 2.730469 3.816406 L 6.003906 5.453125 L 9.273438 3.816406 L 9.273438 4.90625 L 10.367188 4.90625 L 10.367188 3.816406 C 10.367188 3.210938 9.878906 2.726562 9.273438 2.726562 Z M 9.273438 5.453125 L 9.273438 7.636719 L 10.363281 7.636719 L 10.363281 5.453125 Z M 9.273438 8.183594 L 9.273438 9.273438 L 10.363281 9.273438 L 10.363281 8.183594 Z M 9.273438 8.183594 "/>
</g>
</svg>
