<?xml version="1.0" encoding="UTF-8"?>
<svg xmlns="http://www.w3.org/2000/svg" xmlns:xlink="http://www.w3.org/1999/xlink" width="12pt" height="12pt" viewBox="0 0 12 12" version="1.1">
<g id="surface1">
<path style=" stroke:none;fill-rule:nonzero;fill:rgb(82.745098%,85.490196%,89.019608%);fill-opacity:1;" d="M 3.273438 2.183594 L 3.273438 3.273438 L 8.726562 3.273438 L 8.726562 2.183594 Z M 2.726562 3.273438 C 2.121094 3.273438 1.636719 3.757812 1.636719 4.363281 L 1.636719 8.726562 C 1.636719 9.332031 2.121094 9.816406 2.726562 9.816406 L 6 9.816406 L 6 7.089844 L 2.726562 5.453125 Z M 9.273438 3.273438 L 9.273438 5.453125 L 8.183594 6 L 9.816406 6 C 10.015625 6 10.203125 6.058594 10.363281 6.15625 L 10.363281 4.363281 C 10.363281 3.757812 9.878906 3.273438 9.273438 3.273438 Z M 3.273438 4.363281 L 3.273438 5.453125 L 8.726562 5.453125 L 8.726562 4.363281 Z M 7.089844 6.546875 C 6.789062 6.546875 6.546875 6.789062 6.546875 7.089844 L 6.546875 9.816406 C 6.546875 10.121094 6.789062 10.363281 7.089844 10.363281 L 9.816406 10.363281 C 10.121094 10.363281 10.363281 10.121094 10.363281 9.816406 L 10.363281 7.089844 C 10.363281 6.789062 10.121094 6.546875 9.816406 6.546875 Z M 7.089844 7.089844 L 7.636719 7.089844 L 7.636719 7.636719 L 8.183594 7.636719 L 8.183594 8.183594 L 8.726562 8.183594 L 8.726562 7.636719 L 9.273438 7.636719 L 9.273438 7.089844 L 9.816406 7.089844 L 9.816406 9.816406 L 9.273438 9.816406 L 9.273438 8.183594 L 8.726562 8.183594 L 8.726562 8.726562 L 8.183594 8.726562 L 8.183594 8.183594 L 7.636719 8.183594 L 7.636719 9.816406 L 7.089844 9.816406 Z M 7.089844 7.089844 "/>
</g>
</svg>
