<?xml version="1.0" encoding="UTF-8"?>
<svg xmlns="http://www.w3.org/2000/svg" xmlns:xlink="http://www.w3.org/1999/xlink" width="12pt" height="12pt" viewBox="0 0 12 12" version="1.1">
<g id="surface1">
<path style=" stroke:none;fill-rule:nonzero;fill:rgb(82.745098%,85.490196%,89.019608%);fill-opacity:1;" d="M 2.726562 2.726562 C 2.121094 2.726562 1.636719 3.214844 1.636719 3.816406 L 1.636719 8.183594 C 1.636719 8.785156 2.121094 9.273438 2.726562 9.273438 L 6.871094 9.273438 L 6.871094 6.109375 L 6 6.546875 L 2.726562 4.910156 L 2.726562 3.816406 L 6 5.453125 L 9.273438 3.816406 L 9.273438 4.910156 L 8.488281 5.300781 C 8.542969 5.324219 8.59375 5.355469 8.640625 5.390625 L 10.363281 6.683594 L 10.363281 3.816406 C 10.363281 3.214844 9.878906 2.726562 9.273438 2.726562 Z M 7.636719 6 L 7.636719 9.273438 L 8.183594 9.273438 L 8.183594 8.183594 L 10.363281 7.636719 L 8.183594 6 Z M 7.636719 6 "/>
</g>
</svg>
