<?xml version="1.0" encoding="UTF-8"?>
<svg xmlns="http://www.w3.org/2000/svg" xmlns:xlink="http://www.w3.org/1999/xlink" width="12pt" height="12pt" viewBox="0 0 12 12" version="1.1">
<g id="surface1">
<path style=" stroke:none;fill-rule:nonzero;fill:rgb(82.745098%,85.490196%,89.019608%);fill-opacity:1;" d="M 2.726562 2.726562 C 2.121094 2.726562 1.636719 3.214844 1.636719 3.816406 L 1.636719 8.183594 C 1.636719 8.785156 2.121094 9.273438 2.726562 9.273438 L 6.546875 9.273438 L 6.546875 8.183594 C 6.546875 8.039062 6.601562 7.898438 6.707031 7.796875 L 7.796875 6.707031 L 8.339844 6.160156 L 8.886719 5.613281 C 8.988281 5.515625 9.125 5.457031 9.265625 5.453125 C 9.414062 5.453125 9.554688 5.511719 9.660156 5.613281 L 10.363281 6.320312 L 10.363281 3.816406 C 10.363281 3.214844 9.878906 2.726562 9.273438 2.726562 Z M 2.726562 3.816406 L 6 5.453125 L 9.273438 3.816406 L 9.273438 4.910156 L 6 6.546875 L 2.726562 4.910156 Z M 9.273438 6 L 7.089844 8.183594 L 7.089844 9.273438 L 8.183594 9.273438 L 8.503906 8.949219 L 8.726562 8.726562 L 9.273438 8.183594 L 9.816406 7.636719 L 10.363281 7.089844 Z M 9.273438 6 "/>
</g>
</svg>
