<?xml version="1.0" encoding="UTF-8"?>
<svg xmlns="http://www.w3.org/2000/svg" xmlns:xlink="http://www.w3.org/1999/xlink" width="12pt" height="12pt" viewBox="0 0 12 12" version="1.1">
<g id="surface1">
<path style=" stroke:none;fill-rule:nonzero;fill:rgb(82.745098%,85.490196%,89.019608%);fill-opacity:1;" d="M 4.484375 2.183594 L 4.3125 2.335938 L 2.335938 4.3125 L 2.183594 4.484375 L 2.183594 7.515625 L 2.335938 7.6875 L 4.3125 9.664062 L 4.484375 9.816406 L 7.519531 9.816406 L 7.6875 9.664062 L 9.664062 7.6875 L 9.820312 7.515625 L 9.820312 4.484375 L 9.664062 4.3125 L 7.6875 2.335938 L 7.519531 2.183594 Z M 5.457031 3.816406 L 6.546875 3.816406 L 6.546875 5.453125 L 6.410156 6.546875 L 5.609375 6.546875 L 5.457031 5.453125 Z M 6 6.953125 C 6.378906 6.953125 6.683594 7.261719 6.683594 7.636719 C 6.683594 8.011719 6.378906 8.316406 6 8.316406 C 5.625 8.316406 5.320312 8.011719 5.320312 7.636719 C 5.320312 7.261719 5.625 6.953125 6 6.953125 Z M 6 6.953125 "/>
</g>
</svg>
