<?xml version="1.0" encoding="UTF-8"?>
<svg xmlns="http://www.w3.org/2000/svg" xmlns:xlink="http://www.w3.org/1999/xlink" width="12pt" height="12pt" viewBox="0 0 12 12" version="1.1">
<g id="surface1">
<path style=" stroke:none;fill-rule:nonzero;fill:rgb(82.745098%,85.490196%,89.019608%);fill-opacity:1;" d="M 4.363281 2.726562 L 4.363281 3.816406 L 3.234375 3.816406 C 2.652344 3.816406 2.183594 4.332031 2.183594 4.964844 L 2.183594 8.125 C 2.183594 8.761719 2.652344 9.273438 3.234375 9.273438 L 8.765625 9.273438 C 9.347656 9.273438 9.816406 8.761719 9.816406 8.125 L 9.816406 4.964844 C 9.816406 4.332031 9.347656 3.816406 8.765625 3.816406 L 7.636719 3.816406 L 7.636719 4.910156 L 8.726562 4.910156 C 8.726562 4.914062 8.726562 4.921875 8.726562 4.964844 L 8.726562 8.125 C 8.726562 8.167969 8.726562 8.175781 8.726562 8.183594 L 3.273438 8.183594 C 3.277344 8.175781 3.273438 8.167969 3.273438 8.125 L 3.273438 4.964844 C 3.273438 4.921875 3.277344 4.914062 3.273438 4.910156 L 4.363281 4.910156 L 4.363281 6 L 6.546875 4.363281 Z M 6.546875 5.453125 L 6.546875 7.636719 L 7.089844 7.636719 L 7.089844 7.089844 L 7.636719 7.089844 L 7.636719 7.636719 L 8.183594 7.636719 L 8.183594 5.453125 Z M 7.089844 6 L 7.636719 6 L 7.636719 6.546875 L 7.089844 6.546875 Z M 7.089844 6 "/>
</g>
</svg>
