<?xml version="1.0" encoding="UTF-8"?>
<svg xmlns="http://www.w3.org/2000/svg" xmlns:xlink="http://www.w3.org/1999/xlink" width="12pt" height="12pt" viewBox="0 0 12 12" version="1.1">
<defs>
<filter id="alpha" filterUnits="objectBoundingBox" x="0%" y="0%" width="100%" height="100%">
  <feColorMatrix type="matrix" in="SourceGraphic" values="0 0 0 0 1 0 0 0 0 1 0 0 0 0 1 0 0 0 1 0"/>
</filter>
<mask id="mask0">
  <g filter="url(#alpha)">
<rect x="0" y="0" width="12" height="12" style="fill:rgb(0%,0%,0%);fill-opacity:0.301961;stroke:none;"/>
  </g>
</mask>
<clipPath id="clip1">
  <rect width="12" height="12"/>
</clipPath>
<g id="surface6" clip-path="url(#clip1)">
<path style=" stroke:none;fill-rule:nonzero;fill:rgb(82.745098%,85.490196%,89.019608%);fill-opacity:1;" d="M 4.253906 2.054688 C 3.796875 2.085938 3.269531 2.226562 2.636719 2.542969 L 2.453125 2.636719 L 2.542969 2.820312 C 2.941406 3.613281 3.03125 4.183594 2.984375 4.648438 C 2.9375 5.117188 2.75 5.5 2.542969 5.910156 C 2.339844 6.316406 2.117188 6.753906 2.0625 7.308594 C 2.007812 7.863281 2.121094 8.523438 2.542969 9.363281 L 2.636719 9.546875 L 2.820312 9.457031 C 3.613281 9.058594 4.183594 8.96875 4.648438 9.015625 C 5.117188 9.0625 5.5 9.25 5.910156 9.457031 C 6.316406 9.660156 6.753906 9.882812 7.308594 9.9375 C 7.863281 9.992188 8.523438 9.878906 9.363281 9.457031 L 9.546875 9.363281 L 9.457031 9.179688 C 9.058594 8.386719 8.96875 7.816406 9.015625 7.351562 C 9.0625 6.882812 9.25 6.5 9.457031 6.089844 C 9.660156 5.683594 9.882812 5.246094 9.9375 4.691406 C 9.992188 4.136719 9.878906 3.476562 9.457031 2.636719 L 9.363281 2.453125 L 9.179688 2.542969 C 8.386719 2.941406 7.816406 3.03125 7.351562 2.984375 C 6.882812 2.9375 6.5 2.75 6.089844 2.542969 C 5.683594 2.339844 5.246094 2.117188 4.691406 2.0625 C 4.550781 2.050781 4.40625 2.046875 4.253906 2.054688 Z M 4.253906 2.054688 "/>
</g>
</defs>
<g id="surface1">
<use xlink:href="#surface6" mask="url(#mask0)"/>
<path style=" stroke:none;fill-rule:nonzero;fill:rgb(82.745098%,85.490196%,89.019608%);fill-opacity:1;" d="M 1.636719 1.636719 L 1.636719 3.273438 L 3.273438 3.273438 L 3.273438 1.636719 Z M 8.726562 1.636719 L 8.726562 3.273438 L 10.363281 3.273438 L 10.363281 1.636719 Z M 1.636719 8.726562 L 1.636719 10.363281 L 3.273438 10.363281 L 3.273438 8.726562 Z M 8.726562 8.726562 L 8.726562 10.363281 L 10.363281 10.363281 L 10.363281 8.726562 Z M 8.726562 8.726562 "/>
</g>
</svg>
