<?xml version="1.0" encoding="UTF-8"?>
<svg xmlns="http://www.w3.org/2000/svg" xmlns:xlink="http://www.w3.org/1999/xlink" width="12pt" height="12pt" viewBox="0 0 12 12" version="1.1">
<defs>
<filter id="alpha" filterUnits="objectBoundingBox" x="0%" y="0%" width="100%" height="100%">
  <feColorMatrix type="matrix" in="SourceGraphic" values="0 0 0 0 1 0 0 0 0 1 0 0 0 0 1 0 0 0 1 0"/>
</filter>
<mask id="mask0">
  <g filter="url(#alpha)">
<rect x="0" y="0" width="12" height="12" style="fill:rgb(0%,0%,0%);fill-opacity:0.301961;stroke:none;"/>
  </g>
</mask>
<clipPath id="clip1">
  <rect width="12" height="12"/>
</clipPath>
<g id="surface6" clip-path="url(#clip1)">
<path style=" stroke:none;fill-rule:nonzero;fill:rgb(82.745098%,85.490196%,89.019608%);fill-opacity:1;" d="M 6 1.636719 C 5.09375 1.636719 4.363281 2.367188 4.363281 3.273438 L 4.363281 6 C 4.363281 6.90625 5.09375 7.636719 6 7.636719 C 6.90625 7.636719 7.636719 6.90625 7.636719 6 L 7.636719 3.273438 C 7.636719 2.367188 6.90625 1.636719 6 1.636719 Z M 2.726562 5.457031 L 2.726562 6 C 2.726562 7.617188 3.910156 8.960938 5.453125 9.222656 L 5.453125 10.363281 L 6.546875 10.363281 L 6.546875 9.222656 C 8.089844 8.960938 9.273438 7.617188 9.273438 6 L 9.273438 5.457031 L 8.183594 5.457031 L 8.183594 6 C 8.183594 7.21875 7.21875 8.183594 6 8.183594 C 4.78125 8.183594 3.816406 7.21875 3.816406 6 L 3.816406 5.457031 Z M 2.726562 5.457031 "/>
</g>
</defs>
<g id="surface1">
<use xlink:href="#surface6" mask="url(#mask0)"/>
</g>
</svg>
