<?xml version="1.0" encoding="UTF-8"?>
<svg xmlns="http://www.w3.org/2000/svg" xmlns:xlink="http://www.w3.org/1999/xlink" width="12pt" height="12pt" viewBox="0 0 12 12" version="1.1">
<g id="surface1">
<path style=" stroke:none;fill-rule:nonzero;fill:rgb(82.745098%,85.490196%,89.019608%);fill-opacity:1;" d="M 5.726562 2.183594 C 3.46875 2.183594 1.636719 4.011719 1.636719 6.273438 C 1.636719 8.53125 3.46875 10.363281 5.726562 10.363281 C 7.988281 10.363281 9.816406 8.53125 9.816406 6.273438 C 9.816406 4.011719 7.988281 2.183594 5.726562 2.183594 Z M 3.273438 3.816406 L 5.453125 3.816406 L 5.453125 6.546875 L 3.816406 6.546875 L 3.816406 8.183594 L 5.453125 8.183594 L 5.453125 8.726562 L 3.273438 8.726562 L 3.273438 6 L 4.910156 6 L 4.910156 4.363281 L 3.273438 4.363281 Z M 6 3.816406 L 6.546875 3.816406 L 6.546875 6 L 7.636719 6 L 7.636719 3.816406 L 8.183594 3.816406 L 8.183594 8.726562 L 7.636719 8.726562 L 7.636719 6.546875 L 6 6.546875 Z M 6 3.816406 "/>
</g>
</svg>
