<?xml version="1.0" encoding="UTF-8"?>
<svg xmlns="http://www.w3.org/2000/svg" xmlns:xlink="http://www.w3.org/1999/xlink" width="12pt" height="12pt" viewBox="0 0 12 12" version="1.1">
<g id="surface1">
<path style=" stroke:none;fill-rule:nonzero;fill:rgb(82.745098%,85.490196%,89.019608%);fill-opacity:1;" d="M 2.183594 1.636719 L 2.183594 2.726562 L 1.910156 2.726562 C 1.546875 2.726562 1.546875 3.273438 1.910156 3.273438 L 2.183594 3.273438 L 2.183594 4.363281 L 4.363281 4.363281 L 4.363281 1.636719 Z M 7.089844 1.636719 L 7.089844 4.363281 L 9.273438 4.363281 L 9.273438 3.273438 L 9.550781 3.273438 C 9.917969 3.277344 9.917969 2.722656 9.550781 2.726562 L 9.273438 2.726562 L 9.273438 1.636719 Z M 5.453125 4.378906 L 5.453125 5.46875 L 4.363281 5.46875 L 5.726562 7.105469 L 7.089844 5.46875 L 6 5.46875 L 6 4.378906 Z M 2.183594 7.636719 L 2.183594 8.726562 L 1.910156 8.726562 C 1.546875 8.726562 1.546875 9.273438 1.910156 9.273438 L 2.183594 9.273438 L 2.183594 10.363281 L 4.363281 10.363281 L 4.363281 9.273438 L 7.089844 9.273438 L 7.089844 10.363281 L 9.273438 10.363281 L 9.273438 9.273438 L 9.550781 9.273438 C 9.917969 9.277344 9.917969 8.722656 9.550781 8.726562 L 9.273438 8.726562 L 9.273438 7.636719 L 7.089844 7.636719 L 7.089844 8.726562 L 4.363281 8.726562 L 4.363281 7.636719 Z M 2.183594 7.636719 "/>
</g>
</svg>
