<?xml version="1.0" encoding="UTF-8"?>
<svg xmlns="http://www.w3.org/2000/svg" xmlns:xlink="http://www.w3.org/1999/xlink" width="12pt" height="12pt" viewBox="0 0 12 12" version="1.1">
<g id="surface1">
<path style=" stroke:none;fill-rule:nonzero;fill:rgb(82.745098%,85.490196%,89.019608%);fill-opacity:1;" d="M 4.363281 1.636719 L 4.363281 2.710938 L 1.921875 2.710938 C 1.824219 2.710938 1.730469 2.761719 1.679688 2.847656 C 1.632812 2.933594 1.632812 3.039062 1.679688 3.121094 C 1.730469 3.207031 1.824219 3.257812 1.921875 3.257812 L 4.363281 3.257812 L 4.363281 4.363281 L 7.089844 4.363281 L 7.089844 3.257812 L 9.542969 3.257812 C 9.644531 3.257812 9.734375 3.207031 9.785156 3.121094 C 9.832031 3.039062 9.832031 2.933594 9.785156 2.847656 C 9.734375 2.761719 9.644531 2.710938 9.542969 2.710938 L 7.089844 2.710938 L 7.089844 1.636719 Z M 5.453125 4.378906 L 5.453125 5.46875 L 4.363281 5.46875 L 5.726562 7.105469 L 7.089844 5.46875 L 6 5.46875 L 6 4.378906 Z M 2.183594 7.636719 L 2.183594 8.726562 L 1.910156 8.726562 C 1.8125 8.726562 1.722656 8.777344 1.675781 8.863281 C 1.625 8.949219 1.625 9.050781 1.675781 9.136719 C 1.722656 9.21875 1.8125 9.273438 1.910156 9.273438 L 2.183594 9.273438 L 2.183594 10.363281 L 4.363281 10.363281 L 4.363281 7.636719 Z M 7.089844 7.636719 L 7.089844 10.363281 L 9.273438 10.363281 L 9.273438 9.273438 L 9.550781 9.273438 C 9.648438 9.273438 9.738281 9.222656 9.789062 9.136719 C 9.839844 9.050781 9.839844 8.949219 9.789062 8.863281 C 9.738281 8.777344 9.648438 8.726562 9.550781 8.726562 L 9.273438 8.726562 L 9.273438 7.636719 Z M 7.089844 7.636719 "/>
</g>
</svg>
