<?xml version="1.0" encoding="UTF-8"?>
<svg xmlns="http://www.w3.org/2000/svg" xmlns:xlink="http://www.w3.org/1999/xlink" width="12pt" height="12pt" viewBox="0 0 12 12" version="1.1">
<g id="surface1">
<path style=" stroke:none;fill-rule:nonzero;fill:rgb(82.745098%,85.490196%,89.019608%);fill-opacity:1;" d="M 1.636719 1.636719 L 1.636719 4.363281 L 2.453125 3.546875 L 3.546875 4.636719 L 2.726562 5.453125 L 5.453125 5.453125 L 5.453125 2.726562 L 4.636719 3.546875 L 3.546875 2.453125 L 4.363281 1.636719 Z M 7.636719 1.636719 L 8.453125 2.453125 L 7.363281 3.546875 L 6.546875 2.726562 L 6.546875 5.453125 L 9.273438 5.453125 L 8.453125 4.636719 L 9.546875 3.546875 L 10.363281 4.363281 L 10.363281 1.636719 Z M 2.726562 6.546875 L 3.546875 7.363281 L 2.453125 8.453125 L 1.636719 7.636719 L 1.636719 10.363281 L 4.363281 10.363281 L 3.546875 9.546875 L 4.636719 8.453125 L 5.453125 9.273438 L 5.453125 6.546875 Z M 6.546875 6.546875 L 6.546875 9.273438 L 7.363281 8.453125 L 8.453125 9.546875 L 7.636719 10.363281 L 10.363281 10.363281 L 10.363281 7.636719 L 9.546875 8.453125 L 8.453125 7.363281 L 9.273438 6.546875 Z M 6.546875 6.546875 "/>
</g>
</svg>
