<?xml version="1.0" encoding="UTF-8"?>
<svg xmlns="http://www.w3.org/2000/svg" xmlns:xlink="http://www.w3.org/1999/xlink" width="12pt" height="12pt" viewBox="0 0 12 12" version="1.1">
<g id="surface1">
<path style=" stroke:none;fill-rule:nonzero;fill:rgb(82.745098%,85.490196%,89.019608%);fill-opacity:1;" d="M 3.273438 2.183594 C 2.667969 2.183594 2.183594 2.667969 2.183594 3.273438 L 2.183594 4.363281 L 3.273438 4.363281 L 3.273438 3.273438 L 4.363281 3.273438 L 4.363281 2.183594 Z M 7.636719 2.183594 L 7.636719 3.273438 L 8.726562 3.273438 L 8.726562 4.363281 L 9.816406 4.363281 L 9.816406 3.273438 C 9.816406 2.667969 9.332031 2.183594 8.726562 2.183594 Z M 4.910156 3.816406 C 4.304688 3.816406 3.816406 4.304688 3.816406 4.910156 C 3.816406 5.511719 4.304688 6 4.910156 6 C 5.511719 6 6 5.511719 6 4.910156 C 6 4.304688 5.511719 3.816406 4.910156 3.816406 Z M 6.546875 3.816406 L 6.546875 6 L 8.183594 6 L 8.183594 3.816406 Z M 4.363281 6.546875 L 4.363281 8.183594 L 5.453125 8.183594 L 5.453125 6.546875 Z M 7.363281 6.546875 L 6.546875 8.183594 L 8.183594 8.183594 Z M 2.183594 7.636719 L 2.183594 8.726562 C 2.183594 9.332031 2.667969 9.816406 3.273438 9.816406 L 4.363281 9.816406 L 4.363281 8.726562 L 3.273438 8.726562 L 3.273438 7.636719 Z M 8.726562 7.636719 L 8.726562 8.726562 L 7.636719 8.726562 L 7.636719 9.816406 L 8.726562 9.816406 C 9.332031 9.816406 9.816406 9.332031 9.816406 8.726562 L 9.816406 7.636719 Z M 8.726562 7.636719 "/>
</g>
</svg>
