<?xml version="1.0" encoding="UTF-8"?>
<svg xmlns="http://www.w3.org/2000/svg" xmlns:xlink="http://www.w3.org/1999/xlink" width="12pt" height="12pt" viewBox="0 0 12 12" version="1.1">
<g id="surface1">
<path style=" stroke:none;fill-rule:nonzero;fill:rgb(82.745098%,85.490196%,89.019608%);fill-opacity:1;" d="M 8.203125 2.292969 C 8.148438 2.296875 8.117188 2.300781 8.117188 2.300781 L 2.746094 3.253906 C 2.210938 3.351562 2.304688 3.886719 2.304688 3.886719 L 2.578125 5.453125 L 9.226562 5.453125 L 8.746094 2.746094 C 8.675781 2.339844 8.355469 2.292969 8.203125 2.292969 Z M 2.183594 6 L 2.183594 6.546875 L 2.726562 6.546875 L 2.726562 6 Z M 3.273438 6 L 3.273438 6.546875 L 3.816406 6.546875 L 3.816406 6 Z M 4.363281 6 L 4.363281 6.546875 L 4.910156 6.546875 L 4.910156 6 Z M 5.453125 6 L 5.453125 6.546875 L 6 6.546875 L 6 6 Z M 6.546875 6 L 6.546875 6.546875 L 7.089844 6.546875 L 7.089844 6 Z M 7.636719 6 L 7.636719 6.546875 L 8.183594 6.546875 L 8.183594 6 Z M 8.726562 6 L 8.726562 6.546875 L 9.273438 6.546875 L 9.273438 6 Z M 9.816406 6 L 9.816406 6.546875 L 10.363281 6.546875 L 10.363281 6 Z M 2.863281 7.089844 L 3.253906 9.253906 C 3.351562 9.792969 3.886719 9.699219 3.886719 9.699219 L 9.253906 8.746094 C 9.253906 8.746094 9.792969 8.652344 9.699219 8.113281 L 9.511719 7.089844 Z M 2.863281 7.089844 "/>
</g>
</svg>
