<?xml version="1.0" encoding="UTF-8"?>
<svg xmlns="http://www.w3.org/2000/svg" xmlns:xlink="http://www.w3.org/1999/xlink" width="12pt" height="12pt" viewBox="0 0 12 12" version="1.1">
<g id="surface1">
<path style=" stroke:none;fill-rule:nonzero;fill:rgb(82.745098%,85.490196%,89.019608%);fill-opacity:1;" d="M 2.726562 2.726562 L 2.726562 4.363281 L 2.1875 4.363281 L 2.1875 4.367188 L 2.726562 4.367188 L 2.726562 9.273438 L 9.273438 9.273438 L 9.273438 8.726562 L 3.273438 8.726562 L 3.273438 4.367188 L 5.710938 4.367188 L 4.074219 6.003906 L 3.277344 6.003906 L 3.277344 6.546875 L 4.300781 6.546875 L 6.546875 4.300781 L 7.707031 5.457031 L 7.710938 5.457031 L 9.253906 3.914062 C 9.257812 3.917969 8.867188 3.53125 8.867188 3.53125 L 7.710938 4.6875 L 6.550781 3.53125 L 6.546875 3.53125 L 5.714844 4.363281 L 3.273438 4.363281 L 3.273438 2.726562 Z M 5.78125 6.546875 L 4.691406 7.636719 L 3.277344 7.636719 L 3.277344 8.183594 L 4.914062 8.183594 L 4.914062 8.175781 L 4.917969 8.183594 L 6.007812 7.089844 L 6.875 7.089844 L 7.964844 8.183594 L 9.277344 8.183594 L 9.277344 7.636719 L 8.191406 7.636719 L 7.101562 6.546875 Z M 5.78125 6.546875 "/>
</g>
</svg>
