<?xml version="1.0" encoding="UTF-8"?>
<svg xmlns="http://www.w3.org/2000/svg" xmlns:xlink="http://www.w3.org/1999/xlink" width="12pt" height="12pt" viewBox="0 0 12 12" version="1.1">
<g id="surface1">
<path style=" stroke:none;fill-rule:nonzero;fill:rgb(82.745098%,85.490196%,89.019608%);fill-opacity:1;" d="M 2.726562 2.726562 L 2.726562 9.273438 L 9.273438 9.273438 L 9.273438 8.726562 L 3.273438 8.726562 L 3.273438 2.726562 Z M 3.816406 2.726562 L 3.816406 3.273438 L 4.363281 3.273438 L 4.363281 4.910156 L 4.910156 4.910156 L 4.910156 2.726562 Z M 6.273438 2.726562 C 5.820312 2.726562 5.453125 3.09375 5.453125 3.546875 L 5.453125 4.089844 C 5.453125 4.542969 5.820312 4.910156 6.273438 4.910156 C 6.726562 4.910156 7.089844 4.542969 7.089844 4.089844 L 7.089844 3.546875 C 7.089844 3.09375 6.726562 2.726562 6.273438 2.726562 Z M 8.453125 2.726562 C 8 2.726562 7.636719 3.09375 7.636719 3.546875 L 7.636719 4.089844 C 7.636719 4.542969 8 4.910156 8.453125 4.910156 C 8.90625 4.910156 9.273438 4.542969 9.273438 4.089844 L 9.273438 3.546875 C 9.273438 3.09375 8.90625 2.726562 8.453125 2.726562 Z M 6.273438 3.273438 C 6.421875 3.273438 6.546875 3.394531 6.546875 3.546875 L 6.546875 4.089844 C 6.546875 4.242188 6.421875 4.363281 6.273438 4.363281 C 6.121094 4.363281 6 4.242188 6 4.089844 L 6 3.546875 C 6 3.394531 6.121094 3.273438 6.273438 3.273438 Z M 8.453125 3.273438 C 8.605469 3.273438 8.726562 3.394531 8.726562 3.546875 L 8.726562 4.089844 C 8.726562 4.242188 8.605469 4.363281 8.453125 4.363281 C 8.304688 4.363281 8.183594 4.242188 8.183594 4.089844 L 8.183594 3.546875 C 8.183594 3.394531 8.304688 3.273438 8.453125 3.273438 Z M 6.320312 5.453125 L 8.25 7.382812 L 8.253906 7.382812 L 9.273438 6.359375 L 9.273438 5.589844 L 8.25 6.613281 L 7.09375 5.453125 Z M 4.691406 6.546875 L 3.601562 7.636719 L 3.277344 7.636719 L 3.277344 8.183594 L 3.820312 8.183594 L 3.820312 8.175781 L 3.824219 8.183594 L 4.917969 7.089844 L 5.785156 7.089844 L 6.875 8.183594 L 9.277344 8.183594 L 9.277344 7.636719 L 7.101562 7.636719 L 6.011719 6.546875 Z M 4.691406 6.546875 "/>
</g>
</svg>
