<?xml version="1.0" encoding="UTF-8"?>
<svg xmlns="http://www.w3.org/2000/svg" xmlns:xlink="http://www.w3.org/1999/xlink" width="12pt" height="12pt" viewBox="0 0 12 12" version="1.1">
<defs>
<filter id="alpha" filterUnits="objectBoundingBox" x="0%" y="0%" width="100%" height="100%">
  <feColorMatrix type="matrix" in="SourceGraphic" values="0 0 0 0 1 0 0 0 0 1 0 0 0 0 1 0 0 0 1 0"/>
</filter>
<mask id="mask0">
  <g filter="url(#alpha)">
<rect x="0" y="0" width="12" height="12" style="fill:rgb(0%,0%,0%);fill-opacity:0.501961;stroke:none;"/>
  </g>
</mask>
<clipPath id="clip1">
  <rect width="12" height="12"/>
</clipPath>
<g id="surface6" clip-path="url(#clip1)">
<path style=" stroke:none;fill-rule:nonzero;fill:rgb(82.745098%,85.490196%,89.019608%);fill-opacity:1;" d="M 6.546875 4.363281 L 5.457031 5.453125 L 6 5.453125 L 6 6 L 4.914062 6 L 4.367188 6.546875 L 2.726562 6.546875 L 2.726562 8.726562 L 5.453125 8.726562 L 6.542969 8.722656 L 9.273438 8.726562 L 9.273438 5.453125 L 8.179688 5.453125 L 8.179688 6 L 7.089844 6 L 7.089844 5.453125 L 7.636719 5.453125 Z M 6.546875 4.363281 "/>
</g>
</defs>
<g id="surface1">
<path style=" stroke:none;fill-rule:nonzero;fill:rgb(82.745098%,85.490196%,89.019608%);fill-opacity:1;" d="M 2.726562 2.726562 L 2.726562 9.273438 L 9.273438 9.273438 L 9.273438 8.726562 L 3.273438 8.726562 L 3.273438 8.183594 L 4.914062 8.183594 L 4.914062 8.175781 L 4.917969 8.183594 L 6.007812 7.089844 L 6.875 7.089844 L 7.964844 8.183594 L 9.277344 8.183594 L 9.277344 7.636719 L 8.191406 7.636719 L 7.101562 6.546875 L 5.78125 6.546875 L 4.691406 7.636719 L 3.273438 7.636719 L 3.273438 6.542969 L 4.363281 6.542969 L 4.363281 6.539062 L 4.367188 6.542969 L 4.910156 6 L 6 6 L 6 5.453125 L 5.453125 5.453125 L 5.453125 4.910156 L 4.910156 4.910156 L 4.910156 5.996094 L 4.527344 5.613281 L 4.140625 5.996094 L 3.273438 5.996094 L 3.273438 2.726562 Z M 4.910156 2.726562 L 4.910156 3.816406 L 5.453125 3.816406 L 5.453125 3.273438 L 6 3.273438 L 6 2.726562 Z M 7.089844 2.726562 L 7.089844 3.273438 L 7.636719 3.273438 L 7.636719 3.816406 L 8.183594 3.816406 L 8.183594 2.726562 Z M 6.546875 3.59375 L 5.617188 4.523438 L 6.003906 4.910156 L 6.546875 4.367188 L 7.089844 4.910156 L 7.472656 4.523438 Z M 7.636719 4.910156 L 7.636719 5.453125 L 7.089844 5.453125 L 7.089844 6 L 8.183594 6 L 8.183594 4.910156 Z M 9.273438 4.910156 L 8.726562 5.453125 L 9.273438 5.453125 Z M 9.273438 4.910156 "/>
<use xlink:href="#surface6" mask="url(#mask0)"/>
</g>
</svg>
