<?xml version="1.0" encoding="UTF-8"?>
<svg xmlns="http://www.w3.org/2000/svg" xmlns:xlink="http://www.w3.org/1999/xlink" width="12pt" height="12pt" viewBox="0 0 12 12" version="1.1">
<g id="surface1">
<path style=" stroke:none;fill-rule:nonzero;fill:rgb(82.745098%,85.490196%,89.019608%);fill-opacity:1;" d="M 9.816406 2.183594 C 9.714844 2.066406 6.195312 5.046875 5.199219 6.277344 C 5.054688 6.457031 5.015625 6.585938 4.828125 6.925781 C 4.949219 7.023438 5.1875 7.246094 5.351562 7.628906 C 5.675781 7.417969 5.832031 7.386719 6.003906 7.222656 C 7.136719 6.148438 9.910156 2.296875 9.816406 2.183594 Z M 4.316406 7.210938 C 3.890625 7.222656 3.480469 7.585938 3.199219 8.351562 C 2.875 9.226562 2.292969 9.578125 2.183594 9.558594 C 2.785156 9.804688 4.632812 10.433594 5.089844 8.035156 C 4.894531 7.457031 4.5 7.222656 4.5 7.222656 C 4.4375 7.210938 4.378906 7.207031 4.316406 7.210938 Z M 4.316406 7.210938 "/>
</g>
</svg>
