<?xml version="1.0" encoding="UTF-8"?>
<svg xmlns="http://www.w3.org/2000/svg" xmlns:xlink="http://www.w3.org/1999/xlink" width="12pt" height="12pt" viewBox="0 0 12 12" version="1.1">
<defs>
<filter id="alpha" filterUnits="objectBoundingBox" x="0%" y="0%" width="100%" height="100%">
  <feColorMatrix type="matrix" in="SourceGraphic" values="0 0 0 0 1 0 0 0 0 1 0 0 0 0 1 0 0 0 1 0"/>
</filter>
<mask id="mask0">
  <g filter="url(#alpha)">
<rect x="0" y="0" width="12" height="12" style="fill:rgb(0%,0%,0%);fill-opacity:0.301961;stroke:none;"/>
  </g>
</mask>
<clipPath id="clip1">
  <rect width="12" height="12"/>
</clipPath>
<g id="surface6" clip-path="url(#clip1)">
<path style=" stroke:none;fill-rule:nonzero;fill:rgb(82.745098%,85.490196%,89.019608%);fill-opacity:1;" d="M 8.765625 2.742188 C 5.859375 3.34375 3.289062 5.285156 2.773438 8.738281 C 2.851562 8.714844 2.925781 8.699219 3.011719 8.699219 C 3.121094 8.699219 3.226562 8.71875 3.320312 8.757812 C 3.554688 7.269531 4.1875 6.097656 5.074219 5.214844 C 5.085938 5.203125 5.097656 5.1875 5.109375 5.175781 C 5.109375 5.175781 5.109375 5.179688 5.109375 5.179688 C 6.097656 4.210938 7.390625 3.597656 8.796875 3.296875 C 8.753906 3.195312 8.730469 3.085938 8.730469 2.972656 C 8.730469 2.890625 8.746094 2.816406 8.765625 2.742188 Z M 8.765625 2.742188 "/>
</g>
</defs>
<g id="surface1">
<path style=" stroke:none;fill-rule:nonzero;fill:rgb(82.745098%,85.490196%,89.019608%);fill-opacity:1;" d="M 9.546875 2.152344 C 9.09375 2.152344 8.730469 2.519531 8.730469 2.972656 C 8.730469 3.421875 9.09375 3.789062 9.546875 3.789062 C 9.996094 3.789062 10.363281 3.421875 10.363281 2.972656 C 10.363281 2.519531 9.996094 2.152344 9.546875 2.152344 Z M 5.832031 4.574219 C 5.683594 4.683594 5.539062 4.796875 5.398438 4.917969 C 6.199219 5.6875 7.011719 6.164062 7.796875 6.308594 C 8.621094 6.457031 9.410156 6.21875 10.011719 5.617188 L 9.625 5.234375 C 9.136719 5.722656 8.566406 5.894531 7.894531 5.769531 C 7.273438 5.65625 6.558594 5.257812 5.832031 4.574219 Z M 5.109375 5.179688 C 4.980469 5.304688 4.859375 5.4375 4.742188 5.574219 C 5.503906 6.355469 5.988281 7.171875 6.109375 7.832031 C 6.230469 8.507812 6.058594 9.078125 5.570312 9.566406 L 5.957031 9.953125 C 6.554688 9.351562 6.792969 8.558594 6.644531 7.734375 C 6.496094 6.921875 5.929688 6.011719 5.109375 5.179688 Z M 3.011719 8.699219 C 2.558594 8.699219 2.195312 9.066406 2.195312 9.515625 C 2.195312 9.96875 2.558594 10.335938 3.011719 10.335938 C 3.460938 10.335938 3.828125 9.96875 3.828125 9.515625 C 3.828125 9.066406 3.460938 8.699219 3.011719 8.699219 Z M 3.011719 8.699219 "/>
<use xlink:href="#surface6" mask="url(#mask0)"/>
</g>
</svg>
