<?xml version="1.0" encoding="UTF-8"?>
<svg xmlns="http://www.w3.org/2000/svg" xmlns:xlink="http://www.w3.org/1999/xlink" width="12pt" height="12pt" viewBox="0 0 12 12" version="1.1">
<g id="surface1">
<path style=" stroke:none;fill-rule:nonzero;fill:rgb(82.745098%,85.490196%,89.019608%);fill-opacity:1;" d="M 5.453125 8.453125 C 5.453125 9.207031 4.84375 9.816406 4.089844 9.816406 C 3.335938 9.816406 2.726562 9.207031 2.726562 8.453125 C 2.726562 7.703125 3.335938 7.089844 4.089844 7.089844 C 4.84375 7.089844 5.453125 7.703125 5.453125 8.453125 Z M 5.453125 8.453125 "/>
<path style=" stroke:none;fill-rule:nonzero;fill:rgb(82.745098%,85.490196%,89.019608%);fill-opacity:1;" d="M 5.453125 3.546875 C 5.453125 4.296875 4.84375 4.910156 4.089844 4.910156 C 3.335938 4.910156 2.726562 4.296875 2.726562 3.546875 C 2.726562 2.792969 3.335938 2.183594 4.089844 2.183594 C 4.84375 2.183594 5.453125 2.792969 5.453125 3.546875 Z M 5.453125 3.546875 "/>
<path style=" stroke:none;fill-rule:nonzero;fill:rgb(82.745098%,85.490196%,89.019608%);fill-opacity:1;" d="M 9.273438 7.363281 C 9.273438 8.117188 8.664062 8.726562 7.910156 8.726562 C 7.15625 8.726562 6.546875 8.117188 6.546875 7.363281 C 6.546875 6.609375 7.15625 6 7.910156 6 C 8.664062 6 9.273438 6.609375 9.273438 7.363281 Z M 9.273438 7.363281 "/>
<path style="fill:none;stroke-width:1;stroke-linecap:butt;stroke-linejoin:miter;stroke:rgb(82.745098%,85.490196%,89.019608%);stroke-opacity:1;stroke-miterlimit:4;" d="M 7.498041 15.497383 L 7.498041 6.502599 L 14.501941 13.499338 " transform="matrix(0.545455,0,0,0.545455,0,0)"/>
</g>
</svg>
