<?xml version="1.0" encoding="UTF-8"?>
<svg xmlns="http://www.w3.org/2000/svg" xmlns:xlink="http://www.w3.org/1999/xlink" width="12pt" height="12pt" viewBox="0 0 12 12" version="1.1">
<g id="surface1">
<path style=" stroke:none;fill-rule:nonzero;fill:rgb(82.745098%,85.490196%,89.019608%);fill-opacity:1;" d="M 3.546875 2.183594 C 2.796875 2.183594 2.183594 2.800781 2.183594 3.546875 C 2.183594 3.960938 2.417969 4.300781 2.726562 4.554688 L 2.726562 7.636719 C 2.726562 8.535156 3.464844 9.273438 4.363281 9.273438 C 4.363281 9.582031 4.617188 9.828125 4.925781 9.816406 C 5.039062 9.816406 5.144531 9.777344 5.234375 9.710938 L 6.328125 8.890625 C 6.617188 8.671875 6.617188 8.238281 6.328125 8.019531 L 5.234375 7.199219 C 4.878906 6.933594 4.371094 7.183594 4.363281 7.628906 L 4.363281 4.554688 C 4.675781 4.300781 4.910156 3.960938 4.910156 3.546875 C 4.910156 2.800781 4.292969 2.183594 3.546875 2.183594 Z M 7.074219 2.183594 C 6.960938 2.183594 6.855469 2.222656 6.765625 2.289062 L 5.671875 3.109375 C 5.382812 3.328125 5.382812 3.761719 5.671875 3.980469 L 6.765625 4.800781 C 7.121094 5.066406 7.628906 4.816406 7.636719 4.371094 L 7.636719 7.445312 C 7.324219 7.699219 7.089844 8.039062 7.089844 8.453125 C 7.089844 9.203125 7.707031 9.816406 8.453125 9.816406 C 9.203125 9.816406 9.816406 9.203125 9.816406 8.453125 C 9.816406 8.039062 9.585938 7.699219 9.273438 7.445312 L 9.273438 4.363281 C 9.273438 3.464844 8.535156 2.726562 7.636719 2.726562 C 7.636719 2.417969 7.382812 2.171875 7.074219 2.183594 Z M 7.074219 2.183594 "/>
</g>
</svg>
