<?xml version="1.0" encoding="UTF-8"?>
<svg xmlns="http://www.w3.org/2000/svg" xmlns:xlink="http://www.w3.org/1999/xlink" width="12pt" height="12pt" viewBox="0 0 12 12" version="1.1">
<g id="surface1">
<path style=" stroke:none;fill-rule:nonzero;fill:rgb(82.745098%,85.490196%,89.019608%);fill-opacity:1;" d="M 3.273438 2.183594 C 2.046875 2.183594 2.183594 3.273438 2.183594 3.273438 L 2.183594 9.816406 L 5.453125 9.816406 L 5.453125 8.726562 L 3.273438 8.726562 L 3.273438 3.273438 L 8.730469 3.273438 L 8.730469 5.453125 L 9.816406 5.453125 L 9.820312 3.273438 C 9.820312 2.183594 8.730469 2.183594 8.730469 2.183594 Z M 3.820312 3.816406 L 3.820312 4.910156 L 4.910156 4.910156 L 4.910156 3.816406 Z M 5.457031 3.816406 L 5.457031 4.910156 L 6.546875 4.910156 L 6.546875 3.816406 Z M 7.09375 3.816406 L 7.09375 4.910156 L 8.183594 4.910156 L 8.183594 3.816406 Z M 3.820312 5.453125 L 3.820312 6.546875 L 4.910156 6.546875 L 4.910156 5.453125 Z M 7.636719 6.546875 L 7.636719 7.636719 L 6.546875 7.636719 L 6.546875 8.726562 L 7.636719 8.726562 L 7.636719 9.816406 L 8.726562 9.816406 L 8.726562 8.726562 L 9.816406 8.726562 L 9.816406 7.636719 L 8.726562 7.636719 L 8.726562 6.546875 Z M 3.820312 7.089844 L 3.820312 8.183594 L 4.910156 8.183594 L 4.910156 7.089844 Z M 3.820312 7.089844 "/>
</g>
</svg>
