<?xml version="1.0" encoding="UTF-8"?>
<svg xmlns="http://www.w3.org/2000/svg" xmlns:xlink="http://www.w3.org/1999/xlink" width="12pt" height="12pt" viewBox="0 0 12 12" version="1.1">
<g id="surface1">
<path style=" stroke:none;fill-rule:nonzero;fill:rgb(82.745098%,85.490196%,89.019608%);fill-opacity:1;" d="M 5.453125 2.183594 L 5.453125 2.773438 C 4.96875 2.859375 4.507812 3.050781 4.105469 3.335938 L 3.6875 2.914062 L 2.914062 3.6875 L 3.335938 4.105469 C 3.050781 4.507812 2.859375 4.96875 2.777344 5.453125 L 2.183594 5.453125 L 2.183594 6.546875 L 2.773438 6.546875 C 2.859375 7.03125 3.050781 7.492188 3.335938 7.894531 L 2.914062 8.3125 L 3.6875 9.085938 L 4.105469 8.664062 C 4.507812 8.949219 4.96875 9.140625 5.453125 9.222656 L 5.453125 9.816406 L 6.546875 9.816406 L 6.546875 9.226562 C 7.03125 9.140625 7.492188 8.949219 7.894531 8.664062 L 8.3125 9.085938 L 9.085938 8.3125 L 8.664062 7.894531 C 8.949219 7.492188 9.140625 7.03125 9.222656 6.546875 L 9.816406 6.546875 L 9.816406 5.453125 L 9.226562 5.453125 C 9.140625 4.96875 8.949219 4.507812 8.664062 4.105469 L 9.085938 3.6875 L 8.3125 2.914062 L 7.894531 3.335938 C 7.492188 3.050781 7.03125 2.859375 6.546875 2.777344 L 6.546875 2.183594 Z M 5.453125 4 L 6.546875 4 L 6.546875 5.910156 L 6.769531 5.683594 L 7.542969 6.457031 L 6.769531 7.226562 L 6 8 L 5.230469 7.226562 L 4.457031 6.457031 L 5.230469 5.683594 L 5.453125 5.910156 Z M 5.453125 4 "/>
</g>
</svg>
