<?xml version="1.0" encoding="UTF-8"?>
<svg xmlns="http://www.w3.org/2000/svg" xmlns:xlink="http://www.w3.org/1999/xlink" width="12pt" height="12pt" viewBox="0 0 12 12" version="1.1">
<g id="surface1">
<path style=" stroke:none;fill-rule:nonzero;fill:rgb(82.745098%,85.490196%,89.019608%);fill-opacity:1;" d="M 3.273438 2.742188 L 3.273438 3.289062 L 3.816406 3.289062 L 3.816406 2.742188 Z M 3.273438 3.835938 L 3.273438 4.378906 L 3.816406 4.378906 L 3.816406 3.835938 Z M 3.273438 4.925781 L 3.273438 5.46875 L 3.816406 5.46875 L 3.816406 4.925781 Z M 3.273438 6.015625 L 3.273438 6.5625 L 3.816406 6.5625 L 3.816406 6.015625 Z M 3.273438 7.105469 L 3.273438 7.652344 L 3.816406 7.652344 L 3.816406 7.105469 Z M 2.183594 8.199219 L 2.183594 8.742188 L 2.726562 8.742188 L 2.726562 8.199219 Z M 3.273438 8.199219 L 3.273438 8.742188 L 3.816406 8.742188 L 3.816406 8.199219 Z M 4.363281 8.199219 L 4.363281 8.742188 L 4.910156 8.742188 L 4.910156 8.199219 Z M 5.453125 8.199219 L 5.453125 8.742188 L 6 8.742188 L 6 8.199219 Z M 6.546875 8.199219 L 6.546875 8.742188 L 7.089844 8.742188 L 7.089844 8.199219 Z M 7.636719 8.199219 L 7.636719 8.742188 L 8.183594 8.742188 L 8.183594 8.199219 Z M 8.726562 8.199219 L 8.726562 8.742188 L 9.273438 8.742188 L 9.273438 8.199219 Z M 3.273438 9.289062 L 3.273438 9.835938 L 3.816406 9.835938 L 3.816406 9.289062 Z M 3.273438 9.289062 "/>
</g>
</svg>
