<?xml version="1.0" encoding="UTF-8"?>
<svg xmlns="http://www.w3.org/2000/svg" xmlns:xlink="http://www.w3.org/1999/xlink" width="12pt" height="12pt" viewBox="0 0 12 12" version="1.1">
<g id="surface1">
<path style=" stroke:none;fill-rule:nonzero;fill:rgb(82.745098%,85.490196%,89.019608%);fill-opacity:1;" d="M 4.910156 2.726562 L 4.910156 4.363281 L 5.453125 4.363281 L 5.453125 2.726562 Z M 4.910156 4.910156 L 4.910156 5.453125 L 5.453125 5.453125 L 5.453125 4.910156 Z M 4.363281 6 L 4.363281 7.636719 L 6 7.636719 L 6 6 Z M 2.183594 6.546875 L 2.183594 7.089844 L 2.726562 7.089844 L 2.726562 6.546875 Z M 3.273438 6.546875 L 3.273438 7.089844 L 3.816406 7.089844 L 3.816406 6.546875 Z M 6.546875 6.546875 L 6.546875 7.089844 L 7.089844 7.089844 L 7.089844 6.546875 Z M 7.636719 6.546875 L 7.636719 7.089844 L 9.273438 7.089844 L 9.273438 6.546875 Z M 4.910156 8.183594 L 4.910156 8.726562 L 5.453125 8.726562 L 5.453125 8.183594 Z M 4.910156 9.273438 L 4.910156 9.816406 L 5.453125 9.816406 L 5.453125 9.273438 Z M 4.910156 9.273438 "/>
</g>
</svg>
