<?xml version="1.0" encoding="UTF-8"?>
<svg xmlns="http://www.w3.org/2000/svg" xmlns:xlink="http://www.w3.org/1999/xlink" width="12pt" height="12pt" viewBox="0 0 12 12" version="1.1">
<g id="surface1">
<path style=" stroke:none;fill-rule:nonzero;fill:rgb(82.745098%,85.490196%,89.019608%);fill-opacity:1;" d="M 9.273438 2.453125 L 9.273438 3.546875 L 9.816406 3.546875 L 9.816406 2.453125 Z M 9.273438 4.089844 L 9.273438 5.183594 L 9.816406 5.183594 L 9.816406 4.089844 Z M 5.453125 4.910156 L 5.453125 5.453125 L 4.910156 5.453125 L 4.910156 6.546875 L 5.453125 6.546875 L 5.453125 7.089844 L 6.546875 7.089844 L 6.546875 6.546875 L 7.089844 6.546875 L 7.089844 5.453125 L 6.546875 5.453125 L 6.546875 4.910156 Z M 9.273438 5.726562 L 9.273438 6.816406 L 9.816406 6.816406 L 9.816406 5.726562 Z M 9.273438 7.363281 L 9.273438 8.453125 L 9.816406 8.453125 L 9.816406 7.363281 Z M 9.273438 9 L 9.273438 9.273438 L 9 9.273438 L 9 9.816406 L 9.816406 9.816406 L 9.816406 9 Z M 2.453125 9.273438 L 2.453125 9.816406 L 3.546875 9.816406 L 3.546875 9.273438 Z M 4.089844 9.273438 L 4.089844 9.816406 L 5.183594 9.816406 L 5.183594 9.273438 Z M 5.726562 9.273438 L 5.726562 9.816406 L 6.816406 9.816406 L 6.816406 9.273438 Z M 7.363281 9.273438 L 7.363281 9.816406 L 8.453125 9.816406 L 8.453125 9.273438 Z M 7.363281 9.273438 "/>
</g>
</svg>
