<?xml version="1.0" encoding="UTF-8"?>
<svg xmlns="http://www.w3.org/2000/svg" xmlns:xlink="http://www.w3.org/1999/xlink" width="12pt" height="12pt" viewBox="0 0 12 12" version="1.1">
<g id="surface1">
<path style=" stroke:none;fill-rule:nonzero;fill:rgb(82.745098%,85.490196%,89.019608%);fill-opacity:1;" d="M 3.546875 2.183594 C 2.792969 2.183594 2.183594 2.792969 2.183594 3.546875 C 2.183594 4.296875 2.792969 4.910156 3.546875 4.910156 C 4.191406 4.90625 4.75 4.453125 4.878906 3.816406 L 5.453125 3.816406 L 5.453125 8.726562 L 6.574219 8.726562 C 6.703125 9.363281 7.261719 9.816406 7.910156 9.816406 C 8.664062 9.816406 9.273438 9.207031 9.273438 8.453125 C 9.273438 7.703125 8.664062 7.089844 7.910156 7.089844 C 7.261719 7.09375 6.703125 7.546875 6.574219 8.183594 L 6 8.183594 L 6 3.273438 L 4.882812 3.273438 C 4.75 2.636719 4.195312 2.183594 3.546875 2.183594 Z M 3.546875 2.183594 "/>
</g>
</svg>
