<?xml version="1.0" encoding="UTF-8"?>
<svg xmlns="http://www.w3.org/2000/svg" xmlns:xlink="http://www.w3.org/1999/xlink" width="12pt" height="12pt" viewBox="0 0 12 12" version="1.1">
<g id="surface1">
<path style=" stroke:none;fill-rule:nonzero;fill:rgb(82.745098%,85.490196%,89.019608%);fill-opacity:1;" d="M 8.183594 1.636719 C 7.277344 1.636719 6.546875 2.367188 6.546875 3.273438 C 6.546875 3.398438 6.570312 3.511719 6.597656 3.628906 L 4.839844 4.722656 C 4.5625 4.496094 4.203125 4.363281 3.816406 4.363281 C 2.914062 4.363281 2.183594 5.097656 2.183594 6 C 2.183594 6.902344 2.914062 7.636719 3.816406 7.636719 C 4.203125 7.636719 4.5625 7.503906 4.839844 7.277344 L 6.597656 8.371094 C 6.570312 8.488281 6.546875 8.601562 6.546875 8.726562 C 6.546875 9.632812 7.277344 10.363281 8.183594 10.363281 C 9.085938 10.363281 9.816406 9.632812 9.816406 8.726562 C 9.816406 7.824219 9.085938 7.089844 8.183594 7.089844 C 7.796875 7.089844 7.4375 7.222656 7.160156 7.449219 L 5.402344 6.359375 C 5.429688 6.238281 5.453125 6.125 5.453125 6 C 5.453125 5.875 5.429688 5.761719 5.402344 5.640625 L 7.160156 4.550781 C 7.4375 4.777344 7.796875 4.910156 8.183594 4.910156 C 9.085938 4.910156 9.816406 4.175781 9.816406 3.273438 C 9.816406 2.367188 9.085938 1.636719 8.183594 1.636719 Z M 8.183594 1.636719 "/>
</g>
</svg>
