<?xml version="1.0" encoding="UTF-8"?>
<svg xmlns="http://www.w3.org/2000/svg" xmlns:xlink="http://www.w3.org/1999/xlink" width="12pt" height="12pt" viewBox="0 0 12 12" version="1.1">
<g id="surface1">
<path style=" stroke:none;fill-rule:nonzero;fill:rgb(82.745098%,85.490196%,89.019608%);fill-opacity:1;" d="M 5.042969 2.726562 L 2.726562 5.042969 L 2.730469 5.046875 L 2.726562 5.046875 L 2.726562 9.273438 L 4.910156 9.273438 L 4.910156 6.359375 L 6.359375 4.910156 L 9.273438 4.910156 L 9.273438 2.726562 Z M 5.265625 3.273438 L 8.726562 3.273438 L 8.726562 4.363281 L 6.132812 4.363281 L 4.363281 6.132812 L 4.363281 8.726562 L 3.273438 8.726562 L 3.273438 5.265625 Z M 6 6 L 6 9.273438 L 8.183594 9.273438 L 8.183594 8.183594 L 9.273438 8.183594 L 9.273438 6 Z M 6.546875 6.546875 L 8.726562 6.546875 L 8.726562 7.636719 L 7.636719 7.636719 L 7.636719 8.726562 L 6.546875 8.726562 Z M 6.546875 6.546875 "/>
</g>
</svg>
