<?xml version="1.0" encoding="UTF-8"?>
<svg xmlns="http://www.w3.org/2000/svg" xmlns:xlink="http://www.w3.org/1999/xlink" width="12pt" height="12pt" viewBox="0 0 12 12" version="1.1">
<g id="surface1">
<path style=" stroke:none;fill-rule:nonzero;fill:rgb(82.745098%,85.490196%,89.019608%);fill-opacity:1;" d="M 6 3.136719 C 5.738281 3.136719 5.523438 3.351562 5.523438 3.613281 C 5.523438 3.878906 5.738281 4.089844 6 4.089844 C 7.054688 4.089844 7.910156 4.945312 7.910156 6 L 6.953125 6 L 8.386719 7.910156 L 9.816406 6 L 8.863281 6 C 8.863281 4.417969 7.582031 3.136719 6 3.136719 Z M 3.613281 4.089844 L 2.183594 6 L 3.136719 6 C 3.136719 7.582031 4.417969 8.863281 6 8.863281 C 6.261719 8.863281 6.476562 8.648438 6.476562 8.386719 C 6.476562 8.121094 6.261719 7.910156 6 7.910156 C 4.945312 7.910156 4.089844 7.054688 4.089844 6 L 5.046875 6 Z M 3.613281 4.089844 "/>
</g>
</svg>
