<?xml version="1.0" encoding="UTF-8"?>
<svg xmlns="http://www.w3.org/2000/svg" xmlns:xlink="http://www.w3.org/1999/xlink" width="12pt" height="12pt" viewBox="0 0 12 12" version="1.1">
<g id="surface1">
<path style=" stroke:none;fill-rule:nonzero;fill:rgb(82.745098%,85.490196%,89.019608%);fill-opacity:1;" d="M 5.425781 2.75 C 5.300781 2.773438 5.144531 2.90625 5.03125 3.101562 L 2.304688 7.824219 C 2.152344 8.085938 2.136719 8.359375 2.269531 8.433594 L 4.628906 9.800781 C 4.761719 9.875 4.988281 9.722656 5.140625 9.460938 L 7.867188 4.738281 C 8.015625 4.476562 8.035156 4.207031 7.902344 4.128906 L 5.539062 2.765625 C 5.507812 2.746094 5.46875 2.742188 5.425781 2.75 Z M 7.90625 6.542969 C 7.851562 6.699219 7.773438 6.851562 7.691406 7 C 7.273438 7.738281 6.613281 8.238281 6.550781 8.703125 C 6.550781 8.710938 6.542969 8.71875 6.542969 8.726562 L 6.550781 8.726562 C 6.546875 8.746094 6.542969 8.761719 6.542969 8.777344 C 6.542969 9.351562 7.152344 9.816406 7.90625 9.816406 C 8.660156 9.816406 9.269531 9.351562 9.269531 8.777344 C 9.269531 8.761719 9.265625 8.746094 9.265625 8.726562 L 9.269531 8.726562 C 9.269531 8.71875 9.265625 8.710938 9.261719 8.703125 C 9.199219 8.238281 8.542969 7.734375 8.121094 7 C 8.039062 6.851562 7.964844 6.699219 7.90625 6.542969 Z M 7.90625 6.542969 "/>
</g>
</svg>
