<?xml version="1.0" encoding="UTF-8"?>
<svg xmlns="http://www.w3.org/2000/svg" xmlns:xlink="http://www.w3.org/1999/xlink" width="12pt" height="12pt" viewBox="0 0 12 12" version="1.1">
<g id="surface1">
<path style=" stroke:none;fill-rule:nonzero;fill:rgb(82.745098%,85.490196%,89.019608%);fill-opacity:1;" d="M 6.84375 2.183594 C 4.613281 3.136719 3.277344 5.375 3.277344 6.953125 C 3.277344 8.515625 4.445312 9.785156 5.902344 9.816406 C 5.175781 9.800781 4.589844 9.167969 4.589844 8.386719 C 4.589844 7.59375 5.257812 6.476562 6.375 6 C 6.375 7.671875 7.570312 7.910156 7.265625 8.863281 C 7.09375 9.402344 6.671875 9.8125 5.9375 9.816406 C 5.945312 9.816406 5.949219 9.816406 5.953125 9.816406 C 7.433594 9.816406 8.28125 8.996094 8.628906 7.910156 C 9.242188 6.003906 6.84375 5.523438 6.84375 2.183594 Z M 6.84375 2.183594 "/>
</g>
</svg>
