<?xml version="1.0" encoding="UTF-8"?>
<svg xmlns="http://www.w3.org/2000/svg" xmlns:xlink="http://www.w3.org/1999/xlink" width="12pt" height="12pt" viewBox="0 0 12 12" version="1.1">
<g id="surface1">
<path style=" stroke:none;fill-rule:nonzero;fill:rgb(82.745098%,85.490196%,89.019608%);fill-opacity:1;" d="M 6 2.183594 C 3.890625 2.183594 2.183594 3.890625 2.183594 6 C 2.183594 8.109375 3.890625 9.816406 6 9.816406 C 8.109375 9.816406 9.816406 8.109375 9.816406 6 C 9.816406 3.890625 8.109375 2.183594 6 2.183594 Z M 4.363281 4.363281 C 4.664062 4.363281 4.910156 4.609375 4.910156 4.910156 C 4.910156 5.210938 4.664062 5.453125 4.363281 5.453125 C 4.0625 5.453125 3.816406 5.210938 3.816406 4.910156 C 3.816406 4.609375 4.0625 4.363281 4.363281 4.363281 Z M 7.636719 4.363281 C 7.9375 4.363281 8.183594 4.609375 8.183594 4.910156 C 8.183594 5.210938 7.9375 5.453125 7.636719 5.453125 C 7.335938 5.453125 7.089844 5.210938 7.089844 4.910156 C 7.089844 4.609375 7.335938 4.363281 7.636719 4.363281 Z M 6 7.089844 C 6.859375 7.09375 7.667969 7.496094 8.183594 8.183594 L 3.816406 8.183594 C 4.332031 7.496094 5.140625 7.09375 6 7.089844 Z M 6 7.089844 "/>
</g>
</svg>
