<?xml version="1.0" encoding="UTF-8"?>
<svg xmlns="http://www.w3.org/2000/svg" xmlns:xlink="http://www.w3.org/1999/xlink" width="12pt" height="12pt" viewBox="0 0 12 12" version="1.1">
<g id="surface1">
<path style=" stroke:none;fill-rule:nonzero;fill:rgb(82.745098%,85.490196%,89.019608%);fill-opacity:1;" d="M 2.183594 2.183594 L 2.183594 4.363281 L 4.363281 4.363281 L 4.363281 2.183594 Z M 7.636719 2.183594 L 7.636719 4.363281 L 9.816406 4.363281 L 9.816406 2.183594 Z M 4.910156 3.816406 L 4.910156 4.363281 L 5.453125 4.363281 L 5.453125 3.816406 Z M 6.546875 3.816406 L 6.546875 4.363281 L 7.089844 4.363281 L 7.089844 3.816406 Z M 3.816406 4.910156 L 3.816406 5.453125 L 4.363281 5.453125 L 4.363281 4.910156 Z M 7.636719 4.910156 L 7.636719 5.453125 L 8.183594 5.453125 L 8.183594 4.910156 Z M 3.816406 6.546875 L 3.816406 7.089844 L 4.363281 7.089844 L 4.363281 6.546875 Z M 6.546875 6.546875 L 6.546875 7.636719 L 7.636719 7.636719 L 7.636719 9.816406 L 8.726562 9.816406 L 8.726562 7.636719 L 9.816406 7.636719 L 9.816406 6.546875 Z M 2.183594 7.636719 L 2.183594 9.816406 L 4.363281 9.816406 L 4.363281 7.636719 Z M 4.910156 7.636719 L 4.910156 8.183594 L 5.453125 8.183594 L 5.453125 7.636719 Z M 4.910156 7.636719 "/>
</g>
</svg>
