<?xml version="1.0" encoding="UTF-8"?>
<svg xmlns="http://www.w3.org/2000/svg" xmlns:xlink="http://www.w3.org/1999/xlink" width="12pt" height="12pt" viewBox="0 0 12 12" version="1.1">
<g id="surface1">
<path style=" stroke:none;fill-rule:nonzero;fill:rgb(82.745098%,85.490196%,89.019608%);fill-opacity:1;" d="M 3.003906 2.726562 C 2.855469 2.726562 2.730469 2.847656 2.730469 3 C 2.730469 3.152344 2.855469 3.273438 3.003906 3.273438 L 6.003906 3.273438 C 6.902344 3.273438 7.578125 3.527344 8.03125 3.949219 C 8.480469 4.371094 8.726562 4.96875 8.726562 5.726562 C 8.726562 5.878906 8.847656 6 9 6 C 9.152344 6 9.273438 5.878906 9.273438 5.726562 C 9.273438 4.847656 8.972656 4.082031 8.402344 3.550781 C 7.832031 3.019531 7.007812 2.726562 6.003906 2.726562 Z M 3.003906 4.363281 C 2.855469 4.363281 2.730469 4.484375 2.730469 4.636719 C 2.730469 4.785156 2.855469 4.910156 3.003906 4.910156 L 5.183594 4.910156 C 5.828125 4.910156 6.226562 5.039062 6.460938 5.261719 C 6.695312 5.488281 6.820312 5.847656 6.820312 6.4375 C 6.820312 6.585938 6.941406 6.710938 7.09375 6.710938 C 7.242188 6.710938 7.363281 6.585938 7.363281 6.4375 C 7.363281 5.769531 7.214844 5.230469 6.835938 4.867188 C 6.460938 4.507812 5.902344 4.363281 5.183594 4.363281 Z M 7.640625 6.554688 L 7.640625 7.640625 L 6.546875 7.640625 L 6.546875 8.183594 L 7.640625 8.183594 L 7.640625 9.273438 L 9.277344 7.914062 Z M 3.816406 7.632812 L 3.816406 8.195312 L 4.363281 8.195312 L 4.363281 7.632812 Z M 4.917969 7.632812 L 4.917969 8.195312 L 5.992188 8.195312 L 5.992188 7.632812 Z M 4.917969 7.632812 "/>
</g>
</svg>
