<?xml version="1.0" encoding="UTF-8"?>
<svg xmlns="http://www.w3.org/2000/svg" xmlns:xlink="http://www.w3.org/1999/xlink" width="12pt" height="12pt" viewBox="0 0 12 12" version="1.1">
<g id="surface1">
<path style=" stroke:none;fill-rule:nonzero;fill:rgb(82.745098%,85.490196%,89.019608%);fill-opacity:1;" d="M 2.183594 2.183594 L 2.183594 9.816406 L 9.816406 9.816406 L 9.816406 6.546875 L 9.273438 6.546875 L 9.273438 7.636719 L 8.726562 7.636719 L 8.726562 8.183594 L 8.183594 8.183594 L 8.183594 7.089844 L 7.636719 7.089844 L 7.636719 7.636719 L 7.089844 7.636719 L 7.089844 7.089844 L 6.546875 7.089844 L 6.546875 4.910156 L 6 4.910156 L 6 3.273438 L 5.453125 3.273438 L 5.453125 2.183594 L 4.910156 2.183594 L 4.910156 3.816406 L 4.363281 3.816406 L 4.363281 4.910156 L 3.816406 4.910156 L 3.816406 6.546875 L 3.273438 6.546875 L 3.273438 3.816406 L 2.726562 3.816406 L 2.726562 2.183594 Z M 2.183594 2.183594 "/>
</g>
</svg>
