<?xml version="1.0" encoding="UTF-8"?>
<svg xmlns="http://www.w3.org/2000/svg" xmlns:xlink="http://www.w3.org/1999/xlink" width="12pt" height="12pt" viewBox="0 0 12 12" version="1.1">
<g id="surface1">
<path style=" stroke:none;fill-rule:nonzero;fill:rgb(82.745098%,85.490196%,89.019608%);fill-opacity:1;" d="M 1.636719 2.183594 L 1.636719 9.816406 C 4.546875 9.816406 7.453125 9.820312 10.363281 9.820312 L 10.363281 2.183594 C 7.453125 2.183594 4.546875 2.179688 1.636719 2.183594 Z M 4.910156 3.273438 L 4.910156 7.089844 L 2.183594 7.089844 L 2.183594 3.273438 Z M 6.546875 3.273438 L 9.816406 3.273438 L 9.816406 3.816406 L 6.546875 3.816406 Z M 6.546875 4.910156 L 9.816406 4.910156 L 9.816406 5.453125 L 6.546875 5.453125 Z M 6.546875 6.546875 L 9.816406 6.546875 L 9.816406 7.089844 L 6.546875 7.089844 Z M 2.183594 8.183594 L 9.816406 8.183594 L 9.816406 8.726562 L 2.183594 8.726562 Z M 2.183594 8.183594 "/>
</g>
</svg>
