<?xml version="1.0" encoding="UTF-8"?>
<svg xmlns="http://www.w3.org/2000/svg" xmlns:xlink="http://www.w3.org/1999/xlink" width="12pt" height="12pt" viewBox="0 0 12 12" version="1.1">
<g id="surface1">
<path style=" stroke:none;fill-rule:nonzero;fill:rgb(82.745098%,85.490196%,89.019608%);fill-opacity:1;" d="M 2.316406 3.273438 C 2.242188 3.273438 2.183594 3.335938 2.183594 3.410156 L 2.183594 4.230469 C 2.183594 4.304688 2.242188 4.367188 2.316406 4.367188 L 3.136719 4.367188 C 3.210938 4.367188 3.273438 4.304688 3.273438 4.230469 L 3.273438 3.410156 C 3.273438 3.335938 3.210938 3.273438 3.136719 3.273438 Z M 4.5 3.273438 C 4.425781 3.273438 4.363281 3.335938 4.363281 3.410156 L 4.363281 4.230469 C 4.363281 4.304688 4.425781 4.367188 4.5 4.367188 L 5.316406 4.367188 C 5.394531 4.367188 5.453125 4.304688 5.453125 4.230469 L 5.453125 3.410156 C 5.453125 3.335938 5.394531 3.273438 5.316406 3.273438 Z M 6.683594 3.273438 C 6.605469 3.273438 6.546875 3.335938 6.546875 3.410156 L 6.546875 4.230469 C 6.546875 4.304688 6.605469 4.367188 6.683594 4.367188 L 7.5 4.367188 C 7.574219 4.367188 7.636719 4.304688 7.636719 4.230469 L 7.636719 3.410156 C 7.636719 3.335938 7.574219 3.273438 7.5 3.273438 Z M 8.863281 3.273438 C 8.789062 3.273438 8.726562 3.335938 8.726562 3.410156 L 8.726562 4.230469 C 8.726562 4.304688 8.789062 4.367188 8.863281 4.367188 L 9.683594 4.367188 C 9.757812 4.367188 9.816406 4.304688 9.816406 4.230469 L 9.816406 3.410156 C 9.816406 3.335938 9.757812 3.273438 9.683594 3.273438 Z M 2.316406 5.457031 C 2.242188 5.457031 2.183594 5.515625 2.183594 5.59375 L 2.183594 6.410156 C 2.183594 6.488281 2.242188 6.546875 2.316406 6.546875 L 3.136719 6.546875 C 3.210938 6.546875 3.273438 6.488281 3.273438 6.410156 L 3.273438 5.59375 C 3.273438 5.515625 3.210938 5.457031 3.136719 5.457031 Z M 4.5 5.457031 C 4.425781 5.457031 4.363281 5.515625 4.363281 5.59375 L 4.363281 6.410156 C 4.363281 6.488281 4.425781 6.546875 4.5 6.546875 L 5.316406 6.546875 C 5.394531 6.546875 5.453125 6.488281 5.453125 6.410156 L 5.453125 5.59375 C 5.453125 5.515625 5.394531 5.457031 5.316406 5.457031 Z M 6.683594 5.457031 C 6.605469 5.457031 6.546875 5.515625 6.546875 5.59375 L 6.546875 6.410156 C 6.546875 6.488281 6.605469 6.546875 6.683594 6.546875 L 7.5 6.546875 C 7.574219 6.546875 7.636719 6.488281 7.636719 6.410156 L 7.636719 5.59375 C 7.636719 5.515625 7.574219 5.457031 7.5 5.457031 Z M 8.863281 5.457031 C 8.789062 5.457031 8.726562 5.515625 8.726562 5.59375 L 8.726562 6.410156 C 8.726562 6.488281 8.789062 6.546875 8.863281 6.546875 L 9.683594 6.546875 C 9.757812 6.546875 9.816406 6.488281 9.816406 6.410156 L 9.816406 5.59375 C 9.816406 5.515625 9.757812 5.457031 9.683594 5.457031 Z M 2.316406 7.636719 C 2.242188 7.636719 2.183594 7.699219 2.183594 7.773438 L 2.183594 8.59375 C 2.183594 8.667969 2.242188 8.730469 2.316406 8.730469 L 3.136719 8.730469 C 3.210938 8.730469 3.273438 8.667969 3.273438 8.59375 L 3.273438 7.773438 C 3.273438 7.699219 3.210938 7.636719 3.136719 7.636719 Z M 4.5 7.636719 C 4.425781 7.636719 4.363281 7.699219 4.363281 7.773438 L 4.363281 8.59375 C 4.363281 8.667969 4.425781 8.730469 4.5 8.730469 L 5.316406 8.730469 C 5.394531 8.730469 5.453125 8.667969 5.453125 8.59375 L 5.453125 7.773438 C 5.453125 7.699219 5.394531 7.636719 5.316406 7.636719 Z M 6.683594 7.636719 C 6.605469 7.636719 6.546875 7.699219 6.546875 7.773438 L 6.546875 8.59375 C 6.546875 8.667969 6.605469 8.730469 6.683594 8.730469 L 7.5 8.730469 C 7.574219 8.730469 7.636719 8.667969 7.636719 8.59375 L 7.636719 7.773438 C 7.636719 7.699219 7.574219 7.636719 7.5 7.636719 Z M 8.863281 7.636719 C 8.789062 7.636719 8.726562 7.699219 8.726562 7.773438 L 8.726562 8.59375 C 8.726562 8.667969 8.789062 8.730469 8.863281 8.730469 L 9.683594 8.730469 C 9.757812 8.730469 9.816406 8.667969 9.816406 8.59375 L 9.816406 7.773438 C 9.816406 7.699219 9.757812 7.636719 9.683594 7.636719 Z M 8.863281 7.636719 "/>
</g>
</svg>
