<?xml version="1.0" encoding="UTF-8"?>
<svg xmlns="http://www.w3.org/2000/svg" xmlns:xlink="http://www.w3.org/1999/xlink" width="12pt" height="12pt" viewBox="0 0 12 12" version="1.1">
<g id="surface1">
<path style=" stroke:none;fill-rule:nonzero;fill:rgb(82.745098%,85.490196%,89.019608%);fill-opacity:1;" d="M 7.105469 2.183594 C 7.027344 2.183594 6.941406 2.191406 6.855469 2.203125 C 6.546875 2.246094 6.175781 2.394531 5.757812 2.617188 C 4.917969 2.152344 4.261719 2.125 3.710938 2.265625 C 3.128906 2.417969 2.65625 2.664062 1.917969 2.640625 L 1.636719 2.632812 L 1.636719 10.363281 L 9.816406 10.363281 L 9.816406 2.640625 L 9.535156 2.652344 C 8.707031 2.683594 8.296875 2.433594 7.761719 2.277344 C 7.5625 2.214844 7.347656 2.175781 7.105469 2.183594 Z M 4.484375 2.722656 C 4.753906 2.746094 5.0625 2.84375 5.453125 3.058594 L 5.453125 7.820312 C 4.851562 7.46875 4.25 7.441406 3.71875 7.574219 C 3.363281 7.664062 3.039062 7.765625 2.726562 7.847656 L 2.726562 3.089844 C 3.164062 3.007812 3.53125 2.882812 3.847656 2.800781 C 3.972656 2.765625 4.097656 2.742188 4.222656 2.726562 C 4.304688 2.71875 4.390625 2.71875 4.484375 2.722656 Z M 7.273438 2.726562 C 7.386719 2.742188 7.496094 2.769531 7.609375 2.804688 C 7.898438 2.890625 8.257812 3.027344 8.726562 3.109375 L 8.726562 7.847656 C 8.417969 7.761719 8.09375 7.660156 7.738281 7.570312 C 7.207031 7.4375 6.597656 7.46875 6 7.835938 L 6 3.089844 C 6.382812 2.882812 6.679688 2.765625 6.917969 2.730469 C 7.046875 2.710938 7.164062 2.714844 7.273438 2.726562 Z M 7.273438 2.726562 "/>
</g>
</svg>
