<?xml version="1.0" encoding="UTF-8"?>
<svg xmlns="http://www.w3.org/2000/svg" xmlns:xlink="http://www.w3.org/1999/xlink" width="12pt" height="12pt" viewBox="0 0 12 12" version="1.1">
<g id="surface1">
<path style=" stroke:none;fill-rule:nonzero;fill:rgb(82.745098%,85.490196%,89.019608%);fill-opacity:1;" d="M 3.816406 2.730469 L 3.816406 4.367188 L 2.183594 4.367188 L 2.183594 5.457031 L 4.363281 5.457031 C 4.910156 5.457031 4.910156 4.910156 4.910156 4.910156 L 4.910156 2.730469 Z M 7.089844 2.730469 L 7.089844 4.910156 C 7.089844 4.910156 7.089844 5.457031 7.636719 5.457031 L 9.816406 5.457031 L 9.816406 4.367188 L 8.183594 4.367188 L 8.183594 2.730469 Z M 2.183594 6.546875 L 2.183594 7.636719 L 3.816406 7.636719 L 3.816406 9.273438 L 4.910156 9.273438 L 4.910156 7.09375 C 4.910156 7.09375 4.910156 6.546875 4.363281 6.546875 Z M 7.636719 6.546875 C 7.636719 6.546875 7.089844 6.546875 7.089844 7.09375 L 7.089844 9.273438 L 8.183594 9.273438 L 8.183594 7.636719 L 9.816406 7.636719 L 9.816406 6.546875 Z M 7.636719 6.546875 "/>
</g>
</svg>
