<?xml version="1.0" encoding="UTF-8"?>
<svg xmlns="http://www.w3.org/2000/svg" xmlns:xlink="http://www.w3.org/1999/xlink" width="12pt" height="12pt" viewBox="0 0 12 12" version="1.1">
<g id="surface1">
<path style=" stroke:none;fill-rule:nonzero;fill:rgb(82.745098%,85.490196%,89.019608%);fill-opacity:1;" d="M 3.273438 2.183594 C 2.046875 2.183594 2.183594 3.273438 2.183594 3.273438 L 2.183594 6.546875 L 3.273438 6.546875 L 3.273438 4.910156 L 5.453125 4.910156 L 5.453125 3.816406 L 3.273438 3.816406 L 3.273438 3.273438 L 8.726562 3.273438 L 8.726562 5.453125 L 5.453125 5.453125 L 5.453125 6.546875 L 9.816406 6.546875 L 9.816406 3.273438 C 9.816406 2.183594 8.726562 2.183594 8.726562 2.183594 Z M 2.652344 7.089844 C 2.125 7.089844 2.183594 7.558594 2.183594 7.558594 L 2.183594 10.363281 L 5.453125 10.363281 L 5.453125 7.558594 C 5.453125 7.089844 4.988281 7.089844 4.988281 7.089844 Z M 8.183594 7.089844 L 8.183594 8.183594 L 7.089844 8.183594 L 7.089844 9.273438 L 8.183594 9.273438 L 8.183594 10.363281 L 9.273438 10.363281 L 9.273438 9.273438 L 10.363281 9.273438 L 10.363281 8.183594 L 9.273438 8.183594 L 9.273438 7.089844 Z M 8.183594 7.089844 "/>
</g>
</svg>
