<?xml version="1.0" encoding="UTF-8"?>
<svg xmlns="http://www.w3.org/2000/svg" xmlns:xlink="http://www.w3.org/1999/xlink" width="12pt" height="12pt" viewBox="0 0 12 12" version="1.1">
<g id="surface1">
<path style=" stroke:none;fill-rule:nonzero;fill:rgb(82.745098%,85.490196%,89.019608%);fill-opacity:1;" d="M 2.183594 2.183594 L 2.183594 9.273438 L 3.273438 9.273438 L 3.273438 2.183594 Z M 3.816406 2.183594 L 3.816406 5.457031 L 4.363281 5.457031 L 4.363281 2.183594 Z M 4.910156 2.183594 L 4.910156 9.273438 L 5.453125 9.273438 L 5.453125 2.183594 Z M 6 2.183594 L 6 6.546875 L 6.546875 6.546875 L 6.546875 2.183594 Z M 7.089844 2.183594 L 7.089844 5.457031 L 7.636719 5.457031 L 7.636719 2.183594 Z M 8.183594 2.183594 L 8.183594 5.457031 L 9.816406 5.457031 L 9.816406 2.183594 Z M 7.636719 6.003906 C 7.335938 6.003906 7.089844 6.246094 7.089844 6.546875 L 7.089844 7.09375 L 6.546875 7.09375 C 6.246094 7.09375 6 7.335938 6 7.636719 L 6 8.183594 C 6 8.484375 6.246094 8.730469 6.546875 8.730469 L 7.089844 8.730469 L 7.089844 9.273438 C 7.089844 9.574219 7.335938 9.820312 7.636719 9.820312 L 8.183594 9.820312 C 8.484375 9.820312 8.726562 9.574219 8.726562 9.273438 L 8.726562 8.730469 L 9.273438 8.730469 C 9.574219 8.730469 9.816406 8.484375 9.816406 8.183594 L 9.816406 7.636719 C 9.816406 7.335938 9.574219 7.09375 9.273438 7.09375 L 8.726562 7.09375 L 8.726562 6.546875 C 8.726562 6.246094 8.484375 6.003906 8.183594 6.003906 Z M 7.636719 6.003906 "/>
</g>
</svg>
