<?xml version="1.0" encoding="UTF-8"?>
<svg xmlns="http://www.w3.org/2000/svg" xmlns:xlink="http://www.w3.org/1999/xlink" width="12pt" height="12pt" viewBox="0 0 12 12" version="1.1">
<g id="surface1">
<path style=" stroke:none;fill-rule:nonzero;fill:rgb(82.745098%,85.490196%,89.019608%);fill-opacity:1;" d="M 2.863281 3.820312 C 2.789062 3.820312 2.726562 3.882812 2.726562 3.957031 L 2.726562 4.773438 C 2.726562 4.851562 2.789062 4.910156 2.863281 4.910156 L 3.683594 4.910156 C 3.757812 4.910156 3.816406 4.851562 3.816406 4.773438 L 3.816406 3.957031 C 3.816406 3.882812 3.757812 3.820312 3.683594 3.820312 Z M 4.5 3.820312 C 4.425781 3.820312 4.363281 3.882812 4.363281 3.957031 L 4.363281 4.773438 C 4.363281 4.851562 4.425781 4.910156 4.5 4.910156 L 5.316406 4.910156 C 5.394531 4.910156 5.453125 4.851562 5.453125 4.773438 L 5.453125 3.957031 C 5.453125 3.882812 5.394531 3.820312 5.316406 3.820312 Z M 6.136719 3.820312 C 6.0625 3.820312 6 3.882812 6 3.957031 L 6 4.773438 C 6 4.851562 6.0625 4.910156 6.136719 4.910156 L 6.953125 4.910156 C 7.03125 4.910156 7.089844 4.851562 7.089844 4.773438 L 7.089844 3.957031 C 7.089844 3.882812 7.03125 3.820312 6.953125 3.820312 Z M 7.773438 3.820312 C 7.695312 3.820312 7.636719 3.882812 7.636719 3.957031 L 7.636719 4.773438 C 7.636719 4.851562 7.695312 4.910156 7.773438 4.910156 L 8.589844 4.910156 C 8.667969 4.910156 8.726562 4.851562 8.726562 4.773438 L 8.726562 3.957031 C 8.726562 3.882812 8.667969 3.820312 8.589844 3.820312 Z M 2.863281 5.457031 C 2.789062 5.457031 2.726562 5.515625 2.726562 5.59375 L 2.726562 6.410156 C 2.726562 6.488281 2.789062 6.546875 2.863281 6.546875 L 3.683594 6.546875 C 3.757812 6.546875 3.816406 6.488281 3.816406 6.410156 L 3.816406 5.59375 C 3.816406 5.515625 3.757812 5.457031 3.683594 5.457031 Z M 4.5 5.457031 C 4.425781 5.457031 4.363281 5.515625 4.363281 5.59375 L 4.363281 6.410156 C 4.363281 6.488281 4.425781 6.546875 4.5 6.546875 L 5.316406 6.546875 C 5.394531 6.546875 5.453125 6.488281 5.453125 6.410156 L 5.453125 5.59375 C 5.453125 5.515625 5.394531 5.457031 5.316406 5.457031 Z M 6.136719 5.457031 C 6.0625 5.457031 6 5.515625 6 5.59375 L 6 6.410156 C 6 6.488281 6.0625 6.546875 6.136719 6.546875 L 6.953125 6.546875 C 7.03125 6.546875 7.089844 6.488281 7.089844 6.410156 L 7.089844 5.59375 C 7.089844 5.515625 7.03125 5.457031 6.953125 5.457031 Z M 7.773438 5.457031 C 7.695312 5.457031 7.636719 5.515625 7.636719 5.59375 L 7.636719 6.410156 C 7.636719 6.488281 7.695312 6.546875 7.773438 6.546875 L 8.589844 6.546875 C 8.667969 6.546875 8.726562 6.488281 8.726562 6.410156 L 8.726562 5.59375 C 8.726562 5.515625 8.667969 5.457031 8.589844 5.457031 Z M 2.863281 7.09375 C 2.789062 7.09375 2.726562 7.152344 2.726562 7.230469 L 2.726562 8.046875 C 2.726562 8.125 2.789062 8.183594 2.863281 8.183594 L 3.683594 8.183594 C 3.757812 8.183594 3.816406 8.125 3.816406 8.046875 L 3.816406 7.230469 C 3.816406 7.152344 3.757812 7.09375 3.683594 7.09375 Z M 4.5 7.09375 C 4.425781 7.09375 4.363281 7.152344 4.363281 7.230469 L 4.363281 8.046875 C 4.363281 8.125 4.425781 8.183594 4.5 8.183594 L 5.316406 8.183594 C 5.394531 8.183594 5.453125 8.125 5.453125 8.046875 L 5.453125 7.230469 C 5.453125 7.152344 5.394531 7.09375 5.316406 7.09375 Z M 6.136719 7.09375 C 6.0625 7.09375 6 7.152344 6 7.230469 L 6 8.046875 C 6 8.125 6.0625 8.183594 6.136719 8.183594 L 6.953125 8.183594 C 7.03125 8.183594 7.089844 8.125 7.089844 8.046875 L 7.089844 7.230469 C 7.089844 7.152344 7.03125 7.09375 6.953125 7.09375 Z M 7.773438 7.09375 C 7.695312 7.09375 7.636719 7.152344 7.636719 7.230469 L 7.636719 8.046875 C 7.636719 8.125 7.695312 8.183594 7.773438 8.183594 L 8.589844 8.183594 C 8.667969 8.183594 8.726562 8.125 8.726562 8.046875 L 8.726562 7.230469 C 8.726562 7.152344 8.667969 7.09375 8.589844 7.09375 Z M 7.773438 7.09375 "/>
</g>
</svg>
