<?xml version="1.0" encoding="UTF-8"?>
<svg xmlns="http://www.w3.org/2000/svg" xmlns:xlink="http://www.w3.org/1999/xlink" width="12pt" height="12pt" viewBox="0 0 12 12" version="1.1">
<g id="surface1">
<path style=" stroke:none;fill-rule:nonzero;fill:rgb(82.745098%,85.490196%,89.019608%);fill-opacity:1;" d="M 5.453125 2.183594 L 1.636719 6 L 2.726562 6 L 2.726562 9.816406 L 7.296875 9.816406 C 7.167969 9.558594 7.089844 9.269531 7.089844 8.960938 C 7.089844 8.199219 7.539062 7.550781 8.183594 7.238281 L 8.183594 6 L 9.273438 6 Z M 5.453125 4.910156 C 6.058594 4.910156 6.546875 5.398438 6.546875 6 C 6.546875 6.601562 6.058594 7.089844 5.453125 7.089844 C 7.089844 7.089844 7.089844 8.398438 7.089844 8.398438 L 7.089844 8.726562 L 3.816406 8.726562 L 3.816406 8.398438 C 3.816406 8.398438 3.816406 7.09375 5.453125 7.089844 C 4.851562 7.089844 4.363281 6.601562 4.363281 6 C 4.363281 5.398438 4.851562 4.910156 5.453125 4.910156 Z M 9 7.089844 L 9 7.558594 C 8.246094 7.558594 7.636719 8.1875 7.636719 8.960938 C 7.636719 9.734375 8.246094 10.363281 9 10.363281 C 9.746094 10.363281 10.351562 9.746094 10.363281 8.984375 C 10.363281 8.976562 10.363281 8.96875 10.363281 8.960938 C 10.363281 8.832031 10.261719 8.726562 10.136719 8.726562 C 10.078125 8.726562 10.019531 8.75 9.976562 8.796875 C 9.933594 8.839844 9.910156 8.898438 9.910156 8.960938 C 9.910156 9.476562 9.503906 9.894531 9 9.894531 C 8.496094 9.894531 8.089844 9.476562 8.089844 8.960938 C 8.089844 8.445312 8.496094 8.027344 9 8.027344 L 9 8.492188 L 9.910156 7.792969 Z M 9 7.089844 "/>
</g>
</svg>
