<?xml version="1.0" encoding="UTF-8"?>
<svg xmlns="http://www.w3.org/2000/svg" xmlns:xlink="http://www.w3.org/1999/xlink" width="12pt" height="12pt" viewBox="0 0 12 12" version="1.1">
<g id="surface1">
<path style=" stroke:none;fill-rule:nonzero;fill:rgb(82.745098%,85.490196%,89.019608%);fill-opacity:1;" d="M 5.453125 2.183594 L 1.636719 6 L 2.726562 6 L 2.726562 9.816406 L 8.183594 9.816406 L 8.183594 6 L 9.273438 6 Z M 5.453125 4.910156 C 6.058594 4.910156 6.546875 5.398438 6.546875 6 C 6.546875 6.601562 6.058594 7.089844 5.453125 7.089844 C 7.089844 7.089844 7.089844 8.398438 7.089844 8.398438 L 7.089844 8.726562 L 3.816406 8.726562 L 3.816406 8.398438 C 3.816406 8.398438 3.816406 7.09375 5.453125 7.089844 C 4.851562 7.089844 4.363281 6.601562 4.363281 6 C 4.363281 5.398438 4.851562 4.910156 5.453125 4.910156 Z M 9.273438 7.636719 L 9.273438 8.726562 L 8.726562 8.726562 L 9.546875 10.363281 L 10.363281 8.726562 L 9.816406 8.726562 L 9.816406 7.636719 Z M 9.273438 7.636719 "/>
</g>
</svg>
