<?xml version="1.0" encoding="UTF-8"?>
<svg xmlns="http://www.w3.org/2000/svg" xmlns:xlink="http://www.w3.org/1999/xlink" width="12pt" height="12pt" viewBox="0 0 12 12" version="1.1">
<g id="surface1">
<path style=" stroke:none;fill-rule:nonzero;fill:rgb(82.745098%,85.490196%,89.019608%);fill-opacity:1;" d="M 2.726562 2.183594 C 2.726562 2.183594 2.6875 2.183594 2.628906 2.195312 C 2.515625 2.210938 2.433594 2.25 2.371094 2.304688 C 2.359375 2.316406 2.347656 2.324219 2.335938 2.335938 C 2.324219 2.347656 2.316406 2.359375 2.304688 2.371094 C 2.25 2.433594 2.210938 2.515625 2.195312 2.628906 C 2.183594 2.6875 2.183594 2.726562 2.183594 2.726562 L 2.183594 9.273438 C 2.183594 9.816406 2.730469 9.816406 2.730469 9.816406 L 9.273438 9.816406 C 9.273438 9.816406 9.820312 9.816406 9.820312 9.273438 L 9.820312 2.726562 C 9.820312 2.726562 9.816406 2.6875 9.808594 2.628906 C 9.792969 2.515625 9.75 2.433594 9.695312 2.371094 C 9.6875 2.359375 9.675781 2.347656 9.667969 2.335938 C 9.65625 2.324219 9.644531 2.316406 9.632812 2.304688 C 9.570312 2.25 9.484375 2.210938 9.375 2.195312 C 9.320312 2.183594 9.277344 2.183594 9.277344 2.183594 Z M 3.816406 4.363281 L 5.453125 4.363281 L 5.453125 7.636719 L 3.816406 7.636719 Z M 6 4.910156 L 8.183594 4.910156 L 8.183594 5.453125 L 6 5.453125 Z M 6 6.546875 L 8.183594 6.546875 L 8.183594 7.089844 L 6 7.089844 Z M 6 6.546875 "/>
</g>
</svg>
