<?xml version="1.0" encoding="UTF-8"?>
<svg xmlns="http://www.w3.org/2000/svg" xmlns:xlink="http://www.w3.org/1999/xlink" width="12pt" height="12pt" viewBox="0 0 12 12" version="1.1">
<g id="surface1">
<path style=" stroke:none;fill-rule:nonzero;fill:rgb(82.745098%,85.490196%,89.019608%);fill-opacity:1;" d="M 1.636719 2.183594 L 1.636719 9.816406 C 4.546875 9.816406 7.453125 9.820312 10.363281 9.820312 L 10.363281 2.183594 C 7.453125 2.183594 4.546875 2.179688 1.636719 2.183594 Z M 4.363281 4.363281 C 4.964844 4.363281 5.453125 4.851562 5.453125 5.453125 C 5.453125 6.058594 4.964844 6.546875 4.363281 6.546875 C 3.761719 6.546875 3.273438 6.058594 3.273438 5.453125 C 3.273438 4.851562 3.761719 4.363281 4.363281 4.363281 Z M 4.363281 7.089844 C 6.546875 7.089844 6.546875 8.398438 6.546875 8.398438 L 6.546875 8.726562 L 2.183594 8.726562 L 2.183594 8.398438 C 2.183594 8.398438 2.183594 7.09375 4.363281 7.089844 Z M 4.363281 7.089844 "/>
</g>
</svg>
