<?xml version="1.0" encoding="UTF-8"?>
<svg xmlns="http://www.w3.org/2000/svg" xmlns:xlink="http://www.w3.org/1999/xlink" width="12pt" height="12pt" viewBox="0 0 12 12" version="1.1">
<g id="surface1">
<path style=" stroke:none;fill-rule:nonzero;fill:rgb(82.745098%,85.490196%,89.019608%);fill-opacity:1;" d="M 3.449219 2.597656 C 2.976562 2.597656 2.597656 2.976562 2.597656 3.449219 L 2.597656 8.550781 C 2.597656 9.023438 2.976562 9.402344 3.449219 9.402344 L 8.550781 9.402344 C 9.023438 9.402344 9.402344 9.023438 9.402344 8.550781 L 9.402344 3.449219 C 9.402344 2.976562 9.023438 2.597656 8.550781 2.597656 Z M 4.722656 4.300781 L 7.277344 4.300781 C 7.511719 4.300781 7.699219 4.488281 7.699219 4.722656 L 7.699219 7.277344 C 7.699219 7.511719 7.511719 7.699219 7.277344 7.699219 L 4.722656 7.699219 C 4.488281 7.699219 4.300781 7.511719 4.300781 7.277344 L 4.300781 4.722656 C 4.300781 4.488281 4.488281 4.300781 4.722656 4.300781 Z M 4.722656 4.300781 "/>
</g>
</svg>
