<?xml version="1.0" encoding="UTF-8"?>
<svg xmlns="http://www.w3.org/2000/svg" xmlns:xlink="http://www.w3.org/1999/xlink" width="12pt" height="12pt" viewBox="0 0 12 12" version="1.1">
<g id="surface1">
<path style=" stroke:none;fill-rule:nonzero;fill:rgb(82.745098%,85.490196%,89.019608%);fill-opacity:1;" d="M 6.546875 2.726562 L 6.546875 3.816406 L 8.183594 3.816406 L 8.183594 5.453125 L 9.273438 5.453125 L 9.273438 3.390625 C 9.273438 3.027344 8.988281 2.726562 8.625 2.726562 Z M 2.726562 2.726562 L 2.726562 6 L 6 6 L 6 2.726562 Z M 7.089844 6 L 7.089844 7.636719 L 6 7.636719 L 7.636719 9.273438 L 9.273438 7.636719 L 8.183594 7.636719 L 8.183594 6 Z M 2.726562 6.542969 L 2.726562 8.605469 C 2.726562 8.972656 3.011719 9.273438 3.375 9.273438 L 5.453125 9.273438 L 5.453125 8.179688 L 3.816406 8.179688 L 3.816406 6.542969 Z M 2.726562 6.542969 "/>
</g>
</svg>
