<?xml version="1.0" encoding="UTF-8"?>
<svg xmlns="http://www.w3.org/2000/svg" xmlns:xlink="http://www.w3.org/1999/xlink" width="12pt" height="12pt" viewBox="0 0 12 12" version="1.1">
<g id="surface1">
<path style=" stroke:none;fill-rule:nonzero;fill:rgb(82.745098%,85.490196%,89.019608%);fill-opacity:1;" d="M 3.390625 2.726562 C 3.027344 2.726562 2.726562 3.011719 2.726562 3.375 L 2.726562 5.453125 L 3.816406 5.453125 L 3.816406 3.816406 L 5.453125 3.816406 L 5.453125 2.726562 Z M 6.542969 2.726562 L 6.542969 3.816406 L 8.179688 3.816406 L 8.179688 5.453125 L 9.273438 5.453125 L 9.273438 3.375 C 9.273438 3.011719 8.972656 2.726562 8.605469 2.726562 Z M 6 4.363281 L 4.363281 6 L 6 7.636719 L 6 6.546875 L 7.636719 6.546875 L 7.636719 5.453125 L 6 5.453125 Z M 2.726562 6.546875 L 2.726562 8.625 C 2.726562 8.988281 3.027344 9.273438 3.390625 9.273438 L 5.453125 9.273438 L 5.453125 8.183594 L 3.816406 8.183594 L 3.816406 6.546875 Z M 8.179688 6.546875 L 8.179688 8.183594 L 6.542969 8.183594 L 6.542969 9.273438 L 8.605469 9.273438 C 8.972656 9.273438 9.273438 8.988281 9.273438 8.625 L 9.273438 6.546875 Z M 8.179688 6.546875 "/>
</g>
</svg>
