<?xml version="1.0" encoding="UTF-8" standalone="no"?>
<svg
   xmlns:dc="http://purl.org/dc/elements/1.1/"
   xmlns:cc="http://creativecommons.org/ns#"
   xmlns:rdf="http://www.w3.org/1999/02/22-rdf-syntax-ns#"
   xmlns:svg="http://www.w3.org/2000/svg"
   xmlns="http://www.w3.org/2000/svg"
   xmlns:sodipodi="http://sodipodi.sourceforge.net/DTD/sodipodi-0.dtd"
   xmlns:inkscape="http://www.inkscape.org/namespaces/inkscape"
   height="32"
   width="32"
   version="1"
   id="svg22"
   sodipodi:docname="user-trash-full.svg"
   inkscape:version="0.92.1 r">
  <metadata
     id="metadata28">
    <rdf:RDF>
      <cc:Work
         rdf:about="">
        <dc:format>image/svg+xml</dc:format>
        <dc:type
           rdf:resource="http://purl.org/dc/dcmitype/StillImage" />
      </cc:Work>
    </rdf:RDF>
  </metadata>
  <defs
     id="defs26" />
  <sodipodi:namedview
     pagecolor="#ffffff"
     bordercolor="#666666"
     borderopacity="1"
     objecttolerance="10"
     gridtolerance="10"
     guidetolerance="10"
     inkscape:pageopacity="0"
     inkscape:pageshadow="2"
     inkscape:window-width="1680"
     inkscape:window-height="965"
     id="namedview24"
     showgrid="false"
     inkscape:zoom="7.375"
     inkscape:cx="-8.6779661"
     inkscape:cy="16"
     inkscape:window-x="0"
     inkscape:window-y="0"
     inkscape:window-maximized="1"
     inkscape:current-layer="svg22" />
  <rect
     style="opacity:1;fill:#ba4242;fill-opacity:1;fill-rule:evenodd;stroke:none;stroke-width:1.03534329;stroke-linecap:round;stroke-linejoin:bevel;stroke-miterlimit:4;stroke-dasharray:none;stroke-dashoffset:0;stroke-opacity:1"
     id="rect4497-3"
     width="28.203388"
     height="28.203388"
     x="1.8983059"
     y="1.8983059"
     ry="5.575182" />
  <path
     d="m 13.209909,6.2346808 v 0.6975228 h -5.27093 c -0.558001,0 -1.006776,0.4666428 -1.006776,1.0462842 v 2.0925682 c 0,0.579642 0.448775,1.046284 1.006776,1.046284 h 0.38827 V 24.6986 c 0,0.590848 0.456234,1.066719 1.023124,1.066719 h 13.299254 c 0.566889,0 1.023124,-0.475871 1.023124,-1.066719 V 11.11734 h 0.38827 c 0.558001,0 1.006776,-0.466642 1.006776,-1.046284 V 7.9784878 c 0,-0.5796414 -0.448775,-1.0462842 -1.006776,-1.0462842 h -5.27093 V 6.2346808 Z M 11.11734,13.907432 h 1.395046 c 0.386428,0 0.697523,0.217221 0.697523,0.487721 v 8.789877 c 0,0.270499 -0.311095,0.487721 -0.697523,0.487721 H 11.11734 c -0.386427,0 -0.697523,-0.217222 -0.697523,-0.487721 v -8.789877 c 0,-0.2705 0.311096,-0.487721 0.697523,-0.487721 z m 4.185137,0 h 1.395046 c 0.386427,0 0.697523,0.217221 0.697523,0.487721 v 8.789877 c 0,0.270499 -0.311096,0.487721 -0.697523,0.487721 h -1.395046 c -0.386427,0 -0.697523,-0.217222 -0.697523,-0.487721 v -8.789877 c 0,-0.2705 0.311096,-0.487721 0.697523,-0.487721 z m 4.185137,0 h 1.395046 c 0.386427,0 0.697523,0.217221 0.697523,0.487721 v 8.789877 c 0,0.270499 -0.311096,0.487721 -0.697523,0.487721 h -1.395046 c -0.386428,0 -0.697523,-0.217222 -0.697523,-0.487721 v -8.789877 c 0,-0.2705 0.311095,-0.487721 0.697523,-0.487721 z"
     id="rect2"
     style="fill:#ffffff;stroke-width:0.69752282"
     inkscape:connector-curvature="0" />
</svg>
