<?xml version="1.0" encoding="UTF-8" standalone="no"?>
<svg
   xmlns:dc="http://purl.org/dc/elements/1.1/"
   xmlns:cc="http://creativecommons.org/ns#"
   xmlns:rdf="http://www.w3.org/1999/02/22-rdf-syntax-ns#"
   xmlns:svg="http://www.w3.org/2000/svg"
   xmlns="http://www.w3.org/2000/svg"
   xmlns:sodipodi="http://sodipodi.sourceforge.net/DTD/sodipodi-0.dtd"
   xmlns:inkscape="http://www.inkscape.org/namespaces/inkscape"
   width="32"
   height="32"
   version="1"
   id="svg18"
   sodipodi:docname="laptop-connected.svg"
   inkscape:version="0.92.1 r">
  <metadata
     id="metadata24">
    <rdf:RDF>
      <cc:Work
         rdf:about="">
        <dc:format>image/svg+xml</dc:format>
        <dc:type
           rdf:resource="http://purl.org/dc/dcmitype/StillImage" />
      </cc:Work>
    </rdf:RDF>
  </metadata>
  <defs
     id="defs22" />
  <sodipodi:namedview
     pagecolor="#ffffff"
     bordercolor="#666666"
     borderopacity="1"
     objecttolerance="10"
     gridtolerance="10"
     guidetolerance="10"
     inkscape:pageopacity="0"
     inkscape:pageshadow="2"
     inkscape:window-width="640"
     inkscape:window-height="480"
     id="namedview20"
     showgrid="false"
     inkscape:zoom="8.9375"
     inkscape:cx="-5.2587413"
     inkscape:cy="16"
     inkscape:current-layer="svg18" />
  <rect
     style="opacity:1;fill:#8e8e8e;fill-opacity:1;fill-rule:evenodd;stroke:none;stroke-width:1.03534329;stroke-linecap:round;stroke-linejoin:bevel;stroke-miterlimit:4;stroke-dasharray:none;stroke-dashoffset:0;stroke-opacity:1"
     id="rect4497-3"
     width="28.203388"
     height="28.203388"
     x="1.8983059"
     y="1.8983059"
     ry="5.575182" />
  <g
     id="g4526"
     transform="translate(41.846152,0.86365451)">
    <rect
       ry="2.2780724"
       y="6.8747711"
       x="-37.42062"
       height="15.565144"
       width="23.148935"
       id="rect4485"
       style="opacity:1;fill:#666666;fill-opacity:1;fill-rule:nonzero;stroke:none;stroke-width:10.04598427;stroke-linecap:round;stroke-linejoin:bevel;stroke-miterlimit:4;stroke-dasharray:none;stroke-dashoffset:0;stroke-opacity:1" />
    <rect
       rx="1.0576402"
       ry="1.0576402"
       y="23.072849"
       x="-37.42062"
       height="2.1152804"
       width="23.148935"
       id="rect4485-6"
       style="opacity:1;fill:#666666;fill-opacity:1;fill-rule:nonzero;stroke:none;stroke-width:10.04598427;stroke-linecap:round;stroke-linejoin:bevel;stroke-miterlimit:4;stroke-dasharray:none;stroke-dashoffset:0;stroke-opacity:1" />
  </g>
  <path
     style="fill:#a4ca39;stroke-width:0.99999994"
     d="m 14.071991,9.8753634 c -0.02526,-0.006 -0.05149,-0.0019 -0.07362,0.0137 -0.04471,0.02893 -0.05302,0.09263 -0.01883,0.1404046 l 0.566759,0.808189 c -0.900789,0.411163 -1.534012,1.369867 -1.614666,2.280736 h 6.136754 c -0.08061,-0.910408 -0.711181,-1.870977 -1.61124,-2.280736 l 0.566759,-0.808189 c 0.03419,-0.04778 0.02413,-0.1097206 -0.01884,-0.1404046 -0.04471,-0.03068 -0.107927,-0.01525 -0.142118,0.03253 l -0.587307,0.8390086 c -0.388807,-0.150789 -0.820243,-0.23458 -1.273924,-0.23458 -0.453682,0 -0.885556,0.08379 -1.273925,0.23458 L 14.138779,9.9215934 c -0.01709,-0.02389 -0.04152,-0.0402 -0.06678,-0.04623 z m 0.63525,1.7447966 c 0.188486,0 0.339028,0.148953 0.339028,0.332179 0,0.183226 -0.152734,0.333892 -0.339028,0.333892 -0.188486,0 -0.340741,-0.148913 -0.340741,-0.333892 0,-0.183226 0.152693,-0.332179 0.340741,-0.332179 z m 2.630038,0 c 0.186732,0 0.339027,0.148953 0.339027,0.332179 0,0.183226 -0.152733,0.333892 -0.339027,0.333892 -0.188486,0 -0.340741,-0.148913 -0.340741,-0.333892 0,-0.183226 0.152693,-0.332179 0.340741,-0.332179 z m -4.403944,2.37491 v 4.205211 c 0,0.301578 0.140269,0.616415 0.43834,0.616415 h 1.313306 v 1.479396 c 0,0.393629 0,0.712302 0.43834,0.712302 0.438339,0 0.440052,-0.318673 0.440052,-0.712302 v -1.479396 h 0.876679 v 1.479396 c 0,0.393629 -0.03421,0.712302 0.436627,0.712302 0.43834,0 0.43834,-0.218787 0.43834,-0.712302 v -1.479396 h 1.318443 c 0.296318,0 0.43834,-0.315298 0.43834,-0.616415 V 13.99507 Z m -1.296183,0.0017 c -0.458407,-0.0012 -0.458888,0.330852 -0.458888,0.7397 v 2.023788 c 0,0.409287 4.81e-4,0.744467 0.458888,0.743122 0.418272,-0.0012 0.417792,-0.334274 0.417792,-0.743122 V 14.73647 c 0,-0.409286 4.8e-4,-0.740925 -0.417792,-0.739698 z m 8.72741,0 c -0.419472,-0.0012 -0.419505,0.330852 -0.419505,0.7397 v 2.023788 c 0,0.409287 3.3e-5,0.744248 0.419505,0.743122 0.457207,-0.0012 0.457174,-0.334274 0.457174,-0.743122 V 14.73647 c 0,-0.409286 3.3e-5,-0.740925 -0.457174,-0.739698 z"
     id="path16"
     inkscape:connector-curvature="0" />
</svg>
