<?xml version="1.0" encoding="UTF-8" standalone="no"?>
<svg
   xmlns:dc="http://purl.org/dc/elements/1.1/"
   xmlns:cc="http://creativecommons.org/ns#"
   xmlns:rdf="http://www.w3.org/1999/02/22-rdf-syntax-ns#"
   xmlns:svg="http://www.w3.org/2000/svg"
   xmlns="http://www.w3.org/2000/svg"
   xmlns:sodipodi="http://sodipodi.sourceforge.net/DTD/sodipodi-0.dtd"
   xmlns:inkscape="http://www.inkscape.org/namespaces/inkscape"
   width="32"
   height="32"
   version="1"
   id="svg12"
   sodipodi:docname="online.svg"
   inkscape:version="0.92.2 2405546, 2018-03-11">
  <metadata
     id="metadata18">
    <rdf:RDF>
      <cc:Work
         rdf:about="">
        <dc:format>image/svg+xml</dc:format>
        <dc:type
           rdf:resource="http://purl.org/dc/dcmitype/StillImage" />
      </cc:Work>
    </rdf:RDF>
  </metadata>
  <defs
     id="defs16" />
  <sodipodi:namedview
     pagecolor="#ffffff"
     bordercolor="#666666"
     borderopacity="1"
     objecttolerance="10"
     gridtolerance="10"
     guidetolerance="10"
     inkscape:pageopacity="0"
     inkscape:pageshadow="2"
     inkscape:window-width="1680"
     inkscape:window-height="972"
     id="namedview14"
     showgrid="false"
     inkscape:zoom="7.375"
     inkscape:cx="-55.18644"
     inkscape:cy="16"
     inkscape:window-x="0"
     inkscape:window-y="0"
     inkscape:window-maximized="1"
     inkscape:current-layer="svg12" />
  <rect
     style="opacity:1;fill:#4795d1;fill-opacity:1;fill-rule:evenodd;stroke:none;stroke-width:1.03534329;stroke-linecap:round;stroke-linejoin:bevel;stroke-miterlimit:4;stroke-dasharray:none;stroke-dashoffset:0;stroke-opacity:1"
     id="rect4497-3"
     width="28.203388"
     height="28.203388"
     x="1.8983059"
     y="1.8983059"
     ry="5.575182" />
  <path
     style="fill:#ffffff;fill-opacity:1;stroke-width:1.08135593"
     d="M 16,5.1864408 C 10.027826,5.1864408 5.1864407,10.027826 5.1864407,16 5.1864407,21.972174 10.027826,26.813559 16,26.813559 21.972174,26.813559 26.813559,21.972174 26.813559,16 26.813559,10.027826 21.972174,5.1864408 16,5.1864408 Z m -1.011659,2.156376 c 0.117658,-0.012317 0.265674,0.00703 0.384388,0 0.01407,0.056274 -0.08335,0.258178 -0.217538,0.5512374 -0.854505,1.8667319 -0.904987,4.0524118 -0.111938,5.2209218 0.143513,0.211858 0.274564,0.413099 0.274564,0.439301 0,0.02621 -0.15448,0.05491 -0.329476,0.05491 -0.410807,10e-7 -0.800274,-0.249621 -1.594577,-0.878602 -0.35286,-0.279411 -0.810706,-0.513603 -0.988428,-0.549125 -0.279077,-0.05576 -0.352829,-0.0316 -0.713864,0.329476 -0.335907,0.335852 -0.4393,0.518337 -0.4393,0.8258 0,1.165943 1.385029,2.090418 3.957931,2.635805 3.494103,0.740554 4.353653,1.404631 4.450034,3.241956 0.121007,2.303955 -1.104421,4.040747 -3.791083,5.38566 -0.320671,0.160573 -0.524408,0.224791 -0.658951,0.276674 -0.05963,-0.0053 -0.107411,0.0053 -0.16685,0 -0.02286,-0.07123 -0.05491,-0.235999 -0.05491,-0.549125 0,-1.2237 -0.481277,-2.484779 -1.208077,-3.189156 -0.195095,-0.189099 -0.740287,-0.589024 -1.208078,-0.878601 -0.467774,-0.28956 -0.940279,-0.625263 -1.045452,-0.768776 -0.17425,-0.238151 -0.186713,-0.383739 -0.0528,-0.82369 0.24404,-0.803516 0.533554,-1.253728 1.098252,-1.761427 0.296049,-0.266166 0.593367,-0.486803 0.658951,-0.492102 0.06561,-0.0053 -0.377479,-0.140461 -1.04334,-0.276675 C 11.52197,16.000802 10.545561,15.715501 10.041981,15.533241 9.121137,15.200049 7.8780459,14.499814 7.4040649,13.993578 7.3840274,13.972113 7.3665635,13.957666 7.3491536,13.938666 8.0282581,11.23354 9.9338117,9.0174067 12.460249,7.9489687 12.988876,7.7253789 13.53449,7.5724157 14.10974,7.4547544 c 0.286535,-0.058566 0.582745,-0.081859 0.878601,-0.1119376 z m 8.245339,4.1226692 c 0.206566,0.127685 0.987547,1.816936 1.210189,2.640029 0.287445,1.062617 0.26664,2.900221 0,3.95582 -0.101485,0.401767 -0.23341,0.77691 -0.276675,0.823689 -0.04326,0.04678 -0.201934,-0.219941 -0.386501,-0.547015 -0.184578,-0.327022 -0.770908,-1.022681 -1.260877,-1.539664 -1.414278,-1.49235 -1.637867,-2.270584 -1.045452,-3.461607 0.29876,-0.600594 1.599446,-1.969915 1.759316,-1.871252 z"
     id="path10"
     inkscape:connector-curvature="0" />
</svg>
