<?xml version="1.0" encoding="UTF-8" standalone="no"?>
<svg
   xmlns:dc="http://purl.org/dc/elements/1.1/"
   xmlns:cc="http://creativecommons.org/ns#"
   xmlns:rdf="http://www.w3.org/1999/02/22-rdf-syntax-ns#"
   xmlns:svg="http://www.w3.org/2000/svg"
   xmlns="http://www.w3.org/2000/svg"
   xmlns:sodipodi="http://sodipodi.sourceforge.net/DTD/sodipodi-0.dtd"
   xmlns:inkscape="http://www.inkscape.org/namespaces/inkscape"
   width="32"
   height="32"
   version="1"
   id="svg12"
   sodipodi:docname="seahorse-symbolic.svg"
   inkscape:version="0.92.2 2405546, 2018-03-11">
  <metadata
     id="metadata18">
    <rdf:RDF>
      <cc:Work
         rdf:about="">
        <dc:format>image/svg+xml</dc:format>
        <dc:type
           rdf:resource="http://purl.org/dc/dcmitype/StillImage" />
        <dc:title />
      </cc:Work>
    </rdf:RDF>
  </metadata>
  <defs
     id="defs16" />
  <sodipodi:namedview
     pagecolor="#ffffff"
     bordercolor="#666666"
     borderopacity="1"
     objecttolerance="10"
     gridtolerance="10"
     guidetolerance="10"
     inkscape:pageopacity="0"
     inkscape:pageshadow="2"
     inkscape:window-width="1680"
     inkscape:window-height="972"
     id="namedview14"
     showgrid="false"
     inkscape:zoom="7.375"
     inkscape:cx="6.6440677"
     inkscape:cy="14.101695"
     inkscape:window-x="0"
     inkscape:window-y="0"
     inkscape:window-maximized="1"
     inkscape:current-layer="svg12" />
  <rect
     style="opacity:1;fill:#4bae4f;fill-opacity:1;fill-rule:evenodd;stroke:none;stroke-width:1.03534329;stroke-linecap:round;stroke-linejoin:bevel;stroke-miterlimit:4;stroke-dasharray:none;stroke-dashoffset:0;stroke-opacity:1"
     id="rect4497"
     width="28.203388"
     height="28.203388"
     x="1.8983059"
     y="1.8983059"
     ry="5.575182" />
  <path
     style="fill:#ffffff;stroke-width:0.84290504"
     d="m 12.854311,23.935337 c -0.0691,-0.03726 -0.48846,-0.431838 -0.931908,-0.876773 l -0.806267,-0.808979 -0.270654,0.263122 c -0.148859,0.144718 -0.359496,0.309616 -0.468087,0.366436 -0.179036,0.09369 -0.230942,0.103357 -0.5569604,0.103702 -0.3343923,4.22e-4 -0.3763251,-0.0076 -0.5998475,-0.117821 -0.2891038,-0.142206 -0.5326511,-0.402605 -0.6448578,-0.689479 -0.108567,-0.277569 -0.1065524,-0.694756 0.0048,-0.987177 0.078542,-0.206318 0.22184,-0.355428 3.4032267,-3.541154 l 3.321237,-3.325768 -0.128173,-0.299865 c -0.573636,-1.342051 -0.425381,-2.884437 0.3959,-4.1187426 0.252136,-0.3789381 0.758484,-0.8919655 1.132204,-1.1471423 1.966416,-1.3426669 4.676729,-0.8548364 6.014543,1.0825614 1.594325,2.3088655 0.665238,5.4403765 -1.931809,6.5112285 -1.021702,0.421284 -2.308503,0.40746 -3.331335,-0.03582 l -0.285837,-0.123865 -1.386341,1.38668 -1.386345,1.386688 0.811476,0.807453 c 0.510573,0.508044 0.836426,0.860698 0.878762,0.951049 0.08216,0.175325 0.08706,0.371064 0.01373,0.548588 -0.06823,0.165201 -2.446986,2.563687 -2.644721,2.666657 -0.170143,0.08861 -0.436839,0.0879 -0.60271,-0.0017 z m 6.730752,-9.993258 c 0.559908,-0.149788 0.979884,-0.546127 1.167493,-1.101784 0.06492,-0.192272 0.07589,-0.292643 0.06488,-0.593637 -0.01215,-0.332424 -0.02428,-0.384561 -0.147233,-0.633341 -0.47032,-0.951626 -1.626824,-1.246207 -2.483669,-0.632634 -0.658165,0.471302 -0.877892,1.409548 -0.497118,2.122726 0.203924,0.381944 0.634193,0.724958 1.052063,0.838717 0.216656,0.05898 0.623027,0.05896 0.843588,-2.7e-5 z"
     id="path4495"
     inkscape:connector-curvature="0" />
</svg>
