<?xml version="1.0" encoding="UTF-8" standalone="no"?>
<svg
   xmlns:dc="http://purl.org/dc/elements/1.1/"
   xmlns:cc="http://creativecommons.org/ns#"
   xmlns:rdf="http://www.w3.org/1999/02/22-rdf-syntax-ns#"
   xmlns:svg="http://www.w3.org/2000/svg"
   xmlns="http://www.w3.org/2000/svg"
   xmlns:sodipodi="http://sodipodi.sourceforge.net/DTD/sodipodi-0.dtd"
   xmlns:inkscape="http://www.inkscape.org/namespaces/inkscape"
   id="svg2"
   width="32"
   height="32"
   version="1.1"
   viewBox="0 0 32 32"
   sodipodi:docname="1.svg"
   inkscape:version="0.92.2 2405546, 2018-03-11">
  <metadata
     id="metadata87">
    <rdf:RDF>
      <cc:Work
         rdf:about="">
        <dc:format>image/svg+xml</dc:format>
        <dc:type
           rdf:resource="http://purl.org/dc/dcmitype/StillImage" />
      </cc:Work>
    </rdf:RDF>
  </metadata>
  <defs
     id="defs85" />
  <sodipodi:namedview
     pagecolor="#ffffff"
     bordercolor="#666666"
     borderopacity="1"
     objecttolerance="10"
     gridtolerance="10"
     guidetolerance="10"
     inkscape:pageopacity="0"
     inkscape:pageshadow="2"
     inkscape:window-width="1680"
     inkscape:window-height="972"
     id="namedview83"
     showgrid="false"
     inkscape:zoom="3.1377863"
     inkscape:cx="-6.8690747"
     inkscape:cy="27.795573"
     inkscape:current-layer="svg2"
     inkscape:window-x="1360"
     inkscape:window-y="0"
     inkscape:window-maximized="1" />
  <g
     id="system-suspend"
     transform="translate(31.934801,30.21092)"
     inkscape:label="#rect53">
    <rect
       ry="5.575182"
       y="-28.312614"
       x="-30.036495"
       height="28.203388"
       width="28.203388"
       id="rect4497-3"
       style="opacity:1;fill:#5294e2;fill-opacity:1;fill-rule:evenodd;stroke:none;stroke-width:1.03534329;stroke-linecap:round;stroke-linejoin:bevel;stroke-miterlimit:4;stroke-dasharray:none;stroke-dashoffset:0;stroke-opacity:1" />
    <path
       inkscape:connector-curvature="0"
       d="m -6.9348011,-14.21092 a 9,9 0 0 0 -8.9999999,-9 9,9 0 0 0 -9,9 9,9 0 0 0 9,8.9999996 9,9 0 0 0 8.9999999,-8.9999996 z m -2,0 a 7,7 0 0 1 -6.9999999,6.9999996 7,7 0 0 1 -7,-6.9999996 7,7 0 0 1 7,-7 7,7 0 0 1 6.9999999,7 z m -2.9999999,0 c 0,-0.554 -0.446,-1 -1,-1 h -6 c -0.554,0 -1,0.446 -1,1 0,0.554 0.446,1 1,1 h 6 c 0.554,0 1,-0.446 1,-1 z"
       style="fill:#ffffff;fill-opacity:1"
       id="path7041-7" />
  </g>
</svg>
