<?xml version="1.0" encoding="UTF-8" standalone="no"?>
<svg
   xmlns:dc="http://purl.org/dc/elements/1.1/"
   xmlns:cc="http://creativecommons.org/ns#"
   xmlns:rdf="http://www.w3.org/1999/02/22-rdf-syntax-ns#"
   xmlns:svg="http://www.w3.org/2000/svg"
   xmlns="http://www.w3.org/2000/svg"
   xmlns:sodipodi="http://sodipodi.sourceforge.net/DTD/sodipodi-0.dtd"
   xmlns:inkscape="http://www.inkscape.org/namespaces/inkscape"
   width="32"
   height="32"
   version="1"
   id="svg20"
   sodipodi:docname="camera-web.svg"
   inkscape:version="0.92.2 2405546, 2018-03-11">
  <metadata
     id="metadata26">
    <rdf:RDF>
      <cc:Work
         rdf:about="">
        <dc:format>image/svg+xml</dc:format>
        <dc:type
           rdf:resource="http://purl.org/dc/dcmitype/StillImage" />
      </cc:Work>
    </rdf:RDF>
  </metadata>
  <defs
     id="defs24" />
  <sodipodi:namedview
     pagecolor="#ffffff"
     bordercolor="#666666"
     borderopacity="1"
     objecttolerance="10"
     gridtolerance="10"
     guidetolerance="10"
     inkscape:pageopacity="0"
     inkscape:pageshadow="2"
     inkscape:window-width="1680"
     inkscape:window-height="972"
     id="namedview22"
     showgrid="false"
     inkscape:zoom="7.375"
     inkscape:cx="7.6494307"
     inkscape:cy="7.6726297"
     inkscape:window-x="0"
     inkscape:window-y="0"
     inkscape:window-maximized="1"
     inkscape:current-layer="svg20" />
  <rect
     style="opacity:1;fill:#5b5b5b;fill-opacity:1;fill-rule:evenodd;stroke:none;stroke-width:1.03534329;stroke-linecap:round;stroke-linejoin:bevel;stroke-miterlimit:4;stroke-dasharray:none;stroke-dashoffset:0;stroke-opacity:1"
     id="rect4497-3-3-3"
     width="28.203388"
     height="28.203388"
     x="1.8983063"
     y="1.8983059"
     ry="5.575182" />
  <path
     inkscape:connector-curvature="0"
     style="opacity:1;fill:#8e8e8e;fill-opacity:1;fill-rule:evenodd;stroke:none;stroke-width:1.03534329;stroke-linecap:round;stroke-linejoin:bevel;stroke-miterlimit:4;stroke-dasharray:none;stroke-dashoffset:0;stroke-opacity:1"
     d="M 7.269535,1.9394533 C 4.281527,2.0519213 1.898441,4.4561666 1.898441,7.4726564 V 24.527343 c 0,3.088651 2.485568,5.574219 5.574219,5.574219 h 17.052734 c 3.088651,0 5.576172,-2.485568 5.576172,-5.574219 V 7.4726564 c 0,-3.0886508 -2.487521,-5.5742188 -5.576172,-5.5742188 H 11.269535 v 1.5625 c 0,0.277 -0.112219,0.5262813 -0.292969,0.7070313 -0.18075,0.18075 -0.430031,0.2929687 -0.707031,0.2929687 h -2 c -0.277,0 -0.528234,-0.1122187 -0.708984,-0.2929687 C 7.379801,3.9872189 7.269535,3.7379376 7.269535,3.4609376 Z"
     id="path4525" />
  <path
     inkscape:connector-curvature="0"
     style="opacity:1;fill:#4d4d4d;fill-opacity:1;fill-rule:evenodd;stroke:none;stroke-width:1.03534329;stroke-linecap:round;stroke-linejoin:bevel;stroke-miterlimit:4;stroke-dasharray:none;stroke-dashoffset:0;stroke-opacity:1"
     d="m 7.269535,1.9394533 v 1.5214843 c 0,0.277 0.110266,0.5262813 0.291016,0.7070313 0.18075,0.18075 0.431984,0.2929687 0.708984,0.2929687 h 2 c 0.277,0 0.526281,-0.1122187 0.707031,-0.2929687 0.18075,-0.18075 0.292969,-0.4300313 0.292969,-0.7070313 v -1.5625 H 7.47266 c -0.07216,0 -0.131645,0.038325 -0.203125,0.041016 z"
     id="rect4497-3-3" />
  <circle
     style="opacity:1;fill:#4d4d4d;fill-opacity:1"
     cx="25.86171"
     cy="7.297874"
     r="1"
     id="circle8-6" />
  <circle
     style="opacity:1;fill:#4d4d4d;fill-opacity:1"
     cx="16.000006"
     cy="16"
     r="8"
     id="circle10" />
  <circle
     style="fill:#ba174e;fill-opacity:1"
     cx="16.000006"
     cy="-16"
     r="6"
     transform="scale(1,-1)"
     id="circle14-7" />
  <circle
     style="fill:#d67495;fill-opacity:1"
     cx="16.000006"
     cy="16"
     r="4"
     id="circle18-5" />
</svg>
