<?xml version="1.0" encoding="UTF-8" standalone="no"?>
<svg
   xmlns:dc="http://purl.org/dc/elements/1.1/"
   xmlns:cc="http://creativecommons.org/ns#"
   xmlns:rdf="http://www.w3.org/1999/02/22-rdf-syntax-ns#"
   xmlns:svg="http://www.w3.org/2000/svg"
   xmlns="http://www.w3.org/2000/svg"
   xmlns:sodipodi="http://sodipodi.sourceforge.net/DTD/sodipodi-0.dtd"
   xmlns:inkscape="http://www.inkscape.org/namespaces/inkscape"
   width="32"
   height="32"
   version="1"
   id="svg22"
   sodipodi:docname="drive-harddisk-ieee1394.svg"
   inkscape:version="0.92.1 r">
  <metadata
     id="metadata28">
    <rdf:RDF>
      <cc:Work
         rdf:about="">
        <dc:format>image/svg+xml</dc:format>
        <dc:type
           rdf:resource="http://purl.org/dc/dcmitype/StillImage" />
      </cc:Work>
    </rdf:RDF>
  </metadata>
  <defs
     id="defs26" />
  <sodipodi:namedview
     pagecolor="#ffffff"
     bordercolor="#666666"
     borderopacity="1"
     objecttolerance="10"
     gridtolerance="10"
     guidetolerance="10"
     inkscape:pageopacity="0"
     inkscape:pageshadow="2"
     inkscape:window-width="1680"
     inkscape:window-height="965"
     id="namedview24"
     showgrid="false"
     inkscape:zoom="7.375"
     inkscape:cx="-34.440678"
     inkscape:cy="16"
     inkscape:window-x="0"
     inkscape:window-y="0"
     inkscape:window-maximized="1"
     inkscape:current-layer="svg22" />
  <rect
     style="opacity:1;fill:#8e8e8e;fill-opacity:1;fill-rule:evenodd;stroke:none;stroke-width:1.03534329;stroke-linecap:round;stroke-linejoin:bevel;stroke-miterlimit:4;stroke-dasharray:none;stroke-dashoffset:0;stroke-opacity:1"
     id="rect4497-3"
     width="28.203388"
     height="28.203388"
     x="1.8983059"
     y="1.8983059"
     ry="5.575182" />
  <g
     style="opacity:1;fill:#4d4d4d"
     id="g20"
     transform="translate(0.01938681,-0.03050869)">
    <rect
       width="4"
       height="1.5"
       x="14"
       y="20"
       id="rect8"
       style="fill:#4d4d4d" />
    <rect
       width="4"
       height="1.5"
       x="14"
       y="22.5"
       id="rect10"
       style="fill:#4d4d4d" />
    <path
       d="M 16,12 A 3.5,3.5 0 0 0 12.5,15.5 3.5,3.5 0 0 0 16,19 3.5,3.5 0 0 0 19.5,15.5 3.5,3.5 0 0 0 16,12 Z m 0,2 A 1.5,1.5 0 0 1 17.5,15.5 1.5,1.5 0 0 1 16,17 1.5,1.5 0 0 1 14.5,15.5 1.5,1.5 0 0 1 16,14 Z"
       id="path12"
       inkscape:connector-curvature="0"
       style="fill:#4d4d4d" />
    <rect
       width="4"
       height="4"
       x="-24.25"
       y="4.8499999"
       transform="rotate(-135)"
       id="rect14"
       style="fill:#4d4d4d" />
    <rect
       width="4"
       height="1.5"
       x="-2.3499999"
       y="-17.75"
       transform="rotate(135)"
       id="rect16"
       style="fill:#4d4d4d" />
    <rect
       width="4"
       height="1.5"
       x="-2.3499999"
       y="-15.25"
       transform="rotate(135)"
       id="rect18"
       style="fill:#4d4d4d" />
  </g>
</svg>
