<?xml version="1.0" encoding="UTF-8" standalone="no"?>
<svg
   xmlns:dc="http://purl.org/dc/elements/1.1/"
   xmlns:cc="http://creativecommons.org/ns#"
   xmlns:rdf="http://www.w3.org/1999/02/22-rdf-syntax-ns#"
   xmlns:svg="http://www.w3.org/2000/svg"
   xmlns="http://www.w3.org/2000/svg"
   xmlns:sodipodi="http://sodipodi.sourceforge.net/DTD/sodipodi-0.dtd"
   xmlns:inkscape="http://www.inkscape.org/namespaces/inkscape"
   width="32"
   height="32"
   version="1"
   id="svg16"
   sodipodi:docname="folder-image-people.svg"
   inkscape:version="0.92.1 r">
  <metadata
     id="metadata22">
    <rdf:RDF>
      <cc:Work
         rdf:about="">
        <dc:format>image/svg+xml</dc:format>
        <dc:type
           rdf:resource="http://purl.org/dc/dcmitype/StillImage" />
      </cc:Work>
    </rdf:RDF>
  </metadata>
  <defs
     id="defs20" />
  <sodipodi:namedview
     pagecolor="#ffffff"
     bordercolor="#666666"
     borderopacity="1"
     objecttolerance="10"
     gridtolerance="10"
     guidetolerance="10"
     inkscape:pageopacity="0"
     inkscape:pageshadow="2"
     inkscape:window-width="1680"
     inkscape:window-height="994"
     id="namedview18"
     showgrid="false"
     inkscape:zoom="7.375"
     inkscape:cx="8.9491524"
     inkscape:cy="2.1694915"
     inkscape:window-x="0"
     inkscape:window-y="0"
     inkscape:window-maximized="1"
     inkscape:current-layer="svg16" />
  <path
     style="fill:#7dc842;fill-opacity:1;stroke:none;stroke-width:0.14515875;stroke-miterlimit:4;stroke-dasharray:none;stroke-opacity:1"
     d="m 27.90368,6.7271305 c 1.168734,-7.39e-4 2.109629,0.940894 2.109629,2.10963 V 26.447279 c 0,1.168735 -0.940895,2.109629 -2.109629,2.109629 H 4.09632 c -1.168734,0 -2.109682,-0.940894 -2.109629,-2.109629 l 7.31e-4,-16.244506 7.32e-4,-5.0669085 c 0,-0.937796 0.754977,-1.692773 1.692773,-1.692773 h 9.09082 c 0.937797,0 1.704839,0.371321 2.299888,1.096152 l 1.801865,2.19486 z"
     id="rect4549-3"
     inkscape:connector-curvature="0"
     sodipodi:nodetypes="sssssscsssscs" />
  <path
     style="opacity:1;fill:#000000;fill-opacity:0.65098041"
     d="m 13.545594,16.106085 c -0.034,0.007 -0.069,0.02 -0.101,0.035 -0.323,0.151 -0.407,0.623 -0.186,1.06 0.178,0.352 0.493,0.57 0.779,0.563 0.216,1.169 1.074,2.041 2.098,2.041 1.024,0 1.882,-0.872 2.098,-2.041 0.286,0.007 0.601,-0.211 0.779,-0.563 0.221,-0.437 0.137,-0.909 -0.186,-1.06 -0.032,-0.015 -0.067,-0.028 -0.101,-0.035 -0.042,-1.278 -1.184,-2.301 -2.59,-2.301 -1.406,0 -2.548,1.023 -2.59,2.301 z m 2.586,4.699 c -0.583,0 -1.109,-0.29 -1.496,-0.752 -1.631,0.241 -3.375,0.59 -3.484,0.988 -0.002,0.006 0.001,0.013 0,0.018 -0.005,0.02 -0.006,0.038 -0.008,0.058 -10e-4,0.01 -0.008,0.016 -0.008,0.026 v 1.394 c 0,0.149 0.111,0.268 0.25,0.268 h 9.5 c 0.139,0 0.25,-0.119 0.25,-0.268 v -1.404 c -0.001,-0.032 -0.015,-0.06 -0.023,-0.092 -0.116,-0.414 -1.806,-0.777 -3.409,-1.019 -0.123,0.172 -0.287,0.327 -0.507,0.443 l -0.002,0.002 c -0.312,0.215 -0.673,0.338 -1.055,0.338"
     id="path14"
     inkscape:connector-curvature="0" />
</svg>
