<?xml version="1.0" encoding="UTF-8" standalone="no"?>
<svg
   xmlns:dc="http://purl.org/dc/elements/1.1/"
   xmlns:cc="http://creativecommons.org/ns#"
   xmlns:rdf="http://www.w3.org/1999/02/22-rdf-syntax-ns#"
   xmlns:svg="http://www.w3.org/2000/svg"
   xmlns="http://www.w3.org/2000/svg"
   xmlns:sodipodi="http://sodipodi.sourceforge.net/DTD/sodipodi-0.dtd"
   xmlns:inkscape="http://www.inkscape.org/namespaces/inkscape"
   height="32"
   width="32"
   version="1"
   id="svg26"
   sodipodi:docname="galculator.svg"
   inkscape:version="0.92.1 r">
  <metadata
     id="metadata32">
    <rdf:RDF>
      <cc:Work
         rdf:about="">
        <dc:format>image/svg+xml</dc:format>
        <dc:type
           rdf:resource="http://purl.org/dc/dcmitype/StillImage" />
      </cc:Work>
    </rdf:RDF>
  </metadata>
  <defs
     id="defs30" />
  <sodipodi:namedview
     pagecolor="#ffffff"
     bordercolor="#666666"
     borderopacity="1"
     objecttolerance="10"
     gridtolerance="10"
     guidetolerance="10"
     inkscape:pageopacity="0"
     inkscape:pageshadow="2"
     inkscape:window-width="1680"
     inkscape:window-height="965"
     id="namedview28"
     showgrid="false"
     inkscape:zoom="10.429825"
     inkscape:cx="17.556617"
     inkscape:cy="17.357"
     inkscape:window-x="0"
     inkscape:window-y="0"
     inkscape:window-maximized="1"
     inkscape:current-layer="svg26" />
  <g
     id="g4683"
     transform="translate(0.016684,0.07680065)">
    <path
       inkscape:connector-curvature="0"
       id="path4-6"
       d="M 30.084879,15.9232 V 7.3958557 c 0,-0.772163 -0.156128,-1.506374 -0.4375,-2.173828 -0.281373,-0.667454 -0.689502,-1.267627 -1.19336,-1.771485 -0.503857,-0.503857 -1.10403,-0.911986 -1.771484,-1.193359 -0.667454,-0.281372 -1.401665,-0.435547 -2.173828,-0.435547 H 15.983316 V 15.9232 Z"
       style="fill:#595959;stroke-width:1.00724995" />
    <path
       inkscape:connector-curvature="0"
       id="path2-0"
       d="m 15.983316,30.024762 h 8.527344 c 0.772163,0 1.506374,-0.156128 2.173828,-0.4375 0.667454,-0.281372 1.267627,-0.689502 1.771484,-1.193359 0.503857,-0.503857 0.910034,-1.104031 1.191407,-1.771484 0.281372,-0.667454 0.4375,-1.401666 0.4375,-2.173829 V 15.9232 H 15.983316 Z"
       style="fill:#666666;stroke-width:1.00724995" />
    <circle
       id="circle12"
       r="6.3172297"
       cy="22.715195"
       cx="22.983156"
       style="fill:#07ce8e;fill-rule:evenodd;stroke-width:0.78965372;enable-background:new" />
    <path
       id="path22-8"
       d="m 20.012284,20.95872 v 1.007249 h 6.043499 V 20.95872 Z m 0,3.02175 v 1.007249 h 6.043499 V 23.98047 Z"
       style="fill:#ebebeb;stroke-width:1.00724995;enable-background:new"
       inkscape:connector-curvature="0" />
    <g
       transform="translate(39.186441,5.0169492)"
       id="g4638">
      <path
         inkscape:connector-curvature="0"
         style="fill:#a6a6a6;stroke-width:1.00724995"
         d="m -31.728516,-3.1953125 c -0.772162,0 -1.508327,0.1561275 -2.175781,0.4375 -0.667454,0.2813725 -1.267627,0.6875492 -1.771484,1.1914063 -0.503857,0.503857 -0.910034,1.10403051 -1.191407,1.77148432 -0.281372,0.66745382 -0.4375,1.40361858 -0.4375,2.17578128 V 10.90625 h 14.101563 V -3.1953125 Z"
         id="path4634" />
      <path
         inkscape:connector-curvature="0"
         style="fill:#ebebeb;stroke-width:1.00724995;enable-background:new"
         d="M -30.253439,0.83414503 V 3.8558956 h -3.021751 v 1.007249 h 3.021751 v 3.0217511 h 1.007249 V 4.8631446 h 3.021751 V 3.8558956 H -29.24619 V 0.83414503 Z"
         id="path14-7" />
    </g>
    <path
       id="path16-3"
       d="m 20.01238,8.8724507 v 1.007249 h 6.043499 v -1.007249 z"
       style="fill:#ebebeb;stroke-width:1.00724995;enable-background:new"
       inkscape:connector-curvature="0" />
    <path
       inkscape:connector-curvature="0"
       id="path6-3"
       d="m 1.881754,15.923199 v 8.525391 c 0,0.772163 0.156127,1.506375 0.4375,2.173828 0.281372,0.667454 0.687549,1.267628 1.191406,1.771485 0.503857,0.503857 1.104031,0.911987 1.771484,1.193359 0.667454,0.281373 1.401666,0.4375 2.173828,0.4375 h 8.527344 V 15.923199 Z"
       style="fill:#8c8c8c;fill-opacity:1;stroke-width:1.00724995" />
    <path
       id="path20-9"
       d="m 6.266879,19.595695 -0.712126,0.713133 2.665687,2.665184 -2.665687,2.665184 0.712126,0.713133 2.665688,-2.666191 2.665182,2.666191 0.713133,-0.713133 -2.66619,-2.665184 2.66619,-2.665184 -0.713133,-0.713133 -2.665182,2.666192 z"
       inkscape:connector-curvature="0"
       style="fill:#ebebeb;fill-rule:evenodd;stroke-width:1.00724995" />
  </g>
</svg>
