<?xml version="1.0" encoding="UTF-8" standalone="no"?>
<svg
   xmlns:dc="http://purl.org/dc/elements/1.1/"
   xmlns:cc="http://creativecommons.org/ns#"
   xmlns:rdf="http://www.w3.org/1999/02/22-rdf-syntax-ns#"
   xmlns:svg="http://www.w3.org/2000/svg"
   xmlns="http://www.w3.org/2000/svg"
   xmlns:sodipodi="http://sodipodi.sourceforge.net/DTD/sodipodi-0.dtd"
   xmlns:inkscape="http://www.inkscape.org/namespaces/inkscape"
   height="32"
   viewBox="0 0 32 32"
   width="32"
   version="1.1"
   id="svg16"
   sodipodi:docname="acroread.svg"
   inkscape:version="0.92.1 r">
  <metadata
     id="metadata22">
    <rdf:RDF>
      <cc:Work
         rdf:about="">
        <dc:format>image/svg+xml</dc:format>
        <dc:type
           rdf:resource="http://purl.org/dc/dcmitype/StillImage" />
      </cc:Work>
    </rdf:RDF>
  </metadata>
  <defs
     id="defs20" />
  <sodipodi:namedview
     pagecolor="#ffffff"
     bordercolor="#666666"
     borderopacity="1"
     objecttolerance="10"
     gridtolerance="10"
     guidetolerance="10"
     inkscape:pageopacity="0"
     inkscape:pageshadow="2"
     inkscape:window-width="1680"
     inkscape:window-height="965"
     id="namedview18"
     showgrid="false"
     inkscape:zoom="10.429825"
     inkscape:cx="7.9211471"
     inkscape:cy="4.9057062"
     inkscape:window-x="0"
     inkscape:window-y="0"
     inkscape:window-maximized="1"
     inkscape:current-layer="svg16" />
  <g
     id="g4513"
     transform="translate(0,1.8983059)">
    <rect
       ry="5.575182"
       y="0"
       x="1.8983059"
       height="28.203388"
       width="28.203388"
       id="rect4497-3"
       style="opacity:1;fill:#745145;fill-opacity:1;fill-rule:evenodd;stroke:none;stroke-width:1.03534329;stroke-linecap:round;stroke-linejoin:bevel;stroke-miterlimit:4;stroke-dasharray:none;stroke-dashoffset:0;stroke-opacity:1" />
    <g
       transform="matrix(0.87409152,0,0,0.87409152,0.26617867,-1.748183)"
       id="g4507">
      <path
         style="fill:#ff3434"
         inkscape:connector-curvature="0"
         d="m 24.206,12 c 0.24303,0.01483 0.5046,0 0.79105,0.19856 2.5579,1.1008 0.84241,4.1206 -2.4181,6.4176 -0.0196,-0.43314 -0.19962,-1.3762 -0.19538,-1.7913 2.7819,-1.9073 4.409,-3.7637 2.6363,-4.4997 -1.8691,-0.77573 -2.4494,1.3423 -2.4822,4.4171 -0.1742,0.18056 -1.3804,0.9817 -1.5636,1.1083 0.06778,-2.8037 1.5583,-5.6657 2.9905,-5.8299 0.07677,-0.01482 0.16044,-0.01482 0.24144,-0.01482 m -2.604,4.8783 0.5819,-0.22663 0.48236,0.32512 0.09743,1.023 -0.60943,0.46755 -0.25309,0.33942 c -1.8765,1.2449 -3.475,2.2038 -5.5786,2.9959 l -1.3115,0.19486 h -0.86306 c -0.79581,-0.46914 -0.3214,-0.6497 -3.2124,-1.0103 l 3.2579,0.25258 c 2.5129,-0.97429 5.0777,-2.3738 7.4106,-3.9003 m -5.7343,4.0814 c -0.37699,0 -3.3167,-0.25522 -4.4863,-0.36324 -1.1574,-0.18056 -2.5791,-0.23457 -2.3101,1.1188 -0.30604,-0.72172 0.39182,-1.947 1.3841,-2.163 1.5344,-0.34312 3.969,0.59728 4.8442,0.88586 m -1.4105,0.37489 c 0.45641,0.18056 1.499,0.31082 1.9914,0.47338 -0.69786,0.36112 -4.203,1.6552 -5.6501,1.3841 -0.23138,0 -1.2083,-0.70265 -1.2321,-1.2083 0.07518,0.92028 4.3598,0.23457 4.8908,-0.66771 m -0.95307,0.01642 c 0.3754,-0.18056 2.1338,-0.17156 2.5214,-0.31558 2.2016,0.77043 5.1635,2.5787 7.283,3.7981 l 0.6142,0.18056 c 0.1186,0.84244 0.6375,1.1326 1.1109,1.678 l -0.71745,0.72171 -0.56125,-0.92028 c -2.4817,-1.4974 -7.3873,-3.9173 -10.249,-5.079 m 10.249,5.079 c 0.3034,0.18056 0.59302,0.36112 0.86782,0.54116 0.63644,1.8061 1.3782,3.0224 2.0867,2.97 -1.0944,0.52315 -3.4517,-2.055 -4.2464,-4.4802 m 4.2464,4.4802 c 1.6695,-0.99229 -1.8643,-2.8011 -2.658,-3.3258 -0.17844,-0.50515 0.30975,-1.3423 0.15037,-1.938 2.4923,1.552 3.9653,3.7966 3.1292,4.8614 -0.2012,0.25257 -0.41458,0.37913 -0.62585,0.39713 m -2.425,-3.7807 c -0.11596,-0.46491 -1.6552,-1.5229 -1.9331,-1.6854 -0.37223,-2.9319 -0.39023,-3.2215 -0.70633,-5.5005 0.18902,-0.18056 1.3534,-1.0881 1.5334,-1.2142 0.22344,2.4357 0.64385,5.7367 1.2385,7.9415"
         id="path4" />
      <path
         inkscape:connector-curvature="0"
         d="m 9,2 v 14 l 2,-2 2,2 V 2 Z"
         style="fill:#ff3434;enable-background:new"
         id="path10" />
    </g>
  </g>
</svg>
