<?xml version="1.0" encoding="UTF-8" standalone="no"?>
<svg
   xmlns:dc="http://purl.org/dc/elements/1.1/"
   xmlns:cc="http://creativecommons.org/ns#"
   xmlns:rdf="http://www.w3.org/1999/02/22-rdf-syntax-ns#"
   xmlns:svg="http://www.w3.org/2000/svg"
   xmlns="http://www.w3.org/2000/svg"
   xmlns:sodipodi="http://sodipodi.sourceforge.net/DTD/sodipodi-0.dtd"
   xmlns:inkscape="http://www.inkscape.org/namespaces/inkscape"
   height="32"
   width="32"
   version="1"
   id="svg20"
   sodipodi:docname="applications-development-translation.svg"
   inkscape:version="0.92.1 r">
  <metadata
     id="metadata26">
    <rdf:RDF>
      <cc:Work
         rdf:about="">
        <dc:format>image/svg+xml</dc:format>
        <dc:type
           rdf:resource="http://purl.org/dc/dcmitype/StillImage" />
      </cc:Work>
    </rdf:RDF>
  </metadata>
  <defs
     id="defs24" />
  <sodipodi:namedview
     pagecolor="#ffffff"
     bordercolor="#666666"
     borderopacity="1"
     objecttolerance="10"
     gridtolerance="10"
     guidetolerance="10"
     inkscape:pageopacity="0"
     inkscape:pageshadow="2"
     inkscape:window-width="1680"
     inkscape:window-height="963"
     id="namedview22"
     showgrid="false"
     inkscape:zoom="7.375"
     inkscape:cx="13.016949"
     inkscape:cy="13.966102"
     inkscape:window-x="0"
     inkscape:window-y="0"
     inkscape:window-maximized="1"
     inkscape:current-layer="svg20" />
  <rect
     style="opacity:1;fill:#1da6e8;fill-opacity:1;fill-rule:evenodd;stroke:none;stroke-width:1.03534329;stroke-linecap:round;stroke-linejoin:bevel;stroke-miterlimit:4;stroke-dasharray:none;stroke-dashoffset:0;stroke-opacity:1"
     id="rect4497-3"
     width="28.203388"
     height="28.203388"
     x="1.8983059"
     y="1.8983059"
     ry="5.575182" />
  <circle
     style="fill:#cc5e55;fill-rule:evenodd;stroke-width:0.625;enable-background:new"
     cx="22.237288"
     cy="22.101694"
     id="circle14"
     r="5" />
  <path
     d="m 21.612315,19.601739 -0.05513,0.6585 a 1.9643125,1.9643125 0 0 0 -0.57407,0.332037 l -0.598494,-0.281812 -0.625,1.082562 0.543381,0.377375 a 1.9643125,1.9643125 0 0 0 -0.03,0.331332 1.9643125,1.9643125 0 0 0 0.02856,0.332731 l -0.541994,0.375975 0.625,1.082562 0.5971,-0.281112 a 1.9643125,1.9643125 0 0 0 0.575469,0.329937 l 0.05512,0.659875 h 1.25 l 0.05513,-0.6585 a 1.9643125,1.9643125 0 0 0 0.574087,-0.332037 l 0.598488,0.281812 0.625,-1.082562 -0.543388,-0.377375 a 1.9643125,1.9643125 0 0 0 0.03,-0.331331 1.9643125,1.9643125 0 0 0 -0.02856,-0.332732 l 0.541994,-0.375975 -0.625,-1.082562 -0.596875,0.28125 a 1.9643125,1.9643125 0 0 0 -0.575625,-0.33 l -0.055,-0.66 h -1.25 z m 0.625,1.78575 a 0.7143125,0.7143125 0 0 1 0.714375,0.714375 0.7143125,0.7143125 0 0 1 -0.714375,0.714375 0.7143125,0.7143125 0 0 1 -0.714375,-0.714375 0.7143125,0.7143125 0 0 1 0.71425,-0.71425 z"
     style="fill:#ffffff;stroke-width:0.625;enable-background:new"
     id="path16"
     inkscape:connector-curvature="0" />
  <path
     d="m 8.1940434,17.288946 c 0.3851045,0.266625 0.740582,0.592475 1.0664788,0.977551 L 8.6829125,18.976611 C 8.3270154,18.53244 7.9566547,18.161986 7.5715501,17.866183 l 0.6221201,-0.57761 m 0,2.7994 c 0.3554775,0.266624 0.6961365,0.562847 1.0219685,0.888698 L 8.637991,21.732061 C 8.3120477,21.316816 7.9565238,20.961293 7.5714204,20.665489 L 8.1935405,20.08788 m 0.177743,3.065996 0.7109635,0.488794 C 8.7267231,24.856676 8.2084605,26.026826 7.5270875,27.152184 L 6.7717152,26.574575 c 0.6813363,-1.096059 1.2145666,-2.236534 1.5996711,-3.42152 m 2.0881657,-6.220267 0.844261,0.177734 c -0.05925,0.296251 -0.148116,0.577665 -0.266605,0.844271 h 3.465936 v 0.799817 h -3.821367 l -0.399913,0.666527 c -0.118503,0.236988 -0.31105,0.488794 -0.5776462,0.75539 L 9.1713987,19.554128 C 9.7342462,18.8728 10.163785,17.998874 10.460055,16.932489 m -0.222169,2.754983 h 4.088057 c -1.9e-5,0.918325 -0.01484,1.777433 -0.04451,2.577221 h 0.577647 v 0.799835 h -0.622083 c -0.05925,0.622092 -0.103687,1.229404 -0.133298,1.82185 h 0.666518 v 0.755399 h -0.75539 c -0.118503,1.036712 -0.533752,1.555534 -1.2448,1.555534 -0.177743,0 -0.429539,-0.02967 -0.75539,-0.08883 l -0.133307,-0.75539 c 0.385095,0.05916 0.681336,0.08883 0.888697,0.08883 0.207361,0 0.340659,-0.266615 0.399923,-0.799836 H 9.7040135 C 9.8225048,24.84225 9.9261837,23.983161 10.015055,23.064864 H 9.3929718 v -0.799835 h 0.7109552 c 0.05925,-0.829453 0.103675,-1.688505 0.133307,-2.577221 m 0.666518,2.577221 h 2.532805 c 0.02967,-0.622083 0.04451,-1.22931 0.04451,-1.821849 H 11.03719 c -0.02967,0.651719 -0.07409,1.258983 -0.133307,1.821849 m 1.112294,-1.59939 c 0.325851,0.20736 0.622092,0.444348 0.888708,0.710954 l -0.533221,0.666518 c -0.26501,-0.295803 -0.560813,-0.562679 -0.886477,-0.799695 l 0.532819,-0.577609 m 1.244147,4.221308 c 0.05925,-0.622083 0.103676,-1.229403 0.133308,-1.821849 h -2.532804 c -0.05925,0.6517 -0.133307,1.258983 -0.22217,1.821849 h 2.621638 m -1.377491,-1.59967 c 0.355468,0.20736 0.681327,0.444348 0.97755,0.710954 l -0.577656,0.666528 c -0.296232,-0.32586 -0.607284,-0.607274 -0.933133,-0.844262 l 0.533221,-0.53322 M 7.2189478,17.999658 v 6.976291 H 6.4191214 v -0.75539 H 5.663732 v 1.155313 H 4.8639056 V 17.999639 H 7.2189478 M 5.6636941,23.465095 H 6.4190847 V 18.755011 H 5.6636941 v 4.710084"
     id="path8"
     inkscape:connector-curvature="0"
     style="opacity:1;stroke-width:0.9331333;fill:#1475a3;fill-opacity:1" />
  <path
     d="M 21.387989,10.816734 21.63988,9.8721228 c 0.283373,-1.023274 0.551005,-2.2197376 0.802896,-3.3060914 h 0.06298 c 0.267632,1.0704905 0.551006,2.282724 0.834389,3.3060914 l 0.236139,0.9446112 h -2.18829 m 3.292093,4.250422 h 2.456008 L 23.924253,4.8026894 H 21.137916 L 17.926071,15.067156 h 2.361481 l 0.629725,-2.440144 h 3.132902 l 0.629865,2.440144"
     id="path12"
     inkscape:connector-curvature="0"
     style="fill:#ffffff;stroke-width:0.9331333" />
</svg>
