<?xml version="1.0" encoding="UTF-8" standalone="no"?>
<svg
   xmlns:dc="http://purl.org/dc/elements/1.1/"
   xmlns:cc="http://creativecommons.org/ns#"
   xmlns:rdf="http://www.w3.org/1999/02/22-rdf-syntax-ns#"
   xmlns:svg="http://www.w3.org/2000/svg"
   xmlns="http://www.w3.org/2000/svg"
   xmlns:sodipodi="http://sodipodi.sourceforge.net/DTD/sodipodi-0.dtd"
   xmlns:inkscape="http://www.inkscape.org/namespaces/inkscape"
   height="32"
   width="32"
   version="1"
   id="svg14"
   sodipodi:docname="applications-science.svg"
   inkscape:version="0.92.1 r">
  <metadata
     id="metadata20">
    <rdf:RDF>
      <cc:Work
         rdf:about="">
        <dc:format>image/svg+xml</dc:format>
        <dc:type
           rdf:resource="http://purl.org/dc/dcmitype/StillImage" />
      </cc:Work>
    </rdf:RDF>
  </metadata>
  <defs
     id="defs18" />
  <sodipodi:namedview
     pagecolor="#ffffff"
     bordercolor="#666666"
     borderopacity="1"
     objecttolerance="10"
     gridtolerance="10"
     guidetolerance="10"
     inkscape:pageopacity="0"
     inkscape:pageshadow="2"
     inkscape:window-width="1680"
     inkscape:window-height="963"
     id="namedview16"
     showgrid="false"
     inkscape:zoom="7.375"
     inkscape:cx="7.8644068"
     inkscape:cy="13.830508"
     inkscape:window-x="0"
     inkscape:window-y="0"
     inkscape:window-maximized="1"
     inkscape:current-layer="svg14" />
  <rect
     style="opacity:1;fill:#48cac2;fill-opacity:1;fill-rule:evenodd;stroke:none;stroke-width:1.03534329;stroke-linecap:round;stroke-linejoin:bevel;stroke-miterlimit:4;stroke-dasharray:none;stroke-dashoffset:0;stroke-opacity:1"
     id="rect4497-3"
     width="28.203388"
     height="28.203388"
     x="1.8983059"
     y="1.8983059"
     ry="5.575182" />
  <path
     d="m 15.395811,5.4997002 a 2,2 0 0 0 -1.9375,1.5117001 c -0.99888,0.54929 -1.8392,1.4984 -2.4727,2.6387 -0.43662,0.7859097 -0.78698,1.6850997 -1.0508,2.6601997 -0.87278,0.50691 -1.6512,1.0784 -2.2969,1.7031 -1.4942,1.4457 -2.3856,3.2707 -1.9023,5.0742 0.48324,1.8035 2.1687,2.9404 4.1855,3.4453 0.2369,0.05931 0.48179,0.10872 0.73047,0.15234 0.10615,0.228 0.21583,0.45138 0.33398,0.66406 1.011,1.818 2.544,3.151 4.411,3.151 1.8671,0 3.4005,-1.3329 4.4102,-3.1504 0.43662,-0.78591 0.78698,-1.6851 1.0508,-2.6602 0.87278,-0.50691 1.6512,-1.0784 2.2969,-1.7031 0.47636,-0.46089 0.88212,-0.96326 1.2109,-1.4883 a 2,2 0 0 0 0.031,0.002 2,2 0 0 0 2,-2 2,2 0 0 0 -1.463,-1.924 c -0.595,-1.605 -2.177,-2.637 -4.062,-3.109 -0.237,-0.06 -0.482,-0.109 -0.731,-0.153 -0.106,-0.228 -0.216,-0.4509997 -0.334,-0.6639997 -0.633,-1.1399 -1.474,-2.089 -2.472,-2.6383 a 2,2 0 0 0 -1.938,-1.5117 z m -1.326,3.4941001 a 2,2 0 0 0 1.326,0.5059 2,2 0 0 0 1.316,-0.498 c 0.36221,0.26954 0.71942,0.63661 1.0527,1.1386997 -1.2489,0.0206 -2.5731,0.20304 -3.9219,0.56445 -0.46207,0.12381 -0.90655,0.26856 -1.3418,0.42383 0.07863,-0.16716 0.14757,-0.35508 0.23242,-0.50781 0.41189,-0.7413997 0.86799,-1.2772997 1.3359,-1.6269997 z m 3.5508,3.1503997 c 0.3813,-0.01182 0.73643,0.01124 1.0918,0.0332 0.417,1.245 0.683,2.721 0.683,4.323 0,1.0076 -0.11679,1.9571 -0.29492,2.8438 -0.81012,0.40135 -1.6971,0.75886 -2.6699,1.0195 -1.5475,0.41466 -3.0413,0.53995 -4.3516,0.45898 -0.418,-1.244 -0.684,-2.72 -0.684,-4.322 0,-1.0076 0.11679,-1.9571 0.29492,-2.8438 0.81012,-0.40135 1.6971,-0.75886 2.6699,-1.0195 1.1278,-0.30219 2.2352,-0.46042 3.2598,-0.49219 z m 3.3047,0.42188 c 1.0739,0.36076 1.7393,0.90885 2.0469,1.5312 a 2,2 0 0 0 -0.577,1.403 2,2 0 0 0 0.25586,0.97656 c -0.22373,0.35027 -0.51255,0.71031 -0.88867,1.0742 -0.125,0.121 -0.289,0.236 -0.429,0.355 0.037,-0.461 0.062,-0.927 0.062,-1.406 0,-1.396 -0.167,-2.722 -0.471,-3.934 z m -5.53,0.934 a 3,3 0 0 0 -3,3 3,3 0 0 0 3,3 3,3 0 0 0 3,-3 3,3 0 0 0 -3,-3 z m -5.9375,1.5938 c -0.037,0.461 -0.062,0.927 -0.062,1.406 0,1.3961 0.16746,2.7221 0.4707,3.9336 -1.2637,-0.425 -1.9936,-1.103 -2.1976,-1.864 -0.2314,-0.864 0.1756,-1.975 1.3594,-3.121 0.1254,-0.121 0.2889,-0.236 0.4292,-0.355 z m 8.832,6.7773 c -0.07863,0.16716 -0.14757,0.35508 -0.23242,0.50781 -0.8,1.44 -1.768,2.121 -2.662,2.121 -0.78767,0 -1.6323,-0.53083 -2.3691,-1.6406 1.2489,-0.0206 2.5731,-0.20304 3.9219,-0.56445 0.46207,-0.12381 0.90655,-0.26856 1.3418,-0.42383 z"
     id="path6"
     inkscape:connector-curvature="0"
     style="fill:#ffffff" />
  <path
     d="m 15.395811,5.4997002 a 2,2 0 0 0 -2,2 2,2 0 0 0 2,2.0000001 2,2 0 0 0 2,-2.0000001 2,2 0 0 0 -2,-2 z m 0,7.9999998 a 3,3 0 0 0 -3,3 3,3 0 0 0 3,3 3,3 0 0 0 3,-3 3,3 0 0 0 -3,-3 z m 9,0 a 2,2 0 0 0 -2,2 2,2 0 0 0 2,2 2,2 0 0 0 2,-2 2,2 0 0 0 -2,-2 z"
     id="path12"
     inkscape:connector-curvature="0"
     style="opacity:1;fill:#4c4c4c;fill-opacity:1" />
</svg>
