<?xml version="1.0" encoding="UTF-8" standalone="no"?>
<svg
   xmlns:dc="http://purl.org/dc/elements/1.1/"
   xmlns:cc="http://creativecommons.org/ns#"
   xmlns:rdf="http://www.w3.org/1999/02/22-rdf-syntax-ns#"
   xmlns:svg="http://www.w3.org/2000/svg"
   xmlns="http://www.w3.org/2000/svg"
   xmlns:sodipodi="http://sodipodi.sourceforge.net/DTD/sodipodi-0.dtd"
   xmlns:inkscape="http://www.inkscape.org/namespaces/inkscape"
   height="32"
   width="32"
   version="1"
   id="svg18"
   sodipodi:docname="applications-development-web.svg"
   inkscape:version="0.92.1 r">
  <metadata
     id="metadata24">
    <rdf:RDF>
      <cc:Work
         rdf:about="">
        <dc:format>image/svg+xml</dc:format>
        <dc:type
           rdf:resource="http://purl.org/dc/dcmitype/StillImage" />
      </cc:Work>
    </rdf:RDF>
  </metadata>
  <defs
     id="defs22" />
  <sodipodi:namedview
     pagecolor="#ffffff"
     bordercolor="#666666"
     borderopacity="1"
     objecttolerance="10"
     gridtolerance="10"
     guidetolerance="10"
     inkscape:pageopacity="0"
     inkscape:pageshadow="2"
     inkscape:window-width="1680"
     inkscape:window-height="963"
     id="namedview20"
     showgrid="false"
     inkscape:zoom="7.375"
     inkscape:cx="-8.6779661"
     inkscape:cy="16"
     inkscape:window-x="0"
     inkscape:window-y="0"
     inkscape:window-maximized="1"
     inkscape:current-layer="svg18" />
  <rect
     style="opacity:1;fill:#02a8f3;fill-opacity:1;fill-rule:evenodd;stroke:none;stroke-width:1.03534329;stroke-linecap:round;stroke-linejoin:bevel;stroke-miterlimit:4;stroke-dasharray:none;stroke-dashoffset:0;stroke-opacity:1"
     id="rect4497-3"
     width="28.203388"
     height="28.203388"
     x="1.8983059"
     y="1.8983059"
     ry="5.575182" />
  <path
     style="opacity:1;fill:#ffffff;fill-opacity:1"
     d="m 16,5.999999 c -5.522848,0 -10,4.477152 -10,10 0.0053,5.131615 3.894105,9.426293 9,9.939452 v 0.06055 h 1 c 5.522847,0 9.999999,-4.477152 10,-9.999999 0,-5.522848 -4.477152,-10 -10,-10.000003 z m 1,2.070312 c 0.250625,0.03181 0.499602,0.07548 0.746094,0.13086 0.148639,0.252207 0.792409,1.39159 1.388672,3.11914 C 18.506901,11.394031 17.79262,11.447195 17,11.474608 Z m -2,0.002 v 3.402343 C 14.20738,11.447244 13.493099,11.394074 12.865234,11.320357 13.460503,9.595687 14.10169,8.458264 14.251953,8.20317 14.499089,8.14772 14.748719,8.10403 15,8.072265 Z m 5.580078,1.373046 c 0.536406,0.376953 1.02444,0.818415 1.453125,1.314454 -0.223231,0.06594 -0.521228,0.144108 -0.878906,0.224609 -0.183424,-0.566358 -0.379348,-1.070909 -0.574219,-1.539063 z m -9.166016,0.0098 c -0.193377,0.465319 -0.38638,0.967401 -0.568359,1.529297 -0.359917,-0.081 -0.66099,-0.15841 -0.884765,-0.224609 0.429276,-0.492607 0.917286,-0.930767 1.453124,-1.304688 z m -2.59375,3.03711 c 0.188316,0.06799 0.672346,0.219499 1.527344,0.414062 C 10.1754,13.729466 10.04886,15.095365 10.015625,16 H 8.025391 c 0.06559,-1.044963 0.335673,-2.566888 0.794921,-3.507813 z m 14.363282,0 c 0.46059,0.940622 0.732001,2.462531 0.798828,3.507733 h -1.998047 c -0.03324,-0.904635 -0.159775,-2.270534 -0.332031,-3.093751 0.859121,-0.195501 1.345445,-0.346866 1.53125,-0.414062 z M 12.322266,13.255858 C 13.103833,13.360666 13.998315,13.436147 15,13.470702 V 16 h -2.984375 c 0.03448,-0.772898 0.150328,-2.025793 0.306641,-2.744142 z m 7.355468,0 C 19.834047,13.974207 19.949895,15.227102 19.984375,16 H 17 v -2.529298 c 1.001685,-0.03455 1.896167,-0.110036 2.677734,-0.214844 z M 8.148438,18 h 1.9375 c 0.105021,0.989428 0.310549,1.412215 0.552734,2.273436 -0.441456,0.135728 -0.815894,0.270218 -1.125,0.394531 C 8.833628,19.723826 8.367719,19.142707 8.148438,18 Z m 3.951171,0 H 15 v 1.541014 c -0.880727,0.04504 -1.690003,0.133943 -2.40625,0.263672 C 12.384459,19.081182 12.202227,18.812901 12.099609,18 Z M 17,18 h 2.900391 c -0.102618,0.812901 -0.28485,1.081182 -0.494141,1.804686 C 18.690003,19.674957 17.880727,19.58605 17,19.541014 Z m 4.914062,0 h 1.939454 c -0.219281,1.142707 -0.68519,1.723826 -1.365235,2.667967 -0.309452,-0.12451 -0.68461,-0.25853 -1.126953,-0.394531 C 21.603513,19.412215 21.809041,18.989428 21.914062,18 Z M 15,21.53906 v 2.390626 c -0.250625,-0.03182 -0.499602,-0.07548 -0.746094,-0.13086 -0.117317,-0.19906 -0.520687,-0.908278 -1.005859,-2.09375 C 13.772315,21.624646 14.367597,21.572243 15,21.53906 Z m 2,0 c 0.632403,0.03318 1.227685,0.08558 1.751953,0.166016 -0.484147,1.182969 -0.885361,1.890548 -1.003906,2.091797 C 17.50091,23.852313 17.25128,23.895973 17,23.927732 Z m -5.742188,0.611329 c 0.05544,0.141597 0.106724,0.273225 0.16211,0.40625 -0.144813,-0.10269 -0.286167,-0.210171 -0.423828,-0.322266 0.08588,-0.02826 0.168376,-0.05567 0.261718,-0.08398 z m 9.484376,0 c 0.09562,0.02901 0.179786,0.057 0.267578,0.08594 -0.137867,0.107467 -0.279218,0.210387 -0.423828,0.308594 0.05362,-0.129027 0.102585,-0.257481 0.15625,-0.394534 z"
     id="path8"
     inkscape:connector-curvature="0" />
  <g
     id="g4509"
     transform="matrix(0.625,0,0,0.625,7.9440785,8.1926665)">
    <circle
       id="circle12"
       r="8"
       cy="23"
       cx="24"
       style="fill:#cc5e55;fill-rule:evenodd;enable-background:new" />
    <path
       id="path14"
       style="fill:#ffffff;enable-background:new"
       d="m 23,19 -0.0882,1.0536 a 3.1429,3.1429 0 0 0 -0.91852,0.53126 l -0.95759,-0.4509 -1,1.7321 0.86941,0.6038 a 3.1429,3.1429 0 0 0 -0.048,0.53013 3.1429,3.1429 0 0 0 0.0457,0.53237 l -0.86719,0.60156 1,1.7321 0.95536,-0.44978 a 3.1429,3.1429 0 0 0 0.92075,0.5279 l 0.0882,1.0558 h 2 l 0.0882,-1.0536 a 3.1429,3.1429 0 0 0 0.91854,-0.53126 l 0.95758,0.4509 1,-1.7321 -0.86942,-0.6038 a 3.1429,3.1429 0 0 0 0.048,-0.53013 3.1429,3.1429 0 0 0 -0.0457,-0.53237 l 0.86719,-0.60156 -1,-1.7321 -0.95536,0.44978 a 3.1429,3.1429 0 0 0 -0.921,-0.528 l -0.088,-1.056 h -2 z m 1,2.8572 a 1.1429,1.1429 0 0 1 1.143,1.143 A 1.1429,1.1429 0 0 1 24,24.1432 1.1429,1.1429 0 0 1 22.857,23.0002 1.1429,1.1429 0 0 1 24,21.8572 Z"
       inkscape:connector-curvature="0" />
  </g>
</svg>
