<?xml version="1.0" encoding="UTF-8" standalone="no"?>
<svg
   xmlns:dc="http://purl.org/dc/elements/1.1/"
   xmlns:cc="http://creativecommons.org/ns#"
   xmlns:rdf="http://www.w3.org/1999/02/22-rdf-syntax-ns#"
   xmlns:svg="http://www.w3.org/2000/svg"
   xmlns="http://www.w3.org/2000/svg"
   xmlns:sodipodi="http://sodipodi.sourceforge.net/DTD/sodipodi-0.dtd"
   xmlns:inkscape="http://www.inkscape.org/namespaces/inkscape"
   height="32"
   width="32"
   version="1"
   id="svg37"
   sodipodi:docname="ark-game.svg"
   inkscape:version="0.92.1 r">
  <metadata
     id="metadata41">
    <rdf:RDF>
      <cc:Work
         rdf:about="">
        <dc:format>image/svg+xml</dc:format>
        <dc:type
           rdf:resource="http://purl.org/dc/dcmitype/StillImage" />
      </cc:Work>
    </rdf:RDF>
  </metadata>
  <sodipodi:namedview
     pagecolor="#ffffff"
     bordercolor="#666666"
     borderopacity="1"
     objecttolerance="10"
     gridtolerance="10"
     guidetolerance="10"
     inkscape:pageopacity="0"
     inkscape:pageshadow="2"
     inkscape:window-width="1680"
     inkscape:window-height="963"
     id="namedview39"
     showgrid="false"
     inkscape:zoom="20.85965"
     inkscape:cx="13.44962"
     inkscape:cy="14.557287"
     inkscape:window-x="0"
     inkscape:window-y="0"
     inkscape:window-maximized="1"
     inkscape:current-layer="svg37" />
  <defs
     id="defs7">
    <linearGradient
       id="linearGradient4924"
       y2="20.316"
       gradientUnits="userSpaceOnUse"
       y1="18.858"
       x2="16.213"
       x1="12.897"
       gradientTransform="matrix(0.77163247,0,0,0.77163247,3.6538805,3.2680642)">
      <stop
         offset="0"
         id="stop2" />
      <stop
         stop-opacity="0"
         offset="1"
         id="stop4" />
    </linearGradient>
  </defs>
  <polygon
     points="713 603 688.5 578 676.5 569.5 693.5 560.5 693.5 540 732.5 497.5 664 430.5 588 333 517.5 214 500 192 386 355 328 328 304 332.5 299.5 366 318.5 403.5 338 431 309.5 462 275.5 507 300 533 304 551 318.5 569.5 340.5 583 351.5 604.5 373.5 617 395 637.5 452.5 723 488.5 788.5 502 812.5 551.5 721.5 612.5 637 628.5 616 668 619.5 707 615"
     fill="#5a0e00"
     transform="matrix(.063142 0 0 .063142 -131 -24.03)"
     display="none"
     id="polygon9" />
  <polygon
     points="693.5 540 732.5 497.5 664 430.5 588 333 517.5 214 500 192 386 355 328 328 304 332.5 299.5 366 318.5 403.5 338 431 309.5 462 275.5 507 300 533 304 551 318.5 569.5 340.5 583 351.5 604.5 373.5 617 395 637.5 452.5 723 488.5 788.5 502 812.5 551.5 721.5 612.5 637 628.5 616 668 619.5 707 615 713 603 688.5 578 676.5 569.5 693.5 560.5"
     fill="#5a0e00"
     transform="matrix(.063142 0 0 .063142 -187.14 -27.613)"
     display="none"
     id="polygon11" />
  <rect
     style="opacity:1;fill:#e6e6e6;fill-opacity:1;fill-rule:evenodd;stroke:none;stroke-width:1.03534329;stroke-linecap:round;stroke-linejoin:bevel;stroke-miterlimit:4;stroke-dasharray:none;stroke-dashoffset:0;stroke-opacity:1"
     id="rect4497-3"
     width="28.203388"
     height="28.203388"
     x="1.8983059"
     y="1.8983059"
     ry="5.575182" />
  <path
     style="fill:#4f4f4f;stroke-width:0.77163249"
     inkscape:connector-curvature="0"
     d="M 5.1971454,23.330508 H 10.598573 L 16,13.299286 21.401427,23.330508 h 5.401428 L 18.700714,8.6694915 h -5.401428 z"
     id="path13" />
  <path
     style="fill:#e33e31;stroke-width:0.77163249"
     inkscape:connector-curvature="0"
     d="m 7.7435326,18.700714 2.8550404,4.629794 H 5.1971454 Z"
     id="path19" />
  <path
     style="fill:#e4be21;stroke-width:0.77163249"
     inkscape:connector-curvature="0"
     d="m 24.256467,18.700714 2.546388,4.629794 h -5.401428 z"
     id="path21" />
  <path
     style="fill:#3c8cf8;stroke-width:0.77163249"
     inkscape:connector-curvature="0"
     d="M 16,13.299286 18.700714,8.6694915 H 13.299286 Z"
     id="path23" />
  <path
     style="fill:#4f4f4f;stroke-width:0.77163249"
     inkscape:connector-curvature="0"
     d="m 14.753814,15.614184 -2.493145,4.629795 H 16 v -4.629795 z"
     id="path25" />
  <path
     inkscape:connector-curvature="0"
     style="opacity:1;fill:#4f4f4f;stroke-width:0.77163249;fill-opacity:1"
     d="m 14.753814,15.614184 -2.493145,4.629795 H 16 v -4.629795 z"
     id="path27" />
</svg>
