<?xml version="1.0" encoding="UTF-8" standalone="no"?>
<svg
   xmlns:dc="http://purl.org/dc/elements/1.1/"
   xmlns:cc="http://creativecommons.org/ns#"
   xmlns:rdf="http://www.w3.org/1999/02/22-rdf-syntax-ns#"
   xmlns:svg="http://www.w3.org/2000/svg"
   xmlns="http://www.w3.org/2000/svg"
   xmlns:sodipodi="http://sodipodi.sourceforge.net/DTD/sodipodi-0.dtd"
   xmlns:inkscape="http://www.inkscape.org/namespaces/inkscape"
   height="32"
   viewBox="0 0 32 32"
   width="32"
   version="1.1"
   id="svg20"
   sodipodi:docname="asc-de.svg"
   inkscape:version="0.92.1 r">
  <metadata
     id="metadata26">
    <rdf:RDF>
      <cc:Work
         rdf:about="">
        <dc:format>image/svg+xml</dc:format>
        <dc:type
           rdf:resource="http://purl.org/dc/dcmitype/StillImage" />
      </cc:Work>
    </rdf:RDF>
  </metadata>
  <defs
     id="defs24" />
  <sodipodi:namedview
     pagecolor="#ffffff"
     bordercolor="#666666"
     borderopacity="1"
     objecttolerance="10"
     gridtolerance="10"
     guidetolerance="10"
     inkscape:pageopacity="0"
     inkscape:pageshadow="2"
     inkscape:window-width="1680"
     inkscape:window-height="963"
     id="namedview22"
     showgrid="false"
     inkscape:zoom="5.2149125"
     inkscape:cx="-20.262156"
     inkscape:cy="12.844934"
     inkscape:window-x="0"
     inkscape:window-y="0"
     inkscape:window-maximized="1"
     inkscape:current-layer="svg20" />
  <rect
     style="opacity:1;fill:#808080;fill-opacity:1;fill-rule:evenodd;stroke:none;stroke-width:1.03534329;stroke-linecap:round;stroke-linejoin:bevel;stroke-miterlimit:4;stroke-dasharray:none;stroke-dashoffset:0;stroke-opacity:1"
     id="rect4497-3"
     width="28.203388"
     height="28.203388"
     x="1.8983059"
     y="1.8983059"
     ry="5.575182" />
  <g
     id="g4512"
     transform="matrix(0.6712724,0,0,0.6712724,5.2596416,5.2596417)">
    <path
       id="path4"
       style="opacity:1;fill:#ea6e41;fill-opacity:1"
       d="m 16.000603,16.000001 c -0.862283,-1.42e-4 -1.72461,0.172302 -2.362717,0.515897 L 3.9565688,21.72803 c -1.2762145,0.687187 -1.275029,1.857259 0.00118,2.544448 l 9.6801282,5.212132 c 1.276214,0.687187 3.449222,0.687187 4.725434,0 l 9.680131,-5.212132 c 1.276211,-0.687186 1.275009,-1.857263 -0.0012,-2.544448 L 18.363347,16.515898 C 17.72524,16.172303 16.862914,16.000141 16.000631,16.000001 Z"
       inkscape:connector-curvature="0" />
    <path
       id="path10"
       d="M 16.000603,8.9999998 C 15.13832,8.9998591 14.275993,9.1723027 13.637886,9.5158971 L 3.9565688,14.728029 c -1.2762145,0.687189 -1.275029,1.857261 0.00118,2.54445 l 9.6801282,5.21213 c 1.276214,0.687188 3.449222,0.687188 4.725434,0 l 9.680131,-5.21213 c 1.276211,-0.687187 1.275009,-1.857264 -0.0012,-2.54445 L 18.363319,9.5158971 C 17.725212,9.1723027 16.862886,9.0001405 16.000603,8.9999998 Z"
       style="opacity:1;fill:#aed351;fill-opacity:1"
       inkscape:connector-curvature="0" />
    <path
       id="path16"
       style="opacity:1;fill:#3b9dda;fill-opacity:1"
       d="M 16.000603,1.9999999 C 15.13832,1.9998592 14.275993,2.1723028 13.637886,2.5158971 L 3.9565688,7.728029 c -1.2762145,0.687188 -1.275029,1.8572605 0.00118,2.544449 l 9.6801282,5.212132 c 1.276214,0.687187 3.449222,0.687186 4.725434,0 l 9.680131,-5.212132 c 1.276211,-0.6871864 1.275009,-1.8572631 -0.0012,-2.544449 L 18.363319,2.5158971 C 17.725212,2.1723028 16.862886,2.0001406 16.000603,1.9999999 Z"
       inkscape:connector-curvature="0" />
  </g>
</svg>
