<?xml version="1.0" encoding="UTF-8" standalone="no"?>
<svg
   xmlns:dc="http://purl.org/dc/elements/1.1/"
   xmlns:cc="http://creativecommons.org/ns#"
   xmlns:rdf="http://www.w3.org/1999/02/22-rdf-syntax-ns#"
   xmlns:svg="http://www.w3.org/2000/svg"
   xmlns="http://www.w3.org/2000/svg"
   xmlns:sodipodi="http://sodipodi.sourceforge.net/DTD/sodipodi-0.dtd"
   xmlns:inkscape="http://www.inkscape.org/namespaces/inkscape"
   height="32"
   width="32"
   version="1.1"
   viewBox="0 0 32 32"
   id="svg20"
   sodipodi:docname="astromenace.svg"
   inkscape:version="0.92.1 r">
  <metadata
     id="metadata26">
    <rdf:RDF>
      <cc:Work
         rdf:about="">
        <dc:format>image/svg+xml</dc:format>
        <dc:type
           rdf:resource="http://purl.org/dc/dcmitype/StillImage" />
      </cc:Work>
    </rdf:RDF>
  </metadata>
  <defs
     id="defs24" />
  <sodipodi:namedview
     pagecolor="#ffffff"
     bordercolor="#666666"
     borderopacity="1"
     objecttolerance="10"
     gridtolerance="10"
     guidetolerance="10"
     inkscape:pageopacity="0"
     inkscape:pageshadow="2"
     inkscape:window-width="1680"
     inkscape:window-height="963"
     id="namedview22"
     showgrid="false"
     inkscape:zoom="7.375"
     inkscape:cx="-8.6779661"
     inkscape:cy="11.322034"
     inkscape:window-x="0"
     inkscape:window-y="0"
     inkscape:window-maximized="1"
     inkscape:current-layer="svg20" />
  <polygon
     style="display:none;fill:#5a0e00"
     points="693.5 560.5 693.5 540 732.5 497.5 664 430.5 588 333 517.5 214 500 192 386 355 328 328 304 332.5 299.5 366 318.5 403.5 338 431 309.5 462 275.5 507 300 533 304 551 318.5 569.5 340.5 583 351.5 604.5 373.5 617 395 637.5 452.5 723 488.5 788.5 502 812.5 551.5 721.5 612.5 637 628.5 616 668 619.5 707 615 713 603 688.5 578 676.5 569.5"
     transform="matrix(0.063142,0,0,0.063142,-155,-22.762145)"
     display="none"
     id="polygon14" />
  <rect
     style="opacity:1;fill:#3f5979;fill-opacity:1;fill-rule:evenodd;stroke:none;stroke-width:1.03534329;stroke-linecap:round;stroke-linejoin:bevel;stroke-miterlimit:4;stroke-dasharray:none;stroke-dashoffset:0;stroke-opacity:1"
     id="rect4497-3"
     width="28.203388"
     height="28.203388"
     x="1.8983059"
     y="1.8983059"
     ry="5.575182" />
  <g
     id="g4523"
     transform="translate(51.025342,-0.09321981)">
    <path
       inkscape:connector-curvature="0"
       id="path8"
       d="m -34.649281,7.59404 c -0.07298,0.00241 -0.148406,0.0098 -0.229687,0.020755 -0.914164,0.1232144 -1.165089,0.3470361 -1.724023,1.5343122 -0.376999,0.8008071 -0.565602,0.8985978 -1.051367,1.0042878 -2.270899,-1.6740673 -2.270899,0.881294 -2.717969,1.58965 -0.612812,-0.544097 -1.408664,-1.720648 -2.195645,-2.3783914 -0.703608,-0.5880626 -1.400127,-0.9443505 -1.952402,-0.5732006 -0.437641,0.3105401 -0.809472,0.9768203 -0.944727,2.505534 -0.184779,2.088454 0.0019,3.264213 1.312501,4.993795 1.481984,1.955797 3.68999,3.912297 7.185936,6.368293 1.51424,1.063793 2.783205,1.934145 2.820508,1.934145 0.209681,0 -2.026639,-2.939631 -3.381054,-4.443833 -2.024185,-2.248037 -2.397704,-3.047432 -2.441447,-4.057005 -0.0395,-0.912116 0.346379,-1.516324 0.863712,-1.516324 0.187983,0 1.03879,0.646194 1.976954,1.723023 0.781823,0.854909 1.295868,2.05718 1.920165,2.937175 1.322034,1.670465 2.855183,1.883518 3.424804,0.475928 0.551795,-1.369656 0.191643,-3.775084 -1.069774,-5.451169 -0.141919,-0.612973 0.126352,-0.706234 0.746484,-0.705589 0.78439,7.79e-4 2.274064,0.539692 3.169141,1.324174 1.106114,0.969443 1.29251,0.964881 2.523828,3.436136 0.726834,1.458756 1.447739,2.819289 1.602344,3.022968 0.275336,0.362746 0.281122,0.360739 0.285742,-0.09269 -0.232346,-3.775768 -1.52736,-7.369369 -4.327149,-9.948317 -0.473599,-0.418922 -1.863308,-1.4407867 -3.088476,-2.2703409 -1.785039,-1.2086438 -2.197553,-1.450384 -2.708399,-1.4333161 z"
       style="fill:#8d8069" />
    <ellipse
       id="ellipse12"
       transform="matrix(0.41803286,-0.90843191,0.66935843,0.74293963,0,0)"
       ry="2.0580001"
       rx="1.419"
       cy="-26.096987"
       cx="-39.608215"
       style="opacity:0.96600001;fill:#ffffff;stroke-width:6.83594084;stroke-linecap:round;stroke-linejoin:round" />
  </g>
</svg>
