<?xml version="1.0" encoding="UTF-8" standalone="no"?>
<svg
   xmlns:dc="http://purl.org/dc/elements/1.1/"
   xmlns:cc="http://creativecommons.org/ns#"
   xmlns:rdf="http://www.w3.org/1999/02/22-rdf-syntax-ns#"
   xmlns:svg="http://www.w3.org/2000/svg"
   xmlns="http://www.w3.org/2000/svg"
   xmlns:sodipodi="http://sodipodi.sourceforge.net/DTD/sodipodi-0.dtd"
   xmlns:inkscape="http://www.inkscape.org/namespaces/inkscape"
   height="32"
   width="32"
   version="1"
   id="svg14"
   sodipodi:docname="audacity.svg"
   inkscape:version="0.92.1 r">
  <metadata
     id="metadata20">
    <rdf:RDF>
      <cc:Work
         rdf:about="">
        <dc:format>image/svg+xml</dc:format>
        <dc:type
           rdf:resource="http://purl.org/dc/dcmitype/StillImage" />
      </cc:Work>
    </rdf:RDF>
  </metadata>
  <defs
     id="defs18" />
  <sodipodi:namedview
     pagecolor="#ffffff"
     bordercolor="#666666"
     borderopacity="1"
     objecttolerance="10"
     gridtolerance="10"
     guidetolerance="10"
     inkscape:pageopacity="0"
     inkscape:pageshadow="2"
     inkscape:window-width="1680"
     inkscape:window-height="965"
     id="namedview16"
     showgrid="false"
     inkscape:zoom="7.375"
     inkscape:cx="-10.711864"
     inkscape:cy="16"
     inkscape:window-x="0"
     inkscape:window-y="0"
     inkscape:window-maximized="1"
     inkscape:current-layer="svg14" />
  <rect
     style="opacity:1;fill:#608ab5;fill-opacity:1;fill-rule:evenodd;stroke:none;stroke-width:1.03534329;stroke-linecap:round;stroke-linejoin:bevel;stroke-miterlimit:4;stroke-dasharray:none;stroke-dashoffset:0;stroke-opacity:1"
     id="rect4497-3"
     width="28.203388"
     height="28.203388"
     x="1.8983059"
     y="1.8983059"
     ry="5.575182" />
  <g
     id="g4505"
     transform="matrix(0.74645995,0,0,0.74645995,4.0565662,3.6819179)">
    <path
       id="path4"
       d="m 8.2,22.5 1.8,-10 1,15 1,-14 1,13 1,-11 1,7 2,-9 v 12 l 2,-13 2,15 1,-11 1.7,5"
       inkscape:connector-curvature="0"
       style="fill:none;stroke:#fbc34f;stroke-linecap:round;stroke-linejoin:round" />
    <path
       style="fill:#ffffff"
       id="path8"
       d="m 16,5.0039 c -2.9013,0 -5.5472,0.9058 -7.499,2.4268 -1.9518,1.521 -3.2197,3.6972 -3.2197,6.1182 v 0.875 c -1.9379,0.98185 -3.2812,3.5574 -3.2812,6.5762 0,3.864 2.1983,7 5.0312,7 v -14.451 c 0,-1.813 0.9384,-3.4816 2.5498,-4.7373 1.6112,-1.2559 3.8872,-2.0578 6.4192,-2.0578 2.5321,0 4.8076,0.80192 6.419,2.0576 1.6114,1.25568 2.5498,2.9243 2.5498,4.7373 v 14.451 c 2.833,0 5.031,-3.136 5.031,-7 0,-3.019 -1.343,-5.594 -3.281,-6.576 v -0.875 c 0,-2.421 -1.2679,-4.5972 -3.2197,-6.1182 -1.952,-1.5211 -4.598,-2.4269 -7.499,-2.4269 z m -8.3125,9.2148 v 13.781 c 0.4375,0 0.875,-0.21875 1.0938,-0.65625 v -12.688 C 8.56255,14.4367 8.12505,14.21795 7.6875,14.21795 Z m 16.625,0 c -0.4375,0 -0.875,0.21875 -1.0938,0.4375 v 12.688 c 0.22,0.437 0.657,0.656 1.094,0.656 v -13.781 z"
       inkscape:connector-curvature="0" />
  </g>
</svg>
