<?xml version="1.0" encoding="UTF-8" standalone="no"?>
<svg
   xmlns:dc="http://purl.org/dc/elements/1.1/"
   xmlns:cc="http://creativecommons.org/ns#"
   xmlns:rdf="http://www.w3.org/1999/02/22-rdf-syntax-ns#"
   xmlns:svg="http://www.w3.org/2000/svg"
   xmlns="http://www.w3.org/2000/svg"
   xmlns:sodipodi="http://sodipodi.sourceforge.net/DTD/sodipodi-0.dtd"
   xmlns:inkscape="http://www.inkscape.org/namespaces/inkscape"
   height="32"
   width="32"
   version="1"
   id="svg12"
   sodipodi:docname="avr8-burn-o-mat.svg"
   inkscape:version="0.92.2 2405546, 2018-03-11">
  <metadata
     id="metadata18">
    <rdf:RDF>
      <cc:Work
         rdf:about="">
        <dc:format>image/svg+xml</dc:format>
        <dc:type
           rdf:resource="http://purl.org/dc/dcmitype/StillImage" />
        <dc:title />
      </cc:Work>
    </rdf:RDF>
  </metadata>
  <defs
     id="defs16" />
  <sodipodi:namedview
     pagecolor="#ffffff"
     bordercolor="#666666"
     borderopacity="1"
     objecttolerance="10"
     gridtolerance="10"
     guidetolerance="10"
     inkscape:pageopacity="0"
     inkscape:pageshadow="2"
     inkscape:window-width="1680"
     inkscape:window-height="972"
     id="namedview14"
     showgrid="false"
     inkscape:zoom="6.6512232"
     inkscape:cx="-3.5556777"
     inkscape:cy="11.27638"
     inkscape:window-x="0"
     inkscape:window-y="0"
     inkscape:window-maximized="1"
     inkscape:current-layer="svg12" />
  <rect
     style="opacity:1;fill:#f39019;fill-opacity:1;fill-rule:evenodd;stroke:none;stroke-width:1.03534329;stroke-linecap:round;stroke-linejoin:bevel;stroke-miterlimit:4;stroke-dasharray:none;stroke-dashoffset:0;stroke-opacity:1"
     id="rect4497-3"
     width="28.203388"
     height="28.203388"
     x="1.8983059"
     y="1.8983059"
     ry="5.575182" />
  <g
     id="g4583"
     transform="translate(43.804686,2.1542967)">
    <path
       id="path54"
       d="m -24.222656,27.947266 c -0.135017,-0.419092 -0.224175,-0.840496 -0.480469,-1.25 -0.705186,-1.12674 -1.972483,-2.083388 -2.490234,-3.214844 -0.356682,-0.779465 -0.420735,-1.609828 -0.244141,-2.50586 0.176594,-0.896031 0.592995,-1.856898 1.199219,-2.898437 -1.750813,1.809504 -3.15542,3.713707 -4.166016,5.537109 -0.505298,0.911702 -0.913098,1.803047 -1.214844,2.652344 -0.211135,0.594265 -0.301858,1.13425 -0.408203,1.679688 z"
       style="opacity:1;fill:#ffff7e;fill-opacity:1;fill-rule:evenodd;stroke:none;stroke-width:1.03534329;stroke-linecap:round;stroke-linejoin:bevel;stroke-miterlimit:4;stroke-dasharray:none;stroke-dashoffset:0;stroke-opacity:1"
       inkscape:connector-curvature="0" />
    <path
       id="path65"
       d="m -21.162109,27.947266 c 0.219338,-1.003121 0.274822,-2.107916 0.134765,-3.302735 -0.144942,-1.236495 -0.478902,-2.558275 -0.988281,-3.929687 -0.509379,-1.371413 -1.19583,-2.791827 -2.048828,-4.226563 -0.852999,-1.434735 -1.871076,-2.884083 -3.046875,-4.310547 C -28.287127,10.75127 -29.619874,9.3465979 -31.097656,8 c 1.023371,1.6330815 1.72728,3.170343 2.02539,4.646484 0.149056,0.738071 0.197879,1.46182 0.132813,2.173828 -0.06507,0.712009 -0.243864,1.412695 -0.544922,2.107422 -0.437011,1.008456 -1.190982,1.982098 -1.984375,2.958985 -0.793393,0.976887 -1.625488,1.956649 -2.220703,2.980469 -0.682958,1.174743 -1.115571,2.360687 -1.283203,3.488281 -0.08496,0.571506 0.101403,1.058902 0.154297,1.591797 h 2.791015 c 0.106345,-0.545438 0.197068,-1.085423 0.408203,-1.679688 0.301746,-0.849297 0.709546,-1.740642 1.214844,-2.652344 1.010596,-1.823402 2.415203,-3.727605 4.166016,-5.537109 -0.606224,1.041539 -1.022625,2.002406 -1.199219,2.898437 -0.176594,0.896032 -0.112541,1.726395 0.244141,2.50586 0.517751,1.131456 1.785048,2.088104 2.490234,3.214844 0.256294,0.409504 0.345452,0.830908 0.480469,1.25 z"
       style="opacity:1;fill:#f3b326;fill-opacity:1;fill-rule:evenodd;stroke:none;stroke-width:1.03534329;stroke-linecap:round;stroke-linejoin:bevel;stroke-miterlimit:4;stroke-dasharray:none;stroke-dashoffset:0;stroke-opacity:1"
       inkscape:connector-curvature="0" />
    <path
       id="path57"
       d="m -26.837891,1.2890625 c -1.345535,1.2359305 -2.674622,2.8116575 -3.658203,4.34375 -0.49179,0.7660462 -0.896997,1.5210109 -1.175781,2.2167969 -0.278784,0.695786 -0.429965,1.3320029 -0.414063,1.8613281 0.01841,0.6128165 0.01922,2.4267795 -0.0293,3.9707035 -0.04851,1.543924 -0.146334,2.818063 -0.326172,2.349609 -1.141337,-1.208564 -2.370033,-2.314915 -3.734375,-3.259766 -1.364342,-0.94485 -2.864837,-1.727189 -4.554688,-2.287109 0.572229,0.402007 1.040742,0.818003 1.41211,1.248047 0.371367,0.430044 0.644606,0.872494 0.828125,1.326172 0.183518,0.453677 0.276474,0.91967 0.285156,1.392578 0.0087,0.472908 -0.06561,0.953671 -0.21875,1.441406 -0.524143,1.669311 -0.875897,3.189558 -1.074219,4.572266 -0.198321,1.382707 -0.242815,2.627103 -0.15625,3.746094 0.08532,1.102861 0.302427,2.078504 0.625,2.947265 0.809801,0.457399 1.69704,0.789063 2.697266,0.789063 h 1.513672 c -0.05289,-0.532895 -0.239259,-1.020291 -0.154297,-1.591797 0.167632,-1.127594 0.600245,-2.313538 1.283203,-3.488281 0.595215,-1.02382 1.42731,-2.003582 2.220703,-2.980469 0.793393,-0.976887 1.547364,-1.950529 1.984375,-2.958985 0.301058,-0.694727 0.479856,-1.395413 0.544922,-2.107422 0.06507,-0.712008 0.01624,-1.435757 -0.132813,-2.173828 C -29.37038,11.170343 -30.074289,9.6330815 -31.09766,8 c 1.477782,1.3465979 2.810529,2.75127 3.986328,4.177734 1.175799,1.426464 2.193876,2.875812 3.046875,4.310547 0.852998,1.434736 1.539449,2.85515 2.048828,4.226563 0.509379,1.371412 0.843339,2.693192 0.988281,3.929687 0.140057,1.194819 0.08457,2.299614 -0.134765,3.302735 h 1.882812 c 1.175474,0 2.202254,-0.444296 3.099609,-1.060547 0.104386,-0.201471 0.277053,-0.334232 0.367188,-0.548828 0.448677,-1.068226 0.713255,-2.302675 0.722656,-3.726563 0.0094,-1.423888 -0.235238,-3.038904 -0.808594,-4.86914 0.09054,0.85087 -0.108724,1.601426 -0.458984,2.214843 -0.35026,0.613417 -0.852084,1.090268 -1.371094,1.394531 -0.51901,0.304265 -1.054994,0.435964 -1.470703,0.359376 -0.415709,-0.07659 -0.711595,-0.361482 -0.751953,-0.890626 -0.101116,-1.325748 -0.341423,-2.451667 -0.679687,-3.427734 -0.338265,-0.976066 -0.774312,-1.80254 -1.261719,-2.53125 -0.974814,-1.45742 -2.159783,-2.521566 -3.203125,-3.603516 -0.521671,-0.540974 -1.00727,-1.086905 -1.414063,-1.6874995 -0.406792,-0.6005947 -0.735545,-1.2569906 -0.939453,-2.0195313 -0.203908,-0.7625405 -0.284249,-1.6313912 -0.197265,-2.6582031 0.08698,-1.0268119 0.342712,-2.2101068 0.808593,-3.6035156 z"
       style="opacity:1;fill:#f39019;fill-opacity:1;fill-rule:evenodd;stroke:none;stroke-width:1.03534329;stroke-linecap:round;stroke-linejoin:bevel;stroke-miterlimit:4;stroke-dasharray:none;stroke-dashoffset:0;stroke-opacity:1"
       inkscape:connector-curvature="0" />
    <path
       id="path62"
       d="M -13.703125,14.367188 V 5.3203125 c 0,-3.0886508 -2.487521,-5.57617187 -5.576172,-5.57617188 h -6.371094 c -0.0952,0.6018737 -0.257605,1.31719018 -0.289062,1.81249998 -0.06284,0.9894958 -0.003,1.7813295 0.15625,2.4375 0.159283,0.6561706 0.419389,1.1776298 0.757812,1.6230469 0.338424,0.4454171 0.753938,0.8165926 1.228516,1.1738281 0.949156,0.714471 2.129375,1.373528 3.365234,2.4707032 0.61793,0.5485875 1.249874,1.2070352 1.875,2.0351562 0.625127,0.828121 1.242694,1.826414 1.832032,3.056641 0.18561,0.387456 0.449462,0.640143 0.751953,0.779296 0.302491,0.139154 0.643697,0.165206 0.980468,0.09961 0.336772,-0.0656 0.670532,-0.222427 0.958985,-0.449219 0.13808,-0.108563 0.217064,-0.277894 0.330078,-0.416015 z"
       style="opacity:1;fill:#1a1a1a;fill-opacity:1;fill-rule:evenodd;stroke:none;stroke-width:1.03534329;stroke-linecap:round;stroke-linejoin:bevel;stroke-miterlimit:4;stroke-dasharray:none;stroke-dashoffset:0;stroke-opacity:1"
       inkscape:connector-curvature="0" />
    <path
       id="path60"
       d="m -27.693359,-0.25585938 h -8.638672 c -3.088651,0 -5.574219,2.48752108 -5.574219,5.57617188 v 3.5644531 c 0.515495,0.097483 1.144362,0.1591221 1.591797,0.2636719 1.302323,0.3043075 2.26672,0.6195539 2.605469,0.8339844 0.02713,-0.286593 1.722059,-2.401408 4.105468,-4.8925781 1.191705,-1.2455851 2.55457,-2.585089 3.96875,-3.8378907 0.64283,-0.56947323 1.289335,-0.9913402 1.941407,-1.50781248 z"
       style="opacity:1;fill:#1a1a1a;fill-opacity:1;fill-rule:evenodd;stroke:none;stroke-width:1.03534329;stroke-linecap:round;stroke-linejoin:bevel;stroke-miterlimit:4;stroke-dasharray:none;stroke-dashoffset:0;stroke-opacity:1"
       inkscape:connector-curvature="0" />
    <path
       id="rect4497-3-3"
       d="m -27.693359,-0.25585938 c -0.652072,0.51647228 -1.298577,0.93833925 -1.941407,1.50781248 -1.41418,1.2528017 -2.777045,2.5923056 -3.96875,3.8378907 -2.383409,2.4911701 -4.078342,4.6059851 -4.105468,4.8925781 C -38.047733,9.7679914 -39.01213,9.452745 -40.314453,9.1484375 -40.761888,9.0438877 -41.390755,8.9822484 -41.90625,8.8847656 V 22.373047 c 0,2.088425 1.186126,3.830127 2.876953,4.785156 -0.322573,-0.868761 -0.539683,-1.844404 -0.625,-2.947265 -0.08657,-1.118991 -0.04207,-2.363387 0.15625,-3.746094 0.198322,-1.382708 0.550076,-2.902955 1.074219,-4.572266 0.153142,-0.487735 0.227432,-0.968498 0.21875,-1.441406 -0.0087,-0.472908 -0.101638,-0.938901 -0.285156,-1.392578 -0.183519,-0.453678 -0.456758,-0.896128 -0.828125,-1.326172 -0.371368,-0.430044 -0.839881,-0.84604 -1.41211,-1.248047 1.689851,0.55992 3.190346,1.342259 4.554688,2.287109 1.364342,0.944851 2.593038,2.051202 3.734375,3.259766 0.179838,0.468454 0.27766,-0.805685 0.326172,-2.349609 0.04851,-1.543924 0.04771,-3.357887 0.0293,-3.9707035 -0.0159,-0.5293252 0.135279,-1.1655421 0.414063,-1.8613281 0.278784,-0.695786 0.683991,-1.4507507 1.175781,-2.2167969 0.983581,-1.5320925 2.312668,-3.1078195 3.658203,-4.34375 -0.465881,1.3934088 -0.72161,2.5767037 -0.808593,3.6035156 -0.08698,1.0268119 -0.0066,1.8956626 0.197265,2.6582031 0.203908,0.7625407 0.532661,1.4189366 0.939453,2.0195313 0.406793,0.6005945 0.892392,1.1465265 1.414063,1.6874995 1.043342,1.081949 2.228311,2.146096 3.203125,3.603516 0.487407,0.72871 0.923454,1.555184 1.261719,2.53125 0.338264,0.976067 0.578571,2.101986 0.679687,3.427734 0.04036,0.529143 0.336244,0.814037 0.751953,0.890626 0.415709,0.07659 0.951693,-0.05511 1.470703,-0.359376 0.51901,-0.304263 1.020834,-0.781114 1.371094,-1.394531 0.35026,-0.613417 0.549524,-1.363973 0.458984,-2.214843 0.573356,1.830236 0.817996,3.445252 0.808594,4.86914 -0.0094,1.423888 -0.273979,2.658337 -0.722656,3.726563 -0.09014,0.214596 -0.262802,0.347357 -0.367188,0.548828 1.460517,-1.002997 2.476563,-2.600495 2.476563,-4.513672 v -8.005859 c -0.113014,0.138121 -0.191998,0.307452 -0.330078,0.416015 -0.288453,0.226792 -0.622213,0.383622 -0.958985,0.449219 -0.336771,0.0656 -0.677977,0.03954 -0.980468,-0.09961 -0.302491,-0.139153 -0.566343,-0.39184 -0.751953,-0.779296 -0.589338,-1.230227 -1.206905,-2.22852 -1.832032,-3.056641 -0.625126,-0.828121 -1.25707,-1.4865687 -1.875,-2.0351562 -1.235859,-1.0971752 -2.416078,-1.7562322 -3.365234,-2.4707032 -0.474578,-0.3572355 -0.890092,-0.728411 -1.228516,-1.1738281 -0.338423,-0.4454171 -0.598529,-0.9668763 -0.757812,-1.6230469 -0.159283,-0.6561705 -0.219094,-1.4480042 -0.15625,-2.4375 0.03146,-0.4953098 0.193866,-1.21062628 0.289062,-1.81249998 z"
       style="opacity:1;fill:#ee1e14;fill-opacity:1;fill-rule:evenodd;stroke:none;stroke-width:1.03534329;stroke-linecap:round;stroke-linejoin:bevel;stroke-miterlimit:4;stroke-dasharray:none;stroke-dashoffset:0;stroke-opacity:1"
       inkscape:connector-curvature="0" />
    <text
       id="text14-5"
       y="24.083286"
       x="-35.414185"
       style="font-style:normal;font-weight:normal;font-size:20.65621567px;line-height:1.25;font-family:sans-serif;letter-spacing:0px;word-spacing:0px;fill:#000000;fill-opacity:1;stroke:none;stroke-width:0.51640534"
       xml:space="preserve"><tspan
         style="font-style:normal;font-variant:normal;font-weight:bold;font-stretch:normal;font-family:sans-serif;-inkscape-font-specification:'sans-serif Bold';stroke-width:0.51640534"
         y="24.083286"
         x="-35.414185"
         id="tspan12-6"
         sodipodi:role="line">B</tspan></text>
  </g>
</svg>
