<?xml version="1.0" encoding="UTF-8" standalone="no"?>
<svg
   xmlns:dc="http://purl.org/dc/elements/1.1/"
   xmlns:cc="http://creativecommons.org/ns#"
   xmlns:rdf="http://www.w3.org/1999/02/22-rdf-syntax-ns#"
   xmlns:svg="http://www.w3.org/2000/svg"
   xmlns="http://www.w3.org/2000/svg"
   xmlns:sodipodi="http://sodipodi.sourceforge.net/DTD/sodipodi-0.dtd"
   xmlns:inkscape="http://www.inkscape.org/namespaces/inkscape"
   height="32"
   width="32"
   version="1"
   id="svg20"
   sodipodi:docname="badland.svg"
   inkscape:version="0.92.1 r">
  <metadata
     id="metadata26">
    <rdf:RDF>
      <cc:Work
         rdf:about="">
        <dc:format>image/svg+xml</dc:format>
        <dc:type
           rdf:resource="http://purl.org/dc/dcmitype/StillImage" />
      </cc:Work>
    </rdf:RDF>
  </metadata>
  <defs
     id="defs24" />
  <sodipodi:namedview
     pagecolor="#ffffff"
     bordercolor="#666666"
     borderopacity="1"
     objecttolerance="10"
     gridtolerance="10"
     guidetolerance="10"
     inkscape:pageopacity="0"
     inkscape:pageshadow="2"
     inkscape:window-width="1680"
     inkscape:window-height="965"
     id="namedview22"
     showgrid="false"
     inkscape:zoom="7.375"
     inkscape:cx="-36.462671"
     inkscape:cy="14.057104"
     inkscape:window-x="0"
     inkscape:window-y="0"
     inkscape:window-maximized="1"
     inkscape:current-layer="svg20" />
  <rect
     style="opacity:1;fill:#e6e6e6;fill-opacity:1;fill-rule:evenodd;stroke:none;stroke-width:1.03534329;stroke-linecap:round;stroke-linejoin:bevel;stroke-miterlimit:4;stroke-dasharray:none;stroke-dashoffset:0;stroke-opacity:1"
     id="rect4497-3"
     width="28.203388"
     height="28.203388"
     x="1.8983059"
     y="1.8983059"
     ry="5.575182" />
  <g
     id="g4514"
     transform="matrix(0.72881257,0,0,0.72881257,4.3390076,4.3388525)">
    <path
       id="path2"
       d="m 15.053,30.831 c -0.09538,-0.09274 -0.17342,-0.22957 -0.17342,-0.30408 0,-0.09796 -0.04202,-0.1172 -0.15174,-0.06949 -0.08346,0.0363 -0.4902,0.08195 -0.90388,0.10147 l -0.75214,0.03548 -0.13756,-0.25863 c -0.12241,-0.23014 -0.16195,-0.24961 -0.35904,-0.17676 -0.53993,0.19958 -1.0773,0.04391 -1.0773,-0.3121 0,-0.21924 -5.21e-4,-0.21938 -0.55416,-0.16423 -0.31656,0.03153 -0.65353,0.01847 -0.78593,-0.03047 -0.1953,-0.072 -0.2274,-0.128 -0.2044,-0.359 l 0.0272,-0.274 -0.5288,-0.042 c -0.6199,-0.05 -0.8363,-0.184 -0.7616,-0.474 0.0469,-0.181 0.0238,-0.201 -0.2393,-0.203 -0.3611,-0.004 -0.5851,-0.162 -0.6716,-0.474 -0.0543,-0.197 -0.1071,-0.235 -0.2926,-0.214 -0.3527,0.041 -0.5426,-0.31 -0.5237,-0.969 0.0151,-0.529 -0.0261,-0.617 -0.2066,-0.441 -0.0518,0.05 -0.1864,0.079 -0.2992,0.063 -0.2611,-0.036 -0.3196,-0.449 -0.1291,-0.912 0.1527,-0.371 0.12,-0.431 -0.1994,-0.369 -0.4194,0.081 -0.5207,-0.215 -0.3043,-0.89 0.0572,-0.177 0.0443,-0.195 -0.1,-0.138 -0.3465,0.137 -0.425,0.099 -0.4524,-0.221 -0.0164,-0.192 0.042,-0.441 0.1535,-0.653 0.1861,-0.355 0.1786,-0.373 -0.149,-0.347 -0.3161,0.025 -0.3276,-0.218 -0.032,-0.68 0.14895,-0.23295 0.27081,-0.45288 0.27081,-0.48872 0,-0.03584 -0.097547,-0.10838 -0.21677,-0.1612 -0.27611,-0.12232 -0.27395,-0.30541 0.00826,-0.70136 0.23902,-0.33533 0.2199,-0.49422 -0.059457,-0.49422 -0.36315,0 -0.32049,-0.46172 0.088951,-0.96264 0.20558,-0.2515 0.24838,-0.37078 0.20926,-0.58303 -0.027055,-0.14676 -0.12296,-0.32983 -0.21313,-0.40681 -0.090168,-0.07698 -0.16394,-0.21214 -0.16394,-0.30036 0,-0.17058 0.3485,-0.52864 0.67199,-0.69042 0.23081,-0.11543 0.24648,-0.27424 0.055059,-0.55827 -0.1292,-0.19172 -0.12887,-0.22436 0.00426,-0.42188 0.079353,-0.11775 0.27317,-0.27385 0.4307,-0.34688 0.15753,-0.07304 0.35444,-0.24475 0.43757,-0.38158 0.14428,-0.23747 0.14401,-0.25647 -0.00601,-0.4176 -0.24793,-0.26635 -0.02263,-0.56634 0.57261,-0.76245 0.61879,-0.20387 0.7741,-0.34858 0.62435,-0.58172 -0.21752,-0.33864 0.00278,-0.55562 0.72068,-0.70986 0.37908,-0.08144 0.47717,-0.1908 0.42007,-0.46835 -0.042188,-0.20508 -0.013347,-0.25903 0.18556,-0.34714 0.20949,-0.0928 0.22979,-0.13734 0.18375,-0.40318 -0.12798,-0.73899 -0.15436,-1.1646 -0.07515,-1.2122 0.046515,-0.02795 0.20586,-0.0063 0.35409,0.04809 0.14824,0.05441 0.29116,0.07788 0.3176,0.05217 0.02644,-0.02571 0.0039,-0.33581 -0.05019,-0.68912 -0.0546,-0.3533 -0.073,-0.7763 -0.0414,-0.94 0.0524,-0.2724 0.0824,-0.2976 0.3574,-0.2976 0.347,0 0.3366,0.043552 0.171,-0.7166 -0.16638,-0.76371 -0.16369,-0.85391 0.03111,-1.0433 0.31645,-0.30767 0.36668,-1.0775 0.14402,-2.2072 -0.18237,-0.9253 -0.13854,-1.4282 0.12448,-1.4282 0.08975,0 0.23992,0.094841 0.33371,0.21076 0.19645,0.24281 0.32148,0.26723 0.3964,0.077408 0.09787,-0.24798 0.05346,-0.45997 -0.19774,-0.94391 -0.27789,-0.53534 -0.53,-1.2934 -0.53,-1.5936 0,-0.29934 0.19839,-0.2379 0.71552,0.22162 0.48913,0.43464 0.89344,1.0836 1.1451,1.838 0.23772,0.71268 0.38598,0.59057 0.43954,-0.36201 0.03651,-0.64926 0.07681,-0.79715 0.2173,-0.79715 0.16236,0 0.34462,0.51724 0.52427,1.4879 0.16096,0.86968 0.17706,1.1701 0.12425,2.3199 -0.03335,0.72646 -0.03235,1.4075 0.0022,1.5135 l 0.0629,0.19268 0.19966,-0.24346 0.19966,-0.24346 0.06154,0.23839 c 0.03384,0.13111 0.04159,0.83045 0.01721,1.5541 -0.02438,0.72363 -0.02677,1.3631 -0.0052,1.4211 0.09829,0.26529 0.57603,0.0063 0.64428,-0.34925 0.06153,-0.32055 0.29136,-0.354 0.68629,-0.099904 0.20197,0.12994 0.48805,0.26996 0.63574,0.31114 0.22788,0.06354 0.29075,0.04625 0.41526,-0.11425 0.13628,-0.17565 0.16718,-0.18101 0.43395,-0.075222 0.54132,0.21466 0.63685,0.1819 0.61204,-0.20988 -0.01445,-0.22814 0.02281,-0.38386 0.10839,-0.45291 0.07515,-0.060638 0.13299,-0.25267 0.1365,-0.45319 0.0034,-0.19138 0.03564,-0.42132 0.07175,-0.51099 0.04253,-0.10559 -0.03598,-0.44683 -0.22287,-0.96862 -0.47469,-1.3253 -0.34999,-2.1681 0.23172,-1.566 0.28642,0.29641 0.43355,0.27047 0.43355,-0.076443 0,-0.18535 -0.18449,-0.63657 -0.52025,-1.2724 -0.70498,-1.335 -0.70002,-1.6721 0.01809,-1.2294 0.4935,0.30429 0.96955,0.85138 1.4126,1.6234 0.48308,0.84178 0.60378,0.85437 0.54171,0.056496 -0.08069,-1.0374 0.20555,-1.2237 0.62855,-0.40898 0.41365,0.7967 0.52202,1.3463 0.61499,3.1191 0.0474,0.90375 0.12148,1.6775 0.16464,1.7195 0.04681,0.04551 0.13959,-0.048345 0.23001,-0.23268 0.29188,-0.59509 0.438,-0.25128 0.51495,1.2116 0.06448,1.2257 0.05797,1.2055 0.34722,1.0774 0.20388,-0.09032 0.24835,-0.07966 0.39311,0.09415 0.08977,0.1078 0.16323,0.30095 0.16323,0.42924 0,0.35855 0.21304,0.48589 0.51896,0.31019 0.22291,-0.12802 0.26073,-0.12923 0.3811,-0.0122 0.0735,0.07146 0.15716,0.27097 0.18591,0.44335 0.08026,0.48117 0.19499,0.69279 0.3756,0.69279 0.22654,0 0.34174,0.15856 0.40803,0.5616 0.08381,0.50959 0.16402,0.60216 0.36699,0.42357 0.37776,-0.33238 0.62986,0.09017 0.4119,0.6904 -0.07367,0.20289 -0.13395,0.38541 -0.13395,0.4056 0,0.0202 0.17558,0.01112 0.39019,-0.02017 0.36567,-0.05332 0.39019,-0.04479 0.39019,0.13573 0,0.10594 -0.05882,0.25581 -0.13072,0.33305 -0.20321,0.21832 -0.08028,0.67372 0.18186,0.67372 0.11566,0 0.2437,0.07415 0.29783,0.17248 0.07664,0.13923 0.05215,0.24692 -0.12701,0.55859 -0.27532,0.47893 -0.275,0.49913 0.01009,0.63425 0.31773,0.15059 0.33214,0.25704 0.07502,0.55412 -0.26569,0.30699 -0.2758,0.40727 -0.04694,0.46546 0.1952,0.04963 0.23887,0.38403 0.07142,0.54684 -0.07819,0.07602 -0.06488,0.13907 0.05712,0.27011 0.13207,0.14188 0.14225,0.20692 0.05992,0.3826 -0.05456,0.11641 -0.19731,0.25512 -0.31724,0.30825 -0.24868,0.11016 -0.27826,0.2532 -0.08468,0.40941 0.10206,0.08236 0.11985,0.19857 0.07577,0.49506 -0.06625,0.44562 -0.16523,0.5982 -0.38806,0.5982 -0.24168,0 -0.2698,0.12711 -0.08003,0.36168 0.29724,0.3674 0.147,0.68951 -0.23286,0.49924 -0.199,-0.09968 -0.37529,-0.04253 -0.37529,0.12166 0,0.06902 0.10044,0.29213 0.22321,0.4958 0.27305,0.453 0.25455,0.74426 -0.04978,0.78387 -0.3388,0.0441 -0.38413,0.14774 -0.18408,0.42089 0.23687,0.32343 0.24178,0.65981 0.01066,0.73113 -0.222,0.0685 -0.21998,0.2476 0.0062,0.55652 0.21858,0.29845 0.18906,0.53012 -0.07218,0.56636 -0.24191,0.03356 -0.2451,0.11291 -0.01276,0.31734 0.33959,0.2988 0.38166,0.46659 0.1581,0.63055 -0.1786,0.13098 -0.18954,0.17271 -0.097,0.37017 0.22785,0.4862 0.06856,0.9666 -0.26325,0.79395 -0.19866,-0.10337 -0.18181,-0.12063 -0.31154,0.31902 -0.07911,0.26811 -0.1626,0.37046 -0.35553,0.43585 -0.1589,0.05385 -0.26272,0.1549 -0.28075,0.27326 -0.04375,0.28713 -0.28601,0.39817 -0.48559,0.22256 -0.23047,-0.20278 -0.25741,-0.18657 -0.3237,0.1949 -0.0563,0.324 -0.23148,0.58845 -0.3898,0.58845 -0.04082,0 -0.15444,-0.09914 -0.25247,-0.22032 -0.2022,-0.24992 -0.4133,-0.22261 -0.45625,0.05902 -0.01562,0.10242 -0.09714,0.22804 -0.18114,0.27914 -0.12583,0.07655 -0.1895,0.04836 -0.3614,-0.16 l -0.20866,-0.25291 -0.2503,0.23183 c -0.27667,0.25625 -0.52301,0.29954 -0.59965,0.10538 -0.07031,-0.17813 -0.18439,-0.15812 -0.48071,0.0843 -0.141,0.115 -0.313,0.21 -0.383,0.21 -0.06906,0 -0.16264,-0.09484 -0.20797,-0.21076 -0.04532,-0.11592 -0.09804,-0.21076 -0.11713,-0.21076 -0.01909,0 -0.25989,0.09682 -0.53512,0.21516 -0.58665,0.25225 -0.91595,0.24379 -1.038,-0.02664 -0.05669,-0.12566 -0.13073,-0.17202 -0.21677,-0.13575 -0.65859,0.27768 -0.87194,0.32241 -1.0428,0.21865 -0.14305,-0.08685 -0.26936,-0.08284 -0.68465,0.02178 -0.66903,0.16855 -0.83974,0.16198 -1.0478,-0.04031 z"
       inkscape:connector-curvature="0"
       style="fill:#4f4f4f" />
    <path
       id="path6"
       d="m 18.461,22.016 c -0.11376,-0.0011 -0.22872,0.0095 -0.34375,0.03223 -0.96147,0.18962 -2.1034,0.88558 -2.7142,1.6553 -0.451,0.56835 -0.69887,1.2311 -0.75911,2.0303 l -0.0444,0.59472 0.45547,0.4834 c 0.76833,0.81735 1.5731,1.0771 3.2069,1.0356 0.72846,-0.01847 0.98215,-0.05921 1.2704,-0.20361 0.4834,-0.24214 0.69372,-0.52343 0.81497,-1.0913 0.12815,-0.60016 0.06159,-2.521 -0.10742,-3.104 -0.24754,-0.85393 -0.98259,-1.4247 -1.7789,-1.4326 z m 0.87943,1.9863 c 0.19005,0 0.222,0.0372 0.222,0.26074 0,0.18581 -0.04816,0.27322 -0.16615,0.30322 -0.15328,0.03897 -0.15612,0.06336 -0.04297,0.32666 0.14928,0.34737 0.1599,1.2132 0.01862,1.5146 -0.19204,0.40978 -0.89956,0.61403 -1.4996,0.43359 -0.41712,-0.12543 -0.56114,-0.3654 -0.56289,-0.93604 -0.0032,-1.0207 0.93788,-1.9028 2.031,-1.9028 z"
       inkscape:connector-curvature="0"
       style="fill:#929292" />
    <path
       id="path8"
       d="m 18.725,26.354 c 0.60108,-0.26627 0.49938,-1.4238 -0.12509,-1.4238 -0.29936,0 -0.77193,0.5249 -0.77038,0.85567 0.0016,0.32228 0.05744,0.42612 0.30215,0.56104 0.22085,0.12176 0.33156,0.12309 0.59332,0.0071 z"
       inkscape:connector-curvature="0"
       style="fill:#ffffff" />
    <path
       id="path12"
       d="m 24.44,27.173 c 0.24652,-0.18191 0.34794,-0.98078 0.30075,-2.369 -0.04483,-1.319 -0.16066,-1.8525 -0.43746,-2.015 -0.13017,-0.07644 -0.19266,-0.05024 -0.35939,0.15064 -0.30316,0.36527 -0.81469,1.7396 -0.82491,2.2162 -0.0012,0.05439 0.11193,-0.012 0.25134,-0.14753 0.17874,-0.17378 0.33865,-0.24642 0.54244,-0.24642 0.2635,0 0.30701,0.03821 0.49343,0.4333 0.23473,0.49747 0.22449,1.1659 -0.02153,1.4051 -0.2946,0.28643 -1.1964,0.07888 -1.2939,-0.29781 -0.02131,-0.08228 -0.02604,-0.02292 -0.01051,0.1319 0.03571,0.35602 0.16543,0.50718 0.60024,0.69948 0.41206,0.18224 0.55559,0.18964 0.75951,0.03916 z"
       inkscape:connector-curvature="0"
       style="fill:#929292" />
    <path
       id="path14"
       d="m 24.108,26.231 c 0.19432,-0.18893 0.16844,-0.49616 -0.06392,-0.7588 -0.25965,-0.29348 -0.54694,-0.22339 -0.65169,0.15899 -0.11303,0.41259 0.03274,0.73229 0.3339,0.73229 0.135,0 0.30676,-0.05961 0.38171,-0.13248 z"
       inkscape:connector-curvature="0"
       style="fill:#ffffff" />
  </g>
</svg>
