<?xml version="1.0" encoding="UTF-8" standalone="no"?>
<svg
   xmlns:dc="http://purl.org/dc/elements/1.1/"
   xmlns:cc="http://creativecommons.org/ns#"
   xmlns:rdf="http://www.w3.org/1999/02/22-rdf-syntax-ns#"
   xmlns:svg="http://www.w3.org/2000/svg"
   xmlns="http://www.w3.org/2000/svg"
   xmlns:sodipodi="http://sodipodi.sourceforge.net/DTD/sodipodi-0.dtd"
   xmlns:inkscape="http://www.inkscape.org/namespaces/inkscape"
   height="32"
   width="32"
   version="1"
   id="svg32"
   sodipodi:docname="bbc.svg"
   inkscape:version="0.92.1 r">
  <metadata
     id="metadata38">
    <rdf:RDF>
      <cc:Work
         rdf:about="">
        <dc:format>image/svg+xml</dc:format>
        <dc:type
           rdf:resource="http://purl.org/dc/dcmitype/StillImage" />
      </cc:Work>
    </rdf:RDF>
  </metadata>
  <defs
     id="defs36" />
  <sodipodi:namedview
     pagecolor="#ffffff"
     bordercolor="#666666"
     borderopacity="1"
     objecttolerance="10"
     gridtolerance="10"
     guidetolerance="10"
     inkscape:pageopacity="0"
     inkscape:pageshadow="2"
     inkscape:window-width="1680"
     inkscape:window-height="963"
     id="namedview34"
     showgrid="false"
     inkscape:zoom="7.375"
     inkscape:cx="-8.6779661"
     inkscape:cy="16"
     inkscape:window-x="0"
     inkscape:window-y="0"
     inkscape:window-maximized="1"
     inkscape:current-layer="svg32" />
  <rect
     style="opacity:1;fill:#c2352a;fill-opacity:1;fill-rule:evenodd;stroke:none;stroke-width:1.03534329;stroke-linecap:round;stroke-linejoin:bevel;stroke-miterlimit:4;stroke-dasharray:none;stroke-dashoffset:0;stroke-opacity:1"
     id="rect4497-3"
     width="28.203388"
     height="28.203388"
     x="1.8983059"
     y="1.8983059"
     ry="5.575182" />
  <g
     id="g26"
     transform="translate(0.5,-0.5)"
     style="fill:#ffffff">
    <g
       transform="translate(-8)"
       id="g18">
      <path
         transform="translate(8)"
         d="m 4,13 v 7 h 7 v -7 z m 1,1 h 4 v 2 h 1 v 3 H 5 Z m 1,1 v 1 h 2 v -1 z m 0,2 v 1 h 3 v -1 z"
         id="path16"
         inkscape:connector-curvature="0" />
    </g>
    <path
       d="m 20,13 v 7 h 7 v -7 z m 1,1 h 5 v 1 h -4 v 3 h 4 v 1 h -5 z"
       id="path20"
       inkscape:connector-curvature="0" />
    <g
       id="g24">
      <path
         transform="translate(8)"
         d="m 4,13 v 7 h 7 v -7 z m 1,1 h 4 v 2 h 1 v 3 H 5 Z m 1,1 v 1 h 2 v -1 z m 0,2 v 1 h 3 v -1 z"
         id="path22"
         inkscape:connector-curvature="0" />
    </g>
  </g>
</svg>
