<?xml version="1.0" encoding="UTF-8" standalone="no"?>
<svg
   xmlns:dc="http://purl.org/dc/elements/1.1/"
   xmlns:cc="http://creativecommons.org/ns#"
   xmlns:rdf="http://www.w3.org/1999/02/22-rdf-syntax-ns#"
   xmlns:svg="http://www.w3.org/2000/svg"
   xmlns="http://www.w3.org/2000/svg"
   xmlns:sodipodi="http://sodipodi.sourceforge.net/DTD/sodipodi-0.dtd"
   xmlns:inkscape="http://www.inkscape.org/namespaces/inkscape"
   height="32"
   width="32"
   version="1"
   id="svg18"
   sodipodi:docname="bitmap2component.svg"
   inkscape:version="0.92.1 r">
  <metadata
     id="metadata24">
    <rdf:RDF>
      <cc:Work
         rdf:about="">
        <dc:format>image/svg+xml</dc:format>
        <dc:type
           rdf:resource="http://purl.org/dc/dcmitype/StillImage" />
      </cc:Work>
    </rdf:RDF>
  </metadata>
  <defs
     id="defs22" />
  <sodipodi:namedview
     pagecolor="#ffffff"
     bordercolor="#666666"
     borderopacity="1"
     objecttolerance="10"
     gridtolerance="10"
     guidetolerance="10"
     inkscape:pageopacity="0"
     inkscape:pageshadow="2"
     inkscape:window-width="1680"
     inkscape:window-height="963"
     id="namedview20"
     showgrid="false"
     inkscape:zoom="7.375"
     inkscape:cx="-8.6779661"
     inkscape:cy="16"
     inkscape:window-x="0"
     inkscape:window-y="0"
     inkscape:window-maximized="1"
     inkscape:current-layer="svg18" />
  <polygon
     points="713 603 688.5 578 676.5 569.5 693.5 560.5 693.5 540 732.5 497.5 664 430.5 588 333 517.5 214 500 192 386 355 328 328 304 332.5 299.5 366 318.5 403.5 338 431 309.5 462 275.5 507 300 533 304 551 318.5 569.5 340.5 583 351.5 604.5 373.5 617 395 637.5 452.5 723 488.5 788.5 502 812.5 551.5 721.5 612.5 637 628.5 616 668 619.5 707 615"
     fill="#5a0e00"
     transform="matrix(.063142 0 0 .063142 -131 -24.03)"
     display="none"
     id="polygon2" />
  <g
     id="g4525"
     transform="translate(63.186523,8.2714844)">
    <path
       id="path4521"
       d="M -61.289062,0.94921875 V 16.255859 c 0,3.088651 2.487521,5.574219 5.576171,5.574219 h 17.052735 c 3.088651,0 5.576172,-2.485568 5.576172,-5.574219 V 0.94921875 Z"
       style="opacity:1;fill:#45b445;fill-opacity:1;fill-rule:evenodd;stroke:none;stroke-width:1.03534329;stroke-linecap:round;stroke-linejoin:bevel;stroke-miterlimit:4;stroke-dasharray:none;stroke-dashoffset:0;stroke-opacity:1"
       inkscape:connector-curvature="0" />
    <path
       id="rect4497-3"
       d="m -61.289062,0.94921875 h 28.205078 V -0.796875 c 0,-3.0886508 -2.487521,-5.5761719 -5.576172,-5.5761719 h -17.052735 c -3.08865,0 -5.576171,2.4875211 -5.576171,5.5761719 z"
       style="opacity:1;fill:#6ac36a;fill-opacity:1;fill-rule:evenodd;stroke:none;stroke-width:1.03534329;stroke-linecap:round;stroke-linejoin:bevel;stroke-miterlimit:4;stroke-dasharray:none;stroke-dashoffset:0;stroke-opacity:1"
       inkscape:connector-curvature="0" />
  </g>
  <path
     d="m 17.39834,19.801021 c 0,0.95714 0.02626,1.7532 -0.46886,2.6012 -0.39834,0.68897 -1.0315,1.1133 -1.7374,1.1133 -0.96398,0 -1.5236,-0.71628 -1.5236,-1.7749 0,-2.0893 1.9167,-2.4695 3.7306,-2.4695 v 0.53073 m 2.5319,5.9732 c -0.16429,0.14494 -0.40435,0.15614 -0.59189,0.06022 -0.833,-0.675 -0.983,-0.99 -1.443,-1.635 -1.377,1.373 -2.35,1.783 -4.138,1.783 -2.112,0 -3.758,-1.272 -3.758,-3.818 0,-1.9885 1.105,-3.3447 2.6751,-4.0071 1.3601,-0.58535 3.2648,-0.68897 4.7209,-0.85071 v -0.31718 c 0,-0.58255 0.04726,-1.2715 -0.30157,-1.7749 -0.30757,-0.45161 -0.89346,-0.63716 -1.4096,-0.63716 -0.95798,0 -1.8109,0.47892 -2.0187,1.4718 -0.04426,0.22126 -0.2078,0.43761 -0.4366,0.44881 l -2.436,-0.255 c -0.204,-0.046 -0.43,-0.208 -0.375,-0.514 0.563,-2.8767 3.23,-3.747 5.615,-3.747 1.222,0 2.8192,0.31718 3.7809,1.2197 1.222,1.1133 1.105,2.5984 1.105,4.2151 v 3.8181 c 0,1.149 0.48612,1.6517 0.94673,2.2728 0.16129,0.21916 0.19655,0.48662 -0.006,0.65116 -0.51312,0.4215 -1.4238,1.1924 -1.925,1.6272 l -0.0091,-0.0084"
     id="path10"
     inkscape:connector-curvature="0"
     style="fill:#ffffff;fill-rule:evenodd" />
</svg>
