<?xml version="1.0" encoding="UTF-8" standalone="no"?>
<svg
   xmlns:dc="http://purl.org/dc/elements/1.1/"
   xmlns:cc="http://creativecommons.org/ns#"
   xmlns:rdf="http://www.w3.org/1999/02/22-rdf-syntax-ns#"
   xmlns:svg="http://www.w3.org/2000/svg"
   xmlns="http://www.w3.org/2000/svg"
   xmlns:sodipodi="http://sodipodi.sourceforge.net/DTD/sodipodi-0.dtd"
   xmlns:inkscape="http://www.inkscape.org/namespaces/inkscape"
   height="32"
   width="32"
   version="1"
   id="svg18"
   sodipodi:docname="bitmap2component.svg"
   inkscape:version="0.92.2 2405546, 2018-03-11">
  <metadata
     id="metadata24">
    <rdf:RDF>
      <cc:Work
         rdf:about="">
        <dc:format>image/svg+xml</dc:format>
        <dc:type
           rdf:resource="http://purl.org/dc/dcmitype/StillImage" />
      </cc:Work>
    </rdf:RDF>
  </metadata>
  <defs
     id="defs22" />
  <sodipodi:namedview
     pagecolor="#ffffff"
     bordercolor="#666666"
     borderopacity="1"
     objecttolerance="10"
     gridtolerance="10"
     guidetolerance="10"
     inkscape:pageopacity="0"
     inkscape:pageshadow="2"
     inkscape:window-width="1680"
     inkscape:window-height="972"
     id="namedview20"
     showgrid="false"
     inkscape:zoom="14.75"
     inkscape:cx="1.0742118"
     inkscape:cy="17.583542"
     inkscape:window-x="0"
     inkscape:window-y="0"
     inkscape:window-maximized="1"
     inkscape:current-layer="svg18" />
  <polygon
     points="713 603 688.5 578 676.5 569.5 693.5 560.5 693.5 540 732.5 497.5 664 430.5 588 333 517.5 214 500 192 386 355 328 328 304 332.5 299.5 366 318.5 403.5 338 431 309.5 462 275.5 507 300 533 304 551 318.5 569.5 340.5 583 351.5 604.5 373.5 617 395 637.5 452.5 723 488.5 788.5 502 812.5 551.5 721.5 612.5 637 628.5 616 668 619.5 707 615"
     fill="#5a0e00"
     transform="matrix(.063142 0 0 .063142 -131 -24.03)"
     display="none"
     id="polygon2" />
  <path
     style="opacity:1;fill:#666666;fill-opacity:1;fill-rule:evenodd;stroke:none;stroke-width:1.03534329;stroke-linecap:round;stroke-linejoin:bevel;stroke-miterlimit:4;stroke-dasharray:none;stroke-dashoffset:0;stroke-opacity:1"
     d="m 7.4726563,1.8984375 c -3.088651,0 -5.5742188,2.4855677 -5.5742188,5.5742187 V 24.525391 c 0,3.08865 2.4855678,5.576172 5.5742188,5.576172 H 16 24.527343 c 3.088651,0 5.574219,-2.485568 5.574219,-5.574219 V 7.4746094 c 0,-3.0886501 -2.485568,-5.5761719 -5.574219,-5.5761719 H 16 Z"
     id="rect4497-3-3-6-2-3"
     inkscape:connector-curvature="0" />
  <path
     inkscape:connector-curvature="0"
     style="opacity:1;fill:#ececec;fill-opacity:1;fill-rule:evenodd;stroke:none;stroke-width:1.03534329;stroke-linecap:round;stroke-linejoin:bevel;stroke-miterlimit:4;stroke-dasharray:none;stroke-dashoffset:0;stroke-opacity:1"
     d="m 7.475072,1.898372 c -3.08865,0 -5.576171,2.485568 -5.576171,5.574219 v 8.527344 H 30.102026 V 7.472591 c 0,-3.088651 -2.485568,-5.574219 -5.574219,-5.574219 z"
     id="rect4497-3-3-6-2-3-2" />
  <path
     style="color:#000000;font-style:normal;font-variant:normal;font-weight:normal;font-stretch:normal;font-size:medium;line-height:normal;font-family:sans-serif;font-variant-ligatures:normal;font-variant-position:normal;font-variant-caps:normal;font-variant-numeric:normal;font-variant-alternates:normal;font-feature-settings:normal;text-indent:0;text-align:start;text-decoration:none;text-decoration-line:none;text-decoration-style:solid;text-decoration-color:#000000;letter-spacing:normal;word-spacing:normal;text-transform:none;writing-mode:lr-tb;direction:ltr;text-orientation:mixed;dominant-baseline:auto;baseline-shift:baseline;text-anchor:start;white-space:normal;shape-padding:0;clip-rule:nonzero;display:inline;overflow:visible;visibility:visible;opacity:1;isolation:auto;mix-blend-mode:normal;color-interpolation:sRGB;color-interpolation-filters:linearRGB;solid-color:#000000;solid-opacity:1;vector-effect:none;fill:#666666;fill-opacity:1;fill-rule:nonzero;stroke:none;stroke-width:0.70933259;stroke-linecap:round;stroke-linejoin:miter;stroke-miterlimit:4;stroke-dasharray:none;stroke-dashoffset:0;stroke-opacity:1;color-rendering:auto;image-rendering:auto;shape-rendering:auto;text-rendering:auto;enable-background:accumulate"
     d="m 22.980351,7.572407 -0.654136,-0.0034 -0.573351,-0.0045 C 20.900192,5.1843025 18.628303,3.4747569 15.957651,3.4747569 c -2.609075,0 -4.837942,1.6315029 -5.734622,3.9259334 -0.01194,0.027329 -0.03135,0.074194 -0.03479,0.080785 -0.0077,0.015037 -0.01459,0.037204 -0.01459,0.049362 0,0.012168 -0.01102,0.02725 -0.02468,0.032548 -0.01367,0.00528 -0.318183,0.00888 -0.676574,0.00888 H 8.820504 v 0.274892 0.276017 l 0.577838,0.0034 c 0.504628,0.0036 0.578349,0.0074 0.573351,0.02806 -0.0031,0.01298 -0.0197,0.07648 -0.03591,0.141374 -0.03809,0.15256 -0.110532,0.573629 -0.131274,0.762969 -0.02597,0.237391 -0.03173,0.363951 -0.03029,0.692286 0.0033,0.7716557 0.132349,1.4662127 0.402802,2.1789527 0.224823,0.592496 0.58067,1.201527 0.992986,1.698733 0.845728,1.019862 1.911922,1.698304 3.228038,2.053289 0.266735,0.07194 0.78531,0.154467 1.089477,0.173913 l 0.161571,0.01114 v 0.470124 0.470125 h 0.282747 0.282749 v -0.471243 -0.470125 l 0.138007,-0.01012 c 0.07571,-0.0056 0.163844,-0.01372 0.196352,-0.01795 0.03251,-0.0043 0.11124,-0.01464 0.173914,-0.02244 0.371408,-0.04623 0.796314,-0.145482 1.172508,-0.273771 1.266055,-0.431751 2.349204,-1.27172 3.09564,-2.367453 0.03655,-0.05182 0.07388,-0.102982 0.108834,-0.155959 0.02208,-0.03468 0.04256,-0.0703 0.06396,-0.105471 0.600591,-0.950606 0.953715,-2.072794 0.953715,-3.27853 0,-0.520054 -0.07233,-1.021981 -0.194109,-1.504623 0.0512,-0.0038 0.22879,-0.0068 0.500421,-0.0068 h 0.556514 V 7.848163 Z m -1.571945,2.062265 c 0,2.927671 -2.299986,5.302495 -5.193811,5.43729 v -1.182606 -1.39242 h 1.127626 1.127625 l 0.06396,-0.03815 c 0.03604,-0.02112 0.08018,-0.06482 0.09986,-0.09986 0.03362,-0.05978 0.03591,-0.07927 0.03591,-0.419634 0,-0.375598 -0.0031,-0.390438 -0.07742,-0.470125 -0.06162,-0.06612 -0.121545,-0.08836 -0.256942,-0.09313 l -0.1223,-0.0045 0.650768,-0.650768 0.651893,-0.651892 0.170545,0.168303 c 0.110217,0.108192 0.188949,0.172483 0.22216,0.181767 0.0597,0.01669 0.135453,-3.67e-4 0.181767,-0.04151 0.01734,-0.01541 0.212763,-0.396044 0.435342,-0.846 0.584298,-1.181192 0.660146,-1.330502 0.679941,-1.35764 0.128977,0.465428 0.203086,0.95389 0.203086,1.460865 z M 21.138,7.940429 20.646557,8.182784 c -0.296038,0.146474 -0.817941,0.405121 -1.160163,0.574472 -0.342227,0.169351 -0.641078,0.326912 -0.664234,0.350069 -0.05225,0.05225 -0.06792,0.126775 -0.04039,0.194109 0.01152,0.02811 0.09188,0.120564 0.178401,0.20645 l 0.157081,0.157083 -0.85722,0.85722 -0.85722,0.85722 H 15.900436 14.398057 L 12.557951,9.540423 10.825557,7.80803 c 0.750289,-2.1124946 2.75949,-3.6241105 5.132101,-3.6241105 2.422344,0 4.468844,1.5743193 5.180348,3.7565095 z m -5.488901,4.556507 v 1.396908 1.175873 C 12.779617,14.909181 10.5069,12.54491 10.5069,9.634672 c 0,-0.407119 0.0481,-0.802276 0.132398,-1.183727 0.08571,0.06929 0.523041,0.496075 1.422716,1.395789 l 1.533796,1.532673 h -0.121178 c -0.137843,0 -0.19132,0.01635 -0.254698,0.0763 -0.08601,0.0814 -0.08863,0.09801 -0.08863,0.484712 0,0.348861 0.0014,0.35892 0.03815,0.421877 0.02112,0.03604 0.06482,0.07904 0.09986,0.09873 l 0.06283,0.03591 h 1.15792 z"
     id="path880-3-3-6-7"
     inkscape:connector-curvature="0" />
  <path
     inkscape:connector-curvature="0"
     style="color:#000000;font-style:normal;font-variant:normal;font-weight:normal;font-stretch:normal;font-size:medium;line-height:normal;font-family:sans-serif;font-variant-ligatures:normal;font-variant-position:normal;font-variant-caps:normal;font-variant-numeric:normal;font-variant-alternates:normal;font-feature-settings:normal;text-indent:0;text-align:start;text-decoration:none;text-decoration-line:none;text-decoration-style:solid;text-decoration-color:#000000;letter-spacing:normal;word-spacing:normal;text-transform:none;writing-mode:lr-tb;direction:ltr;text-orientation:mixed;dominant-baseline:auto;baseline-shift:baseline;text-anchor:start;white-space:normal;shape-padding:0;clip-rule:nonzero;display:inline;overflow:visible;visibility:visible;opacity:1;isolation:auto;mix-blend-mode:normal;color-interpolation:sRGB;color-interpolation-filters:linearRGB;solid-color:#000000;solid-opacity:1;vector-effect:none;fill:#666666;fill-opacity:1;fill-rule:nonzero;stroke:none;stroke-width:1.4284569px;stroke-linecap:butt;stroke-linejoin:miter;stroke-miterlimit:4;stroke-dasharray:none;stroke-dashoffset:0;stroke-opacity:1;color-rendering:auto;image-rendering:auto;shape-rendering:auto;text-rendering:auto;enable-background:accumulate"
     d="M 25.605049,7.5634809 H 25.044914 21.752196 V 8.123616 h 3.292718 v 9.752946 h 0.560135 V 8.123616 Z"
     id="path1111-7-1-0" />
  <path
     inkscape:connector-curvature="0"
     style="color:#000000;font-style:normal;font-variant:normal;font-weight:normal;font-stretch:normal;font-size:medium;line-height:normal;font-family:sans-serif;font-variant-ligatures:normal;font-variant-position:normal;font-variant-caps:normal;font-variant-numeric:normal;font-variant-alternates:normal;font-feature-settings:normal;text-indent:0;text-align:start;text-decoration:none;text-decoration-line:none;text-decoration-style:solid;text-decoration-color:#000000;letter-spacing:normal;word-spacing:normal;text-transform:none;writing-mode:lr-tb;direction:ltr;text-orientation:mixed;dominant-baseline:auto;baseline-shift:baseline;text-anchor:start;white-space:normal;shape-padding:0;clip-rule:nonzero;display:inline;overflow:visible;visibility:visible;opacity:1;isolation:auto;mix-blend-mode:normal;color-interpolation:sRGB;color-interpolation-filters:linearRGB;solid-color:#000000;solid-opacity:1;vector-effect:none;fill:#666666;fill-opacity:1;fill-rule:nonzero;stroke:none;stroke-width:1.4284569px;stroke-linecap:butt;stroke-linejoin:miter;stroke-miterlimit:4;stroke-dasharray:none;stroke-dashoffset:0;stroke-opacity:1;color-rendering:auto;image-rendering:auto;shape-rendering:auto;text-rendering:auto;enable-background:accumulate"
     d="m 6.382236,7.5575888 h 0.560135 3.292717 V 8.117724 H 6.942371 V 17.87067 H 6.382236 V 8.117724 Z"
     id="path1111-7-2-2" />
  <path
     style="color:#000000;font-style:normal;font-variant:normal;font-weight:normal;font-stretch:normal;font-size:medium;line-height:normal;font-family:sans-serif;font-variant-ligatures:normal;font-variant-position:normal;font-variant-caps:normal;font-variant-numeric:normal;font-variant-alternates:normal;font-feature-settings:normal;text-indent:0;text-align:start;text-decoration:none;text-decoration-line:none;text-decoration-style:solid;text-decoration-color:#000000;letter-spacing:normal;word-spacing:normal;text-transform:none;writing-mode:lr-tb;direction:ltr;text-orientation:mixed;dominant-baseline:auto;baseline-shift:baseline;text-anchor:start;white-space:normal;shape-padding:0;clip-rule:nonzero;display:inline;overflow:visible;visibility:visible;opacity:1;isolation:auto;mix-blend-mode:normal;color-interpolation:sRGB;color-interpolation-filters:linearRGB;solid-color:#000000;solid-opacity:1;vector-effect:none;fill:#666666;fill-opacity:1;fill-rule:nonzero;stroke:none;stroke-width:0.79310048px;stroke-linecap:butt;stroke-linejoin:miter;stroke-miterlimit:4;stroke-dasharray:none;stroke-dashoffset:0;stroke-opacity:1;color-rendering:auto;image-rendering:auto;shape-rendering:auto;text-rendering:auto;enable-background:accumulate"
     d="M 16.214596,15.071962 H 15.65531 v 3.178492 h 0.559286 z"
     id="path1111-9"
     inkscape:connector-curvature="0" />
  <path
     inkscape:connector-curvature="0"
     style="opacity:1;fill:#343b37;fill-opacity:1;fill-rule:evenodd;stroke:none;stroke-width:1.03534329;stroke-linecap:round;stroke-linejoin:bevel;stroke-miterlimit:4;stroke-dasharray:none;stroke-dashoffset:0;stroke-opacity:1"
     d="m 19.237819,30.101598 a 3.8583956,3.8583956 0 0 0 0.08789,-0.142578 3.8583956,3.8583956 0 0 0 0.167969,-0.347656 3.8583956,3.8583956 0 0 0 0.132813,-0.361328 3.8583956,3.8583956 0 0 0 0.0957,-0.375 3.8583956,3.8583956 0 0 0 0.05664,-0.38086 3.8583956,3.8583956 0 0 0 0.01953,-0.384765 3.8583956,3.8583956 0 0 0 -0.0098,-0.273438 3.8583956,3.8583956 0 0 0 -0.04687,-0.382812 3.8583956,3.8583956 0 0 0 -0.08398,-0.376953 3.8583956,3.8583956 0 0 0 -0.121094,-0.365235 3.8583956,3.8583956 0 0 0 -0.158203,-0.351562 3.8583956,3.8583956 0 0 0 -0.191406,-0.335938 3.8583956,3.8583956 0 0 0 -0.22461,-0.3125 3.8583956,3.8583956 0 0 0 -0.253906,-0.291015 3.8583956,3.8583956 0 0 0 -0.283203,-0.261719 3.8583956,3.8583956 0 0 0 -0.306641,-0.234375 3.8583956,3.8583956 0 0 0 -0.328125,-0.201172 3.8583956,3.8583956 0 0 0 -0.347656,-0.167969 3.8583956,3.8583956 0 0 0 -0.363281,-0.132812 3.8583956,3.8583956 0 0 0 -0.373047,-0.09375 3.8583956,3.8583956 0 0 0 -0.38086,-0.05859 3.8583956,3.8583956 0 0 0 -0.384765,-0.01953 3.8583956,3.8583956 0 0 0 -0.273438,0.0098 3.8583956,3.8583956 0 0 0 -0.382812,0.04687 3.8583956,3.8583956 0 0 0 -0.376953,0.08398 3.8583956,3.8583956 0 0 0 -0.365235,0.123047 3.8583956,3.8583956 0 0 0 -0.353515,0.15625 3.8583956,3.8583956 0 0 0 -0.333985,0.191406 3.8583956,3.8583956 0 0 0 -0.3125,0.224609 3.8583956,3.8583956 0 0 0 -0.291015,0.25586 3.8583956,3.8583956 0 0 0 -0.261719,0.28125 3.8583956,3.8583956 0 0 0 -0.234375,0.30664 3.8583956,3.8583956 0 0 0 -0.201172,0.330078 3.8583956,3.8583956 0 0 0 -0.167969,0.345703 3.8583956,3.8583956 0 0 0 -0.132812,0.363282 3.8583956,3.8583956 0 0 0 -0.0957,0.373047 3.8583956,3.8583956 0 0 0 -0.05664,0.382812 3.8583956,3.8583956 0 0 0 -0.01953,0.384766 3.8583956,3.8583956 0 0 0 0.0098,0.271484 3.8583956,3.8583956 0 0 0 0.04687,0.384766 3.8583956,3.8583956 0 0 0 0.08398,0.375 3.8583956,3.8583956 0 0 0 0.121094,0.367187 3.8583956,3.8583956 0 0 0 0.158203,0.351563 3.8583956,3.8583956 0 0 0 0.138671,0.242187 z"
     id="path1303" />
  <path
     inkscape:connector-curvature="0"
     style="opacity:1;fill:#48524f;fill-opacity:1;fill-rule:evenodd;stroke:none;stroke-width:1.03534329;stroke-linecap:round;stroke-linejoin:bevel;stroke-miterlimit:4;stroke-dasharray:none;stroke-dashoffset:0;stroke-opacity:1"
     d="m 22.517116,30.101598 a 6.8745799,6.8745799 0 0 0 0.160156,-0.626953 6.8745799,6.8745799 0 0 0 0.103516,-0.679687 6.8745799,6.8745799 0 0 0 0.0332,-0.685547 6.8745799,6.8745799 0 0 0 -0.01563,-0.486328 6.8745799,6.8745799 0 0 0 -0.08398,-0.681641 6.8745799,6.8745799 0 0 0 -0.15039,-0.671875 6.8745799,6.8745799 0 0 0 -0.216797,-0.652344 6.8745799,6.8745799 0 0 0 -0.28125,-0.626953 6.8745799,6.8745799 0 0 0 -0.341797,-0.595703 6.8745799,6.8745799 0 0 0 -0.398438,-0.558594 6.8745799,6.8745799 0 0 0 -0.453125,-0.517578 6.8745799,6.8745799 0 0 0 -0.503906,-0.466797 6.8745799,6.8745799 0 0 0 -0.546875,-0.416015 6.8745799,6.8745799 0 0 0 -0.585937,-0.359375 6.8745799,6.8745799 0 0 0 -0.619141,-0.298828 6.8745799,6.8745799 0 0 0 -0.644531,-0.236329 6.8745799,6.8745799 0 0 0 -0.666016,-0.169921 6.8745799,6.8745799 0 0 0 -0.679687,-0.101563 6.8745799,6.8745799 0 0 0 -0.685547,-0.03516 6.8745799,6.8745799 0 0 0 -0.486328,0.01758 6.8745799,6.8745799 0 0 0 -0.683594,0.08203 6.8745799,6.8745799 0 0 0 -0.669922,0.150391 6.8745799,6.8745799 0 0 0 -0.652344,0.216797 6.8745799,6.8745799 0 0 0 -0.626953,0.28125 6.8745799,6.8745799 0 0 0 -0.595703,0.341796 6.8745799,6.8745799 0 0 0 -0.558594,0.400391 6.8745799,6.8745799 0 0 0 -0.517578,0.453125 6.8745799,6.8745799 0 0 0 -0.46875,0.501953 6.8745799,6.8745799 0 0 0 -0.414062,0.546875 6.8745799,6.8745799 0 0 0 -0.359375,0.585938 6.8745799,6.8745799 0 0 0 -0.298829,0.61914 6.8745799,6.8745799 0 0 0 -0.236328,0.646485 6.8745799,6.8745799 0 0 0 -0.169922,0.664062 6.8745799,6.8745799 0 0 0 -0.103515,0.679688 6.8745799,6.8745799 0 0 0 -0.0332,0.6875 6.8745799,6.8745799 0 0 0 0.01758,0.486328 6.8745799,6.8745799 0 0 0 0.08203,0.681641 6.8745799,6.8745799 0 0 0 0.150391,0.669921 6.8745799,6.8745799 0 0 0 0.05078,0.154297 h 3.273437 a 3.8583956,3.8583956 0 0 1 -0.138671,-0.242187 3.8583956,3.8583956 0 0 1 -0.158203,-0.351563 3.8583956,3.8583956 0 0 1 -0.121094,-0.367187 3.8583956,3.8583956 0 0 1 -0.08398,-0.375 3.8583956,3.8583956 0 0 1 -0.04687,-0.384766 3.8583956,3.8583956 0 0 1 -0.0098,-0.271484 3.8583956,3.8583956 0 0 1 0.01953,-0.384766 3.8583956,3.8583956 0 0 1 0.05664,-0.382812 3.8583956,3.8583956 0 0 1 0.0957,-0.373047 3.8583956,3.8583956 0 0 1 0.132812,-0.363282 3.8583956,3.8583956 0 0 1 0.167969,-0.345703 3.8583956,3.8583956 0 0 1 0.201172,-0.330078 3.8583956,3.8583956 0 0 1 0.234375,-0.30664 3.8583956,3.8583956 0 0 1 0.261719,-0.28125 3.8583956,3.8583956 0 0 1 0.291015,-0.25586 3.8583956,3.8583956 0 0 1 0.3125,-0.224609 3.8583956,3.8583956 0 0 1 0.333985,-0.191406 3.8583956,3.8583956 0 0 1 0.353515,-0.15625 3.8583956,3.8583956 0 0 1 0.365235,-0.123047 3.8583956,3.8583956 0 0 1 0.376953,-0.08398 3.8583956,3.8583956 0 0 1 0.382812,-0.04687 3.8583956,3.8583956 0 0 1 0.273438,-0.0098 3.8583956,3.8583956 0 0 1 0.384765,0.01953 3.8583956,3.8583956 0 0 1 0.38086,0.05859 3.8583956,3.8583956 0 0 1 0.373047,0.09375 3.8583956,3.8583956 0 0 1 0.363281,0.132812 3.8583956,3.8583956 0 0 1 0.347656,0.167969 3.8583956,3.8583956 0 0 1 0.328125,0.201172 3.8583956,3.8583956 0 0 1 0.306641,0.234375 3.8583956,3.8583956 0 0 1 0.283203,0.261719 3.8583956,3.8583956 0 0 1 0.253906,0.291015 3.8583956,3.8583956 0 0 1 0.22461,0.3125 3.8583956,3.8583956 0 0 1 0.191406,0.335938 3.8583956,3.8583956 0 0 1 0.158203,0.351562 3.8583956,3.8583956 0 0 1 0.121094,0.365235 3.8583956,3.8583956 0 0 1 0.08398,0.376953 3.8583956,3.8583956 0 0 1 0.04687,0.382812 3.8583956,3.8583956 0 0 1 0.0098,0.273438 3.8583956,3.8583956 0 0 1 -0.01953,0.384765 3.8583956,3.8583956 0 0 1 -0.05664,0.38086 3.8583956,3.8583956 0 0 1 -0.0957,0.375 3.8583956,3.8583956 0 0 1 -0.132813,0.361328 3.8583956,3.8583956 0 0 1 -0.167969,0.347656 3.8583956,3.8583956 0 0 1 -0.08789,0.142578 z"
     id="path1306" />
  <path
     inkscape:connector-curvature="0"
     style="opacity:1;fill:#5c92c7;fill-opacity:1;fill-rule:evenodd;stroke:none;stroke-width:1.03534329;stroke-linecap:round;stroke-linejoin:bevel;stroke-miterlimit:4;stroke-dasharray:none;stroke-dashoffset:0;stroke-opacity:1"
     d="m 24.046412,30.101598 a 8.3576584,8.3576584 0 0 0 0.08398,-0.332031 8.3576584,8.3576584 0 0 0 0.125,-0.826172 8.3576584,8.3576584 0 0 0 0.04297,-0.833984 8.3576584,8.3576584 0 0 0 -0.02148,-0.591797 8.3576584,8.3576584 0 0 0 -0.101562,-0.830078 8.3576584,8.3576584 0 0 0 -0.181641,-0.814453 8.3576584,8.3576584 0 0 0 -0.263672,-0.792969 8.3576584,8.3576584 0 0 0 -0.341797,-0.761719 8.3576584,8.3576584 0 0 0 -0.416015,-0.724609 8.3576584,8.3576584 0 0 0 -0.484375,-0.679688 8.3576584,8.3576584 0 0 0 -0.552735,-0.628906 8.3576584,8.3576584 0 0 0 -0.611328,-0.568359 8.3576584,8.3576584 0 0 0 -0.664062,-0.50586 8.3576584,8.3576584 0 0 0 -0.712891,-0.4375 8.3576584,8.3576584 0 0 0 -0.751953,-0.363281 8.3576584,8.3576584 0 0 0 -0.785156,-0.285156 8.3576584,8.3576584 0 0 0 -0.808594,-0.207032 8.3576584,8.3576584 0 0 0 -0.826172,-0.125 8.3576584,8.3576584 0 0 0 -0.833984,-0.04102 8.3576584,8.3576584 0 0 0 -0.591797,0.01953 8.3576584,8.3576584 0 0 0 -0.830078,0.101563 8.3576584,8.3576584 0 0 0 -0.814453,0.183593 8.3576584,8.3576584 0 0 0 -0.792969,0.261719 8.3576584,8.3576584 0 0 0 -0.761719,0.341797 8.3576584,8.3576584 0 0 0 -0.724609,0.416016 8.3576584,8.3576584 0 0 0 -0.679688,0.486328 8.3576584,8.3576584 0 0 0 -0.628906,0.550781 8.3576584,8.3576584 0 0 0 -0.568359,0.611328 8.3576584,8.3576584 0 0 0 -0.50586,0.666016 8.3576584,8.3576584 0 0 0 -0.4375,0.710937 8.3576584,8.3576584 0 0 0 -0.363281,0.751953 8.3576584,8.3576584 0 0 0 -0.285156,0.785157 8.3576584,8.3576584 0 0 0 -0.207031,0.810546 8.3576584,8.3576584 0 0 0 -0.125,0.826172 8.3576584,8.3576584 0 0 0 -0.04297,0.833985 8.3576584,8.3576584 0 0 0 0.02148,0.589843 8.3576584,8.3576584 0 0 0 0.101563,0.830079 8.3576584,8.3576584 0 0 0 0.126953,0.572265 H 9.366721 A 6.8745799,6.8745799 0 0 1 9.315941,29.947295 6.8745799,6.8745799 0 0 1 9.16555,29.277374 6.8745799,6.8745799 0 0 1 9.08352,28.595733 6.8745799,6.8745799 0 0 1 9.06594,28.109405 a 6.8745799,6.8745799 0 0 1 0.0332,-0.6875 6.8745799,6.8745799 0 0 1 0.103515,-0.679688 6.8745799,6.8745799 0 0 1 0.169922,-0.664062 6.8745799,6.8745799 0 0 1 0.236328,-0.646485 6.8745799,6.8745799 0 0 1 0.298829,-0.61914 6.8745799,6.8745799 0 0 1 0.359375,-0.585938 6.8745799,6.8745799 0 0 1 0.414062,-0.546875 6.8745799,6.8745799 0 0 1 0.46875,-0.501953 6.8745799,6.8745799 0 0 1 0.517578,-0.453125 6.8745799,6.8745799 0 0 1 0.558594,-0.400391 6.8745799,6.8745799 0 0 1 0.595703,-0.341796 6.8745799,6.8745799 0 0 1 0.626953,-0.28125 6.8745799,6.8745799 0 0 1 0.652344,-0.216797 6.8745799,6.8745799 0 0 1 0.669922,-0.150391 6.8745799,6.8745799 0 0 1 0.683594,-0.08203 6.8745799,6.8745799 0 0 1 0.486328,-0.01758 6.8745799,6.8745799 0 0 1 0.685547,0.03516 6.8745799,6.8745799 0 0 1 0.679687,0.101563 6.8745799,6.8745799 0 0 1 0.666016,0.169921 6.8745799,6.8745799 0 0 1 0.644531,0.236329 6.8745799,6.8745799 0 0 1 0.619141,0.298828 6.8745799,6.8745799 0 0 1 0.585937,0.359375 6.8745799,6.8745799 0 0 1 0.546875,0.416015 6.8745799,6.8745799 0 0 1 0.503906,0.466797 6.8745799,6.8745799 0 0 1 0.453125,0.517578 6.8745799,6.8745799 0 0 1 0.398438,0.558594 6.8745799,6.8745799 0 0 1 0.341797,0.595703 6.8745799,6.8745799 0 0 1 0.28125,0.626953 6.8745799,6.8745799 0 0 1 0.216797,0.652344 6.8745799,6.8745799 0 0 1 0.15039,0.671875 6.8745799,6.8745799 0 0 1 0.08398,0.681641 6.8745799,6.8745799 0 0 1 0.01563,0.486328 6.8745799,6.8745799 0 0 1 -0.0332,0.685547 6.8745799,6.8745799 0 0 1 -0.103516,0.679687 6.8745799,6.8745799 0 0 1 -0.160156,0.626953 z"
     id="path1309" />
  <path
     inkscape:connector-curvature="0"
     style="opacity:1;fill:#46719d;fill-opacity:1;fill-rule:evenodd;stroke:none;stroke-width:1.03534329;stroke-linecap:round;stroke-linejoin:bevel;stroke-miterlimit:4;stroke-dasharray:none;stroke-dashoffset:0;stroke-opacity:1"
     d="m 1.897975,16.000036 v 8.527344 c 0,3.08865 2.485568,5.574218 5.574219,5.574218 h 0.359375 a 8.3576584,8.3576584 0 0 1 -0.126953,-0.572265 8.3576584,8.3576584 0 0 1 -0.101563,-0.830079 8.3576584,8.3576584 0 0 1 -0.02148,-0.589843 8.3576584,8.3576584 0 0 1 0.04297,-0.833985 8.3576584,8.3576584 0 0 1 0.125,-0.826172 8.3576584,8.3576584 0 0 1 0.207031,-0.810546 8.3576584,8.3576584 0 0 1 0.285156,-0.785157 8.3576584,8.3576584 0 0 1 0.363281,-0.751953 8.3576584,8.3576584 0 0 1 0.4375,-0.710937 8.3576584,8.3576584 0 0 1 0.50586,-0.666016 8.3576584,8.3576584 0 0 1 0.568359,-0.611328 8.3576584,8.3576584 0 0 1 0.628906,-0.550781 8.3576584,8.3576584 0 0 1 0.679688,-0.486328 8.3576584,8.3576584 0 0 1 0.724609,-0.416016 8.3576584,8.3576584 0 0 1 0.761719,-0.341797 8.3576584,8.3576584 0 0 1 0.792969,-0.261719 8.3576584,8.3576584 0 0 1 0.814453,-0.183593 8.3576584,8.3576584 0 0 1 0.830078,-0.101563 8.3576584,8.3576584 0 0 1 0.591797,-0.01953 8.3576584,8.3576584 0 0 1 0.833984,0.04102 8.3576584,8.3576584 0 0 1 0.826172,0.125 8.3576584,8.3576584 0 0 1 0.808594,0.207032 8.3576584,8.3576584 0 0 1 0.785156,0.285156 8.3576584,8.3576584 0 0 1 0.751953,0.363281 8.3576584,8.3576584 0 0 1 0.712891,0.4375 8.3576584,8.3576584 0 0 1 0.664062,0.50586 8.3576584,8.3576584 0 0 1 0.611328,0.568359 8.3576584,8.3576584 0 0 1 0.552735,0.628906 8.3576584,8.3576584 0 0 1 0.484375,0.679688 8.3576584,8.3576584 0 0 1 0.416015,0.724609 8.3576584,8.3576584 0 0 1 0.341797,0.761719 8.3576584,8.3576584 0 0 1 0.263672,0.792969 8.3576584,8.3576584 0 0 1 0.181641,0.814453 8.3576584,8.3576584 0 0 1 0.101562,0.830078 8.3576584,8.3576584 0 0 1 0.02148,0.591797 8.3576584,8.3576584 0 0 1 -0.04297,0.833984 8.3576584,8.3576584 0 0 1 -0.125,0.826172 8.3576584,8.3576584 0 0 1 -0.08398,0.332031 h 0.478516 c 3.08865,0 5.576172,-2.485568 5.576172,-5.574218 v -8.527344 z"
     id="rect4497-3-3-6-2-3-2-9" />
  <circle
     style="fill:#d0d2d1;fill-opacity:1;stroke:none;stroke-width:0.4693689;stroke-linecap:round;stroke-miterlimit:4;stroke-dasharray:none;stroke-opacity:1"
     id="path830-8"
     cx="15.940103"
     cy="28.108934"
     r="1.4786224" />
  <rect
     style="fill:#ffffff;fill-opacity:1;stroke:none;stroke-width:0.34542388;stroke-linecap:round;stroke-miterlimit:4;stroke-dasharray:none;stroke-opacity:1"
     id="rect895-7"
     width="3.8147373"
     height="2.514257"
     x="24.74147"
     y="18.817495"
     ry="0.97562343" />
</svg>
