<?xml version="1.0" encoding="UTF-8" standalone="no"?>
<svg
   xmlns:dc="http://purl.org/dc/elements/1.1/"
   xmlns:cc="http://creativecommons.org/ns#"
   xmlns:rdf="http://www.w3.org/1999/02/22-rdf-syntax-ns#"
   xmlns:svg="http://www.w3.org/2000/svg"
   xmlns="http://www.w3.org/2000/svg"
   xmlns:sodipodi="http://sodipodi.sourceforge.net/DTD/sodipodi-0.dtd"
   xmlns:inkscape="http://www.inkscape.org/namespaces/inkscape"
   height="32"
   width="32"
   version="1"
   id="svg18"
   sodipodi:docname="bomber.svg"
   inkscape:version="0.92.1 r">
  <metadata
     id="metadata24">
    <rdf:RDF>
      <cc:Work
         rdf:about="">
        <dc:format>image/svg+xml</dc:format>
        <dc:type
           rdf:resource="http://purl.org/dc/dcmitype/StillImage" />
      </cc:Work>
    </rdf:RDF>
  </metadata>
  <defs
     id="defs22" />
  <sodipodi:namedview
     pagecolor="#ffffff"
     bordercolor="#666666"
     borderopacity="1"
     objecttolerance="10"
     gridtolerance="10"
     guidetolerance="10"
     inkscape:pageopacity="0"
     inkscape:pageshadow="2"
     inkscape:window-width="1680"
     inkscape:window-height="965"
     id="namedview20"
     showgrid="false"
     inkscape:zoom="7.375"
     inkscape:cx="-10.711864"
     inkscape:cy="16"
     inkscape:window-x="0"
     inkscape:window-y="0"
     inkscape:window-maximized="1"
     inkscape:current-layer="svg18" />
  <rect
     style="opacity:1;fill:#43c4c4;fill-opacity:1;fill-rule:evenodd;stroke:none;stroke-width:1.03534329;stroke-linecap:round;stroke-linejoin:bevel;stroke-miterlimit:4;stroke-dasharray:none;stroke-dashoffset:0;stroke-opacity:1"
     id="rect4497-3"
     width="28.203388"
     height="28.203388"
     x="1.8983059"
     y="1.8983059"
     ry="5.575182" />
  <g
     id="g4511"
     transform="matrix(0.74185989,0,0,0.74185989,4.1310307,3.7633158)">
    <path
       id="path4"
       d="M 6.1999566,6 C 5.4803109,6.2625462 7.9319841,10.800192 7.3403672,11.131421 6.3097452,11.542531 5,12 5,12 v 7 c 0,0 4.562016,0.591816 8,1 0.689187,0.08211 -11,7 -11,7 3.4642764,8.74e-4 38.714821,-9.295625 24.734552,-15.880022 -2.401497,-1.2783579 -5.926744,-2.1151519 -9.855632,-2.1151519 -1.974096,0 -3.788256,0.2329215 -5.396183,0.5977972 C 10.709066,9.7781868 6.8728085,5.7545482 6.2000434,6 Z"
       style="fill:#ffffff"
       inkscape:connector-curvature="0" />
    <path
       id="path8"
       d="M 5,12 V 11 H 2 v 9 h 3 v -1 c 6.007005,-1.011244 9.07058,-2.278653 9,-3.54331 C 13.931057,14.221404 10.867484,12.988744 5,12 Z"
       style="fill:#a9dde4"
       inkscape:connector-curvature="0" />
    <path
       id="path12"
       d="M 23.041016,9.75 C 23.021226,9.9092843 23.00074,10.074571 23,10.199219 c 0.0015,2.290138 3.041544,3.588379 6.927734,3.794922 -0.257052,-0.988976 -1.24784,-1.958704 -3.193359,-2.875 -0.271857,-0.144715 -0.561714,-0.281239 -0.861328,-0.414063 -0.212212,-0.09318 -0.434796,-0.180958 -0.660156,-0.267578 -0.07706,-0.03 -0.151942,-0.06064 -0.230469,-0.08984 C 24.685202,10.23854 24.379241,10.134715 24.0625,10.037109 23.731655,9.9351576 23.390738,9.8388947 23.041016,9.75 Z"
       style="fill:#a9dde4"
       inkscape:connector-curvature="0" />
    <path
       id="path16"
       d="m 2,11 v 1 h 3 v -1 z m 3,1 v 1 c 5.134048,0.865151 8.121191,1.917139 8.833984,2.994141 C 13.950001,15.815049 14.01003,15.636754 14,15.457031 13.931057,14.221745 10.867484,12.988744 5,12 Z"
       style="opacity:0.1;fill:#ffffff"
       inkscape:connector-curvature="0" />
  </g>
</svg>
