<?xml version="1.0" encoding="UTF-8" standalone="no"?>
<svg
   xmlns:dc="http://purl.org/dc/elements/1.1/"
   xmlns:cc="http://creativecommons.org/ns#"
   xmlns:rdf="http://www.w3.org/1999/02/22-rdf-syntax-ns#"
   xmlns:svg="http://www.w3.org/2000/svg"
   xmlns="http://www.w3.org/2000/svg"
   xmlns:sodipodi="http://sodipodi.sourceforge.net/DTD/sodipodi-0.dtd"
   xmlns:inkscape="http://www.inkscape.org/namespaces/inkscape"
   height="32"
   width="32"
   version="1"
   id="svg28"
   sodipodi:docname="boomaga.svg"
   inkscape:version="0.92.1 r">
  <metadata
     id="metadata34">
    <rdf:RDF>
      <cc:Work
         rdf:about="">
        <dc:format>image/svg+xml</dc:format>
        <dc:type
           rdf:resource="http://purl.org/dc/dcmitype/StillImage" />
      </cc:Work>
    </rdf:RDF>
  </metadata>
  <defs
     id="defs32" />
  <sodipodi:namedview
     pagecolor="#ffffff"
     bordercolor="#666666"
     borderopacity="1"
     objecttolerance="10"
     gridtolerance="10"
     guidetolerance="10"
     inkscape:pageopacity="0"
     inkscape:pageshadow="2"
     inkscape:window-width="1680"
     inkscape:window-height="965"
     id="namedview30"
     showgrid="false"
     inkscape:zoom="7.375"
     inkscape:cx="-22.800799"
     inkscape:cy="21.129702"
     inkscape:window-x="0"
     inkscape:window-y="0"
     inkscape:window-maximized="1"
     inkscape:current-layer="svg28" />
  <rect
     style="opacity:1;fill:#783ba2;fill-opacity:1;fill-rule:evenodd;stroke:none;stroke-width:1.03534329;stroke-linecap:round;stroke-linejoin:bevel;stroke-miterlimit:4;stroke-dasharray:none;stroke-dashoffset:0;stroke-opacity:1"
     id="rect4497-3-3-3"
     width="28.203388"
     height="28.203388"
     x="1.8983059"
     y="1.8983059"
     ry="5.575182" />
  <path
     style="opacity:1;fill:#9d4ad9;fill-opacity:1;fill-rule:evenodd;stroke:none;stroke-width:1.03534329;stroke-linecap:round;stroke-linejoin:bevel;stroke-miterlimit:4;stroke-dasharray:none;stroke-dashoffset:0;stroke-opacity:1"
     d="M 9.083984,30.101563 H 24.52539 c 3.088651,0 5.576172,-2.487522 5.576172,-5.576172 V 7.4726559 c 0,-3.088651 -2.487521,-5.5742189 -5.576172,-5.5742189 H 9.083984 Z"
     id="path4506"
     inkscape:connector-curvature="0" />
  <path
     style="opacity:1;fill:#783ba2;fill-opacity:1;fill-rule:evenodd;stroke:none;stroke-width:1.03534329;stroke-linecap:round;stroke-linejoin:bevel;stroke-miterlimit:4;stroke-dasharray:none;stroke-dashoffset:0;stroke-opacity:1"
     d="M 15.863645,30.101563 V 1.898437 H 7.472656 c -3.08865,0 -5.574218,2.4855679 -5.574218,5.5742189 V 24.525391 c 0,3.08865 2.485568,5.576172 5.574218,5.576172 z"
     id="rect4497-3"
     inkscape:connector-curvature="0"
     sodipodi:nodetypes="ccssssc" />
  <path
     inkscape:connector-curvature="0"
     style="opacity:1;fill:#e7dbff;fill-opacity:1;fill-rule:nonzero;stroke:none;stroke-width:0.1;stroke-linecap:round;stroke-linejoin:bevel;stroke-miterlimit:4;stroke-dasharray:none;stroke-dashoffset:0;stroke-opacity:1"
     d="m 8.137461,12.440775 h -0.15776 c -1.272249,0 -2.296295,1.02564 -2.296295,2.297888 v 7.244244 c 0,1.272248 1.024046,2.296295 2.296295,2.296295 h 16.040598 c 1.272248,0 2.296295,-1.024047 2.296295,-2.296295 v -7.244244 c 0,-1.272248 -1.024047,-2.297888 -2.296295,-2.297888 h -0.15776 v 5.56465 c 0,0.502285 -0.202896,0.955048 -0.53065,1.282802 -0.327755,0.327754 -0.780518,0.530649 -1.282802,0.530649 H 9.950913 c -0.502285,0 -0.955048,-0.202895 -1.282802,-0.530649 -0.327754,-0.327754 -0.53065,-0.780517 -0.53065,-1.282802 z"
     id="path4518-3" />
  <path
     inkscape:connector-curvature="0"
     style="opacity:1;fill:#783ba2;fill-opacity:1;fill-rule:nonzero;stroke:none;stroke-width:0.1;stroke-linecap:round;stroke-linejoin:bevel;stroke-miterlimit:4;stroke-dasharray:none;stroke-dashoffset:0;stroke-opacity:1"
     d="m 8.137461,12.440775 v 5.56465 c 0,0.502285 0.202896,0.955048 0.53065,1.282802 0.327754,0.327754 0.780517,0.530649 1.282802,0.530649 h 12.098174 c 0.502284,0 0.955047,-0.202895 1.282802,-0.530649 0.327754,-0.327754 0.53065,-0.780517 0.53065,-1.282802 v -5.56465 z"
     id="rect4513-6" />
  <rect
     style="opacity:1;fill:#783ba2;fill-opacity:1;fill-rule:nonzero;stroke:none;stroke-width:0.1;stroke-linecap:round;stroke-linejoin:bevel;stroke-miterlimit:4;stroke-dasharray:none;stroke-dashoffset:0;stroke-opacity:1"
     id="rect4520-7"
     width="13.828707"
     height="2.599797"
     x="9.0856428"
     y="21.679403"
     rx="0"
     ry="0" />
  <rect
     style="opacity:1;fill:#e7dbff;fill-opacity:1;fill-rule:nonzero;stroke:none;stroke-width:0.1;stroke-linecap:round;stroke-linejoin:bevel;stroke-miterlimit:4;stroke-dasharray:none;stroke-dashoffset:0;stroke-opacity:1"
     id="rect4526-5"
     width="12.066512"
     height="3.5788844"
     x="9.9667425"
     y="22.636436" />
  <circle
     style="opacity:1;fill:#ffffff;fill-opacity:1;fill-rule:nonzero;stroke:none;stroke-width:0.1;stroke-linecap:round;stroke-linejoin:bevel;stroke-miterlimit:4;stroke-dasharray:none;stroke-dashoffset:0;stroke-opacity:1"
     id="path4543-5"
     cx="24.51848"
     cy="21.900663"
     r="0.66377795" />
  <rect
     style="opacity:1;fill:#e7dbff;fill-opacity:1;fill-rule:nonzero;stroke:none;stroke-width:0.1;stroke-linecap:round;stroke-linejoin:bevel;stroke-miterlimit:4;stroke-dasharray:none;stroke-dashoffset:0;stroke-opacity:1"
     id="rect4526-6-6"
     width="12.066512"
     height="8.1147003"
     x="9.8561125"
     y="5.7846794" />
</svg>
