<?xml version="1.0" encoding="UTF-8" standalone="no"?>
<svg
   xmlns:dc="http://purl.org/dc/elements/1.1/"
   xmlns:cc="http://creativecommons.org/ns#"
   xmlns:rdf="http://www.w3.org/1999/02/22-rdf-syntax-ns#"
   xmlns:svg="http://www.w3.org/2000/svg"
   xmlns="http://www.w3.org/2000/svg"
   xmlns:sodipodi="http://sodipodi.sourceforge.net/DTD/sodipodi-0.dtd"
   xmlns:inkscape="http://www.inkscape.org/namespaces/inkscape"
   height="32"
   width="32"
   version="1"
   id="svg28"
   sodipodi:docname="box.svg"
   inkscape:version="0.92.1 r">
  <metadata
     id="metadata34">
    <rdf:RDF>
      <cc:Work
         rdf:about="">
        <dc:format>image/svg+xml</dc:format>
        <dc:type
           rdf:resource="http://purl.org/dc/dcmitype/StillImage" />
      </cc:Work>
    </rdf:RDF>
  </metadata>
  <defs
     id="defs32" />
  <sodipodi:namedview
     pagecolor="#ffffff"
     bordercolor="#666666"
     borderopacity="1"
     objecttolerance="10"
     gridtolerance="10"
     guidetolerance="10"
     inkscape:pageopacity="0"
     inkscape:pageshadow="2"
     inkscape:window-width="1680"
     inkscape:window-height="965"
     id="namedview30"
     showgrid="false"
     inkscape:zoom="7.375"
     inkscape:cx="-10.711864"
     inkscape:cy="16"
     inkscape:window-x="0"
     inkscape:window-y="0"
     inkscape:window-maximized="1"
     inkscape:current-layer="svg28" />
  <rect
     style="opacity:1;fill:#41a5c7;fill-opacity:1;fill-rule:evenodd;stroke:none;stroke-width:1.03534329;stroke-linecap:round;stroke-linejoin:bevel;stroke-miterlimit:4;stroke-dasharray:none;stroke-dashoffset:0;stroke-opacity:1"
     id="rect4497-3"
     width="28.203388"
     height="28.203388"
     x="1.8983059"
     y="1.8983059"
     ry="5.575182" />
  <g
     id="g22"
     transform="matrix(0.85032621,0,0,0.85032621,2.671941,2.1251839)"
     style="fill:#ffffff">
    <path
       d="m 16,11 a 5,5 0 0 0 -5,5 5,5 0 0 0 5,5 5,5 0 0 0 5,-5 5,5 0 0 0 -5,-5 z m 0,2 a 3,3 0 0 1 3,3 3,3 0 0 1 -3,3 3,3 0 0 1 -3,-3 3,3 0 0 1 3,-3 z"
       id="path14"
       inkscape:connector-curvature="0" />
    <path
       d="m 4,15 c -0.554,0 -1,0.446 -1,1 -0.070947,2.6369 0.09359,5.4215 0,8 0,2.7614 2.2386,5 5,5 2.7614,0 5,-2.2386 5,-5 0,-2.7614 -2.2386,-5 -5,-5 -1.0827,0.0023 -2.1355,0.35591 -3,1.0078 v -4.008 c 0,-0.554 -0.446,-1 -1,-1 z m 4,6 c 1.6569,0 3,1.3431 3,3 0,1.6569 -1.3431,3 -3,3 -1.6569,0 -3,-1.3431 -3,-3 -1e-7,-1.6569 1.3431,-3 3,-3 z"
       id="path16"
       inkscape:connector-curvature="0" />
    <g
       transform="matrix(0.70711,0.70711,-0.70711,0.70711,23.829,-3.143)"
       id="g20">
      <path
         transform="matrix(0.70711,-0.70711,0.70711,0.70711,-14.627,19.072)"
         d="m 21,3.6348 c -0.25562,0 -0.51116,0.0971 -0.70703,0.29297 -0.39174,0.39174 -0.39174,1.0223 0,1.4141 l 2.4746,2.4746 -2.4746,2.4746 c -0.39174,0.39174 -0.39174,1.0243 0,1.416 0.39174,0.39174 1.0243,0.39174 1.416,0 l 2.4746,-2.4746 2.4746,2.4746 c 0.39174,0.39174 1.0223,0.39174 1.4141,0 0.39174,-0.39174 0.39174,-1.0243 0,-1.416 l -2.4746,-2.4746 2.4746,-2.4746 c 0.39174,-0.39174 0.39174,-1.0223 0,-1.4141 -0.39174,-0.39174 -1.0223,-0.39174 -1.4141,0 l -2.474,2.4746 -2.475,-2.4746 c -0.196,-0.1958 -0.453,-0.2929 -0.709,-0.2929 z"
         id="path18"
         inkscape:connector-curvature="0" />
    </g>
  </g>
</svg>
