<?xml version="1.0" encoding="UTF-8" standalone="no"?>
<svg
   xmlns:dc="http://purl.org/dc/elements/1.1/"
   xmlns:cc="http://creativecommons.org/ns#"
   xmlns:rdf="http://www.w3.org/1999/02/22-rdf-syntax-ns#"
   xmlns:svg="http://www.w3.org/2000/svg"
   xmlns="http://www.w3.org/2000/svg"
   xmlns:sodipodi="http://sodipodi.sourceforge.net/DTD/sodipodi-0.dtd"
   xmlns:inkscape="http://www.inkscape.org/namespaces/inkscape"
   width="32"
   height="32"
   version="1"
   id="svg16"
   sodipodi:docname="bum.svg"
   inkscape:version="0.92.1 r">
  <metadata
     id="metadata22">
    <rdf:RDF>
      <cc:Work
         rdf:about="">
        <dc:format>image/svg+xml</dc:format>
        <dc:type
           rdf:resource="http://purl.org/dc/dcmitype/StillImage" />
      </cc:Work>
    </rdf:RDF>
  </metadata>
  <defs
     id="defs20" />
  <sodipodi:namedview
     pagecolor="#ffffff"
     bordercolor="#666666"
     borderopacity="1"
     objecttolerance="10"
     gridtolerance="10"
     guidetolerance="10"
     inkscape:pageopacity="0"
     inkscape:pageshadow="2"
     inkscape:window-width="1680"
     inkscape:window-height="965"
     id="namedview18"
     showgrid="false"
     inkscape:zoom="29.5"
     inkscape:cx="14.710837"
     inkscape:cy="22.156331"
     inkscape:window-x="0"
     inkscape:window-y="0"
     inkscape:window-maximized="1"
     inkscape:current-layer="svg16" />
  <rect
     style="opacity:1;fill:#ee7737;fill-opacity:1;fill-rule:evenodd;stroke:none;stroke-width:1.03534329;stroke-linecap:round;stroke-linejoin:bevel;stroke-miterlimit:4;stroke-dasharray:none;stroke-dashoffset:0;stroke-opacity:1"
     id="rect4497-3"
     width="28.203388"
     height="28.203388"
     x="1.8983059"
     y="1.8983059"
     ry="5.575182" />
  <path
     inkscape:connector-curvature="0"
     d="m 13.918536,5.8318672 c -0.215584,0.023461 -0.405477,0.1998511 -0.444881,0.4130959 l -0.428981,2.1766814 c -0.770133,0.3011822 -1.493926,0.7149899 -2.129033,1.223439 L 8.802732,8.9300791 C 8.583088,8.8543951 8.316813,8.9524501 8.198856,9.1525555 L 6.165118,12.679784 C 6.05056,12.88265 6.099678,13.1634 6.276334,13.31532 l 1.684154,1.477584 c -0.05927,0.396194 -0.09533,0.794829 -0.09533,1.207532 0,0.412719 0.03603,0.811317 0.09533,1.207533 l -1.684154,1.477656 c -0.176637,0.15192 -0.225774,0.432671 -0.111216,0.635536 l 2.033738,3.527229 c 0.11795,0.200033 0.384225,0.298132 0.603759,0.222433 l 2.113127,-0.714975 c 0.635115,0.508412 1.358901,0.922227 2.129034,1.223439 l 0.428981,2.176681 c 0.04351,0.227851 0.260602,0.409936 0.492542,0.413096 h 4.067405 c 0.23194,-0.0029 0.449049,-0.185245 0.492535,-0.413096 l 0.428988,-2.176681 c 0.770133,-0.301183 1.493926,-0.714998 2.129034,-1.223439 l 2.113127,0.714975 c 0.219527,0.0757 0.485809,-0.02237 0.603759,-0.222433 l 2.033738,-3.527229 c 0.114551,-0.202865 0.06544,-0.483616 -0.111216,-0.635536 l -1.684154,-1.477656 c 0.05927,-0.396194 0.09533,-0.794756 0.09533,-1.207533 0,-0.412718 -0.0361,-0.811316 -0.09533,-1.207532 l 1.684154,-1.477584 c 0.176637,-0.15192 0.225767,-0.43267 0.111216,-0.635536 L 23.801147,9.1525556 C 23.68348,8.9522324 23.416915,8.8541045 23.197562,8.9297886 L 21.084435,9.6447639 C 20.448892,9.1359661 19.725462,8.722173 18.955547,8.4209618 L 18.526283,6.2442804 C 18.482703,6.0164291 18.265528,5.8343368 18.033827,5.8312136 h -4.067404 c -0.01591,-3.704e-4 -0.03181,-3.704e-4 -0.04765,0 z"
     id="path2"
     style="fill:#ffffff;stroke-width:0.72633523" />
  <path
     style="fill:#ee7737;fill-opacity:1;stroke-width:0.72633523"
     inkscape:connector-curvature="0"
     d="m 16.000212,11.642258 c 2.406857,0 4.358011,1.951154 4.358011,4.358011 0,2.406857 -1.951154,4.358011 -4.358011,4.358011 -2.406857,0 -4.358011,-1.951154 -4.358011,-4.358011 0,-2.406857 1.951154,-4.358011 4.358011,-4.358011 z"
     id="path6" />
  <path
     style="opacity:1;stroke-width:0.72633523;fill:#999999"
     inkscape:connector-curvature="0"
     d="m 16.000212,9.4631074 c -3.605746,0 -6.537017,2.9312706 -6.537017,6.5370166 0,3.605746 2.931271,6.537017 6.537017,6.537017 3.605746,0 6.537017,-2.931271 6.537017,-6.537017 0,-3.605746 -2.931271,-6.5370166 -6.537017,-6.5370166 z m 0,0.7690436 c 3.190137,0 5.767973,2.577836 5.767973,5.767973 0,3.190137 -2.577836,5.767973 -5.767973,5.767973 -3.190064,0 -5.767973,-2.577764 -5.767973,-5.767828 0,-3.190064 2.577909,-5.767973 5.767973,-5.767973 z"
     id="path12" />
  <path
     style="fill:#ffee57;stroke-width:0.72633523"
     inkscape:connector-curvature="0"
     d="m 15.329078,9.4976084 c -3.29117,0.3370412 -5.865592,3.1232406 -5.865592,6.5024426 0,3.605746 2.931271,6.537017 6.537017,6.537017 0.54096,0 1.063718,-0.07319 1.566632,-0.197519 0.04654,-0.107607 0.128656,-0.290447 0.09314,-0.434131 -0.03279,-0.13268 -0.14125,-0.245661 -0.262875,-0.314663 -0.447597,0.111129 -0.91402,0.177269 -1.396597,0.177269 -3.190064,0 -5.767973,-2.577908 -5.767973,-5.767973 0,-3.041601 2.3449,-5.520292 5.327668,-5.745238 0.115357,-0.124777 0.159191,-0.2591347 0.137655,-0.4350168 -0.0223,-0.1810754 -0.1615,-0.2792832 -0.36876,-0.322195 z"
     id="path14" />
</svg>
