<?xml version="1.0" encoding="UTF-8" standalone="no"?>
<svg
   xmlns:dc="http://purl.org/dc/elements/1.1/"
   xmlns:cc="http://creativecommons.org/ns#"
   xmlns:rdf="http://www.w3.org/1999/02/22-rdf-syntax-ns#"
   xmlns:svg="http://www.w3.org/2000/svg"
   xmlns="http://www.w3.org/2000/svg"
   xmlns:sodipodi="http://sodipodi.sourceforge.net/DTD/sodipodi-0.dtd"
   xmlns:inkscape="http://www.inkscape.org/namespaces/inkscape"
   height="32"
   width="32"
   version="1"
   id="svg22"
   sodipodi:docname="chocolate-doom-setup.svg"
   inkscape:version="0.92.1 r">
  <metadata
     id="metadata28">
    <rdf:RDF>
      <cc:Work
         rdf:about="">
        <dc:format>image/svg+xml</dc:format>
        <dc:type
           rdf:resource="http://purl.org/dc/dcmitype/StillImage" />
      </cc:Work>
    </rdf:RDF>
  </metadata>
  <defs
     id="defs26" />
  <sodipodi:namedview
     pagecolor="#ffffff"
     bordercolor="#666666"
     borderopacity="1"
     objecttolerance="10"
     gridtolerance="10"
     guidetolerance="10"
     inkscape:pageopacity="0"
     inkscape:pageshadow="2"
     inkscape:window-width="1680"
     inkscape:window-height="963"
     id="namedview24"
     showgrid="false"
     inkscape:zoom="7.375"
     inkscape:cx="-3.7242992"
     inkscape:cy="10.660307"
     inkscape:window-x="0"
     inkscape:window-y="0"
     inkscape:window-maximized="1"
     inkscape:current-layer="svg22" />
  <rect
     style="opacity:1;fill:#ffecac;fill-opacity:1;fill-rule:evenodd;stroke:none;stroke-width:1.03534329;stroke-linecap:round;stroke-linejoin:bevel;stroke-miterlimit:4;stroke-dasharray:none;stroke-dashoffset:0;stroke-opacity:1"
     id="rect4497-3"
     width="28.203388"
     height="28.203388"
     x="1.8983059"
     y="1.8983059"
     ry="5.575182" />
  <g
     id="g4521"
     transform="matrix(0.73633306,0,0,0.73633306,4.218671,4.2186712)">
    <path
       id="path4"
       d="m 14.811531,2.0025458 c 0.07765,-0.048746 1.103238,0.6092876 2.158313,1.384548 1.544536,1.1349209 2.526106,2.138408 3.386245,3.4680666 0.212534,0.3285826 0.38824,0.6706975 0.546278,1.0175259 0.09191,0.1432458 0.178796,0.2902705 0.260387,0.4407731 1.670125,3.1444366 0.763531,7.1125546 -2.024589,8.8628216 -2.788121,1.750268 -6.401964,0.619893 -8.071742,-2.524761 -0.07681,-0.144755 -0.149184,-0.292225 -0.215494,-0.443006 -0.0807,-0.141683 -0.169778,-0.278735 -0.238683,-0.424745 -0.9461621,-2.005535 -0.7538634,-4.1525517 0.288931,-5.979834 0.552086,-0.9674175 1.658745,-1.9537468 2.455637,-2.4563965 0.994166,-0.6270808 1.329305,-1.8952882 1.392322,-2.9981453 0.01008,-0.1765361 0.03914,-0.3322508 0.06235,-0.3468179 z"
       style="fill:#975a34"
       inkscape:connector-curvature="0" />
    <path
       id="path6"
       d="m 11.091015,12 a 1.0909945,1.2001198 0 0 0 -1.0536,1.51172 l 3.8181,15.599999 A 1.0909945,1.2001198 0 0 0 14.909114,30 h 2.181772 a 1.0909945,1.2001198 0 0 0 1.0536,-0.888281 L 21.962585,13.51172 A 1.0909945,1.2001198 0 0 0 20.908985,12 Z"
       style="fill:#f1b65c;stroke-width:1.51882017;stroke-linecap:round;stroke-linejoin:round"
       inkscape:connector-curvature="0" />
    <rect
       id="rect10"
       ry="1"
       rx="0.727"
       y="11"
       x="8"
       height="2"
       width="16"
       style="fill:#ffcf88;stroke-width:3.49148631;stroke-linecap:round;stroke-linejoin:round" />
  </g>
  <g
     id="g4516"
     transform="matrix(0.625,0,0,0.625,8.0299068,8.5588714)">
    <circle
       r="8"
       cy="23"
       cx="24"
       style="fill:#cc5e55;fill-rule:evenodd"
       id="circle14" />
    <path
       style="fill:#ffffff"
       d="m 23,19 -0.0882,1.0536 a 3.1429,3.1429 0 0 0 -0.91852,0.53126 l -0.95759,-0.4509 -1,1.7321 0.86941,0.6038 a 3.1429,3.1429 0 0 0 -0.048,0.53013 3.1429,3.1429 0 0 0 0.0457,0.53237 l -0.86719,0.60156 1,1.7321 0.95536,-0.44978 a 3.1429,3.1429 0 0 0 0.92075,0.5279 l 0.0882,1.0558 h 2 l 0.0882,-1.0536 a 3.1429,3.1429 0 0 0 0.91854,-0.53126 l 0.95758,0.4509 1,-1.7321 -0.86942,-0.6038 a 3.1429,3.1429 0 0 0 0.048,-0.53013 3.1429,3.1429 0 0 0 -0.0457,-0.53237 l 0.86719,-0.60156 -1,-1.7321 -0.95536,0.44978 a 3.1429,3.1429 0 0 0 -0.921,-0.528 l -0.088,-1.056 h -2 z m 1,2.8572 a 1.1429,1.1429 0 0 1 1.143,1.143 A 1.1429,1.1429 0 0 1 24,24.1432 1.1429,1.1429 0 0 1 22.857,23.0002 1.1429,1.1429 0 0 1 24,21.8572 Z"
       id="path16"
       inkscape:connector-curvature="0" />
  </g>
</svg>
