<?xml version="1.0" encoding="UTF-8" standalone="no"?>
<svg
   xmlns:dc="http://purl.org/dc/elements/1.1/"
   xmlns:cc="http://creativecommons.org/ns#"
   xmlns:rdf="http://www.w3.org/1999/02/22-rdf-syntax-ns#"
   xmlns:svg="http://www.w3.org/2000/svg"
   xmlns="http://www.w3.org/2000/svg"
   xmlns:sodipodi="http://sodipodi.sourceforge.net/DTD/sodipodi-0.dtd"
   xmlns:inkscape="http://www.inkscape.org/namespaces/inkscape"
   height="32"
   width="32"
   version="1"
   id="svg47"
   sodipodi:docname="Nocturn-linux.svg"
   inkscape:version="0.92.1 r">
  <metadata
     id="metadata51">
    <rdf:RDF>
      <cc:Work
         rdf:about="">
        <dc:format>image/svg+xml</dc:format>
        <dc:type
           rdf:resource="http://purl.org/dc/dcmitype/StillImage" />
      </cc:Work>
    </rdf:RDF>
  </metadata>
  <sodipodi:namedview
     pagecolor="#ffffff"
     bordercolor="#666666"
     borderopacity="1"
     objecttolerance="10"
     gridtolerance="10"
     guidetolerance="10"
     inkscape:pageopacity="0"
     inkscape:pageshadow="2"
     inkscape:window-width="1680"
     inkscape:window-height="955"
     id="namedview49"
     showgrid="false"
     inkscape:zoom="7.375"
     inkscape:cx="-10.711864"
     inkscape:cy="16"
     inkscape:window-x="0"
     inkscape:window-y="0"
     inkscape:window-maximized="1"
     inkscape:current-layer="svg47" />
  <defs
     id="defs5">
    <filter
       id="filter3174"
       style="color-interpolation-filters:sRGB">
      <feGaussianBlur
         stdDeviation="1.71"
         id="feGaussianBlur2" />
    </filter>
  </defs>
  <g
     fill="#f53535"
     transform="matrix(.45238 0 0 .43947 2.2857 -12.094)"
     id="g19">
    <g
       display="none"
       id="g17">
      <rect
         opacity=".9"
         rx="6"
         ry="6"
         height="85"
         filter="url(#filter3174)"
         width="86"
         y="7"
         x="5"
         id="rect15" />
    </g>
  </g>
  <g
     fill="#06567a"
     transform="matrix(.35714 0 0 .35157 -1.1428 .12454)"
     id="g33">
    <g
       display="none"
       id="g31">
      <rect
         opacity=".9"
         rx="6"
         ry="6"
         height="85"
         filter="url(#filter3174)"
         width="86"
         y="7"
         x="5"
         id="rect29" />
    </g>
  </g>
  <g
     opacity=".3"
     transform="matrix(.35714 0 0 .35157 -1.1428 -.87546)"
     id="g39">
    <g
       display="none"
       id="g37">
      <rect
         opacity=".9"
         rx="6"
         ry="6"
         height="85"
         filter="url(#filter3174)"
         width="86"
         y="7"
         x="5"
         id="rect35" />
    </g>
  </g>
  <g
     transform="matrix(.35714 0 0 .35157 -1.1428 -.87546)"
     display="none"
     id="g43">
    <rect
       opacity=".9"
       rx="6"
       ry="6"
       height="85"
       filter="url(#filter3174)"
       width="86"
       y="7"
       x="5"
       id="rect41" />
  </g>
  <rect
     style="opacity:1;fill:#35b9f5;fill-opacity:1;fill-rule:evenodd;stroke:none;stroke-width:1.03534329;stroke-linecap:round;stroke-linejoin:bevel;stroke-miterlimit:4;stroke-dasharray:none;stroke-dashoffset:0;stroke-opacity:1"
     id="rect4497-3"
     width="28.203388"
     height="28.203388"
     x="1.8983059"
     y="1.8983059"
     ry="5.575182" />
  <g
     transform="matrix(0.22800514,0,0,0.22444915,5.0557704,5.2264543)"
     id="g13"
     style="fill:#ffffff">
    <g
       display="none"
       id="g9"
       style="display:none;fill:#ffffff">
      <rect
         rx="6"
         ry="6"
         height="85"
         width="86"
         y="7"
         x="5"
         id="rect7"
         style="opacity:0.9;fill:#ffffff;filter:url(#filter3174)" />
    </g>
    <path
       d="m 90,21.948 c -3.0904,1.3709 -6.4122,2.297 -9.8977,2.7136 3.5578,-2.1328 6.2908,-5.51 7.5772,-9.5344 -3.3302,1.9753 -7.0182,3.4091 -10.944,4.1819 -3.1433,-3.3495 -7.6222,-5.4419 -12.579,-5.4419 -9.5172,0 -17.234,7.7158 -17.234,17.233 0,1.3507 0.15245,2.6662 0.44645,3.9274 -14.323,-0.719 -27.021,-7.58 -35.521,-18.006 -1.4834,2.5452 -2.3335,5.5054 -2.3335,8.6638 0,5.9791 3.0425,11.254 7.6667,14.344 -2.8249,-0.08949 -5.4823,-0.86478 -7.8057,-2.1554 -0.002,0.07186 -0.002,0.14405 -0.002,0.21672 0,8.3496 5.9405,15.314 13.824,16.899 -1.4461,0.39395 -2.9686,0.60437 -4.5402,0.60437 -1.1105,0 -2.1899,-0.10836 -3.2424,-0.30912 2.1932,6.8464 8.5575,11.829 16.099,11.968 -5.8981,4.6225 -13.329,7.3777 -21.403,7.3777 -1.391,0 -2.7628,-0.08191 -4.111,-0.24109 7.6268,4.8901 16.685,7.7431 26.418,7.7431 31.699,0 49.033,-26.26 49.033,-49.034 0,-0.74718 -0.01676,-1.4902 -0.05002,-2.2298 3.3667,-2.4293 6.2883,-5.4642 8.5987,-8.9204 z"
       id="path11"
       inkscape:connector-curvature="0"
       style="fill:#ffffff" />
  </g>
</svg>
