<?xml version="1.0" encoding="UTF-8" standalone="no"?>
<svg
   xmlns:dc="http://purl.org/dc/elements/1.1/"
   xmlns:cc="http://creativecommons.org/ns#"
   xmlns:rdf="http://www.w3.org/1999/02/22-rdf-syntax-ns#"
   xmlns:svg="http://www.w3.org/2000/svg"
   xmlns="http://www.w3.org/2000/svg"
   xmlns:sodipodi="http://sodipodi.sourceforge.net/DTD/sodipodi-0.dtd"
   xmlns:inkscape="http://www.inkscape.org/namespaces/inkscape"
   height="32"
   width="32"
   version="1"
   id="svg12"
   sodipodi:docname="chrome-okdgofnjkaimfebepijgaoimfphblkpd-Default.svg"
   inkscape:version="0.92.1 r">
  <metadata
     id="metadata18">
    <rdf:RDF>
      <cc:Work
         rdf:about="">
        <dc:format>image/svg+xml</dc:format>
        <dc:type
           rdf:resource="http://purl.org/dc/dcmitype/StillImage" />
      </cc:Work>
    </rdf:RDF>
  </metadata>
  <defs
     id="defs16" />
  <sodipodi:namedview
     pagecolor="#ffffff"
     bordercolor="#666666"
     borderopacity="1"
     objecttolerance="10"
     gridtolerance="10"
     guidetolerance="10"
     inkscape:pageopacity="0"
     inkscape:pageshadow="2"
     inkscape:window-width="640"
     inkscape:window-height="480"
     id="namedview14"
     showgrid="false"
     inkscape:zoom="8.4375"
     inkscape:cx="-6.637037"
     inkscape:cy="16"
     inkscape:current-layer="svg12" />
  <rect
     style="opacity:1;fill:#d44a4a;fill-opacity:1;fill-rule:evenodd;stroke:none;stroke-width:1.03534329;stroke-linecap:round;stroke-linejoin:bevel;stroke-miterlimit:4;stroke-dasharray:none;stroke-dashoffset:0;stroke-opacity:1"
     id="rect4497"
     width="28.203388"
     height="28.203388"
     x="1.8983059"
     y="1.8983059"
     ry="5.575182" />
  <path
     d="m 16.000065,6.0001149 a 10,10 0 0 0 -8.041,4.0742001 l 3.082,5.3359 a 5,5 0 0 1 0.01758,-0.14062 5,5 0 0 1 0.09766,-0.49023 5,5 0 0 1 0.14648,-0.47656 5,5 0 0 1 0.16406,-0.39844 5,5 0 0 1 0.04101,-0.08984 5,5 0 0 1 0.17969,-0.33203 5,5 0 0 1 0.06055,-0.10352 5,5 0 0 1 0.23047,-0.33789 5,5 0 0 1 0.04687,-0.06836 5,5 0 0 1 0.24805,-0.29688 5,5 0 0 1 0.08203,-0.09375 5,5 0 0 1 0.23047,-0.22656 5,5 0 0 1 0.14453,-0.13477 5,5 0 0 1 0.20508,-0.16211 5,5 0 0 1 0.19531,-0.15039 5,5 0 0 1 0.21094,-0.13672 5,5 0 0 1 0.1582,-0.10156 5,5 0 0 1 0.06055,-0.03125 5,5 0 0 1 0.11719,-0.0625 5,5 0 0 1 0.25,-0.12109 5,5 0 0 1 0.24609,-0.10547 5,5 0 0 1 0.20703,-0.07617 5,5 0 0 1 0.26367,-0.08203 5,5 0 0 1 0.23438,-0.05859 5,5 0 0 1 0.24609,-0.05078 5,5 0 0 1 0.24023,-0.03711 5,5 0 0 1 0.26172,-0.02539 5,5 0 0 1 0.22852,-0.01172 5,5 0 0 1 0.145,-0.008 h 8.6445 a 10,10 0 0 0 -8.644,-5.0000001 z m -8.6543,5.0080001 a 10,10 0 0 0 -1.3457,4.992 10,10 0 0 0 10,10 10,10 0 0 0 4,-0.848 v -6.1543 a 5,5 0 0 1 -0.05664,0.07227 5,5 0 0 1 -0.12891,0.1543 5,5 0 0 1 -0.19336,0.2207 5,5 0 0 1 -0.1543,0.15039 5,5 0 0 1 -0.21094,0.19531 5,5 0 0 1 -0.16992,0.13476 5,5 0 0 1 -0.2168,0.16602 5,5 0 0 1 -0.21094,0.13672 5,5 0 0 1 -0.1582,0.10156 5,5 0 0 1 -0.06055,0.03125 5,5 0 0 1 -0.11719,0.0625 5,5 0 0 1 -0.25,0.12109 5,5 0 0 1 -0.24609,0.10547 5,5 0 0 1 -0.20703,0.07617 5,5 0 0 1 -0.26367,0.08203 5,5 0 0 1 -0.23438,0.05859 5,5 0 0 1 -0.24609,0.05078 5,5 0 0 1 -0.24023,0.03711 5,5 0 0 1 -0.26172,0.02539 5,5 0 0 1 -0.22852,0.01172 5,5 0 0 1 -0.144,0.008 5,5 0 0 1 -0.184,-0.006 5,5 0 0 1 -0.082,-0.004 5,5 0 0 1 -0.328,-0.031 5,5 0 0 1 -0.181,-0.022 5,5 0 0 1 -0.307,-0.062 5,5 0 0 1 -0.184,-0.041 5,5 0 0 1 -0.293,-0.088 5,5 0 0 1 -0.187,-0.064 5,5 0 0 1 -0.248,-0.104 5,5 0 0 1 -0.225,-0.101 5,5 0 0 1 -0.197,-0.108 5,5 0 0 1 -0.236,-0.135 5,5 0 0 1 -0.188,-0.127 5,5 0 0 1 -0.23,-0.164 5,5 0 0 1 -0.155,-0.129 5,5 0 0 1 -0.22,-0.193 5,5 0 0 1 -0.151,-0.154 5,5 0 0 1 -0.195,-0.211 5,5 0 0 1 -0.135,-0.17 5,5 0 0 1 -0.166,-0.217 5,5 0 0 1 -0.137,-0.211 5,5 0 0 1 -0.101,-0.158 l -0.059,-0.104 -4.2653,-7.388 z m 11.652,0.992 a 5,5 0 0 1 0.07227,0.05664 5,5 0 0 1 0.1543,0.12891 5,5 0 0 1 0.2207,0.19336 5,5 0 0 1 0.15039,0.1543 5,5 0 0 1 0.19531,0.21094 5,5 0 0 1 0.13476,0.16992 5,5 0 0 1 0.16602,0.2168 5,5 0 0 1 0.13672,0.21094 5,5 0 0 1 0.10156,0.1582 5,5 0 0 1 0.03125,0.06055 5,5 0 0 1 0.0625,0.11719 5,5 0 0 1 0.12109,0.25 5,5 0 0 1 0.10547,0.24609 5,5 0 0 1 0.07617,0.20703 5,5 0 0 1 0.08203,0.26367 5,5 0 0 1 0.05859,0.23438 5,5 0 0 1 0.05078,0.24609 5,5 0 0 1 0.03711,0.24023 5,5 0 0 1 0.01953,0.13477 5,5 0 0 1 0.0059,0.12695 5,5 0 0 1 0.01172,0.22852 5,5 0 0 1 0.008,0.144 v 8.6445 a 10,10 0 0 0 5,-8.644 10,10 0 0 0 -0.848,-4 h -6.1543 z"
     id="path10"
     inkscape:connector-curvature="0"
     style="fill:#ffffff" />
</svg>
