<?xml version="1.0" encoding="UTF-8" standalone="no"?>
<svg
   xmlns:dc="http://purl.org/dc/elements/1.1/"
   xmlns:cc="http://creativecommons.org/ns#"
   xmlns:rdf="http://www.w3.org/1999/02/22-rdf-syntax-ns#"
   xmlns:svg="http://www.w3.org/2000/svg"
   xmlns="http://www.w3.org/2000/svg"
   xmlns:sodipodi="http://sodipodi.sourceforge.net/DTD/sodipodi-0.dtd"
   xmlns:inkscape="http://www.inkscape.org/namespaces/inkscape"
   height="32"
   width="32"
   version="1"
   id="svg20"
   sodipodi:docname="chrome-jjphmlaoffndcnecccgemfdaaoighkel-Default.svg"
   inkscape:version="0.92.1 r">
  <metadata
     id="metadata26">
    <rdf:RDF>
      <cc:Work
         rdf:about="">
        <dc:format>image/svg+xml</dc:format>
        <dc:type
           rdf:resource="http://purl.org/dc/dcmitype/StillImage" />
      </cc:Work>
    </rdf:RDF>
  </metadata>
  <defs
     id="defs24" />
  <sodipodi:namedview
     pagecolor="#ffffff"
     bordercolor="#666666"
     borderopacity="1"
     objecttolerance="10"
     gridtolerance="10"
     guidetolerance="10"
     inkscape:pageopacity="0"
     inkscape:pageshadow="2"
     inkscape:window-width="1680"
     inkscape:window-height="963"
     id="namedview22"
     showgrid="false"
     inkscape:zoom="7.375"
     inkscape:cx="16"
     inkscape:cy="16"
     inkscape:window-x="0"
     inkscape:window-y="0"
     inkscape:window-maximized="1"
     inkscape:current-layer="svg20" />
  <rect
     style="opacity:1;fill:#c2352a;fill-opacity:1;fill-rule:evenodd;stroke:none;stroke-width:1.03534329;stroke-linecap:round;stroke-linejoin:bevel;stroke-miterlimit:4;stroke-dasharray:none;stroke-dashoffset:0;stroke-opacity:1"
     id="rect4497-3"
     width="28.203388"
     height="28.203388"
     x="1.8983059"
     y="1.8983059"
     ry="5.575182" />
  <path
     style="fill:#f9f9f9"
     d="m 9.3167,9.1770911 c -1.1236,0.1003 -1.538,0.1579 -2.1509,0.6805 C 6.2223,10.686791 6.0001,12.314791 6.0001,14.809791 v 2.3729 c 0,2.8434 0.37833,4.29 1.0096,4.818 0.72128,0.61674 1.1988,0.66496 1.6763,0.73807 0.18609,0.02722 1.5079,0.26132 7.362,0.26132 3.6495,0 6.7853,-0.17343 7.1098,-0.21232 0.52289,-0.06688 1.2649,-0.16099 1.8386,-0.78706 0.83817,-0.94805 1.0035,-2.5214 1.0035,-4.8033 v -2.7617 c 0,-1.4761 -0.08074,-3.5604 -1.0035,-4.4354 -0.699,-0.5903999 -0.955,-0.7544999 -2.4,-0.8275999 -0.408,-0.0179 -3.97,-0.1733999 -6.4606,-0.1727799 -2.338,6e-4 -5.786,0.1437 -6.8194,0.1770999 z m 4.684,3.8220999 4.9999,2.9996 -4.9999,3.0004"
     id="path10"
     inkscape:connector-curvature="0" />
  <g
     id="g4528"
     transform="matrix(0.66666667,0,0,0.66666667,12.519774,12.248588)">
    <circle
       r="7.5"
       cy="16"
       cx="16"
       style="fill:#03a9f4"
       id="circle12" />
    <path
       style="fill:#ffffff"
       d="m 17.5,11.5 3,3 h -1 L 17,17 c 1.5,1.5 -0.5,2.5 -0.5,2.5 L 15,18 12.5,20.5 h -1 v -1 L 14,17 12.5,15.5 c 0,0 1,-2 2.5,-0.5 l 2.5,-2.5 z"
       id="path16"
       inkscape:connector-curvature="0" />
  </g>
</svg>
