<?xml version="1.0" encoding="UTF-8" standalone="no"?>
<svg
   xmlns:dc="http://purl.org/dc/elements/1.1/"
   xmlns:cc="http://creativecommons.org/ns#"
   xmlns:rdf="http://www.w3.org/1999/02/22-rdf-syntax-ns#"
   xmlns:svg="http://www.w3.org/2000/svg"
   xmlns="http://www.w3.org/2000/svg"
   xmlns:sodipodi="http://sodipodi.sourceforge.net/DTD/sodipodi-0.dtd"
   xmlns:inkscape="http://www.inkscape.org/namespaces/inkscape"
   height="32"
   width="32"
   version="1"
   id="svg14"
   sodipodi:docname="cisco-anyconnect.svg"
   inkscape:version="0.92.1 r">
  <metadata
     id="metadata20">
    <rdf:RDF>
      <cc:Work
         rdf:about="">
        <dc:format>image/svg+xml</dc:format>
        <dc:type
           rdf:resource="http://purl.org/dc/dcmitype/StillImage" />
      </cc:Work>
    </rdf:RDF>
  </metadata>
  <defs
     id="defs18" />
  <sodipodi:namedview
     pagecolor="#ffffff"
     bordercolor="#666666"
     borderopacity="1"
     objecttolerance="10"
     gridtolerance="10"
     guidetolerance="10"
     inkscape:pageopacity="0"
     inkscape:pageshadow="2"
     inkscape:window-width="640"
     inkscape:window-height="480"
     id="namedview16"
     showgrid="false"
     inkscape:zoom="8.4375"
     inkscape:cx="-7.6375704"
     inkscape:cy="16"
     inkscape:current-layer="svg14" />
  <rect
     style="opacity:1;fill:#cccccc;fill-opacity:1;fill-rule:evenodd;stroke:none;stroke-width:1.03534329;stroke-linecap:round;stroke-linejoin:bevel;stroke-miterlimit:4;stroke-dasharray:none;stroke-dashoffset:0;stroke-opacity:1"
     id="rect4497-6"
     width="28.203388"
     height="28.203388"
     x="1.8983059"
     y="1.8983059"
     ry="5.575182" />
  <g
     id="g4665">
    <path
       id="path4618"
       d="M 6.9433594 29.996094 A 10.073439 10.073439 0 0 1 5.9882812 29.75 A 10.073439 10.073439 0 0 1 5.9863281 29.75 A 10.073439 10.073439 0 0 1 5.0410156 29.40625 A 10.073439 10.073439 0 0 1 4.5917969 29.1875 C 5.2960063 29.623652 6.0739318 29.910658 6.9433594 29.996094 z "
       style="opacity:1;fill:#cccccc;fill-opacity:1;fill-rule:evenodd;stroke:none;stroke-width:1.03534329;stroke-linecap:round;stroke-linejoin:bevel;stroke-miterlimit:4;stroke-dasharray:none;stroke-dashoffset:0;stroke-opacity:1" />
    <path
       id="path4616"
       d="M 7.6347656 30.101562 A 10.073439 10.073439 0 0 1 6.984375 30.003906 C 7.1536456 30.019247 7.2992567 30.101562 7.4726562 30.101562 L 7.6347656 30.101562 z "
       style="opacity:1;fill:#cccccc;fill-opacity:1;fill-rule:evenodd;stroke:none;stroke-width:1.03534329;stroke-linecap:round;stroke-linejoin:bevel;stroke-miterlimit:4;stroke-dasharray:none;stroke-dashoffset:0;stroke-opacity:1" />
    <path
       id="path4623"
       d="M 13.011719 10.910156 A 10.073439 10.073439 0 0 0 12.964844 11.875 A 10.073439 10.073439 0 0 0 12.990234 12.587891 A 10.073439 10.073439 0 0 0 13.111328 13.587891 A 10.073439 10.073439 0 0 0 13.332031 14.570312 A 10.073439 10.073439 0 0 0 13.648438 15.525391 A 10.073439 10.073439 0 0 0 14.060547 16.445312 A 10.073439 10.073439 0 0 0 14.560547 17.318359 A 10.073439 10.073439 0 0 0 15.146484 18.136719 A 10.073439 10.073439 0 0 0 15.810547 18.892578 A 10.073439 10.073439 0 0 1 15.8125 18.892578 A 10.073439 10.073439 0 0 0 16.548828 19.580078 A 10.073439 10.073439 0 0 0 17.349609 20.189453 A 10.073439 10.073439 0 0 0 18.208984 20.714844 A 10.073439 10.073439 0 0 0 18.988281 21.091797 A 10.073439 10.073439 0 0 0 19.037109 20.126953 A 10.073439 10.073439 0 0 0 19.011719 19.414062 A 10.073439 10.073439 0 0 0 18.890625 18.416016 A 10.073439 10.073439 0 0 1 18.890625 18.414062 A 10.073439 10.073439 0 0 0 18.669922 17.431641 A 10.073439 10.073439 0 0 0 18.351562 16.476562 A 10.073439 10.073439 0 0 0 17.941406 15.558594 A 10.073439 10.073439 0 0 1 17.941406 15.556641 A 10.073439 10.073439 0 0 0 17.439453 14.683594 A 10.073439 10.073439 0 0 0 16.853516 13.865234 A 10.073439 10.073439 0 0 0 16.189453 13.109375 A 10.073439 10.073439 0 0 1 16.189453 13.107422 A 10.073439 10.073439 0 0 0 15.453125 12.421875 A 10.073439 10.073439 0 0 1 15.453125 12.419922 A 10.073439 10.073439 0 0 0 14.650391 11.8125 A 10.073439 10.073439 0 0 0 13.792969 11.287109 A 10.073439 10.073439 0 0 0 13.011719 10.910156 z "
       style="opacity:1;fill:#cccccc;fill-opacity:1;fill-rule:evenodd;stroke:none;stroke-width:1.03534329;stroke-linecap:round;stroke-linejoin:bevel;stroke-miterlimit:4;stroke-dasharray:none;stroke-dashoffset:0;stroke-opacity:1" />
    <path
       id="path4621"
       d="M 9.0683594 10.060547 A 10.073439 10.073439 0 0 0 8.9628906 10.054688 A 10.073439 10.073439 0 0 0 8.25 10.078125 A 10.073439 10.073439 0 0 0 7.2519531 10.201172 A 10.073439 10.073439 0 0 0 6.2695312 10.421875 A 10.073439 10.073439 0 0 0 5.3125 10.738281 A 10.073439 10.073439 0 0 0 4.3945312 11.150391 A 10.073439 10.073439 0 0 0 3.5214844 11.650391 A 10.073439 10.073439 0 0 0 2.7011719 12.236328 A 10.073439 10.073439 0 0 0 1.9453125 12.900391 A 10.073439 10.073439 0 0 1 1.9433594 12.900391 A 10.073439 10.073439 0 0 0 1.8984375 12.949219 L 1.8984375 24.527344 C 1.8984375 26.535436 3.0075656 28.206306 4.5917969 29.1875 A 10.073439 10.073439 0 0 0 5.0410156 29.40625 A 10.073439 10.073439 0 0 0 5.9863281 29.75 A 10.073439 10.073439 0 0 1 5.9882812 29.75 A 10.073439 10.073439 0 0 0 6.9433594 29.996094 C 6.9575203 29.997485 6.9701825 30.00262 6.984375 30.003906 A 10.073439 10.073439 0 0 0 7.6347656 30.101562 L 10.283203 30.101562 A 10.073439 10.073439 0 0 0 10.675781 30.054688 A 10.073439 10.073439 0 0 0 11.658203 29.833984 A 10.073439 10.073439 0 0 0 12.613281 29.515625 A 10.073439 10.073439 0 0 1 12.613281 29.513672 A 10.073439 10.073439 0 0 0 13.533203 29.105469 A 10.073439 10.073439 0 0 1 13.533203 29.103516 A 10.073439 10.073439 0 0 0 14.40625 28.603516 A 10.073439 10.073439 0 0 0 15.224609 28.017578 A 10.073439 10.073439 0 0 1 15.224609 28.015625 A 10.073439 10.073439 0 0 0 15.982422 27.353516 A 10.073439 10.073439 0 0 0 16.667969 26.617188 A 10.073439 10.073439 0 0 1 16.667969 26.615234 A 10.073439 10.073439 0 0 0 17.277344 25.814453 A 10.073439 10.073439 0 0 0 17.798828 24.962891 A 14.103703 14.103703 0 0 1 16.640625 24.443359 A 14.103703 14.103703 0 0 1 15.416016 23.742188 A 14.103703 14.103703 0 0 1 14.269531 22.921875 A 14.103703 14.103703 0 0 1 13.210938 21.992188 A 14.103703 14.103703 0 0 1 12.25 20.958984 A 14.103703 14.103703 0 0 1 11.396484 19.837891 A 14.103703 14.103703 0 0 1 10.660156 18.634766 A 14.103703 14.103703 0 0 1 10.046875 17.367188 A 14.103703 14.103703 0 0 1 9.5625 16.041016 A 14.103703 14.103703 0 0 1 9.2148438 14.675781 A 14.103703 14.103703 0 0 1 9.0039062 13.28125 A 14.103703 14.103703 0 0 1 8.9335938 11.873047 A 14.103703 14.103703 0 0 1 8.96875 10.876953 A 14.103703 14.103703 0 0 1 9.0683594 10.060547 z "
       style="opacity:1;fill:#cccccc;fill-opacity:1;fill-rule:evenodd;stroke:none;stroke-width:1.03534329;stroke-linecap:round;stroke-linejoin:bevel;stroke-miterlimit:4;stroke-dasharray:none;stroke-dashoffset:0;stroke-opacity:1" />
    <path
       id="path4614"
       d="M 9.0683594 10.060547 A 14.103703 14.103703 0 0 0 8.96875 10.876953 A 14.103703 14.103703 0 0 0 8.9335938 11.873047 A 14.103703 14.103703 0 0 0 9.0039062 13.28125 A 14.103703 14.103703 0 0 0 9.2148438 14.675781 A 14.103703 14.103703 0 0 0 9.5625 16.041016 A 14.103703 14.103703 0 0 0 10.046875 17.367188 A 14.103703 14.103703 0 0 0 10.660156 18.634766 A 14.103703 14.103703 0 0 0 11.396484 19.837891 A 14.103703 14.103703 0 0 0 12.25 20.958984 A 14.103703 14.103703 0 0 0 13.210938 21.992188 A 14.103703 14.103703 0 0 0 14.269531 22.921875 A 14.103703 14.103703 0 0 0 15.416016 23.742188 A 14.103703 14.103703 0 0 0 16.640625 24.443359 A 14.103703 14.103703 0 0 0 17.798828 24.962891 A 10.073439 10.073439 0 0 0 17.802734 24.957031 A 10.073439 10.073439 0 0 1 17.802734 24.955078 A 10.073439 10.073439 0 0 0 18.242188 24.050781 A 10.073439 10.073439 0 0 1 18.242188 24.048828 A 10.073439 10.073439 0 0 0 18.585938 23.103516 A 10.073439 10.073439 0 0 0 18.835938 22.128906 A 10.073439 10.073439 0 0 1 18.835938 22.126953 A 10.073439 10.073439 0 0 0 18.986328 21.132812 A 10.073439 10.073439 0 0 1 18.986328 21.130859 A 10.073439 10.073439 0 0 0 18.988281 21.091797 A 10.073439 10.073439 0 0 1 18.208984 20.714844 A 10.073439 10.073439 0 0 1 17.349609 20.189453 A 10.073439 10.073439 0 0 1 16.548828 19.580078 A 10.073439 10.073439 0 0 1 15.8125 18.892578 A 10.073439 10.073439 0 0 1 15.810547 18.892578 A 10.073439 10.073439 0 0 1 15.146484 18.136719 A 10.073439 10.073439 0 0 1 14.560547 17.318359 A 10.073439 10.073439 0 0 1 14.060547 16.445312 A 10.073439 10.073439 0 0 1 13.648438 15.525391 A 10.073439 10.073439 0 0 1 13.332031 14.570312 A 10.073439 10.073439 0 0 1 13.111328 13.587891 A 10.073439 10.073439 0 0 1 12.990234 12.587891 A 10.073439 10.073439 0 0 1 12.964844 11.875 A 10.073439 10.073439 0 0 1 13.011719 10.910156 A 10.073439 10.073439 0 0 0 12.886719 10.849609 A 10.073439 10.073439 0 0 1 12.884766 10.847656 A 10.073439 10.073439 0 0 0 11.939453 10.503906 A 10.073439 10.073439 0 0 0 10.964844 10.253906 A 10.073439 10.073439 0 0 1 10.964844 10.251953 A 10.073439 10.073439 0 0 0 9.96875 10.103516 A 10.073439 10.073439 0 0 1 9.96875 10.101562 A 10.073439 10.073439 0 0 0 9.0683594 10.060547 z "
       style="opacity:1;fill:#7bc450;fill-opacity:1;fill-rule:evenodd;stroke:none;stroke-width:1.03534329;stroke-linecap:round;stroke-linejoin:bevel;stroke-miterlimit:4;stroke-dasharray:none;stroke-dashoffset:0;stroke-opacity:1" />
    <path
       id="path4612"
       d="M 18.917969 30.101562 A 14.103703 14.103703 0 0 0 19.080078 29.951172 A 14.103703 14.103703 0 0 0 20.011719 28.892578 A 14.103703 14.103703 0 0 0 20.830078 27.746094 A 14.103703 14.103703 0 0 0 21.533203 26.523438 A 14.103703 14.103703 0 0 0 22.107422 25.236328 A 14.103703 14.103703 0 0 0 22.552734 23.898438 A 14.103703 14.103703 0 0 0 22.861328 22.523438 A 14.103703 14.103703 0 0 0 23.03125 21.123047 A 14.103703 14.103703 0 0 0 23.066406 20.125 A 14.103703 14.103703 0 0 0 22.996094 18.71875 A 14.103703 14.103703 0 0 0 22.785156 17.324219 A 14.103703 14.103703 0 0 0 22.4375 15.958984 A 14.103703 14.103703 0 0 0 21.953125 14.632812 A 14.103703 14.103703 0 0 0 21.339844 13.365234 A 14.103703 14.103703 0 0 0 20.603516 12.162109 A 14.103703 14.103703 0 0 0 19.75 11.041016 A 14.103703 14.103703 0 0 0 18.789062 10.007812 A 14.103703 14.103703 0 0 0 17.730469 9.078125 A 14.103703 14.103703 0 0 0 16.583984 8.2578125 A 14.103703 14.103703 0 0 0 15.359375 7.5566406 A 14.103703 14.103703 0 0 0 14.074219 6.9804688 A 14.103703 14.103703 0 0 0 12.736328 6.5371094 A 14.103703 14.103703 0 0 0 11.359375 6.2285156 A 14.103703 14.103703 0 0 0 9.9609375 6.0585938 A 14.103703 14.103703 0 0 0 8.9628906 6.0214844 A 14.103703 14.103703 0 0 0 7.5546875 6.09375 A 14.103703 14.103703 0 0 0 6.1621094 6.3027344 A 14.103703 14.103703 0 0 0 4.7949219 6.6523438 A 14.103703 14.103703 0 0 0 3.4707031 7.1367188 A 14.103703 14.103703 0 0 0 2.2011719 7.75 A 14.103703 14.103703 0 0 0 1.8984375 7.9355469 L 1.8984375 12.949219 A 10.073439 10.073439 0 0 1 1.9433594 12.900391 A 10.073439 10.073439 0 0 1 1.9453125 12.900391 A 10.073439 10.073439 0 0 1 2.7011719 12.236328 A 10.073439 10.073439 0 0 1 3.5214844 11.650391 A 10.073439 10.073439 0 0 1 4.3945312 11.150391 A 10.073439 10.073439 0 0 1 5.3125 10.738281 A 10.073439 10.073439 0 0 1 6.2695312 10.421875 A 10.073439 10.073439 0 0 1 7.2519531 10.201172 A 10.073439 10.073439 0 0 1 8.25 10.078125 A 10.073439 10.073439 0 0 1 8.9628906 10.054688 A 10.073439 10.073439 0 0 1 9.96875 10.101562 A 10.073439 10.073439 0 0 1 9.96875 10.103516 A 10.073439 10.073439 0 0 1 10.964844 10.251953 A 10.073439 10.073439 0 0 1 10.964844 10.253906 A 10.073439 10.073439 0 0 1 11.939453 10.503906 A 10.073439 10.073439 0 0 1 12.884766 10.847656 A 10.073439 10.073439 0 0 1 12.886719 10.849609 A 10.073439 10.073439 0 0 1 13.792969 11.287109 A 10.073439 10.073439 0 0 1 14.650391 11.8125 A 10.073439 10.073439 0 0 1 15.453125 12.419922 A 10.073439 10.073439 0 0 1 15.453125 12.421875 A 10.073439 10.073439 0 0 1 16.189453 13.107422 A 10.073439 10.073439 0 0 1 16.189453 13.109375 A 10.073439 10.073439 0 0 1 16.853516 13.865234 A 10.073439 10.073439 0 0 1 17.439453 14.683594 A 10.073439 10.073439 0 0 1 17.941406 15.556641 A 10.073439 10.073439 0 0 1 17.941406 15.558594 A 10.073439 10.073439 0 0 1 18.351562 16.476562 A 10.073439 10.073439 0 0 1 18.669922 17.431641 A 10.073439 10.073439 0 0 1 18.890625 18.414062 A 10.073439 10.073439 0 0 1 18.890625 18.416016 A 10.073439 10.073439 0 0 1 19.011719 19.414062 A 10.073439 10.073439 0 0 1 19.037109 20.126953 A 10.073439 10.073439 0 0 1 18.986328 21.130859 A 10.073439 10.073439 0 0 1 18.986328 21.132812 A 10.073439 10.073439 0 0 1 18.835938 22.126953 A 10.073439 10.073439 0 0 1 18.835938 22.128906 A 10.073439 10.073439 0 0 1 18.585938 23.103516 A 10.073439 10.073439 0 0 1 18.242188 24.048828 A 10.073439 10.073439 0 0 1 18.242188 24.050781 A 10.073439 10.073439 0 0 1 17.802734 24.955078 A 10.073439 10.073439 0 0 1 17.802734 24.957031 A 10.073439 10.073439 0 0 1 17.277344 25.814453 A 10.073439 10.073439 0 0 1 16.667969 26.615234 A 10.073439 10.073439 0 0 1 16.667969 26.617188 A 10.073439 10.073439 0 0 1 15.982422 27.353516 A 10.073439 10.073439 0 0 1 15.224609 28.015625 A 10.073439 10.073439 0 0 1 15.224609 28.017578 A 10.073439 10.073439 0 0 1 14.40625 28.603516 A 10.073439 10.073439 0 0 1 13.533203 29.103516 A 10.073439 10.073439 0 0 1 13.533203 29.105469 A 10.073439 10.073439 0 0 1 12.613281 29.513672 A 10.073439 10.073439 0 0 1 12.613281 29.515625 A 10.073439 10.073439 0 0 1 11.658203 29.833984 A 10.073439 10.073439 0 0 1 10.675781 30.054688 A 10.073439 10.073439 0 0 1 10.283203 30.101562 L 18.917969 30.101562 z "
       style="opacity:1;fill:#318bcf;fill-opacity:1;fill-rule:evenodd;stroke:none;stroke-width:1.03534329;stroke-linecap:round;stroke-linejoin:bevel;stroke-miterlimit:4;stroke-dasharray:none;stroke-dashoffset:0;stroke-opacity:1" />
    <path
       id="path4651"
       d="M 25.798828 2.1542969 A 10.073439 10.073439 0 0 1 26.087891 2.2285156 A 10.073439 10.073439 0 0 1 27.033203 2.5742188 A 10.073439 10.073439 0 0 1 27.035156 2.5742188 A 10.073439 10.073439 0 0 1 27.107422 2.609375 C 26.698157 2.3918567 26.26157 2.2649311 25.798828 2.1542969 z "
       style="opacity:1;fill:#cccccc;fill-opacity:1;fill-rule:evenodd;stroke:none;stroke-width:1.03534329;stroke-linecap:round;stroke-linejoin:bevel;stroke-miterlimit:4;stroke-dasharray:none;stroke-dashoffset:0;stroke-opacity:1" />
    <path
       id="path4649"
       d="M 22.935547 21.916016 A 10.073439 10.073439 0 0 0 23.111328 21.925781 A 10.073439 10.073439 0 0 0 23.824219 21.900391 A 10.073439 10.073439 0 0 0 24.824219 21.779297 A 10.073439 10.073439 0 0 0 25.806641 21.558594 A 10.073439 10.073439 0 0 0 26.761719 21.240234 A 10.073439 10.073439 0 0 0 27.681641 20.830078 A 10.073439 10.073439 0 0 0 28.554688 20.328125 A 10.073439 10.073439 0 0 0 29.373047 19.742188 A 10.073439 10.073439 0 0 0 30.101562 19.103516 L 30.101562 7.4726562 C 30.101563 5.3332897 28.866845 3.5444829 27.107422 2.609375 A 10.073439 10.073439 0 0 0 27.035156 2.5742188 A 10.073439 10.073439 0 0 1 27.033203 2.5742188 A 10.073439 10.073439 0 0 0 26.087891 2.2285156 A 10.073439 10.073439 0 0 0 25.798828 2.1542969 C 25.378864 2.0538902 24.978984 1.8984375 24.527344 1.8984375 L 21.623047 1.8984375 A 10.073439 10.073439 0 0 0 21.400391 1.9257812 A 10.073439 10.073439 0 0 0 20.417969 2.1464844 A 10.073439 10.073439 0 0 1 20.416016 2.1464844 A 10.073439 10.073439 0 0 0 19.460938 2.4628906 A 10.073439 10.073439 0 0 0 18.542969 2.875 A 10.073439 10.073439 0 0 0 17.669922 3.375 A 10.073439 10.073439 0 0 1 17.667969 3.375 A 10.073439 10.073439 0 0 0 16.849609 3.9609375 A 10.073439 10.073439 0 0 0 16.09375 4.625 A 10.073439 10.073439 0 0 1 16.091797 4.6269531 A 10.073439 10.073439 0 0 0 15.40625 5.3632812 A 10.073439 10.073439 0 0 0 14.796875 6.1640625 A 10.073439 10.073439 0 0 0 14.271484 7.0214844 A 10.073439 10.073439 0 0 1 14.271484 7.0234375 A 10.073439 10.073439 0 0 0 14.253906 7.0605469 A 14.103703 14.103703 0 0 1 15.359375 7.5566406 A 14.103703 14.103703 0 0 1 16.583984 8.2578125 A 14.103703 14.103703 0 0 1 17.730469 9.078125 A 14.103703 14.103703 0 0 1 18.789062 10.007812 A 14.103703 14.103703 0 0 1 19.75 11.041016 A 14.103703 14.103703 0 0 1 20.603516 12.162109 A 14.103703 14.103703 0 0 1 21.339844 13.365234 A 14.103703 14.103703 0 0 1 21.953125 14.632812 A 14.103703 14.103703 0 0 1 22.4375 15.958984 A 14.103703 14.103703 0 0 1 22.785156 17.324219 A 14.103703 14.103703 0 0 1 22.996094 18.71875 A 14.103703 14.103703 0 0 1 23.066406 20.125 A 14.103703 14.103703 0 0 1 23.03125 21.123047 A 14.103703 14.103703 0 0 1 22.935547 21.916016 z "
       style="opacity:1;fill:#cccccc;fill-opacity:1;fill-rule:evenodd;stroke:none;stroke-width:1.03534329;stroke-linecap:round;stroke-linejoin:bevel;stroke-miterlimit:4;stroke-dasharray:none;stroke-dashoffset:0;stroke-opacity:1" />
    <path
       id="path4647"
       d="M 21.818359 25.884766 A 14.103703 14.103703 0 0 1 21.533203 26.523438 A 14.103703 14.103703 0 0 1 20.830078 27.746094 A 14.103703 14.103703 0 0 1 20.011719 28.892578 A 14.103703 14.103703 0 0 1 19.080078 29.951172 A 14.103703 14.103703 0 0 1 18.917969 30.101562 L 24.527344 30.101562 C 27.615995 30.101563 30.101563 27.615995 30.101562 24.527344 L 30.101562 24.087891 A 14.103703 14.103703 0 0 1 29.873047 24.228516 A 14.103703 14.103703 0 0 1 28.603516 24.841797 A 14.103703 14.103703 0 0 1 27.279297 25.326172 A 14.103703 14.103703 0 0 1 25.912109 25.673828 A 14.103703 14.103703 0 0 1 24.519531 25.884766 A 14.103703 14.103703 0 0 1 23.111328 25.955078 A 14.103703 14.103703 0 0 1 22.113281 25.919922 A 14.103703 14.103703 0 0 1 21.818359 25.884766 z "
       style="opacity:1;fill:#cccccc;fill-opacity:1;fill-rule:evenodd;stroke:none;stroke-width:1.03534329;stroke-linecap:round;stroke-linejoin:bevel;stroke-miterlimit:4;stroke-dasharray:none;stroke-dashoffset:0;stroke-opacity:1" />
    <path
       id="path4645"
       d="M 21.818359 25.884766 A 14.103703 14.103703 0 0 0 22.113281 25.919922 A 14.103703 14.103703 0 0 0 23.111328 25.955078 A 14.103703 14.103703 0 0 0 24.519531 25.884766 A 14.103703 14.103703 0 0 0 25.912109 25.673828 A 14.103703 14.103703 0 0 0 27.279297 25.326172 A 14.103703 14.103703 0 0 0 28.603516 24.841797 A 14.103703 14.103703 0 0 0 29.873047 24.228516 A 14.103703 14.103703 0 0 0 30.101562 24.087891 L 30.101562 19.103516 A 10.073439 10.073439 0 0 1 29.373047 19.742188 A 10.073439 10.073439 0 0 1 28.554688 20.328125 A 10.073439 10.073439 0 0 1 27.681641 20.830078 A 10.073439 10.073439 0 0 1 26.761719 21.240234 A 10.073439 10.073439 0 0 1 25.806641 21.558594 A 10.073439 10.073439 0 0 1 24.824219 21.779297 A 10.073439 10.073439 0 0 1 23.824219 21.900391 A 10.073439 10.073439 0 0 1 23.111328 21.925781 A 10.073439 10.073439 0 0 1 22.935547 21.916016 A 14.103703 14.103703 0 0 1 22.861328 22.523438 A 14.103703 14.103703 0 0 1 22.552734 23.898438 A 14.103703 14.103703 0 0 1 22.107422 25.236328 A 14.103703 14.103703 0 0 1 21.818359 25.884766 z "
       style="opacity:1;fill:#7bc450;fill-opacity:1;fill-rule:evenodd;stroke:none;stroke-width:1.03534329;stroke-linecap:round;stroke-linejoin:bevel;stroke-miterlimit:4;stroke-dasharray:none;stroke-dashoffset:0;stroke-opacity:1" />
    <path
       id="path4643"
       d="M 13.130859 1.8984375 L 7.4726562 1.8984375 C 4.3840055 1.8984375 1.8984375 4.3840055 1.8984375 7.4726562 L 1.8984375 7.9355469 A 14.103703 14.103703 0 0 1 2.2011719 7.75 A 14.103703 14.103703 0 0 1 3.4707031 7.1367188 A 14.103703 14.103703 0 0 1 4.7949219 6.6523438 A 14.103703 14.103703 0 0 1 6.1621094 6.3027344 A 14.103703 14.103703 0 0 1 7.5546875 6.09375 A 14.103703 14.103703 0 0 1 8.9628906 6.0214844 A 14.103703 14.103703 0 0 1 9.9609375 6.0585938 A 14.103703 14.103703 0 0 1 10.255859 6.09375 A 14.103703 14.103703 0 0 1 10.541016 5.4550781 A 14.103703 14.103703 0 0 1 11.244141 4.2324219 A 14.103703 14.103703 0 0 1 12.0625 3.0859375 A 14.103703 14.103703 0 0 1 12.994141 2.0253906 A 14.103703 14.103703 0 0 1 13.130859 1.8984375 z "
       style="opacity:1;fill:#cccccc;fill-opacity:1;fill-rule:evenodd;stroke:none;stroke-width:1.03534329;stroke-linecap:round;stroke-linejoin:bevel;stroke-miterlimit:4;stroke-dasharray:none;stroke-dashoffset:0;stroke-opacity:1" />
    <path
       id="rect4497"
       d="M 13.130859 1.8984375 A 14.103703 14.103703 0 0 0 12.994141 2.0253906 A 14.103703 14.103703 0 0 0 12.0625 3.0859375 A 14.103703 14.103703 0 0 0 11.244141 4.2324219 A 14.103703 14.103703 0 0 0 10.541016 5.4550781 A 14.103703 14.103703 0 0 0 10.255859 6.09375 A 14.103703 14.103703 0 0 1 11.359375 6.2285156 A 14.103703 14.103703 0 0 1 12.736328 6.5371094 A 14.103703 14.103703 0 0 1 14.074219 6.9804688 A 14.103703 14.103703 0 0 1 14.253906 7.0605469 A 10.073439 10.073439 0 0 1 14.271484 7.0234375 A 10.073439 10.073439 0 0 1 14.271484 7.0214844 A 10.073439 10.073439 0 0 1 14.796875 6.1640625 A 10.073439 10.073439 0 0 1 15.40625 5.3632812 A 10.073439 10.073439 0 0 1 16.091797 4.6269531 A 10.073439 10.073439 0 0 1 16.09375 4.625 A 10.073439 10.073439 0 0 1 16.849609 3.9609375 A 10.073439 10.073439 0 0 1 17.667969 3.375 A 10.073439 10.073439 0 0 1 17.669922 3.375 A 10.073439 10.073439 0 0 1 18.542969 2.875 A 10.073439 10.073439 0 0 1 19.460938 2.4628906 A 10.073439 10.073439 0 0 1 20.416016 2.1464844 A 10.073439 10.073439 0 0 1 20.417969 2.1464844 A 10.073439 10.073439 0 0 1 21.400391 1.9257812 A 10.073439 10.073439 0 0 1 21.623047 1.8984375 L 13.130859 1.8984375 z "
       style="opacity:1;fill:#7bc450;fill-opacity:1;fill-rule:evenodd;stroke:none;stroke-width:1.03534329;stroke-linecap:round;stroke-linejoin:bevel;stroke-miterlimit:4;stroke-dasharray:none;stroke-dashoffset:0;stroke-opacity:1" />
  </g>
</svg>
