<?xml version="1.0" encoding="UTF-8" standalone="no"?>
<svg
   xmlns:dc="http://purl.org/dc/elements/1.1/"
   xmlns:cc="http://creativecommons.org/ns#"
   xmlns:rdf="http://www.w3.org/1999/02/22-rdf-syntax-ns#"
   xmlns:svg="http://www.w3.org/2000/svg"
   xmlns="http://www.w3.org/2000/svg"
   xmlns:sodipodi="http://sodipodi.sourceforge.net/DTD/sodipodi-0.dtd"
   xmlns:inkscape="http://www.inkscape.org/namespaces/inkscape"
   height="32"
   width="32"
   version="1.1"
   id="svg12"
   sodipodi:docname="classicmenu-indicator.svg"
   inkscape:version="0.92.1 r">
  <metadata
     id="metadata18">
    <rdf:RDF>
      <cc:Work
         rdf:about="">
        <dc:format>image/svg+xml</dc:format>
        <dc:type
           rdf:resource="http://purl.org/dc/dcmitype/StillImage" />
      </cc:Work>
    </rdf:RDF>
  </metadata>
  <defs
     id="defs16" />
  <sodipodi:namedview
     pagecolor="#ffffff"
     bordercolor="#666666"
     borderopacity="1"
     objecttolerance="10"
     gridtolerance="10"
     guidetolerance="10"
     inkscape:pageopacity="0"
     inkscape:pageshadow="2"
     inkscape:window-width="640"
     inkscape:window-height="480"
     id="namedview14"
     showgrid="false"
     inkscape:zoom="8.9375"
     inkscape:cx="-26.517483"
     inkscape:cy="16"
     inkscape:current-layer="svg12" />
  <rect
     style="opacity:1;fill:#f56e2c;fill-opacity:1;fill-rule:evenodd;stroke:none;stroke-width:1.03534329;stroke-linecap:round;stroke-linejoin:bevel;stroke-miterlimit:4;stroke-dasharray:none;stroke-dashoffset:0;stroke-opacity:1"
     id="rect4497"
     width="28.203388"
     height="28.203388"
     x="1.8983059"
     y="1.8983059"
     ry="5.575182" />
  <path
     d="m 24.286678,15 a 8,8 0 0 0 -2.895,-5.1991999 c -0.325,0.1216 -0.67,0.1991999 -1.035,0.1991999 -1.258,0 -2.34,-0.7944999 -2.783,-1.9022999 a 8,8 0 0 0 -1.217,-0.0977 8,8 0 0 0 -3.104,0.627 l 1.5215,2.6366999 a 5,5 0 0 1 1.582,-0.264 5,5 0 0 1 4.8945,4 h 3.0352 z m -0.002,2 h -3.0293 a 5,5 0 0 1 -4.8984,4 5,5 0 0 1 -1.582,-0.26172 l -1.5176,2.6289 a 8,8 0 0 0 3.099,0.633 8,8 0 0 0 1.221,-0.105 c 0.444,-1.104 1.524,-1.895 2.779,-1.895 0.36611,0 0.71342,0.07673 1.0391,0.19922 a 8,8 0 0 0 2.889,-5.199 z m -1.928,-9.9999999 a 2,2 0 0 0 -2,-2 2,2 0 0 0 -2,2 2,2 0 0 0 2,2 2,2 0 0 0 2,-2 z m 0,17.9999999 a 2,2 0 0 0 -2,-2 2,2 0 0 0 -2,2 2,2 0 0 0 2,2 2,2 0 0 0 2,-2 z m -9.312,-12.736 -1.518,-2.6291999 A 8,8 0 0 0 8.6086783,14.047 c 0.45895,0.52763 0.74805,1.2063 0.74805,1.9531 0,0.74588 -0.28822,1.4238 -0.74609,1.9512 a 8,8 0 0 0 2.9140997,4.418 l 1.52,-2.631 a 5,5 0 0 1 -1.688,-3.738 5,5 0 0 1 1.688,-3.736 z M 8.3566783,16 a 2,2 0 0 0 -2.0000002,-2 2,2 0 0 0 -2,2 2,2 0 0 0 2,2 2,2 0 0 0 2.0000002,-2 z"
     id="path8"
     inkscape:connector-curvature="0"
     style="fill:#ffffff;stroke-width:4" />
</svg>
