<?xml version="1.0" encoding="UTF-8" standalone="no"?>
<svg
   xmlns:dc="http://purl.org/dc/elements/1.1/"
   xmlns:cc="http://creativecommons.org/ns#"
   xmlns:rdf="http://www.w3.org/1999/02/22-rdf-syntax-ns#"
   xmlns:svg="http://www.w3.org/2000/svg"
   xmlns="http://www.w3.org/2000/svg"
   xmlns:sodipodi="http://sodipodi.sourceforge.net/DTD/sodipodi-0.dtd"
   xmlns:inkscape="http://www.inkscape.org/namespaces/inkscape"
   height="32"
   width="32"
   version="1"
   id="svg32"
   sodipodi:docname="colorhug-flash.svg"
   inkscape:version="0.92.1 r">
  <metadata
     id="metadata38">
    <rdf:RDF>
      <cc:Work
         rdf:about="">
        <dc:format>image/svg+xml</dc:format>
        <dc:type
           rdf:resource="http://purl.org/dc/dcmitype/StillImage" />
      </cc:Work>
    </rdf:RDF>
  </metadata>
  <defs
     id="defs36" />
  <sodipodi:namedview
     pagecolor="#ffffff"
     bordercolor="#666666"
     borderopacity="1"
     objecttolerance="10"
     gridtolerance="10"
     guidetolerance="10"
     inkscape:pageopacity="0"
     inkscape:pageshadow="2"
     inkscape:window-width="640"
     inkscape:window-height="480"
     id="namedview34"
     showgrid="false"
     inkscape:zoom="9.5"
     inkscape:cx="-12.710727"
     inkscape:cy="-0.20153071"
     inkscape:current-layer="svg32" />
  <rect
     style="opacity:1;fill:#4f4f4f;fill-opacity:1;fill-rule:evenodd;stroke:none;stroke-width:1.03534329;stroke-linecap:round;stroke-linejoin:bevel;stroke-miterlimit:4;stroke-dasharray:none;stroke-dashoffset:0;stroke-opacity:1"
     id="rect4497-3"
     width="28.203388"
     height="28.203388"
     x="1.8983059"
     y="1.8983059"
     ry="5.575182"
     inkscape:export-filename="/home/ramil/3.png"
     inkscape:export-xdpi="71"
     inkscape:export-ydpi="71" />
  <g
     id="g4561"
     transform="translate(49.437586,1.5361772)">
    <path
       style="fill:#e16262;stroke-width:1"
       inkscape:connector-curvature="0"
       id="path18-3"
       d="m -40.035474,11.510439 a 4.7894737,4.7894737 0 0 0 -4.004,4.717631 4.7894737,4.7894737 0 0 0 4.789474,4.789474 4.7894737,4.7894737 0 0 0 3.810026,-1.89264 6.385965,6.385965 0 0 1 -2.241473,-1.092798 2.3947369,2.3947369 0 0 1 -1.568553,0.590701 2.3947369,2.3947369 0 0 1 -2.394737,-2.394737 2.3947369,2.3947369 0 0 1 1.524809,-2.231096 6.385965,6.385965 0 0 1 -0.08733,-1.041711 6.385965,6.385965 0 0 1 0.171782,-1.444824 z" />
    <path
       style="fill:#69db3e;stroke-width:1"
       inkscape:connector-curvature="0"
       id="path20-6"
       d="m -35.258772,5.0526315 a 4.7894737,4.7894737 0 0 0 -4.789474,4.7894741 4.7894737,4.7894737 0 0 0 0.269807,1.5621664 6.385965,6.385965 0 0 1 2.132913,-1.4136927 2.3947369,2.3947369 0 0 1 -0.008,-0.1484737 2.3947369,2.3947369 0 0 1 2.394737,-2.3947369 2.3947369,2.3947369 0 0 1 2.394737,2.3947369 2.3947369,2.3947369 0 0 1 -0.008,0.1500701 6.385965,6.385965 0 0 1 2.134509,1.4105003 4.7894737,4.7894737 0 0 0 0.268211,-1.5605704 4.7894737,4.7894737 0 0 0 -4.789474,-4.7894741 z" />
    <circle
       style="fill:#a5e98c;stroke-width:1"
       id="circle22-7"
       r="1.5964912"
       cx="-35.258774"
       cy="9.8421059" />
    <circle
       style="fill:#eb9595;stroke-width:1"
       id="circle24-5"
       r="1.5964912"
       cx="-39.25"
       cy="16.228071" />
    <circle
       style="fill:#ffffff;stroke-width:1"
       id="circle28"
       r="3.1929824"
       cx="-28.872807"
       cy="16.228071" />
    <rect
       style="fill:#ffffff;stroke-width:1"
       id="rect30"
       x="-30.469297"
       y="17.026316"
       width="3.1929824"
       height="3.1929824" />
    <rect
       style="fill:#ffffff;stroke-width:1"
       id="rect32"
       x="-30.469297"
       y="21.017546"
       width="3.1929824"
       height="0.79824561" />
    <g
       style="stroke-width:1.33333337"
       transform="matrix(0.75,0,0,0.75,-20.230434,1.4934347)"
       id="g4549">
      <circle
         style="fill:#e16262;stroke-width:1.33333337;enable-background:new"
         cx="-11.473684"
         cy="21.842106"
         r="8"
         id="circle26" />
      <path
         d="m -11.473684,17.842105 c -2.2091,0 -4,1.7909 -4,4 0,2.2091 1.7909,4 4,4 1.8141998,0 3.3494998,-1.2018 3.8392998,-2.8571 h -1.2321 c -0.44244,1.0054 -1.4381998,1.7143 -2.6070998,1.7143 -1.578,0 -2.8571,-1.2792 -2.8571,-2.8571 0,-1.578 1.2792,-2.8571 2.8571,-2.8571 0.78946,0 1.4945998,0.3286 2.0088998,0.84821 l -1.4374998,1.4375 h 3.4285998 v -3.428 l -1.173,1.173 c -0.725,-0.723 -1.7219998,-1.173 -2.8269998,-1.173 z"
         style="fill:#ffffff;stroke-width:1.33333337;enable-background:new"
         id="path30"
         inkscape:connector-curvature="0" />
    </g>
  </g>
</svg>
