<?xml version="1.0" encoding="UTF-8" standalone="no"?>
<svg
   xmlns:dc="http://purl.org/dc/elements/1.1/"
   xmlns:cc="http://creativecommons.org/ns#"
   xmlns:rdf="http://www.w3.org/1999/02/22-rdf-syntax-ns#"
   xmlns:svg="http://www.w3.org/2000/svg"
   xmlns="http://www.w3.org/2000/svg"
   xmlns:sodipodi="http://sodipodi.sourceforge.net/DTD/sodipodi-0.dtd"
   xmlns:inkscape="http://www.inkscape.org/namespaces/inkscape"
   height="32"
   width="32"
   version="1"
   id="svg36"
   sodipodi:docname="colorhug-backlight.svg"
   inkscape:version="0.92.1 r">
  <metadata
     id="metadata42">
    <rdf:RDF>
      <cc:Work
         rdf:about="">
        <dc:format>image/svg+xml</dc:format>
        <dc:type
           rdf:resource="http://purl.org/dc/dcmitype/StillImage" />
      </cc:Work>
    </rdf:RDF>
  </metadata>
  <defs
     id="defs40" />
  <sodipodi:namedview
     pagecolor="#ffffff"
     bordercolor="#666666"
     borderopacity="1"
     objecttolerance="10"
     gridtolerance="10"
     guidetolerance="10"
     inkscape:pageopacity="0"
     inkscape:pageshadow="2"
     inkscape:window-width="640"
     inkscape:window-height="480"
     id="namedview38"
     showgrid="false"
     inkscape:zoom="9.5"
     inkscape:cx="-4.1052632"
     inkscape:cy="16"
     inkscape:current-layer="svg36" />
  <rect
     style="opacity:1;fill:#4f4f4f;fill-opacity:1;fill-rule:evenodd;stroke:none;stroke-width:1.03534329;stroke-linecap:round;stroke-linejoin:bevel;stroke-miterlimit:4;stroke-dasharray:none;stroke-dashoffset:0;stroke-opacity:1"
     id="rect4497-3"
     width="28.203388"
     height="28.203388"
     x="1.8983059"
     y="1.8983059"
     ry="5.575182"
     inkscape:export-filename="/home/ramil/3.png"
     inkscape:export-xdpi="71"
     inkscape:export-ydpi="71" />
  <g
     id="g4561"
     transform="translate(44.657895,12.789474)">
    <path
       style="fill:#e16262;stroke-width:1"
       inkscape:connector-curvature="0"
       id="path18"
       d="m -35.430211,0.08938589 a 4.7894737,4.7894737 0 0 0 -4.004,4.71763161 4.7894737,4.7894737 0 0 0 4.789474,4.7894737 4.7894737,4.7894737 0 0 0 3.810026,-1.8926403 6.385965,6.385965 0 0 1 -2.241473,-1.0927983 2.3947369,2.3947369 0 0 1 -1.568553,0.5907018 2.3947369,2.3947369 0 0 1 -2.394737,-2.3947369 2.3947369,2.3947369 0 0 1 1.524809,-2.2310965 6.385965,6.385965 0 0 1 -0.08733,-1.0417105 6.385965,6.385965 0 0 1 0.171782,-1.44482461 z" />
    <path
       style="fill:#69db3e;stroke-width:1"
       inkscape:connector-curvature="0"
       id="path20"
       d="m -30.653509,-6.3684215 a 4.7894737,4.7894737 0 0 0 -4.789474,4.7894741 4.7894737,4.7894737 0 0 0 0.269807,1.56216659 6.385965,6.385965 0 0 1 2.132913,-1.41369289 2.3947369,2.3947369 0 0 1 -0.008,-0.1484737 2.3947369,2.3947369 0 0 1 2.394737,-2.3947369 2.3947369,2.3947369 0 0 1 2.394737,2.3947369 2.3947369,2.3947369 0 0 1 -0.008,0.1500701 6.385965,6.385965 0 0 1 2.134509,1.41050009 4.7894737,4.7894737 0 0 0 0.268211,-1.56057019 4.7894737,4.7894737 0 0 0 -4.789474,-4.7894741 z" />
    <circle
       style="fill:#a5e98c;stroke-width:1"
       id="circle22"
       r="1.5964912"
       cx="-30.653509"
       cy="-1.5789473" />
    <circle
       style="fill:#eb9595;stroke-width:1"
       id="circle24"
       r="1.5964912"
       cx="-34.644737"
       cy="4.8070178" />
    <circle
       id="circle26"
       r="6.3859649"
       cy="6.4035087"
       cx="-24.267544"
       style="fill:#3facd2;stroke-width:1;enable-background:new" />
    <circle
       style="fill:#ffffff;stroke-width:1"
       id="circle28"
       r="3.1929824"
       cx="-24.267544"
       cy="4.8070178" />
    <rect
       style="fill:#ffffff;stroke-width:1"
       id="rect30"
       x="-25.864035"
       y="5.6052632"
       width="3.1929824"
       height="3.1929824" />
    <rect
       style="fill:#ffffff;stroke-width:1"
       id="rect32"
       x="-25.864035"
       y="9.5964918"
       width="3.1929824"
       height="0.79824561" />
  </g>
</svg>
