<?xml version="1.0" encoding="UTF-8" standalone="no"?>
<svg
   xmlns:dc="http://purl.org/dc/elements/1.1/"
   xmlns:cc="http://creativecommons.org/ns#"
   xmlns:rdf="http://www.w3.org/1999/02/22-rdf-syntax-ns#"
   xmlns:svg="http://www.w3.org/2000/svg"
   xmlns="http://www.w3.org/2000/svg"
   xmlns:sodipodi="http://sodipodi.sourceforge.net/DTD/sodipodi-0.dtd"
   xmlns:inkscape="http://www.inkscape.org/namespaces/inkscape"
   height="32"
   width="32"
   version="1"
   id="svg34"
   sodipodi:docname="colorhug.svg"
   inkscape:version="0.92.1 r">
  <metadata
     id="metadata40">
    <rdf:RDF>
      <cc:Work
         rdf:about="">
        <dc:format>image/svg+xml</dc:format>
        <dc:type
           rdf:resource="http://purl.org/dc/dcmitype/StillImage" />
      </cc:Work>
    </rdf:RDF>
  </metadata>
  <defs
     id="defs38" />
  <sodipodi:namedview
     pagecolor="#ffffff"
     bordercolor="#666666"
     borderopacity="1"
     objecttolerance="10"
     gridtolerance="10"
     guidetolerance="10"
     inkscape:pageopacity="0"
     inkscape:pageshadow="2"
     inkscape:window-width="640"
     inkscape:window-height="480"
     id="namedview36"
     showgrid="false"
     inkscape:zoom="9.5"
     inkscape:cx="-4.1052632"
     inkscape:cy="16"
     inkscape:current-layer="svg34" />
  <rect
     style="opacity:1;fill:#4f4f4f;fill-opacity:1;fill-rule:evenodd;stroke:none;stroke-width:1.03534329;stroke-linecap:round;stroke-linejoin:bevel;stroke-miterlimit:4;stroke-dasharray:none;stroke-dashoffset:0;stroke-opacity:1"
     id="rect4497-3"
     width="28.203388"
     height="28.203388"
     x="1.8983059"
     y="1.8983059"
     ry="5.575182"
     inkscape:export-filename="/home/ramil/3.png"
     inkscape:export-xdpi="71"
     inkscape:export-ydpi="71" />
  <g
     id="g4593"
     transform="translate(61.157895,6.2631579)">
    <path
       style="fill:#3facd2;fill-opacity:1"
       inkscape:connector-curvature="0"
       id="path22-3"
       d="m -39.204895,7.8168421 -0.053,0.088 a 8,8 0 0 1 0.2,1.732 8,8 0 0 1 -0.11,1.2719999 3,3 0 0 1 2.01,2.828 3,3 0 0 1 -3,3 3,3 0 0 1 -2.008,-0.777 8,8 0 0 1 -2.758,1.388 l -0.007,0.012 a 6,6 0 0 0 4.773,2.377 6,6 0 0 0 6,-6 6,6 0 0 0 -5.047,-5.9199999 z" />
    <path
       style="fill:#e16262;fill-opacity:1"
       inkscape:connector-curvature="0"
       id="path24-6"
       d="m -51.141895,7.8268421 a 6,6 0 0 0 -5.016,5.9099999 6,6 0 0 0 6,6 6,6 0 0 0 4.773,-2.371 8,8 0 0 1 -2.808,-1.369 3,3 0 0 1 -1.965,0.74 3,3 0 0 1 -3,-3 3,3 0 0 1 1.9102,-2.795 8,8 0 0 1 -0.1094,-1.3049999 8,8 0 0 1 0.2152,-1.81 z" />
    <path
       style="fill:#69db3e;fill-opacity:1"
       inkscape:connector-curvature="0"
       id="path26-7"
       d="m -45.157895,-0.26315789 a 6,6 0 0 0 -6,5.99999999 6,6 0 0 0 0.338,1.957 8,8 0 0 1 2.672,-1.771 3,3 0 0 1 -0.01,-0.186 3,3 0 0 1 3,-3 3,3 0 0 1 3,3 3,3 0 0 1 -0.01,0.188 8,8 0 0 1 2.674,1.767 6,6 0 0 0 0.336,-1.955 6,6 0 0 0 -6,-5.99999999 z" />
    <circle
       style="fill:#a5e98c"
       id="circle28-5"
       r="2"
       cx="-45.157894"
       cy="5.7368422" />
    <circle
       style="fill:#eb9595"
       id="circle30-3"
       r="2"
       cx="-50.157894"
       cy="13.736842" />
    <circle
       style="fill:#8ccde4"
       id="circle32-5"
       r="2"
       cx="-40.157894"
       cy="13.736842" />
  </g>
</svg>
