<?xml version="1.0" encoding="UTF-8" standalone="no"?>
<svg
   xmlns:dc="http://purl.org/dc/elements/1.1/"
   xmlns:cc="http://creativecommons.org/ns#"
   xmlns:rdf="http://www.w3.org/1999/02/22-rdf-syntax-ns#"
   xmlns:svg="http://www.w3.org/2000/svg"
   xmlns="http://www.w3.org/2000/svg"
   xmlns:xlink="http://www.w3.org/1999/xlink"
   xmlns:sodipodi="http://sodipodi.sourceforge.net/DTD/sodipodi-0.dtd"
   xmlns:inkscape="http://www.inkscape.org/namespaces/inkscape"
   height="32"
   width="32"
   version="1"
   id="svg16"
   sodipodi:docname="css.svg"
   inkscape:version="0.92.1 r">
  <metadata
     id="metadata22">
    <rdf:RDF>
      <cc:Work
         rdf:about="">
        <dc:format>image/svg+xml</dc:format>
        <dc:type
           rdf:resource="http://purl.org/dc/dcmitype/StillImage" />
      </cc:Work>
    </rdf:RDF>
  </metadata>
  <defs
     id="defs20">
    <radialGradient
       inkscape:collect="always"
       xlink:href="#linearGradient4534"
       id="radialGradient4567"
       gradientUnits="userSpaceOnUse"
       gradientTransform="matrix(1.5554062,0,0,1.5554062,-67.306568,0.62639528)"
       cx="24.391607"
       cy="16.559441"
       fx="24.391607"
       fy="16.559441"
       r="14.101694" />
    <linearGradient
       id="linearGradient4534">
      <stop
         style="stop-color:#56572b;stop-opacity:1;"
         offset="0"
         id="stop4530" />
      <stop
         style="stop-color:#1a1c0e;stop-opacity:1"
         offset="1"
         id="stop4532" />
    </linearGradient>
  </defs>
  <sodipodi:namedview
     pagecolor="#ffffff"
     bordercolor="#666666"
     borderopacity="1"
     objecttolerance="10"
     gridtolerance="10"
     guidetolerance="10"
     inkscape:pageopacity="0"
     inkscape:pageshadow="2"
     inkscape:window-width="640"
     inkscape:window-height="480"
     id="namedview18"
     showgrid="false"
     inkscape:zoom="6.2313785"
     inkscape:cx="-34.888948"
     inkscape:cy="-10.007334"
     inkscape:current-layer="svg16" />
  <g
     id="g4540"
     transform="translate(45.367499,-10.383265)">
    <rect
       inkscape:export-ydpi="300"
       inkscape:export-xdpi="300"
       inkscape:export-filename="/home/ramil/8.png"
       ry="5.575182"
       y="12.281357"
       x="-43.469406"
       height="28.203388"
       width="28.203388"
       id="rect4497-3"
       style="opacity:1;fill:#56572b;fill-opacity:1;fill-rule:evenodd;stroke:none;stroke-width:1.03534329;stroke-linecap:round;stroke-linejoin:bevel;stroke-miterlimit:4;stroke-dasharray:none;stroke-dashoffset:0;stroke-opacity:1" />
    <path
       inkscape:export-ydpi="300"
       inkscape:export-xdpi="300"
       inkscape:export-filename="/home/ramil/8.png"
       id="path4565-3"
       d="m -27.435513,40.485173 c -0.791887,-0.342472 -1.799597,-0.637879 -2.451171,-1.009765 -1.488042,-0.8493 -2.632598,-1.768898 -3.533203,-2.728516 -0.900606,-0.959618 -1.556327,-1.95875 -2.070313,-2.96875 -0.513986,-1.01 -0.884708,-2.030803 -1.212891,-3.03125 -0.328182,-1.000446 -0.613836,-1.981153 -0.957031,-2.912109 -0.343195,-0.930957 -0.743711,-1.811752 -1.302734,-2.613282 -0.559024,-0.801529 -1.276285,-1.524551 -2.251954,-2.136718 -0.57827,-0.362827 -1.473097,-0.59546 -2.253906,-0.874999 v 12.699217 c 0,3.088651 2.485568,5.576172 5.574219,5.576172 z"
       style="opacity:1;fill:#222514;fill-opacity:1;fill-rule:evenodd;stroke:none;stroke-width:1.03534329;stroke-linecap:round;stroke-linejoin:bevel;stroke-miterlimit:4;stroke-dasharray:none;stroke-dashoffset:0;stroke-opacity:1"
       inkscape:connector-curvature="0" />
    <path
       inkscape:export-ydpi="300"
       inkscape:export-xdpi="300"
       inkscape:export-filename="/home/ramil/8.png"
       id="path4570-6"
       d="m -32.492153,12.282049 h -5.402344 c -3.088651,0 -5.574219,2.485568 -5.574219,5.574219 v 4.353516 c 0.780809,0.279539 1.675636,0.512172 2.253906,0.874999 0.975669,0.612167 1.69293,1.33519 2.251954,2.136718 0.559023,0.80153 0.959539,1.682325 1.302734,2.613282 0.343195,0.930956 0.628849,1.911663 0.957031,2.912109 0.328183,1.000447 0.698905,2.02125 1.212891,3.03125 0.513986,1.01 1.169706,2.009132 2.070313,2.96875 0.900604,0.959618 2.045161,1.879216 3.533203,2.728516 0.651574,0.371886 1.659285,0.667293 2.451171,1.009765 h 6.59375 c 3.088651,0 5.576172,-2.487521 5.576172,-5.576172 v -3.851562 c -0.656957,-0.253829 -1.462094,-0.448958 -1.966796,-0.765625 -0.975669,-0.612167 -1.69293,-1.333236 -2.251954,-2.134766 -0.559023,-0.80153 -0.959539,-1.682325 -1.302734,-2.613281 -0.343195,-0.930956 -0.628849,-1.911663 -0.957031,-2.912109 -0.328183,-1.000446 -0.698905,-2.021249 -1.212891,-3.03125 -0.513986,-1.01 -1.17166,-2.009132 -2.072266,-2.96875 -0.900605,-0.959618 -2.045161,-1.879216 -3.533203,-2.728515 -1.04499,-0.596428 -2.5107,-1.10423 -3.929687,-1.621094 z"
       style="opacity:1;fill:url(#radialGradient4567);fill-opacity:1;fill-rule:evenodd;stroke:none;stroke-width:1.03534329;stroke-linecap:round;stroke-linejoin:bevel;stroke-miterlimit:4;stroke-dasharray:none;stroke-dashoffset:0;stroke-opacity:1"
       inkscape:connector-curvature="0" />
    <path
       inkscape:export-ydpi="300"
       inkscape:export-xdpi="300"
       inkscape:export-filename="/home/ramil/8.png"
       id="rect4497-3-3-7"
       d="m -32.492153,12.282049 c 1.418987,0.516864 2.884697,1.024666 3.929687,1.621094 1.488042,0.849299 2.632598,1.768897 3.533203,2.728515 0.900606,0.959618 1.55828,1.95875 2.072266,2.96875 0.513986,1.010001 0.884708,2.030804 1.212891,3.03125 0.328182,1.000446 0.613836,1.981153 0.957031,2.912109 0.343195,0.930956 0.743711,1.811751 1.302734,2.613281 0.559024,0.80153 1.276285,1.522599 2.251954,2.134766 0.504702,0.316667 1.309839,0.511796 1.966796,0.765625 V 17.856268 c 0,-3.088651 -2.487521,-5.574219 -5.576172,-5.574219 z"
       style="opacity:1;fill:#56572b;fill-opacity:1;fill-rule:evenodd;stroke:none;stroke-width:1.03534329;stroke-linecap:round;stroke-linejoin:bevel;stroke-miterlimit:4;stroke-dasharray:none;stroke-dashoffset:0;stroke-opacity:1"
       inkscape:connector-curvature="0" />
    <g
       transform="translate(-3.3354899,20.283949)"
       id="g4583">
      <g
         id="g4564"
         transform="translate(0.90780142,-17.319913)">
        <path
           inkscape:export-ydpi="300"
           inkscape:export-xdpi="300"
           inkscape:export-filename="/home/ramil/8.png"
           sodipodi:nodetypes="sccccccccccccccccccccscsscccsscscccssccscscccscccscscccss"
           inkscape:connector-curvature="0"
           id="path4496-3"
           d="m -30.634079,31.878235 c 0.342211,-0.168048 0.386993,-0.258567 0.401988,-0.812579 l 0.01258,-0.464314 h -0.574329 -0.57433 l 0.01216,0.341216 0.01216,0.341215 -1.165524,-7.5e-5 -1.16552,-9.9e-5 v -0.985483 -0.985483 l 1.16552,-7.6e-5 1.165524,-7.6e-5 -0.01241,0.328022 -0.01244,0.328022 0.258798,-0.02362 c 0.329311,-0.03005 0.708783,-0.213203 0.838785,-0.404829 0.07342,-0.108224 0.0859,-0.16324 0.06776,-0.298669 -0.03375,-0.251851 -0.147214,-0.402781 -0.393864,-0.523901 l -0.215981,-0.106082 h -1.648792 -1.648787 l -0.198678,0.08981 c -0.264258,0.119459 -0.451969,0.329967 -0.483419,0.542114 -0.01336,0.09022 -0.01887,0.624564 -0.01223,1.187426 0.01357,1.150167 0.01845,1.17192 0.306636,1.371643 0.27334,0.189426 0.375542,0.198801 2.074388,0.190279 l 1.572983,-0.0079 z m 4.85469,0.08509 c 0.219066,-0.05573 0.449212,-0.22015 0.528416,-0.377505 0.05234,-0.103977 0.06629,-0.22954 0.06633,-0.597191 7.5e-5,-0.550966 -0.04058,-0.678986 -0.26214,-0.825608 -0.277218,-0.183454 -0.473457,-0.204799 -1.888809,-0.205445 l -1.298182,-6e-4 v -0.322173 -0.322177 h 1.724592 c 1.708413,0 1.724596,-7.42e-4 1.724596,-0.07702 0,-0.118032 -0.09384,-0.311972 -0.194104,-0.401175 -0.04959,-0.04412 -0.175451,-0.112344 -0.279685,-0.151613 -0.175002,-0.06593 -0.315797,-0.0714 -1.838305,-0.0714 h -1.648784 l -0.208471,0.102465 c -0.24342,0.119645 -0.400313,0.329365 -0.438899,0.586684 -0.04128,0.275302 3.53e-4,0.812326 0.074,0.952325 0.08289,0.157773 0.353548,0.331599 0.597916,0.384006 0.111814,0.02398 0.715371,0.04024 1.493446,0.04024 h 1.305795 v 0.303226 0.303225 h -1.747603 c -1.578012,0 -1.74537,0.0058 -1.724596,0.05995 0.01265,0.03297 0.02301,0.08355 0.02301,0.112391 0,0.155242 0.37251,0.43597 0.672195,0.506575 0.210082,0.0495 3.125128,0.05021 3.319286,8.13e-4 z"
           style="fill:#ffffff;stroke-width:1" />
        <path
           inkscape:export-ydpi="300"
           inkscape:export-xdpi="300"
           inkscape:export-filename="/home/ramil/8.png"
           sodipodi:nodetypes="scscccssccscscccscccscscccss"
           inkscape:connector-curvature="0"
           id="path4496-6"
           d="m -19.642326,31.963325 c 0.219066,-0.05573 0.449212,-0.22015 0.528416,-0.377505 0.05234,-0.103977 0.06629,-0.22954 0.06633,-0.597191 7.5e-5,-0.550966 -0.04058,-0.678986 -0.26214,-0.825608 -0.277218,-0.183454 -0.473457,-0.204799 -1.888809,-0.205445 l -1.298182,-6e-4 v -0.322173 -0.322177 h 1.724592 c 1.708413,0 1.724596,-7.42e-4 1.724596,-0.07702 0,-0.118032 -0.09384,-0.311972 -0.194104,-0.401175 -0.04959,-0.04412 -0.175451,-0.112344 -0.279685,-0.151613 -0.175002,-0.06593 -0.315797,-0.0714 -1.838305,-0.0714 h -1.648784 l -0.208471,0.102465 c -0.24342,0.119645 -0.400313,0.329365 -0.438899,0.586684 -0.04128,0.275302 3.53e-4,0.812326 0.074,0.952325 0.08289,0.157773 0.353548,0.331599 0.597916,0.384006 0.111814,0.02398 0.715371,0.04024 1.493446,0.04024 h 1.305795 v 0.303226 0.303225 h -1.747603 c -1.578012,0 -1.74537,0.0058 -1.724596,0.05995 0.01265,0.03297 0.02301,0.08355 0.02301,0.112391 0,0.155242 0.37251,0.43597 0.672195,0.506575 0.210082,0.0495 3.125128,0.05021 3.319286,8.13e-4 z"
           style="fill:#ffffff;stroke-width:1" />
      </g>
      <path
         style="color:#000000;font-style:normal;font-variant:normal;font-weight:normal;font-stretch:normal;font-size:medium;line-height:normal;font-family:sans-serif;font-variant-ligatures:normal;font-variant-position:normal;font-variant-caps:normal;font-variant-numeric:normal;font-variant-alternates:normal;font-feature-settings:normal;text-indent:0;text-align:start;text-decoration:none;text-decoration-line:none;text-decoration-style:solid;text-decoration-color:#000000;letter-spacing:normal;word-spacing:normal;text-transform:none;writing-mode:lr-tb;direction:ltr;text-orientation:mixed;dominant-baseline:auto;baseline-shift:baseline;text-anchor:start;white-space:normal;shape-padding:0;clip-rule:nonzero;display:inline;overflow:visible;visibility:visible;opacity:1;isolation:auto;mix-blend-mode:normal;color-interpolation:sRGB;color-interpolation-filters:linearRGB;solid-color:#000000;solid-opacity:1;vector-effect:none;fill:#ffffff;fill-opacity:1;fill-rule:nonzero;stroke:none;stroke-width:0.80000001;stroke-linecap:round;stroke-linejoin:bevel;stroke-miterlimit:4;stroke-dasharray:none;stroke-dashoffset:0;stroke-opacity:1;color-rendering:auto;image-rendering:auto;shape-rendering:auto;text-rendering:auto;enable-background:accumulate"
         d="m -25.804688,-1.7729765 c -4.093721,0 -7.421874,3.328153 -7.421874,7.421875 0,2.0478506 0.832836,3.9041388 2.177734,5.2480465 h 1.214844 c -1.573635,-1.2095936 -2.591797,-3.1062066 -2.591797,-5.2480465 0,-3.66137 2.959723,-6.62109369 6.621093,-6.62109369 3.661371,0 6.621094,2.95972369 6.621094,6.62109369 0,2.1418399 -1.018162,4.0384529 -2.591797,5.2480465 h 1.214844 c 1.344898,-1.3439077 2.177735,-3.2001959 2.177735,-5.2480465 0,-4.093722 -3.328154,-7.421875 -7.421876,-7.421875 z"
         id="path4545"
         inkscape:connector-curvature="0" />
      <path
         style="fill:#ffffff;stroke-width:0.99999994"
         d="m -23.726598,10.453652 c 0.137151,-0.124119 0.104142,-0.363416 -0.0876,-0.6351711 -0.167549,-0.237452 -0.168475,-0.241193 -0.288557,-1.1605 -0.115254,-0.882401 -0.128001,-0.936636 -0.294695,-1.2543 -0.113675,-0.216624 -0.23319,-0.375523 -0.343869,-0.457184 -0.20638,-0.152267 -0.309358,-0.421588 -0.222943,-0.583058 0.04865,-0.09089 0.03119,-0.129125 -0.182678,-0.400306 -0.130052,-0.164896 -0.260709,-0.325221 -0.290345,-0.356276 -0.02963,-0.03106 -0.117578,-0.145151 -0.19542,-0.253547 -0.09999,-0.13923 -0.163682,-0.190054 -0.216984,-0.173136 -0.06023,0.01911 -0.07941,-0.0096 -0.0951,-0.142549 -0.0108,-0.09157 -0.03488,-0.201152 -0.05348,-0.243512 -0.02729,-0.06216 -0.01198,-0.07702 0.07935,-0.07702 0.153858,0 0.204303,-0.113384 0.204303,-0.459217 v -0.288962 h 0.341374 c 0.187753,0 0.409067,-0.01941 0.491805,-0.04315 0.197747,-0.05671 0.38976,-0.242215 0.490628,-0.473982 0.08533,-0.196084 0.167441,-0.233245 0.262437,-0.118781 0.03447,0.04156 0.109785,0.06307 0.192436,0.05501 0.122301,-0.01194 0.137135,-0.02963 0.149438,-0.17829 0.0075,-0.09078 0.02778,-0.165039 0.04505,-0.165039 0.01728,0 0.1208,0.212901 0.230072,0.473113 0.189395,0.451003 0.204509,0.472692 0.323384,0.464095 0.06859,-0.005 0.135523,-0.01983 0.148744,-0.03306 0.01321,-0.01323 -0.05197,-0.227014 -0.144887,-0.475097 -0.09291,-0.248084 -0.176289,-0.472486 -0.185292,-0.498672 -0.0089,-0.02618 0.07025,-0.08333 0.176125,-0.12699 0.147144,-0.06068 0.202013,-0.111666 0.232924,-0.216454 l 0.04042,-0.137071 0.506124,-0.02722 c 0.278365,-0.01497 0.511071,-0.02983 0.517124,-0.03301 0.006,-0.0033 0.01103,-0.03424 0.01103,-0.06902 0,-0.03917 -0.05443,-0.06847 -0.143037,-0.07702 -0.141113,-0.01361 -0.14321,-0.01714 -0.156116,-0.262942 -0.0013,-0.08653 -0.15265,-0.08156 -0.228975,-0.122342 0,0.121666 -0.01057,0.129434 -0.176042,0.129434 -0.127143,0 -0.176043,-0.01833 -0.176043,-0.06601 0,-0.07343 -0.07238,-0.09059 -0.09535,-0.02261 -0.0081,0.02387 -0.108739,0.05627 -0.223718,0.072 l -0.209052,0.02859 v -0.133305 c 0,-0.07331 -0.02729,-0.143779 -0.06065,-0.156581 -0.0695,-0.02667 -0.159402,0.04816 -0.159402,0.132687 0,0.04314 -0.108334,0.05721 -0.440105,0.05721 h -0.440149 v -0.132032 c 0,-0.121552 -0.01223,-0.132031 -0.154034,-0.132031 -0.102319,0 -0.154038,0.02059 -0.154038,0.06131 0,0.07388 -0.09475,0.114731 -0.266114,0.114731 -0.08185,0 -0.143607,0.03125 -0.17399,0.08803 -0.06176,0.115405 -0.333228,0.12903 -0.289287,0.01451 0.267817,-0.697918 -0.114627,-1.35607496 -0.779282,-1.34110096 -0.426245,0.0096 -0.690628,0.375971 -0.691423,0.95815496 -4.11e-4,0.311133 -0.0016,0.314219 -0.140887,0.371916 -0.465181,0.192683 -0.798701,0.931435 -0.781842,1.731789 0.0053,0.253871 -0.01966,0.519415 -0.06873,0.729313 -0.05174,0.22139 -0.08036,0.547456 -0.08692,0.990237 -0.0089,0.603657 -0.02294,0.707242 -0.163699,1.210291 -0.12867,0.459876 -0.215814,0.856695 -0.324418,1.47721 -0.0088,0.05025 -0.125174,0.166133 -0.260372,0.259249 -0.264529,0.182187 -0.443198,0.384953 -0.583768,0.6625 l -0.08935,0.176427 0.160515,0.417717 c 0.199979,0.5204071 0.196499,0.5153111 0.388123,0.5682211 0.118526,0.03273 0.195695,0.02816 0.306485,-0.01813 l 0.148075,-0.06187 V 9.7585509 9.4262259 h 0.175915 c 0.384603,0 0.676618,-0.439933 1.057174,-1.592683 0.34123,-1.033627 0.444731,-1.312015 0.487787,-1.312015 0.02175,0 0.03956,0.02029 0.03956,0.04509 0,0.0248 0.07912,0.170369 0.175829,0.323491 0.203201,0.321747 0.543285,0.657877 0.890052,0.8797 0.216919,0.138762 0.245537,0.174969 0.272387,0.344601 0.0165,0.104246 0.109727,0.427203 0.207185,0.717672 0.09745,0.29047 0.204706,0.682404 0.23834,0.870963 0.0785,0.4401021 0.169616,0.5650031 0.515312,0.7064351 0.323018,0.132154 0.501686,0.145027 0.613129,0.04417 z M -25.47671,2.9456699 c 0.016,-0.102876 0.06194,-0.211802 0.102063,-0.242059 0.15014,-0.11321 0.760308,-0.0344 0.760308,0.0982 0,0.06246 -0.134289,0.109332 -0.315884,0.110249 -0.07277,3.52e-4 -0.150932,0.04267 -0.204382,0.110633 -0.06044,0.07684 -0.129478,0.110029 -0.228871,0.110029 h -0.142332 z"
         id="path4496-3-7"
         inkscape:connector-curvature="0"
         sodipodi:nodetypes="sssccssccccsscsccscsscccsccccscsssccscccscsscsssssssccssssccscssccccsssssscscsccscccscccc"
         inkscape:export-filename="/home/ramil/8.png"
         inkscape:export-xdpi="300"
         inkscape:export-ydpi="300" />
    </g>
  </g>
</svg>
