<?xml version="1.0" encoding="UTF-8" standalone="no"?>
<svg
   xmlns:dc="http://purl.org/dc/elements/1.1/"
   xmlns:cc="http://creativecommons.org/ns#"
   xmlns:rdf="http://www.w3.org/1999/02/22-rdf-syntax-ns#"
   xmlns:svg="http://www.w3.org/2000/svg"
   xmlns="http://www.w3.org/2000/svg"
   xmlns:sodipodi="http://sodipodi.sourceforge.net/DTD/sodipodi-0.dtd"
   xmlns:inkscape="http://www.inkscape.org/namespaces/inkscape"
   height="32"
   viewBox="0 0 32 32"
   width="32"
   version="1.1"
   id="svg22"
   sodipodi:docname="draftsight.svg"
   inkscape:version="0.92.1 r">
  <metadata
     id="metadata28">
    <rdf:RDF>
      <cc:Work
         rdf:about="">
        <dc:format>image/svg+xml</dc:format>
        <dc:type
           rdf:resource="http://purl.org/dc/dcmitype/StillImage" />
      </cc:Work>
    </rdf:RDF>
  </metadata>
  <defs
     id="defs26" />
  <sodipodi:namedview
     pagecolor="#ffffff"
     bordercolor="#666666"
     borderopacity="1"
     objecttolerance="10"
     gridtolerance="10"
     guidetolerance="10"
     inkscape:pageopacity="0"
     inkscape:pageshadow="2"
     inkscape:window-width="1680"
     inkscape:window-height="965"
     id="namedview24"
     showgrid="false"
     inkscape:zoom="7.375"
     inkscape:cx="-31.837337"
     inkscape:cy="28.980023"
     inkscape:window-x="0"
     inkscape:window-y="0"
     inkscape:window-maximized="1"
     inkscape:current-layer="svg22" />
  <rect
     style="opacity:1;fill:#83b8c0;fill-opacity:1;fill-rule:evenodd;stroke:none;stroke-width:1.03534329;stroke-linecap:round;stroke-linejoin:bevel;stroke-miterlimit:4;stroke-dasharray:none;stroke-dashoffset:0;stroke-opacity:1"
     id="rect4497-3"
     width="28.203388"
     height="28.203388"
     x="1.8983059"
     y="1.8983059"
     ry="5.575182" />
  <g
     id="g4525"
     transform="translate(50.669492,22.644068)">
    <path
       id="path6"
       d="m -43.423805,-10.660496 a 1.1267358,0.97308994 75 0 0 -0.648247,1.3400642 l 3.110309,11.607833 a 1.1267358,0.97308994 75 0 0 1.231429,0.836406 c 3.27624,-0.877867 5.122042,-4.69353 4.105567,-8.487069 -1.016477,-3.793541 -4.52282,-6.1750992 -7.799058,-5.2972342 z"
       style="opacity:1;fill:#9fdb5f;fill-opacity:1;stroke-width:0.69975787"
       inkscape:connector-curvature="0" />
    <path
       id="path10"
       d="m -35.258342,-16.44 a 1.1997132,1.2779565 0 0 0 -1.160545,1.276997 V 1.8747132 a 1.1997132,1.2779565 0 0 0 1.199593,1.277829 h 8.797017 a 1.1997132,1.2779565 0 0 0 1.051206,-1.893449 L -34.168088,-15.778624 A 1.1997132,1.2779565 0 0 0 -35.258342,-16.44 Z"
       style="opacity:1;fill:#ffffff;fill-opacity:1;stroke:none;stroke-width:0.69975787;stroke-opacity:1"
       inkscape:connector-curvature="0" />
    <path
       id="path14"
       d="m -30.820824,-5.5944308 c 0,0 -3.14891,0.06998 -3.14891,1.049637 0,0.979661 2.799031,3.288862 2.799031,4.268523 0,0.979661 -3.14891,0.979661 -3.14891,0.979661"
       style="fill:none;fill-opacity:0.66666667;stroke:#83b8c0;stroke-width:2.09927368;stroke-linejoin:round;stroke-opacity:1"
       inkscape:connector-curvature="0" />
    <path
       id="path18"
       d="m -41.523565,-8.6640718 c -0.06494,0.0071 -0.130555,0.016 -0.196807,0.0096 l 2.462819,9.189791 c 1.394631,-0.996217 2.223306,-3.045455 1.604523,-5.354788 -0.570716,-2.129942 -2.102147,-3.511726 -3.675095,-3.843202 -0.06623,-0.01395 -0.1305,-0.0085 -0.19544,-0.0014 z"
       style="opacity:1;fill:#83b8c0;fill-opacity:1;stroke:none;stroke-width:0.69975787;stroke-opacity:1"
       inkscape:connector-curvature="0" />
  </g>
</svg>
