<?xml version="1.0" encoding="UTF-8" standalone="no"?>
<svg
   xmlns:dc="http://purl.org/dc/elements/1.1/"
   xmlns:cc="http://creativecommons.org/ns#"
   xmlns:rdf="http://www.w3.org/1999/02/22-rdf-syntax-ns#"
   xmlns:svg="http://www.w3.org/2000/svg"
   xmlns="http://www.w3.org/2000/svg"
   xmlns:sodipodi="http://sodipodi.sourceforge.net/DTD/sodipodi-0.dtd"
   xmlns:inkscape="http://www.inkscape.org/namespaces/inkscape"
   width="32"
   height="32"
   version="1"
   id="svg18"
   sodipodi:docname="day-of-the-tentacle-remastered.svg"
   inkscape:version="0.92.1 r">
  <metadata
     id="metadata24">
    <rdf:RDF>
      <cc:Work
         rdf:about="">
        <dc:format>image/svg+xml</dc:format>
        <dc:type
           rdf:resource="http://purl.org/dc/dcmitype/StillImage" />
      </cc:Work>
    </rdf:RDF>
  </metadata>
  <defs
     id="defs22" />
  <sodipodi:namedview
     pagecolor="#ffffff"
     bordercolor="#666666"
     borderopacity="1"
     objecttolerance="10"
     gridtolerance="10"
     guidetolerance="10"
     inkscape:pageopacity="0"
     inkscape:pageshadow="2"
     inkscape:window-width="640"
     inkscape:window-height="480"
     id="namedview20"
     showgrid="false"
     inkscape:zoom="8.8125"
     inkscape:cx="-18.605275"
     inkscape:cy="17.515598"
     inkscape:current-layer="svg18" />
  <rect
     style="opacity:1;fill:#8e8e8e;fill-opacity:1;fill-rule:evenodd;stroke:none;stroke-width:1.03534329;stroke-linecap:round;stroke-linejoin:bevel;stroke-miterlimit:4;stroke-dasharray:none;stroke-dashoffset:0;stroke-opacity:1"
     id="rect4497-3-6"
     width="28.203388"
     height="28.203388"
     x="1.8983059"
     y="1.8983059"
     ry="5.575182" />
  <g
     id="g4545"
     transform="translate(46.638671,-2.836914)">
    <path
       id="path4525"
       d="M -16.537109,21.910156 V 10.310547 c 0,-3.0886509 -2.485568,-5.576172 -5.574219,-5.576172 h -8.365234 c 0.927192,0.00777 1.804533,0.1110027 2.623046,0.3183594 0.848381,0.2149231 1.639873,0.5304507 2.378907,0.9316406 0.739034,0.4011899 1.425271,0.8884654 2.0625,1.4472656 0.637228,0.5588002 1.226567,1.1891991 1.769531,1.8769532 1.085927,1.3755082 1.990024,2.9798332 2.74414,4.6992182 0.754117,1.719386 1.35721,3.552708 1.839844,5.386719 0.22531,0.856178 0.345697,1.671109 0.521485,2.515625 z"
       style="opacity:1;fill:#8e8e8e;fill-opacity:1;fill-rule:evenodd;stroke:none;stroke-width:1.03534329;stroke-linecap:round;stroke-linejoin:bevel;stroke-miterlimit:4;stroke-dasharray:none;stroke-dashoffset:0;stroke-opacity:1"
       inkscape:connector-curvature="0" />
    <path
       id="path4523"
       d="m -30.667969,4.734375 h -8.496093 c -3.088651,0 -5.576172,2.4875211 -5.576172,5.576172 v 12.246094 c 0.206211,-1.053041 0.371086,-2.085908 0.654296,-3.16211 0.482635,-1.834011 1.085728,-3.667333 1.839844,-5.386719 0.754117,-1.719385 1.660166,-3.32371 2.746094,-4.6992182 0.542964,-0.6877541 1.13035,-1.318153 1.767578,-1.8769532 0.637228,-0.5588002 1.323466,-1.0460757 2.0625,-1.4472656 0.739034,-0.4011899 1.530525,-0.7167175 2.378906,-0.9316406 0.818514,-0.2073567 1.695855,-0.3105898 2.623047,-0.3183594 z"
       style="opacity:1;fill:#8e8e8e;fill-opacity:1;fill-rule:evenodd;stroke:none;stroke-width:1.03534329;stroke-linecap:round;stroke-linejoin:bevel;stroke-miterlimit:4;stroke-dasharray:none;stroke-dashoffset:0;stroke-opacity:1"
       inkscape:connector-curvature="0" />
    <path
       id="rect4497-3"
       d="m -30.667969,4.734375 c -0.927192,0.00777 -1.804533,0.1110027 -2.623047,0.3183594 -0.848381,0.2149231 -1.639872,0.5304507 -2.378906,0.9316406 -0.739034,0.4011899 -1.425272,0.8884654 -2.0625,1.4472656 -0.637228,0.5588002 -1.224614,1.1891991 -1.767578,1.8769532 -1.085928,1.3755082 -1.991977,2.9798332 -2.746094,4.6992182 -0.754116,1.719386 -1.357209,3.552708 -1.839844,5.386719 -0.28321,1.076202 -0.448085,2.109069 -0.654296,3.16211 v 4.80664 c 0,3.088651 2.487521,5.576172 5.576172,5.576172 h 17.052734 c 3.088651,0 5.574219,-2.487521 5.574219,-5.576172 v -5.453125 c -0.175788,-0.844516 -0.296175,-1.659447 -0.521485,-2.515625 -0.482634,-1.834011 -1.085727,-3.667333 -1.839844,-5.386719 -0.754116,-1.719385 -1.658213,-3.32371 -2.74414,-4.6992182 -0.542964,-0.6877541 -1.132303,-1.318153 -1.769531,-1.8769532 -0.637229,-0.5588002 -1.323466,-1.0460757 -2.0625,-1.4472656 -0.739034,-0.4011899 -1.530526,-0.7167175 -2.378907,-0.9316406 -0.818513,-0.2073567 -1.695854,-0.3105898 -2.623046,-0.3183594 z"
       style="opacity:1;fill:#bb4499;fill-opacity:1;fill-rule:evenodd;stroke:none;stroke-width:1.03534329;stroke-linecap:round;stroke-linejoin:bevel;stroke-miterlimit:4;stroke-dasharray:none;stroke-dashoffset:0;stroke-opacity:1"
       inkscape:connector-curvature="0" />
    <path
       inkscape:connector-curvature="0"
       id="path10"
       d="m -21.74651,20.167707 c 0,4.874087 -3.951228,8.825316 -8.825316,8.825316 -4.874087,0 -8.825316,-3.951229 -8.825316,-8.825316 0,-3.269103 1.777472,-6.123054 4.418691,-7.648133 1.296722,-0.748745 2.703187,1.284139 4.308172,1.284139 1.66363,0 3.318199,-2.001003 4.646382,-1.200786 2.563116,1.544253 4.277387,4.354322 4.277387,7.56478 z"
       style="fill:#69e27d;stroke-width:1" />
    <circle
       id="circle12"
       r="5.5158224"
       cy="20.167707"
       cx="-30.571827"
       style="fill:#00a200;stroke-width:1" />
    <path
       inkscape:connector-curvature="0"
       id="path16"
       d="m -42.155053,12.997137 c 0,0 2.672997,-2.219396 4.633291,-2.206328 2.53509,0.0169 4.414791,3.309493 6.949936,3.309493 2.535146,0 4.414847,-3.292593 6.949937,-3.309493 1.960294,-0.01306 4.633291,2.206328 4.633291,2.206328 v 0"
       style="fill:none;stroke:#3f3f3f;stroke-width:3;stroke-linecap:round;stroke-linejoin:round" />
  </g>
</svg>
