<?xml version="1.0" encoding="UTF-8" standalone="no"?>
<svg
   xmlns:dc="http://purl.org/dc/elements/1.1/"
   xmlns:cc="http://creativecommons.org/ns#"
   xmlns:rdf="http://www.w3.org/1999/02/22-rdf-syntax-ns#"
   xmlns:svg="http://www.w3.org/2000/svg"
   xmlns="http://www.w3.org/2000/svg"
   xmlns:sodipodi="http://sodipodi.sourceforge.net/DTD/sodipodi-0.dtd"
   xmlns:inkscape="http://www.inkscape.org/namespaces/inkscape"
   height="32"
   width="32"
   version="1.1"
   viewBox="0 0 32 32"
   id="svg50"
   sodipodi:docname="desmume.svg"
   inkscape:version="0.92.1 r">
  <metadata
     id="metadata56">
    <rdf:RDF>
      <cc:Work
         rdf:about="">
        <dc:format>image/svg+xml</dc:format>
        <dc:type
           rdf:resource="http://purl.org/dc/dcmitype/StillImage" />
      </cc:Work>
    </rdf:RDF>
  </metadata>
  <defs
     id="defs54" />
  <sodipodi:namedview
     pagecolor="#ffffff"
     bordercolor="#666666"
     borderopacity="1"
     objecttolerance="10"
     gridtolerance="10"
     guidetolerance="10"
     inkscape:pageopacity="0"
     inkscape:pageshadow="2"
     inkscape:window-width="640"
     inkscape:window-height="480"
     id="namedview52"
     showgrid="false"
     showguides="true"
     inkscape:guide-bbox="true"
     inkscape:zoom="9.5"
     inkscape:cx="-4.9278956"
     inkscape:cy="15.924582"
     inkscape:current-layer="svg50">
    <sodipodi:guide
       position="-29.789474,13.789474"
       orientation="0,1"
       id="guide4539"
       inkscape:locked="false" />
  </sodipodi:namedview>
  <polygon
     style="display:none;fill:#5a0e00"
     points="693.5 560.5 693.5 540 732.5 497.5 664 430.5 588 333 517.5 214 500 192 386 355 328 328 304 332.5 299.5 366 318.5 403.5 338 431 309.5 462 275.5 507 300 533 304 551 318.5 569.5 340.5 583 351.5 604.5 373.5 617 395 637.5 452.5 723 488.5 788.5 502 812.5 551.5 721.5 612.5 637 628.5 616 668 619.5 707 615 713 603 688.5 578 676.5 569.5"
     transform="matrix(0.063142,0,0,0.063142,-155,-22.762145)"
     display="none"
     id="polygon4" />
  <g
     id="g4567"
     transform="translate(46.736328,-2.2109375)">
    <path
       id="path4544"
       d="m -44.837891,18.210938 v 8.52539 c 0,3.088651 2.485568,5.576172 5.574219,5.576172 h 17.052734 c 3.088651,0 5.576172,-2.487521 5.576172,-5.576172 v -8.52539 z"
       style="opacity:1;fill:#6469bb;fill-opacity:1;fill-rule:evenodd;stroke:none;stroke-width:1.03534329;stroke-linecap:round;stroke-linejoin:bevel;stroke-miterlimit:4;stroke-dasharray:none;stroke-dashoffset:0;stroke-opacity:1"
       inkscape:connector-curvature="0" />
    <path
       id="rect4497-3"
       d="m -44.837891,18.210938 h 28.203125 V 9.6835938 c 0,-3.0886509 -2.487521,-5.5742188 -5.576172,-5.5742188 h -17.052734 c -3.088651,0 -5.574219,2.4855679 -5.574219,5.5742188 z"
       style="opacity:1;fill:#9293ff;fill-opacity:1;fill-rule:evenodd;stroke:none;stroke-width:1.03534329;stroke-linecap:round;stroke-linejoin:bevel;stroke-miterlimit:4;stroke-dasharray:none;stroke-dashoffset:0;stroke-opacity:1"
       inkscape:connector-curvature="0" />
  </g>
  <g
     id="g4563"
     transform="translate(46.736842,-2.3157896)">
    <path
       inkscape:connector-curvature="0"
       id="path10"
       d="m -37.964912,7.4736841 h 14.45614 v 8.1315799 h -14.45614 m 0,-8.1315799"
       style="fill:#3e3e3e;stroke-width:1.13389349" />
    <path
       inkscape:connector-curvature="0"
       id="path12"
       d="m -36.157895,21.026316 h 10.842106 v 8.131579 h -10.842106 m 0,-8.131579"
       style="fill:#3e3e3e;stroke-width:1.06066012" />
    <g
       id="g20"
       transform="matrix(0.60233918,0,0,0.60233918,-48.517895,14.141579)"
       style="fill:#cccccc;stroke-width:1.10679615">
      <rect
         style="stroke-width:1.10679615"
         id="rect16"
         x="13.02"
         y="12.93"
         width="3"
         height="9"
         ry="0" />
      <rect
         style="stroke-width:1.10679615"
         id="rect18"
         x="15.93"
         y="-19.02"
         width="3"
         height="9"
         transform="rotate(90)"
         ry="0" />
    </g>
    <g
       id="g32"
       style="fill:#cccccc;stroke-width:1.10679615"
       transform="matrix(0.6023392,0,0,0.6023392,-39.147919,4.3307635)">
      <circle
         id="circle22"
         cy="33.717999"
         cx="31.964001"
         r="1.5"
         style="fill:#cccccc;stroke-width:1.10679615" />
      <g
         id="g28"
         style="fill:#cccccc;stroke-width:1.10679615"
         transform="translate(-4.5559803,16.287855)">
        <circle
           id="circle24"
           style="fill:#cccccc;stroke-width:1.10679615"
           cy="17.43"
           cx="30.52"
           r="1.5" />
        <circle
           id="circle26"
           style="fill:#cccccc;stroke-width:1.10679615"
           transform="rotate(90)"
           cy="-33.52"
           cx="14.43"
           r="1.5" />
      </g>
      <circle
         id="circle30"
         transform="rotate(90)"
         cy="-28.964001"
         cx="36.717999"
         r="1.5"
         style="fill:#cccccc;stroke-width:1.10679615" />
    </g>
    <rect
       id="rect36"
       y="14.701755"
       x="-42.482456"
       height="0.90350878"
       width="3.6140351"
       style="opacity:0.2;stroke-width:10;stroke-linecap:round;stroke-linejoin:round" />
    <rect
       id="rect38"
       style="opacity:0.2;stroke-width:10;stroke-linecap:round;stroke-linejoin:round"
       width="3.6140351"
       height="0.90350878"
       x="-42.482456"
       y="12.894737" />
    <rect
       id="rect40"
       y="11.08772"
       x="-42.482456"
       height="0.90350878"
       width="3.6140351"
       style="opacity:0.2;stroke-width:10;stroke-linecap:round;stroke-linejoin:round" />
    <rect
       id="rect42"
       style="opacity:0.2;stroke-width:10;stroke-linecap:round;stroke-linejoin:round"
       width="3.6140351"
       height="0.90350878"
       x="-22.605263"
       y="14.701755" />
    <rect
       id="rect44"
       y="12.894737"
       x="-22.605263"
       height="0.90350878"
       width="3.6140351"
       style="opacity:0.2;stroke-width:10;stroke-linecap:round;stroke-linejoin:round" />
    <rect
       id="rect46"
       style="opacity:0.2;stroke-width:10;stroke-linecap:round;stroke-linejoin:round"
       width="3.6140351"
       height="0.90350878"
       x="-22.605263"
       y="11.08772" />
  </g>
</svg>
