<?xml version="1.0" encoding="UTF-8" standalone="no"?>
<svg
   xmlns:dc="http://purl.org/dc/elements/1.1/"
   xmlns:cc="http://creativecommons.org/ns#"
   xmlns:rdf="http://www.w3.org/1999/02/22-rdf-syntax-ns#"
   xmlns:svg="http://www.w3.org/2000/svg"
   xmlns="http://www.w3.org/2000/svg"
   xmlns:sodipodi="http://sodipodi.sourceforge.net/DTD/sodipodi-0.dtd"
   xmlns:inkscape="http://www.inkscape.org/namespaces/inkscape"
   height="32"
   width="32"
   version="1"
   id="svg28"
   sodipodi:docname="desura.svg"
   inkscape:version="0.92.1 r">
  <metadata
     id="metadata34">
    <rdf:RDF>
      <cc:Work
         rdf:about="">
        <dc:format>image/svg+xml</dc:format>
        <dc:type
           rdf:resource="http://purl.org/dc/dcmitype/StillImage" />
      </cc:Work>
    </rdf:RDF>
  </metadata>
  <defs
     id="defs32" />
  <sodipodi:namedview
     pagecolor="#ffffff"
     bordercolor="#666666"
     borderopacity="1"
     objecttolerance="10"
     gridtolerance="10"
     guidetolerance="10"
     inkscape:pageopacity="0"
     inkscape:pageshadow="2"
     inkscape:window-width="640"
     inkscape:window-height="480"
     id="namedview30"
     showgrid="false"
     inkscape:zoom="8.8125"
     inkscape:cx="-5.5602837"
     inkscape:cy="16"
     inkscape:current-layer="svg28" />
  <rect
     style="opacity:1;fill:#8e8e8e;fill-opacity:1;fill-rule:evenodd;stroke:none;stroke-width:1.03534329;stroke-linecap:round;stroke-linejoin:bevel;stroke-miterlimit:4;stroke-dasharray:none;stroke-dashoffset:0;stroke-opacity:1"
     id="rect4497-3"
     width="28.203388"
     height="28.203388"
     x="1.8983059"
     y="1.8983059"
     ry="5.575182" />
  <g
     id="g4524"
     transform="matrix(0.70010061,0,0,0.70010061,36.099345,4.5598925)"
     style="stroke-width:1.42836618">
    <path
       style="fill:#ee3434;stroke-width:1.42836618"
       inkscape:connector-curvature="0"
       id="path2"
       d="m -29.65222,31.320426 c -0.856,-0.042 -2.107,-0.221 -2.931,-0.419 -2.3454,-0.566 -4.5994,-1.784 -5.987,-3.234 l -0.16604,-0.17359 -0.15512,0.08274 c -0.4248,0.227 -1.0306,0.265 -1.4478,0.092 -0.2687,-0.112 -0.5823,-0.427 -0.7356,-0.74 -0.327,-0.667 -0.4803,-1.908 -0.4806,-3.888 l -1e-4,-0.964 -0.1037,-0.024 c -0.282,-0.068 -0.7224,-0.468 -0.8803,-0.8 -0.3379,-0.71 -0.175,-1.698 0.5226,-3.171 0.2087,-0.441 0.6547,-1.254 0.9482,-1.728 l 0.1556,-0.251 -0.0866,-0.171 c -0.2847,-0.559 0.0075,-1.578 0.6841,-2.383 l 0.2713,-0.323 -0.362,-0.043 c -0.6413,-0.077 -1.0977,-0.377 -1.2524,-0.822 -0.1002,-0.288 -0.0643,-0.684 0.0866,-0.953 0.1625,-0.289 0.9503,-1.035 1.4015,-1.3266 0.7781,-0.5027005 1.751,-0.9162005 2.9027,-1.2336005 l 0.6544,-0.1804 0.012,-1.3408 c 0.0127,-1.4293 0.0546,-1.9109 0.2493,-2.8687 0.2492,-1.2258 0.812,-2.6158 1.1757,-2.9036 0.2838,-0.22472 0.7413,-0.27975 1.0583,-0.1273 0.26821,0.12894 0.41465,0.31262 0.63424,0.7959 0.23066,0.50766 1.4229,2.7719 1.9906,3.7806 l 0.3552,0.6311 0.68246,0.16586 c 0.37535,0.091222 1.0494,0.26873 1.4978,0.39447 0.44846,0.12574 0.82332,0.22861 0.83301,0.22861 0.0097,0 0.01766,-0.094708 0.01766,-0.21046 0,-0.41443 0.23622,-0.80184 0.60926,-0.99919 0.44072,-0.20694 0.92299,-0.10394 1.242,0.050357 0.18517,0.089886 0.50389,0.28398 0.70829,0.43131 0.20438,0.14734 0.37834,0.26789 0.38658,0.26789 0.05789,0 2.8618,-3.0844 3.4852,-3.8339 0.21925,-0.26359 0.45992,-0.55068 0.53483,-0.63799 0.4402,-0.5131 1.3081,-0.41514 1.628,0.18375 0.0997,0.18664 0.26315,0.97746 0.31577,1.5277 0.16516,1.7275 -0.16621,3.8131 -0.95944,6.0384005 -0.12778,0.35847 -0.24469,0.67969 -0.25981,0.71381 -0.02132,0.04821 0.06492,0.11573 0.38627,0.30246 0.47148,0.27396 1.2044,0.75742 1.6181,1.0674 0.44465,0.33312 1.2719,1.1455 1.5036,1.4764 0.55361,0.79099 0.74593,1.6277 0.48984,2.131 l -0.0866,0.17022 0.15564,0.25151 c 0.29344,0.47418 0.73945,1.2868 0.94814,1.7276 0.69754,1.4731 0.86044,2.4616 0.52264,3.1714 -0.15798,0.33195 -0.59831,0.73179 -0.88032,0.79939 l -0.1037,0.02486 -6.2e-4,1.0023 c -0.0015,1.9628 -0.15332,3.1824 -0.48009,3.8493 -0.15326,0.3128 -0.46697,0.62834 -0.73561,0.73989 -0.43879,0.18221 -1.1308,0.12241 -1.5135,-0.13079 l -0.1405,-0.09296 -0.52189,0.48586 c -0.92376,0.86002 -1.8032,1.4492 -3.0109,2.0172 -1.1155,0.52465 -2.1518,0.86256 -3.3521,1.093 -1.2992,0.24938 -2.6851,0.34551 -4.0346,0.27984 z" />
    <ellipse
       style="fill:#ffffff;stroke-width:1.42836618"
       id="ellipse8"
       cx="-28.709219"
       cy="17.340425"
       ry="6"
       rx="7" />
    <path
       style="fill:#272727;stroke-width:1.42836618"
       inkscape:connector-curvature="0"
       id="path10"
       d="m -28.70922,14.340426 a 2,2.5 0 0 0 -0.69,0.155 1.3333,1.25 0 0 1 0.69,1.095 1.3333,1.25 0 0 1 -1.333,1.25 1.3333,1.25 0 0 1 -0.661,-0.165 2,2.5 0 0 0 -0.006,0.165 2,2.5 0 0 0 2,2.5 2,2.5 0 0 0 2,-2.5 2,2.5 0 0 0 -2,-2.5 z" />
    <path
       style="fill:#ffffff;stroke-width:1.42836618"
       inkscape:connector-curvature="0"
       id="path12"
       d="m -28.70922,27.460426 c 0,0.807 -0.789,1.88 -1.669,1.88 -0.88,0 -1.331,-1.112 -1.331,-1.919 0,-0.80679 0.8268,-0.35551 1.7071,-0.35551 0.8803,0 1.2929,-0.41272 1.2929,0.39407 z" />
    <path
       style="fill:#791414;stroke-width:1.42836618"
       inkscape:connector-curvature="0"
       id="path14"
       d="m -30.88822,26.752426 c -1.704,-0.004 -3.373,-0.402 -4.821,-1.151 1.531,1.123 3.451,1.738 5.433,1.739 4.731,0 8.567,-1.777 8.567,-6 -1.1641,4.1708 -4.8228,5.2997 -9.1788,5.4117 z" />
    <path
       style="fill:#ffffff;stroke-width:1.42836618"
       inkscape:connector-curvature="0"
       id="path18"
       d="m -35.70922,8.9880255 0.0086,-1.0336 c 0.0092,-1.1017 0.0395,-1.473 0.1802,-2.2113 0.1802,-0.9449 0.5869,-2.0164 0.8502,-2.2383 0.20515,-0.1732 0.53582,-0.21562 0.76502,-0.098136 0.19385,0.099397 0.29969,0.24099 0.45841,0.61352 0.16671,0.39134 1.0284,2.1367 1.4387,2.9143 l 0.256,0.4865 c 0.504,1.6116 -3.6199,2.4378 -3.957,1.567 z" />
    <path
       style="fill:#ffffff;stroke-width:1.42836618"
       inkscape:connector-curvature="0"
       id="path22"
       d="m -21.63122,10.136526 0.309,-1.0059005 c 0.33,-1.0723 0.418,-1.4389 0.523,-2.1837 0.136,-0.9532 0.115,-2.0737 -0.042,-2.3406 -0.123,-0.2083 -0.394,-0.3141 -0.627,-0.2447 -0.196,0.0587 -0.331,0.1756 -0.581,0.5066 -0.263,0.3477 -1.537,1.8752 -2.127,2.5505 l -0.36932,0.42253 c -0.92567,1.4676 2.3585,3.0754005 2.9146,2.2952005 z" />
  </g>
</svg>
