<?xml version="1.0" encoding="UTF-8" standalone="no"?>
<svg
   xmlns:dc="http://purl.org/dc/elements/1.1/"
   xmlns:cc="http://creativecommons.org/ns#"
   xmlns:rdf="http://www.w3.org/1999/02/22-rdf-syntax-ns#"
   xmlns:svg="http://www.w3.org/2000/svg"
   xmlns="http://www.w3.org/2000/svg"
   xmlns:sodipodi="http://sodipodi.sourceforge.net/DTD/sodipodi-0.dtd"
   xmlns:inkscape="http://www.inkscape.org/namespaces/inkscape"
   height="32"
   width="32"
   version="1"
   id="svg12"
   sodipodi:docname="development_section.svg"
   inkscape:version="0.92.2 2405546, 2018-03-11">
  <metadata
     id="metadata18">
    <rdf:RDF>
      <cc:Work
         rdf:about="">
        <dc:format>image/svg+xml</dc:format>
        <dc:type
           rdf:resource="http://purl.org/dc/dcmitype/StillImage" />
        <dc:title></dc:title>
      </cc:Work>
    </rdf:RDF>
  </metadata>
  <defs
     id="defs16" />
  <sodipodi:namedview
     pagecolor="#ffffff"
     bordercolor="#666666"
     borderopacity="1"
     objecttolerance="10"
     gridtolerance="10"
     guidetolerance="10"
     inkscape:pageopacity="0"
     inkscape:pageshadow="2"
     inkscape:window-width="1680"
     inkscape:window-height="972"
     id="namedview14"
     showgrid="false"
     inkscape:zoom="7.375"
     inkscape:cx="14.01712"
     inkscape:cy="0.59978938"
     inkscape:window-x="0"
     inkscape:window-y="0"
     inkscape:window-maximized="1"
     inkscape:current-layer="svg12" />
  <rect
     style="opacity:1;fill:#69b155;fill-opacity:1;fill-rule:evenodd;stroke:none;stroke-width:1.03534329;stroke-linecap:round;stroke-linejoin:bevel;stroke-miterlimit:4;stroke-dasharray:none;stroke-dashoffset:0;stroke-opacity:1"
     id="rect4497"
     width="28.203388"
     height="28.203388"
     x="1.8983059"
     y="1.8983059"
     ry="5.575182" />
  <path
     style="fill:#ffffff;stroke-width:0.02087385"
     d="m 21.350074,25.922303 c -1.607641,-0.217519 -3.133844,-1.551876 -3.629896,-3.17361 -0.246985,-0.807455 -0.224409,-1.487933 0.07236,-2.181299 l 0.07204,-0.16832 -1.230448,-1.244844 c -0.676743,-0.684665 -1.920403,-1.934178 -2.763681,-2.776696 l -1.533236,-1.531852 -0.196004,0.08407 c -0.627514,0.269163 -1.143456,0.316402 -1.86172,0.17046 C 9.2920267,14.899569 8.2975314,14.221922 7.5741965,13.256831 7.0743645,12.589934 6.7810024,11.817883 6.7451967,11.075106 l -0.01166,-0.241957 0.1988689,-0.194024 0.1988723,-0.194022 0.3098555,0.308829 c 0.568495,0.566612 1.1017886,1.082912 1.1990399,1.160833 0.068402,0.05481 0.1438103,0.08961 0.2609222,0.120427 0.1505811,0.03962 0.2005515,0.04218 0.582193,0.02984 0.3886363,-0.01257 0.4304273,-0.01783 0.6049075,-0.07596 0.747597,-0.249128 1.617349,-1.131111 1.850948,-1.876973 0.0437,-0.1395201 0.04846,-0.1924392 0.04603,-0.5105102 -0.0029,-0.3786908 -0.03852,-0.6182019 -0.1139,-0.7659679 C 11.806953,8.7095402 11.612193,8.4952937 10.970722,7.8449654 10.640567,7.5102511 10.370439,7.2273227 10.370439,7.2162348 c 0,-0.011089 0.08689,-0.1028607 0.193083,-0.2039415 l 0.193084,-0.1837826 0.198301,0.00496 c 1.017917,0.025474 1.988724,0.4950591 2.840028,1.3737276 0.831727,0.8584606 1.240383,1.7497384 1.285366,2.8033797 0.01841,0.430856 -0.05096,0.775297 -0.246878,1.226098 l -0.08381,0.192842 2.750777,2.766025 c 1.512925,1.521314 2.752634,2.766025 2.754907,2.766025 0.0021,0 0.0734,-0.03153 0.158072,-0.07007 0.40589,-0.184757 0.815368,-0.284319 1.170474,-0.284594 0.754587,-5.97e-4 1.487985,0.227104 2.14978,0.66741 0.298792,0.198791 0.46776,0.337912 0.755323,0.621885 0.857343,0.84665 1.320485,1.791903 1.383101,2.822846 l 0.01367,0.225088 -0.194208,0.20075 -0.194209,0.200751 -0.705968,-0.70477 c -0.63976,-0.638674 -0.723134,-0.714559 -0.889018,-0.809141 l -0.183052,-0.104365 -0.454107,-0.0067 c -0.400916,-0.0059 -0.473655,-0.0018 -0.62102,0.03553 -0.361379,0.09139 -0.770753,0.359099 -1.194787,0.781342 -0.471,0.469008 -0.720471,0.877305 -0.786748,1.287628 -0.04419,0.273581 -0.01449,0.783689 0.05956,1.022818 0.0618,0.199584 0.22951,0.397309 0.936432,1.104043 l 0.613675,0.61351 -0.194542,0.195352 -0.19454,0.195353 -0.156967,-0.0021 c -0.08633,-0.0011 -0.255594,-0.01549 -0.376141,-0.0318 z M 6.7592587,25.873609 c 0,-0.0096 0.3753183,-1.171031 0.8340396,-2.580918 l 0.8340385,-2.56343 2.0621642,-2.062246 c 1.134195,-1.134235 2.071502,-2.062246 2.082906,-2.062246 0.01141,0 0.220451,0.199553 0.464548,0.443453 l 0.443812,0.443454 -1.612497,1.612597 -1.612498,1.612599 0.288704,0.287038 0.288704,0.287037 1.603096,-1.615053 c 0.881704,-0.888279 1.611875,-1.611557 1.622604,-1.607286 0.01074,0.0043 0.464456,0.456864 1.008283,1.00576 l 0.98878,0.997991 -2.071859,2.071941 -2.071863,2.07194 -0.870046,0.283712 c -0.955414,0.31155 -2.0400871,0.664062 -3.2914094,1.069687 -0.4477454,0.14514 -0.8540008,0.276842 -0.9027943,0.292673 -0.048798,0.01583 -0.088711,0.02091 -0.088711,0.01129 z m 12.2008193,-10.709075 -1.001783,-1.001945 0.5741,-0.579278 c 0.315754,-0.318603 0.648987,-0.656817 0.74052,-0.751588 l 0.166421,-0.172309 -0.281207,-0.281789 -0.281208,-0.281787 -0.741326,0.741113 c -0.407732,0.407611 -0.750757,0.741113 -0.76228,0.741113 -0.02725,0 -0.886847,-0.860129 -0.886847,-0.88739 0,-0.01141 0.533092,-0.55379 1.18465,-1.205271 l 1.184649,-1.184511 1.742872,1.742967 1.742874,1.742967 -1.189827,1.189826 -1.189826,1.189826 z m 2.812632,-4.305348 -1.737711,-1.7378062 1.148085,-1.1479427 1.148085,-1.1479443 1.742942,1.7428485 1.742943,1.7428487 -1.142761,1.142901 c -0.628517,0.628597 -1.147509,1.142902 -1.153315,1.142902 -0.0058,0 -0.792526,-0.782013 -1.748268,-1.737807 z"
     id="path881"
     inkscape:connector-curvature="0" />
</svg>
