<?xml version="1.0" encoding="UTF-8" standalone="no"?>
<svg
   xmlns:dc="http://purl.org/dc/elements/1.1/"
   xmlns:cc="http://creativecommons.org/ns#"
   xmlns:rdf="http://www.w3.org/1999/02/22-rdf-syntax-ns#"
   xmlns:svg="http://www.w3.org/2000/svg"
   xmlns="http://www.w3.org/2000/svg"
   xmlns:sodipodi="http://sodipodi.sourceforge.net/DTD/sodipodi-0.dtd"
   xmlns:inkscape="http://www.inkscape.org/namespaces/inkscape"
   height="32"
   width="32"
   version="1"
   id="svg16"
   sodipodi:docname="k3b.svg"
   inkscape:version="0.92.1 r">
  <metadata
     id="metadata22">
    <rdf:RDF>
      <cc:Work
         rdf:about="">
        <dc:format>image/svg+xml</dc:format>
        <dc:type
           rdf:resource="http://purl.org/dc/dcmitype/StillImage" />
      </cc:Work>
    </rdf:RDF>
  </metadata>
  <defs
     id="defs20" />
  <sodipodi:namedview
     pagecolor="#ffffff"
     bordercolor="#666666"
     borderopacity="1"
     objecttolerance="10"
     gridtolerance="10"
     guidetolerance="10"
     inkscape:pageopacity="0"
     inkscape:pageshadow="2"
     inkscape:window-width="1680"
     inkscape:window-height="963"
     id="namedview18"
     showgrid="false"
     inkscape:zoom="10.429825"
     inkscape:cx="-10.570195"
     inkscape:cy="25.122901"
     inkscape:window-x="0"
     inkscape:window-y="0"
     inkscape:window-maximized="1"
     inkscape:current-layer="svg16" />
  <path
     style="opacity:1;fill:#e63200;fill-opacity:1;fill-rule:evenodd;stroke:none;stroke-width:1.03534329;stroke-linecap:round;stroke-linejoin:bevel;stroke-miterlimit:4;stroke-dasharray:none;stroke-dashoffset:0;stroke-opacity:1"
     d="M 7.6777344 1.6953125 C 4.5890836 1.6953125 2.1015625 4.1808804 2.1015625 7.2695312 L 2.1015625 24.322266 C 2.1015625 25.503726 2.5477376 26.537712 3.1699219 27.4375 C 3.5641895 26.298173 3.8575026 24.975983 3.8574219 23.123047 C 3.8573375 21.187988 3.5619586 18.718896 2.8027344 15.410156 C 3.6403471 15.841605 4.4022256 16.380097 5.0859375 17.003906 C 5.7696494 17.627716 6.3749086 18.337846 6.8964844 19.111328 C 7.4180602 19.88481 7.8577799 20.721096 8.2089844 21.601562 C 8.5601889 22.482029 8.8234957 23.404846 8.9960938 24.349609 C 8.9960937 24.349609 9.3783908 24.162898 9.6328125 23.4375 C 9.7600234 23.074801 9.8557365 22.578254 9.8554688 21.902344 C 9.855201 21.226434 9.7590419 20.37195 9.5039062 19.294922 C 10.133095 20.691004 11.194141 22.010739 12.132812 23.017578 C 13.071484 24.024417 13.886325 24.717766 14.027344 24.861328 C 14.242698 24.196066 14.59749 23.688007 14.980469 23.261719 C 15.363448 22.835431 15.77447 22.491153 16.107422 22.15625 C 16.440374 21.821347 16.694493 21.494623 16.759766 21.103516 C 16.825038 20.712408 16.703263 20.257011 16.283203 19.662109 C 17.630376 19.971589 18.652171 20.397731 19.433594 20.867188 C 20.215016 21.336644 20.754973 21.849349 21.136719 22.333984 C 21.90021 23.303255 22.030187 24.15911 22.191406 24.320312 C 22.567001 22.335477 22.886795 21.796578 22.980469 21.25 C 23.074142 20.703422 22.942523 20.14913 22.417969 18.132812 C 23.488211 20.084557 24.215864 21.044051 24.671875 21.302734 C 24.899881 21.432076 25.059741 21.386909 25.160156 21.201172 C 25.260571 21.015435 25.302833 20.69041 25.292969 20.261719 C 25.27324 19.404336 25.050336 18.132783 24.693359 16.736328 C 24.336383 15.339874 23.844795 13.817517 23.289062 12.458984 C 24.817391 13.763065 26.014931 14.80066 26.925781 15.695312 C 27.836631 16.589965 28.461209 17.341242 28.84375 18.076172 C 29.226291 18.811102 29.367144 19.528603 29.310547 20.353516 C 29.25395 21.178428 28.998362 22.11079 28.591797 23.275391 C 29.60796 22.059319 29.830026 21.755651 30.304688 21.101562 L 30.304688 7.2695312 C 30.304688 4.1808804 27.81912 1.6953125 24.730469 1.6953125 L 7.6777344 1.6953125 z "
     id="rect4497" />
  <text
     xml:space="preserve"
     style="font-style:normal;font-weight:normal;font-size:40px;line-height:1.25;font-family:sans-serif;letter-spacing:0px;word-spacing:0px;fill:#000000;fill-opacity:1;stroke:none"
     x="-171.04793"
     y="-91.10849"
     id="text4512"><tspan
       sodipodi:role="line"
       id="tspan4510"
       x="-171.04793"
       y="-55.717865"
       style="font-style:normal;font-variant:normal;font-weight:normal;font-stretch:normal;font-family:Utopia;-inkscape-font-specification:Utopia" /></text>
  <g
     id="g4652"
     transform="translate(38.166591,1.9280516)">
    <text
       transform="scale(1.0010502,0.99895091)"
       id="text4522"
       y="25.977591"
       x="19.676229"
       style="font-style:normal;font-weight:normal;font-size:11.68568802px;line-height:1.25;font-family:sans-serif;letter-spacing:0px;word-spacing:0px;fill:#ffffff;fill-opacity:1;stroke:#ffffff;stroke-width:0.40000001;stroke-linecap:round;stroke-miterlimit:4;stroke-dasharray:none;stroke-opacity:1"
       xml:space="preserve"><tspan
         style="fill:#ffffff;stroke:#ffffff;stroke-width:0.40000001;stroke-linecap:round;stroke-miterlimit:4;stroke-dasharray:none;stroke-opacity:1"
         y="25.977591"
         x="19.676229"
         id="tspan4520"
         sodipodi:role="line">B</tspan></text>
    <path
       inkscape:connector-curvature="0"
       id="path4524"
       d="m 8.0142103,18.070635 v 7.140878"
       style="fill:#ffffff;stroke:#ffffff;stroke-width:1.70000005;stroke-linecap:round;stroke-linejoin:miter;stroke-miterlimit:4;stroke-dasharray:none;stroke-opacity:1" />
    <path
       inkscape:connector-curvature="0"
       id="path4524-2"
       d="m 16.392021,18.070635 v 7.140878"
       style="fill:#ffffff;stroke:#ffffff;stroke-width:1.70000005;stroke-linecap:round;stroke-linejoin:miter;stroke-miterlimit:4;stroke-dasharray:none;stroke-opacity:1" />
    <path
       inkscape:connector-curvature="0"
       id="path4524-2-8"
       d="m 12.264603,18.070635 v 7.140878"
       style="fill:#ffffff;stroke:#ffffff;stroke-width:1.70000005;stroke-linecap:round;stroke-linejoin:miter;stroke-miterlimit:4;stroke-dasharray:none;stroke-opacity:1" />
    <path
       inkscape:connector-curvature="0"
       id="path4524-2-0"
       d="M 16.49587,6.9199486 12.271823,11.151579"
       style="fill:#ffffff;stroke:#ffffff;stroke-width:1.70000005;stroke-linecap:round;stroke-linejoin:miter;stroke-miterlimit:4;stroke-dasharray:none;stroke-opacity:1" />
    <path
       inkscape:connector-curvature="0"
       id="path4524-2-0-3-7"
       d="M 16.512054,13.459284 8.3454182,13.320176"
       style="fill:#ffffff;stroke:#ffffff;stroke-width:1.70000005;stroke-linecap:round;stroke-linejoin:miter;stroke-miterlimit:4;stroke-dasharray:none;stroke-opacity:1" />
    <path
       inkscape:connector-curvature="0"
       id="path4524-2-0-0"
       d="M 8.1244818,7.3447444 14.013719,13.244552"
       style="fill:#ffffff;stroke:#ffffff;stroke-width:1.70000005;stroke-linecap:round;stroke-linejoin:miter;stroke-miterlimit:4;stroke-dasharray:none;stroke-opacity:1" />
    <rect
       ry="1.2327229"
       y="6.5991111"
       x="19.308056"
       height="8.0579605"
       width="8.5166712"
       id="rect4616"
       style="opacity:1;fill:#ffffff;fill-opacity:1;fill-rule:evenodd;stroke:none;stroke-width:10;stroke-linecap:round;stroke-linejoin:bevel;stroke-miterlimit:4;stroke-dasharray:none;stroke-dashoffset:0;stroke-opacity:1" />
  </g>
  <path
     style="opacity:1;fill:#858585;fill-opacity:1;stroke-width:0.74818403"
     d="M 16,10.38862 A 5.6113801,5.6113801 0 0 0 10.38862,16 5.6113801,5.6113801 0 0 0 16,21.61138 5.6113801,5.6113801 0 0 0 21.61138,16 5.6113801,5.6113801 0 0 0 16,10.38862 Z m 0,3.366828 c 1.239666,0 2.244552,1.004886 2.244552,2.244552 0,1.239666 -1.004886,2.244552 -2.244552,2.244552 -1.239666,0 -2.244552,-1.004886 -2.244552,-2.244552 0,-1.239666 1.004886,-2.244552 2.244552,-2.244552 z"
     id="path4-36"
     inkscape:connector-curvature="0" />
  <path
     d="M 16,5.5254241 C 10.197085,5.5254241 5.5254238,10.197085 5.5254238,16 5.5254238,21.802915 10.197085,26.474576 16,26.474576 21.802915,26.474576 26.474576,21.802915 26.474576,16 26.474576,10.197085 21.802915,5.5254241 16,5.5254241 Z m 0,5.9854719 A 4.4891041,4.4891041 0 0 1 20.489104,16 4.4891041,4.4891041 0 0 1 16,20.489104 4.4891041,4.4891041 0 0 1 11.510896,16 4.4891041,4.4891041 0 0 1 16,11.510896 Z"
     style="fill:#e6e6e6;stroke-width:0.74818403"
     id="path6-7"
     inkscape:connector-curvature="0" />
  <path
     style="opacity:1;fill:#ffffff;fill-opacity:1;stroke-width:0.40468118"
     d="m 16,12.964891 c -1.676244,0 -3.035109,1.358865 -3.035109,3.035109 0,1.676244 1.358865,3.035109 3.035109,3.035109 1.676244,0 3.035109,-1.358865 3.035109,-3.035109 0,-1.676244 -1.358865,-3.035109 -3.035109,-3.035109 z"
     id="path4-3"
     inkscape:connector-curvature="0"
     sodipodi:nodetypes="sssss" />
  <path
     style="opacity:1;fill:#ffb700;fill-opacity:1;fill-rule:evenodd;stroke:none;stroke-width:1.03534329;stroke-linecap:round;stroke-linejoin:bevel;stroke-miterlimit:4;stroke-dasharray:none;stroke-dashoffset:0;stroke-opacity:1"
     d="M 30.304688 21.101562 C 29.830026 21.755651 29.60796 22.059319 28.591797 23.275391 C 28.998362 22.11079 29.25395 21.178428 29.310547 20.353516 C 29.367144 19.528603 29.226291 18.811102 28.84375 18.076172 C 28.461209 17.341242 27.836631 16.589965 26.925781 15.695312 C 26.014931 14.80066 24.817391 13.763065 23.289062 12.458984 C 23.844795 13.817517 24.336383 15.339874 24.693359 16.736328 C 25.050336 18.132783 25.27324 19.404336 25.292969 20.261719 C 25.302833 20.69041 25.260571 21.015435 25.160156 21.201172 C 25.059741 21.386909 24.899881 21.432076 24.671875 21.302734 C 24.215864 21.044051 23.488211 20.084557 22.417969 18.132812 C 22.942523 20.14913 23.074142 20.703422 22.980469 21.25 C 22.886795 21.796578 22.567001 22.335477 22.191406 24.320312 C 22.030187 24.15911 21.90021 23.303255 21.136719 22.333984 C 20.754973 21.849349 20.215016 21.336644 19.433594 20.867188 C 18.652171 20.397731 17.630376 19.971589 16.283203 19.662109 C 16.703263 20.257011 16.825038 20.712408 16.759766 21.103516 C 16.694493 21.494623 16.440374 21.821347 16.107422 22.15625 C 15.77447 22.491153 15.363448 22.835431 14.980469 23.261719 C 14.59749 23.688007 14.242698 24.196066 14.027344 24.861328 C 13.886325 24.717766 13.071484 24.024417 12.132812 23.017578 C 11.194141 22.010739 10.133095 20.691004 9.5039062 19.294922 C 9.7590419 20.37195 9.855201 21.226434 9.8554688 21.902344 C 9.8557365 22.578254 9.7600234 23.074801 9.6328125 23.4375 C 9.3783908 24.162898 8.9960937 24.349609 8.9960938 24.349609 C 8.8234957 23.404846 8.5601889 22.482029 8.2089844 21.601562 C 7.8577799 20.721096 7.4180602 19.88481 6.8964844 19.111328 C 6.3749086 18.337846 5.7696494 17.627716 5.0859375 17.003906 C 4.4022256 16.380097 3.6403471 15.841605 2.8027344 15.410156 C 3.5619586 18.718896 3.8573375 21.187988 3.8574219 23.123047 C 3.8575026 24.975983 3.5641895 26.298173 3.1699219 27.4375 C 4.1742919 28.889996 5.7705442 29.898438 7.6777344 29.898438 L 24.730469 29.898438 C 27.81912 29.898438 30.304688 27.410916 30.304688 24.322266 L 30.304688 21.101562 z "
     id="path4547" />
</svg>
