<?xml version="1.0" encoding="UTF-8" standalone="no"?>
<svg
   xmlns:dc="http://purl.org/dc/elements/1.1/"
   xmlns:cc="http://creativecommons.org/ns#"
   xmlns:rdf="http://www.w3.org/1999/02/22-rdf-syntax-ns#"
   xmlns:svg="http://www.w3.org/2000/svg"
   xmlns="http://www.w3.org/2000/svg"
   xmlns:sodipodi="http://sodipodi.sourceforge.net/DTD/sodipodi-0.dtd"
   xmlns:inkscape="http://www.inkscape.org/namespaces/inkscape"
   version="1.1"
   x="0"
   y="0"
   viewBox="0 0 32 32"
   xml:space="preserve"
   width="32"
   height="32"
   id="svg12"
   sodipodi:docname="org.DolphinEmu.dolphin-emu.svg"
   inkscape:version="0.92.1 r"><metadata
     id="metadata18"><rdf:RDF><cc:Work
         rdf:about=""><dc:format>image/svg+xml</dc:format><dc:type
           rdf:resource="http://purl.org/dc/dcmitype/StillImage" /></cc:Work></rdf:RDF></metadata><defs
     id="defs16" /><sodipodi:namedview
     pagecolor="#ffffff"
     bordercolor="#666666"
     borderopacity="1"
     objecttolerance="10"
     gridtolerance="10"
     guidetolerance="10"
     inkscape:pageopacity="0"
     inkscape:pageshadow="2"
     inkscape:window-width="640"
     inkscape:window-height="480"
     id="namedview14"
     showgrid="false"
     inkscape:zoom="8.9375"
     inkscape:cx="-5.3706294"
     inkscape:cy="16"
     inkscape:current-layer="svg12" /><rect
     style="opacity:1;fill:#0286c2;fill-opacity:1;fill-rule:evenodd;stroke:none;stroke-width:1.03534329;stroke-linecap:round;stroke-linejoin:bevel;stroke-miterlimit:4;stroke-dasharray:none;stroke-dashoffset:0;stroke-opacity:1"
     id="rect4497-3"
     width="28.203388"
     height="28.203388"
     x="1.8983059"
     y="1.8983059"
     ry="5.575182"
     inkscape:export-filename="/home/ramil/3.png"
     inkscape:export-xdpi="71"
     inkscape:export-ydpi="71" /><g
     id="g4503"
     transform="translate(43.860145,-0.35640896)"><path
       inkscape:connector-curvature="0"
       id="path4"
       style="fill:#f9f9f9;fill-opacity:1;stroke-width:1"
       d="m -16.378665,23.686813 c -0.227448,-1.140405 -0.646266,-1.927439 -1.611034,-2.366747 -0.0084,-4.71159 -1.378261,-9.942766 -5.757758,-12.3835474 0.34993,-0.1517069 1.481978,-0.3867203 1.830941,-0.4511336 0.26057,-0.047709 0.478461,-0.2101365 0.582409,-0.4340113 0.103949,-0.2238806 0.08045,-0.4802639 -0.06287,-0.6851941 -0.135915,-0.1943261 -1.110429,-0.6642762 -2.468842,-0.8291467 -1.526718,-0.068124 -2.349255,-0.068124 -4.342567,0.3328131 -1.05665,0.3612513 -1.569851,0.4113347 -2.164042,0.4692651 -0.505261,0.049277 -1.077999,0.1051641 -1.987898,0.3385691 -2.620601,0.6723265 -3.853397,1.7387987 -4.552717,2.4388158 -0.545918,0.546443 -0.847797,1.658282 -0.817545,2.110169 -0.129909,0.06559 -0.116706,0.07652 -0.260346,0.152324 -0.960426,0.506673 -1.292976,0.743421 -1.369677,1.146996 -0.05653,0.297819 0.04731,0.493206 0.292751,0.760194 0.396095,0.371193 0.621335,0.408097 1.243308,0.408097 0.982671,-0.15341 1.795917,-0.473062 2.796819,-0.78141 0.59387,-0.05782 1.106031,0.04575 2.002414,0.22238 1.160697,0.268725 2.402779,0.570793 3.433429,0.55903 0.199423,0.37637 0.530685,1.080065 1.064803,1.720974 1.393385,1.672026 3.019478,1.567994 3.186182,1.569172 0.301332,0.004 0.540733,0.01311 0.679545,-0.234432 0.138813,-0.247643 0.115213,-0.543308 -0.06404,-0.76807 -0.144949,-0.184481 -0.669504,-0.474663 -0.812394,-1.230853 -0.04077,-0.215435 -0.02257,-0.397106 -0.01925,-0.56904 1.854589,0.543882 4.717221,2.200633 5.093586,4.005267 l 0.01228,1.296332 c -0.0053,-2.27e-4 0.0053,1.16e-4 0,0 -0.08528,-0.0035 -0.267166,-0.0044 -0.396968,-0.0044 -0.337378,0 -0.702539,0.03418 -1.116295,0.100169 -1.343718,0.21435 -2.289808,1.006558 -2.380991,1.105639 0,0 -0.261105,0.208231 -0.109528,0.473257 0.150399,0.263152 0.44712,0.418497 0.770015,0.393168 l 0.01491,-9.8e-5 c 2.054314,0.286338 4.825724,1.579107 5.670125,3.228782 0.131839,0.263169 0.418476,0.429607 0.731072,0.429607 0.02006,0 0.04023,-5.69e-4 0.0604,-0.0023 0.335555,-0.02299 0.620046,-0.234677 0.713052,-0.530632 0.02371,-0.07649 0.230747,-1.019918 0.116714,-1.990162 z" /><circle
       id="circle8"
       r="0.82253677"
       cy="11.404129"
       cx="-35.262974"
       style="opacity:1;fill:#0286c2;fill-opacity:1;stroke-width:1" /></g></svg>