<?xml version="1.0" encoding="UTF-8" standalone="no"?>
<svg
   xmlns:dc="http://purl.org/dc/elements/1.1/"
   xmlns:cc="http://creativecommons.org/ns#"
   xmlns:rdf="http://www.w3.org/1999/02/22-rdf-syntax-ns#"
   xmlns:svg="http://www.w3.org/2000/svg"
   xmlns="http://www.w3.org/2000/svg"
   xmlns:sodipodi="http://sodipodi.sourceforge.net/DTD/sodipodi-0.dtd"
   xmlns:inkscape="http://www.inkscape.org/namespaces/inkscape"
   height="32"
   width="32"
   version="1"
   id="svg12"
   sodipodi:docname="drweb-gui.svg"
   inkscape:version="0.92.1 r">
  <metadata
     id="metadata18">
    <rdf:RDF>
      <cc:Work
         rdf:about="">
        <dc:format>image/svg+xml</dc:format>
        <dc:type
           rdf:resource="http://purl.org/dc/dcmitype/StillImage" />
      </cc:Work>
    </rdf:RDF>
  </metadata>
  <defs
     id="defs16" />
  <sodipodi:namedview
     pagecolor="#ffffff"
     bordercolor="#666666"
     borderopacity="1"
     objecttolerance="10"
     gridtolerance="10"
     guidetolerance="10"
     inkscape:pageopacity="0"
     inkscape:pageshadow="2"
     inkscape:window-width="640"
     inkscape:window-height="480"
     id="namedview14"
     showgrid="false"
     inkscape:zoom="9.5"
     inkscape:cx="-4"
     inkscape:cy="16"
     inkscape:current-layer="svg12" />
  <rect
     style="opacity:1;fill:#5db43e;fill-opacity:1;fill-rule:evenodd;stroke:none;stroke-width:1.03534329;stroke-linecap:round;stroke-linejoin:bevel;stroke-miterlimit:4;stroke-dasharray:none;stroke-dashoffset:0;stroke-opacity:1"
     id="rect4497"
     width="28.203388"
     height="28.203388"
     x="1.8983059"
     y="1.8983059"
     ry="5.575182" />
  <path
     d="m 10.5,9 2,2.5 1,-0.5 L 12,9.5000001 13.5,9 Z m 8,0 L 20,9.5000001 18.5,11 l 1,0.5 2,-2.5 z M 16,10 c -1.3021,0.0041 -3.0064,0.71494 -3,3.1992 l 3,-1.6992 3,1.6992 c 0.006,-2.484 -1.698,-3.195 -3,-3.199 z m -7.4999999,1 1,3 V 13 H 11.5 L 12,12 Z M 23.5,11 20,12 l 0.5,1 h 2 v 1 z m -7.5,1.5 -1.5,0.90039 0.19922,1.4004 0.5,-1.3008 h 1.6016 l 0.5,1.3008 0.199,-1.4 -1.5,-0.9 z m -5,1.5 -3.9999999,1.5 2,1 V 16 L 10.5,15.5 Z m 2.5,0 -2,0.80078 c 0.01252,1.6338 0.92841,3.1766 1.8496,3.9277 0.645,0.513 1.453,1.101 1.849,1.271 0.455,0.17 0.203,-0.842 0.301,-1 h 1 c 0.09836,0.15839 -0.15441,1.1704 0.30078,1 0.39668,-0.16979 1.2046,-0.75771 1.8496,-1.2715 0.922,-0.751 1.837,-2.293 1.85,-3.927 l -2,-0.801 -0.5,2 h -1.301 l -0.699,-2 -0.699,2 h -1.301 l -0.5,-2 z m 7.5,0 0.5,1.5 1.5,0.5 v 0.5 l 2,-1 z M 11,17 8.5000001,18 12.5,23 Z m 10,0 -1.5,6 4,-5 z"
     id="path6"
     inkscape:connector-curvature="0"
     style="fill:#ffffff" />
</svg>
