<?xml version="1.0" encoding="UTF-8" standalone="no"?>
<svg
   xmlns:dc="http://purl.org/dc/elements/1.1/"
   xmlns:cc="http://creativecommons.org/ns#"
   xmlns:rdf="http://www.w3.org/1999/02/22-rdf-syntax-ns#"
   xmlns:svg="http://www.w3.org/2000/svg"
   xmlns="http://www.w3.org/2000/svg"
   xmlns:sodipodi="http://sodipodi.sourceforge.net/DTD/sodipodi-0.dtd"
   xmlns:inkscape="http://www.inkscape.org/namespaces/inkscape"
   height="32"
   width="32"
   version="1"
   id="svg18"
   sodipodi:docname="eclipse.svg"
   inkscape:version="0.92.1 r">
  <metadata
     id="metadata24">
    <rdf:RDF>
      <cc:Work
         rdf:about="">
        <dc:format>image/svg+xml</dc:format>
        <dc:type
           rdf:resource="http://purl.org/dc/dcmitype/StillImage" />
      </cc:Work>
    </rdf:RDF>
  </metadata>
  <defs
     id="defs22" />
  <sodipodi:namedview
     pagecolor="#ffffff"
     bordercolor="#666666"
     borderopacity="1"
     objecttolerance="10"
     gridtolerance="10"
     guidetolerance="10"
     inkscape:pageopacity="0"
     inkscape:pageshadow="2"
     inkscape:window-width="640"
     inkscape:window-height="480"
     id="namedview20"
     showgrid="false"
     inkscape:zoom="8.9375"
     inkscape:cx="-26.517483"
     inkscape:cy="16"
     inkscape:current-layer="svg18" />
  <rect
     style="opacity:1;fill:#341376;fill-opacity:1;fill-rule:evenodd;stroke:none;stroke-width:1.03534329;stroke-linecap:round;stroke-linejoin:bevel;stroke-miterlimit:4;stroke-dasharray:none;stroke-dashoffset:0;stroke-opacity:1"
     id="rect4497-3"
     width="28"
     height="28"
     x="2"
     y="2"
     ry="5.534976" />
  <g
     id="g4520"
     transform="matrix(0.9927885,0,0,0.99278848,44.992201,-0.21785978)"
     style="stroke-width:1.0072639">
    <rect
       style="fill:#ffab30;stroke-width:1.0072639"
       id="rect2"
       x="-26.713287"
       y="20.307692"
       width="20.755245"
       height="20.755245"
       ry="10.377623"
       rx="10.377623"
       transform="matrix(0,-1,-1,0,0,0)" />
    <rect
       style="fill:#5e4095;stroke-width:1.0072639"
       id="rect8"
       x="-26.713287"
       y="17.342657"
       width="20.755245"
       height="20.755245"
       transform="matrix(0,-1,-1,0,0,0)"
       rx="10.377623"
       ry="10.377623" />
    <path
       style="opacity:0.8;fill:#ffffff;stroke-width:1.0072639"
       inkscape:connector-curvature="0"
       id="path12"
       d="m -37.408755,12.629371 c -0.182423,0.478853 -0.335197,0.97179 -0.445941,1.482517 h 20.268979 c -0.111188,-0.510727 -0.263888,-1.003664 -0.446237,-1.482517 h -19.376504 z m -0.651492,2.965034 c -0.01727,0.246098 -0.03766,0.490714 -0.03766,0.741259 0,0.250546 0.02038,0.495161 0.03766,0.741259 h 20.679637 c 0.01705,-0.246098 0.0378,-0.490713 0.0378,-0.741259 0,-0.250545 -0.02075,-0.495161 -0.0378,-0.741259 z m 0.205551,2.965035 c 0.110744,0.510728 0.263518,1.003665 0.445941,1.482518 h 19.376504 c 0.18235,-0.478853 0.335049,-0.97179 0.446238,-1.482518 h -20.268979 z" />
  </g>
</svg>
