<?xml version="1.0" encoding="UTF-8" standalone="no"?>
<svg
   xmlns:dc="http://purl.org/dc/elements/1.1/"
   xmlns:cc="http://creativecommons.org/ns#"
   xmlns:rdf="http://www.w3.org/1999/02/22-rdf-syntax-ns#"
   xmlns:svg="http://www.w3.org/2000/svg"
   xmlns="http://www.w3.org/2000/svg"
   xmlns:sodipodi="http://sodipodi.sourceforge.net/DTD/sodipodi-0.dtd"
   xmlns:inkscape="http://www.inkscape.org/namespaces/inkscape"
   height="32"
   width="32"
   version="1"
   id="svg12"
   sodipodi:docname="emacs-24.svg"
   inkscape:version="0.92.1 r">
  <metadata
     id="metadata18">
    <rdf:RDF>
      <cc:Work
         rdf:about="">
        <dc:format>image/svg+xml</dc:format>
        <dc:type
           rdf:resource="http://purl.org/dc/dcmitype/StillImage" />
      </cc:Work>
    </rdf:RDF>
  </metadata>
  <defs
     id="defs16" />
  <sodipodi:namedview
     pagecolor="#ffffff"
     bordercolor="#666666"
     borderopacity="1"
     objecttolerance="10"
     gridtolerance="10"
     guidetolerance="10"
     inkscape:pageopacity="0"
     inkscape:pageshadow="2"
     inkscape:window-width="1680"
     inkscape:window-height="963"
     id="namedview14"
     showgrid="false"
     inkscape:zoom="7.375"
     inkscape:cx="-8.6779661"
     inkscape:cy="16"
     inkscape:window-x="0"
     inkscape:window-y="0"
     inkscape:window-maximized="1"
     inkscape:current-layer="svg12" />
  <rect
     style="opacity:1;fill:#7572b8;fill-opacity:0.99215686;fill-rule:evenodd;stroke:none;stroke-width:1.03534329;stroke-linecap:round;stroke-linejoin:bevel;stroke-miterlimit:4;stroke-dasharray:none;stroke-dashoffset:0;stroke-opacity:1"
     id="rect4497-3"
     width="28.203388"
     height="28.203388"
     x="1.8983059"
     y="1.8983059"
     ry="5.575182" />
  <path
     style="fill:#ffffff;enable-background:new"
     d="m 10.537181,24.192571 c 0,0 1.073,0.31156 2.5013,0.48967 0.57842,0.07213 2.7792,0.32424 4.4666,0.31764 0,0 2.0551,0.0019 3.1895,-0.15882 1.187,-0.16861 1.8594,-0.3838 2.2337,-0.81323 0.0098,-0.10239 0.18064,-0.43615 -0.28076,-0.75801 -1.1796,-0.82288 -2.7045,-1.0481 -5.6665,-1.7516 -3.2754,-0.82349 -4.2542,-1.6121 -4.7433,-2.1827 -0.46362,-0.57196 0.08703,-1.7598 2.7263,-2.3425 1.3363,-0.32519 6.3132,-0.38494 6.3132,-0.38494 -1.4279,-1.1336 -4.1085,-3.1632 -4.6564,-3.5948 -0.48056,-0.378551 -1.255,-0.959471 -1.3382,-1.478601 -0.11229,-0.50534 0.68314,-0.74866 1.1043,-0.77673 1.3569,-0.09358 3.2099,0.06551 4.8569,0.39304 0.8279,0.16464 0.97325,0.14038 0.97325,0.14038 1.1791,0.05615 2.0962,-0.56149 2.0494,-1.8622997 -0.0094,-1.3195 -1.3286,-2.3776 -2.7887,-2.4238 -1.375,-0.043533 -4.7633,0.19652 -4.7633,0.19652 3.9492,0.81417 4.5948,1.0219 4.8008,1.4973 0.122,0.2809 -0.203,0.56 -1.291,0.5055 -1.185,-0.0594 -3.613,-0.3463 -3.613,-0.3463 -2.311,-0.3556 -3.921,-0.6925 -4.623,0.2246 -0.45854,0.59915 0.06552,1.3288997 0.27139,1.7592997 0.9171,1.6003 2.503,2.698201 3.5093,3.471901 0.37865,0.29113 1.5347,0.93582 1.5347,0.93582 -3.5935,-0.98261 -6.4571,-0.43048 -8.2726,0.52406 -2.0869,1.2353 -1.7299,3.3198 1.5815,5.2687 1.9559,1.1511 2.9297,1.704 6.132,2.0972 1.8718,0.29846 2.1507,0.42058 2.1365,0.57638 -0.02007,0.21936 -2.2155,0.30248 -2.8189,0.3441 -1.5352,0.10587 -5.5056,0.13234 -5.5254,0.13234 z"
     id="path10"
     inkscape:connector-curvature="0" />
</svg>
