<?xml version="1.0" encoding="UTF-8" standalone="no"?>
<svg
   xmlns:dc="http://purl.org/dc/elements/1.1/"
   xmlns:cc="http://creativecommons.org/ns#"
   xmlns:rdf="http://www.w3.org/1999/02/22-rdf-syntax-ns#"
   xmlns:svg="http://www.w3.org/2000/svg"
   xmlns="http://www.w3.org/2000/svg"
   xmlns:sodipodi="http://sodipodi.sourceforge.net/DTD/sodipodi-0.dtd"
   xmlns:inkscape="http://www.inkscape.org/namespaces/inkscape"
   width="32"
   height="32"
   version="1"
   id="svg22"
   sodipodi:docname="chrome-hihbikoooaenkpdooehgemieligjejcb-Default.svg"
   inkscape:version="0.92.1 r">
  <metadata
     id="metadata28">
    <rdf:RDF>
      <cc:Work
         rdf:about="">
        <dc:format>image/svg+xml</dc:format>
        <dc:type
           rdf:resource="http://purl.org/dc/dcmitype/StillImage" />
      </cc:Work>
    </rdf:RDF>
  </metadata>
  <defs
     id="defs26" />
  <sodipodi:namedview
     pagecolor="#ffffff"
     bordercolor="#666666"
     borderopacity="1"
     objecttolerance="10"
     gridtolerance="10"
     guidetolerance="10"
     inkscape:pageopacity="0"
     inkscape:pageshadow="2"
     inkscape:window-width="1680"
     inkscape:window-height="965"
     id="namedview24"
     showgrid="false"
     inkscape:zoom="7.375"
     inkscape:cx="-10.711864"
     inkscape:cy="16"
     inkscape:window-x="0"
     inkscape:window-y="0"
     inkscape:window-maximized="1"
     inkscape:current-layer="svg22" />
  <rect
     style="opacity:1;fill:#ff5a48;fill-opacity:1;fill-rule:evenodd;stroke:none;stroke-width:1.03534329;stroke-linecap:round;stroke-linejoin:bevel;stroke-miterlimit:4;stroke-dasharray:none;stroke-dashoffset:0;stroke-opacity:1"
     id="rect4497-3"
     width="28.203388"
     height="28.203388"
     x="1.8983059"
     y="1.8983059"
     ry="5.575182" />
  <g
     id="g4517"
     transform="translate(0,0.50008575)">
    <path
       id="path8"
       d="m 7.5,20.000001 v -9.249928 c 0,-2.8000003 2.9,-3.2500724 2.9,-3.2500724 h 11.9"
       style="fill:none;stroke:#ffffff;stroke-width:3"
       inkscape:connector-curvature="0" />
    <path
       id="path10"
       d="M 21.434867,3.9998715 A 0.44123194,0.44123194 0 0 0 21,4.44106 v 4.1177531 a 0.44123194,0.44123194 0 0 0 0.441187,0.4411875 h 4.117754 A 0.44123194,0.44123194 0 0 0 25.870874,8.2468789 L 21.753121,4.1291263 A 0.44123194,0.44123194 0 0 0 21.434867,3.9998715 Z"
       style="fill:#ffffff"
       inkscape:connector-curvature="0" />
    <rect
       id="rect12"
       ry="1.3329999"
       y="13"
       x="12"
       height="4"
       width="3"
       style="fill:#ffffff" />
    <path
       id="path14"
       d="m 24.5,11.000001 v 9.249755 c 0,2.8 -2.9,3.250072 -2.9,3.250072 H 9.7"
       style="fill:none;stroke:#ffffff;stroke-width:3"
       inkscape:connector-curvature="0" />
    <path
       id="path16"
       d="M 10.565133,26.999957 A 0.44123194,0.44123194 0 0 0 11,26.558769 V 22.441016 A 0.44123194,0.44123194 0 0 0 10.558813,21.999828 H 6.441059 A 0.44123194,0.44123194 0 0 0 6.129126,22.75295 l 4.117753,4.117752 a 0.44123194,0.44123194 0 0 0 0.318254,0.129255 z"
       style="fill:#ffffff"
       inkscape:connector-curvature="0" />
    <rect
       id="rect18"
       ry="1.3329999"
       y="13"
       x="17"
       height="4"
       width="3"
       style="fill:#ffffff" />
  </g>
</svg>
