<?xml version="1.0" encoding="UTF-8" standalone="no"?>
<svg
   xmlns:dc="http://purl.org/dc/elements/1.1/"
   xmlns:cc="http://creativecommons.org/ns#"
   xmlns:rdf="http://www.w3.org/1999/02/22-rdf-syntax-ns#"
   xmlns:svg="http://www.w3.org/2000/svg"
   xmlns="http://www.w3.org/2000/svg"
   xmlns:sodipodi="http://sodipodi.sourceforge.net/DTD/sodipodi-0.dtd"
   xmlns:inkscape="http://www.inkscape.org/namespaces/inkscape"
   height="32"
   width="32"
   version="1"
   id="svg32"
   sodipodi:docname="fceu.svg"
   inkscape:version="0.92.1 r">
  <metadata
     id="metadata38">
    <rdf:RDF>
      <cc:Work
         rdf:about="">
        <dc:format>image/svg+xml</dc:format>
        <dc:type
           rdf:resource="http://purl.org/dc/dcmitype/StillImage" />
      </cc:Work>
    </rdf:RDF>
  </metadata>
  <defs
     id="defs36" />
  <sodipodi:namedview
     pagecolor="#ffffff"
     bordercolor="#666666"
     borderopacity="1"
     objecttolerance="10"
     gridtolerance="10"
     guidetolerance="10"
     inkscape:pageopacity="0"
     inkscape:pageshadow="2"
     inkscape:window-width="640"
     inkscape:window-height="480"
     id="namedview34"
     showgrid="false"
     inkscape:zoom="8.8125"
     inkscape:cx="-17.370466"
     inkscape:cy="4.5570111"
     inkscape:current-layer="svg32" />
  <g
     id="g4537"
     transform="translate(49.248046,-3.6308595)">
    <path
       id="path4526"
       d="m -43.232422,33.441406 c 0.47482,0.130738 0.939544,0.291016 1.457031,0.291016 h 17.052735 c 3.088651,0 5.576172,-2.485568 5.576172,-5.574219 v -8.275391 z"
       style="opacity:1;fill:#8e8e8e;fill-opacity:1;fill-rule:evenodd;stroke:none;stroke-width:1.03534329;stroke-linecap:round;stroke-linejoin:bevel;stroke-miterlimit:4;stroke-dasharray:none;stroke-dashoffset:0;stroke-opacity:1"
       inkscape:connector-curvature="0" />
    <path
       id="path4524"
       d="m -22.791016,5.9179688 c -0.605608,-0.2243858 -1.246103,-0.3886719 -1.93164,-0.3886719 h -17.052735 c -3.08865,0 -5.574218,2.487521 -5.574218,5.5761721 v 8.636719 z"
       style="opacity:1;fill:#8e8e8e;fill-opacity:1;fill-rule:evenodd;stroke:none;stroke-width:1.03534329;stroke-linecap:round;stroke-linejoin:bevel;stroke-miterlimit:4;stroke-dasharray:none;stroke-dashoffset:0;stroke-opacity:1"
       inkscape:connector-curvature="0" />
    <path
       id="rect4497-3"
       d="M -22.791016,5.9179688 -47.349609,19.742188 v 8.416015 c 0,2.571163 1.758019,4.633627 4.117187,5.283203 l 24.085938,-13.558594 v -8.777343 c 0,-2.4031133 -1.521607,-4.4009287 -3.644532,-5.1875002 z"
       style="opacity:1;fill:#4f4f4f;fill-opacity:1;fill-rule:evenodd;stroke:none;stroke-width:1.03534329;stroke-linecap:round;stroke-linejoin:bevel;stroke-miterlimit:4;stroke-dasharray:none;stroke-dashoffset:0;stroke-opacity:1"
       inkscape:connector-curvature="0" />
    <path
       style="fill:#c6c6c6"
       inkscape:connector-curvature="0"
       id="path6"
       d="m -42.417003,21.16578 c -0.33584,0.1939 -0.45012,0.62037 -0.25622,0.95622 l 0.7,1.2124 -1.2124,0.7 c -0.33584,0.1939 -0.45012,0.62037 -0.25622,0.95622 l 0.7,1.2124 c 0.1939,0.33584 0.62037,0.45012 0.95622,0.25622 l 1.2124,-0.7 0.7,1.2124 c 0.1939,0.33585 0.62037,0.45012 0.95622,0.25622 l 1.2124,-0.7 c 0.33584,-0.1939 0.45012,-0.62037 0.25622,-0.95622 l -0.7,-1.2124 1.2124,-0.7 c 0.33584,-0.1939 0.45012,-0.62037 0.25622,-0.95622 l -0.7,-1.2124 c -0.1939,-0.33584 -0.62037,-0.45012 -0.95622,-0.25622 l -1.212,0.701 -0.6998,-1.212 c -0.1939,-0.336 -0.6203,-0.451 -0.9562,-0.257 l -1.2124,0.7 z" />
    <g
       id="g26"
       transform="matrix(0.86603,-0.5,0.5,0.86603,-54.306003,14.17378)">
      <circle
         style="fill:#ef5646"
         id="circle18"
         r="1.5"
         cx="24.5"
         cy="13.5" />
      <circle
         style="fill:#ef5646"
         id="circle20"
         r="1.5"
         cx="20.5"
         cy="13.5" />
      <circle
         style="fill:#eda836"
         id="circle22"
         r="1.5"
         cx="24.5"
         cy="17.5" />
      <circle
         style="fill:#eda836"
         id="circle24"
         r="1.5"
         cx="20.5"
         cy="17.5" />
    </g>
  </g>
</svg>
