<?xml version="1.0" encoding="UTF-8" standalone="no"?>
<svg
   xmlns:dc="http://purl.org/dc/elements/1.1/"
   xmlns:cc="http://creativecommons.org/ns#"
   xmlns:rdf="http://www.w3.org/1999/02/22-rdf-syntax-ns#"
   xmlns:svg="http://www.w3.org/2000/svg"
   xmlns="http://www.w3.org/2000/svg"
   xmlns:sodipodi="http://sodipodi.sourceforge.net/DTD/sodipodi-0.dtd"
   xmlns:inkscape="http://www.inkscape.org/namespaces/inkscape"
   width="32"
   version="1"
   height="32"
   id="svg12"
   sodipodi:docname="firefox.svg"
   inkscape:version="0.92.1 r">
  <metadata
     id="metadata18">
    <rdf:RDF>
      <cc:Work
         rdf:about="">
        <dc:format>image/svg+xml</dc:format>
        <dc:type
           rdf:resource="http://purl.org/dc/dcmitype/StillImage" />
      </cc:Work>
    </rdf:RDF>
  </metadata>
  <defs
     id="defs16">
    <linearGradient
       id="linearGradient4543">
      <stop
         style="stop-color:#ee5400;stop-opacity:1"
         offset="0"
         id="stop4539" />
      <stop
         style="stop-color:#f06201;stop-opacity:0;"
         offset="1"
         id="stop4541" />
    </linearGradient>
  </defs>
  <sodipodi:namedview
     pagecolor="#ffffff"
     bordercolor="#666666"
     borderopacity="1"
     objecttolerance="10"
     gridtolerance="10"
     guidetolerance="10"
     inkscape:pageopacity="0"
     inkscape:pageshadow="2"
     inkscape:window-width="1680"
     inkscape:window-height="955"
     id="namedview14"
     showgrid="false"
     inkscape:zoom="10.429825"
     inkscape:cx="24.37308"
     inkscape:cy="27.075846"
     inkscape:window-x="0"
     inkscape:window-y="0"
     inkscape:window-maximized="1"
     inkscape:current-layer="svg12"
     showguides="true"
     inkscape:guide-bbox="true" />
  <rect
     style="opacity:1;fill:#042c38;fill-opacity:1;fill-rule:evenodd;stroke:none;stroke-width:1.03534329;stroke-linecap:round;stroke-linejoin:bevel;stroke-miterlimit:4;stroke-dasharray:none;stroke-dashoffset:0;stroke-opacity:1"
     id="rect4497-3-9"
     width="28.203388"
     height="28.203388"
     x="1.8983059"
     y="1.8983059"
     ry="5.575182" />
  <path
     inkscape:connector-curvature="0"
     style="opacity:1;fill:#042c38;fill-opacity:1;fill-rule:evenodd;stroke:none;stroke-width:1.03534329;stroke-linecap:round;stroke-linejoin:bevel;stroke-miterlimit:4;stroke-dasharray:none;stroke-dashoffset:0;stroke-opacity:1"
     d="m 7.47265,1.8984375 c -3.08865,0 -5.57422,2.4875211 -5.57422,5.576172 v 5.3417965 c 0.206,-0.651855 0.42306,-1.283635 0.67969,-1.722656 0.38891,-0.742268 0.93113,-1.3758885 1.5586,-1.8886715 0.62746,-0.512784 1.34031,-0.904942 2.07031,-1.160157 0.73,-0.255214 1.4773,-0.37419 2.17383,-0.34375 0.69652,0.03044 1.34211,0.210508 1.86914,0.554688 0.626,-0.721577 1.31923,-1.206584 2.04882,-1.566406 0.7296,-0.359822 1.49554,-0.594458 2.26368,-0.81836 -0.79121,0.974248 -1.35105,1.915352 -1.68946,2.824219 -0.3384,0.908867 -0.45523,1.7853595 -0.35742,2.6269525 0.0978,0.841594 0.4103,1.649447 0.92774,2.421876 0.51743,0.772428 1.23968,1.509566 2.16015,2.210937 -1.1915,-0.217872 -3.32213,-0.296921 -5.16992,-0.201172 -0.25229,0.575887 -0.40354,1.161944 -0.46484,1.746093 -0.0613,0.58415 -0.0321,1.165585 0.0723,1.734376 0.20878,1.137581 0.72362,2.221835 1.44336,3.15625 0.71974,0.934414 1.64359,1.719446 2.67188,2.261718 1.02828,0.542272 2.1605,0.84158 3.29492,0.802735 0.95002,-0.04429 1.74873,-0.220262 2.42773,-0.50586 0.67901,-0.285596 1.23848,-0.681363 1.70703,-1.167968 0.46856,-0.486604 0.84735,-1.063629 1.16602,-1.710938 0.31867,-0.647309 0.57728,-1.365101 0.80664,-2.132812 0.45871,-1.535423 0.79882,-3.269708 1.26367,-5.044922 0.46486,-1.775214 1.05424,-3.590617 2.00977,-5.2832025 0.87904,0.6628975 1.59073,1.3865705 2.16406,2.1582025 0.47454,0.638671 0.80222,1.328704 1.10547,2.027344 V 7.4746095 c 0,-3.0886509 -2.48752,-5.576172 -5.57617,-5.576172 z"
     id="rect4497-3" />
  <path
     style="fill:#ffc607;fill-opacity:1;stroke:none;stroke-width:0.10000001;stroke-linecap:butt;stroke-linejoin:miter;stroke-miterlimit:4;stroke-dasharray:none;stroke-opacity:1"
     d="M 13.11098,22.356338 C 22.51346,28.206789 31.25093,11.565813 20.8852,3.5587715 32.56286,5.0788481 26.95117,17.639101 28.19989,25.818605 23.82684,25.623531 18.0525,29.773403 14.13782,27.56165 13.17564,27.018029 13.54594,23.217244 13.11098,22.356338 Z"
     id="path4560"
     inkscape:connector-curvature="0"
     sodipodi:nodetypes="cccsc" />
  <path
     style="fill:#d14b01;fill-opacity:1;stroke:none;stroke-width:0.10000001;stroke-linecap:butt;stroke-linejoin:miter;stroke-miterlimit:4;stroke-dasharray:none;stroke-opacity:1"
     d="m 11.36349,15.033935 c -0.95277,1.859739 -0.51657,2.161633 -0.21819,2.51636 1.01391,0.896472 2.66643,0.395452 5.66475,-1.281573 0.14374,1.146671 -0.80898,2.462848 -3.29217,3.708649 -0.81498,0.407298 -1.21499,1.037162 -0.4069,2.378967 L 16.8858,26.89739 11.62343,26.450089 7.28197,15.399108 Z"
     id="path4555"
     inkscape:connector-curvature="0"
     sodipodi:nodetypes="ccccccccc" />
  <path
     style="fill:#f78f04;fill-opacity:1;stroke:none;stroke-width:0.10000001;stroke-linecap:butt;stroke-linejoin:miter;stroke-miterlimit:4;stroke-dasharray:none;stroke-opacity:1"
     d="m 20.44134,7.0996765 c 4.57076,2.9577155 3.48092,7.2336575 4.83737,10.9399115 l 0.96747,-6.828142 C 24.40978,8.3008645 24.11928,7.5797885 20.44134,7.0996765 Z"
     id="path4562"
     inkscape:connector-curvature="0"
     sodipodi:nodetypes="cccc" />
  <path
     style="fill:#f78f04;fill-opacity:1;stroke:none;stroke-width:0.10000001;stroke-linecap:butt;stroke-linejoin:miter;stroke-miterlimit:4;stroke-dasharray:none;stroke-opacity:1"
     d="m 23.25073,14.206899 c 0.43002,3.955839 -0.0483,6.674478 0.707,6.828141 l 1.35819,-3.702452 C 24.9734,17.027063 24.17624,15.190354 23.25073,14.206899 Z"
     id="path4562-7"
     inkscape:connector-curvature="0"
     sodipodi:nodetypes="cccc" />
  <path
     style="fill:#dc4a04;fill-opacity:1;stroke:none;stroke-width:0.10000001;stroke-linecap:butt;stroke-linejoin:miter;stroke-miterlimit:4;stroke-dasharray:none;stroke-opacity:1"
     d="M 5.15071,5.1374837 C 3.599,7.1737585 3.11057,9.1524935 3.51936,10.978716 L 6.49262,8.7948315 C 5.80803,8.0799345 5.27667,7.0394485 5.15071,5.1374837 Z"
     id="path4514"
     inkscape:connector-curvature="0"
     sodipodi:nodetypes="cccc" />
  <path
     style="fill:#ffffff;fill-opacity:1;stroke:none;stroke-width:0.10000001;stroke-linecap:butt;stroke-linejoin:miter;stroke-miterlimit:4;stroke-dasharray:none;stroke-opacity:1"
     d="m 11.64974,11.952254 c 1.92792,-0.0021 3.93491,0.359388 5.63073,-0.710419 -0.88061,1.30066 -1.87682,2.214625 -3.73627,3.025863 z"
     id="path4549"
     inkscape:connector-curvature="0"
     sodipodi:nodetypes="cccc" />
  <path
     style="fill:#f25900;fill-opacity:1;stroke:none;stroke-width:0.10000001;stroke-linecap:butt;stroke-linejoin:miter;stroke-miterlimit:4;stroke-dasharray:none;stroke-opacity:1"
     d="m 11.86023,9.1368865 c 0.93956,0.587691 1.06136,1.4057365 5.34131,1.0524725 0.31421,0.332546 0.31705,0.684861 0.0789,1.052475 -1.46564,0.974797 -3.72003,1.038254 -5.48694,0.65433 z"
     id="path4547"
     inkscape:connector-curvature="0"
     sodipodi:nodetypes="ccccc" />
  <path
     style="fill:#656465;fill-opacity:1;stroke:none;stroke-width:0.10000001;stroke-linecap:butt;stroke-linejoin:miter;stroke-miterlimit:4;stroke-dasharray:none;stroke-opacity:1"
     d="m 17.20154,10.18936 c 0.32115,0.605362 0.004,0.897717 -0.19536,1.195391 1.11516,0.148883 1.30231,-1.4981125 0.19536,-1.195391 z"
     id="path4551"
     inkscape:connector-curvature="0"
     sodipodi:nodetypes="ccc" />
  <path
     inkscape:connector-curvature="0"
     style="opacity:1;fill:#ef5a00;fill-opacity:1;fill-rule:evenodd;stroke:none;stroke-width:1.03534329;stroke-linecap:round;stroke-linejoin:bevel;stroke-miterlimit:4;stroke-dasharray:none;stroke-dashoffset:0;stroke-opacity:1"
     d="m 30.10156,13.794922 c -0.30325,-0.69864 -0.63093,-1.388672 -1.10547,-2.027344 -0.57333,-0.771632 -1.28502,-1.495305 -2.16406,-2.1582025 -0.95553,1.6925855 -1.54491,3.5079885 -2.00977,5.2832025 -0.46485,1.775214 -0.80496,3.509499 -1.26367,5.044922 -0.22936,0.767711 -0.48797,1.485503 -0.80664,2.132812 -0.31867,0.647309 -0.69746,1.224334 -1.16602,1.710938 -0.46855,0.486605 -1.02802,0.882372 -1.70703,1.167968 -0.679,0.285598 -1.47771,0.461572 -2.42773,0.50586 -1.13442,0.03885 -2.26664,-0.260463 -3.29492,-0.802735 -1.02829,-0.542272 -1.95214,-1.327304 -2.67188,-2.261718 -0.71974,-0.934415 -1.23458,-2.018669 -1.44336,-3.15625 -0.10439,-0.568791 -0.13356,-1.150226 -0.0723,-1.734376 0.0613,-0.584149 0.21255,-1.170206 0.46484,-1.746093 1.84779,-0.09575 3.97842,-0.0167 5.16992,0.201172 -0.92047,-0.701371 -1.64272,-1.43851 -2.16015,-2.210937 -0.51744,-0.772429 -0.82993,-1.580282 -0.92774,-2.421875 -0.0978,-0.841593 0.019,-1.7180865 0.35742,-2.6269535 0.33841,-0.908867 0.89825,-1.849971 1.68946,-2.824219 -0.76814,0.223902 -1.53408,0.458538 -2.26368,0.81836 -0.72959,0.359822 -1.42282,0.844829 -2.04882,1.566406 -0.52703,-0.34418 -1.17262,-0.524247 -1.86914,-0.554688 -0.69653,-0.03044 -1.44383,0.08854 -2.17383,0.34375 -0.73,0.255215 -1.44285,0.647373 -2.07031,1.160157 -0.62747,0.512783 -1.16969,1.1464035 -1.5586,1.8886715 -0.25663,0.439022 -0.47369,1.070802 -0.67969,1.722657 v 11.710936 c 0,3.088651 2.48557,5.574219 5.57422,5.574219 h 17.05274 c 3.08865,0 5.57617,-2.485568 5.57617,-5.574219 z"
     id="path4619" />
</svg>
