<?xml version="1.0" encoding="UTF-8" standalone="no"?>
<svg
   xmlns:dc="http://purl.org/dc/elements/1.1/"
   xmlns:cc="http://creativecommons.org/ns#"
   xmlns:rdf="http://www.w3.org/1999/02/22-rdf-syntax-ns#"
   xmlns:svg="http://www.w3.org/2000/svg"
   xmlns="http://www.w3.org/2000/svg"
   xmlns:sodipodi="http://sodipodi.sourceforge.net/DTD/sodipodi-0.dtd"
   xmlns:inkscape="http://www.inkscape.org/namespaces/inkscape"
   height="32"
   width="32"
   version="1"
   id="svg27"
   sodipodi:docname="freeciv-client.svg"
   inkscape:version="0.92.1 r">
  <metadata
     id="metadata31">
    <rdf:RDF>
      <cc:Work
         rdf:about="">
        <dc:format>image/svg+xml</dc:format>
        <dc:type
           rdf:resource="http://purl.org/dc/dcmitype/StillImage" />
      </cc:Work>
    </rdf:RDF>
  </metadata>
  <sodipodi:namedview
     pagecolor="#ffffff"
     bordercolor="#666666"
     borderopacity="1"
     objecttolerance="10"
     gridtolerance="10"
     guidetolerance="10"
     inkscape:pageopacity="0"
     inkscape:pageshadow="2"
     inkscape:window-width="640"
     inkscape:window-height="480"
     id="namedview29"
     showgrid="false"
     inkscape:zoom="8.8125"
     inkscape:cx="-18.655074"
     inkscape:cy="17.665592"
     inkscape:current-layer="svg27" />
  <defs
     id="defs5">
    <clipPath
       id="clipPath4186"
       clipPathUnits="userSpaceOnUse">
      <circle
         cx="286"
         cy="26"
         r="10"
         style="fill:url(#linearGradient4190)"
         id="circle2" />
    </clipPath>
    <clipPath
       id="clipPath4186-3"
       clipPathUnits="userSpaceOnUse">
      <circle
         cx="286"
         cy="26"
         r="10"
         style="fill:url(#linearGradient4190)"
         id="circle2-6" />
    </clipPath>
    <clipPath
       id="clipPath4503"
       clipPathUnits="userSpaceOnUse">
      <circle
         cx="286"
         cy="26"
         r="10"
         style="fill:url(#linearGradient4190)"
         id="circle4501" />
    </clipPath>
  </defs>
  <rect
     style="opacity:1;fill:#cba606;fill-opacity:1;fill-rule:evenodd;stroke:none;stroke-width:1.03534329;stroke-linecap:round;stroke-linejoin:bevel;stroke-miterlimit:4;stroke-dasharray:none;stroke-dashoffset:0;stroke-opacity:1"
     id="rect4497-3"
     width="28.203388"
     height="28.203388"
     x="1.8983059"
     y="1.8983059"
     ry="5.575182" />
  <circle
     style="color:#000000;opacity:0;stroke-width:1.05676711"
     clip-path="url(#clipPath4186)"
     r="10"
     transform="matrix(1.3247951,0,0,1.3247951,-362.8914,-18.444674)"
     cy="26"
     cx="286"
     id="circle9" />
  <circle
     style="fill:#cba606;stroke-width:1.62026858;stroke-linecap:round;stroke-linejoin:round"
     cx="15.999995"
     cy="16"
     r="13.247952"
     id="circle11" />
  <circle
     style="color:#000000;opacity:0;stroke-width:1.05676711"
     clip-path="url(#clipPath4186)"
     r="10"
     transform="matrix(1.3247951,0,0,1.3247951,-362.8914,-18.444674)"
     cy="26"
     cx="286"
     id="circle15" />
  <circle
     r="11.355387"
     cy="16"
     cx="15.999995"
     style="fill:#e4d487;stroke-width:1.38880181;stroke-linecap:round;stroke-linejoin:round"
     id="circle17" />
  <path
     style="opacity:1;stroke-width:0.99999994;fill:#897f51;fill-opacity:1"
     d="m 14.92748,4.7055909 a 11.355387,11.355387 0 0 0 -4.109515,1.1920886 c 0.05735,0.181743 -0.0096,0.3867645 -0.218592,0.5677693 -0.141373,0.1225252 -0.257199,0.313352 -0.257199,0.4247483 0,0.3404913 0.307731,0.8632934 0.553575,0.9392609 0.326468,0.101063 0.216889,0.4494462 -0.203261,0.6419204 C 10.49831,8.5605119 10.259279,8.81715 10.161623,9.041418 10.063404,9.2662552 9.9191865,9.4876845 9.8408336,9.5336739 9.7630473,9.5802325 9.6988907,9.7556724 9.6988907,9.9243 c 0,0.235624 0.1078701,0.349746 0.4615973,0.49112 0.253225,0.101624 0.556414,0.175441 0.673942,0.164086 0.676213,-0.06359 0.723338,0.330442 0.13229,1.100337 -0.313976,0.408794 -0.465003,0.51156 -0.679052,0.459893 -0.199287,-0.04769 -0.3082983,0.0085 -0.399141,0.2061 -0.095392,0.209507 -0.2520901,0.280479 -0.6728079,0.309434 -0.4139029,0.02895 -0.5989964,0.112985 -0.753997,0.339526 -0.1135501,0.165221 -0.2770716,0.299216 -0.3639403,0.299216 -0.087095,0 -0.2916064,0.111275 -0.4546697,0.246411 -0.3318045,0.275368 -0.4613694,0.303189 -0.5777054,0.123201 -0.1537519,-0.238463 -0.4854995,-0.118099 -0.9791749,0.354856 -0.4366147,0.417878 -0.489474,0.529729 -0.4236128,0.892533 0.1171869,0.645554 0.467331,1.218433 0.8671541,1.418287 0.3488942,0.174305 0.3557075,0.193042 0.1441567,0.416743 -0.1216732,0.128884 -0.3304418,0.266852 -0.4635269,0.307164 -0.3843799,0.116956 -0.168003,0.263445 0.5178624,0.350881 0.7019901,0.08915 0.920127,0.343501 0.5921834,0.690407 -0.1828785,0.19361 -0.1726018,0.229947 0.1208777,0.413904 0.5734471,0.359966 1.02948,0.139671 0.491234,-0.237327 -0.3459419,-0.242437 -0.1040149,-0.34123 0.4036847,-0.165221 0.4048199,0.140239 0.4848743,0.13229 0.7239054,-0.07551 0.4911212,-0.425259 1.0248235,0.20383 0.5757184,0.678485 -0.2855885,0.302621 -0.1992873,0.667128 0.1708983,0.71766 0.1635182,0.02216 0.5030438,0.174305 0.7551348,0.33839 0.252088,0.163518 0.526888,0.29808 0.609783,0.29808 0.08289,0 0.316816,0.166357 0.520077,0.369617 0.412201,0.411634 0.641012,0.463867 0.757405,0.173737 0.13967,-0.34861 0.08345,-0.528593 -0.29297,-0.93909 -0.299214,-0.327035 -0.785793,-1.195722 -0.785793,-1.404094 0,-0.128315 0.494528,-0.0193 0.771599,0.169764 0.173169,0.118665 0.453648,0.271393 0.62341,0.340661 0.180551,0.07381 0.367915,0.303189 0.453648,0.554143 0.133426,0.394032 0.186229,0.428098 0.658613,0.428098 h 0.513263 l 0.07779,0.922626 c 0.09312,1.109989 0.182253,1.334825 0.563226,1.426237 0.280479,0.06757 0.579693,0.501907 0.579693,0.841433 0,0.09028 -0.201558,0.311706 -0.447971,0.491689 -0.305459,0.223133 -0.437182,0.412768 -0.416741,0.598428 0.02553,0.232218 -0.02726,0.268555 -0.355992,0.244141 -0.211779,-0.0159 -0.579693,0.05848 -0.815884,0.165221 -0.279911,0.126041 -0.5831,0.166356 -0.867553,0.115259 -0.327035,-0.05848 -0.43775,-0.03578 -0.43775,0.09197 0,0.09425 -0.114694,0.270258 -0.254361,0.391761 -0.345203,0.299215 -0.202693,0.457622 0.327603,0.362236 0.329307,-0.05905 0.457623,-0.03292 0.514399,0.109014 0.12094,0.301485 -0.18566,0.73299 -0.470112,0.662019 -0.180551,-0.04542 -0.266852,0.01646 -0.32306,0.229378 -0.0193,0.07553 -0.05507,0.139671 -0.09765,0.194178 a 11.355387,11.355387 0 0 0 1.79699,0.530864 c -0.05678,-0.108449 -0.121504,-0.207236 -0.184525,-0.251522 -0.292401,-0.206668 -0.09652,-0.743778 0.306028,-0.840299 0.410497,-0.0988 0.345771,-0.365076 -0.100494,-0.416175 -0.391193,-0.04428 -0.807368,-0.440589 -0.676781,-0.643283 0.088,-0.135696 0.462164,-0.115824 1.219001,0.06359 0.341797,0.08063 0.57515,-0.08176 1.367188,-0.948176 0.45819,-0.501907 0.810775,-0.710847 1.197426,-0.710847 0.14762,0 0.673942,-0.135697 1.170172,-0.301486 0.93682,-0.313976 1.303031,-0.302621 1.268398,0.03975 -0.07154,0.711983 0.38665,0.688136 1.133267,-0.05791 0.311137,-0.31057 0.595589,-0.535407 0.632494,-0.500204 0.142511,0.136832 -0.114115,0.802825 -0.413902,1.072515 -0.379838,0.341798 -0.398575,0.55755 -0.06415,0.728448 0.182821,0.09425 0.260605,0.284453 0.289562,0.711983 l 0.0386,0.583668 h 0.474655 c 0.166357,0 0.304325,0.02271 0.415607,0.06529 a 11.355387,11.355387 0 0 0 5.501686,-9.3716 c -0.173738,-0.371322 -0.161246,-0.595591 0,-0.848248 a 11.355387,11.355387 0 0 0 -0.0511,-0.636469 c -0.103334,-0.005 -0.20894,-0.0096 -0.330442,-0.0045 -0.572312,0.02385 -1.062297,-0.201558 -1.062297,-0.488849 0,-0.06075 -0.203262,-0.311137 -0.451377,-0.555846 -0.281613,-0.277072 -0.425826,-0.522347 -0.383812,-0.649528 0.0386,-0.115825 -0.04428,-0.302623 -0.190771,-0.429234 -0.142509,-0.12378 -0.25947,-0.322494 -0.25947,-0.441725 0,-0.190203 -0.120939,-0.214049 -0.995867,-0.193042 l -0.995868,0.02442 0.01704,0.981673 c 0.02952,1.719206 0.285588,2.165473 1.075355,1.877614 0.361669,-0.13229 1.250228,-0.03237 1.502886,0.168059 0.09141,0.07267 0.223701,0.336121 0.293536,0.585939 0.0704,0.24925 0.330442,0.681323 0.579126,0.958962 0.503042,0.563227 0.542218,0.782955 0.253792,1.443838 -0.251522,0.576853 -0.522915,0.510425 -0.468978,-0.115259 l 0.03975,-0.465571 -0.425827,0.07948 c -0.235624,0.04485 -0.530864,0.218592 -0.663154,0.390627 -0.188501,0.244708 -0.276505,0.280477 -0.417879,0.168627 -0.0988,-0.07835 -0.178847,-0.243574 -0.178847,-0.366212 0,-0.122636 -0.121505,-0.258902 -0.269123,-0.303756 -0.148188,-0.04486 -0.350881,-0.267987 -0.450241,-0.496798 -0.159543,-0.365643 -0.155569,-0.477494 0.03008,-0.92149 0.187931,-0.450241 0.189635,-0.524618 0.01646,-0.690975 -0.158975,-0.152162 -0.241302,-0.157273 -0.45024,-0.03179 -0.210076,0.125476 -0.309435,0.11639 -0.559254,-0.0511 -0.166356,-0.111854 -0.457622,-0.204397 -0.64612,-0.204397 -0.383245,0 -0.49907,-0.186228 -0.49907,-0.802826 0,-0.569473 -0.339526,-0.776142 -1.14803,-0.701764 -0.560956,0.05167 -0.684729,0.01477 -1.137241,-0.333848 -0.279911,-0.215184 -0.721635,-0.73299 -0.98281,-1.152004 -0.261174,-0.419013 -0.54222,-0.856764 -0.624546,-0.972588 -0.118099,-0.167493 -0.08915,-0.328171 0.141943,-0.78409 l 0.291833,-0.5734466 -0.616597,0.083466 c -1.09693,0.1481886 -1.318929,0.2901316 -0.847112,0.5433566 0.183957,0.09822 0.191906,0.148755 0.04996,0.31284 -0.09312,0.106739 -0.136833,0.276504 -0.09652,0.376999 0.04031,0.09993 -0.01079,0.336119 -0.112984,0.524051 -0.102769,0.188499 -0.188499,0.452512 -0.191906,0.588208 -0.01079,0.422989 -0.735262,0.759676 -1.54263,0.714823 -1.222975,-0.06757 -1.322335,-0.04825 -1.756678,0.354856 -0.542787,0.504179 -0.612624,0.738668 -0.359966,1.20651 0.244709,0.454216 0.67962,0.635333 1.432483,0.597862 0.673374,-0.0335 0.749455,0.02611 0.595589,0.471248 -0.131154,0.378134 -0.570609,0.523484 -0.868687,0.287291 -0.229379,-0.182254 -1.020282,-0.04144 -1.262718,0.225404 -0.101625,0.111289 -0.252659,0.404252 -0.334985,0.649529 -0.141942,0.423555 -0.183389,0.449673 -0.819291,0.510992 -0.634767,0.06188 -0.696086,0.04143 -1.152573,-0.379269 -0.509279,-0.468978 -0.5955789,-0.827809 -0.3503037,-1.445542 0.1090139,-0.273664 0.189635,-0.318519 0.4803327,-0.265148 0.575719,0.105043 0.802827,-0.09483 0.802827,-0.709711 0,-0.29808 -0.05791,-0.576855 -0.128884,-0.618869 -0.0704,-0.04201 -0.128316,-0.199854 -0.128316,-0.351449 0,-0.151594 -0.07267,-0.346908 -0.160678,-0.43264 -0.128884,-0.12491 -0.110145,-0.191907 0.09539,-0.337255 0.140807,-0.09936 0.372456,-0.166357 0.514398,-0.149323 0.141375,0.01703 0.532567,-0.04428 0.869255,-0.135698 0.486578,-0.131154 0.629656,-0.230514 0.695518,-0.486578 0.12491,-0.48601 0.4298,-0.876069 0.685297,-0.876069 0.403684,0 0.4122,-0.94931 0.01988,-2.3301247 -0.05792,-0.20383 -0.217461,-0.3332806 -0.499075,-0.403116 -0.228243,-0.056775 -0.476358,-0.2123464 -0.551304,-0.3462263 -0.07438,-0.13388 -0.211211,-0.2428917 -0.303756,-0.2428917 -0.09255,0 -0.273665,-0.1108284 -0.401413,-0.2461848 -0.128884,-0.1362647 -0.395168,-0.2461849 -0.597862,-0.2461849 -0.479765,0 -0.487713,-0.3303283 -0.01195,-0.5045198 0.502476,-0.1841844 1.284862,0.057231 1.473929,0.4546129 0.256063,0.5388699 0.540516,0.3140333 0.631928,-0.5000912 0.112984,-1.006939 0.46046,-1.296331 1.555687,-1.296331 h 0.787501 L 15.185814,5.0737894 C 15.078506,4.9661404 14.989366,4.8345881 14.92748,4.7055909 Z m 4.082261,0.3570703 c -0.02214,0.019986 -0.04372,0.036337 -0.0653,0.058764 -0.263446,0.2688957 -0.38722,0.30722 -0.794311,0.2451061 -0.710846,-0.1083867 -0.619435,0.1778253 0.167492,0.5234265 0.425259,0.186853 0.698925,0.39988 0.792039,0.6154053 0.448538,1.0399263 0.757404,1.5998037 0.912405,1.6565806 0.313409,0.1152567 0.500205,-0.1160523 0.570041,-0.707327 0.08006,-0.678371 0.309434,-0.8221869 0.721634,-0.45132 0.160112,0.1439296 0.383813,0.261685 0.496799,0.261685 0.352584,0 0.61319,0.1415449 0.61319,0.3327129 0,0.1007224 0.11923,0.3434436 0.265149,0.539835 0.215184,0.2889938 0.361102,0.3582625 0.763081,0.3582625 0.493392,0 0.796013,0.092552 1.413746,0.4337755 0.0096,0.00501 0.0193,0.00681 0.02895,0.011951 A 11.355387,11.355387 0 0 0 19.009741,5.0626612 Z M 4.6468796,15.951341 a 11.355387,11.355387 0 0 0 -0.00221,0.04883 11.355387,11.355387 0 0 0 0.2217709,2.181372 c 0.4114056,0.167491 0.5250731,0.101059 0.5677693,-0.281614 0.022082,-0.198158 0.1255299,-0.422426 0.2306807,-0.500211 C 5.8273317,17.279922 5.7980349,17.218603 5.4652653,16.991496 5.2498536,16.844444 5.0375646,16.587811 4.9939599,16.421455 4.9517178,16.260209 4.8088671,16.084199 4.6468826,15.951341 Z m 3.5741649,3.753525 c -0.1061725,-0.01079 -0.2340913,0.04598 -0.3760337,0.182253 -0.3002931,0.287291 -0.2549283,0.864712 0.085393,1.092956 0.3900003,0.261741 0.5404594,0.18566 0.5898556,-0.296943 0.060746,-0.595023 -0.066426,-0.953852 -0.2992149,-0.978266 z m 1.9270095,1.716933 c -0.115825,0.0039 -0.2435727,0.08687 -0.3713218,0.261742 -0.135696,0.185093 -0.1726011,0.424124 -0.1209394,0.786929 0.064151,0.446266 0.036342,0.541652 -0.1970165,0.66145 -0.3003502,0.153299 -0.3645081,0.609786 -0.1186648,0.844842 0.2441406,0.233921 0.4769262,0.172603 0.5609566,-0.14762 0.1192299,-0.456487 0.7874949,-0.509856 1.2439809,-0.09993 0.194747,0.174873 0.353721,0.263445 0.353721,0.196448 0,-0.06699 -0.202694,-0.31057 -0.450241,-0.539949 -0.378702,-0.352017 -0.449106,-0.501908 -0.449106,-0.954988 0,-0.639308 -0.19588,-1.016874 -0.451376,-1.008927 z m -3.16469,1.465981 a 11.355387,11.355387 0 0 0 0.2628205,0.331577 C 7.1687975,23.099558 7.0804526,22.984868 6.983364,22.88778 Z m 3.826708,1.743051 c -0.05735,0.01987 -0.08176,0.09197 -0.08176,0.218592 0,0.128316 -0.08176,0.262877 -0.181687,0.299214 -0.132858,0.04883 -0.163518,0.202694 -0.112419,0.570041 0.0096,0.0687 0.01247,0.123779 0.0159,0.181119 a 11.355387,11.355387 0 0 0 0.472383,0.242436 c -0.008,-0.196447 0.02781,-0.42753 0.130586,-0.717092 0.174307,-0.491689 0.180551,-0.614894 0.0386,-0.701195 -0.132858,-0.08063 -0.223701,-0.112985 -0.281613,-0.09312 z"
     id="path19"
     inkscape:connector-curvature="0" />
  <path
     style="fill:#cba606;stroke-width:3.00000024"
     d="m 29.225768,15.373458 c -0.69663,0.378814 -6.550985,3.465388 -13.225772,3.465388 -6.659445,0 -12.4969656,-3.069071 -13.216532,-3.459845 A 13.247951,13.247951 0 0 0 2.7520445,16 13.247951,13.247951 0 0 0 3.0366684,18.663266 c 2.576526,1.174422 7.4622246,3.014427 12.9633276,3.014427 5.511935,0 10.405867,-1.847793 12.978113,-3.021818 A 13.247951,13.247951 0 0 0 29.247947,16 13.247951,13.247951 0 0 0 29.225768,15.373458 Z"
     id="path23"
     inkscape:connector-curvature="0" />
</svg>
