<?xml version="1.0" encoding="UTF-8" standalone="no"?>
<svg
   xmlns:dc="http://purl.org/dc/elements/1.1/"
   xmlns:cc="http://creativecommons.org/ns#"
   xmlns:rdf="http://www.w3.org/1999/02/22-rdf-syntax-ns#"
   xmlns:svg="http://www.w3.org/2000/svg"
   xmlns="http://www.w3.org/2000/svg"
   xmlns:sodipodi="http://sodipodi.sourceforge.net/DTD/sodipodi-0.dtd"
   xmlns:inkscape="http://www.inkscape.org/namespaces/inkscape"
   height="32"
   width="32"
   version="1"
   id="svg18"
   sodipodi:docname="fusion-icon.svg"
   inkscape:version="0.92.1 r">
  <metadata
     id="metadata24">
    <rdf:RDF>
      <cc:Work
         rdf:about="">
        <dc:format>image/svg+xml</dc:format>
        <dc:type
           rdf:resource="http://purl.org/dc/dcmitype/StillImage" />
      </cc:Work>
    </rdf:RDF>
  </metadata>
  <defs
     id="defs22" />
  <sodipodi:namedview
     pagecolor="#ffffff"
     bordercolor="#666666"
     borderopacity="1"
     objecttolerance="10"
     gridtolerance="10"
     guidetolerance="10"
     inkscape:pageopacity="0"
     inkscape:pageshadow="2"
     inkscape:window-width="640"
     inkscape:window-height="480"
     id="namedview20"
     showgrid="false"
     inkscape:zoom="8.9375"
     inkscape:cx="-5.2587413"
     inkscape:cy="16"
     inkscape:current-layer="svg18" />
  <title
     id="title2">
  Fusion Icon
 </title>
  <rect
     style="opacity:1;fill:#4f4f4f;fill-opacity:1;fill-rule:evenodd;stroke:none;stroke-width:1.03534329;stroke-linecap:round;stroke-linejoin:bevel;stroke-miterlimit:4;stroke-dasharray:none;stroke-dashoffset:0;stroke-opacity:1"
     id="rect4497-3-3"
     width="28.203388"
     height="28.203388"
     x="1.8983059"
     y="1.8983059"
     ry="5.575182" />
  <g
     id="g4516"
     transform="matrix(1.0062687,0,0,1.0062687,-0.11465975,-0.10079972)"
     style="stroke-width:0.99377036">
    <path
       id="path8"
       d="m 25.161,29.993 c 5.6438,-9.9381 -1.3255,-15.663 -8.2163,-17.146 7.2931,4.7288 0.83358,14.035 -8.4696,17.161 4.0175,-0.01973 12.669,0.03359 16.686,-0.01483 z"
       inkscape:connector-curvature="0"
       style="fill:#ff6363;fill-rule:evenodd;stroke-width:0.99377036" />
    <path
       id="path10"
       d="M 8.2654,2.0074 C 0.017,11.531 8.201,17.6704 15.092,19.1544 7.7987,14.4254 13.735,5.5934 19.855,1.9934 15.838,2.0127 12.283,1.9594 8.265,2.0078 Z"
       inkscape:connector-curvature="0"
       style="fill:#ff6363;fill-rule:evenodd;stroke-width:0.99377036" />
    <path
       id="path12"
       d="M 18.397,18.398 A 3.3903649,2.0459392 45 0 1 13.6023,13.6033 3.3903649,2.0459392 45 1 1 18.397,18.398 Z"
       inkscape:connector-curvature="0"
       style="fill:#ff6363;stroke-width:0.99377036" />
  </g>
</svg>
