<?xml version="1.0" encoding="UTF-8" standalone="no"?>
<svg
   xmlns:dc="http://purl.org/dc/elements/1.1/"
   xmlns:cc="http://creativecommons.org/ns#"
   xmlns:rdf="http://www.w3.org/1999/02/22-rdf-syntax-ns#"
   xmlns:svg="http://www.w3.org/2000/svg"
   xmlns="http://www.w3.org/2000/svg"
   xmlns:sodipodi="http://sodipodi.sourceforge.net/DTD/sodipodi-0.dtd"
   xmlns:inkscape="http://www.inkscape.org/namespaces/inkscape"
   height="32"
   width="32"
   version="1"
   id="svg48"
   sodipodi:docname="geogebra.svg"
   inkscape:version="0.92.1 r">
  <metadata
     id="metadata54">
    <rdf:RDF>
      <cc:Work
         rdf:about="">
        <dc:format>image/svg+xml</dc:format>
        <dc:type
           rdf:resource="http://purl.org/dc/dcmitype/StillImage" />
      </cc:Work>
    </rdf:RDF>
  </metadata>
  <defs
     id="defs52" />
  <sodipodi:namedview
     pagecolor="#ffffff"
     bordercolor="#666666"
     borderopacity="1"
     objecttolerance="10"
     gridtolerance="10"
     guidetolerance="10"
     inkscape:pageopacity="0"
     inkscape:pageshadow="2"
     inkscape:window-width="640"
     inkscape:window-height="480"
     id="namedview50"
     showgrid="false"
     inkscape:zoom="8.8125"
     inkscape:cx="-4.5098812"
     inkscape:cy="9.886148"
     inkscape:current-layer="svg48" />
  <rect
     style="opacity:1;fill:#6e6e6e;fill-opacity:1;fill-rule:evenodd;stroke:none;stroke-width:1.03534329;stroke-linecap:round;stroke-linejoin:bevel;stroke-miterlimit:4;stroke-dasharray:none;stroke-dashoffset:0;stroke-opacity:1"
     id="rect4497-3"
     width="28.203388"
     height="28.203388"
     x="1.8983059"
     y="1.8983059"
     ry="5.575182" />
  <g
     id="g4548"
     transform="translate(53.400709,-2.0886509)">
    <ellipse
       id="ellipse4"
       transform="matrix(0.84250019,-0.53869605,0.43439329,0.9007233,0,0)"
       ry="7.3341036"
       rx="9.7411451"
       cy="-5.1423693"
       cx="-42.176689"
       style="opacity:1;fill:#ffffff;fill-opacity:1;stroke-width:1" />
    <rect
       id="rect14"
       transform="matrix(0,-1,-1,0,0,0)"
       rx="2.5677063"
       ry="2.5677063"
       height="5.1354127"
       width="5.1354127"
       y="35.566631"
       x="-13.320054"
       style="fill:#3e3e3e;fill-opacity:1;stroke-width:1" />
    <rect
       id="rect18"
       style="fill:#6666ff;fill-opacity:1;stroke-width:1"
       x="-12.586424"
       y="36.300262"
       width="3.6681519"
       height="3.6681519"
       ry="1.8340759"
       rx="1.8340759"
       transform="matrix(0,-1,-1,0,0,0)" />
    <rect
       id="rect20"
       style="fill:#3e3e3e;fill-opacity:1;stroke-width:1"
       x="-18.455467"
       y="26.763067"
       width="5.1354127"
       height="5.1354127"
       ry="2.5677063"
       rx="2.5677063"
       transform="matrix(0,-1,-1,0,0,0)" />
    <rect
       id="rect24"
       transform="matrix(0,-1,-1,0,0,0)"
       rx="1.8340759"
       ry="1.8340759"
       height="3.6681519"
       width="3.6681519"
       y="27.496698"
       x="-17.721836"
       style="fill:#6666ff;fill-opacity:1;stroke-width:1" />
    <rect
       id="rect26"
       transform="matrix(0,-1,-1,0,0,0)"
       rx="2.5677063"
       ry="2.5677063"
       height="5.1354127"
       width="5.1354127"
       y="42.902939"
       x="-19.922728"
       style="fill:#3e3e3e;fill-opacity:1;stroke-width:1" />
    <rect
       id="rect30"
       style="fill:#6666ff;fill-opacity:1;stroke-width:1"
       x="-19.189096"
       y="43.636566"
       width="3.6681519"
       height="3.6681519"
       ry="1.8340759"
       rx="1.8340759"
       transform="matrix(0,-1,-1,0,0,0)" />
    <rect
       id="rect34"
       style="fill:#3e3e3e;fill-opacity:1;stroke-width:1"
       x="-27.992661"
       y="40.702042"
       width="5.1354127"
       height="5.1354127"
       ry="2.5677063"
       rx="2.5677063"
       transform="matrix(0,-1,-1,0,0,0)" />
    <rect
       id="rect38"
       transform="matrix(0,-1,-1,0,0,0)"
       rx="1.8340759"
       ry="1.8340759"
       height="3.6681519"
       width="3.6681519"
       y="41.435677"
       x="-27.259031"
       style="fill:#6666ff;fill-opacity:1;stroke-width:1" />
    <rect
       id="rect42"
       transform="matrix(0,-1,-1,0,0,0)"
       rx="2.5677063"
       ry="2.5677063"
       height="5.1354127"
       width="5.1354127"
       y="31.16485"
       x="-26.5254"
       style="fill:#3e3e3e;fill-opacity:1;stroke-width:1" />
    <rect
       id="rect46"
       style="fill:#6666ff;fill-opacity:1;stroke-width:1"
       x="-25.791771"
       y="31.898481"
       width="3.6681519"
       height="3.6681519"
       ry="1.8340759"
       rx="1.8340759"
       transform="matrix(0,-1,-1,0,0,0)" />
  </g>
</svg>
