<?xml version="1.0" encoding="UTF-8" standalone="no"?>
<svg
   xmlns:dc="http://purl.org/dc/elements/1.1/"
   xmlns:cc="http://creativecommons.org/ns#"
   xmlns:rdf="http://www.w3.org/1999/02/22-rdf-syntax-ns#"
   xmlns:svg="http://www.w3.org/2000/svg"
   xmlns="http://www.w3.org/2000/svg"
   xmlns:sodipodi="http://sodipodi.sourceforge.net/DTD/sodipodi-0.dtd"
   xmlns:inkscape="http://www.inkscape.org/namespaces/inkscape"
   height="32"
   width="32"
   version="1"
   id="svg28"
   sodipodi:docname="gerbview.svg"
   inkscape:version="0.92.1 r">
  <metadata
     id="metadata34">
    <rdf:RDF>
      <cc:Work
         rdf:about="">
        <dc:format>image/svg+xml</dc:format>
        <dc:type
           rdf:resource="http://purl.org/dc/dcmitype/StillImage" />
      </cc:Work>
    </rdf:RDF>
  </metadata>
  <defs
     id="defs32">
    <marker
       inkscape:stockid="Arrow1Lstart"
       orient="auto"
       refY="0.0"
       refX="0.0"
       id="Arrow1Lstart"
       style="overflow:visible"
       inkscape:isstock="true">
      <path
         id="path4517"
         d="M 0.0,0.0 L 5.0,-5.0 L -12.5,0.0 L 5.0,5.0 L 0.0,0.0 z "
         style="fill-rule:evenodd;stroke:#000000;stroke-width:1.0pt"
         transform="scale(0.8) translate(12.5,0)" />
    </marker>
  </defs>
  <sodipodi:namedview
     pagecolor="#ffffff"
     bordercolor="#666666"
     borderopacity="1"
     objecttolerance="10"
     gridtolerance="10"
     guidetolerance="10"
     inkscape:pageopacity="0"
     inkscape:pageshadow="2"
     inkscape:window-width="1680"
     inkscape:window-height="963"
     id="namedview30"
     showgrid="false"
     inkscape:zoom="20.85965"
     inkscape:cx="6.1912608"
     inkscape:cy="10.164431"
     inkscape:window-x="0"
     inkscape:window-y="0"
     inkscape:window-maximized="1"
     inkscape:current-layer="svg28" />
  <polygon
     points="713 603 688.5 578 676.5 569.5 693.5 560.5 693.5 540 732.5 497.5 664 430.5 588 333 517.5 214 500 192 386 355 328 328 304 332.5 299.5 366 318.5 403.5 338 431 309.5 462 275.5 507 300 533 304 551 318.5 569.5 340.5 583 351.5 604.5 373.5 617 395 637.5 452.5 723 488.5 788.5 502 812.5 551.5 721.5 612.5 637 628.5 616 668 619.5 707 615"
     fill="#5a0e00"
     transform="matrix(.063142 0 0 .063142 -131 -24.03)"
     display="none"
     id="polygon2" />
  <rect
     style="opacity:1;fill:#d2d2d2;fill-opacity:1;fill-rule:evenodd;stroke:none;stroke-width:1.03534329;stroke-linecap:round;stroke-linejoin:bevel;stroke-miterlimit:4;stroke-dasharray:none;stroke-dashoffset:0;stroke-opacity:1"
     id="rect4497-3"
     width="28.203388"
     height="28.203388"
     x="1.8983059"
     y="1.8983059"
     ry="5.575182" />
  <g
     id="g4797"
     transform="translate(0.46981438,-2.1983605e-4)">
    <g
       id="g12"
       transform="matrix(1,0,0,0.96671,0.18547,0.0084422)">
      <path
         id="path10"
         display="block"
         transform="translate(-0.18547)"
         d="m 8.5098,7.2324 a 0.50005,0.50005 0 1 0 -0.00586,1 l 3.1504,0.019531 1.6055,1.6191 v 6.1641 a 0.50005,0.50005 0 1 0 1,0 v -1.2402 a 0.50005,0.50005 0 0 0 0,-0.03516 v -5.0957 a 0.50005,0.50005 0 0 0 -0.147,-0.3518 l -1.894,-1.9102 a 0.50005,0.50005 0 0 0 -0.352,-0.1484 l -3.3572,-0.0215 z m 11.982,0.0137 a 0.50005,0.50005 0 0 0 -0.492,0.5078 v 8.2813 a 0.50005,0.50005 0 1 0 1,0 V 14.795 a 0.50005,0.50005 0 0 0 0,-0.03516 v -7.0061 a 0.50005,0.50005 0 0 0 -0.508,-0.5078 z m -5.9902,0.00195 a 0.50005,0.50005 0 0 0 -0.35156,0.85742 l 1.75,1.7656 v 4.8887 a 0.50005,0.50005 0 0 0 0,0.05078 v 1.2246 a 0.50005,0.50005 0 1 0 1,0 v -6.3711 a 0.50005,0.50005 0 0 0 -0.144,-0.3524 l -1.895,-1.9102 a 0.50005,0.50005 0 0 0 -0.359,-0.1543 z m 2,0 a 0.50005,0.50005 0 0 0 -0.35156,0.85742 l 1.748,1.7656 v 6.1641 a 0.50005,0.50005 0 1 0 1,0 v -1.2402 a 0.50005,0.50005 0 0 0 0,-0.03516 v -5.0957 a 0.50005,0.50005 0 0 0 -0.144,-0.3518 l -1.895,-1.9102 a 0.50005,0.50005 0 0 0 -0.357,-0.1543 z"
         inkscape:connector-curvature="0"
         style="display:block;fill:#4d4d4d" />
    </g>
    <g
       id="g16"
       transform="matrix(1,0,0,1.0965,-0.014095,-1.5184)">
      <path
         id="path14"
         display="block"
         transform="translate(0.014095)"
         d="m 13.553,18.713 a 0.50005,0.50005 0 0 0 -0.49219,0.50586 v 1.2402 a 0.50005,0.50005 0 0 0 0,0.03516 v 1.7051 l -0.97266,0.97852 h -3.5801 a 0.50005,0.50005 0 1 0 0,1 h 3.7891 a 0.50005,0.50005 0 0 0 0.35547,-0.14648 l 1.2617,-1.2754 a 0.50005,0.50005 0 0 0 0.147,-0.353 v -3.1856 A 0.50005,0.50005 0 0 0 13.55351,18.7115 Z m 2.9395,0 a 0.50005,0.50005 0 0 0 -0.492,0.506 v 4.459 a 0.50005,0.50005 0 1 0 1,0 v -3.1484 a 0.50005,0.50005 0 0 0 0,-0.03516 v -1.2754 a 0.50005,0.50005 0 0 0 -0.50781,-0.50586 z m 2.002,0 a 0.50005,0.50005 0 0 0 -0.494,0.506 v 1.2754 a 0.50005,0.50005 0 0 0 0,0.05078 v 1.8594 a 0.50005,0.50005 0 0 0 0.14648,0.35156 l 1.2617,1.2754 a 0.50005,0.50005 0 0 0 0.35547,0.14648 h 3.7891 a 0.50005,0.50005 0 1 0 0,-1 h -3.5801 l -0.972,-0.978 v -2.98 a 0.50005,0.50005 0 0 0 -0.50586,-0.50586 z m 2.0039,0 a 0.50005,0.50005 0 0 0 -0.49219,0.50586 v 1.1953 a 0.50005,0.50005 0 0 0 0.0293,0.25781 0.50005,0.50005 0 0 0 0.0098,0.02344 0.50005,0.50005 0 0 0 0.1582,0.20313 l 1.2109,1.2207 a 0.50005,0.50005 0 0 0 0.35547,0.14844 h 1.2617 a 0.50005,0.50005 0 1 0 0,-1 h -1.0547 l -0.9707,-0.98047 v -1.0684 a 0.50005,0.50005 0 0 0 -0.50781,-0.50586 z"
         inkscape:connector-curvature="0"
         style="display:block;fill:#4d4d4d" />
    </g>
    <path
       id="path18"
       d="M 7.522,9 A 0.52208,0.48694 0 0 0 7,9.4869 v 13.026 a 0.52208,0.48694 0 0 0 0.522,0.487 h 3.2973 a 0.52208,0.48694 0 0 0 0.37113,-0.14455 l 0.659,-0.62 a 0.52208,0.48694 0 0 0 0.151,-0.342 v -11.166 a 0.52208,0.48694 0 0 0 -0.151,-0.342 l -1.319,-1.2405 a 0.52208,0.48694 0 0 0 -0.369,-0.1445 h -2.639 z"
       display="block"
       inkscape:connector-curvature="0"
       style="display:block;fill:#4d4d4d" />
    <rect
       id="rect20"
       x="12.5"
       y="13.22"
       width="10.105"
       height="8.2810001"
       ry="1.2920001"
       display="block"
       style="color:#000000;display:block;fill:none;stroke:#4d4d4d;stroke-linecap:round;stroke-linejoin:round" />
  </g>
  <g
     id="g4789"
     transform="matrix(0.75,0,0,0.75,4.3920267,4.5937896)"
     style="stroke-width:0.83333331">
    <circle
       id="circle22"
       r="8"
       cy="23"
       cx="24"
       style="fill:#c03630;fill-rule:evenodd;stroke-width:0.83333331;enable-background:new" />
    <path
       id="path24"
       d="m 24,19.75 c -0.96927,0.0095 -1.945,0.2309 -2.7893,0.70939 -0.33651,0.21919 -0.74047,0.50229 -1.0449,0.78752 -0.479,0.469 -0.889,1.016 -1.166,1.629 0.75934,1.6751 2.4287,2.9028 4.2651,3.0842 1.2046,0.13636 2.4653,-0.07179 3.5242,-0.66786 0.3365,-0.21919 0.74047,-0.50229 1.0449,-0.78752 0.479,-0.47 0.889,-1.017 1.166,-1.629 -0.759,-1.675 -2.429,-2.903 -4.265,-3.084 -0.244,-0.029 -0.49,-0.042 -0.735,-0.042 z m 0,1.2503 c 1.0044,-0.02225 1.8939,0.87633 1.875,1.8754 0.03219,1.1042 -1.0681,2.0572 -2.1558,1.851 -1.0985,-0.12898 -1.8701,-1.3614 -1.5088,-2.4053 0.231,-0.768 0.985,-1.33 1.79,-1.321 z m 0,1.2503 a 0.625,0.62514 0 0 0 -0.625,0.626 0.625,0.62514 0 0 0 0.625,0.625 0.625,0.62514 0 0 0 0.625,-0.625 A 0.625,0.62514 0 0 0 24,22.2526 Z"
       inkscape:connector-curvature="0"
       style="fill:#ffffff;fill-rule:evenodd;stroke-width:0.83333331" />
  </g>
</svg>
