<?xml version="1.0" encoding="UTF-8" standalone="no"?>
<svg
   xmlns:dc="http://purl.org/dc/elements/1.1/"
   xmlns:cc="http://creativecommons.org/ns#"
   xmlns:rdf="http://www.w3.org/1999/02/22-rdf-syntax-ns#"
   xmlns:svg="http://www.w3.org/2000/svg"
   xmlns="http://www.w3.org/2000/svg"
   xmlns:xlink="http://www.w3.org/1999/xlink"
   xmlns:sodipodi="http://sodipodi.sourceforge.net/DTD/sodipodi-0.dtd"
   xmlns:inkscape="http://www.inkscape.org/namespaces/inkscape"
   height="32"
   width="32"
   version="1"
   id="svg91"
   sodipodi:docname="gnome-pie.svg"
   inkscape:version="0.92.1 r">
  <metadata
     id="metadata95">
    <rdf:RDF>
      <cc:Work
         rdf:about="">
        <dc:format>image/svg+xml</dc:format>
        <dc:type
           rdf:resource="http://purl.org/dc/dcmitype/StillImage" />
      </cc:Work>
    </rdf:RDF>
  </metadata>
  <sodipodi:namedview
     pagecolor="#ffffff"
     bordercolor="#666666"
     borderopacity="1"
     objecttolerance="10"
     gridtolerance="10"
     guidetolerance="10"
     inkscape:pageopacity="0"
     inkscape:pageshadow="2"
     inkscape:window-width="640"
     inkscape:window-height="480"
     id="namedview93"
     showgrid="false"
     inkscape:zoom="8.9375"
     inkscape:cx="-5.2587413"
     inkscape:cy="16"
     inkscape:current-layer="svg91" />
  <defs
     id="defs43">
    <linearGradient
       id="ButtonShadow"
       y2="7.016"
       gradientUnits="userSpaceOnUse"
       y1="92.54"
       gradientTransform="scale(1.0059 .99417)"
       x2="45.448"
       x1="45.448">
      <stop
         offset="0"
         id="stop2" />
      <stop
         stop-opacity=".588"
         offset="1"
         id="stop4" />
    </linearGradient>
    <linearGradient
       id="linearGradient3737">
      <stop
         stop-color="#fff"
         offset="0"
         id="stop7" />
      <stop
         stop-opacity="0"
         stop-color="#fff"
         offset="1"
         id="stop9" />
    </linearGradient>
    <filter
       id="filter3174"
       style="color-interpolation-filters:sRGB">
      <feGaussianBlur
         stdDeviation="1.71"
         id="feGaussianBlur12" />
    </filter>
    <linearGradient
       id="linearGradient3188"
       x1="36.357"
       xlink:href="#linearGradient3737"
       gradientUnits="userSpaceOnUse"
       x2="36.357"
       y1="6"
       y2="63.893" />
    <filter
       id="filter3794"
       style="color-interpolation-filters:sRGB"
       height="1.384"
       width="1.384"
       y="-.19"
       x="-.19">
      <feGaussianBlur
         stdDeviation="5.28"
         id="feGaussianBlur16" />
    </filter>
    <linearGradient
       id="linearGradient3613"
       x1="48"
       xlink:href="#linearGradient3737"
       gradientUnits="userSpaceOnUse"
       x2="48"
       y1="20.221"
       y2="138.66" />
    <radialGradient
       id="radialGradient3619"
       xlink:href="#linearGradient3737"
       gradientUnits="userSpaceOnUse"
       cy="90.172"
       cx="48"
       gradientTransform="matrix(1.1573 0 0 .99591 -7.551 .19713)"
       r="42" />
    <clipPath
       id="clipPath3613">
      <rect
         rx="6"
         ry="6"
         height="84"
         width="84"
         y="6"
         x="6"
         fill="#fff"
         id="rect21" />
    </clipPath>
    <linearGradient
       id="linearGradient2843"
       y2="5.988"
       gradientUnits="userSpaceOnUse"
       y1="90"
       gradientTransform="translate(0,100)"
       x2="48"
       x1="48">
      <stop
         stop-color="#2276c5"
         offset="0"
         id="stop24" />
      <stop
         stop-color="#68baf4"
         offset="1"
         id="stop26" />
    </linearGradient>
    <clipPath
       id="clipPath3625">
      <path
         fill="#fff"
         d="m0 0v96h96v-96h-96zm12 6h72c3.324 0 6 2.676 6 6v72c0 3.324-2.676 6-6 6h-72c-3.324 0-6-2.676-6-6v-72c0-3.324 2.676-6 6-6z"
         id="path29" />
    </clipPath>
    <linearGradient
       id="linearGradient3643"
       y2="90.015"
       gradientUnits="userSpaceOnUse"
       y1="6"
       x2="44.512"
       x1="44.512">
      <stop
         stop-color="#f0f0f0"
         offset="0"
         id="stop32" />
      <stop
         stop-color="#aaa"
         offset="1"
         id="stop34" />
    </linearGradient>
    <clipPath
       id="clipPath3649">
      <rect
         rx="4"
         ry="4"
         height="76"
         width="76"
         y="10"
         x="10"
         fill="#fff"
         id="rect37" />
    </clipPath>
    <filter
       id="filter3657"
       style="color-interpolation-filters:sRGB">
      <feGaussianBlur
         stdDeviation="1.14"
         id="feGaussianBlur40" />
    </filter>
  </defs>
  <g
     display="none"
     transform="translate(0,-64)"
     id="g47">
    <rect
       opacity=".9"
       clip-path="url(#clipPath3625)"
       rx="6"
       ry="6"
       height="85"
       filter="url(#filter3174)"
       width="86"
       y="7"
       x="5"
       fill="url(#ButtonShadow)"
       id="rect45" />
  </g>
  <g
     display="none"
     transform="translate(0,-64)"
     id="g69">
    <rect
       opacity=".8"
       rx="6"
       ry="6"
       height="84"
       width="84"
       y="6"
       x="6"
       id="rect49" />
    <path
       opacity=".08"
       d="m14 10c-2.216 0-4 1.784-4 4v68c0 2.216 1.784 4 4 4h68c2.216 0 4-1.784 4-4v-68c0-2.216-1.784-4-4-4h-68zm0 3.0625h68c0.57877 0 0.9375 0.35873 0.9375 0.9375v68c0 0.57877-0.35873 0.9375-0.9375 0.9375h-68c-0.57877 0-0.9375-0.35873-0.9375-0.9375v-68c0-0.57877 0.35873-0.9375 0.9375-0.9375z"
       id="path51" />
    <path
       fill="url(#linearGradient3643)"
       d="m12 6c-3.324 0-6 2.676-6 6v72c0 3.324 2.676 6 6 6h72c3.324 0 6-2.676 6-6v-72c0-3.324-2.676-6-6-6h-72zm2 4h68c2.216 0 4 1.784 4 4v68c0 2.216-1.784 4-4 4h-68c-2.216 0-4-1.784-4-4v-68c0-2.216 1.784-4 4-4z"
       id="path53" />
    <path
       fill="url(#linearGradient3188)"
       d="m12 6c-3.324 0-6 2.676-6 6v72c0 0.33472 0.04135 0.6507 0.09375 0.96875 0.0487 0.2956 0.09704 0.59692 0.1875 0.875 0.00988 0.03038 0.020892 0.0636 0.03125 0.09375 0.098865 0.28777 0.23488 0.54745 0.375 0.8125 0.14459 0.27351 0.31562 0.53562 0.5 0.78125 0.18438 0.24564 0.37378 0.47347 0.59375 0.6875 0.43995 0.42806 0.94291 0.81453 1.5 1.0938 0.27854 0.13961 0.57347 0.24695 0.875 0.34375-0.2562-0.10022-0.48671-0.23627-0.71875-0.375-0.00741-0.0044-0.023866 0.0045-0.03125 0-0.031933-0.0193-0.062293-0.04251-0.09375-0.0625-0.1204-0.0767-0.23102-0.16351-0.34375-0.25-0.10617-0.0808-0.21328-0.16111-0.3125-0.25-0.1778-0.162-0.3473-0.346-0.4999-0.531-0.1075-0.131-0.2183-0.266-0.3124-0.407-0.0251-0.038-0.0385-0.086-0.0626-0.125-0.0647-0.103-0.1302-0.204-0.1874-0.312-0.1011-0.195-0.2057-0.416-0.2813-0.625-0.008-0.022-0.0236-0.041-0.0313-0.063-0.0318-0.092-0.0358-0.187-0.0624-0.281-0.0304-0.107-0.0704-0.203-0.0938-0.313-0.0729-0.341-0.125-0.698-0.125-1.062v-72c0-2.782 2.2182-5 5-5h72c2.7818 0 5 2.2182 5 5v72c0 0.3643-0.05212 0.72099-0.125 1.0625-0.04415 0.20689-0.08838 0.39766-0.15625 0.59375-0.0077 0.02195-0.0233 0.04069-0.03125 0.0625-0.06274 0.17374-0.13838 0.36745-0.21875 0.53125-0.04158 0.0828-0.07904 0.16995-0.125 0.25-0.0546 0.09721-0.12677 0.18835-0.1875 0.28125-0.09411 0.14096-0.20492 0.276-0.3125 0.40625-0.14317 0.17445-0.30314 0.347-0.46875 0.5-0.01117 0.0102-0.01998 0.02115-0.03125 0.03125-0.13839 0.12556-0.28509 0.23444-0.4375 0.34375-0.10257 0.07315-0.20432 0.15336-0.3125 0.21875-0.0074 0.0045-0.02384-0.0044-0.03125 0-0.23204 0.13873-0.46255 0.27478-0.71875 0.375 0.30153-0.0968 0.59646-0.20414 0.875-0.34375 0.55709-0.27922 1.0601-0.66569 1.5-1.0938 0.21997-0.21403 0.40937-0.44186 0.59375-0.6875s0.35541-0.50774 0.5-0.78125c0.14012-0.26505 0.27614-0.52473 0.375-0.8125 0.01041-0.03078 0.02133-0.06274 0.03125-0.09375 0.09046-0.27808 0.1388-0.5794 0.1875-0.875 0.053-0.318 0.094-0.634 0.094-0.969v-72c0-3.324-2.676-6-6-6h-72z"
       id="path55" />
    <path
       opacity=".6"
       fill="url(#radialGradient3619)"
       d="m12 90c-3.324 0-6-2.676-6-6v-72c0-0.33472 0.04135-0.6507 0.09375-0.96875 0.0487-0.2956 0.09704-0.59692 0.1875-0.875 0.0099-0.03 0.0209-0.063 0.0313-0.094 0.0989-0.2873 0.2349-0.547 0.375-0.812 0.1446-0.2735 0.3156-0.5356 0.5-0.7812 0.1844-0.2457 0.3738-0.4735 0.5937-0.6876 0.44-0.428 0.943-0.8145 1.5-1.0937 0.2786-0.1396 0.5735-0.2469 0.8748-0.3437-0.256 0.1002-0.4865 0.2362-0.7185 0.375-0.00741 0.0044-0.023866-0.0045-0.03125 0-0.031933 0.0193-0.062293 0.04251-0.09375 0.0625-0.1204 0.0767-0.23102 0.16351-0.34375 0.25-0.10617 0.0808-0.21328 0.16111-0.3125 0.25-0.1779 0.1614-0.3474 0.3453-0.5 0.5312-0.1075 0.1303-0.2183 0.2653-0.3124 0.4063-0.0251 0.0383-0.0385 0.0858-0.0626 0.125-0.0647 0.103-0.1302 0.2045-0.1874 0.3124-0.1011 0.1948-0.2057 0.4158-0.2813 0.625-0.008 0.0219-0.0236 0.0406-0.0313 0.0626-0.0318 0.0919-0.0358 0.1868-0.0624 0.2812-0.0304 0.1066-0.0704 0.203-0.0938 0.3125-0.0729 0.3415-0.125 0.6985-0.125 1.0625v72c0 2.7818 2.2182 5 5 5h72c2.7818 0 5-2.2182 5-5v-72c0-0.364-0.052-0.721-0.125-1.0625-0.044-0.2069-0.088-0.3977-0.156-0.5937-0.008-0.022-0.024-0.0407-0.031-0.0626-0.063-0.1737-0.139-0.3674-0.219-0.5312-0.042-0.0828-0.079-0.17-0.125-0.25-0.055-0.0972-0.127-0.1884-0.188-0.2812-0.094-0.141-0.205-0.276-0.312-0.4063-0.143-0.1745-0.303-0.347-0.469-0.5-0.011-0.0102-0.02-0.0211-0.031-0.0313-0.139-0.1255-0.285-0.2344-0.438-0.3437-0.102-0.0731-0.204-0.1534-0.312-0.2187-0.0074-0.0045-0.02384 0.0044-0.03125 0-0.23204-0.13873-0.46255-0.27478-0.71875-0.375 0.30153 0.0968 0.59646 0.20414 0.875 0.34375 0.55709 0.27922 1.0601 0.66569 1.5 1.0938 0.21997 0.21403 0.40937 0.44186 0.59375 0.6875s0.35541 0.50774 0.5 0.78125c0.14012 0.26505 0.27614 0.52473 0.375 0.8125 0.01041 0.03078 0.02133 0.06274 0.03125 0.09375 0.09046 0.27808 0.1388 0.5794 0.1875 0.875 0.053 0.318 0.094 0.634 0.094 0.969v72c0 3.324-2.676 6-6 6h-72z"
       id="path57" />
    <rect
       rx="6"
       ry="6"
       height="84"
       width="84"
       y="106"
       x="6"
       fill="url(#linearGradient2843)"
       id="rect59" />
    <rect
       rx="4"
       ry="4"
       height="76"
       width="76"
       y="110"
       x="10"
       fill="#f00"
       id="rect61" />
    <path
       style="color:#000000;"
       d="m14 9c-2.7527 0-5 2.2473-5 5v68c0 2.7527 2.2473 5 5 5h68c2.7527 0 5-2.2473 5-5v-68c0-2.753-2.247-5-5-5h-68zm0 2h68c1.6793 0 3 1.3207 3 3v68c0 1.6793-1.3207 3-3 3h-68c-1.6793 0-3-1.3207-3-3v-68c0-1.6793 1.3207-3 3-3z"
       clip-path="url(#clipPath3649)"
       transform="translate(-110)"
       display="inline"
       filter="url(#filter3657)"
       id="path63" />
    <path
       opacity=".16"
       d="m14.089 10c-2.216 0-4 1.784-4 4v68c0 2.216 1.784 4 4 4h68c2.216 0 4-1.784 4-4v-68c0-2.216-1.784-4-4-4h-68zm0 2h68c1.1403 0 2 0.8597 2 2v68c0 1.1403-0.8597 2-2 2h-68c-1.1403 0-2-0.8597-2-2v-68c0-1.1403 0.8597-2 2-2z"
       id="path65" />
    <path
       opacity=".36"
       d="m14 10c-2.216 0-4 1.784-4 4v68c0 2.216 1.784 4 4 4h68c2.216 0 4-1.784 4-4v-68c0-2.216-1.784-4-4-4h-68zm0 1h68c1.6738 0 3 1.3262 3 3v68c0 1.6738-1.3262 3-3 3h-68c-1.6738 0-3-1.3262-3-3v-68c0-1.6738 1.3262-3 3-3z"
       id="path67" />
  </g>
  <g
     display="none"
     transform="translate(0,-64)"
     id="g73">
    <rect
       opacity=".1"
       clip-path="url(#clipPath3613)"
       rx="12"
       ry="12"
       height="66"
       filter="url(#filter3794)"
       width="66"
       stroke="#fff"
       stroke-linecap="round"
       y="15"
       x="15"
       stroke-width=".5"
       fill="url(#linearGradient3613)"
       id="rect71" />
  </g>
  <rect
     style="opacity:1;fill:#ececec;fill-opacity:1;fill-rule:evenodd;stroke:none;stroke-width:1.03534329;stroke-linecap:round;stroke-linejoin:bevel;stroke-miterlimit:4;stroke-dasharray:none;stroke-dashoffset:0;stroke-opacity:1"
     id="rect4497-3-3"
     width="28.203388"
     height="28.203388"
     x="1.8983059"
     y="1.8983059"
     ry="5.575182" />
  <g
     id="g4621"
     transform="translate(53.14677,5.0349445)">
    <path
       style="fill:#ffcf3f;stroke-width:1"
       inkscape:connector-curvature="0"
       id="path75"
       d="m -40.531898,16.515016 c 1.079229,0.616944 1.453905,1.991944 0.836999,3.071097 -0.616943,1.079229 -1.991943,1.453905 -3.071097,0.836999 -1.079529,-0.616831 -1.45428,-1.991568 -0.837299,-3.071397 0.616906,-1.079079 1.991568,-1.453529 3.071397,-0.836699 z" />
    <path
       style="fill:#7cc327;stroke-width:1"
       inkscape:connector-curvature="0"
       id="path77"
       d="m -42.972431,10.561324 c 1.2591,0.719763 1.696284,2.323921 0.976498,3.583021 -0.719786,1.259175 -2.323921,1.69591 -3.582946,0.976274 -1.2591,-0.719636 -1.696285,-2.323997 -0.976499,-3.583172 0.719786,-1.259175 2.323921,-1.6959094 3.582947,-0.976273 z" />
    <path
       style="fill:#27adc3;stroke-width:1"
       inkscape:connector-curvature="0"
       id="path79"
       d="m -40.9101,3.8572284 c 1.438521,0.8225911 1.938289,2.6556741 1.115848,4.094946 -0.822441,1.4385214 -2.655899,1.9382894 -4.094796,1.1158484 -1.438972,-0.8224411 -1.93859,-2.6558993 -1.115998,-4.0947959 0.822591,-1.4389717 2.655899,-1.9385897 4.094946,-1.1159985 z" />
    <path
       style="fill:#ffcf3f;stroke-width:1"
       inkscape:connector-curvature="0"
       id="path81"
       d="m -30.971771,1.7546008 c 1.978511,1.1310815 2.665505,3.6519084 1.534498,5.6304194 -1.131081,1.9785111 -3.651908,2.6655048 -5.630419,1.5344979 -1.978511,-1.1310815 -2.665505,-3.6519084 -1.534498,-5.6304194 1.131081,-1.978511 3.651908,-2.66550443 5.630419,-1.5344979 z" />
    <path
       style="fill:#7cc327;stroke-width:1"
       inkscape:connector-curvature="0"
       id="path83"
       d="m -28.903662,10.61085 c 1.438897,0.822591 1.93859,2.655899 1.115999,4.094871 -0.822591,1.438897 -2.6559,1.93859 -4.094871,1.115999 -1.438897,-0.822592 -1.93859,-2.6559 -1.115999,-4.094871 0.822591,-1.438897 2.6559,-1.93859 4.094871,-1.115999 z" />
    <path
       style="fill:#27adc3;stroke-width:1"
       inkscape:connector-curvature="0"
       id="path85"
       d="m -33.343042,15.746604 c 1.29632,0.650104 1.820176,2.22802 1.170102,3.52434 -0.650104,1.296321 -2.22802,1.820176 -3.52434,1.170103 -1.29632,-0.650104 -1.820176,-2.22802 -1.170102,-3.52434 0.650103,-1.29632 2.228019,-1.820176 3.52434,-1.170103 z" />
  </g>
</svg>
