<?xml version="1.0" encoding="UTF-8" standalone="no"?>
<svg
   xmlns:dc="http://purl.org/dc/elements/1.1/"
   xmlns:cc="http://creativecommons.org/ns#"
   xmlns:rdf="http://www.w3.org/1999/02/22-rdf-syntax-ns#"
   xmlns:svg="http://www.w3.org/2000/svg"
   xmlns="http://www.w3.org/2000/svg"
   xmlns:sodipodi="http://sodipodi.sourceforge.net/DTD/sodipodi-0.dtd"
   xmlns:inkscape="http://www.inkscape.org/namespaces/inkscape"
   height="32"
   width="32"
   version="1"
   id="svg18"
   sodipodi:docname="gnome-tweak-tool.svg"
   inkscape:version="0.92.1 r">
  <metadata
     id="metadata24">
    <rdf:RDF>
      <cc:Work
         rdf:about="">
        <dc:format>image/svg+xml</dc:format>
        <dc:type
           rdf:resource="http://purl.org/dc/dcmitype/StillImage" />
      </cc:Work>
    </rdf:RDF>
  </metadata>
  <defs
     id="defs22" />
  <sodipodi:namedview
     pagecolor="#ffffff"
     bordercolor="#666666"
     borderopacity="1"
     objecttolerance="10"
     gridtolerance="10"
     guidetolerance="10"
     inkscape:pageopacity="0"
     inkscape:pageshadow="2"
     inkscape:window-width="640"
     inkscape:window-height="480"
     id="namedview20"
     showgrid="false"
     inkscape:zoom="6.7175144"
     inkscape:cx="-31.375437"
     inkscape:cy="7.3086815"
     inkscape:current-layer="svg18" />
  <rect
     style="opacity:1;fill:#5db43e;fill-opacity:1;fill-rule:evenodd;stroke:none;stroke-width:1.03534329;stroke-linecap:round;stroke-linejoin:bevel;stroke-miterlimit:4;stroke-dasharray:none;stroke-dashoffset:0;stroke-opacity:1"
     id="rect4497"
     width="28.203388"
     height="28.203388"
     x="1.8983059"
     y="1.8983059"
     ry="5.575182" />
  <g
     id="g4517"
     transform="translate(35.334038,1.751473)">
    <path
       inkscape:connector-curvature="0"
       id="path2"
       d="m -23.240017,3.8502783 c -0.151468,0.016483 -0.285273,0.141198 -0.312959,0.2910241 l -0.301262,1.5282419 c -0.541096,0.2116117 -1.049842,0.5026739 -1.496069,0.8599113 l -1.484369,-0.5016147 c -0.154246,-0.053181 -0.341234,0.014446 -0.424105,0.1550182 l -1.428798,2.478824 c -0.08048,0.1425334 -0.04661,0.3393025 0.07751,0.446042 l 1.183109,1.0383269 c -0.04164,0.278366 -0.06726,0.558244 -0.06726,0.848211 0,0.289976 0.0256,0.571291 0.06726,0.849673 l -1.183109,1.036866 c -0.124106,0.106736 -0.157997,0.30497 -0.07751,0.447505 l 1.428798,2.477361 c 0.08287,0.140543 0.269859,0.209667 0.424105,0.15648 l 1.484369,-0.501615 c 0.446233,0.357212 0.954973,0.64828 1.496069,0.859912 l 0.301262,1.528242 c 0.03056,0.160088 0.183635,0.288803 0.346596,0.291023 h 2.857595 c 0.162961,-0.002 0.31458,-0.130935 0.345134,-0.291023 l 0.301261,-1.528242 c 0.541096,-0.211611 1.049843,-0.502679 1.496069,-0.859912 l 1.484369,0.501615 c 0.154241,0.05318 0.342698,-0.01592 0.425569,-0.15648 l 1.428796,-2.477361 c 0.08048,-0.142535 0.04515,-0.340766 -0.07897,-0.447505 l -1.183107,-1.036866 c 0.04164,-0.278366 0.06726,-0.559656 0.06726,-0.849673 0,-0.289977 -0.02566,-0.56983 -0.06726,-0.848211 l 1.183107,-1.0383269 c 0.124106,-0.106736 0.159456,-0.3035086 0.07897,-0.446042 l -1.428796,-2.478824 c -0.08287,-0.1405434 -0.271328,-0.208204 -0.425569,-0.1550182 l -1.484369,0.5016147 C -18.652855,6.171973 -19.161447,5.8811759 -19.70239,5.6695443 L -20.003651,4.13984 c -0.03056,-0.1600886 -0.182173,-0.287347 -0.345134,-0.2895617 h -2.857595 c -0.01121,-2.603e-4 -0.0225,-2.603e-4 -0.03363,0 z m 1.462435,4.0831128 c 1.69106,0 3.060872,1.369811 3.060872,3.0608719 0,1.691061 -1.369812,3.062335 -3.060872,3.062335 -1.691062,0 -3.062336,-1.371274 -3.062336,-3.062335 0,-1.6910609 1.371274,-3.0608719 3.062336,-3.0608719 z"
       style="fill:#ffffff;stroke-width:0.68155366;enable-background:new" />
    <path
       inkscape:connector-curvature="0"
       id="path2-3"
       d="m -15.098008,15.072837 c -0.100459,-4.4e-5 -0.197094,0.07213 -0.225963,0.168359 l -0.306837,0.980152 c -0.369814,0.09998 -0.724111,0.254353 -1.042164,0.456576 l -0.937056,-0.435022 c -0.09729,-0.0459 -0.22471,-0.01488 -0.289081,0.07126 l -1.113928,1.522533 c -0.06295,0.08767 -0.05483,0.219066 0.01888,0.297912 l 0.701179,0.76526 c -0.04721,0.17948 -0.08404,0.361097 -0.104791,0.55116 -0.02075,0.19007 -0.02411,0.376293 -0.01672,0.561747 l -0.849693,0.59496 c -0.08899,0.06108 -0.125388,0.188591 -0.08282,0.287778 l 0.759234,1.72608 c 0.04426,0.09805 0.161878,0.156743 0.266788,0.132917 l 1.008854,-0.22256 c 0.266926,0.266074 0.579558,0.493269 0.919083,0.67071 l 0.0881,1.023272 c 0.0086,0.10712 0.0997,0.202442 0.206356,0.21556 l 1.873057,0.204507 c 0.106955,0.01037 0.215568,-0.06331 0.247052,-0.166057 l 0.306836,-0.980152 c 0.369815,-0.09998 0.724111,-0.254356 1.042163,-0.456575 l 0.937057,0.435022 c 0.0973,0.0459 0.225768,0.01408 0.290145,-0.07211 l 1.113822,-1.521573 c 0.06296,-0.08767 0.05398,-0.22013 -0.01974,-0.298977 l -0.701283,-0.7643 c 0.04721,-0.17948 0.08414,-0.362023 0.104896,-0.55212 0.02075,-0.19007 0.02396,-0.37534 0.01661,-0.560787 l 0.849796,-0.595919 c 0.088985,-0.06108 0.1262357,-0.187529 0.083684,-0.286714 l -0.759128,-1.72704 c -0.04426,-0.09804 -0.162946,-0.155888 -0.267852,-0.132069 l -1.008854,0.222562 c -0.267104,-0.266275 -0.579657,-0.49328 -0.919083,-0.670711 l -0.08799,-1.024229 c -0.0086,-0.107122 -0.09884,-0.201384 -0.205501,-0.214499 l -1.873058,-0.204507 c -0.0073,-9.73e-4 -0.01473,-0.0018 -0.02205,-0.0024 z m 0.666365,2.781006 c 1.108432,0.121022 1.908267,1.116919 1.787244,2.225354 -0.121022,1.108433 -1.117024,1.909225 -2.225457,1.788203 -1.108435,-0.121023 -1.909123,-1.117983 -1.788101,-2.226416 0.121023,-1.108435 1.117879,-1.908164 2.226314,-1.787141 z"
       style="fill:#9ce173;fill-opacity:1;stroke-width:0.68155366;enable-background:new" />
  </g>
</svg>
