<?xml version="1.0" encoding="UTF-8" standalone="no"?>
<svg
   xmlns:dc="http://purl.org/dc/elements/1.1/"
   xmlns:cc="http://creativecommons.org/ns#"
   xmlns:rdf="http://www.w3.org/1999/02/22-rdf-syntax-ns#"
   xmlns:svg="http://www.w3.org/2000/svg"
   xmlns="http://www.w3.org/2000/svg"
   xmlns:sodipodi="http://sodipodi.sourceforge.net/DTD/sodipodi-0.dtd"
   xmlns:inkscape="http://www.inkscape.org/namespaces/inkscape"
   height="32"
   width="32"
   version="1.1"
   viewBox="0 0 32 32"
   id="svg24"
   sodipodi:docname="gns3.svg"
   inkscape:version="0.92.1 r">
  <metadata
     id="metadata30">
    <rdf:RDF>
      <cc:Work
         rdf:about="">
        <dc:format>image/svg+xml</dc:format>
        <dc:type
           rdf:resource="http://purl.org/dc/dcmitype/StillImage" />
      </cc:Work>
    </rdf:RDF>
  </metadata>
  <defs
     id="defs28" />
  <sodipodi:namedview
     pagecolor="#ffffff"
     bordercolor="#666666"
     borderopacity="1"
     objecttolerance="10"
     gridtolerance="10"
     guidetolerance="10"
     inkscape:pageopacity="0"
     inkscape:pageshadow="2"
     inkscape:window-width="640"
     inkscape:window-height="480"
     id="namedview26"
     showgrid="false"
     inkscape:zoom="8.9375"
     inkscape:cx="-18.929829"
     inkscape:cy="13.415505"
     inkscape:current-layer="svg24" />
  <rect
     style="opacity:1;fill:#716599;fill-opacity:1;fill-rule:evenodd;stroke:none;stroke-width:1.03534329;stroke-linecap:round;stroke-linejoin:bevel;stroke-miterlimit:4;stroke-dasharray:none;stroke-dashoffset:0;stroke-opacity:1"
     id="rect4497-3-3"
     width="28.203388"
     height="28.203388"
     x="1.8983059"
     y="1.8983059"
     ry="5.575182" />
  <g
     id="g4530"
     transform="translate(46.315337,3.4090771)">
    <path
       id="path8"
       d="m -32.0118,23.001321 c -1.198162,-0.227975 -2.474029,-0.781156 -3.542728,-1.536028 -1.200095,-0.847677 -2.440448,-2.33933 -3.036787,-3.652047 -0.599262,-1.319163 -0.84194,-2.914191 -0.682673,-4.486958 0.120488,-1.189768 0.257524,-1.742092 0.667316,-2.689603 1.136849,-2.6285789 3.360752,-4.4406365 6.307085,-5.1390713 0.482069,-0.114275 0.816248,-0.2489921 1.02291,-0.4123609 0.306328,-0.2421601 0.307295,-0.2449965 0.49176,-1.4389655 0.230295,-1.490603 0.22685,-1.4791611 0.462902,-1.5382942 0.317135,-0.079446 1.799313,0.131879 2.524118,0.3598812 1.166493,0.3669471 1.999764,0.8445004 2.993662,1.7156924 0.306528,0.2686817 1.098307,0.4885125 1.148145,0.4885125 0.300132,0 1.133723,0.3916885 1.470607,0.7184863 1.004613,0.9745302 1.140043,2.2029076 0.374218,3.3941036 -0.205518,0.319667 -0.478907,0.17656 -0.478907,0.588816 0,0.275394 -0.04724,0.562405 -0.105012,0.6378009 -0.08468,0.110539 -0.836175,0.170772 -2.460832,0.311047 -1.480387,0.127816 -2.374641,0.506921 -2.465662,0.597773 -0.270565,0.270051 0.353702,0.326729 3.229612,0.553409 2.68922,0.211964 2.93175,0.285891 2.727388,0.489488 -0.04391,0.04373 -1.222386,0.250241 -2.862717,0.580964 l -2.982419,0.601323 -1.874071,-0.722763 c -1.030741,-0.397515 -1.906334,-0.62289 -1.945764,-0.62289 -0.122911,0 -1.025354,1.498031 -0.995539,1.652566 0.03696,0.191527 0.414477,0.08724 0.905091,0.154359 0.338878,0.04638 0.433416,0.02092 0.783821,-0.210718 0.78083,-0.516224 1.480203,-0.516846 1.914488,-0.0015 0.265421,0.314839 0.274418,0.52872 0.02945,0.699987 -0.244763,0.17111 -0.422168,0.164671 -0.78314,-0.02842 -0.507015,-0.271232 -0.82894,0.08278 -0.645094,0.568918 0.118693,0.313871 0.05149,0.484646 -0.190717,0.484646 -0.134607,0 -0.231134,-0.08343 -0.325039,-0.280943 -0.133314,-0.280408 -0.13498,-0.420958 -0.870691,-0.470656 -0.795889,-0.05376 -1.172215,0.22157 -1.669659,-0.09187 -0.393112,-0.247695 -0.760039,-0.678213 -0.760039,-0.891762 0,-0.204344 0.389344,-0.979847 0.789157,-1.571859 0.37134,-0.549855 0.382755,-0.683366 0.05843,-0.683366 -0.172427,0 -0.312861,0.08039 -0.476075,0.272524 -0.286979,0.337815 -0.959597,1.733618 -0.959597,1.991329 0,0.355343 0.271561,0.748097 0.994368,1.22321 0.572711,0.376447 0.747382,0.400792 0.870134,0.678863 0.184374,0.417659 0.506941,1.132957 0.577263,1.7843 0.05839,0.540823 0.176015,0.40103 0.391374,0.02323 0.219207,-0.384537 0.824758,-0.460265 0.824758,-0.103137 0,0.0859 -0.09389,0.206321 -0.20864,0.267621 -0.379284,0.202599 -0.352783,0.545283 0.0592,0.765349 0.12198,0.06516 0.242932,0.03521 0.52594,-0.130359 0.202138,-0.11824 0.424806,-0.214977 0.494821,-0.214977 0.165654,0 0.388859,0.321303 0.388859,0.559759 0,0.531673 -0.418693,0.865749 -1.085026,0.865749 -0.79515,0 -1.404652,-0.427247 -1.73488,-1.216113 -0.176229,-0.42098 -0.864195,-1.18063 -1.148312,-1.48555 -0.280949,-0.301548 -0.429898,-0.353705 -0.664998,-0.319896 -0.262839,0.03781 -0.392069,0.286427 -0.393474,0.925631 -0.0025,1.235532 0.387269,2.499091 1.790991,3.190922 2.305718,1.136392 4.518509,1.149496 6.901614,0.04087 1.758865,-0.818225 3.11472,-2.170592 3.21297,-3.590896 0.03609,-0.522 0.01457,-0.660003 -0.153563,-0.984449 -0.349418,-0.674223 -1.435629,-1.065047 -2.175311,-0.729899 -0.240501,0.108969 -0.424295,0.420522 -0.542217,0.76098 -0.344401,1.063384 0.161946,1.500799 0.744416,1.754225 0.239113,0.104036 0.660547,0.02966 0.735215,-0.267293 0.08341,-0.331697 -0.07876,-0.464979 -0.531762,-0.437033 -0.342212,0.02113 -0.389376,0.0031 -0.412539,-0.159539 -0.0348,-0.244287 0.331358,-0.480828 0.727036,-0.469634 0.233495,0.0066 0.368731,6.61e-4 0.581452,0.232335 0.33013,0.359557 0.272749,0.779468 0.100473,1.107796 -0.208579,0.397516 -0.596804,0.663947 -1.172781,0.662043 -0.820486,-0.0025 -1.483215,-0.458668 -1.676539,-1.153438 -0.115887,-0.416486 -0.110289,-1.082537 0.0362,-1.57483 0.42477,-1.427662 2.825916,-1.720283 3.968208,-0.612189 0.550784,0.534291 0.829711,1.140687 0.778156,2.102354 -0.111767,2.084688 -2.212897,4.094258 -4.612229,5.270566 -1.421168,0.69675 -2.219323,0.883409 -3.948558,0.923428 -0.984748,0.02281 -1.614928,-0.0025 -2.029594,-0.08138 z"
       style="fill:#47b0d0"
       inkscape:connector-curvature="0" />
    <circle
       id="circle12"
       r="2.5"
       cy="7.590909"
       cx="-28.821678"
       style="fill:#ffffff;stroke-width:2.22222209;stroke-linecap:round;stroke-linejoin:round" />
    <circle
       id="circle14"
       r="1"
       cy="7.090909"
       cx="-29.321678"
       style="fill:#5e5e5e;stroke-width:2.66666675;stroke-linecap:round;stroke-linejoin:round" />
    <path
       id="path18"
       d="m -22.348938,6.810181 c 0.11353,0.5426441 -0.137912,1.1004141 -0.561612,1.2458151 l -0.411128,-1.965087 c 0.4237,-0.1454006 0.85921,0.176628 0.97274,0.7192719 z"
       style="fill:#ffffff;stroke-width:0.79896367;stroke-linecap:round;stroke-linejoin:round"
       inkscape:connector-curvature="0" />
  </g>
</svg>
