<?xml version="1.0" encoding="UTF-8" standalone="no"?>
<svg
   xmlns:dc="http://purl.org/dc/elements/1.1/"
   xmlns:cc="http://creativecommons.org/ns#"
   xmlns:rdf="http://www.w3.org/1999/02/22-rdf-syntax-ns#"
   xmlns:svg="http://www.w3.org/2000/svg"
   xmlns="http://www.w3.org/2000/svg"
   xmlns:sodipodi="http://sodipodi.sourceforge.net/DTD/sodipodi-0.dtd"
   xmlns:inkscape="http://www.inkscape.org/namespaces/inkscape"
   height="32"
   width="32"
   version="1"
   id="svg24"
   sodipodi:docname="gpdftext.svg"
   inkscape:version="0.92.1 r">
  <metadata
     id="metadata30">
    <rdf:RDF>
      <cc:Work
         rdf:about="">
        <dc:format>image/svg+xml</dc:format>
        <dc:type
           rdf:resource="http://purl.org/dc/dcmitype/StillImage" />
      </cc:Work>
    </rdf:RDF>
  </metadata>
  <defs
     id="defs28" />
  <sodipodi:namedview
     pagecolor="#ffffff"
     bordercolor="#666666"
     borderopacity="1"
     objecttolerance="10"
     gridtolerance="10"
     guidetolerance="10"
     inkscape:pageopacity="0"
     inkscape:pageshadow="2"
     inkscape:window-width="640"
     inkscape:window-height="480"
     id="namedview26"
     showgrid="false"
     inkscape:zoom="3.1598835"
     inkscape:cx="-47.754732"
     inkscape:cy="8.2332566"
     inkscape:current-layer="svg24" />
  <rect
     style="opacity:1;fill:#e6e6e6;fill-opacity:1;fill-rule:evenodd;stroke:none;stroke-width:1.03534329;stroke-linecap:round;stroke-linejoin:bevel;stroke-miterlimit:4;stroke-dasharray:none;stroke-dashoffset:0;stroke-opacity:1"
     id="rect4497"
     width="28.203388"
     height="28.203388"
     x="1.8983059"
     y="1.8983059"
     ry="5.575182" />
  <rect
     style="fill:#66a02c;stroke-width:1"
     transform="matrix(0,-1,-1,0,0,0)"
     rx="0.80019981"
     ry="0.84261036"
     height="16.003996"
     width="18.404596"
     y="-25.602398"
     x="-23.201797"
     id="rect4" />
  <rect
     style="fill:#7ebc2e;stroke-width:1"
     ry="0.84261036"
     rx="0.80019981"
     transform="matrix(0,-1,-1,0,0,0)"
     height="16.003996"
     width="18.404596"
     y="-22.401598"
     x="-27.202797"
     id="rect6" />
  <path
     style="fill:#ffffff;stroke:#ffffff;stroke-width:0.5"
     inkscape:connector-curvature="0"
     d="m 13.813854,13.307328 c -0.221463,0 -0.428563,0.108403 -0.478663,0.287303 -0.186055,0.685884 0.02216,1.746597 0.369484,3.068287 l -0.10477,0.255871 c -0.265923,0.648218 -0.59831,1.293763 -0.890623,1.866707 -1.206701,2.361389 -2.145495,3.635307 -2.7714917,3.724129 l -0.0024,-0.02593 c -0.013523,-0.294538 0.5299567,-1.053863 1.2667167,-1.657694 0.07682,-0.06218 0.404765,-0.379391 0.404765,-0.379391 0,0 -0.442622,0.233659 -0.542079,0.293914 -0.923191,0.551049 -1.3825059,1.103155 -1.4574846,1.469647 -0.022245,0.108851 -0.008,0.242796 0.088214,0.297794 l 0.236035,0.118558 c 0.6425686,0.321656 1.4327586,-0.524123 2.4831806,-2.365151 1.068907,-0.350656 2.40268,-0.68081 3.616983,-0.859735 1.086991,0.621091 2.333863,0.916789 2.812942,0.789125 0.09117,-0.02409 0.187063,-0.09566 0.236035,-0.161576 0.03841,-0.06066 0.0921,-0.303292 0.0921,-0.303292 0,0 -0.09013,0.122655 -0.164345,0.158816 -0.303204,0.143124 -1.260475,-0.09566 -2.24272,-0.576264 0.849332,-0.09041 1.556869,-0.09389 1.935043,0.02697 0.48024,0.153294 0.480664,0.310429 0.474255,0.342445 0.0064,-0.02633 0.02793,-0.131641 0.02529,-0.17646 -0.01088,-0.115253 -0.04641,-0.218174 -0.133449,-0.303299 -0.177773,-0.175148 -0.616722,-0.26341 -1.214864,-0.271316 -0.450832,-0.0048 -0.991447,0.03457 -1.578234,0.118557 -0.268923,-0.154422 -0.552698,-0.324185 -0.777562,-0.534349 -0.570238,-0.532581 -1.048182,-1.271998 -1.344976,-2.101005 0.02025,-0.07946 0.03969,-0.157127 0.05738,-0.235474 0.0825,-0.370997 0.141723,-1.597519 0.141723,-1.597519 0,0 -0.234947,0.92143 -0.27186,1.060424 -0.02369,0.08814 -0.05321,0.182214 -0.08713,0.280142 -0.180044,-0.632774 -0.271307,-1.245991 -0.271307,-1.711147 0,-0.131457 0.01128,-0.387249 0.04849,-0.589515 0.01808,-0.144252 0.07042,-0.219159 0.124647,-0.255312 0.107339,0.02609 0.227497,0.19064 0.352928,0.465973 0.107715,0.238043 0.100905,0.513728 0.100905,0.684354 0,0 0.115525,-0.422505 0.08879,-0.672215 -0.01632,-0.149918 -0.158903,-0.535574 -0.462115,-0.531053 h -0.02481 l -0.135106,-0.0016 z m 0.103114,3.830956 c 0.313774,0.630886 0.746506,1.229987 1.314168,1.710587 0.126544,0.106971 0.261185,0.208732 0.399788,0.304404 -1.030898,0.19172 -2.113488,0.461404 -3.119579,0.882861 0.181917,-0.323169 0.378622,-0.675265 0.580129,-1.054904 0.390209,-0.737856 0.62666,-1.306966 0.825486,-1.84294 z"
     id="path16" />
  <path
     inkscape:connector-curvature="0"
     style="fill:#ffdf2c;fill-opacity:1;stroke-width:1;enable-background:new"
     d="m 16.95215,23.467086 v 2.464395 h 2.464257 l 6.223773,-6.223773 -2.464257,-2.464257 z m 10.867955,-5.931559 c 0.260656,-0.260641 0.260656,-0.671346 0,-0.932002 l -1.540178,-1.540178 c -0.260656,-0.260656 -0.671361,-0.260656 -0.932004,0 l -1.287515,1.295813 2.464395,2.464395 z"
     id="path20" />
</svg>
