<?xml version="1.0" encoding="UTF-8" standalone="no"?>
<svg
   xmlns:dc="http://purl.org/dc/elements/1.1/"
   xmlns:cc="http://creativecommons.org/ns#"
   xmlns:rdf="http://www.w3.org/1999/02/22-rdf-syntax-ns#"
   xmlns:svg="http://www.w3.org/2000/svg"
   xmlns="http://www.w3.org/2000/svg"
   xmlns:sodipodi="http://sodipodi.sourceforge.net/DTD/sodipodi-0.dtd"
   xmlns:inkscape="http://www.inkscape.org/namespaces/inkscape"
   height="32"
   width="32"
   version="1"
   id="svg12"
   sodipodi:docname="gps.svg"
   inkscape:version="0.92.1 r">
  <metadata
     id="metadata18">
    <rdf:RDF>
      <cc:Work
         rdf:about="">
        <dc:format>image/svg+xml</dc:format>
        <dc:type
           rdf:resource="http://purl.org/dc/dcmitype/StillImage" />
      </cc:Work>
    </rdf:RDF>
  </metadata>
  <defs
     id="defs16" />
  <sodipodi:namedview
     pagecolor="#ffffff"
     bordercolor="#666666"
     borderopacity="1"
     objecttolerance="10"
     gridtolerance="10"
     guidetolerance="10"
     inkscape:pageopacity="0"
     inkscape:pageshadow="2"
     inkscape:window-width="640"
     inkscape:window-height="480"
     id="namedview14"
     showgrid="false"
     inkscape:zoom="8.9375"
     inkscape:cx="-5.2587413"
     inkscape:cy="16"
     inkscape:current-layer="svg12" />
  <rect
     style="opacity:1;fill:#1e80ff;fill-opacity:1;fill-rule:evenodd;stroke:none;stroke-width:1.03534329;stroke-linecap:round;stroke-linejoin:bevel;stroke-miterlimit:4;stroke-dasharray:none;stroke-dashoffset:0;stroke-opacity:1"
     id="rect4497-3-3"
     width="28.203388"
     height="28.203388"
     x="1.8983059"
     y="1.8983059"
     ry="5.575182" />
  <path
     style="opacity:1;fill:#ffffff;fill-opacity:1;stroke-width:1"
     d="M 13.551449,4.5734262 V 6.5246157 A 9.7942061,9.7942061 0 0 0 6.527804,13.551449 H 4.573427 v 4.897103 h 1.951189 a 9.7942061,9.7942061 0 0 0 7.026833,7.023645 v 1.954377 h 4.897102 v -1.951189 a 9.7942061,9.7942061 0 0 0 7.023645,-7.026833 h 1.954377 V 13.551449 H 25.475385 A 9.7942061,9.7942061 0 0 0 18.448551,6.5278039 V 4.5734262 Z"
     id="path4"
     inkscape:connector-curvature="0" />
  <rect
     style="fill:#1e80ff;fill-opacity:1;stroke-width:1"
     x="-21.713287"
     y="-21.713287"
     width="11.426574"
     height="11.426574"
     ry="5.7132869"
     rx="5.7132869"
     transform="matrix(0,-1,-1,0,0,0)"
     id="rect8" />
</svg>
