<?xml version="1.0" encoding="UTF-8" standalone="no"?>
<svg
   xmlns:dc="http://purl.org/dc/elements/1.1/"
   xmlns:cc="http://creativecommons.org/ns#"
   xmlns:rdf="http://www.w3.org/1999/02/22-rdf-syntax-ns#"
   xmlns:svg="http://www.w3.org/2000/svg"
   xmlns="http://www.w3.org/2000/svg"
   xmlns:sodipodi="http://sodipodi.sourceforge.net/DTD/sodipodi-0.dtd"
   xmlns:inkscape="http://www.inkscape.org/namespaces/inkscape"
   height="32"
   viewBox="0 0 32 32"
   width="32"
   version="1.1"
   id="svg16"
   sodipodi:docname="gshutdown.svg"
   inkscape:version="0.92.1 r">
  <metadata
     id="metadata22">
    <rdf:RDF>
      <cc:Work
         rdf:about="">
        <dc:format>image/svg+xml</dc:format>
        <dc:type
           rdf:resource="http://purl.org/dc/dcmitype/StillImage" />
      </cc:Work>
    </rdf:RDF>
  </metadata>
  <defs
     id="defs20" />
  <sodipodi:namedview
     pagecolor="#ffffff"
     bordercolor="#666666"
     borderopacity="1"
     objecttolerance="10"
     gridtolerance="10"
     guidetolerance="10"
     inkscape:pageopacity="0"
     inkscape:pageshadow="2"
     inkscape:window-width="1680"
     inkscape:window-height="963"
     id="namedview18"
     showgrid="false"
     inkscape:zoom="7.375"
     inkscape:cx="-8.6779661"
     inkscape:cy="16"
     inkscape:window-x="0"
     inkscape:window-y="0"
     inkscape:window-maximized="1"
     inkscape:current-layer="svg16" />
  <rect
     style="opacity:1;fill:#cb4444;fill-opacity:1;fill-rule:evenodd;stroke:none;stroke-width:1.03534329;stroke-linecap:round;stroke-linejoin:bevel;stroke-miterlimit:4;stroke-dasharray:none;stroke-dashoffset:0;stroke-opacity:1"
     id="rect4497-3"
     width="28.203388"
     height="28.203388"
     x="1.8983059"
     y="1.8983059"
     ry="5.575182" />
  <path
     d="m 15,8.0000379 v 6.0000001 h 2 V 8.0000379 Z m 2.0391,2.0840001 c 0.11944,0.01846 0.2391,0.03983 0.35742,0.06445 -0.11833,-0.02462 -0.23798,-0.04599 -0.35742,-0.06445 z m -2.334,0.041 c -0.109,0.0222 -0.218,0.0468 -0.326,0.0742 0.108,-0.0274 0.217,-0.052 0.326,-0.0742 z m 3.0078,0.09375 c 0.12146,0.03114 0.24171,0.0659 0.36133,0.10352 -0.11962,-0.03762 -0.23986,-0.07237 -0.36133,-0.10352 z m -3.6973,0.07422 c -0.10227,0.03164 -0.20398,0.06527 -0.30469,0.10156 0.10071,-0.0363 0.20242,-0.06992 0.30469,-0.10156 z m 4.4141,0.14648 c 0.06332,0.02312 0.12683,0.04733 0.18945,0.07227 -0.06262,-0.02494 -0.12614,-0.04915 -0.18945,-0.07227 z m -4.9727,0.04687 c -2.685,1.0466 -4.4538,3.6316 -4.457,6.5136 0,3.866 3.134,7 7,7 3.866,0 7,-3.134 7,-7 -0.0036,-2.7987 -1.6729,-5.327 -4.2461,-6.4277 l -0.754,1.8477 a 5,5 0 0 1 3,4.58 5,5 0 0 1 -5,5 5,5 0 0 1 -5,-5 5,5 0 0 1 3.064,-4.605 l -0.607,-1.9087 z"
     id="path10"
     inkscape:connector-curvature="0"
     style="fill:#ffffff" />
</svg>
