<?xml version="1.0" encoding="UTF-8" standalone="no"?>
<svg
   xmlns:dc="http://purl.org/dc/elements/1.1/"
   xmlns:cc="http://creativecommons.org/ns#"
   xmlns:rdf="http://www.w3.org/1999/02/22-rdf-syntax-ns#"
   xmlns:svg="http://www.w3.org/2000/svg"
   xmlns="http://www.w3.org/2000/svg"
   xmlns:sodipodi="http://sodipodi.sourceforge.net/DTD/sodipodi-0.dtd"
   xmlns:inkscape="http://www.inkscape.org/namespaces/inkscape"
   height="32"
   width="32"
   version="1"
   id="svg16"
   sodipodi:docname="hipchat.svg"
   inkscape:version="0.92.1 r">
  <metadata
     id="metadata22">
    <rdf:RDF>
      <cc:Work
         rdf:about="">
        <dc:format>image/svg+xml</dc:format>
        <dc:type
           rdf:resource="http://purl.org/dc/dcmitype/StillImage" />
      </cc:Work>
    </rdf:RDF>
  </metadata>
  <defs
     id="defs20" />
  <sodipodi:namedview
     pagecolor="#ffffff"
     bordercolor="#666666"
     borderopacity="1"
     objecttolerance="10"
     gridtolerance="10"
     guidetolerance="10"
     inkscape:pageopacity="0"
     inkscape:pageshadow="2"
     inkscape:window-width="640"
     inkscape:window-height="480"
     id="namedview18"
     showgrid="false"
     inkscape:zoom="8.9375"
     inkscape:cx="-5.2587413"
     inkscape:cy="16"
     inkscape:current-layer="svg16" />
  <rect
     style="opacity:1;fill:#2a5083;fill-opacity:1;fill-rule:evenodd;stroke:none;stroke-width:1.03534329;stroke-linecap:round;stroke-linejoin:bevel;stroke-miterlimit:4;stroke-dasharray:none;stroke-dashoffset:0;stroke-opacity:1"
     id="rect4497-3-3"
     width="28.203388"
     height="28.203388"
     x="1.8983059"
     y="1.8983059"
     ry="5.575182" />
  <g
     id="g4507"
     transform="translate(0,-0.01609596)">
    <path
       id="path6"
       d="m 16,7.0156 c -4.914,0 -9,3.8764 -9,8.5664 0,4.69 4.086,8.434 9,8.434 h 0.002 c 0.689,-0.002 1.365,-0.134 2.035,-0.282 1.382,0.909 3.069,1.531 4.984,1.186 0.879,-0.16 1.23,-1.029 0.618,-1.678 -0.656,-0.693 -1.074,-1.124 -1.094,-2.047 1.497,-1.537 2.453,-3.496 2.455,-5.613 0,-4.69 -4.086,-8.5664 -9,-8.5664 z m 0,2 c 3.861,0 6.999,3.0364 7,6.5644 -0.002,1.517 -0.685,2.985 -1.887,4.219 a 2.0002,2.0002 0 0 0 -0.568,1.439 c 0.013,0.587 0.24,1.13 0.467,1.637 -0.646,-0.149 -1.269,-0.41 -1.877,-0.811 a 2.0002,2.0002 0 0 0 -1.53,-0.283 c -0.636,0.141 -1.168,0.233 -1.605,0.235 -3.898,0 -7,-2.905 -7,-6.434 0,-3.529 3.138,-6.5664 7,-6.5664 z"
       inkscape:connector-curvature="0"
       style="fill:#ffffff" />
    <path
       id="path10"
       d="m 13,18 c 0,0 1.6,1 3,1 1.4,0 3,-1 3,-1"
       inkscape:connector-curvature="0"
       style="fill:none;stroke:#ffffff;stroke-width:2;stroke-linecap:round;stroke-linejoin:round" />
  </g>
</svg>
