<?xml version="1.0" encoding="UTF-8" standalone="no"?>
<svg
   xmlns:dc="http://purl.org/dc/elements/1.1/"
   xmlns:cc="http://creativecommons.org/ns#"
   xmlns:rdf="http://www.w3.org/1999/02/22-rdf-syntax-ns#"
   xmlns:svg="http://www.w3.org/2000/svg"
   xmlns="http://www.w3.org/2000/svg"
   xmlns:sodipodi="http://sodipodi.sourceforge.net/DTD/sodipodi-0.dtd"
   xmlns:inkscape="http://www.inkscape.org/namespaces/inkscape"
   width="32"
   viewBox="0 0 32 32"
   version="1.1"
   height="32"
   id="svg12"
   sodipodi:docname="home-mdk.svg"
   inkscape:version="0.92.1 r">
  <metadata
     id="metadata18">
    <rdf:RDF>
      <cc:Work
         rdf:about="">
        <dc:format>image/svg+xml</dc:format>
        <dc:type
           rdf:resource="http://purl.org/dc/dcmitype/StillImage" />
        <dc:title></dc:title>
      </cc:Work>
    </rdf:RDF>
  </metadata>
  <defs
     id="defs16" />
  <sodipodi:namedview
     pagecolor="#ffffff"
     bordercolor="#666666"
     borderopacity="1"
     objecttolerance="10"
     gridtolerance="10"
     guidetolerance="10"
     inkscape:pageopacity="0"
     inkscape:pageshadow="2"
     inkscape:window-width="1680"
     inkscape:window-height="966"
     id="namedview14"
     showgrid="false"
     inkscape:zoom="9.1015625"
     inkscape:cx="38.959885"
     inkscape:cy="13.989477"
     inkscape:window-x="0"
     inkscape:window-y="0"
     inkscape:window-maximized="1"
     inkscape:current-layer="svg12"
     showguides="true"
     inkscape:guide-bbox="true">
    <sodipodi:guide
       position="-18.995377,33.523538"
       orientation="0,1"
       id="guide4566"
       inkscape:locked="false" />
  </sodipodi:namedview>
  <rect
     style="opacity:1;fill:#248afd;fill-opacity:1;fill-rule:evenodd;stroke:none;stroke-width:1.03534329;stroke-linecap:round;stroke-linejoin:bevel;stroke-miterlimit:4;stroke-dasharray:none;stroke-dashoffset:0;stroke-opacity:1"
     id="rect4497-3"
     width="28.203388"
     height="28.203388"
     x="1.8983059"
     y="1.8983059"
     ry="5.575182" />
  <g
     id="g4593"
     transform="matrix(0.59800954,0,0,0.59800954,30.606269,18.753253)">
    <path
       sodipodi:nodetypes="cccssscccscscssscccsssssssss"
       inkscape:connector-curvature="0"
       id="rect4519"
       d="m -24.429688,-13.085938 -11.794921,10.3847661 -0.0059,0.00586 c -0.23201,0.2288417 -0.376953,0.545302 -0.376953,0.8984375 V 8.8613281 c 0,0.6999897 0.563682,1.2636719 1.263672,1.2636719 h 3.152344 V -1.5197978 c 0.220954,-0.00374 0.979784,-0.00374 1.341797,0.010032 h 5.117187 c 0.371538,0 0.70678,0.1481865 0.949219,0.390625 0.242438,0.24243842 0.392578,0.57768093 0.392578,0.94921872 V 10.125 h 10.882813 c 0.699987,0 1.263671,-0.5636822 1.263671,-1.2636719 V -1.796875 c 0,-0.3815103 -0.175755,-0.712062 -0.441406,-0.9433594 h 0.02344 z m 3.404297,11.5625005 h 3.076172 c 0.69999,0 1.263672,0.56368179 1.263672,1.26367188 V 2.8164062 c 0,0.6999901 -0.563682,1.2636719 -1.263672,1.2636719 h -3.076172 c -0.69999,0 -1.263671,-0.5636818 -1.263671,-1.2636719 v -3.07617182 c 0,-0.69999009 0.563681,-1.26367188 1.263671,-1.26367188 z"
       style="fill:#ffffff;fill-opacity:1;stroke:none;stroke-width:0.10120521;stroke-miterlimit:4;stroke-dasharray:none" />
    <path
       id="rect4523"
       d="m -24.462891,-19.339844 c -0.0261,0.0017 -0.05036,0.0151 -0.07617,0.01953 -0.06329,0.0092 -0.123635,0.02302 -0.183594,0.04883 -0.01442,0.0066 -0.02697,0.01588 -0.04102,0.02344 -0.05465,0.02776 -0.111903,0.04937 -0.160156,0.0918 l -15.908203,13.9882812 c -0.308264,0.2710524 -0.337459,0.7386111 -0.06641,1.046875 l 1.142579,1.3007813 c 0.271052,0.308264 0.738611,0.3374586 1.046875,0.066406 l 14.283203,-12.5605465 14.285156,12.5605465 c 0.308264,0.2710523 0.7738695,0.2418577 1.0449219,-0.066406 l 1.1445312,-1.3007813 c 0.2710524,-0.3082639 0.2418577,-0.7758226 -0.066406,-1.046875 l -5.9375001,-5.2207032 v -3.957031 c 0,-0.69999 -0.563682,-1.263672 -1.263672,-1.263672 h -0.835938 c -0.69999,0 -1.263671,0.563682 -1.263671,1.263672 v 1 l -6.609375,-5.810547 c -0.04694,-0.04127 -0.101272,-0.06245 -0.154297,-0.08984 -0.01581,-0.0086 -0.03059,-0.018 -0.04687,-0.02539 -0.05959,-0.02552 -0.11878,-0.03972 -0.181641,-0.04883 -0.03882,-0.0067 -0.07589,-0.01325 -0.115234,-0.01367 -0.01254,1.68e-4 -0.0246,-0.0067 -0.03711,-0.0059 z"
       style="fill:#ffffff;fill-opacity:1;stroke:none;stroke-width:0.1;stroke-miterlimit:4;stroke-dasharray:none"
       inkscape:connector-curvature="0" />
    <path
       inkscape:connector-curvature="0"
       id="path4517-7"
       d="m -32.191446,-1.5197978 5.227663,1.72804711 V 8.5972007 l -5.227658,1.5346803 z"
       style="fill:#ffffff;fill-opacity:0.6186445;stroke:none;stroke-width:1.57519269px;stroke-linecap:butt;stroke-linejoin:miter;stroke-opacity:1" />
    <circle
       r="0.49442059"
       cy="4.7793989"
       cx="-28.181974"
       id="path4587"
       style="fill:#ffffff;fill-opacity:1;stroke:none;stroke-width:0.1;stroke-miterlimit:4;stroke-dasharray:none" />
  </g>
</svg>
