<?xml version="1.0" encoding="UTF-8" standalone="no"?>
<svg
   xmlns:dc="http://purl.org/dc/elements/1.1/"
   xmlns:cc="http://creativecommons.org/ns#"
   xmlns:rdf="http://www.w3.org/1999/02/22-rdf-syntax-ns#"
   xmlns:svg="http://www.w3.org/2000/svg"
   xmlns="http://www.w3.org/2000/svg"
   xmlns:sodipodi="http://sodipodi.sourceforge.net/DTD/sodipodi-0.dtd"
   xmlns:inkscape="http://www.inkscape.org/namespaces/inkscape"
   height="32"
   width="32"
   version="1"
   id="svg16"
   sodipodi:docname="chinese.svg"
   inkscape:version="0.92.1 r">
  <metadata
     id="metadata22">
    <rdf:RDF>
      <cc:Work
         rdf:about="">
        <dc:format>image/svg+xml</dc:format>
        <dc:type
           rdf:resource="http://purl.org/dc/dcmitype/StillImage" />
      </cc:Work>
    </rdf:RDF>
  </metadata>
  <defs
     id="defs20" />
  <sodipodi:namedview
     pagecolor="#ffffff"
     bordercolor="#666666"
     borderopacity="1"
     objecttolerance="10"
     gridtolerance="10"
     guidetolerance="10"
     inkscape:pageopacity="0"
     inkscape:pageshadow="2"
     inkscape:window-width="1680"
     inkscape:window-height="963"
     id="namedview18"
     showgrid="false"
     inkscape:zoom="7.375"
     inkscape:cx="-8.6779661"
     inkscape:cy="16"
     inkscape:window-x="0"
     inkscape:window-y="0"
     inkscape:window-maximized="1"
     inkscape:current-layer="svg16" />
  <rect
     style="opacity:1;fill:#2095f2;fill-opacity:1;fill-rule:evenodd;stroke:none;stroke-width:1.03534329;stroke-linecap:round;stroke-linejoin:bevel;stroke-miterlimit:4;stroke-dasharray:none;stroke-dashoffset:0;stroke-opacity:1"
     id="rect4497-3"
     width="28.203388"
     height="28.203388"
     x="1.8983059"
     y="1.8983059"
     ry="5.575182" />
  <g
     style="enable-background:new"
     transform="matrix(0.12,0,0,0.12,-1.279352,-2.71853)"
     id="g14">
    <path
       d="m 124.06,140.49 1.8987,11.392 -18.354,10.127 v 49.367 c -4e-5,6.3291 -1.0549,10.759 -3.1646,13.291 -2.1098,2.5316 -5.6962,3.7975 -10.759,3.7975 -5.9072,0 -11.392,-0.63292 -16.456,-1.8987 l -2.5316,-13.291 c 5.4852,1.6878 11.181,2.5316 17.089,2.5316 2.1097,0 3.1645,-2.5316 3.1646,-7.5949 v -39.873 c -6.7511,2.9536 -13.924,5.9072 -21.519,8.8608 l -4.433,-13.3 c 9.2827,-3.3755 17.932,-6.751 25.949,-10.127 v -32.278 h -20.886 v -12.025 h 20.886 v -26.582 h 12.658 v 26.582 h 17.722 v 12.025 h -17.722 v 27.215 c 5.4852,-2.9535 10.97,-5.6961 16.456,-8.2278 m 63.291,-57.595 13.924,3.7975 c -4.6415,9.2828 -9.2828,17.511 -13.924,24.684 h 26.582 v 12.025 h -17.722 v 34.177 h 22.785 v 12.025 h -22.785 v 58.861 h -12.658 v -58.861 h -27.848 c -2.9537,27.004 -13.08,46.835 -30.38,59.494 l -8.8608,-9.4937 c 14.768,-10.97 23.418,-27.637 25.949,-50 h -19.62 v -12.025 h 20.886 c 0.42185,-3.3755 0.63283,-6.962 0.6329,-10.759 v -23.418 h -16.456 v -12.025 h 46.203 c 5.0632,-8.8606 9.4936,-18.354 13.291,-28.481 m -3.7975,74.684 v -34.177 h -26.582 v 25.316 c -9e-5,2.9537 -0.21106,5.9072 -0.63291,8.8608 h 27.215 m -34.18,-72.783 c 5.0632,5.9073 8.8607,12.447 11.392,19.62 l -13.291,4.4304 c -2.5317,-7.5948 -6.1182,-14.346 -10.759,-20.253 l 12.658,-3.7975"
       id="path12"
       inkscape:connector-curvature="0"
       style="fill:#ffffff" />
  </g>
</svg>
