<?xml version="1.0" encoding="UTF-8" standalone="no"?>
<svg
   xmlns:dc="http://purl.org/dc/elements/1.1/"
   xmlns:cc="http://creativecommons.org/ns#"
   xmlns:rdf="http://www.w3.org/1999/02/22-rdf-syntax-ns#"
   xmlns:svg="http://www.w3.org/2000/svg"
   xmlns="http://www.w3.org/2000/svg"
   xmlns:sodipodi="http://sodipodi.sourceforge.net/DTD/sodipodi-0.dtd"
   xmlns:inkscape="http://www.inkscape.org/namespaces/inkscape"
   height="32"
   width="32"
   version="1"
   id="svg20"
   sodipodi:docname="icecat.svg"
   inkscape:version="0.92.1 r">
  <metadata
     id="metadata26">
    <rdf:RDF>
      <cc:Work
         rdf:about="">
        <dc:format>image/svg+xml</dc:format>
        <dc:type
           rdf:resource="http://purl.org/dc/dcmitype/StillImage" />
      </cc:Work>
    </rdf:RDF>
  </metadata>
  <defs
     id="defs24" />
  <sodipodi:namedview
     pagecolor="#ffffff"
     bordercolor="#666666"
     borderopacity="1"
     objecttolerance="10"
     gridtolerance="10"
     guidetolerance="10"
     inkscape:pageopacity="0"
     inkscape:pageshadow="2"
     inkscape:window-width="640"
     inkscape:window-height="480"
     id="namedview22"
     showgrid="false"
     inkscape:zoom="8.9375"
     inkscape:cx="-5.3706294"
     inkscape:cy="16"
     inkscape:current-layer="svg20" />
  <circle
     transform="rotate(15)"
     cy=".973"
     cx="21.484"
     r="0"
     fill="#464646"
     id="circle12" />
  <circle
     transform="matrix(-.96593 -.25882 -.25882 .96593 0 0)"
     cy=".903"
     cx="-25.606"
     r="0"
     fill="#464646"
     id="circle14" />
  <rect
     style="opacity:1;fill:#6573c3;fill-opacity:1;fill-rule:evenodd;stroke:none;stroke-width:1.03534329;stroke-linecap:round;stroke-linejoin:bevel;stroke-miterlimit:4;stroke-dasharray:none;stroke-dashoffset:0;stroke-opacity:1"
     id="rect4497-3"
     width="28.203388"
     height="28.203388"
     x="1.8983059"
     y="1.8983059"
     ry="5.575182"
     inkscape:export-filename="/home/ramil/3.png"
     inkscape:export-xdpi="71"
     inkscape:export-ydpi="71" />
  <g
     id="g4511"
     transform="matrix(0.81202766,0,0,0.81202766,29.902565,12.135754)"
     style="stroke-width:1.23148513">
    <rect
       style="fill:#f2f2f2;stroke-width:1.23148513"
       id="rect2"
       x="-17.258741"
       y="7.1188812"
       width="22"
       height="22"
       ry="11"
       rx="11"
       transform="matrix(0,-1,-1,0,0,0)" />
    <path
       style="fill:#9db9ff;fill-rule:evenodd;stroke-width:1.23148513"
       inkscape:connector-curvature="0"
       id="path10"
       d="m -10.486881,-7.7409587 c -0.0069,2.338e-4 -0.01485,0.00472 -0.02186,0.00523 -0.05095,0.00362 -0.10398,0.016904 -0.15818,0.039173 -0.04459,0.018265 -0.08944,0.038391 -0.13246,0.074427 -0.04512,0.037797 -0.08647,0.091478 -0.12603,0.15408 -0.01021,0.016072 -0.01989,0.032985 -0.02958,0.050923 -0.03579,0.066642 -0.06883,0.14236 -0.09516,0.23764 -0.0016,0.00564 -0.0036,0.00861 -0.0051,0.014363 -0.07302,-0.3534 -0.83719,-0.26768 -0.83719,-0.26768 0,0 0.0013,0.0013 0.0013,0.00131 -1.7e-5,1.8e-6 -0.0026,0 -0.0026,0 0,0 0.06384,0.043598 0.12603,0.10446 0.03106,0.030589 0.06217,0.064794 0.08488,0.10054 1.7e-4,2.662e-4 -1.7e-4,0.00103 0,0.00131 0.02274,0.035627 0.03628,0.071619 0.03472,0.10576 v 0.00131 c -0.13088,0.015041 -0.25956,0.036362 -0.38709,0.06398 -0.02772,-0.062648 -0.02446,-0.15628 -0.01801,-0.25592 0.0065,-0.099645 0.0162,-0.20441 -0.0013,-0.29118 -5.06e-4,7.779e-4 -8e-4,0.00184 -0.0013,0.00261 -2.24e-4,-0.00117 2.35e-4,-0.00276 0,-0.00392 -0.0542,0.083348 -0.09256,0.18441 -0.12088,0.28857 -0.02832,0.10416 -0.04553,0.21118 -0.05659,0.30685 -0.02533,0.00694 -0.04946,0.01734 -0.07459,0.02481 -0.09877,0.029105 -0.19831,0.057824 -0.29321,0.095319 -0.06759,-0.11566 -0.14382,-0.21609 -0.2237,-0.31077 -0.082,-0.097196 -0.17095,-0.18039 -0.26492,-0.25201 -0.01718,-0.013274 -0.03387,-0.026832 -0.05143,-0.039173 -0.09539,-0.066097 -0.1948,-0.12122 -0.30093,-0.15799 -0.0032,-0.00113 -0.0057,-0.00413 -0.009,-0.00523 -8e-4,-2.713e-4 -0.0018,2.695e-4 -0.0026,0 -0.10696,-0.035757 -0.22009,-0.052273 -0.33694,-0.054841 -0.01158,-2.557e-4 -0.02176,-0.00532 -0.03343,-0.00523 -0.01895,1.544e-4 -0.03998,0.00938 -0.05915,0.010446 -0.09051,0.00502 -0.18346,0.020575 -0.27906,0.047006 -0.03298,0.00911 -0.06547,0.016952 -0.09902,0.028726 -0.12612,0.044283 -0.2547,0.10131 -0.38838,0.18541 -0.47776,0.30056 -0.70139,0.78104 -0.76775,1.3136 -1.3845,0.29259 -2.9425,0.54044 -4.3171,0.5458 -0.01542,6.08e-5 -0.03221,0.00131 -0.04758,0.00131 -1.4808,0 -2.6816,0.43564 -3.5661,1.2378 -0.25252,0.22889 -0.4788,0.4874 -0.67901,0.7743 -1.96e-4,2.808e-4 1.96e-4,0.00102 0,0.00131 -0.1,0.1433 -0.1937,0.2933 -0.2803,0.4505 -0.0442,0.0801 -0.0816,0.167 -0.1222,0.2507 -0.03931,0.0809 -0.08231,0.15872 -0.11831,0.24287 -1.56e-4,3.639e-4 1.55e-4,9.47e-4 0,0.00129 -0.07306,0.17066 -0.1389,0.34769 -0.19812,0.53142 -0.05925,0.18379 -0.11162,0.37417 -0.15689,0.57061 -0.03477,0.15089 -0.06231,0.30801 -0.08874,0.46615 -0.0081,0.048564 -0.01968,0.094393 -0.02701,0.14362996 -6.5e-5,4.332e-4 6.5e-5,8.797e-4 0,0.00132 -0.03098,0.20872 -0.05413,0.42318 -0.07073,0.64373 -6.6e-5,8.79e-4 6.6e-5,0.0017 0,0.0026 -0.01651,0.22019 -0.02633,0.4461 -0.02829,0.67768 -0.0039,0.46494 5.26e-4,0.88577004 0.01286,1.26660004 2.5e-5,8.12e-4 -2.6e-5,0.0018 0,0.0026 0.01234,0.37962 0.03228,0.71982 0.05787,1.0237 3.3e-5,3.87e-4 -3.2e-5,9.47e-4 0,0.0013 0.02563,0.30405 0.05791,0.5721 0.09388,0.80825 5.7e-5,3.75e-4 -5.8e-5,9.46e-4 0,0.0013 0.03596,0.23591 0.07627,0.44026 0.1196,0.61631 8.9e-5,3.59e-4 -8.8e-5,9.47e-4 0,0.0013 0.04331,0.17579 0.08987,0.3239 0.1376,0.44787 1.28e-4,3.3e-4 -1.27e-4,10e-4 0,0.0013 0.04771,0.1237 0.09744,0.22301 0.14661,0.30293 1.71e-4,2.78e-4 -1.71e-4,0.001 0,0.0013 0.04913,0.07968 0.09895,0.13888 0.1466,0.1828 0.0481,0.04439 0.09399,0.07399 0.1376,0.0901 0.28195,0.1041 0.19668,-0.02628 0.15175,-0.08618 -0.0135,-0.013 -0.0274,-0.039 -0.0279,-0.04 l 0.12474,0.07704 0.12603,0.07964 v -0.15799 l 0.11831,0.01568 0.10288,0.01437 0.09645,-0.19455 0.03087,-0.06137 h 0.28421 c 0,0 0.11143,-0.06966 0.17618,-0.25592 0.007,-0.02019 0.01751,-0.03156 0.02315,-0.05485 8.4e-5,-3.46e-4 -8.5e-5,-9.47e-4 0,-0.0013 0.01925,-0.07927 0.02973,-0.17668 0.02186,-0.2964 -0.02373,-0.3614 0.12917,-0.50551 0.10031,-0.74558 -0.0093,-0.07924 -0.03788,-0.16938 -0.10031,-0.28073 -0.12452,-0.22126 -0.25662,-1.2849 -0.29836,-2.35560004 -6.21e-4,-0.01592 -0.002,-0.03109 -0.0026,-0.04701 -0.01963,-0.54261 -0.01599,-1.0838 0.02443,-1.516 4.6e-5,-4.962e-4 -4.7e-5,-8.118e-4 0,-0.00132 0.04046,-0.43148996 0.11842,-0.75294996 0.24434,-0.85774996 0.12632,-0.10421 0.31795,-0.2432 0.55298,-0.39564 0.23484,-0.15233 0.5128,-0.31886 0.81276,-0.47921 0.44998,-0.24055 0.94936,-0.46778 1.4236,-0.6137 0.15814,-0.048608 0.31296,-0.088153 0.46296,-0.11621 0.4504,-0.084242 0.85167,-0.18212 1.3246,-0.24417 0.31444,-0.041117 0.66095,-0.066228 1.0738,-0.06137 3.94e-4,4.4e-6 9.33e-4,-4.5e-6 0.0013,0 0.0094,1.126e-4 0.02135,0.00117 0.03087,0.00131 0.61533,0.00934 1.376,0.084746 2.4023,0.2742 0.0022,0.18458 0.0173,0.40374 0.0463,0.67246 1.68e-4,0.00155 -1.69e-4,0.00236 0,0.00393 6e-5,5.54e-4 -6e-5,7.441e-4 0,0.00135 0.07956,0.73434 0.2428,1.1602 0.46811,1.5486 0.2253,0.38839996 0.51197,0.73848996 0.83848,1.32009996 3.39e-4,6.04e-4 9.33e-4,6.7e-4 0.0013,0.0013 0.09899,0.17938 0.20304,0.34059 0.3125,0.48312 3.41e-4,4.46e-4 9.33e-4,8.79e-4 0.0013,0.0013 0.1097,0.14266 0.22482,0.26709004 0.34465,0.37344004 0.11971,0.10624 0.24481,0.1944 0.37423,0.26506 5.05e-4,2.78e-4 8e-4,10e-4 0.0013,0.0013 0.12926,0.07042 0.26268,0.12367 0.40124,0.1593 0.55666,0.144 1.1864,0.01024 1.8776,-0.38128 0.5691799,-0.33793004 0.9901499,-0.49670004 1.3759999,-0.71946004 0.09658,-0.05549 0.19018,-0.11543 0.28421,-0.1828 0.09424,-0.06752 0.18767,-0.14267 0.28292,-0.22981 0.09474,-0.08684 0.19134,-0.18519 0.29064,-0.29901 2.01e-4,-2.3e-4 -2.01e-4,-0.0011 0,-0.0013 0.0994,-0.1139 0.20375,-0.24184 0.31121,-0.39042 0.02826,-0.03908 0.03449,-0.05846 0.06044,-0.09532 0.13467,-0.19038 0.25431,-0.36352996 0.33565,-0.50662996 0.20838,-0.15688 0.41762,-0.31645 0.61471,-0.44656 0.47923,-0.32651 1.0029,-0.83277 1.3259,-1.4089 1.97e-4,-3.5e-4 -1.96e-4,-9.335e-4 0,-0.00127 0.16126,-0.28787 0.27231,-0.59314 0.3035,-0.90227 4.4e-5,-4.341e-4 -4.3e-5,-8.727e-4 0,-0.00131 0.0077,-0.076954 0.01042,-0.15391 0.0077,-0.23112 -1.5e-5,-4.285e-4 1.6e-5,-8.795e-4 0,-0.00131 -0.0085,-0.23316 -0.06637,-0.46602 -0.18662,-0.69357 -0.0719,-0.13605 -0.15108,-0.24984 -0.23534,-0.34994 -0.027,-0.0318 -0.056,-0.0544 -0.084,-0.0825 -0.058,-0.0596 -0.118,-0.1158 -0.181,-0.1606 -0.036,-0.0255 -0.074,-0.0458 -0.111,-0.0666 -0.061,-0.0344 -0.123,-0.0641 -0.188,-0.0861 -0.038,-0.013 -0.076,-0.0239 -0.115,-0.0327 -0.075,-0.0169 -0.15,-0.0262 -0.227,-0.0287 -0.0275,-7.915e-4 -0.05454,-0.0036 -0.08231,-0.00261 -0.10528,0.00335 -0.21227,0.018032 -0.32022,0.045701 -0.0027,6.833e-4 -0.0051,6.1e-4 -0.0077,0.00131 -4.17e-4,1.091e-4 -8.67e-4,-1.095e-4 -0.0013,0 -0.21352,0.055984 -0.42935,0.15447 -0.64172,0.29379 -0.0013,-0.00177 -0.0027,-0.00346 -0.0039,-0.00523 -0.05874,-0.08385 -0.12264,-0.16415 -0.18904,-0.24287 -0.01612,-0.019113 -0.02975,-0.039955 -0.0463,-0.058759 1.41e-4,-2.98e-4 -1.39e-4,-0.001 0,-0.00131 0.03034,-0.064437 0.06698,-0.1503 0.09517,-0.24287 0.02811,-0.092777 0.04759,-0.19203 0.04373,-0.28204 -0.1228,0.14713 -0.15923,0.49538 -0.3588,0.29118 -0.02499,-0.025572 -0.04083,-0.048563 -0.04887,-0.069204 -0.008,-0.020641 -0.0075,-0.038635 -0.0026,-0.054841 0.0049,-0.015134 0.02435,-0.023612 0.0373,-0.035255 0.06942,-0.062461 0.22119,-0.083568 0.22119,-0.083568 0,0 -0.0013,-0.0013 -0.0013,-0.00131 0,-10e-6 -0.23756,-0.18287 -0.42567,-0.19194 -0.03135,-0.00151 -0.06146,0.00194 -0.08874,0.011751 -0.02677,0.00958 -0.05171,0.025989 -0.07202,0.049617 0.07702,-0.29333 -0.0013,-0.44965 -0.09902,-0.53274 -0.09785,-0.083226 -0.21476,-0.094013 -0.21476,-0.094013 0,0 -4e-6,0.0013 0,0.00131 2e-6,-2e-7 0.08755,0.094709 0.12474,0.205 0.0039,0.011757 0.01159,0.021901 0.01415,0.033949 8.4e-5,3.945e-4 -8.3e-5,9.132e-4 0,0.00131 0.0085,0.041287 0.0072,0.084216 -0.01029,0.12404 -1.79e-4,4.17e-4 1.84e-4,8.93e-4 0,0.00131 -0.012,0.0265 -0.033,0.0486 -0.059,0.0653 -0.009,0.0055 -0.02,0.0062 -0.03,0.0104 -0.019,0.008 -0.038,0.017 -0.059,0.0196 -0.052,-0.0318 -0.106,-0.0625 -0.159,-0.0927 -0.02,-0.011 -0.038,-0.0234 -0.058,-0.0339 -0.01646,-0.047345 -0.01989,-0.11053 0,-0.18803 2.75e-4,-0.00108 -2.86e-4,-0.00153 0,-0.00261 -0.124,-0.0448 -0.219,-0.01 -0.288,0.0495 -0.054,-0.0244 -0.109,-0.048 -0.164,-0.0705 l 0.04372,-0.2285 0.0553,-0.28465 -0.0013,0.00261 v -0.00261 l -0.27778,0.44265 c -0.041,-0.015 -0.082,-0.0291 -0.124,-0.0431 -0.01,-0.1352 -0.058,-0.2862 -0.198,-0.376 -0.047,-0.03 -0.104,-0.0534 -0.1739999,-0.0666 -0.047,0.1792 -0.141,0.2602 -0.242,0.282 -0.036,-0.007 -0.073,-0.0123 -0.109,-0.0182 -0.036,-0.0063 -0.072,-0.013 -0.108,-0.0183 -0.049,-0.0273 -0.091,-0.0642 -0.12,-0.1071 -0.028,-0.0428 -0.043,-0.0909 -0.038,-0.1384 0.0059,-0.061289 0.03539,-0.11389 0.07587,-0.15799 0.12194,-0.13135 0.34465,-0.18933 0.34465,-0.18933 0,0 -0.03844,-0.017774 -0.10031,-0.032644 -0.046,-0.0111 -0.106,-0.0205 -0.171,-0.0183 z m -12.105,14.987 v 0.35255 l -0.25206,-0.16061 v 0.19325 l -0.28421,-0.16061 0.06302,0.16061 -0.25334,-0.12796 0.03215,0.31991 -0.25206,-0.25593 0.09388,0.44787 -0.25206,-0.12796 0.22119,0.57714 -0.31636,-0.41653 0.22119,0.57714 -0.18904,-0.12796 0.25206,0.51316 -0.22119,-0.19325 0.25334,0.35255 -0.22119,-0.12796 c 0,0 1.1363,2.1808997 3.0311,3.4314997 0.47371,0.31264 1.0006,0.67129 1.5908,1.025 0.59022,0.35374 1.2437,0.70234 1.9702,0.99497 0.90794,0.36574 1.9297,0.64325 3.0851,0.73382 0.23136,0.01817 0.4675,0.02902 0.70988,0.03133 0.48382,0.0046 0.9898,-0.02327 1.5188,-0.09141 0.52898,-0.06814 0.98907,-0.20281 1.3889,-0.3865 0.3998,-0.18368 0.7388699,-0.41651 1.0274999,-0.68029 0.4327,-0.3954 0.75156,-0.86121 0.98508,-1.3371 v -0.0013 c 0.70071,-1.4286 0.64043,-2.9496997 0.64043,-2.9496997 -1.1803,2.7094997 -2.2417,3.5712997 -4.0328999,3.0814997 -0.16383,-0.04476 -0.33902,-0.10931 -0.51569,-0.17624 -0.26911,-0.1021 -0.5486,-0.22066 -0.85134,-0.37214 -3.3725,-1.6874 -8.2433,-4.6183997 -8.2433,-4.6183997 l -0.03087,0.22459 -0.47325,-0.41653 v 0.12796 l -0.22119,-0.22459 -0.03215,0.19325 -0.22119,-0.32121 v 0.25723 l -0.22119,-0.32121 z" />
  </g>
</svg>
