<?xml version="1.0" encoding="UTF-8" standalone="no"?>
<svg
   xmlns:dc="http://purl.org/dc/elements/1.1/"
   xmlns:cc="http://creativecommons.org/ns#"
   xmlns:rdf="http://www.w3.org/1999/02/22-rdf-syntax-ns#"
   xmlns:svg="http://www.w3.org/2000/svg"
   xmlns="http://www.w3.org/2000/svg"
   xmlns:sodipodi="http://sodipodi.sourceforge.net/DTD/sodipodi-0.dtd"
   xmlns:inkscape="http://www.inkscape.org/namespaces/inkscape"
   width="32"
   height="32"
   version="1"
   id="svg12"
   sodipodi:docname="io.elementary.code.svg"
   inkscape:version="0.92.1 r">
  <metadata
     id="metadata18">
    <rdf:RDF>
      <cc:Work
         rdf:about="">
        <dc:format>image/svg+xml</dc:format>
        <dc:type
           rdf:resource="http://purl.org/dc/dcmitype/StillImage" />
      </cc:Work>
    </rdf:RDF>
  </metadata>
  <defs
     id="defs16" />
  <sodipodi:namedview
     pagecolor="#ffffff"
     bordercolor="#666666"
     borderopacity="1"
     objecttolerance="10"
     gridtolerance="10"
     guidetolerance="10"
     inkscape:pageopacity="0"
     inkscape:pageshadow="2"
     inkscape:window-width="640"
     inkscape:window-height="480"
     id="namedview14"
     showgrid="false"
     inkscape:zoom="8.9375"
     inkscape:cx="-5.3706294"
     inkscape:cy="16"
     inkscape:current-layer="svg12" />
  <rect
     style="opacity:1;fill:#cccccc;fill-opacity:1;fill-rule:evenodd;stroke:none;stroke-width:1.03534329;stroke-linecap:round;stroke-linejoin:bevel;stroke-miterlimit:4;stroke-dasharray:none;stroke-dashoffset:0;stroke-opacity:1"
     id="rect4497-3"
     width="28.203388"
     height="28.203388"
     x="1.8983059"
     y="1.8983059"
     ry="5.575182"
     inkscape:export-filename="/home/ramil/3.png"
     inkscape:export-xdpi="71"
     inkscape:export-ydpi="71" />
  <path
     style="fill:#446f7d"
     d="m 14,11.484375 c -0.89872,9e-6 -1.892324,0.160004 -2.34375,0.4375 C 11.20896,12.195636 11,12.618124 11,13.203125 v 1.28125 c 0,0.348759 -0.16416,0.577502 -0.4375,0.75 C 10.293297,15.403131 9.55911,15.515629 9,15.515625 v 1 c 1.101651,2e-6 2,0.364993 2,1.0625 v 1.09375 c 0,0.641256 0.2067,1.121244 0.625,1.40625 0.422435,0.288751 1.418299,0.429997 2.375,0.4375 v -1.03125 c -0.476282,-0.0075 -1.476285,-0.0925 -1.6875,-0.25 C 12.101277,19.076874 12,18.854378 12,18.546875 v -1.1875 c 0,-0.306801 -0.114087,-1.208745 -1.0625,-1.34375 v -0.0625 C 11.885913,15.806877 12,15.079605 12,14.640625 v -1.1875 c 0,-0.307498 0.101283,-0.502491 0.3125,-0.65625 0.215357,-0.157495 1.21536,-0.262493 1.6875,-0.28125 z m 4,0 v 1.03125 c 0.47214,0.01876 1.472143,0.123755 1.6875,0.28125 C 19.898717,12.950634 20,13.145627 20,13.453125 v 1.1875 c 0,0.43898 0.114087,1.166252 1.0625,1.3125 v 0.0625 C 20.114087,16.15063 20,17.052574 20,17.359375 v 1.1875 c 0,0.307503 -0.101277,0.529999 -0.3125,0.6875 -0.211215,0.157499 -1.211218,0.2425 -1.6875,0.25 v 1.03125 c 0.956701,-0.0075 1.952565,-0.148749 2.375,-0.4375 C 20.7933,19.793119 21,19.313131 21,18.671875 v -1.09375 c 0,-0.697507 0.898349,-1.062498 2,-1.0625 v -1 c -0.55911,4e-6 -1.293297,-0.112494 -1.5625,-0.28125 C 21.16416,15.061877 21,14.833134 21,14.484375 v -1.28125 C 21,12.618124 20.79104,12.195636 20.34375,11.921875 19.892324,11.644379 18.89872,11.484384 18,11.484375 Z"
     id="path10"
     inkscape:connector-curvature="0" />
</svg>
