<?xml version="1.0" encoding="UTF-8" standalone="no"?>
<svg
   xmlns:dc="http://purl.org/dc/elements/1.1/"
   xmlns:cc="http://creativecommons.org/ns#"
   xmlns:rdf="http://www.w3.org/1999/02/22-rdf-syntax-ns#"
   xmlns:svg="http://www.w3.org/2000/svg"
   xmlns="http://www.w3.org/2000/svg"
   xmlns:sodipodi="http://sodipodi.sourceforge.net/DTD/sodipodi-0.dtd"
   xmlns:inkscape="http://www.inkscape.org/namespaces/inkscape"
   height="32"
   width="32"
   version="1"
   id="svg18"
   sodipodi:docname="k4dirstat.svg"
   inkscape:version="0.92.1 r">
  <metadata
     id="metadata24">
    <rdf:RDF>
      <cc:Work
         rdf:about="">
        <dc:format>image/svg+xml</dc:format>
        <dc:type
           rdf:resource="http://purl.org/dc/dcmitype/StillImage" />
      </cc:Work>
    </rdf:RDF>
  </metadata>
  <defs
     id="defs22" />
  <sodipodi:namedview
     pagecolor="#ffffff"
     bordercolor="#666666"
     borderopacity="1"
     objecttolerance="10"
     gridtolerance="10"
     guidetolerance="10"
     inkscape:pageopacity="0"
     inkscape:pageshadow="2"
     inkscape:window-width="640"
     inkscape:window-height="480"
     id="namedview20"
     showgrid="false"
     inkscape:zoom="8.9375"
     inkscape:cx="-5.3706294"
     inkscape:cy="16"
     inkscape:current-layer="svg18" />
  <rect
     style="opacity:1;fill:#c6ae91;fill-opacity:1;fill-rule:evenodd;stroke:none;stroke-width:1.03534329;stroke-linecap:round;stroke-linejoin:bevel;stroke-miterlimit:4;stroke-dasharray:none;stroke-dashoffset:0;stroke-opacity:1"
     id="rect4497-3"
     width="28.203388"
     height="28.203388"
     x="1.8983059"
     y="1.8983059"
     ry="5.575182"
     inkscape:export-filename="/home/ramil/3.png"
     inkscape:export-xdpi="71"
     inkscape:export-ydpi="71" />
  <g
     id="g4512">
    <path
       id="path4"
       d="m 16,11 c -2.7614,0 -5,2.2386 -5,5 h 10 c 0,-2.7614 -2.2386,-5 -5,-5 z"
       inkscape:connector-curvature="0"
       style="opacity:0.5;fill:#ffffff" />
    <g
       id="g10"
       transform="rotate(-90,16,16)"
       style="fill:#ffffff">
      <path
         id="path6"
         d="m 6,16 c 0,5.54 4.46,10 10,10 5.54,0 10,-4.46 10,-10 h -3 a 7,7 0 0 1 -7,7 7,7 0 0 1 -7,-7 z"
         inkscape:connector-curvature="0"
         style="opacity:0.5" />
      <path
         id="path8"
         d="M 6,16 C 6,10.46 10.46,6 16,6 21.54,6 26,10.46 26,16 H 23 A 7,7 0 0 0 16,9 7,7 0 0 0 9,16 Z"
         inkscape:connector-curvature="0" />
    </g>
    <path
       id="path12"
       d="m 16,21 c -2.7614,0 -5,-2.2386 -5,-5 h 10 c 0,2.7614 -2.2386,5 -5,5 z"
       inkscape:connector-curvature="0"
       style="fill:#ffffff" />
  </g>
</svg>
