<?xml version="1.0" encoding="UTF-8" standalone="no"?>
<svg
   xmlns:dc="http://purl.org/dc/elements/1.1/"
   xmlns:cc="http://creativecommons.org/ns#"
   xmlns:rdf="http://www.w3.org/1999/02/22-rdf-syntax-ns#"
   xmlns:svg="http://www.w3.org/2000/svg"
   xmlns="http://www.w3.org/2000/svg"
   xmlns:sodipodi="http://sodipodi.sourceforge.net/DTD/sodipodi-0.dtd"
   xmlns:inkscape="http://www.inkscape.org/namespaces/inkscape"
   height="32"
   width="32"
   version="1"
   id="svg26"
   sodipodi:docname="kdeconnect.svg"
   inkscape:version="0.92.1 r">
  <metadata
     id="metadata32">
    <rdf:RDF>
      <cc:Work
         rdf:about="">
        <dc:format>image/svg+xml</dc:format>
        <dc:type
           rdf:resource="http://purl.org/dc/dcmitype/StillImage" />
      </cc:Work>
    </rdf:RDF>
  </metadata>
  <defs
     id="defs30" />
  <sodipodi:namedview
     pagecolor="#ffffff"
     bordercolor="#666666"
     borderopacity="1"
     objecttolerance="10"
     gridtolerance="10"
     guidetolerance="10"
     inkscape:pageopacity="0"
     inkscape:pageshadow="2"
     inkscape:window-width="1680"
     inkscape:window-height="955"
     id="namedview28"
     showgrid="false"
     inkscape:zoom="7.375"
     inkscape:cx="-10.711864"
     inkscape:cy="16"
     inkscape:window-x="0"
     inkscape:window-y="0"
     inkscape:window-maximized="1"
     inkscape:current-layer="svg26" />
  <rect
     opacity="0"
     height="32"
     width="32"
     y="-10.51"
     x="-46.97"
     id="rect4" />
  <rect
     style="opacity:1;fill:#7e8687;fill-opacity:1;fill-rule:evenodd;stroke:none;stroke-width:1.03534329;stroke-linecap:round;stroke-linejoin:bevel;stroke-miterlimit:4;stroke-dasharray:none;stroke-dashoffset:0;stroke-opacity:1"
     id="rect4497"
     width="28.203388"
     height="28.203388"
     x="1.8983059"
     y="1.8983059"
     ry="5.575182" />
  <g
     id="g4525"
     transform="matrix(0.8779661,0,0,0.8779661,1.9525424,1.5135593)">
    <path
       id="path16"
       d="m 7.5,25 h 3 c 0.831,0 1.5,0.669 1.5,1.5 0,0.831 -0.669,1.5 -1.5,1.5 h -3 C 6.669,28 6,27.331 6,26.5 6,25.669 6.669,25 7.5,25 Z"
       inkscape:connector-curvature="0"
       style="fill:#92e763" />
    <path
       id="path18"
       d="m 21.5,25 h 3 c 0.831,0 1.5,0.669 1.5,1.5 0,0.831 -0.669,1.5 -1.5,1.5 h -3 C 20.669,28 20,27.331 20,26.5 20,25.669 20.669,25 21.5,25 Z"
       inkscape:connector-curvature="0"
       style="fill:#e76363" />
    <path
       id="path22"
       d="m 17.327,5 -2.8108,0.25567 v 10.955 l 2.7808,-0.3977 v -4.6706 l 3.7417,5.1819 2.9309,-0.88069 -3.8318,-4.983 3.8619,-4.6989 -2.991,-0.64776 -3.7117,4.699 0.02999,-4.8126 z m -6.3724,2.6705 c -0.03173,0.0059 -0.06616,0.011237 -0.09009,0.03429 l -1.1053,1.0455 C 9.712825,8.794625 9.707174,8.86173 9.741224,8.91506 l 1.2913,2.0171 c -0.22929,0.36464 -0.41548,0.75577 -0.54655,1.1704 l -2.3724,0.46591 c -0.066043,0.01273 -0.11411,0.0722 -0.11411,0.1362 v 1.4773 c 0,0.06249 0.050196,0.11599 0.11411,0.1307 l 2.3003,0.5284 c 0.123,0.48012 0.31303,0.93952 0.56456,1.358 l -1.3333,1.9205 c -0.0372,0.05335 -0.029935,0.12519 0.017985,0.17044 l 1.1051,1.0455 c 0.04652,0.04382 0.11796,0.04937 0.17418,0.0168 l 2.0901,-1.1989 c 0.40994,0.22389 0.85377,0.40326 1.3213,0.52273 l 0.48649,2.2159 c 0.015,0.064 0.071,0.109 0.139,0.109 h 1.5616 c 0.06553,0 0.12258,-0.04153 0.13814,-0.10229 l 0.57658,-2.2273 c 0.48221,-0.12301 0.93685,-0.30558 1.3574,-0.5398 l 2.0601,1.2784 c 0.05677,0.03477 0.13204,0.02804 0.18019,-0.01684 l 1.0991,-1.0455 c 0.04668,-0.04433 0.05824,-0.11155 0.02407,-0.16478 l -0.75076,-1.1704 -0.24625,0.07382 c -0.03557,0.01064 -0.07496,-0.0059 -0.0961,-0.03429 0,0 -0.47424,-0.66 -1.0931,-1.517 -0.74013,1.3701 -2.2495,2.3068 -3.988,2.3068 -2.4703,0 -4.4745,-1.896 -4.4745,-4.233 0,-1.719 1.0866,-3.1955 2.6426,-3.858 v -1.0909 c -0.2832,0.093755 -0.55678,0.20688 -0.81682,0.34089 -3.27e-4,-2.306e-4 5.32e-4,-0.0059 0,-0.0059 l -2.108,-1.3055 c -0.02833,-0.01736 -0.05835,-0.020175 -0.09009,-0.016822 z"
       inkscape:connector-curvature="0"
       style="fill:#ffffff" />
  </g>
</svg>
