<?xml version="1.0" encoding="UTF-8" standalone="no"?>
<svg
   xmlns:dc="http://purl.org/dc/elements/1.1/"
   xmlns:cc="http://creativecommons.org/ns#"
   xmlns:rdf="http://www.w3.org/1999/02/22-rdf-syntax-ns#"
   xmlns:svg="http://www.w3.org/2000/svg"
   xmlns="http://www.w3.org/2000/svg"
   xmlns:sodipodi="http://sodipodi.sourceforge.net/DTD/sodipodi-0.dtd"
   xmlns:inkscape="http://www.inkscape.org/namespaces/inkscape"
   height="32"
   width="32"
   version="1"
   id="svg12"
   sodipodi:docname="kdevelop.svg"
   inkscape:version="0.92.1 r">
  <metadata
     id="metadata18">
    <rdf:RDF>
      <cc:Work
         rdf:about="">
        <dc:format>image/svg+xml</dc:format>
        <dc:type
           rdf:resource="http://purl.org/dc/dcmitype/StillImage" />
      </cc:Work>
    </rdf:RDF>
  </metadata>
  <defs
     id="defs16" />
  <sodipodi:namedview
     pagecolor="#ffffff"
     bordercolor="#666666"
     borderopacity="1"
     objecttolerance="10"
     gridtolerance="10"
     guidetolerance="10"
     inkscape:pageopacity="0"
     inkscape:pageshadow="2"
     inkscape:window-width="640"
     inkscape:window-height="480"
     id="namedview14"
     showgrid="false"
     inkscape:zoom="8.9375"
     inkscape:cx="-5.3706294"
     inkscape:cy="16"
     inkscape:current-layer="svg12" />
  <rect
     style="opacity:1;fill:#6eaa36;fill-opacity:1;fill-rule:evenodd;stroke:none;stroke-width:1.03534329;stroke-linecap:round;stroke-linejoin:bevel;stroke-miterlimit:4;stroke-dasharray:none;stroke-dashoffset:0;stroke-opacity:1"
     id="rect4497-3"
     width="28.203388"
     height="28.203388"
     x="1.8983059"
     y="1.8983059"
     ry="5.575182"
     inkscape:export-filename="/home/ramil/3.png"
     inkscape:export-xdpi="71"
     inkscape:export-ydpi="71" />
  <g
     id="g4503"
     transform="translate(42.986764,8.8323591)">
    <path
       inkscape:connector-curvature="0"
       id="path2"
       style="fill:#f2f2f2;stroke-width:1;enable-background:new"
       d="m -29.146442,-3.3833808 c -0.223082,0.024343 -0.421293,0.2071043 -0.461991,0.4283773 l -0.444656,2.25945682 c -0.798874,0.3125406 -1.550268,0.74129477 -2.209263,1.26885307 l -2.193286,-0.7418977 c -0.227755,-0.0785308 -0.503216,0.023514 -0.625609,0.2311459 l -2.110761,3.65952121 c -0.118927,0.2102696 -0.06707,0.501934 0.116289,0.6594478 l 1.747198,1.5336874 c -0.0615,0.4107418 -0.09858,0.8244982 -0.09858,1.2525741 0,0.4280759 0.03708,0.8418323 0.09858,1.2525741 l -1.747198,1.5336872 c -0.183289,0.1575136 -0.235216,0.4491786 -0.116289,0.6594476 l 2.110761,3.659748 c 0.122393,0.207255 0.397854,0.309752 0.625609,0.230618 l 2.193286,-0.741596 c 0.658995,0.527558 1.410389,0.957895 2.209263,1.270662 l 0.444656,2.257949 c 0.04522,0.235894 0.269809,0.425061 0.510978,0.428076 h 4.219713 c 0.241169,-0.003 0.467266,-0.192182 0.512485,-0.428076 l 0.444656,-2.257949 c 0.798874,-0.312767 1.550268,-0.743104 2.209716,-1.270662 l 2.191628,0.741596 c 0.227604,0.07913 0.504195,-0.02336 0.627041,-0.230618 l 2.110986,-3.659748 c 0.118324,-0.210269 0.06708,-0.501934 -0.116816,-0.6594476 l -1.746972,-1.5336872 c 0.0618,-0.4107418 0.09873,-0.8244982 0.09873,-1.2525741 0,-0.4280759 -0.03768,-0.8418323 -0.09873,-1.2525741 l 1.746972,-1.5336874 c 0.183138,-0.1575138 0.23514,-0.4491782 0.116816,-0.6594478 l -2.110986,-3.65952121 c -0.122846,-0.20755651 -0.399437,-0.30967672 -0.627041,-0.2311459 l -2.191628,0.7418977 c -0.659448,-0.5275583 -1.410842,-0.95631247 -2.209716,-1.26885307 l -0.444656,-2.25945682 c -0.04522,-0.2364215 -0.271316,-0.4251366 -0.512485,-0.4283773 h -4.219713 c -0.01658,-3.844e-4 -0.03241,-3.844e-4 -0.04899,0 z" />
    <path
       inkscape:connector-curvature="0"
       id="path6"
       style="fill:#6eaa36;fill-opacity:1;stroke-width:1;enable-background:new"
       d="m -28.224723,2.2690295 v 3.3914462 l 3.014619,-3.3914462 3.014619,0.3768273 -4.521928,4.8987557 4.521928,4.5219285 -3.014619,0.376827 -3.014619,-3.0146189 v 2.6377919 l -2.260964,0.376827 V 2.6458568 Z" />
  </g>
</svg>
