<?xml version="1.0" encoding="UTF-8" standalone="no"?>
<svg
   xmlns:dc="http://purl.org/dc/elements/1.1/"
   xmlns:cc="http://creativecommons.org/ns#"
   xmlns:rdf="http://www.w3.org/1999/02/22-rdf-syntax-ns#"
   xmlns:svg="http://www.w3.org/2000/svg"
   xmlns="http://www.w3.org/2000/svg"
   xmlns:sodipodi="http://sodipodi.sourceforge.net/DTD/sodipodi-0.dtd"
   xmlns:inkscape="http://www.inkscape.org/namespaces/inkscape"
   width="32"
   height="32"
   version="1"
   id="svg16"
   sodipodi:docname="kfilereplace.svg"
   inkscape:version="0.92.1 r">
  <metadata
     id="metadata22">
    <rdf:RDF>
      <cc:Work
         rdf:about="">
        <dc:format>image/svg+xml</dc:format>
        <dc:type
           rdf:resource="http://purl.org/dc/dcmitype/StillImage" />
        <dc:title></dc:title>
      </cc:Work>
    </rdf:RDF>
  </metadata>
  <defs
     id="defs20" />
  <sodipodi:namedview
     pagecolor="#ffffff"
     bordercolor="#666666"
     borderopacity="1"
     objecttolerance="10"
     gridtolerance="10"
     guidetolerance="10"
     inkscape:pageopacity="0"
     inkscape:pageshadow="2"
     inkscape:window-width="1680"
     inkscape:window-height="963"
     id="namedview18"
     showgrid="false"
     inkscape:zoom="7.375"
     inkscape:cx="-12.300251"
     inkscape:cy="29.786679"
     inkscape:window-x="0"
     inkscape:window-y="0"
     inkscape:window-maximized="1"
     inkscape:current-layer="svg16" />
  <rect
     style="opacity:1;fill:#e6e6e6;fill-opacity:1;fill-rule:evenodd;stroke:none;stroke-width:1.03534329;stroke-linecap:round;stroke-linejoin:bevel;stroke-miterlimit:4;stroke-dasharray:none;stroke-dashoffset:0;stroke-opacity:1"
     id="rect4497-3"
     width="28.203388"
     height="28.203388"
     x="1.8983059"
     y="1.8983059"
     ry="5.575182" />
  <g
     id="g4584"
     transform="translate(-0.2619876,-0.02900185)">
    <path
       sodipodi:nodetypes="ccccccccccccccccccccccccccccc"
       inkscape:connector-curvature="0"
       id="path4527-3"
       d="m 8.8626012,18.843945 c -0.377907,-0.08033 -0.714022,-0.257189 -0.98579,-0.518706 -0.269976,-0.259794 -0.457098,-0.583956 -0.535531,-0.92772 l -0.04355,-0.190874 0.006,-4.585549 0.006,-4.5855475 0.06899,-0.198011 c 0.12804,-0.367522 0.330433,-0.658423 0.618402,-0.888822 0.327883,-0.262344 0.694913,-0.406806 1.13386,-0.446296 0.161314,-0.01451 1.4400338,-0.01926 3.8273158,-0.01416 3.895453,0.0083 3.639573,6.89e-4 3.981088,0.119123 0.629072,0.218277 1.09558,0.719345 1.265292,1.35902 0.04569,0.172206 0.04605,0.187088 0.053,2.2108125 l 0.007,2.037443 h -1.00135 -1.001346 v -1.90717 -1.9071725 h -3.49127 -3.4912708 v 4.2937405 4.293741 h 1.9905438 1.990549 v 0.948373 0.948377 l -2.110398,-0.0014 c -1.9525458,-0.0014 -2.1236448,-0.0043 -2.2875608,-0.03912 z"
       style="fill:#8400ff;fill-opacity:1;stroke-width:0.99999988" />
    <path
       sodipodi:nodetypes="cccsccccscccsccccccccccccc"
       inkscape:connector-curvature="0"
       id="path4527-6"
       d="m 16.059368,25.553008 c -0.842206,-0.08148 -1.53623,-0.668302 -1.741142,-1.472182 l -0.04676,-0.183453 v -4.533437 c 0,-4.232357 0.0024,-4.542767 0.03612,-4.67387 0.09736,-0.378575 0.261951,-0.674408 0.517255,-0.929712 0.246825,-0.246828 0.508642,-0.399635 0.889326,-0.519054 l 0.18309,-0.05743 3.778082,-0.0056 c 3.6409,-0.0054 3.785075,-0.0042 3.970668,0.03397 0.423251,0.08694 0.779678,0.28434 1.069539,0.592332 0.182102,0.19349 0.268749,0.325843 0.373924,0.571152 0.144303,0.336573 0.135207,3.44e-4 0.135207,4.996392 0,3.872957 -0.0043,4.532576 -0.03039,4.656574 -0.176661,0.839805 -0.88802,1.445771 -1.79109,1.525717 -0.278015,0.0246 -7.088379,0.02333 -7.343828,-0.0014 z m 7.185184,-6.189072 v -4.293741 h -3.49127 -3.491269 v 4.293741 4.293738 h 3.491269 3.49127 z"
       style="fill:#00b471;fill-opacity:1;stroke-width:0.99999988" />
    <path
       sodipodi:nodetypes="ccscccccccccccscccc"
       inkscape:connector-curvature="0"
       id="path4527-6-7"
       d="m 9.9360022,24.676754 c -0.89418,-0.857491 -1.632818,-1.559502 -1.641415,-1.560028 -0.0086,-6.83e-4 -0.01564,0.552435 -0.01564,1.228806 v 1.229758 h -0.990062 -0.990062 v -2.865966 -2.865966 h 2.99124 2.9912388 l -0.0054,0.953583 -0.0054,0.953586 -1.277821,0.01041 -1.2778178,0.01041 1.6217338,1.551202 c 0.891954,0.85316 1.624318,1.557334 1.627474,1.564835 0.0054,0.01275 -1.265779,1.242531 -1.359397,1.315168 -0.04139,0.03211 -0.09802,-0.01968 -1.6686348,-1.525821 z"
       style="fill:#00b471;fill-opacity:1;stroke-width:0.99999988" />
    <path
       sodipodi:nodetypes="ccscccccccccccscccc"
       inkscape:connector-curvature="0"
       id="path4527-6-7-5"
       d="m 22.587973,7.3812497 c 0.89418,0.857491 1.632818,1.5595025 1.641415,1.5600285 0.0086,6.83e-4 0.01564,-0.5524355 0.01564,-1.2288065 v -1.229758 h 0.990062 0.990062 v 2.8659665 2.8659658 h -2.99124 -2.991239 l 0.0054,-0.953583 0.0054,-0.953586 1.277821,-0.01041 1.277818,-0.01041 -1.621734,-1.5512018 C 20.295424,7.8822947 19.56306,7.1781207 19.559904,7.1706197 c -0.0054,-0.01275 1.265779,-1.242531 1.359397,-1.315168 0.04139,-0.03211 0.09802,0.01968 1.668635,1.525821 z"
       style="fill:#8400ff;fill-opacity:1;stroke-width:0.99999988" />
  </g>
</svg>
