<?xml version="1.0" encoding="UTF-8" standalone="no"?>
<svg
   xmlns:dc="http://purl.org/dc/elements/1.1/"
   xmlns:cc="http://creativecommons.org/ns#"
   xmlns:rdf="http://www.w3.org/1999/02/22-rdf-syntax-ns#"
   xmlns:svg="http://www.w3.org/2000/svg"
   xmlns="http://www.w3.org/2000/svg"
   xmlns:sodipodi="http://sodipodi.sourceforge.net/DTD/sodipodi-0.dtd"
   xmlns:inkscape="http://www.inkscape.org/namespaces/inkscape"
   width="32"
   height="32"
   version="1"
   id="svg18"
   sodipodi:docname="kfloppy.svg"
   inkscape:version="0.92.1 r">
  <metadata
     id="metadata24">
    <rdf:RDF>
      <cc:Work
         rdf:about="">
        <dc:format>image/svg+xml</dc:format>
        <dc:type
           rdf:resource="http://purl.org/dc/dcmitype/StillImage" />
      </cc:Work>
    </rdf:RDF>
  </metadata>
  <defs
     id="defs22" />
  <sodipodi:namedview
     pagecolor="#ffffff"
     bordercolor="#666666"
     borderopacity="1"
     objecttolerance="10"
     gridtolerance="10"
     guidetolerance="10"
     inkscape:pageopacity="0"
     inkscape:pageshadow="2"
     inkscape:window-width="1680"
     inkscape:window-height="963"
     id="namedview20"
     showgrid="false"
     inkscape:zoom="14.75"
     inkscape:cx="10.600829"
     inkscape:cy="14.730477"
     inkscape:window-x="0"
     inkscape:window-y="0"
     inkscape:window-maximized="1"
     inkscape:current-layer="svg18" />
  <g
     id="g4509"
     transform="translate(45.423727,1.8983059)">
    <rect
       ry="5.575182"
       y="0"
       x="-43.525421"
       height="28.203388"
       width="28.203388"
       id="rect4497"
       style="opacity:1;fill:#5b5b5b;fill-opacity:1;fill-rule:evenodd;stroke:none;stroke-width:1.03534329;stroke-linecap:round;stroke-linejoin:bevel;stroke-miterlimit:4;stroke-dasharray:none;stroke-dashoffset:0;stroke-opacity:1" />
    <path
       style="fill:#b7b7b7"
       inkscape:connector-curvature="0"
       id="path10"
       d="m -35.985491,0 c -0.114,0.1967 -0.184,0.4214 -0.184,0.66599998 V 8.666 c 0,0.739 0.595,1.334001 1.334,1.334001 h 13.332 c 0.739,0 1.334,-0.595001 1.334,-1.334001 V 0.66599998 C -20.169491,0.4214 -20.239491,0.1967 -20.353491,0 Z m 9.5312,2 h 3.5703 c 0.396,0 0.715,0.2967 0.715,0.666 v 4.668 c 0,0.369 -0.319,0.666 -0.715,0.666 h -3.5703 c -0.396,0 -0.715,-0.297 -0.715,-0.666 V 2.666 c 0,-0.3693 0.319,-0.666 0.715,-0.666 z" />
  </g>
  <g
     id="g4513"
     transform="translate(0,1.9832007)">
    <path
       style="fill:#ffffff"
       inkscape:connector-curvature="0"
       id="path12"
       d="m 7.25,12.423729 c -0.6925,0 -1.25,0.595 -1.25,1.334 v 7.666 h 20 v -7.666 c 0,-0.739 -0.558,-1.334 -1.25,-1.334 z m -0.8848,11.609 c 0.1695,0.181 0.3883,0.311 0.6328,0.364 -0.2445,-0.053 -0.4633,-0.183 -0.6328,-0.364 z m 19.27,0 c -0.17,0.181 -0.389,0.311 -0.633,0.364 0.245,-0.053 0.463,-0.183 0.633,-0.364 z" />
    <path
       style="fill:#ffae3f"
       inkscape:connector-curvature="0"
       id="path16"
       d="m 26,21.423729 v 1.6667 c 0,0.738 -0.558,1.333 -1.25,1.333 H 7.25 c -0.6925,0 -1.25,-0.595 -1.25,-1.333 v -1.667 z" />
  </g>
</svg>
