<?xml version="1.0" encoding="UTF-8" standalone="no"?>
<svg
   xmlns:dc="http://purl.org/dc/elements/1.1/"
   xmlns:cc="http://creativecommons.org/ns#"
   xmlns:rdf="http://www.w3.org/1999/02/22-rdf-syntax-ns#"
   xmlns:svg="http://www.w3.org/2000/svg"
   xmlns="http://www.w3.org/2000/svg"
   xmlns:sodipodi="http://sodipodi.sourceforge.net/DTD/sodipodi-0.dtd"
   xmlns:inkscape="http://www.inkscape.org/namespaces/inkscape"
   height="32"
   width="32"
   version="1"
   id="svg16"
   sodipodi:docname="kimagemapeditor.svg"
   inkscape:version="0.92.1 r">
  <metadata
     id="metadata22">
    <rdf:RDF>
      <cc:Work
         rdf:about="">
        <dc:format>image/svg+xml</dc:format>
        <dc:type
           rdf:resource="http://purl.org/dc/dcmitype/StillImage" />
        <dc:title />
      </cc:Work>
    </rdf:RDF>
  </metadata>
  <defs
     id="defs20" />
  <sodipodi:namedview
     pagecolor="#ffffff"
     bordercolor="#666666"
     borderopacity="1"
     objecttolerance="10"
     gridtolerance="10"
     guidetolerance="10"
     inkscape:pageopacity="0"
     inkscape:pageshadow="2"
     inkscape:window-width="1680"
     inkscape:window-height="955"
     id="namedview18"
     showgrid="false"
     inkscape:zoom="5.2149125"
     inkscape:cx="-28.000637"
     inkscape:cy="16.886248"
     inkscape:window-x="0"
     inkscape:window-y="0"
     inkscape:window-maximized="1"
     inkscape:current-layer="svg16" />
  <rect
     style="opacity:1;fill:#e9e5dc;fill-opacity:1;fill-rule:evenodd;stroke:none;stroke-width:1.03534329;stroke-linecap:round;stroke-linejoin:bevel;stroke-miterlimit:4;stroke-dasharray:none;stroke-dashoffset:0;stroke-opacity:1"
     id="rect4497-3-3"
     width="28.203388"
     height="28.203388"
     x="1.8983059"
     y="1.8983059"
     ry="5.575182" />
  <path
     style="opacity:1;fill:#2095f2;fill-opacity:1;fill-rule:evenodd;stroke:none;stroke-width:1.03534329;stroke-linecap:round;stroke-linejoin:bevel;stroke-miterlimit:4;stroke-dasharray:none;stroke-dashoffset:0;stroke-opacity:1"
     d="M 27.492188 29.130859 L 16.417969 18.060547 L 5.0273438 29.482422 C 5.7724601 29.850495 6.5823485 30.101563 7.4726562 30.101562 L 24.527344 30.101562 C 25.644542 30.101563 26.621885 29.692169 27.492188 29.130859 z "
     id="path4558" />
  <path
     style="opacity:1;fill:#ffe500;fill-opacity:1;fill-rule:evenodd;stroke:none;stroke-width:1.03534329;stroke-linecap:round;stroke-linejoin:bevel;stroke-miterlimit:4;stroke-dasharray:none;stroke-dashoffset:0;stroke-opacity:1"
     d="M 29.722656 26.412109 L 18.890625 15.580078 L 16.417969 18.060547 L 27.492188 29.130859 C 28.506449 28.476703 29.305734 27.56662 29.722656 26.412109 z "
     id="path4556" />
  <path
     style="opacity:1;fill:#00a31c;fill-opacity:1;fill-rule:evenodd;stroke:none;stroke-width:1.03534329;stroke-linecap:round;stroke-linejoin:bevel;stroke-miterlimit:4;stroke-dasharray:none;stroke-dashoffset:0;stroke-opacity:1"
     d="M 29.453125 4.9863281 L 18.890625 15.580078 L 29.722656 26.412109 C 29.937028 25.818486 30.101562 25.1968 30.101562 24.527344 L 30.101562 7.4726562 C 30.101562 6.564125 29.835459 5.7427014 29.453125 4.9863281 z "
     id="path4553" />
  <path
     style="opacity:1;fill:#ffffff;fill-opacity:1;fill-rule:evenodd;stroke:none;stroke-width:1.03534329;stroke-linecap:round;stroke-linejoin:bevel;stroke-miterlimit:4;stroke-dasharray:none;stroke-dashoffset:0;stroke-opacity:1"
     d="M 27.029297 2.5566406 L 2.546875 27.015625 C 3.0897209 28.088752 3.9483651 28.949427 5.0273438 29.482422 L 29.453125 4.9863281 C 28.920811 3.933247 28.080332 3.0923645 27.029297 2.5566406 z "
     id="path4551" />
  <path
     style="opacity:1;fill:#e9e5dc;fill-opacity:1;fill-rule:evenodd;stroke:none;stroke-width:1.03534329;stroke-linecap:round;stroke-linejoin:bevel;stroke-miterlimit:4;stroke-dasharray:none;stroke-dashoffset:0;stroke-opacity:1"
     d="M 7.4726562 1.8984375 C 4.3840054 1.8984375 1.8984375 4.3840054 1.8984375 7.4726562 L 1.8984375 24.527344 C 1.8984375 25.436461 2.1640787 26.258893 2.546875 27.015625 L 27.029297 2.5566406 C 26.268859 2.1690371 25.442536 1.8984375 24.527344 1.8984375 L 7.4726562 1.8984375 z "
     id="rect4497-3" />
  <g
     id="g4562"
     transform="matrix(0.57627225,0,0,0.57627225,34.443308,8.6856377)"
     style="stroke-width:1.73529088">
    <path
       inkscape:connector-curvature="0"
       d="m -43.033818,-6.8220339 c -4.4183,0 -8.0001,3.517 -8.0001,7.8553 0,0.2711 0.02272,0.5214 0.04992,0.7855 0.02192,0.2628 0.05728,0.5282 0.1,0.7855 0.91598,5.5214 4.6501,9.4315999 7.8502,12.5739999 3.2,-3.1421 6.934,-7.0522999 7.85,-12.5739999 0.04272,-0.2573 0.07808,-0.5227 0.1,-0.7855 0.02736,-0.2641 0.04992,-0.5144 0.04992,-0.7855 0,-4.338 -3.582,-7.855 -8,-7.855 z"
       style="fill:#f34235;stroke-width:1.73529088;enable-background:new"
       id="path18" />
    <path
       inkscape:connector-curvature="0"
       d="m -43.033818,-2.8220339 c 1.6568,0 3,1.3432 3,3 0,1.6569 -1.3431,3 -3,3 -1.6569,0 -3,-1.3431 -3,-3 0,-1.6568 1.3431,-3 3,-3 z"
       style="fill:#ffffff;stroke-width:1.73529088;enable-background:new"
       id="path22" />
  </g>
</svg>
