<?xml version="1.0" encoding="UTF-8" standalone="no"?>
<svg
   xmlns:dc="http://purl.org/dc/elements/1.1/"
   xmlns:cc="http://creativecommons.org/ns#"
   xmlns:rdf="http://www.w3.org/1999/02/22-rdf-syntax-ns#"
   xmlns:svg="http://www.w3.org/2000/svg"
   xmlns="http://www.w3.org/2000/svg"
   xmlns:sodipodi="http://sodipodi.sourceforge.net/DTD/sodipodi-0.dtd"
   xmlns:inkscape="http://www.inkscape.org/namespaces/inkscape"
   height="32"
   width="32"
   version="1"
   id="svg21"
   sodipodi:docname="kipi-rajce.svg"
   inkscape:version="0.92.1 r">
  <metadata
     id="metadata25">
    <rdf:RDF>
      <cc:Work
         rdf:about="">
        <dc:format>image/svg+xml</dc:format>
        <dc:type
           rdf:resource="http://purl.org/dc/dcmitype/StillImage" />
        <dc:title></dc:title>
      </cc:Work>
    </rdf:RDF>
  </metadata>
  <sodipodi:namedview
     pagecolor="#ffffff"
     bordercolor="#666666"
     borderopacity="1"
     objecttolerance="10"
     gridtolerance="10"
     guidetolerance="10"
     inkscape:pageopacity="0"
     inkscape:pageshadow="2"
     inkscape:window-width="640"
     inkscape:window-height="480"
     id="namedview23"
     showgrid="false"
     inkscape:zoom="8.8125"
     inkscape:cx="-32.794326"
     inkscape:cy="16"
     inkscape:current-layer="svg21" />
  <defs
     id="defs5">
    <clipPath
       id="clipPath4186"
       clipPathUnits="userSpaceOnUse">
      <circle
         cx="286"
         cy="26"
         r="10"
         fill="url(#linearGradient4190)"
         id="circle2" />
    </clipPath>
  </defs>
  <path
     inkscape:connector-curvature="0"
     style="opacity:1;fill:#8a1c13;fill-opacity:1;fill-rule:evenodd;stroke:none;stroke-width:1.03534329;stroke-linecap:round;stroke-linejoin:bevel;stroke-miterlimit:4;stroke-dasharray:none;stroke-dashoffset:0;stroke-opacity:1"
     d="M 1.898437,11.130859 V 24.52539 c 0,3.088651 2.487522,5.576172 5.576172,5.576172 h 17.052735 c 3.088651,0 5.574219,-2.487521 5.574219,-5.576172 V 7.4726563 c 0,-0.3197777 -0.128472,-0.5956125 -0.179688,-0.9003907 C 28.146393,6.4746537 26.317931,6.3651885 24.425781,5.9316406 23.230262,5.6577118 22.039545,5.3015524 20.886719,4.8417969 19.733892,4.3820415 18.619131,3.8184436 17.578125,3.1328125 c 0.705734,1.0387112 1.240359,2.0803382 1.636719,3.1074219 0.39636,1.0270838 0.654514,2.0398029 0.804687,3.0214845 0.150174,0.9816811 0.192982,1.9334321 0.160156,2.8359371 -0.03283,0.902505 -0.140332,1.755369 -0.292968,2.544922 -0.305272,1.579106 -0.787972,2.899567 -1.19336,3.824219 -0.405387,0.924651 -0.734375,1.455078 -0.734375,1.455078 0,0 -1.086949,-1.077467 -2.304687,-2.875 -0.608869,-0.898767 -1.250298,-1.979049 -1.804688,-3.19336 C 13.29522,12.639204 12.82704,11.290237 12.566406,9.8496094 12.15186,7.5550086 12.12711,5.7567781 12.304687,4.3535156 11.875125,5.0337146 11.282815,5.7480381 10.472656,6.46875 9.662497,7.1894621 8.633744,7.9159188 7.328125,8.6152344 5.216914,9.7460255 3.472582,10.506657 1.898437,11.130859 Z"
     id="path4524" />
  <path
     inkscape:connector-curvature="0"
     style="opacity:1;fill:#50b344;fill-opacity:1;fill-rule:evenodd;stroke:none;stroke-width:1.03534329;stroke-linecap:round;stroke-linejoin:bevel;stroke-miterlimit:4;stroke-dasharray:none;stroke-dashoffset:0;stroke-opacity:1"
     d="M 1.898437,11.130859 C 3.472582,10.506657 5.216914,9.7460255 7.328125,8.6152344 8.633744,7.9159188 9.662497,7.1894621 10.472656,6.46875 11.282815,5.748038 11.875125,5.0337146 12.304687,4.3535156 12.12711,5.7567781 12.15186,7.5550085 12.566406,9.8496094 c 0.260634,1.4406276 0.728814,2.7895946 1.283203,4.0039056 0.55439,1.214311 1.195819,2.294593 1.804688,3.19336 1.217738,1.797533 2.304687,2.875 2.304687,2.875 0,0 0.328988,-0.530427 0.734375,-1.455078 0.405388,-0.924652 0.888088,-2.245113 1.19336,-3.824219 0.152636,-0.789553 0.260143,-1.642417 0.292968,-2.544922 0.03283,-0.902505 -0.01,-1.854256 -0.160156,-2.8359371 C 19.869358,8.2800373 19.611204,7.2673182 19.214844,6.2402344 18.818484,5.2131507 18.283859,4.1715237 17.578125,3.1328126 c 1.041006,0.685631 2.155767,1.2492289 3.308594,1.7089843 1.152826,0.4597554 2.343543,0.8159149 3.539062,1.0898437 1.89215,0.4335479 3.720612,0.5430135 5.496094,0.640625 -0.443462,-2.6389947 -2.625658,-4.673828 -5.394531,-4.673828 H 7.474609 c -3.08865,0 -5.576172,2.485568 -5.576172,5.5742187 z"
     id="rect4497-3" />
</svg>
