<?xml version="1.0" encoding="UTF-8" standalone="no"?>
<svg
   xmlns:dc="http://purl.org/dc/elements/1.1/"
   xmlns:cc="http://creativecommons.org/ns#"
   xmlns:rdf="http://www.w3.org/1999/02/22-rdf-syntax-ns#"
   xmlns:svg="http://www.w3.org/2000/svg"
   xmlns="http://www.w3.org/2000/svg"
   xmlns:sodipodi="http://sodipodi.sourceforge.net/DTD/sodipodi-0.dtd"
   xmlns:inkscape="http://www.inkscape.org/namespaces/inkscape"
   height="32"
   width="32"
   version="1"
   id="svg23"
   sodipodi:docname="klinkstatus.svg"
   inkscape:version="0.92.1 r">
  <metadata
     id="metadata27">
    <rdf:RDF>
      <cc:Work
         rdf:about="">
        <dc:format>image/svg+xml</dc:format>
        <dc:type
           rdf:resource="http://purl.org/dc/dcmitype/StillImage" />
        <dc:title></dc:title>
      </cc:Work>
    </rdf:RDF>
  </metadata>
  <sodipodi:namedview
     pagecolor="#ffffff"
     bordercolor="#666666"
     borderopacity="1"
     objecttolerance="10"
     gridtolerance="10"
     guidetolerance="10"
     inkscape:pageopacity="0"
     inkscape:pageshadow="2"
     inkscape:window-width="1680"
     inkscape:window-height="965"
     id="namedview25"
     showgrid="false"
     inkscape:zoom="14.75"
     inkscape:cx="-2.0189594"
     inkscape:cy="13.456069"
     inkscape:window-x="0"
     inkscape:window-y="0"
     inkscape:window-maximized="1"
     inkscape:current-layer="svg23" />
  <defs
     id="defs7">
    <linearGradient
       id="linearGradient4282"
       y2="506.8"
       gradientUnits="userSpaceOnUse"
       y1="540.8"
       gradientTransform="matrix(0.08468141,0,0,0.08468141,-71.749919,-53.574973)"
       x2="409.57"
       x1="409.57">
      <stop
         stop-color="#2a2c2f"
         offset="0"
         id="stop2" />
      <stop
         stop-color="#424649"
         offset="1"
         id="stop4" />
    </linearGradient>
  </defs>
  <rect
     style="opacity:1;fill:#e6e6e6;fill-opacity:1;fill-rule:evenodd;stroke:none;stroke-width:1.03534329;stroke-linecap:round;stroke-linejoin:bevel;stroke-miterlimit:4;stroke-dasharray:none;stroke-dashoffset:0;stroke-opacity:1"
     id="rect4497-3"
     width="28.203388"
     height="28.203388"
     x="1.8983059"
     y="1.8983059"
     ry="5.575182" />
  <g
     id="g4555"
     transform="translate(30.070617,-4.2335785)">
    <path
       sodipodi:nodetypes="cscccccccccccccssscccccsccccc"
       inkscape:connector-curvature="0"
       id="path4521-3"
       d="m -19.671919,30.100695 c -1.094819,-0.164748 -1.948227,-0.590664 -2.70712,-1.351049 -0.634626,-0.635873 -1.074377,-1.411184 -1.260243,-2.22188 -0.180165,-0.785865 -0.179012,-1.401154 0.004,-2.196564 0.162606,-0.706255 0.530566,-1.400984 1.052646,-1.987459 0.245606,-0.275896 3.021723,-3.050856 3.067474,-3.066194 0.0193,-0.0065 0.03155,0.113062 0.03219,0.313409 0.0016,0.568373 0.111873,1.179532 0.334235,1.854739 l 0.111938,0.339923 -1.039731,1.040528 c -1.035647,1.036435 -1.148849,1.164652 -1.317364,1.492078 -0.173615,0.337326 -0.256624,0.710728 -0.255423,1.148962 0.004,1.477457 1.372734,2.7035 2.839188,2.543258 0.44285,-0.04839 0.80884,-0.18349 1.175281,-0.43383 0.263405,-0.179948 4.677885,-4.612445 4.845086,-4.864861 0.630294,-0.951515 0.514514,-2.255556 -0.275047,-3.097993 -0.156217,-0.166679 -0.516266,-0.466802 -0.560016,-0.466802 -0.08927,0 0.03891,-0.147428 0.72006,-0.828131 l 0.749782,-0.749289 0.187802,0.162698 c 0.220112,0.190687 0.675751,0.66651 0.75108,0.784354 0.02882,0.04505 0.0703,0.100659 0.09221,0.123584 0.06237,0.06527 0.350849,0.563793 0.437525,0.756167 0.275384,0.611197 0.414665,1.264346 0.414665,1.944489 0,1.038052 -0.297227,1.930542 -0.934174,2.805018 -0.07535,0.103426 -1.210655,1.260391 -2.522951,2.571034 -1.715456,1.713305 -2.456734,2.43283 -2.63774,2.560343 -0.964216,0.679238 -2.206787,0.988795 -3.305441,0.823468 z"
       style="fill:#3266f7;fill-opacity:1;stroke-width:0.99999988" />
    <path
       sodipodi:nodetypes="cscccccccccccccssscccccsccccc"
       inkscape:connector-curvature="0"
       id="path4521-3-6"
       d="m -8.4693152,10.366462 c 1.094819,0.164748 1.9482274,0.590664 2.7071204,1.351049 0.634625,0.635873 1.074376,1.411184 1.260242,2.22188 0.180165,0.785865 0.179012,1.401154 -0.004,2.196564 -0.162606,0.706255 -0.530566,1.400984 -1.052645,1.98746 -0.245606,0.275896 -3.0217234,3.050856 -3.0674744,3.066194 -0.0193,0.0065 -0.03155,-0.113062 -0.03219,-0.313409 -0.0016,-0.568373 -0.111873,-1.179532 -0.334235,-1.854739 l -0.111938,-0.339923 1.039731,-1.040528 c 1.035647,-1.036436 1.1488494,-1.164653 1.3173644,-1.492079 0.173615,-0.337326 0.256624,-0.710728 0.255423,-1.148962 -0.004,-1.477457 -1.3727344,-2.7035 -2.8391884,-2.543258 -0.44285,0.04839 -0.8088398,0.18349 -1.1752808,0.43383 -0.263405,0.179948 -4.677886,4.612445 -4.845086,4.864862 -0.630294,0.951515 -0.514514,2.255556 0.275046,3.097993 0.156217,0.166679 0.516266,0.466802 0.560016,0.466802 0.08927,0 -0.03891,0.147428 -0.720059,0.828131 l -0.749782,0.749289 -0.187802,-0.162698 c -0.220112,-0.190687 -0.675751,-0.66651 -0.75108,-0.784354 -0.02882,-0.04505 -0.0703,-0.100659 -0.09221,-0.123584 -0.06237,-0.06527 -0.350849,-0.563793 -0.437525,-0.756167 -0.275384,-0.611197 -0.414665,-1.264346 -0.414665,-1.944489 0,-1.038052 0.297227,-1.930543 0.934174,-2.805019 0.07535,-0.103426 1.210655,-1.260391 2.52295,-2.571034 1.715457,-1.713305 2.456735,-2.43283 2.637741,-2.560343 0.964216,-0.679238 2.2067868,-0.988795 3.3054408,-0.823468 z"
       style="fill:#29a734;fill-opacity:1;stroke-width:0.99999988" />
  </g>
</svg>
