<?xml version="1.0" encoding="UTF-8" standalone="no"?>
<svg
   xmlns:dc="http://purl.org/dc/elements/1.1/"
   xmlns:cc="http://creativecommons.org/ns#"
   xmlns:rdf="http://www.w3.org/1999/02/22-rdf-syntax-ns#"
   xmlns:svg="http://www.w3.org/2000/svg"
   xmlns="http://www.w3.org/2000/svg"
   xmlns:sodipodi="http://sodipodi.sourceforge.net/DTD/sodipodi-0.dtd"
   xmlns:inkscape="http://www.inkscape.org/namespaces/inkscape"
   height="32"
   width="32"
   version="1"
   id="svg48"
   sodipodi:docname="alacarte.svg"
   inkscape:version="0.92.1 r">
  <metadata
     id="metadata54">
    <rdf:RDF>
      <cc:Work
         rdf:about="">
        <dc:format>image/svg+xml</dc:format>
        <dc:type
           rdf:resource="http://purl.org/dc/dcmitype/StillImage" />
      </cc:Work>
    </rdf:RDF>
  </metadata>
  <defs
     id="defs52" />
  <sodipodi:namedview
     pagecolor="#ffffff"
     bordercolor="#666666"
     borderopacity="1"
     objecttolerance="10"
     gridtolerance="10"
     guidetolerance="10"
     inkscape:pageopacity="0"
     inkscape:pageshadow="2"
     inkscape:window-width="1680"
     inkscape:window-height="963"
     id="namedview50"
     showgrid="false"
     inkscape:zoom="7.375"
     inkscape:cx="-8.6779661"
     inkscape:cy="16"
     inkscape:window-x="0"
     inkscape:window-y="0"
     inkscape:window-maximized="1"
     inkscape:current-layer="svg48" />
  <rect
     style="opacity:1;fill:#6993c4;fill-opacity:1;fill-rule:evenodd;stroke:none;stroke-width:1.03534329;stroke-linecap:round;stroke-linejoin:bevel;stroke-miterlimit:4;stroke-dasharray:none;stroke-dashoffset:0;stroke-opacity:1"
     id="rect4497-3"
     width="28.203388"
     height="28.203388"
     x="1.8983059"
     y="1.8983059"
     ry="5.575182" />
  <g
     id="g42"
     transform="translate(0.50189718,0.41506144)"
     style="fill:#ffdd73">
    <g
       transform="translate(-0.50371,-2.999)"
       id="g28">
      <path
         style="color:#000000;fill-rule:evenodd"
         d="M 10.939,9 A 0.58872,0.58872 0 0 0 10.443,9.2324 C 9.7699,10.095 9.0672,11.26 8.3984,12.301 L 7.60152,10.9338 a 0.58907742,0.58907742 0 1 0 -1.0176,0.59375 l 1.2715,2.1797 a 0.58872,0.58872 0 0 0 0.99609,0.0332 c 0.82755,-1.2279 1.7643,-2.8153 2.5195,-3.7832 a 0.58872,0.58872 0 0 0 -0.432,-0.9578 z"
         id="path24"
         inkscape:connector-curvature="0" />
      <rect
         rx="1"
         ry="1"
         height="2"
         width="13"
         y="11"
         x="12.5"
         id="rect26" />
    </g>
    <g
       transform="translate(-0.50371,-0.99982)"
       id="g34">
      <rect
         rx="1"
         ry="1"
         height="2"
         width="13"
         y="16"
         x="12.5"
         id="rect30" />
      <circle
         cy="17"
         cx="8.5"
         r="1"
         id="circle32" />
    </g>
    <g
       transform="translate(-0.50371)"
       id="g40">
      <rect
         rx="1"
         ry="1"
         height="2"
         width="13"
         y="21"
         x="12.5"
         id="rect36" />
      <circle
         cy="22"
         cx="8.5"
         r="1"
         id="circle38" />
    </g>
  </g>
</svg>
