<?xml version="1.0" encoding="UTF-8" standalone="no"?>
<svg
   xmlns:dc="http://purl.org/dc/elements/1.1/"
   xmlns:cc="http://creativecommons.org/ns#"
   xmlns:rdf="http://www.w3.org/1999/02/22-rdf-syntax-ns#"
   xmlns:svg="http://www.w3.org/2000/svg"
   xmlns="http://www.w3.org/2000/svg"
   xmlns:sodipodi="http://sodipodi.sourceforge.net/DTD/sodipodi-0.dtd"
   xmlns:inkscape="http://www.inkscape.org/namespaces/inkscape"
   height="32"
   width="32"
   version="1"
   id="svg14"
   sodipodi:docname="kmouth.svg"
   inkscape:version="0.92.1 r">
  <metadata
     id="metadata20">
    <rdf:RDF>
      <cc:Work
         rdf:about="">
        <dc:format>image/svg+xml</dc:format>
        <dc:type
           rdf:resource="http://purl.org/dc/dcmitype/StillImage" />
      </cc:Work>
    </rdf:RDF>
  </metadata>
  <defs
     id="defs18" />
  <sodipodi:namedview
     pagecolor="#ffffff"
     bordercolor="#666666"
     borderopacity="1"
     objecttolerance="10"
     gridtolerance="10"
     guidetolerance="10"
     inkscape:pageopacity="0"
     inkscape:pageshadow="2"
     inkscape:window-width="640"
     inkscape:window-height="480"
     id="namedview16"
     showgrid="false"
     inkscape:zoom="8.8125"
     inkscape:cx="-27.120567"
     inkscape:cy="16"
     inkscape:current-layer="svg14" />
  <path
     opacity=".1"
     fill="#fff"
     d="m16 2c-7.756 0-14 6.244-14 14 0 0.169 0.0195 0.333 0.0254 0.5 0.2637-7.5206 6.3874-13.5 13.975-13.5 7.5872 0 13.711 5.9794 13.975 13.5 0.006-0.16736 0.0254-0.33116 0.0254-0.5 0-7.756-6.244-14-14-14z"
     id="path4" />
  <rect
     style="opacity:1;fill:#fe4d38;fill-opacity:1;fill-rule:evenodd;stroke:none;stroke-width:1.03534329;stroke-linecap:round;stroke-linejoin:bevel;stroke-miterlimit:4;stroke-dasharray:none;stroke-dashoffset:0;stroke-opacity:1"
     id="rect4497-3"
     width="28.203388"
     height="28.203388"
     x="1.8983059"
     y="1.8983059"
     ry="5.575182" />
  <g
     id="g4507"
     transform="translate(36.312057,-0.79432678)">
    <rect
       style="fill:#ffffff;stroke-width:1"
       id="rect2"
       x="-27.617022"
       y="9.4893618"
       width="21.64539"
       height="21.64539"
       transform="matrix(0,-1,-1,0,0,0)"
       rx="10.822695"
       ry="10.822695" />
    <path
       style="fill:#3f3f3f;stroke-width:1"
       inkscape:connector-curvature="0"
       id="path8"
       d="m -26.281856,19.886525 c 1.232087,2.38996 3.508409,3.863084 5.972505,3.865248 2.46224,-0.0043 4.736011,-1.477143 5.96717,-3.865248 1.105152,-2.143667 -2.238675,-2.319226 -5.969876,-2.319226 -3.731201,0 -7.075723,0.174214 -5.969876,2.319226 z" />
    <ellipse
       style="fill:#3f3f3f;stroke-width:1"
       id="ellipse10"
       cx="-24.177305"
       cy="12.542553"
       ry="1.9326241"
       rx="1.5460993" />
    <ellipse
       style="fill:#3f3f3f;stroke-width:1"
       id="ellipse12"
       cx="-16.446808"
       cy="12.542553"
       ry="1.9326241"
       rx="1.5460993" />
  </g>
</svg>
