<?xml version="1.0" encoding="UTF-8" standalone="no"?>
<svg
   xmlns:dc="http://purl.org/dc/elements/1.1/"
   xmlns:cc="http://creativecommons.org/ns#"
   xmlns:rdf="http://www.w3.org/1999/02/22-rdf-syntax-ns#"
   xmlns:svg="http://www.w3.org/2000/svg"
   xmlns="http://www.w3.org/2000/svg"
   xmlns:sodipodi="http://sodipodi.sourceforge.net/DTD/sodipodi-0.dtd"
   xmlns:inkscape="http://www.inkscape.org/namespaces/inkscape"
   height="32"
   width="32"
   version="1"
   id="svg26"
   sodipodi:docname="calligrakrita.svg"
   inkscape:version="0.92.1 r">
  <metadata
     id="metadata32">
    <rdf:RDF>
      <cc:Work
         rdf:about="">
        <dc:format>image/svg+xml</dc:format>
        <dc:type
           rdf:resource="http://purl.org/dc/dcmitype/StillImage" />
      </cc:Work>
    </rdf:RDF>
  </metadata>
  <defs
     id="defs30" />
  <sodipodi:namedview
     pagecolor="#ffffff"
     bordercolor="#666666"
     borderopacity="1"
     objecttolerance="10"
     gridtolerance="10"
     guidetolerance="10"
     inkscape:pageopacity="0"
     inkscape:pageshadow="2"
     inkscape:window-width="1680"
     inkscape:window-height="965"
     id="namedview28"
     showgrid="false"
     inkscape:zoom="7.375"
     inkscape:cx="-10.180414"
     inkscape:cy="10.399276"
     inkscape:window-x="0"
     inkscape:window-y="0"
     inkscape:window-maximized="1"
     inkscape:current-layer="svg26" />
  <rect
     style="opacity:1;fill:#4f4f4f;fill-opacity:1;fill-rule:evenodd;stroke:none;stroke-width:1.03534329;stroke-linecap:round;stroke-linejoin:bevel;stroke-miterlimit:4;stroke-dasharray:none;stroke-dashoffset:0;stroke-opacity:1"
     id="rect4497-3"
     width="28.203388"
     height="28.203388"
     x="1.8983059"
     y="1.8983059"
     ry="5.575182" />
  <g
     id="g4521"
     transform="matrix(0.72881565,0,0,0.72881565,4.3390079,4.3390225)">
    <path
       style="fill:#ffffff"
       id="path2"
       d="M 16,3 C 8.7778,3 3,8.7778 3,16 c 0,7.2222 5.7778,13 13,13 1.1556,0 2.1667,-1.0111 2.1667,-2.1667 0,-0.57778 -0.14444,-1.0111 -0.57778,-1.4444 -0.28889,-0.43333 -0.57778,-0.86667 -0.57778,-1.4444 0,-1.1556 1.0112,-2.1667 2.1667,-2.1667 h 2.6 c 4.044,0 7.222,-3.178 7.222,-7.222 0,-6.356 -5.778,-11.556 -13,-11.556 z"
       inkscape:connector-curvature="0" />
    <path
       id="path14"
       d="m 7,16 c -1.0667,0 -2,-0.933 -2,-2 0,-1.067 0.9333,-2 2,-2 1.0667,0 2,0.933 2,2 0,1.067 -0.9333,2 -2,2 z"
       inkscape:connector-curvature="0"
       style="fill:#f1a443" />
    <path
       id="path16"
       d="m 12,10 c -1.0667,0 -2,-0.93333 -2,-2 0,-1.06667 0.93333,-2 2,-2 1.06667,0 2,0.93333 2,2 0,1.06667 -0.93333,2 -2,2 z"
       inkscape:connector-curvature="0"
       style="fill:#3f90dc" />
    <path
       id="path18"
       d="m 19,10 c -1.0667,0 -2,-0.93333 -2,-2 0,-1.06667 0.93333,-2 2,-2 1.06667,0 2,0.93333 2,2 0,1.06667 -0.93333,2 -2,2 z"
       inkscape:connector-curvature="0"
       style="fill:#56a913" />
    <path
       id="path20"
       d="m 24,16 c -1.0667,0 -2,-0.93333 -2,-2 0,-1.06667 0.93333,-2 2,-2 1.06667,0 2,0.93333 2,2 0,1.06667 -0.93333,2 -2,2 z"
       inkscape:connector-curvature="0"
       style="fill:#f35b5b" />
  </g>
</svg>
