<?xml version="1.0" encoding="UTF-8" standalone="no"?>
<svg
   xmlns:dc="http://purl.org/dc/elements/1.1/"
   xmlns:cc="http://creativecommons.org/ns#"
   xmlns:rdf="http://www.w3.org/1999/02/22-rdf-syntax-ns#"
   xmlns:svg="http://www.w3.org/2000/svg"
   xmlns="http://www.w3.org/2000/svg"
   xmlns:sodipodi="http://sodipodi.sourceforge.net/DTD/sodipodi-0.dtd"
   xmlns:inkscape="http://www.inkscape.org/namespaces/inkscape"
   height="32"
   width="32"
   version="1"
   id="svg19"
   sodipodi:docname="kspaceduel.svg"
   inkscape:version="0.92.1 r">
  <metadata
     id="metadata23">
    <rdf:RDF>
      <cc:Work
         rdf:about="">
        <dc:format>image/svg+xml</dc:format>
        <dc:type
           rdf:resource="http://purl.org/dc/dcmitype/StillImage" />
      </cc:Work>
    </rdf:RDF>
  </metadata>
  <sodipodi:namedview
     pagecolor="#ffffff"
     bordercolor="#666666"
     borderopacity="1"
     objecttolerance="10"
     gridtolerance="10"
     guidetolerance="10"
     inkscape:pageopacity="0"
     inkscape:pageshadow="2"
     inkscape:window-width="640"
     inkscape:window-height="480"
     id="namedview21"
     showgrid="false"
     inkscape:zoom="8.9375"
     inkscape:cx="-12.290711"
     inkscape:cy="8.7884149"
     inkscape:current-layer="svg19" />
  <defs
     id="defs5">
    <clipPath
       id="clipPath4186"
       clipPathUnits="userSpaceOnUse">
      <circle
         cx="286"
         cy="26"
         r="10"
         fill="url(#linearGradient4190)"
         id="circle2" />
    </clipPath>
  </defs>
  <rect
     style="opacity:1;fill:#f29237;fill-opacity:1;fill-rule:evenodd;stroke:none;stroke-width:1.03534329;stroke-linecap:round;stroke-linejoin:bevel;stroke-miterlimit:4;stroke-dasharray:none;stroke-dashoffset:0;stroke-opacity:1"
     id="rect4497-3-3"
     width="28.203388"
     height="28.203388"
     x="1.8983063"
     y="1.8983059"
     ry="5.575182" />
  <path
     d="m 15.048305,5.9698321 a 10.156879,10.156879 0 0 0 -3.675931,1.0662383 c 0.05111,0.162525 -0.0086,0.345912 -0.195403,0.507844 -0.126453,0.109577 -0.230116,0.280267 -0.230116,0.37989 0,0.304543 0.2754,0.7721891 0.494953,0.840131 0.292261,0.09044 0.19391,0.402017 -0.181512,0.574301 -0.173525,0.07985 -0.387132,0.309003 -0.474794,0.509874 -0.08766,0.2008726 -0.216967,0.3991666 -0.286659,0.4404186 -0.06971,0.04123 -0.126961,0.198278 -0.126961,0.349146 0,0.21067 0.09617,0.312801 0.41262,0.439403 0.226623,0.09067 0.497741,0.156713 0.603068,0.146798 0.6046,-0.0569 0.646978,0.295292 0.118031,0.983968 -0.280814,0.365615 -0.415823,0.457582 -0.607031,0.411634 -0.178464,-0.04289 -0.276001,0.0076 -0.357077,0.184488 -0.08571,0.187003 -0.225732,0.250695 -0.6020755,0.276736 -0.369922,0.0256 -0.535721,0.100745 -0.67448,0.303519 -0.101151,0.147821 -0.247445,0.267806 -0.325341,0.267806 -0.0779,0 -0.26086,0.09912 -0.406674,0.2202 -0.296822,0.246485 -0.41272,0.271291 -0.516774,0.110101 -0.137508,-0.213294 -0.434246,-0.105472 -0.875835,0.317207 -0.390493,0.374242 -0.43784,0.474249 -0.378929,0.798487 0.104814,0.577474 0.418017,1.089912 0.775649,1.268595 0.312073,0.155955 0.318144,0.172776 0.128945,0.372945 -0.108851,0.115171 -0.295572,0.238577 -0.414604,0.274751 -0.343794,0.104474 -0.15029,0.235515 0.463209,0.313433 0.627874,0.07974 0.823019,0.307582 0.529666,0.617945 -0.163596,0.173081 -0.154385,0.205294 0.108115,0.369976 0.513001,0.322676 0.920839,0.125008 0.439481,-0.211732 -0.309472,-0.21642 -0.09313,-0.304707 0.361038,-0.147666 0.361882,0.12529 0.433472,0.118164 0.647696,-0.06745 0.4390595,-0.380446 0.9163075,0.182246 0.5147905,0.60703 -0.255539,0.270352 -0.178089,0.59667 0.152752,0.64175 0.146173,0.01993 0.449895,0.155963 0.675471,0.302527 0.225568,0.146564 0.471342,0.266814 0.545534,0.266814 0.07419,0 0.283471,0.148681 0.465192,0.330302 0.368727,0.368491 0.573435,0.415283 0.677457,0.155728 0.125078,-0.31209 0.07476,-0.472897 -0.261861,-0.840131 -0.268,-0.292385 -0.703246,-1.069597 -0.703246,-1.255702 0,-0.115101 0.442629,-0.0175 0.690348,0.15176 0.155033,0.105944 0.405884,0.242546 0.55744,0.30451 0.161784,0.06612 0.329231,0.271267 0.405682,0.495937 0.11982,0.352092 0.167033,0.382868 0.589177,0.382868 h 0.459239 l 0.06943,0.825207 c 0.08356,0.99264 0.163143,1.193668 0.503876,1.275548 0.250999,0.06032 0.518751,0.44895 0.518751,0.752843 0,0.08077 -0.180582,0.278635 -0.400721,0.439403 -0.273313,0.199598 -0.391134,0.369272 -0.372945,0.535619 0.02269,0.207692 -0.02432,0.240062 -0.318395,0.218216 -0.189684,-0.01412 -0.518384,0.05238 -0.73003,0.147791 -0.250091,0.112733 -0.521405,0.14883 -0.775649,0.103159 -0.292557,-0.05257 -0.391789,-0.03214 -0.391789,0.08232 0,0.08417 -0.102183,0.241851 -0.227139,0.350132 -0.309043,0.267789 -0.181347,0.409478 0.292604,0.324348 0.29458,-0.05291 0.409501,-0.02939 0.46023,0.09721 0.108149,0.269845 -0.16597,0.655901 -0.420556,0.592154 -0.161143,-0.04033 -0.23864,0.0146 -0.288635,0.205317 -0.0177,0.06755 -0.04932,0.124758 -0.08729,0.173582 a 10.156879,10.156879 0 0 0 1.606818,0.475107 c -0.0507,-0.09739 -0.108324,-0.185324 -0.164651,-0.225155 -0.261751,-0.185082 -0.08665,-0.665236 0.27376,-0.751844 0.366881,-0.08816 0.309089,-0.326355 -0.09026,-0.371951 -0.349522,-0.03991 -0.722123,-0.393932 -0.605046,-0.575295 0.07849,-0.121608 0.413253,-0.103882 1.090068,0.05654 0.305637,0.07245 0.514829,-0.07288 1.222966,-0.848022 0.410049,-0.448855 0.725132,-0.635797 1.071239,-0.635797 0.131806,0 0.602483,-0.121274 1.046471,-0.269791 0.838177,-0.280392 1.165619,-0.270266 1.134679,0.03571 -0.06422,0.636664 0.34596,0.615647 1.013736,-0.05158 0.278306,-0.278096 0.532353,-0.478952 0.565371,-0.447341 0.127742,0.122305 -0.101996,0.718107 -0.369977,0.959122 -0.339607,0.305473 -0.356451,0.498484 -0.05752,0.651665 0.163776,0.08392 0.23324,0.254414 0.258883,0.63679 l 0.03471,0.521727 h 0.424526 c 0.148923,0 0.272165,0.02042 0.371953,0.05852 a 10.156879,10.156879 0 0 0 4.920696,-8.382551 c -0.155385,-0.332013 -0.144212,-0.532743 0,-0.758789 a 10.156879,10.156879 0 0 0 -0.04563,-0.56934 c -0.09262,-0.0042 -0.186902,-0.0084 -0.295581,-0.0039 -0.511688,0.02131 -0.950215,-0.180433 -0.950215,-0.437417 0,-0.05416 -0.181511,-0.277884 -0.403697,-0.496938 -0.251672,-0.248109 -0.381024,-0.467122 -0.343193,-0.581238 0.03431,-0.10351 -0.03979,-0.270501 -0.170604,-0.38386 -0.127352,-0.110351 -0.232101,-0.288198 -0.232101,-0.394766 0,-0.17016 -0.108303,-0.191536 -0.89068,-0.172589 l -0.890681,0.02182 0.01487,0.877789 c 0.02644,1.537751 0.255422,1.936917 0.962092,1.679244 0.323472,-0.117921 1.118194,-0.02864 1.343989,0.150768 0.08172,0.06495 0.200083,0.300533 0.262852,0.523711 0.06278,0.223178 0.29555,0.609413 0.517767,0.857944 0.450231,0.503625 0.485186,0.700106 0.227139,1.291408 -0.22513,0.515892 -0.46753,0.45642 -0.419566,-0.103159 l 0.03571,-0.416588 -0.380883,0.07142 c -0.210738,0.0397 -0.474888,0.195591 -0.593145,0.349147 -0.168574,0.218889 -0.247577,0.251171 -0.373937,0.150767 -0.08804,-0.06996 -0.159697,-0.217732 -0.159697,-0.327317 0,-0.109586 -0.108804,-0.231593 -0.241031,-0.271775 -0.132227,-0.04018 -0.313481,-0.239905 -0.402705,-0.444363 -0.142728,-0.327051 -0.139173,-0.427058 0.02677,-0.82427 0.168385,-0.402932 0.170041,-0.469405 0.01487,-0.617945 -0.142291,-0.136234 -0.215639,-0.140633 -0.402705,-0.02877 -0.188067,0.112452 -0.276534,0.104157 -0.499907,-0.04562 -0.149298,-0.10012 -0.409424,-0.182503 -0.57827,-0.182503 -0.342803,0 -0.446348,-0.166784 -0.446348,-0.718123 0,-0.509273 -0.303792,-0.694363 -1.026625,-0.627858 -0.50197,0.04618 -0.612601,0.01312 -1.017642,-0.298558 -0.249991,-0.192364 -0.645063,-0.65576 -0.878805,-1.030611 -0.233755,-0.374813 -0.48524,-0.766407 -0.558433,-0.869898 -0.105813,-0.149619 -0.08009,-0.293222 0.126962,-0.701262 l 0.260867,-0.512805 -0.551487,0.07439 c -0.981388,0.13272 -1.179839,0.259907 -0.757796,0.486023 0.164362,0.08807 0.171541,0.133313 0.04464,0.279712 -0.08313,0.0959 -0.122242,0.247531 -0.08629,0.337239 0.03597,0.08971 -0.0094,0.300808 -0.101174,0.469163 -0.09172,0.168353 -0.168535,0.404619 -0.171597,0.525697 -0.0097,0.378711 -0.657829,0.679604 -1.379695,0.639765 -1.093974,-0.06037 -1.182651,-0.04311 -1.571112,0.317403 -0.485593,0.45063 -0.548347,0.660759 -0.322364,1.079129 0.219271,0.405986 0.607881,0.568012 1.281485,0.534627 0.602412,-0.02989 0.670542,0.02329 0.532643,0.42155 -0.117062,0.338052 -0.510477,0.468396 -0.776642,0.256899 -0.205216,-0.163073 -0.912712,-0.03705 -1.129758,0.201356 -0.09098,0.09995 -0.226006,0.36171 -0.29955,0.581239 -0.12696,0.378976 -0.163971,0.40201 -0.732998,0.457255 -0.567683,0.05513 -0.622218,0.03694 -1.030533,-0.339224 -0.455817,-0.419902 -0.533025,-0.740429 -0.313434,-1.29344 0.09722,-0.244797 0.169723,-0.284604 0.429489,-0.237061 0.514968,0.09425 0.718122,-0.08478 0.718122,-0.634806 0,-0.266719 -0.05183,-0.516055 -0.115062,-0.553471 -0.0632,-0.03742 -0.115061,-0.178762 -0.115061,-0.314426 0,-0.135665 -0.06478,-0.310113 -0.143822,-0.386837 -0.115194,-0.111819 -0.09854,-0.171642 0.0853,-0.301534 0.126148,-0.08912 0.333465,-0.149127 0.46023,-0.133906 0.126775,0.01522 0.476374,-0.03952 0.777635,-0.121008 0.435292,-0.117742 0.563113,-0.206606 0.621914,-0.435434 0.11171,-0.434745 0.384406,-0.783563 0.612982,-0.783563 0.361195,0 0.368586,-0.849194 0.01786,-2.0839576 -0.05235,-0.182511 -0.194545,-0.29869 -0.446905,-0.361194 -0.203919,-0.05063 -0.425808,-0.1897769 -0.492999,-0.3094719 -0.06641,-0.119695 -0.189074,-0.217201 -0.271892,-0.217201 -0.08281,0 -0.244617,-0.09912 -0.359062,-0.220201 -0.115195,-0.121875 -0.353554,-0.220201 -0.534626,-0.220201 -0.429089,0 -0.436207,-0.295487 -0.01086,-0.45131 0.449591,-0.164713 1.149056,0.05119 1.318207,0.406674 0.229358,0.481975 0.483537,0.280853 0.565371,-0.44734 0.101216,-0.900681 0.411729,-1.159525 1.391649,-1.159525 h 0.704239 l -0.308473,-0.308472 c -0.0961,-0.09626 -0.175792,-0.21392 -0.231264,-0.3293177 z m 3.651085,0.3193873 c -0.01955,0.01789 -0.03882,0.03246 -0.05852,0.05257 -0.235499,0.240476 -0.345904,0.274759 -0.710184,0.219209 -0.635796,-0.09696 -0.553972,0.159049 0.149775,0.468169 0.380571,0.167167 0.625016,0.35771 0.708201,0.550495 0.40136,0.930136 0.677495,1.43087 0.816301,1.481889 0.280548,0.103076 0.447573,-0.10396 0.509827,-0.632821 0.07144,-0.606795 0.276908,-0.735436 0.645712,-0.403696 0.143119,0.128734 0.342958,0.234084 0.444363,0.234084 0.315028,0 0.548511,0.126571 0.548511,0.297566 0,0.09012 0.106306,0.307222 0.237062,0.483045 0.192254,0.258509 0.322957,0.32038 0.682418,0.32038 0.441152,0 0.711981,0.08254 1.264687,0.387827 0.0086,0.0047 0.01718,0.0064 0.02579,0.01086 A 10.156879,10.156879 0 0 0 18.700508,6.2890994 Z M 5.8532805,16.028103 a 10.156879,10.156879 0 0 0 -0.002,0.04375 10.156879,10.156879 0 0 0 0.198372,1.950902 c 0.367967,0.149916 0.469638,0.0905 0.507843,-0.251937 0.01972,-0.176949 0.112265,-0.37793 0.20631,-0.44734 0.145244,-0.107041 0.11907,-0.16173 -0.178526,-0.364867 -0.192669,-0.131258 -0.382603,-0.36096 -0.421589,-0.510188 -0.03781,-0.143759 -0.165557,-0.301581 -0.310488,-0.420339 z m 3.196838,3.357553 c -0.09474,-0.01 -0.209293,0.04113 -0.336247,0.162665 -0.268603,0.257173 -0.228046,0.773853 0.07638,0.97803 0.348655,0.233827 0.483624,0.165721 0.527682,-0.265822 0.0544,-0.532462 -0.05937,-0.852943 -0.267806,-0.874819 z m 1.7238595,1.535407 c -0.103729,0.0034 -0.217999,0.07786 -0.332279,0.234085 -0.121281,0.165784 -0.154595,0.379578 -0.108116,0.704239 0.05714,0.398993 0.0322,0.484186 -0.176558,0.591162 -0.2682215,0.137438 -0.3255995,0.545681 -0.10613,0.755811 0.218591,0.209295 0.426776,0.154612 0.50189,-0.131922 0.106986,-0.408103 0.704318,-0.456254 1.112882,-0.08927 0.17387,0.156181 0.31641,0.235554 0.31641,0.175566 0,-0.05997 -0.181402,-0.277681 -0.402704,-0.483046 -0.338959,-0.314559 -0.401713,-0.44884 -0.401713,-0.854037 0,-0.572145 -0.175488,-0.909823 -0.403697,-0.902635 z m -2.8308025,1.311253 a 10.156879,10.156879 0 0 0 0.235077,0.296573 c -0.06923,-0.106251 -0.14829,-0.209388 -0.235092,-0.296111 z m 3.4230265,1.559237 c -0.05169,0.01773 -0.07339,0.08217 -0.07339,0.195403 0,0.114601 -0.07329,0.234976 -0.162667,0.267805 -0.118671,0.04357 -0.146196,0.181308 -0.100175,0.50983 0.0087,0.06155 0.01086,0.110826 0.01388,0.161673 a 10.156879,10.156879 0 0 0 0.422542,0.217225 c -0.0069,-0.175675 0.02513,-0.382524 0.117039,-0.641751 0.155869,-0.43959 0.161439,-0.549956 0.03471,-0.626867 -0.119241,-0.07237 -0.200246,-0.101041 -0.251936,-0.08332 z"
     id="path9"
     inkscape:connector-curvature="0"
     style="opacity:1;stroke-width:1;fill:#c2752c;fill-opacity:1" />
  <path
     style="color:#000000;font-style:normal;font-variant:normal;font-weight:normal;font-stretch:normal;font-size:medium;line-height:normal;font-family:sans-serif;font-variant-ligatures:normal;font-variant-position:normal;font-variant-caps:normal;font-variant-numeric:normal;font-variant-alternates:normal;font-feature-settings:normal;text-indent:0;text-align:start;text-decoration:none;text-decoration-line:none;text-decoration-style:solid;text-decoration-color:#000000;letter-spacing:normal;word-spacing:normal;text-transform:none;writing-mode:lr-tb;direction:ltr;text-orientation:mixed;dominant-baseline:auto;baseline-shift:baseline;text-anchor:start;white-space:normal;shape-padding:0;clip-rule:nonzero;display:inline;overflow:visible;visibility:visible;opacity:1;isolation:auto;mix-blend-mode:normal;color-interpolation:sRGB;color-interpolation-filters:linearRGB;solid-color:#000000;solid-opacity:1;vector-effect:none;fill:#c2752c;fill-opacity:1;fill-rule:nonzero;stroke:none;stroke-width:0.30000001;stroke-linecap:round;stroke-linejoin:bevel;stroke-miterlimit:4;stroke-dasharray:none;stroke-dashoffset:0;stroke-opacity:1;color-rendering:auto;image-rendering:auto;shape-rendering:auto;text-rendering:auto;enable-background:accumulate"
     d="M 16,5.7792969 C 10.334629,5.7792969 5.7382812,10.357127 5.7382812,16 5.7382813,21.642873 10.334629,26.220703 16,26.220703 21.665371,26.220703 26.261719,21.642873 26.261719,16 26.261719,10.357127 21.665371,5.7792969 16,5.7792969 Z m 0,0.3007812 c 5.503912,0 9.960938,4.4398569 9.960938,9.9199219 0,5.480065 -4.457026,9.919922 -9.960938,9.919922 -5.503912,0 -9.9609375,-4.439857 -9.9609375,-9.919922 0,-5.480065 4.4570255,-9.9199219 9.9609375,-9.9199219 z"
     id="path4526"
     inkscape:connector-curvature="0" />
</svg>
