<?xml version="1.0" encoding="UTF-8" standalone="no"?>
<svg
   xmlns:dc="http://purl.org/dc/elements/1.1/"
   xmlns:cc="http://creativecommons.org/ns#"
   xmlns:rdf="http://www.w3.org/1999/02/22-rdf-syntax-ns#"
   xmlns:svg="http://www.w3.org/2000/svg"
   xmlns="http://www.w3.org/2000/svg"
   xmlns:sodipodi="http://sodipodi.sourceforge.net/DTD/sodipodi-0.dtd"
   xmlns:inkscape="http://www.inkscape.org/namespaces/inkscape"
   height="32"
   width="32"
   version="1"
   id="svg22"
   sodipodi:docname="kwalletmanager.svg"
   inkscape:version="0.92.1 r">
  <metadata
     id="metadata28">
    <rdf:RDF>
      <cc:Work
         rdf:about="">
        <dc:format>image/svg+xml</dc:format>
        <dc:type
           rdf:resource="http://purl.org/dc/dcmitype/StillImage" />
      </cc:Work>
    </rdf:RDF>
  </metadata>
  <defs
     id="defs26" />
  <sodipodi:namedview
     pagecolor="#ffffff"
     bordercolor="#666666"
     borderopacity="1"
     objecttolerance="10"
     gridtolerance="10"
     guidetolerance="10"
     inkscape:pageopacity="0"
     inkscape:pageshadow="2"
     inkscape:window-width="640"
     inkscape:window-height="480"
     id="namedview24"
     showgrid="false"
     inkscape:zoom="8.8125"
     inkscape:cx="-38.079371"
     inkscape:cy="21.249043"
     inkscape:current-layer="svg22" />
  <rect
     style="opacity:1;fill:#ffffff;fill-opacity:1;fill-rule:evenodd;stroke:none;stroke-width:1.03534329;stroke-linecap:round;stroke-linejoin:bevel;stroke-miterlimit:4;stroke-dasharray:none;stroke-dashoffset:0;stroke-opacity:1"
     id="rect4497-3-3"
     width="28.203388"
     height="28.203388"
     x="1.8983059"
     y="1.8983059"
     ry="5.575182" />
  <path
     inkscape:connector-curvature="0"
     style="opacity:1;fill:#c49a6c;fill-opacity:1;fill-rule:evenodd;stroke:none;stroke-width:1.03534329;stroke-linecap:round;stroke-linejoin:bevel;stroke-miterlimit:4;stroke-dasharray:none;stroke-dashoffset:0;stroke-opacity:1"
     d="m 7.472546,1.8984377 c -3.088651,0 -5.574219,2.4855679 -5.574219,5.5742187 V 24.525391 c 0,0.664708 0.122438,1.298521 0.333984,1.888671 H 3.53114 v 0.634766 H 2.503796 c 0.918315,1.812451 2.790503,3.052734 4.96875,3.052734 h 17.054687 c 3.088651,0 5.574219,-2.487521 5.574219,-5.576171 V 7.4726564 c 0,-3.0886508 -2.485568,-5.5742187 -5.574219,-5.5742187 z M 2.970593,4.951172 H 5.509655 V 5.5859377 H 2.970593 Z m 3.810547,0 H 9.320202 V 5.5859377 H 6.78114 Z m 3.808593,0 h 2.541016 v 0.6347657 h -2.541016 z m 3.810547,0 h 2.539063 V 5.5859377 H 14.40028 Z m 3.810547,0 h 2.539063 v 0.6347657 h -2.539063 z m 3.808594,0 h 0.46875 0.0332 l 0.855469,0.085937 0.0625,0.013672 0.796875,0.2460938 0.05859,0.023437 0.330079,0.1796875 -0.302735,0.5585937 -0.296875,-0.1621094 -0.738281,-0.2285156 -0.810547,-0.082031 h -0.457031 z m 3.724609,1.3652344 0.509766,0.6171875 0.03516,0.050781 0.388672,0.7207031 0.02539,0.056641 0.246093,0.7988282 0.01172,0.060547 0.0098,0.085937 -0.632813,0.0625 -0.0039,-0.048828 L 26.103449,7.9765626 25.746027,7.3183594 25.25384,6.7187501 Z m 0.669922,3.6874996 h 0.634766 v 2.541016 h -0.634766 z m 0,3.810547 h 0.634766 v 2.539062 h -0.634766 z m 0,3.810547 h 0.634766 v 2.539062 h -0.634766 z m 0,3.808594 h 0.634766 v 1.054687 l -0.002,0.03125 -0.08594,0.857422 -0.01172,0.0625 -0.183593,0.595703 -0.607422,-0.1875 0.175781,-0.570312 0.08008,-0.800782 z m -0.802734,3.414062 0.490234,0.402344 -0.365234,0.443359 -0.04297,0.04297 -0.626953,0.517578 -0.05078,0.0332 -0.720704,0.390625 -0.05859,0.02344 -0.31836,0.09961 -0.1875,-0.607422 0.28711,-0.08789 0.671875,-0.363282 0.576172,-0.476562 z m -3.0625,1.558594 0.0625,0.630859 -0.08984,0.0098 -0.0332,0.002 h -2.447266 v -0.634766 h 2.433594 z m -17.748047,0.0078 h 2.541016 v 0.634766 H 4.800671 Z m 3.810547,0 h 2.539062 v 0.634766 H 8.611218 Z m 3.810547,0 h 2.539062 v 0.634766 h -2.539062 z m 3.808593,0 h 2.541016 v 0.634766 h -2.541016 z"
     id="rect4497-3" />
  <g
     id="g4524"
     transform="translate(3.101672,-3.417e-4)">
    <path
       id="path6"
       d="M 21.4,12 H 27 v 8 H 21.4 C 20.624,20 20,19.405 20,18.667 v -5.3333 c 0,-0.739 0.624,-1.334 1.4,-1.334 z"
       inkscape:connector-curvature="0"
       style="fill:#9b6e3e" />
    <path
       id="path8"
       d="m 21.806,12.5 v 0.16666 l -0.01793,-0.16535 -0.06618,0.0066 0.03722,0.33071 0.04688,-0.0057 h 0.70586 v -0.33331 h -0.70588 z m 1.0588,0 v 0.33331 h 0.70588 V 12.5 Z m 1.0588,0 v 0.33331 h 0.70588 V 12.5 Z m 1.0588,0 v 0.33331 h 0.70588 V 12.5 Z m 1.0588,0 v 0.33331 h 0.4591 v -0.33332 h -0.4591 z m -4.6971,0.08597 -0.03171,0.009 -0.01793,0.0057 -0.01516,0.0076 -0.19164,0.10286 -0.01516,0.0076 -0.01378,0.01001 -0.16682,0.13541 -0.01241,0.01001 -0.01103,0.01304 -0.13787,0.16405 -0.0096,0.01304 -0.0083,0.01431 -0.0042,0.0076 0.20129,0.09893 0.09789,0.07289 0.12959,-0.15364 0.13649,-0.11197 0.16268,-0.08596 0.01516,-0.0057 -0.0014,-0.0024 0.0027,-9.88e-4 -0.0069,-0.01001 -0.10202,-0.30206 z m -0.78722,0.83588 -0.02619,0.08464 -0.0055,0.01432 -0.0014,0.0169 -0.02206,0.22394 -0.0014,0.0076 v 0.36174 h 0.35294 v -0.35434 l 0.02068,-0.194 0.02068,-0.06642 -0.33778,-0.09507 z m -0.05652,1.0429 v 0.66662 h 0.35294 v -0.66662 z m 0,0.99993 v 0.66662 h 0.35294 v -0.66662 z m 0,0.99994 v 0.66662 h 0.35294 v -0.66662 z m 0,0.99993 v 0.66663 h 0.35294 v -0.66663 z m 0.37362,0.95046 -0.33777,0.09507 0.05928,0.19269 0.0055,0.01562 0.0083,0.01304 0.1034,0.18879 0.0083,0.01431 0.0096,0.01304 0.13787,0.16405 0.01103,0.01304 0.01241,0.01 0.03447,0.02734 0.23024,-0.25259 -0.0193,-0.01562 -0.11857,-0.14062 -0.08961,-0.16275 -0.05515,-0.17577 z m 0.54182,0.66662 -0.17234,0.29035 0.03584,0.01955 0.01516,0.0076 0.01793,0.0057 0.21094,0.0651 0.01793,0.0057 0.01793,9.87e-4 0.22886,0.02215 0.0096,9.87e-4 h 0.22062 v -0.33331 h -0.2123 l -0.19439,-0.02086 -0.17785,-0.05466 -0.01793,-0.009 z m 0.95542,0.08465 v 0.33332 h 0.70588 v -0.33332 z m 1.0588,0 v 0.33332 h 0.70588 v -0.33332 z m 1.0588,0 v 0.33332 h 0.70588 v -0.33332 z m 1.0588,0 v 0.33332 h 0.70588 v -0.33332 z"
       inkscape:connector-curvature="0"
       style="fill:#ffffff" />
    <path
       d="M 24.131136,16.066315 A 0.9405678,0.94595625 0 0 1 23.190568,17.012271 0.9405678,0.94595625 0 0 1 22.25,16.066315 a 0.9405678,0.94595625 0 0 1 0.940568,-0.945956 0.9405678,0.94595625 0 0 1 0.940568,0.945956 z"
       id="path12"
       inkscape:connector-curvature="0"
       style="fill:#ffffff;stroke-width:0.5" />
  </g>
  <path
     d="m 10.755036,15.311416 -1.7568,0.15979 v 6.846699 l 1.738,-0.24856 v -2.9191 l 2.3386,3.2387 1.8318,-0.55043 -2.3949,-3.114399 2.4137,-2.9368 -1.8694,-0.40484 -2.3198,2.9368 0.01873,-3.0079 z m -3.983201,1.669 c -0.01981,0.0038 -0.0414,0.007 -0.05631,0.02149 l -0.6907,0.654 c -0.029,0.028 -0.0325,0.07 -0.0112,0.103 l 0.80706,1.260699 c -0.1433,0.228 -0.2597,0.472 -0.3416,0.731 l -1.4828,0.291 c -0.0413,0.008 -0.0713,0.045 -0.0713,0.085 v 0.92331 c 0,0.03908 0.03139,0.07252 0.07132,0.08168 l 1.4377,0.33024 c 0.07687,0.30008 0.19564,0.5872 0.35285,0.84875 l -0.83332,1.2003 c -0.02326,0.03337 -0.01872,0.07824 0.01123,0.10653 l 0.6907,0.65341 c 0.02911,0.0274 0.07373,0.03084 0.10886,0.0105 l 1.306301,-0.749 c 0.25621,0.13993 0.53361,0.25204 0.82582,0.3267 l 0.3046,1.385 c 0.008,0.039 0.044,0.067 0.086,0.067 h 0.97598 c 0.04094,0 0.07661,-0.02593 0.08634,-0.06392 l 0.36036,-1.392 c 0.30138,-0.07688 0.58554,-0.19099 0.84835,-0.33737 l 1.2875,0.79902 c 0.03547,0.0217 0.08253,0.01751 0.11261,-0.01053 l 0.68694,-0.6534 c 0.02919,-0.0277 0.03641,-0.06972 0.01508,-0.10299 l -0.46922,-0.73151 -0.1539,0.04615 c -0.02223,0.0065 -0.04685,-0.0038 -0.06006,-0.02147 0,0 -0.2964,-0.4125 -0.68318,-0.94814 -0.46259,0.85628 -1.406,1.4418 -2.4925,1.4418 -1.544,0 -2.796501,-1.185 -2.796501,-2.6456 0,-1.0744 0.679131,-1.997199 1.651701,-2.411299 v -0.6818 c -0.177,0.05861 -0.34799,0.1293 -0.51051,0.21306 -2.03e-4,-1.49e-4 3.27e-4,-0.0038 0,-0.0038 l -1.317801,-0.817 c -0.01766,-0.01084 -0.03646,-0.01259 -0.05632,-0.01049 z"
     style="color:#31363b;opacity:1;fill:#000000;fill-opacity:0.49397591"
     id="path16"
     inkscape:connector-curvature="0" />
</svg>
