<?xml version="1.0" encoding="UTF-8" standalone="no"?>
<svg
   xmlns:dc="http://purl.org/dc/elements/1.1/"
   xmlns:cc="http://creativecommons.org/ns#"
   xmlns:rdf="http://www.w3.org/1999/02/22-rdf-syntax-ns#"
   xmlns:svg="http://www.w3.org/2000/svg"
   xmlns="http://www.w3.org/2000/svg"
   xmlns:sodipodi="http://sodipodi.sourceforge.net/DTD/sodipodi-0.dtd"
   xmlns:inkscape="http://www.inkscape.org/namespaces/inkscape"
   height="32"
   width="32"
   version="1"
   id="svg20"
   sodipodi:docname="kwin.svg"
   inkscape:version="0.92.1 r">
  <metadata
     id="metadata26">
    <rdf:RDF>
      <cc:Work
         rdf:about="">
        <dc:format>image/svg+xml</dc:format>
        <dc:type
           rdf:resource="http://purl.org/dc/dcmitype/StillImage" />
        <dc:title></dc:title>
      </cc:Work>
    </rdf:RDF>
  </metadata>
  <defs
     id="defs24" />
  <sodipodi:namedview
     pagecolor="#ffffff"
     bordercolor="#666666"
     borderopacity="1"
     objecttolerance="10"
     gridtolerance="10"
     guidetolerance="10"
     inkscape:pageopacity="0"
     inkscape:pageshadow="2"
     inkscape:window-width="640"
     inkscape:window-height="480"
     id="namedview22"
     showgrid="false"
     inkscape:zoom="13.435029"
     inkscape:cx="7.1897413"
     inkscape:cy="10.047211"
     inkscape:current-layer="svg20" />
  <rect
     style="opacity:1;fill:#6929d8;fill-opacity:1;fill-rule:evenodd;stroke:none;stroke-width:1.03534329;stroke-linecap:round;stroke-linejoin:bevel;stroke-miterlimit:4;stroke-dasharray:none;stroke-dashoffset:0;stroke-opacity:1"
     id="rect4497-6"
     width="28.203388"
     height="28.203388"
     x="1.8983059"
     y="1.8983059"
     ry="5.575182" />
  <g
     id="g4674">
    <path
       sodipodi:nodetypes="scsscsscsssss"
       inkscape:connector-curvature="0"
       id="path1107"
       d="m 7.253896,5.422281 c -0.668988,0 -1.240851,0.369382 -1.56841,0.798113 C 5.357927,6.649126 5.206191,7.153558 5.206191,7.680392 v 11.282706 c 0,0.526834 0.151737,1.031267 0.479295,1.459998 0.327559,0.42873 0.899419,0.7974 1.56841,0.7974 h 13.603582 c 0.66897,0 1.241555,-0.368662 1.569123,-0.7974 0.327567,-0.428739 0.479295,-0.933172 0.479295,-1.459998 V 7.680392 c 0,-0.526826 -0.151727,-1.031259 -0.479295,-1.459998 C 22.099033,5.791655 21.526446,5.422281 20.857478,5.422281 Z"
       style="color:#000000;font-style:normal;font-variant:normal;font-weight:normal;font-stretch:normal;font-size:12px;line-height:normal;font-family:sans-serif;font-variant-ligatures:normal;font-variant-position:normal;font-variant-caps:normal;font-variant-numeric:normal;font-variant-alternates:normal;font-feature-settings:normal;text-indent:0;text-align:start;text-decoration:none;text-decoration-line:none;text-decoration-style:solid;text-decoration-color:#000000;letter-spacing:normal;word-spacing:normal;text-transform:none;writing-mode:lr-tb;direction:ltr;text-orientation:mixed;dominant-baseline:auto;baseline-shift:baseline;text-anchor:start;white-space:normal;shape-padding:0;clip-rule:nonzero;display:inline;overflow:visible;visibility:visible;opacity:1;isolation:auto;mix-blend-mode:normal;color-interpolation:sRGB;color-interpolation-filters:linearRGB;solid-color:#000000;solid-opacity:1;vector-effect:none;fill:#6929d8;fill-opacity:1;fill-rule:evenodd;stroke:none;stroke-width:7.50000048;stroke-linecap:round;stroke-linejoin:round;stroke-miterlimit:4;stroke-dasharray:none;stroke-dashoffset:0;stroke-opacity:1;color-rendering:auto;image-rendering:auto;shape-rendering:auto;text-rendering:auto;enable-background:accumulate" />
    <path
       inkscape:connector-curvature="0"
       id="path1638"
       d="m 7.8886719,6.5766859 c -0.348331,0 -0.65278,0.1894981 -0.84375,0.4394531 -0.190971,0.249955 -0.2910156,0.566592 -0.2910157,0.90625 v 0.8828125 a 0.45651778,0.45651778 0 0 0 0,0.03125 V 19.205592 c 0,0.339657 0.1000457,0.654343 0.2910157,0.904297 0.19097,0.249955 0.495418,0.439453 0.84375,0.439453 H 21.492188 c 0.348334,0 0.652776,-0.189495 0.84375,-0.439453 0.190972,-0.249957 0.291015,-0.564642 0.291015,-0.904297 V 8.8462171 c 3.2e-5,-0.00344 0.002,-0.00632 0.002,-0.00977 a 0.45651778,0.45651778 0 0 0 -0.002,-0.044922 V 7.922389 c 0,-0.339655 -0.100043,-0.656292 -0.291015,-0.90625 -0.190975,-0.249957 -0.495417,-0.4394532 -0.84375,-0.4394531 z m 0,0.9140624 H 21.492188 c 0.0277,0 0.0628,0.00888 0.117187,0.080078 0.05438,0.07118 0.105469,0.1990785 0.105469,0.3515625 v 0.9140625 c 0,0.123681 -0.08531,0.2089843 -0.208985,0.2089844 H 7.875 c -0.12368,0 -0.2089844,-0.085306 -0.2089844,-0.2089844 V 7.922389 c 0,-0.152482 0.051084,-0.2803845 0.1054688,-0.3515625 0.05438,-0.07118 0.089516,-0.080078 0.1171875,-0.080078 z M 20.560547,7.6841077 A 0.27361069,0.27361069 0 0 0 20.369141,8.1548109 L 20.5,8.2856702 20.384766,8.4009046 a 0.2741426,0.2741426 0 1 0 0.386718,0.3886719 L 20.888672,8.672389 21.003906,8.7895765 A 0.27414295,0.27414295 0 0 0 21.390625,8.4009046 L 21.275391,8.2856702 21.390625,8.1684827 A 0.27365492,0.27365492 0 0 0 21.003906,7.781764 L 20.888672,7.8969983 20.757812,7.7680921 A 0.27361069,0.27361069 0 0 0 20.560547,7.6841077 Z M 7.6660156,9.9165296 c 0.070157,0.014046 0.1350648,0.042969 0.2089844,0.042969 h 13.630859 c 0.0736,0 0.13911,-0.029041 0.208985,-0.042969 v 9.2890624 c 0,0.152483 -0.05109,0.280385 -0.105469,0.351562 -0.05438,0.07118 -0.08949,0.08008 -0.117187,0.08008 H 7.8886719 c -0.02767,0 -0.062805,-0.0089 -0.1171875,-0.08008 -0.05438,-0.07118 -0.1054688,-0.199082 -0.1054688,-0.351562 z"
       style="color:#000000;font-style:normal;font-variant:normal;font-weight:normal;font-stretch:normal;font-size:medium;line-height:normal;font-family:sans-serif;font-variant-ligatures:normal;font-variant-position:normal;font-variant-caps:normal;font-variant-numeric:normal;font-variant-alternates:normal;font-feature-settings:normal;text-indent:0;text-align:start;text-decoration:none;text-decoration-line:none;text-decoration-style:solid;text-decoration-color:#000000;letter-spacing:normal;word-spacing:normal;text-transform:none;writing-mode:lr-tb;direction:ltr;text-orientation:mixed;dominant-baseline:auto;baseline-shift:baseline;text-anchor:start;white-space:normal;shape-padding:0;clip-rule:nonzero;display:inline;overflow:visible;visibility:visible;opacity:1;isolation:auto;mix-blend-mode:normal;color-interpolation:sRGB;color-interpolation-filters:linearRGB;solid-color:#000000;solid-opacity:1;vector-effect:none;fill:#ffffff;fill-opacity:1;fill-rule:evenodd;stroke:none;stroke-width:1.87500048;stroke-linecap:round;stroke-linejoin:round;stroke-miterlimit:4;stroke-dasharray:none;stroke-dashoffset:0;stroke-opacity:1;color-rendering:auto;image-rendering:auto;shape-rendering:auto;text-rendering:auto;enable-background:accumulate" />
    <path
       sodipodi:nodetypes="scsssssssscss"
       inkscape:connector-curvature="0"
       id="path1113"
       d="m 11.141808,10.779505 c -0.668988,0 -1.24085,0.369381 -1.568409,0.798113 -0.327559,0.428731 -0.479296,0.933164 -0.479296,1.459997 v 11.282707 c 0,0.526834 0.151738,1.031267 0.479296,1.459997 0.327558,0.428731 0.899418,0.7974 1.568409,0.7974 h 13.604295 c 0.668971,0 1.240843,-0.368661 1.56841,-0.7974 0.327567,-0.428739 0.479296,-0.933172 0.479296,-1.459997 V 13.037615 c 0,-0.526824 -0.151729,-1.031257 -0.479296,-1.459997 -0.327568,-0.42874 -0.899441,-0.798113 -1.56841,-0.798113 z"
       style="color:#000000;font-style:normal;font-variant:normal;font-weight:normal;font-stretch:normal;font-size:12px;line-height:normal;font-family:sans-serif;font-variant-ligatures:normal;font-variant-position:normal;font-variant-caps:normal;font-variant-numeric:normal;font-variant-alternates:normal;font-feature-settings:normal;text-indent:0;text-align:start;text-decoration:none;text-decoration-line:none;text-decoration-style:solid;text-decoration-color:#000000;letter-spacing:normal;word-spacing:normal;text-transform:none;writing-mode:lr-tb;direction:ltr;text-orientation:mixed;dominant-baseline:auto;baseline-shift:baseline;text-anchor:start;white-space:normal;shape-padding:0;clip-rule:nonzero;display:inline;overflow:visible;visibility:visible;opacity:1;isolation:auto;mix-blend-mode:normal;color-interpolation:sRGB;color-interpolation-filters:linearRGB;solid-color:#000000;solid-opacity:1;vector-effect:none;fill:#6929d8;fill-opacity:1;fill-rule:evenodd;stroke:none;stroke-width:7.50000048;stroke-linecap:round;stroke-linejoin:round;stroke-miterlimit:4;stroke-dasharray:none;stroke-dashoffset:0;stroke-opacity:1;color-rendering:auto;image-rendering:auto;shape-rendering:auto;text-rendering:auto;enable-background:accumulate" />
    <path
       inkscape:connector-curvature="0"
       id="rect921"
       d="m 11.141808,11.701008 c -0.345342,0 -0.646217,0.1875 -0.835914,0.435788 -0.189698,0.248288 -0.290288,0.562907 -0.290288,0.900819 v 11.282707 c 0,0.337913 0.10059,0.651817 0.290288,0.900106 0.189697,0.248288 0.490572,0.435788 0.835914,0.435788 H 24.74539 c 0.345343,0 0.646931,-0.1875 0.836628,-0.435788 0.189697,-0.248289 0.290288,-0.562194 0.290288,-0.900106 V 13.037615 c 0,-0.337912 -0.100591,-0.65253 -0.290288,-0.900819 -0.189697,-0.248289 -0.491285,-0.435788 -0.836628,-0.435788 z m 0,0.895827 H 24.74539 c 0.03066,0 0.06916,0.0106 0.124817,0.08345 0.05566,0.07285 0.106272,0.203107 0.106272,0.357332 v 11.282707 c 0,0.154226 -0.05062,0.283773 -0.106272,0.356619 -0.05566,0.07284 -0.09416,0.08345 -0.124817,0.08345 H 11.141808 c -0.03066,0 -0.06845,-0.0106 -0.124103,-0.08345 -0.05566,-0.07285 -0.106272,-0.202394 -0.106272,-0.356619 V 13.037615 c 0,-0.154225 0.05062,-0.284486 0.106272,-0.357332 0.05566,-0.07285 0.09344,-0.08345 0.124103,-0.08345 z"
       style="color:#000000;font-style:normal;font-variant:normal;font-weight:normal;font-stretch:normal;font-size:medium;line-height:normal;font-family:sans-serif;font-variant-ligatures:normal;font-variant-position:normal;font-variant-caps:normal;font-variant-numeric:normal;font-variant-alternates:normal;font-feature-settings:normal;text-indent:0;text-align:start;text-decoration:none;text-decoration-line:none;text-decoration-style:solid;text-decoration-color:#000000;letter-spacing:normal;word-spacing:normal;text-transform:none;writing-mode:lr-tb;direction:ltr;text-orientation:mixed;dominant-baseline:auto;baseline-shift:baseline;text-anchor:start;white-space:normal;shape-padding:0;clip-rule:nonzero;display:inline;overflow:visible;visibility:visible;opacity:1;isolation:auto;mix-blend-mode:normal;color-interpolation:sRGB;color-interpolation-filters:linearRGB;solid-color:#000000;solid-opacity:1;vector-effect:none;fill-opacity:1;fill-rule:evenodd;stroke:none;stroke-width:2.45339131;stroke-linecap:round;stroke-linejoin:round;stroke-miterlimit:4;stroke-dasharray:none;stroke-dashoffset:0;stroke-opacity:1;color-rendering:auto;image-rendering:auto;shape-rendering:auto;text-rendering:auto;enable-background:accumulate;fill:#ffffff" />
    <path
       inkscape:connector-curvature="0"
       id="rect922"
       d="m 11.12897,11.668912 c -0.609092,0 -1.113364,0.504272 -1.113364,1.113364 v 1.16971 c 0,0.609093 0.504272,1.113364 1.113364,1.113364 h 13.629972 c 0.609092,0 1.113364,-0.504271 1.113364,-1.113364 v -1.16971 c 0,-0.609092 -0.504272,-1.113364 -1.113364,-1.113364 z m 0,0.895827 h 13.629972 c 0.128249,0 0.217537,0.08929 0.217537,0.217537 v 1.16971 c 0,0.128249 -0.08929,0.217537 -0.217537,0.217537 H 11.12897 c -0.128248,0 -0.217537,-0.08929 -0.217537,-0.217537 v -1.16971 c 0,-0.128247 0.08929,-0.217537 0.217537,-0.217537 z"
       style="color:#000000;font-style:normal;font-variant:normal;font-weight:normal;font-stretch:normal;font-size:medium;line-height:normal;font-family:sans-serif;font-variant-ligatures:normal;font-variant-position:normal;font-variant-caps:normal;font-variant-numeric:normal;font-variant-alternates:normal;font-feature-settings:normal;text-indent:0;text-align:start;text-decoration:none;text-decoration-line:none;text-decoration-style:solid;text-decoration-color:#000000;letter-spacing:normal;word-spacing:normal;text-transform:none;writing-mode:lr-tb;direction:ltr;text-orientation:mixed;dominant-baseline:auto;baseline-shift:baseline;text-anchor:start;white-space:normal;shape-padding:0;clip-rule:nonzero;display:inline;overflow:visible;visibility:visible;opacity:1;isolation:auto;mix-blend-mode:normal;color-interpolation:sRGB;color-interpolation-filters:linearRGB;solid-color:#000000;solid-opacity:1;vector-effect:none;fill-opacity:1;fill-rule:evenodd;stroke:none;stroke-width:2.45339274;stroke-linecap:round;stroke-linejoin:round;stroke-miterlimit:4;stroke-dasharray:none;stroke-dashoffset:0;stroke-opacity:1;color-rendering:auto;image-rendering:auto;shape-rendering:auto;text-rendering:auto;enable-background:accumulate;fill:#ffffff" />
    <path
       id="path923"
       d="M 11.142578 11.693359 C 10.794247 11.693359 10.489799 11.880905 10.298828 12.130859 C 10.107858 12.380814 10.007815 12.697452 10.007812 13.037109 L 10.007812 13.919922 A 0.45651778 0.45651778 0 0 0 10.007812 13.951172 L 10.007812 24.320312 C 10.007812 24.659969 10.107858 24.976608 10.298828 25.226562 C 10.489798 25.476517 10.794246 25.664062 11.142578 25.664062 L 24.746094 25.664062 C 25.094428 25.664062 25.39887 25.47652 25.589844 25.226562 C 25.780818 24.976605 25.880859 24.659967 25.880859 24.320312 L 25.880859 13.960938 C 25.880891 13.957508 25.882812 13.954607 25.882812 13.951172 A 0.45651778 0.45651778 0 0 0 25.880859 13.90625 L 25.880859 13.037109 C 25.880859 12.697454 25.780818 12.380817 25.589844 12.130859 C 25.39887 11.880902 25.094427 11.693359 24.746094 11.693359 L 11.142578 11.693359 z M 11.142578 12.605469 L 24.746094 12.605469 C 24.773794 12.605469 24.808897 12.614347 24.863281 12.685547 C 24.917661 12.756727 24.96875 12.884625 24.96875 13.037109 L 24.96875 13.951172 C 24.96875 14.074854 24.883445 14.160156 24.759766 14.160156 L 11.128906 14.160156 C 11.005226 14.160156 10.919922 14.074851 10.919922 13.951172 L 10.919922 13.037109 C 10.919922 12.884628 10.971005 12.756726 11.025391 12.685547 C 11.079771 12.614367 11.114907 12.605469 11.142578 12.605469 z M 23.808594 12.837891 A 0.25640048 0.25640048 0 0 0 23.65625 13.277344 L 23.779297 13.400391 L 23.669922 13.509766 A 0.25644188 0.25644188 0 1 0 24.03125 13.871094 L 24.140625 13.761719 L 24.25 13.871094 A 0.25644217 0.25644217 0 1 0 24.613281 13.509766 L 24.503906 13.400391 L 24.613281 13.291016 A 0.25687881 0.25687881 0 1 0 24.25 12.927734 L 24.140625 13.037109 L 24.017578 12.914062 A 0.25640048 0.25640048 0 0 0 23.833984 12.837891 A 0.25640048 0.25640048 0 0 0 23.808594 12.837891 z M 10.919922 15.03125 C 10.990079 15.045296 11.054987 15.074219 11.128906 15.074219 L 24.759766 15.074219 C 24.833368 15.074219 24.898876 15.045178 24.96875 15.03125 L 24.96875 24.320312 C 24.96875 24.472794 24.917667 24.600699 24.863281 24.671875 C 24.808901 24.743055 24.773788 24.751953 24.746094 24.751953 L 11.142578 24.751953 C 11.114908 24.751953 11.079772 24.743055 11.025391 24.671875 C 10.971011 24.600695 10.919922 24.472792 10.919922 24.320312 L 10.919922 15.03125 z M 18.160156 15.929688 C 18.006545 15.929686 17.880343 15.978735 17.783203 16.078125 C 17.686069 16.17752 17.636719 16.302079 17.636719 16.451172 L 17.636719 20.498047 C 17.636719 20.649398 17.686063 20.770661 17.783203 20.863281 C 17.882598 20.955898 18.008804 21.001953 18.160156 21.001953 C 18.311507 21.001953 18.43411 20.952609 18.53125 20.855469 C 18.628384 20.758333 18.677734 20.640362 18.677734 20.498047 L 18.677734 18.710938 L 20.476562 20.677734 C 20.589512 20.7952 20.681616 20.878034 20.753906 20.927734 C 20.828452 20.977434 20.911593 21.001953 21.001953 21.001953 C 21.155563 21.001953 21.284759 20.962179 21.388672 20.880859 C 21.492582 20.797276 21.544922 20.675706 21.544922 20.517578 C 21.544922 20.418183 21.518757 20.327414 21.466797 20.246094 C 21.417099 20.162512 21.344573 20.076381 21.251953 19.988281 L 19.650391 18.298828 L 20.960938 16.994141 C 21.080663 16.874415 21.168446 16.772726 21.222656 16.691406 C 21.276866 16.607824 21.302734 16.52334 21.302734 16.4375 C 21.302734 16.286148 21.25235 16.164886 21.148438 16.072266 C 21.046784 15.97739 20.926859 15.929687 20.789062 15.929688 C 20.639969 15.929686 20.504492 15.995932 20.384766 16.126953 L 18.677734 17.962891 L 18.677734 16.451172 C 18.677734 16.288525 18.62839 16.160979 18.53125 16.068359 C 18.436373 15.975742 18.313766 15.929687 18.160156 15.929688 z M 15.914062 16.732422 L 15.234375 17.291016 L 15.849609 18.341797 L 15.5 19.199219 L 14.298828 19.398438 L 14.294922 20.310547 L 15.533203 20.626953 L 15.873047 21.460938 L 15.087891 22.46875 L 15.753906 23.166016 L 16.833984 22.4375 L 17.691406 22.818359 L 17.976562 24.068359 L 18.896484 24.060547 L 19.150391 22.775391 L 20.007812 22.435547 L 21.085938 23.134766 L 21.59375 22.435547 L 20.369141 21.28125 C 17.230049 24.16043 14.518537 19.721708 17.214844 17.865234 L 17.214844 17.199219 L 16.896484 17.357422 L 15.914062 16.732422 z "
       style="color:#000000;font-style:normal;font-variant:normal;font-weight:normal;font-stretch:normal;font-size:medium;line-height:normal;font-family:sans-serif;font-variant-ligatures:normal;font-variant-position:normal;font-variant-caps:normal;font-variant-numeric:normal;font-variant-alternates:normal;font-feature-settings:normal;text-indent:0;text-align:start;text-decoration:none;text-decoration-line:none;text-decoration-style:solid;text-decoration-color:#000000;letter-spacing:normal;word-spacing:normal;text-transform:none;writing-mode:lr-tb;direction:ltr;text-orientation:mixed;dominant-baseline:auto;baseline-shift:baseline;text-anchor:start;white-space:normal;shape-padding:0;clip-rule:nonzero;display:inline;overflow:visible;visibility:visible;opacity:1;isolation:auto;mix-blend-mode:normal;color-interpolation:sRGB;color-interpolation-filters:linearRGB;solid-color:#000000;solid-opacity:1;vector-effect:none;fill:#ffffff;fill-opacity:1;fill-rule:evenodd;stroke:none;stroke-width:1.87500048;stroke-linecap:round;stroke-linejoin:round;stroke-miterlimit:4;stroke-dasharray:none;stroke-dashoffset:0;stroke-opacity:1;color-rendering:auto;image-rendering:auto;shape-rendering:auto;text-rendering:auto;enable-background:accumulate" />
  </g>
</svg>
