<?xml version="1.0" encoding="UTF-8" standalone="no"?>
<svg
   xmlns:dc="http://purl.org/dc/elements/1.1/"
   xmlns:cc="http://creativecommons.org/ns#"
   xmlns:rdf="http://www.w3.org/1999/02/22-rdf-syntax-ns#"
   xmlns:svg="http://www.w3.org/2000/svg"
   xmlns="http://www.w3.org/2000/svg"
   xmlns:sodipodi="http://sodipodi.sourceforge.net/DTD/sodipodi-0.dtd"
   xmlns:inkscape="http://www.inkscape.org/namespaces/inkscape"
   width="32"
   version="1.1"
   height="32"
   viewBox="0 0 32 32"
   id="svg14"
   sodipodi:docname="latexila.svg"
   inkscape:version="0.92.1 r">
  <metadata
     id="metadata20">
    <rdf:RDF>
      <cc:Work
         rdf:about="">
        <dc:format>image/svg+xml</dc:format>
        <dc:type
           rdf:resource="http://purl.org/dc/dcmitype/StillImage" />
      </cc:Work>
    </rdf:RDF>
  </metadata>
  <defs
     id="defs18" />
  <sodipodi:namedview
     pagecolor="#ffffff"
     bordercolor="#666666"
     borderopacity="1"
     objecttolerance="10"
     gridtolerance="10"
     guidetolerance="10"
     inkscape:pageopacity="0"
     inkscape:pageshadow="2"
     inkscape:window-width="640"
     inkscape:window-height="480"
     id="namedview16"
     showgrid="false"
     inkscape:zoom="9.5"
     inkscape:cx="-4.1052632"
     inkscape:cy="16"
     inkscape:current-layer="svg14" />
  <rect
     style="opacity:1;fill:#00b88a;fill-opacity:1;fill-rule:evenodd;stroke:none;stroke-width:1.03534329;stroke-linecap:round;stroke-linejoin:bevel;stroke-miterlimit:4;stroke-dasharray:none;stroke-dashoffset:0;stroke-opacity:1"
     id="rect4497-3"
     width="28.203388"
     height="28.203388"
     x="1.8983059"
     y="1.8983059"
     ry="5.575182"
     inkscape:export-filename="/home/ramil/3.png"
     inkscape:export-xdpi="71"
     inkscape:export-ydpi="71" />
  <path
     style="fill:#fff763"
     inkscape:connector-curvature="0"
     id="path6"
     d="M 16,5 A 11,11 0 0 0 5,16 11,11 0 0 0 16,27 11,11 0 0 0 27,16 11,11 0 0 0 16,5 Z m -2,2 h 4 l -1,4 -1,4 -1,-4 z m -2.9492,1.2227 2.1211,3.5351 2.1211,3.5352 -3.5352,-2.1211 -3.5352,-2.1211 1.4141,-1.4141 z m 9.8984,0 1.4141,1.414 1.4141,1.4141 -3.5352,2.1211 -3.5352,2.1211 2.1211,-3.5352 z m -13.949,5.8 4,1 4,1 -4,1 -4,1 z m 18,0 v 4 l -4,-1 -4,-1 4,-1 z m -9.707,2.707 -2.1211,3.5352 L 11.051,23.8 9.6369,22.386 8.2228,20.9719 11.758,18.8508 Z m 1.4141,0 3.5352,2.1211 3.5352,2.1211 -1.4141,1.4141 -1.4141,1.414 -2.1211,-3.5351 z m -0.707,0.3 1,4 1,4 h -4 l 1,-4 z" />
</svg>
