<?xml version="1.0" encoding="UTF-8" standalone="no"?>
<svg
   xmlns:dc="http://purl.org/dc/elements/1.1/"
   xmlns:cc="http://creativecommons.org/ns#"
   xmlns:rdf="http://www.w3.org/1999/02/22-rdf-syntax-ns#"
   xmlns:svg="http://www.w3.org/2000/svg"
   xmlns="http://www.w3.org/2000/svg"
   xmlns:sodipodi="http://sodipodi.sourceforge.net/DTD/sodipodi-0.dtd"
   xmlns:inkscape="http://www.inkscape.org/namespaces/inkscape"
   height="32"
   width="32"
   version="1.1"
   viewBox="0 0 32 32"
   id="svg12"
   sodipodi:docname="lazarus.svg"
   inkscape:version="0.92.1 r">
  <metadata
     id="metadata18">
    <rdf:RDF>
      <cc:Work
         rdf:about="">
        <dc:format>image/svg+xml</dc:format>
        <dc:type
           rdf:resource="http://purl.org/dc/dcmitype/StillImage" />
      </cc:Work>
    </rdf:RDF>
  </metadata>
  <defs
     id="defs16" />
  <sodipodi:namedview
     pagecolor="#ffffff"
     bordercolor="#666666"
     borderopacity="1"
     objecttolerance="10"
     gridtolerance="10"
     guidetolerance="10"
     inkscape:pageopacity="0"
     inkscape:pageshadow="2"
     inkscape:window-width="640"
     inkscape:window-height="480"
     id="namedview14"
     showgrid="false"
     inkscape:zoom="9.5"
     inkscape:cx="-4.1052632"
     inkscape:cy="16"
     inkscape:current-layer="svg12" />
  <rect
     style="opacity:1;fill:#769edc;fill-opacity:1;fill-rule:evenodd;stroke:none;stroke-width:1.03534329;stroke-linecap:round;stroke-linejoin:bevel;stroke-miterlimit:4;stroke-dasharray:none;stroke-dashoffset:0;stroke-opacity:1"
     id="rect4497-3"
     width="28.203388"
     height="28.203388"
     x="1.8983059"
     y="1.8983059"
     ry="5.575182"
     inkscape:export-filename="/home/ramil/3.png"
     inkscape:export-xdpi="71"
     inkscape:export-ydpi="71" />
  <path
     style="fill:#313131"
     d="m 16.681121,7.4999912 c -0.107794,0 -0.0875,0.420153 0.02539,0.515625 0.127101,0.107481 0.314187,0.482662 0.369141,0.742187 l 0.04297,0.203125 -0.34961,0.07422 c -0.833344,0.176278 -0.994761,0.75087 -0.457031,1.6210938 0.188808,0.305566 0.189157,0.314256 0.152344,0.976562 -0.02761,0.496685 -0.01271,0.74837 0.05664,0.986329 0.10766,0.369398 0.408254,0.708856 0.722657,0.816406 0.347723,0.118949 1.291675,0.06283 1.642578,-0.09766 0.383895,-0.17559 0.884153,-0.696746 1.023437,-1.06836 C 20.073666,11.83188 20.011145,11.228365 19.749481,10.70116 19.497928,10.194328 18.842011,9.5048682 18.3862,9.2695192 18.145207,9.1450862 18.031365,9.0390842 17.950653,8.8613162 17.835412,8.6075042 16.802899,7.4999882 16.681122,7.4999882 Z m -5.97461,2 c -0.01435,-0.0013 -0.02701,0.0035 -0.03906,0.01563 -0.124745,0.125149 -0.226266,0.7828008 -0.214844,1.3964838 0.01081,0.580784 -0.0042,0.700938 -0.119141,0.894532 -0.3819412,0.643235 -0.4467292,1.821594 -0.136719,2.490234 0.274098,0.591186 0.727851,0.952231 1.419923,1.125 0.483121,0.120607 0.809281,0.103672 1.263671,-0.0625 1.252164,-0.457912 1.468755,-1.350666 0.570313,-2.357422 -0.364279,-0.408202 -0.533203,-0.741132 -0.533203,-1.042969 0,-0.367377 -0.134792,-0.726755 -0.361328,-0.96875 -0.203932,-0.217852 -0.215404,-0.220112 -0.605469,-0.185546 -0.218675,0.01938 -0.476472,0.05415 -0.572266,0.07812 -0.159033,0.03979 -0.184134,0.01832 -0.298828,-0.236328 -0.06909,-0.153383 -0.126095,-0.411231 -0.126953,-0.574219 -0.0012,-0.2517408 -0.145565,-0.5631708 -0.246094,-0.5722648 z m 12.707031,1.0019528 c -0.157558,-0.03119 -0.206243,0.334316 -0.08008,0.599609 0.05823,0.12239 0.09685,0.329767 0.08594,0.460938 l -0.01953,0.238281 -0.335938,0.0059 c -0.260536,0.005 -0.386041,0.0468 -0.568359,0.185547 -0.213384,0.162395 -0.539482,0.712828 -0.541016,0.914062 -3.42e-4,0.04449 -0.198841,0.477198 -0.441406,0.960938 -0.242562,0.483741 -0.460783,0.976546 -0.486328,1.09375 -0.136986,0.628519 0.243105,1.098282 1.152344,1.425781 0.383939,0.138296 0.785417,0.149219 1.220703,0.0332 0.707442,-0.18856 1.162304,-0.545355 1.4375,-1.128906 0.145112,-0.30781 0.165043,-0.432699 0.162109,-0.992188 C 24.995681,13.573681 24.858562,13.1159 24.487762,12.593778 24.372014,12.430815 24.230381,12.113072 24.173309,11.8887 24.05648,11.429437 23.564403,10.531862 23.413543,10.501981 Z m -16.3339842,5 c -0.01627,-0.0038 -0.02828,-0.0017 -0.03711,0.0078 -0.130607,0.140268 0.06592,1.501576 0.263671,1.826172 0.04855,0.07969 0.117,0.351869 0.154297,0.603515 0.169159,1.141325 0.965323,2.207573 1.869141,2.503906 0.308753,0.10123 0.9788912,0.06377 1.4121092,-0.07813 0.358291,-0.117352 0.477864,-0.198001 0.748047,-0.501953 0.560715,-0.630799 0.663239,-1.254621 0.28711,-1.759765 -0.09956,-0.133762 -0.404114,-0.383158 -0.675782,-0.554688 -0.271672,-0.171496 -0.745125,-0.488088 -1.050781,-0.703125 -0.8953252,-0.629885 -0.9895712,-0.688243 -1.2363282,-0.761719 -0.313225,-0.09326 -0.632058,0.0062 -0.892578,0.277344 l -0.205078,0.210938 -0.126953,-0.22461 c -0.07068,-0.124523 -0.128782,-0.289287 -0.128907,-0.365234 -2.3e-4,-0.136294 -0.26698,-0.454027 -0.380859,-0.480469 z m 11.4238282,0.998047 c -0.393293,0.0019 -0.847362,0.06505 -1.371094,0.191406 -1.480116,0.357092 -2.1797,0.782592 -2.498046,1.517578 -0.137841,0.31822 -0.148801,0.427947 -0.111328,1.03711 0.03811,0.619319 0.02799,0.708482 -0.117188,1.017578 -0.147527,0.314093 -0.317903,0.491237 -1.099609,1.148437 -0.24822,0.208686 -0.270938,0.257615 -0.298829,0.640625 -0.02597,0.356655 -1.7e-5,0.473987 0.179688,0.855469 0.38377,0.814782 1.076246,1.3614 1.943359,1.53125 0.410486,0.08038 0.681873,0.08046 1.386719,0.002 2.739824,-0.305365 5.889248,-1.292694 6.789063,-2.128906 0.470446,-0.437196 0.65797,-0.84029 0.689453,-1.480469 0.06008,-1.222181 -0.490391,-1.954923 -1.472656,-1.958984 -0.768953,-0.0031 -1.542217,-0.450002 -1.859376,-1.074219 -0.234888,-0.462287 -0.711027,-0.923475 -1.15625,-1.11914 -0.278272,-0.122318 -0.610613,-0.18168 -1.003906,-0.179688 z"
     id="path8"
     inkscape:connector-curvature="0" />
</svg>
