<?xml version="1.0" encoding="UTF-8" standalone="no"?>
<svg
   xmlns:dc="http://purl.org/dc/elements/1.1/"
   xmlns:cc="http://creativecommons.org/ns#"
   xmlns:rdf="http://www.w3.org/1999/02/22-rdf-syntax-ns#"
   xmlns:svg="http://www.w3.org/2000/svg"
   xmlns="http://www.w3.org/2000/svg"
   xmlns:sodipodi="http://sodipodi.sourceforge.net/DTD/sodipodi-0.dtd"
   xmlns:inkscape="http://www.inkscape.org/namespaces/inkscape"
   height="32"
   width="32"
   version="1"
   id="svg14"
   sodipodi:docname="libreoffice-impress.svg"
   inkscape:version="0.92.1 r">
  <metadata
     id="metadata20">
    <rdf:RDF>
      <cc:Work
         rdf:about="">
        <dc:format>image/svg+xml</dc:format>
        <dc:type
           rdf:resource="http://purl.org/dc/dcmitype/StillImage" />
      </cc:Work>
    </rdf:RDF>
  </metadata>
  <defs
     id="defs18" />
  <sodipodi:namedview
     pagecolor="#ffffff"
     bordercolor="#666666"
     borderopacity="1"
     objecttolerance="10"
     gridtolerance="10"
     guidetolerance="10"
     inkscape:pageopacity="0"
     inkscape:pageshadow="2"
     inkscape:window-width="1680"
     inkscape:window-height="963"
     id="namedview16"
     showgrid="false"
     inkscape:zoom="7.375"
     inkscape:cx="-38.849181"
     inkscape:cy="31.777994"
     inkscape:window-x="0"
     inkscape:window-y="0"
     inkscape:window-maximized="1"
     inkscape:current-layer="svg14" />
  <path
     inkscape:connector-curvature="0"
     style="opacity:1;fill:#ff5722;fill-opacity:1;fill-rule:evenodd;stroke:none;stroke-width:1.03534329;stroke-linecap:round;stroke-linejoin:bevel;stroke-miterlimit:4;stroke-dasharray:none;stroke-dashoffset:0;stroke-opacity:1"
     d="M 30.101562,12.222656 V 7.4726562 c 0,-3.0886508 -2.485568,-5.5742187 -5.574219,-5.5742187 h -4.75 z"
     id="path4496" />
  <path
     inkscape:connector-curvature="0"
     style="opacity:1;fill:#ff5722;fill-opacity:1;fill-rule:evenodd;stroke:none;stroke-width:1.03534329;stroke-linecap:round;stroke-linejoin:bevel;stroke-miterlimit:4;stroke-dasharray:none;stroke-dashoffset:0;stroke-opacity:1"
     d="M 18.111328,1.8984375 H 7.474609 c -3.088651,0 -5.576172,2.4855679 -5.576172,5.5742187 V 24.525391 c 0,3.088651 2.487521,5.576172 5.576172,5.576172 h 17.052734 c 3.088651,0 5.574219,-2.487521 5.574219,-5.576172 V 13.888672 Z"
     id="path4494" />
  <path
     inkscape:connector-curvature="0"
     style="opacity:1;fill:#ffffff;fill-opacity:1;fill-rule:evenodd;stroke:none;stroke-width:1.03534329;stroke-linecap:round;stroke-linejoin:bevel;stroke-miterlimit:4;stroke-dasharray:none;stroke-dashoffset:0;stroke-opacity:1"
     d="M 18.111328,1.8984375 30.101562,13.888672 V 12.222656 L 19.777343,1.8984375 Z"
     id="rect4497-3" />
  <g
     id="g4539"
     transform="translate(3.8351555,10.691907)"
     style="fill:#ffffff;fill-opacity:1">
    <path
       inkscape:connector-curvature="0"
       id="path4485"
       d="m 6.8901591,2.1725153 a 3.3898306,3.3898306 0 0 0 -2.9375001,1.695313 3.3898306,3.3898306 0 0 0 0,3.388672 3.3898306,3.3898306 0 0 0 2.0507811,1.574219 3.3898306,3.3898306 0 0 0 0.283203,0.06445 3.3898306,3.3898306 0 0 0 0.19336,0.03125 3.3898306,3.3898306 0 0 0 0.0918,0.01172 3.3898306,3.3898306 0 0 0 2.052734,-0.431641 3.3898306,3.3898306 0 0 0 1.6953119,-2.935547 H 6.8901621 Z"
       style="opacity:1;fill:#ffffff;fill-opacity:1;fill-rule:nonzero;stroke:none;stroke-width:10.04599953;stroke-linecap:round;stroke-linejoin:bevel;stroke-miterlimit:4;stroke-dasharray:none;stroke-dashoffset:0;stroke-opacity:1" />
    <rect
       ry="0.6532945"
       y="2.9581683"
       x="12.116905"
       height="1.306589"
       width="8.7106361"
       id="rect4503"
       style="opacity:1;fill:#ffffff;fill-opacity:1;fill-rule:nonzero;stroke:none;stroke-width:10.04599953;stroke-linecap:round;stroke-linejoin:bevel;stroke-miterlimit:4;stroke-dasharray:none;stroke-dashoffset:0;stroke-opacity:1" />
    <rect
       ry="0.6532945"
       y="6.8779349"
       x="12.116905"
       height="1.306589"
       width="8.7106361"
       id="rect4503-6"
       style="opacity:1;fill:#ffffff;fill-opacity:1;fill-rule:nonzero;stroke:none;stroke-width:10.04599953;stroke-linecap:round;stroke-linejoin:bevel;stroke-miterlimit:4;stroke-dasharray:none;stroke-dashoffset:0;stroke-opacity:1" />
    <rect
       ry="0.6532945"
       y="10.7977"
       x="4.2773733"
       height="1.306589"
       width="13.073126"
       id="rect4503-6-7"
       style="opacity:1;fill:#ffffff;fill-opacity:1;fill-rule:nonzero;stroke:none;stroke-width:10.04599953;stroke-linecap:round;stroke-linejoin:bevel;stroke-miterlimit:4;stroke-dasharray:none;stroke-dashoffset:0;stroke-opacity:1" />
  </g>
</svg>
