<?xml version="1.0" encoding="UTF-8" standalone="no"?>
<svg
   xmlns:dc="http://purl.org/dc/elements/1.1/"
   xmlns:cc="http://creativecommons.org/ns#"
   xmlns:rdf="http://www.w3.org/1999/02/22-rdf-syntax-ns#"
   xmlns:svg="http://www.w3.org/2000/svg"
   xmlns="http://www.w3.org/2000/svg"
   xmlns:sodipodi="http://sodipodi.sourceforge.net/DTD/sodipodi-0.dtd"
   xmlns:inkscape="http://www.inkscape.org/namespaces/inkscape"
   height="32"
   width="32"
   version="1"
   id="svg10"
   sodipodi:docname="limbo.svg"
   inkscape:version="0.92.1 r">
  <metadata
     id="metadata16">
    <rdf:RDF>
      <cc:Work
         rdf:about="">
        <dc:format>image/svg+xml</dc:format>
        <dc:type
           rdf:resource="http://purl.org/dc/dcmitype/StillImage" />
      </cc:Work>
    </rdf:RDF>
  </metadata>
  <defs
     id="defs14" />
  <sodipodi:namedview
     pagecolor="#ffffff"
     bordercolor="#666666"
     borderopacity="1"
     objecttolerance="10"
     gridtolerance="10"
     guidetolerance="10"
     inkscape:pageopacity="0"
     inkscape:pageshadow="2"
     inkscape:window-width="640"
     inkscape:window-height="480"
     id="namedview12"
     showgrid="false"
     inkscape:zoom="8.9375"
     inkscape:cx="-5.3706294"
     inkscape:cy="16"
     inkscape:current-layer="svg10" />
  <rect
     style="opacity:1;fill:#4f4f4f;fill-opacity:1;fill-rule:evenodd;stroke:none;stroke-width:1.03534329;stroke-linecap:round;stroke-linejoin:bevel;stroke-miterlimit:4;stroke-dasharray:none;stroke-dashoffset:0;stroke-opacity:1"
     id="rect4497-3"
     width="28.203388"
     height="28.203388"
     x="1.8983059"
     y="1.8983059"
     ry="5.575182"
     inkscape:export-filename="/home/ramil/3.png"
     inkscape:export-xdpi="71"
     inkscape:export-ydpi="71" />
  <path
     d="m 13.856211,25.910091 c 0.15583,-0.508929 0.924192,-1.779806 1.337683,-2.212429 0.253963,-0.265739 0.461746,-0.50802 0.461746,-0.538409 0,-0.210275 -0.629419,-0.672607 -3.430134,-2.51955 -1.498554,-0.988257 -2.3119291,-1.694925 -3.0610371,-2.659604 l -0.633441,-0.8158 -0.263064,-1.239532 c -0.198729,-0.935712 -0.243662,-1.308245 -0.183639,-1.521121 0.05962,-0.211529 0.0485,-0.307188 -0.04433,-0.382638 -0.170166,-0.138518 -0.163046,-0.760358 0.0094,-0.825299 0.09494,-0.03574 0.129982,-0.165033 0.12202,-0.450179 -0.01502,-0.536906 0.06999,-0.719467 0.852986,-1.83033 0.458088,-0.649811 0.787103,-1.0232196 1.0350091,-1.1745906 0.199875,-0.122067 0.592416,-0.434308 0.872253,-0.693801 0.460379,-0.426965 0.536569,-0.466778 0.799902,-0.418342 0.209852,0.03861 0.350054,0.0096 0.502597,-0.103919 0.337745,-0.251389 0.870501,-0.535444 1.00429,-0.535444 0.144634,0 0.976535,-0.465821 1.230168,-0.688816 0.291256,-0.256091 1.420005,-0.796197 1.595358,-0.76339 0.09001,0.01686 0.17631,0.117561 0.19177,0.22383 0.01547,0.10627 0.05469,0.193219 0.08717,0.193219 0.0325,0 0.336465,-0.131882 0.675477,-0.293068 0.339052,-0.161187 1.057577,-0.414085 1.596773,-0.562 1.054949,-0.28941 1.332901,-0.275816 1.524085,0.07455 0.08621,0.157979 0.180231,0.17666 0.889229,0.17666 0.81607,0 1.23906,0.120908 1.341793,0.383574 0.02819,0.07214 0.310065,0.251073 0.626321,0.397627 0.468826,0.217262 0.575008,0.304056 0.575008,0.470019 0,0.12852 0.09905,0.272724 0.268736,0.391234 0.390634,0.272818 0.318539,0.496762 -0.268736,0.834663 -0.266055,0.153068 -0.543104,0.31381 -0.615663,0.3572 -0.107584,0.06434 -0.08729,0.0992 0.109947,0.188928 0.133021,0.06051 0.241864,0.166798 0.241864,0.236191 0,0.189063 -0.754161,1.1885356 -1.055758,1.3991886 -0.317508,0.221755 -0.32248,0.316727 -0.05675,1.084523 0.113713,0.32857 0.296133,0.98563 0.405394,1.46002 0.109254,0.474464 0.273445,1.114972 0.364887,1.423373 0.09144,0.308401 0.229947,0.929514 0.307808,1.380259 0.246734,1.428426 0.03907,2.341502 -0.753756,3.315006 -0.532426,0.653746 -1.802306,1.856469 -2.543196,2.408666 l -0.560929,0.41808 0.05201,0.430474 c 0.0401,0.332242 0.124472,0.509172 0.369643,0.775381 0.38381,0.416685 1.096042,1.818272 1.096042,2.15692 v 0.243487 h -7.136064 l 0.05943,-0.194101 z m 4.485959,-9.592898 c 0.118732,-0.116455 0.215881,-0.312321 0.215881,-0.43525 0,-0.122923 -0.09715,-0.318789 -0.215881,-0.435244 -0.609297,-0.59761 -1.502326,0.266445 -0.912134,0.88256 0.253512,0.264673 0.635146,0.259614 0.912134,-0.01207 z m 3.924398,-1.570432 c 0.05477,-0.270993 -0.190491,-0.632903 -0.464272,-0.690905 -0.260618,-0.05519 -0.620345,0.163652 -0.676488,0.420808 -0.0606,0.277615 0.193839,0.654998 0.476021,0.710777 0.261743,0.05174 0.61253,-0.182346 0.664739,-0.440687 z"
     id="path4"
     inkscape:connector-curvature="0"
     style="fill:#ffffff;stroke-width:1" />
</svg>
