<?xml version="1.0" encoding="UTF-8" standalone="no"?>
<svg
   xmlns:dc="http://purl.org/dc/elements/1.1/"
   xmlns:cc="http://creativecommons.org/ns#"
   xmlns:rdf="http://www.w3.org/1999/02/22-rdf-syntax-ns#"
   xmlns:svg="http://www.w3.org/2000/svg"
   xmlns="http://www.w3.org/2000/svg"
   xmlns:sodipodi="http://sodipodi.sourceforge.net/DTD/sodipodi-0.dtd"
   xmlns:inkscape="http://www.inkscape.org/namespaces/inkscape"
   height="32"
   viewBox="0 0 32 32"
   width="32"
   version="1.1"
   id="svg30"
   sodipodi:docname="lutris.svg"
   inkscape:version="0.92.1 r">
  <metadata
     id="metadata36">
    <rdf:RDF>
      <cc:Work
         rdf:about="">
        <dc:format>image/svg+xml</dc:format>
        <dc:type
           rdf:resource="http://purl.org/dc/dcmitype/StillImage" />
      </cc:Work>
    </rdf:RDF>
  </metadata>
  <defs
     id="defs34" />
  <sodipodi:namedview
     pagecolor="#ffffff"
     bordercolor="#666666"
     borderopacity="1"
     objecttolerance="10"
     gridtolerance="10"
     guidetolerance="10"
     inkscape:pageopacity="0"
     inkscape:pageshadow="2"
     inkscape:window-width="640"
     inkscape:window-height="480"
     id="namedview32"
     showgrid="false"
     inkscape:zoom="8.9375"
     inkscape:cx="-0.86921185"
     inkscape:cy="21.491074"
     inkscape:current-layer="svg30" />
  <g
     id="g4528"
     transform="translate(45.874125,4.1398602)">
    <rect
       inkscape:export-ydpi="71"
       inkscape:export-xdpi="71"
       inkscape:export-filename="/home/ramil/3.png"
       ry="5.575182"
       y="-2.2415543"
       x="-43.975819"
       height="28.203388"
       width="28.203388"
       id="rect4497-3"
       style="opacity:1;fill:#8c6b5f;fill-opacity:1;fill-rule:evenodd;stroke:none;stroke-width:1.03534329;stroke-linecap:round;stroke-linejoin:bevel;stroke-miterlimit:4;stroke-dasharray:none;stroke-dashoffset:0;stroke-opacity:1" />
    <path
       inkscape:connector-curvature="0"
       id="path4"
       style="fill:#f8bd2b;fill-opacity:1;stroke-width:0.52498817"
       d="m -28.518202,3.611854 a 9.4927497,9.4927497 0 0 0 -9.492749,9.49275 9.4927497,9.4927497 0 0 0 9.492749,9.492749 9.4927497,9.4927497 0 0 0 9.49275,-9.492749 9.4927497,9.4927497 0 0 0 -9.49275,-9.49275 z" />
    <path
       inkscape:connector-curvature="0"
       id="path6"
       style="fill:#8c6b5f;fill-opacity:1;stroke-width:0.12287807"
       d="m -28.707848,6.7951762 c 1.17588,0.2782351 1.303464,1.7768892 2.249319,2.1418574 1.262112,0.5126752 1.369746,-1.0922666 0.71812,-1.9409276" />
    <path
       inkscape:connector-curvature="0"
       id="path10"
       d="m -30.275553,-0.90847502 c -6.621642,-0.00594 -12.077514,5.44706742 -12.251579,12.32574202 -0.177036,6.987858 5.162966,12.800613 11.926502,12.983313 3.295084,0.08894 5.867418,-1.174975 8.123985,-3.302686 0.240947,-0.201029 0.372046,-0.326314 0.372046,-0.326314 0,0 2.447043,-2.568283 2.57837,-4.688281 -0.624394,1.031543 -1.197148,2.064374 -2.751414,2.829284 -0.712809,0.330186 -1.366159,0.611111 -2.024625,0.833088 -0.04216,0.01073 -0.0845,0.02069 -0.127313,0.0309 -0.311884,0.07444 -0.638766,0.136971 -0.981411,0.184168 -0.04153,0.0057 -0.08415,0.01075 -0.126076,0.01607 -0.355368,0.04507 -0.722299,0.07789 -1.101306,0.09394 -0.03901,0.0016 -0.07944,0.0012 -0.11866,0.0024 -0.373905,0.01279 -0.756317,0.01169 -1.144569,-0.0037 -0.02533,-9.95e-4 -0.05002,-1.1e-4 -0.0754,-0.0013 -0.394831,-0.01751 -0.343593,-0.05331 -0.744856,-0.100118 -0.05727,-0.0067 -0.114508,-0.01126 -0.171809,-0.01854 -0.390602,-0.04964 -0.781049,-0.115211 -1.169289,-0.192821 -0.06273,-0.01254 -0.125326,-0.02505 -0.187878,-0.03832 -0.379928,-0.08063 -0.756449,-0.175255 -1.126028,-0.283052 -0.118493,-0.03456 -0.236544,-0.07017 -0.353506,-0.107535 -0.08839,-0.02824 -0.177105,-0.05543 -0.264511,-0.08528 -0.124908,-0.04266 -0.246927,-0.08878 -0.369575,-0.134729 -0.100032,-0.03747 -0.200764,-0.07405 -0.29912,-0.113715 -0.113975,-0.04597 -0.224702,-0.09569 -0.336201,-0.144616 -0.09449,-0.04146 -0.190495,-0.08126 -0.283052,-0.124839 -0.201517,-0.09489 -0.399602,-0.194131 -0.590825,-0.299121 -0.152184,-0.08418 -0.297019,-0.172321 -0.435084,-0.264512 -0.317071,-0.211714 -0.5938,-0.445061 -0.84174,-0.689707 -1.29082,-1.31727 -1.23089,-2.866134 -1.163109,-3.870026 0.0854,-1.260999 1.142607,-4.0276628 4.621534,-5.4929396 2.149487,-0.7589561 4.677448,-1.2897547 6.790778,-0.6093651 1.589695,0.3586812 2.73281,0.8802382 4.244544,1.4140239 0,0 -0.01223,0.026309 0.405419,0.1297841 2.94001,0.4657185 2.609994,-1.9563098 2.609994,-1.9563098 L -17.87176,6.5196741 v 0 c -0.05097,-0.298681 0.172744,-0.5342392 0.172744,-0.5342392 0,0 -0.181218,-0.6678762 -0.150676,-1.1092657 0.03096,-0.4411863 0.006,-1.0067067 -0.09023,-1.8132632 -0.0962,-0.806614 -0.62561,-1.4892037 -0.797245,-1.6145811 -0.172028,-0.1251514 -0.973599,-0.72944156 -1.741574,-1.03085326 -0.768443,-0.30141573 -1.545097,-0.52416874 -2.501735,-0.38935113 -0.106217,0.01501968 -0.206755,0.03126169 -0.31148,0.04696938 -0.01854,-0.0058856 -0.03309,-0.01259129 -0.05315,-0.01854021 -0.364789,-0.10833451 -0.622833,-0.97045838 -0.920845,-0.96331823 -0.02281,5.4689e-4 -0.04587,0.002495 -0.06922,0.004945 -0.02298,0.002405 -0.04682,0.005479 -0.07046,0.009888 h -0.0013 c -0.02408,0.004493 -0.04803,0.0105562 -0.07292,0.0173043 -0.02718,0.007377 -0.05336,0.0170358 -0.07787,0.0284292 -0.174401,0.0810753 -0.281241,1.01935022 -0.3473,1.21949782 -1.530145,-0.77342719 -3.241029,-1.22793462 -5.055381,-1.27682709 -0.105677,-0.002857 -0.210083,-0.004846 -0.315189,-0.004945 z m 6.742098,20.42177102 c -0.224627,0.08372 -0.468461,0.154561 -0.719372,0.220016 0.250769,-0.06542 0.494895,-0.136358 0.719372,-0.220016 z"
       style="fill:#8c6b5f;fill-opacity:1;stroke-width:0.12287807" />
    <path
       inkscape:connector-curvature="0"
       id="path14"
       d="m -24.935095,2.7207442 c -1.324498,-0.00158 -2.760381,0.3859866 -3.809081,0.7506993 -1.98875,0.7037463 -3.228791,1.273272 -4.840197,2.4248551 -0.427291,0.310275 -2.106396,1.5431487 -3.12664,3.262365 -2.819492,4.9848264 -0.824548,10.2777484 2.821529,11.4804264 4.008645,1.499148 7.845789,1.93213 12.672134,-2.333175 -0.415424,0.332466 0,0 -2.316425,1.207068 -2.730207,1.017498 -7.101485,0.690657 -10.339834,-1.087327 -2.605233,-1.441111 -2.34378,-3.56302 -2.25864,-4.82402 0.0854,-1.260999 0.961779,-4.0281335 4.440706,-5.4934104 2.149487,-0.758956 4.676999,-1.2897175 6.790328,-0.609327 1.589696,0.3586803 2.732367,1.0077277 4.2441,1.5415134 0,0 -0.01245,0.025911 0.405205,0.1293972 2.940009,0.465657 3.035068,-2.121679 3.035068,-2.121679 l -0.08383,-0.4714314 -0.25594,-0.6396491 -0.121968,-0.274053 -0.07357,-0.1485174 c 0,0 -0.0212,-0.1869932 -0.05092,-0.3769912 -0.05631,0.7101862 -0.339108,1.0958041 -0.339108,1.0958041 -2.285058,-0.433239 -2.693481,-2.4034081 -5.102798,-3.2303835 -0.509212,-0.200263 -1.088083,-0.2814462 -1.690128,-0.2821645 z m 3.717745,15.5851708 c 0.266155,-0.213005 0.395098,-0.358549 0.395138,-0.358451 -0.132173,0.123493 -0.263768,0.242353 -0.395138,0.358451 z"
       style="fill:#d3c9c6;fill-opacity:1;stroke-width:0.12287807" />
    <path
       inkscape:connector-curvature="0"
       id="path16"
       d="m -37.090433,9.1338399 -0.01372,0.1129247 c 0.919467,-0.046588 2.046379,0.1526541 2.882315,0.7389666 0.648094,0.4375308 1.231912,1.0904918 2.062862,0.7950818 0.568096,-0.19923 0.599661,-0.536599 0.381898,-1.0913517 -0.183894,-0.4510586 -0.487872,-1.2299554 -0.863763,-1.528585 -0.541499,-0.428515 -1.941374,-0.2788779 -2.011606,-1.1749838 -0.05278,-0.4235787 0.214023,-0.7421747 0.450695,-1.0508965 -4.37e-4,0 -2.710819,0.6814195 -2.888687,3.1988439 z"
       style="fill:#8c6b5f;fill-opacity:1;stroke-width:0.12287807" />
    <path
       inkscape:connector-curvature="0"
       id="path20"
       style="fill:#3f3f3f;fill-opacity:1;stroke-width:0.11217088"
       d="m -18.098127,6.3236974 c 0,0 -0.104163,0.3284478 -0.593266,0.3572694 -0.488911,0.029202 -0.404351,0.7091216 0.0196,1.0897957 0.424145,0.3808695 0.755851,0.4853237 1.038551,0.1930471 0.282316,-0.291697 0.975706,-0.7756636 -0.464888,-1.6401122 z" />
    <path
       inkscape:connector-curvature="0"
       id="path24"
       style="fill:#3f3f3f;fill-opacity:1;stroke-width:0.13037941"
       d="m -21.024305,5.0750426 c -0.307496,0.3923559 -0.875574,0.4598945 -1.269116,0.1517915 -0.393541,-0.3096827 -0.464023,-0.8780018 -0.156305,-1.2705843 0.306831,-0.3916791 0.875353,-0.4594437 1.268673,-0.1508887 0.393764,0.3092318 0.463356,0.8773245 0.156748,1.2696815 z" />
    <path
       inkscape:connector-curvature="0"
       id="path28"
       style="fill:#3f3f3f;fill-opacity:1;stroke-width:0.1260338"
       d="m -17.467719,5.1258475 c -0.0266,0.3487224 -0.248517,0.6104894 -0.495369,0.5840642 -0.246646,-0.025744 -0.424931,-0.3288466 -0.397709,-0.6782462 0.02681,-0.34827 0.248308,-0.6098111 0.494954,-0.5838376 0.246645,0.026649 0.424928,0.3295237 0.398124,0.6780196 z" />
  </g>
</svg>
