<?xml version="1.0" encoding="UTF-8" standalone="no"?>
<svg
   xmlns:dc="http://purl.org/dc/elements/1.1/"
   xmlns:cc="http://creativecommons.org/ns#"
   xmlns:rdf="http://www.w3.org/1999/02/22-rdf-syntax-ns#"
   xmlns:svg="http://www.w3.org/2000/svg"
   xmlns="http://www.w3.org/2000/svg"
   xmlns:sodipodi="http://sodipodi.sourceforge.net/DTD/sodipodi-0.dtd"
   xmlns:inkscape="http://www.inkscape.org/namespaces/inkscape"
   height="32"
   width="32"
   version="1"
   id="svg12"
   sodipodi:docname="mark-location-symbolic.svg"
   inkscape:version="0.92.1 r">
  <metadata
     id="metadata18">
    <rdf:RDF>
      <cc:Work
         rdf:about="">
        <dc:format>image/svg+xml</dc:format>
        <dc:type
           rdf:resource="http://purl.org/dc/dcmitype/StillImage" />
        <dc:title></dc:title>
      </cc:Work>
    </rdf:RDF>
  </metadata>
  <defs
     id="defs16" />
  <sodipodi:namedview
     pagecolor="#ffffff"
     bordercolor="#666666"
     borderopacity="1"
     objecttolerance="10"
     gridtolerance="10"
     guidetolerance="10"
     inkscape:pageopacity="0"
     inkscape:pageshadow="2"
     inkscape:window-width="1680"
     inkscape:window-height="963"
     id="namedview14"
     showgrid="false"
     inkscape:zoom="7.375"
     inkscape:cx="13.423729"
     inkscape:cy="23.728814"
     inkscape:window-x="0"
     inkscape:window-y="0"
     inkscape:window-maximized="1"
     inkscape:current-layer="svg12" />
  <rect
     style="opacity:1;fill:#800000;fill-opacity:1;fill-rule:evenodd;stroke:none;stroke-width:1.03534329;stroke-linecap:round;stroke-linejoin:bevel;stroke-miterlimit:4;stroke-dasharray:none;stroke-dashoffset:0;stroke-opacity:1"
     id="rect4497-3"
     width="28.203388"
     height="28.203388"
     x="1.8983059"
     y="1.8983059"
     ry="5.575182" />
  <path
     style="fill:#ffffff;stroke-width:1"
     d="m 15.74178,24.150318 c -0.267986,-0.07577 -0.424837,-0.2026 -1.101332,-0.890573 -2.638768,-2.683539 -4.352241,-5.142561 -5.0079928,-7.187023 -0.234017,-0.729604 -0.316223,-1.395145 -0.258236,-2.090687 0.0714,-0.85643 0.259531,-1.577905 0.601477,-2.306654 1.0153578,-2.163905 3.0422328,-3.5979216 5.4118658,-3.8289005 2.244127,-0.2187451 4.509507,0.7766795 5.887642,2.5870715 0.779959,1.024597 1.231743,2.1994 1.348417,3.506377 0.158114,1.771178 -0.617042,3.759375 -2.397289,6.148803 -0.770312,1.033905 -1.488695,1.849619 -2.690075,3.054543 -0.731634,0.733792 -0.843295,0.833331 -1.035944,0.923482 -0.250393,0.117173 -0.5305,0.14803 -0.758533,0.08356 z m 0.819035,-7.588596 c 0.506419,-0.104603 0.914699,-0.321074 1.313626,-0.696487 0.294259,-0.276913 0.501343,-0.567399 0.644768,-0.904444 0.166898,-0.392203 0.213014,-0.627063 0.213014,-1.084839 0,-0.457542 -0.04576,-0.690767 -0.213235,-1.086723 -0.337933,-0.79898 -1.099292,-1.422776 -1.949903,-1.597594 -0.315476,-0.06484 -0.822802,-0.06484 -1.138278,0 -1.303889,0.267976 -2.251492,1.502582 -2.17079,2.828264 0.0443,0.727677 0.33344,1.344682 0.86423,1.844198 0.391965,0.36887 0.804109,0.590482 1.293723,0.695642 0.288281,0.06192 0.847981,0.06289 1.142845,0.002 z"
     id="path4513"
     inkscape:connector-curvature="0" />
</svg>
