<?xml version="1.0" encoding="UTF-8" standalone="no"?>
<svg
   xmlns:dc="http://purl.org/dc/elements/1.1/"
   xmlns:cc="http://creativecommons.org/ns#"
   xmlns:rdf="http://www.w3.org/1999/02/22-rdf-syntax-ns#"
   xmlns:svg="http://www.w3.org/2000/svg"
   xmlns="http://www.w3.org/2000/svg"
   xmlns:sodipodi="http://sodipodi.sourceforge.net/DTD/sodipodi-0.dtd"
   xmlns:inkscape="http://www.inkscape.org/namespaces/inkscape"
   height="32"
   width="32"
   version="1.1"
   id="svg20"
   sodipodi:docname="mediawriter.svg"
   inkscape:version="0.92.1 r">
  <metadata
     id="metadata26">
    <rdf:RDF>
      <cc:Work
         rdf:about="">
        <dc:format>image/svg+xml</dc:format>
        <dc:type
           rdf:resource="http://purl.org/dc/dcmitype/StillImage" />
      </cc:Work>
    </rdf:RDF>
  </metadata>
  <defs
     id="defs24" />
  <sodipodi:namedview
     pagecolor="#ffffff"
     bordercolor="#666666"
     borderopacity="1"
     objecttolerance="10"
     gridtolerance="10"
     guidetolerance="10"
     inkscape:pageopacity="0"
     inkscape:pageshadow="2"
     inkscape:window-width="640"
     inkscape:window-height="480"
     id="namedview22"
     showgrid="false"
     inkscape:zoom="24.925514"
     inkscape:cx="4.1144434"
     inkscape:cy="18.053923"
     inkscape:current-layer="svg20" />
  <rect
     style="opacity:1;fill:#8e8e8e;fill-opacity:1;fill-rule:evenodd;stroke:none;stroke-width:1.03534329;stroke-linecap:round;stroke-linejoin:bevel;stroke-miterlimit:4;stroke-dasharray:none;stroke-dashoffset:0;stroke-opacity:1"
     id="rect4497-3"
     width="28.203388"
     height="28.203388"
     x="1.8983059"
     y="1.8983059"
     ry="5.575182" />
  <path
     inkscape:connector-curvature="0"
     style="fill:#b7b7b7;stroke-width:1"
     d="M 7.2289766,27.16312 H 24.771023 V 19.189463 H 7.2289766 Z"
     id="path4" />
  <rect
     style="opacity:1;stroke-width:1.25412965;fill:#666666"
     transform="scale(1,-1)"
     height="2.3920972"
     width="3.1894629"
     y="-25.568388"
     x="9.6210737"
     id="rect6" />
  <rect
     style="opacity:1;stroke-width:1.25412965;fill:#666666"
     transform="scale(1,-1)"
     height="2.3920972"
     width="3.1894629"
     y="-25.568388"
     x="19.189463"
     id="rect8" />
  <path
     inkscape:connector-curvature="0"
     style="fill:#5161a2;stroke-width:1"
     d="M 16,4.8368794 A 11.163121,11.163121 0 0 0 4.8368794,16 11.163121,11.163121 0 0 0 5.9270279,20.784194 H 26.071414 A 11.163121,11.163121 0 0 0 27.16312,16 11.163121,11.163121 0 0 0 16,4.8368794 Z"
     id="path12" />
  <path
     inkscape:connector-curvature="0"
     style="opacity:1;fill:#ffffff;stroke-width:1.25412965;fill-opacity:0.45381525"
     d="m 18.79078,7.2289766 c -1.981678,0 -3.588146,1.6064676 -3.588146,3.5881464 v 1.993414 H 13.20922 c -1.981678,0 -3.5881461,1.606468 -3.5881461,3.588146 0,1.981678 1.6064681,3.588146 3.5881461,3.588146 1.981678,0 3.588146,-1.606468 3.588146,-3.588146 v -1.993415 h 1.993414 c 1.981678,0 3.588146,-1.606468 3.588146,-3.588145 0,-1.9816788 -1.606468,-3.5881464 -3.588146,-3.5881464 z m 0,1.5947316 c 1.100932,0 1.993414,0.8924823 1.993414,1.9934148 0,1.100932 -0.892482,1.993414 -1.993414,1.993414 h -1.586944 c -0.184629,0 -0.40647,2.8e-4 -0.40647,-0.437617 v -1.555797 c 0,-1.1009325 0.892482,-1.9934148 1.993414,-1.9934148 z m -5.58156,5.5815598 h 1.586945 c 0.184628,0 0.406469,-2.79e-4 0.406469,0.437617 v 1.555798 c 0,1.100931 -0.892482,1.993414 -1.993414,1.993414 -1.100932,0 -1.993415,-0.892483 -1.993415,-1.993414 0,-1.100933 0.892483,-1.993415 1.993415,-1.993415 z"
     id="path16" />
  <path
     inkscape:connector-curvature="0"
     style="fill:#ffffff;stroke-width:1"
     d="m 18.79078,7.2289766 c -1.981678,0 -3.588146,1.6064676 -3.588146,3.5881464 v 1.993414 H 13.20922 a 0.79736575,0.79736575 0 0 0 -0.07943,0.0039 c -5.18e-4,1.1e-5 -10e-4,-1.2e-5 -0.0016,0 a 0.79736575,0.79736575 0 0 0 -0.716345,0.793459 0.79736575,0.79736575 0 0 0 0.797366,0.797365 h 1.586945 c 0.184628,0 0.406469,-2.79e-4 0.406469,0.437617 v 1.555798 c 0,1.100931 -0.892482,1.993414 -1.993414,1.993414 -0.306214,0 -0.59263,-0.07442 -0.851873,-0.197784 -0.107626,-0.05159 -0.224594,-0.08105 -0.344176,-0.08098 -0.440372,0 -0.797366,0.356994 -0.797366,0.797366 3.99e-4,0.301307 0.170612,0.576653 0.439953,0.711712 2.3e-5,0.0025 -2.4e-5,0.0045 0,0.007 0.470596,0.226747 0.996115,0.357404 1.553462,0.357404 1.981678,0 3.588146,-1.606468 3.588146,-3.588146 v -1.993415 h 1.594731 a 0.79736575,0.79736575 0 0 0 0.797366,-0.797365 0.79736575,0.79736575 0 0 0 -0.797366,-0.797366 h -1.188261 c -0.184629,0 -0.40647,2.8e-4 -0.40647,-0.437617 v -1.555797 c 0,-1.1009325 0.892482,-1.9934148 1.993414,-1.9934148 0.20101,0 0.390937,0.03888 0.573886,0.09422 -2.25e-4,-0.00227 -5.58e-4,-0.00477 -7.98e-4,-0.00701 0.07282,0.021525 0.14833,0.032536 0.224259,0.032704 0.440373,0 0.797366,-0.356993 0.797366,-0.7973658 -3e-5,-0.07455 -0.01051,-0.1487274 -0.03115,-0.2203655 4.39e-4,-0.012232 0.0031,-0.023415 0.0031,-0.035818 -0.0065,-0.010433 -0.01919,-0.021365 -0.02647,-0.031926 V 7.8573285 C 20.231624,7.6020708 20.00817,7.4156395 19.739196,7.363666 c -0.0057,-0.003 -0.01148,-0.00561 -0.01713,-0.00857 C 19.42462,7.2752553 19.113449,7.2289766 18.79078,7.2289766 Z"
     id="path18" />
</svg>
