<?xml version="1.0" encoding="UTF-8" standalone="no"?>
<svg
   xmlns:dc="http://purl.org/dc/elements/1.1/"
   xmlns:cc="http://creativecommons.org/ns#"
   xmlns:rdf="http://www.w3.org/1999/02/22-rdf-syntax-ns#"
   xmlns:svg="http://www.w3.org/2000/svg"
   xmlns="http://www.w3.org/2000/svg"
   xmlns:sodipodi="http://sodipodi.sourceforge.net/DTD/sodipodi-0.dtd"
   xmlns:inkscape="http://www.inkscape.org/namespaces/inkscape"
   height="32"
   width="32"
   version="1"
   id="svg10"
   sodipodi:docname="meld.svg"
   inkscape:version="0.92.1 r">
  <metadata
     id="metadata16">
    <rdf:RDF>
      <cc:Work
         rdf:about="">
        <dc:format>image/svg+xml</dc:format>
        <dc:type
           rdf:resource="http://purl.org/dc/dcmitype/StillImage" />
      </cc:Work>
    </rdf:RDF>
  </metadata>
  <defs
     id="defs14" />
  <sodipodi:namedview
     pagecolor="#ffffff"
     bordercolor="#666666"
     borderopacity="1"
     objecttolerance="10"
     gridtolerance="10"
     guidetolerance="10"
     inkscape:pageopacity="0"
     inkscape:pageshadow="2"
     inkscape:window-width="640"
     inkscape:window-height="480"
     id="namedview12"
     showgrid="false"
     inkscape:zoom="8.9375"
     inkscape:cx="-5.2587413"
     inkscape:cy="16"
     inkscape:current-layer="svg10" />
  <rect
     style="opacity:1;fill:#e45f0a;fill-opacity:1;fill-rule:evenodd;stroke:none;stroke-width:1.03534329;stroke-linecap:round;stroke-linejoin:bevel;stroke-miterlimit:4;stroke-dasharray:none;stroke-dashoffset:0;stroke-opacity:1"
     id="rect4497-3-3-6"
     width="28.203388"
     height="28.203388"
     x="1.8983059"
     y="1.8983059"
     ry="5.575182" />
  <path
     style="opacity:1;fill:#94c3e4;fill-opacity:1;fill-rule:evenodd;stroke:none;stroke-width:1.03534329;stroke-linecap:round;stroke-linejoin:bevel;stroke-miterlimit:4;stroke-dasharray:none;stroke-dashoffset:0;stroke-opacity:1"
     d="M 29.978516 6.8574219 C 29.66038 4.0751758 27.397511 1.8984375 24.527344 1.8984375 L 11.322266 1.8984375 C 10.595587 2.493106 9.879455 3.1117894 9.265625 3.8359375 C 8.5071206 4.7307611 7.8468735 5.7115352 7.3144531 6.75 C 6.7820327 7.7884648 6.3777556 8.8835186 6.1308594 10.005859 C 5.8839632 11.1282 5.7945099 12.277377 5.8925781 13.423828 C 5.9843546 14.497067 6.2806436 15.596746 6.7441406 16.628906 C 7.2076376 17.661066 7.8377577 18.625545 8.5976562 19.433594 C 9.3576589 20.241642 10.237454 20.890525 11.208984 21.304688 C 12.180514 21.71885 13.243652 21.899151 14.373047 21.775391 C 15.033343 21.703296 15.641911 21.523119 16.177734 21.248047 C 16.713557 20.972974 17.178092 20.603079 17.546875 20.154297 C 17.915658 19.705515 18.190434 19.177207 18.349609 18.583984 C 18.508785 17.990762 18.551983 17.333395 18.458984 16.625 C 18.456084 16.61831 18.461884 16.604256 18.458984 16.597656 C 18.38705 16.403714 18.252495 16.269512 18.068359 16.15625 C 17.866566 16.032131 17.586554 15.960895 17.289062 15.921875 C 17.166483 15.905785 17.048998 15.897984 16.923828 15.896484 L 16.767578 16.441406 C 16.600248 17.074117 16.079732 17.718179 15.310547 18.134766 C 14.925918 18.343033 14.468005 18.485199 13.974609 18.513672 C 13.481213 18.542145 12.953376 18.456316 12.423828 18.210938 L 12.396484 18.185547 C 11.747341 17.812617 11.152066 17.232989 10.662109 16.515625 C 10.172153 15.798261 9.7880691 14.942161 9.5605469 14.021484 C 9.3330557 13.10112 9.2726272 12.112987 9.4453125 11.132812 C 9.6179978 10.152638 10.023764 9.1818061 10.730469 8.2988281 C 11.395263 7.4683163 12.104764 6.7583037 12.845703 6.1601562 C 13.586642 5.5620088 14.359118 5.0757299 15.154297 4.6914062 C 15.949476 4.3070826 16.766235 4.0249778 17.59375 3.8359375 C 18.421265 3.6468972 19.259709 3.55136 20.097656 3.5390625 C 21.773031 3.5144675 23.447426 3.8095357 25.052734 4.34375 C 26.658042 4.8779643 28.193444 5.6501234 29.59375 6.5820312 C 29.726102 6.6701284 29.849849 6.7660465 29.978516 6.8574219 z "
     id="path4521" />
  <path
     style="opacity:1;fill:#94c3e4;fill-opacity:1;fill-rule:evenodd;stroke:none;stroke-width:1.03534329;stroke-linecap:round;stroke-linejoin:bevel;stroke-miterlimit:4;stroke-dasharray:none;stroke-dashoffset:0;stroke-opacity:1"
     d="M 2.0292969 25.173828 C 2.3619718 27.94025 4.6136938 30.101562 7.4726562 30.101562 L 20.693359 30.101562 C 21.416686 29.507287 22.128817 28.888202 22.740234 28.166016 C 23.496789 27.272398 24.156146 26.293742 24.6875 25.257812 C 25.218854 24.221883 25.622556 23.128795 25.869141 22.009766 C 26.115725 20.890736 26.205178 19.744478 26.107422 18.601562 C 26.015593 17.528272 25.719369 16.430573 25.255859 15.398438 C 24.792349 14.366302 24.162242 13.399996 23.402344 12.591797 C 22.642445 11.783597 21.762559 11.131556 20.791016 10.710938 C 19.819472 10.290319 18.756297 10.101302 17.626953 10.224609 C 16.961587 10.297251 16.350295 10.48217 15.814453 10.757812 C 15.278611 11.033455 14.817331 11.400749 14.451172 11.837891 C 14.089947 12.26911 13.819401 12.770557 13.660156 13.339844 C 13.500911 13.909131 13.452775 14.546409 13.541016 15.246094 C 13.678333 15.701825 14.117183 15.947469 14.710938 16.052734 C 14.826789 16.073264 14.956628 16.096916 15.076172 16.103516 L 15.232422 15.583984 C 15.399752 14.951273 15.920267 14.309165 16.689453 13.892578 C 17.074082 13.684313 17.531995 13.542498 18.025391 13.513672 C 18.518787 13.484846 19.048578 13.569075 19.578125 13.814453 L 19.603516 13.814453 C 20.252659 14.187383 20.847934 14.774287 21.337891 15.498047 C 21.827847 16.221807 22.211931 17.08323 22.439453 18.003906 C 22.666997 18.924583 22.727412 19.914382 22.554688 20.894531 C 22.381963 21.87468 21.97634 22.845538 21.269531 23.728516 C 20.604711 24.559053 19.895249 25.2689 19.154297 25.867188 C 18.413345 26.465475 17.640882 26.95144 16.845703 27.335938 C 16.050524 27.720435 15.233752 28.002237 14.40625 28.191406 C 13.578748 28.380576 12.740265 28.477932 11.902344 28.490234 C 10.227177 28.514881 8.5525604 28.219748 6.9472656 27.685547 C 5.3419708 27.151345 3.8061917 26.37722 2.40625 25.445312 C 2.2762083 25.358752 2.1557477 25.263788 2.0292969 25.173828 z "
     id="path4519" />
  <path
     style="opacity:1;fill:#e45f0a;fill-opacity:1;fill-rule:evenodd;stroke:none;stroke-width:1.03534329;stroke-linecap:round;stroke-linejoin:bevel;stroke-miterlimit:4;stroke-dasharray:none;stroke-dashoffset:0;stroke-opacity:1"
     d="M 2.0292969 25.173828 C 2.1557477 25.263788 2.2762083 25.358752 2.40625 25.445312 C 3.8061917 26.37722 5.3419708 27.151345 6.9472656 27.685547 C 8.5525604 28.219748 10.227177 28.514881 11.902344 28.490234 C 12.740265 28.477932 13.578748 28.380576 14.40625 28.191406 C 15.233752 28.002237 16.050524 27.720435 16.845703 27.335938 C 17.640882 26.95144 18.413345 26.465475 19.154297 25.867188 C 19.895249 25.2689 20.604711 24.559053 21.269531 23.728516 C 21.97634 22.845538 22.381963 21.87468 22.554688 20.894531 C 22.727412 19.914382 22.666997 18.924583 22.439453 18.003906 C 22.211931 17.08323 21.827847 16.221807 21.337891 15.498047 C 20.847934 14.774287 20.252659 14.187383 19.603516 13.814453 L 19.578125 13.814453 C 19.048578 13.569075 18.518787 13.484846 18.025391 13.513672 C 17.531995 13.542498 17.074082 13.684313 16.689453 13.892578 C 15.920267 14.309165 15.399752 14.951273 15.232422 15.583984 L 15.076172 16.103516 C 14.956628 16.096916 14.826789 16.073264 14.710938 16.052734 C 14.117183 15.947469 13.678333 15.701825 13.541016 15.246094 C 13.452775 14.546409 13.500911 13.909131 13.660156 13.339844 C 13.819401 12.770557 14.089947 12.26911 14.451172 11.837891 C 14.817331 11.400749 15.278611 11.033455 15.814453 10.757812 C 16.350295 10.48217 16.961587 10.297251 17.626953 10.224609 C 18.756297 10.101302 19.819472 10.290319 20.791016 10.710938 C 21.762559 11.131556 22.642445 11.783597 23.402344 12.591797 C 24.162242 13.399996 24.792349 14.366302 25.255859 15.398438 C 25.719369 16.430573 26.015593 17.528272 26.107422 18.601562 C 26.205178 19.744478 26.115725 20.890736 25.869141 22.009766 C 25.622556 23.128795 25.218854 24.221883 24.6875 25.257812 C 24.156146 26.293742 23.496789 27.272398 22.740234 28.166016 C 22.128817 28.888202 21.416686 29.507287 20.693359 30.101562 L 24.527344 30.101562 C 27.615995 30.101563 30.101562 27.615995 30.101562 24.527344 L 30.101562 7.4726562 C 30.101562 7.2541728 30.002733 7.0692126 29.978516 6.8574219 C 29.849849 6.7660465 29.726102 6.6701284 29.59375 6.5820312 C 28.193444 5.6501234 26.658042 4.8779643 25.052734 4.34375 C 23.447426 3.8095357 21.773031 3.5144675 20.097656 3.5390625 C 19.259709 3.55136 18.421265 3.6468972 17.59375 3.8359375 C 16.766235 4.0249778 15.949476 4.3070826 15.154297 4.6914062 C 14.359118 5.0757299 13.586642 5.5620088 12.845703 6.1601562 C 12.104764 6.7583037 11.395263 7.4683163 10.730469 8.2988281 C 10.023764 9.1818061 9.6179978 10.152638 9.4453125 11.132812 C 9.2726272 12.112987 9.3330557 13.10112 9.5605469 14.021484 C 9.7880691 14.942161 10.172153 15.798261 10.662109 16.515625 C 11.152066 17.232989 11.747341 17.812617 12.396484 18.185547 L 12.423828 18.210938 C 12.953376 18.456316 13.481213 18.542145 13.974609 18.513672 C 14.468005 18.485199 14.925918 18.343033 15.310547 18.134766 C 16.079732 17.718179 16.600248 17.074117 16.767578 16.441406 L 16.923828 15.896484 C 17.048998 15.897984 17.166483 15.905785 17.289062 15.921875 C 17.586554 15.960895 17.866566 16.032131 18.068359 16.15625 C 18.252495 16.269512 18.38705 16.403714 18.458984 16.597656 C 18.461884 16.604256 18.456084 16.61831 18.458984 16.625 C 18.551983 17.333395 18.508785 17.990762 18.349609 18.583984 C 18.190434 19.177207 17.915658 19.705515 17.546875 20.154297 C 17.178092 20.603079 16.713557 20.972974 16.177734 21.248047 C 15.641911 21.523119 15.033343 21.703296 14.373047 21.775391 C 13.243652 21.899151 12.180514 21.71885 11.208984 21.304688 C 10.237454 20.890525 9.3576589 20.241642 8.5976562 19.433594 C 7.8377577 18.625545 7.2076376 17.661066 6.7441406 16.628906 C 6.2806436 15.596746 5.9843546 14.497067 5.8925781 13.423828 C 5.7945099 12.277377 5.8839632 11.1282 6.1308594 10.005859 C 6.3777556 8.8835186 6.7820327 7.7884648 7.3144531 6.75 C 7.8468735 5.7115352 8.5071206 4.7307611 9.265625 3.8359375 C 9.879455 3.1117894 10.595587 2.493106 11.322266 1.8984375 L 7.4726562 1.8984375 C 4.3840054 1.8984375 1.8984375 4.3840054 1.8984375 7.4726562 L 1.8984375 24.527344 C 1.8984375 24.757032 2.0025698 24.951574 2.0292969 25.173828 z "
     id="rect4497-3-3" />
</svg>
