<?xml version="1.0" encoding="UTF-8" standalone="no"?>
<svg
   xmlns:dc="http://purl.org/dc/elements/1.1/"
   xmlns:cc="http://creativecommons.org/ns#"
   xmlns:rdf="http://www.w3.org/1999/02/22-rdf-syntax-ns#"
   xmlns:svg="http://www.w3.org/2000/svg"
   xmlns="http://www.w3.org/2000/svg"
   xmlns:sodipodi="http://sodipodi.sourceforge.net/DTD/sodipodi-0.dtd"
   xmlns:inkscape="http://www.inkscape.org/namespaces/inkscape"
   height="32"
   width="32"
   version="1"
   id="svg16"
   sodipodi:docname="mozilla-thunderbird.svg"
   inkscape:version="0.92.1 r">
  <metadata
     id="metadata22">
    <rdf:RDF>
      <cc:Work
         rdf:about="">
        <dc:format>image/svg+xml</dc:format>
        <dc:type
           rdf:resource="http://purl.org/dc/dcmitype/StillImage" />
        <dc:title />
      </cc:Work>
    </rdf:RDF>
  </metadata>
  <defs
     id="defs20" />
  <sodipodi:namedview
     pagecolor="#ffffff"
     bordercolor="#666666"
     borderopacity="1"
     objecttolerance="10"
     gridtolerance="10"
     guidetolerance="10"
     inkscape:pageopacity="0"
     inkscape:pageshadow="2"
     inkscape:window-width="1680"
     inkscape:window-height="965"
     id="namedview18"
     showgrid="false"
     inkscape:zoom="7.375"
     inkscape:cx="6.1629651"
     inkscape:cy="-0.36675254"
     inkscape:window-x="0"
     inkscape:window-y="0"
     inkscape:window-maximized="1"
     inkscape:current-layer="svg16" />
  <path
     inkscape:connector-curvature="0"
     style="opacity:1;fill:#ebebeb;fill-opacity:1;fill-rule:evenodd;stroke:none;stroke-width:1.03534329;stroke-linecap:round;stroke-linejoin:bevel;stroke-miterlimit:4;stroke-dasharray:none;stroke-dashoffset:0;stroke-opacity:1"
     d="M 7.0599477,8.71875 C 6.9608877,8.82628 6.8175206,8.9063364 6.722057,9.015625 6.2903071,9.5161831 5.877813,10.105104 5.5579946,10.742188 c -0.3198185,0.637083 -0.546158,1.322758 -0.6074219,2.019531 -0.061056,0.694406 -0.008,1.376712 0.1542969,2.03125 0.1622922,0.654538 0.4332683,1.281063 0.8046874,1.865234 -0.7832867,-0.406034 -1.404254,-0.632519 -1.8554687,-1.347656 -0.1206213,-0.08924 -0.079433,0.27459 -0.058594,0.609375 0.1632072,1.498227 0.4290056,2.963847 0.8769531,4.380859 l -0.017578,-0.0059 c 0.015871,0.02415 0.052258,0.390348 0.2519531,0.986328 0.1996947,0.59598 0.5640084,1.420404 1.234375,2.363281 0.4729713,0.680256 1.020092,1.342379 1.6132812,1.929688 0.5931893,0.587309 1.2320289,1.099667 1.8867188,1.482422 0.3892755,0.227584 0.7047065,0.64899 1.1191415,0.71289 -0.815678,0.01 -1.6478057,-0.216314 -2.4589853,-0.611328 C 7.6901744,26.763189 6.9003752,26.198501 6.1673696,25.533203 5.4343639,24.867905 4.7582911,24.101636 4.1771352,23.300781 3.5959793,22.499927 3.1089372,21.664965 2.753307,20.863281 2.3977811,19.979995 2.0976953,19.078005 1.8978383,18.146484 v 6.38086 c 0,3.088651 2.485568,5.574219 5.5742187,5.574218 h 17.054688 c 3.088651,10e-7 5.574219,-2.485567 5.574218,-5.574218 v -8.392578 c 0.01916,1.403355 -0.191944,2.868993 -0.683593,4.300781 -0.508398,1.480562 -1.288511,2.921353 -2.337891,4.205078 -0.01406,0.01795 -0.03029,0.03503 -0.04492,0.05273 -0.08297,0.107632 -0.161203,0.217097 -0.246094,0.324219 -0.13657,0.17232 -0.365389,0.381889 -0.498046,0.533203 -0.997158,1.137388 -1.951612,1.658203 -1.951172,1.658203 -0.588134,0.429127 -1.194722,0.690213 -1.886719,0.910157 -0.691997,0.219943 -1.470351,0.399188 -2.402344,0.660156 1.017359,-0.607906 2.434361,-2.612309 2.019531,-2.021485 0,0 -0.549102,0.553018 -1.455078,1.082032 -0.452987,0.264507 -0.994396,0.524695 -1.601562,0.705078 -0.607166,0.180383 -1.279054,0.282368 -1.992188,0.234375 0.53571,-0.231685 1.190491,-0.628724 1.886719,-1.195313 0.696228,-0.566588 1.432696,-1.302634 2.128906,-2.21875 0.696211,-0.916115 1.353015,-2.010749 1.888672,-3.291015 0.535657,-1.280266 0.951449,-2.74721 1.166016,-4.40625 -0.601474,0.570876 -1.353235,0.825205 -1.957031,0.935547 -0.603796,0.110341 -1.059948,0.07752 -1.070313,0.07617 -10e-5,-1.9e-5 -0.0078,0 -0.0078,0 0,0 0.0077,-0.0019 0.0078,-0.002 0.502772,-0.643879 0.796657,-1.388732 0.939453,-2.185546 0.142797,-0.796815 0.134448,-1.645788 0.0332,-2.496094 -0.162269,-1.300168 -0.65657,-2.624067 -1.36914,-3.763672 h 0.0039 C 20.422481,9.8418736 19.854671,9.3056895 19.53651,8.9765625 c -0.683531,0.3073585 -1.391179,0.6610268 -2.099609,0.9375 -0.70843,0.2764735 -1.418624,0.4765625 -2.109375,0.4765625 -0.7225,0 -1.354488,-0.23748 -1.947266,-0.3945312 -0.592778,-0.1570512 -1.146545,-0.2347491 -1.708984,0.08789 -0.853648,0.393385 -1.551918,0.961637 -2.4140627,1.335938 -0.3813359,0.186495 -0.813909,0.386097 -1.1757813,0.65039 -0.3618721,0.264296 -0.6516427,0.593716 -0.75,1.03711 C 7.020901,12.76488 6.9260521,12.339165 6.9427602,11.902344 6.9594682,11.465522 7.0863334,11.017303 7.2161977,10.625 7.3449439,10.568251 7.1803592,10.00466 7.1927602,9.7363281 7.1529862,9.4055136 7.105451,9.0607182 7.0599477,8.71875 Z"
     id="path4593" />
  <path
     inkscape:connector-curvature="0"
     style="fill:#375389;stroke-width:0.70956439"
     d="m 6.340222,23.645184 c 1.2271691,1.764988 2.8112669,3.844575 4.61971,4.12342 -0.706867,-0.408692 -2.4761375,-2.010654 -3.030102,-5.050169 0.5881008,1.151816 3.243264,2.679478 4.040136,3.030102 -0.39588,-0.369685 -1.915914,-2.586918 -2.0200682,-3.888631 L 4.8549615,20.293591 c 0.031743,0.0483 0.1445274,1.465837 1.4852605,3.351593 z"
     id="path6-3" />
  <path
     inkscape:connector-curvature="0"
     style="opacity:1;stroke-width:0.70956439;fill:#bcbcbc;fill-opacity:1"
     d="M 24.481996,12.1071 15.295868,8.8856308 5.4513,9.5416218 2.9387646,12.677123 c 0.447071,2.898421 0.1692992,6.035984 1.7262237,8.568237 l 17.4053167,5.51321 2.396987,-6.690623 z"
     id="path8-6" />
  <path
     inkscape:connector-curvature="0"
     style="fill:#ebebeb;stroke-width:0.70956439"
     d="M 24.481996,11.097067 15.295868,7.8755968 5.4513,8.5315881 2.9387646,11.667089 c 0.447071,2.898421 0.1692992,6.035984 1.7262237,8.568237 l 17.4053167,5.513211 2.396987,-6.690624 z"
     id="path10-7" />
  <path
     inkscape:connector-curvature="0"
     style="opacity:1;stroke-width:0.70956439;fill:#bcbcbc;fill-opacity:1"
     d="M 23.734797,13.873732 22.371909,9.3966578 5.7020274,9.2293508 5.6075124,9.3458128 5.4512997,9.5416218 11.762742,18.466727 Z"
     id="path14-5" />
  <path
     inkscape:connector-curvature="0"
     style="fill:#f7f7f7;stroke-width:0.70956439"
     d="M 23.734797,12.863698 22.371909,8.3866246 5.7020274,8.2193176 5.6075127,8.3357793 5.4513,8.5315881 11.762742,17.456694 Z"
     id="path16-3" />
  <path
     inkscape:connector-curvature="0"
     style="opacity:1;fill:#5996d2;fill-opacity:1;fill-rule:evenodd;stroke:none;stroke-width:1.03534329;stroke-linecap:round;stroke-linejoin:bevel;stroke-miterlimit:4;stroke-dasharray:none;stroke-dashoffset:0;stroke-opacity:1"
     d="m 10.235729,1.8984375 c -0.0425,0.045673 -0.09923,0.070073 -0.140625,0.1171875 C 9.3419921,2.8728353 8.771796,3.9584335 8.300182,4.9042969 7.9604341,5.5055816 7.6067091,6.2191763 7.3099477,6.7871094 7.0259586,7.2346066 6.9684316,7.7274815 6.9954946,8.2304688 7.0225574,8.7334557 7.1338972,9.2467431 7.1927602,9.7363281 7.1803592,10.00466 7.3449439,10.568251 7.2161977,10.625 c -0.1298643,0.392303 -0.2567295,0.840522 -0.2734375,1.277344 -0.016708,0.436821 0.078141,0.862536 0.3886718,1.205078 0.098357,-0.443394 0.388128,-0.772815 0.75,-1.03711 0.3618723,-0.264293 0.7944454,-0.463895 1.1757813,-0.65039 0.8621447,-0.374301 1.5604147,-0.942553 2.4140627,-1.335938 0.562439,-0.3226389 1.116206,-0.2449415 1.708984,-0.08789 0.592778,0.157051 1.224766,0.394531 1.947266,0.394531 0.690751,0 1.400945,-0.200089 2.109375,-0.4765623 0.70843,-0.2764732 1.416078,-0.6301415 2.099609,-0.9375 0.318161,0.329127 0.885971,0.865311 1.134766,1.2558593 h -0.0039 c 0.71257,1.139605 1.206871,2.463504 1.36914,3.763672 0.101245,0.850306 0.109594,1.699279 -0.0332,2.496094 -0.142796,0.796814 -0.436681,1.541667 -0.939453,2.185546 -1.2e-4,2e-5 -0.0078,0.002 -0.0078,0.002 2.3e-5,0 0.0077,-1.9e-5 0.0078,0 0.01037,0.0014 0.466517,0.03417 1.070313,-0.07617 0.603796,-0.110342 1.355557,-0.364671 1.957031,-0.935547 -0.214567,1.65904 -0.630359,3.125984 -1.166016,4.40625 -0.535657,1.280266 -1.192461,2.3749 -1.888672,3.291015 -0.69621,0.916116 -1.432678,1.652162 -2.128906,2.21875 -0.696228,0.566589 -1.351009,0.963628 -1.886719,1.195313 0.713134,0.04799 1.385022,-0.05399 1.992188,-0.234375 0.607166,-0.180383 1.148575,-0.440571 1.601562,-0.705078 0.905976,-0.529014 1.455078,-1.08203 1.455078,-1.082032 0.41483,-0.590825 -1.002172,1.413579 -2.019531,2.021485 0.931993,-0.260968 1.710347,-0.440213 2.402344,-0.660156 0.691997,-0.219944 1.298585,-0.48103 1.886719,-0.910157 -4.4e-4,0 0.954014,-0.520815 1.951172,-1.658203 0.132657,-0.151314 0.361476,-0.360883 0.498046,-0.533203 0.08489,-0.107122 0.16312,-0.216587 0.246094,-0.324219 0.01463,-0.0177 0.03086,-0.03478 0.04492,-0.05273 1.04938,-1.283725 1.829493,-2.724516 2.337891,-4.205078 0.491649,-1.431788 0.702751,-2.897426 0.683593,-4.300781 V 15.75 7.4726562 c 1e-6,-3.0886507 -2.485567,-5.5742187 -5.574218,-5.5742187 H 13.905651 13.516979 12.825573 12.083385 11.53651 Z"
     id="path4546" />
  <path
     inkscape:connector-curvature="0"
     style="fill:#4271a3;stroke-width:0.70956439"
     d="M 8.2432728,10.598028 C 11.610373,10.501118 9.4962283,8.4143135 13.990034,4.5378239 10.328955,6.4334256 6.844302,6.4308001 8.2476165,10.598028 h -0.00424 z"
     id="path24-5" />
  <path
     inkscape:connector-curvature="0"
     style="opacity:1;fill:#4271a3;fill-opacity:1;fill-rule:evenodd;stroke:none;stroke-width:1.03534329;stroke-linecap:round;stroke-linejoin:bevel;stroke-miterlimit:4;stroke-dasharray:none;stroke-dashoffset:0;stroke-opacity:1"
     d="m 7.472057,1.8984375 c -3.0886507,0 -5.5742187,2.485568 -5.5742187,5.5742187 v 6.7949218 3.878906 c 0.199857,0.931521 0.4999428,1.833511 0.8554687,2.716797 0.3556303,0.801684 0.8426723,1.636646 1.4238282,2.4375 0.5811559,0.800855 1.2572287,1.567124 1.9902344,2.232422 0.7330056,0.665298 1.5228048,1.229986 2.3339843,1.625 0.8111796,0.395014 1.6433061,0.621325 2.4589851,0.611328 -0.414436,-0.0639 -0.729866,-0.485306 -1.1191413,-0.71289 C 9.1865078,26.673886 8.5476682,26.161528 7.9544789,25.574219 7.3612897,24.98691 6.814169,24.324787 6.3411977,23.644531 5.6708311,22.701654 5.3065174,21.87723 5.1068227,21.28125 4.9071279,20.68527 4.870741,20.319074 4.8548696,20.294922 l 0.017578,0.0059 c -0.4479474,-1.417053 -0.7137458,-2.882673 -0.876953,-4.3809 -0.020839,-0.334785 -0.062028,-0.698616 0.058594,-0.609375 0.4512147,0.715137 1.072182,0.941622 1.8554687,1.347656 C 5.5381379,16.074032 5.2671618,15.447507 5.1048696,14.792969 4.9425773,14.138431 4.8895168,13.456125 4.9505727,12.761719 5.0118366,12.064946 5.238176,11.37927 5.5579946,10.742188 5.8778129,10.105104 6.2903071,9.5161831 6.722057,9.015625 6.8175206,8.9063364 6.9608875,8.82628 7.0599477,8.71875 7.0381089,8.5546265 7.0042709,8.3935854 6.9954946,8.2304688 6.9684317,7.7274814 7.0259586,7.2346066 7.3099477,6.7871094 7.6067091,6.2191763 7.9604341,5.5055816 8.300182,4.9042969 8.3623386,4.7796364 8.4707358,4.6521096 8.5365102,4.5234375 8.9697999,3.6758077 9.4412488,2.7598589 10.095104,2.015625 10.136494,1.96851 10.193224,1.944111 10.235729,1.8984375 Z"
     id="path4591" />
  <path
     inkscape:connector-curvature="0"
     style="fill:#ffffff;stroke-width:0.70956439"
     d="M 10.76408,8.9006448 C 10.441235,9.4903288 9.6879271,9.7279948 9.2712002,9.5060228 8.8453184,9.2840508 8.8476082,8.5419011 9.1772869,7.9522161 9.495553,7.3625312 10.901421,7.6271059 10.90829,7.6271059 c 0.0067,0 0.178591,0.6860954 -0.144257,1.2735389 z"
     id="path26-6" />
  <path
     inkscape:connector-curvature="0"
     style="fill:#5c5f60;stroke-width:0.70956439"
     d="m 8.8494445,11.591985 c 0,0 0.1813116,-0.17497 0.086797,-0.494918 C 7.8059932,11.470766 7.2509973,10.38888 7.254941,10.38888 c 0.00382,0 -0.8467695,2.229216 0.1685628,3.23925 0.087953,-0.831869 1.3839316,-1.992632 1.3878753,-1.992632"
     id="path28-2" />
</svg>
