<?xml version="1.0" encoding="UTF-8" standalone="no"?>
<svg
   xmlns:dc="http://purl.org/dc/elements/1.1/"
   xmlns:cc="http://creativecommons.org/ns#"
   xmlns:rdf="http://www.w3.org/1999/02/22-rdf-syntax-ns#"
   xmlns:svg="http://www.w3.org/2000/svg"
   xmlns="http://www.w3.org/2000/svg"
   xmlns:sodipodi="http://sodipodi.sourceforge.net/DTD/sodipodi-0.dtd"
   xmlns:inkscape="http://www.inkscape.org/namespaces/inkscape"
   height="32"
   width="32"
   version="1"
   id="svg32"
   sodipodi:docname="mps.svg"
   inkscape:version="0.92.1 r">
  <metadata
     id="metadata38">
    <rdf:RDF>
      <cc:Work
         rdf:about="">
        <dc:format>image/svg+xml</dc:format>
        <dc:type
           rdf:resource="http://purl.org/dc/dcmitype/StillImage" />
      </cc:Work>
    </rdf:RDF>
  </metadata>
  <defs
     id="defs36" />
  <sodipodi:namedview
     pagecolor="#ffffff"
     bordercolor="#666666"
     borderopacity="1"
     objecttolerance="10"
     gridtolerance="10"
     guidetolerance="10"
     inkscape:pageopacity="0"
     inkscape:pageshadow="2"
     inkscape:window-width="1680"
     inkscape:window-height="963"
     id="namedview34"
     showgrid="false"
     inkscape:zoom="7.375"
     inkscape:cx="20.605141"
     inkscape:cy="30.460224"
     inkscape:window-x="0"
     inkscape:window-y="0"
     inkscape:window-maximized="1"
     inkscape:current-layer="svg32" />
  <path
     style="fill:#21d789;fill-opacity:1;stroke-width:0.69999999"
     d="m 30.000001,6.9687501 c -0.05413,-0.578542 -0.119792,-1.157197 -0.335937,-1.669922 -0.281373,-0.667454 -0.689503,-1.267628 -1.19336,-1.771485 -0.503857,-0.503857 -1.10403,-0.911987 -1.771484,-1.193359 -0.511546,-0.215648 -1.088925,-0.279572 -1.666016,-0.333984 H 16 V 16 h 14.000001 z"
     id="path6-2"
     inkscape:connector-curvature="0" />
  <path
     style="fill:#f7c73c;fill-opacity:1;stroke-width:0.69999999"
     d="m 6.964844,2.0000001 c -0.57709,0.05441 -1.15447,0.118337 -1.666016,0.333985 -0.667454,0.281372 -1.267627,0.689502 -1.771483,1.193359 -0.503857,0.503857 -0.911987,1.104031 -1.193359,1.771485 -0.215648,0.511545 -0.279573,1.088925 -0.333985,1.666015 V 16 H 16 V 2.0000001 Z"
     id="path4-8"
     inkscape:connector-curvature="0" />
  <path
     style="fill:#2086e7;fill-opacity:1;stroke-width:0.69999999"
     d="m 25.035157,30 c 0.577089,-0.05441 1.154471,-0.118337 1.666017,-0.333985 0.667454,-0.281372 1.267627,-0.689502 1.771483,-1.193359 0.503857,-0.503857 0.911987,-1.104031 1.193359,-1.771485 0.215647,-0.511545 0.279573,-1.088925 0.333985,-1.666015 V 16 h -14 v 14 z"
     id="path4-8-7"
     inkscape:connector-curvature="0" />
  <path
     style="fill:#21d789;fill-opacity:1;stroke-width:0.69999999"
     d="m 2,25.03125 c 0.05413,0.578542 0.119792,1.157197 0.335937,1.669922 0.281373,0.667454 0.689503,1.267628 1.19336,1.771485 0.503857,0.503857 1.10403,0.911987 1.771484,1.193359 C 5.812327,29.881664 6.389707,29.945588 6.966798,30 h 9.033203 V 16 H 2 Z"
     id="path6-2-8"
     inkscape:connector-curvature="0" />
  <rect
     style="opacity:1;fill:#3f3f3f;fill-opacity:1;fill-rule:evenodd;stroke:none;stroke-width:0.78646272;stroke-linecap:round;stroke-linejoin:bevel;stroke-miterlimit:4;stroke-dasharray:none;stroke-dashoffset:0;stroke-opacity:1"
     id="rect4497-3-361"
     width="21.423727"
     height="21.423727"
     x="5.2881365"
     y="5.2881365"
     ry="4.2349939" />
  <g
     id="g4551"
     transform="matrix(0.80131857,0,0,0.80131857,-1.1697344,34.116864)">
    <path
       inkscape:connector-curvature="0"
       id="path18"
       d="m 12.93085,-15.601745 h 8"
       style="fill:none;stroke:#ffffff;stroke-linecap:round;stroke-opacity:1" />
    <path
       inkscape:connector-curvature="0"
       id="path22"
       style="fill:none;stroke:#ffffff;stroke-width:0.99999994;stroke-linecap:round;stroke-linejoin:round;stroke-opacity:1"
       d="m 17.927729,-21.608816 v -7.999999 m -4.999707,0 2.495707,4 2.504,-4 m -4.999707,7.999999 v -7.999999" />
    <path
       inkscape:connector-curvature="0"
       id="path26"
       style="fill:none;stroke:#ffffff;stroke-width:0.99999994;stroke-linecap:round;stroke-linejoin:bevel;stroke-opacity:1"
       d="m 19.930803,-25.575738 c 0,0 4.000002,0.4645 4.000002,-2.000002 0,-2.464498 -4.000002,-1.999998 -4.000002,-1.999998 m 9.8e-5,8.000101 v -8.000002" />
    <path
       inkscape:connector-curvature="0"
       id="path30"
       d="m 25.926961,-22.602177 c 0,0 0.504385,1.000962 2.000001,1.000482 1.495612,-4.84e-4 1.999998,-1.000482 1.999998,-2.000481 0,-4.214389 -3.999999,0.211162 -3.988018,-3.990705 -0.01209,-1.009296 0.471866,-2.009295 1.98802,-2.009295 1.51615,0 1.999884,0.999999 1.999884,0.999999"
       style="fill:none;stroke:#ffffff;stroke-width:0.99999994;stroke-linecap:round;stroke-linejoin:round;stroke-opacity:1" />
  </g>
</svg>
