<?xml version="1.0" encoding="UTF-8" standalone="no"?>
<svg
   xmlns:dc="http://purl.org/dc/elements/1.1/"
   xmlns:cc="http://creativecommons.org/ns#"
   xmlns:rdf="http://www.w3.org/1999/02/22-rdf-syntax-ns#"
   xmlns:svg="http://www.w3.org/2000/svg"
   xmlns="http://www.w3.org/2000/svg"
   xmlns:sodipodi="http://sodipodi.sourceforge.net/DTD/sodipodi-0.dtd"
   xmlns:inkscape="http://www.inkscape.org/namespaces/inkscape"
   width="32"
   height="32"
   viewBox="0 0 32 32"
   version="1.1"
   id="svg24"
   sodipodi:docname="mullvad.svg"
   inkscape:version="0.92.1 r">
  <metadata
     id="metadata30">
    <rdf:RDF>
      <cc:Work
         rdf:about="">
        <dc:format>image/svg+xml</dc:format>
        <dc:type
           rdf:resource="http://purl.org/dc/dcmitype/StillImage" />
      </cc:Work>
    </rdf:RDF>
  </metadata>
  <defs
     id="defs28" />
  <sodipodi:namedview
     pagecolor="#ffffff"
     bordercolor="#666666"
     borderopacity="1"
     objecttolerance="10"
     gridtolerance="10"
     guidetolerance="10"
     inkscape:pageopacity="0"
     inkscape:pageshadow="2"
     inkscape:window-width="640"
     inkscape:window-height="480"
     id="namedview26"
     showgrid="false"
     inkscape:zoom="8.9375"
     inkscape:cx="-5.3706294"
     inkscape:cy="16"
     inkscape:current-layer="svg24" />
  <rect
     style="opacity:1;fill:#4e6275;fill-opacity:1;fill-rule:evenodd;stroke:none;stroke-width:1.03534329;stroke-linecap:round;stroke-linejoin:bevel;stroke-miterlimit:4;stroke-dasharray:none;stroke-dashoffset:0;stroke-opacity:1"
     id="rect4497-3"
     width="28.203388"
     height="28.203388"
     x="1.8983059"
     y="1.8983059"
     ry="5.575182"
     inkscape:export-filename="/home/ramil/3.png"
     inkscape:export-xdpi="71"
     inkscape:export-ydpi="71" />
  <g
     id="g4518"
     transform="translate(-2.5,-1.499903)">
    <path
       id="path8"
       style="fill:#d2943b;fill-opacity:1"
       d="m 18.320875,25.771459 c 0.50558,-0.13095 1.466258,-0.400467 1.877767,-0.598934 C 21.034453,24.769425 22,24.272162 22,24 c -0.531329,-0.920185 -1.207314,-2.009561 -2,-2.499567 0.588422,-0.379521 1.119962,-0.7203 1,-1.400433 0,0 -0.19703,-0.156126 0.229122,-0.485 1.749941,-1.75601 4.336928,-3.898063 5.27085,-5.982618 0,-0.537711 -0.305706,-0.654488 -1.111542,-0.632383 -0.391446,0.01074 -1.696251,-0.01405 -2.899602,0 -2.174483,0.02539 -2.983514,0 -2.983514,0 0,0 -2.272689,-0.0424 -2.965528,0.505396 -1.752306,1.385471 -2.540421,1.300289 -4.0074,1.789077 C 11.165459,15.749924 11.1,15.099999 11.1,18.350263 c -0.296609,1.84005 0.237229,3.674697 -1.016908,5.309729 -0.152556,0.200976 -0.1160042,0.294079 0.285816,0.728016 0.794809,0.858336 2.169809,1.191652 3.698414,1.489468 1.034755,0.2016 3.282106,0.145586 4.253526,-0.106017 z"
       inkscape:connector-curvature="0" />
    <path
       id="path14"
       style="fill:#ffd548;fill-opacity:1"
       d="M 13.5,9 C 11,9 9,11.286541 9,13.799437 c 0,1.0812 0.3791107,2.472729 1.008984,3.253406 0.138796,0.355676 -0.0051,0.650164 -0.009,0.728712 -0.01334,0.267968 0.571721,0.383927 2.137696,-0.121681 1.810851,-0.584672 2.579715,-1.102513 4.463867,-2.615429 0.704885,-0.566001 1.366316,-1.300933 2.154296,-1.661745 C 19.439144,13.069826 20,13.016433 20,12.949301 c 0,-0.7 -0.900856,-0.834983 -1.4,-0.899864 H 18.037848 C 17.350739,10.408303 16,9 13.5,9 Z"
       inkscape:connector-curvature="0" />
    <circle
       id="circle18"
       style="opacity:1;fill:#efc286;fill-opacity:1"
       cx="26.5"
       cy="13.5"
       r="1.5" />
    <path
       id="path20"
       d="m 17.152343,21.830676 c -0.569079,-0.190746 -1.301556,-0.708891 -1.868172,-1.321521 -0.317321,-0.343092 -0.348892,-0.4246 -0.193226,-0.49886 0.115901,-0.05529 0.467971,0.118849 0.933631,0.46178 0.839874,0.618522 1.634531,0.989056 2.165001,1.009502 0.196044,0.0075 0.481169,0.05959 0.633612,0.115647 0.262257,0.09643 0.253311,0.110476 -0.166301,0.26114 -0.546461,0.196211 -0.853415,0.190561 -1.504545,-0.02769 z"
       style="opacity:0.2;fill:#000000;fill-opacity:1"
       inkscape:connector-curvature="0" />
  </g>
</svg>
