<?xml version="1.0" encoding="UTF-8" standalone="no"?>
<svg
   xmlns:dc="http://purl.org/dc/elements/1.1/"
   xmlns:cc="http://creativecommons.org/ns#"
   xmlns:rdf="http://www.w3.org/1999/02/22-rdf-syntax-ns#"
   xmlns:svg="http://www.w3.org/2000/svg"
   xmlns="http://www.w3.org/2000/svg"
   xmlns:xlink="http://www.w3.org/1999/xlink"
   xmlns:sodipodi="http://sodipodi.sourceforge.net/DTD/sodipodi-0.dtd"
   xmlns:inkscape="http://www.inkscape.org/namespaces/inkscape"
   height="32"
   width="32"
   version="1"
   id="svg16"
   sodipodi:docname="multimedia-photo-viewer.svg"
   inkscape:version="0.92.1 r">
  <metadata
     id="metadata22">
    <rdf:RDF>
      <cc:Work
         rdf:about="">
        <dc:format>image/svg+xml</dc:format>
        <dc:type
           rdf:resource="http://purl.org/dc/dcmitype/StillImage" />
      </cc:Work>
    </rdf:RDF>
  </metadata>
  <defs
     id="defs20">
    <radialGradient
       inkscape:collect="always"
       xlink:href="#linearGradient4678"
       id="radialGradient4680"
       cx="-12.409483"
       cy="2.8219664"
       fx="-12.409483"
       fy="2.8219664"
       r="14.101694"
       gradientUnits="userSpaceOnUse"
       gradientTransform="matrix(-0.97243807,-0.93141655,0.91776202,-0.95818217,-31.361563,9.4491859)" />
    <linearGradient
       id="linearGradient4678">
      <stop
         style="stop-color:#ffffff;stop-opacity:1"
         offset="0"
         id="stop4674" />
      <stop
         style="stop-color:#ffff6f;stop-opacity:0;"
         offset="1"
         id="stop4676" />
    </linearGradient>
    <linearGradient
       id="linearGradient4644">
      <stop
         style="stop-color:#ff7730;stop-opacity:1;"
         offset="0"
         id="stop4640" />
      <stop
         style="stop-color:#8e80cb;stop-opacity:0;"
         offset="1"
         id="stop4642" />
    </linearGradient>
  </defs>
  <sodipodi:namedview
     pagecolor="#ffffff"
     bordercolor="#666666"
     borderopacity="1"
     objecttolerance="10"
     gridtolerance="10"
     guidetolerance="10"
     inkscape:pageopacity="0"
     inkscape:pageshadow="2"
     inkscape:window-width="1680"
     inkscape:window-height="963"
     id="namedview18"
     showgrid="false"
     inkscape:zoom="5.2149125"
     inkscape:cx="-32.163388"
     inkscape:cy="26.507703"
     inkscape:window-x="0"
     inkscape:window-y="0"
     inkscape:window-maximized="1"
     inkscape:current-layer="svg16" />
  <rect
     style="opacity:1;fill:#abd121;fill-opacity:1;fill-rule:evenodd;stroke:none;stroke-width:1.03534329;stroke-linecap:round;stroke-linejoin:bevel;stroke-miterlimit:4;stroke-dasharray:none;stroke-dashoffset:0;stroke-opacity:1"
     id="rect4497-3-9"
     width="28.203388"
     height="28.203388"
     x="1.8983059"
     y="1.8983059"
     ry="5.575182" />
  <g
     id="g4539"
     transform="translate(38.977033,-7.7544164)">
    <path
       id="path4527"
       d="m -10.400391,36.052734 h -25.164062 c 1.016366,1.090337 2.439631,1.791016 4.054687,1.791016 h 17.054688 c 1.615057,0 3.038321,-0.700679 4.054687,-1.791016 z"
       style="opacity:1;fill:#bcedf7;fill-opacity:1;fill-rule:evenodd;stroke:none;stroke-width:1.03534329;stroke-linecap:round;stroke-linejoin:bevel;stroke-miterlimit:4;stroke-dasharray:none;stroke-dashoffset:0;stroke-opacity:1"
       inkscape:connector-curvature="0" />
    <path
       id="path4525"
       d="m -8.9375,32.550781 v -1.992187 c -1.041418,-1.111977 -1.909456,-2.176226 -2.248047,-2.265625 -0.344469,-0.08949 -0.742996,0.04619 -1.158203,0.302734 -0.415207,0.256545 -0.847096,0.634089 -1.257812,1.029297 -0.821494,0.790728 -1.55849,1.652661 -1.910157,1.738281 -0.351656,0.08523 -1.569155,0.0058 -2.330078,-0.224609 -0.760899,-0.23067 -1.416349,-0.526498 -1.699219,-0.611328 -0.282786,-0.08654 -1.083038,-0.402994 -1.544922,-0.611328 -0.461956,-0.209949 -0.868577,-0.405599 -1.214843,-0.509766 -0.346266,-0.104759 -1.87327,-0.477057 -2.984375,-0.701172 -1.111022,-0.223456 -2.152769,-0.412109 -2.570313,-0.412109 -0.417531,-0.01581 -1.75598,0.125368 -2.564453,0.283203 -0.808498,0.16096 -1.504151,0.321522 -1.888672,0.277344 -0.384474,-0.04325 -1.616177,-0.736678 -2.441406,-1.248047 -0.412621,-0.256671 -0.81803,-0.4791 -1.207031,-0.580078 -0.389002,-0.100979 -0.761597,-0.08105 -1.101563,0.148437 -0.0055,0.0037 -0.01652,0.02858 -0.02539,0.04687 v 5.048828 c 0,1.473594 0.592188,2.788369 1.519531,3.783203 h 25.164062 c 0.8644721,-0.927387 1.3922257,-2.146465 1.462891,-3.501953 z"
       style="opacity:1;fill:#97c607;fill-opacity:1;fill-rule:evenodd;stroke:none;stroke-width:1.03534329;stroke-linecap:round;stroke-linejoin:bevel;stroke-miterlimit:4;stroke-dasharray:none;stroke-dashoffset:0;stroke-opacity:1"
       inkscape:connector-curvature="0" />
    <path
       id="rect4497-3-3"
       d="m -31.509766,9.640625 c -3.08865,0 -5.574218,2.485568 -5.574218,5.574219 v 12.005859 c 0.0089,-0.01829 0.01987,-0.04316 0.02539,-0.04687 0.339966,-0.229485 0.712561,-0.249416 1.101563,-0.148437 0.389001,0.100978 0.79441,0.323407 1.207031,0.580078 0.825229,0.511369 2.056932,1.204797 2.441406,1.248047 0.384521,0.04418 1.080174,-0.116384 1.888672,-0.277344 0.808473,-0.157835 2.146922,-0.299013 2.564453,-0.283203 0.417544,0 1.459291,0.188653 2.570313,0.412109 1.111105,0.224115 2.638109,0.596413 2.984375,0.701172 0.346266,0.104167 0.752887,0.299817 1.214843,0.509766 0.461884,0.208334 1.262136,0.524788 1.544922,0.611328 0.28287,0.08483 0.93832,0.380658 1.699219,0.611328 0.760923,0.230402 1.978422,0.309839 2.330078,0.224609 0.351667,-0.08562 1.088663,-0.947553 1.910157,-1.738281 0.410716,-0.395208 0.842605,-0.772752 1.257812,-1.029297 0.415207,-0.256544 0.813734,-0.392225 1.158203,-0.302734 0.338591,0.0894 1.206629,1.153648 2.248047,2.265625 v 1.992187 c 0.00514,-0.09858 0.056641,-0.181345 0.056641,-0.28125 V 15.214844 c 0,-3.088651 -2.4855676,-5.574219 -5.5742186,-5.574219 z"
       style="opacity:1;fill:#bcedf7;fill-opacity:1;fill-rule:evenodd;stroke:none;stroke-width:1.03534329;stroke-linecap:round;stroke-linejoin:bevel;stroke-miterlimit:4;stroke-dasharray:none;stroke-dashoffset:0;stroke-opacity:1"
       inkscape:connector-curvature="0" />
    <rect
       inkscape:transform-center-y="-12.20339"
       inkscape:transform-center-x="-9.3559322"
       ry="5.575182"
       y="9.6406069"
       x="-37.016403"
       height="28.203388"
       width="28.203388"
       id="rect4497-3-9-0"
       style="opacity:0.97699998;fill:url(#radialGradient4680);fill-opacity:1;fill-rule:evenodd;stroke:none;stroke-width:1.03534329;stroke-linecap:round;stroke-linejoin:bevel;stroke-miterlimit:4;stroke-dasharray:none;stroke-dashoffset:0;stroke-opacity:1" />
    <path
       inkscape:connector-curvature="0"
       id="path5376"
       d="m -8.9366719,33.081242 -0.72852,-1.851563 c 0,0 -2.3085901,2.402449 -2.3085901,2.167969 0,-0.234479 -0.49805,-2.167969 -0.49805,-2.167969 l -1.900391,2.34375 -0.90625,-1.40625 -2.306639,1.523438 -0.859371,-1.933594 -1.494139,2.228516 -2.037111,-2.228516 -1.447269,2.345703 -1.177731,-2.46289 -1.175779,2.404297 -1.81055,-2.462891 -0.81445,2.755859 -1.3125,-2.521484 -0.951181,1.582031 -2.21679,-2.050781 c 0,0 -0.589179,2.052396 -0.67969,2.814453 -0.0452,0.381028 -0.47616,-0.558551 -0.89453,-1.591797 -0.41838,-1.033245 -0.82422,-2.160156 -0.82422,-2.160156 0,0 -0.83484,1.954579 -1.40625,3.304688 0.64577,2.365009 2.70986,4.130859 5.285161,4.130859 h 17.052729 c 2.800011,0 5.0057111,-2.080608 5.4121111,-4.763672 z"
       style="opacity:0.97699998;fill:#96c503;fill-opacity:1;fill-rule:evenodd;stroke:none;stroke-width:1.03534329;stroke-linecap:round;stroke-linejoin:bevel;stroke-miterlimit:4;stroke-dasharray:none;stroke-dashoffset:0;stroke-opacity:1" />
    <path
       sodipodi:nodetypes="ccccccccccccccccccccccccccccccccccccccccccccccccccccccccccccccccccccccccccccccccccccccccccccccccccccccccccccccccccccccccccccccccccccccccccccccccccccscccccccccccccccccccccccccccccccccccccccccccccccccccccccccccccccccccccccccccccccccccccccccccccccccccccccccccccccc"
       inkscape:connector-curvature="0"
       id="path5318"
       d="m -8.8936999,31.299989 c -0.63293,1.011289 -1.1433501,2.220185 -1.5488301,3.599609 0.10845,-2.211136 0.3573,-4.359639 0.5918001,-6.513672 -0.4881401,1.865777 -0.9433001,3.726082 -1.3398501,5.576172 -0.10718,-0.543219 -0.23808,-1.035816 -0.36328,-1.539063 0.11281,-1.115702 0.28128,-2.053891 0.54688,-2.660156 -0.19727,0.334178 -0.37293,0.709902 -0.53907,1.101563 0.0628,-0.570825 0.11355,-1.147545 0.17578,-1.71875 -0.17802,0.680448 -0.347221,1.360417 -0.515621,2.039062 -0.1731,-0.542983 -0.36037,-1.057477 -0.57812,-1.501953 0.18802,0.517162 0.30876,1.303864 0.40234,2.199219 -0.1727,0.712081 -0.33061,1.419302 -0.48828,2.128906 -0.14423,-0.557586 -0.30832,-1.114607 -0.46485,-1.673828 0.12691,-1.426946 0.28151,-2.84291 0.43555,-4.257813 -0.26793,1.024098 -0.52312,2.046585 -0.76758,3.066407 -0.26095,-0.891192 -0.53054,-1.78529 -0.8125,-2.679688 0.0998,0.761097 0.20372,1.521843 0.30274,2.283203 -0.0443,-0.09987 -0.0843,-0.211731 -0.13086,-0.30664 0.0755,0.207537 0.12825,0.51447 0.1875,0.787109 0.0531,0.420519 0.0994,0.842778 0.14648,1.265625 -0.0197,0.08697 -0.0409,0.172837 -0.0605,0.259766 -0.1736,-0.438067 -0.35731,-0.857946 -0.56446,-1.230469 0.18691,0.452889 0.32067,1.093625 0.42774,1.828125 -0.0218,0.100376 -0.0489,0.202409 -0.0703,0.302734 -0.32505,-1.646048 -0.71552,-3.144472 -1.27148,-4.279296 0.41786,1.149349 0.56684,3.372462 0.58398,6.126953 -0.18125,-0.671826 -0.37273,-1.329305 -0.59961,-1.91211 -0.13122,-0.441623 -0.24723,-0.882014 -0.38281,-1.324219 0.15743,-0.420602 0.31022,-0.83936 0.50781,-1.267578 -0.19322,0.325471 -0.40136,0.63553 -0.60546,0.947266 -0.11051,-0.357621 -0.20161,-0.712355 -0.31446,-1.070312 0.0569,0.433977 0.11389,0.867208 0.17188,1.300781 -0.15095,0.230473 -0.3008,0.463121 -0.44727,0.699219 -0.21681,-0.603244 -0.45482,-1.166036 -0.72851,-1.658204 0.21102,0.511321 0.36215,1.235663 0.47265,2.101563 -0.0982,0.170509 -0.20001,0.339978 -0.29101,0.519531 -0.23962,0.214826 -0.45026,0.495832 -0.65235,0.798828 -0.14057,-0.125301 -0.28683,-0.243734 -0.4414,-0.347656 -0.0257,0.01263 -0.0473,0.03865 -0.0723,0.05273 -0.021,-0.02655 -0.0413,-0.05391 -0.0625,-0.08008 0.13791,-0.95023 0.29805,-1.837 0.52735,-2.535156 -0.33958,0.587917 -0.63397,1.279446 -0.89454,2.042969 -0.20678,-0.394897 -0.4294,-0.772972 -0.66601,-1.13086 0.0143,-0.04638 0.0244,-0.107242 0.0391,-0.152343 -0.0216,0.03722 -0.0413,0.0831 -0.0625,0.121093 -0.40652,-0.610267 -0.84611,-1.182277 -1.35156,-1.669921 0.0831,0.141015 0.11767,0.356267 0.1914,0.511718 0.005,-0.0093 0.0104,-0.02015 0.0156,-0.0293 -0.004,0.01204 -0.006,0.02858 -0.01,0.04102 0.28415,0.601964 0.54761,1.236394 0.74219,1.976563 -0.0155,0.03542 -0.0314,0.07152 -0.0469,0.107421 -0.085,0.07746 -0.16314,0.168481 -0.24219,0.259766 -0.19776,-0.584498 -0.40692,-1.144527 -0.60742,-1.722656 0.0523,-0.204187 0.0966,-0.43233 0.15429,-0.621094 -0.002,-0.0037 -0.004,-0.008 -0.006,-0.01172 -0.0761,0.136804 -0.14404,0.291083 -0.21679,0.435547 -0.0117,-0.03368 -0.0239,-0.06372 -0.0352,-0.09766 0.0103,0.03972 0.0154,0.07753 0.0254,0.117187 -0.15482,0.30915 -0.29946,0.639491 -0.43555,0.990235 -0.0157,-0.964522 -0.0101,-1.841079 0.16211,-2.419922 -0.42601,0.875128 -0.56263,2.29724 -0.75195,3.552734 -0.17607,-0.489061 -0.35554,-0.972979 -0.52344,-1.480469 0.15695,0.610408 0.29162,1.213241 0.4043,1.808594 -0.16555,0.231749 -0.31605,0.490988 -0.44922,0.779297 -0.10626,-0.490609 -0.22693,-0.952571 -0.36328,-1.375 -0.018,-1.009022 -0.0165,-1.927735 0.16211,-2.527344 -0.21377,0.43918 -0.35571,1.017683 -0.4668,1.642579 -0.16644,-0.459815 -0.33395,-0.916248 -0.49218,-1.394532 0.1647,0.640553 0.30178,1.272432 0.41796,1.896485 -0.0755,0.492729 -0.14919,0.988556 -0.22265,1.46875 -0.16063,-0.341072 -0.35188,-0.669927 -0.58789,-1.082032 -0.0208,-1.46907 -0.0957,-2.790363 0.14453,-3.597656 -0.29129,0.598386 -0.43851,1.459603 -0.56836,2.341797 -0.0892,-0.470267 -0.18727,-0.92708 -0.32422,-1.330078 0.0349,-0.07859 0.0648,-0.165175 0.10156,-0.240234 -0.0464,0.05389 -0.0836,0.120288 -0.1289,0.175781 -0.0817,-0.229974 -0.17162,-0.451762 -0.28125,-0.638672 0.0818,0.228221 0.13289,0.497858 0.16406,0.796875 -0.17342,0.222573 -0.3499,0.441775 -0.50781,0.6875 0.0174,-0.05809 0.0268,-0.113636 0.0449,-0.171875 -0.0502,0.12582 -0.10259,0.244404 -0.1543,0.367187 -0.34184,0.556919 -0.64745,1.170426 -0.92187,1.828125 -0.0986,-0.164529 -0.21286,-0.379571 -0.33594,-0.597656 0.16799,-0.622728 0.36005,-1.197733 0.59961,-1.6875 -0.31344,0.364354 -0.59263,0.776885 -0.85938,1.210938 -0.0117,-0.02269 -0.0198,-0.03121 -0.0312,-0.05469 0.0103,0.02634 0.0137,0.04235 0.0234,0.06836 -0.20405,0.333095 -0.40083,0.678665 -0.58008,1.048829 -0.14986,-0.369735 -0.32401,-0.701183 -0.49609,-1.03711 0.19674,-0.857766 0.42287,-1.661866 0.73633,-2.302734 -0.40466,0.470415 -0.75593,1.020654 -1.08399,1.605469 -0.0103,-0.01941 -0.0189,-0.04114 -0.0293,-0.06055 0.0482,-0.433573 0.0973,-0.866804 0.14453,-1.300781 -0.0936,0.357956 -0.17395,0.712691 -0.26563,1.070312 -0.16939,-0.311737 -0.33964,-0.621796 -0.5,-0.947266 0.14205,0.370904 0.25261,0.733288 0.36524,1.097657 -0.0754,-0.120754 -0.14352,-0.255425 -0.22266,-0.369141 0.0881,0.222816 0.14945,0.507202 0.22461,0.759766 -0.0438,0.172865 -0.078,0.344796 -0.12109,0.517578 -0.1822,0.383583 -0.35508,0.782253 -0.51368,1.201172 -0.20272,-0.43502 -0.41161,-0.862596 -0.63281,-1.269532 0.0482,-0.433572 0.0973,-0.868756 0.14453,-1.302734 -0.0936,0.357956 -0.17197,0.714645 -0.26367,1.072266 -0.0513,-0.09441 -0.0994,-0.192376 -0.15039,-0.28711 0.12325,-1.322611 0.26322,-2.639411 0.40625,-3.953125 -0.35747,1.366284 -0.69124,2.727587 -1.00391,4.085938 -0.11569,-0.223576 -0.219,-0.462929 -0.33789,-0.681641 0.0482,-0.433573 0.0954,-0.868756 0.14258,-1.302734 -0.0936,0.357957 -0.17198,0.714644 -0.26367,1.072265 -0.0876,-0.161307 -0.17314,-0.327156 -0.25977,-0.490234 0.0701,-0.639368 0.12958,-1.284223 0.19922,-1.923828 -0.13615,0.520413 -0.26183,1.039214 -0.39258,1.558594 -0.0158,-0.03158 -0.0331,-0.06191 -0.0488,-0.09375 0.016,0.04161 0.0259,0.08353 0.041,0.125 -0.0379,0.150684 -0.078,0.300582 -0.11523,0.451171 -0.17369,-0.543925 -0.36003,-1.05875 -0.57813,-1.503906 0.1886,0.518723 0.30838,1.307959 0.40235,2.207032 -0.22955,0.946736 -0.44844,1.887834 -0.65039,2.830078 -0.11086,-0.561519 -0.24452,-1.071332 -0.375,-1.589844 0.0368,-0.476235 0.091,-0.943871 0.13671,-1.416016 0.0343,-0.0829 0.0586,-0.194881 0.0957,-0.269531 -0.0292,0.04353 -0.0534,0.09613 -0.082,0.140625 0.11504,-1.170496 0.23251,-2.340647 0.35937,-3.505859 -0.31918,1.220013 -0.61783,2.436591 -0.90234,3.65039 -0.15498,-0.460852 -0.31896,-0.903577 -0.50781,-1.289062 0.16599,0.456529 0.28134,1.129545 0.37304,1.884765 -0.0103,0.04567 -0.0209,0.09107 -0.0312,0.136719 -0.20111,-0.539442 -0.4155,-1.049119 -0.66406,-1.496094 0.22375,0.542168 0.36866,1.362864 0.48047,2.300782 -0.009,0.03935 -0.0187,0.0798 -0.0273,0.11914 -0.0271,0.0663 -0.0499,0.137734 -0.0762,0.205078 -0.29564,-1.484952 -0.65362,-2.835161 -1.13281,-3.914062 0.009,-0.02246 0.0159,-0.05251 0.0254,-0.07422 -0.0103,0.01862 -0.0185,0.04173 -0.0293,0.06055 -0.0417,-0.0934 -0.0794,-0.198071 -0.12304,-0.287109 0.0348,0.09539 0.0529,0.251849 0.084,0.361328 -0.4514,0.799603 -0.7936,1.796954 -1.09961,2.863281 -0.2419,-0.714613 -0.51356,-1.374166 -0.83008,-1.943359 0.27265,0.660675 0.44217,1.686343 0.55274,2.919922 -0.0263,0.106172 -0.0603,0.197196 -0.0859,0.304687 -0.25271,-0.978519 -0.56717,-1.965686 -0.85547,-2.949219 -0.443672,4.688329 2.529204,6.994548 6.220193,6.827359 2.198934,0.06013 8.43651,0.0047 10.998557,0.0047 0.0464,-0.524572 0.0836,-1.078843 0.13867,-1.580079 0.0569,0.531631 0.0867,1.054478 0.12696,1.580079 h 2.94726 l 0.21094,-0.164063 c 0.0263,0.05489 0.0511,0.109882 0.0781,0.164063 h 1.9082 c 2.201105,0 4.121961,-1.180084 5.0292931,-3.158204 0.0217,-0.275416 -0.02686,-0.66343 0.0019,-0.917968 0.10913,-0.965213 0.31143,-1.659104 0.54297,-2.265625 z m -22.3652411,0.06055 c 0.0642,0.199673 0.13742,0.400678 0.19922,0.59961 -0.0518,0.203221 -0.0954,0.406261 -0.14648,0.609375 -0.0425,-0.172121 -0.0799,-0.357081 -0.125,-0.523438 0.0239,-0.228219 0.0475,-0.457743 0.0723,-0.685547 z m 6.73243,0.140626 c 0.0685,0.965001 -0.0143,2.205182 0.008,3.537109 -0.0389,0.14108 -0.08,0.278227 -0.12696,0.400391 -0.16575,-0.319122 -0.37486,-0.650164 -0.62304,-1.101563 0.1864,-1.058539 0.42439,-2.021653 0.74219,-2.835937 z m 4.08789,0.666015 c 0.15636,0.645766 0.28592,1.282581 0.39453,1.912109 -0.26433,0.36123 -0.50699,0.777024 -0.75196,1.183594 0.27491,-0.235911 0.54432,-0.526945 0.81836,-0.769531 0.006,0.03022 0.0106,0.05967 0.0156,0.08984 -0.27765,0.82348 -0.5148,1.734727 -0.71875,2.722656 -0.067,-0.524614 -0.1618,-0.990913 -0.26758,-1.427734 0.0179,-0.339461 0.0269,-0.672369 0.0293,-1.003907 0.11868,-1.015634 0.28266,-1.910033 0.48047,-2.707031 z m -10.47852,0.224609 c 0.0874,0.304077 0.15553,0.603617 0.22852,0.904297 -0.0553,0.248517 -0.11671,0.497911 -0.16993,0.746094 -0.0448,-0.226473 -0.10285,-0.422273 -0.15039,-0.642578 0.0349,-0.334417 0.0551,-0.674214 0.0918,-1.007813 z m 15.15625,0.306641 c 0.0691,0.52163 0.13262,1.046251 0.19531,1.570313 -0.13229,-0.145348 -0.26779,-0.285101 -0.41211,-0.41211 -0.0227,-0.07632 -0.043,-0.157276 -0.0664,-0.232422 0.0897,-0.307896 0.17523,-0.614328 0.2832,-0.925781 z m -14.19531,0.02148 c 0.0316,0.101919 0.0698,0.204802 0.10156,0.30664 -0.0434,0.170348 -0.0782,0.339491 -0.12109,0.509766 -0.0161,0.009 -0.0309,0.02207 -0.0469,0.03125 -0.002,-0.0062 -0.006,-0.01339 -0.008,-0.01953 0.0214,-0.27752 0.0497,-0.55213 0.0742,-0.828124 z m 0.24414,0.738281 c 0.0259,0.09037 0.0456,0.177525 0.0703,0.267578 -0.0293,-0.01818 -0.06,-0.03588 -0.0898,-0.05273 0.008,-0.07166 0.0122,-0.143204 0.0195,-0.214843 z m 3.25,0.158203 c 0.0772,0.242391 0.17448,0.509528 0.22851,0.726562 -0.17661,0.453009 -0.33722,0.92275 -0.48828,1.414063 -0.0281,-0.147816 -0.072,-0.274285 -0.10547,-0.414063 0.10236,-0.610954 0.22716,-1.181996 0.36524,-1.726562 z m -1.54297,0.460937 c 0.07,0.382059 0.14396,0.752574 0.20117,1.164063 -0.15649,0.411236 -0.3055,0.833338 -0.44141,1.27539 -0.0192,-0.100838 -0.0487,-0.186166 -0.0703,-0.283203 0.0359,-0.292377 0.0798,-0.565775 0.11914,-0.851562 0.0792,0.06269 0.15644,0.132562 0.23633,0.189453 -0.0725,-0.09979 -0.14846,-0.190785 -0.2207,-0.291016 0.0567,-0.404619 0.10861,-0.817998 0.17578,-1.203125 z m 8.65234,0.01367 h 0.002 c 9e-4,0.0016 5.7e-4,0.0047 0.004,0.0059 0.10236,0.456298 0.19241,0.933808 0.27539,1.419921 -0.0722,0.111898 -0.1425,0.223721 -0.21289,0.339844 -0.073,-0.397554 -0.15464,-0.778223 -0.25,-1.125 0.0303,-0.194161 0.054,-0.407126 0.0879,-0.591797 0.0312,-0.01311 0.0622,-0.03862 0.0937,-0.04883 z m -4.28906,0.125 c 0.16446,0.565463 0.28205,1.087143 0.33984,1.554688 -0.14131,-0.296881 -0.2562,-0.648482 -0.34765,-1.044922 0.002,-0.170141 0.008,-0.342691 0.008,-0.509766 z m -6.05469,0.181641 c 0.0853,0.02171 0.1668,0.06979 0.25,0.107422 0.0443,0.187498 0.0877,0.374226 0.12696,0.560547 -0.0427,0.130382 -0.0899,0.2517 -0.13086,0.384765 -0.0708,-0.372167 -0.162,-0.715854 -0.26367,-1.041015 0.007,-0.0035 0.0114,-0.0082 0.0176,-0.01172 z m 4.39649,0.142578 c 0.17129,0.517603 0.30672,1.000499 0.38476,1.419922 -0.10535,0.136206 -0.2255,0.23839 -0.36718,0.292969 -0.057,-0.300143 -0.10917,-0.477198 -0.16407,-0.695313 0.0481,-0.341554 0.0911,-0.689693 0.14649,-1.017578 z m 8.06445,0.246094 c -0.008,0.02153 -0.0142,0.04665 -0.0215,0.06836 -0.009,-0.0094 -0.018,-0.01808 -0.0273,-0.02734 0.0162,-0.01462 0.0326,-0.02679 0.0488,-0.04102 z m 0.85156,0.162109 c 0.0199,0.327527 0.0305,0.687434 0.043,1.041016 -0.0651,-0.09462 -0.13621,-0.179616 -0.20312,-0.271485 0.047,-0.255407 0.10358,-0.512286 0.16015,-0.769531 z m -2.63867,0.839844 c 0.006,0.03325 0.009,0.06431 0.0137,0.09766 -0.051,0.220998 -0.10513,0.431105 -0.15234,0.660156 -0.0248,-0.194389 -0.065,-0.350483 -0.0957,-0.53125 0.0785,-0.07753 0.15584,-0.149458 0.23437,-0.226562 z m 3.57617,0.130859 c 0.0202,0.0375 0.0446,0.06942 0.0645,0.107422 0.0117,0.12554 0.0247,0.249087 0.0352,0.375 -0.0333,-0.16085 -0.0651,-0.324131 -0.0996,-0.482422 z m -7.00195,0.238282 c 0.001,0.01 9.5e-4,0.0193 0.002,0.0293 -0.001,0.0039 -9.5e-4,0.0078 -0.002,0.01172 4.2e-4,-0.01389 -3.9e-4,-0.02717 0,-0.04102 z"
       style="opacity:0.97699998;fill:#addb1f;fill-opacity:1;fill-rule:evenodd;stroke:none;stroke-width:1.03534329;stroke-linecap:round;stroke-linejoin:bevel;stroke-miterlimit:4;stroke-dasharray:none;stroke-dashoffset:0;stroke-opacity:1" />
    <path
       sodipodi:nodetypes="ccccccccccsccccccccccccccccccccscscccccccccsccsccccscccccccccccccc"
       inkscape:connector-curvature="0"
       id="path5314"
       d="m -35.452536,28.770705 c 0.28218,2.620306 0.514083,5.263205 0.551611,7.996094 0.455699,0.312241 0.92752,0.569869 1.468312,0.740234 -0.01214,-1.604768 4.57e-4,-3.109995 0.08136,-4.33789 0.08829,-1.340128 0.243504,-2.406437 0.492089,-3.097657 -0.55152,1.138067 -0.939529,2.640266 -1.26196,4.291016 -0.393372,-1.855375 -0.847171,-3.720689 -1.331407,-5.591797 z m 19.51073,0.08008 c 0.317479,2.948193 0.664488,5.881216 0.625026,8.994141 h 0.916705 c 0.16832,0 0.333161,-0.0094 0.497664,-0.02344 -0.01561,-1.693132 -0.02014,-3.318404 0.06585,-4.601563 0.08889,-1.326305 0.243466,-2.382589 0.490099,-3.068359 -0.551531,1.138093 -0.941505,2.640217 -1.263941,4.291015 -0.393372,-1.855375 -0.847178,-3.720688 -1.331404,-5.591797 z m -8.676951,2.015625 c 0.208141,0.706898 0.183119,1.783426 0.162709,3.025391 -0.02012,1.223838 -0.02784,2.609451 0.192465,3.953125 h 2.02985 c 0.02487,-0.656274 0.0492,-1.263641 0.1508,-1.927734 0.104682,-0.684263 0.289654,-1.430193 0.6409,-2.357422 -0.365203,0.749333 -0.620321,1.091458 -0.833368,1.501953 -0.213048,0.410495 -0.384028,0.88936 -0.57542,1.90625 -0.305516,-0.118975 -0.514947,-0.451493 -0.672647,-0.910156 -0.157701,-0.458664 -0.262818,-1.04355 -0.355174,-1.667969 -0.184704,-1.248838 -0.322025,-2.655178 -0.740115,-3.523438 z m 7.159031,0.400391 c 0.04686,0.435218 0.09511,0.871831 0.142863,1.306641 -0.562953,1.047009 -1.11763,2.106127 -1.396883,3.589843 -0.29458,-0.968626 -0.63529,-1.867963 -1.033773,-2.679687 -0.398484,-0.811724 -0.854742,-1.535836 -1.38101,-2.154297 0.388358,0.80267 0.666635,1.811436 0.882974,2.9375 0.212855,1.107935 0.36464,2.332055 0.503989,3.578125 h 1.633004 1.242115 0.936547 c -0.346008,-1.718493 -0.752112,-3.447736 -1.188542,-5.181641 0.129605,-0.421805 0.254011,-0.843995 0.416684,-1.273437 -0.159079,0.326401 -0.328026,0.638545 -0.496052,0.951172 -0.09095,-0.358643 -0.169015,-0.715238 -0.261916,-1.074219 z m 5.944691,0.169922 c -0.449881,0.817847 -0.81144,1.805693 -1.119094,2.904297 -0.285061,1.017925 -0.505494,2.246613 -0.720454,3.402343 0.396603,-0.07423 0.806673,-0.185302 1.168886,-0.335937 0.01788,-1.234824 0.05204,-2.412547 0.146831,-3.373047 0.108726,-1.101769 0.276357,-1.991437 0.523831,-2.597656 z m -19.544461,0.482422 c -0.419989,0.763511 -0.761103,1.679826 -1.053616,2.695312 -0.268344,0.931595 -0.526106,2.011215 -0.731158,3.067296 0.362255,0.07106 0.735974,0.163173 1.120061,0.163173 h 1.057588 c 0.280341,-0.575276 0.547111,-1.178928 0.847253,-1.712891 0.310473,-0.552322 0.655824,-1.030832 1.087354,-1.332031 0.501466,0.155609 0.95559,0.763661 1.430611,1.175781 -0.491398,-0.824538 -0.96197,-1.698877 -1.654834,-2.044921 -0.593193,0.403181 -1.071313,0.981047 -1.511966,1.61914 -0.440643,0.638093 -0.843809,1.336411 -1.2818,1.978516 0.04826,-2.519411 0.243189,-4.513644 0.690507,-5.609375 z m 3.222361,0.203125 c 0.462556,1.423835 0.690527,3.505033 0.869074,5.722656 h 1.220297 c 0.144931,-1.835645 0.385235,-3.705175 0.882973,-5.662109 -0.490433,1.498666 -1.094232,2.737705 -1.351249,4.771484 -0.395587,-1.937252 -0.914374,-3.595112 -1.621095,-4.832031 z"
       style="opacity:0.97699998;fill:#73a00c;fill-opacity:1;fill-rule:evenodd;stroke:none;stroke-width:1.03534329;stroke-linecap:round;stroke-linejoin:bevel;stroke-miterlimit:4;stroke-dasharray:none;stroke-dashoffset:0;stroke-opacity:1" />
    <path
       sodipodi:nodetypes="ccccccccccccsccccscscsccsccccccscccscscccccccccccscscccscscsccccccc"
       inkscape:connector-curvature="0"
       id="path5252"
       d="m -31.682014,30.645707 c -0.538693,1.502483 -1.042808,3.000379 -1.480469,4.490234 -0.358739,-1.325454 -0.792704,-2.531465 -1.406249,-3.445312 0.27392,0.549762 0.446146,1.397832 0.544921,2.460938 0.08068,0.868299 0.04216,2.031479 0.03979,3.141793 0.483482,0.240959 1.067864,0.390025 1.619696,0.482363 -0.01872,-2.42286 0.338854,-4.82789 0.682311,-7.130016 z m 18.826172,0.980469 c 0.276103,0.554145 0.448715,1.410139 0.546875,2.484375 0.08487,0.928754 0.13132,2.096485 0.12327,3.296875 0.420451,-0.180454 0.791016,-0.420876 1.150055,-0.694145 -0.165318,-0.747819 -0.384024,-1.593958 -0.589728,-2.276558 -0.324289,-1.076107 -0.715181,-2.043044 -1.230469,-2.810547 z m -9.169922,0.636719 c -0.465226,0.697384 -0.616853,1.826618 -0.822266,2.830078 -0.102705,0.50173 -0.219092,0.971297 -0.394531,1.339844 -0.175438,0.368545 -0.410039,0.636861 -0.75,0.732421 -0.212977,-0.816763 -0.401422,-1.199871 -0.638672,-1.529297 -0.237249,-0.329425 -0.523301,-0.605168 -0.929687,-1.207031 0.399274,0.760797 0.60479,1.347235 0.71875,1.884766 0.109762,0.51773 0.132039,0.993518 0.160156,1.53125 h 2.265625 c 0.239699,-1.073662 0.233166,-2.179002 0.210938,-3.15625 -0.02264,-0.99539 -0.05147,-1.859108 0.179687,-2.425781 z m -7.966797,0.324218 c -0.10345,0.288532 -0.191688,0.575021 -0.292969,0.863282 -0.186863,-0.250956 -0.373867,-0.50166 -0.550781,-0.763672 0.181166,0.34521 0.320536,0.682417 0.464844,1.021484 -0.478199,1.371289 -0.962073,2.766057 -1.343357,4.125277 0.0694,0.0025 0.165896,0.01144 0.235935,0.01144 h 0.828125 1.375 1.828125 c 0.154378,-0.994288 0.320822,-1.971448 0.556641,-2.855469 0.240662,-0.902178 0.551205,-1.710208 0.982422,-2.353516 -0.585613,0.496747 -1.093588,1.078452 -1.53711,1.730469 -0.443522,0.652018 -0.822591,1.374347 -1.15039,2.152344 -0.31065,-1.191362 -0.928446,-2.042102 -1.554688,-2.882813 0.05315,-0.349356 0.106032,-0.699143 0.158203,-1.048828 z m -6.613281,0.136719 c 0.27489,0.486034 0.46122,1.197748 0.58203,2.080078 0.0224,0.163464 0.02821,0.747508 0.04621,0.922248 0.31289,0.453635 0.646058,0.698613 1.076678,1.040641 -0.152299,-0.511316 -0.280846,-1.247558 -0.462727,-1.716795 -0.3411,-0.880004 -0.74296,-1.671086 -1.242191,-2.326172 z m 21.748047,0.386719 c 0.248731,0.439788 0.42585,1.058976 0.548828,1.822266 0.122978,0.763289 0.191814,1.67068 0.21875,2.68164 -0.487143,-0.515621 -0.935187,-1.076047 -1.425781,-1.58789 -0.490595,-0.511845 -1.023739,-0.975109 -1.683594,-1.298829 -0.771,0.277943 -1.294989,0.978358 -1.841797,1.640625 0.52859,-0.331015 1.035723,-0.820329 1.59375,-0.945312 0.47731,0.240471 0.859847,0.623038 1.203125,1.064453 0.328969,0.423015 0.620958,0.900958 0.927734,1.357422 h 0.890626 c 0.520289,0 1.058046,-0.0593 1.535156,-0.191407 -0.217595,-0.795259 -0.515707,-1.679907 -0.796875,-2.384765 -0.324443,-0.813342 -0.703754,-1.546506 -1.169922,-2.158203 z m -3.585938,0.162109 c -0.786408,0.993491 -1.364491,2.324865 -1.804687,3.88086 -0.286007,-1.633525 -0.958175,-2.628308 -1.503906,-3.832032 0.550596,1.56254 0.818304,3.056972 0.980468,4.523438 h 1.363282 c 0.198747,-1.770891 0.452952,-3.434926 0.964843,-4.572266 z"
       style="opacity:0.97699998;fill:#4d8304;fill-opacity:1;fill-rule:evenodd;stroke:none;stroke-width:1.03534329;stroke-linecap:round;stroke-linejoin:bevel;stroke-miterlimit:4;stroke-dasharray:none;stroke-dashoffset:0;stroke-opacity:1" />
    <path
       sodipodi:nodetypes="cccccc"
       inkscape:connector-curvature="0"
       id="path4510-93"
       d="m -31.529902,32.063676 c 0.459963,1.438379 0.686775,3.538018 0.863281,5.78125 h 1.183594 c 0.14208,-1.853943 0.38389,-3.743478 0.878906,-5.720704 -0.482743,1.498666 -1.077081,2.737706 -1.330078,4.771485 -0.38939,-1.937252 -0.900059,-3.595112 -1.595703,-4.832031 z"
       style="fill:#73a00c;fill-opacity:1;stroke:none;stroke-width:0.99999994px;stroke-linecap:butt;stroke-linejoin:miter;stroke-opacity:1" />
    <path
       inkscape:connector-curvature="0"
       id="path10"
       style="fill:#fffee4;fill-rule:evenodd;stroke-width:0.99399543;enable-background:new"
       d="m -17.00096,14.377504 c 2.195836,0 3.975982,1.780146 3.975982,3.975981 0,2.195836 -1.780146,3.975982 -3.975982,3.975982 -2.195835,0 -3.975981,-1.780146 -3.975981,-3.975982 0,-2.195835 1.780146,-3.975981 3.975981,-3.975981 z" />
  </g>
</svg>
