<?xml version="1.0" encoding="UTF-8" standalone="no"?>
<svg
   xmlns:dc="http://purl.org/dc/elements/1.1/"
   xmlns:cc="http://creativecommons.org/ns#"
   xmlns:rdf="http://www.w3.org/1999/02/22-rdf-syntax-ns#"
   xmlns:svg="http://www.w3.org/2000/svg"
   xmlns="http://www.w3.org/2000/svg"
   xmlns:sodipodi="http://sodipodi.sourceforge.net/DTD/sodipodi-0.dtd"
   xmlns:inkscape="http://www.inkscape.org/namespaces/inkscape"
   height="32"
   width="32"
   version="1"
   id="svg10"
   sodipodi:docname="mscore.svg"
   inkscape:version="0.92.1 r">
  <metadata
     id="metadata16">
    <rdf:RDF>
      <cc:Work
         rdf:about="">
        <dc:format>image/svg+xml</dc:format>
        <dc:type
           rdf:resource="http://purl.org/dc/dcmitype/StillImage" />
      </cc:Work>
    </rdf:RDF>
  </metadata>
  <defs
     id="defs14" />
  <sodipodi:namedview
     pagecolor="#ffffff"
     bordercolor="#666666"
     borderopacity="1"
     objecttolerance="10"
     gridtolerance="10"
     guidetolerance="10"
     inkscape:pageopacity="0"
     inkscape:pageshadow="2"
     inkscape:window-width="640"
     inkscape:window-height="480"
     id="namedview12"
     showgrid="false"
     inkscape:zoom="8.9375"
     inkscape:cx="-26.741259"
     inkscape:cy="16"
     inkscape:current-layer="svg10" />
  <rect
     style="opacity:1;fill:#f8d7ae;fill-opacity:1;fill-rule:evenodd;stroke:none;stroke-width:1.03534329;stroke-linecap:round;stroke-linejoin:bevel;stroke-miterlimit:4;stroke-dasharray:none;stroke-dashoffset:0;stroke-opacity:1"
     id="rect4497-3-3"
     width="28.203388"
     height="28.203388"
     x="1.8983059"
     y="1.8983059"
     ry="5.575182"
     inkscape:export-filename="/home/ramil/3.png"
     inkscape:export-xdpi="71"
     inkscape:export-ydpi="71" />
  <path
     d="m 21.99902,9.0000002 c -1.745,0 -2.728,0.9065 -3.143,1.7869998 -0.414,0.881 -0.357,1.742 -0.357,1.742 l 1,-0.058 c 0,0 -0.03,-0.639 0.262,-1.258 0.291,-0.62 0.808,-1.213 2.238,-1.213 1.43,0 1.947,0.593 2.238,1.213 0.292,0.619 0.262,1.258 0.262,1.258 l 1,0.058 c 0,0 0.057,-0.861 -0.357,-1.742 -0.415,-0.8804998 -1.398,-1.7869998 -3.143,-1.7869998 z m 0,2.9999998 a 0.5,0.5 0 0 0 -0.5,0.5 0.5,0.5 0 0 0 0.5,0.5 0.5,0.5 0 0 0 0.5,-0.5 0.5,0.5 0 0 0 -0.5,-0.5 z m -11.998,1 c -1.7446,0 -2.7279,0.907 -3.1426,1.787 -0.4148,0.881 -0.3574,1.742 -0.3574,1.742 V 23 h 1 v -6.529 c 0,0 -0.0301,-0.639 0.2617,-1.258 0.2917,-0.62 0.8087,-1.213 2.2383,-1.213 1.429,0 1.946,0.593 2.238,1.213 0.292,0.619 0.262,1.258 0.262,1.258 V 23 h 1 v -6.529 c 0,0 -0.03,-0.639 0.262,-1.258 0.291,-0.62 0.808,-1.213 2.238,-1.213 1.429,0 1.946,0.593 2.238,1.213 0.292,0.619 0.262,1.258 0.262,1.258 v 0.013 l -0.002,2.016 v 0.971 c 0,0 -0.057,0.861 0.357,1.742 0.415,0.88 1.398,1.787 3.143,1.787 1.745,0 2.728,-0.907 3.143,-1.787 0.414,-0.881 0.357,-1.742 0.357,-1.742 V 13 h -1 v 6.529 c 0,0 0.03,0.639 -0.262,1.258 -0.291,0.62 -0.808,1.213 -2.238,1.213 -1.43,0 -1.947,-0.593 -2.238,-1.213 -0.292,-0.619 -0.262,-1.258 -0.262,-1.258 V 18.5 l 0.002,-1.971 c 0,0 0.057,-0.861 -0.357,-1.742 -0.415,-0.88 -1.398,-1.787 -3.143,-1.787 -1.573,0 -2.524,0.737 -3,1.527 -0.476,-0.79 -1.427,-1.527 -3,-1.527 z"
     id="path6"
     inkscape:connector-curvature="0"
     style="fill:#2a567b;fill-rule:evenodd" />
</svg>
