<?xml version="1.0" encoding="UTF-8" standalone="no"?>
<svg
   xmlns:dc="http://purl.org/dc/elements/1.1/"
   xmlns:cc="http://creativecommons.org/ns#"
   xmlns:rdf="http://www.w3.org/1999/02/22-rdf-syntax-ns#"
   xmlns:svg="http://www.w3.org/2000/svg"
   xmlns="http://www.w3.org/2000/svg"
   xmlns:sodipodi="http://sodipodi.sourceforge.net/DTD/sodipodi-0.dtd"
   xmlns:inkscape="http://www.inkscape.org/namespaces/inkscape"
   width="32"
   height="32"
   version="1"
   id="svg26"
   sodipodi:docname="gnome-balsa.svg"
   inkscape:version="0.92.1 r">
  <metadata
     id="metadata30">
    <rdf:RDF>
      <cc:Work
         rdf:about="">
        <dc:format>image/svg+xml</dc:format>
        <dc:type
           rdf:resource="http://purl.org/dc/dcmitype/StillImage" />
      </cc:Work>
    </rdf:RDF>
  </metadata>
  <sodipodi:namedview
     pagecolor="#ffffff"
     bordercolor="#666666"
     borderopacity="1"
     objecttolerance="10"
     gridtolerance="10"
     guidetolerance="10"
     inkscape:pageopacity="0"
     inkscape:pageshadow="2"
     inkscape:window-width="1680"
     inkscape:window-height="965"
     id="namedview28"
     showgrid="false"
     inkscape:zoom="3.6875"
     inkscape:cx="-48.416112"
     inkscape:cy="68.49827"
     inkscape:window-x="0"
     inkscape:window-y="0"
     inkscape:window-maximized="1"
     inkscape:current-layer="svg26" />
  <defs
     id="defs8">
    <clipPath
       id="clipPath4403"
       clipPathUnits="userSpaceOnUse">
      <path
         fill="#fe9700"
         d="m160 238-19.09 14.324c-0.0411 0.0267-0.0783 0.0583-0.1172 0.0879l-0.0234 0.0176v0.003c-0.46558 0.36557-0.76954 0.92787-0.76954 1.5684l0.00002 17.427c0 2.8571 2.2529 2.8571 2.8571 2.8571h34.286s2.8571 0 2.8571-2.8571l-0.00003-17.427c0-0.65501-0.31697-1.2294-0.80077-1.5938l0.009-0.0114-19.207-14.395z"
         id="path2" />
    </clipPath>
    <filter
       id="filter4507"
       style="color-interpolation-filters:sRGB"
       width="1.218"
       height="1.268"
       x="-.11"
       y="-.13">
      <feGaussianBlur
         stdDeviation="1.45"
         id="feGaussianBlur5" />
    </filter>
  </defs>
  <g
     id="g5692"
     transform="translate(45.288135,4.8813555)">
    <path
       id="path4597"
       d="m -16.55854,23.208488 c -0.29773,0.07433 -0.66993,0.167969 -0.66993,0.167969 H -41.3769 c -0.1126,0 -0.39288,-0.09553 -0.61719,-0.132812 1.0209,1.187353 2.48379,1.976562 4.17969,1.976562 h 17.05273 c 1.71117,0 3.18202,-0.805741 4.20313,-2.011719 z"
       style="opacity:1;fill:#999999;fill-opacity:1;fill-rule:evenodd;stroke:none;stroke-width:1.03534329;stroke-linecap:round;stroke-linejoin:bevel;stroke-miterlimit:4;stroke-dasharray:none;stroke-dashoffset:0;stroke-opacity:1"
       inkscape:connector-curvature="0" />
    <path
       id="path4595"
       d="M -15.21675,19.800285 V 9.089348 c 0,-0.461353 -0.22174,-0.866425 -0.5625,-1.123047 l 0.006,-0.0078 -13.52929,-9.9375 c 0,0 -13.52783,9.950553 -13.44532,9.888672 v -0.002 c -0.0289,0.01882 -0.0567,0.04167 -0.084,0.0625 l -0.0156,0.01172 v 0.002 c -0.32792,0.257487 -0.54296,0.654299 -0.54296,1.105469 v 10.55664 c 0,1.392752 0.55807,2.622546 1.39648,3.597657 0.22431,0.03728 0.50459,0.132812 0.61719,0.132812 h 24.14843 c 0,0 0.3722,-0.09364 0.66993,-0.167969 0.78926,-0.932163 1.30425,-2.094954 1.34179,-3.408203 z"
       style="opacity:1;fill:#4e4e4e;fill-opacity:1;fill-rule:evenodd;stroke:none;stroke-width:1.03534329;stroke-linecap:round;stroke-linejoin:bevel;stroke-miterlimit:4;stroke-dasharray:none;stroke-dashoffset:0;stroke-opacity:1"
       inkscape:connector-curvature="0" />
    <path
       id="rect4497-3-3-9-3"
       d="m -37.8144,-2.982918 c -3.08865,0 -5.57617,2.487521 -5.57617,5.576172 v 6.496094 c 0,-0.45117 0.21504,-0.847982 0.54296,-1.105469 v -0.002 l 0.0156,-0.01172 c 0.0273,-0.02083 0.0551,-0.04368 0.084,-0.0625 v 0.002 c -0.0825,0.06188 13.44532,-9.888672 13.44532,-9.888672 l 13.52929,9.9375 -0.006,0.0078 c 0.34076,0.256622 0.5625,0.661694 0.5625,1.123047 v 10.710937 c 0.002,-0.05443 0.0312,-0.09948 0.0312,-0.154297 V 2.593254 c 0,-3.088651 -2.48752,-5.576172 -5.57617,-5.576172 z"
       style="opacity:1;fill:#999999;fill-opacity:1;fill-rule:evenodd;stroke:none;stroke-width:1.03534329;stroke-linecap:round;stroke-linejoin:bevel;stroke-miterlimit:4;stroke-dasharray:none;stroke-dashoffset:0;stroke-opacity:1"
       inkscape:connector-curvature="0" />
    <rect
       id="rect6-3-2-0"
       x="-40.371059"
       y="1.0387"
       width="22.136396"
       height="18.111597"
       ry="1.5082935"
       rx="1.5092998"
       style="fill:#ebebeb;stroke-width:1.00619984" />
    <path
       id="path12-2-9-6"
       d="m -29.30285,4.057301 a 5.030999,5.030999 0 0 0 -5.031,5.030998 5.030999,5.030999 0 0 0 5.031,5.030999 h 3.52169 c 0.27872,0 0.5031,-0.224383 0.5031,-0.5031 0,-0.278718 -0.22438,-0.5031 -0.5031,-0.5031 h -3.52169 a 4.0247992,4.0247992 0 0 1 -4.0248,-4.024799 4.0247992,4.0247992 0 0 1 4.0248,-4.024799 4.0247992,4.0247992 0 0 1 4.02479,4.024799 v 1.509299 c 0,0.278718 -0.22438,0.5031 -0.5031,0.5031 -0.27871,0 -0.5031,-0.224382 -0.5031,-0.5031 V 9.088299 a 3.0185994,3.0185994 0 0 0 -3.01859,-3.018599 3.0185994,3.0185994 0 0 0 -3.0186,3.018599 3.0185994,3.0185994 0 0 0 3.0186,3.018599 3.0185994,3.0185994 0 0 0 2.14411,-0.896142 c 0.23444,0.528255 0.76068,0.896524 1.37748,0.896524 0.83616,0 1.5093,-0.673147 1.5093,-1.509299 v -1.5093 a 5.030999,5.030999 0 0 0 -5.031,-5.030998 z m 0,3.018598 a 2.0123996,2.0123996 0 0 1 2.01239,2.0124 2.0123996,2.0123996 0 0 1 -2.01239,2.012399 2.0123996,2.0123996 0 0 1 -2.0124,-2.012399 2.0123996,2.0123996 0 0 1 2.0124,-2.0124 z"
       inkscape:connector-curvature="0"
       style="fill:#848484;stroke-width:1.00619984" />
    <path
       inkscape:connector-curvature="0"
       id="path4600"
       d="M -15.21675,19.800285 V 9.089348 l -23.14258,16.021484 c 0.18838,0.01907 0.35135,0.109375 0.54492,0.109375 h 17.05274 c 3.03383,0 5.4588,-2.40767 5.54492,-5.419922 z"
       style="opacity:1;fill:#6a6a6a;fill-opacity:1;fill-rule:evenodd;stroke:none;stroke-width:1.03534329;stroke-linecap:round;stroke-linejoin:bevel;stroke-miterlimit:4;stroke-dasharray:none;stroke-dashoffset:0;stroke-opacity:1" />
    <path
       inkscape:connector-curvature="0"
       id="path4603"
       d="M -29.30269,18.841301 -43.38863,9.089348 v 10.55664 c 0,2.895077 2.2119,5.17964 5.0293,5.464844 z"
       style="opacity:1;fill:#4f4f4f;fill-opacity:1;fill-rule:evenodd;stroke:none;stroke-width:1.03534329;stroke-linecap:round;stroke-linejoin:bevel;stroke-miterlimit:4;stroke-dasharray:none;stroke-dashoffset:0;stroke-opacity:1" />
  </g>
</svg>
