<?xml version="1.0" encoding="UTF-8" standalone="no"?>
<svg
   xmlns:dc="http://purl.org/dc/elements/1.1/"
   xmlns:cc="http://creativecommons.org/ns#"
   xmlns:rdf="http://www.w3.org/1999/02/22-rdf-syntax-ns#"
   xmlns:svg="http://www.w3.org/2000/svg"
   xmlns="http://www.w3.org/2000/svg"
   xmlns:sodipodi="http://sodipodi.sourceforge.net/DTD/sodipodi-0.dtd"
   xmlns:inkscape="http://www.inkscape.org/namespaces/inkscape"
   height="32"
   width="32"
   version="1"
   id="svg12"
   sodipodi:docname="pdf2png.svg"
   inkscape:version="0.92.1 r">
  <metadata
     id="metadata18">
    <rdf:RDF>
      <cc:Work
         rdf:about="">
        <dc:format>image/svg+xml</dc:format>
        <dc:type
           rdf:resource="http://purl.org/dc/dcmitype/StillImage" />
        <dc:title></dc:title>
      </cc:Work>
    </rdf:RDF>
  </metadata>
  <defs
     id="defs16" />
  <sodipodi:namedview
     pagecolor="#ffffff"
     bordercolor="#666666"
     borderopacity="1"
     objecttolerance="10"
     gridtolerance="10"
     guidetolerance="10"
     inkscape:pageopacity="0"
     inkscape:pageshadow="2"
     inkscape:window-width="1680"
     inkscape:window-height="966"
     id="namedview14"
     showgrid="false"
     inkscape:zoom="10.429825"
     inkscape:cx="25.375047"
     inkscape:cy="11.102508"
     inkscape:window-x="0"
     inkscape:window-y="0"
     inkscape:window-maximized="1"
     inkscape:current-layer="svg12"
     showguides="false"
     inkscape:guide-bbox="true">
    <sodipodi:guide
       position="-66.033898,41.762712"
       orientation="1,0"
       id="guide4517"
       inkscape:locked="false" />
    <sodipodi:guide
       position="-51.932203,-5.1525424"
       orientation="0,1"
       id="guide4563"
       inkscape:locked="false" />
    <sodipodi:guide
       position="-68.338983,-9.6271186"
       orientation="1,0"
       id="guide4565"
       inkscape:locked="false" />
    <sodipodi:guide
       position="-63.5815,-5.1525372"
       orientation="1,0"
       id="guide4567"
       inkscape:locked="false" />
  </sodipodi:namedview>
  <rect
     style="opacity:1;fill:#6787c3;fill-opacity:1;fill-rule:evenodd;stroke:none;stroke-width:1.03534329;stroke-linecap:round;stroke-linejoin:bevel;stroke-miterlimit:4;stroke-dasharray:none;stroke-dashoffset:0;stroke-opacity:1"
     id="rect4497-3"
     width="28.203388"
     height="28.203388"
     x="1.8983059"
     y="1.7627127"
     ry="5.575182" />
  <path
     inkscape:connector-curvature="0"
     style="opacity:1;fill:#d51f33;fill-opacity:1;fill-rule:evenodd;stroke:none;stroke-width:1.03534329;stroke-linecap:round;stroke-linejoin:bevel;stroke-miterlimit:4;stroke-dasharray:none;stroke-dashoffset:0;stroke-opacity:1"
     d="M 28.470704,28.47168 3.529297,3.528321 C 3.528915,3.528703 3.4497954,3.4680137 3.4493954,3.4683967 2.3864584,4.4780829 1.898391,5.9417633 1.898391,7.473633 v 17.052734 c 0,3.088651 2.487521,5.576172 5.576172,5.576172 h 17.052734 c 1.54374,0 2.935735,-0.62382 3.94336,-1.630859 z"
     id="path4659"
     sodipodi:nodetypes="cccsssscc" />
  <path
     inkscape:connector-curvature="0"
     style="opacity:1;fill:#6787c3;fill-opacity:1;fill-rule:evenodd;stroke:none;stroke-width:1.03534329;stroke-linecap:round;stroke-linejoin:bevel;stroke-miterlimit:4;stroke-dasharray:none;stroke-dashoffset:0;stroke-opacity:1"
     d="m 28.472657,28.47168 c 1.007714,-1.007714 1.628906,-2.400987 1.628906,-3.945313 V 7.473633 c 0,-3.088651 -2.485568,-5.576172 -5.574219,-5.576172 H 7.47461 c -1.54374,0 -2.937688,0.62382 -3.945313,1.63086 L 28.470704,28.47168 c 3.82e-4,-3.82e-4 0.0016,3.82e-4 0.002,0 z"
     id="rect4497-3-1" />
  <path
     style="fill:#ffffff;fill-opacity:1;stroke-width:0.04007774"
     d="m 22.668393,8.353009 c 2.562469,2.56452 4.659038,4.678294 4.659038,4.697275 0,0.04218 -9.306041,9.352457 -9.348197,9.352457 -0.01643,0 -0.02999,-1.388695 -0.02999,-3.085988 v -3.085989 l -0.490951,2.05e-4 c -4.140724,0.0017 -6.985178,1.242477 -8.191713,3.573676 -0.746627,1.442598 -0.885746,3.361502 -0.390957,5.392617 0.219427,0.900727 0.69231,2.177183 1.102769,2.976673 0.193686,0.377258 0.240691,0.480933 0.21807,0.480933 -0.04657,0 -0.896159,-1.044752 -1.218408,-1.49831 -0.198722,-0.279702 -0.767702,-1.140532 -0.767702,-1.161492 0,-0.0077 -0.09294,-0.174307 -0.206556,-0.370335 C 6.963523,23.829649 6.312694,21.604099 6.223586,19.537182 6.125316,17.258097 6.82261,15.038021 8.160118,13.371514 8.515426,12.928804 8.681371,12.757305 9.158787,12.33941 11.097412,10.642504 13.9157,9.742013 17.29798,9.738791 l 0.651264,-4.23e-4 V 6.712497 c 0,-1.66423 0.01366,-3.025013 0.03007,-3.023968 0.01644,8.5e-4 2.126623,2.100154 4.689096,4.664675 z"
     id="path4639"
     inkscape:connector-curvature="0" />
  <text
     xml:space="preserve"
     style="font-style:normal;font-weight:normal;font-size:4.49621248px;line-height:1.25;font-family:sans-serif;letter-spacing:0px;word-spacing:0px;fill:#6787c3;fill-opacity:1;stroke:none;stroke-width:0.11240531"
     x="12.895439"
     y="14.850323"
     id="text4526-6-2"><tspan
       sodipodi:role="line"
       id="tspan4524-7-9"
       x="12.895439"
       y="14.850323"
       style="font-style:normal;font-variant:normal;font-weight:bold;font-stretch:normal;font-family:sans-serif;-inkscape-font-specification:'sans-serif Bold';fill:#6787c3;fill-opacity:1;stroke-width:0.11240531">PNG</tspan></text>
  <text
     xml:space="preserve"
     style="font-style:normal;font-weight:normal;font-size:6.06001902px;line-height:1.25;font-family:sans-serif;letter-spacing:0px;word-spacing:0px;fill:#ffffff;fill-opacity:1;stroke:none;stroke-width:0.15150049"
     x="10.02634"
     y="28.57848"
     id="text4526-5"><tspan
       sodipodi:role="line"
       id="tspan4524-6"
       x="10.02634"
       y="28.57848"
       style="font-style:normal;font-variant:normal;font-weight:bold;font-stretch:normal;font-family:sans-serif;-inkscape-font-specification:'sans-serif Bold';fill:#ffffff;stroke-width:0.15150049">PDF</tspan></text>
</svg>
