<?xml version="1.0" encoding="UTF-8" standalone="no"?>
<svg
   xmlns:dc="http://purl.org/dc/elements/1.1/"
   xmlns:cc="http://creativecommons.org/ns#"
   xmlns:rdf="http://www.w3.org/1999/02/22-rdf-syntax-ns#"
   xmlns:svg="http://www.w3.org/2000/svg"
   xmlns="http://www.w3.org/2000/svg"
   xmlns:sodipodi="http://sodipodi.sourceforge.net/DTD/sodipodi-0.dtd"
   xmlns:inkscape="http://www.inkscape.org/namespaces/inkscape"
   height="32"
   width="32"
   version="1"
   id="svg18"
   sodipodi:docname="popcorntime.svg"
   inkscape:version="0.92.1 r">
  <metadata
     id="metadata24">
    <rdf:RDF>
      <cc:Work
         rdf:about="">
        <dc:format>image/svg+xml</dc:format>
        <dc:type
           rdf:resource="http://purl.org/dc/dcmitype/StillImage" />
      </cc:Work>
    </rdf:RDF>
  </metadata>
  <defs
     id="defs22" />
  <sodipodi:namedview
     pagecolor="#ffffff"
     bordercolor="#666666"
     borderopacity="1"
     objecttolerance="10"
     gridtolerance="10"
     guidetolerance="10"
     inkscape:pageopacity="0"
     inkscape:pageshadow="2"
     inkscape:window-width="640"
     inkscape:window-height="480"
     id="namedview20"
     showgrid="false"
     inkscape:zoom="9.5"
     inkscape:cx="-4.1052632"
     inkscape:cy="16"
     inkscape:current-layer="svg18" />
  <rect
     style="opacity:1;fill:#ff3939;fill-opacity:1;fill-rule:evenodd;stroke:none;stroke-width:1.03534329;stroke-linecap:round;stroke-linejoin:bevel;stroke-miterlimit:4;stroke-dasharray:none;stroke-dashoffset:0;stroke-opacity:1"
     id="rect4497-3"
     width="28.203388"
     height="28.203388"
     x="1.8983059"
     y="1.8983059"
     ry="5.575182"
     inkscape:export-filename="/home/ramil/3.png"
     inkscape:export-xdpi="71"
     inkscape:export-ydpi="71" />
  <g
     id="g4541"
     transform="translate(33.052674,5.3679318)">
    <path
       style="fill:#ffe9b5;stroke-width:1"
       inkscape:connector-curvature="0"
       id="path2"
       d="m -15.02563,11.377667 c 3.497797,-0.117247 5.6183284,-0.482396 5.8046674,-0.999393 0.03835,-0.106515 0.0283,-0.133252 -0.08599,-0.229167 l -0.129414,-0.108748 0.108399,-0.06849 c 0.05962,-0.03784 0.204012,-0.154779 0.320864,-0.260185 0.772986,-0.697419 0.596317,-1.95792 -0.358193,-2.555555 -0.128344,-0.0804 -0.223328,-0.16862 -0.211092,-0.196164 0.427789,-0.961861 0.514562,-1.315541 0.542191,-2.209474 0.023908,-0.7737816 -0.026907,-1.1655671 -0.229926,-1.7726625 -0.568401,-1.6989212 -2.1092094,-3.14892465 -3.9477884,-3.71437875 -0.694798,-0.21379 -1.039871,-0.26389155 -1.812213,-0.2633409 -0.645503,4.964e-4 -0.770451,0.013027 -1.167664,0.1161306 -1.697448,0.4409564 -2.874495,1.4297644 -3.869391,3.25058535 -0.125288,0.2293532 -0.234129,0.4169487 -0.241868,0.4169487 -0.0078,0 -0.198328,-0.17798 -0.423525,-0.3955464 -0.629661,-0.6084137 -1.179218,-0.8773379 -1.876343,-0.9185915 -0.47744,-0.028536 -0.788006,0.035981 -1.238074,0.2558191 -0.660756,0.3228175 -1.196743,0.9970664 -1.372381,1.7263719 -0.190992,0.7933572 0.05358,1.6919424 0.653467,2.4009314 l 0.167752,0.198203 -0.12394,0.08393 c -0.308092,0.20851 -0.747451,0.696179 -0.891296,0.989235 -0.28976,0.59047 -0.215488,1.307166 0.191357,1.846643 0.218342,0.289528 0.538313,0.515957 0.782966,0.554109 0.09204,0.01427 0.174398,0.03846 0.183028,0.05211 0.0086,0.01489 -0.0024,0.155896 -0.02456,0.314032 -0.05148,0.367816 0.01106,0.497471 0.325485,0.674838 1.070656,0.604056 4.852809,0.947981 8.923814,0.81158 z" />
    <path
       inkscape:connector-curvature="0"
       style="fill:#ffffff;stroke-width:1"
       id="path4"
       d="m -15.255937,22.173404 c 1.463884,-0.18958 2.763994,-0.598589 3.712751,-1.167974 0.335185,-0.201119 0.947283,-0.677002 1.002959,-0.779787 0.02372,-0.04405 0.322384,-2.303535 0.6636964,-5.021856 0.641936,-5.112582 0.659957,-5.3135001 0.479441,-5.3471541 -0.03796,-0.0068 -0.09343,0.03226 -0.12328,0.08722 -0.225367,0.4157001 -1.5222754,0.7286771 -3.8655904,0.9327821 -1.0636,0.09262 -4.574734,0.130771 -5.909274,0.06414 -2.804628,-0.138805 -4.6118,-0.42727 -5.272246,-0.840582 -0.116395,-0.07289 -0.223949,-0.1201941 -0.238992,-0.1054601 -0.01508,0.01489 0.255415,2.3098161 0.601093,5.0999421 l 0.628513,5.072803 0.163037,0.167123 c 0.209146,0.214395 0.853299,0.641394 1.309881,0.868266 1.052821,0.523021 2.562223,0.905253 4.090857,1.035683 0.629157,0.05336 2.114482,0.0186 2.75748,-0.06414 z" />
    <path
       style="fill:#1b1b1b;stroke-width:1"
       inkscape:connector-curvature="0"
       id="path6"
       d="m -11.62453,5.5913009 a 1.1631666,1.1631666 0 0 1 -1.163167,1.163167 1.1631666,1.1631666 0 0 1 -1.163167,-1.163167 1.1631666,1.1631666 0 0 1 1.163167,-1.1631666 1.1631666,1.1631666 0 0 1 1.163167,1.1631666 z" />
    <path
       style="fill:#952525;stroke-width:1"
       inkscape:connector-curvature="0"
       id="path8"
       d="m -14.726308,8.3053559 c 0,0.856556 -1.041499,1.550889 -2.326333,1.550889 -1.284834,0 -2.326334,-0.694333 -2.326334,-1.550889 2.388757,0.246072 4.652667,0 4.652667,0 z" />
    <path
       style="fill:#1b1b1b;stroke-width:1"
       inkscape:connector-curvature="0"
       id="path10"
       d="m -20.154419,5.5913009 a 1.1631666,1.1631666 0 0 1 -1.163167,1.163167 1.1631666,1.1631666 0 0 1 -1.163166,-1.163167 1.1631666,1.1631666 0 0 1 1.163166,-1.1631666 1.1631666,1.1631666 0 0 1 1.163167,1.1631666 z" />
    <path
       inkscape:connector-curvature="0"
       style="fill:#ff3939;fill-opacity:1;stroke-width:1"
       id="path14"
       d="m -10.900265,11.466068 a 8.5298885,2.3263332 0 0 1 -2.356653,0.474052 l -0.574008,9.181262 c 0.87602,-0.218993 1.663716,-0.514073 2.288492,-0.889047 0.02726,-0.01636 0.06796,-0.05002 0.09844,-0.06967 l 0.543719,-8.696609 z m -12.303976,0.0016 0.540693,8.631471 c 0.191016,0.119504 0.389289,0.243645 0.560383,0.328657 0.515639,0.256168 1.143238,0.477193 1.826559,0.652769 l -0.571502,-9.141714 a 8.5298885,2.3263332 0 0 1 -2.356265,-0.47147 z m 4.600711,0.676187 v 9.245624 c 0.197118,0.02523 0.39194,0.05725 0.590671,0.07421 0.573054,0.0486 1.80097,0.01882 2.511122,-0.04847 v -9.270438 a 8.5298885,2.3263332 0 0 1 -1.550889,0.03938 8.5298885,2.3263332 0 0 1 -1.550889,-0.04089 z" />
  </g>
</svg>
