<?xml version="1.0" encoding="UTF-8" standalone="no"?>
<svg
   xmlns:dc="http://purl.org/dc/elements/1.1/"
   xmlns:cc="http://creativecommons.org/ns#"
   xmlns:rdf="http://www.w3.org/1999/02/22-rdf-syntax-ns#"
   xmlns:svg="http://www.w3.org/2000/svg"
   xmlns="http://www.w3.org/2000/svg"
   xmlns:sodipodi="http://sodipodi.sourceforge.net/DTD/sodipodi-0.dtd"
   xmlns:inkscape="http://www.inkscape.org/namespaces/inkscape"
   height="32"
   width="32"
   version="1"
   id="svg12"
   sodipodi:docname="preferences-system-network-connection.svg"
   inkscape:version="0.92.1 r">
  <metadata
     id="metadata18">
    <rdf:RDF>
      <cc:Work
         rdf:about="">
        <dc:format>image/svg+xml</dc:format>
        <dc:type
           rdf:resource="http://purl.org/dc/dcmitype/StillImage" />
        <dc:title />
      </cc:Work>
    </rdf:RDF>
  </metadata>
  <defs
     id="defs16" />
  <sodipodi:namedview
     pagecolor="#ffffff"
     bordercolor="#666666"
     borderopacity="1"
     objecttolerance="10"
     gridtolerance="10"
     guidetolerance="10"
     inkscape:pageopacity="0"
     inkscape:pageshadow="2"
     inkscape:window-width="1680"
     inkscape:window-height="965"
     id="namedview14"
     showgrid="false"
     inkscape:zoom="10.429825"
     inkscape:cx="10.258415"
     inkscape:cy="14.056546"
     inkscape:window-x="0"
     inkscape:window-y="0"
     inkscape:window-maximized="1"
     inkscape:current-layer="svg12" />
  <flowRoot
     xml:space="preserve"
     id="flowRoot4515"
     style="fill:black;fill-opacity:1;stroke:none;font-family:sans-serif;font-style:normal;font-weight:normal;font-size:40px;line-height:1.25;letter-spacing:0px;word-spacing:0px"><flowRegion
       id="flowRegion4517"><rect
         id="rect4519"
         width="477.28815"
         height="225.62712"
         x="-726.77966"
         y="-237.01695" /></flowRegion><flowPara
       id="flowPara4521" /></flowRoot>  <rect
     style="opacity:1;fill:#5f7c8a;fill-opacity:1;fill-rule:evenodd;stroke:none;stroke-width:1.03534329;stroke-linecap:round;stroke-linejoin:bevel;stroke-miterlimit:4;stroke-dasharray:none;stroke-dashoffset:0;stroke-opacity:1"
     id="rect4497-3-3"
     width="28.203388"
     height="28.203388"
     x="1.8983057"
     y="1.8983059"
     ry="5.575182" />
  <path
     inkscape:connector-curvature="0"
     style="fill:#112938;fill-opacity:1;stroke-width:1"
     d="m 15.509557,22.038592 v 0.501373 0.734747 l -1.640039,0.0141 c -1.747935,0.01556 -1.695795,0.01003 -2.05678,0.207729 -0.161513,0.08845 -0.400609,0.296903 -0.480856,0.419307 l -0.06796,0.103864 -1.7156934,0.01924 -1.7169755,0.01924 -0.1666971,0.114123 c -0.483914,0.328923 -0.4341564,1.036608 0.08976,1.274588 0.1411602,0.06413 0.285104,0.06974 1.8298169,0.07053 h 1.6772241 l 0.05642,0.110276 c 0.123539,0.238899 0.581672,0.53786 0.93222,0.607802 0.09319,0.01859 1.936838,0.03021 4.112278,0.02693 l 3.943017,-0.0051 0.209012,-0.08591 c 0.291902,-0.12067 0.489187,-0.266396 0.643706,-0.474444 l 0.133357,-0.17952 h 1.629781 c 1.004508,-1.31e-4 1.683957,-0.01563 1.770831,-0.03975 0.293669,-0.08156 0.522117,-0.387318 0.520607,-0.698844 -0.0015,-0.319456 -0.234121,-0.610432 -0.56164,-0.701408 -0.08193,-0.02276 -0.786067,-0.03835 -1.749032,-0.03847 h -1.611829 l -0.151309,-0.19106 c -0.168359,-0.213401 -0.39809,-0.37378 -0.682174,-0.477008 -0.169704,-0.06167 -0.359626,-0.07037 -1.810583,-0.08207 l -1.620804,-0.01282 v -0.734761 -0.502655 z"
     id="path4526-7" />
  <path
     style="fill:#8fa9ff;fill-opacity:1;stroke:none;stroke-width:0.14515875;stroke-miterlimit:4;stroke-dasharray:none;stroke-opacity:1"
     d="m 23.802648,7.8930761 c 0.767307,-4.851e-4 1.385031,0.6177237 1.385031,1.3850321 V 20.839914 c 0,0.767308 -0.617724,1.385031 -1.385031,1.385031 H 8.1724394 c -0.7673077,0 -1.3850661,-0.617723 -1.3850313,-1.385031 l 4.799e-4,-10.66498 4.799e-4,-3.3265692 c 0,-0.6156897 0.4956639,-1.1113536 1.1113536,-1.1113536 h 5.9683825 c 0.61569,0 1.119275,0.2437828 1.509942,0.7196549 l 1.182975,1.440988 z"
     id="rect4549-3-5"
     inkscape:connector-curvature="0"
     sodipodi:nodetypes="sssssscsssscs" />
  <g
     id="g4590"
     transform="matrix(0.4443156,0,0,0.4443156,24.255024,12.355958)"
     style="stroke-width:2.25065255">
    <path
       id="path16"
       d="m -20.087212,-2.610477 c 2.031341,0 3.677967,1.64674803 3.677967,3.677966 0,2.031218 -1.646626,3.677966 -3.677967,3.677966 -2.031341,0 -3.677966,-1.646748 -3.677966,-3.677966 0,-2.03121797 1.646625,-3.677966 3.677966,-3.677966 z"
       inkscape:connector-curvature="0"
       style="fill:#1d344f;fill-opacity:1;stroke-width:2.75927448" />
    <path
       id="path18"
       d="m -20.087212,6.789178 c 7.355933,-0.0037 7.355933,4.903955 7.355933,4.903955 v 1.225168 h -14.711864 v -1.225168 c 0,0 0,-4.900644 7.356176,-4.904813 z"
       inkscape:connector-curvature="0"
       style="fill:#1d344f;fill-opacity:1;stroke-width:2.75927448" />
    <path
       id="path20"
       d="m -12.799075,0.77935403 c 1.105,0 2,0.89499997 2,1.99999997 0,1.105 -0.895,2 -2,2 -1.105,0 -2,-0.895 -2,-2 0,-1.1045 0.89543,-1.99999997 2,-1.99999997 z"
       inkscape:connector-curvature="0"
       style="fill:#1d344f;fill-opacity:1;stroke-width:2.25065255" />
    <path
       id="path22"
       d="m -12.799075,5.779354 c 3.9999996,-0.002 3.9999996,3.201 3.9999996,3.201 v 0.799 h -7.9999996 v -0.79946 c 0,0 0,-3.1979 4.0002,-3.2005 z"
       inkscape:connector-curvature="0"
       style="fill:#1d344f;fill-opacity:1;stroke-width:2.25065255" />
  </g>
</svg>
