<?xml version="1.0" encoding="UTF-8" standalone="no"?>
<svg
   xmlns:dc="http://purl.org/dc/elements/1.1/"
   xmlns:cc="http://creativecommons.org/ns#"
   xmlns:rdf="http://www.w3.org/1999/02/22-rdf-syntax-ns#"
   xmlns:svg="http://www.w3.org/2000/svg"
   xmlns="http://www.w3.org/2000/svg"
   xmlns:sodipodi="http://sodipodi.sourceforge.net/DTD/sodipodi-0.dtd"
   xmlns:inkscape="http://www.inkscape.org/namespaces/inkscape"
   height="32"
   width="32"
   version="1"
   id="svg8"
   sodipodi:docname="preferences-web-browser-cookies.svg"
   inkscape:version="0.92.1 r">
  <metadata
     id="metadata14">
    <rdf:RDF>
      <cc:Work
         rdf:about="">
        <dc:format>image/svg+xml</dc:format>
        <dc:type
           rdf:resource="http://purl.org/dc/dcmitype/StillImage" />
      </cc:Work>
    </rdf:RDF>
  </metadata>
  <defs
     id="defs12" />
  <sodipodi:namedview
     pagecolor="#ffffff"
     bordercolor="#666666"
     borderopacity="1"
     objecttolerance="10"
     gridtolerance="10"
     guidetolerance="10"
     inkscape:pageopacity="0"
     inkscape:pageshadow="2"
     inkscape:window-width="1680"
     inkscape:window-height="963"
     id="namedview10"
     showgrid="false"
     inkscape:zoom="7.375"
     inkscape:cx="-8.6779661"
     inkscape:cy="16"
     inkscape:window-x="0"
     inkscape:window-y="0"
     inkscape:window-maximized="1"
     inkscape:current-layer="svg8" />
  <g
     id="g4532"
     transform="translate(45.966796,-7.1865217)">
    <path
       id="path4528"
       d="m -18.742188,9.875 a 14.033665,13.972264 0 0 1 -0.349609,0.816406 14.033665,13.972264 0 0 1 -0.675781,1.22461 14.033665,13.972264 0 0 1 -0.794922,1.148437 14.033665,13.972264 0 0 1 -0.908203,1.066406 14.033665,13.972264 0 0 1 -1.009766,0.970703 14.033665,13.972264 0 0 1 -1.099609,0.863282 14.033665,13.972264 0 0 1 -1.183594,0.751953 14.033665,13.972264 0 0 1 -1.251953,0.628906 14.033665,13.972264 0 0 1 -1.308594,0.501953 14.033665,13.972264 0 0 1 -1.353515,0.371094 14.033665,13.972264 0 0 1 -0.94336,0.173828 14.033665,13.972264 0 0 1 0.158203,1.386719 14.033665,13.972264 0 0 1 0.0293,0.832031 14.033665,13.972264 0 0 1 -0.07227,1.394531 14.033665,13.972264 0 0 1 -0.208985,1.38086 14.033665,13.972264 0 0 1 -0.347656,1.353515 14.033665,13.972264 0 0 1 -0.482422,1.3125 14.033665,13.972264 0 0 1 -0.609375,1.257813 14.033665,13.972264 0 0 1 -0.734375,1.189453 14.033665,13.972264 0 0 1 -0.849609,1.111328 14.033665,13.972264 0 0 1 -0.957031,1.021484 14.033665,13.972264 0 0 1 -1.054688,0.921876 14.033665,13.972264 0 0 1 -1.140625,0.810546 14.033665,13.972264 0 0 1 -1.216797,0.695313 14.033665,13.972264 0 0 1 -1.28125,0.570312 14.033665,13.972264 0 0 1 -1.332031,0.439453 14.033665,13.972264 0 0 1 -1.369141,0.304688 14.033665,13.972264 0 0 1 -1.392578,0.167969 14.033665,13.972264 0 0 1 -0.6875,0.02734 c 0.978237,1.597895 2.659302,2.71875 4.677734,2.71875 h 17.052735 c 3.088651,0 5.574219,-2.487521 5.574219,-5.576171 V 14.660156 c 0,-2.088147 -1.186213,-3.829741 -2.876954,-4.785156 z"
       style="opacity:1;fill:#dfbe57;fill-opacity:1;fill-rule:evenodd;stroke:none;stroke-width:1.03534329;stroke-linecap:round;stroke-linejoin:bevel;stroke-miterlimit:4;stroke-dasharray:none;stroke-dashoffset:0;stroke-opacity:1"
       inkscape:connector-curvature="0" />
    <path
       id="rect4497-3"
       d="m -38.492188,9.0839844 c -3.08865,0 -5.576171,2.4875206 -5.576171,5.5761716 v 17.052735 c 0,1.070218 0.379754,2.010182 0.898437,2.857421 a 14.033665,13.972264 0 0 0 0.6875,-0.02734 14.033665,13.972264 0 0 0 1.392578,-0.167969 14.033665,13.972264 0 0 0 1.369141,-0.304688 14.033665,13.972264 0 0 0 1.332031,-0.439453 14.033665,13.972264 0 0 0 1.28125,-0.570312 14.033665,13.972264 0 0 0 1.216797,-0.695313 14.033665,13.972264 0 0 0 1.140625,-0.810546 14.033665,13.972264 0 0 0 1.054688,-0.921876 14.033665,13.972264 0 0 0 0.957031,-1.021484 14.033665,13.972264 0 0 0 0.849609,-1.111328 14.033665,13.972264 0 0 0 0.734375,-1.189453 14.033665,13.972264 0 0 0 0.609375,-1.257813 14.033665,13.972264 0 0 0 0.482422,-1.3125 14.033665,13.972264 0 0 0 0.347656,-1.353515 14.033665,13.972264 0 0 0 0.208985,-1.38086 14.033665,13.972264 0 0 0 0.07227,-1.394531 14.033665,13.972264 0 0 0 -0.0293,-0.832031 14.033665,13.972264 0 0 0 -0.158203,-1.386719 14.033665,13.972264 0 0 0 0.94336,-0.173828 14.033665,13.972264 0 0 0 1.353515,-0.371094 14.033665,13.972264 0 0 0 1.308594,-0.501953 14.033665,13.972264 0 0 0 1.251953,-0.628906 14.033665,13.972264 0 0 0 1.183594,-0.751953 14.033665,13.972264 0 0 0 1.099609,-0.863282 14.033665,13.972264 0 0 0 1.009766,-0.970703 14.033665,13.972264 0 0 0 0.908203,-1.066406 14.033665,13.972264 0 0 0 0.794922,-1.148437 14.033665,13.972264 0 0 0 0.675781,-1.22461 A 14.033665,13.972264 0 0 0 -18.742188,9.875 C -19.552279,9.4172277 -20.43895,9.0839844 -21.439453,9.0839844 Z"
       style="opacity:1;fill:#858585;fill-opacity:1;fill-rule:evenodd;stroke:none;stroke-width:1.03534329;stroke-linecap:round;stroke-linejoin:bevel;stroke-miterlimit:4;stroke-dasharray:none;stroke-dashoffset:0;stroke-opacity:1"
       inkscape:connector-curvature="0" />
  </g>
</svg>
