<?xml version="1.0" encoding="UTF-8" standalone="no"?>
<svg
   xmlns:dc="http://purl.org/dc/elements/1.1/"
   xmlns:cc="http://creativecommons.org/ns#"
   xmlns:rdf="http://www.w3.org/1999/02/22-rdf-syntax-ns#"
   xmlns:svg="http://www.w3.org/2000/svg"
   xmlns="http://www.w3.org/2000/svg"
   xmlns:sodipodi="http://sodipodi.sourceforge.net/DTD/sodipodi-0.dtd"
   xmlns:inkscape="http://www.inkscape.org/namespaces/inkscape"
   height="32"
   width="32"
   version="1"
   id="svg18"
   sodipodi:docname="preferences-system-windows-actions.svg.svg"
   inkscape:version="0.92.2 2405546, 2018-03-11">
  <metadata
     id="metadata24">
    <rdf:RDF>
      <cc:Work
         rdf:about="">
        <dc:format>image/svg+xml</dc:format>
        <dc:type
           rdf:resource="http://purl.org/dc/dcmitype/StillImage" />
        <dc:title></dc:title>
      </cc:Work>
    </rdf:RDF>
  </metadata>
  <defs
     id="defs22" />
  <sodipodi:namedview
     pagecolor="#ffffff"
     bordercolor="#666666"
     borderopacity="1"
     objecttolerance="10"
     gridtolerance="10"
     guidetolerance="10"
     inkscape:pageopacity="0"
     inkscape:pageshadow="2"
     inkscape:window-width="1680"
     inkscape:window-height="972"
     id="namedview20"
     showgrid="false"
     inkscape:zoom="10.429825"
     inkscape:cx="31.196664"
     inkscape:cy="22.148398"
     inkscape:window-x="0"
     inkscape:window-y="0"
     inkscape:window-maximized="1"
     inkscape:current-layer="svg18" />
  <rect
     style="opacity:1;fill:#81d35f;fill-opacity:1;fill-rule:evenodd;stroke:none;stroke-width:1.03534329;stroke-linecap:round;stroke-linejoin:bevel;stroke-miterlimit:4;stroke-dasharray:none;stroke-dashoffset:0;stroke-opacity:1"
     id="rect4497"
     width="28.203388"
     height="28.203388"
     x="1.898306"
     y="1.8983059"
     ry="5.575182" />
  <path
     style="fill:#ffffff;stroke-width:0.02173974"
     d="m 14.594969,27.133858 c -0.114708,-0.05293 -0.143768,-0.08796 -0.380979,-0.458925 -0.520225,-0.813574 -0.503141,-0.79141 -0.68427,-0.88782 l -0.108686,-0.05786 -0.69132,-0.0068 c -0.765707,-0.0075 -0.822252,-1.52e-4 -0.977852,0.128112 -0.04444,0.03662 -0.251547,0.318853 -0.460258,0.627164 -0.366029,0.54072 -0.3833,0.562219 -0.487771,0.607166 -0.193808,0.08337 -0.07574,0.123254 -1.70374,-0.575667 -0.260164,-0.111679 -0.497143,-0.218885 -0.526638,-0.238209 -0.02947,-0.01932 -0.08016,-0.08925 -0.112512,-0.155387 -0.06936,-0.141815 -0.07621,-0.08435 0.112512,-0.949955 0.135905,-0.623312 0.137947,-0.67178 0.03618,-0.859912 -0.0841,-0.155623 -0.954224,-1.033488 -1.075689,-1.085313 -0.178275,-0.07606 -0.212423,-0.07374 -0.9257,0.06293 -0.404678,0.07753 -0.704141,0.124927 -0.738485,0.116856 C 5.770821,23.376968 5.66105,23.305908 5.612253,23.23349 5.586493,23.19527 5.392649,22.733548 5.181491,22.207448 4.827571,21.325684 4.798237,21.24225 4.806264,21.140267 c 0.01565,-0.199721 0.0515,-0.23335 0.670246,-0.630304 0.310203,-0.198988 0.589935,-0.392495 0.621659,-0.430012 0.03166,-0.03752 0.07818,-0.112246 0.103113,-0.166045 0.04327,-0.09313 0.04547,-0.132842 0.04547,-0.826109 0,-0.703414 -0.0023,-0.731255 -0.04663,-0.815444 C 6.127972,18.137614 6.044997,18.069836 5.510181,17.708556 5.236573,17.523724 4.989815,17.350977 4.961816,17.324673 c -0.07168,-0.06737 -0.12528,-0.219594 -0.112049,-0.318279 0.0123,-0.09107 0.78213,-1.908959 0.852363,-2.012641 0.02458,-0.03624 0.08862,-0.08938 0.142447,-0.118121 0.129826,-0.06932 0.199432,-0.06226 0.888295,0.09011 0.313173,0.06927 0.604282,0.121858 0.673935,0.121735 0.223303,-4.18e-4 0.30235,-0.05546 0.830231,-0.578446 0.518532,-0.5137 0.567527,-0.582721 0.566958,-0.798584 -2.09e-4,-0.06157 -0.05486,-0.393035 -0.121522,-0.736607 -0.110651,-0.569978 -0.118995,-0.633579 -0.09558,-0.726293 0.05046,-0.200557 0.07806,-0.216003 1.14976,-0.643647 1.053916,-0.420557 1.08869,-0.429947 1.262941,-0.341049 0.07412,0.03779 0.129584,0.108605 0.353607,0.451099 0.146169,0.223449 0.314099,0.483391 0.373231,0.57765 0.116316,0.185435 0.183705,0.247932 0.343678,0.318694 0.09743,0.04312 0.143619,0.04594 0.814027,0.04957 l 0.710704,0.0038 0.108685,-0.05776 c 0.05973,-0.03178 0.134271,-0.08558 0.165518,-0.119567 0.03121,-0.034 0.22016,-0.303354 0.419813,-0.59857 0.328355,-0.485536 0.372327,-0.541283 0.460827,-0.584122 0.173857,-0.08417 0.224834,-0.06894 1.26735,0.378288 0.519135,0.222711 0.968004,0.427098 0.997464,0.454193 0.06786,0.06246 0.13369,0.203766 0.134259,0.288399 0,0.03587 -0.05823,0.337652 -0.129955,0.670625 -0.07342,0.340867 -0.130314,0.659096 -0.130199,0.728281 0,0.215672 0.05138,0.287653 0.589611,0.832816 0.428535,0.434038 0.499022,0.496663 0.593438,0.527189 0.05892,0.01904 0.147283,0.03464 0.196381,0.03464 0.04907,0 0.365625,-0.05381 0.703444,-0.119569 0.337819,-0.06577 0.640761,-0.119352 0.673216,-0.119092 0.08711,6.16e-4 0.226979,0.07109 0.289892,0.145874 0.03131,0.03716 0.222886,0.483462 0.442338,1.030294 0.429742,1.070826 0.43415,1.087857 0.328369,1.268331 -0.04767,0.08127 -0.12701,0.139688 -0.581562,0.427877 -0.289522,0.183566 -0.572004,0.378352 -0.627701,0.432854 -0.158175,0.154727 -0.168464,0.207652 -0.185816,0.955387 -0.01646,0.709971 -0.0059,0.799206 0.115759,0.966077 0.04024,0.05519 0.24904,0.210743 0.625577,0.465965 0.505239,0.342456 0.570426,0.393413 0.614155,0.480116 0.09244,0.183445 0.08814,0.198359 -0.364405,1.259816 -0.451873,1.059797 -0.461337,1.075973 -0.66207,1.132173 -0.08954,0.02507 -0.140881,0.01714 -0.757575,-0.116889 -0.363848,-0.07908 -0.684815,-0.143673 -0.713255,-0.143543 -0.127078,6.16e-4 -0.354778,0.09943 -0.434707,0.188728 -0.01948,0.02162 -0.227293,0.229636 -0.46208,0.462263 -0.368696,0.365291 -0.432803,0.438763 -0.470268,0.538872 -0.02389,0.06375 -0.04338,0.154447 -0.04338,0.201541 0,0.04709 0.05463,0.367114 0.121396,0.711159 0.07643,0.393674 0.11738,0.656333 0.110534,0.708615 -0.01484,0.112986 -0.10613,0.244384 -0.204802,0.294223 -0.04478,0.02266 -0.499569,0.208723 -1.010549,0.413482 -0.636517,0.255065 -0.954828,0.372143 -1.010908,0.371814 -0.045,-2.09e-4 -0.120977,-0.01854 -0.168789,-0.04061 z m -1.094872,-2.186439 c 1.046841,-0.138117 1.96715,-0.515208 2.811985,-1.152203 0.29669,-0.223715 0.782396,-0.694896 0.99802,-0.968212 0.652768,-0.82739 1.05836,-1.764302 1.223426,-2.826163 0.04883,-0.314079 0.05509,-1.206017 0.0104,-1.521784 -0.36227,-2.576506 -2.223128,-4.53521 -4.74965,-4.999398 -0.902179,-0.165757 -1.938142,-0.09033 -2.827168,0.205819 -2.980308,0.992826 -4.626481,4.125133 -3.75121,7.13774 0.264874,0.911638 0.787836,1.792471 1.468627,2.473667 0.974938,0.9755 2.250523,1.563669 3.649185,1.682613 0.28994,0.02466 0.853569,0.0091 1.166069,-0.03208 z M 12.344898,24.444082 C 11.101441,24.331096 9.921884,23.779385 9.051335,22.903593 8.074679,21.921068 7.518682,20.572301 7.518682,19.1856 c 0,-0.820473 0.184471,-1.595218 0.559047,-2.347889 0.799506,-1.606519 2.374124,-2.693328 4.175548,-2.881946 0.364498,-0.03815 1.076977,-0.01576 1.417743,0.04456 2.016561,0.357023 3.647573,1.8349 4.183631,3.790821 0.128714,0.469625 0.168419,0.752803 0.180317,1.285752 0.01276,0.571772 -0.02099,0.892549 -0.146367,1.390816 -0.09848,0.391689 -0.199943,0.672221 -0.369635,1.022292 -0.510275,1.052817 -1.358448,1.90507 -2.40225,2.413774 -0.528566,0.257604 -0.955455,0.394703 -1.532654,0.492229 -0.243069,0.04107 -0.995122,0.07025 -1.239164,0.04807 z m 0.84786,-2.431331 c 1.231383,-0.187011 2.170121,-1.09998 2.400883,-2.334974 0.04418,-0.236827 0.04418,-0.715005 0,-0.970452 -0.180352,-1.039671 -0.953365,-1.923259 -1.955111,-2.234776 -0.74949,-0.233074 -1.624017,-0.137339 -2.282676,0.249877 -1.244826,0.731846 -1.755459,2.258521 -1.197722,3.58097 0.50147,1.189027 1.767045,1.901883 3.034731,1.709355 z m 8.010017,-6.141494 c -0.418862,-0.01262 -0.469272,-0.02544 -0.540001,-0.137142 -0.01695,-0.02673 -0.06148,-0.234484 -0.09906,-0.461664 -0.07226,-0.437413 -0.116711,-0.5688 -0.216113,-0.639568 -0.07945,-0.05654 -0.792974,-0.366761 -0.882101,-0.383482 -0.117324,-0.02201 -0.204095,0.01729 -0.592593,0.268487 -0.51439,0.332578 -0.516129,0.332577 -0.838197,-8e-4 -0.129933,-0.134515 -0.362713,-0.378595 -0.51728,-0.542397 -0.280742,-0.297494 -0.281055,-0.297943 -0.281055,-0.403351 0,-0.09973 0.01427,-0.125879 0.260455,-0.475906 0.361864,-0.51457 0.355172,-0.467018 0.143061,-1.019091 -0.171768,-0.447026 -0.230077,-0.544228 -0.357457,-0.595762 -0.03131,-0.01267 -0.241512,-0.0625 -0.467112,-0.110778 -0.225625,-0.04824 -0.429128,-0.09785 -0.45228,-0.110246 -0.02309,-0.01238 -0.061,-0.05368 -0.08432,-0.09178 -0.03781,-0.06201 -0.04199,-0.109125 -0.04024,-0.449713 0.0023,-0.209244 0.0081,-0.544125 0.01635,-0.7441804 l 0.01427,-0.363734 0.06866,-0.06865 c 0.06553,-0.06554 0.08943,-0.07233 0.526395,-0.149565 0.532939,-0.0942 0.598485,-0.124318 0.686115,-0.315217 0.152282,-0.331725 0.303047,-0.689066 0.319355,-0.7569291 0.03155,-0.1309958 -0.0069,-0.220738 -0.255584,-0.6047192 C 17.487092,7.5193837 17.373388,7.3314651 17.36136,7.2974668 17.31509,7.1662372 17.35906,7.1033581 17.804521,6.6744782 18.431584,6.0698076 18.436607,6.0657653 18.5598,6.0657653 c 0.09708,0 0.125432,0.015682 0.471567,0.26137 0.368349,0.2614385 0.484524,0.3186538 0.600096,0.2955383 0.03351,-0.00672 0.239531,-0.081656 0.457962,-0.1665868 0.407762,-0.1585392 0.509207,-0.2211099 0.558235,-0.3442597 0.01252,-0.031317 0.06159,-0.2413466 0.109148,-0.4667436 0.04756,-0.2253981 0.101611,-0.43308 0.120294,-0.461516 0.01857,-0.028441 0.0653,-0.067969 0.103807,-0.087851 0.06286,-0.032521 0.140672,-0.034566 0.776134,-0.020386 0.514611,0.011479 0.721212,0.023508 0.761483,0.044336 0.117254,0.060628 0.130778,0.097083 0.21841,0.5884122 0.109032,0.6115162 0.07724,0.5696764 0.610731,0.8043792 0.22037,0.096956 0.43364,0.1828867 0.473934,0.1909445 0.121813,0.024358 0.220475,-0.019011 0.592023,-0.2602299 0.195687,-0.1270446 0.38556,-0.2393736 0.421937,-0.2496225 0.133618,-0.037639 0.192415,0.00289 0.562677,0.3879264 0.698952,0.7268458 0.66469,0.6853506 0.66469,0.8051815 0,0.1002005 -0.01369,0.1249974 -0.261359,0.4739731 -0.264804,0.3730733 -0.317881,0.4823794 -0.294579,0.6066197 0.0069,0.037627 0.08177,0.2439539 0.166132,0.4585069 0.157213,0.400065 0.220891,0.502177 0.343746,0.551228 0.03132,0.01251 0.242396,0.06228 0.469063,0.110605 0.226667,0.04833 0.434346,0.102431 0.461511,0.120239 0.02714,0.01779 0.06553,0.06363 0.08537,0.10183 0.03224,0.06232 0.03433,0.142225 0.02043,0.7769904 -0.01705,0.776634 -0.02063,0.797303 -0.15401,0.87302 -0.0355,0.02013 -0.25033,0.06801 -0.477506,0.106385 -0.428687,0.07242 -0.517965,0.09962 -0.594542,0.181133 -0.05267,0.05607 -0.38664,0.808469 -0.406973,0.916859 -0.02122,0.113367 0.02158,0.206494 0.274467,0.59657 0.129234,0.199349 0.237152,0.386292 0.239821,0.41543 0.01323,0.144469 -10e-4,0.176556 -0.137796,0.308416 -0.651016,0.62815 -0.916157,0.877206 -0.947242,0.889802 -0.02007,0.0081 -0.07633,0.01547 -0.124966,0.01631 -0.07899,0.0015 -0.126442,-0.02544 -0.444439,-0.251347 -0.405105,-0.287788 -0.472356,-0.322123 -0.596905,-0.304697 -0.09615,0.01343 -0.819259,0.291163 -0.905812,0.34787 -0.09558,0.06264 -0.1432,0.188215 -0.234194,0.61794 -0.04883,0.230509 -0.104859,0.443787 -0.124678,0.473949 -0.08224,0.125618 -0.133353,0.129695 -1.215351,0.09706 z m 0.979359,-2.34059 c 0.412715,-0.06847 0.870827,-0.257682 1.25002,-0.516344 0.196034,-0.133722 0.558167,-0.488487 0.712989,-0.698474 0.438,-0.594105 0.654878,-1.361983 0.590968,-2.092448 C 24.669991,9.4680806 24.372146,8.8293496 23.835647,8.2925631 23.229508,7.6860926 22.500525,7.3848346 21.638641,7.3846254 c -0.848036,-1.942e-4 -1.569653,0.3034 -2.18549,0.9194987 -0.598797,0.5990325 -0.898572,1.3242835 -0.898862,2.1747189 -1.86e-4,0.483634 0.08572,0.881525 0.280242,1.297731 0.332173,0.710844 0.936026,1.286008 1.653109,1.574578 0.539027,0.216917 1.106506,0.277035 1.694494,0.179515 z m -0.913083,-0.995516 c -0.797858,-0.154287 -1.415329,-0.726295 -1.645244,-1.524082 -0.0436,-0.151465 -0.04988,-0.220497 -0.04906,-0.543097 0,-0.339819 0.0057,-0.385191 0.06054,-0.5635184 0.221147,-0.719408 0.768468,-1.255496 1.481618,-1.4512183 0.14529,-0.039881 0.232943,-0.047916 0.532625,-0.048852 0.310411,-0.00103 0.382104,0.00555 0.532624,0.048493 0.731408,0.2087093 1.293854,0.7733113 1.494169,1.4998963 0.06959,0.2525124 0.06924,0.7902434 -8e-4,1.0463684 -0.100686,0.368683 -0.265186,0.656145 -0.531998,0.929942 -0.276926,0.284192 -0.591837,0.471348 -0.961416,0.571397 -0.222444,0.0602 -0.689315,0.07795 -0.913081,0.03467 z"
     id="path896"
     inkscape:connector-curvature="0" />
</svg>
