<?xml version="1.0" encoding="UTF-8" standalone="no"?>
<svg
   xmlns:dc="http://purl.org/dc/elements/1.1/"
   xmlns:cc="http://creativecommons.org/ns#"
   xmlns:rdf="http://www.w3.org/1999/02/22-rdf-syntax-ns#"
   xmlns:svg="http://www.w3.org/2000/svg"
   xmlns="http://www.w3.org/2000/svg"
   xmlns:sodipodi="http://sodipodi.sourceforge.net/DTD/sodipodi-0.dtd"
   xmlns:inkscape="http://www.inkscape.org/namespaces/inkscape"
   height="32"
   width="32"
   version="1"
   id="svg22"
   sodipodi:docname="cuckoo.svg"
   inkscape:version="0.92.1 r">
  <metadata
     id="metadata28">
    <rdf:RDF>
      <cc:Work
         rdf:about="">
        <dc:format>image/svg+xml</dc:format>
        <dc:type
           rdf:resource="http://purl.org/dc/dcmitype/StillImage" />
      </cc:Work>
    </rdf:RDF>
  </metadata>
  <defs
     id="defs26" />
  <sodipodi:namedview
     pagecolor="#ffffff"
     bordercolor="#666666"
     borderopacity="1"
     objecttolerance="10"
     gridtolerance="10"
     guidetolerance="10"
     inkscape:pageopacity="0"
     inkscape:pageshadow="2"
     inkscape:window-width="1680"
     inkscape:window-height="965"
     id="namedview24"
     showgrid="false"
     inkscape:zoom="10.429825"
     inkscape:cx="-14.306624"
     inkscape:cy="17.067126"
     inkscape:window-x="0"
     inkscape:window-y="0"
     inkscape:window-maximized="1"
     inkscape:current-layer="svg22" />
  <g
     id="g4552"
     transform="translate(69.695312,2.3046875)">
    <path
       id="path4543"
       d="M -41.222656,1.2226562 C -42.23037,0.21494211 -43.623643,-0.40625 -45.167969,-0.40625 h -17.052734 c -3.088651,0 -5.576172,2.4855679 -5.576172,5.5742188 V 22.220703 c 0,3.088651 2.487521,5.576172 5.576172,5.576172 h 8.525391 V 13.695312 Z"
       style="opacity:1;fill:#ebebeb;fill-opacity:1;fill-rule:evenodd;stroke:none;stroke-width:1.03534329;stroke-linecap:round;stroke-linejoin:bevel;stroke-miterlimit:4;stroke-dasharray:none;stroke-dashoffset:0;stroke-opacity:1"
       inkscape:connector-curvature="0" />
    <path
       id="rect4497-3"
       d="M -41.222656,1.2226562 -53.695312,13.695312 v 14.101563 h 8.527343 c 3.088651,0 5.574219,-2.487521 5.574219,-5.576172 V 5.1679688 c 0,-1.5443255 -0.621192,-2.9375984 -1.628906,-3.9453126 z"
       style="opacity:1;fill:#c4c4c4;fill-opacity:1;fill-rule:evenodd;stroke:none;stroke-width:1.03534329;stroke-linecap:round;stroke-linejoin:bevel;stroke-miterlimit:4;stroke-dasharray:none;stroke-dashoffset:0;stroke-opacity:1"
       inkscape:connector-curvature="0" />
    <path
       style="fill:#ebebeb;stroke-width:0.34375"
       inkscape:connector-curvature="0"
       d="m -53.69406,2.696634 c -3.047,0 -5.789094,1.2344063 -7.777344,3.2226563 -1.990312,1.986875 -3.224375,4.7299997 -3.224375,7.7756247 0,6.094 4.906,11 11,11 v -11 l 7.777344,-7.7773435 c -1.986875,-1.9903125 -4.73,-3.224375 -7.775625,-3.224375 z"
       id="path6-5" />
    <path
       style="fill:#5e5e5e;stroke-width:0.34375"
       inkscape:connector-curvature="0"
       d="m -46.13156,5.639134 -8.058188,7.563188 0.988282,0.988281 7.563187,-8.0581877 -0.49335,-0.49335 z"
       id="path10-5" />
    <path
       style="fill:none;stroke:#f34235;stroke-width:0.6875"
       inkscape:connector-curvature="0"
       d="m -53.69406,13.696634 v 11"
       id="path12-6" />
    <path
       style="fill:#3f3f3f;stroke-width:0.34375"
       inkscape:connector-curvature="0"
       d="m -58.943122,7.9456965 -0.494141,0.4941406 5.249062,5.7509379 0.988282,-0.988282 z"
       id="path14-2" />
    <circle
       style="fill:#3f3f3f;stroke-width:0.6875"
       cy="13.69663"
       cx="-53.694061"
       r="0.6875"
       id="circle16-9" />
  </g>
</svg>
