<?xml version="1.0" encoding="UTF-8" standalone="no"?>
<svg
   xmlns:dc="http://purl.org/dc/elements/1.1/"
   xmlns:cc="http://creativecommons.org/ns#"
   xmlns:rdf="http://www.w3.org/1999/02/22-rdf-syntax-ns#"
   xmlns:svg="http://www.w3.org/2000/svg"
   xmlns="http://www.w3.org/2000/svg"
   xmlns:sodipodi="http://sodipodi.sourceforge.net/DTD/sodipodi-0.dtd"
   xmlns:inkscape="http://www.inkscape.org/namespaces/inkscape"
   height="32"
   width="32"
   version="1"
   id="svg12"
   sodipodi:docname="display-brightness.svg"
   inkscape:version="0.92.1 r">
  <metadata
     id="metadata18">
    <rdf:RDF>
      <cc:Work
         rdf:about="">
        <dc:format>image/svg+xml</dc:format>
        <dc:type
           rdf:resource="http://purl.org/dc/dcmitype/StillImage" />
      </cc:Work>
    </rdf:RDF>
  </metadata>
  <defs
     id="defs16" />
  <sodipodi:namedview
     pagecolor="#ffffff"
     bordercolor="#666666"
     borderopacity="1"
     objecttolerance="10"
     gridtolerance="10"
     guidetolerance="10"
     inkscape:pageopacity="0"
     inkscape:pageshadow="2"
     inkscape:window-width="1680"
     inkscape:window-height="963"
     id="namedview14"
     showgrid="false"
     inkscape:zoom="7.375"
     inkscape:cx="10.576271"
     inkscape:cy="5.0169492"
     inkscape:window-x="0"
     inkscape:window-y="0"
     inkscape:window-maximized="1"
     inkscape:current-layer="svg12" />
  <rect
     style="opacity:1;fill:#5f7c8a;fill-opacity:1;fill-rule:evenodd;stroke:none;stroke-width:1.03534329;stroke-linecap:round;stroke-linejoin:bevel;stroke-miterlimit:4;stroke-dasharray:none;stroke-dashoffset:0;stroke-opacity:1"
     id="rect4497-3"
     width="28.203388"
     height="28.203388"
     x="1.8983059"
     y="1.8983059"
     ry="5.575182" />
  <g
     id="g4503"
     transform="translate(1.0025e-4,0.56270015)">
    <path
       inkscape:connector-curvature="0"
       style="fill:#ffffff;stroke-width:0.67411518"
       id="path2"
       d="M 15.999967,5.6206324 C 15.004973,6.6022115 14.053123,7.7196922 13.046669,8.6962829 H 9.2587481 V 12.484204 C 8.2820226,13.49059 7.1648115,14.442643 6.1830975,15.437435 7.1646767,16.432159 8.28209,17.42203 9.2587481,18.43145 v 3.747137 h 3.7879209 c 1.006386,0.976658 1.958507,2.093936 2.953231,3.07565 0.994724,-0.981579 1.984595,-2.09906 2.994015,-3.07565 h 3.747137 v -3.748485 c 0.976658,-1.009285 2.094071,-1.998078 3.07565,-2.992667 -0.981579,-0.994725 -2.098992,-1.946777 -3.07565,-2.953231 V 8.6962829 H 18.993915 C 17.984765,7.7193552 16.995164,6.6020093 16.00017,5.6203627 Z m 0,5.7721116 c -2.233748,0 -4.044691,1.810943 -4.044691,4.044691 0,2.233748 1.810943,4.044691 4.044691,4.044691 z" />
    <path
       inkscape:connector-curvature="0"
       style="fill:#5f7c8a;fill-opacity:1;stroke-width:0.67411518"
       id="path6"
       d="m 15.999967,9.7495879 a 5.3929215,5.3929215 0 0 0 -5.392921,5.3929211 5.3929215,5.3929215 0 0 0 5.392921,5.392922 z" />
  </g>
</svg>
