<?xml version="1.0" encoding="UTF-8" standalone="no"?>
<svg
   xmlns:dc="http://purl.org/dc/elements/1.1/"
   xmlns:cc="http://creativecommons.org/ns#"
   xmlns:rdf="http://www.w3.org/1999/02/22-rdf-syntax-ns#"
   xmlns:svg="http://www.w3.org/2000/svg"
   xmlns="http://www.w3.org/2000/svg"
   xmlns:sodipodi="http://sodipodi.sourceforge.net/DTD/sodipodi-0.dtd"
   xmlns:inkscape="http://www.inkscape.org/namespaces/inkscape"
   height="32"
   width="32"
   version="1"
   id="svg18"
   sodipodi:docname="pysol01.svg"
   inkscape:version="0.92.1 r">
  <metadata
     id="metadata24">
    <rdf:RDF>
      <cc:Work
         rdf:about="">
        <dc:format>image/svg+xml</dc:format>
        <dc:type
           rdf:resource="http://purl.org/dc/dcmitype/StillImage" />
        <dc:title></dc:title>
      </cc:Work>
    </rdf:RDF>
  </metadata>
  <defs
     id="defs22" />
  <sodipodi:namedview
     pagecolor="#ffffff"
     bordercolor="#666666"
     borderopacity="1"
     objecttolerance="10"
     gridtolerance="10"
     guidetolerance="10"
     inkscape:pageopacity="0"
     inkscape:pageshadow="2"
     inkscape:window-width="1680"
     inkscape:window-height="965"
     id="namedview20"
     showgrid="false"
     inkscape:zoom="10.429825"
     inkscape:cx="3.7155083"
     inkscape:cy="16.833885"
     inkscape:window-x="0"
     inkscape:window-y="0"
     inkscape:window-maximized="1"
     inkscape:current-layer="svg18" />
  <rect
     style="opacity:1;fill:#8e8e8e;fill-opacity:1;fill-rule:evenodd;stroke:none;stroke-width:1.03534329;stroke-linecap:round;stroke-linejoin:bevel;stroke-miterlimit:4;stroke-dasharray:none;stroke-dashoffset:0;stroke-opacity:1"
     id="rect4497-3-3-6"
     width="28.203388"
     height="28.203388"
     x="1.898306"
     y="1.8983059"
     ry="5.575182" />
  <path
     style="fill:#cccccc;stroke-width:1"
     d="m 10.978079,25.780311 c -0.244839,-0.06017 -0.407934,-0.267591 -0.408505,-0.519523 0,-0.171654 0.06789,-0.296995 0.281269,-0.516364 0.41357,-0.425161 0.966329,-1.08556 1.433169,-1.71224 0.279893,-0.375738 0.921157,-1.319967 0.906439,-1.334688 -0.0045,-0.0045 -0.07489,0.01188 -0.156475,0.03632 -0.45437,0.13628 -0.934342,0.194129 -1.469831,0.177162 C 10.588378,21.880053 9.7420072,21.609255 8.9265517,21.067067 8.6136716,20.859032 8.4883982,20.755878 8.1779263,20.45054 7.5196244,19.803118 7.0583674,18.990283 6.8323872,18.079324 6.7116652,17.592712 6.665902,16.96509 6.7135775,16.450314 c 0.2029491,-2.191151 1.7724003,-3.959773 3.9466845,-4.447523 0.192549,-0.04319 0.225303,-0.05712 0.221932,-0.0944 -0.07593,-0.838014 -0.04838,-1.285026 0.118946,-1.9309732 0.0965,-0.372569 0.168447,-0.5735893 0.320658,-0.8959641 0.484823,-1.0267778 1.294963,-1.848558 2.322322,-2.355723 1.385358,-0.6838797 3.000408,-0.6933607 4.38978,-0.025775 1.025951,0.4929769 1.838532,1.297157 2.331937,2.3078671 0.406774,0.8332428 0.569796,1.6809742 0.506661,2.6345042 l -0.0112,0.170641 0.252634,0.04269 c 1.017869,0.172002 1.916066,0.627861 2.663193,1.351643 0.587173,0.568821 1.018905,1.253799 1.268719,2.012934 0.419405,1.27455 0.327545,2.620932 -0.259716,3.806725 -0.548192,1.106898 -1.43763,1.944598 -2.570193,2.420668 -0.583461,0.24526 -1.117453,0.355714 -1.798785,0.372067 -0.624066,0.01498 -1.04743,-0.0395 -1.575409,-0.202738 -0.124574,-0.03852 -0.231422,-0.0651 -0.237435,-0.05909 -0.01606,0.0161 0.433284,0.730308 0.717994,1.141051 0.491264,0.70875 1.067376,1.427179 1.585007,1.976544 0.148895,0.158009 0.286281,0.323488 0.305335,0.367731 0.08562,0.19881 0.02338,0.473457 -0.138119,0.609643 -0.176529,0.148846 0.256934,0.136948 -5.131983,0.140857 -2.692469,0.0019 -4.926411,-0.0041 -4.964339,-0.01339 z"
     id="path4537-3"
     inkscape:connector-curvature="0"
     sodipodi:nodetypes="ccccccccccccccccccccccccccccccccccc" />
  <path
     style="fill:#333333;stroke-width:1"
     d="m 10.978079,25.780311 c -0.244839,-0.06017 -0.407934,-0.267591 -0.408505,-0.519523 0,-0.171654 0.06789,-0.296995 0.281269,-0.516364 0.41357,-0.425161 0.966329,-1.08556 1.433169,-1.71224 0.279893,-0.375738 0.921157,-1.319967 0.906439,-1.334688 -0.0045,-0.0045 -0.07489,0.01188 -0.156475,0.03632 -0.45437,0.13628 -0.934342,0.194129 -1.469831,0.177162 C 10.588378,21.880053 9.7420072,21.609255 8.9265517,21.067067 8.6136716,20.859032 8.4883982,20.755878 8.1779263,20.45054 7.5196247,19.803118 7.0583677,18.990283 6.8323876,18.079324 6.7116656,17.592712 6.6659024,16.96509 6.7135779,16.450314 6.916527,14.259163 8.4859778,12.490541 10.660262,12.002791 c 0.192549,-0.04319 0.225303,-0.05712 0.221932,-0.0944 -0.07593,-0.838014 -0.04838,-1.285026 0.118946,-1.9309732 0.0965,-0.372569 0.168447,-0.5735893 0.320658,-0.8959641 0.484823,-1.0267778 1.294963,-1.8485587 2.322322,-2.3557232 1.385358,-0.6838797 3.000408,-0.6933607 4.38978,-0.025775 1.025951,0.4929769 1.838532,1.2971573 2.331937,2.3078674 0.406774,0.8332428 0.569796,1.6809741 0.506661,2.6345041 l -0.0112,0.170641 0.252634,0.04269 c 1.017869,0.172002 1.916066,0.627861 2.663193,1.351643 0.587173,0.568821 1.018905,1.253799 1.268719,2.012934 0.419405,1.27455 0.327545,2.620932 -0.259716,3.806725 -0.548192,1.106898 -1.43763,1.944598 -2.570193,2.420668 -0.583461,0.24526 -1.117453,0.355714 -1.798785,0.372067 -0.624066,0.01498 -1.04743,-0.0395 -1.575409,-0.202738 -0.124574,-0.03852 -0.231422,-0.0651 -0.237435,-0.05909 -0.01606,0.0161 0.433284,0.730308 0.717994,1.141051 0.491264,0.70875 1.067376,1.427179 1.585007,1.976544 0.148895,0.158009 0.286281,0.323488 0.305335,0.367731 0.08562,0.19881 0.02338,0.473457 -0.138119,0.609643 -0.176529,0.148846 0.256934,0.136948 -5.131983,0.140857 -2.692469,0.0019 -4.926411,-0.0041 -4.964339,-0.01339 z m 8.498737,-1.087601 c -0.01216,-0.0158 -0.08941,-0.111474 -0.171694,-0.212592 -0.505338,-0.621071 -1.238283,-1.678839 -1.635743,-2.360672 -0.434783,-0.745864 -0.92965,-1.733319 -0.977354,-1.950227 -0.07286,-0.33126 0.18361,-0.640126 0.532616,-0.641449 0.15926,-5.36e-4 0.279644,0.0537 0.43125,0.194474 0.146503,0.136062 0.508016,0.400056 0.702117,0.512742 0.348364,0.202227 0.803128,0.373138 1.215734,0.456899 0.323085,0.06559 1.154417,0.05904 1.479642,-0.01161 0.548514,-0.119233 1.079669,-0.346787 1.496664,-0.641194 0.318017,-0.224514 0.778596,-0.693748 0.985203,-1.003705 0.652182,-0.978395 0.84821,-2.09538 0.564319,-3.215576 -0.35129,-1.38609 -1.46389,-2.48617 -2.871263,-2.838923 -0.274899,-0.0689 -0.495045,-0.0976 -0.833545,-0.10862 -0.338463,-0.01106 -0.428823,-0.03629 -0.553775,-0.154842 C 19.673379,12.558396 19.645674,12.39797 19.722737,12.032578 19.991802,10.756736 19.610634,9.4377339 18.701728,8.4994938 18.168415,7.9489752 17.589878,7.6073327 16.868029,7.4166416 16.513956,7.3231155 16.254953,7.290729 15.861971,7.2908656 c -0.40481,1.393e-4 -0.680423,0.036252 -1.050481,0.1376365 -1.604257,0.4395382 -2.760279,1.8563855 -2.879879,3.5296369 -0.02963,0.414756 0.0082,0.81245 0.11885,1.249072 0.06719,0.265174 0.03478,0.431954 -0.115463,0.59392 -0.105778,0.114016 -0.213172,0.152688 -0.492067,0.177167 -1.037939,0.09109 -1.8838468,0.494459 -2.5963635,1.238027 -0.6653834,0.694381 -1.0305709,1.560371 -1.0669124,2.530044 -0.026404,0.704011 0.099905,1.28377 0.4180664,1.919086 0.5275326,1.05345 1.4932377,1.809659 2.6539335,2.078223 0.472175,0.109249 1.144338,0.120804 1.582778,0.02721 0.619767,-0.132305 1.181945,-0.404322 1.719986,-0.832235 0.216401,-0.172115 0.28842,-0.204481 0.454976,-0.204481 0.409948,0 0.650327,0.385932 0.486714,0.781424 -0.02875,0.06953 -0.161488,0.328085 -0.294968,0.574577 -0.610454,1.127401 -1.293089,2.155708 -2.115395,3.186591 -0.187107,0.234561 -0.340193,0.430582 -0.340193,0.435605 0,0.0051 1.60952,0.0092 3.576697,0.0092 2.857812,0 3.572238,-0.0057 3.554559,-0.02873 z"
     id="path4537"
     inkscape:connector-curvature="0" />
</svg>
