<?xml version="1.0" encoding="UTF-8" standalone="no"?>
<svg
   xmlns:dc="http://purl.org/dc/elements/1.1/"
   xmlns:cc="http://creativecommons.org/ns#"
   xmlns:rdf="http://www.w3.org/1999/02/22-rdf-syntax-ns#"
   xmlns:svg="http://www.w3.org/2000/svg"
   xmlns="http://www.w3.org/2000/svg"
   xmlns:sodipodi="http://sodipodi.sourceforge.net/DTD/sodipodi-0.dtd"
   xmlns:inkscape="http://www.inkscape.org/namespaces/inkscape"
   height="32"
   width="32"
   version="1"
   id="svg16"
   sodipodi:docname="q4wine.svg"
   inkscape:version="0.92.1 r"
   inkscape:export-filename="/home/ramil/Документы/СТИЛЬ РАБОЧЕГО СТОЛА/ИКОНКИ/rospo/32x32/apps/graphics_section.png"
   inkscape:export-xdpi="108.92308"
   inkscape:export-ydpi="108.92308">
  <metadata
     id="metadata22">
    <rdf:RDF>
      <cc:Work
         rdf:about="">
        <dc:format>image/svg+xml</dc:format>
        <dc:type
           rdf:resource="http://purl.org/dc/dcmitype/StillImage" />
        <dc:title></dc:title>
      </cc:Work>
    </rdf:RDF>
  </metadata>
  <defs
     id="defs20" />
  <sodipodi:namedview
     pagecolor="#ffffff"
     bordercolor="#666666"
     borderopacity="1"
     objecttolerance="10"
     gridtolerance="10"
     guidetolerance="10"
     inkscape:pageopacity="0"
     inkscape:pageshadow="2"
     inkscape:window-width="640"
     inkscape:window-height="480"
     id="namedview18"
     showgrid="false"
     inkscape:zoom="8.8125"
     inkscape:cx="-2.3278746"
     inkscape:cy="27.794247"
     inkscape:current-layer="svg16" />
  <g
     id="g4655">
    <path
       id="path4603"
       d="M 9.7070312,30.101562 16,16 1.8984375,9.7070312 V 24.527344 c 0,3.088651 2.485568,5.574219 5.5742187,5.574218 z"
       style="opacity:1;fill:#009c5b;fill-opacity:1;fill-rule:evenodd;stroke:none;stroke-width:1.03534329;stroke-linecap:round;stroke-linejoin:bevel;stroke-miterlimit:4;stroke-dasharray:none;stroke-dashoffset:0;stroke-opacity:1"
       inkscape:connector-curvature="0" />
    <path
       id="path4606"
       d="M 30.101562,22.292969 16,16 9.7070312,30.101562 H 24.527344 c 3.088651,10e-7 5.57422,-2.485567 5.574218,-5.574218 z"
       style="opacity:1;fill:#00c95b;fill-opacity:1;fill-rule:evenodd;stroke:none;stroke-width:1.03534329;stroke-linecap:round;stroke-linejoin:bevel;stroke-miterlimit:4;stroke-dasharray:none;stroke-dashoffset:0;stroke-opacity:1"
       inkscape:connector-curvature="0" />
    <path
       id="path4600"
       d="M 22.292969,1.8984375 16,16 30.101562,22.292969 V 7.4726562 c 10e-7,-3.0886507 -2.485567,-5.5742187 -5.574218,-5.5742187 z"
       style="opacity:1;fill:#009c5b;fill-opacity:1;fill-rule:evenodd;stroke:none;stroke-width:1.03534329;stroke-linecap:round;stroke-linejoin:bevel;stroke-miterlimit:4;stroke-dasharray:none;stroke-dashoffset:0;stroke-opacity:1"
       inkscape:connector-curvature="0" />
    <path
       id="rect4497-6"
       d="M 1.8984375,9.7070312 16,16 22.292969,1.8984375 H 7.4726562 c -3.0886508,0 -5.5742187,2.4855679 -5.5742187,5.5742187 z"
       style="opacity:1;fill:#00c95b;fill-opacity:1;fill-rule:evenodd;stroke:none;stroke-width:1.03534329;stroke-linecap:round;stroke-linejoin:bevel;stroke-miterlimit:4;stroke-dasharray:none;stroke-dashoffset:0;stroke-opacity:1"
       inkscape:connector-curvature="0" />
  </g>
  <g
     id="g4528"
     transform="translate(0.26814118,-0.08793595)">
    <path
       sodipodi:nodetypes="ccssssssssssscccsssccsccscccccc"
       inkscape:connector-curvature="0"
       id="path4522"
       d="m 12.062881,25.881848 c 0.0435,-0.04627 0.187027,-0.140879 0.319023,-0.210244 0.228396,-0.120016 0.267002,-0.128476 0.798871,-0.175025 0.678927,-0.05946 1.215794,-0.160554 1.456242,-0.274304 0.362877,-0.171673 0.577551,-0.481282 0.693413,-1.000063 0.05166,-0.231391 0.06398,-0.491302 0.07567,-1.601086 0.01436,-1.362025 -0.0368,-3.277358 -0.09547,-3.571756 -0.06274,-0.315011 -0.112904,-0.3742 -0.666684,-0.786725 -0.598341,-0.445718 -1.31798,-1.137058 -1.638767,-1.574327 -0.579321,-0.789667 -0.902192,-1.598318 -1.065901,-2.669661 -0.0446,-0.292017 -0.0607,-0.607244 -0.0607,-1.191278 2.9e-5,-1.310368 0.120606,-2.156257 0.684188,-4.7996431 0.204013,-0.9568767 0.264276,-1.1630046 0.376036,-1.2862353 l 0.07047,-0.077692 h 2.715817 2.715817 l 0.07207,0.077692 c 0.102732,0.1107204 0.156356,0.3007864 0.392119,1.3898246 0.645538,2.9818668 0.796509,4.4637938 0.599375,5.8833438 -0.248777,1.791471 -1.08135,3.067983 -2.839469,4.353532 -0.214208,0.156632 -0.410432,0.325864 -0.436052,0.376074 -0.0893,0.174992 -0.126888,0.474842 -0.159622,1.273287 -0.04693,1.144863 -0.04831,3.520819 -0.0022,3.878507 0.103271,0.801712 0.330982,1.169121 0.850696,1.372632 0.225757,0.0884 0.704934,0.169247 1.359865,0.22943 0.488853,0.04489 0.552745,0.05888 0.777628,0.170034 0.134751,0.0666 0.282363,0.160852 0.328016,0.209449 l 0.08301,0.08835 h -3.741254 -3.74126 z"
       style="fill:#ffffff;stroke-width:0.99999994" />
    <path
       sodipodi:nodetypes="ccc"
       inkscape:connector-curvature="0"
       id="path4639-1"
       d="m 12.390743,13.316135 c -0.183291,5.209867 6.291668,6.528956 6.775108,0.0024 -1.498781,2.161719 -5.138984,-2.008781 -6.775108,-0.0024 z"
       style="fill:#bb002f;fill-opacity:1;stroke-width:1" />
  </g>
</svg>
