<?xml version="1.0" encoding="UTF-8" standalone="no"?>
<svg
   xmlns:dc="http://purl.org/dc/elements/1.1/"
   xmlns:cc="http://creativecommons.org/ns#"
   xmlns:rdf="http://www.w3.org/1999/02/22-rdf-syntax-ns#"
   xmlns:svg="http://www.w3.org/2000/svg"
   xmlns="http://www.w3.org/2000/svg"
   xmlns:sodipodi="http://sodipodi.sourceforge.net/DTD/sodipodi-0.dtd"
   xmlns:inkscape="http://www.inkscape.org/namespaces/inkscape"
   height="32"
   width="32"
   version="1"
   id="svg25"
   sodipodi:docname="qbittorrent.svg"
   inkscape:version="0.92.1 r">
  <metadata
     id="metadata29">
    <rdf:RDF>
      <cc:Work
         rdf:about="">
        <dc:format>image/svg+xml</dc:format>
        <dc:type
           rdf:resource="http://purl.org/dc/dcmitype/StillImage" />
      </cc:Work>
    </rdf:RDF>
  </metadata>
  <sodipodi:namedview
     pagecolor="#ffffff"
     bordercolor="#666666"
     borderopacity="1"
     objecttolerance="10"
     gridtolerance="10"
     guidetolerance="10"
     inkscape:pageopacity="0"
     inkscape:pageshadow="2"
     inkscape:window-width="640"
     inkscape:window-height="480"
     id="namedview27"
     showgrid="false"
     inkscape:zoom="8.9375"
     inkscape:cx="-5.3706294"
     inkscape:cy="16"
     inkscape:current-layer="svg25" />
  <defs
     id="defs5">
    <clipPath
       id="clipPath4186"
       clipPathUnits="userSpaceOnUse">
      <circle
         cy="26"
         cx="286"
         r="10"
         fill="url(#linearGradient4190)"
         id="circle2" />
    </clipPath>
  </defs>
  <rect
     style="opacity:1;fill:#2f67ba;fill-opacity:1;fill-rule:evenodd;stroke:none;stroke-width:1.03534329;stroke-linecap:round;stroke-linejoin:bevel;stroke-miterlimit:4;stroke-dasharray:none;stroke-dashoffset:0;stroke-opacity:1"
     id="rect4497-6"
     width="28.203388"
     height="28.203388"
     x="1.8983059"
     y="1.8983059"
     ry="5.575182" />
  <g
     id="g4514"
     transform="translate(37.370629,-7.437063)">
    <path
       style="fill:#7fc1de"
       inkscape:connector-curvature="0"
       id="path17"
       d="m -27.870629,17.937063 a 5.5,5.5 0 0 0 -5.5,5.5 5.5,5.5 0 0 0 5.5,5.5 5.5,5.5 0 0 0 2.5,-0.607 v 5.607 h 3 v -10.5 -5.5 h -3 v 0.602 a 5.5,5.5 0 0 0 -2.5,-0.602 z m 0,3 a 2.5,2.5 0 0 1 2.5,2.5 2.5,2.5 0 0 1 -2.5,2.5 2.5,2.5 0 0 1 -2.5,-2.5 2.5,2.5 0 0 1 2.5,-2.5 z" />
    <path
       style="fill:#ffffff"
       inkscape:connector-curvature="0"
       id="path21"
       d="m -14.870629,28.937063 a 5.5,5.5 0 0 0 5.4999996,-5.5 5.5,5.5 0 0 0 -5.4999996,-5.5 5.5,5.5 0 0 0 -2.5,0.607 v -5.607 h -3 v 10.5 5.5 h 3 v -0.60156 a 5.5,5.5 0 0 0 2.5,0.602 z m 0,-3 a 2.5,2.5 0 0 1 -2.5,-2.5 2.5,2.5 0 0 1 2.5,-2.5 2.5,2.5 0 0 1 2.5,2.5 2.5,2.5 0 0 1 -2.5,2.5 z" />
  </g>
</svg>
