<?xml version="1.0" encoding="UTF-8" standalone="no"?>
<svg
   xmlns:dc="http://purl.org/dc/elements/1.1/"
   xmlns:cc="http://creativecommons.org/ns#"
   xmlns:rdf="http://www.w3.org/1999/02/22-rdf-syntax-ns#"
   xmlns:svg="http://www.w3.org/2000/svg"
   xmlns="http://www.w3.org/2000/svg"
   xmlns:sodipodi="http://sodipodi.sourceforge.net/DTD/sodipodi-0.dtd"
   xmlns:inkscape="http://www.inkscape.org/namespaces/inkscape"
   height="32"
   width="32"
   version="1"
   id="svg12"
   sodipodi:docname="qreator.svg"
   inkscape:version="0.92.1 r">
  <metadata
     id="metadata18">
    <rdf:RDF>
      <cc:Work
         rdf:about="">
        <dc:format>image/svg+xml</dc:format>
        <dc:type
           rdf:resource="http://purl.org/dc/dcmitype/StillImage" />
      </cc:Work>
    </rdf:RDF>
  </metadata>
  <defs
     id="defs16" />
  <sodipodi:namedview
     pagecolor="#ffffff"
     bordercolor="#666666"
     borderopacity="1"
     objecttolerance="10"
     gridtolerance="10"
     guidetolerance="10"
     inkscape:pageopacity="0"
     inkscape:pageshadow="2"
     inkscape:window-width="640"
     inkscape:window-height="480"
     id="namedview14"
     showgrid="false"
     inkscape:zoom="8.9375"
     inkscape:cx="-5.3706294"
     inkscape:cy="16"
     inkscape:current-layer="svg12" />
  <rect
     style="opacity:1;fill:#c2352a;fill-opacity:1;fill-rule:evenodd;stroke:none;stroke-width:1.03534329;stroke-linecap:round;stroke-linejoin:bevel;stroke-miterlimit:4;stroke-dasharray:none;stroke-dashoffset:0;stroke-opacity:1"
     id="rect4497-6"
     width="28.203388"
     height="28.203388"
     x="1.8983059"
     y="1.8983059"
     ry="5.575182" />
  <path
     style="fill:#fef7c0;stroke-width:1"
     d="m 5.566434,5.5664338 v 6.9557112 h 6.955711 V 5.5664338 Z m 8.694638,0 V 9.0442893 H 16 V 7.3053615 h 1.738928 V 5.5664338 H 16 Z M 16,9.0442893 v 3.4778557 h 1.738928 V 9.0442893 Z m 0,3.4778557 h -1.738928 v 1.738927 H 16 Z m 0,1.738927 V 16 h 1.738928 V 14.261072 Z M 17.738928,16 v 1.738928 h 3.477855 V 14.261072 H 19.477856 V 16 Z m 3.477855,1.738928 v 1.738928 h 1.738928 v 1.738927 h 1.738928 v -3.477855 z m 3.477856,0 h 1.738927 V 16 14.261072 H 22.955711 V 16 h 1.738928 z m -3.477856,1.738928 h -1.738927 v 1.738927 h 1.738927 z m -1.738927,1.738927 h -1.738928 v 1.738928 h 1.738928 z m 0,1.738928 v 1.738928 h 1.738927 v -1.738928 z m 1.738927,1.738928 v 1.738927 h 1.738928 v -1.738927 z m 1.738928,0 h 3.477855 v -1.738928 h -3.477855 z m -5.216783,-1.738928 h -3.477856 v 1.738928 H 16 v 1.738927 h 1.738928 v -1.738927 z m 0,-1.738928 v -3.477855 h -3.477856 v 1.738928 H 16 v 1.738927 z M 14.261072,17.738928 V 14.261072 H 12.522145 V 16 h -1.738928 v 1.738928 z M 10.783217,16 V 14.261072 H 9.044289 5.566434 v 3.477856 H 9.044289 V 16 Z M 19.477856,5.5664337 v 6.9557113 h 6.95571 V 5.5664337 Z M 7.305361,7.3053614 h 3.477856 V 10.783217 H 7.305361 Z m 13.911422,0 h 3.477856 V 10.783217 H 21.216783 Z M 8.174825,8.1748253 V 9.9137531 H 9.913753 V 8.1748254 Z m 13.911422,0 v 1.7389278 h 1.738928 V 8.1748254 Z M 5.566434,19.477856 v 6.95571 h 6.955711 v -6.95571 z m 1.738927,1.738927 h 3.477856 v 3.477856 H 7.305361 Z m 0.869464,0.869464 v 1.738928 h 1.738928 v -1.738928 z"
     id="path10"
     inkscape:connector-curvature="0" />
</svg>
