<?xml version="1.0" encoding="UTF-8" standalone="no"?>
<svg
   xmlns:dc="http://purl.org/dc/elements/1.1/"
   xmlns:cc="http://creativecommons.org/ns#"
   xmlns:rdf="http://www.w3.org/1999/02/22-rdf-syntax-ns#"
   xmlns:svg="http://www.w3.org/2000/svg"
   xmlns="http://www.w3.org/2000/svg"
   xmlns:sodipodi="http://sodipodi.sourceforge.net/DTD/sodipodi-0.dtd"
   xmlns:inkscape="http://www.inkscape.org/namespaces/inkscape"
   height="32"
   viewBox="0 0 32 32"
   width="32"
   version="1.1"
   id="svg32"
   sodipodi:docname="recipes.svg"
   inkscape:version="0.92.1 r">
  <metadata
     id="metadata38">
    <rdf:RDF>
      <cc:Work
         rdf:about="">
        <dc:format>image/svg+xml</dc:format>
        <dc:type
           rdf:resource="http://purl.org/dc/dcmitype/StillImage" />
      </cc:Work>
    </rdf:RDF>
  </metadata>
  <defs
     id="defs36" />
  <sodipodi:namedview
     pagecolor="#ffffff"
     bordercolor="#666666"
     borderopacity="1"
     objecttolerance="10"
     gridtolerance="10"
     guidetolerance="10"
     inkscape:pageopacity="0"
     inkscape:pageshadow="2"
     inkscape:window-width="640"
     inkscape:window-height="480"
     id="namedview34"
     showgrid="false"
     showguides="true"
     inkscape:guide-bbox="true"
     inkscape:zoom="12.639534"
     inkscape:cx="-2.5454989"
     inkscape:cy="6.518637"
     inkscape:current-layer="svg32" />
  <rect
     style="opacity:1;fill:#caa17d;fill-opacity:1;fill-rule:evenodd;stroke:none;stroke-width:1.03534329;stroke-linecap:round;stroke-linejoin:bevel;stroke-miterlimit:4;stroke-dasharray:none;stroke-dashoffset:0;stroke-opacity:1"
     id="rect4497-3"
     width="28.203388"
     height="28.203388"
     x="1.8983059"
     y="1.8983059"
     ry="5.575182" />
  <g
     id="g4525"
     transform="translate(-0.5)">
    <path
       id="path10"
       d="m 13,19 v 6.666667 C 13,26.405333 13.446,27 14,27 h 1 c 0.554,0 1,-0.594667 1,-1.333333 V 19 Z"
       style="opacity:1;fill:#855629;fill-opacity:1"
       inkscape:connector-curvature="0" />
    <path
       id="path16"
       d="m 13,5.0000004 c 0,0 7,3.8712786 7,13.9999996 h -7 z"
       style="opacity:1;fill:#cccccc;fill-opacity:1"
       inkscape:connector-curvature="0" />
    <circle
       id="circle18"
       r="0.5"
       cy="21.5"
       cx="14.5"
       style="opacity:1;fill:#cccccc;fill-opacity:1" />
    <circle
       id="circle20"
       style="opacity:1;fill:#cccccc;fill-opacity:1"
       cx="14.5"
       cy="24.5"
       r="0.5" />
  </g>
  <g
     id="g4529"
     transform="translate(-3.5915357,-2.7329033)">
    <circle
       id="circle24"
       r="6"
       cy="25"
       cx="26"
       style="fill:#e74c3c" />
    <path
       id="path28"
       d="m 24.666666,18.333333 v 0.824219 a 5.9999998,5.9999998 0 0 0 -4.010416,3.127604 c 0.45015,-0.07879 1.380817,-0.313213 2.78776,-1.080729 0.5586,-0.3048 1.038755,-0.574738 1.222656,-0.871094 -1.594761,2 0.134734,2.293293 1,3.333333 0,0 2.027499,-1.333333 0.333333,-3.333333 2,0.973774 4,0.666667 4,0.666667 0,0 0.01085,-0.19606 -0.0026,-0.466146 A 5.9999998,5.9999998 0 0 0 25.999999,19 v -0.666667 z"
       style="fill:#a6ef4d;fill-rule:evenodd"
       inkscape:connector-curvature="0" />
  </g>
</svg>
