<?xml version="1.0" encoding="UTF-8" standalone="no"?>
<svg
   xmlns:dc="http://purl.org/dc/elements/1.1/"
   xmlns:cc="http://creativecommons.org/ns#"
   xmlns:rdf="http://www.w3.org/1999/02/22-rdf-syntax-ns#"
   xmlns:svg="http://www.w3.org/2000/svg"
   xmlns="http://www.w3.org/2000/svg"
   xmlns:sodipodi="http://sodipodi.sourceforge.net/DTD/sodipodi-0.dtd"
   xmlns:inkscape="http://www.inkscape.org/namespaces/inkscape"
   height="32"
   width="32"
   version="1"
   id="svg25"
   sodipodi:docname="rocs.svg"
   inkscape:version="0.92.1 r">
  <metadata
     id="metadata29">
    <rdf:RDF>
      <cc:Work
         rdf:about="">
        <dc:format>image/svg+xml</dc:format>
        <dc:type
           rdf:resource="http://purl.org/dc/dcmitype/StillImage" />
      </cc:Work>
    </rdf:RDF>
  </metadata>
  <sodipodi:namedview
     pagecolor="#ffffff"
     bordercolor="#666666"
     borderopacity="1"
     objecttolerance="10"
     gridtolerance="10"
     guidetolerance="10"
     inkscape:pageopacity="0"
     inkscape:pageshadow="2"
     inkscape:window-width="640"
     inkscape:window-height="480"
     id="namedview27"
     showgrid="false"
     inkscape:zoom="8.9375"
     inkscape:cx="-5.3706294"
     inkscape:cy="16"
     inkscape:current-layer="svg25" />
  <defs
     id="defs5">
    <clipPath
       id="clipPath4186"
       clipPathUnits="userSpaceOnUse">
      <circle
         cx="286"
         cy="26"
         r="10"
         fill="url(#linearGradient4190)"
         id="circle2" />
    </clipPath>
  </defs>
  <rect
     style="opacity:1;fill:#37a0f2;fill-opacity:1;fill-rule:evenodd;stroke:none;stroke-width:1.03534329;stroke-linecap:round;stroke-linejoin:bevel;stroke-miterlimit:4;stroke-dasharray:none;stroke-dashoffset:0;stroke-opacity:1"
     id="rect4497-6"
     width="28.203388"
     height="28.203388"
     x="1.8983059"
     y="1.8983059"
     ry="5.575182" />
  <g
     transform="matrix(-0.62295,0,0,-0.62295,30.795271,31.106538)"
     id="g23"
     style="fill:#ffffff">
    <path
       style="color:#000000;fill-rule:evenodd"
       d="m -16.725,11.189 a 1.5,1.5 0 0 0 -1.5,1.5 1.5,1.5 0 0 0 0.45508,1.0742 l -1.8164,3.9336 a 1.5,1.5 0 0 0 -0.13867,-0.0078 1.5,1.5 0 0 0 -1.1602,0.55469 l -4.2422,-1.5137 a 1.5,1.5 0 0 0 -0.43555,-1 1.5,1.5 0 0 0 -2.1211,0 1.5,1.5 0 0 0 0,2.1211 1.5,1.5 0 0 0 1,0.4375 l 1.5137,4.2383 a 1.5,1.5 0 0 0 -0.55469,1.1621 h -1 l -1.123,0.13477 -3.877,0.4668 v 4.8008 l 3.873,0.46484 a 11.5,11.5 0 0 0 1.2344,2.9746 l -2.4102,3.0703 3.3926,3.3926 3.0703,-2.4102 a 11.5,11.5 0 0 0 2.9746,1.2305 l 0.46484,3.877 h 4.8008 v -0.002 l 0.46484,-3.873 a 11.5,11.5 0 0 0 2.9746,-1.2324 l 3.0705,2.41 3.3926,-3.394 -2.4101,-3.071 -0.6992,-0.89 -0.7676,-0.768 a 1.5,1.5 0 0 0 0.57422,-1.1816 1.5,1.5 0 0 0 -0.00781,-0.13867 l 3.9316,-1.8164 a 1.5,1.5 0 0 0 1.0762,0.45508 1.5,1.5 0 0 0 1.5,-1.5 1.5,1.5 0 0 0 -1.5,-1.5 1.5,1.5 0 0 0 -1.0742,0.45508 l -3.9336,-1.8145 a 1.5,1.5 0 0 0 0.00781,-0.14062 1.5,1.5 0 0 0 -0.55273,-1.1621 l 1.5137,-4.2402 a 1.5,1.5 0 0 0 0.99805,-0.43555 1.5,1.5 0 0 0 0,-2.1211 1.5,1.5 0 0 0 -2.1211,0 1.5,1.5 0 0 0 -0.4375,1 l -4.2379,1.512 a 1.5,1.5 0 0 0 -1.1621,-0.55274 1.5,1.5 0 0 0 -0.13867,0.0078 l -1.8145,-3.9336 a 1.5,1.5 0 0 0 0.45312,-1.0742 1.5,1.5 0 0 0 -1.5,-1.5 z m 0.13867,2.9922 1.8145,3.9336 a 1.5,1.5 0 0 0 -0.36524,0.57422 h -3.1758 a 1.5,1.5 0 0 0 -0.36719,-0.57422 l 1.8145,-3.9316 a 1.5,1.5 0 0 0 0.14062,0.0059 1.5,1.5 0 0 0 0.13867,-0.0078 z m -8.8359,3.5039 4.1973,1.5 a 1.5,1.5 0 0 0 0,0.0039 1.5,1.5 0 0 0 0.14844,0.64453 l -2.5039,2.5039 a 1.5,1.5 0 0 0 -0.64453,-0.14844 1.5,1.5 0 0 0 -0.0039,0 l -1.5,-4.1973 a 1.5,1.5 0 0 0 0.16602,-0.14063 1.5,1.5 0 0 0 0.14062,-0.16602 z m 17.395,0 a 1.5,1.5 0 0 0 0.14062,0.16602 1.5,1.5 0 0 0 0.16602,0.14258 l -1.5,4.1953 a 1.5,1.5 0 0 0 -0.00391,0 1.5,1.5 0 0 0 -0.64453,0.14844 l -2.5039,-2.5039 a 1.5,1.5 0 0 0 0.14844,-0.64453 1.5,1.5 0 0 0 0,-0.0039 l 4.1973,-1.5 z m -10.285,2.0039 h 3.1738 a 1.5,1.5 0 0 0 1.4141,1 1.5,1.5 0 0 0 0.64453,-0.14648 l 2.5039,2.502 a 1.5,1.5 0 0 0 -0.14844,0.64453 1.5,1.5 0 0 0 1,1.4141 v 3.1738 a 1.5,1.5 0 0 0 -1,1.4121 1.5,1.5 0 0 0 0.35352,0.96484 7.5,7.5 0 0 1 -6.3535,3.5352 7.5,7.5 0 0 1 -7.5,-7.5 7.5,7.5 0 0 1 0.1582,-1.5098 1.5,1.5 0 0 0 1.3418,-1.4902 1.5,1.5 0 0 0 -0.14844,-0.64648 l 2.502,-2.502 a 1.5,1.5 0 0 0 0.64648,0.14844 1.5,1.5 0 0 0 1.4121,-1 z m 10.16,5.0449 3.9355,1.8164 a 1.5,1.5 0 0 0 -0.00781,0.13867 1.5,1.5 0 0 0 0.00781,0.13867 l -3.9336,1.8145 a 1.5,1.5 0 0 0 -0.57422,-0.36523 v -3.1758 a 1.5,1.5 0 0 0 0.57227,-0.36719 z"
       transform="rotate(180,3.6377,25.345)"
       id="path21"
       inkscape:connector-curvature="0" />
  </g>
</svg>
