<?xml version="1.0" encoding="UTF-8" standalone="no"?>
<svg
   xmlns:dc="http://purl.org/dc/elements/1.1/"
   xmlns:cc="http://creativecommons.org/ns#"
   xmlns:rdf="http://www.w3.org/1999/02/22-rdf-syntax-ns#"
   xmlns:svg="http://www.w3.org/2000/svg"
   xmlns="http://www.w3.org/2000/svg"
   xmlns:sodipodi="http://sodipodi.sourceforge.net/DTD/sodipodi-0.dtd"
   xmlns:inkscape="http://www.inkscape.org/namespaces/inkscape"
   width="32"
   height="32"
   version="1"
   id="svg12"
   sodipodi:docname="rosa-freeze.svg"
   inkscape:version="0.92.1 r">
  <metadata
     id="metadata18">
    <rdf:RDF>
      <cc:Work
         rdf:about="">
        <dc:format>image/svg+xml</dc:format>
        <dc:type
           rdf:resource="http://purl.org/dc/dcmitype/StillImage" />
        <dc:title></dc:title>
      </cc:Work>
    </rdf:RDF>
  </metadata>
  <defs
     id="defs16" />
  <sodipodi:namedview
     pagecolor="#ffffff"
     bordercolor="#666666"
     borderopacity="1"
     objecttolerance="10"
     gridtolerance="10"
     guidetolerance="10"
     inkscape:pageopacity="0"
     inkscape:pageshadow="2"
     inkscape:window-width="1680"
     inkscape:window-height="971"
     id="namedview14"
     showgrid="false"
     inkscape:zoom="10.429825"
     inkscape:cx="35.571744"
     inkscape:cy="17.485476"
     inkscape:window-x="0"
     inkscape:window-y="0"
     inkscape:window-maximized="1"
     inkscape:current-layer="svg12" />
  <rect
     style="opacity:1;fill:#007eff;fill-opacity:1;fill-rule:evenodd;stroke:none;stroke-width:1.03534329;stroke-linecap:round;stroke-linejoin:bevel;stroke-miterlimit:4;stroke-dasharray:none;stroke-dashoffset:0;stroke-opacity:1"
     id="rect4497-6"
     width="28.203388"
     height="28.203388"
     x="1.8983059"
     y="1.8983059"
     ry="5.575182" />
  <path
     style="fill:#ffffff;stroke-width:0.99999988"
     d="m 15.710465,27.179311 c -0.14996,-0.10716 -0.35001,-0.24904 -0.44454,-0.3153 l -0.17187,-0.12047 -8.2e-4,-1.47934 c -4.5e-4,-0.81364 -0.0139,-1.48742 -0.0298,-1.49729 -0.032,-0.0198 -0.024,-0.0243 -0.95329,0.53368 l -0.65419,0.39277 -0.38121,-0.24735 -0.38121,-0.24735 -2e-5,-0.54533 -10e-6,-0.54534 0.39057,-0.22182 c 0.21482,-0.122 0.55418,-0.31629 0.75413,-0.43175 0.46438,-0.26815 0.51366,-0.29642 0.91798,-0.52655 l 0.33629,-0.1914 v -0.9775 c 0,-0.6833 -0.012,-0.9775 -0.0398,-0.9775 -0.0219,0 -0.23046,0.11728 -0.46353,0.26062 -0.23307,0.14334 -0.48921,0.29974 -0.56919,0.34756 -0.08,0.0478 -0.29266,0.17529 -0.47262,0.28326 l -0.3272,0.19632 -0.01,-0.98802 c -0.005,-0.54341 -0.0246,-1.00291 -0.0428,-1.02111 -0.0199,-0.0199 -0.0813,-0.004 -0.15391,0.0397 -0.0665,0.04 -0.48464,0.25691 -0.92931,0.48198 l -0.8085,0.40923 -0.01,1.43784 -0.01,1.43785 -0.36356,0.26458 c -0.19995,0.14552 -0.37561,0.26527 -0.39034,0.26611 -0.0147,8.4e-4 -0.16606,-0.10794 -0.33629,-0.24173 l -0.3094999,-0.24326 v -0.93829 c 0,-0.57835 -0.0135,-0.93829 -0.0351,-0.93829 -0.0193,0 -0.18698,0.0874 -0.3726401,0.19413 -0.18567,0.10678 -0.6238799,0.35472 -0.9738,0.55099 -0.83897,0.47057 -0.8997,0.50474 -1.0862,0.61117 l -0.15914,0.0908 -0.18624,-0.0662 c -0.10243,-0.0364 -0.3662,-0.1389 -0.58615,-0.22779 l -0.39991,-0.16162 -0.01,-0.58355 -0.01,-0.58355 0.10086,-0.0716 c 0.0555,-0.0394 0.19084,-0.12054 0.30082,-0.18039 0.10997,-0.0598 0.37991,-0.2115 0.59986,-0.33699 0.21995,-0.1255 0.46535,-0.26493 0.54533,-0.30986 0.12842,-0.0721 0.68219,-0.38798 0.97916,-0.55847 0.0586,-0.0337 0.1117101,-0.0768 0.11793,-0.0958 0.006,-0.019 -0.30249,-0.18183 -0.68602,-0.36179 -0.38354,-0.17996 -0.76381,-0.36235 -0.84505,-0.40532 l -0.1477,-0.0781 v -0.55408 -0.55407 l 0.48657,-0.26963 c 0.28387,-0.1573 0.50991,-0.26068 0.54258,-0.24814 0.0522,0.02 0.70215,0.40164 1.73386,1.01801 0.23995,0.14335 0.50296,0.29763 0.58447,0.34285 l 0.14821,0.0822 0.82375,-0.48486 c 0.45307,-0.26667 0.824,-0.49636 0.8243,-0.51042 5.3e-4,-0.0245 -0.65932,-0.42148 -1.37186,-0.8254 -0.18496,-0.10485 -0.33621,-0.20168 -0.33611,-0.21517 1.1e-4,-0.0135 0.11871,-0.0954 0.26358,-0.18198 0.14487,-0.0866 0.40245,-0.24458 0.57241,-0.35108 0.16997,-0.10649 0.4145,-0.25799 0.54341,-0.33665 0.12891,-0.0787 0.23952,-0.15844 0.2458,-0.17728 0.0123,-0.0369 -0.11645,-0.11603 -0.93942,-0.57767 -0.29257,-0.16412 -0.56954,-0.32473 -0.6155,-0.35692 -0.0897,-0.0628 -0.13064,-0.0462 -0.65215,0.26524 -0.09,0.0537 -0.31902,0.18831 -0.50898,0.29906 -0.18995,0.11076 -0.5721,0.33446 -0.84921,0.49713 -0.27711,0.16266 -0.52506,0.29575 -0.55101,0.29575 -0.0259,0 -0.25363,-0.0989 -0.50598,-0.21979 l -0.45883,-0.21978 0.0101,-0.5321 0.01,-0.5321 0.16906,-0.0993 c 0.093,-0.0546 0.24022,-0.1391 0.3272,-0.18777 0.8995301,-0.50338 1.1593001,-0.65902 1.1494101,-0.68867 -0.006,-0.0191 -0.1584001,-0.1126 -0.3378301,-0.2077 -0.1794399,-0.0951 -0.44077,-0.23522 -0.58073,-0.31136 -0.13997,-0.0761 -0.38537,-0.20855 -0.54534,-0.29422 -0.15996,-0.0857 -0.47898,-0.2594 -0.70893,-0.38607 l -0.41809,-0.23032 v -0.59652 -0.59653 l 0.55527,-0.25359 0.55527,-0.2535898 0.19002,0.10223 c 0.10451,0.0562 0.55812,0.3062898 1.00802,0.5556998 1.09341,0.60616 1.40293,0.77057 1.4506,0.77057 0.028,0 0.04,-0.27547 0.04,-0.92026 V 9.3973412 l 0.1,-0.0925 c 0.055,-0.0509 0.2111,-0.17756 0.34692,-0.2814797 l 0.24695,-0.18894 0.13478,0.0803 c 0.0741,0.0442 0.27981,0.1703997 0.45706,0.2805497 l 0.32227,0.20028 -0.0255,1.4574398 -0.0256,1.45743 0.13955,0.0765 c 0.20789,0.11397 0.85613,0.48469 1.24838,0.71395 0.18996,0.11102 0.35765,0.19439 0.37265,0.18527 0.015,-0.009 0.0273,-0.46728 0.0273,-1.01811 0,-0.93878 0.004,-1.00001 0.0636,-0.97739 0.035,0.0133 0.37446,0.19306 0.75437,0.39953 0.81466,0.44275 0.98394,0.52936 1.03468,0.52936 0.0252,0 0.0378,-0.3251 0.0378,-0.9775 v -0.9775 l -0.33629,-0.19141 c -0.18496,-0.1052698 -0.38537,-0.2193598 -0.44535,-0.2535298 -0.06,-0.0342 -0.28085,-0.16251 -0.4908,-0.28519 -0.20996,-0.12267 -0.54943,-0.31702 -0.75438,-0.43188 l -0.37264,-0.2088397 2.5e-4,-0.54567 2.6e-4,-0.54567 0.38121,-0.24735 0.38121,-0.24735 0.65419,0.39277 c 0.92932,0.55796 0.92127,0.55346 0.95328,0.53367 0.016,-0.01 0.0298,-0.68365 0.0307,-1.49728 l 0.002,-1.479343 0.17099,-0.119817 c 0.094,-0.0659 0.2975,-0.208627 0.45214,-0.317172 l 0.28115,-0.197354 0.45442,0.317172 0.45442,0.317171 6.2e-4,1.479343 c 3.7e-4,0.81622 0.015,1.48824 0.0327,1.49919 0.0177,0.0109 0.11992,-0.0266 0.22722,-0.0834 0.10731,-0.0568 0.39142,-0.20577 0.63137,-0.33111 0.23995,-0.12535 0.55468,-0.29274 0.69942,-0.37199 l 0.26315,-0.14408 0.50031,0.27102 0.50032,0.27102 0.0101,0.49329 0.0101,0.4933 -1.43706,0.7171797 -1.43705,0.7171798 v 0.97555 c 0,0.69206 0.0118,0.97555 0.0405,0.97555 0.0222,0 0.26356,-0.12502 0.53624,-0.27781 0.27268,-0.1528 0.58577,-0.32755 0.69574,-0.38834 0.10998,-0.0608 0.28994,-0.16337 0.39991,-0.22798 l 0.19996,-0.11745 0.009,1.00568 c 0.005,0.55312 0.0173,1.02727 0.0271,1.05366 0.0126,0.0339 0.29622,-0.0946 0.96294,-0.43626 l 0.94506,-0.48426 3.7e-4,-1.55065 3.6e-4,-1.5506598 0.34054,-0.2032097 0.34053,-0.2032 0.3684,0.202 0.36839,0.2019997 v 0.9792598 c -3e-5,0.68356 0.012,0.97927 0.0397,0.97927 0.0362,0 0.9116,-0.44663 0.99643,-0.5084 0.02,-0.0145 0.19178,-0.10851 0.38173,-0.2088 0.18996,-0.10028 0.49262,-0.26003 0.67258,-0.35499 0.17996,-0.095 0.40548,-0.2156798 0.50115,-0.2682598 l 0.17395,-0.0956 0.1896,0.10459 c 0.10429,0.0575 0.34136,0.1936998 0.52683,0.3025998 l 0.33722,0.19801 -0.01,0.54711 -0.01,0.54712 -0.25449,0.14552 c -0.13997,0.08 -0.30357,0.17371 -0.36356,0.20817 -0.06,0.0345 -0.28902,0.16546 -0.50897,0.29112 -0.21995,0.12566 -0.48171,0.27533 -0.58169,0.3326 -0.1,0.0573 -0.33311,0.18885 -0.51807,0.2924 -0.18495,0.10355 -0.33616,0.19767 -0.33601,0.20915 1.5e-4,0.0115 0.20643,0.13541 0.45839,0.27538 0.25197,0.13996 0.56678,0.31649 0.69957,0.39229 0.1328,0.0758 0.29462,0.1619 0.35961,0.19135 l 0.11815,0.0535 v 0.54249 0.54249 l -0.37124,0.18862 c -0.20418,0.10375 -0.4007,0.20703 -0.43671,0.22952 -0.0508,0.0318 -0.0877,0.0273 -0.16501,-0.0198 -0.0547,-0.0334 -0.23858,-0.14111 -0.40855,-0.23937 -0.16996,-0.0983 -0.55442,-0.32248 -0.85435,-0.49825 -1.19949,-0.70294 -1.16472,-0.68546 -1.26136,-0.63414 -0.0817,0.0434 -0.7276,0.46167 -1.32858,0.86043 -0.35135,0.23312 -0.38756,0.16389 0.31772,0.60732 0.87901,0.55265 1.02066,0.64925 0.99217,0.67662 -0.0158,0.0152 -0.30687,0.18622 -0.64679,0.38006 -0.90394,0.51548 -1.0452,0.60432 -1.01175,0.63624 0.0166,0.0158 0.4185,0.22754 0.89314,0.47046 l 0.86298,0.44167 0.42764,-0.23341 c 0.2352,-0.12837 0.66485,-0.3637 0.95479,-0.52295 0.28993,-0.15925 0.67008,-0.36648 0.84478,-0.46052 l 0.31763,-0.17097 0.43674,0.27724 0.43675,0.27724 v 0.50382 0.50383 l -0.15451,0.0873 c -0.085,0.048 -0.42824,0.24092 -0.76279,0.4287 -0.33456,0.18779 -0.60319,0.3578 -0.59697,0.37779 0.0109,0.035 0.6894,0.4605 1.60516,1.00667 0.23995,0.14311 0.53034,0.32342 0.64531,0.40068 l 0.20904,0.14047 v 0.55724 0.55725 l -0.28175,0.11971 c -0.15497,0.0658 -0.41229,0.17569 -0.57184,0.24411 -0.15954,0.0684 -0.31496,0.12625 -0.34537,0.12851 -0.0454,0.003 -2.05354,-1.07997 -2.44982,-1.32161 -0.0627,-0.0382 -0.12628,-0.0696 -0.14127,-0.0697 -0.015,-8e-5 -0.0273,0.42252 -0.0273,0.93911 v 0.93924 l -0.33037,0.2467 c -0.38023,0.28394 -0.32573,0.28618 -0.78715,-0.0322 l -0.29951,-0.20668 -0.01,-1.44164 -0.009,-1.44164 -0.0909,-0.0468 c -0.05,-0.0257 -0.34447,-0.18351 -0.6544,-0.35064 -1.00687,-0.54297 -1.11985,-0.60019 -1.14176,-0.57827 -0.0119,0.0119 -0.0216,0.44612 -0.0216,0.96497 v 0.94336 l -0.0874,-0.0573 c -0.0481,-0.0315 -0.17487,-0.1048 -0.28175,-0.16286 -0.10688,-0.0581 -0.25976,-0.14288 -0.33974,-0.18849 -0.63584,-0.36255 -1.10717,-0.61768 -1.1411,-0.61768 -0.0287,0 -0.0405,0.28401 -0.0405,0.9775 v 0.9775 l 0.33629,0.1914 c 0.39743,0.2262 0.44666,0.25443 0.90889,0.52115 0.19495,0.11249 0.51397,0.29599 0.70893,0.40776 0.19496,0.11178 0.37531,0.22045 0.40078,0.24149 0.0348,0.0287 0.0438,0.18279 0.0364,0.61894 l -0.01,0.58068 -0.37369,0.19782 -0.37369,0.19782 -0.78836,-0.472 c -0.4336,-0.25961 -0.80123,-0.46406 -0.81696,-0.45434 -0.0157,0.01 -0.029,0.68337 -0.0294,1.49701 l -8.2e-4,1.47934 -0.17187,0.12045 c -0.61443,0.4306 -0.73772,0.51547 -0.74519,0.51296 -0.005,-0.002 -0.13107,-0.0905 -0.28104,-0.19764 z m 1.41275,-10.10632 c 0.0941,-0.17996 0.25557,-0.4831 0.35888,-0.67364 l 0.18785,-0.34643 -0.30761,-0.58063 c -0.16918,-0.31935 -0.3431,-0.64957 -0.38648,-0.73383 l -0.0789,-0.15319 -0.78763,-0.0104 c -0.4332,-0.006 -0.8147,-0.005 -0.84778,10e-4 -0.0331,0.006 -0.0991,0.0801 -0.14667,0.1636 -0.0476,0.0835 -0.22753,0.39917 -0.39987,0.70147 -0.17235,0.30229 -0.31337,0.57073 -0.31337,0.59652 0,0.039 0.40385,0.70028 0.76029,1.24486 l 0.0897,0.13698 0.85028,-0.01 0.85029,-0.01 z"
     id="path4534"
     inkscape:connector-curvature="0" />
</svg>
