<?xml version="1.0" encoding="UTF-8" standalone="no"?>
<svg
   xmlns:dc="http://purl.org/dc/elements/1.1/"
   xmlns:cc="http://creativecommons.org/ns#"
   xmlns:rdf="http://www.w3.org/1999/02/22-rdf-syntax-ns#"
   xmlns:svg="http://www.w3.org/2000/svg"
   xmlns="http://www.w3.org/2000/svg"
   xmlns:sodipodi="http://sodipodi.sourceforge.net/DTD/sodipodi-0.dtd"
   xmlns:inkscape="http://www.inkscape.org/namespaces/inkscape"
   height="32"
   width="32"
   version="1"
   id="svg14"
   sodipodi:docname="simplenote.svg"
   inkscape:version="0.92.1 r">
  <metadata
     id="metadata20">
    <rdf:RDF>
      <cc:Work
         rdf:about="">
        <dc:format>image/svg+xml</dc:format>
        <dc:type
           rdf:resource="http://purl.org/dc/dcmitype/StillImage" />
      </cc:Work>
    </rdf:RDF>
  </metadata>
  <defs
     id="defs18" />
  <sodipodi:namedview
     pagecolor="#ffffff"
     bordercolor="#666666"
     borderopacity="1"
     objecttolerance="10"
     gridtolerance="10"
     guidetolerance="10"
     inkscape:pageopacity="0"
     inkscape:pageshadow="2"
     inkscape:window-width="640"
     inkscape:window-height="480"
     id="namedview16"
     showgrid="false"
     inkscape:zoom="6.7175144"
     inkscape:cx="26.908888"
     inkscape:cy="28.713323"
     inkscape:current-layer="svg14" />
  <rect
     style="opacity:1;fill:#cccccc;fill-opacity:1;fill-rule:evenodd;stroke:none;stroke-width:1.03534329;stroke-linecap:round;stroke-linejoin:bevel;stroke-miterlimit:4;stroke-dasharray:none;stroke-dashoffset:0;stroke-opacity:1"
     id="rect4497-3"
     width="28.203388"
     height="28.203388"
     x="1.8983059"
     y="1.8983059"
     ry="5.575182"
     inkscape:export-filename="/home/ramil/3.png"
     inkscape:export-xdpi="71"
     inkscape:export-ydpi="71" />
  <path
     style="fill:#4893d5;stroke-width:0.99999994"
     inkscape:connector-curvature="0"
     id="path8"
     d="M 10.186852,5.7953425 C 6.3274282,7.8600569 4.0008727,11.58826 3.9945098,15.757307 c 0.00814,5.742375 4.5651103,10.764417 10.6154272,11.622333 0.433796,0.04305 0.565245,0.02399 0.884617,0 2.931395,0 5.307773,-2.230031 5.307773,-4.980982 -0.0026,-1.887993 -1.135916,-3.573933 -2.861162,-4.414321 0,0 -1.905762,-0.819607 -2.748911,-1.244376 -1.221445,-0.57312 -2.565826,-1.080198 -3.845978,-1.814398 -0.640088,-0.367082 -1.286755,-0.79568 -1.8677032,-1.457714 -0.5809125,-0.661974 -1.0608583,-1.653884 -1.0608583,-2.691524 0,-2.0130906 0.7754504,-3.5472798 1.7692575,-4.9809825 z" />
  <path
     style="fill:#4893d5;stroke-width:0.99999994"
     inkscape:connector-curvature="0"
     id="path10"
     d="m 21.813026,26.204776 c 3.859785,-2.064954 6.18646,-5.792677 6.192463,-9.962204 -0.0084,-5.742255 -4.56451,-10.764176 -10.615307,-11.6222127 -0.433796,-0.043052 -0.565245,-0.023987 -0.884617,0 -2.931395,0 -5.307774,2.2300309 -5.307774,4.9809825 0.0026,1.8879922 1.135917,3.5739322 2.861163,4.4143212 0,0 1.905761,0.819606 2.748911,1.244375 1.221444,0.573121 2.565826,1.080199 3.845978,1.814399 0.640087,0.367081 1.286755,0.795679 1.867703,1.457713 0.580913,0.661974 1.060858,1.653885 1.060858,2.691525 0,2.01309 -0.77545,3.547279 -1.769258,4.980982 z" />
</svg>
