<?xml version="1.0" encoding="UTF-8" standalone="no"?>
<svg
   xmlns:dc="http://purl.org/dc/elements/1.1/"
   xmlns:cc="http://creativecommons.org/ns#"
   xmlns:rdf="http://www.w3.org/1999/02/22-rdf-syntax-ns#"
   xmlns:svg="http://www.w3.org/2000/svg"
   xmlns="http://www.w3.org/2000/svg"
   xmlns:sodipodi="http://sodipodi.sourceforge.net/DTD/sodipodi-0.dtd"
   xmlns:inkscape="http://www.inkscape.org/namespaces/inkscape"
   height="32"
   width="32"
   version="1"
   id="svg14"
   sodipodi:docname="chrome-damddgdogmdhjjbgpfpgmkdgdgjhohef-Default.svg"
   inkscape:version="0.92.1 r">
  <metadata
     id="metadata20">
    <rdf:RDF>
      <cc:Work
         rdf:about="">
        <dc:format>image/svg+xml</dc:format>
        <dc:type
           rdf:resource="http://purl.org/dc/dcmitype/StillImage" />
      </cc:Work>
    </rdf:RDF>
  </metadata>
  <defs
     id="defs18" />
  <sodipodi:namedview
     pagecolor="#ffffff"
     bordercolor="#666666"
     borderopacity="1"
     objecttolerance="10"
     gridtolerance="10"
     guidetolerance="10"
     inkscape:pageopacity="0"
     inkscape:pageshadow="2"
     inkscape:window-width="1680"
     inkscape:window-height="963"
     id="namedview16"
     showgrid="false"
     inkscape:zoom="7.375"
     inkscape:cx="-35.38983"
     inkscape:cy="16"
     inkscape:window-x="0"
     inkscape:window-y="0"
     inkscape:window-maximized="1"
     inkscape:current-layer="svg14" />
  <rect
     style="opacity:1;fill:#2d9cf2;fill-opacity:1;fill-rule:evenodd;stroke:none;stroke-width:1.03534329;stroke-linecap:round;stroke-linejoin:bevel;stroke-miterlimit:4;stroke-dasharray:none;stroke-dashoffset:0;stroke-opacity:1"
     id="rect4497-3"
     width="28.203388"
     height="28.203388"
     x="1.8983059"
     y="1.8983059"
     ry="5.575182" />
  <path
     style="fill:#2d9cf2"
     inkscape:connector-curvature="0"
     d="M 21.52448,5.9426605"
     id="path8" />
  <path
     d="m 11.67382,7.1421866 c -2.837172,0 -5.131339,2.2964691 -5.131339,5.1300024 0,0.875379 0.221992,1.722385 0.608481,2.444212 -0.128104,0.611232 -0.198706,1.233354 -0.198706,1.881747 0,4.993879 4.051203,9.044957 9.05304,9.044957 0.645603,0 1.270844,-0.0684 1.879311,-0.196463 0.724865,0.391819 1.561195,0.610697 2.441437,0.610697 2.837307,0 5.131474,-2.296199 5.131474,-5.130137 0,-0.881189 -0.221992,-1.722385 -0.611393,-2.447116 0.128099,-0.608321 0.196518,-1.233355 0.196518,-1.878844 0,-4.990972 -4.051204,-9.0449559 -9.04696,-9.0449559 -0.648514,0 -1.273749,0.065489 -1.882216,0.1964705 -0.722028,-0.3863883 -1.569235,-0.611232 -2.444882,-0.611232"
     id="path2"
     style="fill:#ffffff;stroke-width:0.67555046"
     inkscape:connector-curvature="0" />
  <path
     d="m 16.171089,11.328741 c 2.666462,0 4.042556,1.408659 4.042556,2.235398 0,0.829509 -0.396912,0.953608 -1.051357,0.953608 -1.27179,0 -0.751212,-1.532758 -3.133402,-1.532758 -0.788299,0 -1.773048,0.360616 -1.773048,1.281791 0,0.74054 0.872135,1.012922 2.411645,1.392851 2.320513,0.621508 4.061404,1.241664 4.061404,3.372354 0,2.068536 -1.684145,3.105509 -4.351215,3.105509 -2.666462,0 -4.369454,-1.594842 -4.369454,-2.421582 0,-0.826739 0.313819,-1.034269 0.968264,-1.034269 1.273817,0 1.10216,1.739613 3.484282,1.739613 0.791069,0 1.958487,-0.360616 1.958487,-1.284561 0,-0.737769 -0.0618,-0.9936 -1.751768,-1.449329 -1.805068,-0.245225 -4.720741,-0.832279 -4.720741,-3.084567 0,-2.068469 1.561196,-3.272303 4.22759,-3.272303"
     id="path4"
     style="opacity:1;fill:#2d9cf2;fill-opacity:1;stroke-width:0.67555046"
     inkscape:connector-curvature="0" />
</svg>
