<?xml version="1.0" encoding="UTF-8" standalone="no"?>
<svg
   xmlns:dc="http://purl.org/dc/elements/1.1/"
   xmlns:cc="http://creativecommons.org/ns#"
   xmlns:rdf="http://www.w3.org/1999/02/22-rdf-syntax-ns#"
   xmlns:svg="http://www.w3.org/2000/svg"
   xmlns="http://www.w3.org/2000/svg"
   xmlns:sodipodi="http://sodipodi.sourceforge.net/DTD/sodipodi-0.dtd"
   xmlns:inkscape="http://www.inkscape.org/namespaces/inkscape"
   height="32"
   width="32"
   version="1"
   id="svg12"
   sodipodi:docname="songkick.svg"
   inkscape:version="0.92.1 r">
  <metadata
     id="metadata18">
    <rdf:RDF>
      <cc:Work
         rdf:about="">
        <dc:format>image/svg+xml</dc:format>
        <dc:type
           rdf:resource="http://purl.org/dc/dcmitype/StillImage" />
      </cc:Work>
    </rdf:RDF>
  </metadata>
  <defs
     id="defs16" />
  <sodipodi:namedview
     pagecolor="#ffffff"
     bordercolor="#666666"
     borderopacity="1"
     objecttolerance="10"
     gridtolerance="10"
     guidetolerance="10"
     inkscape:pageopacity="0"
     inkscape:pageshadow="2"
     inkscape:window-width="640"
     inkscape:window-height="480"
     id="namedview14"
     showgrid="false"
     inkscape:zoom="9.5"
     inkscape:cx="-24.210526"
     inkscape:cy="16"
     inkscape:current-layer="svg12" />
  <rect
     style="opacity:1;fill:#e73c4f;fill-opacity:1;fill-rule:evenodd;stroke:none;stroke-width:1.03534329;stroke-linecap:round;stroke-linejoin:bevel;stroke-miterlimit:4;stroke-dasharray:none;stroke-dashoffset:0;stroke-opacity:1"
     id="rect4497-6"
     width="28.203388"
     height="28.203388"
     x="1.8983059"
     y="1.8983059"
     ry="5.575182" />
  <path
     d="m 16.802616,1.9210806 0.0078,9.9863014 0.01367,10.986 h 3.0293 l 0.0078,-2.8887 c 0.0055,-2.2874 0.01267,-2.8868 0.03906,-2.877 0.01835,0.0071 0.51032,0.88269 1.0957,1.9453 0.58538,1.06261 1.1405,2.0517 1.2305,2.1992 0.18612,0.30514 0.55138,0.72659 0.78906,0.9082 0.49744,0.38008 1.0157,0.57529 1.8164,0.68359 0.42868,0.058 1.8773,0.07873 1.9219,0.02734 0.01946,-0.02243 0.02621,-0.54474 0.02148,-1.6562 l -0.0078,-1.623 -0.53516,-0.01953 c -0.60662,-0.02221 -0.73819,-0.05061 -1.084,-0.24609 -0.26861,-0.15185 -0.57996,-0.48054 -0.81055,-0.85352 -0.08212,-0.13282 -0.49638,-0.87914 -0.91992,-1.6582 -0.74677,-1.3736 -0.76857,-1.4197 -0.72852,-1.4902 0.02271,-0.04003 0.95328,-1.5385 2.0684,-3.3301 1.1151,-1.7915 2.0352,-3.2755004 2.043,-3.2988004 0.01185,-0.03565 -0.27314,-0.04297 -1.7949,-0.04297 h -1.8125 l -1.6309,2.6211004 c -0.89784,1.4416 -1.6469,2.6262 -1.6641,2.6328 -0.02942,0.01133 -0.02954,-8.3455007 -0.01367,-11.9920014 -0.097,-5e-4 -0.19,-0.0118 -0.286,-0.0118 h -2.797 z m -6.7442,7.000001 c -0.3737001,0.0032 -0.7388001,0.0214 -0.9141001,0.0547 -1.441,0.2739 -2.4616,1.0483004 -3.0137,2.2893004 -0.17483,0.39306 -0.28182,0.77364 -0.34961,1.2363 -0.04515,0.30811 -0.04898,0.44072 -0.03711,0.94141 0.0097,0.40873 0.02709,0.66732 0.0625,0.86719 0.24196,1.3653 0.93416,2.2304 2.1387,2.6816 0.38873,0.14562 0.63157,0.20137 1.6719,0.375 0.5781001,0.09649 1.0188001,0.1829 1.1113001,0.2207 0.39791,0.1626 0.58322,0.45683 0.61719,0.97266 0.04181,0.63501 -0.26736,1.0696 -0.89062,1.25 -0.24992,0.07236 -0.7074801,0.11286 -1.0293001,0.0918 -1.0575,-0.07 -1.748,-0.33 -2.3458,-0.887 l -0.0703,-0.067 -0.9043,1.059 c -0.49826,0.58197 -0.90625,1.083 -0.90625,1.1113 0,0.07126 0.41795,0.49068 0.73828,0.74219 0.80854,0.63482 1.6666,0.93406 3.0273,1.0527 0.28585,0.02496 1.3398001,-0.01192 1.5840001,-0.05469 1.8306,-0.32056 3.0939,-1.4158 3.5078,-3.0449 0.19239,-0.75716 0.18808,-1.9016 -0.0098,-2.75 -0.145,-0.623 -0.334,-1.013 -0.701,-1.446 -0.384,-0.451 -0.714,-0.685 -1.293,-0.912 -0.391,-0.153 -0.719,-0.226 -1.7618,-0.396 -1.1121001,-0.183 -1.2444001,-0.229 -1.4981001,-0.506 -0.2875,-0.314 -0.3371,-0.732 -0.1445,-1.19 0.1362,-0.323 0.4141,-0.557 0.8145,-0.685 0.20906,-0.06684 1.0452001,-0.07327 1.3789001,-0.01172 0.44824,0.08266 0.86877,0.28724 1.168,0.57031 0.08701,0.08232 0.17314,0.15039 0.19141,0.15039 0.04959,0 1.7832,-2.0374 1.7832,-2.0957 0,-0.06766 -0.33496,-0.39948 -0.66016,-0.6543004 -0.627,-0.4917 -1.373,-0.7929 -2.302,-0.9279 -0.208,-0.0302 -0.5896,-0.0422 -0.9632,-0.0391 z"
     id="path10"
     inkscape:connector-curvature="0"
     style="fill:#ffffff" />
</svg>
