<?xml version="1.0" encoding="UTF-8" standalone="no"?>
<svg
   xmlns:dc="http://purl.org/dc/elements/1.1/"
   xmlns:cc="http://creativecommons.org/ns#"
   xmlns:rdf="http://www.w3.org/1999/02/22-rdf-syntax-ns#"
   xmlns:svg="http://www.w3.org/2000/svg"
   xmlns="http://www.w3.org/2000/svg"
   xmlns:sodipodi="http://sodipodi.sourceforge.net/DTD/sodipodi-0.dtd"
   xmlns:inkscape="http://www.inkscape.org/namespaces/inkscape"
   height="32"
   width="32"
   version="1"
   id="svg16"
   sodipodi:docname="deepin-voice-recorder.svg"
   inkscape:version="0.92.1 r">
  <metadata
     id="metadata22">
    <rdf:RDF>
      <cc:Work
         rdf:about="">
        <dc:format>image/svg+xml</dc:format>
        <dc:type
           rdf:resource="http://purl.org/dc/dcmitype/StillImage" />
      </cc:Work>
    </rdf:RDF>
  </metadata>
  <defs
     id="defs20" />
  <sodipodi:namedview
     pagecolor="#ffffff"
     bordercolor="#666666"
     borderopacity="1"
     objecttolerance="10"
     gridtolerance="10"
     guidetolerance="10"
     inkscape:pageopacity="0"
     inkscape:pageshadow="2"
     inkscape:window-width="1680"
     inkscape:window-height="955"
     id="namedview18"
     showgrid="false"
     inkscape:zoom="7.375"
     inkscape:cx="-10.711864"
     inkscape:cy="16"
     inkscape:window-x="0"
     inkscape:window-y="0"
     inkscape:window-maximized="1"
     inkscape:current-layer="svg16" />
  <rect
     style="opacity:1;fill:#f5685d;fill-opacity:1;fill-rule:evenodd;stroke:none;stroke-width:1.03534329;stroke-linecap:round;stroke-linejoin:bevel;stroke-miterlimit:4;stroke-dasharray:none;stroke-dashoffset:0;stroke-opacity:1"
     id="rect4497"
     width="28.203388"
     height="28.203388"
     x="1.8983059"
     y="1.8983059"
     ry="5.575182" />
  <g
     style="fill:#ffffff;enable-background:new"
     transform="translate(-337,423)"
     id="g10">
    <path
       style="color:#bebebe"
       d="m 353,-415 c -1.6621,0 -3,1.3379 -3,3 v 5 c 0,1.6621 1.3379,3 3,3 1.6621,0 3,-1.3379 3,-3 v -5 c 0,-1.6621 -1.3379,-3 -3,-3 z m -6,7 v 0.99999 c 0,2.9695 2.1624,5.4322 5,5.9062 v 2.0938 h 2 v -2.0938 c 2.8376,-0.47409 5,-2.9368 5,-5.9062 V -408 h -2 v 0.99999 c 0,2.2334 -1.7666,4 -4,4 -2.2334,0 -4,-1.7666 -4,-4 V -408 Z"
       id="path8"
       inkscape:connector-curvature="0" />
  </g>
</svg>
