<?xml version="1.0" encoding="UTF-8" standalone="no"?>
<svg
   xmlns:dc="http://purl.org/dc/elements/1.1/"
   xmlns:cc="http://creativecommons.org/ns#"
   xmlns:rdf="http://www.w3.org/1999/02/22-rdf-syntax-ns#"
   xmlns:svg="http://www.w3.org/2000/svg"
   xmlns="http://www.w3.org/2000/svg"
   xmlns:sodipodi="http://sodipodi.sourceforge.net/DTD/sodipodi-0.dtd"
   xmlns:inkscape="http://www.inkscape.org/namespaces/inkscape"
   height="32"
   viewBox="0 0 32 32"
   width="32"
   version="1.1"
   id="svg16"
   sodipodi:docname="sqliteman.svg"
   inkscape:version="0.92.1 r">
  <metadata
     id="metadata22">
    <rdf:RDF>
      <cc:Work
         rdf:about="">
        <dc:format>image/svg+xml</dc:format>
        <dc:type
           rdf:resource="http://purl.org/dc/dcmitype/StillImage" />
      </cc:Work>
    </rdf:RDF>
  </metadata>
  <defs
     id="defs20" />
  <sodipodi:namedview
     pagecolor="#ffffff"
     bordercolor="#666666"
     borderopacity="1"
     objecttolerance="10"
     gridtolerance="10"
     guidetolerance="10"
     inkscape:pageopacity="0"
     inkscape:pageshadow="2"
     inkscape:window-width="640"
     inkscape:window-height="480"
     id="namedview18"
     showgrid="false"
     inkscape:zoom="9.5"
     inkscape:cx="-4.1052632"
     inkscape:cy="16"
     inkscape:current-layer="svg16" />
  <rect
     style="opacity:1;fill:#007eff;fill-opacity:1;fill-rule:evenodd;stroke:none;stroke-width:1.03534329;stroke-linecap:round;stroke-linejoin:bevel;stroke-miterlimit:4;stroke-dasharray:none;stroke-dashoffset:0;stroke-opacity:1"
     id="rect4497-6"
     width="28.203388"
     height="28.203388"
     x="1.8983059"
     y="1.8983059"
     ry="5.575182" />
  <g
     id="g4508"
     transform="translate(39.263158,-2.368421)">
    <path
       inkscape:connector-curvature="0"
       id="path4"
       style="fill:#696969;fill-opacity:1;stroke-width:0.99999994"
       d="m -23.263158,18.368421 a 10.105263,5.0526316 0 0 0 -10.105263,5.052632 10.105263,5.0526316 0 0 0 10.105263,5.052631 10.105263,5.0526316 0 0 0 10.105263,-5.052631 10.105263,5.0526316 0 0 0 -10.105263,-5.052632 z" />
    <path
       inkscape:connector-curvature="0"
       id="path8"
       d="m -23.263158,13.315789 a 10.105263,5.0526316 0 0 0 -10.105263,5.052632 10.105263,5.0526316 0 0 0 10.105263,5.052632 10.105263,5.0526316 0 0 0 10.105263,-5.052632 10.105263,5.0526316 0 0 0 -10.105263,-5.052632 z"
       style="fill:#919191;fill-opacity:1;stroke-width:0.99999994" />
    <path
       inkscape:connector-curvature="0"
       id="path12"
       style="fill:#cccccc;fill-opacity:1;stroke-width:0.99999994"
       d="m -23.263158,8.263158 a 10.105263,5.0526316 0 0 0 -10.105263,5.052631 10.105263,5.0526316 0 0 0 10.105263,5.052632 10.105263,5.0526316 0 0 0 10.105263,-5.052632 10.105263,5.0526316 0 0 0 -10.105263,-5.052631 z" />
  </g>
</svg>
