<?xml version="1.0" encoding="UTF-8" standalone="no"?>
<svg
   xmlns:dc="http://purl.org/dc/elements/1.1/"
   xmlns:cc="http://creativecommons.org/ns#"
   xmlns:rdf="http://www.w3.org/1999/02/22-rdf-syntax-ns#"
   xmlns:svg="http://www.w3.org/2000/svg"
   xmlns="http://www.w3.org/2000/svg"
   xmlns:sodipodi="http://sodipodi.sourceforge.net/DTD/sodipodi-0.dtd"
   xmlns:inkscape="http://www.inkscape.org/namespaces/inkscape"
   height="32"
   viewBox="0 0 32 32"
   width="32"
   version="1.1"
   id="svg12"
   sodipodi:docname="starbound.svg"
   inkscape:version="0.92.1 r">
  <metadata
     id="metadata18">
    <rdf:RDF>
      <cc:Work
         rdf:about="">
        <dc:format>image/svg+xml</dc:format>
        <dc:type
           rdf:resource="http://purl.org/dc/dcmitype/StillImage" />
      </cc:Work>
    </rdf:RDF>
  </metadata>
  <defs
     id="defs16" />
  <sodipodi:namedview
     pagecolor="#ffffff"
     bordercolor="#666666"
     borderopacity="1"
     objecttolerance="10"
     gridtolerance="10"
     guidetolerance="10"
     inkscape:pageopacity="0"
     inkscape:pageshadow="2"
     inkscape:window-width="640"
     inkscape:window-height="480"
     id="namedview14"
     showgrid="false"
     inkscape:zoom="13.435029"
     inkscape:cx="12.151109"
     inkscape:cy="24.858993"
     inkscape:current-layer="svg12" />
  <rect
     style="opacity:1;fill:#7767c0;fill-opacity:1;fill-rule:evenodd;stroke:none;stroke-width:1.03534329;stroke-linecap:round;stroke-linejoin:bevel;stroke-miterlimit:4;stroke-dasharray:none;stroke-dashoffset:0;stroke-opacity:1"
     id="rect4497-6"
     width="28.203388"
     height="28.203388"
     x="1.8983059"
     y="1.8983059"
     ry="5.575182" />
  <path
     style="fill:#ffffff"
     d="m 18.72566,4.6143264 -1.49,2.2559 a 6.5,6.5 0 0 0 -0.844,-0.0635 6.5,6.5 0 0 0 -2.491,0.498 l -2.019,-1.79 0.543,2.6535 a 6.5,6.5 0 0 0 -1.414,1.5145 22,22 0 0 0 -7.6189998,-1.376 22,22 0 0 0 -1.5,0.075 v 1.0375 a 21.5,21.5 0 0 1 2,-0.1125 A 21.5,21.5 0 0 1 25.35166,29.806726 h 0.014 a 22,22 0 0 0 -4.074,-12.255 6.5,6.5 0 0 0 1.086,-1.728 l 2.726,-0.163 -2.277,-1.503 a 6.5,6.5 0 0 0 0.065,-0.851 6.5,6.5 0 0 0 -0.488,-2.463 l 1.799,-2.0269996 -2.657,0.5435 a 6.5,6.5 0 0 0 -2.658,-2.0495 z m -2.334,3.1924 a 5.5,5.5 0 0 1 5.5,5.4999996 5.5,5.5 0 0 1 -1.225,3.446 22,22 0 0 0 -8.718,-6.675 5.5,5.5 0 0 1 4.443,-2.2709996 z"
     id="path8"
     inkscape:connector-curvature="0" />
</svg>
