<?xml version="1.0" encoding="UTF-8" standalone="no"?>
<svg
   xmlns:dc="http://purl.org/dc/elements/1.1/"
   xmlns:cc="http://creativecommons.org/ns#"
   xmlns:rdf="http://www.w3.org/1999/02/22-rdf-syntax-ns#"
   xmlns:svg="http://www.w3.org/2000/svg"
   xmlns="http://www.w3.org/2000/svg"
   xmlns:sodipodi="http://sodipodi.sourceforge.net/DTD/sodipodi-0.dtd"
   xmlns:inkscape="http://www.inkscape.org/namespaces/inkscape"
   width="32"
   height="32"
   version="1.1"
   viewBox="0 0 32 32"
   id="svg28"
   sodipodi:docname="swatchbooker.svg"
   inkscape:version="0.92.1 r">
  <metadata
     id="metadata34">
    <rdf:RDF>
      <cc:Work
         rdf:about="">
        <dc:format>image/svg+xml</dc:format>
        <dc:type
           rdf:resource="http://purl.org/dc/dcmitype/StillImage" />
      </cc:Work>
    </rdf:RDF>
  </metadata>
  <defs
     id="defs32" />
  <sodipodi:namedview
     pagecolor="#ffffff"
     bordercolor="#666666"
     borderopacity="1"
     objecttolerance="10"
     gridtolerance="10"
     guidetolerance="10"
     inkscape:pageopacity="0"
     inkscape:pageshadow="2"
     inkscape:window-width="640"
     inkscape:window-height="480"
     id="namedview30"
     showgrid="false"
     inkscape:zoom="16"
     inkscape:cx="21.37186"
     inkscape:cy="16.267023"
     inkscape:current-layer="svg28" />
  <path
     style="opacity:1;fill:#cccccc;fill-opacity:1;fill-rule:evenodd;stroke:none;stroke-width:1.03534329;stroke-linecap:round;stroke-linejoin:bevel;stroke-miterlimit:4;stroke-dasharray:none;stroke-dashoffset:0;stroke-opacity:1"
     d="M 11.90625 6.53125 C 12.317631 5.9061518 12.810785 5.355967 13.417969 4.9902344 C 14.10324 4.5774664 14.883323 4.3376255 15.685547 4.2890625 C 16.648216 4.230787 17.643525 4.4468984 18.550781 4.9707031 C 19.155619 5.3199062 19.662362 5.7711628 20.060547 6.2890625 C 20.458732 6.8069622 20.748464 7.3911378 20.919922 8.0058594 C 21.09138 8.6205809 21.143703 9.2665814 21.068359 9.90625 C 21.00484 10.445531 20.797005 10.970533 20.544922 11.480469 C 21.351229 11.087016 22.206081 10.846875 23.052734 10.914062 C 23.847868 10.977163 24.622255 11.233118 25.308594 11.662109 C 25.994932 12.0911 26.592793 12.693172 27.029297 13.449219 C 27.3785 14.054056 27.589982 14.69826 27.675781 15.345703 C 27.761581 15.993146 27.721493 16.643843 27.5625 17.261719 C 27.403507 17.879594 27.127359 18.464335 26.742188 18.980469 C 26.412806 19.421842 25.964581 19.777689 25.482422 20.095703 C 26.049399 20.13287 26.607343 20.215411 27.105469 20.429688 C 27.697094 20.684183 28.229167 21.052084 28.675781 21.507812 C 29.122396 21.963541 29.483016 22.505676 29.732422 23.109375 C 29.940983 23.614206 30.019496 24.179798 30.056641 24.753906 C 30.059978 24.674327 30.101562 24.607774 30.101562 24.527344 L 30.101562 7.4726562 C 30.101563 4.3840055 27.615995 1.8984375 24.527344 1.8984375 L 7.4726562 1.8984375 C 7.3922257 1.8984375 7.3256731 1.9400216 7.2460938 1.9433594 C 7.8202019 1.9805107 8.3857936 2.0589864 8.890625 2.2675781 C 9.494324 2.5170211 10.036459 2.8775551 10.492188 3.3242188 C 10.947916 3.7708824 11.315817 4.3028693 11.570312 4.8945312 C 11.786371 5.3968325 11.870719 5.9592386 11.90625 6.53125 z "
     id="path4580" />
  <rect
     style="opacity:1;fill:#cccccc;fill-opacity:1;fill-rule:evenodd;stroke:none;stroke-width:1.03534329;stroke-linecap:round;stroke-linejoin:bevel;stroke-miterlimit:4;stroke-dasharray:none;stroke-dashoffset:0;stroke-opacity:1"
     id="rect4497-3-3-2"
     width="28.203388"
     height="28.203388"
     x="1.8983059"
     y="1.8983059"
     ry="5.575182" />
  <path
     style="opacity:1;fill:#ffffff;fill-opacity:1;fill-rule:evenodd;stroke:none;stroke-width:1.03534329;stroke-linecap:round;stroke-linejoin:bevel;stroke-miterlimit:4;stroke-dasharray:none;stroke-dashoffset:0;stroke-opacity:1"
     d="m 6.9239328,22.834608 a 2.2409852,2.2409852 0 0 0 -0.1584066,0.0066 2.2409852,2.2409852 0 0 0 -0.2235054,0.02821 2.2409852,2.2409852 0 0 0 -0.2191654,0.04774 2.2409852,2.2409852 0 0 0 -0.2126557,0.07161 2.2409852,2.2409852 0 0 0 -0.2039757,0.09114 2.2409852,2.2409852 0 0 0 -0.1931259,0.110668 2.2409852,2.2409852 0 0 0 -0.1822762,0.130198 2.2409852,2.2409852 0 0 0 -0.1692566,0.147556 2.2409852,2.2409852 0 0 0 -0.1518968,0.164917 2.2409852,2.2409852 0 0 0 -0.1367072,0.177936 2.2409852,2.2409852 0 0 0 -0.1171775,0.190956 2.2409852,2.2409852 0 0 0 -0.097648,0.201807 2.2409852,2.2409852 0 0 0 -0.075948,0.210485 2.2409852,2.2409852 0 0 0 -0.054249,0.216995 2.2409852,2.2409852 0 0 0 -0.034719,0.221336 2.2409852,2.2409852 0 0 0 -0.010855,0.223505 2.2409852,2.2409852 0 0 0 0.00651,0.158407 2.2409852,2.2409852 0 0 0 0.026039,0.223505 2.2409852,2.2409852 0 0 0 0.049909,0.216995 2.2409852,2.2409852 0 0 0 0.069438,0.212657 2.2409852,2.2409852 0 0 0 0.091138,0.206145 2.2409852,2.2409852 0 0 0 0.1128377,0.193126 2.2409852,2.2409852 0 0 0 0.1301973,0.182276 2.2409852,2.2409852 0 0 0 0.1475569,0.169257 2.2409852,2.2409852 0 0 0 0.1627467,0.151897 2.2409852,2.2409852 0 0 0 0.1801061,0.136707 2.2409852,2.2409852 0 0 0 0.1909561,0.117177 2.2409852,2.2409852 0 0 0 0.2018059,0.09548 2.2409852,2.2409852 0 0 0 0.2104856,0.07812 2.2409852,2.2409852 0 0 0 0.2169954,0.05425 2.2409852,2.2409852 0 0 0 0.2213354,0.03472 2.2409852,2.2409852 0 0 0 0.2235054,0.01089 2.2409852,2.2409852 0 0 0 0.1584066,-0.0066 2.2409852,2.2409852 0 0 0 0.2213355,-0.02604 2.2409852,2.2409852 0 0 0 0.2191654,-0.04991 2.2409852,2.2409852 0 0 0 0.2126556,-0.06944 2.2409852,2.2409852 0 0 0 0.2039804,-0.09117 2.2409852,2.2409852 0 0 0 0.195296,-0.112837 2.2409852,2.2409852 0 0 0 0.1822762,-0.130198 2.2409852,2.2409852 0 0 0 0.1670865,-0.147556 2.2409852,2.2409852 0 0 0 0.1540668,-0.162747 2.2409852,2.2409852 0 0 0 0.1345372,-0.180106 2.2409852,2.2409852 0 0 0 0.1171776,-0.190956 2.2409852,2.2409852 0 0 0 0.097648,-0.201806 2.2409852,2.2409852 0 0 0 0.075948,-0.210486 2.2409852,2.2409852 0 0 0 0.056418,-0.216996 2.2409852,2.2409852 0 0 0 0.03255,-0.221335 2.2409852,2.2409852 0 0 0 0.010855,-0.223505 2.2409852,2.2409852 0 0 0 -0.00434,-0.158407 2.2409852,2.2409852 0 0 0 -0.02821,-0.221335 A 2.2409852,2.2409852 0 0 0 9.083038,24.477263 2.2409852,2.2409852 0 0 0 9.0114295,24.264608 2.2409852,2.2409852 0 0 0 8.9202913,24.060632 2.2409852,2.2409852 0 0 0 8.8096237,23.865336 2.2409852,2.2409852 0 0 0 8.6794263,23.68306 2.2409852,2.2409852 0 0 0 8.5318695,23.515973 2.2409852,2.2409852 0 0 0 8.3669528,23.361906 2.2409852,2.2409852 0 0 0 8.1890166,23.227369 2.2409852,2.2409852 0 0 0 7.9980605,23.110192 2.2409852,2.2409852 0 0 0 7.7962548,23.012544 2.2409852,2.2409852 0 0 0 7.585769,22.936596 2.2409852,2.2409852 0 0 0 7.3687737,22.880176 2.2409852,2.2409852 0 0 0 7.1474382,22.847627 2.2409852,2.2409852 0 0 0 6.9239328,22.834608 Z"
     id="path4565"
     inkscape:connector-curvature="0" />
  <path
     style="opacity:1;fill:#8e8e8e;fill-opacity:1;fill-rule:evenodd;stroke:none;stroke-width:1.03534329;stroke-linecap:round;stroke-linejoin:bevel;stroke-miterlimit:4;stroke-dasharray:none;stroke-dashoffset:0;stroke-opacity:1"
     d="M 2.8085938 22.289062 C 2.7304133 22.406975 2.5771028 22.471882 2.5097656 22.595703 C 2.4713421 22.666357 2.4879796 22.755748 2.453125 22.828125 C 2.5499417 22.632494 2.6885504 22.468813 2.8085938 22.289062 z "
     id="path4574" />
  <path
     style="opacity:1;fill:#e74949;fill-opacity:1;fill-rule:evenodd;stroke:none;stroke-width:1.03534329;stroke-linecap:round;stroke-linejoin:bevel;stroke-miterlimit:4;stroke-dasharray:none;stroke-dashoffset:0;stroke-opacity:1"
     d="M 25.482422 20.095703 C 25.964581 19.777689 26.412806 19.421842 26.742188 18.980469 C 27.12736 18.464335 27.403507 17.879594 27.5625 17.261719 C 27.721493 16.643843 27.761581 15.993146 27.675781 15.345703 C 27.589982 14.69826 27.3785 14.054056 27.029297 13.449219 C 26.592793 12.693172 25.994932 12.0911 25.308594 11.662109 C 24.622255 11.233118 23.847868 10.977162 23.052734 10.914062 C 22.098574 10.838342 21.115673 11.039405 20.226562 11.552734 L 4.3300781 20.728516 C 4.2155146 20.794659 4.1752267 20.922343 4.0683594 20.996094 C 4.3427759 20.803257 4.5834094 20.563521 4.8945312 20.429688 C 5.4861563 20.175192 6.1378276 20.033203 6.8222656 20.033203 L 25.177734 20.033203 C 25.285901 20.033203 25.375999 20.088727 25.482422 20.095703 z "
     id="path4572" />
  <path
     style="opacity:1;fill:#4d4e99;fill-opacity:1;fill-rule:evenodd;stroke:none;stroke-width:1.03534329;stroke-linecap:round;stroke-linejoin:bevel;stroke-miterlimit:4;stroke-dasharray:none;stroke-dashoffset:0;stroke-opacity:1"
     d="M 20.544922 11.480469 C 20.797005 10.970533 21.00484 10.445531 21.068359 9.90625 C 21.143703 9.2665814 21.09138 8.6205809 20.919922 8.0058594 C 20.748464 7.3911378 20.458732 6.8069622 20.060547 6.2890625 C 19.662362 5.7711628 19.155619 5.3199062 18.550781 4.9707031 C 17.643525 4.4468984 16.648216 4.230787 15.685547 4.2890625 C 14.883323 4.3376255 14.10324 4.5774664 13.417969 4.9902344 C 12.732698 5.4030024 12.140665 5.9895428 11.712891 6.7304688 L 2.6171875 22.486328 C 2.6866784 22.424713 2.7584055 22.364757 2.8085938 22.289062 C 2.982616 22.028485 3.1063336 21.730145 3.3242188 21.507812 C 3.5359688 21.291741 3.8209493 21.169953 4.0683594 20.996094 C 4.1752267 20.922343 4.2155146 20.794659 4.3300781 20.728516 L 20.226562 11.552734 C 20.32674 11.494897 20.442539 11.530429 20.544922 11.480469 z "
     id="path4577" />
  <path
     style="opacity:1;fill:#4f4f4f;fill-opacity:1;fill-rule:evenodd;stroke:none;stroke-width:1.03534329;stroke-linecap:round;stroke-linejoin:bevel;stroke-miterlimit:4;stroke-dasharray:none;stroke-dashoffset:0;stroke-opacity:1"
     d="M 11.90625 6.53125 C 11.870719 5.9592386 11.786371 5.3968325 11.570312 4.8945312 C 11.315817 4.3028693 10.947916 3.7708824 10.492188 3.3242188 C 10.036459 2.8775551 9.494324 2.5170211 8.890625 2.2675781 C 8.3857936 2.0589864 7.8202019 1.9805107 7.2460938 1.9433594 C 4.2697083 2.0681968 1.8984375 4.4644361 1.8984375 7.4726562 L 1.8984375 24.527344 C 1.8984375 24.607774 1.9400216 24.674327 1.9433594 24.753906 C 1.9805042 24.179798 2.0590173 23.614206 2.2675781 23.109375 C 2.3113756 23.003361 2.4026049 22.930207 2.453125 22.828125 C 2.4879796 22.755748 2.4713421 22.666357 2.5097656 22.595703 C 2.5338755 22.551369 2.5784293 22.520694 2.6171875 22.486328 L 11.712891 6.7304688 C 11.761636 6.6460394 11.853344 6.6116413 11.90625 6.53125 z "
     id="rect4497-3-3" />
  <path
     style="opacity:1;fill:#ffc255;fill-opacity:1;fill-rule:evenodd;stroke:none;stroke-width:1.03534329;stroke-linecap:round;stroke-linejoin:bevel;stroke-miterlimit:4;stroke-dasharray:none;stroke-dashoffset:0;stroke-opacity:1"
     d="m 30.11633,24.752773 c -0.03728,-0.576182 -0.116076,-1.143817 -0.32539,-1.650472 -0.250307,-0.60588 -0.61223,-1.149973 -1.060458,-1.607349 -0.448228,-0.457374 -0.982223,-0.826604 -1.575985,-1.082019 -0.593763,-0.255415 -1.247789,-0.397917 -1.9347,-0.397917 H 6.7980176 c -0.6869106,0 -1.340936,0.142502 -1.9346985,0.397917 -0.5937623,0.255415 -1.1277576,0.624645 -1.5759852,1.082019 -0.4482279,0.457376 -0.810151,1.001469 -1.060458,1.607349 -0.2093142,0.506655 -0.288111,1.07429 -0.32539,1.650472 0.1252885,2.987139 2.5301842,5.366976 5.5492719,5.366975 H 24.567058 c 3.019087,10e-7 5.423983,-2.379836 5.549272,-5.366975 z M 6.899947,23.051337 a 2.0243445,2.0243445 0 0 1 0.2018987,0.01176 2.0243445,2.0243445 0 0 1 0.1999385,0.02941 2.0243445,2.0243445 0 0 1 0.1960179,0.05096 2.0243445,2.0243445 0 0 1 0.1901377,0.06861 2.0243445,2.0243445 0 0 1 0.1822968,0.08821 2.0243445,2.0243445 0 0 1 0.1724959,0.105849 2.0243445,2.0243445 0 0 1 0.1607348,0.121531 2.0243445,2.0243445 0 0 1 0.1489738,0.139173 2.0243445,2.0243445 0 0 1 0.1332922,0.150934 2.0243445,2.0243445 0 0 1 0.117611,0.164655 2.0243445,2.0243445 0 0 1 0.099969,0.176416 2.0243445,2.0243445 0 0 1 0.082327,0.184257 2.0243445,2.0243445 0 0 1 0.064686,0.192098 2.0243445,2.0243445 0 0 1 0.043124,0.197979 2.0243445,2.0243445 0 0 1 0.025483,0.199938 2.0243445,2.0243445 0 0 1 0.00392,0.143093 2.0243445,2.0243445 0 0 1 -0.00981,0.201899 2.0243445,2.0243445 0 0 1 -0.029403,0.199938 2.0243445,2.0243445 0 0 1 -0.050964,0.196018 2.0243445,2.0243445 0 0 1 -0.068606,0.190138 2.0243445,2.0243445 0 0 1 -0.088209,0.182297 2.0243445,2.0243445 0 0 1 -0.1058498,0.172496 2.0243445,2.0243445 0 0 1 -0.1215312,0.162695 2.0243445,2.0243445 0 0 1 -0.1391728,0.147014 2.0243445,2.0243445 0 0 1 -0.1509339,0.133292 2.0243445,2.0243445 0 0 1 -0.1646552,0.117611 2.0243445,2.0243445 0 0 1 -0.1764164,0.101929 2.0243445,2.0243445 0 0 1 -0.1842569,0.08233 2.0243445,2.0243445 0 0 1 -0.1920978,0.06273 2.0243445,2.0243445 0 0 1 -0.1979782,0.04508 2.0243445,2.0243445 0 0 1 -0.1999385,0.02352 2.0243445,2.0243445 0 0 1 -0.1430932,0.0059 2.0243445,2.0243445 0 0 1 -0.201898,-0.0098 A 2.0243445,2.0243445 0 0 1 6.49811,27.059906 2.0243445,2.0243445 0 0 1 6.3020919,27.010901 2.0243445,2.0243445 0 0 1 6.1119544,26.940335 2.0243445,2.0243445 0 0 1 5.9296575,26.854087 2.0243445,2.0243445 0 0 1 5.7571615,26.748238 2.0243445,2.0243445 0 0 1 5.5944666,26.624746 2.0243445,2.0243445 0 0 1 5.447453,26.487534 2.0243445,2.0243445 0 0 1 5.3141607,26.334639 2.0243445,2.0243445 0 0 1 5.1965499,26.169985 2.0243445,2.0243445 0 0 1 5.0946205,25.995529 2.0243445,2.0243445 0 0 1 5.0122931,25.809311 2.0243445,2.0243445 0 0 1 4.9495673,25.617213 2.0243445,2.0243445 0 0 1 4.904483,25.421195 2.0243445,2.0243445 0 0 1 4.880961,25.219296 a 2.0243445,2.0243445 0 0 1 -0.00588,-0.143093 2.0243445,2.0243445 0 0 1 0.00981,-0.201898 2.0243445,2.0243445 0 0 1 0.031363,-0.199939 2.0243445,2.0243445 0 0 1 0.049004,-0.196018 2.0243445,2.0243445 0 0 1 0.068606,-0.190137 2.0243445,2.0243445 0 0 1 0.088209,-0.182297 2.0243445,2.0243445 0 0 1 0.1058498,-0.172496 2.0243445,2.0243445 0 0 1 0.1234914,-0.160735 2.0243445,2.0243445 0 0 1 0.1372126,-0.148974 2.0243445,2.0243445 0 0 1 0.1528942,-0.133292 2.0243445,2.0243445 0 0 1 0.1646552,-0.117611 2.0243445,2.0243445 0 0 1 0.174456,-0.09997 2.0243445,2.0243445 0 0 1 0.184257,-0.08233 2.0243445,2.0243445 0 0 1 0.1920978,-0.06468 2.0243445,2.0243445 0 0 1 0.1979781,-0.04312 2.0243445,2.0243445 0 0 1 0.2018987,-0.02548 2.0243445,2.0243445 0 0 1 0.1430931,-0.0059 z"
     id="path4569"
     inkscape:connector-curvature="0" />
</svg>
