<?xml version="1.0" encoding="UTF-8" standalone="no"?>
<svg
   xmlns:dc="http://purl.org/dc/elements/1.1/"
   xmlns:cc="http://creativecommons.org/ns#"
   xmlns:rdf="http://www.w3.org/1999/02/22-rdf-syntax-ns#"
   xmlns:svg="http://www.w3.org/2000/svg"
   xmlns="http://www.w3.org/2000/svg"
   xmlns:sodipodi="http://sodipodi.sourceforge.net/DTD/sodipodi-0.dtd"
   xmlns:inkscape="http://www.inkscape.org/namespaces/inkscape"
   height="32"
   width="32"
   version="1.1"
   viewBox="0 0 32 32"
   id="svg24"
   sodipodi:docname="synology-cloud-station-drive.svg"
   inkscape:version="0.92.1 r">
  <metadata
     id="metadata30">
    <rdf:RDF>
      <cc:Work
         rdf:about="">
        <dc:format>image/svg+xml</dc:format>
        <dc:type
           rdf:resource="http://purl.org/dc/dcmitype/StillImage" />
      </cc:Work>
    </rdf:RDF>
  </metadata>
  <defs
     id="defs28" />
  <sodipodi:namedview
     pagecolor="#ffffff"
     bordercolor="#666666"
     borderopacity="1"
     objecttolerance="10"
     gridtolerance="10"
     guidetolerance="10"
     inkscape:pageopacity="0"
     inkscape:pageshadow="2"
     inkscape:window-width="640"
     inkscape:window-height="480"
     id="namedview26"
     showgrid="false"
     inkscape:zoom="16.75"
     inkscape:cx="13.375523"
     inkscape:cy="11.902171"
     inkscape:current-layer="svg24" />
  <rect
     style="opacity:1;fill:#2293da;fill-opacity:1;fill-rule:evenodd;stroke:none;stroke-width:1.03534329;stroke-linecap:round;stroke-linejoin:bevel;stroke-miterlimit:4;stroke-dasharray:none;stroke-dashoffset:0;stroke-opacity:1"
     id="rect4497-3-3"
     width="28.203388"
     height="28.203388"
     x="1.8983059"
     y="1.8983059"
     ry="5.575182" />
  <path
     style="fill:#46b4ff;stroke-width:1"
     d="m 18.13157,8.5395038 a 4.9736641,4.9736641 0 0 0 -4.621177,3.1487852 3.5526173,3.5526173 0 0 0 -2.484057,-1.017215 3.5526173,3.5526173 0 0 0 -3.5526175,3.552617 3.5526173,3.5526173 0 0 0 0.346935,1.52374 4.2631407,4.2631407 0 0 0 -1.767982,3.449924 4.2631407,4.2631407 0 0 0 4.2631415,4.263141 h 9.947328 A 5.6841876,5.6841876 0 0 0 25.947329,17.776309 5.6841876,5.6841876 0 0 0 23.0525,12.826236 4.9736641,4.9736641 0 0 0 18.13157,8.5395038 Z"
     id="circle4"
     inkscape:connector-curvature="0" />
  <g
     id="g4517"
     transform="matrix(0.71052345,0,0,0.71052345,4.6316248,4.2852048)"
     style="stroke-width:1.40741313">
    <path
       id="path16"
       d="m 16,13 a 5,5 0 0 0 -4.894531,4 h 2.070312 A 3,3 0 0 1 16,15 a 3,3 0 0 1 2.826172,2 h 2.072266 A 5,5 0 0 0 16,13 Z m -4.898438,6 A 5,5 0 0 0 16,23 5,5 0 0 0 20.894531,19 H 18.824219 A 3,3 0 0 1 16,21 3,3 0 0 1 13.173828,19 Z"
       style="fill:#ffffff;stroke-width:1.40741313"
       inkscape:connector-curvature="0" />
    <path
       id="path18"
       d="m 21,17 h -4 l 4,-4 z"
       style="fill:#ffffff;stroke-width:1.40741313"
       inkscape:connector-curvature="0" />
    <path
       id="path20"
       d="m 11,18 h 4 l -4,4 z"
       style="fill:#ffffff;stroke-width:1.40741313"
       inkscape:connector-curvature="0" />
  </g>
</svg>
