<?xml version="1.0" encoding="UTF-8" standalone="no"?>
<svg
   xmlns:dc="http://purl.org/dc/elements/1.1/"
   xmlns:cc="http://creativecommons.org/ns#"
   xmlns:rdf="http://www.w3.org/1999/02/22-rdf-syntax-ns#"
   xmlns:svg="http://www.w3.org/2000/svg"
   xmlns="http://www.w3.org/2000/svg"
   xmlns:sodipodi="http://sodipodi.sourceforge.net/DTD/sodipodi-0.dtd"
   xmlns:inkscape="http://www.inkscape.org/namespaces/inkscape"
   height="32"
   width="32"
   version="1"
   id="svg38"
   sodipodi:docname="teslagrad.svg"
   inkscape:version="0.92.1 r">
  <metadata
     id="metadata44">
    <rdf:RDF>
      <cc:Work
         rdf:about="">
        <dc:format>image/svg+xml</dc:format>
        <dc:type
           rdf:resource="http://purl.org/dc/dcmitype/StillImage" />
      </cc:Work>
    </rdf:RDF>
  </metadata>
  <defs
     id="defs42" />
  <sodipodi:namedview
     pagecolor="#ffffff"
     bordercolor="#666666"
     borderopacity="1"
     objecttolerance="10"
     gridtolerance="10"
     guidetolerance="10"
     inkscape:pageopacity="0"
     inkscape:pageshadow="2"
     inkscape:window-width="640"
     inkscape:window-height="480"
     id="namedview40"
     showgrid="false"
     inkscape:zoom="8.375"
     inkscape:cx="-26.36934"
     inkscape:cy="31.333156"
     inkscape:current-layer="svg38" />
  <rect
     style="opacity:1;fill:#5f5a7c;fill-opacity:1;fill-rule:evenodd;stroke:none;stroke-width:1.03534329;stroke-linecap:round;stroke-linejoin:bevel;stroke-miterlimit:4;stroke-dasharray:none;stroke-dashoffset:0;stroke-opacity:1"
     id="rect4497-3-3"
     width="28.203388"
     height="28.203388"
     x="1.8983059"
     y="1.8983059"
     ry="5.575182" />
  <g
     id="g4543"
     transform="matrix(0.84647958,0,0,0.84647958,2.4562395,2.4561494)"
     style="stroke-width:1.18136346">
    <path
       id="path2"
       d="M 29,13.092 C 29,19.647 21.427,30 14.826,30 8.2252,30 2.57,19.654 3.026,12.629 3.3352,7.8558 9.1223,1.889 12.498,2.002 c 1.1329,0.11287 -0.90547,1.2762 0.45349,0.89724 1.0299,-0.28722 2.1161,-0.44084 3.2385,-0.44084 6.6007,0 12.81,4.0792 12.81,10.634 z"
       inkscape:connector-curvature="0"
       style="fill:#343054;stroke-width:1.18136346" />
    <path
       id="path4"
       d="m 26.035,13.982 c 0,4.9438 -1.344,11.159 -6.2939,14.353 -1.612,1.04 -3.293,1.665 -4.915,1.665 -1.328,0 -2.618,-0.419 -3.827,-1.145 C 6.1972,25.971 6.0218,18.362 6.3856,12.75 7.4474,7.0192 10.2191,7.3436 13.4251,6.4172 c 1.03,-0.2872 3.856,-0.3599 4.978,-0.3599 6.6007,0 7.6323,1.3699 7.6323,7.9244 z"
       inkscape:connector-curvature="0"
       style="fill:#2e2e37;stroke-width:1.18136346" />
    <path
       id="path6"
       d="m 23.09,18.379 c 0,2.5765 -2.3139,4.8995 -3.5426,7.1537 -1.4735,2.7033 -1.1451,3.277 -4.1265,3.277 -5.4674,0 -7.2732,-5.0563 -7.2732,-10.723 0,-2.9536 0.14355,-6.5928 2.0709,-8.4648 1.7702,-1.7194 4.7566,-2.1551 7.3741,-2.1551 2.9012,0 4.3272,2.1484 5.1767,3.4887 0.75139,1.1856 0.32057,4.7635 0.32057,7.4231 z"
       inkscape:connector-curvature="0"
       style="fill:#dabc9c;stroke-width:1.18136346" />
    <g
       id="g14"
       transform="matrix(0.68421,0,0,0.69999,-0.42105,-0.79975)"
       style="fill:#405168;stroke-width:1.18136346">
      <path
         id="path8"
         d="m 27.705,11.136 a 3.8893,8.4884 68.075 0 1 -6.4042,6.7784 3.8893,8.4884 68.075 0 1 -9.339,-0.42544 3.8893,8.4884 68.075 0 1 6.4042,-6.7784 3.8893,8.4884 68.075 0 1 9.339,0.42544 z"
         inkscape:connector-curvature="0"
         style="stroke-width:1.18136346" />
      <path
         id="path10"
         d="m 27.712,11.794 c 1.5661,-1.4759 5.7867,-2.4001 9.0122,0.98998 3.2255,3.39008 2.4864,12.487 0.92026,13.963 -1.5661,1.4759 -1.2146,-6.5667 -4.4401,-9.9568 -3.2255,-3.3901 -7.0585,-3.5206 -5.4923,-4.9965 z"
         inkscape:connector-curvature="0"
         style="stroke-width:1.18136346" />
      <path
         id="path12"
         d="m 12.744,16.563 c 2.0494,1.0756 2.3563,4.6803 0.68541,8.0514 -1.6708,3.3711 0.42329,8.8454 -1.6261,7.7698 -2.0494,-1.075 -4.3252,-6.833 -2.6543,-10.204 1.6713,-3.371 1.5453,-6.692 3.5953,-5.617 z"
         inkscape:connector-curvature="0"
         style="stroke-width:1.18136346" />
    </g>
    <path
       id="path16"
       d="m 17.588,7.0847 c 0.41071,0.88163 -0.80337,1.784 -3.2509,2.8496 -2.2401,0.9735 -4.6462,1.3528 -5.8327,0.91954 0.033403,0.07542 0.080494,0.14558 0.14097,0.21006 0.80307,0.82632 3.6369,0.54685 6.3291,-0.62416 2.6912,-1.1705 4.2219,-2.7888 3.4195,-3.615 -0.11931,-0.12018 -0.59566,0.33531 -0.80589,0.25988 z"
       inkscape:connector-curvature="0"
       style="opacity:0.1;fill:#ffffff;stroke-width:1.18136346" />
    <path
       id="path18"
       d="m 25.037,16.573 c 0.61,-0.212 0.166,-1.802 -0.523,-3.342 C 24.128,12.369 23.559,11.395 22.879,10.637 22.312,10.005 21.604,9.5088 20.887,9.0618 20.143,8.5976 19.468,8.2619 18.519,7.9294 18.59875,7.900028 19.10745,7.36229 19.20575,7.3583 20.13489,7.334724 18.27359,6.58466 19.4643,7.74578 c 0.45762,0.44624 3.2516,1.4685 4.3508,2.817 0.93595,1.1481 1.2754,2.7115 1.6411,4.159 0.16252,0.64332 1.1404,1.9554 0.23741,1.9785 -0.18944,0.0031 -0.40988,-0.03963 -0.6565,-0.12724 z"
       inkscape:connector-curvature="0"
       style="opacity:0.1;fill:#ffffff;stroke-width:1.18136346" />
    <path
       id="path20"
       d="m 28.031,11.788 c 0.3973,2.6069 -0.62492,6.3136 -1.873,8.6254 -1.8536,3.4334 -4.1977,5.6376 -6.7429,7.8758 0,0 3.6334,-6.5011 4.7216,-10.043 0.52284,-1.7021 1.0396,-3.5107 0.83618,-5.282 -0.153,-1.329 -0.584,-2.401 -1.559,-3.2972 -0.815,-0.7497 -2.022,-1.1983 -3.107,-1.3726 -1.179,-0.1893 -2.394,-0.222 -3.579,-0.082 -1.7959,0.21216 -3.6926,0.45106 -5.2505,1.3851 -0.84591,0.50713 -1.6331,1.2587 -2.0289,2.1734 -0.99503,2.2995 -0.91068,5.0392 -0.51771,7.5199 0.51143,3.2285 3.5101,9.9491 3.5101,9.9491 l -0.16971,-0.06994 c 0,0 -1.7102,-0.80572 -3.0807,-2.1928 -1.3388,-1.354 -2.3301,-3.275 -3.0157,-4.56 -1.3892,-2.604 -1.6022,-5.446 -1.1094,-8.366 0.3077,-2.813 1.5077,-5.1379 3.4103,-6.6671 3.7835,-2.7191 8.2465,-3.3547 12.396,-2.4039 3.6444,0.74182 6.5582,3.2362 7.1588,6.8086 z"
       inkscape:connector-curvature="0"
       style="fill:#7f90bc;stroke:#33374a;stroke-width:0.57177985;stroke-linecap:round;stroke-linejoin:round" />
    <rect
       id="rect22"
       x="10.47"
       y="19.59"
       width="4.0219998"
       height="0.75"
       ry="0.50599998"
       rx="0.49599999"
       transform="matrix(0.90028,-0.43531,0.41651,0.90913,0,0)"
       style="fill:#302100;stroke-width:1.18136346" />
    <rect
       id="rect24"
       x="13.86"
       y="9.0100002"
       width="3.579"
       height="0.72000003"
       transform="matrix(0.93556,0.35317,-0.34569,0.93835,0,0)"
       rx="0.442"
       ry="0.486"
       style="fill:#302100;stroke-width:1.18136346" />
    <ellipse
       id="ellipse26"
       cx="11.628"
       cy="16.778999"
       ry="2.4170001"
       rx="0.93400002"
       style="fill:#302100;stroke-width:1.18136346" />
    <ellipse
       id="ellipse28"
       cx="18.194"
       cy="16.422001"
       ry="2.5439999"
       transform="matrix(0.99995,-0.0097611,0.065733,0.99784,0,0)"
       rx="0.99199998"
       style="fill:#302100;stroke-width:1.18136346" />
    <path
       id="path30"
       d="m 17.267,19.066 c 0.3983,0.48354 1.4604,0.73638 1.6958,1.4414 0.20868,0.62519 -0.04446,1.3981 -0.43303,1.9297 -0.2246,0.30726 -0.60576,0.55295 -0.9848,0.57431 -0.5759,0.03244 -1.4133,-0.14598 -1.5841,-0.69903 -0.04541,-0.147 0.0956,-0.34816 0.24245,-0.39235 0.36184,-0.10889 0.66459,0.57865 1.0286,0.47741 0.64679,-0.17987 1.24,-1.0063 1.1323,-1.6714 -0.10027,-0.61932 -1.2091,-0.58121 -1.4912,-1.1411 -0.21418,-0.42511 -0.49053,-1.3404 -0.02425,-1.429 0.11895,0.26312 0.24174,0.68916 0.4183,0.91003 z"
       inkscape:connector-curvature="0"
       style="fill:#302100;stroke-width:1.18136346" />
    <rect
       id="rect32"
       x="21.219999"
       y="24.65"
       width="5.2519999"
       height="0.61299998"
       ry="0.414"
       rx="0.648"
       transform="matrix(0.99425,0.10712,-0.33376,0.94266,0,0)"
       style="fill:#302100;stroke-width:1.18136346" />
  </g>
</svg>
