<?xml version="1.0" encoding="UTF-8" standalone="no"?>
<svg
   xmlns:dc="http://purl.org/dc/elements/1.1/"
   xmlns:cc="http://creativecommons.org/ns#"
   xmlns:rdf="http://www.w3.org/1999/02/22-rdf-syntax-ns#"
   xmlns:svg="http://www.w3.org/2000/svg"
   xmlns="http://www.w3.org/2000/svg"
   xmlns:sodipodi="http://sodipodi.sourceforge.net/DTD/sodipodi-0.dtd"
   xmlns:inkscape="http://www.inkscape.org/namespaces/inkscape"
   height="32"
   width="32"
   version="1"
   id="svg6"
   sodipodi:docname="the-cave.svg"
   inkscape:version="0.92.1 r">
  <metadata
     id="metadata12">
    <rdf:RDF>
      <cc:Work
         rdf:about="">
        <dc:format>image/svg+xml</dc:format>
        <dc:type
           rdf:resource="http://purl.org/dc/dcmitype/StillImage" />
      </cc:Work>
    </rdf:RDF>
  </metadata>
  <defs
     id="defs10" />
  <sodipodi:namedview
     pagecolor="#ffffff"
     bordercolor="#666666"
     borderopacity="1"
     objecttolerance="10"
     gridtolerance="10"
     guidetolerance="10"
     inkscape:pageopacity="0"
     inkscape:pageshadow="2"
     inkscape:window-width="640"
     inkscape:window-height="480"
     id="namedview8"
     showgrid="false"
     inkscape:zoom="8.375"
     inkscape:cx="-6.6865672"
     inkscape:cy="16"
     inkscape:current-layer="svg6" />
  <rect
     style="opacity:1;fill:#8e8e8e;fill-opacity:1;fill-rule:evenodd;stroke:none;stroke-width:1.03534329;stroke-linecap:round;stroke-linejoin:bevel;stroke-miterlimit:4;stroke-dasharray:none;stroke-dashoffset:0;stroke-opacity:1"
     id="rect4497-3-3"
     width="28.203388"
     height="28.203388"
     x="1.8983059"
     y="1.8983059"
     ry="5.575182" />
  <path
     d="m 18.192531,21.319208 c -0.0061,-0.0062 -0.01053,-0.06449 -0.01066,-0.130441 -2.94e-4,-0.188858 -0.02992,-0.300064 -0.160054,-0.602175 -0.04312,-0.100016 -0.113322,-0.274341 -0.156087,-0.387397 -0.107635,-0.284534 -0.318081,-0.761824 -0.369531,-0.838021 -0.02347,-0.0348 -0.05912,-0.102384 -0.07929,-0.150218 -0.02015,-0.04786 -0.04924,-0.111869 -0.06464,-0.142302 -0.09731,-0.192085 -0.377692,-0.911098 -0.51487,-1.320327 -0.04082,-0.121756 -0.114342,-0.316155 -0.163403,-0.432005 -0.04906,-0.115849 -0.124801,-0.318576 -0.168304,-0.450502 -0.04354,-0.131926 -0.131728,-0.368009 -0.196043,-0.524621 -0.143482,-0.349383 -0.350989,-0.977933 -0.38637,-1.170216 -0.01438,-0.07827 -0.03298,-0.172141 -0.04127,-0.208611 -0.0083,-0.03645 -0.01503,-0.118293 -0.015,-0.181839 5.2e-5,-0.114212 0.03499,-0.375743 0.05432,-0.407478 0.02088,-0.03417 0.05259,-0.0135 0.114038,0.07452 0.168594,0.241541 0.286445,0.284976 0.869003,0.320228 0.323493,0.01959 0.500377,0.04745 0.594981,0.09374 0.159961,0.07827 0.287838,0.268237 0.449809,0.668202 0.269143,0.664586 0.356698,0.89496 0.506596,1.333115 0.06332,0.185105 0.105664,0.286278 0.121086,0.289353 0.05914,0.01184 0.376375,-0.482922 0.52514,-0.819067 0.186764,-0.421987 0.507844,-1.268108 0.576018,-1.517938 0.05297,-0.194156 0.231943,-0.463321 0.527408,-0.793262 0.08777,-0.09801 0.189794,-0.201486 0.22672,-0.229948 0.148559,-0.11454 0.526944,-0.16593 0.784584,-0.106555 0.05595,0.01289 0.226637,0.02793 0.379375,0.03344 0.199057,0.0072 0.282486,0.0159 0.29462,0.03066 0.02141,0.02609 -0.01486,0.158523 -0.08635,0.315318 -0.02795,0.06128 -0.06668,0.164445 -0.08609,0.229278 -0.01943,0.06482 -0.04082,0.124984 -0.04758,0.133677 -0.0068,0.0087 -0.03488,0.08341 -0.06244,0.166028 -0.02761,0.08262 -0.05595,0.157328 -0.0629,0.166021 -0.04269,0.05311 -0.329819,0.921603 -0.422695,1.27846 -0.03431,0.131736 -0.08089,0.310683 -0.103564,0.397644 -0.02262,0.08696 -0.06907,0.257732 -0.103106,0.379488 -0.03403,0.121757 -0.06709,0.246611 -0.07345,0.277471 -0.0064,0.0309 -0.03045,0.09134 -0.05347,0.1344 -0.122899,0.229719 -0.351202,0.753389 -0.609749,1.39858 -0.277775,0.693208 -0.33061,0.813662 -0.450685,1.027183 -0.112735,0.200511 -0.48009,0.7721 -0.527567,0.820894 -0.01413,0.01454 -0.04633,0.05828 -0.07154,0.09712 -0.08204,0.126613 -0.268602,0.353128 -0.378522,0.459614 -0.128059,0.124055 -0.206806,0.176419 -0.37081,0.246611 -0.12133,0.05193 -0.16762,0.06224 -0.187777,0.04184 z M 15.891378,20.61204 c -0.01294,-0.0099 -0.0373,-0.05633 -0.05633,-0.104287 -0.01827,-0.04796 -0.0609,-0.13169 -0.09439,-0.185736 -0.03349,-0.05405 -0.06166,-0.104286 -0.06166,-0.111137 0,-0.0072 -0.02221,-0.04832 -0.04927,-0.09131 -0.02706,-0.04301 -0.08063,-0.152921 -0.118963,-0.244228 -0.186612,-0.444489 -0.321491,-0.750391 -0.397415,-0.901279 l -0.08297,-0.165944 -0.391265,-0.0053 c -0.215088,-0.0028 -0.435361,-2.69e-4 -0.489491,0.0056 -0.14782,0.01516 -0.163395,0.03527 -0.238839,0.307858 -0.03495,0.126103 -0.07347,0.264857 -0.08571,0.308338 -0.04569,0.162108 -0.196675,0.569487 -0.236997,0.63926 -0.05235,0.09062 -0.185835,0.223721 -0.280644,0.279884 -0.0974,0.05767 -0.257809,0.100731 -0.3755,0.100731 -0.05316,0 -0.202407,-0.02134 -0.331654,-0.04744 -0.143024,-0.02893 -0.283796,-0.04743 -0.359681,-0.04743 -0.123812,0 -0.125349,-4.99e-4 -0.22009,-0.07249 -0.09996,-0.07596 -0.112089,-0.09938 -0.0698,-0.134857 0.05503,-0.04623 0.141335,-0.313438 0.19293,-0.597577 0.01672,-0.09214 0.0448,-0.234416 0.06237,-0.316178 0.03722,-0.173283 0.04045,-0.259353 0.01061,-0.284405 -0.01173,-0.0098 -0.07244,-0.02444 -0.134865,-0.03232 -0.06244,-0.0079 -0.120645,-0.02163 -0.129368,-0.03045 -0.01072,-0.01082 0.0011,-0.03779 0.03677,-0.08316 0.03954,-0.05054 0.05256,-0.08256 0.05256,-0.129505 0,-0.0547 -0.0092,-0.07045 -0.07404,-0.127587 l -0.07404,-0.06522 0.06352,-0.102779 c 0.03498,-0.05656 0.07544,-0.122701 0.09003,-0.14706 0.09582,-0.160022 0.240803,-0.356682 0.285996,-0.387937 0.0461,-0.03189 0.06397,-0.03537 0.131591,-0.02507 0.04305,0.0065 0.09865,0.01241 0.123629,0.01321 0.05066,0.0017 0.03403,0.03838 0.188644,-0.417632 0.03976,-0.117403 0.09954,-0.291728 0.132749,-0.38739 0.03318,-0.09566 0.08599,-0.255761 0.11728,-0.355777 0.03126,-0.100008 0.09865,-0.313476 0.149678,-0.474358 0.05103,-0.160891 0.107019,-0.345889 0.124412,-0.411117 0.01742,-0.06523 0.06233,-0.189748 0.09986,-0.276709 0.03749,-0.08696 0.113094,-0.26485 0.167917,-0.395299 0.102368,-0.243589 0.36144,-0.772862 0.468086,-0.956238 0.06561,-0.112835 0.210453,-0.284984 0.239782,-0.284984 0.01012,0 0.02768,0.01494 0.03901,0.03326 0.02841,0.04596 0.08239,0.03528 0.284207,-0.05622 0.187731,-0.08507 0.406709,-0.142492 0.406709,-0.106669 0,0.007 -0.035,0.05236 -0.07773,0.100808 -0.112356,0.12742 -0.215797,0.289627 -0.244099,0.382784 -0.01356,0.04445 -0.0283,0.152045 -0.03282,0.239014 l -0.0082,0.15812 0.0814,0.237179 c 0.08948,0.260701 0.196165,0.496967 0.424819,0.940785 0.178657,0.346802 0.493039,0.98387 0.546179,1.106883 0.07169,0.165868 0.262589,0.546164 0.33769,0.672754 0.04155,0.06998 0.0931,0.161377 0.114601,0.203099 0.0458,0.08891 0.20753,0.248004 0.301152,0.29628 0.118049,0.06091 0.151931,0.09508 0.176297,0.178003 0.04031,0.137239 0.03294,0.170261 -0.06291,0.281345 -0.04735,0.05485 -0.08602,0.113999 -0.086,0.131462 1.6e-5,0.01746 0.0463,0.124238 0.102917,0.237301 0.277508,0.554461 0.522756,1.049791 0.522756,1.055805 0,0.004 -0.06863,0.0113 -0.152517,0.0168 -0.244928,0.01621 -0.327033,0.06763 -0.705418,0.441702 -0.173313,0.17135 -0.200222,0.192017 -0.262345,0.201547 -0.04239,0.0065 -0.07786,0.0041 -0.09151,-0.0067 z m -1.266737,-2.777901 c 0.01222,-0.02007 -0.05045,-0.177127 -0.138343,-0.34649 -0.0749,-0.144387 -0.08546,-0.15812 -0.121597,-0.15812 -0.03826,0 -0.03974,0.0036 -0.101516,0.224346 -0.05275,0.188933 -0.06442,0.265755 -0.04353,0.286917 0.01809,0.01831 0.393457,0.0121 0.404944,-0.0066 z m 7.499792,2.66311 c -0.0684,-0.01408 -0.286711,-0.124642 -0.362483,-0.18356 -0.107514,-0.08361 -0.164072,-0.108869 -0.264362,-0.118064 -0.119777,-0.01098 -0.15595,2.72e-4 -0.241419,0.07504 -0.07888,0.06901 -0.08174,0.07001 -0.138328,0.04827 -0.05488,-0.02108 -0.06113,-0.0572 -0.04137,-0.239394 0.03535,-0.325191 0.130015,-0.598072 0.269835,-0.778266 0.03921,-0.05049 0.08523,-0.128729 0.102368,-0.173923 0.08596,-0.226629 0.210659,-0.859487 0.285669,-1.449962 0.02598,-0.204371 0.06441,-0.474754 0.08544,-0.600857 0.0985,-0.590611 0.129977,-1.114038 0.0777,-1.291934 -0.02354,-0.08012 -0.09371,-0.166173 -0.206571,-0.253294 -0.08049,-0.06214 -0.07962,-0.08883 0.0062,-0.183696 0.108915,-0.120653 0.205475,-0.303428 0.402302,-0.761443 0.01125,-0.0261 0.04298,-0.11859 0.07055,-0.205559 0.07271,-0.229156 0.147325,-0.417496 0.1687,-0.425831 0.01018,-0.0042 0.08273,0.02436 0.161142,0.06291 0.24929,0.122647 0.319154,0.133654 0.84845,0.133654 0.465794,0 0.95677,-0.03528 1.157274,-0.08303 0.132398,-0.03153 0.707717,-0.02531 0.872733,0.0095 0.168297,0.03549 0.560566,0.159185 0.669907,0.21126 0.09273,0.04417 0.340728,0.27403 0.448287,0.415517 0.08555,0.112538 0.170489,0.252434 0.15981,0.263228 -0.0049,0.0049 -0.05643,-0.02119 -0.115233,-0.05739 -0.09899,-0.06102 -0.113101,-0.06525 -0.190928,-0.05757 -0.104096,0.01019 -0.121216,0.02584 -0.277508,0.253058 -0.1651,0.240042 -0.374297,0.52192 -0.438049,0.590246 -0.04906,0.05262 -0.05712,0.05566 -0.119267,0.04573 -0.03667,-0.0062 -0.140543,-0.03276 -0.230884,-0.0596 -0.219771,-0.06548 -0.347114,-0.07152 -0.617886,-0.02925 -0.367461,0.05726 -0.570812,0.07872 -0.752034,0.07924 -0.234896,7.46e-4 -0.22497,-0.01186 -0.294674,0.372569 -0.02991,0.164971 -0.0628,0.366282 -0.07308,0.447374 -0.0166,0.131142 -0.0159,0.150271 0.0068,0.173123 0.02668,0.02698 0.05342,0.02915 0.80803,0.06541 0.263509,0.01265 0.34856,0.02282 0.477099,0.05719 0.08603,0.02296 0.16408,0.04827 0.173442,0.05606 0.01583,0.01325 0.03891,0.127122 0.0609,0.300337 0.0208,0.163851 0.1943,0.408148 0.311649,0.438886 0.0707,0.01848 0.06381,0.06331 -0.01409,0.09193 -0.290868,0.106806 -0.278734,0.104568 -0.633529,0.117219 -0.287869,0.01024 -0.736072,0.05297 -1.149739,0.109646 -0.06024,0.0082 -0.121703,0.01523 -0.136623,0.01554 -0.01492,2.86e-4 -0.04866,0.02013 -0.07502,0.04403 -0.03827,0.03476 -0.05554,0.07318 -0.08587,0.191278 -0.05134,0.199758 -0.07632,0.445554 -0.04815,0.474023 0.01493,0.01512 0.113985,0.02488 0.355282,0.03519 0.688732,0.02921 1.07986,0.04874 1.421721,0.07106 0.193577,0.0126 0.511011,0.02291 0.705403,0.02294 0.337005,4.9e-5 0.354802,0.0017 0.382617,0.03266 0.02874,0.03208 0.02839,0.03324 -0.02491,0.07376 -0.108336,0.08245 -0.27846,0.269256 -0.319193,0.350509 -0.05083,0.101409 -0.09126,0.2344 -0.125471,0.412806 -0.05581,0.290914 -0.114167,0.441634 -0.199286,0.51449 -0.124862,0.106882 -0.402286,0.197033 -0.60652,0.197094 -0.0733,1.7e-5 -0.224787,0.0069 -0.336632,0.01539 -0.413378,0.03118 -0.814196,0.0488 -1.454758,0.06419 -0.361341,0.0087 -0.70627,0.0186 -0.766467,0.02222 -0.06024,0.0037 -0.127092,0.003 -0.148604,-0.0017 z M 8.131783,20.395246 C 7.781396,20.342726 7.697282,20.323696 7.409619,20.22854 7.083134,20.119686 6.764337,19.974294 6.733355,19.919487 c -0.01378,-0.02436 -0.03334,-0.04491 -0.04346,-0.04491 -0.01012,0 -0.03349,-0.01903 -0.05192,-0.04339 -0.01842,-0.0236 -0.07353,-0.07003 -0.122403,-0.102764 C 6.466702,19.694933 6.339655,19.580747 6.233237,19.474938 5.920606,19.16284 5.804902,19.000701 5.672222,18.690887 5.568164,18.447298 5.538781,18.334638 5.504831,18.048422 c -0.01461,-0.122556 -0.03699,-0.296874 -0.04994,-0.38822 -0.03448,-0.242827 -0.04895,-0.415623 -0.0765,-0.90889 -0.04187,-0.749797 -0.04598,-1.067223 -0.01652,-1.257527 0.01416,-0.09135 0.04324,-0.290784 0.0647,-0.442266 0.02139,-0.152243 0.04978,-0.34483 0.06311,-0.427041 0.01331,-0.08262 0.03786,-0.242721 0.05455,-0.355769 0.05353,-0.362506 0.115971,-0.624044 0.191073,-0.800342 0.03846,-0.0903 0.09959,-0.235329 0.135831,-0.32229 0.08159,-0.195754 0.29679,-0.714324 0.514734,-1.030381 0.130982,-0.18993 0.294194,-0.358364 0.468786,-0.509123 0.240902,-0.208017 0.600903,-0.444504 0.789151,-0.537456 0.180408,-0.08909 0.524013,-0.229095 0.800722,-0.294803 0.293601,-0.06971 0.654805,-0.109409 0.899452,-0.102505 0.514695,0.01452 0.570439,0.01192 0.848221,0.06958 0.194293,0.04034 0.390115,0.09528 0.563687,0.191514 0.280942,0.155775 0.535127,0.367841 0.746425,0.609763 0.145156,0.166196 0.474374,0.656906 0.56833,0.847156 0.0379,0.07679 0.08494,0.189428 0.104492,0.250303 0.01956,0.0609 0.05217,0.151291 0.07251,0.200915 0.02032,0.04963 0.05888,0.19905 0.08572,0.332057 0.04508,0.223607 0.04802,0.257907 0.03945,0.45529 -0.01121,0.258341 -0.03938,0.409983 -0.107255,0.57579 -0.04446,0.108717 -0.06944,0.143451 -0.19025,0.264675 -0.146291,0.146793 -0.300262,0.260054 -0.517939,0.380965 -0.183681,0.102033 -0.73904,0.375591 -0.762508,0.375591 -0.01403,0 -0.02984,0.0069 -0.03505,0.0154 -0.01183,0.01937 -0.18037,0.07192 -0.275613,0.08594 -0.06556,0.0096 -0.07651,0.0063 -0.122541,-0.03717 -0.04384,-0.04146 -0.04914,-0.0546 -0.03973,-0.09945 0.01535,-0.07349 0.02761,-0.0813 0.121909,-0.07744 0.08159,0.0036 0.08558,0.0015 0.138648,-0.06448 0.109462,-0.136257 0.112812,-0.145392 0.109006,-0.302963 -0.0056,-0.215424 -0.04552,-0.520671 -0.08016,-0.609733 -0.04453,-0.114182 -0.181474,-0.385936 -0.254855,-0.506208 -0.08472,-0.138541 -0.141358,-0.197155 -0.36348,-0.376801 -0.103221,-0.08297 -0.194719,-0.159855 -0.203321,-0.169751 -0.0086,-0.0099 -0.06874,-0.04796 -0.133593,-0.08373 -0.205071,-0.113421 -0.405956,-0.122555 -0.592758,-0.0274 -0.169081,0.0866 -0.54557,0.506245 -0.723953,0.806963 -0.242028,0.407958 -0.385281,0.848374 -0.433862,1.333877 -0.0091,0.09006 -0.01635,0.386507 -0.01635,0.658763 0,0.635903 0.01626,0.728178 0.180324,1.020332 0.03848,0.06855 0.06996,0.130868 0.06996,0.138488 0,0.0076 0.01425,0.03104 0.03173,0.05194 0.01749,0.02091 0.07726,0.108321 0.132877,0.194179 0.06065,0.09357 0.152106,0.205984 0.22841,0.280667 0.07,0.06852 0.130259,0.124573 0.133898,0.124573 0.0038,0 0.05507,0.04216 0.114319,0.0937 0.123378,0.107339 0.269052,0.182014 0.492841,0.252639 0.263632,0.08319 0.389499,0.09791 0.866643,0.101265 0.373368,0.0028 0.448485,-9.9e-4 0.556159,-0.02648 0.06847,-0.01621 0.163494,-0.03585 0.211176,-0.04373 0.09349,-0.01535 0.157846,-0.0269 0.219656,-0.03962 0.02152,-0.0046 0.05657,-0.0081 0.07799,-0.0083 0.02139,-1.92e-4 0.05061,-0.0067 0.065,-0.01445 0.01433,-0.0077 0.07781,-0.01758 0.141,-0.02176 0.06319,-0.0044 0.154215,-0.01226 0.20227,-0.01805 0.08328,-0.0099 0.155083,0.0079 0.155083,0.03846 0,0.0068 -0.02521,0.05455 -0.05612,0.106174 -0.116938,0.195891 -0.353744,0.65718 -0.393213,0.765935 -0.03907,0.107567 -0.03473,0.296348 0.0085,0.370369 0.04601,0.07891 0.04328,0.103281 -0.02064,0.178779 -0.03013,0.03555 -0.05471,0.07206 -0.05471,0.08112 0,0.0091 -0.0095,0.02219 -0.02118,0.02912 -0.01168,0.007 -0.03014,0.02983 -0.04109,0.05081 -0.05813,0.111724 -0.496571,0.609132 -0.585762,0.664495 -0.140848,0.08743 -0.625955,0.195602 -1.174402,0.261866 -0.134819,0.01627 -0.369311,0.02812 -0.610068,0.0308 -0.359728,0.0042 -0.414878,7.46e-4 -0.688276,-0.03989 z m 10.674515,-6.298291 c -0.0063,-0.0063 -0.540843,-0.06615 -0.929443,-0.104477 -0.403421,-0.03978 -0.65632,-0.09844 -0.710845,-0.164849 -0.03063,-0.0373 0.0021,-0.19723 0.169065,-0.831246 0.0264,-0.100009 0.06267,-0.281459 0.08067,-0.403208 0.01804,-0.121749 0.04729,-0.28477 0.06501,-0.362277 0.02317,-0.101211 0.03022,-0.173603 0.02486,-0.256948 -0.0062,-0.09555 -0.0035,-0.11604 0.01594,-0.11604 0.01281,0 0.105025,0.01394 0.204919,0.03095 0.09989,0.01698 0.294256,0.04231 0.431914,0.05637 0.137658,0.01401 0.296036,0.03204 0.351963,0.04011 0.05595,0.0081 0.26287,0.02214 0.459895,0.03116 0.197018,0.0091 0.364447,0.02036 0.372059,0.02505 0.0076,0.005 0.0526,0.08756 0.100039,0.183986 0.07796,0.158606 0.08387,0.177682 0.06186,0.199918 -0.06453,0.06522 -0.648905,0.04615 -1.111222,-0.03633 -0.289566,-0.05164 -0.274204,-0.05634 -0.302704,0.09206 -0.04078,0.212189 -0.02227,0.238283 0.186475,0.262338 0.23995,0.02765 0.374327,0.05268 0.375613,0.06981 7.46e-4,0.0094 2.96e-4,0.05714 -0.0011,0.106204 -0.0022,0.07913 0.0034,0.09555 0.04686,0.145788 0.02701,0.03116 0.04429,0.06457 0.03836,0.07429 -0.0078,0.01275 -0.09194,0.01408 -0.302332,0.0051 -0.344686,-0.01516 -0.40843,-0.01299 -0.435971,0.01484 -0.02969,0.03001 -0.05447,0.266372 -0.03052,0.290358 0.04034,0.04024 0.455511,0.115392 0.732639,0.132558 0.149243,0.0093 0.352313,0.02711 0.451248,0.03981 0.09894,0.01264 0.209395,0.02287 0.245446,0.02276 0.07984,-2.67e-4 0.09712,0.0222 0.05341,0.0692 -0.01809,0.01949 -0.03294,0.04285 -0.03294,0.05198 0,0.0091 -0.01754,0.04259 -0.03894,0.0745 -0.05775,0.086 -0.06323,0.126811 -0.02543,0.188629 0.01799,0.02933 0.02807,0.05805 0.02242,0.06374 -0.01081,0.01092 -0.55829,0.01479 -0.569449,0.0043 z m -2.274434,-0.413606 c -0.09282,-0.06488 -0.146693,-0.06878 -0.297931,-0.02156 -0.154763,0.04834 -0.156293,0.04571 -0.154832,-0.266707 7.46e-4,-0.148163 0.01255,-0.329675 0.02937,-0.449619 l 0.02826,-0.201144 -0.05116,-0.05973 c -0.07419,-0.08664 -0.162398,-0.14253 -0.281604,-0.178413 -0.123226,-0.03713 -0.14658,-0.03859 -0.169348,-0.01088 -0.0094,0.01141 -0.02782,0.109219 -0.04107,0.217418 -0.05286,0.432461 -0.06068,0.446643 -0.286452,0.52163 -0.08365,0.02777 -0.173215,0.05989 -0.19902,0.07139 -0.189969,0.08452 -0.305034,0.119549 -0.305034,0.09285 0,-0.0052 0.03485,-0.07429 0.07735,-0.154169 0.09177,-0.172316 0.100396,-0.207949 0.133463,-0.551683 0.02696,-0.280675 0.02015,-0.362041 -0.03481,-0.412022 -0.05171,-0.04702 -0.188385,-0.106532 -0.244799,-0.106532 -0.03706,0 -0.05641,-0.0074 -0.05641,-0.02141 0,-0.023 0.237225,-0.184938 0.370895,-0.253135 0.09502,-0.04847 0.083,-0.01442 0.168426,-0.476513 0.06737,-0.364378 0.06534,-0.355776 0.08374,-0.355776 0.0076,0 0.07045,0.05261 0.139455,0.116793 0.06901,0.06424 0.175186,0.14664 0.235931,0.183125 0.06074,0.03647 0.117904,0.0754 0.127001,0.08649 0.0117,0.01423 0.0096,0.05882 -0.0073,0.152882 -0.01312,0.073 -0.02818,0.166249 -0.0334,0.207226 l -0.0096,0.0745 0.121079,0.07572 c 0.06659,0.04169 0.167018,0.105961 0.223173,0.142925 0.0562,0.03699 0.11148,0.0672 0.122944,0.0672 0.04578,0 0.09868,-0.181633 0.0996,-0.341983 7.46e-4,-0.1417 0.01056,-0.144494 0.212843,-0.06099 0.138587,0.0572 0.189299,0.07063 0.267803,0.07074 0.05326,5.4e-5 0.100062,0.0059 0.10399,0.01197 0.0042,0.0065 -0.0059,0.122145 -0.02128,0.256949 -0.01567,0.134795 -0.03614,0.383834 -0.04562,0.553418 -0.02189,0.393205 -0.02791,0.440195 -0.07406,0.575866 -0.06037,0.177356 -0.08509,0.27897 -0.09204,0.37789 -0.01004,0.143459 -0.02065,0.148422 -0.139668,0.06526 z m -2.909363,-0.160617 c -0.01722,-0.0051 -0.04519,-0.01863 -0.06215,-0.03071 -0.01697,-0.01197 -0.06462,-0.02183 -0.105885,-0.02183 -0.06977,0 -0.07447,-0.0027 -0.06698,-0.03555 0.02913,-0.128836 0.08473,-0.447708 0.093,-0.533657 0.0058,-0.05656 0.0201,-0.28066 0.03256,-0.498078 0.01244,-0.217418 0.02717,-0.466457 0.03279,-0.553426 0.01168,-0.18257 -0.0075,-0.281315 -0.06068,-0.312007 -0.02635,-0.01519 -0.141883,-0.01882 -0.479017,-0.01519 -0.46954,0.0054 -0.488236,0.0025 -0.452078,-0.06591 0.0099,-0.01827 0.01294,-0.07574 0.0084,-0.133441 -0.0061,-0.08381 -0.01751,-0.116314 -0.06623,-0.186879 -0.03197,-0.04689 -0.08526,-0.110376 -0.11875,-0.1409 -0.03349,-0.0306 -0.0609,-0.06273 -0.0609,-0.0714 0,-0.03006 0.520306,-0.01871 0.774384,0.01682 0.235687,0.03306 0.296546,0.03328 0.641285,0.0026 0.151908,-0.01363 0.311093,-0.0541 0.329241,-0.08376 0.0053,-0.008 0.02181,-0.01458 0.03745,-0.01458 0.02278,0 0.03072,0.01713 0.03913,0.08519 0.0062,0.04683 0.01891,0.09668 0.02914,0.110711 0.02718,0.03728 0.206244,0.05602 0.539252,0.05663 0.316887,5.32e-4 0.322291,0.0026 0.284116,0.0996 -0.01108,0.02812 -0.05721,0.09768 -0.102627,0.15461 -0.120759,0.151429 -0.175559,0.17457 -0.458548,0.193608 -0.125349,0.0084 -0.232871,0.01981 -0.23893,0.02518 -0.0111,0.0099 -0.0529,0.507783 -0.06991,0.831931 -0.0062,0.110742 6.93e-4,0.28611 0.01784,0.482702 0.02074,0.23842 0.02308,0.329621 0.01015,0.400277 -0.01975,0.107803 -0.06585,0.179997 -0.13316,0.208337 -0.0523,0.02208 -0.341359,0.04301 -0.39265,0.02851 z"
     id="path2"
     inkscape:connector-curvature="0"
     style="fill:#cccccc;stroke-width:1" />
</svg>
