<?xml version="1.0" encoding="UTF-8" standalone="no"?>
<!-- Created with Inkscape (http://www.inkscape.org/) -->

<svg
   xmlns:dc="http://purl.org/dc/elements/1.1/"
   xmlns:cc="http://creativecommons.org/ns#"
   xmlns:rdf="http://www.w3.org/1999/02/22-rdf-syntax-ns#"
   xmlns:svg="http://www.w3.org/2000/svg"
   xmlns="http://www.w3.org/2000/svg"
   xmlns:sodipodi="http://sodipodi.sourceforge.net/DTD/sodipodi-0.dtd"
   xmlns:inkscape="http://www.inkscape.org/namespaces/inkscape"
   height="32"
   width="32"
   version="1.1"
   viewBox="0 0 32 32.000001"
   id="svg18"
   sodipodi:docname="toby-the-secret-mine.svg"
   inkscape:version="0.92.1 r">
  <metadata
     id="metadata24">
    <rdf:RDF>
      <cc:Work
         rdf:about="">
        <dc:format>image/svg+xml</dc:format>
        <dc:type
           rdf:resource="http://purl.org/dc/dcmitype/StillImage" />
      </cc:Work>
    </rdf:RDF>
  </metadata>
  <defs
     id="defs22" />
  <sodipodi:namedview
     pagecolor="#ffffff"
     bordercolor="#666666"
     borderopacity="1"
     objecttolerance="10"
     gridtolerance="10"
     guidetolerance="10"
     inkscape:pageopacity="0"
     inkscape:pageshadow="2"
     inkscape:window-width="640"
     inkscape:window-height="480"
     id="namedview20"
     showgrid="false"
     inkscape:zoom="8.375"
     inkscape:cx="-6.6865672"
     inkscape:cy="16"
     inkscape:current-layer="svg18" />
  <rect
     style="opacity:1;fill:#8e8e8e;fill-opacity:1;fill-rule:evenodd;stroke:none;stroke-width:1.03534329;stroke-linecap:round;stroke-linejoin:bevel;stroke-miterlimit:4;stroke-dasharray:none;stroke-dashoffset:0;stroke-opacity:1"
     id="rect4497-3-3"
     width="28.203388"
     height="28.203388"
     x="1.8983059"
     y="1.8983059"
     ry="5.575182" />
  <g
     id="g4517"
     transform="matrix(0.80383773,0,0,0.80383773,5.1544052,5.5381394)"
     style="stroke-width:1.24403214">
    <path
       style="fill:#4f4f4f;stroke-width:1.24403214"
       d="m 2.4946724,14.762 c -0.03899,-2.8966 0.4562324,-5.6521 1.4700153,-8.1797 1.2702079,-3.2058 3.122747,-6.4761 6.4014283,-7.3591 0.755665,-0.1933 3.029119,-0.2805 3.172542,-0.1371 0.03633,0.036 -0.239148,0.4006 -0.612242,0.8094 -0.802474,0.8792 -1.946314,2.0617 -2.232649,3.1812 -0.262151,1.0251 -0.259274,1.3165 0.02954,1.5051 0.627942,0.4101 5.832284,0.705 6.484859,0.3478 0.130067,-0.071 0.562038,-0.3153 0.959939,-0.7133 0.911877,-0.9117 2.549091,-1.9152 3.757474,-2.1014 0.868421,-0.1338 2.497429,-0.023 2.56528,0.1826 0.02156,0.065 -0.264923,0.3358 -0.636644,0.6011 -0.748,0.5338 -1.611508,1.2582 -1.858048,1.7777 -0.149562,0.3151 -0.142541,0.4098 0.09913,1.3366 0.38155,1.463 0.528396,3.4915 0.375306,5.2778 -0.166811,1.9464 -0.710067,5.5779 -1.133987,7.5805 -1.07007,5.0548 -3.027402,7.4794 -5.866822,8.0757 -0.687316,0.1443 -2.582027,0.014 -2.582027,0.014 C 6.0900047,26.5844 2.6222573,20.7657 2.4946403,14.7618 Z"
       id="path4"
       inkscape:connector-curvature="0" />
    <circle
       r="1.5"
       style="fill:#ffffff;stroke-width:1.24403214"
       cx="10.992544"
       cy="19.514883"
       id="circle8" />
    <circle
       cx="18.992537"
       cy="20.514883"
       r="1.5"
       style="fill:#ffffff;stroke-width:1.24403214"
       id="circle12" />
  </g>
</svg>
