<?xml version="1.0" encoding="UTF-8" standalone="no"?>
<svg
   xmlns:dc="http://purl.org/dc/elements/1.1/"
   xmlns:cc="http://creativecommons.org/ns#"
   xmlns:rdf="http://www.w3.org/1999/02/22-rdf-syntax-ns#"
   xmlns:svg="http://www.w3.org/2000/svg"
   xmlns="http://www.w3.org/2000/svg"
   xmlns:sodipodi="http://sodipodi.sourceforge.net/DTD/sodipodi-0.dtd"
   xmlns:inkscape="http://www.inkscape.org/namespaces/inkscape"
   height="32"
   width="32"
   version="1"
   id="svg18"
   sodipodi:docname="tor.svg"
   inkscape:version="0.92.1 r">
  <metadata
     id="metadata24">
    <rdf:RDF>
      <cc:Work
         rdf:about="">
        <dc:format>image/svg+xml</dc:format>
        <dc:type
           rdf:resource="http://purl.org/dc/dcmitype/StillImage" />
      </cc:Work>
    </rdf:RDF>
  </metadata>
  <defs
     id="defs22" />
  <sodipodi:namedview
     pagecolor="#ffffff"
     bordercolor="#666666"
     borderopacity="1"
     objecttolerance="10"
     gridtolerance="10"
     guidetolerance="10"
     inkscape:pageopacity="0"
     inkscape:pageshadow="2"
     inkscape:window-width="1680"
     inkscape:window-height="965"
     id="namedview20"
     showgrid="false"
     inkscape:zoom="7.375"
     inkscape:cx="-36.474576"
     inkscape:cy="16"
     inkscape:window-x="0"
     inkscape:window-y="0"
     inkscape:window-maximized="1"
     inkscape:current-layer="svg18" />
  <path
     style="opacity:.1;fill:#ffffff"
     d="m75.53-10.5607c-11.08 0-20 8.92-20 20 0 0.16772-0.004 0.33329 0 0.5 0.26444-10.846 9.0877-19.5 20-19.5s19.736 8.6537 20 19.5c0.004-0.16671 0-0.33228 0-0.5 0-11.08-8.92-20-20-20z"
     id="path4" />
  <rect
     style="opacity:1;fill:#7d4698;fill-opacity:1;fill-rule:evenodd;stroke:none;stroke-width:1.03534329;stroke-linecap:round;stroke-linejoin:bevel;stroke-miterlimit:4;stroke-dasharray:none;stroke-dashoffset:0;stroke-opacity:1"
     id="rect4497-3"
     width="28.203388"
     height="28.203388"
     x="1.8983059"
     y="1.8983059"
     ry="5.575182" />
  <path
     inkscape:connector-curvature="0"
     style="fill:#ffe2ac;stroke-width:0.78692496"
     d="M 16,4.9830509 A 11.016949,11.016949 0 0 0 4.9830509,16 11.016949,11.016949 0 0 0 16,27.016949 Z m 6.200261,1.911828 c 0.07968,0.054368 0.153151,0.1168292 0.231314,0.1732156 A 11.016949,11.016949 0 0 0 22.200261,6.8948789 Z m 0.857472,0.6487519 c 0.103358,0.086356 0.199001,0.1810976 0.299093,0.2711203 A 11.016949,11.016949 0 0 0 23.057733,7.5436308 Z m 0.790768,0.7305185 c 0.09939,0.1009646 0.190712,0.2094342 0.286182,0.3141552 A 11.016949,11.016949 0 0 0 23.848501,8.2741493 Z m 0.725138,0.8144365 c 0.08894,0.1101954 0.169185,0.2274185 0.253907,0.3410523 A 11.016949,11.016949 0 0 0 24.573639,9.0885858 Z m 0.631539,0.8660788 c 0.08173,0.1241994 0.154536,0.2543014 0.231312,0.3819354 A 11.016949,11.016949 0 0 0 25.205178,9.9546646 Z m 0.557302,0.9499964 c 0.06189,0.118335 0.116622,0.24068 0.174291,0.361494 A 11.016949,11.016949 0 0 0 25.76248,10.904661 Z m 0.457247,0.994108 c 0.04811,0.119756 0.08943,0.242927 0.133408,0.364721 a 11.016949,11.016949 0 0 0 -0.133408,-0.364721 z m 0.356114,1.034991 c 0.03779,0.130518 0.06916,0.263455 0.102208,0.395921 A 11.016949,11.016949 0 0 0 26.575841,12.93376 Z m 0.274348,1.165171 c 0.0031,0.01759 0.0067,0.0351 0.0097,0.05272 a 11.016949,11.016949 0 0 0 -0.0097,-0.05272 z m 0.132332,1.069418 c 0.0028,0.03661 0.0062,0.07304 0.0086,0.109739 a 11.016949,11.016949 0 0 0 -0.0086,-0.109739 z m -1.8774,7.031912 c -0.05437,0.07968 -0.116829,0.153151 -0.173215,0.231314 a 11.016949,11.016949 0 0 0 0.173215,-0.231314 z m -0.648752,0.857472 c -0.08636,0.103358 -0.181097,0.199001 -0.27112,0.299093 a 11.016949,11.016949 0 0 0 0.27112,-0.299093 z m -0.730518,0.790768 c -0.100965,0.09939 -0.209434,0.190712 -0.314155,0.286182 a 11.016949,11.016949 0 0 0 0.314155,-0.286182 z m -0.814437,0.725138 c -0.110195,0.08894 -0.227418,0.169185 -0.341052,0.253907 a 11.016949,11.016949 0 0 0 0.341052,-0.253907 z m -0.866079,0.631539 c -0.124199,0.08173 -0.254301,0.154536 -0.381935,0.231312 a 11.016949,11.016949 0 0 0 0.381935,-0.231312 z m -0.949996,0.557302 c -0.118335,0.06189 -0.240679,0.116622 -0.361494,0.174291 a 11.016949,11.016949 0 0 0 0.361494,-0.174291 z m -0.994108,0.457247 c -0.119756,0.04811 -0.242927,0.08943 -0.364721,0.133408 a 11.016949,11.016949 0 0 0 0.364721,-0.133408 z m -1.034991,0.356114 c -0.130518,0.03779 -0.263455,0.06916 -0.395921,0.102208 a 11.016949,11.016949 0 0 0 0.395921,-0.102208 z m -1.165171,0.274348 c -0.01759,0.0031 -0.0351,0.0067 -0.05272,0.0097 a 11.016949,11.016949 0 0 0 0.05272,-0.0097 z m -1.069418,0.132332 c -0.0366,0.0028 -0.07304,0.0062 -0.109739,0.0086 a 11.016949,11.016949 0 0 0 0.109739,-0.0086 z"
     id="path6" />
  <circle
     cx="16"
     cy="16"
     r="8.6561747"
     style="opacity:1;stroke-width:0.78692496;fill:#ccb58a;fill-opacity:1"
     id="circle8" />
  <circle
     r="6.2953997"
     style="opacity:1;stroke-width:0.78692496;fill:#a3916e;fill-opacity:1"
     cx="16"
     cy="16"
     id="circle10" />
  <circle
     cx="16"
     cy="16"
     r="3.9346247"
     style="opacity:1;stroke-width:0.78692496;fill:#827458;fill-opacity:1"
     id="circle12" />
  <path
     inkscape:connector-curvature="0"
     style="fill:#7d4698;stroke-width:0.78692496"
     d="m 27.016949,16 c 0,6.084493 -4.932456,11.016949 -11.016949,11.016949 V 4.9830509 c 6.084493,0 11.016949,4.9324561 11.016949,11.0169491 z"
     id="path14" />
</svg>
