<?xml version="1.0" encoding="UTF-8" standalone="no"?>
<svg
   xmlns:dc="http://purl.org/dc/elements/1.1/"
   xmlns:cc="http://creativecommons.org/ns#"
   xmlns:rdf="http://www.w3.org/1999/02/22-rdf-syntax-ns#"
   xmlns:svg="http://www.w3.org/2000/svg"
   xmlns="http://www.w3.org/2000/svg"
   xmlns:sodipodi="http://sodipodi.sourceforge.net/DTD/sodipodi-0.dtd"
   xmlns:inkscape="http://www.inkscape.org/namespaces/inkscape"
   width="32"
   height="32"
   version="1"
   id="svg20"
   sodipodi:docname="net.sourceforge.torcs.svg"
   inkscape:version="0.92.1 r">
  <metadata
     id="metadata26">
    <rdf:RDF>
      <cc:Work
         rdf:about="">
        <dc:format>image/svg+xml</dc:format>
        <dc:type
           rdf:resource="http://purl.org/dc/dcmitype/StillImage" />
      </cc:Work>
    </rdf:RDF>
  </metadata>
  <defs
     id="defs24" />
  <sodipodi:namedview
     pagecolor="#ffffff"
     bordercolor="#666666"
     borderopacity="1"
     objecttolerance="10"
     gridtolerance="10"
     guidetolerance="10"
     inkscape:pageopacity="0"
     inkscape:pageshadow="2"
     inkscape:window-width="640"
     inkscape:window-height="480"
     id="namedview22"
     showgrid="false"
     inkscape:zoom="8.9375"
     inkscape:cx="-5.3706294"
     inkscape:cy="16"
     inkscape:current-layer="svg20" />
  <rect
     style="opacity:1;fill:#4f4f4f;fill-opacity:1;fill-rule:evenodd;stroke:none;stroke-width:1.03534329;stroke-linecap:round;stroke-linejoin:bevel;stroke-miterlimit:4;stroke-dasharray:none;stroke-dashoffset:0;stroke-opacity:1"
     id="rect4497-3"
     width="28.203388"
     height="28.203388"
     x="1.8983059"
     y="1.8983059"
     ry="5.575182"
     inkscape:export-filename="/home/ramil/3.png"
     inkscape:export-xdpi="71"
     inkscape:export-ydpi="71" />
  <g
     id="g4517"
     transform="translate(32.618881,10.16054)">
    <path
       inkscape:connector-curvature="0"
       id="path10"
       d="m -16.618881,-5.1678322 a 1.5,1.5 0 0 0 -1.5,1.5 1.5,1.5 0 0 0 1.5,1.5 1.5,1.5 0 0 0 1.5,-1.5 1.5,1.5 0 0 0 -1.5,-1.5 z m -6.035156,2 a 1.5,1.5 0 0 0 -0.714844,0.1992188 1.5,1.5 0 0 0 -0.548828,2.05078123 1.5,1.5 0 0 0 2.048828,0.5488281 1.5,1.5 0 0 0 0.548828,-2.04882813 1.5,1.5 0 0 0 -1.333984,-0.75 z m 12.070312,0 a 1.5,1.5 0 0 0 -1.333984,0.75 1.5,1.5 0 0 0 0.548828,2.04882813 1.5,1.5 0 0 0 2.0488279,-0.5488281 1.5,1.5 0 0 0 -0.548828,-2.05078123 1.5,1.5 0 0 0 -0.7148439,-0.1992188 z m -15.998047,4.00000003 a 1.5,1.5 0 0 0 -0.107422,0.001953 1.5,1.5 0 0 0 -1.228515,0.74804687 1.5,1.5 0 0 0 0.550781,2.048828 1.5,1.5 0 0 0 2.048828,-0.548828 1.5,1.5 0 0 0 -0.548828,-2.0488281 1.5,1.5 0 0 0 -0.714844,-0.20117177 z m 19.9257819,0 a 1.5,1.5 0 0 0 -0.714844,0.20117187 1.5,1.5 0 0 0 -0.548828,2.0488281 1.5,1.5 0 0 0 2.048828,0.548828 1.5,1.5 0 0 0 0.550781,-2.048828 1.5,1.5 0 0 0 -1.228516,-0.74804687 1.5,1.5 0 0 0 -0.107421,-0.001953 z M -27.618881,6.8321678 a 1.5,1.5 0 0 0 -1.5,1.5 1.5,1.5 0 0 0 1.5,1.5 1.5,1.5 0 0 0 1.5,-1.5 1.5,1.5 0 0 0 -1.5,-1.5 z m 21.9999999,0 a 1.5,1.5 0 0 0 -1.5,1.5 1.5,1.5 0 0 0 1.5,1.5 1.5,1.5 0 0 0 1.5,-1.5 1.5,1.5 0 0 0 -1.5,-1.5 z M -25.654037,11.832168 a 1.5,1.5 0 0 0 -0.712891,0.201172 1.5,1.5 0 0 0 -0.550781,2.048828 1.5,1.5 0 0 0 2.050781,0.548828 1.5,1.5 0 0 0 0.548828,-2.048828 1.5,1.5 0 0 0 -1.335937,-0.75 z m 17.9628899,0 a 1.5,1.5 0 0 0 -1.228515,0.75 1.5,1.5 0 0 0 0.548828,2.048828 1.5,1.5 0 0 0 2.050781,-0.548828 1.5,1.5 0 0 0 -0.550781,-2.048828 1.5,1.5 0 0 0 -0.712891,-0.201172 1.5,1.5 0 0 0 -0.107422,0 z"
       style="fill:#ff5757" />
    <g
       transform="translate(-33.118881,-8.1678322)"
       id="g4511">
      <path
         inkscape:connector-curvature="0"
         style="fill:#ffa6a6"
         d="m 25.193331,17.829373 -8.115635,-0.621664 0.776458,-2.897777 z"
         id="path12" />
      <circle
         style="fill:#ffa6a6"
         cx="10.701"
         cy="-19.948999"
         r="2.5"
         transform="rotate(105)"
         id="circle16" />
    </g>
  </g>
</svg>
