<?xml version="1.0" encoding="UTF-8" standalone="no"?>
<svg
   xmlns:dc="http://purl.org/dc/elements/1.1/"
   xmlns:cc="http://creativecommons.org/ns#"
   xmlns:rdf="http://www.w3.org/1999/02/22-rdf-syntax-ns#"
   xmlns:svg="http://www.w3.org/2000/svg"
   xmlns="http://www.w3.org/2000/svg"
   xmlns:sodipodi="http://sodipodi.sourceforge.net/DTD/sodipodi-0.dtd"
   xmlns:inkscape="http://www.inkscape.org/namespaces/inkscape"
   height="32"
   width="32"
   version="1"
   id="svg16"
   sodipodi:docname="tortoisehg.svg"
   inkscape:version="0.92.1 r">
  <metadata
     id="metadata22">
    <rdf:RDF>
      <cc:Work
         rdf:about="">
        <dc:format>image/svg+xml</dc:format>
        <dc:type
           rdf:resource="http://purl.org/dc/dcmitype/StillImage" />
      </cc:Work>
    </rdf:RDF>
  </metadata>
  <defs
     id="defs20" />
  <sodipodi:namedview
     pagecolor="#ffffff"
     bordercolor="#666666"
     borderopacity="1"
     objecttolerance="10"
     gridtolerance="10"
     guidetolerance="10"
     inkscape:pageopacity="0"
     inkscape:pageshadow="2"
     inkscape:window-width="640"
     inkscape:window-height="480"
     id="namedview18"
     showgrid="false"
     inkscape:zoom="5.9220193"
     inkscape:cx="-45.520553"
     inkscape:cy="8.0680069"
     inkscape:current-layer="svg16" />
  <rect
     style="opacity:1;fill:#65c57a;fill-opacity:1;fill-rule:evenodd;stroke:none;stroke-width:1.03534329;stroke-linecap:round;stroke-linejoin:bevel;stroke-miterlimit:4;stroke-dasharray:none;stroke-dashoffset:0;stroke-opacity:1"
     id="rect4497-3-3"
     width="28.203388"
     height="28.203388"
     x="1.8983059"
     y="1.8983059"
     ry="5.575182" />
  <g
     id="g4537"
     transform="translate(47.628282,-0.5944042)">
    <path
       id="path4-3"
       d="m -31.628282,6.1485769 c -1.653373,0 -2.984427,1.3310549 -2.984427,2.984428 v 3.4842601 l -1.321717,-1.321715 c -0.894654,-0.894654 -2.33605,-0.894654 -3.230703,0 -0.894653,0.894652 -0.894653,2.336047 0,3.2307 l 4.306146,4.306146 -4.306146,4.306144 c -0.894653,0.894653 -0.894653,2.336049 0,3.230701 0.894653,0.894654 2.33605,0.894654 3.230703,0 l 2.757098,-2.757098 c 0.452196,0.275319 0.978763,0.443001 1.549046,0.443001 0.570283,0 1.09685,-0.167682 1.549047,-0.443001 l 2.757098,2.757098 c 0.894653,0.894654 2.336049,0.894654 3.230701,0 0.894653,-0.894652 0.894653,-2.336048 0,-3.230701 l -4.306144,-4.306144 4.306144,-4.306146 c 0.894653,-0.894653 0.894653,-2.336048 0,-3.2307 -0.894652,-0.894654 -2.336048,-0.894654 -3.230701,0 l -1.321717,1.321715 V 9.1330049 c 0,-1.6533731 -1.331055,-2.984428 -2.984428,-2.984428 z"
       style="opacity:1;fill:#2d5a37;fill-opacity:1;stroke-width:1"
       inkscape:connector-curvature="0" />
    <rect
       id="rect10-6"
       x="-26.293465"
       y="24.167213"
       width="15.668247"
       height="14.922139"
       ry="7.4610696"
       rx="7.8341236"
       transform="matrix(0,-1,-1,0,0,0)"
       style="fill:#6d7481;fill-opacity:1;stroke-width:1" />
    <path
       id="path14-7"
       d="m -36.083065,14.333894 a 0.74618153,0.74618153 0 0 0 -0.756308,0.757765 h -0.0015 v 2.867849 a 0.74618153,0.74618153 0 0 0 -0.0015,0.0073 0.74618153,0.74618153 0 0 0 -0.0029,0.02623 0.74618153,0.74618153 0 0 0 -0.0043,0.06121 0.74618153,0.74618153 0 0 0 0.0015,0.06703 0.74618153,0.74618153 0 0 0 0.0029,0.03497 0.74618153,0.74618153 0 0 0 0.0043,0.03789 v 2.866393 a 0.74618153,0.74618153 0 0 0 0.01022,0.12678 0.74618153,0.74618153 0 0 0 0.01602,0.07287 0.74618153,0.74618153 0 0 0 0.02186,0.06995 0.74618153,0.74618153 0 0 0 0,0.0029 0.74618153,0.74618153 0 0 0 0.02769,0.06412 0.74618153,0.74618153 0 0 0 0.0015,0.0043 0.74618153,0.74618153 0 0 0 0.03644,0.06266 0.74618153,0.74618153 0 0 0 0.04226,0.06121 0.74618153,0.74618153 0 0 0 0.04809,0.05683 0.74618153,0.74618153 0 0 0 0.04954,0.04954 0.74618153,0.74618153 0 0 0 0.0043,0.0029 0.74618153,0.74618153 0 0 0 0.0015,0.0015 0.74618153,0.74618153 0 0 0 0.05683,0.04372 0.74618153,0.74618153 0 0 0 0.06121,0.03934 0.74618153,0.74618153 0 0 0 0.0043,0.0029 0.74618153,0.74618153 0 0 0 0.04518,0.02186 0.74618153,0.74618153 0 0 0 0.02768,0.01312 0.74618153,0.74618153 0 0 0 0.06121,0.02332 0.74618153,0.74618153 0 0 0 0.128238,0.02914 0.74618153,0.74618153 0 0 0 0.03644,0.0043 0.74618153,0.74618153 0 0 0 0.01166,0 0.74618153,0.74618153 0 0 0 0.05537,0.0029 0.74618153,0.74618153 0 0 0 0.05392,-0.0029 0.74618153,0.74618153 0 0 0 0.0087,0 0.74618153,0.74618153 0 0 0 0.0029,0 0.74618153,0.74618153 0 0 0 0.03644,-0.0043 0.74618153,0.74618153 0 0 0 0.128237,-0.02914 0.74618153,0.74618153 0 0 0 0.06703,-0.02623 0.74618153,0.74618153 0 0 0 0.0015,0 0.74618153,0.74618153 0 0 0 0.0043,-0.0015 0.74618153,0.74618153 0 0 0 0.06121,-0.03206 0.74618153,0.74618153 0 0 0 0.0015,0 0.74618153,0.74618153 0 0 0 0.0029,-0.0015 0.74618153,0.74618153 0 0 0 0.118036,-0.08307 0.74618153,0.74618153 0 0 0 0.0059,-0.0043 0.74618153,0.74618153 0 0 0 0.04954,-0.04955 0.74618153,0.74618153 0 0 0 0.04809,-0.05683 0.74618153,0.74618153 0 0 0 0.04226,-0.06121 0.74618153,0.74618153 0 0 0 0.03643,-0.06265 0.74618153,0.74618153 0 0 0 0.0015,-0.0045 0.74618153,0.74618153 0 0 0 0.02768,-0.06412 0.74618153,0.74618153 0 0 0 0,-0.0029 0.74618153,0.74618153 0 0 0 0.02186,-0.06995 0.74618153,0.74618153 0 0 0 0.01602,-0.07287 0.74618153,0.74618153 0 0 0 0.01022,-0.126779 V 18.82201 h 1.490757 v 2.238322 a 0.74618153,0.74618153 0 0 0 0.01022,0.126779 0.74618153,0.74618153 0 0 0 0.01602,0.07287 0.74618153,0.74618153 0 0 0 0.02186,0.06995 0.74618153,0.74618153 0 0 0 0,0.0029 0.74618153,0.74618153 0 0 0 0.02768,0.06412 0.74618153,0.74618153 0 0 0 0.0015,0.0045 0.74618153,0.74618153 0 0 0 0.03643,0.06265 0.74618153,0.74618153 0 0 0 0.04226,0.06121 0.74618153,0.74618153 0 0 0 0.04809,0.05683 0.74618153,0.74618153 0 0 0 0.04955,0.04955 0.74618153,0.74618153 0 0 0 0.0043,0.0029 0.74618153,0.74618153 0 0 0 0.0015,0.0015 0.74618153,0.74618153 0 0 0 0.05683,0.04372 0.74618153,0.74618153 0 0 0 0.06121,0.03934 0.74618153,0.74618153 0 0 0 0.0029,0.0015 0.74618153,0.74618153 0 0 0 0.0015,0.0015 0.74618153,0.74618153 0 0 0 0.04518,0.02186 0.74618153,0.74618153 0 0 0 0.01895,0.01022 0.74618153,0.74618153 0 0 0 0.0087,0.0029 0.74618153,0.74618153 0 0 0 0.06121,0.02332 0.74618153,0.74618153 0 0 0 0.128237,0.02914 0.74618153,0.74618153 0 0 0 0.03643,0.0045 0.74618153,0.74618153 0 0 0 0.01166,0 0.74618153,0.74618153 0 0 0 0.05537,0.0029 0.74618153,0.74618153 0 0 0 0.05392,-0.0029 0.74618153,0.74618153 0 0 0 0.0087,0 0.74618153,0.74618153 0 0 0 0.0029,0 0.74618153,0.74618153 0 0 0 0.03643,-0.0045 0.74618153,0.74618153 0 0 0 0.128236,-0.02914 0.74618153,0.74618153 0 0 0 0.06703,-0.02624 0.74618153,0.74618153 0 0 0 0.0015,0 0.74618153,0.74618153 0 0 0 0.0043,-0.0015 0.74618153,0.74618153 0 0 0 0.06121,-0.03206 0.74618153,0.74618153 0 0 0 0.0015,0 0.74618153,0.74618153 0 0 0 0.0029,-0.0015 0.74618153,0.74618153 0 0 0 0.118036,-0.08307 0.74618153,0.74618153 0 0 0 0.0015,-0.0015 0.74618153,0.74618153 0 0 0 0.0043,-0.0029 0.74618153,0.74618153 0 0 0 0.04954,-0.04955 0.74618153,0.74618153 0 0 0 0.04809,-0.05683 0.74618153,0.74618153 0 0 0 0.04226,-0.06121 0.74618153,0.74618153 0 0 0 0.03643,-0.06266 0.74618153,0.74618153 0 0 0 0,-0.0015 0.74618153,0.74618153 0 0 0 0.0015,-0.0029 0.74618153,0.74618153 0 0 0 0.02769,-0.06412 0.74618153,0.74618153 0 0 0 0,-0.0015 0.74618153,0.74618153 0 0 0 0,-0.0015 0.74618153,0.74618153 0 0 0 0.02186,-0.06995 0.74618153,0.74618153 0 0 0 0.01602,-0.07286 0.74618153,0.74618153 0 0 0 0.01022,-0.12678 v -2.866392 a 0.74618153,0.74618153 0 0 0 0.0043,-0.03789 0.74618153,0.74618153 0 0 0 0.0029,-0.03497 0.74618153,0.74618153 0 0 0 0.0015,-0.0408 0.74618153,0.74618153 0 0 0 -0.0015,-0.04372 0.74618153,0.74618153 0 0 0 0,-0.0029 0.74618153,0.74618153 0 0 0 0,-0.0073 0.74618153,0.74618153 0 0 0 -0.0073,-0.06121 0.74618153,0.74618153 0 0 0 0,-0.0059 v -2.867848 h -0.0015 a 0.74618153,0.74618153 0 0 0 -0.756718,-0.75761 0.74618153,0.74618153 0 0 0 -0.502747,0.206928 0.74618153,0.74618153 0 0 0 -0.05246,0.05391 0.74618153,0.74618153 0 0 0 -0.03644,0.04663 0.74618153,0.74618153 0 0 0 -0.02477,0.03351 0.74618153,0.74618153 0 0 0 -0.0087,0.01312 0.74618153,0.74618153 0 0 0 -0.110749,0.518778 v 2.123199 h -1.490757 v -2.123199 a 0.74618153,0.74618153 0 0 0 -0.110749,-0.518778 0.74618153,0.74618153 0 0 0 -0.0015,-0.0029 0.74618153,0.74618153 0 0 0 -0.02186,-0.03205 0.74618153,0.74618153 0 0 0 -0.01022,-0.01166 0.74618153,0.74618153 0 0 0 -0.03644,-0.04663 0.74618153,0.74618153 0 0 0 -0.05246,-0.05391 0.74618153,0.74618153 0 0 0 -0.502748,-0.206929 z m 6.693104,1.514073 a 2.238321,2.238321 0 0 0 -2.238321,2.238321 2.238321,2.238321 0 0 0 2.238321,2.238322 2.238321,2.238321 0 0 0 0.553752,-0.07287 c -0.01658,0.06247 -0.02699,0.135825 -0.04663,0.192355 -0.106882,0.307684 -0.241561,0.490902 -0.374513,0.579982 -0.13295,0.08908 -0.305767,0.151456 -0.724247,0.06265 a 0.74623967,0.74623967 0 1 0 -0.308935,1.460155 c 0.70068,0.148658 1.367233,0.05001 1.86381,-0.282704 0.496576,-0.332716 0.781582,-0.832676 0.954491,-1.330461 0.345827,-0.995547 0.320594,-2.101334 0.320594,-2.847441 a 0.7461816,0.7461816 0 0 0 -0.0043,-0.08598 2.238321,2.238321 0 0 0 -2.23395,-2.152344 z m 0,1.492214 a 0.74610699,0.74610699 0 0 1 0.746107,0.746107 0.74610699,0.74610699 0 0 1 -0.746107,0.746108 0.74610699,0.74610699 0 0 1 -0.746107,-0.746108 0.74610699,0.74610699 0 0 1 0.746107,-0.746107 z"
       style="opacity:1;fill:#c4c4c4;fill-opacity:1;stroke-width:1"
       inkscape:connector-curvature="0" />
  </g>
</svg>
