<?xml version="1.0" encoding="UTF-8" standalone="no"?>
<svg
   xmlns:dc="http://purl.org/dc/elements/1.1/"
   xmlns:cc="http://creativecommons.org/ns#"
   xmlns:rdf="http://www.w3.org/1999/02/22-rdf-syntax-ns#"
   xmlns:svg="http://www.w3.org/2000/svg"
   xmlns="http://www.w3.org/2000/svg"
   xmlns:sodipodi="http://sodipodi.sourceforge.net/DTD/sodipodi-0.dtd"
   xmlns:inkscape="http://www.inkscape.org/namespaces/inkscape"
   height="32"
   width="32"
   version="1"
   id="svg12"
   sodipodi:docname="tracktion.svg"
   inkscape:version="0.92.1 r">
  <metadata
     id="metadata18">
    <rdf:RDF>
      <cc:Work
         rdf:about="">
        <dc:format>image/svg+xml</dc:format>
        <dc:type
           rdf:resource="http://purl.org/dc/dcmitype/StillImage" />
      </cc:Work>
    </rdf:RDF>
  </metadata>
  <defs
     id="defs16" />
  <sodipodi:namedview
     pagecolor="#ffffff"
     bordercolor="#666666"
     borderopacity="1"
     objecttolerance="10"
     gridtolerance="10"
     guidetolerance="10"
     inkscape:pageopacity="0"
     inkscape:pageshadow="2"
     inkscape:window-width="640"
     inkscape:window-height="480"
     id="namedview14"
     showgrid="false"
     inkscape:zoom="8.375"
     inkscape:cx="-29.373134"
     inkscape:cy="16"
     inkscape:current-layer="svg12" />
  <rect
     style="opacity:1;fill:#5f7c8a;fill-opacity:1;fill-rule:evenodd;stroke:none;stroke-width:1.03534329;stroke-linecap:round;stroke-linejoin:bevel;stroke-miterlimit:4;stroke-dasharray:none;stroke-dashoffset:0;stroke-opacity:1"
     id="rect4497-3-3"
     width="28.203388"
     height="28.203388"
     x="1.8983059"
     y="1.8983059"
     ry="5.575182" />
  <path
     style="fill:#ffffff;stroke-width:1;enable-background:new"
     d="m 13.793908,5.2242849 c -0.228463,0.024862 -0.429701,0.2117906 -0.471459,0.437775 L 12.86784,7.9687802 c -0.816142,0.319175 -1.583176,0.757705 -2.256226,1.296529 L 8.37263,8.5075902 c -0.232651,-0.08022 -0.514833,0.02371 -0.639829,0.235729 L 5.577563,12.481271 c -0.121401,0.214985 -0.06935,0.512508 0.117861,0.673504 l 1.784768,1.565857 c -0.06281,0.419864 -0.101027,0.842314 -0.101027,1.279673 0,0.437375 0.03818,0.859786 0.101027,1.279672 l -1.784768,1.565935 c -0.18719,0.160996 -0.239262,0.458519 -0.117861,0.673504 l 2.155238,3.737952 c 0.124996,0.211983 0.407178,0.315943 0.639829,0.235722 l 2.239369,-0.75769 c 0.673058,0.538787 1.440084,0.977324 2.256226,1.29653 l 0.454609,2.30672 c 0.04611,0.241464 0.276171,0.434427 0.521968,0.437775 h 4.310399 c 0.245797,-0.0031 0.475876,-0.196311 0.52196,-0.437775 l 0.454617,-2.30672 c 0.816142,-0.319175 1.583176,-0.757712 2.256226,-1.29653 l 2.239369,0.75769 c 0.232643,0.08022 0.514833,-0.02371 0.639829,-0.235722 l 2.155238,-3.737952 c 0.121394,-0.214985 0.06935,-0.512508 -0.117861,-0.673504 l -1.784768,-1.565935 c 0.06281,-0.419863 0.101019,-0.842236 0.101019,-1.279672 0,-0.437375 -0.03825,-0.859786 -0.101019,-1.279673 l 1.784768,-1.565857 c 0.18719,-0.160996 0.239255,-0.458519 0.117861,-0.673504 L 24.267202,8.7433192 c -0.124996,-0.211983 -0.407186,-0.31595 -0.639829,-0.235729 l -2.239369,0.757689 C 20.714492,8.7260852 19.947073,8.2875712 19.131162,7.9683642 L 18.676545,5.6616443 C 18.630435,5.4201806 18.400382,5.2272099 18.154585,5.2238692 h -4.310399 c -0.01686,-3.925e-4 -0.03371,-3.925e-4 -0.05049,0 z"
     id="path2"
     inkscape:connector-curvature="0" />
  <path
     d="m 11.381633,12.098051 v 3.078912 h 3.078912 v 6.157822 h 3.078911 v -6.157822 h 3.078911 v -3.078912 z"
     id="path8"
     inkscape:connector-curvature="0"
     style="fill:#5f7c8a;fill-opacity:1;stroke-width:1" />
</svg>
