<?xml version="1.0" encoding="UTF-8" standalone="no"?>
<svg
   xmlns:dc="http://purl.org/dc/elements/1.1/"
   xmlns:cc="http://creativecommons.org/ns#"
   xmlns:rdf="http://www.w3.org/1999/02/22-rdf-syntax-ns#"
   xmlns:svg="http://www.w3.org/2000/svg"
   xmlns="http://www.w3.org/2000/svg"
   xmlns:sodipodi="http://sodipodi.sourceforge.net/DTD/sodipodi-0.dtd"
   xmlns:inkscape="http://www.inkscape.org/namespaces/inkscape"
   height="32"
   width="32"
   version="1"
   id="svg24"
   sodipodi:docname="trackma.svg"
   inkscape:version="0.92.1 r">
  <metadata
     id="metadata30">
    <rdf:RDF>
      <cc:Work
         rdf:about="">
        <dc:format>image/svg+xml</dc:format>
        <dc:type
           rdf:resource="http://purl.org/dc/dcmitype/StillImage" />
      </cc:Work>
    </rdf:RDF>
  </metadata>
  <defs
     id="defs28" />
  <sodipodi:namedview
     pagecolor="#ffffff"
     bordercolor="#666666"
     borderopacity="1"
     objecttolerance="10"
     gridtolerance="10"
     guidetolerance="10"
     inkscape:pageopacity="0"
     inkscape:pageshadow="2"
     inkscape:window-width="640"
     inkscape:window-height="480"
     id="namedview26"
     showgrid="false"
     inkscape:zoom="8.375"
     inkscape:cx="-6.6865672"
     inkscape:cy="16"
     inkscape:current-layer="svg24" />
  <rect
     style="opacity:1;fill:#258dcb;fill-opacity:1;fill-rule:evenodd;stroke:none;stroke-width:1.03534329;stroke-linecap:round;stroke-linejoin:bevel;stroke-miterlimit:4;stroke-dasharray:none;stroke-dashoffset:0;stroke-opacity:1"
     id="rect4497-3-3"
     width="28.203388"
     height="28.203388"
     x="1.8983059"
     y="1.8983059"
     ry="5.575182" />
  <g
     id="g4526"
     transform="matrix(0.70355121,0,0,0.70355121,4.7431806,5.0949562)"
     style="stroke-width:1.42136061">
    <path
       id="path4"
       d="M 18.423703,1 14.169715,6.9981318 A 11.914893,11.836739 0 0 0 10.727893,8.882282 C 6.4935704,7.8743609 2,11.254254 2,11.254254 l 4.3598738,8.950395 A 11.914893,11.836739 0 0 0 18.085107,30 11.914893,11.836739 0 0 0 30,18.163268 11.914893,11.836739 0 0 0 25.223571,8.7042814 C 24.498331,3.7587173 18.423703,1 18.423703,1 Z"
       style="fill:#50beee;stroke-width:1.42136061"
       inkscape:connector-curvature="0" />
    <path
       id="path6"
       d="M 5.1434659,12.000114 C 4.7855846,12.002014 4.4044119,12.040934 4,12.124837 c 0,0 2.5084332,0.277172 3.756215,1.972668 C 7.2298528,16.314047 6.5435014,18 6.5435014,18 L 9,13.711747 c 0,0 -1.3513641,-1.729135 -3.8565341,-1.711615 z"
       style="fill:#ffffff;stroke-width:1.42136061"
       inkscape:connector-curvature="0" />
    <path
       id="path8"
       d="M 18,3.0000671 16,7 17.219512,6.6088271 c 0,0 0.615019,-1.6682498 0.780488,-3.6088271 z"
       style="fill:#ffffff;stroke-width:1.42136061"
       inkscape:connector-curvature="0" />
    <path
       id="path14"
       d="m 12.693343,18.758263 a 2.5002207,2.508876 0 0 0 -0.542995,2.590961 2.5002207,2.508876 0 0 0 3.204562,1.499472 2.5002207,2.508876 0 0 0 1.494314,-3.215642 2.5002207,2.508876 0 0 0 -2.0751,-1.633059 l -0.0081,0.168945 -0.123799,2.715101 -1.834053,-2.000052 z"
       style="fill:#ffffff;stroke-width:1.42136061"
       inkscape:connector-curvature="0" />
    <path
       id="path16"
       d="m 20.693343,14.758263 a 2.5002207,2.508876 0 0 0 -0.542995,2.590961 2.5002207,2.508876 0 0 0 3.204562,1.499472 2.5002207,2.508876 0 0 0 1.494314,-3.215642 2.5002207,2.508876 0 0 0 -2.075101,-1.633059 l -0.0081,0.168945 -0.123798,2.715099 -1.834053,-2.00005 z"
       style="fill:#ffffff;stroke-width:1.42136061"
       inkscape:connector-curvature="0" />
    <path
       id="path20"
       d="m 24.290604,22.000297 a 0.72382339,0.79450847 0 0 0 -0.07163,0.0018 0.72382339,0.79450847 0 0 0 -0.488155,0.269975 c -0.298141,0.362389 -0.895817,0.443713 -1.535144,0.347574 -0.571327,-0.08581 -1.006342,-0.266497 -1.104474,-0.308265 a 0.72382339,0.79450847 0 0 0 -0.339259,-0.09922 0.72382339,0.79450847 0 0 0 -0.759562,0.849232 c -0.03453,0.188235 -0.117315,0.596474 -0.322295,1.106826 -0.260311,0.648127 -0.641621,1.165848 -1.07903,1.254769 a 0.72455766,0.79531449 0 0 0 0.263868,1.564033 c 1.162899,-0.23639 1.792942,-1.312959 2.140155,-2.177442 0.112146,-0.279253 0.19284,-0.539872 0.260098,-0.780986 0.222381,0.06369 0.465729,0.125111 0.740714,0.1665 0.852751,0.128326 2.017541,0.103947 2.810189,-0.859588 a 0.72382339,0.79450847 0 0 0 -0.515485,-1.335449 z"
       style="fill:#ffffff;stroke-width:1.42136061"
       inkscape:connector-curvature="0" />
  </g>
</svg>
