<?xml version="1.0" encoding="UTF-8" standalone="no"?>
<svg
   xmlns:dc="http://purl.org/dc/elements/1.1/"
   xmlns:cc="http://creativecommons.org/ns#"
   xmlns:rdf="http://www.w3.org/1999/02/22-rdf-syntax-ns#"
   xmlns:svg="http://www.w3.org/2000/svg"
   xmlns="http://www.w3.org/2000/svg"
   xmlns:sodipodi="http://sodipodi.sourceforge.net/DTD/sodipodi-0.dtd"
   xmlns:inkscape="http://www.inkscape.org/namespaces/inkscape"
   width="32"
   height="32"
   viewBox="0 0 32 32"
   version="1.1"
   id="svg46"
   sodipodi:docname="tuxpuck.svg"
   inkscape:version="0.92.1 r">
  <metadata
     id="metadata52">
    <rdf:RDF>
      <cc:Work
         rdf:about="">
        <dc:format>image/svg+xml</dc:format>
        <dc:type
           rdf:resource="http://purl.org/dc/dcmitype/StillImage" />
      </cc:Work>
    </rdf:RDF>
  </metadata>
  <defs
     id="defs50" />
  <sodipodi:namedview
     pagecolor="#ffffff"
     bordercolor="#666666"
     borderopacity="1"
     objecttolerance="10"
     gridtolerance="10"
     guidetolerance="10"
     inkscape:pageopacity="0"
     inkscape:pageshadow="2"
     inkscape:window-width="640"
     inkscape:window-height="480"
     id="namedview48"
     showgrid="false"
     inkscape:zoom="38"
     inkscape:cx="10.367989"
     inkscape:cy="17.547228"
     inkscape:current-layer="svg46" />
  <rect
     style="opacity:1;fill:#e6e6e6;fill-opacity:1;fill-rule:evenodd;stroke:none;stroke-width:1.03534329;stroke-linecap:round;stroke-linejoin:bevel;stroke-miterlimit:4;stroke-dasharray:none;stroke-dashoffset:0;stroke-opacity:1"
     id="rect4497-3"
     width="28.203388"
     height="28.203388"
     x="1.8983059"
     y="1.8983059"
     ry="5.575182" />
  <path
     inkscape:connector-curvature="0"
     id="path4"
     d="m 15.984659,5.5551841 c -2.002971,0 -3.730246,1.8633324 -3.730246,4.1778755 0,5.2223454 -2.984197,5.7445794 -2.984197,9.4002954 0,4.037842 3.006158,7.311207 6.714443,7.311207 3.708285,0 6.714443,-3.273365 6.714443,-7.311207 0,-3.655716 -2.984197,-4.17795 -2.984197,-9.4002954 0,-2.3145431 -1.727276,-4.1778755 -3.730246,-4.1778755 z"
     style="opacity:1;fill:#5095ab;fill-opacity:1;stroke-width:1" />
  <path
     inkscape:connector-curvature="0"
     id="path8"
     style="opacity:1;fill:#ffffff;fill-opacity:1;stroke-width:1"
     d="m 15.984659,11.523578 c -1.335312,0 -2.238148,1.131309 -2.238148,2.536493 0,3.170784 -2.238147,3.48778 -2.238147,5.707276 0,2.451593 2.004106,4.439068 4.476295,4.439068 2.472189,0 4.476295,-1.987475 4.476295,-4.439068 0,-2.219496 -2.238147,-2.536492 -2.238147,-5.707276 0,-1.405184 -0.902836,-2.536493 -2.238148,-2.536493 z" />
  <path
     inkscape:connector-curvature="0"
     id="path12"
     d="M 12.641137,26.429268 C 12.416335,26.393458 12.217548,26.326537 11.781989,26.138607 11.133515,25.85869 10.831129,25.767896 9.644249,25.497005 9.052228,25.361896 8.831591,25.301913 8.317755,25.135693 8.130839,25.075263 7.88171,24.998122 7.764135,24.964326 7.444961,24.872486 7.360342,24.836752 7.243403,24.744689 7.083876,24.619054 7.009532,24.425305 7.038044,24.209473 c 0.01827,-0.138317 0.06655,-0.271188 0.199816,-0.550062 0.178114,-0.3728 0.620346,-0.506865 0.647477,-0.873623 0.01596,-0.215907 0.0028,-0.458671 -0.05191,-0.964045 -0.03242,-0.299091 -0.03982,-0.409283 -0.0403,-0.5996 -4.88e-4,-0.206506 0.0022,-0.06267 0.02341,-0.1416 0.07986,-0.295734 0.140637,-0.46643 0.423338,-0.53999 0.08183,-0.02164 -0.08938,-0.02462 0.294649,-0.03208 0.239059,-0.0075 0.377461,-0.01343 0.408109,-0.02089 0.165636,-0.03805 0.286227,-0.0999 0.39861,-0.206954 0.107052,-0.102059 0.180317,-0.653763 0.320049,-0.902346 0.217513,-0.383619 0.64661,-0.379814 0.997015,-0.394064 0.09934,0.02089 0.132374,0.03432 0.24118,0.09728 0.109507,0.06267 0.140477,0.08818 0.235699,0.189571 0.239629,0.255224 0.354022,0.412715 0.891478,1.226804 0.425977,0.645407 0.55613,0.851839 0.727839,1.154585 0.187051,0.329978 0.524251,0.859225 0.649257,1.019104 0.02118,0.0276 0.150875,0.191809 0.288203,0.365862 0.137334,0.174352 0.262926,0.337289 0.2791,0.362356 0.2579,0.359745 0.438948,0.773206 0.503352,1.186293 0.02165,0.143988 0.0224,0.168309 0.01029,0.333111 -0.01537,0.209267 -0.02872,0.298718 -0.05141,0.344376 -0.0091,0.01865 -0.0291,0.06864 -0.04444,0.110938 -0.197186,0.54939 -0.688696,0.961583 -1.258115,1.055212 -0.121088,0.02014 -0.3612,0.02014 -0.489598,0 z"
     style="fill:#eab108;stroke-width:1" />
  <path
     inkscape:connector-curvature="0"
     id="path16"
     style="fill:#eab108;stroke-width:1"
     d="m 21.364881,26.180535 c 0.171605,-0.120561 0.308708,-0.255745 0.591983,-0.585275 0.421724,-0.490602 0.41081,-0.687261 1.282849,-1.389964 0.435003,-0.350345 0.593089,-0.488812 0.950314,-0.832666 0.129962,-0.125038 0.304582,-0.288945 0.38807,-0.364221 0.226629,-0.204268 0.282002,-0.267683 0.340776,-0.389886 0.0802,-0.166667 0.06145,-0.353776 -0.05172,-0.516937 -0.07255,-0.104596 -0.167756,-0.192555 -0.393994,-0.364072 -0.302414,-0.229336 -0.388903,-0.426516 -0.563626,-0.712477 -0.102806,-0.168309 0.03136,-0.59393 -0.132919,-1.025519 -0.09719,-0.255298 -0.136786,-0.34751 -0.215381,-0.501868 -0.08528,-0.167413 -0.102751,-0.19621 -0.153029,-0.25112 -0.188971,-0.207028 -0.39877,-0.276933 -0.663802,-0.221502 -0.07674,0.01641 -0.12184,0.03506 -0.443491,0.185244 -0.200502,0.09303 -0.380433,0.172711 -0.408737,0.1795 -0.15288,0.0373 -0.278879,0.03506 -0.416522,-0.0075 -0.131136,-0.03879 -0.235095,0.234111 -0.454126,0.0896 -0.149839,-0.09811 -0.310664,-0.220607 -0.425748,-0.252389 -0.1599,-0.04402 -0.159372,-0.04402 -0.308791,-0.0276 -0.143834,0.0179 -0.249805,0.05894 -0.366816,0.150254 -0.07375,0.05745 -0.09539,0.08207 -0.159675,0.177037 -0.06458,0.09579 -0.07993,0.128619 -0.116838,0.249479 -0.09285,0.304239 -0.122379,0.478292 -0.230366,1.356318 -0.08551,0.696138 -0.1078,0.916223 -0.124561,1.231354 -0.01825,0.343257 -0.07832,0.909135 -0.115652,1.08953 -0.0063,0.03059 -0.04555,0.216727 -0.08721,0.413684 -0.0416,0.197032 -0.07812,0.380112 -0.08114,0.40697 -0.06462,0.396376 -0.04326,0.804763 0.07476,1.165553 0.04177,0.125336 0.05126,0.145405 0.129698,0.273949 0.09957,0.163161 0.147758,0.230156 0.185524,0.257835 0.01507,0.01119 0.05248,0.04327 0.08293,0.07162 0.391526,0.364595 0.97024,0.498137 1.481379,0.342139 0.108621,-0.03283 0.3078,-0.131081 0.406093,-0.199345 z" />
  <circle
     id="circle20"
     r="1.4920985"
     style="opacity:1;fill:#ffffff;fill-opacity:1;stroke-width:1"
     cx="14.49256"
     cy="9.285326" />
  <circle
     id="circle22"
     r="0.74604923"
     cy="9.285326"
     cx="14.49256"
     style="opacity:1;fill:#323232;fill-opacity:1;stroke-width:1" />
  <path
     inkscape:connector-curvature="0"
     id="path26"
     d="m 18.222807,11.150553 c 0,1.442188 -1.002053,2.611173 -2.238148,2.611173 -1.236095,0 -2.238148,-1.168985 -2.238148,-2.611173 z"
     style="opacity:1;fill:#f77d00;fill-opacity:1;stroke-width:1" />
  <circle
     id="circle30"
     cy="9.285326"
     cx="17.476757"
     style="opacity:1;fill:#ffffff;fill-opacity:1;stroke-width:1"
     r="1.4920985" />
  <circle
     id="circle32"
     style="opacity:1;fill:#323232;fill-opacity:1;stroke-width:1"
     cx="17.476757"
     cy="9.285326"
     r="0.74604923" />
  <path
     inkscape:connector-curvature="0"
     id="path34"
     d="m 18.222807,11.274919 c 0,0.248659 -1.002053,1.740758 -2.238148,1.740758 -1.236095,0 -2.238148,-1.492099 -2.238148,-1.740758 0,-0.686738 1.002053,-1.24344 2.238148,-1.24344 1.236095,0 2.238148,0.556702 2.238148,1.24344 z"
     style="opacity:1;fill:#eab108;fill-opacity:1;stroke-width:1" />
  <path
     inkscape:connector-curvature="0"
     id="path38"
     d="m 21.543562,21.258625 c -0.859235,0 -0.865638,-0.71382 -1.037189,-1.555811 -0.190857,-0.936739 -0.312848,-1.478296 1.182827,-1.555811 1.295041,-0.425546 1.495155,3.061711 -0.145638,3.111622 z"
     style="opacity:1;fill:#5095ab;fill-opacity:1;stroke-width:1" />
</svg>
