<?xml version="1.0" encoding="UTF-8" standalone="no"?>
<svg
   xmlns:dc="http://purl.org/dc/elements/1.1/"
   xmlns:cc="http://creativecommons.org/ns#"
   xmlns:rdf="http://www.w3.org/1999/02/22-rdf-syntax-ns#"
   xmlns:svg="http://www.w3.org/2000/svg"
   xmlns="http://www.w3.org/2000/svg"
   xmlns:sodipodi="http://sodipodi.sourceforge.net/DTD/sodipodi-0.dtd"
   xmlns:inkscape="http://www.inkscape.org/namespaces/inkscape"
   height="32"
   width="32"
   version="1"
   id="svg10"
   sodipodi:docname="tweetdeck.svg"
   inkscape:version="0.92.1 r">
  <metadata
     id="metadata16">
    <rdf:RDF>
      <cc:Work
         rdf:about="">
        <dc:format>image/svg+xml</dc:format>
        <dc:type
           rdf:resource="http://purl.org/dc/dcmitype/StillImage" />
      </cc:Work>
    </rdf:RDF>
  </metadata>
  <defs
     id="defs14" />
  <sodipodi:namedview
     pagecolor="#ffffff"
     bordercolor="#666666"
     borderopacity="1"
     objecttolerance="10"
     gridtolerance="10"
     guidetolerance="10"
     inkscape:pageopacity="0"
     inkscape:pageshadow="2"
     inkscape:window-width="1680"
     inkscape:window-height="965"
     id="namedview12"
     showgrid="false"
     inkscape:zoom="7.375"
     inkscape:cx="-53.288136"
     inkscape:cy="16"
     inkscape:window-x="0"
     inkscape:window-y="0"
     inkscape:window-maximized="1"
     inkscape:current-layer="svg10" />
  <rect
     style="opacity:1;fill:#54abed;fill-opacity:1;fill-rule:evenodd;stroke:none;stroke-width:1.03534329;stroke-linecap:round;stroke-linejoin:bevel;stroke-miterlimit:4;stroke-dasharray:none;stroke-dashoffset:0;stroke-opacity:1"
     id="rect4497-3"
     width="28.203388"
     height="28.203388"
     x="1.8983059"
     y="1.8983059"
     ry="5.575182" />
  <path
     inkscape:connector-curvature="0"
     d="m 6.2501263,7.9830508 c -0.6461903,0 -1.1663336,0.5150208 -1.1663336,1.154661 V 22.825693 c 0,0.639683 0.5201769,1.112674 1.1663336,1.112674 H 13.48074 L 16,26.457627 l 2.51926,-2.51926 h 7.231369 c 0.645771,0 1.165578,-0.472781 1.165578,-1.112674 V 9.1377118 c 0,-0.6396402 -0.519807,-1.154661 -1.166417,-1.154661 z"
     id="path2"
     style="fill:#ffffff;stroke-width:0.83975345" />
  <path
     style="opacity:1;stroke-width:0.83975345;fill:#54abed;fill-opacity:1"
     inkscape:connector-curvature="0"
     d="m 22.718028,11.792173 c -0.494363,0.219242 -1.025591,0.367417 -1.583271,0.43406 0.569159,-0.341175 1.006192,-0.881406 1.212016,-1.525077 -0.532597,0.315916 -1.122583,0.545328 -1.750466,0.668982 -0.502862,-0.535746 -1.219238,-0.870489 -2.012134,-0.870489 -1.522389,0 -2.756658,1.234186 -2.756658,2.756491 0,0.216043 0.02443,0.426444 0.07141,0.628186 -2.291015,-0.114954 -4.322127,-1.212352 -5.681772,-2.880103 -0.2372804,0.40713 -0.3731777,0.880566 -0.3731777,1.385846 0,0.956311 0.4866367,1.800095 1.2262917,2.294374 -0.451854,-0.0143 -0.87687,-0.138299 -1.2485452,-0.344761 -2.064e-4,0.0115 -2.457e-4,0.023 -2.457e-4,0.03465 0,1.335628 0.9501809,2.449729 2.2112389,2.702915 -0.231311,0.06299 -0.474856,0.09666 -0.726228,0.09666 -0.177641,0 -0.350319,-0.01724 -0.518623,-0.04944 0.350782,1.095206 1.368798,1.892132 2.57502,1.914386 -0.943379,0.739302 -2.131966,1.180021 -3.4235065,1.180021 -0.2225011,0 -0.4419287,-0.01302 -0.6575774,-0.03847 1.2207499,0.78265 2.6695759,1.238637 4.2264789,1.238637 5.070347,0 7.842962,-4.200363 7.842962,-7.843046 0,-0.119522 -0.0027,-0.238406 -0.008,-0.356601 0.538542,-0.388647 1.005941,-0.874184 1.375516,-1.426993"
     id="path6" />
</svg>
