<?xml version="1.0" encoding="UTF-8" standalone="no"?>
<svg
   xmlns:dc="http://purl.org/dc/elements/1.1/"
   xmlns:cc="http://creativecommons.org/ns#"
   xmlns:rdf="http://www.w3.org/1999/02/22-rdf-syntax-ns#"
   xmlns:svg="http://www.w3.org/2000/svg"
   xmlns="http://www.w3.org/2000/svg"
   xmlns:sodipodi="http://sodipodi.sourceforge.net/DTD/sodipodi-0.dtd"
   xmlns:inkscape="http://www.inkscape.org/namespaces/inkscape"
   height="32"
   width="32"
   version="1.1"
   id="svg12"
   sodipodi:docname="ubuntu-tweak.svg"
   inkscape:version="0.92.1 r">
  <metadata
     id="metadata18">
    <rdf:RDF>
      <cc:Work
         rdf:about="">
        <dc:format>image/svg+xml</dc:format>
        <dc:type
           rdf:resource="http://purl.org/dc/dcmitype/StillImage" />
      </cc:Work>
    </rdf:RDF>
  </metadata>
  <defs
     id="defs16" />
  <sodipodi:namedview
     pagecolor="#ffffff"
     bordercolor="#666666"
     borderopacity="1"
     objecttolerance="10"
     gridtolerance="10"
     guidetolerance="10"
     inkscape:pageopacity="0"
     inkscape:pageshadow="2"
     inkscape:window-width="640"
     inkscape:window-height="480"
     id="namedview14"
     showgrid="false"
     inkscape:zoom="8.375"
     inkscape:cx="-6.6865672"
     inkscape:cy="16"
     inkscape:current-layer="svg12" />
  <rect
     style="opacity:1;fill:#7ec639;fill-opacity:1;fill-rule:evenodd;stroke:none;stroke-width:1.03534329;stroke-linecap:round;stroke-linejoin:bevel;stroke-miterlimit:4;stroke-dasharray:none;stroke-dashoffset:0;stroke-opacity:1"
     id="rect4497-3-3"
     width="28.203388"
     height="28.203388"
     x="1.8983059"
     y="1.8983059"
     ry="5.575182" />
  <g
     id="g4509"
     transform="translate(46.094701,3.3432838)">
    <path
       style="fill:#4d4d4d;stroke-width:4"
       inkscape:connector-curvature="0"
       id="path6"
       d="m -21.801343,11.656716 a 8,8 0 0 0 -2.895,-5.1991996 c -0.325,0.1216 -0.67,0.1992 -1.035,0.1992 -1.258,0 -2.34,-0.7945 -2.783,-1.9023 a 8,8 0 0 0 -1.217,-0.0977 8,8 0 0 0 -3.104,0.627 l 1.5215,2.6367 a 5,5 0 0 1 1.582,-0.264 5,5 0 0 1 4.8945,3.9999996 h 3.0352 z m -0.002,2 h -3.0293 a 5,5 0 0 1 -4.8984,4 5,5 0 0 1 -1.582,-0.26172 l -1.5176,2.6289 a 8,8 0 0 0 3.099,0.633 8,8 0 0 0 1.221,-0.105 c 0.444,-1.104 1.524,-1.895 2.779,-1.895 0.36611,0 0.71342,0.07673 1.0391,0.19922 a 8,8 0 0 0 2.889,-5.199 z m -1.928,-9.9999996 a 2,2 0 0 0 -2,-2 2,2 0 0 0 -2,2 2,2 0 0 0 2,2 2,2 0 0 0 2,-2 z m 0,17.9999996 a 2,2 0 0 0 -2,-2 2,2 0 0 0 -2,2 2,2 0 0 0 2,2 2,2 0 0 0 2,-2 z m -9.312,-12.7359996 -1.518,-2.6292 a 8,8 0 0 0 -2.918,4.4121996 c 0.45895,0.52763 0.74805,1.2063 0.74805,1.9531 0,0.74588 -0.28822,1.4238 -0.74609,1.9512 a 8,8 0 0 0 2.9141,4.418 l 1.52,-2.631 a 5,5 0 0 1 -1.688,-3.738 5,5 0 0 1 1.688,-3.7359996 z m -4.688,3.7359996 a 2,2 0 0 0 -2,-2 2,2 0 0 0 -2,2 2,2 0 0 0 2,2 2,2 0 0 0 2,-2 z" />
    <path
       inkscape:connector-curvature="0"
       id="path8"
       d="m -30.731343,8.6567164 -0.0882,1.0536 a 3.1429,3.1429 0 0 0 -0.91852,0.5312596 l -0.95759,-0.4508996 -1,1.7320996 0.86941,0.6038 a 3.1429,3.1429 0 0 0 -0.048,0.53013 3.1429,3.1429 0 0 0 0.0457,0.53237 l -0.86719,0.60156 1,1.7321 0.95536,-0.44978 a 3.1429,3.1429 0 0 0 0.92075,0.5279 l 0.0882,1.0558 h 2 l 0.0882,-1.0536 a 3.1429,3.1429 0 0 0 0.91854,-0.53126 l 0.95758,0.4509 1,-1.7321 -0.86942,-0.6038 a 3.1429,3.1429 0 0 0 0.048,-0.53013 3.1429,3.1429 0 0 0 -0.0457,-0.53237 l 0.86719,-0.60156 -1,-1.7320996 -0.95536,0.4497796 a 3.1429,3.1429 0 0 0 -0.92076,-0.5278996 l -0.0882,-1.0558 h -2 z m 1,2.8571996 a 1.1429,1.1429 0 0 1 1.1429,1.1428 1.1429,1.1429 0 0 1 -1.1429,1.1428 1.1429,1.1429 0 0 1 -1.1429,-1.1428 1.1429,1.1429 0 0 1 1.1428,-1.1428 z"
       style="fill:#4d4d4d;enable-background:new" />
  </g>
</svg>
