<?xml version="1.0" encoding="UTF-8" standalone="no"?>
<svg
   xmlns:dc="http://purl.org/dc/elements/1.1/"
   xmlns:cc="http://creativecommons.org/ns#"
   xmlns:rdf="http://www.w3.org/1999/02/22-rdf-syntax-ns#"
   xmlns:svg="http://www.w3.org/2000/svg"
   xmlns="http://www.w3.org/2000/svg"
   xmlns:sodipodi="http://sodipodi.sourceforge.net/DTD/sodipodi-0.dtd"
   xmlns:inkscape="http://www.inkscape.org/namespaces/inkscape"
   height="32"
   width="32"
   version="1"
   id="svg12"
   sodipodi:docname="uget.svg"
   inkscape:version="0.92.1 r">
  <metadata
     id="metadata18">
    <rdf:RDF>
      <cc:Work
         rdf:about="">
        <dc:format>image/svg+xml</dc:format>
        <dc:type
           rdf:resource="http://purl.org/dc/dcmitype/StillImage" />
      </cc:Work>
    </rdf:RDF>
  </metadata>
  <defs
     id="defs16" />
  <sodipodi:namedview
     pagecolor="#ffffff"
     bordercolor="#666666"
     borderopacity="1"
     objecttolerance="10"
     gridtolerance="10"
     guidetolerance="10"
     inkscape:pageopacity="0"
     inkscape:pageshadow="2"
     inkscape:window-width="640"
     inkscape:window-height="480"
     id="namedview14"
     showgrid="false"
     inkscape:zoom="4.46875"
     inkscape:cx="-50.170718"
     inkscape:cy="20.595598"
     inkscape:current-layer="svg12" />
  <rect
     style="opacity:1;fill:#8bc34a;fill-opacity:1;fill-rule:evenodd;stroke:none;stroke-width:1.03534329;stroke-linecap:round;stroke-linejoin:bevel;stroke-miterlimit:4;stroke-dasharray:none;stroke-dashoffset:0;stroke-opacity:1"
     id="rect4497-3"
     width="28.203388"
     height="28.203388"
     x="1.8983059"
     y="1.8983059"
     ry="5.575182" />
  <path
     d="m 25.328671,14 h -5 v 3 h 3 l -5.5,6.5 -5,-6.5 h 2.5 v -7 h 5 v 2 h 5 v -2 c 0,0 0,-4 -3.75,-4 h -7.5 c 0,0 -3.75,0 -3.75,4.25 V 11 18 H 8.3286713 v -7 h -3 v 7.5 c 0,2.5 2.5,2.5 2.5,2.5 h 2.4999997 v 1.25 c 0,3.75 3.75,3.75 3.75,3.75 h 7.5 c 3.75,0 3.75,-3.75 3.75,-3.75"
     style="fill:#ffffff"
     id="path8"
     inkscape:connector-curvature="0" />
</svg>
