<?xml version="1.0" encoding="UTF-8" standalone="no"?>
<svg
   xmlns:dc="http://purl.org/dc/elements/1.1/"
   xmlns:cc="http://creativecommons.org/ns#"
   xmlns:rdf="http://www.w3.org/1999/02/22-rdf-syntax-ns#"
   xmlns:svg="http://www.w3.org/2000/svg"
   xmlns="http://www.w3.org/2000/svg"
   xmlns:sodipodi="http://sodipodi.sourceforge.net/DTD/sodipodi-0.dtd"
   xmlns:inkscape="http://www.inkscape.org/namespaces/inkscape"
   height="32"
   width="32"
   version="1"
   id="svg14"
   sodipodi:docname="user_auth.svg"
   inkscape:version="0.92.2 2405546, 2018-03-11">
  <metadata
     id="metadata20">
    <rdf:RDF>
      <cc:Work
         rdf:about="">
        <dc:format>image/svg+xml</dc:format>
        <dc:type
           rdf:resource="http://purl.org/dc/dcmitype/StillImage" />
        <dc:title></dc:title>
      </cc:Work>
    </rdf:RDF>
  </metadata>
  <defs
     id="defs18" />
  <sodipodi:namedview
     pagecolor="#ffffff"
     bordercolor="#666666"
     borderopacity="1"
     objecttolerance="10"
     gridtolerance="10"
     guidetolerance="10"
     inkscape:pageopacity="0"
     inkscape:pageshadow="2"
     inkscape:window-width="1680"
     inkscape:window-height="972"
     id="namedview16"
     showgrid="false"
     inkscape:zoom="9.5"
     inkscape:cx="-1.0713977"
     inkscape:cy="23.685122"
     inkscape:current-layer="svg14"
     inkscape:window-x="0"
     inkscape:window-y="0"
     inkscape:window-maximized="1" />
  <rect
     style="opacity:1;fill:#7ea540;fill-opacity:1;fill-rule:evenodd;stroke:none;stroke-width:1.03534329;stroke-linecap:round;stroke-linejoin:bevel;stroke-miterlimit:4;stroke-dasharray:none;stroke-dashoffset:0;stroke-opacity:1"
     id="rect4497-3"
     width="28.203388"
     height="28.203388"
     x="1.8983059"
     y="1.8983059"
     ry="5.575182" />
  <path
     style="fill:#ffffff;stroke-width:0.21446089"
     d="m 15.586054,19.585076 c 1.149376,-1.143406 1.325445,-1.268682 1.938314,-1.920615 -0.06501,-0.186273 -0.164533,-0.571726 -0.164533,-0.963664 v -1.11971 l -0.795567,0.332409 c -1.173616,0.490368 -3.402405,0.321515 -4.312793,-0.326739 l -0.702312,-0.500091 -0.832658,0.551028 c -1.3563215,0.897571 -2.3910584,2.653808 -2.7651693,4.693261 l -0.1868648,1.018689 h 3.0239001 3.023901 z m 0.851258,-4.689858 c 1.383659,-0.669817 2.074072,-1.955635 1.952502,-3.636317 C 18.256653,9.4179582 17.261611,8.2298776 15.52032,7.8327253 13.231008,7.3105804 10.926009,9.1313832 10.926009,11.461937 c 0,2.942034 2.853746,4.719783 5.511303,3.433281 z"
     id="path847"
     inkscape:connector-curvature="0"
     sodipodi:nodetypes="scscsscsscccssssss" />
  <path
     style="fill:#ffffff;stroke-width:0.02430939"
     d="m 14.006378,24.939086 c -0.222284,-0.08164 -0.414473,-0.27666 -0.493556,-0.5008 -0.05396,-0.152913 -0.05156,-1.507622 0.0028,-1.641202 0.02822,-0.06923 0.681371,-0.737673 2.469806,-2.527633 l 2.431424,-2.433503 -0.06081,-0.168569 c -0.03344,-0.09271 -0.09162,-0.299407 -0.129241,-0.459314 -0.06316,-0.268316 -0.0685,-0.32919 -0.0692,-0.789087 -7.06e-4,-0.431613 0.0068,-0.533753 0.05582,-0.762784 0.334209,-1.562129 1.495655,-2.723586 3.057943,-3.057968 0.230602,-0.04937 0.329765,-0.05647 0.77494,-0.05552 0.576096,0.0011 0.793165,0.03504 1.255524,0.195661 0.570589,0.198227 1.040335,0.494711 1.479282,0.933658 0.438949,0.438948 0.735432,0.908695 0.93366,1.47928 0.162653,0.468191 0.194943,0.678174 0.194943,1.267684 0,0.589505 -0.03229,0.799485 -0.194943,1.267679 -0.198228,0.570588 -0.494711,1.040331 -0.93366,1.47928 -0.320717,0.320716 -0.595474,0.523337 -0.966962,0.71309 -0.541092,0.276382 -1.018085,0.400463 -1.62199,0.421936 -0.53181,0.01889 -1.000558,-0.0511 -1.437916,-0.214727 l -0.135998,-0.05089 -0.458898,0.458425 -0.458902,0.458419 v 0.528057 c 0,0.63356 -0.0227,0.725939 -0.229351,0.932573 -0.201416,0.201417 -0.306846,0.229354 -0.865482,0.229354 h -0.460968 v 0.460968 c 0,0.558632 -0.02793,0.664065 -0.229351,0.865479 -0.206503,0.206505 -0.299235,0.229354 -0.930724,0.229354 h -0.526181 l -0.366247,0.359869 c -0.288134,0.28312 -0.387587,0.366074 -0.466305,0.388952 -0.149606,0.04348 -1.497627,0.03706 -1.619526,-0.0078 z m 1.647506,-1.055284 c 0.198436,-0.193813 0.371657,-0.340502 0.452128,-0.382873 l 0.130449,-0.06869 0.565192,-0.0077 0.565194,-0.0077 v -0.45935 c 0,-0.556836 0.02807,-0.66259 0.229352,-0.863865 0.201279,-0.201275 0.307032,-0.229356 0.863865,-0.229356 h 0.459348 l 0.0077,-0.56519 0.0077,-0.565195 0.06993,-0.133708 c 0.05205,-0.09952 0.245682,-0.31052 0.757253,-0.825195 l 0.68732,-0.691495 0.227279,0.111709 c 0.273202,0.134265 0.532546,0.222556 0.817752,0.278374 0.283862,0.05556 0.819964,0.05562 1.103455,1.24e-4 1.277071,-0.249972 2.240611,-1.213477 2.491276,-2.491184 0.05587,-0.284745 0.05587,-0.842342 0,-1.127091 -0.250659,-1.277664 -1.217303,-2.244098 -2.491276,-2.490722 -0.258387,-0.05002 -0.815623,-0.05569 -1.074042,-0.01095 -0.414087,0.07174 -0.871399,0.256341 -1.23978,0.500434 -0.234235,0.155201 -0.659261,0.580231 -0.814463,0.814463 -0.465407,0.702387 -0.633941,1.50766 -0.483742,2.311391 0.04589,0.245588 0.15226,0.554558 0.278882,0.810094 l 0.103549,0.208977 -2.55648,2.542524 -2.556474,2.542521 v 0.556889 0.556889 h 0.538479 0.538477 z m 7.28728,-6.730485 c -0.273768,-0.146458 -1.016721,-0.842594 -1.380447,-1.293456 -0.28077,-0.348041 -0.313254,-0.409456 -0.29839,-0.564157 0.01478,-0.154342 0.176018,-0.478346 0.323899,-0.651073 0.330344,-0.385835 0.850173,-0.641776 1.071269,-0.527441 0.366394,0.189465 1.287216,1.091037 1.615124,1.581351 0.127842,0.19115 0.12816,0.291286 0.0018,0.558842 -0.186701,0.3953 -0.42531,0.637427 -0.81918,0.831268 -0.244681,0.120418 -0.378405,0.137237 -0.514068,0.06466 z m 0.490877,-0.500622 c 0.06684,-0.0442 0.172636,-0.132167 0.235077,-0.195531 0.116925,-0.118622 0.288026,-0.411651 0.286991,-0.491464 -0.0018,-0.125491 -0.765543,-0.94241 -1.208609,-1.292458 l -0.248968,-0.196706 -0.09012,0.03766 c -0.275676,0.115183 -0.546931,0.374942 -0.678846,0.650074 l -0.08027,0.167386 0.150766,0.197254 c 0.206016,0.269533 0.830905,0.892982 1.10706,1.104514 l 0.226685,0.173637 0.08935,-0.03701 c 0.04914,-0.02035 0.144025,-0.07315 0.210885,-0.11735 z"
     id="path860"
     inkscape:connector-curvature="0" />
</svg>
