<?xml version="1.0" encoding="UTF-8" standalone="no"?>
<svg
   xmlns:dc="http://purl.org/dc/elements/1.1/"
   xmlns:cc="http://creativecommons.org/ns#"
   xmlns:rdf="http://www.w3.org/1999/02/22-rdf-syntax-ns#"
   xmlns:svg="http://www.w3.org/2000/svg"
   xmlns="http://www.w3.org/2000/svg"
   xmlns:sodipodi="http://sodipodi.sourceforge.net/DTD/sodipodi-0.dtd"
   xmlns:inkscape="http://www.inkscape.org/namespaces/inkscape"
   height="32"
   viewBox="0 0 32 32"
   width="32"
   version="1.1"
   id="svg14"
   sodipodi:docname="chrome-ncpaehbhmfoodbceflpbdocjhpokkbmo-Default.svg"
   inkscape:version="0.92.1 r">
  <metadata
     id="metadata20">
    <rdf:RDF>
      <cc:Work
         rdf:about="">
        <dc:format>image/svg+xml</dc:format>
        <dc:type
           rdf:resource="http://purl.org/dc/dcmitype/StillImage" />
      </cc:Work>
    </rdf:RDF>
  </metadata>
  <defs
     id="defs18" />
  <sodipodi:namedview
     pagecolor="#ffffff"
     bordercolor="#666666"
     borderopacity="1"
     objecttolerance="10"
     gridtolerance="10"
     guidetolerance="10"
     inkscape:pageopacity="0"
     inkscape:pageshadow="2"
     inkscape:window-width="640"
     inkscape:window-height="480"
     id="namedview16"
     showgrid="false"
     inkscape:zoom="8.4375"
     inkscape:cx="-6.637037"
     inkscape:cy="16"
     inkscape:current-layer="svg14" />
  <g
     id="g4505">
    <rect
       ry="5.575182"
       y="1.8983059"
       x="1.8983059"
       height="28.203388"
       width="28.203388"
       id="rect4497"
       style="opacity:1;fill:#4f4f4f;fill-opacity:1;fill-rule:evenodd;stroke:none;stroke-width:1.03534329;stroke-linecap:round;stroke-linejoin:bevel;stroke-miterlimit:4;stroke-dasharray:none;stroke-dashoffset:0;stroke-opacity:1" />
    <path
       inkscape:connector-curvature="0"
       id="path10"
       d="m 11.223157,6.9969491 c -0.224918,-3.76e-4 -0.462236,0.0078 -0.716797,0.0078 -1.2853904,-0.02689 -2.5718854,0.01638 -3.8574224,0 -0.891191,-0.007 -0.685673,1.085333 -0.427734,1.544922 2.851895,5.0813879 6.2219874,10.7728959 9.3632814,16.1367189 0.60357,0.89045 1.239911,-0.318707 1.578125,-0.835938 0.854782,-1.307202 1.558837,-2.676938 2.28125,-4.046875 0.305125,-0.920736 -0.5479,-1.629444 -0.851562,-2.410156 -1.85294,-3.290673 -3.801182,-6.51957 -5.693359,-9.7812499 -0.452819,-0.543125 -1.001028,-0.614108 -1.675782,-0.615234 z m 9.31836,0.0078 c -0.958955,0 -0.34961,1.080078 -0.34961,1.080078 0,0 1.437435,2.7252369 2.265625,4.2167969 0.828191,1.491564 1.275004,0.20789 1.482422,-0.205078 0.746267,-1.485841 1.394899,-3.0338369 1.917969,-4.0624999 0.523068,-1.028663 -0.566406,-1.029297 -0.566406,-1.029297 z"
       style="fill:#cccccc" />
  </g>
</svg>
