<?xml version="1.0" encoding="UTF-8" standalone="no"?>
<svg
   xmlns:dc="http://purl.org/dc/elements/1.1/"
   xmlns:cc="http://creativecommons.org/ns#"
   xmlns:rdf="http://www.w3.org/1999/02/22-rdf-syntax-ns#"
   xmlns:svg="http://www.w3.org/2000/svg"
   xmlns="http://www.w3.org/2000/svg"
   xmlns:sodipodi="http://sodipodi.sourceforge.net/DTD/sodipodi-0.dtd"
   xmlns:inkscape="http://www.inkscape.org/namespaces/inkscape"
   height="32"
   width="32"
   version="1"
   id="svg12"
   sodipodi:docname="vk.svg"
   inkscape:version="0.92.1 r">
  <metadata
     id="metadata18">
    <rdf:RDF>
      <cc:Work
         rdf:about="">
        <dc:format>image/svg+xml</dc:format>
        <dc:type
           rdf:resource="http://purl.org/dc/dcmitype/StillImage" />
      </cc:Work>
    </rdf:RDF>
  </metadata>
  <defs
     id="defs16" />
  <sodipodi:namedview
     pagecolor="#ffffff"
     bordercolor="#666666"
     borderopacity="1"
     objecttolerance="10"
     gridtolerance="10"
     guidetolerance="10"
     inkscape:pageopacity="0"
     inkscape:pageshadow="2"
     inkscape:window-width="1680"
     inkscape:window-height="955"
     id="namedview14"
     showgrid="false"
     inkscape:zoom="7.375"
     inkscape:cx="-1.6271186"
     inkscape:cy="16"
     inkscape:window-x="0"
     inkscape:window-y="0"
     inkscape:window-maximized="1"
     inkscape:current-layer="svg12" />
  <rect
     style="opacity:1;fill:#6184a6;fill-opacity:1;fill-rule:evenodd;stroke:none;stroke-width:1.03534329;stroke-linecap:round;stroke-linejoin:bevel;stroke-miterlimit:4;stroke-dasharray:none;stroke-dashoffset:0;stroke-opacity:1"
     id="rect4497-3"
     width="28.203388"
     height="28.203388"
     x="1.8983059"
     y="1.8983059"
     ry="5.575182" />
  <path
     d="m 15.763972,22.445165 h 1.315 c 0,0 0.39711,-0.04534 0.60015,-0.27162 0.18662,-0.20798 0.18066,-0.59827 0.18066,-0.59827 0,0 -0.02573,-1.8276 0.79306,-2.0967 0.80748,-0.26528 1.8441,1.7662 2.9428,2.5475 0.83084,0.59098 1.4622,0.46162 1.4622,0.46162 l 2.938,-0.04252 c 0,0 1.5368,-0.09822 0.80808,-1.3499 -0.05965,-0.10223 -0.42453,-0.92583 -2.1845,-2.618 -1.843,-1.77 -1.596,-1.484 0.623,-4.5474 1.352,-1.8657 1.892,-3.0046 1.723,-3.4924 -0.161,-0.4647999 -1.155,-0.342 -1.155,-0.342 l -3.308,0.02119 c 0,0 -0.24542,-0.03459 -0.42716,0.07808 -0.17779,0.11017 -0.2919,0.36759 -0.2919,0.36759 0,0 -0.52376,1.4436 -1.2218,2.6716 -1.473,2.5907 -2.0621,2.7278 -2.3029,2.5667 -0.56018,-0.37496 -0.42019,-1.506 -0.42019,-2.3098 0,-2.5108 0.36766,-3.5575999 -0.71597,-3.8285999 -0.35953,-0.08987 -0.6244,-0.14933 -1.544,-0.15904 -1.1804,-0.01245 -2.1792,0.0037 -2.7449,0.29079 -0.37634,0.19089 -0.6667,0.6161799 -0.48976,0.6406499 0.2187,0.03016 0.71372,0.13842 0.97619,0.50833 0.33908,0.47783 0.32723,1.5505 0.32723,1.5505 0,0 0.19484,2.9555 -0.4549,3.3226 -0.44583,0.2518 -1.0575,-0.26223 -2.3708,-2.6127 -0.67274,-1.2039 -1.1809004,-2.5349 -1.1809004,-2.5349 0,0 -0.09785,-0.24867 -0.27262,-0.38179 -0.2112,-0.1613 -0.5074,-0.2125 -0.5074,-0.2125 l -3.1436,0.02126 c 0,0 -0.47178,0.01365 -0.64517,0.2262 -0.15424,0.18921 -0.01233,0.58006 -0.01233,0.58006 0,0 2.4609,5.9637 5.2476004,8.9692 2.5555,2.7558 5.4568,2.5749 5.4568,2.5749"
     id="path10"
     inkscape:connector-curvature="0"
     style="fill:#ffffff;fill-rule:evenodd" />
</svg>
