<?xml version="1.0" encoding="UTF-8" standalone="no"?>
<svg
   xmlns:dc="http://purl.org/dc/elements/1.1/"
   xmlns:cc="http://creativecommons.org/ns#"
   xmlns:rdf="http://www.w3.org/1999/02/22-rdf-syntax-ns#"
   xmlns:svg="http://www.w3.org/2000/svg"
   xmlns="http://www.w3.org/2000/svg"
   xmlns:sodipodi="http://sodipodi.sourceforge.net/DTD/sodipodi-0.dtd"
   xmlns:inkscape="http://www.inkscape.org/namespaces/inkscape"
   height="32"
   width="32"
   version="1"
   id="svg12"
   sodipodi:docname="vmware.svg"
   inkscape:version="0.92.1 r">
  <metadata
     id="metadata18">
    <rdf:RDF>
      <cc:Work
         rdf:about="">
        <dc:format>image/svg+xml</dc:format>
        <dc:type
           rdf:resource="http://purl.org/dc/dcmitype/StillImage" />
      </cc:Work>
    </rdf:RDF>
  </metadata>
  <defs
     id="defs16" />
  <sodipodi:namedview
     pagecolor="#ffffff"
     bordercolor="#666666"
     borderopacity="1"
     objecttolerance="10"
     gridtolerance="10"
     guidetolerance="10"
     inkscape:pageopacity="0"
     inkscape:pageshadow="2"
     inkscape:window-width="640"
     inkscape:window-height="480"
     id="namedview14"
     showgrid="false"
     inkscape:zoom="8.375"
     inkscape:cx="-6.6865672"
     inkscape:cy="16"
     inkscape:current-layer="svg12" />
  <rect
     style="opacity:1;fill:#4e91d9;fill-opacity:1;fill-rule:evenodd;stroke:none;stroke-width:1.03534329;stroke-linecap:round;stroke-linejoin:bevel;stroke-miterlimit:4;stroke-dasharray:none;stroke-dashoffset:0;stroke-opacity:1"
     id="rect4497-3-3"
     width="28.203388"
     height="28.203388"
     x="1.8983059"
     y="1.8983059"
     ry="5.575182" />
  <path
     style="fill:#fae695;enable-background:new"
     d="m 7.4287649,6.0001794 c -0.79143,0 -1.4286,0.63714 -1.4286,1.4286 v 6.4285996 c 0,0.79143 0.63714,1.4286 1.4286,1.4286 0.79143,0 1.4286,-0.63714 1.4286,-1.4286 v -2.9911 l 2.1428001,2.143 v 2.2768 h 2.8571 v -0.71428 c 0,-0.39572 0.31857,-0.71429 0.71429,-0.71429 h 0.71428 v -2.8571 h -2.2768 l -2.1428,-2.1428996 h 2.9911 c 0.79143,0 1.4286,-0.63714 1.4286,-1.4286 0,-0.79143 -0.63714,-1.4286 -1.4286,-1.4286 H 7.4287349 Z m 10.7140001,0 c -0.79143,0 -1.4286,0.63714 -1.4286,1.4286 0,0.79143 0.63714,1.4286 1.4286,1.4286 h 2.9911 l -2.143,2.1427996 h -2.2768 v 2.8571 h 0.71428 c 0.39572,0 0.71429,0.31857 0.71429,0.71429 v 0.71428 h 2.8571 v -2.2768 l 2.1429,-2.1429 v 2.9911 c 0,0.79143 0.63714,1.4286 1.4286,1.4286 0.79143,0 1.4286,-0.63714 1.4286,-1.4286 V 7.4286494 c 0,-0.79143 -0.63714,-1.4286 -1.4286,-1.4286 h -6.4286 z m -7.143,10.7139996 v 2.857 c 0,0.792 0.637,1.429 1.429,1.429 h 2.8571 v -2.8571 h -0.71428 c -0.39572,0 -0.71429,-0.31857 -0.71429,-0.71429 v -0.71428 h -2.8571 z m 7.1429,0 v 0.71428 c 0,0.39572 -0.31857,0.71429 -0.71429,0.71429 h -0.71428 v 2.8571 h 2.2768 l 2.1428,2.1429 h -2.9911 c -0.79143,0 -1.4286,0.63714 -1.4286,1.4286 0,0.79143 0.63714,1.4286 1.4286,1.4286 h 6.4286 c 0.791,10e-4 1.428,-0.636 1.428,-1.428 v -6.4286 c 0,-0.79143 -0.63714,-1.4286 -1.4286,-1.4286 -0.79143,0 -1.4286,0.63714 -1.4286,1.4286 v 2.9911 l -2.143,-2.142 v -2.2768 h -2.8571 z"
     id="path8"
     inkscape:connector-curvature="0" />
</svg>
