<?xml version="1.0" encoding="UTF-8" standalone="no"?>
<svg
   xmlns:dc="http://purl.org/dc/elements/1.1/"
   xmlns:cc="http://creativecommons.org/ns#"
   xmlns:rdf="http://www.w3.org/1999/02/22-rdf-syntax-ns#"
   xmlns:svg="http://www.w3.org/2000/svg"
   xmlns="http://www.w3.org/2000/svg"
   xmlns:sodipodi="http://sodipodi.sourceforge.net/DTD/sodipodi-0.dtd"
   xmlns:inkscape="http://www.inkscape.org/namespaces/inkscape"
   height="32"
   width="32"
   version="1"
   id="svg28"
   sodipodi:docname="vym.svg"
   inkscape:version="0.92.1 r">
  <metadata
     id="metadata34">
    <rdf:RDF>
      <cc:Work
         rdf:about="">
        <dc:format>image/svg+xml</dc:format>
        <dc:type
           rdf:resource="http://purl.org/dc/dcmitype/StillImage" />
      </cc:Work>
    </rdf:RDF>
  </metadata>
  <defs
     id="defs32" />
  <sodipodi:namedview
     pagecolor="#ffffff"
     bordercolor="#666666"
     borderopacity="1"
     objecttolerance="10"
     gridtolerance="10"
     guidetolerance="10"
     inkscape:pageopacity="0"
     inkscape:pageshadow="2"
     inkscape:window-width="640"
     inkscape:window-height="480"
     id="namedview30"
     showgrid="false"
     inkscape:zoom="8.375"
     inkscape:cx="-6.6865672"
     inkscape:cy="16"
     inkscape:current-layer="svg28" />
  <g
     display="none"
     transform="translate(-52.273,-18.186)"
     id="g4">
    <rect
       display="inline"
       rx="9"
       ry="9"
       height="44"
       width="44"
       y="2"
       x="2"
       fill="#abe1ad"
       id="rect2" />
  </g>
  <rect
     style="opacity:1;fill:#4f4f4f;fill-opacity:1;fill-rule:evenodd;stroke:none;stroke-width:1.03534329;stroke-linecap:round;stroke-linejoin:bevel;stroke-miterlimit:4;stroke-dasharray:none;stroke-dashoffset:0;stroke-opacity:1"
     id="rect4497-3-3"
     width="28.203388"
     height="28.203388"
     x="1.8983059"
     y="1.8983059"
     ry="5.575182" />
  <g
     id="g4521"
     transform="translate(43.134218,-4.5298509)">
    <path
       style="fill:#6084ff"
       inkscape:connector-curvature="0"
       id="path10"
       d="m -26.134328,9.0298507 a 8,8 0 0 0 -8,8.0000003 8,8 0 0 0 0.006,0.156 c -0.002,0.049 -0.012,0.096 -0.012,0.145 0.002,0.126 0.004,0.253 0.012,0.379 0,0.025 -0.002,0.049 -0.002,0.074 v 1.492 l -0.01,0.555 -1.826,2.881 c -0.4203,0.801 -0.0229,1.298 0.879,1.31 l 0.957,0.014 v 2.25 c 0,0.941 0.879,1.73 1.824,1.73 l 2.172,0.028 v 3.935 c 0.332,0.023 0.662,0.051 1,0.051 2.987,0 5.745,-0.933 8.014,-2.516 v -5.884 c 0,-0.13 -0.008,-0.238 -0.01,-0.36 a 8,8 0 0 0 2.996,-6.24 8,8 0 0 0 -8,-8.0000003 z" />
    <g
       style="fill:#ffffff"
       transform="translate(-45.134328,2.0298507)"
       id="g22">
      <path
         inkscape:connector-curvature="0"
         id="path18"
         d="M 19.5,10 A 4.5,4.5 0 0 0 15,14.5 4.5,4.5 0 0 0 19.5,19 4.5,4.5 0 0 0 24,14.5 4.5,4.5 0 0 0 19.5,10 Z m 0,2 A 2.5,2.5 0 0 1 22,14.5 2.5,2.5 0 0 1 19.5,17 2.5,2.5 0 0 1 17,14.5 2.5,2.5 0 0 1 19.5,12 Z" />
      <circle
         id="circle20"
         r="1.5"
         cx="19.5"
         cy="14.5" />
    </g>
  </g>
</svg>
