<?xml version="1.0" encoding="UTF-8" standalone="no"?>
<svg
   xmlns:dc="http://purl.org/dc/elements/1.1/"
   xmlns:cc="http://creativecommons.org/ns#"
   xmlns:rdf="http://www.w3.org/1999/02/22-rdf-syntax-ns#"
   xmlns:svg="http://www.w3.org/2000/svg"
   xmlns="http://www.w3.org/2000/svg"
   xmlns:sodipodi="http://sodipodi.sourceforge.net/DTD/sodipodi-0.dtd"
   xmlns:inkscape="http://www.inkscape.org/namespaces/inkscape"
   height="32"
   width="32"
   version="1"
   id="svg24"
   sodipodi:docname="whatsie.svg"
   inkscape:version="0.92.1 r">
  <metadata
     id="metadata30">
    <rdf:RDF>
      <cc:Work
         rdf:about="">
        <dc:format>image/svg+xml</dc:format>
        <dc:type
           rdf:resource="http://purl.org/dc/dcmitype/StillImage" />
      </cc:Work>
    </rdf:RDF>
  </metadata>
  <defs
     id="defs28" />
  <sodipodi:namedview
     pagecolor="#ffffff"
     bordercolor="#666666"
     borderopacity="1"
     objecttolerance="10"
     gridtolerance="10"
     guidetolerance="10"
     inkscape:pageopacity="0"
     inkscape:pageshadow="2"
     inkscape:window-width="1680"
     inkscape:window-height="955"
     id="namedview26"
     showgrid="false"
     inkscape:zoom="7.375"
     inkscape:cx="-37.423728"
     inkscape:cy="16"
     inkscape:window-x="0"
     inkscape:window-y="0"
     inkscape:window-maximized="1"
     inkscape:current-layer="svg24" />
  <rect
     style="opacity:1;fill:#47ad5d;fill-opacity:1;fill-rule:evenodd;stroke:none;stroke-width:1.03534329;stroke-linecap:round;stroke-linejoin:bevel;stroke-miterlimit:4;stroke-dasharray:none;stroke-dashoffset:0;stroke-opacity:1"
     id="rect4497-3"
     width="28.203388"
     height="28.203388"
     x="1.8983059"
     y="1.8983059"
     ry="5.575182" />
  <g
     id="g4525"
     transform="matrix(0.66100873,0,0,0.66100873,42.888395,2.6455716)">
    <path
       inkscape:connector-curvature="0"
       style="fill:#ffffff"
       id="path2"
       d="m -40.677966,6.2033898 c -0.33711,0 -0.66977,0.016445 -1.0008,0.039649 -0.04154,0.00307 -0.0829,0.00612 -0.12441,0.00957 -5.0014,0.3947 -9.2367,3.3973 -11.377,7.6535002 -4.73e-4,9.1e-4 -8.96e-4,0.0018 -0.0014,0.0027 -0.13845,0.27554 -0.28015,0.54966 -0.40059,0.83535 -0.65538,1.48 -1.0113,3.0506 -1.076,4.6949 -0.0028,0.05312 -0.0032,0.10668 -0.0055,0.15996 -0.0043,0.15708 -0.01336,0.31327 -0.0123,0.47168 1e-4,0.045 -0.0022,0.088 -0.0022,0.133 0,1.6279 0.28933,3.1825 0.7957,4.6334 0.20379,0.65045 0.43858,1.3073 0.72188,1.9729 0.70564,1.6578 0.79326,2.1098 0.68223,3.4945 -0.07737,0.96486 -0.33889,1.95 -0.66582,2.5047 -0.2964,0.502 -0.534,1.021 -0.534,1.153 0,0.40849 2.3594,0.26548 4.4482,-0.26934 2.4471,-0.62653 2.661,-0.62556 4.6676,0.0041 0.91793,0.28804 1.9654,0.44388 3.1473,0.48672 0.04944,0.0025 0.09945,0.0021 0.14902,0.0041 0.16174,0.0044 0.3169,0.01504 0.48398,0.01504 0.01359,0 0.02608,-0.0013 0.03965,-0.0014 0.02155,9.6e-5 0.04269,0.0014 0.06426,0.0014 0.39094,0 0.77672,-0.01947 1.1594,-0.05059 3.4611,-0.24614 6.2411,-1.5271 8.7432,-4.025 2.0614,-2.058 3.3383,-4.5985 3.8432,-7.257 0.04651,-0.24296 0.08508,-0.48822 0.11894,-0.73555 0.02047,-0.15183 0.04198,-0.30295 0.05742,-0.45527 0.03394,-0.32667 0.05435,-0.65811 0.06563,-0.99121 0.0025,-0.08394 0.0059,-0.16758 0.0069,-0.25156 0.002,-0.077 0.006,-0.155 0.006,-0.233 0,-7.6266 -6.039,-13.7870002 -13.614,-13.9900002 -0.05883,-0.0017 -0.11752,-0.00317 -0.17637,-0.0041 -0.071,-0.0015 -0.14,-0.0059 -0.21,-0.0059 z" />
    <g
       transform="translate(-56.677966,4.2033898)"
       style="fill:#47ad5d;fill-opacity:1"
       id="g18">
      <circle
         style="fill:#47ad5d;fill-opacity:1"
         id="circle12"
         r="2"
         cx="16"
         cy="16" />
      <circle
         style="fill:#47ad5d;fill-opacity:1"
         id="circle14"
         r="2"
         cx="8"
         cy="16" />
      <circle
         style="fill:#47ad5d;fill-opacity:1"
         id="circle16"
         r="2"
         cx="24"
         cy="16" />
    </g>
  </g>
</svg>
