<?xml version="1.0" encoding="UTF-8" standalone="no"?>
<svg
   xmlns:dc="http://purl.org/dc/elements/1.1/"
   xmlns:cc="http://creativecommons.org/ns#"
   xmlns:rdf="http://www.w3.org/1999/02/22-rdf-syntax-ns#"
   xmlns:svg="http://www.w3.org/2000/svg"
   xmlns="http://www.w3.org/2000/svg"
   xmlns:sodipodi="http://sodipodi.sourceforge.net/DTD/sodipodi-0.dtd"
   xmlns:inkscape="http://www.inkscape.org/namespaces/inkscape"
   height="32"
   width="32"
   version="1"
   id="svg18"
   sodipodi:docname="wordview.svg"
   inkscape:version="0.92.1 r">
  <metadata
     id="metadata24">
    <rdf:RDF>
      <cc:Work
         rdf:about="">
        <dc:format>image/svg+xml</dc:format>
        <dc:type
           rdf:resource="http://purl.org/dc/dcmitype/StillImage" />
      </cc:Work>
    </rdf:RDF>
  </metadata>
  <defs
     id="defs22" />
  <sodipodi:namedview
     pagecolor="#ffffff"
     bordercolor="#666666"
     borderopacity="1"
     objecttolerance="10"
     gridtolerance="10"
     guidetolerance="10"
     inkscape:pageopacity="0"
     inkscape:pageshadow="2"
     inkscape:window-width="640"
     inkscape:window-height="480"
     id="namedview20"
     showgrid="false"
     inkscape:zoom="4"
     inkscape:cx="-54.450855"
     inkscape:cy="32.304742"
     inkscape:current-layer="svg18" />
  <g
     id="g4624"
     transform="translate(101.29492,-6.1445314)">
    <path
       id="path4614"
       d="m -88.921875,16.792969 c -0.816116,-0.05556 -1.083984,0.0069 -1.083984,0.25 0,0.09642 -0.06523,0.299277 -0.144532,0.451172 -0.137477,0.263303 -0.134156,0.276803 0.07227,0.308593 0.219755,0.03384 0.341981,0.08273 0.400391,0.232422 0.05841,0.149688 0.05392,0.400647 0.01953,0.841797 -0.03522,0.451707 -0.0859,1.342154 -0.111328,1.978516 -0.02543,0.636363 -0.06891,1.353161 -0.09766,1.591797 -0.02875,0.238637 -0.09324,1.193063 -0.142578,2.121093 -0.04935,0.928029 -0.118013,1.870326 -0.152343,2.095703 -0.06122,0.401956 -0.05634,0.410157 0.216797,0.410157 0.153166,0 0.420828,0.04165 0.595703,0.0918 0.259248,0.07436 0.349108,0.05896 0.482421,-0.08203 0.185105,-0.195768 0.131641,-0.120962 1.523438,-2.130859 0.569189,-0.821968 1.211268,-1.742402 1.427734,-2.044922 0.216464,-0.302522 0.607144,-0.8549 0.867188,-1.228515 C -84.788783,21.306071 -84.544639,21 -84.505859,21 c 0.03877,0 0.06374,1.50876 0.05664,3.351562 l -0.01172,3.34961 0.480469,0.05664 c 0.265152,0.03144 0.553575,0.06387 0.640625,0.07227 0.101972,0.0098 0.427835,-0.38023 0.916016,-1.099609 0.416737,-0.6141 0.859107,-1.255733 0.982422,-1.423828 0.258152,-0.351902 1.636603,-2.330104 2.660156,-3.81836 1.906686,-2.772338 1.772771,-2.609375 2.138672,-2.609375 0.185014,0 0.35041,-0.05436 0.36914,-0.121094 0.0186,-0.06629 0.08909,-0.307676 0.158204,-0.537109 0.09924,-0.329573 0.101772,-0.432164 0.0078,-0.490234 -0.132392,-0.08182 -3.291768,-0.308851 -3.396484,-0.244141 -0.07242,0.04476 -0.376953,0.93234 -0.376953,1.097656 0,0.0586 0.204559,0.101563 0.480468,0.101563 0.265152,0 0.482422,0.03011 0.482422,0.06641 0,0.0363 -0.157503,0.308375 -0.349609,0.603516 -0.192103,0.295139 -0.841566,1.294627 -1.44336,2.222656 -0.601793,0.928029 -1.140585,1.742304 -1.197265,1.808594 -0.186337,0.217929 -0.313736,0.135101 -0.253906,-0.164063 0.03131,-0.156521 0.08203,-0.731213 0.113281,-1.277344 0.03125,-0.546129 0.07112,-1.231771 0.08984,-1.523437 0.15058,-2.347424 0.168835,-3.061118 0.07813,-3.117187 -0.05452,-0.03369 -0.469289,-0.09021 -0.921875,-0.125 l -0.822266,-0.0625 -0.712891,1.097656 c -0.391246,0.604065 -1.25148,1.952992 -1.912109,2.998047 -0.660629,1.045055 -1.260434,1.901996 -1.333984,1.904297 -0.10884,0.0034 -0.122739,-0.160822 -0.07422,-0.886719 0.03279,-0.49053 0.08329,-1.477451 0.113281,-2.19336 0.04229,-1.009505 0.05447,-1.488457 0.136719,-1.71875 0.08225,-0.230294 0.234231,-0.213378 0.558594,-0.230468 l 0.546875,-0.02734 0.173828,-0.482422 c 0.09488,-0.26515 0.171683,-0.508456 0.171875,-0.541016 2.13e-4,-0.03256 -0.509706,-0.08969 -1.132813,-0.126953 -0.623105,-0.03727 -1.446587,-0.09095 -1.832031,-0.117187 z"
       style="opacity:1;fill:#4269b0;fill-opacity:1;fill-rule:evenodd;stroke:none;stroke-width:1.03534329;stroke-linecap:round;stroke-linejoin:bevel;stroke-miterlimit:4;stroke-dasharray:none;stroke-dashoffset:0;stroke-opacity:1"
       inkscape:connector-curvature="0" />
    <path
       id="path4612"
       d="m -76.285156,36.148438 c -0.64408,-0.07931 -1.125517,-0.138335 -3.259766,-0.392579 -3.585149,-0.427084 -4.07813,-0.486724 -4.86914,-0.583984 -1.838694,-0.226086 -4.365147,-0.519847 -5.398438,-0.626953 -0.291667,-0.03023 -0.791194,-0.09159 -1.109375,-0.136719 -0.318182,-0.04514 -0.606788,-0.05372 -0.642578,-0.01953 -0.03579,0.03419 -0.110856,0.387429 -0.166016,0.785156 -0.05516,0.397727 -0.129052,0.864762 -0.164062,1.03711 -0.0067,0.03302 0.02811,0.0087 0.02344,0.03516 h 15.103516 c 0.171429,0 0.315025,-0.08266 0.482422,-0.09766 z"
       style="opacity:1;fill:#4269b0;fill-opacity:1;fill-rule:evenodd;stroke:none;stroke-width:1.03534329;stroke-linecap:round;stroke-linejoin:bevel;stroke-miterlimit:4;stroke-dasharray:none;stroke-dashoffset:0;stroke-opacity:1"
       inkscape:connector-curvature="0" />
    <path
       id="path4610"
       d="m -71.414062,31.777344 c -0.226445,-0.02549 -0.420672,-0.04898 -0.658204,-0.07422 -0.556818,-0.05917 -1.336648,-0.145869 -1.734375,-0.193359 -0.397727,-0.04749 -1.179511,-0.132683 -1.736328,-0.189454 -0.556818,-0.05677 -1.598545,-0.169146 -2.314453,-0.248046 -0.715909,-0.0789 -1.907967,-0.206307 -2.65039,-0.285157 -2.181947,-0.231756 -2.298979,-0.245185 -2.652344,-0.291015 -0.185605,-0.02407 -0.597833,-0.0678 -0.916016,-0.09766 -0.318181,-0.02986 -0.947679,-0.09543 -1.398437,-0.144532 -0.450757,-0.04911 -1.252901,-0.13373 -1.783203,-0.1875 -0.530303,-0.05377 -1.180162,-0.12152 -1.445313,-0.15039 -1.578693,-0.17184 -2.086059,-0.193377 -2.162109,-0.09766 -0.04441,0.05589 -0.107542,0.339194 -0.138672,0.63086 -0.03114,0.291667 -0.09318,0.731241 -0.138672,0.976562 l -0.08203,0.445313 0.537109,0.0625 c 0.29552,0.03367 0.99201,0.125488 1.548828,0.205078 0.556817,0.07959 1.381273,0.188267 1.832031,0.242187 0.450756,0.05392 1.167555,0.14182 1.591797,0.19336 0.424242,0.05154 1.139087,0.133623 1.589844,0.183593 0.450758,0.04997 1.709755,0.202966 2.796875,0.339844 1.087121,0.136878 2.69336,0.335614 3.568359,0.441406 2.887702,0.349143 3.223278,0.391149 3.904297,0.480469 0.301766,0.03958 0.854318,0.102991 1.332031,0.15625 0.563669,-0.683333 0.922549,-1.496414 1.109376,-2.398437 z"
       style="opacity:1;fill:#4269b0;fill-opacity:1;fill-rule:evenodd;stroke:none;stroke-width:1.03534329;stroke-linecap:round;stroke-linejoin:bevel;stroke-miterlimit:4;stroke-dasharray:none;stroke-dashoffset:0;stroke-opacity:1"
       inkscape:connector-curvature="0" />
    <path
       id="path4608"
       d="m -71.193359,27.205078 c -0.09565,-0.01129 -0.188828,-0.02402 -0.300782,-0.03516 -4.218208,-0.419698 -4.155537,-0.419419 -4.242187,-0.0957 -0.03549,0.132575 -0.09337,0.593769 -0.128906,1.023437 l -0.06641,0.78125 0.701172,0.06445 c 0.385056,0.03546 0.851504,0.08201 1.03711,0.103516 0.185605,0.02151 0.792791,0.08835 1.349609,0.148437 0.556817,0.06009 1.251303,0.145264 1.542969,0.189454 0.02953,0.0045 0.07449,0.003 0.107422,0.0059 z"
       style="opacity:1;fill:#4269b0;fill-opacity:1;fill-rule:evenodd;stroke:none;stroke-width:1.03534329;stroke-linecap:round;stroke-linejoin:bevel;stroke-miterlimit:4;stroke-dasharray:none;stroke-dashoffset:0;stroke-opacity:1"
       inkscape:connector-curvature="0" />
    <path
       id="path4606"
       d="m -71.193359,22.611328 c -0.256813,-0.02225 -0.511332,-0.04415 -0.78125,-0.06836 -1.884868,-0.169022 -3.127037,-0.256543 -3.191407,-0.226563 -0.08054,0.0375 -0.323099,1.952291 -0.255859,2.019532 0.03085,0.03085 0.48259,0.09602 1.003906,0.144531 0.521316,0.04851 1.42448,0.134526 2.007813,0.191406 0.367809,0.03587 0.805947,0.07457 1.216797,0.111328 z"
       style="opacity:1;fill:#4269b0;fill-opacity:1;fill-rule:evenodd;stroke:none;stroke-width:1.03534329;stroke-linecap:round;stroke-linejoin:bevel;stroke-miterlimit:4;stroke-dasharray:none;stroke-dashoffset:0;stroke-opacity:1"
       inkscape:connector-curvature="0" />
    <path
       id="path4604"
       d="m -71.193359,18.025391 c -0.550276,-0.03526 -1.123372,-0.07169 -1.621094,-0.103516 -0.858743,-0.0549 -1.595902,-0.105981 -1.638672,-0.113281 -0.251744,-0.04284 -0.307261,0.05911 -0.363281,0.660156 -0.03337,0.357954 -0.08397,0.808143 -0.111328,1 -0.031,0.217388 -0.03982,0.328601 0.117187,0.394531 0.157011,0.06594 0.479563,0.08766 1.117188,0.125 0.546736,0.03203 1.312865,0.09804 1.701171,0.148438 0.229814,0.02983 0.519561,0.04073 0.798829,0.05664 z"
       style="opacity:1;fill:#4269b0;fill-opacity:1;fill-rule:evenodd;stroke:none;stroke-width:1.03534329;stroke-linecap:round;stroke-linejoin:bevel;stroke-miterlimit:4;stroke-dasharray:none;stroke-dashoffset:0;stroke-opacity:1"
       inkscape:connector-curvature="0" />
    <path
       id="path4602"
       d="M -71.193359,14.353516 -92.359375,12.958984 -96.25,35.640625 c 0.740302,0.36212 1.547078,0.605469 2.429688,0.605469 h 1.949218 c 0.0047,-0.02642 -0.03014,-0.0021 -0.02344,-0.03516 0.03501,-0.172348 0.108906,-0.639383 0.164062,-1.03711 0.05516,-0.397727 0.13023,-0.750968 0.166016,-0.785156 0.03579,-0.03419 0.324396,-0.02561 0.642578,0.01953 0.318181,0.04513 0.817708,0.106484 1.109375,0.136719 1.033291,0.107106 3.559744,0.400867 5.398438,0.626953 0.79101,0.09726 1.283991,0.1569 4.86914,0.583984 2.134249,0.254244 2.615686,0.313266 3.259766,0.392579 1.528774,-0.136968 2.841519,-0.857103 3.761718,-1.972657 -0.477713,-0.05326 -1.030265,-0.116671 -1.332031,-0.15625 -0.681019,-0.08932 -1.016595,-0.131326 -3.904297,-0.480469 -0.874999,-0.105792 -2.481238,-0.304528 -3.568359,-0.441406 -1.08712,-0.136878 -2.346117,-0.289875 -2.796875,-0.339844 -0.450757,-0.04997 -1.165602,-0.132057 -1.589844,-0.183593 -0.424242,-0.05154 -1.141041,-0.139444 -1.591797,-0.19336 -0.450758,-0.05392 -1.275214,-0.162595 -1.832031,-0.242187 -0.556818,-0.07959 -1.253308,-0.171405 -1.548828,-0.205078 l -0.537109,-0.0625 0.08203,-0.445313 c 0.04549,-0.245321 0.10753,-0.684895 0.138672,-0.976562 0.03113,-0.291666 0.09426,-0.574966 0.138672,-0.63086 0.07605,-0.09572 0.583416,-0.07418 2.162109,0.09766 0.265151,0.02887 0.91501,0.09662 1.445313,0.15039 0.530302,0.05377 1.332446,0.138394 1.783203,0.1875 0.450758,0.0491 1.080256,0.114667 1.398437,0.144532 0.318183,0.02986 0.730411,0.07359 0.916016,0.09766 0.353365,0.04583 0.470397,0.05926 2.652344,0.291015 0.742423,0.07885 1.934481,0.206257 2.65039,0.285157 0.715908,0.0789 1.757635,0.191276 2.314453,0.248046 0.556817,0.05677 1.338601,0.14196 1.736328,0.189454 0.397727,0.04749 1.177557,0.134191 1.734375,0.193359 0.237532,0.02524 0.431759,0.04873 0.658204,0.07422 0.07649,-0.369289 0.220703,-0.712851 0.220703,-1.105469 v -1.28125 c -0.03293,-0.0029 -0.07789,-0.0014 -0.107422,-0.0059 -0.291666,-0.04419 -0.986152,-0.129368 -1.542969,-0.189454 -0.556818,-0.06009 -1.164004,-0.126927 -1.349609,-0.148437 -0.185606,-0.02151 -0.652054,-0.06805 -1.03711,-0.103516 l -0.701172,-0.06445 0.06641,-0.78125 c 0.03554,-0.429668 0.09342,-0.890862 0.128906,-1.023437 0.08665,-0.323716 0.02398,-0.323995 4.242187,0.0957 0.111954,0.01114 0.205136,0.02387 0.300782,0.03516 v -2.421875 c -0.41085,-0.03676 -0.848988,-0.07546 -1.216797,-0.111328 -0.583333,-0.05688 -1.486497,-0.142898 -2.007813,-0.191406 -0.521316,-0.04851 -0.973053,-0.113677 -1.003906,-0.144531 -0.06724,-0.06724 0.175321,-1.982034 0.255859,-2.019532 0.06437,-0.02998 1.306539,0.05754 3.191407,0.226563 0.269918,0.02421 0.524437,0.04611 0.78125,0.06836 v -2.417969 c -0.279268,-0.01591 -0.569015,-0.02681 -0.798829,-0.05664 -0.388306,-0.0504 -1.154435,-0.116411 -1.701171,-0.148438 -0.637625,-0.03734 -0.960177,-0.05906 -1.117188,-0.125 -0.157012,-0.06593 -0.14819,-0.177143 -0.117187,-0.394531 0.02736,-0.191857 0.07796,-0.642046 0.111328,-1 0.05602,-0.601049 0.111537,-0.703001 0.363281,-0.660156 0.04277,0.0073 0.779929,0.05838 1.638672,0.113281 0.497722,0.03182 1.070818,0.06826 1.621094,0.103516 z m -17.728516,2.439453 c 0.385444,0.02624 1.208926,0.07992 1.832031,0.117187 0.623107,0.03726 1.133026,0.09439 1.132813,0.126953 -1.92e-4,0.03256 -0.077,0.275866 -0.171875,0.541016 l -0.173828,0.482422 -0.546875,0.02734 c -0.324363,0.01709 -0.476344,1.74e-4 -0.558594,0.230468 -0.08225,0.230293 -0.09443,0.709245 -0.136719,1.71875 -0.02999,0.715909 -0.08049,1.70283 -0.113281,2.19336 -0.04852,0.725897 -0.03462,0.890112 0.07422,0.886719 0.07355,-0.0023 0.673355,-0.859242 1.333984,-1.904297 0.660629,-1.045055 1.520863,-2.393982 1.912109,-2.998047 l 0.712891,-1.097656 0.822266,0.0625 c 0.452586,0.03479 0.867359,0.09131 0.921875,0.125 0.09071,0.05607 0.07246,0.769763 -0.07813,3.117187 -0.01872,0.291666 -0.05859,0.977308 -0.08984,1.523437 -0.03125,0.546131 -0.08197,1.120823 -0.113281,1.277344 -0.05983,0.299164 0.06757,0.381992 0.253906,0.164063 0.05668,-0.06629 0.595472,-0.880565 1.197265,-1.808594 0.601794,-0.928029 1.251257,-1.927517 1.44336,-2.222656 0.192106,-0.295141 0.349609,-0.567217 0.349609,-0.603516 0,-0.0363 -0.21727,-0.06641 -0.482422,-0.06641 -0.275909,0 -0.480468,-0.04296 -0.480468,-0.101563 0,-0.165316 0.30453,-1.052897 0.376953,-1.097656 0.104716,-0.06471 3.264092,0.162318 3.396484,0.244141 0.09396,0.05807 0.09143,0.160661 -0.0078,0.490234 -0.06911,0.229433 -0.139605,0.470821 -0.158204,0.537109 -0.01873,0.06673 -0.184126,0.121094 -0.36914,0.121094 -0.365901,0 -0.231986,-0.162963 -2.138672,2.609375 -1.023553,1.488256 -2.402004,3.466458 -2.660156,3.81836 -0.123315,0.168095 -0.565685,0.809728 -0.982422,1.423828 -0.488181,0.719379 -0.814044,1.109369 -0.916016,1.099609 -0.08705,-0.0084 -0.375473,-0.04083 -0.640625,-0.07227 l -0.480469,-0.05664 0.01172,-3.34961 C -84.442119,22.50876 -84.467089,21 -84.505859,21 c -0.03878,0 -0.282924,0.306071 -0.542969,0.679688 -0.260044,0.373615 -0.650724,0.925993 -0.867188,1.228515 -0.216466,0.30252 -0.858545,1.222954 -1.427734,2.044922 -1.391797,2.009897 -1.338333,1.935091 -1.523438,2.130859 -0.133313,0.140994 -0.223173,0.156387 -0.482421,0.08203 -0.174875,-0.05015 -0.442537,-0.0918 -0.595703,-0.0918 -0.27314,0 -0.278018,-0.0082 -0.216797,-0.410157 0.03433,-0.225377 0.102995,-1.167674 0.152343,-2.095703 0.04934,-0.92803 0.113832,-1.882456 0.142578,-2.121093 0.02875,-0.238636 0.07223,-0.955434 0.09766,-1.591797 0.02543,-0.636362 0.07611,-1.526809 0.111328,-1.978516 0.03439,-0.44115 0.03888,-0.692109 -0.01953,-0.841797 -0.05841,-0.149689 -0.180636,-0.198579 -0.400391,-0.232422 -0.206422,-0.03179 -0.209743,-0.04529 -0.07227,-0.308593 0.0793,-0.151895 0.144532,-0.354747 0.144532,-0.451172 0,-0.243129 0.267868,-0.305562 1.083984,-0.25 z"
       style="opacity:1;fill:#f2f7fa;fill-opacity:1;fill-rule:evenodd;stroke:none;stroke-width:1.03534329;stroke-linecap:round;stroke-linejoin:bevel;stroke-miterlimit:4;stroke-dasharray:none;stroke-dashoffset:0;stroke-opacity:1"
       inkscape:connector-curvature="0" />
    <path
       id="rect4497-3-7"
       d="m -93.820312,8.0429688 c -3.088651,0 -5.576172,2.4875212 -5.576172,5.5761722 v 17.052734 c 0,2.206041 1.296135,4.06365 3.146484,4.96875 l 3.890625,-22.681641 21.166016,1.394532 v -0.734375 c 0,-3.088651 -2.485568,-5.5761722 -5.574219,-5.5761722 z"
       style="opacity:1;fill:#4269b0;fill-opacity:1;fill-rule:evenodd;stroke:none;stroke-width:1.03534329;stroke-linecap:round;stroke-linejoin:bevel;stroke-miterlimit:4;stroke-dasharray:none;stroke-dashoffset:0;stroke-opacity:1"
       inkscape:connector-curvature="0" />
  </g>
</svg>
