<?xml version="1.0" encoding="UTF-8" standalone="no"?>
<svg
   xmlns:dc="http://purl.org/dc/elements/1.1/"
   xmlns:cc="http://creativecommons.org/ns#"
   xmlns:rdf="http://www.w3.org/1999/02/22-rdf-syntax-ns#"
   xmlns:svg="http://www.w3.org/2000/svg"
   xmlns="http://www.w3.org/2000/svg"
   xmlns:sodipodi="http://sodipodi.sourceforge.net/DTD/sodipodi-0.dtd"
   xmlns:inkscape="http://www.inkscape.org/namespaces/inkscape"
   height="32"
   width="32"
   version="1"
   id="svg18"
   sodipodi:docname="io.github.Hexchat.svg"
   inkscape:version="0.92.1 r">
  <metadata
     id="metadata24">
    <rdf:RDF>
      <cc:Work
         rdf:about="">
        <dc:format>image/svg+xml</dc:format>
        <dc:type
           rdf:resource="http://purl.org/dc/dcmitype/StillImage" />
      </cc:Work>
    </rdf:RDF>
  </metadata>
  <defs
     id="defs22" />
  <sodipodi:namedview
     pagecolor="#ffffff"
     bordercolor="#666666"
     borderopacity="1"
     objecttolerance="10"
     gridtolerance="10"
     guidetolerance="10"
     inkscape:pageopacity="0"
     inkscape:pageshadow="2"
     inkscape:window-width="640"
     inkscape:window-height="480"
     id="namedview20"
     showgrid="false"
     inkscape:zoom="8.9375"
     inkscape:cx="-5.3706294"
     inkscape:cy="16"
     inkscape:current-layer="svg18" />
  <rect
     style="opacity:1;fill:#fe9700;fill-opacity:1;fill-rule:evenodd;stroke:none;stroke-width:1.03534329;stroke-linecap:round;stroke-linejoin:bevel;stroke-miterlimit:4;stroke-dasharray:none;stroke-dashoffset:0;stroke-opacity:1"
     id="rect4497-3"
     width="28.203388"
     height="28.203388"
     x="1.8983059"
     y="1.8983059"
     ry="5.575182"
     inkscape:export-filename="/home/ramil/3.png"
     inkscape:export-xdpi="71"
     inkscape:export-ydpi="71" />
  <g
     id="g4511"
     transform="translate(43.045923,-3.692308)">
    <path
       style="fill:#feea3a;stroke-width:0.99999994"
       inkscape:connector-curvature="0"
       id="path2"
       d="m -30.410164,9.9059709 c -0.625573,0 -1.129193,0.5036201 -1.129193,1.1291931 v 10.539132 c 0,0.625572 0.50362,1.129192 1.129193,1.129192 h 10.539132 c 0.625572,0 1.129192,-0.50362 1.129192,-1.129192 v -9.40994 l 2.258386,-2.2583851 z" />
    <path
       style="fill:#ffffff;stroke-width:0.99999994"
       inkscape:connector-curvature="0"
       id="path8"
       d="m -37.561342,16.681127 2.258386,2.258386 v 9.409939 c 0,0.625573 0.50362,1.129193 1.129192,1.129193 h 10.539132 c 0.625573,0 1.129193,-0.50362 1.129193,-1.129193 V 17.81032 c 0,-0.625573 -0.50362,-1.129193 -1.129193,-1.129193 z" />
    <path
       style="opacity:0.1;fill:#ffffff;stroke-width:0.99999994"
       inkscape:connector-curvature="0"
       id="path12"
       d="m -23.681681,16.681127 c 0.625572,0 1.129192,0.50362 1.129192,1.129193 v 0.752795 c 0,-0.625573 -0.50362,-1.129193 -1.129192,-1.129193 h -13.173915 l -0.752795,-0.752795 z" />
    <path
       style="fill:#fe9700;fill-opacity:1;fill-rule:evenodd;stroke-width:0.99999994"
       inkscape:connector-curvature="0"
       id="path14"
       d="m -30.431995,18.939513 -0.398455,2.258385 h -2.214271 v 0.752795 h 2.08193 l -0.399923,2.258386 h -1.682045 v 0.752795 h 1.549704 l -0.398454,2.258385 h 0.752795 l 0.398454,-2.258385 h 1.881988 l -0.398447,2.258385 h 0.752795 l 0.398447,-2.258385 h 2.590669 v -0.752795 h -2.458328 l 0.399915,-2.258386 h 2.058443 v -0.752795 h -1.926101 l 0.398447,-2.258385 h -0.752795 l -0.398447,2.258385 h -1.881988 l 0.398447,-2.258385 z m 0.222014,3.01118 h 1.881988 l -0.399915,2.258386 h -1.881988 z" />
  </g>
</svg>
