<?xml version="1.0" encoding="UTF-8" standalone="no"?>
<svg
   xmlns:dc="http://purl.org/dc/elements/1.1/"
   xmlns:cc="http://creativecommons.org/ns#"
   xmlns:rdf="http://www.w3.org/1999/02/22-rdf-syntax-ns#"
   xmlns:svg="http://www.w3.org/2000/svg"
   xmlns="http://www.w3.org/2000/svg"
   xmlns:sodipodi="http://sodipodi.sourceforge.net/DTD/sodipodi-0.dtd"
   xmlns:inkscape="http://www.inkscape.org/namespaces/inkscape"
   height="32"
   width="32"
   version="1"
   id="svg10"
   sodipodi:docname="zegrapher.svg"
   inkscape:version="0.92.1 r">
  <metadata
     id="metadata16">
    <rdf:RDF>
      <cc:Work
         rdf:about="">
        <dc:format>image/svg+xml</dc:format>
        <dc:type
           rdf:resource="http://purl.org/dc/dcmitype/StillImage" />
      </cc:Work>
    </rdf:RDF>
  </metadata>
  <defs
     id="defs14" />
  <sodipodi:namedview
     pagecolor="#ffffff"
     bordercolor="#666666"
     borderopacity="1"
     objecttolerance="10"
     gridtolerance="10"
     guidetolerance="10"
     inkscape:pageopacity="0"
     inkscape:pageshadow="2"
     inkscape:window-width="640"
     inkscape:window-height="480"
     id="namedview12"
     showgrid="false"
     inkscape:zoom="9.5"
     inkscape:cx="-4.1052632"
     inkscape:cy="16"
     inkscape:current-layer="svg10" />
  <rect
     style="opacity:1;fill:#49cbc6;fill-opacity:1;fill-rule:evenodd;stroke:none;stroke-width:1.03534329;stroke-linecap:round;stroke-linejoin:bevel;stroke-miterlimit:4;stroke-dasharray:none;stroke-dashoffset:0;stroke-opacity:1"
     id="rect4497-6"
     width="28.203388"
     height="28.203388"
     x="1.8983059"
     y="1.8983059"
     ry="5.575182" />
  <path
     style="opacity:1;fill:#303030;fill-opacity:1;stroke-width:1"
     d="m 6.105287,9.4035091 v 1.6491229 h 8.245614 L 6.151991,22.596491 H 17.649147 V 20.947368 H 9.403533 L 17.602443,9.4035091 Z M 22.61101,14.350877 c -1.244129,0 -2.283138,0.361468 -3.029297,1.101563 -0.74435,0.738388 -1.108005,1.778159 -1.108005,3.024465 0,1.243292 0.363167,2.280316 1.106394,3.021245 l 0.0017,0.0016 c 0.746323,0.736605 1.785549,1.096692 3.029258,1.096692 0.568062,0 1.108818,-0.07197 1.618524,-0.217414 h 0.0016 0.0016 c 0.497775,-0.145481 1.034852,-0.355102 1.481556,-0.658682 l 0.180373,-0.122397 v -3.948826 h -3.298246 v 1.649123 h 1.645902 v 1.442982 c -0.135059,0.05797 -0.263184,0.122396 -0.425164,0.157826 -0.198535,0.04076 -0.785607,0.0773 -1.120888,0.0773 -0.839467,0 -1.639577,-0.257822 -1.964776,-0.602316 -0.371668,-0.397616 -0.608758,-1.007524 -0.608758,-1.897135 0.05809,-1.753731 1.116077,-2.447816 2.573534,-2.505894 C 23.421029,16 25.894713,16 25.894713,16 v -1.649123 z"
     id="path6"
     inkscape:connector-curvature="0" />
</svg>
