<?xml version="1.0" encoding="UTF-8" standalone="no"?>
<svg
   xmlns:dc="http://purl.org/dc/elements/1.1/"
   xmlns:cc="http://creativecommons.org/ns#"
   xmlns:rdf="http://www.w3.org/1999/02/22-rdf-syntax-ns#"
   xmlns:svg="http://www.w3.org/2000/svg"
   xmlns="http://www.w3.org/2000/svg"
   xmlns:sodipodi="http://sodipodi.sourceforge.net/DTD/sodipodi-0.dtd"
   xmlns:inkscape="http://www.inkscape.org/namespaces/inkscape"
   width="32"
   height="32"
   version="1.1"
   id="svg39"
   sodipodi:docname="application-vnd.oasis.opendocument.formula-template.svg"
   inkscape:version="0.92.1 r">
  <metadata
     id="metadata43">
    <rdf:RDF>
      <cc:Work
         rdf:about="">
        <dc:format>image/svg+xml</dc:format>
        <dc:type
           rdf:resource="http://purl.org/dc/dcmitype/StillImage" />
      </cc:Work>
    </rdf:RDF>
  </metadata>
  <sodipodi:namedview
     pagecolor="#ffffff"
     bordercolor="#666666"
     borderopacity="1"
     objecttolerance="10"
     gridtolerance="10"
     guidetolerance="10"
     inkscape:pageopacity="0"
     inkscape:pageshadow="2"
     inkscape:window-width="640"
     inkscape:window-height="480"
     id="namedview41"
     showgrid="false"
     inkscape:zoom="8.375"
     inkscape:cx="-6.6865672"
     inkscape:cy="16"
     inkscape:current-layer="svg39" />
  <defs
     id="defs13">
    <linearGradient
       id="a"
       y1="392.36"
       y2="365.36"
       gradientUnits="userSpaceOnUse"
       x2="0"
       gradientTransform="translate(309.57,152.44)">
      <stop
         stop-color="#ffffff"
         stop-opacity="0"
         id="stop2" />
      <stop
         offset="1"
         stop-color="#ffffff"
         stop-opacity=".2"
         id="stop4" />
    </linearGradient>
    <linearGradient
       id="b"
       y1="17"
       x1="47"
       y2="24"
       gradientUnits="userSpaceOnUse"
       x2="54"
       gradientTransform="translate(-27,-8)">
      <stop
         stop-color="#060606"
         id="stop7" />
      <stop
         offset="1"
         stop-opacity="0"
         id="stop9" />
    </linearGradient>
    <path
       id="c"
       d="m389.57 545.8v-28h15l7 7v21h-14z" />
  </defs>
  <g
     id="g4547"
     transform="translate(37.373135,-1.19403)">
    <path
       inkscape:connector-curvature="0"
       id="path4508"
       d="m -16.186154,3.1940299 h -13.65097 c -3.066406,0 -5.536011,2.4676658 -5.536011,5.5340718 V 25.658019 c 0,3.066406 2.469605,5.536011 5.536011,5.536011 h 16.929917 c 3.0664067,0 5.5340727,-2.469605 5.5340727,-5.536011 v -13.65097 z"
       style="opacity:1;fill:#3b3b3b;fill-opacity:1;fill-rule:evenodd;stroke:none;stroke-width:1.02788651;stroke-linecap:round;stroke-linejoin:bevel;stroke-miterlimit:4;stroke-dasharray:none;stroke-dashoffset:0;stroke-opacity:1" />
    <path
       inkscape:connector-curvature="0"
       id="rect4497-3"
       d="M -7.3731343,12.007049 -16.186154,3.19403 v 3.2789477 c 0,3.066405 2.467666,5.5340713 5.534073,5.5340713 z"
       style="opacity:1;fill:#bbbbbb;fill-opacity:1;fill-rule:evenodd;stroke:none;stroke-width:1.02788651;stroke-linecap:round;stroke-linejoin:bevel;stroke-miterlimit:4;stroke-dasharray:none;stroke-dashoffset:0;stroke-opacity:1" />
  </g>
  <path
     style="color:#000000;color-interpolation:sRGB;color-interpolation-filters:linearRGB;fill:#afafaf;color-rendering:auto;image-rendering:auto;shape-rendering:auto;text-rendering:auto"
     d="m 21.9955,11.6535 -7,0.004 -2.441,6.691 -1.555,-2.695 h -1 v 1 h 0.428 l 2.133,3.693 3.02,-7.693 h 6.42 z m -4,2 c -1.662,0 -3,1.338 -3,3 0,1.662 1.338,3 3,3 0.773,0 1.469,-0.298 2,-0.775 v 0.775 h 1 v -6 h -1 v 0.775 c -0.531,-0.477 -1.227,-0.775 -2,-0.775 m 0,1 c 1.108,0 2,0.892 2,2 0,1.108 -0.892,2 -2,2 -1.108,0 -2,-0.892 -2,-2 0,-1.108 0.892,-2 2,-2"
     id="path31"
     inkscape:connector-curvature="0" />
</svg>
