<?xml version="1.0" encoding="UTF-8" standalone="no"?>
<svg
   xmlns:dc="http://purl.org/dc/elements/1.1/"
   xmlns:cc="http://creativecommons.org/ns#"
   xmlns:rdf="http://www.w3.org/1999/02/22-rdf-syntax-ns#"
   xmlns:svg="http://www.w3.org/2000/svg"
   xmlns="http://www.w3.org/2000/svg"
   xmlns:sodipodi="http://sodipodi.sourceforge.net/DTD/sodipodi-0.dtd"
   xmlns:inkscape="http://www.inkscape.org/namespaces/inkscape"
   width="32"
   version="1.1"
   height="32"
   id="svg14"
   sodipodi:docname="application-x-deb.svg"
   inkscape:version="0.92.1 r">
  <metadata
     id="metadata18">
    <rdf:RDF>
      <cc:Work
         rdf:about="">
        <dc:format>image/svg+xml</dc:format>
        <dc:type
           rdf:resource="http://purl.org/dc/dcmitype/StillImage" />
      </cc:Work>
    </rdf:RDF>
  </metadata>
  <sodipodi:namedview
     pagecolor="#ffffff"
     bordercolor="#666666"
     borderopacity="1"
     objecttolerance="10"
     gridtolerance="10"
     guidetolerance="10"
     inkscape:pageopacity="0"
     inkscape:pageshadow="2"
     inkscape:window-width="640"
     inkscape:window-height="480"
     id="namedview16"
     showgrid="false"
     inkscape:zoom="8.375"
     inkscape:cx="-6.6865672"
     inkscape:cy="16"
     inkscape:current-layer="layer1" />
  <defs
     id="defs5455" />
  <g
     inkscape:label="Capa 1"
     inkscape:groupmode="layer"
     id="layer1"
     transform="matrix(1 0 0 1 -384.57143 -515.798)">
    <g
       id="g4518"
       transform="translate(37.37313,-10.26866)">
      <path
         inkscape:connector-curvature="0"
         id="path4508"
         d="m 368.38528,528.06666 h -13.65097 c -3.0664,0 -5.53601,2.46767 -5.53601,5.53407 v 16.92992 c 0,3.0664 2.46961,5.53601 5.53601,5.53601 h 16.92992 c 3.0664,0 5.53407,-2.46961 5.53407,-5.53601 v -13.65097 z"
         style="opacity:1;fill:#e6506e;fill-opacity:1;fill-rule:evenodd;stroke:none;stroke-width:1.02788651;stroke-linecap:round;stroke-linejoin:bevel;stroke-miterlimit:4;stroke-dasharray:none;stroke-dashoffset:0;stroke-opacity:1" />
      <path
         inkscape:connector-curvature="0"
         id="rect4497-3"
         d="m 377.1983,536.87968 -8.81302,-8.81302 v 3.27895 c 0,3.0664 2.46767,5.53407 5.53407,5.53407 z"
         style="opacity:1;fill:#fad9e0;fill-opacity:1;fill-rule:evenodd;stroke:none;stroke-width:1.02788651;stroke-linecap:round;stroke-linejoin:bevel;stroke-miterlimit:4;stroke-dasharray:none;stroke-dashoffset:0;stroke-opacity:1" />
      <g
         style="fill:#fad9e0;fill-opacity:1"
         transform="translate(348.1983,524.08096)"
         id="g4528">
        <path
           inkscape:connector-curvature="0"
           id="path16"
           d="m 15,14 c -1.105333,0 -2,0.9 -2,2 v 4 c 0,1.1 0.895,2 2,2 1.105,0 2,-0.9 2,-2 v -4 c 0,-1.1 -0.894667,-2 -2,-2 z m 0,1 c 0.552,0 1,0.4 1,1 0,0.499999 -0.448,1 -1,1 -0.552,0 -1,-0.500001 -1,-1 0,-0.6 0.448,-1 1,-1 z m 0,3 c 0.552285,0 1,0.447715 1,1 v 1 c 0,0.552285 -0.447715,1 -1,1 -0.552285,0 -1,-0.447715 -1,-1 v -1 c 0,-0.552285 0.447715,-1 1,-1 z"
           style="opacity:1;fill:#fad9e0;fill-opacity:1" />
        <path
           inkscape:connector-curvature="0"
           id="path18"
           d="m 14,4 v 1 h 1 V 4 Z m 0,2 v 1 h 1 V 6 Z m 0,2 v 1 h 1 V 8 Z m 0,2 v 1 h 1 v -1 z m 0,2 v 1 h 1 v -1 z"
           style="opacity:1;fill:#fad9e0;fill-opacity:1" />
        <path
           inkscape:connector-curvature="0"
           id="path20"
           d="m 15,5 v 1 h 1 V 5 Z m 0,2 v 1 h 1 V 7 Z m 0,2 v 1 h 1 V 9 Z m 0,2 v 1 h 1 v -1 z m 0,2 v 1 h 1 v -1 z"
           style="opacity:1;fill:#fad9e0;fill-opacity:1" />
      </g>
      <path
         style="opacity:0.75;fill:#ffffff;stroke-width:1"
         d="m 356.39848,553.01976 c -0.45212,-0.074 -1.10021,-0.3255 -1.50174,-0.58273 -0.88184,-0.56507 -1.45775,-1.19234 -1.81418,-1.97595 -0.11841,-0.26033 -0.18311,-0.46239 -0.36819,-1.14965 -0.046,-0.17089 -0.10328,-0.35909 -0.12726,-0.41819 -0.0405,-0.0998 -0.0423,-0.13337 -0.0246,-0.46604 0.0167,-0.31612 0.0711,-0.74375 0.10035,-0.78878 0.006,-0.008 0.019,-0.011 0.0297,-0.007 0.036,0.0214 0.0693,-0.0761 0.10202,-0.2975 0.0179,-0.1213 0.0461,-0.24853 0.0626,-0.28274 0.0165,-0.0345 0.0444,-0.10957 0.0621,-0.16757 0.0406,-0.13358 0.0961,-0.2362 0.26741,-0.49521 0.0754,-0.114 0.15368,-0.23806 0.17407,-0.27578 0.024,-0.0441 0.0502,-0.0662 0.0742,-0.0614 0.0232,0.007 0.0614,-0.0241 0.10147,-0.0764 0.17422,-0.22585 0.99473,-0.89223 1.07066,-0.86946 0.0207,0.007 0.1073,-0.0221 0.1924,-0.0621 0.15392,-0.073 0.22175,-0.0899 0.22175,-0.0552 0,0.0104 -0.0223,0.0324 -0.0494,0.0503 -0.0477,0.031 -0.0467,0.0317 0.0274,0.0145 0.0423,-0.01 0.11353,-0.0234 0.15831,-0.0303 0.0553,-0.009 0.0778,-0.0221 0.0701,-0.0407 -0.007,-0.0165 0.009,-0.0324 0.0394,-0.04 0.0756,-0.0193 0.1935,-0.0165 0.1935,0.007 0,0.0255 -0.0674,0.051 -0.12085,0.0462 -0.0364,-0.007 -0.0383,0 -0.011,0.0172 0.0272,0.0179 0.0275,0.0214 0.002,0.0221 -0.0172,2.1e-4 -0.0255,0.007 -0.0186,0.0124 0.007,0.007 0.0528,-0.008 0.10182,-0.031 0.0492,-0.0234 0.13906,-0.0531 0.19988,-0.0655 0.0749,-0.0152 0.1106,-0.0324 0.1106,-0.0545 0,-0.0276 0.0348,-0.0303 0.26916,-0.0186 0.14804,0.008 0.37145,0.0296 0.49644,0.0489 0.22727,0.0352 0.22729,0.0352 0.31198,-0.011 0.10159,-0.0552 0.26498,-0.0621 0.30791,-0.0138 0.0157,0.0179 0.059,0.0476 0.0961,0.0655 0.0606,0.0296 0.0646,0.0296 0.039,0 -0.0487,-0.0552 -3.3e-4,-0.0538 0.18747,0.007 0.60547,0.19117 1.09908,0.53162 1.46534,1.0107 0.0869,0.11358 0.0921,0.16475 0.01,0.0956 l -0.0471,-0.0393 0.0359,0.0662 c 0.0198,0.0366 0.0359,0.0774 0.0359,0.0911 0,0.0138 0.0582,0.11427 0.12939,0.22364 0.16038,0.24661 0.20525,0.3297 0.19449,0.36011 -0.005,0.0131 -0.0757,-0.0738 -0.1579,-0.19295 -0.0822,-0.11923 -0.20391,-0.27984 -0.27041,-0.35694 -0.0993,-0.1151 -0.1253,-0.13482 -0.14557,-0.1102 -0.0136,0.0165 -0.0467,0.0331 -0.0736,0.0365 l -0.049,0.007 0.0484,0.0895 c 0.0266,0.049 0.0519,0.0795 0.0563,0.0676 0.0231,-0.0655 0.1308,0.0207 0.17975,0.14351 0.0159,0.04 0.0581,0.122 0.0938,0.18247 0.0357,0.0607 0.0605,0.1142 0.055,0.11938 -0.006,0.007 -0.0381,-0.011 -0.0724,-0.0366 l -0.0623,-0.0462 0.0425,0.069 c 0.0234,0.0379 0.0625,0.0841 0.087,0.10289 0.0306,0.0234 0.0452,0.06 0.0465,0.11779 0.003,0.10606 0.067,0.23136 0.10202,0.19833 0.0546,-0.0517 0.0659,-0.0193 0.0521,0.14923 -0.0101,0.1242 -0.005,0.20606 0.0192,0.29295 0.0364,0.13193 0.0286,0.16447 -0.0247,0.10282 -0.0339,-0.0393 -0.0343,-0.0393 -0.0191,0 0.0325,0.0872 0.0569,0.21778 0.0501,0.26895 -0.0126,0.0956 -0.0507,0.0558 -0.0638,-0.0669 l -0.0127,-0.1195 -0.003,0.12716 c -0.002,0.0699 -0.0195,0.20509 -0.0387,0.30033 -0.0195,0.0962 -0.0293,0.21281 -0.0223,0.26226 0.0133,0.0932 0.004,0.0968 -0.0786,0.0303 -0.0337,-0.0269 -0.0394,-0.0221 -0.0625,0.0593 -0.0194,0.0683 -0.0192,0.10668 6.9e-4,0.16365 0.0144,0.0414 0.0227,0.0967 0.0186,0.12364 -0.01,0.0621 -0.0625,0.0817 -0.0625,0.0228 0,-0.0739 -0.0298,-0.0476 -0.12085,0.10661 -0.2459,0.41618 -0.63495,0.7383 -1.0753,0.89029 -0.2596,0.0895 -0.43372,0.12275 -0.72649,0.13855 l -0.26368,0.0145 0.13028,0.0379 c 0.10506,0.0303 0.16674,0.0352 0.31861,0.0234 0.19896,-0.0152 0.43257,-0.0559 0.5385,-0.0939 0.0423,-0.0152 0.0708,-0.0159 0.0854,-0.007 0.0345,0.0324 -0.27156,0.16013 -0.45321,0.18909 -0.30908,0.049 -0.72282,-0.007 -1.08805,-0.13992 -0.2478,-0.0923 -0.61551,-0.33246 -0.55917,-0.36522 0.0107,-0.007 0.0806,0.0255 0.15547,0.0697 0.0957,0.0572 0.13605,0.0721 0.13605,0.0503 0,-0.0407 0.0142,-0.0386 0.0901,0.0124 0.0687,0.0462 0.2797,0.13158 0.43172,0.17495 0.16572,0.0476 0.10146,-0.0103 -0.12085,-0.10778 -0.70293,-0.30888 -0.99475,-0.6179 -1.14017,-1.20724 -0.0534,-0.21612 0.003,-0.68996 0.10107,-0.8383 0.0246,-0.0379 0.0447,-0.0838 0.0447,-0.10275 0,-0.0821 0.14521,-0.29902 0.29421,-0.43942 0.26255,-0.2475 0.53551,-0.35025 0.88986,-0.33501 0.1713,0.008 0.24445,0.0214 0.38701,0.0751 0.1617,0.0607 0.36528,0.18784 0.30294,0.18908 -0.0147,3.5e-4 -0.0789,-0.02 -0.14282,-0.0448 -0.0971,-0.0379 -0.15941,-0.0455 -0.37985,-0.0469 -0.30956,0 -0.46086,0.04 -0.68117,0.18641 -0.31233,0.20716 -0.48602,0.44576 -0.54753,0.75223 -0.0413,0.20557 -0.0425,0.2626 -0.0103,0.46659 0.0186,0.11751 0.0317,0.15199 0.0549,0.14365 0.0195,-0.007 0.0306,0.007 0.0306,0.0283 0,0.0729 0.16813,0.36839 0.28474,0.50045 0.28066,0.31799 0.73467,0.52087 1.16544,0.52087 0.22358,0 0.40433,-0.0407 0.57069,-0.12778 0.0668,-0.0352 0.15113,-0.0779 0.18739,-0.0952 0.12791,-0.0614 0.20727,-0.13096 0.30006,-0.26398 0.0516,-0.074 0.10765,-0.13448 0.1246,-0.13448 0.025,0 0.0239,0.0103 -0.006,0.0572 -0.0981,0.15255 0.13209,-0.12489 0.2513,-0.30288 l 0.1335,-0.19943 -0.0145,-0.13103 c -0.014,-0.12586 -0.0119,-0.13358 0.0519,-0.19675 0.0615,-0.0607 0.067,-0.079 0.0741,-0.24171 0.006,-0.14564 0.002,-0.17585 -0.0253,-0.17606 -0.0253,-1.4e-4 -0.0362,-0.0386 -0.0472,-0.16585 -0.0145,-0.16861 -0.16007,-0.73602 -0.19398,-0.75575 -0.0103,-0.007 -0.0386,-0.0607 -0.0631,-0.12123 -0.0826,-0.20488 -0.22746,-0.40198 -0.45332,-0.61658 -0.32501,-0.30888 -0.73441,-0.54735 -1.12113,-0.65314 -0.32895,-0.0899 -0.88754,-0.0572 -1.28542,0.0752 -0.19419,0.0648 -0.38551,0.1502 -0.41779,0.18689 -0.0147,0.0165 -0.0358,0.0248 -0.0472,0.0186 -0.0119,-0.007 -0.009,-0.0255 0.008,-0.0441 0.0733,-0.0833 -0.16993,0.0691 -0.32651,0.20454 -0.0947,0.0819 -0.17558,0.15137 -0.1798,0.1544 -0.004,0.007 0.0142,1.4e-4 0.041,-0.007 0.0445,-0.011 0.0464,-0.008 0.0223,0.0345 -0.0154,0.0269 -0.096,0.0763 -0.19475,0.11847 -0.1659,0.071 -0.2732,0.14889 -0.35845,0.26047 -0.0341,0.0448 -0.036,0.0545 -0.009,0.0441 0.0189,-0.007 0.0343,-0.007 0.0343,0.01 0,0.0593 -0.057,0.12523 -0.14147,0.16392 -0.18712,0.0857 -0.51582,0.54341 -0.69191,0.96352 -0.0785,0.18723 -0.0772,0.18075 -0.0345,0.18075 0.045,0 0.0419,0.0483 -0.0199,0.30674 -0.09,0.37674 -0.0901,0.36467 0.008,0.89464 0.1194,0.64576 0.18915,0.86147 0.32177,0.99511 0.0311,0.031 0.0614,0.0981 0.0748,0.1651 0.0161,0.08 0.0431,0.13275 0.0937,0.18302 0.0461,0.0455 0.0615,0.0739 0.0437,0.08 -0.0348,0.0117 0.074,0.16481 0.1733,0.24357 0.0499,0.04 0.0869,0.0531 0.12703,0.0455 0.0878,-0.0159 0.1773,0.0317 0.31475,0.16785 0.14284,0.1413 0.15715,0.1793 0.0626,0.16619 -0.061,-0.008 -0.0623,-0.007 -0.0323,0.0366 0.0173,0.0248 0.0809,0.0845 0.14146,0.13268 0.0851,0.0676 0.10695,0.0968 0.0963,0.12855 -0.0154,0.0455 0.0284,0.0881 0.1275,0.12384 0.0614,0.0221 0.0812,0.0699 0.035,0.0844 -0.014,0.007 0.0725,0.0883 0.19227,0.18661 0.1349,0.11062 0.22563,0.17123 0.23857,0.15944 0.0342,-0.031 0.078,-0.0221 0.0787,0.0165 6.9e-4,0.0428 0.0396,0.087 0.17914,0.20584 0.0882,0.0751 0.11018,0.0846 0.16422,0.0705 0.0495,-0.0131 0.0806,-0.007 0.1503,0.04 0.13904,0.0886 0.22335,0.12399 0.29554,0.12399 0.071,0 0.0811,0.0193 0.0443,0.0842 -0.0195,0.0345 -0.0154,0.04 0.0295,0.04 0.0288,0 0.10975,0.0186 0.18,0.0414 0.15972,0.0517 0.22636,0.0552 0.18632,0.01 -0.0591,-0.0676 0.003,-0.049 0.21489,0.0627 0.29524,0.15613 0.44459,0.17392 1.03253,0.12331 0.087,-0.008 0.11536,-0.007 0.11536,0.0179 0,0.0179 -0.0755,0.0448 -0.21424,0.0767 -0.18235,0.0414 -0.27966,0.0496 -0.6537,0.0538 -0.29474,0.007 -0.49606,-0.007 -0.61131,-0.0227 z m -0.30057,-3.1052 c 0,-0.007 -0.0272,-0.0234 -0.0605,-0.0428 l -0.0605,-0.0345 0.0519,0.0427 c 0.0506,0.0414 0.069,0.051 0.069,0.0345 z m 3.02532,-2.1709 c -0.007,-0.0165 -0.0122,-0.0117 -0.0132,0.0124 -6.9e-4,0.0221 0.004,0.0345 0.0115,0.0269 0.007,-0.007 0.008,-0.0248 0.002,-0.04 z m -5.00009,-2.18657 c 0.0273,-0.0324 0.0266,-0.0338 -0.008,-0.008 -0.0211,0.0159 -0.0385,0.0317 -0.0385,0.0359 0,0.0166 0.0181,0.007 0.0467,-0.029 z m 0.24989,-0.19164 c 0.0219,-0.0228 0.0348,-0.0414 0.0288,-0.0414 -0.006,0 -0.0288,0.0186 -0.0508,0.0414 -0.0218,0.0227 -0.0348,0.0414 -0.0288,0.0414 0.006,0 0.0288,-0.0186 0.0508,-0.0414 z m 0.27659,-0.14558 c 0.0724,-0.0234 0.11358,-0.0269 0.12887,-0.0131 0.0153,0.0145 0.0719,0.007 0.17743,-0.0269 0.0853,-0.0262 0.15109,-0.0517 0.14629,-0.0559 -0.005,-0.007 -0.075,0.0131 -0.15597,0.0379 -0.11126,0.0352 -0.1513,0.04 -0.16369,0.0214 -0.021,-0.0317 -0.22091,0.031 -0.30685,0.0967 l -0.0587,0.0448 0.0631,-0.0359 c 0.0347,-0.0193 0.111,-0.051 0.16953,-0.0697 z m 0.63348,-0.0524 c 0.0639,-0.0179 0.11221,-0.0359 0.10755,-0.0407 -0.0103,-0.01 -0.23758,0.0517 -0.23758,0.0641 0,0.0124 0.002,0.0117 0.13003,-0.0234 z m 0.36437,-0.1129 0.0879,-0.0152 h -0.0769 c -0.0423,0 -0.10162,0.0124 -0.13183,0.0297 -0.0356,0.0207 -0.0394,0.0269 -0.011,0.0165 0.0241,-0.008 0.0835,-0.0214 0.13184,-0.0296 z m 0.17451,-0.0393 c 0.007,-0.0103 -0.007,-0.0138 -0.0317,-0.008 -0.0513,0.0131 -0.0578,0.0269 -0.0123,0.0269 0.0174,0 0.0372,-0.009 0.0439,-0.0186 z m 0.70945,0.007 c -0.007,-0.007 -0.0263,-0.008 -0.0421,0 -0.0176,0.007 -0.0123,0.0117 0.0132,0.0124 0.0232,0 0.0361,-0.007 0.0289,-0.011 z m -0.13139,-0.0227 c -0.0211,-0.007 -0.0557,-0.007 -0.0769,0 -0.0211,0.007 -0.003,0.01 0.0385,0.01 0.0423,0 0.0596,-0.007 0.0385,-0.01 z m -0.21915,-0.0214 c -0.045,-0.007 -0.1241,-0.007 -0.17578,-1.3e-4 -0.0516,0.007 -0.0149,0.008 0.0818,0.008 0.0967,7e-5 0.13896,-0.007 0.094,-0.008 z m -0.28668,-0.0179 c -0.007,-0.007 -0.0263,-0.008 -0.0421,0 -0.0175,0.007 -0.0124,0.0117 0.0132,0.0124 0.0232,0 0.0361,-0.007 0.0289,-0.011 z m -0.14874,4.97873 c -0.22382,-0.15116 -0.30674,-0.22936 -0.30674,-0.28929 0,-0.0317 0.008,-0.0579 0.0169,-0.0579 0.0317,0 0.40586,0.36819 0.39768,0.39136 -0.005,0.0138 -0.0499,-0.007 -0.10786,-0.0441 z m -0.11518,-0.38384 c -0.11623,-0.11075 -0.15348,-0.17033 -0.1065,-0.17033 0.0282,0 0.24453,0.2335 0.24453,0.26398 0,0.0145 -0.003,0.0262 -0.006,0.0262 -0.003,0 -0.0627,-0.0538 -0.13184,-0.11965 z m 1.28612,-0.45328 c -0.0614,-0.0234 -0.023,-0.0669 0.0769,-0.0868 0.0574,-0.0117 0.14863,-0.04 0.20272,-0.0628 0.0541,-0.0227 0.10225,-0.0379 0.10702,-0.0338 0.005,0.007 -0.0197,0.0503 -0.0544,0.10235 -0.0627,0.0935 -0.0638,0.0941 -0.18393,0.0925 -0.0665,0 -0.13321,-0.007 -0.14832,-0.0117 z m 0.65919,-0.46342 c -0.0593,-0.0228 -0.0618,-0.0607 -0.0122,-0.19088 0.0425,-0.11193 0.0866,-0.13393 0.0621,-0.031 -0.009,0.0365 -0.0206,0.0906 -0.0262,0.1191 l -0.0101,0.0517 0.0439,-0.0469 c 0.026,-0.0276 0.0501,-0.0934 0.0589,-0.16033 0.008,-0.0621 0.0237,-0.10807 0.0345,-0.10186 0.0272,0.0159 0.0243,0.17965 -0.005,0.28977 -0.0257,0.0961 -0.0488,0.10738 -0.14571,0.0706 z m -5.19977,-0.26012 c -0.007,-0.0179 -0.0133,-0.0887 -0.0133,-0.15703 0,-0.0902 0.008,-0.12199 0.0274,-0.11578 0.0326,0.0103 0.0518,0.30556 0.0198,0.30556 -0.0113,0 -0.0266,-0.0145 -0.0339,-0.0324 z m 5.28609,-0.48446 c -0.0341,-0.0434 -0.0447,-0.078 -0.035,-0.11434 0.0199,-0.0747 0.0719,-0.0641 0.11028,0.0228 0.0597,0.13467 0.008,0.19784 -0.0753,0.0918 z m -5.2906,-0.32894 c -0.001,-0.11744 -2e-5,-0.12103 0.0552,-0.1191 0.0467,0 0.0581,0.0131 0.0634,0.0655 0.006,0.0586 -0.0616,0.17496 -0.10175,0.17496 -0.008,0 -0.0159,-0.0545 -0.0168,-0.12117 z m 5.69565,-2.54633 c 0.003,-0.18544 0.0361,-0.2482 0.062,-0.11841 0.018,0.0904 -0.005,0.25012 -0.0397,0.27743 -0.019,0.0145 -0.0246,-0.0255 -0.0223,-0.15902 z m -2.88721,-0.1111 c 0.009,-0.0248 0.31194,-0.14206 0.36786,-0.14206 0.0657,0 -0.0521,0.0758 -0.18805,0.1211 -0.15155,0.0503 -0.1919,0.0552 -0.17981,0.0214 z"
         id="path4181-7"
         inkscape:connector-curvature="0"
         inkscape:label="Capa 1" />
    </g>
  </g>
</svg>
