<?xml version="1.0" encoding="UTF-8" standalone="no"?>
<svg
   xmlns:dc="http://purl.org/dc/elements/1.1/"
   xmlns:cc="http://creativecommons.org/ns#"
   xmlns:rdf="http://www.w3.org/1999/02/22-rdf-syntax-ns#"
   xmlns:svg="http://www.w3.org/2000/svg"
   xmlns="http://www.w3.org/2000/svg"
   xmlns:sodipodi="http://sodipodi.sourceforge.net/DTD/sodipodi-0.dtd"
   xmlns:inkscape="http://www.inkscape.org/namespaces/inkscape"
   width="32"
   height="32"
   id="svg2"
   version="1.1"
   inkscape:version="0.92.1 r"
   sodipodi:docname="application-x-perl.svg">
  <metadata
     id="metadata41">
    <rdf:RDF>
      <cc:Work
         rdf:about="">
        <dc:format>image/svg+xml</dc:format>
        <dc:type
           rdf:resource="http://purl.org/dc/dcmitype/StillImage" />
      </cc:Work>
    </rdf:RDF>
  </metadata>
  <sodipodi:namedview
     pagecolor="#ffffff"
     bordercolor="#666666"
     borderopacity="1"
     objecttolerance="10"
     gridtolerance="10"
     guidetolerance="10"
     inkscape:pageopacity="0"
     inkscape:pageshadow="2"
     inkscape:window-width="1920"
     inkscape:window-height="1025"
     id="namedview39"
     showgrid="false"
     inkscape:zoom="7.375"
     inkscape:cx="-0.67796627"
     inkscape:cy="11.254237"
     inkscape:window-x="0"
     inkscape:window-y="26"
     inkscape:window-maximized="1"
     inkscape:current-layer="svg2" />
  <defs
     id="defs4">
    <linearGradient
       id="a"
       y1="61"
       y2="3"
       x2="0"
       gradientUnits="userSpaceOnUse"
       gradientTransform="matrix(0.5,0,0,-0.48276,0,31.45)">
      <stop
         stop-color="#22a7f0"
         id="stop7" />
      <stop
         offset="1"
         stop-color="#19b5fe"
         id="stop9" />
    </linearGradient>
    <linearGradient
       id="b"
       y1="518.04"
       y2="524.8"
       x2="0"
       gradientUnits="userSpaceOnUse">
      <stop
         stop-color="#c8e3fe"
         id="stop12" />
      <stop
         offset="1"
         stop-color="#ffffff"
         id="stop14" />
    </linearGradient>
    <linearGradient
       id="c"
       y1="524.8"
       x1="404.57"
       y2="531.8"
       x2="411.57"
       gradientUnits="userSpaceOnUse">
      <stop
         stop-color="#383e51"
         id="stop17" />
      <stop
         offset="1"
         stop-color="#655c6f"
         stop-opacity="0"
         id="stop19" />
    </linearGradient>
  </defs>
  <g
     id="g4517"
     transform="translate(58.169492,4.0677968)">
    <path
       inkscape:connector-curvature="0"
       id="path4508"
       d="m -36.982511,-2.0677966 h -13.65097 c -3.066406,0 -5.536011,2.46766629 -5.536011,5.5340721 V 20.396192 c 0,3.066406 2.469605,5.536011 5.536011,5.536011 h 16.929917 c 3.066406,0 5.534072,-2.469605 5.534072,-5.536011 V 6.7452225 Z"
       style="opacity:1;fill:#4d84b6;fill-opacity:1;fill-rule:evenodd;stroke:none;stroke-width:1.02788651;stroke-linecap:round;stroke-linejoin:bevel;stroke-miterlimit:4;stroke-dasharray:none;stroke-dashoffset:0;stroke-opacity:1" />
    <path
       inkscape:connector-curvature="0"
       id="rect4497-3"
       d="m -28.169492,6.7452225 -8.813019,-8.813019 v 3.2789473 c 0,3.0664056 2.467666,5.5340717 5.534072,5.5340717 z"
       style="opacity:1;fill:#41617e;fill-opacity:1;fill-rule:evenodd;stroke:none;stroke-width:1.02788651;stroke-linecap:round;stroke-linejoin:bevel;stroke-miterlimit:4;stroke-dasharray:none;stroke-dashoffset:0;stroke-opacity:1" />
  </g>
  <path
     style="opacity:1;fill:#41617e;fill-opacity:1;stroke-width:0.99999994"
     inkscape:connector-curvature="0"
     id="path37"
     d="m 12.745051,24.329434 c -0.293639,-0.07617 -0.264152,-0.158491 0.219922,-0.611849 0.834228,-0.78017 0.973061,-1.556653 0.735939,-4.112168 -0.189207,-2.038269 -0.232208,-2.194303 -0.550419,-2.023526 -0.69048,0.369813 -1.551738,-0.106889 -2.530943,-1.398161 -0.484073,-0.63765 -0.529532,-0.825628 -0.447215,-1.819576 0.05037,-0.609392 0.154806,-1.345331 0.23098,-1.635284 0.116718,-0.444758 0.07986,-0.527075 -0.243266,-0.527075 -0.2100926,0 -0.4902164,-0.131462 -0.6229066,-0.291181 -0.3341827,-0.402985 0.2616946,-1.050464 0.9669186,-1.050464 0.286267,0 0.62905,-0.129005 0.760511,-0.287496 0.339097,-0.407899 0.856344,-0.356298 1.437477,0.143748 0.617993,0.531989 0.828086,1.76306 0.481617,2.814752 -0.391928,1.189298 -0.120404,1.306016 0.428786,0.183064 0.307153,-0.627822 0.740853,-1.175783 1.09838,-1.387104 0.324354,-0.191664 0.798598,-0.679423 1.05415,-1.083637 0.255551,-0.404214 0.574991,-0.80597 0.711367,-0.893202 0.417728,-0.266609 1.565253,-0.633964 1.99281,-0.6376499 0.583591,-0.012286 1.366218,0.6781949 1.505051,1.3133869 0.06635,0.299782 0.417728,1.007463 0.781398,1.571396 0.363669,0.565162 0.660994,1.12541 0.660994,1.245814 0,0.120404 0.258008,0.544276 0.57499,0.942346 0.473016,0.595878 0.573763,0.895659 0.566391,1.702858 -0.0086,1.10698 -0.604478,2.517428 -0.823171,1.94858 -0.0688,-0.179377 -0.04054,-0.485302 0.06389,-0.679423 0.217465,-0.406671 0.0258,-2.210275 -0.210093,-1.974381 -0.164634,0.164634 -0.271523,1.924008 -0.226064,3.698125 0.0602,2.302421 -0.0516,4.472151 -0.233437,4.531125 -0.464416,0.147433 -0.667137,-0.234665 -0.476702,-0.899345 0.286267,-1.000091 0.227294,-3.660038 -0.09092,-4.080224 -0.147434,-0.19412 -0.324354,-0.689252 -0.393156,-1.100837 -0.07003,-0.411585 -0.201493,-0.793684 -0.293639,-0.8502 -0.302239,-0.186749 -0.758054,1.022206 -0.758054,2.008782 0,0.772798 -0.116718,1.129096 -0.574991,1.761831 -0.648708,0.895659 -0.699081,1.159811 -0.287495,1.501365 0.320668,0.266609 0.383327,0.876001 0.106889,1.046779 -0.09952,0.06143 -0.357526,-0.07863 -0.574991,-0.312068 -0.307153,-0.329268 -0.394385,-0.356298 -0.394385,-0.122861 0,0.350154 -0.710138,0.588505 -1.102066,0.368583 -0.210092,-0.116718 -0.159719,-0.22115 0.224837,-0.474244 0.686794,-0.449673 0.620449,-0.818256 -0.297325,-1.657399 -0.715052,-0.653622 -0.77894,-0.785084 -0.660994,-1.366218 0.371042,-1.840462 0.369813,-1.888378 -0.05897,-1.888378 -0.280124,0 -0.404214,0.120404 -0.404214,0.395613 0,0.217465 -0.0946,0.573763 -0.211321,0.791227 -0.205178,0.383327 -0.266609,0.691709 -0.762969,3.841873 -0.246951,1.570167 -0.308382,1.63037 -1.377275,1.351474 m 5.142974,-3.343056 c 0.24818,-0.481616 0.285038,-0.893201 0.178149,-2.032125 -0.14129,-1.512423 -0.245723,-1.565253 -0.659765,-0.334183 -0.141291,0.421414 -0.417729,0.971833 -0.614307,1.22247 -0.455815,0.584819 -0.447215,0.76174 0.0602,1.302329 0.544276,0.578677 0.662223,0.561477 1.035721,-0.159719" />
</svg>
