<?xml version="1.0" encoding="UTF-8" standalone="no"?>
<svg
   xmlns:dc="http://purl.org/dc/elements/1.1/"
   xmlns:cc="http://creativecommons.org/ns#"
   xmlns:rdf="http://www.w3.org/1999/02/22-rdf-syntax-ns#"
   xmlns:svg="http://www.w3.org/2000/svg"
   xmlns="http://www.w3.org/2000/svg"
   xmlns:sodipodi="http://sodipodi.sourceforge.net/DTD/sodipodi-0.dtd"
   xmlns:inkscape="http://www.inkscape.org/namespaces/inkscape"
   width="32"
   height="32"
   version="1.1"
   id="svg37"
   sodipodi:docname="application-x-skg.svg"
   inkscape:version="0.92.1 r">
  <metadata
     id="metadata41">
    <rdf:RDF>
      <cc:Work
         rdf:about="">
        <dc:format>image/svg+xml</dc:format>
        <dc:type
           rdf:resource="http://purl.org/dc/dcmitype/StillImage" />
      </cc:Work>
    </rdf:RDF>
  </metadata>
  <sodipodi:namedview
     pagecolor="#ffffff"
     bordercolor="#666666"
     borderopacity="1"
     objecttolerance="10"
     gridtolerance="10"
     guidetolerance="10"
     inkscape:pageopacity="0"
     inkscape:pageshadow="2"
     inkscape:window-width="640"
     inkscape:window-height="480"
     id="namedview39"
     showgrid="false"
     inkscape:zoom="8.375"
     inkscape:cx="-29.61194"
     inkscape:cy="16"
     inkscape:current-layer="svg37" />
  <defs
     id="defs17">
    <linearGradient
       id="a"
       y1="61"
       y2="3"
       x2="0"
       gradientUnits="userSpaceOnUse"
       gradientTransform="matrix(0.5,0,0,-0.48276,7.3242188e-6,31.449988)">
      <stop
         stop-color="#f39c12"
         id="stop2" />
      <stop
         offset="1"
         stop-color="#f9a11f"
         id="stop4" />
    </linearGradient>
    <linearGradient
       id="b"
       y1="518.04"
       y2="524.8"
       x2="0"
       gradientUnits="userSpaceOnUse">
      <stop
         stop-color="#fddda3"
         id="stop7" />
      <stop
         offset="1"
         stop-color="#fde3a7"
         id="stop9" />
    </linearGradient>
    <linearGradient
       id="c"
       y1="524.8"
       x1="404.57"
       y2="531.8"
       x2="411.57"
       gradientUnits="userSpaceOnUse">
      <stop
         stop-color="#383e51"
         id="stop12" />
      <stop
         offset="1"
         stop-color="#655c6f"
         stop-opacity="0"
         id="stop14" />
    </linearGradient>
  </defs>
  <g
     id="g4540"
     transform="translate(36.776119,-2.2686568)">
    <path
       inkscape:connector-curvature="0"
       id="path4508"
       d="m -15.589138,4.2686567 h -13.65097 c -3.066406,0 -5.536011,2.4676663 -5.536011,5.5340721 V 26.732646 c 0,3.066406 2.469605,5.536011 5.536011,5.536011 h 16.929917 c 3.0664056,0 5.5340716,-2.469605 5.5340716,-5.536011 v -13.65097 z"
       style="opacity:1;fill:#f59d15;fill-opacity:1;fill-rule:evenodd;stroke:none;stroke-width:1.02788651;stroke-linecap:round;stroke-linejoin:bevel;stroke-miterlimit:4;stroke-dasharray:none;stroke-dashoffset:0;stroke-opacity:1" />
    <path
       inkscape:connector-curvature="0"
       id="rect4497-3"
       d="M -6.7761194,13.081676 -15.589138,4.2686568 v 3.2789473 c 0,3.0664059 2.467666,5.5340719 5.534072,5.5340719 z"
       style="opacity:1;fill:#fde1a6;fill-opacity:1;fill-rule:evenodd;stroke:none;stroke-width:1.02788651;stroke-linecap:round;stroke-linejoin:bevel;stroke-miterlimit:4;stroke-dasharray:none;stroke-dashoffset:0;stroke-opacity:1" />
  </g>
  <path
     style="color:#4d4d4d;fill:#fddda3;stroke-width:1"
     inkscape:connector-curvature="0"
     id="path33"
     d="m 15.32091,9.0442761 v 1.5279519 c -1.144944,0.105939 -2.046776,0.39523 -2.716358,0.934426 -0.736133,0.586734 -1.1042,1.455968 -1.1042,2.58869 0,1.582278 0.946652,2.609062 2.886132,3.098006 l 0.934426,0.255338 v 5.008966 C 14.116206,22.350355 12.9862,22.08687 11.925462,21.566688 l -0.467213,1.23051 c 0.431901,0.264844 1.021351,0.51475 1.739827,0.721194 0.631554,0.175204 1.341882,0.25262 2.122834,0.29744 v 1.527952 h 1.35818 v -1.527952 c 1.154452,-0.09236 2.082088,-0.444124 2.758462,-1.060738 0.725268,-0.656 1.102842,-1.606726 1.1042,-2.844026 0,-1.000978 -0.271636,-1.750694 -0.80676,-2.292608 C 19.19987,17.071114 18.39447,16.677242 17.35818,16.430054 L 16.67909,16.260282 V 11.8462 c 0.524256,0.03938 1.068886,0.112724 1.570054,0.255337 0.575868,0.154833 1.00777,0.355843 1.35818,0.551421 l 0.42511,-1.23051 C 19.1632,10.880534 18.048134,10.557288 16.67909,10.48802 V 9.0442761 h -1.018634 z m -0.29744,2.8440269 c 0.08828,-0.01494 0.202368,0.01083 0.29744,0 v 4.032433 l -0.381648,-0.08556 c -0.638344,-0.154832 -1.120498,-0.385723 -1.443744,-0.67909 -0.316456,-0.298799 -0.467214,-0.699462 -0.467214,-1.188406 0,-1.162602 0.656,-1.855273 1.995166,-2.079373 m 1.65562,5.857827 0.255338,0.08556 c 0.78231,0.195578 1.318792,0.461782 1.613516,0.80676 0.2988,0.339544 0.423752,0.8054 0.42511,1.358178 0,1.538818 -0.764654,2.356442 -2.292606,2.504482 z" />
</svg>
