<?xml version="1.0" encoding="UTF-8" standalone="no"?>
<svg
   xmlns:dc="http://purl.org/dc/elements/1.1/"
   xmlns:cc="http://creativecommons.org/ns#"
   xmlns:rdf="http://www.w3.org/1999/02/22-rdf-syntax-ns#"
   xmlns:svg="http://www.w3.org/2000/svg"
   xmlns="http://www.w3.org/2000/svg"
   xmlns:sodipodi="http://sodipodi.sourceforge.net/DTD/sodipodi-0.dtd"
   xmlns:inkscape="http://www.inkscape.org/namespaces/inkscape"
   width="32"
   height="32"
   version="1"
   id="svg16"
   sodipodi:docname="application-vnd.stardivision.math.svg"
   inkscape:version="0.92.1 r">
  <metadata
     id="metadata22">
    <rdf:RDF>
      <cc:Work
         rdf:about="">
        <dc:format>image/svg+xml</dc:format>
        <dc:type
           rdf:resource="http://purl.org/dc/dcmitype/StillImage" />
      </cc:Work>
    </rdf:RDF>
  </metadata>
  <defs
     id="defs20" />
  <sodipodi:namedview
     pagecolor="#ffffff"
     bordercolor="#666666"
     borderopacity="1"
     objecttolerance="10"
     gridtolerance="10"
     guidetolerance="10"
     inkscape:pageopacity="0"
     inkscape:pageshadow="2"
     inkscape:window-width="1680"
     inkscape:window-height="978"
     id="namedview18"
     showgrid="false"
     inkscape:zoom="7.375"
     inkscape:cx="-16.949153"
     inkscape:cy="11.661017"
     inkscape:window-x="0"
     inkscape:window-y="0"
     inkscape:window-maximized="1"
     inkscape:current-layer="svg16" />
  <g
     id="g4518"
     style="fill:#636e73;fill-opacity:1">
    <path
       inkscape:connector-curvature="0"
       id="path4508"
       d="M 21.186981,1.9999999 H 7.536011 C 4.469605,1.9999999 2,4.4676662 2,7.534072 V 24.463989 C 2,27.530395 4.469605,30 7.536011,30 H 24.465928 C 27.532334,30 30,27.530395 30,24.463989 v -13.65097 z"
       style="opacity:1;fill:#636e73;fill-opacity:1;fill-rule:evenodd;stroke:none;stroke-width:1.02788651;stroke-linecap:round;stroke-linejoin:bevel;stroke-miterlimit:4;stroke-dasharray:none;stroke-dashoffset:0;stroke-opacity:1" />
  </g>
  <path
     style="opacity:1;fill:#47525a;fill-opacity:1;fill-rule:evenodd;stroke:none;stroke-width:1.02788651;stroke-linecap:round;stroke-linejoin:bevel;stroke-miterlimit:4;stroke-dasharray:none;stroke-dashoffset:0;stroke-opacity:1"
     d="M 29.999999,10.813019 21.186981,2 v 3.2789473 c 0,3.0664059 2.467666,5.5340717 5.534072,5.5340717 z"
     id="rect4497-3"
     inkscape:connector-curvature="0" />
  <path
     style="fill:#cccccc"
     d="m 15.5649,12.855932 -2.099609,6.5 -1.400391,-3.5 H 9.3148998 v 1 H 11.3149 l 1.939453,5 H 13.8149 l 2.499999,-8 h 4 v -1 z m 0.939452,3.375 2.035157,2.681641 -2.22461,2.943359 h 1.109375 l 1.66797,-2.208984 1.667968,2.208984 h 1.111328 l -2.181641,-2.886719 2.074219,-2.738281 H 20.65279 l -1.519531,2.003906 -1.519532,-2.003906 z"
     id="path12"
     inkscape:connector-curvature="0" />
</svg>
