<?xml version="1.0" encoding="UTF-8" standalone="no"?>
<svg
   xmlns:dc="http://purl.org/dc/elements/1.1/"
   xmlns:cc="http://creativecommons.org/ns#"
   xmlns:rdf="http://www.w3.org/1999/02/22-rdf-syntax-ns#"
   xmlns:svg="http://www.w3.org/2000/svg"
   xmlns="http://www.w3.org/2000/svg"
   xmlns:sodipodi="http://sodipodi.sourceforge.net/DTD/sodipodi-0.dtd"
   xmlns:inkscape="http://www.inkscape.org/namespaces/inkscape"
   width="32"
   height="32"
   id="svg2"
   version="1.1"
   inkscape:version="0.92.1 r"
   sodipodi:docname="application-x-python-bytecode.svg">
  <metadata
     id="metadata41">
    <rdf:RDF>
      <cc:Work
         rdf:about="">
        <dc:format>image/svg+xml</dc:format>
        <dc:type
           rdf:resource="http://purl.org/dc/dcmitype/StillImage" />
      </cc:Work>
    </rdf:RDF>
  </metadata>
  <sodipodi:namedview
     pagecolor="#ffffff"
     bordercolor="#666666"
     borderopacity="1"
     objecttolerance="10"
     gridtolerance="10"
     guidetolerance="10"
     inkscape:pageopacity="0"
     inkscape:pageshadow="2"
     inkscape:window-width="1920"
     inkscape:window-height="1025"
     id="namedview39"
     showgrid="false"
     inkscape:zoom="7.375"
     inkscape:cx="-33.355932"
     inkscape:cy="13.830508"
     inkscape:window-x="0"
     inkscape:window-y="26"
     inkscape:window-maximized="1"
     inkscape:current-layer="svg2" />
  <defs
     id="defs4">
    <linearGradient
       id="c"
       y1="524.8"
       x1="404.57"
       y2="531.8"
       x2="411.57"
       gradientUnits="userSpaceOnUse"
       gradientTransform="translate(-384.57,-515.8)">
      <stop
         stop-color="#383e51"
         id="stop17" />
      <stop
         offset="1"
         stop-color="#655c6f"
         stop-opacity="0"
         id="stop19" />
    </linearGradient>
    <linearGradient
       id="a-7"
       y1="392.35999"
       y2="365.35999"
       gradientUnits="userSpaceOnUse"
       x2="0"
       gradientTransform="translate(309.57,152.44)">
      <stop
         stop-color="#ffffff"
         stop-opacity="0"
         id="stop7-9" />
      <stop
         offset="1"
         stop-color="#ffffff"
         stop-opacity=".2"
         id="stop9-2" />
    </linearGradient>
  </defs>
  <g
     id="g4509"
     transform="translate(60.745763,-2.9830509)">
    <path
       inkscape:connector-curvature="0"
       id="path4508"
       d="m -39.558782,4.9830508 h -13.65097 c -3.066406,0 -5.536011,2.4676663 -5.536011,5.5340722 V 27.44704 c 0,3.066406 2.469605,5.536011 5.536011,5.536011 h 16.929917 c 3.066406,0 5.534072,-2.469605 5.534072,-5.536011 V 13.79607 Z"
       style="opacity:1;fill:#fccc43;fill-opacity:1;fill-rule:evenodd;stroke:none;stroke-width:1.02788651;stroke-linecap:round;stroke-linejoin:bevel;stroke-miterlimit:4;stroke-dasharray:none;stroke-dashoffset:0;stroke-opacity:1" />
    <path
       inkscape:connector-curvature="0"
       id="rect4497-3"
       d="m -30.745763,13.79607 -8.813019,-8.8130191 v 3.2789473 c 0,3.0664058 2.467666,5.5340718 5.534072,5.5340718 z"
       style="opacity:1;fill:#746025;fill-opacity:1;fill-rule:evenodd;stroke:none;stroke-width:1.02788651;stroke-linecap:round;stroke-linejoin:bevel;stroke-miterlimit:4;stroke-dasharray:none;stroke-dashoffset:0;stroke-opacity:1" />
  </g>
  <path
     style="opacity:1;fill:#746025;fill-opacity:1"
     inkscape:connector-curvature="0"
     id="path37"
     d="m 14.9995,10.677966 c -1.108,0 -2,0.892 -2,2 h 3 v 1 h -4 c -1.108,0 -2,0.892 -2,2 v 2 c 0,1.108 0.892,2 2,2 v -1 c 0,-0.889 0.39,-1.676 1,-2.225 0.001,-0.001 0.001,-0.001 0.002,-0.002 0.132,-0.119 0.275,-0.226 0.426,-0.32 10e-4,-0.001 0.003,-0.001 0.004,-0.002 0.149,-0.093 0.306,-0.172 0.471,-0.238 0.03,-0.012 0.062,-0.019 0.092,-0.029 0.14,-0.051 0.283,-0.097 0.432,-0.127 0.186,-0.036 0.377,-0.057 0.574,-0.057 h 4 v -3 c 0,-1.108 -0.892,-2 -2,-2 z m 0,0.5 c 0.277,0 0.5,0.223 0.5,0.5 0,0.277 -0.223,0.5 -0.5,0.5 -0.277,0 -0.5,-0.223 -0.5,-0.5 0,-0.277 0.223,-0.5 0.5,-0.5 m 5,2.5 v 1 c 0,0.889 -0.392,1.678 -1,2.227 -0.132,0.119 -0.275,0.226 -0.426,0.32 -10e-4,0.001 -0.003,0.001 -0.004,0.002 -0.149,0.093 -0.306,0.172 -0.471,0.238 -0.03,0.012 -0.062,0.019 -0.092,0.029 -0.14,0.051 -0.283,0.097 -0.432,0.127 -0.186,0.036 -0.377,0.057 -0.574,0.057 h -4 v 3 c 0,1.108 0.892,2 2,2 h 2 c 1.108,0 2,-0.892 2,-2 h -3 v -1 h 4 c 1.108,0 2,-0.892 2,-2 v -2 c 0,-1.108 -0.892,-2 -2,-2 m -3,7.5 c 0.277,0 0.5,0.223 0.5,0.5 0,0.277 -0.223,0.5 -0.5,0.5 -0.277,0 -0.5,-0.223 -0.5,-0.5 0,-0.277 0.223,-0.5 0.5,-0.5" />
</svg>
