<?xml version="1.0" encoding="UTF-8" standalone="no"?>
<svg
   xmlns:dc="http://purl.org/dc/elements/1.1/"
   xmlns:cc="http://creativecommons.org/ns#"
   xmlns:rdf="http://www.w3.org/1999/02/22-rdf-syntax-ns#"
   xmlns:svg="http://www.w3.org/2000/svg"
   xmlns="http://www.w3.org/2000/svg"
   xmlns:sodipodi="http://sodipodi.sourceforge.net/DTD/sodipodi-0.dtd"
   xmlns:inkscape="http://www.inkscape.org/namespaces/inkscape"
   width="32"
   height="32"
   version="1.1"
   id="svg35"
   sodipodi:docname="application-x-apple-diskimage.svg"
   inkscape:version="0.92.1 r">
  <metadata
     id="metadata39">
    <rdf:RDF>
      <cc:Work
         rdf:about="">
        <dc:format>image/svg+xml</dc:format>
        <dc:type
           rdf:resource="http://purl.org/dc/dcmitype/StillImage" />
      </cc:Work>
    </rdf:RDF>
  </metadata>
  <sodipodi:namedview
     pagecolor="#ffffff"
     bordercolor="#666666"
     borderopacity="1"
     objecttolerance="10"
     gridtolerance="10"
     guidetolerance="10"
     inkscape:pageopacity="0"
     inkscape:pageshadow="2"
     inkscape:window-width="640"
     inkscape:window-height="480"
     id="namedview37"
     showgrid="false"
     inkscape:zoom="8.375"
     inkscape:cx="-29.373134"
     inkscape:cy="16"
     inkscape:current-layer="svg35" />
  <defs
     id="defs13">
    <linearGradient
       id="a"
       y1="524.8"
       x1="404.57"
       y2="531.8"
       x2="411.57"
       gradientUnits="userSpaceOnUse">
      <stop
         stop-color="#383e51"
         id="stop2" />
      <stop
         offset="1"
         stop-color="#655c6f"
         stop-opacity="0"
         id="stop4" />
    </linearGradient>
    <linearGradient
       id="b"
       y1="546.02"
       x1="396.48"
       y2="517.8"
       x2="396.54"
       gradientUnits="userSpaceOnUse">
      <stop
         stop-color="#ffffff"
         stop-opacity="0"
         id="stop7" />
      <stop
         offset="1"
         stop-color="#ffffff"
         stop-opacity=".2"
         id="stop9" />
    </linearGradient>
    <path
       id="c"
       d="m389.57 545.8v-28h15l7 7v21h-7z" />
  </defs>
  <g
     id="g4539"
     transform="translate(34.746268,0.3582085)">
    <path
       inkscape:connector-curvature="0"
       id="path4508"
       d="m -13.559287,1.641791 h -13.65097 c -3.066406,0 -5.536011,2.4676663 -5.536011,5.5340721 V 24.105781 c 0,3.066406 2.469605,5.536011 5.536011,5.536011 h 16.929917 c 3.0664057,0 5.5340717,-2.469605 5.5340717,-5.536011 V 10.45481 Z"
       style="opacity:1;fill:#d8dcde;fill-opacity:1;fill-rule:evenodd;stroke:none;stroke-width:1.02788651;stroke-linecap:round;stroke-linejoin:bevel;stroke-miterlimit:4;stroke-dasharray:none;stroke-dashoffset:0;stroke-opacity:1" />
    <path
       inkscape:connector-curvature="0"
       id="rect4497-3"
       d="M -4.7462683,10.45481 -13.559287,1.6417911 v 3.2789473 c 0,3.0664056 2.467666,5.5340716 5.5340717,5.5340716 z"
       style="opacity:1;fill:#79838e;fill-opacity:1;fill-rule:evenodd;stroke:none;stroke-width:1.02788651;stroke-linecap:round;stroke-linejoin:bevel;stroke-miterlimit:4;stroke-dasharray:none;stroke-dashoffset:0;stroke-opacity:1" />
  </g>
  <path
     style="color:#000000;fill:#79838e;fill-opacity:1;stroke-width:0.10000001"
     inkscape:connector-curvature="0"
     id="path29"
     d="m 16.000001,9.5223886 c -4.237304,0 -7.6716424,3.4343384 -7.6716424,7.6716424 0,4.237303 3.4343384,7.671642 7.6716424,7.671642 4.237303,0 7.671642,-3.434339 7.671642,-7.671642 0,-4.237304 -3.434339,-7.6716424 -7.671642,-7.6716424 m 0,1.2786074 c 3.530234,0 6.393035,2.862801 6.393035,6.393035 0,3.530234 -2.862801,6.393035 -6.393035,6.393035 -3.530234,0 -6.3930354,-2.862801 -6.3930354,-6.393035 0,-3.530234 2.8628014,-6.393035 6.3930354,-6.393035 m 0,1.278607 c -2.824443,0 -5.114428,2.289985 -5.114428,5.114428 h 2.557214 c 0,-1.412861 1.144353,-2.557214 2.557214,-2.557214 z m 0,3.835821 a 1.278607,1.278607 0 0 0 -1.278607,1.278607 1.278607,1.278607 0 0 0 1.278607,1.278607 1.278607,1.278607 0 0 0 1.278607,-1.278607 1.278607,1.278607 0 0 0 -1.278607,-1.278607 m 2.557214,1.278607 c 0,1.41286 -1.144354,2.557214 -2.557214,2.557214 v 2.557214 c 2.824442,0 5.114428,-2.289986 5.114428,-5.114428 z" />
</svg>
