<?xml version="1.0" encoding="UTF-8" standalone="no"?>
<svg
   xmlns:dc="http://purl.org/dc/elements/1.1/"
   xmlns:cc="http://creativecommons.org/ns#"
   xmlns:rdf="http://www.w3.org/1999/02/22-rdf-syntax-ns#"
   xmlns:svg="http://www.w3.org/2000/svg"
   xmlns="http://www.w3.org/2000/svg"
   xmlns:sodipodi="http://sodipodi.sourceforge.net/DTD/sodipodi-0.dtd"
   xmlns:inkscape="http://www.inkscape.org/namespaces/inkscape"
   width="32"
   height="32"
   version="1.1"
   id="svg41"
   sodipodi:docname="application-x-m4.svg"
   inkscape:version="0.92.1 r">
  <metadata
     id="metadata45">
    <rdf:RDF>
      <cc:Work
         rdf:about="">
        <dc:format>image/svg+xml</dc:format>
        <dc:type
           rdf:resource="http://purl.org/dc/dcmitype/StillImage" />
      </cc:Work>
    </rdf:RDF>
  </metadata>
  <sodipodi:namedview
     pagecolor="#ffffff"
     bordercolor="#666666"
     borderopacity="1"
     objecttolerance="10"
     gridtolerance="10"
     guidetolerance="10"
     inkscape:pageopacity="0"
     inkscape:pageshadow="2"
     inkscape:window-width="640"
     inkscape:window-height="480"
     id="namedview43"
     showgrid="false"
     inkscape:zoom="8.375"
     inkscape:cx="-6.6865672"
     inkscape:cy="16"
     inkscape:current-layer="svg41" />
  <defs
     id="defs17">
    <linearGradient
       id="a"
       y1="2.719"
       y2="61"
       x1="7.729"
       x2="8.271"
       gradientUnits="userSpaceOnUse"
       gradientTransform="matrix(0.5,0,0,-0.48276,0,31.45)">
      <stop
         stop-color="#bdc3c7"
         id="stop2" />
      <stop
         offset="1"
         stop-color="#dadfe1"
         id="stop4" />
    </linearGradient>
    <linearGradient
       id="b"
       y1="518.04"
       y2="524.8"
       x2="0"
       gradientUnits="userSpaceOnUse">
      <stop
         stop-color="#566472"
         id="stop7" />
      <stop
         offset="1"
         stop-color="#5e6b78"
         id="stop9" />
    </linearGradient>
    <linearGradient
       id="c"
       y1="524.8"
       x1="404.57"
       y2="531.8"
       x2="411.57"
       gradientUnits="userSpaceOnUse">
      <stop
         stop-color="#383e51"
         id="stop12" />
      <stop
         offset="1"
         stop-color="#655c6f"
         stop-opacity="0"
         id="stop14" />
    </linearGradient>
  </defs>
  <g
     id="g4546"
     transform="translate(36.895522,-3.4626868)">
    <path
       inkscape:connector-curvature="0"
       id="path4508"
       d="m -15.708541,5.4626866 h -13.65097 c -3.066406,0 -5.536011,2.4676663 -5.536011,5.5340724 v 16.929917 c 0,3.066406 2.469605,5.536011 5.536011,5.536011 h 16.929917 c 3.0664056,0 5.5340716,-2.469605 5.5340716,-5.536011 v -13.65097 z"
       style="opacity:1;fill:#d6dbdd;fill-opacity:1;fill-rule:evenodd;stroke:none;stroke-width:1.02788651;stroke-linecap:round;stroke-linejoin:bevel;stroke-miterlimit:4;stroke-dasharray:none;stroke-dashoffset:0;stroke-opacity:1" />
    <path
       inkscape:connector-curvature="0"
       id="rect4497-3"
       d="M -6.8955224,14.275706 -15.708541,5.4626867 V 8.741634 c 0,3.066406 2.467666,5.534072 5.534072,5.534072 z"
       style="opacity:1;fill:#8096a0;fill-opacity:1;fill-rule:evenodd;stroke:none;stroke-width:1.02788651;stroke-linecap:round;stroke-linejoin:bevel;stroke-miterlimit:4;stroke-dasharray:none;stroke-dashoffset:0;stroke-opacity:1" />
  </g>
  <g
     style="fill:#8096a0;fill-opacity:1"
     id="g37"
     transform="translate(-384.5372,-516.60028)">
    <path
       inkscape:connector-curvature="0"
       id="path33"
       d="m 402.56,530.91 c 0.019,-0.152 0.033,-0.306 0.033,-0.463 0,-0.157 -0.014,-0.311 -0.033,-0.463 l 1,-0.785 c 0.09,-0.071 0.116,-0.199 0.057,-0.304 l -0.949,-1.644 c -0.059,-0.102 -0.183,-0.145 -0.289,-0.102 l -1.182,0.477 c -0.244,-0.187 -0.513,-0.346 -0.802,-0.467 l -0.178,-1.258 c -0.021,-0.112 -0.119,-0.199 -0.237,-0.199 h -1.898 c -0.119,0 -0.216,0.088 -0.235,0.199 l -0.178,1.258 c -0.289,0.121 -0.558,0.278 -0.802,0.467 l -1.182,-0.477 c -0.107,-0.04 -0.23,0 -0.289,0.102 l -0.949,1.644 c -0.059,0.102 -0.033,0.23 0.057,0.304 l 1,0.785 c -0.019,0.152 -0.033,0.306 -0.033,0.463 0,0.157 0.014,0.311 0.033,0.463 l -1,0.785 c -0.09,0.071 -0.116,0.199 -0.057,0.304 l 0.949,1.644 c 0.059,0.102 0.183,0.145 0.289,0.102 l 1.182,-0.477 c 0.244,0.187 0.513,0.346 0.802,0.467 l 0.178,1.258 c 0.019,0.112 0.116,0.199 0.235,0.199 h 1.898 c 0.119,0 0.216,-0.088 0.235,-0.199 l 0.178,-1.258 c 0.289,-0.121 0.558,-0.278 0.802,-0.467 l 1.182,0.477 c 0.107,0.04 0.23,0 0.289,-0.102 l 0.949,-1.644 c 0.059,-0.102 0.033,-0.23 -0.057,-0.304 z m -3.526,1.198 c -0.918,0 -1.661,-0.743 -1.661,-1.661 0,-0.918 0.743,-1.661 1.661,-1.661 0.918,0 1.661,0.743 1.661,1.661 0,0.918 -0.743,1.661 -1.661,1.661"
       style="fill:#8096a0;fill-opacity:1" />
    <path
       inkscape:connector-curvature="0"
       id="path35"
       d="m 405.27,539.3 c 0.065,-0.091 0.129,-0.185 0.184,-0.286 0.055,-0.101 0.1,-0.205 0.141,-0.309 l 0.921,-0.153 c 0.083,-0.014 0.145,-0.087 0.143,-0.175 l -0.033,-1.39 c -0.003,-0.086 -0.067,-0.157 -0.15,-0.167 l -0.927,-0.108 c -0.091,-0.206 -0.208,-0.402 -0.351,-0.582 l 0.327,-0.871 c 0.025,-0.079 -0.006,-0.17 -0.083,-0.211 l -1.22,-0.666 c -0.076,-0.042 -0.17,-0.019 -0.221,0.046 l -0.555,0.746 c -0.228,-0.024 -0.456,-0.017 -0.679,0.019 l -0.592,-0.721 c -0.055,-0.063 -0.148,-0.081 -0.222,-0.036 l -1.187,0.724 c -0.074,0.045 -0.102,0.136 -0.07,0.215 l 0.368,0.856 c -0.065,0.091 -0.129,0.185 -0.184,0.286 -0.055,0.101 -0.1,0.205 -0.141,0.309 l -0.919,0.154 c -0.083,0.014 -0.145,0.087 -0.143,0.175 l 0.033,1.39 c 0.003,0.086 0.067,0.157 0.15,0.167 l 0.927,0.108 c 0.091,0.206 0.208,0.402 0.351,0.582 l -0.327,0.871 c -0.027,0.078 0.005,0.169 0.081,0.21 l 1.22,0.666 c 0.076,0.042 0.17,0.019 0.221,-0.046 l 0.555,-0.746 c 0.228,0.024 0.456,0.017 0.679,-0.019 l 0.592,0.721 c 0.055,0.063 0.148,0.081 0.222,0.036 l 1.187,-0.724 c 0.074,-0.045 0.102,-0.136 0.07,-0.215 z m -2.686,-0.467 c -0.59,-0.322 -0.807,-1.06 -0.485,-1.65 0.322,-0.59 1.06,-0.807 1.65,-0.485 0.59,0.322 0.807,1.06 0.485,1.65 -0.322,0.59 -1.06,0.807 -1.65,0.485"
       style="fill:#8096a0;fill-opacity:1" />
  </g>
</svg>
