<?xml version="1.0" encoding="UTF-8" standalone="no"?>
<svg
   xmlns:dc="http://purl.org/dc/elements/1.1/"
   xmlns:cc="http://creativecommons.org/ns#"
   xmlns:rdf="http://www.w3.org/1999/02/22-rdf-syntax-ns#"
   xmlns:svg="http://www.w3.org/2000/svg"
   xmlns="http://www.w3.org/2000/svg"
   xmlns:sodipodi="http://sodipodi.sourceforge.net/DTD/sodipodi-0.dtd"
   xmlns:inkscape="http://www.inkscape.org/namespaces/inkscape"
   width="32"
   height="32"
   version="1.1"
   id="svg37"
   sodipodi:docname="application-octet-stream.svg"
   inkscape:version="0.92.1 r">
  <metadata
     id="metadata41">
    <rdf:RDF>
      <cc:Work
         rdf:about="">
        <dc:format>image/svg+xml</dc:format>
        <dc:type
           rdf:resource="http://purl.org/dc/dcmitype/StillImage" />
      </cc:Work>
    </rdf:RDF>
  </metadata>
  <sodipodi:namedview
     pagecolor="#ffffff"
     bordercolor="#666666"
     borderopacity="1"
     objecttolerance="10"
     gridtolerance="10"
     guidetolerance="10"
     inkscape:pageopacity="0"
     inkscape:pageshadow="2"
     inkscape:window-width="640"
     inkscape:window-height="480"
     id="namedview39"
     showgrid="false"
     inkscape:zoom="8.375"
     inkscape:cx="-29.373134"
     inkscape:cy="16"
     inkscape:current-layer="svg37" />
  <defs
     id="defs17">
    <linearGradient
       id="a"
       y1="61"
       y2="3"
       x2="0"
       gradientUnits="userSpaceOnUse"
       gradientTransform="matrix(0.5,0,0,-0.48276,0,31.45)">
      <stop
         stop-color="#5e6b78"
         id="stop2" />
      <stop
         offset="1"
         stop-color="#768492"
         id="stop4" />
    </linearGradient>
    <linearGradient
       id="b"
       y1="518.04"
       y2="524.8"
       x2="0"
       gradientUnits="userSpaceOnUse">
      <stop
         stop-color="#dedede"
         id="stop7" />
      <stop
         offset="1"
         stop-color="#fbfbfb"
         id="stop9" />
    </linearGradient>
    <linearGradient
       id="c"
       y1="524.8"
       x1="404.57"
       y2="531.8"
       x2="411.57"
       gradientUnits="userSpaceOnUse">
      <stop
         stop-color="#383e51"
         id="stop12" />
      <stop
         offset="1"
         stop-color="#655c6f"
         stop-opacity="0"
         id="stop14" />
    </linearGradient>
  </defs>
  <g
     id="g4540"
     transform="translate(42.985075,1.7910442)">
    <path
       inkscape:connector-curvature="0"
       id="path4508"
       d="m -21.798094,0.2089556 h -13.65097 c -3.066406,0 -5.536011,2.4676659 -5.536011,5.5340717 V 22.672945 c 0,3.066406 2.469605,5.536011 5.536011,5.536011 h 16.929917 c 3.066406,0 5.534072,-2.469605 5.534072,-5.536011 V 9.0219743 Z"
       style="opacity:1;fill:#6a7885;fill-opacity:1;fill-rule:evenodd;stroke:none;stroke-width:1.02788651;stroke-linecap:round;stroke-linejoin:bevel;stroke-miterlimit:4;stroke-dasharray:none;stroke-dashoffset:0;stroke-opacity:1" />
    <path
       inkscape:connector-curvature="0"
       id="rect4497-3"
       d="m -12.985075,9.0219743 -8.813019,-8.8130187 v 3.278947 c 0,3.0664056 2.467666,5.5340717 5.534072,5.5340717 z"
       style="opacity:1;fill:#caced1;fill-opacity:1;fill-rule:evenodd;stroke:none;stroke-width:1.02788651;stroke-linecap:round;stroke-linejoin:bevel;stroke-miterlimit:4;stroke-dasharray:none;stroke-dashoffset:0;stroke-opacity:1" />
  </g>
  <path
     style="opacity:1;fill:#caced1;fill-opacity:1"
     inkscape:connector-curvature="0"
     id="path33"
     d="m 10,10.955224 v 12 h 12 v -12 z m 1,3 h 10 v 8 c -3.551,-0.037 -6.45,-0.077 -10,0 z m 5.199,1 c -0.486,0 -0.94,0.17 -1.26,0.49 -0.32,0.32 -0.49,0.774 -0.49,1.26 h 1 c 0,-0.264 0.079,-0.435 0.197,-0.553 0.118,-0.118 0.289,-0.197 0.553,-0.197 0.264,0 0.435,0.08 0.553,0.197 0.118,0.118 0.197,0.289 0.197,0.553 0,0.229 -0.045,0.326 -0.105,0.412 -0.261,0.263 -0.575,0.488 -0.828,0.703 -0.286,0.215 -0.566,0.497 -0.566,0.885 v 0.25 h 1 v -0.25 c 0.355,-0.364 0.885,-0.682 1.215,-1.016 0.174,-0.25 0.285,-0.589 0.285,-0.984 0,-0.486 -0.17,-0.94 -0.49,-1.26 -0.32,-0.32 -0.774,-0.49 -1.26,-0.49 m -0.75,5 v 1 h 1 v -1 z" />
</svg>
