<?xml version="1.0" encoding="UTF-8" standalone="no"?>
<svg
   xmlns:dc="http://purl.org/dc/elements/1.1/"
   xmlns:cc="http://creativecommons.org/ns#"
   xmlns:rdf="http://www.w3.org/1999/02/22-rdf-syntax-ns#"
   xmlns:svg="http://www.w3.org/2000/svg"
   xmlns="http://www.w3.org/2000/svg"
   xmlns:sodipodi="http://sodipodi.sourceforge.net/DTD/sodipodi-0.dtd"
   xmlns:inkscape="http://www.inkscape.org/namespaces/inkscape"
   width="32"
   height="32"
   version="1.1"
   id="svg37"
   sodipodi:docname="application-x-xliff.svg"
   inkscape:version="0.92.1 r">
  <metadata
     id="metadata41">
    <rdf:RDF>
      <cc:Work
         rdf:about="">
        <dc:format>image/svg+xml</dc:format>
        <dc:type
           rdf:resource="http://purl.org/dc/dcmitype/StillImage" />
      </cc:Work>
    </rdf:RDF>
  </metadata>
  <sodipodi:namedview
     pagecolor="#ffffff"
     bordercolor="#666666"
     borderopacity="1"
     objecttolerance="10"
     gridtolerance="10"
     guidetolerance="10"
     inkscape:pageopacity="0"
     inkscape:pageshadow="2"
     inkscape:window-width="640"
     inkscape:window-height="480"
     id="namedview39"
     showgrid="false"
     inkscape:zoom="8.375"
     inkscape:cx="-6.8059701"
     inkscape:cy="16"
     inkscape:current-layer="svg37" />
  <defs
     id="defs17">
    <linearGradient
       id="a"
       y1="61"
       y2="3"
       x2="0"
       gradientUnits="userSpaceOnUse"
       gradientTransform="matrix(0.5,0,0,-0.48276,1.31343,30.49478)">
      <stop
         stop-color="#8892bf"
         id="stop2" />
      <stop
         offset="1"
         stop-color="#939dc9"
         id="stop4" />
    </linearGradient>
    <linearGradient
       id="b"
       y1="518.04"
       y2="524.8"
       x2="0"
       gradientUnits="userSpaceOnUse">
      <stop
         stop-color="#444e7e"
         id="stop7" />
      <stop
         offset="1"
         stop-color="#5a669e"
         id="stop9" />
    </linearGradient>
    <linearGradient
       id="c"
       y1="524.8"
       x1="404.57"
       y2="531.8"
       x2="411.57"
       gradientUnits="userSpaceOnUse">
      <stop
         stop-color="#383e51"
         id="stop12" />
      <stop
         offset="1"
         stop-color="#655c6f"
         stop-opacity="0"
         id="stop14" />
    </linearGradient>
  </defs>
  <g
     id="g4541"
     transform="translate(45.97015,-0.59701464)">
    <g
       style="fill:#8c96c2;fill-opacity:1"
       id="g4518"
       transform="translate(-45.97015,0.59701469)">
      <path
         style="opacity:1;fill:#8c96c2;fill-opacity:1;fill-rule:evenodd;stroke:none;stroke-width:1.02788651;stroke-linecap:round;stroke-linejoin:bevel;stroke-miterlimit:4;stroke-dasharray:none;stroke-dashoffset:0;stroke-opacity:1"
         d="M 21.186981,1.9999999 H 7.536011 C 4.469605,1.9999999 2,4.4676662 2,7.534072 V 24.463989 C 2,27.530395 4.469605,30 7.536011,30 H 24.465928 C 27.532334,30 30,27.530395 30,24.463989 v -13.65097 z"
         id="path4508"
         inkscape:connector-curvature="0" />
    </g>
    <path
       inkscape:connector-curvature="0"
       id="rect4497-3"
       d="m -15.97015,11.410034 -8.813019,-8.8130193 v 3.278948 c 0,3.0664056 2.467666,5.5340713 5.534072,5.5340713 z"
       style="opacity:1;fill:#546096;fill-opacity:1;fill-rule:evenodd;stroke:none;stroke-width:1.02788651;stroke-linecap:round;stroke-linejoin:bevel;stroke-miterlimit:4;stroke-dasharray:none;stroke-dashoffset:0;stroke-opacity:1" />
  </g>
  <path
     style="fill:#546096;fill-opacity:1"
     inkscape:connector-curvature="0"
     id="path33"
     d="m 16.4745,18.642724 -1.385,-1.38 0.016,-0.016 c 0.949,-1.067 1.625,-2.293 2.024,-3.591 h 1.598 v -1.1 h -3.818 v -1.1 h -1.091 v 1.1 h -3.818 v 1.095 h 6.093 c -0.365,1.062 -0.944,2.068 -1.729,2.948 -0.507,-0.567 -0.927,-1.188 -1.26,-1.842 h -1.091 c 0.398,0.896 0.944,1.744 1.625,2.508 l -2.776,2.761 0.775,0.781 2.727,-2.75 1.696,1.71 z m 3.071,-2.788 h -1.091 l -2.455,6.6 h 1.091 l 0.611,-1.65 h 2.591 l 0.616,1.65 h 1.091 z m -1.429,3.85 0.884,-2.381 0.884,2.381 z" />
</svg>
