<?xml version="1.0" encoding="UTF-8" standalone="no"?>
<svg
   xmlns:dc="http://purl.org/dc/elements/1.1/"
   xmlns:cc="http://creativecommons.org/ns#"
   xmlns:rdf="http://www.w3.org/1999/02/22-rdf-syntax-ns#"
   xmlns:svg="http://www.w3.org/2000/svg"
   xmlns="http://www.w3.org/2000/svg"
   xmlns:sodipodi="http://sodipodi.sourceforge.net/DTD/sodipodi-0.dtd"
   xmlns:inkscape="http://www.inkscape.org/namespaces/inkscape"
   width="32"
   height="32"
   version="1.1"
   id="svg35"
   sodipodi:docname="application-x-blender.svg"
   inkscape:version="0.92.1 r">
  <metadata
     id="metadata39">
    <rdf:RDF>
      <cc:Work
         rdf:about="">
        <dc:format>image/svg+xml</dc:format>
        <dc:type
           rdf:resource="http://purl.org/dc/dcmitype/StillImage" />
      </cc:Work>
    </rdf:RDF>
  </metadata>
  <sodipodi:namedview
     pagecolor="#ffffff"
     bordercolor="#666666"
     borderopacity="1"
     objecttolerance="10"
     gridtolerance="10"
     guidetolerance="10"
     inkscape:pageopacity="0"
     inkscape:pageshadow="2"
     inkscape:window-width="640"
     inkscape:window-height="480"
     id="namedview37"
     showgrid="false"
     inkscape:zoom="8.375"
     inkscape:cx="-6.6865672"
     inkscape:cy="16"
     inkscape:current-layer="svg35" />
  <defs
     id="defs13">
    <linearGradient
       id="a"
       y1="524.8"
       x1="404.57"
       y2="531.8"
       x2="411.57"
       gradientUnits="userSpaceOnUse">
      <stop
         stop-color="#060606"
         id="stop2" />
      <stop
         offset="1"
         stop-opacity="0"
         id="stop4" />
    </linearGradient>
    <linearGradient
       id="b"
       y1="546.08"
       x1="400.12"
       y2="517.9"
       x2="399.68"
       gradientUnits="userSpaceOnUse">
      <stop
         stop-color="#ffffff"
         stop-opacity="0"
         id="stop7" />
      <stop
         offset="1"
         stop-color="#ffffff"
         stop-opacity=".2"
         id="stop9" />
    </linearGradient>
    <path
       id="c"
       d="m389.57 545.8v-28h15l7 7v21h-7z" />
  </defs>
  <g
     id="g4539"
     transform="translate(48.597014,-2.7462683)">
    <path
       inkscape:connector-curvature="0"
       id="path4508"
       d="m -27.410033,4.7462686 h -13.65097 c -3.066406,0 -5.536011,2.4676663 -5.536011,5.5340724 v 16.929916 c 0,3.066406 2.469605,5.536011 5.536011,5.536011 h 16.929917 c 3.066406,0 5.534072,-2.469605 5.534072,-5.536011 V 13.559288 Z"
       style="opacity:1;fill:#ff9639;fill-opacity:1;fill-rule:evenodd;stroke:none;stroke-width:1.02788651;stroke-linecap:round;stroke-linejoin:bevel;stroke-miterlimit:4;stroke-dasharray:none;stroke-dashoffset:0;stroke-opacity:1" />
    <path
       inkscape:connector-curvature="0"
       id="rect4497-3"
       d="M -18.597014,13.559288 -27.410033,4.7462687 V 8.025216 c 0,3.066406 2.467666,5.534072 5.534072,5.534072 z"
       style="opacity:1;fill:#a96e3a;fill-opacity:1;fill-rule:evenodd;stroke:none;stroke-width:1.02788651;stroke-linecap:round;stroke-linejoin:bevel;stroke-miterlimit:4;stroke-dasharray:none;stroke-dashoffset:0;stroke-opacity:1" />
  </g>
  <path
     style="opacity:0.4;stroke-width:2"
     inkscape:connector-curvature="0"
     id="path29"
     d="m 15.38071,10.453191 a 0.5,0.5 0 0 0 -0.3457,0.146481 0.5,0.5 0 0 0 0,0.70703 l 3.205,3.205 a 4,4 0 0 0 -0.24023,-0.008 h -7.5 a 0.5,0.5 0 0 0 -0.5,0.5 0.5,0.5 0 0 0 0.5,0.5 h 4.793 l -5.146,5.146 a 0.500012,0.5 0 0 0 0,0.70704 0.500012,0.5 0 0 0 0.70704,0 l 3.164,-3.164 a 4,4 0 0 0 -0.0176,0.31055 4,4 0 0 0 4,4 4,4 0 0 0 4,-4 4,4 0 0 0 -0.96094,-2.5957 l 0.006,-0.006 -0.135,-0.135 a 4,4 0 0 0 -0.20313,-0.20312 l -4.965,-4.965 a 0.5,0.5 0 0 0 -0.36133,-0.146481 m 2.61902,5.051111 a 3,3 0 0 1 1.99609,0.76367 l 0.227,0.227 a 3,3 0 0 1 0.77734,2.00977 3,3 0 0 1 -3,3 3,3 0 0 1 -3,-3 3,3 0 0 1 3,-3 m 0,2 a 1,1 0 0 0 -1,1 1,1 0 0 0 1,1 1,1 0 0 0 1,-1 1,1 0 0 0 -1,-1" />
</svg>
