<?xml version="1.0" encoding="UTF-8" standalone="no"?>
<svg
   xmlns:dc="http://purl.org/dc/elements/1.1/"
   xmlns:cc="http://creativecommons.org/ns#"
   xmlns:rdf="http://www.w3.org/1999/02/22-rdf-syntax-ns#"
   xmlns:svg="http://www.w3.org/2000/svg"
   xmlns="http://www.w3.org/2000/svg"
   xmlns:sodipodi="http://sodipodi.sourceforge.net/DTD/sodipodi-0.dtd"
   xmlns:inkscape="http://www.inkscape.org/namespaces/inkscape"
   width="32"
   height="32"
   version="1.1"
   id="svg14"
   sodipodi:docname="application-vnd.comicbook+zip.svg"
   inkscape:version="0.92.1 r">
  <metadata
     id="metadata20">
    <rdf:RDF>
      <cc:Work
         rdf:about="">
        <dc:format>image/svg+xml</dc:format>
        <dc:type
           rdf:resource="http://purl.org/dc/dcmitype/StillImage" />
      </cc:Work>
    </rdf:RDF>
  </metadata>
  <defs
     id="defs18" />
  <sodipodi:namedview
     pagecolor="#ffffff"
     bordercolor="#666666"
     borderopacity="1"
     objecttolerance="10"
     gridtolerance="10"
     guidetolerance="10"
     inkscape:pageopacity="0"
     inkscape:pageshadow="2"
     inkscape:window-width="1680"
     inkscape:window-height="978"
     id="namedview16"
     showgrid="false"
     inkscape:zoom="7.375"
     inkscape:cx="-34.440678"
     inkscape:cy="16"
     inkscape:window-x="0"
     inkscape:window-y="0"
     inkscape:window-maximized="1"
     inkscape:current-layer="svg14" />
  <g
     id="g4518"
     style="fill:#ffba3a;fill-opacity:1">
    <path
       inkscape:connector-curvature="0"
       id="path4508"
       d="M 21.186981,1.9999999 H 7.536011 C 4.469605,1.9999999 2,4.4676662 2,7.534072 V 24.463989 C 2,27.530395 4.469605,30 7.536011,30 H 24.465928 C 27.532334,30 30,27.530395 30,24.463989 v -13.65097 z"
       style="opacity:1;fill:#ffba3a;fill-opacity:1;fill-rule:evenodd;stroke:none;stroke-width:1.02788651;stroke-linecap:round;stroke-linejoin:bevel;stroke-miterlimit:4;stroke-dasharray:none;stroke-dashoffset:0;stroke-opacity:1" />
  </g>
  <path
     style="opacity:1;fill:#e89f17;fill-opacity:1;fill-rule:evenodd;stroke:none;stroke-width:1.02788651;stroke-linecap:round;stroke-linejoin:bevel;stroke-miterlimit:4;stroke-dasharray:none;stroke-dashoffset:0;stroke-opacity:1"
     d="M 30,10.813019 21.186981,2.0000001 v 3.2789471 c 0,3.0664059 2.467666,5.5340718 5.534072,5.5340718 z"
     id="rect4497-3"
     inkscape:connector-curvature="0" />
  <path
     style="fill:#e89f17;fill-opacity:1"
     d="m 14,12.220339 v 2.850342 c 0,0 0,1.149658 -1.064872,1.149658 -0.514461,0 -1.425809,-0.367654 -1.790128,-0.987306 -0.496871,-0.844967 0.355,-2.012694 0.355,-2.012694 -2.5,0 -4.5,2 -4.5,4.476074 0,3.523926 2,4.523926 3.5,4.523926 0,0 -0.908891,-2.561162 0.339564,-2.925 0.676793,-0.104559 1.778666,0.285844 2.160436,0.925 0,0 -0.351648,-0.905931 0.63072,-0.925 0.982368,-0.01908 2.202993,1.477198 2.36928,2.925 0.166287,-1.447802 1.386912,-2.944068 2.36928,-2.925 0.982368,0.01908 0.63072,0.925 0.63072,0.925 0.38177,-0.639156 1.483643,-1.029559 2.160436,-0.925 1.248455,0.363838 0.339564,2.925 0.339564,2.925 1.5,0 3.5,-2 3.5,-4.523926 0,-2.476074 -2,-4.476074 -4.5,-4.476074 0,0 0.851871,1.167727 0.355,2.012694 -0.364319,0.619652 -1.275667,0.987306 -1.790128,0.987306 C 18,16.220339 18,15.070681 18,15.070681 v -2.850342 l -1,1 h -1 -1 z"
     id="path12"
     inkscape:connector-curvature="0" />
</svg>
