<?xml version="1.0" encoding="UTF-8" standalone="no"?>
<svg
   xmlns:dc="http://purl.org/dc/elements/1.1/"
   xmlns:cc="http://creativecommons.org/ns#"
   xmlns:rdf="http://www.w3.org/1999/02/22-rdf-syntax-ns#"
   xmlns:svg="http://www.w3.org/2000/svg"
   xmlns="http://www.w3.org/2000/svg"
   xmlns:sodipodi="http://sodipodi.sourceforge.net/DTD/sodipodi-0.dtd"
   xmlns:inkscape="http://www.inkscape.org/namespaces/inkscape"
   width="32"
   height="32"
   version="1.1"
   id="svg37"
   sodipodi:docname="application-x-lyx.svg"
   inkscape:version="0.92.1 r">
  <metadata
     id="metadata41">
    <rdf:RDF>
      <cc:Work
         rdf:about="">
        <dc:format>image/svg+xml</dc:format>
        <dc:type
           rdf:resource="http://purl.org/dc/dcmitype/StillImage" />
      </cc:Work>
    </rdf:RDF>
  </metadata>
  <sodipodi:namedview
     pagecolor="#ffffff"
     bordercolor="#666666"
     borderopacity="1"
     objecttolerance="10"
     gridtolerance="10"
     guidetolerance="10"
     inkscape:pageopacity="0"
     inkscape:pageshadow="2"
     inkscape:window-width="640"
     inkscape:window-height="480"
     id="namedview39"
     showgrid="false"
     inkscape:zoom="8.375"
     inkscape:cx="-6.6865672"
     inkscape:cy="16"
     inkscape:current-layer="svg37" />
  <defs
     id="defs17">
    <linearGradient
       id="a"
       y1="61"
       y2="3"
       x2="0"
       gradientUnits="userSpaceOnUse"
       gradientTransform="matrix(0.5,0,0,-0.48276,0,31.45)">
      <stop
         stop-color="#22a7f0"
         id="stop2" />
      <stop
         offset="1"
         stop-color="#19b5fe"
         id="stop4" />
    </linearGradient>
    <linearGradient
       id="b"
       y1="518.04"
       y2="524.8"
       x2="0"
       gradientUnits="userSpaceOnUse">
      <stop
         stop-color="#c8e3fe"
         id="stop7" />
      <stop
         offset="1"
         stop-color="#ffffff"
         id="stop9" />
    </linearGradient>
    <linearGradient
       id="c"
       y1="524.8"
       x1="404.57"
       y2="531.8"
       x2="411.57"
       gradientUnits="userSpaceOnUse">
      <stop
         stop-color="#383e51"
         id="stop12" />
      <stop
         offset="1"
         stop-color="#655c6f"
         stop-opacity="0"
         id="stop14" />
    </linearGradient>
  </defs>
  <g
     id="g4540"
     transform="translate(27.462687,2.5074628)">
    <path
       inkscape:connector-curvature="0"
       id="path4508"
       d="M -6.2757056,-0.50746269 H -19.926676 c -3.066406,0 -5.536011,2.46766629 -5.536011,5.53407209 V 21.956526 c 0,3.066406 2.469605,5.536011 5.536011,5.536011 h 16.9299174 c 3.06640603,0 5.534072,-2.469605 5.534072,-5.536011 V 8.3055564 Z"
       style="opacity:1;fill:#20aaf3;fill-opacity:1;fill-rule:evenodd;stroke:none;stroke-width:1.02788651;stroke-linecap:round;stroke-linejoin:bevel;stroke-miterlimit:4;stroke-dasharray:none;stroke-dashoffset:0;stroke-opacity:1" />
    <path
       inkscape:connector-curvature="0"
       id="rect4497-3"
       d="m 2.5373134,8.3055564 -8.813019,-8.81301899 V 2.7714847 c 0,3.0664056 2.467666,5.5340717 5.53407203,5.5340717 z"
       style="opacity:1;fill:#d9ecfe;fill-opacity:1;fill-rule:evenodd;stroke:none;stroke-width:1.02788651;stroke-linecap:round;stroke-linejoin:bevel;stroke-miterlimit:4;stroke-dasharray:none;stroke-dashoffset:0;stroke-opacity:1" />
  </g>
  <path
     style="fill:#d9ecfe;fill-opacity:1"
     inkscape:connector-curvature="0"
     id="path33"
     d="m 9.9994998,11.313433 v 1 H 21.9995 v -1 z m 4.2680002,2 0.018,0.486 3.43,4.514 -3.715,4.445 v 0.555 h 8 v -2.777 h -0.572 c 0,0.555 0.15,0.9 -0.338,1.232 -0.534,0.365 -1.238,0.434 -1.857,0.434 h -2.947 l 2.857,-3.889 -2.857,-4.445 h 1.68 c 1.191,0 2.886,-0.107 3.357,1.285 0.081,0.238 0.085,0.688 0.105,0.938 h 0.572 v -2.777 z m -4.2680002,1 v 1 H 13.9995 v -1 z m 0,2 v 1 H 14.9995 v -1 z m 0,3 v 1 H 14.9995 v -1 z m 0,2 v 1 H 13.9995 v -1 z" />
</svg>
