<?xml version="1.0" encoding="UTF-8" standalone="no"?>
<svg
   xmlns:dc="http://purl.org/dc/elements/1.1/"
   xmlns:cc="http://creativecommons.org/ns#"
   xmlns:rdf="http://www.w3.org/1999/02/22-rdf-syntax-ns#"
   xmlns:svg="http://www.w3.org/2000/svg"
   xmlns="http://www.w3.org/2000/svg"
   xmlns:sodipodi="http://sodipodi.sourceforge.net/DTD/sodipodi-0.dtd"
   xmlns:inkscape="http://www.inkscape.org/namespaces/inkscape"
   width="32"
   height="32"
   version="1.1"
   viewBox="0 0 32 32"
   id="svg16"
   sodipodi:docname="audio-ac3.svg"
   inkscape:version="0.92.1 r">
  <metadata
     id="metadata22">
    <rdf:RDF>
      <cc:Work
         rdf:about="">
        <dc:format>image/svg+xml</dc:format>
        <dc:type
           rdf:resource="http://purl.org/dc/dcmitype/StillImage" />
      </cc:Work>
    </rdf:RDF>
  </metadata>
  <defs
     id="defs20" />
  <sodipodi:namedview
     pagecolor="#ffffff"
     bordercolor="#666666"
     borderopacity="1"
     objecttolerance="10"
     gridtolerance="10"
     guidetolerance="10"
     inkscape:pageopacity="0"
     inkscape:pageshadow="2"
     inkscape:window-width="1680"
     inkscape:window-height="978"
     id="namedview18"
     showgrid="false"
     inkscape:zoom="7.375"
     inkscape:cx="-21.288136"
     inkscape:cy="12.881356"
     inkscape:window-x="0"
     inkscape:window-y="0"
     inkscape:window-maximized="1"
     inkscape:current-layer="svg16" />
  <g
     id="g4518"
     style="fill:#fe9700;fill-opacity:1">
    <path
       inkscape:connector-curvature="0"
       id="path4508"
       d="M 21.186981,1.9999999 H 7.536011 C 4.469605,1.9999999 2,4.4676662 2,7.534072 V 24.463989 C 2,27.530395 4.469605,30 7.536011,30 H 24.465928 C 27.532334,30 30,27.530395 30,24.463989 v -13.65097 z"
       style="opacity:1;fill:#fe9700;fill-opacity:1;fill-rule:evenodd;stroke:none;stroke-width:1.02788651;stroke-linecap:round;stroke-linejoin:bevel;stroke-miterlimit:4;stroke-dasharray:none;stroke-dashoffset:0;stroke-opacity:1" />
  </g>
  <path
     style="opacity:1;fill:#d86f00;fill-opacity:1;fill-rule:evenodd;stroke:none;stroke-width:1.02788651;stroke-linecap:round;stroke-linejoin:bevel;stroke-miterlimit:4;stroke-dasharray:none;stroke-dashoffset:0;stroke-opacity:1"
     d="M 30,10.813019 21.186981,2.0000001 v 3.2789473 c 0,3.0664059 2.467666,5.5340716 5.534072,5.5340716 z"
     id="rect4497-3"
     inkscape:connector-curvature="0" />
  <path
     d="m 12.322013,10.813578 -4.4e-5,0.5 v 6.5 c 0,0 -0.15572,3.85e-4 -0.49996,-9e-6 -1.3807,0 -2.4999999,1.1193 -2.4999999,2.5 0,1.3807 1.1192999,2.5 2.4999999,2.5 1.3622,-8.35e-4 2.473,-1.0921 2.498,-2.4541 l 0.002,-0.0039 v -6.542 h 5 v 4 c 0,0 -0.15572,3.94e-4 -0.49995,0 -1.3807,0 -2.5,1.1193 -2.5,2.5 0,1.3807 1.1193,2.5 2.5,2.5 1.3311,-0.0015 2.4276,-1.0456 2.4941,-2.375 l 0.0059,-0.01172 v -9.6133 h -9 z"
     id="path12-3"
     inkscape:connector-curvature="0"
     style="fill:#ffd681;stroke-width:3;fill-opacity:1" />
</svg>
