<?xml version="1.0" encoding="UTF-8" standalone="no"?>
<svg
   xmlns:dc="http://purl.org/dc/elements/1.1/"
   xmlns:cc="http://creativecommons.org/ns#"
   xmlns:rdf="http://www.w3.org/1999/02/22-rdf-syntax-ns#"
   xmlns:svg="http://www.w3.org/2000/svg"
   xmlns="http://www.w3.org/2000/svg"
   xmlns:sodipodi="http://sodipodi.sourceforge.net/DTD/sodipodi-0.dtd"
   xmlns:inkscape="http://www.inkscape.org/namespaces/inkscape"
   width="32"
   height="32"
   version="1.1"
   id="svg24"
   sodipodi:docname="audio-x-wav.svg"
   inkscape:version="0.92.1 r">
  <metadata
     id="metadata28">
    <rdf:RDF>
      <cc:Work
         rdf:about="">
        <dc:format>image/svg+xml</dc:format>
        <dc:type
           rdf:resource="http://purl.org/dc/dcmitype/StillImage" />
      </cc:Work>
    </rdf:RDF>
  </metadata>
  <sodipodi:namedview
     pagecolor="#ffffff"
     bordercolor="#666666"
     borderopacity="1"
     objecttolerance="10"
     gridtolerance="10"
     guidetolerance="10"
     inkscape:pageopacity="0"
     inkscape:pageshadow="2"
     inkscape:window-width="640"
     inkscape:window-height="480"
     id="namedview26"
     showgrid="false"
     inkscape:zoom="8.375"
     inkscape:cx="-6.6865672"
     inkscape:cy="16"
     inkscape:current-layer="svg24" />
  <defs
     id="defs8">
    <linearGradient
       id="a"
       y1="292.77"
       y2="267.37"
       gradientUnits="userSpaceOnUse"
       x2="0"
       gradientTransform="matrix(.96206 0 0 1.10236 382.5 223.06)">
      <stop
         stop-color="#ffffff"
         stop-opacity="0"
         id="stop2" />
      <stop
         offset="1"
         stop-color="#ffffff"
         stop-opacity=".2"
         id="stop4" />
    </linearGradient>
    <path
       id="b"
       d="m386.57 517.8v28h24.436v-11.958h-2.291c-.987 0-1.782-.911-1.782-2.042 0-1.131.795-2.042 1.782-2.042h2.291v-11.958z" />
  </defs>
  <g
     id="g4521"
     transform="translate(33.791045,-0.35820896)">
    <g
       style="fill:#61b7ee;fill-opacity:1"
       id="g4518"
       transform="translate(-33.791045,0.35820901)">
      <path
         style="opacity:1;fill:#61b7ee;fill-opacity:1;fill-rule:evenodd;stroke:none;stroke-width:1.02788651;stroke-linecap:round;stroke-linejoin:bevel;stroke-miterlimit:4;stroke-dasharray:none;stroke-dashoffset:0;stroke-opacity:1"
         d="M 21.186981,1.9999999 H 7.536011 C 4.469605,1.9999999 2,4.4676662 2,7.534072 V 24.463989 C 2,27.530395 4.469605,30 7.536011,30 H 24.465928 C 27.532334,30 30,27.530395 30,24.463989 v -13.65097 z"
         id="path4508"
         inkscape:connector-curvature="0" />
    </g>
    <path
       inkscape:connector-curvature="0"
       id="rect4497-3"
       d="M -3.7910448,11.171228 -12.604064,2.3582091 v 3.2789473 c 0,3.0664059 2.467666,5.5340716 5.5340722,5.5340716 z"
       style="opacity:1;fill:#d3ebfa;fill-opacity:1;fill-rule:evenodd;stroke:none;stroke-width:1.02788651;stroke-linecap:round;stroke-linejoin:bevel;stroke-miterlimit:4;stroke-dasharray:none;stroke-dashoffset:0;stroke-opacity:1" />
    <path
       style="fill:#d3ebfa;fill-opacity:1;stroke-width:3"
       inkscape:connector-curvature="0"
       id="path12-3"
       d="m -21.469032,11.171787 -4.4e-5,0.5 v 6.5 c 0,0 -0.15572,3.85e-4 -0.49996,-9e-6 -1.3807,0 -2.5,1.1193 -2.5,2.5 0,1.3807 1.1193,2.5 2.5,2.5 1.3622,-8.35e-4 2.473,-1.0921 2.498,-2.4541 l 0.002,-0.0039 v -6.542 h 5 v 4 c 0,0 -0.15572,3.94e-4 -0.49995,0 -1.3807,0 -2.5,1.1193 -2.5,2.5 0,1.3807 1.1193,2.5 2.5,2.5 1.3311,-0.0015 2.4276,-1.0456 2.4941,-2.375 l 0.0059,-0.01172 v -9.6133 h -9 z" />
  </g>
</svg>
