<?xml version="1.0" encoding="UTF-8" standalone="no"?>
<svg
   xmlns:dc="http://purl.org/dc/elements/1.1/"
   xmlns:cc="http://creativecommons.org/ns#"
   xmlns:rdf="http://www.w3.org/1999/02/22-rdf-syntax-ns#"
   xmlns:svg="http://www.w3.org/2000/svg"
   xmlns="http://www.w3.org/2000/svg"
   xmlns:sodipodi="http://sodipodi.sourceforge.net/DTD/sodipodi-0.dtd"
   xmlns:inkscape="http://www.inkscape.org/namespaces/inkscape"
   width="32"
   height="32"
   version="1"
   id="svg14"
   sodipodi:docname="gnome-mime-application-x-referencer.svg"
   inkscape:version="0.92.1 r">
  <metadata
     id="metadata20">
    <rdf:RDF>
      <cc:Work
         rdf:about="">
        <dc:format>image/svg+xml</dc:format>
        <dc:type
           rdf:resource="http://purl.org/dc/dcmitype/StillImage" />
      </cc:Work>
    </rdf:RDF>
  </metadata>
  <defs
     id="defs18" />
  <sodipodi:namedview
     pagecolor="#ffffff"
     bordercolor="#666666"
     borderopacity="1"
     objecttolerance="10"
     gridtolerance="10"
     guidetolerance="10"
     inkscape:pageopacity="0"
     inkscape:pageshadow="2"
     inkscape:window-width="1680"
     inkscape:window-height="978"
     id="namedview16"
     showgrid="false"
     inkscape:zoom="7.375"
     inkscape:cx="-9.6271187"
     inkscape:cy="13.559322"
     inkscape:window-x="0"
     inkscape:window-y="0"
     inkscape:window-maximized="1"
     inkscape:current-layer="svg14" />
  <path
     style="opacity:1;fill:#cccccc;fill-opacity:1;fill-rule:evenodd;stroke:none;stroke-width:1.02788651;stroke-linecap:round;stroke-linejoin:bevel;stroke-miterlimit:4;stroke-dasharray:none;stroke-dashoffset:0;stroke-opacity:1"
     d="M 21.186981,2 H 7.536012 C 4.469606,2 2.000001,4.4676663 2.000001,7.5340721 V 24.463989 C 2.000001,27.530395 4.469606,30 7.536012,30 H 24.465929 C 27.532334,30 30,27.530395 30,24.463989 v -13.65097 z"
     id="path4508"
     inkscape:connector-curvature="0" />
  <path
     style="opacity:1;fill:#999999;fill-opacity:1;fill-rule:evenodd;stroke:none;stroke-width:1.02788651;stroke-linecap:round;stroke-linejoin:bevel;stroke-miterlimit:4;stroke-dasharray:none;stroke-dashoffset:0;stroke-opacity:1"
     d="M 30,10.813019 21.186982,2.0000001 v 3.2789473 c 0,3.0664056 2.467665,5.5340716 5.534071,5.5340716 z"
     id="rect4497-3"
     inkscape:connector-curvature="0" />
  <path
     style="opacity:1;stroke-width:1;fill:#999999"
     d="m 15.999999,8.5932199 c -4.539975,0 -8.2203385,3.6803631 -8.2203385,8.2203381 0,4.539976 3.6803635,8.220339 8.2203385,8.220339 4.539976,0 8.220339,-3.680363 8.220339,-8.220339 0,-4.539975 -3.680363,-8.2203381 -8.220339,-8.2203381 z m -0.82341,1.5711311 c 0.09584,-0.01 0.217532,0.0058 0.314226,0 0.01151,0.04585 -0.06959,0.208548 -0.178903,0.447255 -0.696019,1.520521 -0.73542,3.302875 -0.08945,4.254668 0.116894,0.172566 0.222482,0.336455 0.222482,0.357804 0,0.02134 -0.125814,0.04358 -0.268355,0.04358 -0.334617,0 -0.651202,-0.203283 -1.29819,-0.71561 -0.287414,-0.227592 -0.660301,-0.418321 -0.805061,-0.447257 -0.227319,-0.04541 -0.288503,-0.02575 -0.582579,0.268354 -0.273611,0.273563 -0.357805,0.421592 -0.357805,0.672032 0,0.949703 1.126816,1.702592 3.222538,2.146829 2.846069,0.603209 3.547712,1.145684 3.626215,2.642252 0.09856,1.876654 -0.901127,3.292219 -3.089508,4.387697 -0.261198,0.130797 -0.427118,0.180217 -0.536707,0.222481 -0.04856,-0.0043 -0.08461,0.0043 -0.13303,0 -0.01863,-0.05802 -0.04587,-0.192203 -0.04587,-0.447255 0,-0.996748 -0.391958,-2.022639 -0.983963,-2.59638 -0.158914,-0.154029 -0.605225,-0.479739 -0.986257,-0.71561 -0.381019,-0.235857 -0.765267,-0.509265 -0.850935,-0.626158 -0.141965,-0.193984 -0.15265,-0.313676 -0.04358,-0.672032 0.198782,-0.654494 0.434546,-1.019975 0.894512,-1.433513 0.241143,-0.216803 0.483287,-0.397039 0.536708,-0.401384 0.05343,-0.0043 -0.306271,-0.113828 -0.84864,-0.224775 -0.542338,-0.111162 -1.337554,-0.344672 -1.747739,-0.493128 -0.75006,-0.271399 -1.7607544,-0.839969 -2.1468308,-1.252317 -0.016335,-0.01747 -0.031684,-0.03039 -0.04587,-0.04587 0.5531548,-2.203422 2.1050498,-4.008251 4.1629228,-4.878532 0.430585,-0.182122 0.875501,-0.30784 1.344061,-0.403678 0.233393,-0.0477 0.474625,-0.06495 0.71561,-0.08945 z m 6.715723,3.357861 c 0.168254,0.103999 0.802615,1.478685 0.983964,2.149123 0.234138,0.86554 0.21719,2.362713 0,3.222537 -0.08266,0.327254 -0.187239,0.633925 -0.222481,0.672032 -0.03524,0.03811 -0.163893,-0.180843 -0.314226,-0.447256 -0.150349,-0.266371 -0.63074,-0.833511 -1.029837,-1.254611 -1.151979,-1.215571 -1.333477,-1.84873 -0.850933,-2.81886 0.243349,-0.489204 1.303294,-1.603336 1.433513,-1.522965 z"
     id="path12"
     inkscape:connector-curvature="0" />
</svg>
