<?xml version="1.0" encoding="UTF-8" standalone="no"?>
<svg
   xmlns:dc="http://purl.org/dc/elements/1.1/"
   xmlns:cc="http://creativecommons.org/ns#"
   xmlns:rdf="http://www.w3.org/1999/02/22-rdf-syntax-ns#"
   xmlns:svg="http://www.w3.org/2000/svg"
   xmlns="http://www.w3.org/2000/svg"
   xmlns:sodipodi="http://sodipodi.sourceforge.net/DTD/sodipodi-0.dtd"
   xmlns:inkscape="http://www.inkscape.org/namespaces/inkscape"
   width="32"
   height="32"
   version="1.1"
   id="svg28"
   sodipodi:docname="image-gif.svg"
   inkscape:version="0.92.1 r">
  <metadata
     id="metadata32">
    <rdf:RDF>
      <cc:Work
         rdf:about="">
        <dc:format>image/svg+xml</dc:format>
        <dc:type
           rdf:resource="http://purl.org/dc/dcmitype/StillImage" />
      </cc:Work>
    </rdf:RDF>
  </metadata>
  <sodipodi:namedview
     pagecolor="#ffffff"
     bordercolor="#666666"
     borderopacity="1"
     objecttolerance="10"
     gridtolerance="10"
     guidetolerance="10"
     inkscape:pageopacity="0"
     inkscape:pageshadow="2"
     inkscape:window-width="640"
     inkscape:window-height="480"
     id="namedview30"
     showgrid="false"
     inkscape:zoom="8.375"
     inkscape:cx="-6.6865672"
     inkscape:cy="16"
     inkscape:current-layer="svg28" />
  <defs
     id="defs8">
    <linearGradient
       id="a"
       y1="392.36"
       y2="320.48"
       gradientUnits="userSpaceOnUse"
       x2="0"
       gradientTransform="matrix(.5 0 0 .42294 418.57 378.93)">
      <stop
         stop-color="#ffffff"
         stop-opacity="0"
         id="stop2" />
      <stop
         offset="1"
         stop-color="#ffffff"
         stop-opacity=".2"
         id="stop4" />
    </linearGradient>
    <path
       color-rendering="auto"
       color-interpolation-filters="linearRGB"
       shape-rendering="auto"
       image-rendering="auto"
       text-rendering="auto"
       id="b"
       color-interpolation="sRGB"
       color="#000000"
       d="m386.57 520.8v25h28v-25z" />
  </defs>
  <g
     id="g4523"
     transform="translate(37.134328,4.0597012)">
    <path
       inkscape:connector-curvature="0"
       id="path4508"
       d="m -15.947347,-2.0597015 h -13.65097 c -3.066406,0 -5.536011,2.46766631 -5.536011,5.5340722 V 20.404288 c 0,3.066406 2.469605,5.536011 5.536011,5.536011 H -12.6684 c 3.0664056,0 5.5340716,-2.469605 5.5340716,-5.536011 V 6.7533176 Z"
       style="opacity:1;fill:#6bd4d8;fill-opacity:1;fill-rule:evenodd;stroke:none;stroke-width:1.02788651;stroke-linecap:round;stroke-linejoin:bevel;stroke-miterlimit:4;stroke-dasharray:none;stroke-dashoffset:0;stroke-opacity:1" />
    <path
       inkscape:connector-curvature="0"
       id="rect4497-3"
       d="m -7.1343284,6.7533176 -8.8130186,-8.813019 v 3.2789473 c 0,3.0664058 2.467666,5.5340717 5.534072,5.5340717 z"
       style="opacity:1;fill:#d8f4f5;fill-opacity:1;fill-rule:evenodd;stroke:none;stroke-width:1.02788651;stroke-linecap:round;stroke-linejoin:bevel;stroke-miterlimit:4;stroke-dasharray:none;stroke-dashoffset:0;stroke-opacity:1" />
    <path
       d="m -26.033828,7.7537316 a 1.5,1.5 0 0 0 -1.5,1.4999999 1.5,1.5 0 0 0 1.5,1.5000005 1.5,1.5 0 0 0 1.5,-1.5000005 1.5,1.5 0 0 0 -1.5,-1.4999999 m 0,0.9999999 a 0.5,0.5 0 0 1 0.5,0.5 0.5,0.5 0 0 1 -0.5,0.5 0.5,0.5 0 0 1 -0.5,-0.5 0.5,0.5 0 0 1 0.5,-0.5 m 9.5,1 -5.6,5.5800005 -2.6,-2.58 -6,6 h 1.406 l 3.119,-3.082 1.408,-1.404 1.564,1.418 1.102,1.068 5.6,-5.398 3.594,3.398 h 1.406 z"
       id="path27"
       inkscape:connector-curvature="0"
       style="color:#000000;opacity:1;color-interpolation:sRGB;color-interpolation-filters:linearRGB;fill:#d8f4f5;fill-opacity:1;stroke-width:2;color-rendering:auto;image-rendering:auto;shape-rendering:auto;text-rendering:auto" />
  </g>
</svg>
