<?xml version="1.0" encoding="UTF-8" standalone="no"?>
<svg
   xmlns:dc="http://purl.org/dc/elements/1.1/"
   xmlns:cc="http://creativecommons.org/ns#"
   xmlns:rdf="http://www.w3.org/1999/02/22-rdf-syntax-ns#"
   xmlns:svg="http://www.w3.org/2000/svg"
   xmlns="http://www.w3.org/2000/svg"
   xmlns:sodipodi="http://sodipodi.sourceforge.net/DTD/sodipodi-0.dtd"
   xmlns:inkscape="http://www.inkscape.org/namespaces/inkscape"
   width="32"
   height="32"
   version="1.1"
   id="svg37"
   sodipodi:docname="text-x-tex.svg"
   inkscape:version="0.92.1 r">
  <metadata
     id="metadata41">
    <rdf:RDF>
      <cc:Work
         rdf:about="">
        <dc:format>image/svg+xml</dc:format>
        <dc:type
           rdf:resource="http://purl.org/dc/dcmitype/StillImage" />
      </cc:Work>
    </rdf:RDF>
  </metadata>
  <sodipodi:namedview
     pagecolor="#ffffff"
     bordercolor="#666666"
     borderopacity="1"
     objecttolerance="10"
     gridtolerance="10"
     guidetolerance="10"
     inkscape:pageopacity="0"
     inkscape:pageshadow="2"
     inkscape:window-width="640"
     inkscape:window-height="480"
     id="namedview39"
     showgrid="false"
     inkscape:zoom="8.375"
     inkscape:cx="-6.6865672"
     inkscape:cy="16"
     inkscape:current-layer="svg37" />
  <defs
     id="defs17">
    <linearGradient
       id="a"
       y1="61"
       y2="3"
       x2="0"
       gradientUnits="userSpaceOnUse"
       gradientTransform="matrix(0.5,0,0,-0.48276,0,31.45)">
      <stop
         stop-color="#8e44ad"
         id="stop2" />
      <stop
         offset="1"
         stop-color="#9b59b6"
         id="stop4" />
    </linearGradient>
    <linearGradient
       id="b"
       y1="518.04"
       y2="524.8"
       x2="0"
       gradientUnits="userSpaceOnUse">
      <stop
         stop-color="#d3bdd7"
         id="stop7" />
      <stop
         offset="1"
         stop-color="#e8d9eb"
         id="stop9" />
    </linearGradient>
    <linearGradient
       id="c"
       y1="524.8"
       x1="404.57"
       y2="531.8"
       x2="411.57"
       gradientUnits="userSpaceOnUse">
      <stop
         stop-color="#383e51"
         id="stop12" />
      <stop
         offset="1"
         stop-color="#655c6f"
         stop-opacity="0"
         id="stop14" />
    </linearGradient>
  </defs>
  <g
     id="g4538"
     transform="translate(43.820895,0.71641795)">
    <path
       inkscape:connector-curvature="0"
       id="path4508"
       d="m -22.633914,1.2835821 h -13.65097 c -3.066406,0 -5.536011,2.4676663 -5.536011,5.5340721 V 23.747571 c 0,3.066406 2.469605,5.536011 5.536011,5.536011 h 16.929917 c 3.066406,0 5.534072,-2.469605 5.534072,-5.536011 v -13.65097 z"
       style="opacity:1;fill:#8f46ae;fill-opacity:1;fill-rule:evenodd;stroke:none;stroke-width:1.02788651;stroke-linecap:round;stroke-linejoin:bevel;stroke-miterlimit:4;stroke-dasharray:none;stroke-dashoffset:0;stroke-opacity:1" />
    <path
       inkscape:connector-curvature="0"
       id="rect4497-3-3"
       d="m -13.820895,10.096601 -8.813019,-8.8130188 v 3.2789473 c 0,3.0664056 2.467666,5.5340715 5.534072,5.5340715 z"
       style="opacity:1;fill:#e4d3e7;fill-opacity:1;fill-rule:evenodd;stroke:none;stroke-width:1.02788651;stroke-linecap:round;stroke-linejoin:bevel;stroke-miterlimit:4;stroke-dasharray:none;stroke-dashoffset:0;stroke-opacity:1" />
  </g>
  <path
     style="fill:#e4d3e7;fill-opacity:1"
     inkscape:connector-curvature="0"
     id="path33"
     d="m 9.9995,10.955224 v 1 h 12 v -1 z m 4.268,2 0.018,0.486 3.43,4.514 -3.715,4.445 v 0.555 h 8 v -2.777 h -0.572 c 0,0.555 0.15,0.9 -0.338,1.232 -0.534,0.365 -1.238,0.434 -1.857,0.434 h -2.947 l 2.857,-3.889 -2.857,-4.445 h 1.68 c 1.191,0 2.886,-0.107 3.357,1.285 0.081,0.238 0.085,0.688 0.105,0.938 h 0.572 v -2.777 z m -4.268,1 v 1 h 4 v -1 z m 0,2 v 1 h 5 v -1 z m 0,3 v 1 h 5 v -1 z m 0,2 v 1 h 4 v -1 z" />
</svg>
