<?xml version="1.0" encoding="UTF-8" standalone="no"?>
<svg
   xmlns:dc="http://purl.org/dc/elements/1.1/"
   xmlns:cc="http://creativecommons.org/ns#"
   xmlns:rdf="http://www.w3.org/1999/02/22-rdf-syntax-ns#"
   xmlns:svg="http://www.w3.org/2000/svg"
   xmlns="http://www.w3.org/2000/svg"
   xmlns:sodipodi="http://sodipodi.sourceforge.net/DTD/sodipodi-0.dtd"
   xmlns:inkscape="http://www.inkscape.org/namespaces/inkscape"
   width="32"
   height="32"
   version="1.1"
   id="svg37"
   sodipodi:docname="x-media-podcast.svg"
   inkscape:version="0.92.1 r">
  <metadata
     id="metadata41">
    <rdf:RDF>
      <cc:Work
         rdf:about="">
        <dc:format>image/svg+xml</dc:format>
        <dc:type
           rdf:resource="http://purl.org/dc/dcmitype/StillImage" />
      </cc:Work>
    </rdf:RDF>
  </metadata>
  <sodipodi:namedview
     pagecolor="#ffffff"
     bordercolor="#666666"
     borderopacity="1"
     objecttolerance="10"
     gridtolerance="10"
     guidetolerance="10"
     inkscape:pageopacity="0"
     inkscape:pageshadow="2"
     inkscape:window-width="640"
     inkscape:window-height="480"
     id="namedview39"
     showgrid="false"
     inkscape:zoom="8.375"
     inkscape:cx="-6.6865672"
     inkscape:cy="16"
     inkscape:current-layer="svg37" />
  <defs
     id="defs17">
    <linearGradient
       id="a"
       y1="61"
       y2="3"
       x2="0"
       gradientUnits="userSpaceOnUse"
       gradientTransform="matrix(0.5,0,0,-0.48276,-1.19403,31.3306)">
      <stop
         stop-color="#8e44ad"
         id="stop2" />
      <stop
         offset="1"
         stop-color="#9b59b6"
         id="stop4" />
    </linearGradient>
    <linearGradient
       id="b"
       y1="518.04"
       y2="524.8"
       x2="0"
       gradientUnits="userSpaceOnUse">
      <stop
         stop-color="#d3bdd7"
         id="stop7" />
      <stop
         offset="1"
         stop-color="#e8d9eb"
         id="stop9" />
    </linearGradient>
    <linearGradient
       id="c"
       y1="524.8"
       x1="404.57"
       y2="531.8"
       x2="411.57"
       gradientUnits="userSpaceOnUse">
      <stop
         stop-color="#383e51"
         id="stop12" />
      <stop
         offset="1"
         stop-color="#655c6f"
         stop-opacity="0"
         id="stop14" />
    </linearGradient>
  </defs>
  <g
     id="g4540"
     transform="translate(40,0.95522395)">
    <path
       inkscape:connector-curvature="0"
       id="path4508"
       d="m -18.813019,1.0447761 h -13.65097 C -35.530395,1.0447761 -38,3.5124424 -38,6.5788482 V 23.508765 c 0,3.066406 2.469605,5.536011 5.536011,5.536011 h 16.929917 c 3.066406,0 5.5340724,-2.469605 5.5340724,-5.536011 V 9.8577952 Z"
       style="opacity:1;fill:#9047ae;fill-opacity:1;fill-rule:evenodd;stroke:none;stroke-width:1.02788651;stroke-linecap:round;stroke-linejoin:bevel;stroke-miterlimit:4;stroke-dasharray:none;stroke-dashoffset:0;stroke-opacity:1" />
    <path
       inkscape:connector-curvature="0"
       id="rect4497-3"
       d="m -9.9999996,9.8577952 -8.8130194,-8.813019 v 3.2789473 c 0,3.0664056 2.467666,5.5340717 5.534072,5.5340717 z"
       style="opacity:1;fill:#dfcde2;fill-opacity:1;fill-rule:evenodd;stroke:none;stroke-width:1.02788651;stroke-linecap:round;stroke-linejoin:bevel;stroke-miterlimit:4;stroke-dasharray:none;stroke-dashoffset:0;stroke-opacity:1" />
  </g>
  <path
     style="fill:#dfcde2;fill-opacity:1"
     inkscape:connector-curvature="0"
     id="path33"
     d="m 16,11.074627 c -1.662,0 -3,1.338 -3,3 h 2 v 1 h -2 v 2 h 2 v 1 h -1.818 c 0.412,1.165 1.509,2 2.818,2 1.309,0 2.407,-0.835 2.818,-2 H 17 v -1 h 2 v -2 h -2 v -1 h 2 c 0,-1.662 -1.338,-3 -3,-3 m -4.9,7 c 0.396,1.963 1.937,3.496 3.9,3.893 v 0.107 l -1,1 h 4 l -1,-1 v -0.107 c 1.963,-0.397 3.505,-1.929 3.9,-3.893 h -1.039 c -0.444,1.726 -1.993,3 -3.861,3 -1.869,0 -3.418,-1.274 -3.861,-3 z" />
</svg>
