<?xml version="1.0" encoding="UTF-8" standalone="no"?>
<svg
   xmlns:dc="http://purl.org/dc/elements/1.1/"
   xmlns:cc="http://creativecommons.org/ns#"
   xmlns:rdf="http://www.w3.org/1999/02/22-rdf-syntax-ns#"
   xmlns:svg="http://www.w3.org/2000/svg"
   xmlns="http://www.w3.org/2000/svg"
   xmlns:sodipodi="http://sodipodi.sourceforge.net/DTD/sodipodi-0.dtd"
   xmlns:inkscape="http://www.inkscape.org/namespaces/inkscape"
   width="32"
   height="32"
   version="1"
   id="svg16"
   sodipodi:docname="application-vnd.insync.link.drive.slides.svg"
   inkscape:version="0.92.1 r">
  <metadata
     id="metadata22">
    <rdf:RDF>
      <cc:Work
         rdf:about="">
        <dc:format>image/svg+xml</dc:format>
        <dc:type
           rdf:resource="http://purl.org/dc/dcmitype/StillImage" />
      </cc:Work>
    </rdf:RDF>
  </metadata>
  <defs
     id="defs20" />
  <sodipodi:namedview
     pagecolor="#ffffff"
     bordercolor="#666666"
     borderopacity="1"
     objecttolerance="10"
     gridtolerance="10"
     guidetolerance="10"
     inkscape:pageopacity="0"
     inkscape:pageshadow="2"
     inkscape:window-width="1680"
     inkscape:window-height="978"
     id="namedview18"
     showgrid="false"
     inkscape:zoom="7.375"
     inkscape:cx="-9.7627119"
     inkscape:cy="16"
     inkscape:window-x="0"
     inkscape:window-y="0"
     inkscape:window-maximized="1"
     inkscape:current-layer="svg16" />
  <path
     style="opacity:1;fill:#ff5722;fill-opacity:1;fill-rule:evenodd;stroke:none;stroke-width:1.02788651;stroke-linecap:round;stroke-linejoin:bevel;stroke-miterlimit:4;stroke-dasharray:none;stroke-dashoffset:0;stroke-opacity:1"
     d="M 21.186982,2.0000004 H 7.536012 c -3.066406,0 -5.536011,2.4676663 -5.536011,5.5340721 V 24.463989 C 2.000001,27.530395 4.469606,30 7.536012,30 H 24.465929 C 27.532335,30 30,27.530395 30,24.463989 v -13.65097 z"
     id="path4508"
     inkscape:connector-curvature="0" />
  <path
     style="opacity:1;fill:#d2481c;fill-opacity:1;fill-rule:evenodd;stroke:none;stroke-width:1.02788651;stroke-linecap:round;stroke-linejoin:bevel;stroke-miterlimit:4;stroke-dasharray:none;stroke-dashoffset:0;stroke-opacity:1"
     d="M 30,10.813019 21.186982,2.0000005 v 3.2789473 c 0,3.0664056 2.467666,5.5340712 5.534072,5.5340712 z"
     id="rect4497-3"
     inkscape:connector-curvature="0" />
  <path
     style="fill:#ffb87c;stroke-width:1.29378533;fill-opacity:1"
     d="m 10.824859,14.183615 c -1.429115,0 -2.587571,1.158495 -2.587571,2.587571 0,1.429076 1.158494,2.587571 2.587571,2.587571 1.429076,0 2.58757,-1.158495 2.58757,-2.587571 h -2.58757 z m 5.175141,0 v 1.293786 h 7.762712 v -1.293786 z m 0,3.881356 v 1.293786 h 7.762712 v -1.293786 z m -7.762712,3.881356 v 1.293786 h 11.644068 v -1.293786 z"
     id="path14"
     inkscape:connector-curvature="0" />
</svg>
