<?xml version="1.0" encoding="UTF-8" standalone="no"?>
<svg
   xmlns:dc="http://purl.org/dc/elements/1.1/"
   xmlns:cc="http://creativecommons.org/ns#"
   xmlns:rdf="http://www.w3.org/1999/02/22-rdf-syntax-ns#"
   xmlns:svg="http://www.w3.org/2000/svg"
   xmlns="http://www.w3.org/2000/svg"
   xmlns:sodipodi="http://sodipodi.sourceforge.net/DTD/sodipodi-0.dtd"
   xmlns:inkscape="http://www.inkscape.org/namespaces/inkscape"
   width="32"
   height="32"
   version="1"
   id="svg16"
   sodipodi:docname="folder-yandex-disk.svg"
   inkscape:version="0.92.1 r">
  <metadata
     id="metadata22">
    <rdf:RDF>
      <cc:Work
         rdf:about="">
        <dc:format>image/svg+xml</dc:format>
        <dc:type
           rdf:resource="http://purl.org/dc/dcmitype/StillImage" />
      </cc:Work>
    </rdf:RDF>
  </metadata>
  <defs
     id="defs20" />
  <sodipodi:namedview
     pagecolor="#ffffff"
     bordercolor="#666666"
     borderopacity="1"
     objecttolerance="10"
     gridtolerance="10"
     guidetolerance="10"
     inkscape:pageopacity="0"
     inkscape:pageshadow="2"
     inkscape:window-width="1680"
     inkscape:window-height="994"
     id="namedview18"
     showgrid="false"
     inkscape:zoom="7.375"
     inkscape:cx="-17.355932"
     inkscape:cy="9.6271186"
     inkscape:window-x="0"
     inkscape:window-y="0"
     inkscape:window-maximized="1"
     inkscape:current-layer="svg16" />
  <path
     style="fill:#7dc842;fill-opacity:1;stroke:none;stroke-width:0.14515875;stroke-miterlimit:4;stroke-dasharray:none;stroke-opacity:1"
     d="m 27.90368,6.7271305 c 1.168734,-7.39e-4 2.109629,0.940894 2.109629,2.109629 V 26.447279 c 0,1.168735 -0.940895,2.109629 -2.109629,2.109629 H 4.0963202 c -1.168735,0 -2.109682,-0.940894 -2.109629,-2.109629 l 7.31e-4,-16.244506 7.31e-4,-5.0669085 c 0,-0.937797 0.754977,-1.692773 1.692773,-1.692773 h 9.0908208 c 0.937797,0 1.704839,0.371321 2.299888,1.096152 l 1.801865,2.19486 z"
     id="rect4549-3"
     inkscape:connector-curvature="0"
     sodipodi:nodetypes="sssssscsssscs" />
  <path
     style="opacity:1;fill:#000000;fill-opacity:0.65098041"
     d="m 15.318865,13.415646 c -2.667,0 -2.046,2.236 -3.412,2.97 -0.047,0.027 -0.073,0.051 -0.115,0.077 0.9,-0.535 2.01,-0.984 3.189,-1.287 0.998,-0.257 2.01,-0.401 2.944,-0.419 0.024,0 0.048,0 0.072,0 -0.901,-0.256 -0.999,-1.341 -2.678,-1.341 z m 2.906,2.016 c -0.933,0.018 -1.946,0.162 -2.944,0.419 -3.29,0.847 -5.6346996,2.688 -5.237,4.112 0.2291,0.814 1.333,1.551 2.978,1.649 -10e-4,-0.006 -0.002,-0.012 -0.003,-0.018 -0.089,-0.77 0.4,-1.44 0.973,-1.894 0.573,-0.454 1.309,-0.784 2.137,-0.959 0.828,-0.176 1.602,-0.168 2.25,0.027 0.609,0.184 1.182,0.584 1.323,1.27 1.648,-0.924 2.504,-2.238 2.256,-3.139 -0.263,-0.944 -1.694,-1.506 -3.733,-1.467 z m -0.978,3.949 c -0.331,-0.004 -0.683,0.032 -1.033,0.107 -1.447,0.307 -2.548,1.18 -2.459,1.949 0.089,0.77 1.334,1.144 2.781,0.837 1.447,-0.308 2.548,-1.181 2.458,-1.95 -0.064,-0.56 -0.753,-0.931 -1.747,-0.943 z"
     class="ColorScheme-ButtonBackground"
     id="path14"
     inkscape:connector-curvature="0" />
</svg>
