<?xml version="1.0" encoding="UTF-8" standalone="no"?>
<svg
   xmlns:dc="http://purl.org/dc/elements/1.1/"
   xmlns:cc="http://creativecommons.org/ns#"
   xmlns:rdf="http://www.w3.org/1999/02/22-rdf-syntax-ns#"
   xmlns:svg="http://www.w3.org/2000/svg"
   xmlns="http://www.w3.org/2000/svg"
   xmlns:sodipodi="http://sodipodi.sourceforge.net/DTD/sodipodi-0.dtd"
   xmlns:inkscape="http://www.inkscape.org/namespaces/inkscape"
   width="32"
   height="32"
   version="1"
   id="svg16"
   sodipodi:docname="folder-java.svg"
   inkscape:version="0.92.1 r">
  <metadata
     id="metadata22">
    <rdf:RDF>
      <cc:Work
         rdf:about="">
        <dc:format>image/svg+xml</dc:format>
        <dc:type
           rdf:resource="http://purl.org/dc/dcmitype/StillImage" />
      </cc:Work>
    </rdf:RDF>
  </metadata>
  <defs
     id="defs20" />
  <sodipodi:namedview
     pagecolor="#ffffff"
     bordercolor="#666666"
     borderopacity="1"
     objecttolerance="10"
     gridtolerance="10"
     guidetolerance="10"
     inkscape:pageopacity="0"
     inkscape:pageshadow="2"
     inkscape:window-width="1680"
     inkscape:window-height="994"
     id="namedview18"
     showgrid="false"
     inkscape:zoom="7.375"
     inkscape:cx="16.513016"
     inkscape:cy="7.8644068"
     inkscape:window-x="0"
     inkscape:window-y="0"
     inkscape:window-maximized="1"
     inkscape:current-layer="svg16" />
  <path
     style="fill:#7dc842;fill-opacity:1;stroke:none;stroke-width:0.14515875;stroke-miterlimit:4;stroke-dasharray:none;stroke-opacity:1"
     d="m 27.90368,6.7271305 c 1.168734,-7.39e-4 2.109629,0.940894 2.109629,2.10963 V 26.447279 c 0,1.168735 -0.940895,2.109629 -2.109629,2.109629 H 4.09632 c -1.168734,0 -2.109682,-0.940894 -2.109629,-2.109629 l 7.31e-4,-16.244506 7.32e-4,-5.0669075 c 0,-0.937797 0.754977,-1.692774 1.692773,-1.692774 h 9.09082 c 0.937797,0 1.704839,0.371321 2.299888,1.096152 l 1.801865,2.19486 z"
     id="rect4549-3"
     inkscape:connector-curvature="0"
     sodipodi:nodetypes="sssssscsssscs" />
  <path
     style="opacity:1;fill:#000000;fill-opacity:0.65098041"
     d="m 15.685966,10.771186 c 0,0 0.577,0.353 0.17,1.281 -0.616,1.399 0.568,1.719 0.568,1.719 0,0 -0.376,-0.328 0.125,-1.482 0.554,-1.28 -0.863,-1.518 -0.863,-1.518 z m 1.592,1.928 c 0,0 -1.049,0.465 -0.373,1.738 0.446,0.843 -0.049,1.262 -0.049,1.262 0,0 1.267,-0.418 0.656,-1.582 -0.549,-1.053 -0.234,-1.418 -0.234,-1.418 z m -3.264,0.072 c 0,0 -0.751,0.799 -0.008,1.781 0.492,0.654 0.17,1.219 0.17,1.219 0,0 0.931,-0.825 0.258,-1.729 -0.608,-0.814 -0.42,-1.271 -0.42,-1.271 z m 0.162,3 h -2.498 l 1.5,6 h 5.5 l 0.34,-0.984 c 0.166,0.041 0.338,0.07 0.517,0.07 1.184,0 2.143,-0.76 2.143,-1.943 0,-1.005 -0.693,-1.84 -1.625,-2.073 l 0.197,-1.07 z m 5.705,1.76 a 0.71429,1.4286 15 0 1 0.024,0.004 0.71429,1.4286 15 0 1 0.32,1.564 0.71429,1.4286 15 0 1 -1.035,1.199 z"
     id="path14"
     inkscape:connector-curvature="0" />
</svg>
