<?xml version="1.0" encoding="UTF-8" standalone="no"?>
<svg
   xmlns:dc="http://purl.org/dc/elements/1.1/"
   xmlns:cc="http://creativecommons.org/ns#"
   xmlns:rdf="http://www.w3.org/1999/02/22-rdf-syntax-ns#"
   xmlns:svg="http://www.w3.org/2000/svg"
   xmlns="http://www.w3.org/2000/svg"
   xmlns:sodipodi="http://sodipodi.sourceforge.net/DTD/sodipodi-0.dtd"
   xmlns:inkscape="http://www.inkscape.org/namespaces/inkscape"
   width="32"
   height="32"
   version="1"
   id="svg16"
   sodipodi:docname="folder-mail-cloud.svg"
   inkscape:version="0.92.1 r">
  <metadata
     id="metadata22">
    <rdf:RDF>
      <cc:Work
         rdf:about="">
        <dc:format>image/svg+xml</dc:format>
        <dc:type
           rdf:resource="http://purl.org/dc/dcmitype/StillImage" />
      </cc:Work>
    </rdf:RDF>
  </metadata>
  <defs
     id="defs20" />
  <sodipodi:namedview
     pagecolor="#ffffff"
     bordercolor="#666666"
     borderopacity="1"
     objecttolerance="10"
     gridtolerance="10"
     guidetolerance="10"
     inkscape:pageopacity="0"
     inkscape:pageshadow="2"
     inkscape:window-width="1680"
     inkscape:window-height="994"
     id="namedview18"
     showgrid="false"
     inkscape:zoom="7.375"
     inkscape:cx="4.6101694"
     inkscape:cy="-1.7627119"
     inkscape:window-x="0"
     inkscape:window-y="0"
     inkscape:window-maximized="1"
     inkscape:current-layer="svg16" />
  <path
     style="fill:#7dc842;fill-opacity:1;stroke:none;stroke-width:0.14515875;stroke-miterlimit:4;stroke-dasharray:none;stroke-opacity:1"
     d="m 27.90368,6.7271297 c 1.168734,-7.38e-4 2.109629,0.940895 2.109629,2.10963 V 26.44728 c 0,1.168735 -0.940895,2.109629 -2.109629,2.109629 H 4.096321 c -1.168735,0 -2.109682,-0.940894 -2.10963,-2.109629 l 7.32e-4,-16.244507 7.31e-4,-5.0669084 c 0,-0.9377965 0.754977,-1.6927733 1.692773,-1.6927733 h 9.09082 c 0.937797,0 1.704839,0.3713212 2.299888,1.096152 L 16.8735,6.7341027 Z"
     id="rect4549-3"
     inkscape:connector-curvature="0"
     sodipodi:nodetypes="sssssscsssscs" />
  <path
     style="fill:#000000;fill-opacity:0.65098039;stroke-width:1"
     d="m 12.169029,21.58661 c -0.03356,-0.02169 -0.09572,-0.03972 -0.138129,-0.04006 -0.164331,-0.0013 -0.672794,-0.289715 -0.915525,-0.519263 -0.13655,-0.129133 -0.248273,-0.255263 -0.248273,-0.280287 0,-0.02502 -0.02739,-0.06823 -0.06086,-0.09601 -0.128013,-0.106242 -0.306847,-0.553531 -0.366054,-0.915553 -0.111344,-0.680832 -0.07918,-1.023281 0.152716,-1.626039 0.145197,-0.377397 0.129094,-0.353723 0.499805,-0.734809 0.208025,-0.213847 0.36144,-0.329628 0.559421,-0.422192 l 0.272792,-0.12754 v -0.17699 c 0,-0.57304 0.518288,-1.378313 1.037473,-1.611942 0.431307,-0.194084 0.537213,-0.215553 0.950854,-0.19276 0.219903,0.01212 0.434626,0.03992 0.477162,0.06178 0.04254,0.02186 0.159725,0.08222 0.260421,0.134135 0.100696,0.05191 0.207276,0.118293 0.236846,0.147513 0.0819,0.08093 0.104568,0.06842 0.253979,-0.140128 0.277204,-0.386928 0.705962,-0.759197 0.971448,-0.843458 0.04607,-0.01462 0.08376,-0.03987 0.08376,-0.05611 0,-0.02866 0.253008,-0.116248 0.594656,-0.205867 0.239244,-0.06276 0.861202,-0.05424 1.163819,0.01595 0.263098,0.06102 0.831305,0.324963 0.92675,0.430499 0.01119,0.01237 0.08939,0.07434 0.173775,0.137715 0.188979,0.141913 0.59301,0.65117 0.663722,0.83658 0.0128,0.03356 0.0493,0.109623 0.08111,0.169018 0.03181,0.05939 0.05784,0.144834 0.05784,0.189864 0,0.04503 0.01861,0.08808 0.04137,0.09566 0.02275,0.0076 0.06841,0.231744 0.101452,0.498133 0.03304,0.266388 0.06478,0.488408 0.07052,0.493376 0.0057,0.005 0.147746,0.07346 0.315572,0.152207 0.207192,0.09722 0.383497,0.22066 0.549251,0.384571 0.289412,0.286196 0.306699,0.308064 0.428424,0.541961 0.164276,0.315663 0.17481,0.340285 0.216603,0.506255 0.0556,0.220795 0.05227,1.339309 -0.0047,1.566381 -0.08514,0.339599 -0.328049,0.762503 -0.589828,1.026904 -0.142871,0.144302 -0.569768,0.437764 -0.636812,0.437764 -0.03782,0 -0.08615,0.01689 -0.107409,0.03753 -0.02126,0.02064 -0.151144,0.06641 -0.288634,0.101713 -0.218877,0.05619 -0.71503,0.0641 -3.987152,0.06356 -2.34253,-3.91e-4 -3.759943,-0.01534 -3.798196,-0.04006 z"
     id="path4500"
     inkscape:connector-curvature="0" />
</svg>
