<?xml version="1.0" encoding="UTF-8" standalone="no"?>
<svg
   xmlns:dc="http://purl.org/dc/elements/1.1/"
   xmlns:cc="http://creativecommons.org/ns#"
   xmlns:rdf="http://www.w3.org/1999/02/22-rdf-syntax-ns#"
   xmlns:svg="http://www.w3.org/2000/svg"
   xmlns="http://www.w3.org/2000/svg"
   xmlns:sodipodi="http://sodipodi.sourceforge.net/DTD/sodipodi-0.dtd"
   xmlns:inkscape="http://www.inkscape.org/namespaces/inkscape"
   width="32"
   height="32"
   version="1"
   id="svg16"
   sodipodi:docname="folder-games.svg"
   inkscape:version="0.92.1 r">
  <metadata
     id="metadata22">
    <rdf:RDF>
      <cc:Work
         rdf:about="">
        <dc:format>image/svg+xml</dc:format>
        <dc:type
           rdf:resource="http://purl.org/dc/dcmitype/StillImage" />
      </cc:Work>
    </rdf:RDF>
  </metadata>
  <defs
     id="defs20" />
  <sodipodi:namedview
     pagecolor="#ffffff"
     bordercolor="#666666"
     borderopacity="1"
     objecttolerance="10"
     gridtolerance="10"
     guidetolerance="10"
     inkscape:pageopacity="0"
     inkscape:pageshadow="2"
     inkscape:window-width="1680"
     inkscape:window-height="994"
     id="namedview18"
     showgrid="false"
     inkscape:zoom="7.375"
     inkscape:cx="26.576271"
     inkscape:cy="6.372881"
     inkscape:window-x="0"
     inkscape:window-y="0"
     inkscape:window-maximized="1"
     inkscape:current-layer="svg16" />
  <path
     style="fill:#7dc842;fill-opacity:1;stroke:none;stroke-width:0.14515875;stroke-miterlimit:4;stroke-dasharray:none;stroke-opacity:1"
     d="m 27.90368,6.7271305 c 1.168734,-7.39e-4 2.109629,0.940894 2.109629,2.109629 V 26.447279 c 0,1.168735 -0.940895,2.109629 -2.109629,2.109629 H 4.0963208 c -1.168735,0 -2.109682,-0.940894 -2.10963,-2.109629 l 7.32e-4,-16.244506 7.31e-4,-5.0669085 c 0,-0.937796 0.754977,-1.692773 1.692773,-1.692773 h 9.0908202 c 0.937797,0 1.704839,0.371321 2.299888,1.096152 l 1.801865,2.19486 z"
     id="rect4549-3"
     inkscape:connector-curvature="0"
     sodipodi:nodetypes="sssssscsssscs" />
  <path
     style="opacity:1;fill:#000000;fill-opacity:0.65098041"
     d="m 18.646,14.033905 c -0.15,10e-4 -0.286,0.052 -0.416,0.15 -0.33,0.252 -1.019,0.849 -2.231,0.85 -1.212,10e-4 -1.898,-0.598 -2.228,-0.85 -0.13,-0.098 -0.255,-0.147 -0.407,-0.146 -0.151,10e-4 -0.326,0.045 -0.504,0.146 -0.648,0.365 -1.242,1.562 -1.566,3.112 -0.276,1.316 -0.38,3.115 -0.215,3.84 0.144,0.622 0.391,0.898 0.832,0.898 1.413,0 1.475,-1.092 1.996,-2.139 0.377,-0.58 1.25,-0.842 2.092,-0.812 0.842,-0.032 1.717,0.232 2.094,0.812 0.521,1.047 0.583,2.139 1.996,2.139 0.441,0 0.688,-0.276 0.832,-0.898 0.165,-0.725 0.061,-2.524 -0.215,-3.84 -0.324,-1.55 -0.918,-2.747 -1.566,-3.112 -0.178,-0.101 -0.343,-0.151 -0.494,-0.15 z m -5.645,1 h 1 v 1 h 1 v 1 h -1 v 1 h -1 v -1 h -1 v -1 h 1 z m 5.5,0 a 0.5,0.5 0 0 1 0.5,0.5 0.5,0.5 0 0 1 -0.5,0.5 0.5,0.5 0 0 1 -0.5,-0.5 0.5,0.5 0 0 1 0.5,-0.5 z m -1,1 a 0.5,0.5 0 0 1 0.5,0.5 0.5,0.5 0 0 1 -0.5,0.5 0.5,0.5 0 0 1 -0.5,-0.5 0.5,0.5 0 0 1 0.5,-0.5 z m 2,0 a 0.5,0.5 0 0 1 0.5,0.5 0.5,0.5 0 0 1 -0.5,0.5 0.5,0.5 0 0 1 -0.5,-0.5 0.5,0.5 0 0 1 0.5,-0.5 z m -1,1 a 0.5,0.5 0 0 1 0.5,0.5 0.5,0.5 0 0 1 -0.5,0.5 0.5,0.5 0 0 1 -0.5,-0.5 0.5,0.5 0 0 1 0.5,-0.5 z"
     id="path14"
     inkscape:connector-curvature="0" />
</svg>
