<?xml version="1.0" encoding="UTF-8" standalone="no"?>
<svg
   xmlns:dc="http://purl.org/dc/elements/1.1/"
   xmlns:cc="http://creativecommons.org/ns#"
   xmlns:rdf="http://www.w3.org/1999/02/22-rdf-syntax-ns#"
   xmlns:svg="http://www.w3.org/2000/svg"
   xmlns="http://www.w3.org/2000/svg"
   xmlns:sodipodi="http://sodipodi.sourceforge.net/DTD/sodipodi-0.dtd"
   xmlns:inkscape="http://www.inkscape.org/namespaces/inkscape"
   width="32"
   height="32"
   version="1"
   id="svg24"
   sodipodi:docname="wine-folder.svg"
   inkscape:version="0.92.1 r">
  <metadata
     id="metadata30">
    <rdf:RDF>
      <cc:Work
         rdf:about="">
        <dc:format>image/svg+xml</dc:format>
        <dc:type
           rdf:resource="http://purl.org/dc/dcmitype/StillImage" />
      </cc:Work>
    </rdf:RDF>
  </metadata>
  <defs
     id="defs28" />
  <sodipodi:namedview
     pagecolor="#ffffff"
     bordercolor="#666666"
     borderopacity="1"
     objecttolerance="10"
     gridtolerance="10"
     guidetolerance="10"
     inkscape:pageopacity="0"
     inkscape:pageshadow="2"
     inkscape:window-width="1680"
     inkscape:window-height="994"
     id="namedview26"
     showgrid="false"
     inkscape:zoom="7.375"
     inkscape:cx="-10.169492"
     inkscape:cy="4.0677966"
     inkscape:window-x="0"
     inkscape:window-y="0"
     inkscape:window-maximized="1"
     inkscape:current-layer="svg24" />
  <path
     style="fill:#7dc842;fill-opacity:1;stroke:none;stroke-width:0.14515875;stroke-miterlimit:4;stroke-dasharray:none;stroke-opacity:1"
     d="m 27.90368,6.7271295 c 1.168734,-7.38e-4 2.109629,0.940895 2.109629,2.10963 V 26.447279 c 0,1.168735 -0.940895,2.109629 -2.109629,2.109629 H 4.096321 c -1.168735,0 -2.109682,-0.940894 -2.10963,-2.109629 l 7.32e-4,-16.244506 7.31e-4,-5.0669085 c 0,-0.937797 0.754977,-1.692773 1.692773,-1.692773 h 9.09082 c 0.937797,0 1.704839,0.371321 2.299888,1.096152 l 1.801865,2.194859 z"
     id="rect4549-3"
     inkscape:connector-curvature="0"
     sodipodi:nodetypes="sssssscsssscs" />
  <rect
     id="rect14"
     ry="0.625"
     rx="0.625"
     y="13.262712"
     x="11.5"
     height="4"
     width="4"
     style="opacity:1;fill:#000000;fill-opacity:0.65098039" />
  <rect
     id="rect16"
     ry="0.625"
     rx="0.625"
     y="13.262712"
     x="16.5"
     height="4"
     width="4"
     style="opacity:1;fill:#000000;fill-opacity:0.65098039" />
  <rect
     id="rect18"
     ry="0.625"
     rx="0.625"
     y="18.262712"
     x="16.5"
     height="4"
     width="4"
     style="opacity:1;fill:#000000;fill-opacity:0.65098039" />
  <rect
     id="rect20"
     ry="0.625"
     rx="0.625"
     y="18.262712"
     x="11.5"
     height="4"
     width="4"
     style="opacity:1;fill:#000000;fill-opacity:0.65098039" />
</svg>
