<?xml version="1.0" encoding="UTF-8" standalone="no"?>
<svg
   xmlns:dc="http://purl.org/dc/elements/1.1/"
   xmlns:cc="http://creativecommons.org/ns#"
   xmlns:rdf="http://www.w3.org/1999/02/22-rdf-syntax-ns#"
   xmlns:svg="http://www.w3.org/2000/svg"
   xmlns="http://www.w3.org/2000/svg"
   xmlns:sodipodi="http://sodipodi.sourceforge.net/DTD/sodipodi-0.dtd"
   xmlns:inkscape="http://www.inkscape.org/namespaces/inkscape"
   width="32"
   height="32"
   version="1"
   id="svg16"
   sodipodi:docname="folder-games.svg"
   inkscape:version="0.92.2 2405546, 2018-03-11">
  <metadata
     id="metadata22">
    <rdf:RDF>
      <cc:Work
         rdf:about="">
        <dc:format>image/svg+xml</dc:format>
        <dc:type
           rdf:resource="http://purl.org/dc/dcmitype/StillImage" />
      </cc:Work>
    </rdf:RDF>
  </metadata>
  <defs
     id="defs20" />
  <sodipodi:namedview
     pagecolor="#ffffff"
     bordercolor="#666666"
     borderopacity="1"
     objecttolerance="10"
     gridtolerance="10"
     guidetolerance="10"
     inkscape:pageopacity="0"
     inkscape:pageshadow="2"
     inkscape:window-width="1680"
     inkscape:window-height="972"
     id="namedview18"
     showgrid="false"
     inkscape:zoom="7.375"
     inkscape:cx="-1.3559324"
     inkscape:cy="19.932203"
     inkscape:window-x="1360"
     inkscape:window-y="0"
     inkscape:window-maximized="1"
     inkscape:current-layer="svg16" />
  <path
     style="fill:#f5ce46;fill-opacity:1;stroke:none;stroke-width:0.14515875;stroke-miterlimit:4;stroke-dasharray:none;stroke-opacity:1"
     d="m 27.90368,6.7271305 c 1.168734,-7.39e-4 2.109629,0.940894 2.109629,2.109629 V 26.447279 c 0,1.168735 -0.940895,2.109629 -2.109629,2.109629 H 4.0963208 c -1.168735,0 -2.109682,-0.940894 -2.10963,-2.109629 l 7.32e-4,-16.244506 7.31e-4,-5.0669085 c 0,-0.937796 0.754977,-1.692773 1.692773,-1.692773 h 9.0908202 c 0.937797,0 1.704839,0.371321 2.299888,1.096152 l 1.801865,2.19486 z"
     id="rect4549-3"
     inkscape:connector-curvature="0"
     sodipodi:nodetypes="sssssscsssscs" />
  <path
     style="opacity:1;fill:#917446;fill-opacity:1;stroke-width:1.20338941"
     d="m 19.184169,13.220349 c -0.180509,0.0012 -0.34417,0.06258 -0.500611,0.180508 -0.397118,0.303254 -1.226253,1.021678 -2.684761,1.022881 -1.458508,0.0012 -2.284034,-0.719627 -2.681152,-1.022881 -0.156441,-0.117932 -0.306864,-0.176898 -0.48978,-0.175695 -0.181711,0.0012 -0.392305,0.05415 -0.606508,0.175695 -0.779796,0.439237 -1.49461,1.879694 -1.884508,3.744948 -0.332135,1.583661 -0.4572878,3.748558 -0.258729,4.621016 0.173289,0.748508 0.470526,1.080643 1.001221,1.080643 1.700389,0 1.774999,-1.314101 2.401965,-2.57405 0.453678,-0.697966 1.504237,-1.013254 2.517491,-0.977152 1.013254,-0.03851 2.066219,0.279186 2.519897,0.977152 0.626966,1.259949 0.701576,2.57405 2.401965,2.57405 0.530695,0 0.827932,-0.332135 1.001221,-1.080643 0.198559,-0.872458 0.07341,-3.037355 -0.258729,-4.621016 -0.389898,-1.865254 -1.104712,-3.305711 -1.884508,-3.744948 -0.214203,-0.121542 -0.412763,-0.181712 -0.594474,-0.180508 z m -6.793134,1.203389 h 1.203389 v 1.20339 h 1.20339 v 1.203389 h -1.20339 v 1.203389 h -1.203389 v -1.203389 h -1.203389 v -1.203389 h 1.203389 z m 6.618642,0 a 0.60169473,0.60169473 0 0 1 0.601695,0.601695 0.60169473,0.60169473 0 0 1 -0.601695,0.601695 0.60169473,0.60169473 0 0 1 -0.601695,-0.601695 0.60169473,0.60169473 0 0 1 0.601695,-0.601695 z m -1.203389,1.20339 a 0.60169473,0.60169473 0 0 1 0.601694,0.601694 0.60169473,0.60169473 0 0 1 -0.601694,0.601695 0.60169473,0.60169473 0 0 1 -0.601695,-0.601695 0.60169473,0.60169473 0 0 1 0.601695,-0.601694 z m 2.406778,0 a 0.60169473,0.60169473 0 0 1 0.601695,0.601694 0.60169473,0.60169473 0 0 1 -0.601695,0.601695 0.60169473,0.60169473 0 0 1 -0.601694,-0.601695 0.60169473,0.60169473 0 0 1 0.601694,-0.601694 z m -1.203389,1.203389 a 0.60169473,0.60169473 0 0 1 0.601695,0.601695 0.60169473,0.60169473 0 0 1 -0.601695,0.601694 0.60169473,0.60169473 0 0 1 -0.601695,-0.601694 0.60169473,0.60169473 0 0 1 0.601695,-0.601695 z"
     id="path14"
     inkscape:connector-curvature="0" />
</svg>
