<?xml version="1.0" encoding="UTF-8" standalone="no"?>
<svg
   xmlns:dc="http://purl.org/dc/elements/1.1/"
   xmlns:cc="http://creativecommons.org/ns#"
   xmlns:rdf="http://www.w3.org/1999/02/22-rdf-syntax-ns#"
   xmlns:svg="http://www.w3.org/2000/svg"
   xmlns="http://www.w3.org/2000/svg"
   xmlns:sodipodi="http://sodipodi.sourceforge.net/DTD/sodipodi-0.dtd"
   xmlns:inkscape="http://www.inkscape.org/namespaces/inkscape"
   width="32"
   height="32"
   version="1"
   id="svg12"
   sodipodi:docname="network-workgroup.svg"
   inkscape:version="0.92.2 2405546, 2018-03-11">
  <metadata
     id="metadata18">
    <rdf:RDF>
      <cc:Work
         rdf:about="">
        <dc:format>image/svg+xml</dc:format>
        <dc:type
           rdf:resource="http://purl.org/dc/dcmitype/StillImage" />
      </cc:Work>
    </rdf:RDF>
  </metadata>
  <defs
     id="defs16" />
  <sodipodi:namedview
     pagecolor="#ffffff"
     bordercolor="#666666"
     borderopacity="1"
     objecttolerance="10"
     gridtolerance="10"
     guidetolerance="10"
     inkscape:pageopacity="0"
     inkscape:pageshadow="2"
     inkscape:window-width="1680"
     inkscape:window-height="972"
     id="namedview14"
     showgrid="false"
     inkscape:zoom="7.375"
     inkscape:cx="2.9822374"
     inkscape:cy="3.6598139"
     inkscape:window-x="0"
     inkscape:window-y="0"
     inkscape:window-maximized="1"
     inkscape:current-layer="svg12" />
  <path
     style="fill:#f5ce46;fill-opacity:1;stroke:none;stroke-width:0.14515875;stroke-miterlimit:4;stroke-dasharray:none;stroke-opacity:1"
     d="m 27.90368,6.7271305 c 1.168734,-7.388e-4 2.109629,0.9408941 2.109629,2.1096297 V 26.447279 c 0,1.168736 -0.940895,2.109629 -2.109629,2.109629 H 4.09632 c -1.168735,0 -2.109682,-0.940894 -2.109629,-2.109629 l 7.31e-4,-16.244506 7.31e-4,-5.0669079 c 0,-0.9377965 0.754977,-1.6927734 1.692773,-1.6927734 h 9.090821 c 0.937797,0 1.704839,0.3713212 2.299888,1.0961521 L 16.8735,6.7341035 Z"
     id="rect4549-3"
     inkscape:connector-curvature="0"
     sodipodi:nodetypes="sssssscsssscs" />
  <path
     style="fill:#564818;fill-opacity:1;stroke-width:0.59215689"
     d="m 16,12.372881 c -2.826954,0 -5.118644,2.29169 -5.118644,5.118644 0,2.826954 2.29169,5.118644 5.118644,5.118644 2.826954,0 5.118644,-2.29169 5.118644,-5.118644 0,-2.826954 -2.29169,-5.118644 -5.118644,-5.118644 z m -0.478873,1.020729 c 0.05569,-0.0058 0.125757,0.0034 0.181952,0 0.0066,0.02664 -0.03945,0.122211 -0.102973,0.260931 -0.404484,0.883626 -0.42838,1.918226 -0.05299,2.471345 0.06793,0.100285 0.129966,0.195543 0.129966,0.207946 0,0.01241 -0.07313,0.02599 -0.155959,0.02599 -0.194457,10e-7 -0.378813,-0.118159 -0.754799,-0.415889 -0.167028,-0.132261 -0.383751,-0.243118 -0.467878,-0.259932 -0.132101,-0.02639 -0.167013,-0.01496 -0.337909,0.155959 -0.159003,0.158977 -0.207945,0.245357 -0.207945,0.390896 0,0.551904 0.655609,0.989509 1.873504,1.24767 1.653948,0.350544 2.060819,0.664888 2.106442,1.534593 0.05728,1.090587 -0.522783,1.912704 -1.794526,2.549325 -0.151791,0.07601 -0.24823,0.106405 -0.311916,0.130965 -0.02822,-0.0025 -0.05085,0.0025 -0.07898,0 -0.01082,-0.03371 -0.02599,-0.111711 -0.02599,-0.259931 0,-0.579244 -0.227814,-1.17618 -0.571848,-1.5096 -0.09235,-0.08951 -0.350418,-0.278817 -0.571849,-0.41589 -0.221423,-0.137065 -0.445086,-0.29597 -0.494869,-0.363904 -0.08248,-0.11273 -0.08838,-0.181643 -0.025,-0.389896 0.115518,-0.380348 0.252561,-0.593458 0.519862,-0.833779 0.140137,-0.125991 0.280874,-0.230431 0.311918,-0.232939 0.03106,-0.0025 -0.178682,-0.06648 -0.493869,-0.130965 -0.315172,-0.0646 -0.77736,-0.199651 -1.015731,-0.285924 -0.435886,-0.157719 -1.024308,-0.489177 -1.248669,-0.728807 -0.0095,-0.01016 -0.01775,-0.017 -0.02599,-0.02599 0.321457,-1.280482 1.223459,-2.329499 2.419359,-2.835248 0.250227,-0.105837 0.508496,-0.178243 0.780792,-0.233939 0.135633,-0.02772 0.275846,-0.03875 0.415891,-0.05298 z m 3.902966,1.951484 c 0.09778,0.06044 0.467459,0.860054 0.572849,1.249669 0.136062,0.502994 0.126214,1.372832 0,1.872504 -0.04804,0.190178 -0.110487,0.367753 -0.130967,0.389896 -0.02048,0.02215 -0.09558,-0.10411 -0.182951,-0.258931 -0.08737,-0.154798 -0.364913,-0.484091 -0.596842,-0.728807 -0.669454,-0.706411 -0.775291,-1.074791 -0.494868,-1.638566 0.141419,-0.284293 0.757104,-0.932468 0.832779,-0.885765 z"
     id="path10-3"
     inkscape:connector-curvature="0" />
</svg>
