<?xml version="1.0" encoding="UTF-8" standalone="no"?>
<svg
   xmlns:dc="http://purl.org/dc/elements/1.1/"
   xmlns:cc="http://creativecommons.org/ns#"
   xmlns:rdf="http://www.w3.org/1999/02/22-rdf-syntax-ns#"
   xmlns:svg="http://www.w3.org/2000/svg"
   xmlns="http://www.w3.org/2000/svg"
   xmlns:sodipodi="http://sodipodi.sourceforge.net/DTD/sodipodi-0.dtd"
   xmlns:inkscape="http://www.inkscape.org/namespaces/inkscape"
   height="32"
   width="32"
   version="1"
   id="svg16"
   sodipodi:docname="folder-mail-grey.svg"
   inkscape:version="0.92.1 r">
  <metadata
     id="metadata22">
    <rdf:RDF>
      <cc:Work
         rdf:about="">
        <dc:format>image/svg+xml</dc:format>
        <dc:type
           rdf:resource="http://purl.org/dc/dcmitype/StillImage" />
      </cc:Work>
    </rdf:RDF>
  </metadata>
  <defs
     id="defs20" />
  <sodipodi:namedview
     pagecolor="#ffffff"
     bordercolor="#666666"
     borderopacity="1"
     objecttolerance="10"
     gridtolerance="10"
     guidetolerance="10"
     inkscape:pageopacity="0"
     inkscape:pageshadow="2"
     inkscape:window-width="1680"
     inkscape:window-height="963"
     id="namedview18"
     showgrid="false"
     inkscape:zoom="7.375"
     inkscape:cx="-34.440678"
     inkscape:cy="16"
     inkscape:window-x="0"
     inkscape:window-y="0"
     inkscape:window-maximized="1"
     inkscape:current-layer="svg16" />
  <path
     style="fill:#9a9a9a;fill-opacity:1;stroke:none;stroke-width:0.14515875;stroke-miterlimit:4;stroke-dasharray:none;stroke-opacity:1"
     d="m 27.90368,6.7271312 c 1.168734,-7.39e-4 2.109629,0.940894 2.109629,2.109629 V 26.447279 c 0,1.168735 -0.940895,2.109629 -2.109629,2.109629 H 4.096321 c -1.168735,0 -2.109682,-0.940894 -2.10963,-2.109629 l 7.32e-4,-16.244506 7.31e-4,-5.0669081 c 0,-0.9377959 0.754977,-1.6927729 1.692773,-1.6927729 h 9.09082 c 0.937797,0 1.704839,0.371321 2.299888,1.096152 L 16.8735,6.7341042 Z"
     id="rect4549"
     inkscape:connector-curvature="0"
     sodipodi:nodetypes="sssssscsssscs" />
  <path
     style="opacity:1;enable-background:new;fill:#000000;fill-opacity:0.65098041"
     d="m 16.000025,11.491565 c -3.3135,0 -6,2.6865 -6,6 0,3.3135 2.6865,6 6,6 h 3.75 c 0,0 0.70315,-0.30078 0.75,-1.0508 0,-0.75 -0.75,-0.949 -0.75,-0.949 h -3.75 c -0.19489,-0.0014 -0.38942,-0.0171 -0.58203,-0.04687 -0.69984,-0.07946 -1.2555,-0.299 -1.6758,-0.65234 l -0.0059,-0.0039 c -1.086,-0.746 -1.736,-1.979 -1.736,-3.297 0,-2.2091 1.7909,-4 4,-4 2.2091,0 4,1.7909 4,4 -5.19e-4,0.45417 -0.0925,0.7451 -0.24023,1.002 -0.004,0 -0.007,-0.002 -0.01,-0.002 h -0.93359 c 0.112,-0.314 0.184,-0.648 0.184,-1 0,-1.6568 -1.3432,-3 -3,-3 -1.6568,0 -3,1.3432 -3,3 0,1.657 1.343,3 3,3 h 3.75 c 0.54144,-0.04983 0.92223,-0.3716 1.2695,-0.57617 0.762,-0.544 0.98,-1.31 0.98,-2.424 0,-3.314 -2.686,-6 -6,-6 z m 0,5 c 0.55227,0 1,0.44773 1,1 0,0.55233 -0.44767,1 -1,1 -0.55233,0 -1,-0.44767 -1,-1 0,-0.55227 0.44773,-1 1,-1 z"
     id="path14"
     inkscape:connector-curvature="0" />
</svg>
