<?xml version="1.0" encoding="UTF-8" standalone="no"?>
<svg
   xmlns:dc="http://purl.org/dc/elements/1.1/"
   xmlns:cc="http://creativecommons.org/ns#"
   xmlns:rdf="http://www.w3.org/1999/02/22-rdf-syntax-ns#"
   xmlns:svg="http://www.w3.org/2000/svg"
   xmlns="http://www.w3.org/2000/svg"
   xmlns:sodipodi="http://sodipodi.sourceforge.net/DTD/sodipodi-0.dtd"
   xmlns:inkscape="http://www.inkscape.org/namespaces/inkscape"
   width="32"
   height="32"
   version="1"
   id="svg16"
   sodipodi:docname="folder-visiting-black.svg"
   inkscape:version="0.92.1 r">
  <metadata
     id="metadata22">
    <rdf:RDF>
      <cc:Work
         rdf:about="">
        <dc:format>image/svg+xml</dc:format>
        <dc:type
           rdf:resource="http://purl.org/dc/dcmitype/StillImage" />
      </cc:Work>
    </rdf:RDF>
  </metadata>
  <defs
     id="defs20" />
  <sodipodi:namedview
     pagecolor="#ffffff"
     bordercolor="#666666"
     borderopacity="1"
     objecttolerance="10"
     gridtolerance="10"
     guidetolerance="10"
     inkscape:pageopacity="0"
     inkscape:pageshadow="2"
     inkscape:window-width="1680"
     inkscape:window-height="955"
     id="namedview18"
     showgrid="false"
     inkscape:zoom="14.75"
     inkscape:cx="6.5151118"
     inkscape:cy="21.591804"
     inkscape:window-x="0"
     inkscape:window-y="0"
     inkscape:window-maximized="1"
     inkscape:current-layer="svg16" />
  <path
     style="fill:#4f4f4f;fill-opacity:1;stroke:none;stroke-width:0.14515875;stroke-miterlimit:4;stroke-dasharray:none;stroke-opacity:1"
     d="m 27.90368,6.7271302 c 1.168734,-7.38e-4 2.109629,0.940894 2.109629,2.10963 V 26.44728 c 0,1.168735 -0.940895,2.109629 -2.109629,2.109629 H 4.0963201 c -1.168734,0 -2.109681,-0.940894 -2.109629,-2.109629 l 7.31e-4,-16.244507 7.32e-4,-5.0669078 c 0,-0.937797 0.754977,-1.692774 1.692773,-1.692774 h 9.0908199 c 0.937797,0 1.704839,0.371322 2.299888,1.096152 l 1.801865,2.19486 z"
     id="rect4549-3-3"
     inkscape:connector-curvature="0"
     sodipodi:nodetypes="sssssscsssscs" />
  <path
     style="fill:#333333;fill-opacity:1;stroke:none;stroke-width:0.14515875;stroke-miterlimit:4;stroke-dasharray:none;stroke-opacity:1"
     d="M 2.3769531 9.2851562 C 2.2247129 9.2851562 2.1266839 9.4038434 1.9882812 9.4453125 L 1.9882812 10.203125 L 1.9882812 12.380859 L 29.128906 28.050781 C 29.637123 27.666267 30.013672 27.136512 30.013672 26.447266 L 30.013672 24.927734 L 2.9179688 9.2851562 L 2.3769531 9.2851562 z M 9.2109375 9.2851562 L 30.013672 21.294922 L 30.013672 17.662109 L 15.501953 9.2851562 L 9.2109375 9.2851562 z M 21.792969 9.2851562 L 30.013672 14.029297 L 30.013672 10.396484 L 28.085938 9.2851562 L 21.792969 9.2851562 z M 1.9882812 16.013672 L 1.9863281 19.646484 L 17.417969 28.556641 L 23.710938 28.556641 L 1.9882812 16.013672 z M 1.9863281 23.277344 L 1.9863281 26.447266 C 1.9863175 26.685895 2.1659051 26.843077 2.2382812 27.056641 L 4.8339844 28.556641 L 11.126953 28.556641 L 1.9863281 23.277344 z "
     id="path4511" />
</svg>
