<?xml version="1.0" encoding="UTF-8" standalone="no"?>
<svg
   xmlns:dc="http://purl.org/dc/elements/1.1/"
   xmlns:cc="http://creativecommons.org/ns#"
   xmlns:rdf="http://www.w3.org/1999/02/22-rdf-syntax-ns#"
   xmlns:svg="http://www.w3.org/2000/svg"
   xmlns="http://www.w3.org/2000/svg"
   xmlns:sodipodi="http://sodipodi.sourceforge.net/DTD/sodipodi-0.dtd"
   xmlns:inkscape="http://www.inkscape.org/namespaces/inkscape"
   height="32"
   width="32"
   version="1"
   id="svg16"
   sodipodi:docname="folder-temp-cyan.svg"
   inkscape:version="0.92.1 r">
  <metadata
     id="metadata22">
    <rdf:RDF>
      <cc:Work
         rdf:about="">
        <dc:format>image/svg+xml</dc:format>
        <dc:type
           rdf:resource="http://purl.org/dc/dcmitype/StillImage" />
        <dc:title />
      </cc:Work>
    </rdf:RDF>
  </metadata>
  <defs
     id="defs20" />
  <sodipodi:namedview
     pagecolor="#ffffff"
     bordercolor="#666666"
     borderopacity="1"
     objecttolerance="10"
     gridtolerance="10"
     guidetolerance="10"
     inkscape:pageopacity="0"
     inkscape:pageshadow="2"
     inkscape:window-width="1680"
     inkscape:window-height="971"
     id="namedview18"
     showgrid="false"
     inkscape:zoom="7.375"
     inkscape:cx="-36.474576"
     inkscape:cy="16"
     inkscape:window-x="0"
     inkscape:window-y="0"
     inkscape:window-maximized="1"
     inkscape:current-layer="svg16" />
  <path
     style="fill:#289ea1;fill-opacity:1;stroke:none;stroke-width:0.14515875;stroke-miterlimit:4;stroke-dasharray:none;stroke-opacity:1"
     d="m 27.90368,6.7271311 c 1.168734,-7.39e-4 2.109629,0.9408943 2.109629,2.1096293 V 26.447279 c 0,1.168735 -0.940895,2.109629 -2.109629,2.109629 H 4.0963209 c -1.168735,0 -2.109682,-0.940894 -2.10963,-2.109629 l 7.32e-4,-16.244506 7.31e-4,-5.066908 c 0,-0.9377959 0.754977,-1.6927729 1.692773,-1.6927729 h 9.0908201 c 0.937797,0 1.704839,0.371321 2.299888,1.096152 L 16.8735,6.734104 Z"
     id="rect4549"
     inkscape:connector-curvature="0"
     sodipodi:nodetypes="sssssscsssscs" />
  <path
     style="color:#000000;opacity:1;fill-rule:evenodd;enable-background:new;fill:#000000;fill-opacity:0.65098041"
     d="m 12.540765,12.898305 c -0.0158,0 -0.02555,0.01748 -0.04102,0.02148 -0.05273,0.01333 -0.1056,0.0305 -0.16602,0.0625 -0.06627,0.03467 -0.13203,0.078 -0.1875,0.14453 -0.006,0.0073 -0.01601,0.01414 -0.02148,0.02148 -0.038,0.05067 -0.06192,0.11583 -0.08398,0.1875 -0.006,0.02067 -0.01493,0.03983 -0.01953,0.0625 -0.013,0.054 -0.022,0.11 -0.021,0.166 v 6.334 h 1 v 1 h 1 v -6 h 3 v 2 h 1 v 5 h 1 v 1 h 1 v -1 h -0.99414 l -0.006,-1 c 0,0 1.0002,-1.2e-5 1,0 v -0.66602 c 2.87e-4,-0.2374 -6.7e-5,-0.38377 0,-0.66797 v -2 c -0.0013,-1.6113 -4.4e-4,-1.5642 0,-1.625 v -0.541 l -2.5,-2.5 z m 5.459,9 h -1 v 1 h 1 z m -1,0 v -1 h -1 v 1 z m -1,0 h -1 v 1 h 1 z m -1,0 v -1 h -1 v 1 z m -1,0 h -1 v 1 h 1 z m -1,0 v -1 h -1 v 1 z"
     id="path14"
     inkscape:connector-curvature="0" />
</svg>
