<?xml version="1.0" encoding="UTF-8" standalone="no"?>
<svg
   xmlns:dc="http://purl.org/dc/elements/1.1/"
   xmlns:cc="http://creativecommons.org/ns#"
   xmlns:rdf="http://www.w3.org/1999/02/22-rdf-syntax-ns#"
   xmlns:svg="http://www.w3.org/2000/svg"
   xmlns="http://www.w3.org/2000/svg"
   xmlns:sodipodi="http://sodipodi.sourceforge.net/DTD/sodipodi-0.dtd"
   xmlns:inkscape="http://www.inkscape.org/namespaces/inkscape"
   height="32"
   width="32"
   version="1"
   id="svg16"
   sodipodi:docname="folder-meocloud-green.svg"
   inkscape:version="0.92.1 r">
  <metadata
     id="metadata22">
    <rdf:RDF>
      <cc:Work
         rdf:about="">
        <dc:format>image/svg+xml</dc:format>
        <dc:type
           rdf:resource="http://purl.org/dc/dcmitype/StillImage" />
        <dc:title />
      </cc:Work>
    </rdf:RDF>
  </metadata>
  <defs
     id="defs20" />
  <sodipodi:namedview
     pagecolor="#ffffff"
     bordercolor="#666666"
     borderopacity="1"
     objecttolerance="10"
     gridtolerance="10"
     guidetolerance="10"
     inkscape:pageopacity="0"
     inkscape:pageshadow="2"
     inkscape:window-width="1680"
     inkscape:window-height="971"
     id="namedview18"
     showgrid="false"
     inkscape:zoom="7.375"
     inkscape:cx="-28.610169"
     inkscape:cy="16"
     inkscape:window-x="0"
     inkscape:window-y="0"
     inkscape:window-maximized="1"
     inkscape:current-layer="svg16" />
  <path
     style="fill:#5ca543;fill-opacity:1;stroke:none;stroke-width:0.14515875;stroke-miterlimit:4;stroke-dasharray:none;stroke-opacity:1"
     d="m 27.90368,6.7271307 c 1.168734,-7.39e-4 2.109629,0.940895 2.109629,2.1096301 V 26.447279 c 0,1.168735 -0.940895,2.109629 -2.109629,2.109629 H 4.0963211 c -1.168735,0 -2.109682,-0.940894 -2.10963,-2.109629 l 7.32e-4,-16.244506 7.31e-4,-5.0669082 c 0,-0.937796 0.754977,-1.6927725 1.692773,-1.6927725 h 9.0908199 c 0.937797,0 1.704839,0.371321 2.299888,1.0961515 l 1.801865,2.19486 z"
     id="rect4549"
     inkscape:connector-curvature="0"
     sodipodi:nodetypes="sssssscsssscs" />
  <path
     style="opacity:1;fill:#000000;fill-opacity:0.65098041"
     d="m 17.199,13.762712 c -1.202,0 -2.302,0.676 -2.847,1.748 -0.239,-0.097 -0.495,-0.148 -0.752,-0.148 -1.001,0 -1.845,0.741 -1.979,1.732 -0.968,0.333 -1.62,1.244 -1.621,2.268 0,1.325 1.075,2.4 2.4,2.4 h 7.2 c 1.325,0 2.4,-1.075 2.4,-2.4 -0.001,-1.019 -0.644,-1.925 -1.605,-2.262 0.003,-0.046 0.004,-0.093 0.005,-0.139 0,-1.767 -1.434,-3.199 -3.201,-3.199 z m 0,2 c 0.685,0 1.197,0.511 1.199,1.195 v 0.006 a 2.0002,2.0002 0 0 0 1.334,2.024 c 0.167,0.058 0.267,0.199 0.268,0.375 0,0.244 -0.156,0.4 -0.4,0.4 h -7.2 c -0.244,0 -0.399,-0.155 -0.4,-0.398 v -0.002 c 10e-4,-0.178 0.102,-0.318 0.27,-0.375 a 2.0002,2.0002 0 0 0 1.332,-1.623 2.0002,2.0002 0 0 0 2.533,-0.946 c 0.206,-0.406 0.612,-0.656 1.064,-0.656 z"
     id="path14"
     inkscape:connector-curvature="0" />
</svg>
