<?xml version="1.0" encoding="UTF-8" standalone="no"?>
<svg
   xmlns:dc="http://purl.org/dc/elements/1.1/"
   xmlns:cc="http://creativecommons.org/ns#"
   xmlns:rdf="http://www.w3.org/1999/02/22-rdf-syntax-ns#"
   xmlns:svg="http://www.w3.org/2000/svg"
   xmlns="http://www.w3.org/2000/svg"
   xmlns:sodipodi="http://sodipodi.sourceforge.net/DTD/sodipodi-0.dtd"
   xmlns:inkscape="http://www.inkscape.org/namespaces/inkscape"
   height="32"
   width="32"
   version="1"
   id="svg16"
   sodipodi:docname="folder-development-brown.svg"
   inkscape:version="0.92.1 r">
  <metadata
     id="metadata22">
    <rdf:RDF>
      <cc:Work
         rdf:about="">
        <dc:format>image/svg+xml</dc:format>
        <dc:type
           rdf:resource="http://purl.org/dc/dcmitype/StillImage" />
        <dc:title />
      </cc:Work>
    </rdf:RDF>
  </metadata>
  <defs
     id="defs20" />
  <sodipodi:namedview
     pagecolor="#ffffff"
     bordercolor="#666666"
     borderopacity="1"
     objecttolerance="10"
     gridtolerance="10"
     guidetolerance="10"
     inkscape:pageopacity="0"
     inkscape:pageshadow="2"
     inkscape:window-width="1680"
     inkscape:window-height="971"
     id="namedview18"
     showgrid="false"
     inkscape:zoom="7.375"
     inkscape:cx="-53.152542"
     inkscape:cy="16"
     inkscape:window-x="0"
     inkscape:window-y="0"
     inkscape:window-maximized="1"
     inkscape:current-layer="svg16" />
  <path
     style="fill:#856b35;fill-opacity:1;stroke:none;stroke-width:0.14515875;stroke-miterlimit:4;stroke-dasharray:none;stroke-opacity:1"
     d="m 27.90368,6.727131 c 1.168734,-7.39e-4 2.109629,0.940895 2.109629,2.1096296 V 26.447279 c 0,1.168735 -0.940895,2.109629 -2.109629,2.109629 H 4.0963207 c -1.168735,0 -2.109682,-0.940894 -2.10963,-2.109629 l 7.32e-4,-16.244506 7.31e-4,-5.066908 c 0,-0.937796 0.754977,-1.692773 1.692773,-1.692773 h 9.0908203 c 0.937797,0 1.704839,0.371321 2.299888,1.096152 l 1.801865,2.19486 z"
     id="rect4549"
     inkscape:connector-curvature="0"
     sodipodi:nodetypes="sssssscsssscs" />
  <path
     style="opacity:1;enable-background:new;fill:#000000;fill-opacity:0.65098041"
     d="m 14.738,12.491525 v 0.002 l -0.111,1.316 a 3.9641,3.9283 0 0 0 -1.158,0.664 l -1.207,-0.564 -1.262,2.166 1.098,0.756 a 3.9641,3.9283 0 0 0 -0.063,0.662 3.9641,3.9283 0 0 0 0.059,0.666 l -1.094,0.75 1.262,2.166 1.205,-0.564 a 3.9641,3.9283 0 0 0 1.162,0.662 l 0.109,1.318 h 2.524 l 0.111,-1.316 a 3.9641,3.9283 0 0 0 1.158,-0.664 l 1.207,0.562 1.262,-2.164 -1.096,-0.754 a 3.9641,3.9283 0 0 0 0.059,-0.664 3.9641,3.9283 0 0 0 -0.059,-0.664 l 1.094,-0.754 -1.26,-2.164 -1.207,0.562 a 3.9641,3.9283 0 0 0 -1.16,-0.66 l -0.109,-1.32 z m 1.262,3 a 2,2 0 0 1 2,2 2,2 0 0 1 -2,2 2,2 0 0 1 -2,-2 2,2 0 0 1 2,-2 z"
     id="path14"
     inkscape:connector-curvature="0" />
</svg>
