<?xml version="1.0" encoding="UTF-8" standalone="no"?>
<svg
   xmlns:dc="http://purl.org/dc/elements/1.1/"
   xmlns:cc="http://creativecommons.org/ns#"
   xmlns:rdf="http://www.w3.org/1999/02/22-rdf-syntax-ns#"
   xmlns:svg="http://www.w3.org/2000/svg"
   xmlns="http://www.w3.org/2000/svg"
   xmlns:sodipodi="http://sodipodi.sourceforge.net/DTD/sodipodi-0.dtd"
   xmlns:inkscape="http://www.inkscape.org/namespaces/inkscape"
   height="32"
   width="32"
   version="1"
   id="svg16"
   sodipodi:docname="folder-photo-yellow.svg"
   inkscape:version="0.92.1 r">
  <metadata
     id="metadata22">
    <rdf:RDF>
      <cc:Work
         rdf:about="">
        <dc:format>image/svg+xml</dc:format>
        <dc:type
           rdf:resource="http://purl.org/dc/dcmitype/StillImage" />
      </cc:Work>
    </rdf:RDF>
  </metadata>
  <defs
     id="defs20" />
  <sodipodi:namedview
     pagecolor="#ffffff"
     bordercolor="#666666"
     borderopacity="1"
     objecttolerance="10"
     gridtolerance="10"
     guidetolerance="10"
     inkscape:pageopacity="0"
     inkscape:pageshadow="2"
     inkscape:window-width="1680"
     inkscape:window-height="955"
     id="namedview18"
     showgrid="false"
     inkscape:zoom="7.375"
     inkscape:cx="-16.542373"
     inkscape:cy="7.4576271"
     inkscape:window-x="0"
     inkscape:window-y="0"
     inkscape:window-maximized="1"
     inkscape:current-layer="svg16" />
  <g
     id="g4493"
     transform="translate(42.576271,-0.8135594)">
    <path
       sodipodi:nodetypes="sssssscsssscs"
       inkscape:connector-curvature="0"
       id="rect4549-3"
       d="m -14.672591,7.5406898 c 1.168734,-7.39e-4 2.109629,0.940894 2.109629,2.10963 V 27.260839 c 0,1.168735 -0.940895,2.109629 -2.109629,2.109629 h -23.80736 c -1.168734,0 -2.109682,-0.940894 -2.109629,-2.109629 l 7.31e-4,-16.244507 7.31e-4,-5.0669082 c 0,-0.937796 0.754977,-1.692773 1.692774,-1.692773 h 9.09082 c 0.937797,0 1.704839,0.371321 2.299888,1.096152 l 1.801865,2.19486 z"
       style="fill:#f5ce46;fill-opacity:1;stroke:none;stroke-width:0.14515875;stroke-miterlimit:4;stroke-dasharray:none;stroke-opacity:1" />
    <path
       inkscape:connector-curvature="0"
       id="path14-3"
       d="m -28.576271,14.711865 -1,1 h -0.5 c -0.831,0 -1.5,0.557 -1.5,1.25 v 4.5 c 0,0.692 0.669,1.25 1.5,1.25 h 7 c 0.831,0 1.5,-0.558 1.5,-1.25 v -4.5 c 0,-0.693 -0.669,-1.25 -1.5,-1.25 h -0.5 l -1,-1 z m 2,2 a 2,2 0 0 1 2,2 2,2 0 0 1 -2,2 2,2 0 0 1 -2,-2 2,2 0 0 1 2,-2 z"
       style="opacity:1;fill:#000000;fill-opacity:0.65098039" />
  </g>
</svg>
