<?xml version="1.0" encoding="UTF-8" standalone="no"?>
<svg
   xmlns:dc="http://purl.org/dc/elements/1.1/"
   xmlns:cc="http://creativecommons.org/ns#"
   xmlns:rdf="http://www.w3.org/1999/02/22-rdf-syntax-ns#"
   xmlns:svg="http://www.w3.org/2000/svg"
   xmlns="http://www.w3.org/2000/svg"
   xmlns:sodipodi="http://sodipodi.sourceforge.net/DTD/sodipodi-0.dtd"
   xmlns:inkscape="http://www.inkscape.org/namespaces/inkscape"
   width="22"
   height="22"
   version="1.1"
   id="svg4"
   sodipodi:docname="display-brightness-symbolic.svg"
   inkscape:version="0.92.1 r">
  <metadata
     id="metadata10">
    <rdf:RDF>
      <cc:Work
         rdf:about="">
        <dc:format>image/svg+xml</dc:format>
        <dc:type
           rdf:resource="http://purl.org/dc/dcmitype/StillImage" />
      </cc:Work>
    </rdf:RDF>
  </metadata>
  <defs
     id="defs8" />
  <sodipodi:namedview
     pagecolor="#ffffff"
     bordercolor="#666666"
     borderopacity="1"
     objecttolerance="10"
     gridtolerance="10"
     guidetolerance="10"
     inkscape:pageopacity="0"
     inkscape:pageshadow="2"
     inkscape:window-width="769"
     inkscape:window-height="480"
     id="namedview6"
     showgrid="false"
     inkscape:zoom="10.727273"
     inkscape:cx="-0.25945716"
     inkscape:cy="11"
     inkscape:window-x="0"
     inkscape:window-y="0"
     inkscape:window-maximized="0"
     inkscape:current-layer="svg4" />
  <g
     id="g818"
     transform="translate(3.00015,3)">
    <path
       id="path2"
       d="M 8,0.721 5.8105,3.0003 H 3 V 5.8108 L 0.7207,8.0003 3,10.221 V 13 H 5.8105 L 8,15.279 10.221,13 H 13 v -2.779 l 2.279,-2.2207 -2.279,-2 v -3 h -2.779 z m 0,3.2793 c 2.21,0 4,1.79 4,4 C 12,10.21 10.21,12 8,12 5.79,12 4,10.21 4,8.0003 c 0,-2.21 1.79,-4 4,-4 z m 0,1 c -1.6569,0 -3,1.3431 -3,3 C 5,9.6572 6.3431,11 8,11 Z"
       style="fill:#5c616c"
       inkscape:connector-curvature="0" />
  </g>
</svg>
