<?xml version="1.0" encoding="UTF-8" standalone="no"?>
<svg
   xmlns:dc="http://purl.org/dc/elements/1.1/"
   xmlns:cc="http://creativecommons.org/ns#"
   xmlns:rdf="http://www.w3.org/1999/02/22-rdf-syntax-ns#"
   xmlns:svg="http://www.w3.org/2000/svg"
   xmlns="http://www.w3.org/2000/svg"
   xmlns:sodipodi="http://sodipodi.sourceforge.net/DTD/sodipodi-0.dtd"
   xmlns:inkscape="http://www.inkscape.org/namespaces/inkscape"
   width="22"
   height="22"
   version="1.1"
   id="svg6"
   sodipodi:docname="network-vpn-error-symbolic.svg"
   inkscape:version="0.92.1 r">
  <metadata
     id="metadata12">
    <rdf:RDF>
      <cc:Work
         rdf:about="">
        <dc:format>image/svg+xml</dc:format>
        <dc:type
           rdf:resource="http://purl.org/dc/dcmitype/StillImage" />
      </cc:Work>
    </rdf:RDF>
  </metadata>
  <defs
     id="defs10" />
  <sodipodi:namedview
     pagecolor="#ffffff"
     bordercolor="#666666"
     borderopacity="1"
     objecttolerance="10"
     gridtolerance="10"
     guidetolerance="10"
     inkscape:pageopacity="0"
     inkscape:pageshadow="2"
     inkscape:window-width="769"
     inkscape:window-height="480"
     id="namedview8"
     showgrid="false"
     inkscape:zoom="10.727273"
     inkscape:cx="9.3220339"
     inkscape:cy="11.372881"
     inkscape:window-x="0"
     inkscape:window-y="0"
     inkscape:window-maximized="0"
     inkscape:current-layer="svg6" />
  <g
     id="g824"
     transform="translate(3,2)">
    <path
       id="path2"
       d="M 4.5,3 C 2.02,3 0,5.02 0,7.5 0,9.99 2.02,12 4.5,12 6.41,12 8.1,10.8 8.74,9 H 11 V 6 H 8.74 C 8.1,4.21 6.41,3.01 4.5,3 Z M 15,6 v 3 h 1 V 6 Z M 4.5,6.01 C 5.33,6.01 6,6.68 6,7.51 6,8.33 5.33,9.01 4.5,9.01 3.68,9.01 3,8.33 3,7.51 3,6.68 3.68,6.01 4.5,6.01 Z"
       style="opacity:0.3;fill:#5c616c"
       inkscape:connector-curvature="0" />
    <path
       id="path4"
       d="m 12,6 v 4 l 0.25,2 h 1.5 L 14,10 V 6 Z m 0,7 v 2 h 2 v -2 z"
       class="warning"
       style="fill:#5294e2"
       inkscape:connector-curvature="0" />
  </g>
</svg>
