<?xml version="1.0" encoding="UTF-8" standalone="no"?>
<svg
   xmlns:dc="http://purl.org/dc/elements/1.1/"
   xmlns:cc="http://creativecommons.org/ns#"
   xmlns:rdf="http://www.w3.org/1999/02/22-rdf-syntax-ns#"
   xmlns:svg="http://www.w3.org/2000/svg"
   xmlns="http://www.w3.org/2000/svg"
   xmlns:sodipodi="http://sodipodi.sourceforge.net/DTD/sodipodi-0.dtd"
   xmlns:inkscape="http://www.inkscape.org/namespaces/inkscape"
   width="22"
   height="22"
   viewBox="0 0 22 22"
   version="1.1"
   id="svg7"
   sodipodi:docname="kdeconnect.svg"
   inkscape:version="0.92.1 r">
  <metadata
     id="metadata11">
    <rdf:RDF>
      <cc:Work
         rdf:about="">
        <dc:format>image/svg+xml</dc:format>
        <dc:type
           rdf:resource="http://purl.org/dc/dcmitype/StillImage" />
      </cc:Work>
    </rdf:RDF>
  </metadata>
  <sodipodi:namedview
     pagecolor="#ffffff"
     bordercolor="#666666"
     borderopacity="1"
     objecttolerance="10"
     gridtolerance="10"
     guidetolerance="10"
     inkscape:pageopacity="0"
     inkscape:pageshadow="2"
     inkscape:window-width="640"
     inkscape:window-height="480"
     id="namedview9"
     showgrid="false"
     inkscape:zoom="12.818182"
     inkscape:cx="-18.723404"
     inkscape:cy="11"
     inkscape:current-layer="svg7" />
  <defs
     id="defs3">
    <style
       type="text/css"
       id="current-color-scheme">
   .ColorScheme-Text { color:#5c616c; } .ColorScheme-Highlight { color:#5294e2; }
  </style>
  </defs>
  <g
     id="g4504"
     transform="matrix(1.375,0,0,1.375,32.668439,-1.5505324)"
     style="stroke-width:0.72727275">
    <path
       id="rect4488"
       d="m -19.647537,1.1276598 c -0.774825,0 -1.398437,0.6236123 -1.398437,1.3984375 V 15.729222 c 0,0.774827 0.623612,1.398438 1.398437,1.398438 h 7.777344 c 0.774825,0 1.398437,-0.623612 1.398437,-1.398438 V 2.5260973 c 0,-0.7748252 -0.623612,-1.3984375 -1.398437,-1.3984375 z m 0.363282,2.2949219 h 7.050781 v 9.0351563 h -7.050781 z m 4.951172,10.5214843 h 1.511718 c 0.278937,0 0.503906,0.223016 0.503906,0.501953 v 0.28125 c 0,0.278937 -0.224969,0.501953 -0.503906,0.501953 h -1.511718 c -0.278937,0 -0.501954,-0.223016 -0.501954,-0.501953 v -0.28125 c 0,-0.278937 0.223017,-0.501953 0.501954,-0.501953 z"
       style="opacity:1;fill:#5c616c;fill-opacity:1;fill-rule:nonzero;stroke:none;stroke-width:3.295748;stroke-linecap:round;stroke-linejoin:bevel;stroke-miterlimit:10;stroke-dasharray:none;stroke-dashoffset:0;stroke-opacity:1"
       inkscape:connector-curvature="0" />
    <rect
       ry="0.41958043"
       y="13.943365"
       x="-19.199423"
       height="1.2867132"
       width="2.5174825"
       id="rect4492"
       style="opacity:1;fill:#ff7357;fill-opacity:1;fill-rule:nonzero;stroke:none;stroke-width:3.295748;stroke-linecap:round;stroke-linejoin:bevel;stroke-miterlimit:10;stroke-dasharray:none;stroke-dashoffset:0;stroke-opacity:1" />
  </g>
</svg>
