<?xml version="1.0" encoding="UTF-8" standalone="no"?>
<svg
   xmlns:dc="http://purl.org/dc/elements/1.1/"
   xmlns:cc="http://creativecommons.org/ns#"
   xmlns:rdf="http://www.w3.org/1999/02/22-rdf-syntax-ns#"
   xmlns:svg="http://www.w3.org/2000/svg"
   xmlns="http://www.w3.org/2000/svg"
   xmlns:sodipodi="http://sodipodi.sourceforge.net/DTD/sodipodi-0.dtd"
   xmlns:inkscape="http://www.inkscape.org/namespaces/inkscape"
   height="22"
   width="22"
   version="1"
   id="svg12"
   sodipodi:docname="toolbox_number.svg"
   inkscape:version="0.92.1 r">
  <metadata
     id="metadata18">
    <rdf:RDF>
      <cc:Work
         rdf:about="">
        <dc:format>image/svg+xml</dc:format>
        <dc:type
           rdf:resource="http://purl.org/dc/dcmitype/StillImage" />
        <dc:title></dc:title>
      </cc:Work>
    </rdf:RDF>
  </metadata>
  <defs
     id="defs16" />
  <sodipodi:namedview
     pagecolor="#ffffff"
     bordercolor="#666666"
     borderopacity="1"
     objecttolerance="10"
     gridtolerance="10"
     guidetolerance="10"
     inkscape:pageopacity="0"
     inkscape:pageshadow="2"
     inkscape:window-width="1680"
     inkscape:window-height="963"
     id="namedview14"
     showgrid="false"
     inkscape:zoom="7.375"
     inkscape:cx="11.737553"
     inkscape:cy="-0.91104285"
     inkscape:window-x="0"
     inkscape:window-y="0"
     inkscape:window-maximized="1"
     inkscape:current-layer="g4508" />
  <rect
     style="opacity:1;fill:#74b2ed;fill-opacity:0;fill-rule:evenodd;stroke:none;stroke-width:1.03534329;stroke-linecap:round;stroke-linejoin:bevel;stroke-miterlimit:4;stroke-dasharray:none;stroke-dashoffset:0;stroke-opacity:1"
     id="rect4497-3"
     width="28.203388"
     height="28.203388"
     x="1.8983059"
     y="-8.1016941"
     ry="5.575182" />
  <g
     id="g4508"
     style="fill:#b3b3b3;stroke-width:0.45646042"
     transform="matrix(-1.5009051,1.5958568,-1.5958568,-1.5009051,72.979211,11.823358)">
    <g
       id="g4485"
       transform="matrix(0.629693,-0.00304894,-0.00304894,0.62931871,9.1708462,7.8452604)"
       style="stroke-width:0.72511762">
      <path
         sodipodi:nodetypes="cccccccccccccccscccccccccccscccccccccccccc"
         inkscape:connector-curvature="0"
         id="text4506"
         d="m 16.771439,29.433542 0.269598,-0.253559 7.436989,-6.994497 -1.346127,-1.431285 -4.870317,4.580539 1.949245,-7.686409 -1.286344,-1.367722 -7.706589,7.248055 1.360557,1.446629 4.887854,-4.597031 -1.985334,7.683173 z M 10.623042,20.01943 c 0.557032,0.592271 1.245884,0.918607 1.996042,0.923308 l 0.002,0.0022 c 0.749865,9.36e-4 1.461249,-0.32512 2.088598,-0.915141 0.754396,-0.709512 1.182453,-1.462718 1.175762,-2.24587 l -0.002,-0.0022 c -0.01279,-0.695863 -0.28348,-1.315109 -0.735821,-1.827662 l 1.741926,1.852125 0.271791,-0.255621 0.992912,-0.933836 -3.640519,-3.870829 -1.264703,1.189456 1.785213,1.898153 C 14.485841,15.282028 13.825202,14.95001 13.096439,14.954567 l -0.0043,-1.31e-4 c -0.766032,0.0032 -1.496101,0.341376 -2.147256,0.953788 -0.644759,0.606397 -1.0271683,1.3046 -1.0870201,2.059138 -0.06244,0.749221 0.2099711,1.461792 0.7651261,2.052068 z m 1.215317,-1.10583 c -0.138268,-0.147018 -0.2028,-0.327685 -0.180604,-0.63562 l 1.31e-4,-0.0043 c 0.01356,-0.24302 0.181872,-0.575856 0.6002,-0.969292 0.394866,-0.371374 0.729013,-0.524388 0.995606,-0.535696 0.303827,-0.01325 0.47727,0.05948 0.625552,0.217145 0.165188,0.175638 0.219492,0.349934 0.17596,0.648249 -0.04167,0.264028 -0.230005,0.596341 -0.630104,0.972632 -0.382728,0.359957 -0.706483,0.510216 -0.963379,0.526041 -0.295155,0.01494 -0.467567,-0.05355 -0.623362,-0.219207 z"
         style="color:#000000;font-style:normal;font-variant:normal;font-weight:normal;font-stretch:normal;font-size:8.9223938px;line-height:1.25;font-family:sans-serif;font-variant-ligatures:normal;font-variant-position:normal;font-variant-caps:normal;font-variant-numeric:normal;font-variant-alternates:normal;font-feature-settings:normal;text-indent:0;text-align:start;text-decoration:none;text-decoration-line:none;text-decoration-style:solid;text-decoration-color:#000000;letter-spacing:0px;word-spacing:0px;text-transform:none;writing-mode:lr-tb;direction:ltr;text-orientation:mixed;dominant-baseline:auto;baseline-shift:baseline;text-anchor:start;white-space:normal;shape-padding:0;clip-rule:nonzero;display:inline;overflow:visible;visibility:visible;opacity:1;isolation:auto;mix-blend-mode:normal;color-interpolation:sRGB;color-interpolation-filters:linearRGB;solid-color:#000000;solid-opacity:1;vector-effect:none;fill:#999999;fill-opacity:1;fill-rule:nonzero;stroke:none;stroke-width:0.76572418;stroke-linecap:butt;stroke-linejoin:miter;stroke-miterlimit:4;stroke-dasharray:none;stroke-dashoffset:0;stroke-opacity:1;color-rendering:auto;image-rendering:auto;shape-rendering:auto;text-rendering:auto;enable-background:accumulate" />
    </g>
  </g>
</svg>
