<?xml version="1.0" encoding="UTF-8" standalone="no"?>
<svg
   xmlns:dc="http://purl.org/dc/elements/1.1/"
   xmlns:cc="http://creativecommons.org/ns#"
   xmlns:rdf="http://www.w3.org/1999/02/22-rdf-syntax-ns#"
   xmlns:svg="http://www.w3.org/2000/svg"
   xmlns="http://www.w3.org/2000/svg"
   xmlns:sodipodi="http://sodipodi.sourceforge.net/DTD/sodipodi-0.dtd"
   xmlns:inkscape="http://www.inkscape.org/namespaces/inkscape"
   width="32"
   height="32"
   version="1"
   id="svg16"
   sodipodi:docname="folder-wifi.svg"
   inkscape:version="0.92.2 2405546, 2018-03-11">
  <metadata
     id="metadata22">
    <rdf:RDF>
      <cc:Work
         rdf:about="">
        <dc:format>image/svg+xml</dc:format>
        <dc:type
           rdf:resource="http://purl.org/dc/dcmitype/StillImage" />
      </cc:Work>
    </rdf:RDF>
  </metadata>
  <defs
     id="defs20" />
  <sodipodi:namedview
     pagecolor="#ececec"
     bordercolor="#666666"
     borderopacity="1"
     objecttolerance="10"
     gridtolerance="10"
     guidetolerance="10"
     inkscape:pageopacity="0"
     inkscape:pageshadow="2"
     inkscape:window-width="1680"
     inkscape:window-height="972"
     id="namedview18"
     showgrid="false"
     inkscape:zoom="5.6568543"
     inkscape:cx="-24.439408"
     inkscape:cy="28.257474"
     inkscape:window-x="1360"
     inkscape:window-y="0"
     inkscape:window-maximized="1"
     inkscape:current-layer="svg16" />
  <path
     style="fill:#666666;fill-opacity:1;stroke:none;stroke-width:0.14515875;stroke-miterlimit:4;stroke-dasharray:none;stroke-opacity:1"
     d="m 27.90368,6.7271305 c 1.168734,-7.388e-4 2.109629,0.9408941 2.109629,2.1096297 V 26.447279 c 0,1.168735 -0.940895,2.109629 -2.109629,2.109629 H 4.096321 c -1.168735,0 -2.109682,-0.940894 -2.10963,-2.109629 l 7.32e-4,-16.244507 7.31e-4,-5.0669071 c 0,-0.9377965 0.754977,-1.6927733 1.692773,-1.6927733 h 9.09082 c 0.937797,0 1.704839,0.3713212 2.299888,1.096152 L 16.8735,6.7341035 Z"
     id="rect4549-3"
     inkscape:connector-curvature="0"
     sodipodi:nodetypes="sssssscsssscs" />
  <path
     style="opacity:1;fill:#ececec;fill-opacity:1;stroke-width:1.27892041"
     d="m 16.000977,12.417969 a 11.099606,11.099606 0 0 0 -0.785156,0.02734 11.099606,11.099606 0 0 0 -1.101563,0.134766 11.099606,11.099606 0 0 0 -1.082031,0.242188 11.099606,11.099606 0 0 0 -1.052734,0.349609 11.099606,11.099606 0 0 0 -1.013672,0.453125 c -0.02125,0.01244 -0.04322,0.02457 -0.06445,0.03711 -0.357221,0.210945 -0.717727,0.404122 -1.0742193,0.640625 a 11.099606,11.099606 0 0 0 -0.7265626,0.519532 11.099606,11.099606 0 0 0 -0.074219,0.06641 l 1.0488287,1.287109 a 9.3867188,9.3867188 0 0 1 0.0918,-0.08008 9.3867188,9.3867188 0 0 1 0.761718,-0.544922 9.3867188,9.3867188 0 0 1 0.814454,-0.466797 9.3867188,9.3867188 0 0 1 0.857421,-0.382812 9.3867188,9.3867188 0 0 1 0.888672,-0.296875 9.3867188,9.3867188 0 0 1 0.916016,-0.205078 9.3867188,9.3867188 0 0 1 0.931641,-0.113281 9.3867188,9.3867188 0 0 1 0.664062,-0.02344 9.3867188,9.3867188 0 0 1 0.9375,0.04687 9.3867188,9.3867188 0 0 1 0.927734,0.140625 9.3867188,9.3867188 0 0 1 0.908204,0.232422 9.3867188,9.3867188 0 0 1 0.882812,0.320312 9.3867188,9.3867188 0 0 1 0.84375,0.408204 9.3867188,9.3867188 0 0 1 0.800781,0.490234 9.3867188,9.3867188 0 0 1 0.625,0.476562 l 1.046875,-1.285156 a 11.099606,11.099606 0 0 0 -0.695312,-0.527344 c -0.365952,-0.245383 -0.736377,-0.441162 -1.103516,-0.660156 a 11.099606,11.099606 0 0 0 -0.851562,-0.410156 11.099606,11.099606 0 0 0 -1.042969,-0.38086 11.099606,11.099606 0 0 0 -1.074219,-0.27539 11.099606,11.099606 0 0 0 -1.097656,-0.166016 11.099606,11.099606 0 0 0 -1.107422,-0.05469 z m 0,3.03125 a 8,8 0 0 0 -0.566406,0.01953 8,8 0 0 0 -0.792969,0.09766 8,8 0 0 0 -0.78125,0.173828 8,8 0 0 0 -0.757813,0.251954 8,8 0 0 0 -0.730468,0.328124 8,8 0 0 0 -0.69336,0.396485 8,8 0 0 0 -0.65039,0.464844 8,8 0 0 0 -0.07813,0.06836 l 1.019531,1.25 a 6.3867187,6.3867187 0 0 1 0.06055,-0.05273 6.3867187,6.3867187 0 0 1 0.519531,-0.373047 6.3867187,6.3867187 0 0 1 0.554688,-0.316407 6.3867187,6.3867187 0 0 1 0.582031,-0.261718 6.3867187,6.3867187 0 0 1 0.605469,-0.201172 6.3867187,6.3867187 0 0 1 0.623046,-0.138672 6.3867187,6.3867187 0 0 1 0.634766,-0.07813 6.3867187,6.3867187 0 0 1 0.451172,-0.01563 6.3867187,6.3867187 0 0 1 0.636719,0.03125 6.3867187,6.3867187 0 0 1 0.632812,0.0957 6.3867187,6.3867187 0 0 1 0.617188,0.158203 6.3867187,6.3867187 0 0 1 0.599609,0.21875 6.3867187,6.3867187 0 0 1 0.576172,0.277344 6.3867187,6.3867187 0 0 1 0.542969,0.333984 6.3867187,6.3867187 0 0 1 0.427734,0.324219 l 1.017578,-1.25 a 8,8 0 0 0 -0.533203,-0.40625 8,8 0 0 0 -0.68164,-0.417969 8,8 0 0 0 -0.720704,-0.347656 8,8 0 0 0 -0.751953,-0.273437 8,8 0 0 0 -0.773437,-0.197266 8,8 0 0 0 -0.791016,-0.121094 8,8 0 0 0 -0.798828,-0.03906 z m 0,3.28125 a 4.71875,4.71875 0 0 0 -0.333984,0.01172 4.71875,4.71875 0 0 0 -0.46875,0.05664 4.71875,4.71875 0 0 0 -0.458985,0.103516 4.71875,4.71875 0 0 0 -0.447265,0.148437 4.71875,4.71875 0 0 0 -0.431641,0.19336 4.71875,4.71875 0 0 0 -0.408203,0.234375 4.71875,4.71875 0 0 0 -0.384766,0.273437 4.71875,4.71875 0 0 0 -0.04492,0.04102 l 2.978516,3.65625 2.978516,-3.654297 a 4.71875,4.71875 0 0 0 -0.314454,-0.240234 4.71875,4.71875 0 0 0 -0.402343,-0.246094 4.71875,4.71875 0 0 0 -0.423828,-0.205078 4.71875,4.71875 0 0 0 -0.44336,-0.16211 4.71875,4.71875 0 0 0 -0.457031,-0.117187 4.71875,4.71875 0 0 0 -0.466797,-0.07031 4.71875,4.71875 0 0 0 -0.470703,-0.02344 z"
     id="path914"
     inkscape:connector-curvature="0" />
  <ellipse
     style="fill:#64a4ff;fill-opacity:1;stroke:none;stroke-width:0.1;stroke-miterlimit:4;stroke-dasharray:none;stroke-opacity:1"
     id="path878"
     cx="29.626575"
     cy="-2.7321265"
     rx="0.047939442"
     ry="0.21572749" />
</svg>
