<?xml version="1.0" encoding="UTF-8" standalone="no"?>
<svg
   xmlns:dc="http://purl.org/dc/elements/1.1/"
   xmlns:cc="http://creativecommons.org/ns#"
   xmlns:rdf="http://www.w3.org/1999/02/22-rdf-syntax-ns#"
   xmlns:svg="http://www.w3.org/2000/svg"
   xmlns="http://www.w3.org/2000/svg"
   xmlns:sodipodi="http://sodipodi.sourceforge.net/DTD/sodipodi-0.dtd"
   xmlns:inkscape="http://www.inkscape.org/namespaces/inkscape"
   width="32"
   height="32"
   version="1"
   id="svg16"
   sodipodi:docname="folder-private.svg"
   inkscape:version="0.92.2 2405546, 2018-03-11">
  <metadata
     id="metadata22">
    <rdf:RDF>
      <cc:Work
         rdf:about="">
        <dc:format>image/svg+xml</dc:format>
        <dc:type
           rdf:resource="http://purl.org/dc/dcmitype/StillImage" />
      </cc:Work>
    </rdf:RDF>
  </metadata>
  <defs
     id="defs20" />
  <sodipodi:namedview
     pagecolor="#ececec"
     bordercolor="#666666"
     borderopacity="1"
     objecttolerance="10"
     gridtolerance="10"
     guidetolerance="10"
     inkscape:pageopacity="0"
     inkscape:pageshadow="2"
     inkscape:window-width="1680"
     inkscape:window-height="972"
     id="namedview18"
     showgrid="false"
     inkscape:zoom="7.375"
     inkscape:cx="-17.966101"
     inkscape:cy="8.4067797"
     inkscape:window-x="1360"
     inkscape:window-y="0"
     inkscape:window-maximized="1"
     inkscape:current-layer="svg16" />
  <path
     style="fill:#666666;fill-opacity:1;stroke:none;stroke-width:0.14515875;stroke-miterlimit:4;stroke-dasharray:none;stroke-opacity:1"
     d="m 27.90368,6.7271305 c 1.168734,-7.388e-4 2.109629,0.9408941 2.109629,2.1096299 V 26.447279 c 0,1.168735 -0.940895,2.109629 -2.109629,2.109629 H 4.09632 c -1.168735,0 -2.109682,-0.940894 -2.109629,-2.109629 l 7.31e-4,-16.244506 7.31e-4,-5.0669081 c 0,-0.9377965 0.754977,-1.6927733 1.692773,-1.6927733 h 9.090821 c 0.937797,0 1.704839,0.3713212 2.299888,1.096152 L 16.8735,6.7341035 Z"
     id="rect4549-3"
     inkscape:connector-curvature="0"
     sodipodi:nodetypes="sssssscsssscs" />
  <path
     style="opacity:1;fill:#ececec;fill-opacity:1;stroke-width:1.24653316"
     d="m 12.883667,13.616333 c -2.065505,0 -3.7395992,1.674094 -3.7395992,3.739599 0,2.065505 1.6740942,3.739599 3.7395992,3.739599 1.583097,0 2.992926,-1.000966 3.52021,-2.493066 h 2.712456 v 1.246533 h 2.493066 v -1.246533 h 1.246533 v -2.493066 h -6.452055 c -0.527284,-1.4921 -1.937113,-2.493066 -3.52021,-2.493066 z m 0,2.493066 c 0.688086,0 1.246533,0.558447 1.246533,1.246533 0,0.688086 -0.558447,1.246533 -1.246533,1.246533 -0.688086,0 -1.246533,-0.558447 -1.246533,-1.246533 0,-0.688086 0.558447,-1.246533 1.246533,-1.246533 z"
     id="path14"
     inkscape:connector-curvature="0" />
</svg>
