<?xml version="1.0" encoding="UTF-8" standalone="no"?>
<svg
   xmlns:dc="http://purl.org/dc/elements/1.1/"
   xmlns:cc="http://creativecommons.org/ns#"
   xmlns:rdf="http://www.w3.org/1999/02/22-rdf-syntax-ns#"
   xmlns:svg="http://www.w3.org/2000/svg"
   xmlns="http://www.w3.org/2000/svg"
   xmlns:sodipodi="http://sodipodi.sourceforge.net/DTD/sodipodi-0.dtd"
   xmlns:inkscape="http://www.inkscape.org/namespaces/inkscape"
   width="32"
   height="32"
   version="1"
   id="svg18"
   sodipodi:docname="offline.svg"
   inkscape:version="0.92.1 r">
  <metadata
     id="metadata24">
    <rdf:RDF>
      <cc:Work
         rdf:about="">
        <dc:format>image/svg+xml</dc:format>
        <dc:type
           rdf:resource="http://purl.org/dc/dcmitype/StillImage" />
      </cc:Work>
    </rdf:RDF>
  </metadata>
  <defs
     id="defs22" />
  <sodipodi:namedview
     pagecolor="#ffffff"
     bordercolor="#666666"
     borderopacity="1"
     objecttolerance="10"
     gridtolerance="10"
     guidetolerance="10"
     inkscape:pageopacity="0"
     inkscape:pageshadow="2"
     inkscape:window-width="1680"
     inkscape:window-height="965"
     id="namedview20"
     showgrid="false"
     inkscape:zoom="7.375"
     inkscape:cx="-34.440678"
     inkscape:cy="16"
     inkscape:window-x="0"
     inkscape:window-y="0"
     inkscape:window-maximized="1"
     inkscape:current-layer="svg18" />
  <rect
     style="opacity:1;fill:#4795d1;fill-opacity:1;fill-rule:evenodd;stroke:none;stroke-width:1.03534329;stroke-linecap:round;stroke-linejoin:bevel;stroke-miterlimit:4;stroke-dasharray:none;stroke-dashoffset:0;stroke-opacity:1"
     id="rect4497-3"
     width="28.203388"
     height="28.203388"
     x="1.8983059"
     y="1.8983059"
     ry="5.575182" />
  <path
     style="fill:#ffffff"
     d="m 16,5.9999997 c -5.522856,0 -10,4.4771423 -10,9.9999993 C 6,21.522857 10.477144,26 16,26 21.522857,26 26,21.522857 26,15.999999 26,10.477142 21.522857,5.9999997 16,5.9999997 Z m -0.935546,1.9941407 c 0.108806,-0.01139 0.245686,0.0065 0.355469,0 0.01301,0.05204 -0.07708,0.238754 -0.201172,0.509765 -0.790216,1.7262876 -0.8369,3.7475276 -0.103516,4.8281246 0.132716,0.195919 0.253907,0.38202 0.253907,0.40625 0,0.02424 -0.142858,0.05078 -0.304688,0.05078 -0.3799,1e-6 -0.740065,-0.230841 -1.474609,-0.8125 -0.326312,-0.25839 -0.749712,-0.474962 -0.914063,-0.507812 -0.258081,-0.05156 -0.326284,-0.02922 -0.660156,0.304688 -0.310635,0.310584 -0.40625,0.47934 -0.40625,0.763671 0,1.078223 1.280827,1.933145 3.660156,2.4375 3.231223,0.684839 4.026104,1.298954 4.115234,2.998048 0.111903,2.130617 -1.02133,3.736741 -3.505859,4.980469 -0.296546,0.148492 -0.484954,0.207879 -0.609375,0.255859 -0.05514,-0.0049 -0.09933,0.0049 -0.154297,0 -0.02114,-0.06587 -0.05078,-0.218244 -0.05078,-0.507812 0,-1.131635 -0.445068,-2.297836 -1.117187,-2.949219 -0.180417,-0.174873 -0.684591,-0.544709 -1.117188,-0.8125 -0.432581,-0.267775 -0.869537,-0.578221 -0.966797,-0.710937 -0.161141,-0.220234 -0.172666,-0.354868 -0.04883,-0.761719 0.22568,-0.743064 0.493412,-1.159404 1.015625,-1.628906 0.273776,-0.246141 0.548725,-0.450179 0.609375,-0.455079 0.06067,-0.0049 -0.34908,-0.129893 -0.964844,-0.255859 -0.615733,-0.12621 -1.518682,-0.390048 -1.984375,-0.558595 C 9.638669,15.260232 8.489102,14.61268 8.050781,14.14453 c -0.01853,-0.01985 -0.03468,-0.03321 -0.05078,-0.05078 0.628012,-2.501606 2.390201,-4.5510076 4.726563,-5.5390616 0.488855,-0.206768 0.99342,-0.348223 1.525391,-0.457032 0.264977,-0.05416 0.538902,-0.0757 0.812499,-0.103516 z m 7.624999,3.8124996 c 0.191025,0.118078 0.913249,1.680238 1.119141,2.441406 0.265819,0.982671 0.246579,2.682023 0,3.658204 -0.09385,0.37154 -0.21585,0.718459 -0.25586,0.761719 -0.04001,0.04326 -0.186741,-0.203394 -0.357422,-0.50586 C 23.02462,17.85969 22.482403,17.216369 22.029297,16.738281 20.721422,15.358208 20.514655,14.638524 21.0625,13.537108 21.338782,12.9817 22.541611,11.7154 22.689453,11.80664 Z"
     id="path8"
     inkscape:connector-curvature="0" />
  <g
     id="g4511"
     transform="matrix(0.85714286,0,0,0.85714286,58.145278,1.503632)"
     style="stroke-width:0.66666669">
    <circle
       id="circle12"
       r="7"
       cy="23.457626"
       cx="-42.525425"
       style="fill:#db3c30;stroke-width:0.66666669" />
    <path
       inkscape:connector-curvature="0"
       id="path16"
       d="m -44.646518,19.922471 -1.414062,1.414062 2.121094,2.121094 -2.121094,2.121094 1.414062,1.414062 2.121094,-2.121094 2.121094,2.121094 1.414062,-1.414062 -2.121094,-2.121094 2.121094,-2.121094 -1.414062,-1.414062 -2.121094,2.121094 z"
       style="fill:#ffffff;stroke-width:0.66666669" />
  </g>
</svg>
