<?xml version="1.0" encoding="UTF-8"?>
<svg xmlns="http://www.w3.org/2000/svg" xmlns:xlink="http://www.w3.org/1999/xlink" width="12pt" height="12pt" viewBox="0 0 12 12" version="1.1">
<g id="surface1">
<path style=" stroke:none;fill-rule:nonzero;fill:rgb(36.078431%,38.039216%,42.352941%);fill-opacity:1;" d="M 9.816406 6 C 9.816406 6.300781 9.570312 6.546875 9.269531 6.546875 L 8.398438 6.546875 L 5.023438 3.167969 L 4.890625 2.761719 C 4.746094 2.1875 4.746094 2.183594 5.179688 2.183594 C 5.414062 2.183594 5.414062 2.1875 5.574219 2.453125 L 7.582031 5.453125 L 9.269531 5.453125 C 9.570312 5.453125 9.816406 5.695312 9.816406 6 Z M 7.296875 6.972656 L 5.574219 9.546875 C 5.425781 9.789062 5.414062 9.816406 5.214844 9.816406 L 5.179688 9.816406 C 4.746094 9.816406 4.753906 9.796875 4.890625 9.257812 L 5.773438 6.546875 L 3.320312 6.546875 L 2.65625 7.515625 C 2.578125 7.632812 2.589844 7.636719 2.46875 7.636719 L 2.351562 7.636719 C 2.113281 7.636719 2.195312 7.394531 2.195312 7.394531 L 2.351562 6 L 2.195312 4.597656 C 2.195312 4.597656 2.121094 4.363281 2.332031 4.363281 L 2.46875 4.363281 C 2.585938 4.363281 2.578125 4.367188 2.65625 4.484375 L 3.320312 5.453125 L 5.773438 5.453125 Z M 7.296875 6.972656 "/>
<path style=" stroke:none;fill-rule:nonzero;fill:rgb(36.078431%,38.039216%,42.352941%);fill-opacity:1;" d="M 9.816406 9.054688 L 2.945312 2.183594 L 2.183594 2.945312 L 9.054688 9.816406 Z M 9.816406 9.054688 "/>
</g>
</svg>
