<?xml version="1.0" encoding="UTF-8"?>
<svg xmlns="http://www.w3.org/2000/svg" xmlns:xlink="http://www.w3.org/1999/xlink" width="12pt" height="12pt" viewBox="0 0 12 12" version="1.1">
<defs>
<filter id="alpha" filterUnits="objectBoundingBox" x="0%" y="0%" width="100%" height="100%">
  <feColorMatrix type="matrix" in="SourceGraphic" values="0 0 0 0 1 0 0 0 0 1 0 0 0 0 1 0 0 0 1 0"/>
</filter>
<mask id="mask0">
  <g filter="url(#alpha)">
<rect x="0" y="0" width="12" height="12" style="fill:rgb(0%,0%,0%);fill-opacity:0.301961;stroke:none;"/>
  </g>
</mask>
<clipPath id="clip1">
  <rect width="12" height="12"/>
</clipPath>
<g id="surface6" clip-path="url(#clip1)">
<path style=" stroke:none;fill-rule:nonzero;fill:rgb(36.078431%,38.039216%,42.352941%);fill-opacity:1;" d="M 5.746094 2.183594 C 3.777344 2.183594 2.183594 3.777344 2.183594 5.746094 C 2.183594 7.714844 3.777344 9.308594 5.746094 9.308594 C 6.089844 9.308594 6.433594 9.257812 6.761719 9.160156 L 6.761719 8.074219 C 6.441406 8.214844 6.097656 8.289062 5.746094 8.289062 C 4.339844 8.289062 3.199219 7.152344 3.199219 5.746094 C 3.199219 4.339844 4.339844 3.199219 5.746094 3.199219 C 7.152344 3.199219 8.289062 4.339844 8.289062 5.746094 C 8.289062 6.097656 8.21875 6.441406 8.078125 6.761719 L 9.15625 6.761719 C 9.257812 6.433594 9.308594 6.089844 9.308594 5.746094 C 9.308594 3.777344 7.714844 2.183594 5.746094 2.183594 Z M 5.746094 2.183594 "/>
</g>
<mask id="mask1">
  <g filter="url(#alpha)">
<rect x="0" y="0" width="12" height="12" style="fill:rgb(0%,0%,0%);fill-opacity:0.301961;stroke:none;"/>
  </g>
</mask>
<clipPath id="clip2">
  <rect width="12" height="12"/>
</clipPath>
<g id="surface9" clip-path="url(#clip2)">
<path style="fill:none;stroke-width:1;stroke-linecap:round;stroke-linejoin:round;stroke:rgb(36.078431%,38.039216%,42.352941%);stroke-opacity:1;stroke-miterlimit:4;" d="M 5.998605 5.998605 L 8.001256 8.001256 L 10.502651 5.49986 " transform="matrix(0.509091,0,0,0.509091,1.672727,1.672727)"/>
</g>
</defs>
<g id="surface1">
<path style=" stroke:none;fill-rule:nonzero;fill:rgb(36.078431%,38.039216%,42.352941%);fill-opacity:1;" d="M 7.273438 7.273438 L 7.273438 7.78125 C 7.273438 7.925781 7.324219 8.058594 7.414062 8.148438 L 7.8125 8.546875 L 7.414062 8.941406 C 7.324219 9.035156 7.273438 9.167969 7.273438 9.308594 L 7.273438 9.816406 L 7.78125 9.816406 C 7.925781 9.816406 8.058594 9.765625 8.148438 9.675781 L 8.546875 9.277344 L 8.941406 9.675781 C 9.035156 9.765625 9.167969 9.816406 9.308594 9.816406 L 9.816406 9.816406 L 9.816406 9.308594 C 9.816406 9.167969 9.765625 9.035156 9.675781 8.941406 L 9.277344 8.546875 L 9.675781 8.148438 C 9.765625 8.058594 9.816406 7.925781 9.816406 7.78125 L 9.816406 7.273438 L 9.308594 7.273438 C 9.167969 7.273438 9.035156 7.324219 8.941406 7.414062 L 8.546875 7.8125 L 8.148438 7.414062 C 8.058594 7.324219 7.925781 7.273438 7.78125 7.273438 Z M 7.273438 7.273438 "/>
<use xlink:href="#surface6" mask="url(#mask0)"/>
<use xlink:href="#surface9" mask="url(#mask1)"/>
</g>
</svg>
