<?xml version="1.0" encoding="UTF-8"?>
<svg xmlns="http://www.w3.org/2000/svg" xmlns:xlink="http://www.w3.org/1999/xlink" width="12pt" height="12pt" viewBox="0 0 12 12" version="1.1">
<g id="surface1">
<path style=" stroke:none;fill-rule:nonzero;fill:rgb(36.078431%,38.039216%,42.352941%);fill-opacity:1;" d="M 4.910156 2.183594 L 4.910156 2.726562 L 3.273438 2.726562 L 3.273438 9.273438 C 3.273438 9.574219 3.515625 9.816406 3.816406 9.816406 L 8.183594 9.816406 C 8.484375 9.816406 8.726562 9.574219 8.726562 9.273438 L 8.726562 2.726562 L 7.089844 2.726562 L 7.089844 2.183594 Z M 6 4.363281 C 6.601562 4.363281 7.089844 4.851562 7.089844 5.453125 C 7.089844 6.058594 6.601562 6.546875 6 6.546875 L 6 7.089844 L 5.453125 7.089844 L 5.453125 6 L 6 6 C 6.300781 6 6.546875 5.753906 6.546875 5.453125 C 6.546875 5.152344 6.300781 4.910156 6 4.910156 C 5.699219 4.910156 5.453125 5.152344 5.453125 5.453125 L 4.910156 5.453125 C 4.910156 4.851562 5.398438 4.363281 6 4.363281 Z M 5.453125 7.636719 L 6 7.636719 L 6 8.183594 L 5.453125 8.183594 Z M 5.453125 7.636719 "/>
</g>
</svg>
