<?xml version="1.0" encoding="UTF-8"?>
<svg xmlns="http://www.w3.org/2000/svg" xmlns:xlink="http://www.w3.org/1999/xlink" width="12pt" height="12pt" viewBox="0 0 12 12" version="1.1">
<g id="surface1">
<path style=" stroke:none;fill-rule:nonzero;fill:rgb(36.078431%,38.039216%,42.352941%);fill-opacity:1;" d="M 6 1.636719 C 5.859375 1.636719 5.722656 1.691406 5.613281 1.796875 L 1.796875 5.613281 C 1.582031 5.828125 1.582031 6.171875 1.796875 6.386719 L 5.613281 10.203125 C 5.828125 10.417969 6.171875 10.417969 6.386719 10.203125 L 10.203125 6.386719 C 10.417969 6.171875 10.417969 5.828125 10.203125 5.613281 L 6.386719 1.796875 C 6.277344 1.691406 6.140625 1.636719 6 1.636719 Z M 6 3.816406 C 6.601562 3.816406 7.089844 4.304688 7.089844 4.910156 C 7.089844 5.511719 6.601562 6 6 6 L 6 6.546875 L 5.453125 6.546875 L 5.453125 5.453125 L 6 5.453125 C 6.300781 5.453125 6.546875 5.210938 6.546875 4.910156 C 6.546875 4.609375 6.300781 4.363281 6 4.363281 C 5.699219 4.363281 5.453125 4.609375 5.453125 4.910156 L 4.910156 4.910156 C 4.910156 4.304688 5.398438 3.816406 6 3.816406 Z M 5.453125 7.089844 L 6 7.089844 L 6 7.636719 L 5.453125 7.636719 Z M 5.453125 7.089844 "/>
</g>
</svg>
