<?xml version="1.0" encoding="UTF-8"?>
<svg xmlns="http://www.w3.org/2000/svg" xmlns:xlink="http://www.w3.org/1999/xlink" width="12pt" height="12pt" viewBox="0 0 12 12" version="1.1">
<g id="surface1">
<path style=" stroke:none;fill-rule:nonzero;fill:rgb(36.078431%,38.039216%,42.352941%);fill-opacity:1;" d="M 6 2.027344 L 4.804688 3.273438 L 3.273438 3.273438 L 3.273438 4.804688 L 2.027344 6 L 3.273438 7.210938 L 3.273438 8.726562 L 4.804688 8.726562 L 6 9.972656 L 7.210938 8.726562 L 8.726562 8.726562 L 8.726562 7.210938 L 9.972656 6 L 8.726562 4.910156 L 8.726562 3.273438 L 7.210938 3.273438 Z M 6 3.816406 C 7.207031 3.816406 8.183594 4.792969 8.183594 6 C 8.183594 7.207031 7.207031 8.183594 6 8.183594 C 4.792969 8.183594 3.816406 7.207031 3.816406 6 C 3.816406 4.792969 4.792969 3.816406 6 3.816406 Z M 6 4.363281 C 5.097656 4.363281 4.363281 5.097656 4.363281 6 C 4.363281 6.902344 5.097656 7.636719 6 7.636719 C 6.902344 7.636719 7.636719 6.902344 7.636719 6 C 7.636719 5.097656 6.902344 4.363281 6 4.363281 Z M 6 4.363281 "/>
</g>
</svg>
