<?xml version="1.0" encoding="UTF-8"?>
<svg xmlns="http://www.w3.org/2000/svg" xmlns:xlink="http://www.w3.org/1999/xlink" width="12pt" height="12pt" viewBox="0 0 12 12" version="1.1">
<defs>
<filter id="alpha" filterUnits="objectBoundingBox" x="0%" y="0%" width="100%" height="100%">
  <feColorMatrix type="matrix" in="SourceGraphic" values="0 0 0 0 1 0 0 0 0 1 0 0 0 0 1 0 0 0 1 0"/>
</filter>
<mask id="mask0">
  <g filter="url(#alpha)">
<rect x="0" y="0" width="12" height="12" style="fill:rgb(0%,0%,0%);fill-opacity:0.301961;stroke:none;"/>
  </g>
</mask>
<clipPath id="clip1">
  <rect width="12" height="12"/>
</clipPath>
<g id="surface6" clip-path="url(#clip1)">
<path style=" stroke:none;fill-rule:nonzero;fill:rgb(36.078431%,38.039216%,42.352941%);fill-opacity:1;" d="M 5.453125 4.910156 L 5.453125 6.09375 C 4.800781 6.324219 4.363281 6.941406 4.363281 7.636719 C 4.363281 8.539062 5.097656 9.273438 6 9.273438 C 6.902344 9.273438 7.636719 8.539062 7.636719 7.636719 C 7.636719 6.945312 7.199219 6.328125 6.546875 6.097656 L 6.546875 4.910156 Z M 5.453125 4.910156 "/>
</g>
</defs>
<g id="surface1">
<path style=" stroke:none;fill-rule:nonzero;fill:rgb(36.078431%,38.039216%,42.352941%);fill-opacity:1;" d="M 6 1.636719 C 5.09375 1.636719 4.363281 2.367188 4.363281 3.273438 L 4.363281 5.457031 C 3.679688 5.972656 3.273438 6.78125 3.273438 7.636719 C 3.273438 9.140625 4.492188 10.363281 6 10.363281 C 7.507812 10.363281 8.726562 9.140625 8.726562 7.636719 C 8.726562 6.78125 8.320312 5.972656 7.636719 5.457031 L 7.636719 3.273438 C 7.636719 2.367188 6.90625 1.636719 6 1.636719 Z M 6 2.726562 C 6.300781 2.726562 6.546875 2.96875 6.546875 3.273438 L 6.546875 6.097656 C 7.199219 6.328125 7.636719 6.945312 7.636719 7.636719 C 7.636719 8.539062 6.902344 9.273438 6 9.273438 C 5.097656 9.273438 4.363281 8.539062 4.363281 7.636719 C 4.363281 6.945312 4.800781 6.324219 5.453125 6.09375 L 5.453125 3.273438 C 5.453125 2.96875 5.699219 2.726562 6 2.726562 Z M 6 2.726562 "/>
<use xlink:href="#surface6" mask="url(#mask0)"/>
</g>
</svg>
