<?xml version="1.0" encoding="UTF-8"?>
<svg xmlns="http://www.w3.org/2000/svg" xmlns:xlink="http://www.w3.org/1999/xlink" width="12pt" height="12pt" viewBox="0 0 12 12" version="1.1">
<g id="surface1">
<path style=" stroke:none;fill-rule:nonzero;fill:rgb(36.078431%,38.039216%,42.352941%);fill-opacity:1;" d="M 4.636719 6.816406 C 4.484375 6.816406 4.363281 6.941406 4.363281 7.089844 L 4.363281 8.453125 L 7.636719 8.453125 L 7.636719 7.089844 C 7.636719 6.941406 7.515625 6.816406 7.363281 6.816406 Z M 4.636719 6.816406 "/>
<path style=" stroke:none;fill-rule:nonzero;fill:rgb(36.078431%,38.039216%,42.352941%);fill-opacity:1;" d="M 3.273438 8.453125 L 3.273438 7.363281 L 1.636719 7.910156 Z M 3.273438 8.453125 "/>
<path style=" stroke:none;fill-rule:nonzero;fill:rgb(36.078431%,38.039216%,42.352941%);fill-opacity:1;" d="M 5.453125 5.183594 L 6.546875 5.183594 L 6 3.546875 Z M 5.453125 5.183594 "/>
<path style=" stroke:none;fill-rule:nonzero;fill:rgb(36.078431%,38.039216%,42.352941%);fill-opacity:1;" d="M 8.726562 7.363281 L 8.726562 8.453125 L 10.363281 7.910156 Z M 8.726562 7.363281 "/>
<path style=" stroke:none;fill-rule:nonzero;fill:rgb(36.078431%,38.039216%,42.352941%);fill-opacity:1;" d="M 7.539062 5.59375 L 8.3125 6.367188 L 9.085938 4.824219 Z M 7.539062 5.59375 "/>
<path style=" stroke:none;fill-rule:nonzero;fill:rgb(36.078431%,38.039216%,42.352941%);fill-opacity:1;" d="M 3.6875 6.367188 L 4.457031 5.59375 L 2.917969 4.824219 Z M 3.6875 6.367188 "/>
</g>
</svg>
