<?xml version="1.0" encoding="UTF-8"?>
<svg xmlns="http://www.w3.org/2000/svg" xmlns:xlink="http://www.w3.org/1999/xlink" width="12pt" height="12pt" viewBox="0 0 12 12" version="1.1">
<g id="surface1">
<path style=" stroke:none;fill-rule:nonzero;fill:rgb(36.078431%,38.039216%,42.352941%);fill-opacity:1;" d="M 3.546875 8.726562 L 3.546875 7.636719 L 5.726562 7.636719 C 6.03125 7.636719 6.273438 7.390625 6.273438 7.089844 L 6.273438 4.910156 C 6.273438 4.003906 7.003906 3.273438 7.910156 3.273438 L 10.089844 3.273438 L 10.089844 4.363281 L 7.910156 4.363281 C 7.605469 4.363281 7.363281 4.609375 7.363281 4.910156 L 7.363281 7.089844 C 7.363281 7.996094 6.632812 8.726562 5.726562 8.726562 Z M 3.546875 8.726562 "/>
<path style=" stroke:none;fill-rule:nonzero;fill:rgb(36.078431%,38.039216%,42.352941%);fill-opacity:1;" d="M 3.546875 3.273438 L 3.546875 4.363281 L 5.523438 4.363281 C 5.613281 3.964844 5.808594 3.609375 6.066406 3.308594 C 5.957031 3.285156 5.84375 3.273438 5.726562 3.273438 Z M 8.113281 7.636719 C 8.023438 8.035156 7.828125 8.390625 7.566406 8.691406 C 7.679688 8.714844 7.792969 8.726562 7.910156 8.726562 L 10.089844 8.726562 L 10.089844 7.636719 Z M 8.113281 7.636719 "/>
<path style=" stroke:none;fill-rule:nonzero;fill:rgb(36.078431%,38.039216%,42.352941%);fill-opacity:1;" d="M 4.089844 2.183594 L 4.089844 5.453125 L 1.910156 3.816406 Z M 4.089844 2.183594 "/>
<path style=" stroke:none;fill-rule:nonzero;fill:rgb(36.078431%,38.039216%,42.352941%);fill-opacity:1;" d="M 4.089844 6.546875 L 4.089844 9.816406 L 1.910156 8.183594 Z M 4.089844 6.546875 "/>
</g>
</svg>
