<?xml version="1.0" encoding="UTF-8"?>
<svg xmlns="http://www.w3.org/2000/svg" xmlns:xlink="http://www.w3.org/1999/xlink" width="12pt" height="12pt" viewBox="0 0 12 12" version="1.1">
<g id="surface1">
<path style=" stroke:none;fill-rule:nonzero;fill:rgb(36.078431%,38.039216%,42.352941%);fill-opacity:1;" d="M 8.453125 8.726562 L 8.453125 7.636719 L 6.273438 7.636719 C 5.96875 7.636719 5.726562 7.390625 5.726562 7.089844 L 5.726562 4.910156 C 5.726562 4.003906 4.996094 3.273438 4.089844 3.273438 L 1.910156 3.273438 L 1.910156 4.363281 L 4.089844 4.363281 C 4.394531 4.363281 4.636719 4.609375 4.636719 4.910156 L 4.636719 7.089844 C 4.636719 7.996094 5.367188 8.726562 6.273438 8.726562 Z M 8.453125 8.726562 "/>
<path style=" stroke:none;fill-rule:nonzero;fill:rgb(36.078431%,38.039216%,42.352941%);fill-opacity:1;" d="M 8.453125 3.273438 L 8.453125 4.363281 L 6.476562 4.363281 C 6.386719 3.964844 6.191406 3.609375 5.933594 3.308594 C 6.042969 3.285156 6.15625 3.273438 6.273438 3.273438 Z M 3.886719 7.636719 C 3.976562 8.035156 4.171875 8.390625 4.433594 8.691406 C 4.320312 8.714844 4.207031 8.726562 4.089844 8.726562 L 1.910156 8.726562 L 1.910156 7.636719 Z M 3.886719 7.636719 "/>
<path style=" stroke:none;fill-rule:nonzero;fill:rgb(36.078431%,38.039216%,42.352941%);fill-opacity:1;" d="M 7.910156 2.183594 L 7.910156 5.453125 L 10.089844 3.816406 Z M 7.910156 2.183594 "/>
<path style=" stroke:none;fill-rule:nonzero;fill:rgb(36.078431%,38.039216%,42.352941%);fill-opacity:1;" d="M 7.910156 6.546875 L 7.910156 9.816406 L 10.089844 8.183594 Z M 7.910156 6.546875 "/>
</g>
</svg>
