<?xml version="1.0" encoding="UTF-8"?>
<svg xmlns="http://www.w3.org/2000/svg" xmlns:xlink="http://www.w3.org/1999/xlink" width="12pt" height="12pt" viewBox="0 0 12 12" version="1.1">
<g id="surface1">
<path style=" stroke:none;fill-rule:nonzero;fill:rgb(36.078431%,38.039216%,42.352941%);fill-opacity:1;" d="M 6 1.636719 C 5.09375 1.636719 4.363281 2.367188 4.363281 3.273438 L 4.363281 6 C 4.363281 6.90625 5.09375 7.636719 6 7.636719 C 6.90625 7.636719 7.636719 6.90625 7.636719 6 L 7.636719 3.273438 C 7.636719 2.367188 6.90625 1.636719 6 1.636719 Z M 6 2.726562 C 6.300781 2.726562 6.546875 2.972656 6.546875 3.273438 L 6.546875 6 C 6.546875 6.300781 6.300781 6.546875 6 6.546875 C 5.699219 6.546875 5.453125 6.300781 5.453125 6 L 5.453125 3.273438 C 5.453125 2.972656 5.699219 2.726562 6 2.726562 Z M 2.726562 5.453125 L 2.726562 6 C 2.726562 7.621094 3.90625 8.960938 5.453125 9.222656 L 5.453125 10.363281 L 6.546875 10.363281 L 6.546875 9.222656 C 8.09375 8.960938 9.273438 7.621094 9.273438 6 L 9.273438 5.453125 L 8.183594 5.453125 L 8.183594 6 C 8.183594 7.214844 7.214844 8.183594 6 8.183594 C 4.785156 8.183594 3.816406 7.214844 3.816406 6 L 3.816406 5.453125 Z M 2.726562 5.453125 "/>
</g>
</svg>
