<?xml version="1.0" encoding="UTF-8"?>
<svg xmlns="http://www.w3.org/2000/svg" xmlns:xlink="http://www.w3.org/1999/xlink" width="12pt" height="12pt" viewBox="0 0 12 12" version="1.1">
<g id="surface1">
<path style=" stroke:none;fill-rule:nonzero;fill:rgb(36.078431%,38.039216%,42.352941%);fill-opacity:1;" d="M 3.816406 3.273438 C 2.613281 3.273438 1.636719 4.25 1.636719 5.453125 C 1.636719 6.660156 2.613281 7.636719 3.816406 7.636719 C 3.949219 7.636719 4.082031 7.625 4.210938 7.597656 C 4.617188 8.445312 5.429688 8.726562 7.089844 8.726562 C 10.363281 8.726562 10.363281 7.636719 10.363281 3.273438 Z M 3.816406 4.363281 L 3.824219 4.363281 C 3.828125 5.238281 3.851562 5.96875 3.929688 6.539062 C 3.890625 6.539062 3.855469 6.546875 3.816406 6.546875 C 3.214844 6.546875 2.726562 6.054688 2.726562 5.453125 C 2.726562 4.855469 3.214844 4.363281 3.816406 4.363281 Z M 3.816406 4.363281 "/>
</g>
</svg>
