<?xml version="1.0" encoding="UTF-8"?>
<svg xmlns="http://www.w3.org/2000/svg" xmlns:xlink="http://www.w3.org/1999/xlink" width="12pt" height="12pt" viewBox="0 0 12 12" version="1.1">
<g id="surface1">
<path style=" stroke:none;fill-rule:nonzero;fill:rgb(36.078431%,38.039216%,42.352941%);fill-opacity:1;" d="M 5.558594 1.636719 C 4.960938 2.390625 4.78125 2.492188 4.996094 2.972656 C 5.195312 3.410156 5.699219 3.355469 5.445312 4.363281 C 5.863281 3.871094 6.195312 3.523438 5.867188 3.023438 C 5.53125 2.507812 5.351562 2.472656 5.558594 1.636719 Z M 7.195312 1.636719 C 6.597656 2.390625 6.417969 2.492188 6.632812 2.972656 C 6.828125 3.410156 7.335938 3.355469 7.082031 4.363281 C 7.5 3.871094 7.832031 3.523438 7.503906 3.023438 C 7.167969 2.507812 6.988281 2.472656 7.195312 1.636719 Z M 8.832031 1.636719 C 8.234375 2.390625 8.054688 2.492188 8.269531 2.972656 C 8.464844 3.410156 8.972656 3.355469 8.71875 4.363281 C 9.136719 3.871094 9.46875 3.523438 9.140625 3.023438 C 8.804688 2.507812 8.621094 2.472656 8.832031 1.636719 Z M 3.816406 4.910156 C 2.613281 4.910156 1.636719 5.886719 1.636719 7.089844 C 1.636719 8.296875 2.613281 9.273438 3.816406 9.273438 C 3.949219 9.273438 4.082031 9.261719 4.210938 9.234375 C 4.617188 10.078125 5.429688 10.363281 7.089844 10.363281 C 10.363281 10.363281 10.363281 9.273438 10.363281 4.910156 Z M 3.816406 6 L 3.824219 6 C 3.828125 6.871094 3.851562 7.605469 3.929688 8.175781 C 3.890625 8.175781 3.855469 8.183594 3.816406 8.183594 C 3.214844 8.183594 2.726562 7.691406 2.726562 7.089844 C 2.726562 6.492188 3.214844 6 3.816406 6 Z M 3.816406 6 "/>
</g>
</svg>
