<?xml version="1.0" encoding="UTF-8"?>
<svg xmlns="http://www.w3.org/2000/svg" xmlns:xlink="http://www.w3.org/1999/xlink" width="12pt" height="12pt" viewBox="0 0 12 12" version="1.1">
<g id="surface1">
<path style=" stroke:none;fill-rule:nonzero;fill:rgb(36.078431%,38.039216%,42.352941%);fill-opacity:1;" d="M 4.089844 3.546875 C 2.738281 3.546875 1.636719 4.640625 1.636719 6 C 1.636719 7.359375 2.738281 8.453125 4.089844 8.453125 C 5.132812 8.453125 6.054688 7.800781 6.402344 6.816406 L 8.183594 6.816406 L 8.183594 7.910156 L 9.816406 7.910156 L 9.816406 6.816406 L 10.363281 6.816406 L 10.363281 5.183594 L 6.402344 5.183594 C 6.054688 4.199219 5.132812 3.546875 4.089844 3.546875 Z M 4.089844 5.183594 C 4.542969 5.183594 4.910156 5.546875 4.910156 6 C 4.910156 6.453125 4.542969 6.816406 4.089844 6.816406 C 3.636719 6.816406 3.273438 6.453125 3.273438 6 C 3.273438 5.546875 3.636719 5.183594 4.089844 5.183594 Z M 4.089844 5.183594 "/>
</g>
</svg>
