<?xml version="1.0" encoding="UTF-8"?>
<svg xmlns="http://www.w3.org/2000/svg" xmlns:xlink="http://www.w3.org/1999/xlink" width="12pt" height="12pt" viewBox="0 0 12 12" version="1.1">
<defs>
<filter id="alpha" filterUnits="objectBoundingBox" x="0%" y="0%" width="100%" height="100%">
  <feColorMatrix type="matrix" in="SourceGraphic" values="0 0 0 0 1 0 0 0 0 1 0 0 0 0 1 0 0 0 1 0"/>
</filter>
<mask id="mask0">
  <g filter="url(#alpha)">
<rect x="0" y="0" width="12" height="12" style="fill:rgb(0%,0%,0%);fill-opacity:0.301961;stroke:none;"/>
  </g>
</mask>
<clipPath id="clip1">
  <rect width="12" height="12"/>
</clipPath>
<g id="surface6" clip-path="url(#clip1)">
<path style=" stroke:none;fill-rule:nonzero;fill:rgb(36.078431%,38.039216%,42.352941%);fill-opacity:1;" d="M 6.953125 6.546875 L 9.953125 4.089844 L 6.953125 1.636719 C 6.953125 1.640625 6.953125 2.367188 6.953125 2.726562 C 6.410156 2.726562 5.863281 2.726562 5.316406 2.726562 C 5.316406 3.636719 5.316406 4.550781 5.316406 5.453125 C 5.863281 5.453125 6.410156 5.453125 6.953125 5.453125 C 6.953125 5.820312 6.953125 6.546875 6.953125 6.546875 Z M 6.953125 6.546875 "/>
</g>
<mask id="mask1">
  <g filter="url(#alpha)">
<rect x="0" y="0" width="12" height="12" style="fill:rgb(0%,0%,0%);fill-opacity:0.301961;stroke:none;"/>
  </g>
</mask>
<clipPath id="clip2">
  <rect width="12" height="12"/>
</clipPath>
<g id="surface9" clip-path="url(#clip2)">
<path style=" stroke:none;fill-rule:nonzero;fill:rgb(36.078431%,38.039216%,42.352941%);fill-opacity:1;" d="M 4.773438 4.910156 L 1.773438 7.363281 L 4.773438 9.816406 L 4.773438 8.726562 L 6.410156 8.726562 L 6.410156 6 L 4.773438 6 Z M 4.773438 4.910156 "/>
</g>
</defs>
<g id="surface1">
<path style=" stroke:none;fill-rule:nonzero;fill:rgb(36.078431%,38.039216%,42.352941%);fill-opacity:1;" d="M 7.5 7.636719 L 7.5 8.183594 C 7.5 8.335938 7.554688 8.476562 7.652344 8.574219 L 8.078125 9 L 7.652344 9.425781 C 7.554688 9.527344 7.5 9.671875 7.5 9.816406 L 7.5 10.363281 L 8.046875 10.363281 C 8.199219 10.363281 8.339844 10.308594 8.4375 10.210938 L 8.863281 9.785156 L 9.289062 10.210938 C 9.386719 10.308594 9.535156 10.363281 9.683594 10.363281 L 10.226562 10.363281 L 10.226562 9.816406 C 10.226562 9.671875 10.171875 9.527344 10.074219 9.425781 L 9.648438 9 L 10.074219 8.574219 C 10.171875 8.476562 10.226562 8.335938 10.226562 8.183594 L 10.226562 7.636719 L 9.683594 7.636719 C 9.535156 7.636719 9.386719 7.691406 9.289062 7.789062 L 8.863281 8.21875 L 8.4375 7.789062 C 8.339844 7.691406 8.199219 7.636719 8.046875 7.636719 Z M 7.5 7.636719 "/>
<use xlink:href="#surface6" mask="url(#mask0)"/>
<use xlink:href="#surface9" mask="url(#mask1)"/>
</g>
</svg>
