<?xml version="1.0" encoding="UTF-8"?>
<svg xmlns="http://www.w3.org/2000/svg" xmlns:xlink="http://www.w3.org/1999/xlink" width="12pt" height="12pt" viewBox="0 0 12 12" version="1.1">
<g id="surface1">
<path style=" stroke:none;fill-rule:nonzero;fill:rgb(36.078431%,38.039216%,42.352941%);fill-opacity:1;" d="M 6 1.910156 C 6.300781 1.910156 6.546875 2.15625 6.546875 2.453125 C 6.546875 2.472656 6.546875 2.492188 6.539062 2.507812 C 7.789062 2.761719 8.726562 3.855469 8.726562 5.183594 L 8.726562 7.636719 L 9.816406 8.726562 L 9.816406 9 L 2.183594 9 L 2.183594 8.726562 L 3.273438 7.636719 L 3.273438 5.183594 C 3.273438 3.855469 4.210938 2.761719 5.460938 2.507812 C 5.453125 2.492188 5.453125 2.472656 5.453125 2.453125 C 5.453125 2.15625 5.699219 1.910156 6 1.910156 Z M 6.945312 9.546875 C 6.746094 9.882812 6.386719 10.089844 6 10.089844 C 5.613281 10.089844 5.253906 9.882812 5.054688 9.546875 Z M 6.945312 9.546875 "/>
</g>
</svg>
