<?xml version="1.0" encoding="UTF-8"?>
<svg xmlns="http://www.w3.org/2000/svg" xmlns:xlink="http://www.w3.org/1999/xlink" width="12pt" height="12pt" viewBox="0 0 12 12" version="1.1">
<g id="surface1">
<path style=" stroke:none;fill-rule:nonzero;fill:rgb(36.078431%,38.039216%,42.352941%);fill-opacity:1;" d="M 7.703125 2.289062 C 6.496094 1.882812 5.136719 2.363281 4.472656 3.511719 L 3.246094 5.636719 L 1.753906 6.039062 L 1.621094 6.273438 L 2.5625 6.820312 L 7.289062 9.546875 L 8.234375 10.09375 L 8.371094 9.855469 L 7.96875 8.363281 L 8.652344 7.183594 L 9.195312 6.238281 C 9.496094 5.726562 9.597656 5.15625 9.542969 4.609375 C 9.460938 4.625 9.375 4.636719 9.289062 4.636719 C 8.394531 4.636719 7.652344 3.898438 7.652344 3 C 7.652344 2.761719 7.707031 2.539062 7.800781 2.335938 C 7.800781 2.335938 7.703125 2.289062 7.703125 2.289062 Z M 3.835938 8.183594 C 3.835938 8.574219 4.042969 8.933594 4.378906 9.128906 C 4.71875 9.320312 5.132812 9.320312 5.46875 9.125 Z M 3.835938 8.183594 "/>
<path style=" stroke:none;fill-rule:nonzero;fill:rgb(32.156863%,58.039216%,88.627451%);fill-opacity:1;" d="M 10.378906 3 C 10.378906 3.601562 9.890625 4.089844 9.289062 4.089844 C 8.6875 4.089844 8.199219 3.601562 8.199219 3 C 8.199219 2.394531 8.6875 1.90625 9.289062 1.90625 C 9.890625 1.90625 10.378906 2.394531 10.378906 3 Z M 10.378906 3 "/>
</g>
</svg>
