<?xml version="1.0" encoding="UTF-8"?>
<svg xmlns="http://www.w3.org/2000/svg" xmlns:xlink="http://www.w3.org/1999/xlink" width="12pt" height="12pt" viewBox="0 0 12 12" version="1.1">
<g id="surface1">
<path style=" stroke:none;fill-rule:nonzero;fill:rgb(36.078431%,38.039216%,42.352941%);fill-opacity:1;" d="M 3.816406 1.910156 L 3.816406 3 L 8.183594 3 L 8.183594 1.910156 Z M 2.726562 3.546875 C 2.453125 3.546875 2.183594 3.816406 2.183594 4.089844 L 2.183594 6.273438 C 2.183594 6.546875 2.453125 6.816406 2.726562 6.816406 L 3.273438 6.816406 L 3.273438 5.726562 L 7.089844 5.726562 L 7.089844 4.636719 L 9.273438 4.636719 L 9.273438 6.816406 C 9.546875 6.816406 9.816406 6.546875 9.816406 6.273438 L 9.816406 4.089844 C 9.816406 3.816406 9.546875 3.546875 9.273438 3.546875 Z M 3.816406 6.273438 L 3.816406 9 L 7.089844 9 L 7.089844 6.273438 Z M 3.816406 6.273438 "/>
<path style=" stroke:none;fill-rule:nonzero;fill:rgb(32.156863%,58.039216%,88.627451%);fill-opacity:1;" d="M 7.636719 5.183594 L 7.636719 7.367188 L 7.773438 8.453125 L 8.589844 8.453125 L 8.726562 7.363281 L 8.726562 5.183594 Z M 7.636719 9 L 7.636719 10.089844 L 8.726562 10.089844 L 8.726562 9 Z M 7.636719 9 "/>
</g>
</svg>
