<?xml version="1.0" encoding="UTF-8"?>
<svg xmlns="http://www.w3.org/2000/svg" xmlns:xlink="http://www.w3.org/1999/xlink" width="12pt" height="12pt" viewBox="0 0 12 12" version="1.1">
<g id="surface1">
<path style=" stroke:none;fill-rule:nonzero;fill:rgb(32.156863%,58.039216%,88.627451%);fill-opacity:1;" d="M 8.171875 6.398438 C 8.089844 6.402344 8.011719 6.449219 7.972656 6.519531 L 6.304688 9.464844 C 6.210938 9.621094 6.328125 9.816406 6.511719 9.816406 L 9.851562 9.816406 C 10.035156 9.816406 10.152344 9.621094 10.058594 9.464844 L 8.390625 6.519531 C 8.34375 6.441406 8.257812 6.394531 8.171875 6.398438 Z M 7.910156 7.089844 L 8.453125 7.089844 L 8.453125 8.183594 L 7.910156 8.183594 Z M 7.910156 8.726562 L 8.453125 8.726562 L 8.453125 9.273438 L 7.910156 9.273438 Z M 7.910156 8.726562 "/>
<path style=" stroke:none;fill-rule:nonzero;fill:rgb(36.078431%,38.039216%,42.352941%);fill-opacity:1;" d="M 3.546875 2.183594 L 3.546875 3.273438 L 7.910156 3.273438 L 7.910156 2.183594 Z M 8.863281 6.25 L 9.285156 6.988281 C 9.429688 6.882812 9.546875 6.71875 9.546875 6.546875 L 9.546875 4.363281 C 9.546875 4.089844 9.273438 3.816406 9 3.816406 L 2.453125 3.816406 C 2.183594 3.816406 1.910156 4.089844 1.910156 4.363281 L 1.910156 6.546875 C 1.910156 6.816406 2.183594 7.089844 2.453125 7.089844 L 3 7.089844 L 3 6 L 7.730469 6 C 7.855469 5.914062 7.996094 5.859375 8.144531 5.851562 C 8.4375 5.84375 8.714844 5.996094 8.863281 6.25 Z M 7.332031 6.546875 L 3.546875 6.546875 L 3.546875 9.273438 L 5.796875 9.273438 Z M 7.332031 6.546875 "/>
</g>
</svg>
