<?xml version="1.0" encoding="UTF-8"?>
<svg xmlns="http://www.w3.org/2000/svg" xmlns:xlink="http://www.w3.org/1999/xlink" width="12pt" height="12pt" viewBox="0 0 12 12" version="1.1">
<g id="surface1">
<path style=" stroke:none;fill-rule:nonzero;fill:rgb(36.078431%,38.039216%,42.352941%);fill-opacity:1;" d="M 6 2.183594 C 3.894531 2.183594 2.183594 3.894531 2.183594 6 C 2.183594 8.105469 3.894531 9.816406 6 9.816406 C 8.105469 9.816406 9.816406 8.105469 9.816406 6 C 9.816406 3.894531 8.105469 2.183594 6 2.183594 Z M 6 2.726562 C 7.804688 2.726562 9.273438 4.195312 9.273438 6 C 9.273438 7.804688 7.804688 9.273438 6 9.273438 C 4.195312 9.273438 2.726562 7.804688 2.726562 6 C 2.726562 4.195312 4.195312 2.726562 6 2.726562 Z M 3.816406 5.453125 L 3.816406 6.546875 L 8.183594 6.546875 L 8.183594 5.453125 Z M 3.816406 5.453125 "/>
</g>
</svg>
