<?xml version="1.0" encoding="UTF-8"?>
<svg xmlns="http://www.w3.org/2000/svg" xmlns:xlink="http://www.w3.org/1999/xlink" width="12pt" height="12pt" viewBox="0 0 12 12" version="1.1">
<g id="surface1">
<path style=" stroke:none;fill-rule:nonzero;fill:rgb(36.078431%,38.039216%,42.352941%);fill-opacity:1;" d="M 6.546875 2.726562 C 4.738281 2.726562 3.273438 4.191406 3.273438 6 L 2.183594 6 L 3.816406 8.183594 L 5.453125 6 L 4.363281 6 C 4.363281 4.796875 5.339844 3.816406 6.546875 3.816406 C 7.75 3.816406 8.726562 4.796875 8.726562 6 C 8.726562 7.203125 7.75 8.183594 6.546875 8.183594 C 6.246094 8.183594 6 8.425781 6 8.726562 C 6 9.027344 6.246094 9.273438 6.546875 9.273438 C 6.5625 9.273438 6.582031 9.273438 6.597656 9.269531 C 8.382812 9.242188 9.816406 7.789062 9.816406 6 C 9.816406 4.191406 8.351562 2.726562 6.546875 2.726562 Z M 6.546875 2.726562 "/>
</g>
</svg>
