<?xml version="1.0" encoding="UTF-8"?>
<svg xmlns="http://www.w3.org/2000/svg" xmlns:xlink="http://www.w3.org/1999/xlink" width="12pt" height="12pt" viewBox="0 0 12 12" version="1.1">
<defs>
<filter id="alpha" filterUnits="objectBoundingBox" x="0%" y="0%" width="100%" height="100%">
  <feColorMatrix type="matrix" in="SourceGraphic" values="0 0 0 0 1 0 0 0 0 1 0 0 0 0 1 0 0 0 1 0"/>
</filter>
<mask id="mask0">
  <g filter="url(#alpha)">
<rect x="0" y="0" width="12" height="12" style="fill:rgb(0%,0%,0%);fill-opacity:0.301961;stroke:none;"/>
  </g>
</mask>
<clipPath id="clip1">
  <rect width="12" height="12"/>
</clipPath>
<g id="surface6" clip-path="url(#clip1)">
<path style=" stroke:none;fill-rule:nonzero;fill:rgb(36.078431%,38.039216%,42.352941%);fill-opacity:1;" d="M 5.726562 1.636719 C 5.125 1.636719 4.636719 2.125 4.636719 2.726562 L 2.453125 2.726562 C 2.152344 2.726562 1.910156 2.972656 1.910156 3.273438 L 1.910156 9.273438 C 1.910156 9.574219 2.152344 9.816406 2.453125 9.816406 L 6.816406 9.816406 L 6.816406 8.183594 L 3.546875 8.183594 L 3.546875 7.636719 L 6.816406 7.636719 L 6.816406 7.089844 L 9.546875 7.089844 L 9.546875 3.273438 C 9.546875 2.972656 9.300781 2.726562 9 2.726562 L 6.816406 2.726562 C 6.816406 2.125 6.328125 1.636719 5.726562 1.636719 Z M 5.726562 2.183594 C 6.027344 2.183594 6.273438 2.425781 6.273438 2.726562 C 6.273438 3.027344 6.027344 3.273438 5.726562 3.273438 C 5.425781 3.273438 5.183594 3.027344 5.183594 2.726562 C 5.183594 2.425781 5.425781 2.183594 5.726562 2.183594 Z M 3.546875 4.363281 L 7.910156 4.363281 L 7.910156 4.910156 L 3.546875 4.910156 Z M 3.546875 6 L 7.910156 6 L 7.910156 6.546875 L 3.546875 6.546875 Z M 3.546875 6 "/>
</g>
</defs>
<g id="surface1">
<use xlink:href="#surface6" mask="url(#mask0)"/>
<path style=" stroke:none;fill-rule:nonzero;fill:rgb(36.078431%,38.039216%,42.352941%);fill-opacity:1;" d="M 7.363281 7.636719 L 7.363281 8.183594 C 7.363281 8.335938 7.417969 8.476562 7.515625 8.574219 L 7.941406 9 L 7.515625 9.425781 C 7.417969 9.523438 7.363281 9.664062 7.363281 9.816406 L 7.363281 10.363281 L 7.910156 10.363281 C 8.0625 10.363281 8.203125 10.308594 8.300781 10.210938 L 8.726562 9.785156 L 9.152344 10.210938 C 9.25 10.308594 9.394531 10.363281 9.546875 10.363281 L 10.089844 10.363281 L 10.089844 9.816406 C 10.089844 9.664062 10.035156 9.523438 9.9375 9.425781 L 9.511719 9 L 9.9375 8.574219 C 10.035156 8.476562 10.089844 8.335938 10.089844 8.183594 L 10.089844 7.636719 L 9.546875 7.636719 C 9.394531 7.636719 9.25 7.691406 9.152344 7.789062 L 8.726562 8.214844 L 8.300781 7.789062 C 8.203125 7.691406 8.0625 7.636719 7.910156 7.636719 Z M 7.363281 7.636719 "/>
</g>
</svg>
