<?xml version="1.0" encoding="UTF-8"?>
<svg xmlns="http://www.w3.org/2000/svg" xmlns:xlink="http://www.w3.org/1999/xlink" width="12pt" height="12pt" viewBox="0 0 12 12" version="1.1">
<defs>
<filter id="alpha" filterUnits="objectBoundingBox" x="0%" y="0%" width="100%" height="100%">
  <feColorMatrix type="matrix" in="SourceGraphic" values="0 0 0 0 1 0 0 0 0 1 0 0 0 0 1 0 0 0 1 0"/>
</filter>
<mask id="mask0">
  <g filter="url(#alpha)">
<rect x="0" y="0" width="12" height="12" style="fill:rgb(0%,0%,0%);fill-opacity:0.301961;stroke:none;"/>
  </g>
</mask>
<clipPath id="clip1">
  <rect width="12" height="12"/>
</clipPath>
<g id="surface6" clip-path="url(#clip1)">
<path style=" stroke:none;fill-rule:nonzero;fill:rgb(36.078431%,38.039216%,42.352941%);fill-opacity:1;" d="M 2.183594 1.910156 C 1.636719 1.910156 1.636719 2.453125 1.636719 2.453125 L 1.636719 8.453125 C 1.636719 8.453125 1.636719 9 2.183594 9 L 7.089844 9 L 7.089844 7.910156 L 6.546875 7.910156 L 6.546875 6.816406 L 10.363281 6.816406 L 10.363281 2.453125 C 10.363281 1.910156 9.816406 1.910156 9.816406 1.910156 Z M 2.726562 3 L 9.273438 3 L 9.273438 6.273438 L 2.726562 6.273438 Z M 2.726562 6.816406 L 5.453125 6.816406 L 5.453125 7.910156 L 2.726562 7.910156 Z M 2.726562 6.816406 "/>
</g>
</defs>
<g id="surface1">
<path style=" stroke:none;fill-rule:nonzero;fill:rgb(36.078431%,38.039216%,42.352941%);fill-opacity:1;" d="M 7.636719 7.363281 L 7.636719 7.910156 C 7.636719 8.054688 7.691406 8.199219 7.789062 8.300781 L 8.214844 8.726562 L 7.789062 9.152344 C 7.691406 9.25 7.636719 9.394531 7.636719 9.546875 L 7.636719 10.089844 L 8.183594 10.089844 C 8.335938 10.089844 8.476562 10.035156 8.574219 9.9375 L 9 9.507812 L 9.425781 9.9375 C 9.523438 10.035156 9.664062 10.089844 9.816406 10.089844 L 10.363281 10.089844 L 10.363281 9.546875 C 10.363281 9.394531 10.308594 9.25 10.210938 9.152344 L 9.785156 8.726562 L 10.210938 8.300781 C 10.308594 8.199219 10.363281 8.054688 10.363281 7.910156 L 10.363281 7.363281 L 9.816406 7.363281 C 9.664062 7.363281 9.523438 7.417969 9.425781 7.515625 L 9 7.941406 L 8.574219 7.515625 C 8.476562 7.417969 8.335938 7.363281 8.183594 7.363281 Z M 7.636719 7.363281 "/>
<use xlink:href="#surface6" mask="url(#mask0)"/>
</g>
</svg>
