<?xml version="1.0" encoding="UTF-8"?>
<svg xmlns="http://www.w3.org/2000/svg" xmlns:xlink="http://www.w3.org/1999/xlink" width="12pt" height="12pt" viewBox="0 0 12 12" version="1.1">
<defs>
<filter id="alpha" filterUnits="objectBoundingBox" x="0%" y="0%" width="100%" height="100%">
  <feColorMatrix type="matrix" in="SourceGraphic" values="0 0 0 0 1 0 0 0 0 1 0 0 0 0 1 0 0 0 1 0"/>
</filter>
<mask id="mask0">
  <g filter="url(#alpha)">
<rect x="0" y="0" width="12" height="12" style="fill:rgb(0%,0%,0%);fill-opacity:0.301961;stroke:none;"/>
  </g>
</mask>
<clipPath id="clip1">
  <rect width="12" height="12"/>
</clipPath>
<g id="surface6" clip-path="url(#clip1)">
<path style=" stroke:none;fill-rule:nonzero;fill:rgb(36.078431%,38.039216%,42.352941%);fill-opacity:1;" d="M 6 2.453125 C 5.09375 2.453125 4.363281 3.183594 4.363281 4.089844 L 7.636719 4.089844 C 7.636719 3.183594 6.90625 2.453125 6 2.453125 Z M 3.730469 7.363281 C 2.734375 8.011719 2.726562 9 2.726562 9 L 2.726562 9.546875 L 9.273438 9.546875 L 9.273438 9 C 9.273438 9 9.265625 8.011719 8.269531 7.363281 Z M 3.730469 7.363281 "/>
</g>
</defs>
<g id="surface1">
<path style=" stroke:none;fill-rule:nonzero;fill:rgb(36.078431%,38.039216%,42.352941%);fill-opacity:1;" d="M 3.273438 4.636719 C 2.667969 4.636719 2.183594 5.121094 2.183594 5.726562 C 2.183594 6.328125 2.667969 6.816406 3.273438 6.816406 C 3.878906 6.816406 4.363281 6.328125 4.363281 5.726562 C 4.363281 5.121094 3.878906 4.636719 3.273438 4.636719 Z M 6 4.636719 C 5.394531 4.636719 4.910156 5.121094 4.910156 5.726562 C 4.910156 6.328125 5.394531 6.816406 6 6.816406 C 6.605469 6.816406 7.089844 6.328125 7.089844 5.726562 C 7.089844 5.121094 6.605469 4.636719 6 4.636719 Z M 8.726562 4.636719 C 8.121094 4.636719 7.636719 5.121094 7.636719 5.726562 C 7.636719 6.328125 8.121094 6.816406 8.726562 6.816406 C 9.332031 6.816406 9.816406 6.328125 9.816406 5.726562 C 9.816406 5.121094 9.332031 4.636719 8.726562 4.636719 Z M 8.726562 4.636719 "/>
<use xlink:href="#surface6" mask="url(#mask0)"/>
</g>
</svg>
