<?xml version="1.0" encoding="UTF-8"?>
<svg xmlns="http://www.w3.org/2000/svg" xmlns:xlink="http://www.w3.org/1999/xlink" width="12pt" height="12pt" viewBox="0 0 12 12" version="1.1">
<g id="surface1">
<path style=" stroke:none;fill-rule:nonzero;fill:rgb(36.078431%,38.039216%,42.352941%);fill-opacity:1;" d="M 6.546875 2.183594 C 7.453125 2.183594 8.183594 2.910156 8.183594 3.816406 L 8.183594 4.910156 L 9.273438 4.910156 L 7.636719 7.089844 L 6 4.910156 L 7.089844 4.910156 L 7.089844 3.816406 C 7.089844 3.515625 6.847656 3.273438 6.546875 3.273438 L 4.363281 3.273438 C 4.0625 3.273438 3.816406 3.515625 3.816406 3.816406 L 3.816406 8.183594 C 3.816406 8.484375 4.0625 8.726562 4.363281 8.726562 L 6 8.726562 L 6 9.816406 L 4.363281 9.816406 C 3.457031 9.816406 2.726562 9.089844 2.726562 8.183594 L 2.726562 3.816406 C 2.726562 2.910156 3.457031 2.183594 4.363281 2.183594 Z M 6.546875 2.183594 "/>
</g>
</svg>
