<?xml version="1.0" encoding="UTF-8"?>
<svg xmlns="http://www.w3.org/2000/svg" xmlns:xlink="http://www.w3.org/1999/xlink" width="12pt" height="12pt" viewBox="0 0 12 12" version="1.1">
<g id="surface1">
<path style=" stroke:none;fill-rule:nonzero;fill:rgb(32.156863%,58.039216%,88.627451%);fill-opacity:1;" d="M 5.453125 5.183594 L 5.453125 7.363281 L 5.589844 8.453125 L 6.410156 8.453125 L 6.546875 7.363281 L 6.546875 5.183594 Z M 5.453125 9 L 5.453125 10.089844 L 6.546875 10.089844 L 6.546875 9 Z M 5.453125 9 "/>
<path style=" stroke:none;fill-rule:nonzero;fill:rgb(36.078431%,38.039216%,42.352941%);fill-opacity:1;" d="M 6 1.910156 C 4.871094 1.910156 3.910156 2.601562 3.496094 3.578125 C 2.445312 3.738281 1.636719 4.636719 1.636719 5.726562 C 1.636719 6.933594 2.613281 7.910156 3.816406 7.910156 L 4.910156 7.910156 L 4.910156 4.636719 L 7.089844 4.636719 L 7.089844 7.910156 L 8.453125 7.910156 C 9.507812 7.910156 10.363281 7.050781 10.363281 6 C 10.363281 5.019531 9.628906 4.214844 8.679688 4.105469 C 8.425781 2.859375 7.324219 1.910156 6 1.910156 Z M 6 1.910156 "/>
</g>
</svg>
