<?xml version="1.0" encoding="UTF-8"?>
<svg xmlns="http://www.w3.org/2000/svg" xmlns:xlink="http://www.w3.org/1999/xlink" width="12pt" height="12pt" viewBox="0 0 12 12" version="1.1">
<g id="surface1">
<path style=" stroke:none;fill-rule:nonzero;fill:rgb(36.078431%,38.039216%,42.352941%);fill-opacity:1;" d="M 6 1.636719 C 4.871094 1.636719 3.910156 2.328125 3.496094 3.304688 C 2.445312 3.464844 1.636719 4.359375 1.636719 5.453125 C 1.636719 5.851562 1.746094 6.222656 1.929688 6.546875 L 1.921875 6.546875 C 2.226562 7.074219 2.75 7.460938 3.367188 7.585938 L 4.636719 6.316406 L 5.589844 7.269531 C 5.6875 7.003906 5.832031 6.757812 6.023438 6.566406 L 7.363281 5.226562 L 8.707031 6.566406 C 8.945312 6.808594 9.125 7.117188 9.210938 7.46875 L 9.222656 7.46875 L 9.230469 7.460938 L 9.234375 7.460938 L 9.238281 7.457031 C 9.90625 7.15625 10.363281 6.5 10.363281 5.726562 C 10.363281 4.746094 9.628906 3.945312 8.679688 3.835938 C 8.425781 2.585938 7.324219 1.636719 6 1.636719 Z M 6 1.636719 "/>
<path style=" stroke:none;fill-rule:nonzero;fill:rgb(36.078431%,38.039216%,42.352941%);fill-opacity:1;" d="M 7.363281 6 L 6.410156 6.953125 C 6.164062 7.199219 6 7.53125 6 7.910156 C 6 8.65625 6.617188 9.273438 7.363281 9.273438 C 8.109375 9.273438 8.726562 8.65625 8.726562 7.910156 C 8.726562 7.53125 8.5625 7.199219 8.316406 6.953125 Z M 4.636719 7.089844 L 3.683594 8.046875 C 3.4375 8.289062 3.273438 8.625 3.273438 9 C 3.273438 9.746094 3.890625 10.363281 4.636719 10.363281 C 5.382812 10.363281 6 9.746094 6 9 C 6 8.625 5.835938 8.289062 5.589844 8.046875 Z M 4.636719 7.089844 "/>
</g>
</svg>
