<?xml version="1.0" encoding="UTF-8" standalone="no"?>
<svg
   xmlns:dc="http://purl.org/dc/elements/1.1/"
   xmlns:cc="http://creativecommons.org/ns#"
   xmlns:rdf="http://www.w3.org/1999/02/22-rdf-syntax-ns#"
   xmlns:svg="http://www.w3.org/2000/svg"
   xmlns="http://www.w3.org/2000/svg"
   xmlns:sodipodi="http://sodipodi.sourceforge.net/DTD/sodipodi-0.dtd"
   xmlns:inkscape="http://www.inkscape.org/namespaces/inkscape"
   height="32"
   width="32"
   version="1"
   id="svg20"
   sodipodi:docname="AdobePhotoshop.svg"
   inkscape:version="0.92.1 r">
  <metadata
     id="metadata26">
    <rdf:RDF>
      <cc:Work
         rdf:about="">
        <dc:format>image/svg+xml</dc:format>
        <dc:type
           rdf:resource="http://purl.org/dc/dcmitype/StillImage" />
      </cc:Work>
    </rdf:RDF>
  </metadata>
  <defs
     id="defs24" />
  <sodipodi:namedview
     pagecolor="#ffffff"
     bordercolor="#666666"
     borderopacity="1"
     objecttolerance="10"
     gridtolerance="10"
     guidetolerance="10"
     inkscape:pageopacity="0"
     inkscape:pageshadow="2"
     inkscape:window-width="1680"
     inkscape:window-height="965"
     id="namedview22"
     showgrid="false"
     inkscape:zoom="7.375"
     inkscape:cx="-10.711864"
     inkscape:cy="16"
     inkscape:window-x="0"
     inkscape:window-y="0"
     inkscape:window-maximized="1"
     inkscape:current-layer="svg20" />
  <rect
     style="opacity:1;fill:#444e83;fill-opacity:1;fill-rule:evenodd;stroke:none;stroke-width:1.03534329;stroke-linecap:round;stroke-linejoin:bevel;stroke-miterlimit:4;stroke-dasharray:none;stroke-dashoffset:0;stroke-opacity:1"
     id="rect4497-3"
     width="28.203388"
     height="28.203388"
     x="1.8983059"
     y="1.8983059"
     ry="5.575182" />
  <g
     id="g4512"
     transform="translate(44.746062,3.2540402)">
    <path
       style="fill:#1c83ab"
       inkscape:connector-curvature="0"
       id="path6"
       d="m -37.745663,5.8032627 c 0,0 2.101,-0.057498 3.8306,-0.057498 2.4,0 5.169,0.8 5.169,5.0000003 0,4.2 -2.7692,5 -5.1693,4.9857 -0.53113,0.02316 -0.83063,0.02869 -0.83063,0.02869 v 3.986 h -3 z m 2.9998,7.9373003 c 0.30505,0.03088 0.30415,0.01602 0.7563,0.01037 1.506,-0.019 2.244,-1.664 2.244,-3.105 0,-1.2940003 -0.574,-2.8450003 -2.02,-2.9000003 -0.577,-0.022 -0.9801,0 -0.9801,0 z" />
    <g
       style="fill:#1c83ab"
       id="g14"
       transform="matrix(0.1071,0,0,0.11654,-44.112023,-4.1070873)">
      <path
         inkscape:connector-curvature="0"
         id="path12"
         d="m 162.15,178.93 c 5.109,3.135 14.876,8.5808 23.094,8.5808 8.396,0 14.252,-4.7723 14.252,-9.3853 0,-4.619 -1.5608,-10.288 -11.968,-13.796 -18.439,-6.279 -25.559,-13.795 -25.375,-24.315 0,-16.991 14.238,-29.731 36.328,-29.731 10.352,0 24.357,8.5808 24.357,8.5808 v 17.162 c -4.019,-2.218 -15.777,-8.5808 -23.443,-8.5808 -6.758,0 -13.479,4.9994 -13.479,9.6124 0,5.9349 6.3605,6.464 17.313,10.344 16.976,5.908 24.096,14.584 24.277,27.879 0,16.805 -12.954,30.168 -38.701,29.357 -8.835,-0.278 -19.901,-4.8568 -26.656,-8.5458 -1.9e-4,-6.7093 -1.4e-4,-10.452 0.001,-17.162 z" />
    </g>
  </g>
</svg>
