<?xml version="1.0" encoding="UTF-8" standalone="no"?>
<svg
   xmlns:dc="http://purl.org/dc/elements/1.1/"
   xmlns:cc="http://creativecommons.org/ns#"
   xmlns:rdf="http://www.w3.org/1999/02/22-rdf-syntax-ns#"
   xmlns:svg="http://www.w3.org/2000/svg"
   xmlns="http://www.w3.org/2000/svg"
   xmlns:sodipodi="http://sodipodi.sourceforge.net/DTD/sodipodi-0.dtd"
   xmlns:inkscape="http://www.inkscape.org/namespaces/inkscape"
   height="32"
   width="32"
   version="1"
   id="svg12"
   sodipodi:docname="anjuta.svg"
   inkscape:version="0.92.1 r">
  <metadata
     id="metadata18">
    <rdf:RDF>
      <cc:Work
         rdf:about="">
        <dc:format>image/svg+xml</dc:format>
        <dc:type
           rdf:resource="http://purl.org/dc/dcmitype/StillImage" />
      </cc:Work>
    </rdf:RDF>
  </metadata>
  <defs
     id="defs16" />
  <sodipodi:namedview
     pagecolor="#ffffff"
     bordercolor="#666666"
     borderopacity="1"
     objecttolerance="10"
     gridtolerance="10"
     guidetolerance="10"
     inkscape:pageopacity="0"
     inkscape:pageshadow="2"
     inkscape:window-width="1680"
     inkscape:window-height="963"
     id="namedview14"
     showgrid="false"
     inkscape:zoom="7.375"
     inkscape:cx="-8.6779661"
     inkscape:cy="16"
     inkscape:window-x="0"
     inkscape:window-y="0"
     inkscape:window-maximized="1"
     inkscape:current-layer="svg12" />
  <rect
     style="opacity:1;fill:#865e90;fill-opacity:1;fill-rule:evenodd;stroke:none;stroke-width:1.03534329;stroke-linecap:round;stroke-linejoin:bevel;stroke-miterlimit:4;stroke-dasharray:none;stroke-dashoffset:0;stroke-opacity:1"
     id="rect4497-3"
     width="28.203388"
     height="28.203388"
     x="1.8983059"
     y="1.8983059"
     ry="5.575182" />
  <path
     d="m 9.0009939,14.495983 c -0.4558,-0.136 -2.001,1 -2.001,1 0.82022,-3.0347 6.0030001,-5.9975996 6.0030001,-5.9975996 -0.50081,-0.18479 -3.0015,0 -3.0015,0 3.6907,-3.5864 9.0046,-1.9992 9.0046,-1.9992 0.13592,-0.78296 2.001,-1.9992 2.001,-1.9992 -0.22846,0.2286 0,1.4994 0,1.4994 0.22793,-0.41443 1.0005,-0.49944 1.0005,-0.49944 -0.40984,0.96509 -0.38334,2.909 -0.38334,2.909 1.1841,1.1968996 2.5051,5.3386996 2.5051,5.3386996 l 0.50236,0.73596 c 0.63778,0.92128 0.37842,2.3659 -0.25361,2.709 -1.7712,1.0589 -2.5719,-1.0513 -2.5719,-1.0513 -1.9593,-0.2302 -3.8006,-2.6449 -3.8006,-2.6449 -2.489,1.4052 0.32675,5.864 1.4675,7.3592 1.4653,1.9165 -0.46695,4.636 -0.46695,4.636 0,0 -5.0025,0.35197 -8.7504,-3.4972 -1.8455001,-1.977 -3.2560001,-4.184 -1.2550001,-8.499 z"
     id="path6"
     inkscape:connector-curvature="0"
     style="fill:#a1a1d7" />
</svg>
