<?xml version="1.0" encoding="UTF-8" standalone="no"?>
<svg
   xmlns:dc="http://purl.org/dc/elements/1.1/"
   xmlns:cc="http://creativecommons.org/ns#"
   xmlns:rdf="http://www.w3.org/1999/02/22-rdf-syntax-ns#"
   xmlns:svg="http://www.w3.org/2000/svg"
   xmlns="http://www.w3.org/2000/svg"
   xmlns:sodipodi="http://sodipodi.sourceforge.net/DTD/sodipodi-0.dtd"
   xmlns:inkscape="http://www.inkscape.org/namespaces/inkscape"
   height="32"
   width="32"
   version="1"
   id="svg14"
   sodipodi:docname="applications-electronics.svg"
   inkscape:version="0.92.2 2405546, 2018-03-11">
  <metadata
     id="metadata20">
    <rdf:RDF>
      <cc:Work
         rdf:about="">
        <dc:format>image/svg+xml</dc:format>
        <dc:type
           rdf:resource="http://purl.org/dc/dcmitype/StillImage" />
        <dc:title></dc:title>
      </cc:Work>
    </rdf:RDF>
  </metadata>
  <defs
     id="defs18" />
  <sodipodi:namedview
     pagecolor="#ffffff"
     bordercolor="#666666"
     borderopacity="1"
     objecttolerance="10"
     gridtolerance="10"
     guidetolerance="10"
     inkscape:pageopacity="0"
     inkscape:pageshadow="2"
     inkscape:window-width="1680"
     inkscape:window-height="972"
     id="namedview16"
     showgrid="false"
     inkscape:zoom="11.313709"
     inkscape:cx="25.293121"
     inkscape:cy="11.191638"
     inkscape:window-x="0"
     inkscape:window-y="0"
     inkscape:window-maximized="1"
     inkscape:current-layer="svg14"
     showguides="true"
     inkscape:guide-bbox="true" />
  <rect
     style="opacity:1;fill:#56a157;fill-opacity:1;fill-rule:evenodd;stroke:none;stroke-width:1.03534329;stroke-linecap:round;stroke-linejoin:bevel;stroke-miterlimit:4;stroke-dasharray:none;stroke-dashoffset:0;stroke-opacity:1"
     id="rect4497-3-5"
     width="28.203388"
     height="28.203388"
     x="1.8983059"
     y="1.8983059"
     ry="5.575182" />
  <path
     style="fill:#f9f9f9;fill-opacity:1;stroke-width:0.03228034"
     d="m 11.578282,28.018726 c 0.545581,-0.245161 0.717349,-0.989817 0.329355,-1.427558 l -0.121491,-0.137081 0.01075,0.260832 c 0.01517,0.377235 -0.03765,0.592116 -0.182528,0.744439 -0.205271,0.215537 -0.501562,0.246164 -0.758579,0.07842 -0.193484,-0.126279 -0.246061,-0.279603 -0.246942,-0.71956 v -0.368779 l -0.08138,0.07648 c -0.149808,0.140726 -0.254816,0.406385 -0.253984,0.642719 0,0.430629 0.25687,0.767347 0.690449,0.910108 0.128631,0.04236 0.459304,0.01016 0.615324,-0.06 z m 3.089682,0.03902 c 0.225128,-0.06686 0.416411,-0.22192 0.536581,-0.434958 0.09038,-0.160201 0.100113,-0.204342 0.09977,-0.451924 -3.91e-4,-0.292216 -0.04451,-0.417619 -0.222633,-0.629469 l -0.08133,-0.09684 v 0.355084 c -0.0048,0.490866 -0.09552,0.680212 -0.395282,0.805469 -0.156705,0.06546 -0.269244,0.06213 -0.43446,-0.01286 -0.282155,-0.128082 -0.358649,-0.294701 -0.363931,-0.792584 l -0.0048,-0.355086 -0.09454,0.110578 c -0.145504,0.170184 -0.205172,0.321479 -0.219503,0.556541 -0.02593,0.423019 0.181061,0.761792 0.558785,0.915147 0.22508,0.09139 0.390784,0.09964 0.622173,0.03091 z m 3.258319,-0.01956 c 0.3878,-0.1428 0.610433,-0.495898 0.58417,-0.926527 -0.01419,-0.235062 -0.074,-0.386357 -0.219505,-0.556541 l -0.09454,-0.110578 -0.0048,0.355086 c -0.0054,0.497883 -0.08177,0.664501 -0.363882,0.792584 -0.170057,0.0772 -0.293748,0.07768 -0.458132,0.002 -0.284552,-0.13134 -0.37073,-0.316833 -0.372343,-0.801448 v -0.348051 l -0.08133,0.09684 c -0.177883,0.211849 -0.222194,0.337252 -0.222633,0.629468 -3.43e-4,0.247856 0.0093,0.29147 0.09988,0.451123 0.122028,0.215151 0.277021,0.345616 0.503567,0.42386 0.226058,0.07808 0.402718,0.07593 0.629704,-0.0077 z m 3.286345,-0.03697 c 0.32901,-0.168066 0.511049,-0.463966 0.512321,-0.832574 0,-0.236333 -0.104222,-0.501993 -0.253985,-0.642718 l -0.08143,-0.07648 v 0.368779 c 0,0.439956 -0.05346,0.593281 -0.246942,0.71956 -0.257017,0.167752 -0.553307,0.137126 -0.758529,-0.07841 -0.145065,-0.152322 -0.19774,-0.367204 -0.182578,-0.74444 l 0.01075,-0.260831 -0.121,0.136539 c -0.190306,0.214716 -0.260784,0.531205 -0.183117,0.822328 0.04206,0.157021 0.196664,0.391442 0.329403,0.498969 0.255402,0.20688 0.671374,0.244927 0.976028,0.08927 z m -9.79012,-0.698519 0.105404,-0.09414 0.0098,-0.729019 0.0098,-0.729013 h 0.145015 c 0.11092,0 0.163649,-0.01864 0.224248,-0.07923 l 0.07923,-0.07923 V 24.78213 23.972186 l -0.07923,-0.07923 c -0.07884,-0.07886 -0.08222,-0.07923 -0.727767,-0.07923 -0.64555,0 -0.648925,3.67e-4 -0.727766,0.07923 l -0.07923,0.07923 v 0.777801 c 0,0.972669 0.0048,0.980816 0.355081,1.007981 l 0.112975,0.0087 0.01613,0.737239 0.01613,0.737235 0.09058,0.07785 c 0.131321,0.112868 0.312285,0.106313 0.449622,-0.01629 z m 3.195715,1e-5 0.105452,-0.09412 0.01613,-0.720954 0.01613,-0.720957 0.151324,-0.01741 c 0.288662,-0.03321 0.284455,-0.01878 0.284455,-0.969807 v -0.831946 l -0.08505,-0.0669 c -0.07962,-0.06261 -0.125697,-0.06684 -0.71823,-0.06587 -0.446784,4.89e-4 -0.648289,0.01262 -0.684433,0.04035 -0.115373,0.08858 -0.126331,0.169945 -0.126331,0.938574 v 0.758231 l 0.08217,0.09761 c 0.06646,0.07901 0.111073,0.09947 0.23403,0.107388 l 0.151911,0.0098 0.0078,0.694027 c 0.0083,0.738987 0.02152,0.809211 0.168345,0.888957 0.137141,0.07461 0.278831,0.05782 0.396163,-0.04695 z m 3.153605,0.0469 c 0.05023,-0.02597 0.103975,-0.07318 0.119387,-0.104908 0.01517,-0.03174 0.03521,-0.37726 0.04402,-0.767852 l 0.01613,-0.710169 0.151911,-0.0098 c 0.122958,-0.0079 0.167562,-0.02837 0.23403,-0.107388 l 0.08217,-0.09761 v -0.758232 c 0,-0.76863 -0.01075,-0.849995 -0.126331,-0.938574 -0.03619,-0.02773 -0.237649,-0.03962 -0.684433,-0.04035 -0.592533,-9.77e-4 -0.638605,0.0034 -0.718229,0.06587 l -0.08505,0.0669 v 0.831942 c 0,0.951047 -0.0048,0.936613 0.284455,0.969808 l 0.151324,0.01741 0.01613,0.720959 0.01613,0.720953 0.105451,0.09412 c 0.118604,0.1059 0.248507,0.121417 0.392593,0.0469 z m 3.252744,-0.03062 0.09058,-0.07785 0.01613,-0.737236 0.01613,-0.737239 0.112975,-0.0087 c 0.352242,-0.02714 0.355079,-0.03532 0.355079,-1.007981 v -0.777799 l -0.07923,-0.07923 c -0.07884,-0.07886 -0.08222,-0.07923 -0.727767,-0.07923 -0.645549,0 -0.648924,3.68e-4 -0.727765,0.07923 l -0.07923,0.07923 v 0.809942 0.809944 l 0.07923,0.07923 c 0.06059,0.0606 0.113317,0.07923 0.224248,0.07923 h 0.145015 l 0.0098,0.729014 0.0098,0.729018 0.105451,0.09414 c 0.137288,0.122606 0.318252,0.129165 0.449572,0.01629 z m 1.449419,-4.495996 C 22.64258,22.732791 22.7874,22.567749 22.85509,22.388698 22.904,22.259612 22.90757,21.733277 22.8996,15.953448 22.8913,9.8828994 22.88885,9.6547631 22.83054,9.5458028 22.74631,9.3876709 22.622188,9.2612216 22.471108,9.1796942 l -0.12912,-0.069675 h -6.34311 -6.34306 L 9.5236106,9.1807584 C 9.3550222,9.2709612 9.2102016,9.4360039 9.1425123,9.6150501 9.0936017,9.7441356 9.0900347,10.27047 9.0980074,16.050301 l 0.00886,6.294664 0.069698,0.129125 c 0.091171,0.168927 0.2192105,0.287453 0.3984125,0.368784 0.1448194,0.06575 0.1625245,0.06591 6.4560411,0.0584 l 6.310828,-0.0076 z M 11.431066,17.885509 c -1.041028,-0.167186 -1.5456225,-0.848151 -1.4914795,-2.012753 0.027875,-0.59488 0.1634525,-0.971148 0.4583745,-1.27053 0.347499,-0.352717 0.742585,-0.486282 1.436605,-0.485695 0.420764,3.62e-4 0.494177,0.0091 0.726299,0.08667 0.423845,0.141592 0.708154,0.375372 0.886231,0.728779 0.07327,0.145367 0.161352,0.502648 0.16233,0.658326 v 0.08877 h -0.559764 -0.559764 l -0.03815,-0.17005 c -0.07967,-0.356118 -0.264207,-0.507833 -0.617574,-0.507833 -0.228504,0 -0.369264,0.05217 -0.491292,0.182093 -0.146873,0.156451 -0.186881,0.327446 -0.186686,0.798445 2.45e-4,0.458174 0.02543,0.599189 0.137386,0.763425 0.125011,0.183679 0.228014,0.237934 0.478526,0.252087 0.417341,0.02358 0.639094,-0.129335 0.715441,-0.493321 l 0.03863,-0.183535 0.528657,0.0077 c 0.435682,0.0063 0.531886,0.01619 0.547244,0.05619 0.01028,0.02671 0,0.15001 -0.02006,0.274058 -0.100407,0.585563 -0.422623,0.958055 -0.984196,1.13775 -0.213244,0.06823 -0.340308,0.08627 -0.666924,0.09466 -0.221948,0.0057 -0.447077,0.0034 -0.500339,-0.0052 z m 8.01619,-0.0099 c -0.825829,-0.151153 -1.256816,-0.563843 -1.349938,-1.292616 -0.02104,-0.163689 -0.0313,-0.704144 -0.02593,-1.339639 l 0.0093,-1.065248 h 0.59718 0.597178 l 0.01613,1.226653 c 0.01613,1.226164 0.01613,1.226703 0.09376,1.351514 0.09904,0.159311 0.281717,0.244711 0.525528,0.245655 0.302747,9.78e-4 0.466054,-0.09429 0.578642,-0.338235 0.05444,-0.118019 0.05962,-0.23113 0.06031,-1.315424 v -1.186302 h 0.59718 0.597179 v 1.219869 c 0,1.296871 -0.01169,1.422758 -0.166438,1.74345 -0.148879,0.309198 -0.517115,0.580648 -0.949274,0.699722 -0.221461,0.06103 -0.953433,0.09238 -1.181643,0.0506 z m -5.223924,-1.873665 v -1.839977 h 1.126375 c 1.053011,0 1.140705,0.0044 1.345829,0.06777 0.185317,0.05724 0.250268,0.09864 0.41783,0.266309 0.267239,0.267488 0.347401,0.471508 0.350579,0.89257 0.0048,0.487173 -0.148242,0.821604 -0.475787,1.047182 -0.264988,0.182504 -0.406824,0.211751 -1.026843,0.211751 h -0.543624 v 0.597185 0.597188 h -0.59718 -0.597179 z m 1.939292,-0.32032 c 0.07982,-0.07982 0.09435,-0.119925 0.09435,-0.260362 0,-0.0913 -0.01565,-0.195339 -0.03473,-0.231179 -0.05649,-0.105557 -0.228796,-0.156548 -0.529,-0.156548 h -0.275406 v 0.371224 0.371226 h 0.325293 c 0.316491,0 0.327838,-0.0025 0.41964,-0.09436 z M 5.2350283,21.634272 c 0.089754,-0.04329 0.1975922,-0.115361 0.2396534,-0.160128 l 0.07649,-0.0814 h -0.382126 c -0.3489173,0 -0.393962,-0.007 -0.5192667,-0.08041 C 4.3062901,21.111025 4.2534205,20.660606 4.5411505,20.386613 4.695654,20.23949 4.9023433,20.188033 5.2768887,20.203429 l 0.2695868,0.0111 L 5.40997,20.093506 c -0.2296764,-0.203579 -0.5428893,-0.263874 -0.8684769,-0.16719 -0.2546207,0.07563 -0.5266524,0.351181 -0.6007009,0.608599 -0.2261555,0.785758 0.560057,1.453586 1.2942314,1.099382 z m 22.3200727,0.01291 c 0.187467,-0.08273 0.339379,-0.229863 0.445903,-0.432003 0.11288,-0.21413 0.120561,-0.570721 0.01712,-0.790869 -0.252273,-0.536591 -0.922913,-0.709088 -1.399091,-0.359839 -0.08828,0.06475 -0.160765,0.124996 -0.161058,0.133874 -2.94e-4,0.0089 0.119289,0.0111 0.26582,0.0051 0.37122,-0.01546 0.578301,0.03634 0.73251,0.183183 0.287733,0.273994 0.23491,0.724411 -0.108628,0.925717 -0.125256,0.07342 -0.170399,0.08041 -0.518681,0.08041 -0.381441,0 -0.381441,5e-6 -0.322065,0.0656 0.241316,0.266658 0.68898,0.347323 1.048169,0.188863 z M 8.1076506,21.539439 c 0.078888,-0.07886 0.07923,-0.08224 0.07923,-0.72777 0,-0.645536 -3.426e-4,-0.648911 -0.07923,-0.727777 l -0.07923,-0.07923 H 7.2184862 6.4085531 l -0.07923,0.07923 c -0.060604,0.0606 -0.07923,0.113318 -0.07923,0.224244 v 0.145014 l -0.7290376,0.0098 -0.7289892,0.0098 -0.094148,0.105415 C 4.5753029,20.71548 4.56875,20.896463 4.681784,21.027788 l 0.077813,0.09057 0.7352007,0.01613 0.7351523,0.01613 0.010748,0.112987 c 0.033745,0.353348 0.03032,0.352185 1.0035651,0.353788 l 0.7842565,0.0014 0.07923,-0.07923 z m 17.5117774,0.03022 c 0.09542,-0.04935 0.117581,-0.09874 0.137435,-0.306073 l 0.01075,-0.112987 0.735151,-0.01615 0.735201,-0.01613 0.07781,-0.09057 c 0.11288,-0.131326 0.106325,-0.312309 -0.01613,-0.449616 l -0.09415,-0.105415 -0.728988,-0.0098 -0.729039,-0.0098 v -0.145016 c 0,-0.110919 -0.01859,-0.163634 -0.07923,-0.224243 l -0.07923,-0.07923 H 24.779073 23.96914 l -0.07923,0.07923 c -0.07889,0.07886 -0.07923,0.08224 -0.07923,0.727776 0,0.645531 3.43e-4,0.648905 0.07923,0.727772 l 0.07923,0.07924 h 0.7778 c 0.632394,0 0.795505,-0.0091 0.872586,-0.04902 z M 5.1548663,18.470607 c 0.078592,-0.027 0.2010151,-0.0991 0.2720801,-0.160191 L 5.5560662,18.19933 5.2138507,18.198353 c -0.3809531,-0.0014 -0.5176534,-0.03453 -0.6545013,-0.15894 -0.112975,-0.102699 -0.2124119,-0.308358 -0.2124119,-0.439463 0,-0.124092 0.097183,-0.334861 0.1965162,-0.426174 0.1435485,-0.131932 0.2940421,-0.170936 0.6645279,-0.172174 l 0.3480846,-9.78e-4 -0.096841,-0.08131 C 5.2473522,16.741438 5.1219494,16.697082 4.829718,16.696671 c -0.2442031,-3.47e-4 -0.2933569,0.01016 -0.447225,0.09537 -0.3931304,0.217752 -0.5811366,0.682862 -0.4392027,1.086489 0.1021676,0.290554 0.3024044,0.505221 0.5555085,0.595541 0.1636501,0.0584 0.4815096,0.05692 0.6560663,-0.003 z m 22.4734517,-0.05779 c 0.188446,-0.110424 0.330477,-0.282826 0.411617,-0.499572 0.158319,-0.422774 -0.01761,-0.890022 -0.420275,-1.117228 -0.160226,-0.09036 -0.204341,-0.100101 -0.451919,-0.09976 -0.292231,4.15e-4 -0.417634,0.04475 -0.629459,0.222644 l -0.09684,0.08131 0.348037,9.78e-4 c 0.370485,0.0014 0.521027,0.04025 0.664526,0.172175 0.09933,0.09131 0.196517,0.302082 0.196517,0.426174 0,0.131105 -0.09938,0.336758 -0.212412,0.439462 -0.136847,0.124391 -0.273549,0.15759 -0.6545,0.158935 l -0.342168,9.78e-4 0.12912,0.111263 c 0.188838,0.16273 0.341678,0.209477 0.648582,0.19839 0.214613,-0.0078 0.287586,-0.0249 0.409173,-0.09617 z M 8.0357057,18.38533 c 0.1423249,-0.0758 0.1490738,-0.110719 0.1501498,-0.773173 0,-0.592543 -0.00484,-0.63864 -0.065883,-0.71824 l -0.066911,-0.08505 H 7.2211189 c -0.9510367,0 -0.936608,-0.0044 -0.9697682,0.284444 l -0.017611,0.15134 -0.720967,0.01613 -0.7209681,0.01613 -0.094101,0.105428 c -0.060155,0.06734 -0.094148,0.140789 -0.094148,0.203353 0,0.119916 0.074387,0.270833 0.1521553,0.308631 0.031796,0.0154 0.3772361,0.03536 0.767872,0.04427 l 0.7101584,0.01624 0.0098,0.151901 c 0.0078,0.122947 0.028371,0.167553 0.1073528,0.23403 l 0.09762,0.08214 h 0.7582363 c 0.5145234,0 0.7808821,-0.01208 0.8287639,-0.03756 z M 25.646378,18.34078 c 0.07898,-0.06647 0.09947,-0.111085 0.107352,-0.23403 l 0.0098,-0.151902 0.710208,-0.01624 c 0.390587,-0.0089 0.73608,-0.02886 0.767823,-0.04427 0.07777,-0.03781 0.152156,-0.188715 0.152156,-0.30863 0,-0.06256 -0.03424,-0.136012 -0.09415,-0.203354 l -0.0941,-0.105427 -0.720968,-0.01613 -0.720968,-0.01615 -0.01711,-0.151338 c -0.03326,-0.288681 -0.01858,-0.284445 -0.969816,-0.284445 h -0.831942 l -0.06691,0.08505 c -0.0626,0.0796 -0.06686,0.125697 -0.06588,0.71824 0,0.447038 0.01272,0.648108 0.04011,0.683948 0.08926,0.115207 0.160422,0.124801 0.932598,0.125794 l 0.764204,9.79e-4 0.09762,-0.08214 z M 5.2332176,15.234029 c 0.071021,-0.03731 0.1727472,-0.104483 0.226009,-0.149208 l 0.096841,-0.08131 -0.3480846,-9.79e-4 c -0.4845912,-0.0014 -0.6701028,-0.0878 -0.8014243,-0.372383 -0.075864,-0.164354 -0.075368,-0.288073 0,-0.458097 0.1281419,-0.282166 0.2947755,-0.358669 0.7926202,-0.363809 l 0.3550792,-0.0034 -0.1291198,-0.11131 c -0.1840931,-0.1587 -0.3914675,-0.220408 -0.6786613,-0.201974 -0.3821259,0.02451 -0.6521532,0.229188 -0.7907611,0.59937 -0.1823816,0.487109 0.066273,0.999481 0.5779087,1.190905 0.1678065,0.0628 0.535799,0.03781 0.6978345,-0.04734 z m 22.3910404,-0.02929 c 0.288563,-0.162089 0.479602,-0.48933 0.479602,-0.821496 0,-0.172898 -0.110246,-0.445879 -0.242442,-0.600319 -0.311991,-0.364465 -0.922131,-0.40681 -1.290856,-0.08959 l -0.129119,0.111085 0.342167,9.78e-4 c 0.380952,0.0014 0.517653,0.03453 0.6545,0.158936 0.113034,0.10271 0.212412,0.308357 0.212412,0.439462 0,0.124092 -0.09718,0.334861 -0.196517,0.426174 -0.143498,0.131917 -0.293992,0.171016 -0.658364,0.171016 -0.188055,0 -0.334391,0.01213 -0.325245,0.02689 0.0318,0.0519 0.275553,0.205956 0.397043,0.251241 0.204,0.07602 0.549249,0.04197 0.756819,-0.07463 z m -19.5042823,-0.0949 c 0.0626,-0.0796 0.066864,-0.125691 0.065883,-0.718239 0,-0.44678 -0.012721,-0.64826 -0.040099,-0.684399 -0.088573,-0.115373 -0.1699586,-0.126327 -0.938564,-0.126327 H 6.44895 l -0.09762,0.08214 c -0.078994,0.06647 -0.099427,0.111085 -0.1073528,0.234035 l -0.0098,0.151901 -0.7101585,0.01624 c -0.3906371,0.0089 -0.7361303,0.02886 -0.7678719,0.04427 -0.077766,0.03781 -0.1521566,0.188715 -0.1521566,0.308636 0,0.06256 0.034241,0.136006 0.094148,0.203353 l 0.094101,0.105416 0.7209682,0.01613 0.7209681,0.01614 0.017611,0.151339 c 0.033261,0.28868 0.018591,0.284444 0.9697682,0.284444 H 8.053497 Z m 17.5485083,0.01848 c 0.03326,-0.03658 0.06808,-0.134657 0.07767,-0.21789 l 0.01711,-0.151339 0.720968,-0.01613 0.720968,-0.01613 0.0941,-0.105416 c 0.06015,-0.06735 0.09415,-0.140789 0.09415,-0.203354 0,-0.119921 -0.07439,-0.270838 -0.152156,-0.308636 -0.0318,-0.0154 -0.377236,-0.03536 -0.767823,-0.04427 l -0.710208,-0.01624 -0.0098,-0.151901 c -0.0078,-0.122948 -0.02837,-0.167558 -0.107352,-0.234035 l -0.09762,-0.08214 h -0.758237 c -0.768604,0 -0.84999,0.01099 -0.938564,0.126327 -0.02788,0.03614 -0.03962,0.237619 -0.04011,0.684399 0,0.592547 0.0048,0.638644 0.06588,0.718238 l 0.06691,0.08505 h 0.831942 c 0.799223,0 0.834291,-0.0025 0.892149,-0.06656 z M 5.1102609,12.079801 c 0.092093,-0.02734 0.2226334,-0.101175 0.2997139,-0.169469 l 0.1365054,-0.121026 -0.2695868,0.0111 C 4.902348,11.815811 4.6956587,11.764361 4.5411553,11.617225 4.253424,11.343236 4.3062937,10.892814 4.6497837,10.691508 c 0.1253048,-0.07344 0.1703495,-0.08041 0.5192667,-0.08041 h 0.3821259 l -0.07649,-0.0814 C 5.2451564,10.285353 4.783896,10.203137 4.4585033,10.348578 3.7924116,10.646321 3.705451,11.554933 4.3040979,11.96172 c 0.2388715,0.162319 0.5190719,0.203368 0.8061677,0.118101 z m 22.4467961,-0.03913 c 0.179985,-0.08001 0.372295,-0.272399 0.461065,-0.461198 0.103443,-0.220154 0.09577,-0.576744 -0.01711,-0.790869 -0.174997,-0.331998 -0.467668,-0.511686 -0.835513,-0.512923 -0.236329,-9.79e-4 -0.502003,0.104176 -0.642714,0.25398 l -0.07649,0.0814 h 0.382126 c 0.348917,0 0.393962,0.007 0.519268,0.08041 0.343536,0.201305 0.396358,0.651727 0.108628,0.925716 -0.154503,0.147127 -0.361192,0.198586 -0.735738,0.183184 l -0.269587,-0.0111 0.136946,0.121402 c 0.07532,0.06677 0.203902,0.142898 0.285776,0.169171 0.190891,0.0613 0.496768,0.04377 0.683356,-0.03918 z M 8.1076506,11.919884 c 0.078888,-0.07886 0.07923,-0.08224 0.07923,-0.727772 0,-0.645535 -3.426e-4,-0.64891 -0.07923,-0.727776 l -0.07923,-0.07923 h -0.777803 c -0.9728498,0 -0.9761262,9.78e-4 -1.0100199,0.355085 l -0.010748,0.112975 -0.7351523,0.01613 -0.7351995,0.01613 -0.077813,0.09057 c -0.1128805,0.131331 -0.1063252,0.312315 0.016134,0.449616 l 0.094148,0.105428 0.7289892,0.0098 0.7290376,0.0098 v 0.145011 c 0,0.11092 0.018591,0.16364 0.07923,0.224243 l 0.07923,0.07924 H 7.218388 8.0283211 Z m 17.5604904,0 c 0.0606,-0.0606 0.07923,-0.113318 0.07923,-0.224244 v -0.145009 l 0.729038,-0.0098 0.728989,-0.0098 0.09415,-0.105427 c 0.122615,-0.137303 0.129169,-0.318286 0.01615,-0.449617 l -0.07781,-0.09057 -0.735201,-0.01613 -0.735151,-0.01615 -0.01075,-0.112975 c -0.03375,-0.353921 -0.03717,-0.355086 -1.01002,-0.355086 h -0.777801 l -0.07923,0.07923 c -0.07889,0.07886 -0.07923,0.08224 -0.07923,0.727776 0,0.64553 3.43e-4,0.648905 0.07923,0.72777 l 0.07923,0.07924 h 0.809934 0.809933 z M 11.916734,8.1108052 11.995966,8.0315726 V 7.2216294 6.4116861 l -0.07923,-0.079232 c -0.0606,-0.060608 -0.113318,-0.079232 -0.224248,-0.079232 h -0.145015 l -0.0098,-0.7290136 -0.0098,-0.7290134 -0.105404,-0.094135 C 11.285171,4.5784537 11.104208,4.571895 10.972886,4.684772 l -0.09058,0.077839 -0.01614,0.7372399 -0.01613,0.7372352 -0.112975,0.0087 c -0.352243,0.027145 -0.35508,0.035312 -0.35508,1.0079808 v 0.7777962 l 0.07923,0.079232 c 0.07884,0.078871 0.08222,0.079237 0.727767,0.079237 0.64555,0 0.648925,-3.717e-4 0.727766,-0.079237 z m 3.189944,0.012325 0.08505,-0.066903 v -0.831942 c 0,-0.9510458 0.0048,-0.9366079 -0.284455,-0.9698073 L 14.755952,6.2370669 14.739818,5.5161136 14.723684,4.7951603 14.618233,4.701035 C 14.550883,4.640901 14.477473,4.60691 14.414868,4.60691 c -0.119875,0 -0.270809,0.074396 -0.308614,0.1521364 -0.01565,0.031742 -0.03521,0.3772598 -0.0445,0.7678521 l -0.01614,0.7101689 -0.151912,0.00978 c -0.122956,0.00793 -0.167562,0.028367 -0.234029,0.1073847 l -0.08217,0.097607 v 0.7582366 c 0,0.7686299 0.01075,0.84999 0.126333,0.938574 0.03619,0.027732 0.237649,0.039616 0.684432,0.04035 0.592533,9.782e-4 0.638606,-0.00343 0.718229,-0.06588 z m 3.186765,0.02553 c 0.115372,-0.088584 0.126332,-0.1699443 0.126332,-0.938574 V 6.4518503 l -0.08217,-0.097607 C 18.271145,6.2752403 18.226532,6.2547723 18.10358,6.2468586 l -0.151912,-0.00978 -0.01614,-0.7101688 c -0.0089,-0.3905923 -0.02886,-0.7361249 -0.04402,-0.7678521 -0.06168,-0.1268163 -0.294041,-0.1877765 -0.448154,-0.1175578 -0.156166,0.071148 -0.168197,0.1286357 -0.185413,0.8854099 l -0.01613,0.7101688 -0.151325,0.017412 c -0.288661,0.03321 -0.284455,0.018781 -0.284455,0.9698073 v 0.8319424 l 0.08505,0.066903 c 0.07962,0.062614 0.125697,0.066839 0.718229,0.065881 0.446784,-4.891e-4 0.64829,-0.012618 0.684433,-0.04035 z m 3.242815,-0.037855 0.07923,-0.079232 V 7.2537773 c 0,-0.9726734 -0.0048,-0.9808166 -0.355079,-1.0079807 l -0.112975,-0.0087 -0.01613,-0.737235 -0.01613,-0.73724 -0.09058,-0.077839 C 20.893265,4.5719057 20.7123,4.5784645 20.575013,4.7010645 l -0.105451,0.094135 -0.0098,0.7290135 -0.0098,0.7290134 H 20.30494 c -0.11092,0 -0.163651,0.018635 -0.224248,0.079232 l -0.07923,0.079232 v 0.8099432 0.8099433 l 0.07923,0.079232 c 0.07884,0.078871 0.08222,0.079237 0.727765,0.079237 0.645551,0 0.648925,-3.717e-4 0.727767,-0.079237 z M 10.681927,4.6471365 c 0.178763,-0.3299011 0.664869,-0.3834858 0.932206,-0.1027582 0.145016,0.1523223 0.197739,0.3672041 0.182528,0.7444394 l -0.01075,0.2608368 0.121491,-0.1370872 C 12.295008,4.9752815 12.123972,4.2367357 11.576094,3.981817 11.355368,3.8791179 10.998576,3.8871389 10.785235,3.9996202 10.235204,4.2895235 10.099384,4.9722348 10.49765,5.4445786 l 0.0939,0.1113262 0.01663,-0.4018513 c 0.01222,-0.2982814 0.0313,-0.4289223 0.07356,-0.506898 z m 3.177081,0.056627 c 0.07904,-0.1807384 0.338744,-0.3528248 0.534821,-0.3543752 0.115573,-9.782e-4 0.307588,0.079589 0.406287,0.1703062 0.149612,0.1375272 0.19637,0.2988341 0.198375,0.6844182 v 0.3550795 l 0.08133,-0.09684 C 15.257707,5.250503 15.302018,5.1251051 15.302458,4.8328884 15.302801,4.5853011 15.293127,4.5411657 15.202688,4.3809641 15.037229,4.0876176 14.712228,3.896755 14.37818,3.896755 c -0.209184,0 -0.480433,0.1219694 -0.644278,0.2897224 -0.177638,0.1819073 -0.255892,0.3865085 -0.25242,0.6602277 0.0048,0.2368665 0.04255,0.3527076 0.191185,0.5570299 l 0.112975,0.1554573 0.0181,-0.3873643 c 0.0098,-0.2130478 0.03424,-0.4236793 0.05341,-0.4680644 z m 3.210536,-0.01614 c 0.10466,-0.1917137 0.33845,-0.339776 0.534087,-0.3382353 0.125108,9.782e-4 0.34603,0.1070811 0.434947,0.2088708 0.1188,0.1359965 0.150053,0.2670335 0.154064,0.6458536 l 0.0048,0.3550794 0.09454,-0.1105737 C 18.437578,5.2784298 18.497247,5.1271347 18.511577,4.892073 18.529672,4.5951023 18.455237,4.3835316 18.263559,4.1872401 18.001015,3.9184019 17.627742,3.8320433 17.284205,3.9606642 c -0.22684,0.084935 -0.378311,0.2150774 -0.494568,0.4249607 -0.08519,0.1537945 -0.09572,0.2031681 -0.09547,0.4472633 2.93e-4,0.290055 0.03032,0.3791672 0.206249,0.6110889 l 0.08398,0.1107403 0.01663,-0.3851243 c 0.01169,-0.2695426 0.03277,-0.414191 0.06955,-0.4819691 z m 3.131253,0.5979715 c -0.01517,-0.3738754 0.03767,-0.5891875 0.182578,-0.7412164 0.281373,-0.2955131 0.762785,-0.2261211 0.937684,0.13517 0.05747,0.1186826 0.06847,0.200434 0.06847,0.5081012 v 0.3666563 l 0.08143,-0.07647 c 0.14976,-0.1407308 0.254767,-0.4063849 0.253985,-0.6427232 0,-0.3678203 -0.180963,-0.6605164 -0.512958,-0.8355128 -0.213333,-0.1124612 -0.570124,-0.1204819 -0.790851,-0.017802 -0.545628,0.2538574 -0.717837,0.9807188 -0.337619,1.4249107 0.06417,0.074977 0.119192,0.1363583 0.122224,0.1364023 0.0048,2.45e-5 0,-0.115851 -0.0048,-0.2575353 z"
     id="path957"
     inkscape:connector-curvature="0"
     sodipodi:nodetypes="ccccccccccscccsscccccccccsccccccccccccccscccccccccccsccccccccscccccsccscccccccccccsccccsccccccccccccccscsccscccccccccccsccscccccsccccccsscccccccscccscccccscccccccscccsccsccssccccccccccccccccsccccccsssccscccccccscscccsccccsscscccccccsccsccscccscccccscccccccccccccccccccccccscccccsccsccccccsccccccsccccsccccscscccssccscccscccccscscsccsscscscscccccscccccccccsccccsccccccccscccccscsccccccsccscscscccccsccccccccscscsccsccccsccccsccscccscccccccsccscccccsccscccccccccsccccccscccccccccsccsccccccccccscccccccccsccscccsscccsscccsccscsccsccsccccccssccccccscccccccccscccccsccccccscccccccccccccscccccccccccccccccccccccccsccccsccc" />
</svg>
