<?xml version="1.0" encoding="UTF-8" standalone="no"?>
<svg
   xmlns:dc="http://purl.org/dc/elements/1.1/"
   xmlns:cc="http://creativecommons.org/ns#"
   xmlns:rdf="http://www.w3.org/1999/02/22-rdf-syntax-ns#"
   xmlns:svg="http://www.w3.org/2000/svg"
   xmlns="http://www.w3.org/2000/svg"
   xmlns:sodipodi="http://sodipodi.sourceforge.net/DTD/sodipodi-0.dtd"
   xmlns:inkscape="http://www.inkscape.org/namespaces/inkscape"
   height="32"
   width="32"
   version="1"
   id="svg20"
   sodipodi:docname="applications-utilities.svg"
   inkscape:version="0.92.1 r">
  <metadata
     id="metadata26">
    <rdf:RDF>
      <cc:Work
         rdf:about="">
        <dc:format>image/svg+xml</dc:format>
        <dc:type
           rdf:resource="http://purl.org/dc/dcmitype/StillImage" />
      </cc:Work>
    </rdf:RDF>
  </metadata>
  <defs
     id="defs24" />
  <sodipodi:namedview
     pagecolor="#ffffff"
     bordercolor="#666666"
     borderopacity="1"
     objecttolerance="10"
     gridtolerance="10"
     guidetolerance="10"
     inkscape:pageopacity="0"
     inkscape:pageshadow="2"
     inkscape:window-width="1680"
     inkscape:window-height="963"
     id="namedview22"
     showgrid="false"
     inkscape:zoom="10.429825"
     inkscape:cx="-21.266221"
     inkscape:cy="19.125551"
     inkscape:window-x="0"
     inkscape:window-y="0"
     inkscape:window-maximized="1"
     inkscape:current-layer="svg20" />
  <path
     style="opacity:1;fill:#4f4f4f;fill-opacity:1;fill-rule:evenodd;stroke:none;stroke-width:1.03534329;stroke-linecap:round;stroke-linejoin:bevel;stroke-miterlimit:4;stroke-dasharray:none;stroke-dashoffset:0;stroke-opacity:1"
     d="m 7.474609,1.8984375 c -3.08865,0 -5.5761711,2.4855679 -5.5761711,5.5742187 V 12.853516 C 2.012697,12.589229 1.951126,12.579242 2.1015619,12.304688 2.490523,11.594816 3.006213,10.883966 3.677734,10.351563 4.0134948,10.085361 4.3872768,9.8642689 4.8046878,9.7089844 5.2220979,9.5536999 5.6830519,9.4648437 6.1894529,9.4648437 c 0.642161,0 1.175539,0.1944212 1.630859,0.5371093 0.4553211,0.342688 0.8313391,0.832223 1.1542971,1.419922 0.645917,1.175398 1.082047,2.743126 1.525391,4.3125 0.443344,1.569373 0.89371,3.140337 1.570312,4.322265 0.338302,0.590964 0.734557,1.086008 1.212891,1.433594 0.478334,0.347586 1.040044,0.548157 1.712891,0.554687 0.83683,0.0081 1.634487,-0.248988 2.416015,-0.640625 0.781529,-0.391636 1.546929,-0.917115 2.314453,-1.443359 0.767525,-0.526243 1.537213,-1.053521 2.332032,-1.449219 0.794818,-0.395698 1.613153,-0.660156 2.476562,-0.660156 1.72682,0 3.19633,0.415076 4.232422,0.830078 0.842657,0.337523 1.155338,0.561518 1.333984,0.675781 V 7.4726562 c 0,-3.0886508 -2.485567,-5.5742187 -5.574218,-5.5742187 z"
     id="rect4497-3"
     inkscape:connector-curvature="0" />
  <rect
     y="18.760197"
     x="1.8985004"
     height="2"
     width="28.202999"
     style="opacity:1;fill:#000000;fill-opacity:0.25301206;stroke:#000000;stroke-width:0;stroke-linejoin:round"
     id="rect6" />
  <rect
     y="6.1762114"
     x="1.8985004"
     height="2"
     width="28.202999"
     style="opacity:1;fill:#000000;fill-opacity:0.25301206;stroke:#000000;stroke-width:0;stroke-linejoin:round"
     id="rect8" />
  <rect
     style="opacity:1;fill:#000000;fill-opacity:0.25301206;stroke:#000000;stroke-width:0;stroke-linejoin:round"
     width="28.202999"
     height="2"
     x="1.8985004"
     y="14.176211"
     id="rect10" />
  <rect
     style="opacity:1;fill:#000000;fill-opacity:0.25301206;stroke:#000000;stroke-width:0;stroke-linejoin:round"
     width="28.202999"
     height="2"
     x="1.8985004"
     y="10.176211"
     id="rect12" />
  <path
     style="opacity:1;fill:#47da72;fill-opacity:1;fill-rule:evenodd;stroke:none;stroke-width:1.03534329;stroke-linecap:round;stroke-linejoin:bevel;stroke-miterlimit:4;stroke-dasharray:none;stroke-dashoffset:0;stroke-opacity:1"
     d="m 30.101562,19.357421 c -0.178646,-0.114264 -0.491327,-0.338258 -1.333984,-0.675781 -1.036092,-0.415002 -2.505602,-0.830078 -4.232422,-0.830078 -0.863409,0 -1.681744,0.264458 -2.476562,0.660156 -0.794819,0.395698 -1.564507,0.922975 -2.332032,1.449219 -0.767524,0.526244 -1.532924,1.051723 -2.314453,1.443359 -0.781528,0.391637 -1.579185,0.648748 -2.416015,0.640625 -0.672847,-0.0065 -1.234557,-0.207101 -1.712891,-0.554687 C 12.804869,21.142648 12.408614,20.647604 12.070312,20.05664 11.39371,18.874712 10.943344,17.303748 10.5,15.734375 10.056656,14.165001 9.6205259,12.597273 8.974609,11.421875 8.651651,10.834176 8.275633,10.344641 7.8203119,10.001953 7.3649919,9.6592649 6.831614,9.4648437 6.1894529,9.4648437 c -0.506401,0 -0.967355,0.088856 -1.3847651,0.2441407 C 4.3872768,9.8642689 4.0134948,10.085361 3.677734,10.351563 3.006213,10.883966 2.490523,11.594816 2.1015619,12.304688 1.951126,12.579242 2.012697,12.589229 1.8984378,12.853516 V 24.52539 c 0,3.088651 2.4875211,5.576172 5.5761711,5.576172 H 24.527344 c 3.088651,0 5.574218,-2.487521 5.574218,-5.576172 z"
     id="path4534"
     inkscape:connector-curvature="0" />
  <path
     style="opacity:1;fill:#808080;stroke-width:1.00361848"
     d="m 6.8344181,5.4720605 c 4.9355259,0 3.2899259,11.9501665 8.4612939,11.9999995 3.215857,0.03099 5.847582,-4 9.165582,-4 3.317999,0 5.640206,1.583984 5.640206,1.583984 v 1 c 0,0 -2.322207,-1.583984 -5.640206,-1.583984 -3.318,0 -5.949725,4.03099 -9.165582,4 C 10.124344,18.42223 11.769944,6.4720605 6.8344181,6.4720605 c -3.892099,0 -4.935918,5.4160155 -4.935918,5.4160155 v -1 c 0,0 1.043819,-5.4160155 4.935918,-5.4160155 z"
     id="path18"
     inkscape:connector-curvature="0" />
</svg>
