<?xml version="1.0" encoding="UTF-8" standalone="no"?>
<svg
   xmlns:dc="http://purl.org/dc/elements/1.1/"
   xmlns:cc="http://creativecommons.org/ns#"
   xmlns:rdf="http://www.w3.org/1999/02/22-rdf-syntax-ns#"
   xmlns:svg="http://www.w3.org/2000/svg"
   xmlns="http://www.w3.org/2000/svg"
   xmlns:sodipodi="http://sodipodi.sourceforge.net/DTD/sodipodi-0.dtd"
   xmlns:inkscape="http://www.inkscape.org/namespaces/inkscape"
   height="32"
   width="32"
   version="1.1"
   viewBox="0 0 32 32"
   id="svg14"
   sodipodi:docname="armagetronad.svg"
   inkscape:version="0.92.1 r">
  <metadata
     id="metadata20">
    <rdf:RDF>
      <cc:Work
         rdf:about="">
        <dc:format>image/svg+xml</dc:format>
        <dc:type
           rdf:resource="http://purl.org/dc/dcmitype/StillImage" />
      </cc:Work>
    </rdf:RDF>
  </metadata>
  <defs
     id="defs18" />
  <sodipodi:namedview
     pagecolor="#ffffff"
     bordercolor="#666666"
     borderopacity="1"
     objecttolerance="10"
     gridtolerance="10"
     guidetolerance="10"
     inkscape:pageopacity="0"
     inkscape:pageshadow="2"
     inkscape:window-width="1680"
     inkscape:window-height="963"
     id="namedview16"
     showgrid="false"
     inkscape:zoom="7.375"
     inkscape:cx="-8.6779661"
     inkscape:cy="16"
     inkscape:window-x="0"
     inkscape:window-y="0"
     inkscape:window-maximized="1"
     inkscape:current-layer="svg14" />
  <rect
     style="opacity:1;fill:#e3ac33;fill-opacity:1;fill-rule:evenodd;stroke:none;stroke-width:1.03534329;stroke-linecap:round;stroke-linejoin:bevel;stroke-miterlimit:4;stroke-dasharray:none;stroke-dashoffset:0;stroke-opacity:1"
     id="rect4497-3"
     width="28.203388"
     height="28.203388"
     x="1.8983059"
     y="1.8983059"
     ry="5.575182" />
  <path
     style="fill:#383838;stroke-width:1.695979;stroke-linecap:round;stroke-linejoin:round"
     d="m 16.256697,6.0125001 c -0.09621,0.2866886 -0.185891,0.5383157 -0.291576,0.8872821 -0.350252,1.1565172 -0.683267,2.5779836 -0.679411,3.3831118 0.0036,0.768901 0.337354,2.134023 0.684992,3.243599 0.08912,0.2844 0.135226,0.394793 0.21066,0.616634 0.102639,-0.207592 0.148892,-0.32055 0.281812,-0.57478 0.564528,-1.079777 1.270953,-2.32505 2.060555,-3.122228 0.815077,-0.8229302 2.098376,-1.5688108 3.21291,-2.1651913 0.14189,-0.075925 0.233678,-0.1159035 0.368305,-0.1855475 A 10.000056,10.000056 0 0 0 16.256697,6.0125001 Z m -1.530422,0.080915 A 10.000056,10.000056 0 0 0 9.117986,8.7510754 c 0.133645,0.2676293 0.24782,0.5046256 0.418529,0.8231074 0.568645,1.0608872 1.333417,2.3005462 1.919652,2.8920362 0.581891,0.587099 1.865333,1.397649 2.968768,2.004754 0.168785,0.09286 0.284936,0.147943 0.438061,0.228798 -0.08786,-0.255463 -0.149593,-0.409027 -0.255302,-0.746379 -0.364335,-1.162699 -0.745206,-2.542896 -0.750564,-3.664919 -0.0055,-1.1582456 0.374408,-2.5932378 0.740797,-3.8030347 0.04664,-0.154068 0.08237,-0.2475363 0.128348,-0.3920232 z m 8.521254,3.0231755 c -0.271745,0.1351516 -0.513857,0.2511664 -0.83706,0.4241095 -1.065447,0.5701149 -2.305921,1.3392469 -2.872503,1.9112849 -0.541089,0.546303 -1.270671,1.747232 -1.809443,2.777637 -0.137638,0.263262 -0.182699,0.373457 -0.285993,0.583152 0.212475,-0.07164 0.355694,-0.127249 0.604078,-0.20508 1.162698,-0.364335 2.542896,-0.745206 3.664919,-0.750564 1.158246,-0.0055 2.593236,0.374409 3.803033,0.740797 0.154068,0.04664 0.247537,0.08237 0.392025,0.128351 A 10.000056,10.000056 0 0 0 23.247529,9.1165906 Z M 8.09538,9.8950548 A 10.000056,10.000056 0 0 0 6.0125,15.741907 c 0.282715,0.09432 0.529241,0.180659 0.87333,0.2846 1.152253,0.348066 2.569863,0.684069 3.402643,0.687783 0.8266,0.0036 2.307503,-0.331243 3.51704,-0.682202 0.129285,-0.03752 0.209559,-0.0669 0.329241,-0.103237 -0.140848,-0.0746 -0.243508,-0.12246 -0.396206,-0.206475 -1.149339,-0.632364 -2.470808,-1.41711 -3.296615,-2.25029 C 9.620482,12.643285 8.870017,11.358847 8.275348,10.24941 8.201908,10.112396 8.16287,10.025188 8.09538,9.8950548 Z M 21.717106,15.28571 c -0.768901,0.0036 -2.134023,0.337355 -3.243599,0.684993 -0.259892,0.08145 -0.400742,0.136585 -0.615239,0.209265 0.201304,0.09979 0.34216,0.162315 0.573385,0.283206 1.079777,0.564528 2.32505,1.270957 3.122228,2.060557 0.82293,0.815076 1.568811,2.098376 2.165191,3.212908 0.07593,0.141892 0.115904,0.233678 0.185546,0.368306 A 10.000056,10.000056 0 0 0 25.9875,16.256697 C 25.700811,16.160485 25.449184,16.070809 25.100218,15.965122 23.9437,15.61487 22.522234,15.281854 21.717106,15.28571 Z m -7.085698,1.98383 c -0.15252,0.04693 -0.259293,0.08531 -0.426899,0.133928 -1.259853,0.365557 -2.748535,0.744616 -3.921616,0.739402 -1.166905,-0.0051 -2.60642,-0.383775 -3.811406,-0.747774 -0.149012,-0.04503 -0.238161,-0.07983 -0.378072,-0.124161 a 10.000056,10.000056 0 0 0 2.65766,5.611079 c 0.267629,-0.133645 0.504626,-0.247818 0.823108,-0.418528 1.060886,-0.568646 2.300545,-1.333418 2.892036,-1.919653 0.587098,-0.581892 1.397649,-1.865333 2.004753,-2.968768 0.06485,-0.117868 0.102872,-0.197406 0.160436,-0.305525 z m 2.679983,0.23298 c 0.03221,0.106144 0.05868,0.177928 0.09207,0.292971 0.365557,1.259853 0.744617,2.748535 0.739402,3.921616 -0.0051,1.166904 -0.383777,2.606421 -0.747773,3.811406 -0.04503,0.149011 -0.07984,0.23816 -0.124163,0.378073 A 10.000056,10.000056 0 0 0 22.883403,23.24753 C 22.748252,22.975787 22.632239,22.733674 22.459295,22.410471 21.88918,21.345025 21.120049,20.104549 20.548011,19.537966 20.001708,18.996877 18.800778,18.267297 17.770374,17.728526 17.580506,17.629249 17.477703,17.58562 17.311387,17.50252 Z m -1.38254,0.362726 c -0.07285,0.138005 -0.122477,0.243535 -0.206476,0.396206 -0.632363,1.149339 -1.417108,2.470807 -2.25029,3.296615 -0.828802,0.821452 -2.113238,1.571917 -3.222676,2.166587 -0.137013,0.07345 -0.224222,0.112478 -0.354354,0.179967 a 10.000056,10.000056 0 0 0 5.846852,2.082879 c 0.09432,-0.282714 0.180658,-0.529242 0.284599,-0.87333 0.348067,-1.152254 0.684068,-2.569861 0.687784,-3.402643 0.0036,-0.8266 -0.331244,-2.307503 -0.682203,-3.51704 -0.03752,-0.129285 -0.06748,-0.212014 -0.103236,-0.329241 z"
     id="path6"
     inkscape:connector-curvature="0" />
  <circle
     r="4"
     cy="16"
     cx="16"
     style="fill:#cccccc;stroke-width:0.67838794;stroke-linecap:round;stroke-linejoin:round"
     id="circle10" />
</svg>
