<?xml version="1.0" encoding="UTF-8" standalone="no"?>
<svg
   xmlns:dc="http://purl.org/dc/elements/1.1/"
   xmlns:cc="http://creativecommons.org/ns#"
   xmlns:rdf="http://www.w3.org/1999/02/22-rdf-syntax-ns#"
   xmlns:svg="http://www.w3.org/2000/svg"
   xmlns="http://www.w3.org/2000/svg"
   xmlns:sodipodi="http://sodipodi.sourceforge.net/DTD/sodipodi-0.dtd"
   xmlns:inkscape="http://www.inkscape.org/namespaces/inkscape"
   width="32"
   height="32"
   version="1"
   id="svg18"
   sodipodi:docname="audio-recorder.svg"
   inkscape:version="0.92.1 r">
  <metadata
     id="metadata24">
    <rdf:RDF>
      <cc:Work
         rdf:about="">
        <dc:format>image/svg+xml</dc:format>
        <dc:type
           rdf:resource="http://purl.org/dc/dcmitype/StillImage" />
        <dc:title />
      </cc:Work>
    </rdf:RDF>
  </metadata>
  <defs
     id="defs22" />
  <sodipodi:namedview
     pagecolor="#ffffff"
     bordercolor="#666666"
     borderopacity="1"
     objecttolerance="10"
     gridtolerance="10"
     guidetolerance="10"
     inkscape:pageopacity="0"
     inkscape:pageshadow="2"
     inkscape:window-width="640"
     inkscape:window-height="480"
     id="namedview20"
     showgrid="false"
     inkscape:zoom="8.9375"
     inkscape:cx="-13.714352"
     inkscape:cy="18.06289"
     inkscape:current-layer="svg18" />
  <rect
     style="opacity:1;fill:#d1002f;fill-opacity:1;fill-rule:evenodd;stroke:none;stroke-width:1.03534329;stroke-linecap:round;stroke-linejoin:bevel;stroke-miterlimit:4;stroke-dasharray:none;stroke-dashoffset:0;stroke-opacity:1"
     id="rect4497-6-3"
     width="28.203388"
     height="28.203388"
     x="1.8983059"
     y="1.8983059"
     ry="5.575182" />
  <rect
     style="opacity:1;fill:#b81f04;fill-opacity:1;fill-rule:evenodd;stroke:none;stroke-width:1.03534329;stroke-linecap:round;stroke-linejoin:bevel;stroke-miterlimit:4;stroke-dasharray:none;stroke-dashoffset:0;stroke-opacity:1"
     id="rect4497-6-3-3"
     width="28.203388"
     height="28.203388"
     x="1.8983059"
     y="1.8983059"
     ry="5.575182" />
  <path
     style="fill:#ececec;stroke-width:1"
     d="m 12.989216,23.016968 c 0.03615,-0.116505 0.428165,-1.25246 0.462736,-1.340873 l 0.02444,-0.0625 h 1.012196 1.012189 l -0.0061,-0.789751 -0.0061,-0.789751 -0.215905,-0.03593 c -0.966847,-0.160926 -1.824274,-0.599217 -2.507117,-1.281568 -0.146623,-0.146522 -0.359374,-0.399951 -0.505386,-0.602025 -0.08384,-0.116037 -0.260137,-0.403574 -0.260137,-0.424288 0,-0.0051 -0.02329,-0.04744 -0.05174,-0.09407 -0.112829,-0.184883 -0.288201,-0.642695 -0.371766,-0.970493 -0.129804,-0.509184 -0.129125,-0.496115 -0.138266,-2.673848 l -0.0084,-2.014158 0.10378,-0.09135 c 0.07334,-0.06456 0.146301,-0.102858 0.24885,-0.130616 0.185221,-0.05014 0.321219,-0.02182 0.514289,0.107112 l 0.135106,0.09022 0.0012,1.787842 c 6.07e-4,0.983314 0.0054,1.828752 0.01019,1.87875 0.0049,0.05 0.01431,0.172723 0.02075,0.27272 0.05088,0.788984 0.388711,1.583027 0.911958,2.143618 0.416034,0.445731 0.951029,0.755909 1.612699,0.935006 0.231164,0.06257 0.689691,0.11447 1.011334,0.11447 0.321626,0 0.780109,-0.05189 1.011334,-0.114464 0.647418,-0.175199 1.11449,-0.439327 1.545414,-0.873925 0.599145,-0.604255 0.915123,-1.330987 0.98825,-2.272885 0.0097,-0.124996 0.01899,-1.045059 0.02062,-2.044583 l 0.003,-1.817317 0.0736,-0.07667 c 0.226489,-0.235923 0.55339,-0.233156 0.830286,0.0071 l 0.09762,0.08467 -0.0084,2.014343 c -0.0092,2.177936 -0.0085,2.164844 -0.138265,2.674033 -0.202362,0.793796 -0.629896,1.539022 -1.2113,2.111398 -0.681903,0.671311 -1.530093,1.103162 -2.473468,1.259353 l -0.227271,0.03763 -0.0061,0.789751 -0.0061,0.78975 0.937765,2.4e-5 0.93777,2.2e-5 0.252939,0.749946 0.252938,0.749946 h -2.960864 -2.96087 l 0.02996,-0.09659 z m 2.53267,-5.017642 C 15.329702,17.972506 15.009283,17.879309 14.812969,17.793143 14.27576,17.557362 13.819198,17.055608 13.62605,16.488738 13.472064,16.036803 13.450866,15.705614 13.459509,13.886537 l 0.0066,-1.397688 2.563601,-0.0058 2.563595,-0.0058 -0.0087,1.744367 c -0.0085,1.700117 -0.0099,1.749134 -0.05786,1.932242 -0.248771,0.951341 -0.825542,1.5373 -1.7539,1.781836 -0.236909,0.06241 -0.300683,0.06957 -0.681795,0.0766 -0.231243,0.0042 -0.487377,-0.0015 -0.569189,-0.01301 z m -2.058957,-6.436588 c 0.01777,-0.532375 0.03846,-0.702139 0.119368,-0.978862 0.241068,-0.8245348 0.845253,-1.4124428 1.641993,-1.5977558 0.56304,-0.130958 0.985388,-0.132748 1.525854,-0.0065 0.912394,0.213179 1.552188,0.856409 1.773733,1.7832488 0.03973,0.166096 0.05076,0.299883 0.06047,0.731658 l 0.01188,0.528395 h -2.57436 -2.574355 z"
     id="path4518"
     inkscape:connector-curvature="0" />
</svg>
