<?xml version="1.0" encoding="UTF-8" standalone="no"?>
<svg
   xmlns:dc="http://purl.org/dc/elements/1.1/"
   xmlns:cc="http://creativecommons.org/ns#"
   xmlns:rdf="http://www.w3.org/1999/02/22-rdf-syntax-ns#"
   xmlns:svg="http://www.w3.org/2000/svg"
   xmlns="http://www.w3.org/2000/svg"
   xmlns:sodipodi="http://sodipodi.sourceforge.net/DTD/sodipodi-0.dtd"
   xmlns:inkscape="http://www.inkscape.org/namespaces/inkscape"
   height="32"
   width="32"
   version="1"
   id="svg20"
   sodipodi:docname="chrome-gaedmjdfmmahhbjefcbgaolhhanlaolb-Default.svg"
   inkscape:version="0.92.1 r">
  <metadata
     id="metadata26">
    <rdf:RDF>
      <cc:Work
         rdf:about="">
        <dc:format>image/svg+xml</dc:format>
        <dc:type
           rdf:resource="http://purl.org/dc/dcmitype/StillImage" />
      </cc:Work>
    </rdf:RDF>
  </metadata>
  <defs
     id="defs24" />
  <sodipodi:namedview
     pagecolor="#ffffff"
     bordercolor="#666666"
     borderopacity="1"
     objecttolerance="10"
     gridtolerance="10"
     guidetolerance="10"
     inkscape:pageopacity="0"
     inkscape:pageshadow="2"
     inkscape:window-width="1680"
     inkscape:window-height="963"
     id="namedview22"
     showgrid="false"
     inkscape:zoom="7.375"
     inkscape:cx="-8.6779661"
     inkscape:cy="16"
     inkscape:window-x="0"
     inkscape:window-y="0"
     inkscape:window-maximized="1"
     inkscape:current-layer="svg20" />
  <rect
     style="opacity:1;fill:#e91e63;fill-opacity:1;fill-rule:evenodd;stroke:none;stroke-width:1.03534329;stroke-linecap:round;stroke-linejoin:bevel;stroke-miterlimit:4;stroke-dasharray:none;stroke-dashoffset:0;stroke-opacity:1"
     id="rect4497-3"
     width="28.203388"
     height="28.203388"
     x="1.8983059"
     y="1.8983059"
     ry="5.575182" />
  <g
     style="fill:#ff8bff;enable-background:new"
     transform="matrix(0.20113,0,0,0.20113,-25.415695,-44.554926)"
     id="g18">
    <path
       d="m 199.99,286.44 16.56,16.561 c 2.394,2.393 6.273,2.391 8.667,-0.002 2.395,-2.396 2.397,-6.275 0.003,-8.668 l -16.561,-16.562 c -11.85,-11.851 -31.001,-12.044 -43.104,-0.6 -0.111,0.094 -0.222,0.191 -0.326,0.295 -0.051,0.052 -0.099,0.105 -0.148,0.158 -0.052,0.05 -0.107,0.097 -0.157,0.146 -0.106,0.106 -0.2,0.215 -0.294,0.325 -11.445,12.105 -11.25,31.254 0.6,43.105 l 16.561,16.559 c 2.394,2.394 6.272,2.394 8.666,0 2.394,-2.396 2.396,-6.275 0.002,-8.667 l -16.56,-16.562 c -7.225,-7.225 -7.275,-18.949 -0.149,-26.24 7.289,-7.123 19.014,-7.074 26.24,0.152 z"
       id="path14"
       inkscape:connector-curvature="0" />
    <path
       d="m 221.37,264.39 c -2.394,2.394 -2.392,6.274 0.002,8.667 l 16.56,16.56 c 7.226,7.228 7.271,18.951 0.147,26.242 -7.29,7.122 -19.013,7.075 -26.239,-0.15 l -16.559,-16.561 c -2.394,-2.393 -6.277,-2.393 -8.671,0 -2.394,2.396 -2.394,6.279 0,8.672 l 16.56,16.56 c 11.851,11.851 31.002,12.044 43.102,0.6 0.111,-0.095 0.222,-0.188 0.327,-0.295 0.051,-0.053 0.097,-0.104 0.149,-0.155 0.051,-0.052 0.107,-0.1 0.159,-0.15 0.104,-0.106 0.196,-0.216 0.291,-0.327 11.447,-12.1 11.253,-31.251 -0.598,-43.102 l -16.558,-16.56 c -2.394,-2.395 -6.279,-2.395 -8.672,-0.001 z"
       id="path16"
       inkscape:connector-curvature="0" />
  </g>
</svg>
