<?xml version="1.0" encoding="UTF-8" standalone="no"?>
<svg
   xmlns:dc="http://purl.org/dc/elements/1.1/"
   xmlns:cc="http://creativecommons.org/ns#"
   xmlns:rdf="http://www.w3.org/1999/02/22-rdf-syntax-ns#"
   xmlns:svg="http://www.w3.org/2000/svg"
   xmlns="http://www.w3.org/2000/svg"
   xmlns:sodipodi="http://sodipodi.sourceforge.net/DTD/sodipodi-0.dtd"
   xmlns:inkscape="http://www.inkscape.org/namespaces/inkscape"
   height="32"
   width="32"
   version="1"
   id="svg48"
   sodipodi:docname="babe.svg"
   inkscape:version="0.92.1 r">
  <metadata
     id="metadata54">
    <rdf:RDF>
      <cc:Work
         rdf:about="">
        <dc:format>image/svg+xml</dc:format>
        <dc:type
           rdf:resource="http://purl.org/dc/dcmitype/StillImage" />
      </cc:Work>
    </rdf:RDF>
  </metadata>
  <defs
     id="defs52" />
  <sodipodi:namedview
     pagecolor="#ffffff"
     bordercolor="#666666"
     borderopacity="1"
     objecttolerance="10"
     gridtolerance="10"
     guidetolerance="10"
     inkscape:pageopacity="0"
     inkscape:pageshadow="2"
     inkscape:window-width="1680"
     inkscape:window-height="963"
     id="namedview50"
     showgrid="false"
     inkscape:zoom="7.375"
     inkscape:cx="-8.6779661"
     inkscape:cy="16"
     inkscape:window-x="0"
     inkscape:window-y="0"
     inkscape:window-maximized="1"
     inkscape:current-layer="svg48" />
  <rect
     style="opacity:1;fill:#f85b79;fill-opacity:1;fill-rule:evenodd;stroke:none;stroke-width:1.03534329;stroke-linecap:round;stroke-linejoin:bevel;stroke-miterlimit:4;stroke-dasharray:none;stroke-dashoffset:0;stroke-opacity:1"
     id="rect4497-3"
     width="28.203388"
     height="28.203388"
     x="1.8983059"
     y="1.8983059"
     ry="5.575182" />
  <path
     style="fill:#ffffff"
     d="m 9.5,7.5 v 2 h 3 v -2 z m 10,0 v 2 h 3 v -2 z m -15,2 v 2 h 3 v -2 z m 20,0 v 2 h 3 v -2 z m -10,1 v 2 h 3 v -2 z m -5,1 v 2 h 3 v -2 z m 10,0 v 2 h 3 v -2 z m -15,2 v 2 h 3 v -2 z m 20,0 v 2 h 3 v -2 z m -10,1 v 2 h 3 v -2 z m -5,1 v 2 h 3 v -2 z m 10,0 v 2 h 3 v -2 z m -15,2 v 2 h 3 v -2 z m 20,0 v 2 h 3 v -2 z m -10,1 v 2 h 3 v -2 z m -5,1 v 2 h 3 v -2 z m 10,0 v 2 h 3 v -2 z m -5,3 v 2 h 3 v -2 z"
     id="path44"
     inkscape:connector-curvature="0" />
</svg>
