<?xml version="1.0" encoding="UTF-8" standalone="no"?>
<svg
   xmlns:dc="http://purl.org/dc/elements/1.1/"
   xmlns:cc="http://creativecommons.org/ns#"
   xmlns:rdf="http://www.w3.org/1999/02/22-rdf-syntax-ns#"
   xmlns:svg="http://www.w3.org/2000/svg"
   xmlns="http://www.w3.org/2000/svg"
   xmlns:sodipodi="http://sodipodi.sourceforge.net/DTD/sodipodi-0.dtd"
   xmlns:inkscape="http://www.inkscape.org/namespaces/inkscape"
   height="32"
   width="32"
   version="1"
   id="svg14"
   sodipodi:docname="banshee-1.svg"
   inkscape:version="0.92.1 r">
  <metadata
     id="metadata20">
    <rdf:RDF>
      <cc:Work
         rdf:about="">
        <dc:format>image/svg+xml</dc:format>
        <dc:type
           rdf:resource="http://purl.org/dc/dcmitype/StillImage" />
      </cc:Work>
    </rdf:RDF>
  </metadata>
  <defs
     id="defs18" />
  <sodipodi:namedview
     pagecolor="#ffffff"
     bordercolor="#666666"
     borderopacity="1"
     objecttolerance="10"
     gridtolerance="10"
     guidetolerance="10"
     inkscape:pageopacity="0"
     inkscape:pageshadow="2"
     inkscape:window-width="1680"
     inkscape:window-height="965"
     id="namedview16"
     showgrid="false"
     inkscape:zoom="7.375"
     inkscape:cx="-1.6271186"
     inkscape:cy="16"
     inkscape:window-x="0"
     inkscape:window-y="0"
     inkscape:window-maximized="1"
     inkscape:current-layer="svg14" />
  <rect
     style="opacity:1;fill:#cccccc;fill-opacity:1;fill-rule:evenodd;stroke:none;stroke-width:1.03534329;stroke-linecap:round;stroke-linejoin:bevel;stroke-miterlimit:4;stroke-dasharray:none;stroke-dashoffset:0;stroke-opacity:1"
     id="rect4497-3"
     width="28.203388"
     height="28.203388"
     x="1.8983059"
     y="1.8983059"
     ry="5.575182" />
  <g
     id="g4505"
     transform="matrix(0.81920904,0,0,0.81920904,2.4830508,2.8926554)">
    <path
       style="fill:#ffffff"
       id="path2"
       d="M 16.5,9 C 10.683,9 6,13.683 6,19.5 6,25.317 10.683,30 16.5,30 22.317,30 27,25.317 27,19.5 27,13.683 22.317,9 16.5,9 Z"
       inkscape:connector-curvature="0" />
    <path
       id="path6"
       d="M 12.039,2 C 6.9991,2 7,7.9997 7,9.9199 7.72,9.1999 12,4.1595 12,8 c 0,2.663 -0.015,5.347 0,8 v 0.182 c 10e-4,0.021 0.007,0.041 0.008,0.062 a 4,4 0 0 0 0.074,0.539 c 0.019,0.097 0.038,0.193 0.064,0.287 0.006,0.022 0.016,0.042 0.022,0.063 a 4,4 0 0 0 0.133,0.383 c 0.038,0.093 0.077,0.185 0.123,0.275 a 4,4 0 0 0 0.258,0.436 c 0.041,0.061 0.084,0.12 0.129,0.179 a 4,4 0 0 0 0.377,0.434 c 0.035,0.035 0.072,0.068 0.109,0.101 a 4,4 0 0 0 0.498,0.393 c 0.022,0.014 0.044,0.027 0.066,0.041 a 4,4 0 0 0 0.619,0.322 c 0.008,0.003 0.015,0.005 0.022,0.008 A 4,4 0 0 0 15.221,19.922 4,4 0 0 0 16,20 4,4 0 0 0 16.756,19.924 c 0.036,-0.007 0.07,-0.016 0.105,-0.024 a 4,4 0 0 0 0.664,-0.207 c 0.013,-0.005 0.027,-0.01 0.039,-0.015 A 4,4 0 0 0 20,16 4,4 0 0 0 16,12 4,4 0 0 0 15,12.131 V 3.4395 C 15,1.9995 13.479,2 12.039,2 Z M 16,14 a 2,2 0 0 1 2,2 2,2 0 0 1 -2,2 2,2 0 0 1 -2,-2 2,2 0 0 1 2,-2 z"
       inkscape:connector-curvature="0"
       style="fill:#3c8cf8" />
  </g>
</svg>
