<?xml version="1.0" encoding="UTF-8" standalone="no"?>
<svg
   xmlns:dc="http://purl.org/dc/elements/1.1/"
   xmlns:cc="http://creativecommons.org/ns#"
   xmlns:rdf="http://www.w3.org/1999/02/22-rdf-syntax-ns#"
   xmlns:svg="http://www.w3.org/2000/svg"
   xmlns="http://www.w3.org/2000/svg"
   xmlns:sodipodi="http://sodipodi.sourceforge.net/DTD/sodipodi-0.dtd"
   xmlns:inkscape="http://www.inkscape.org/namespaces/inkscape"
   height="32"
   width="32"
   version="1"
   id="svg32"
   sodipodi:docname="blogilo.svg"
   inkscape:version="0.92.1 r">
  <metadata
     id="metadata38">
    <rdf:RDF>
      <cc:Work
         rdf:about="">
        <dc:format>image/svg+xml</dc:format>
        <dc:type
           rdf:resource="http://purl.org/dc/dcmitype/StillImage" />
      </cc:Work>
    </rdf:RDF>
  </metadata>
  <defs
     id="defs36" />
  <sodipodi:namedview
     pagecolor="#ffffff"
     bordercolor="#666666"
     borderopacity="1"
     objecttolerance="10"
     gridtolerance="10"
     guidetolerance="10"
     inkscape:pageopacity="0"
     inkscape:pageshadow="2"
     inkscape:window-width="1680"
     inkscape:window-height="963"
     id="namedview34"
     showgrid="false"
     inkscape:zoom="7.375"
     inkscape:cx="-8.6779661"
     inkscape:cy="16"
     inkscape:window-x="0"
     inkscape:window-y="0"
     inkscape:window-maximized="1"
     inkscape:current-layer="svg32" />
  <rect
     style="opacity:1;fill:#35b9f5;fill-opacity:1;fill-rule:evenodd;stroke:none;stroke-width:1.03534329;stroke-linecap:round;stroke-linejoin:bevel;stroke-miterlimit:4;stroke-dasharray:none;stroke-dashoffset:0;stroke-opacity:1"
     id="rect4497-3"
     width="28.203388"
     height="28.203388"
     x="1.8983059"
     y="1.8983059"
     ry="5.575182" />
  <g
     transform="matrix(0.18483429,0,0,0.18483429,6.9662241,6.9662241)"
     id="g26"
     style="fill:#ffffff">
    <g
       id="g24">
      <g
         id="g22">
        <path
           d="m 36.491,40.31 c 0,0 13.827,-0.006 13.858,-0.006 3.201,0 5.82,-2.344 5.873,-5.556 0.051,-3.244 -2.537,-6.15 -5.781,-6.201 l -13.766,0.016 c -3.249,-0.031 -5.914,2.537 -5.966,5.78 -0.051,3.243 2.538,5.915 5.782,5.967 z"
           id="path16"
           inkscape:connector-curvature="0" />
        <path
           d="M 62.55,55.48 H 35.021 c -3.244,0 -5.875,2.631 -5.875,5.875 0,3.244 2.631,5.873 5.875,5.873 H 62.55 c 3.244,0 5.875,-2.629 5.875,-5.873 0,-3.244 -2.631,-5.875 -5.875,-5.875 z"
           id="path18"
           inkscape:connector-curvature="0" />
        <path
           d="M 48.875,0 C 21.883,0 0,21.882 0,48.875 0,75.868 21.883,97.75 48.875,97.75 75.867,97.75 97.75,75.868 97.75,48.875 97.75,21.882 75.867,0 48.875,0 Z m 27.902,77.021 c -3.776,3.889 -9.108,5.972 -15.42,6.024 H 36.688 c -0.155,0.002 -0.31,0.003 -0.463,0.003 -7.074,0 -12.534,-1.994 -16.227,-5.927 -3.694,-3.935 -4.878,-9.256 -4.878,-16.649 0.007,-0.51 -0.042,-1.006 -0.011,-1.496 l 0.013,-25.991 c 0.305,-6.445 3.185,-10.431 5.353,-12.713 3.503,-3.689 8.455,-5.56 14.721,-5.56 h 0.174 l 16.11,-0.012 0.15,0.004 c 10.533,0.292 18.123,7.623 18.197,17.822 0.275,3.063 0.104,5.896 -0.493,8.452 3.541,0.105 7.91,0.725 10.741,4.383 2.5,3.23 2.516,6.903 2.537,11.985 0.006,1.04 0.035,3.688 0.035,3.688 -0.068,6.579 -2.098,12.109 -5.87,15.987 z"
           id="path20"
           inkscape:connector-curvature="0" />
      </g>
    </g>
  </g>
</svg>
