<?xml version="1.0" encoding="UTF-8" standalone="no"?>
<svg
   xmlns:dc="http://purl.org/dc/elements/1.1/"
   xmlns:cc="http://creativecommons.org/ns#"
   xmlns:rdf="http://www.w3.org/1999/02/22-rdf-syntax-ns#"
   xmlns:svg="http://www.w3.org/2000/svg"
   xmlns="http://www.w3.org/2000/svg"
   xmlns:sodipodi="http://sodipodi.sourceforge.net/DTD/sodipodi-0.dtd"
   xmlns:inkscape="http://www.inkscape.org/namespaces/inkscape"
   viewBox="0 0 32 32"
   width="32"
   version="1.1"
   height="32"
   id="svg62"
   sodipodi:docname="bluegriffon.svg"
   inkscape:version="0.92.1 r">
  <metadata
     id="metadata68">
    <rdf:RDF>
      <cc:Work
         rdf:about="">
        <dc:format>image/svg+xml</dc:format>
        <dc:type
           rdf:resource="http://purl.org/dc/dcmitype/StillImage" />
      </cc:Work>
    </rdf:RDF>
  </metadata>
  <defs
     id="defs66" />
  <sodipodi:namedview
     pagecolor="#ffffff"
     bordercolor="#666666"
     borderopacity="1"
     objecttolerance="10"
     gridtolerance="10"
     guidetolerance="10"
     inkscape:pageopacity="0"
     inkscape:pageshadow="2"
     inkscape:window-width="640"
     inkscape:window-height="480"
     id="namedview64"
     showgrid="false"
     inkscape:zoom="8.4375"
     inkscape:cx="1.0513086"
     inkscape:cy="9.6150499"
     inkscape:current-layer="svg62" />
  <rect
     style="opacity:1;fill:#e6e6e6;fill-opacity:1;fill-rule:evenodd;stroke:none;stroke-width:1.03534329;stroke-linecap:round;stroke-linejoin:bevel;stroke-miterlimit:4;stroke-dasharray:none;stroke-dashoffset:0;stroke-opacity:1"
     id="rect4497"
     width="28.203388"
     height="28.203388"
     x="1.8983059"
     y="1.8983059"
     ry="5.575182" />
  <g
     id="g4579"
     transform="matrix(0.68038853,0,0,0.68038853,5.0517435,5.9869255)"
     style="stroke-width:1.4697485">
    <path
       id="path4"
       d="m 16.982302,8.3057219 c -0.162995,0.002 -0.337379,0.01665 -0.437687,0.03366 -0.631408,0.107181 -1.134941,0.339591 -1.397226,0.656528 -0.205387,0.248186 -0.263269,0.5585783 -0.159924,0.8585383 0.01365,0.03984 0.02348,0.0775 0.01684,0.08417 -0.0067,0.0067 -0.626006,0.07303 -1.371976,0.1515058 -0.608936,0.06406 -0.942641,0.109933 -1.119465,0.134673 -0.02392,0.0034 -0.140922,0.01485 -0.151507,0.01684 -0.007,0.0013 -0.100328,0.0077 -0.101004,0.0084 -0.0016,0.0016 0.0081,0.02682 0.0084,0.03366 5.5e-4,0.0098 -0.0018,0.01506 0,0.01684 0.0068,0.05562 0.03317,0.175212 0.101004,0.412435 0.12006,0.419645 0.144813,0.505022 0.126255,0.505022 -0.0041,0 -0.06672,-0.04385 -0.134672,-0.09259 -0.280744,-0.20139 -0.534909,-0.298669 -0.808036,-0.311431 -0.301563,-0.01408 -0.492375,0.06794 -0.707029,0.277763 -0.0046,0.0045 -0.01218,0.0038 -0.01684,0.0084 -0.10768,0.107823 -0.148257,0.157981 -0.218843,0.303012 -0.10285,0.211318 -0.154282,0.398981 -0.168342,0.648112 -0.01643,0.291008 0.04765,0.659192 0.151507,0.900621 l 0.03366,0.08417 h 0.14309 c 0.372514,0 0.665505,-0.476732 0.976368,-0.622835 0.216662,-0.05349 0.614972,-0.05333 0.883787,0 0.968666,0.192159 1.694752,0.849709 1.658156,1.506649 -0.0098,0.175174 -0.07194,0.29003 -0.22726,0.446102 -0.129469,0.130097 -0.298612,0.245431 -0.589192,0.404019 -0.102116,0.05573 -0.272003,0.151964 -0.378766,0.210425 -0.10676,0.05846 -0.259067,0.150612 -0.336682,0.20201 -0.153779,0.101838 -0.345098,0.27093 -0.345098,0.311429 0,0.03489 0.09544,0.03356 0.505022,-0.0084 0.17567,-0.01803 0.319933,-0.04572 0.471354,-0.06733 0.73445,-0.104845 1.224574,-0.247067 1.607652,-0.496605 0.36411,-0.23718 0.637921,-0.613771 0.740699,-1.010043 0.01667,-0.06432 0.03204,-0.109422 0.04208,-0.109422 0.01004,0 0.07647,0.03429 0.14309,0.07575 0.432388,0.269083 0.787947,0.366034 1.085797,0.303013 0.266204,-0.05632 0.522421,-0.216607 0.99321,-0.622861 0.12484,-0.107726 0.233266,-0.202008 0.244093,-0.202008 0.01083,0 0.108918,0.214727 0.218843,0.471354 0.109926,0.256626 0.212931,0.479441 0.22726,0.496605 0.02523,0.0302 0.04581,0.03325 0.446102,-0.03366 0.227449,-0.03803 0.420111,-0.08393 0.429269,-0.09259 0.02338,-0.02209 -0.06362,-0.316691 -0.143089,-0.505021 -0.128058,-0.303472 -0.349001,-0.577405 -0.614443,-0.749118 -0.159094,-0.102917 -0.398131,-0.214945 -0.782784,-0.361932 -0.418772,-0.160022 -0.635219,-0.262891 -0.833286,-0.3956 -0.196216,-0.131468 -0.386039,-0.305715 -0.361932,-0.328265 0.0093,-0.0087 0.07724,-0.03315 0.151506,-0.05892 0.591562,-0.205274 0.99671,-0.594547 1.262554,-1.220469 0.10939,-0.257553 0.198311,-0.5867368 0.345099,-1.2373041 0.0666,-0.295162 0.152863,-0.628469 0.185175,-0.740698 0.03231,-0.11223 0.05543,-0.214438 0.05051,-0.227261 -5.5e-4,-0.0015 -0.01977,0.0072 -0.02523,0.0084 -0.05881,0.0128 -0.395623,0.168323 -1.22047,0.580776 -0.678852,0.339452 -1.245168,0.6174333 -1.254138,0.6144433 -0.009,-0.0029 0.207628,-0.1995973 0.479771,-0.4376853 0.272146,-0.23809 0.51779,-0.451663 0.53869,-0.471354 0.01345,-0.01266 0.01115,-0.02545 0.01684,-0.04208 0.0085,-0.02496 0.01684,-0.05866 0.01684,-0.134672 0,-0.140302 -0.005,-0.149352 -0.05051,-0.168341 -0.03682,-0.01537 -0.182103,-0.01879 -0.345098,-0.01683 z"
       style="fill:#4f4f4f;stroke-width:1.4697485"
       inkscape:connector-curvature="0" />
    <path
       inkscape:connector-curvature="0"
       id="path6"
       d="m 23.233433,2.9353403 c -0.18901,0.01371 -0.356442,0.107427 -0.504888,0.286136 -0.167634,0.201811 -0.252159,0.474259 -0.227542,0.715829 0.03637,0.356951 0.141862,0.651385 0.572272,1.506856 0.236564,0.470186 0.313978,0.658383 0.395514,1.035169 0.115148,0.532121 0.160967,0.998447 0.160158,1.616232 -9.11e-4,0.568917 -0.03546,0.983127 -0.125978,1.5234573 -0.07947,0.4744004 -0.215553,1.0446974 -0.244144,1.0351684 -0.04363,-0.01455 -0.09554,-0.457065 -0.134767,-1.1025524 -0.04619,-0.7600153 -0.08499,-1.0647353 -0.151369,-1.3642763 -0.176594,-0.796958 -0.569599,-1.133669 -1.220719,-1.035169 -0.182688,0.02764 -0.47746,0.117138 -0.504889,0.151369 -0.01174,0.01464 0.05364,0.246717 0.235354,0.766611 0.142767,0.408478 0.260735,0.749437 0.260746,0.756847 3.5e-5,0.02572 -0.103677,0.06147 -0.125978,0.04297 -0.01149,-0.0095 -0.114813,-0.156571 -0.227543,-0.320317 -0.237892,-0.345546 -0.358563,-0.51359 -0.52149,-0.70704 -0.438281,-0.520395 -0.912503,-0.76886 -1.405291,-0.740244 -0.179829,0.01044 -0.450852,0.06959 -0.497077,0.109377 -0.03206,0.02759 -0.02453,0.07377 0.588875,2.3056933 l 0.631843,2.2812784 -0.143556,1.397479 c -0.07747,0.770534 -0.15172,1.418583 -0.159182,1.439471 -0.01328,0.03714 -0.01608,0.04199 -0.269535,0.04199 -0.142523,0 -0.431495,-0.01049 -0.639656,-0.02539 -0.459949,-0.03295 -1.034029,-0.03706 -1.229508,-0.0088 -0.198714,0.02875 -0.486975,0.100808 -0.756845,0.193362 -0.84284,0.289064 -1.580957,0.80034 -2.197294,1.532246 -0.568083,0.674603 -1.049708,1.5337 -1.523456,2.718784 -0.142187,0.355687 -0.449031,1.208492 -0.521492,1.439472 -0.179261,0.57144 -0.278792,1.178076 -0.294925,1.834984 -0.01436,0.585074 0.02996,1.066021 0.151369,1.556661 0.142427,0.57554 0.354916,1.021523 0.648446,1.397478 0.07027,0.09 0.146258,0.169914 0.227542,0.252933 0.0028,0.0031 0.005,0.0049 0.0078,0.0078 0.0024,0.0027 0.0062,0.0062 0.0088,0.0088 0.0016,0.0015 -0.0016,0.0061 0,0.0078 0.377856,0.37885 0.788538,0.600259 1.312517,0.70704 0.374496,0.07632 1.027357,0.08952 1.027357,0.01758 0,-0.01202 -0.113736,-0.350427 -0.252933,-0.749033 -0.139198,-0.398605 -0.251908,-0.731108 -0.251957,-0.74122 -9.9e-5,-0.0177 0.06945,-0.0586 0.100587,-0.0586 0.0083,0 0.09606,0.121634 0.193362,0.269535 0.391693,0.595392 0.693677,0.936363 1.036146,1.169936 0.203343,0.13869 0.469782,0.244851 0.681649,0.277348 0.130851,0.02006 0.443336,0.0183 0.572273,-0.0088 0.159175,-0.03342 0.317364,-0.08581 0.336918,-0.109376 l -1.010754,-1.658224 c 0.662593,0.515784 1.531937,1.014945 2.146511,1.187514 0.76967,0.216118 1.495494,0.110549 2.045925,-0.303714 0.17418,-0.131096 0.353861,-0.308226 0.344731,-0.335942 -0.0042,-0.01275 -0.64403,-0.284635 -1.42287,-0.606453 -0.778838,-0.321819 -1.418257,-0.594528 -1.421893,-0.605476 -0.01045,-0.03135 0.603591,0.0041 1.270524,0.0752 0.21352,0.02277 0.5609,0.06113 0.774424,0.08399 0.686627,0.07349 0.840906,0.08424 1.313493,0.08398 0.501718,-2.71e-4 0.721371,-0.02029 1.102553,-0.100588 0.593771,-0.125079 1.229355,-0.424509 1.750022,-0.816416 0.211983,-0.159562 0.316158,-0.257207 0.303715,-0.277348 -0.0068,-0.01103 -0.841753,-0.0081 -2.45804,0 -1.663942,0.0084 -2.42107,0.0027 -2.449249,-0.0088 -0.0046,-7.7e-4 -0.01394,0.0012 -0.0166,0 -0.01072,-0.01736 0.166535,-0.502621 0.193361,-0.53028 0.0077,-0.0079 0.07003,0.01233 0.134768,0.05078 1.120809,0.665861 3.534407,0.494183 5.285223,-0.378911 0.502393,-0.250534 0.833817,-0.486892 1.162124,-0.816416 0.392713,-0.394171 0.624179,-0.824827 0.656259,-1.237321 0.0095,-0.12166 0.005,-0.125978 -0.02539,-0.125978 -0.03737,0 -0.648359,0.166895 -0.975599,0.268558 -0.120686,0.03749 -0.430497,0.136501 -0.690439,0.218753 -1.697885,0.537257 -2.402852,0.682003 -3.325237,0.699228 -0.527216,0.0099 -0.999551,-0.02192 -0.984387,-0.06738 0.01714,-0.05142 0.734402,-0.297783 1.220718,-0.420903 0.415157,-0.105104 0.633072,-0.149745 1.598653,-0.344732 1.427378,-0.288239 1.94524,-0.422462 2.576204,-0.673836 1.330721,-0.530157 2.084682,-1.394026 2.322296,-2.651401 0.06185,-0.327119 0.09927,-0.900402 0.05957,-0.900402 -0.0083,0 -0.691292,0.385119 -1.523457,0.84962 -0.832225,0.464501 -1.522172,0.840223 -1.532246,0.833995 -0.02304,-0.01422 -0.120715,-0.232812 -0.109376,-0.244143 0.0046,-0.0046 0.111267,-0.06325 0.244143,-0.134768 0.638197,-0.343516 1.12296,-0.704927 1.649435,-1.229507 0.983903,-0.980366 1.559708,-2.11207 1.700217,-3.324262 0.03781,-0.326304 0.02561,-0.921722 -0.02539,-1.220719 -0.06041,-0.354146 -0.20051,-0.877395 -0.243167,-0.891613 -0.0097,-0.0032 -0.605043,0.854326 -1.313492,1.901391 -1.491844,2.204897 -1.57031,2.318414 -1.582053,2.306671 -0.02681,-0.0268 0.328479,-0.655585 0.925794,-1.649435 0.25859,-0.430255 0.536486,-0.895916 0.614266,-1.03517 0.191367,-0.342613 0.460569,-0.911123 0.563483,-1.178726 0.361545,-0.940103 0.412518,-1.7382427 0.160159,-2.5000327 -0.07328,-0.221215 -0.249213,-0.581487 -0.386724,-0.791025 -0.136341,-0.207753 -0.341084,-0.469971 -0.36231,-0.462896 -0.0096,0.0031 -0.418718,0.969412 -0.909191,2.1465113 l -0.891612,2.1377224 -1.237321,2.112332 c -1.237432,2.115444 -1.291856,2.217953 -1.304705,2.205107 -0.0103,-0.01028 0.102709,-0.327131 0.218754,-0.614266 0.290284,-0.718279 0.588072,-1.29029 1.405291,-2.693394 0.521928,-0.896108 0.75674,-1.315319 0.967786,-1.733421 0.657452,-1.3024654 0.974596,-2.3542477 1.052747,-3.5019977 0.01581,-0.233276 0.01584,-0.344184 0,-0.4961 -0.08261,-0.792439 -0.362334,-1.779861 -0.657235,-2.332061 -0.171335,-0.320824 -0.392853,-0.576613 -0.588874,-0.67286 -0.08871,-0.04355 -0.117992,-0.05078 -0.260745,-0.05078 -0.147146,0 -0.173593,0.0058 -0.286137,0.0586 -0.274658,0.128727 -0.35369,0.331125 -0.35352,0.850597 8e-5,0.278583 0.02144,0.496073 0.109376,1.119155 l 0.0586,0.437505 -0.0078,0.497077 c -0.0094,0.492666 -0.01655,0.651601 -0.06738,1.111342 -0.11181,1.011169 -0.386768,2.1737157 -0.792002,3.4082467 -0.152873,0.46572 -0.378222,1.114205 -0.403326,1.153335 -0.05865,0.0914 0.0862,-0.576958 0.378911,-1.77639 0.480064,-1.9671087 0.594387,-2.6689497 0.614266,-3.6611787 0.01373,-0.686651 -0.0326,-1.16072 -0.160158,-1.716819 -0.07646,-0.333322 -0.106478,-0.420699 -0.218757,-0.64845 -0.314764,-0.638498 -0.864566,-1.314234 -1.313494,-1.607443 -0.231412,-0.151141 -0.441857,-0.215867 -0.630867,-0.20215 z"
       style="fill:#7767c0;stroke-width:1.4697485" />
    <path
       id="path8"
       d="m 14.053445,13.498981 c -0.697092,0.08654 -1.385078,0.252009 -2.047877,0.484381 -0.68687,0.251402 -1.372457,0.58273 -1.879907,1.12306 -0.03746,0.06371 -0.2297964,0.206444 -0.1552764,0.241215 0.7463414,-0.20181 1.7946474,-0.493584 2.5029624,-0.694346 0.191955,-0.0544 0.337346,-0.09606 0.504889,-0.143556 0.306737,-0.0834 0.612088,-0.171889 0.917004,-0.261721 l 0.216799,-0.06738 c 0.06823,-0.08017 0.02913,-0.320411 0.03907,-0.459967 -0.02079,-0.07369 0.04199,-0.26736 -0.09766,-0.221682 z"
       style="fill:#d54c41;stroke-width:1.4697485"
       inkscape:connector-curvature="0" />
    <path
       id="path10"
       d="m 5.408886,13.650538 c -0.01568,-0.01565 -0.339522,0.02591 -0.471354,0.05892 -0.374542,0.09379 -0.599705,0.317727 -0.732282,0.723864 -0.02379,0.07288 -0.04208,0.142542 -0.04208,0.159923 0,0.03952 0.01326,0.04065 0.159925,0 0.305409,-0.08463 0.546137,-0.227421 0.740698,-0.429268 0.159182,-0.165144 0.375504,-0.483033 0.345098,-0.513438 z"
       style="fill:#9182d7;stroke-width:1.4697485"
       inkscape:connector-curvature="0" />
    <path
       id="path12"
       d="m 6.595687,13.78521 c -0.200955,0.0125 -0.459952,0.07414 -0.622859,0.151506 -0.464877,0.22077 -0.738019,0.621446 -0.866955,1.254138 -0.07545,0.370225 -0.08817,0.573129 -0.09259,1.557151 -0.0025,0.513344 -0.01016,0.936173 -0.01684,0.942707 -0.0067,0.0066 -0.0309,-0.0096 -0.05892,-0.04208 C 4.832585,17.526919 4.697741,17.30992 4.508256,16.933184 4.438456,16.794415 4.382119,16.702294 4.323082,16.596504 4.291282,16.539514 4.247102,16.436489 4.230492,16.41133 4.127674,16.255545 3.938249,16.05968 3.809642,15.973643 3.699659,15.900063 3.533771,15.838971 3.422459,15.838971 c -0.321498,0 -0.604906,0.294518 -0.690197,0.715448 -0.08197,0.40454 0.07751,0.739997 0.412435,0.866953 0.05482,0.02079 0.139836,0.03044 0.303013,0.03366 0.124332,0.0024 0.237601,0.0093 0.244094,0.01684 0.0065,0.0075 0.03344,0.07724 0.05892,0.151506 0.07452,0.217255 0.255249,0.573918 0.530273,1.035296 0.290596,0.487503 0.47614,0.842478 0.555524,1.060546 0.08511,0.233804 0.484398,1.775739 0.538689,2.079006 0.04724,0.263898 0.05955,0.504805 0.03366,0.631278 -0.0114,0.0557 -0.06353,0.214729 -0.117839,0.345099 -0.150666,0.361692 -0.162064,0.497234 -0.05892,0.78278 0.205186,0.568052 0.566062,0.953967 1.085797,1.169971 0.131482,0.05464 0.15358,0.05781 0.185174,-0.01682 0.07078,-0.167235 0.1623,-0.53093 0.193591,-0.782785 0.05123,-0.412311 0.0136,-0.705639 -0.202008,-1.658156 -0.09976,-0.440695 -0.17812,-0.976374 -0.14309,-0.976374 0.0082,10e-6 0.07351,0.04414 0.14309,0.101004 0.06958,0.05687 0.29987,0.241193 0.513438,0.404017 0.55739,0.424949 0.626405,0.482503 1.262553,1.11105 0.240399,0.237524 0.414154,0.3977 0.563942,0.530272 0.297899,0.263651 0.476006,0.377485 0.723866,0.462936 0.133542,0.04605 0.188705,0.05875 0.3030116,0.05892 0.2790014,2.7e-4 0.4061194,-0.116283 0.4208514,-0.387181 0.0104,-0.191224 -0.04797,-0.411301 -0.202009,-0.723865 C 9.9296956,22.544742 9.808948,22.384461 9.575297,22.160174 9.303391,21.899166 9.051107,21.714489 8.236989,21.192216 7.543871,20.747565 7.234891,20.519411 6.966019,20.249508 6.611655,19.893792 6.461158,19.598671 6.444162,19.214213 6.430152,18.89772 6.508912,18.695819 6.713507,18.49035 c 0.209769,-0.210667 0.441271,-0.327909 1.119465,-0.563942 0.716562,-0.249384 0.983769,-0.406067 1.102631,-0.648111 0.04136,-0.08425 0.04212,-0.111246 0.04208,-0.252511 -4e-5,-0.13575 6e-5,-0.171374 -0.03366,-0.235677 C 8.787908,16.49248 8.318061,16.313193 7.555213,16.268253 l -0.193591,-0.0084 -0.648111,0.648112 c -0.35615,0.355704 -0.651168,0.636631 -0.656529,0.631276 -0.0054,-0.0054 0.149735,-0.835917 0.345099,-1.851746 0.195361,-1.01583 0.361933,-1.859811 0.361933,-1.876997 0,-0.02897 -0.01573,-0.03475 -0.168341,-0.02524 z"
       style="fill:#4f4f4f;stroke-width:1.4697485"
       inkscape:connector-curvature="0" />
    <path
       id="path14"
       d="m 7.967663,14.972011 0.0084,0.05892 c 0.01058,0.11351 0.07003,0.382282 0.117838,0.51344 0.150906,0.414009 0.412714,0.667439 0.841703,0.808034 0.10195,0.03341 0.148773,0.03616 0.159924,0.01684 0.01595,-0.02763 -0.02564,-0.422171 -0.05892,-0.563941 C 8.937978,15.385203 8.685423,15.131739 8.253824,15.02252 8.169624,15.00122 8.072116,14.98369 8.034981,14.98044 l -0.06733,-0.0084 z"
       style="fill:#9182d7;stroke-width:1.4697485"
       inkscape:connector-curvature="0" />
    <path
       id="path16"
       d="m 2.10941,16.722753 c -0.01769,0.0069 -0.02241,0.02324 -0.03366,0.0505 C 2.04531,16.846913 2,17.127501 2,17.23619 c 0,0.285846 0.130494,0.522374 0.378768,0.690198 0.09614,0.06499 0.109959,0.06636 0.109421,0.02523 -8.4e-4,-0.0733 -0.133582,-1.196671 -0.14309,-1.212054 -0.0059,-0.0095 -0.06135,-0.01684 -0.126255,-0.01684 -0.05863,0 -0.09172,-0.0069 -0.109422,0 z"
       style="fill:#9182d7;stroke-width:1.4697485"
       inkscape:connector-curvature="0" />
    <path
       id="path18"
       d="m 11.115631,20.434663 c -0.02908,0 -0.180526,0.154859 -0.25251,0.260929 -0.198506,0.292487 -0.353276,0.727789 -0.446103,1.262553 -0.03295,0.189776 -0.03313,0.278375 -0.03366,0.690199 -5.5e-4,0.520577 0.01096,0.638423 0.109421,0.934287 0.108495,0.326043 0.288525,0.543338 0.505021,0.62286 0.0347,0.01275 0.09667,0.0248 0.143089,0.02525 0.271795,0.0027 0.523384,-0.299019 0.639695,-0.757533 0.09888,-0.389809 0.02502,-0.717795 -0.336681,-1.481395 -0.231488,-0.488716 -0.292008,-0.681518 -0.328264,-0.976376 -0.01753,-0.142621 -0.01815,-0.284076 0.0084,-0.496605 0.0074,-0.05955 0.0039,-0.08417 -0.0084,-0.08417 z"
       style="fill:#9182d7;stroke-width:1.4697485"
       inkscape:connector-curvature="0" />
    <path
       id="path20"
       d="m 4.314673,23.641552 c -0.02265,0 -0.02136,0.04816 0.01684,0.235678 0.06231,0.305866 0.172999,0.48996 0.378765,0.597607 0.126385,0.06612 0.20613,0.08556 0.395601,0.117839 0.06962,0.01186 0.135844,0.0243 0.143089,0.02525 0.04945,0.0065 0.0098,-0.191604 -0.07575,-0.370347 C 5.094058,24.082235 4.90537,23.901346 4.710282,23.801477 4.568315,23.728807 4.348314,23.641552 4.314681,23.641553 Z"
       style="fill:#9182d7;stroke-width:1.4697485"
       inkscape:connector-curvature="0" />
    <path
       id="path22"
       d="m 13.34538,11.153587 c 0,0 0.374731,-0.261279 0.713426,-0.247515 0.394764,0.01604 0.65519,0.363993 0.65519,0.363993 -0.873585,0.538711 -1.368616,-0.116478 -1.368616,-0.116478 z"
       style="fill:#d54c41;stroke-width:1.4697485"
       inkscape:connector-curvature="0" />
    <path
       id="path24"
       d="m 23.046875,2.9375002 c -0.09371,0.00741 -0.182472,0.032792 -0.265625,0.080078 0.08319,-0.046783 0.17202,-0.072672 0.265625,-0.080078 z"
       inkscape:connector-curvature="0"
       style="stroke-width:1.4697485" />
    <path
       id="path26"
       d="m 21.994141,7.1601564 c 0.04432,0.010194 0.08025,0.036217 0.121093,0.052734 -0.04131,-0.015815 -0.07625,-0.043261 -0.121093,-0.052734 z"
       inkscape:connector-curvature="0"
       style="stroke-width:1.4697485" />
    <path
       id="path28"
       d="m 18.783203,7.2109377 c -0.01723,0.01483 -1.02e-4,0.112208 0.09375,0.4746094 -0.0924,-0.3572108 -0.110876,-0.4598706 -0.09375,-0.4746094 z"
       inkscape:connector-curvature="0"
       style="stroke-width:1.4697485" />
    <path
       id="path30"
       d="m 22.287109,7.2988283 c 0.05809,0.041864 0.110913,0.093644 0.160157,0.1523438 -0.04983,-0.057598 -0.101417,-0.111623 -0.160157,-0.1523438 z"
       inkscape:connector-curvature="0"
       style="stroke-width:1.4697485" />
    <path
       id="path32"
       d="m 22.509766,7.5332033 c 0.114301,0.1664457 0.204739,0.3795259 0.265625,0.6542969 0.06638,0.299541 0.1042,0.6032664 0.15039,1.363281 0.03923,0.6454878 0.09114,1.0889658 0.134766,1.1035158 9.68e-4,3.22e-4 0.0066,-0.03417 0.0078,-0.03516 -0.042,-0.05838 -0.08992,-0.458991 -0.126953,-1.0683598 -0.04619,-0.7600143 -0.08401,-1.06374 -0.15039,-1.363281 -0.06256,-0.2823164 -0.162528,-0.4863803 -0.28125,-0.6542969 z"
       inkscape:connector-curvature="0"
       style="stroke-width:1.4697485" />
    <path
       id="path34"
       d="m 11.542969,10.816406 c -0.294963,-0.01149 -0.485344,0.06824 -0.697266,0.275391 0.211922,-0.207153 0.402303,-0.286882 0.697266,-0.275391 z"
       inkscape:connector-curvature="0"
       style="stroke-width:1.4697485" />
    <path
       id="path36"
       d="m 14.957031,9.386719 c -0.01163,0.056331 -0.01176,0.1140012 -0.01172,0.1718752 -3.7e-4,-0.05775 5.39e-4,-0.1156694 0.01172,-0.1718752 z"
       inkscape:connector-curvature="0"
       style="stroke-width:1.4697485" />
    <path
       id="path38"
       d="m 14.941406,9.6054692 c 0.0038,0.06802 0.01902,0.136853 0.03906,0.205078 -0.02007,-0.06832 -0.03494,-0.136986 -0.03906,-0.205078 z"
       inkscape:connector-curvature="0"
       style="stroke-width:1.4697485" />
    <path
       id="path42"
       d="m 13.873047,13.53125 c -0.316325,0.04556 -0.631098,0.103014 -0.941406,0.179688 0.310544,-0.07442 0.62519,-0.134144 0.941406,-0.179688 z"
       inkscape:connector-curvature="0"
       style="stroke-width:1.4697485" />
    <path
       id="path44"
       d="m 7.5976562,16.273438 c -0.01562,-0.0011 -0.027095,-0.0049 -0.042969,-0.0059 h -0.015625 c 0.021639,0.0013 0.037427,0.0044 0.058594,0.0059 z"
       inkscape:connector-curvature="0"
       style="stroke-width:1.4697485" />
    <path
       id="path46"
       d="m 5.2226562,23.501953 c -0.079289,-0.244789 -0.070905,-0.392242 0.068359,-0.726562 -0.1392748,0.334346 -0.1476058,0.481782 -0.068359,0.726562 z"
       inkscape:connector-curvature="0"
       style="stroke-width:1.4697485" />
    <path
       id="path48"
       d="m 6.5878906,13.787109 c -0.100111,0.0068 -0.2132782,0.02399 -0.3222656,0.05078 0.1087063,-0.02635 0.222321,-0.04401 0.3222656,-0.05078 z"
       inkscape:connector-curvature="0"
       style="stroke-width:1.4697485" />
    <path
       id="path50"
       d="m 4.6835938,13.804688 c -0.076314,0.04084 -0.143002,0.09059 -0.203125,0.15039 0.059858,-0.05933 0.1272613,-0.109791 0.203125,-0.15039 z"
       inkscape:connector-curvature="0"
       style="stroke-width:1.4697485" />
    <path
       id="path52"
       d="m 3.421875,15.839844 c -0.00274,0 -0.00508,0.0019 -0.00781,0.002 0.1112358,0.0024 0.2731189,0.06074 0.3808594,0.132812 0.128607,0.08604 0.3171037,0.281715 0.4199219,0.4375 0.01661,0.02516 0.059997,0.126604 0.091797,0.183594 0.059037,0.10579 0.1157469,0.199122 0.1855469,0.337891 0.189485,0.376736 0.3247497,0.593132 0.4296875,0.714844 0.02802,0.03248 0.051894,0.04957 0.058594,0.04297 8.29e-5,-8e-5 -8.35e-5,-0.01151 0,-0.01172 -0.010962,-0.004 -0.02248,-0.0075 -0.042969,-0.03125 C 4.8325622,17.526726 4.6972975,17.31033 4.5078125,16.933594 4.4380125,16.794825 4.3813026,16.701493 4.3222656,16.595703 4.2904656,16.538713 4.2470788,16.437268 4.2304688,16.412109 4.1276507,16.256324 3.9391539,16.060646 3.8105469,15.974609 3.7005639,15.901029 3.533187,15.839844 3.421875,15.839844 Z"
       inkscape:connector-curvature="0"
       style="stroke-width:1.4697485" />
    <path
       id="path54"
       d="m 3.4140625,15.841797 c -0.079729,0.0012 -0.1561834,0.01988 -0.2285156,0.05469 0.072208,-0.03446 0.1489921,-0.05345 0.2285156,-0.05469 z"
       inkscape:connector-curvature="0"
       style="stroke-width:1.4697485" />
    <path
       id="path56"
       d="m 3.1621094,15.914062 c -0.062305,0.03365 -0.1230891,0.07366 -0.1757813,0.128907 0.052926,-0.05529 0.1131756,-0.09535 0.1757813,-0.128907 z"
       inkscape:connector-curvature="0"
       style="stroke-width:1.4697485" />
    <path
       id="path58"
       d="m 2.71875,16.789062 c 0.00261,0.07066 0.016436,0.134656 0.035156,0.197266 -0.018708,-0.06226 -0.030384,-0.12847 -0.035156,-0.197266 z"
       inkscape:connector-curvature="0"
       style="stroke-width:1.4697485" />
    <path
       id="path60"
       d="m 6.5859375,19.755859 c 0.040144,0.07707 0.09314,0.156737 0.1523437,0.234375 -0.060469,-0.07877 -0.1115399,-0.156188 -0.1523437,-0.234375 z"
       inkscape:connector-curvature="0"
       style="stroke-width:1.4697485" />
  </g>
</svg>
