<?xml version="1.0" encoding="UTF-8" standalone="no"?>
<svg
   xmlns:dc="http://purl.org/dc/elements/1.1/"
   xmlns:cc="http://creativecommons.org/ns#"
   xmlns:rdf="http://www.w3.org/1999/02/22-rdf-syntax-ns#"
   xmlns:svg="http://www.w3.org/2000/svg"
   xmlns="http://www.w3.org/2000/svg"
   xmlns:sodipodi="http://sodipodi.sourceforge.net/DTD/sodipodi-0.dtd"
   xmlns:inkscape="http://www.inkscape.org/namespaces/inkscape"
   height="32"
   width="32"
   version="1"
   id="svg12"
   sodipodi:docname="bomi.svg"
   inkscape:version="0.92.1 r">
  <metadata
     id="metadata18">
    <rdf:RDF>
      <cc:Work
         rdf:about="">
        <dc:format>image/svg+xml</dc:format>
        <dc:type
           rdf:resource="http://purl.org/dc/dcmitype/StillImage" />
      </cc:Work>
    </rdf:RDF>
  </metadata>
  <defs
     id="defs16" />
  <sodipodi:namedview
     pagecolor="#ffffff"
     bordercolor="#666666"
     borderopacity="1"
     objecttolerance="10"
     gridtolerance="10"
     guidetolerance="10"
     inkscape:pageopacity="0"
     inkscape:pageshadow="2"
     inkscape:window-width="1680"
     inkscape:window-height="965"
     id="namedview14"
     showgrid="false"
     inkscape:zoom="7.375"
     inkscape:cx="-10.711864"
     inkscape:cy="16"
     inkscape:window-x="0"
     inkscape:window-y="0"
     inkscape:window-maximized="1"
     inkscape:current-layer="svg12" />
  <rect
     style="opacity:1;fill:#e75177;fill-opacity:1;fill-rule:evenodd;stroke:none;stroke-width:1.03534329;stroke-linecap:round;stroke-linejoin:bevel;stroke-miterlimit:4;stroke-dasharray:none;stroke-dashoffset:0;stroke-opacity:1"
     id="rect4497-3"
     width="28.203388"
     height="28.203388"
     x="1.8983059"
     y="1.8983059"
     ry="5.575182" />
  <path
     d="M 16,6.9997999 A 9,9 0 0 0 13,7.5252001 V 19.0002 c 0,0.554 -0.446,1 -1,1 -0.554,0 -1,-0.446 -1,-1 V 8.5252001 A 9,9 0 0 0 7,16.0002 a 9,9 0 0 0 9,9 9,9 0 0 0 9,-9 9,9 0 0 0 -9,-9.0000001 z M 15.443,11.9998 a 0.43752,0.45073 0 0 1 0.209,0.059 l 3.063,1.773 3.062,1.775 a 0.43752,0.45073 0 0 1 0,0.786 l -3.062,1.775 -3.063,1.773 A 0.43752,0.45073 0 0 1 15,19.5488 v -7.098 a 0.43752,0.45073 0 0 1 0.443,-0.451 z"
     id="path8"
     inkscape:connector-curvature="0"
     style="fill:#ffffff" />
</svg>
