<?xml version="1.0" encoding="UTF-8" standalone="no"?>
<svg
   xmlns:dc="http://purl.org/dc/elements/1.1/"
   xmlns:cc="http://creativecommons.org/ns#"
   xmlns:rdf="http://www.w3.org/1999/02/22-rdf-syntax-ns#"
   xmlns:svg="http://www.w3.org/2000/svg"
   xmlns="http://www.w3.org/2000/svg"
   xmlns:sodipodi="http://sodipodi.sourceforge.net/DTD/sodipodi-0.dtd"
   xmlns:inkscape="http://www.inkscape.org/namespaces/inkscape"
   height="32"
   width="32"
   version="1"
   id="svg12"
   sodipodi:docname="brightnesssettings.svg"
   inkscape:version="0.92.2 2405546, 2018-03-11">
  <metadata
     id="metadata18">
    <rdf:RDF>
      <cc:Work
         rdf:about="">
        <dc:format>image/svg+xml</dc:format>
        <dc:type
           rdf:resource="http://purl.org/dc/dcmitype/StillImage" />
        <dc:title></dc:title>
      </cc:Work>
    </rdf:RDF>
  </metadata>
  <defs
     id="defs16" />
  <sodipodi:namedview
     pagecolor="#ffffff"
     bordercolor="#666666"
     borderopacity="1"
     objecttolerance="10"
     gridtolerance="10"
     guidetolerance="10"
     inkscape:pageopacity="0"
     inkscape:pageshadow="2"
     inkscape:window-width="1680"
     inkscape:window-height="972"
     id="namedview14"
     showgrid="false"
     inkscape:zoom="7.375"
     inkscape:cx="-11.4038"
     inkscape:cy="10.364639"
     inkscape:window-x="0"
     inkscape:window-y="0"
     inkscape:window-maximized="1"
     inkscape:current-layer="svg12"
     showguides="false"
     inkscape:guide-bbox="true">
    <sodipodi:guide
       position="16.135593,29.966102"
       orientation="1,0"
       id="guide863"
       inkscape:locked="false" />
  </sodipodi:namedview>
  <path
     style="opacity:1;fill:#8cb4c3;fill-opacity:1;fill-rule:evenodd;stroke:none;stroke-width:1.03534329;stroke-linecap:round;stroke-linejoin:bevel;stroke-miterlimit:4;stroke-dasharray:none;stroke-dashoffset:0;stroke-opacity:1"
     d="M 16.134766 30.101562 L 24.527344 30.101562 C 27.615995 30.101563 30.101562 27.615995 30.101562 24.527344 L 30.101562 7.4726562 C 30.101563 4.3840054 27.615995 1.8984375 24.527344 1.8984375 L 16.134766 1.8984375 L 16.134766 30.101562 z "
     id="path868" />
  <path
     style="opacity:1;fill:#127eb3;fill-opacity:1;fill-rule:evenodd;stroke:none;stroke-width:1.03534329;stroke-linecap:round;stroke-linejoin:bevel;stroke-miterlimit:4;stroke-dasharray:none;stroke-dashoffset:0;stroke-opacity:1"
     d="M 16.134766 30.101562 L 16.134766 1.8984375 L 7.4726562 1.8984375 C 4.3840054 1.8984375 1.8984375 4.3840054 1.8984375 7.4726562 L 1.8984375 24.527344 C 1.8984375 27.615995 4.3840054 30.101562 7.4726562 30.101562 L 16.134766 30.101562 z "
     id="rect4497-3" />
  <path
     style="fill:#ffffff;stroke-width:0.0371954"
     d="m 15.641612,27.851325 c -0.112517,-0.03631 -0.257127,-0.09347 -0.321357,-0.127017 -0.198707,-0.103795 -0.467056,-0.404756 -0.587108,-0.658461 l -0.114408,-0.24177 V 25.74541 24.666744 l 0.101693,-0.217069 c 0.136326,-0.291001 0.283941,-0.470178 0.522988,-0.634815 0.47286,-0.325673 1.141821,-0.325673 1.614685,0 0.239047,0.164637 0.386658,0.343814 0.522988,0.634815 l 0.101693,0.217069 v 1.078666 1.078667 l -0.11588,0.24177 c -0.31848,0.664482 -1.057548,1.000958 -1.725294,0.785478 z M 8.5828991,24.904738 c -0.930103,-0.156764 -1.444692,-1.201797 -1.023812,-2.079167 0.132949,-0.277145 1.353674,-1.509827 1.629122,-1.645083 0.609614,-0.299342 1.2503519,-0.204335 1.7082759,0.253299 0.454256,0.453967 0.551134,1.105679 0.253425,1.704839 -0.103894,0.209101 -1.086028,1.231763 -1.4354209,1.494657 -0.314782,0.236852 -0.736567,0.338033 -1.13159,0.271455 z m 14.4234019,-0.0013 c -0.398941,-0.06512 -0.563019,-0.180148 -1.288319,-0.903198 -0.694229,-0.692081 -0.800581,-0.835592 -0.905283,-1.221602 -0.167759,-0.618482 0.200793,-1.357264 0.817371,-1.638469 0.421172,-0.192081 0.836496,-0.179023 1.283245,0.04034 0.275449,0.135257 1.496169,1.367939 1.629118,1.645084 0.520174,1.084347 -0.356641,2.27036 -1.536132,2.07784 z m -7.86895,-2.878616 c -0.925774,-0.144619 -1.841817,-0.538961 -2.605291,-1.121534 -1.209834,-0.92317 -2.020489,-2.292781 -2.228919,-3.765773 -0.262446,-1.854769 0.333424,-3.658306 1.640529,-4.96541 1.111606,-1.111609 2.525821,-1.695391 4.107093,-1.695391 1.581944,0 3.019751,0.595004 4.118245,1.704243 1.100922,1.111692 1.684238,2.524651 1.684238,4.079719 0,1.339633 -0.388862,2.502469 -1.186388,3.547724 -0.915832,1.200316 -2.288144,2.010464 -3.757779,2.218417 -0.460641,0.06518 -1.348106,0.06418 -1.771728,-0.002 z m 1.763892,-2.216081 c 0.773687,-0.192294 1.434943,-0.607617 1.947873,-1.223429 0.362954,-0.435754 0.583684,-0.875552 0.739897,-1.474232 0.1199,-0.459505 0.121152,-1.188907 0.003,-1.662696 -0.1409,-0.564329 -0.37553,-1.029647 -0.743887,-1.475302 -0.63484,-0.768054 -1.523126,-1.23384 -2.526387,-1.324753 l -0.270828,-0.02454 v 3.655621 3.655621 l 0.269664,-0.02448 c 0.148317,-0.01346 0.409684,-0.05928 0.580816,-0.10181 z M 5.5617841,17.703669 c -0.205734,-0.04126 -0.549521,-0.233757 -0.718394,-0.402248 -0.573284,-0.571993 -0.573284,-1.472455 0,-2.044449 0.09842,-0.09819 0.287732,-0.230564 0.420707,-0.294163 l 0.241768,-0.115635 h 1.078665 1.07867 l 0.217066,0.101692 c 0.299791,0.140445 0.495299,0.304376 0.648342,0.543623 0.312607,0.488683 0.309154,1.103256 -0.0089,1.582413 -0.162775,0.245231 -0.342547,0.395532 -0.639452,0.534626 l -0.217066,0.101692 -1.004276,0.0055 c -0.552352,0.003 -1.046064,-0.0028 -1.097139,-0.01309 z m 18.8852609,-0.013 c -0.643641,-0.157704 -1.105103,-0.747092 -1.105103,-1.41147 0,-0.590447 0.312853,-1.065087 0.875809,-1.328725 l 0.220573,-0.103297 h 1.078666 1.07867 l 0.241768,0.114406 c 0.263647,0.124758 0.55806,0.392301 0.666929,0.606057 0.311088,0.610806 0.217028,1.272162 -0.246963,1.73646 -0.09924,0.09931 -0.28532,0.228921 -0.419966,0.292536 l -0.241768,0.114225 -1.004277,0.0071 c -0.552352,0.0039 -1.067305,-0.0084 -1.144338,-0.02725 z M 9.4837521,11.502542 c -0.34658,-0.114478 -0.49213,-0.226813 -1.154024,-0.890665 -0.731312,-0.7334793 -0.838984,-0.8893033 -0.90299,-1.3068183 -0.179628,-1.1717579 1.000913,-2.0340465 2.077632,-1.5175356 0.277145,0.1329493 1.5098279,1.3536707 1.6450829,1.6291216 0.299325,0.6095723 0.204309,1.2505533 -0.253192,1.7080523 -0.267037,0.267037 -0.584984,0.405005 -0.9624549,0.41764 -0.177585,0.0059 -0.360564,-0.01023 -0.450054,-0.03979 z m 12.3508939,6.77e-4 c -0.594432,-0.188488 -1.009253,-0.697356 -1.051667,-1.290098 -0.01092,-0.152523 0.0013,-0.3279103 0.0297,-0.4333633 0.104702,-0.386009 0.211054,-0.52952 0.905283,-1.2216015 0.733576,-0.7312996 0.889433,-0.8389889 1.306919,-0.9029891 1.172303,-0.1797136 2.033551,0.9995503 1.517351,2.0776306 -0.07458,0.155748 -0.258465,0.3655613 -0.77046,0.8790713 -0.673555,0.675554 -0.814011,0.782442 -1.170233,0.890559 -0.21033,0.06384 -0.56692,0.06421 -0.766913,8.04e-4 z M 15.626942,8.9322547 C 15.404456,8.871169 15.083006,8.6551541 14.933288,8.4661199 14.872147,8.3889234 14.77636,8.2280819 14.720432,8.1086937 L 14.618739,7.8916256 V 6.8129591 5.7342921 l 0.115635,-0.2417699 c 0.443462,-0.9271907 1.610073,-1.1379725 2.336194,-0.4221001 0.105264,0.1037763 0.231587,0.282966 0.297565,0.4221001 l 0.114653,0.2417699 v 1.078667 1.0786665 L 17.381093,8.1086937 C 17.240646,8.408483 17.076716,8.6039918 16.83747,8.757036 16.487911,8.9806464 16.039562,9.0455432 15.626942,8.9322547 Z"
     id="path846"
     inkscape:connector-curvature="0" />
</svg>
