<?xml version="1.0" encoding="UTF-8" standalone="no"?>
<svg
   xmlns:dc="http://purl.org/dc/elements/1.1/"
   xmlns:cc="http://creativecommons.org/ns#"
   xmlns:rdf="http://www.w3.org/1999/02/22-rdf-syntax-ns#"
   xmlns:svg="http://www.w3.org/2000/svg"
   xmlns="http://www.w3.org/2000/svg"
   xmlns:sodipodi="http://sodipodi.sourceforge.net/DTD/sodipodi-0.dtd"
   xmlns:inkscape="http://www.inkscape.org/namespaces/inkscape"
   height="32"
   width="32"
   version="1"
   id="svg12"
   sodipodi:docname="btsync-gui.svg"
   inkscape:version="0.92.1 r">
  <metadata
     id="metadata18">
    <rdf:RDF>
      <cc:Work
         rdf:about="">
        <dc:format>image/svg+xml</dc:format>
        <dc:type
           rdf:resource="http://purl.org/dc/dcmitype/StillImage" />
      </cc:Work>
    </rdf:RDF>
  </metadata>
  <defs
     id="defs16" />
  <sodipodi:namedview
     pagecolor="#ffffff"
     bordercolor="#666666"
     borderopacity="1"
     objecttolerance="10"
     gridtolerance="10"
     guidetolerance="10"
     inkscape:pageopacity="0"
     inkscape:pageshadow="2"
     inkscape:window-width="1680"
     inkscape:window-height="965"
     id="namedview14"
     showgrid="false"
     inkscape:zoom="7.375"
     inkscape:cx="-10.711864"
     inkscape:cy="16"
     inkscape:window-x="0"
     inkscape:window-y="0"
     inkscape:window-maximized="1"
     inkscape:current-layer="svg12" />
  <rect
     style="opacity:1;fill:#4f4f4f;fill-opacity:1;fill-rule:evenodd;stroke:none;stroke-width:1.03534329;stroke-linecap:round;stroke-linejoin:bevel;stroke-miterlimit:4;stroke-dasharray:none;stroke-dashoffset:0;stroke-opacity:1"
     id="rect4497-3"
     width="28.203388"
     height="28.203388"
     x="1.8983059"
     y="1.8983059"
     ry="5.575182" />
  <path
     d="m 15.899698,6.0001116 c -0.71691,0.0023 -1.4353,0.07955 -2.1381,0.2355 -2.5299,0.56132 -4.7184998,2.11 -6.2836998,4.4465004 -0.66474,0.9923 -1.2673,2.371 -1.2673,2.8997 0,0.45207 0.52355,0.68568 0.87457,0.3902 0.08093,-0.06813 0.16259,-0.19495 0.18151,-0.28183 0.17799,-0.81751 0.80568,-2.046 1.5333,-3.0008 0.60698,-0.7965505 1.7205998,-1.8024004 2.5796998,-2.3299004 2.6837,-1.648 6.3481,-1.6815 9.0488,-0.08264 1.6919,1.0015999 3.0752,2.6640004 3.8863,4.6701004 0.17614,0.43564 0.46515,1.3903 0.46515,1.5366 0,0.04208 -0.25906,-0.17924 -0.5757,-0.49183 -0.68906,-0.68025 -0.75772,-0.72901 -1.0268,-0.72901 -0.29749,0 -0.50486,0.19145 -0.53941,0.49811 -0.01395,0.12395 -0.006,0.25991 0.01761,0.30213 0.05031,0.08992 2.2379,2.3033 2.4115,2.4399 0.17502,0.13773 0.5011,0.12403 0.68257,-0.02874 0.24047,-0.20242 0.27303,-0.34794 0.23946,-1.0701 -0.125,-2.694 -1.811,-5.7479005 -4.135,-7.4912004 -1.666,-1.2502 -3.804,-1.9194 -5.954,-1.9128 z m -9.8993998,9.8646004 0.02947,0.69624 c 0.05023,1.187 0.3847,2.4079 1.0098,3.686099 1.2606,2.5778 3.3278998,4.4419 5.8369998,5.2631 0.72704,0.23794 1.2599,0.34895 2.2267,0.46396 0.41589,0.04947 1.746,0.02431 2.2635,-0.04281 2.9389,-0.3812 5.5356,-2.0781 7.2574,-4.7425 0.55737,-0.8625 1.1017,-2.112299 1.1695,-2.685099 0.02648,-0.22388 0.01773,-0.24886 -0.145,-0.41164 -0.14579,-0.14584 -0.2069,-0.17308 -0.3863,-0.17216 -0.33444,0.0015 -0.41582,0.09886 -0.63579,0.75888 -0.75279,2.258699 -2.5754,4.329499 -4.7271,5.370899 -1.7432,0.8437 -3.7331,1.0791 -5.7272,0.67732 -2.2638,-0.4561 -4.2239998,-1.8335 -5.5734998,-3.9163 -0.50808,-0.784199 -1.0382,-1.961999 -1.2353,-2.744799 -0.0445,-0.175 -0.0929,-0.363 -0.108,-0.417 -0.015,-0.054 0.272,0.197 0.6378,0.558 l 0.66519,0.6558 0.25103,-0.02411 c 0.3422,-0.033 0.4923,-0.184 0.5254,-0.528 l 0.0243,-0.254 -1.2694,-1.27 -1.2693,-1.27 c 0,0 -0.2412,-0.16122 -0.53879,-0.02843 -0.29759,0.13278 -0.28181,0.37598 -0.28181,0.37598 z"
     id="path10"
     inkscape:connector-curvature="0"
     style="fill:#5cd1ff" />
</svg>
