<?xml version="1.0" encoding="UTF-8" standalone="no"?>
<svg
   xmlns:dc="http://purl.org/dc/elements/1.1/"
   xmlns:cc="http://creativecommons.org/ns#"
   xmlns:rdf="http://www.w3.org/1999/02/22-rdf-syntax-ns#"
   xmlns:svg="http://www.w3.org/2000/svg"
   xmlns="http://www.w3.org/2000/svg"
   xmlns:sodipodi="http://sodipodi.sourceforge.net/DTD/sodipodi-0.dtd"
   xmlns:inkscape="http://www.inkscape.org/namespaces/inkscape"
   width="32"
   height="32"
   version="1.1"
   viewBox="0 0 32 32"
   id="svg34"
   sodipodi:docname="builder.svg"
   inkscape:version="0.92.1 r">
  <metadata
     id="metadata40">
    <rdf:RDF>
      <cc:Work
         rdf:about="">
        <dc:format>image/svg+xml</dc:format>
        <dc:type
           rdf:resource="http://purl.org/dc/dcmitype/StillImage" />
      </cc:Work>
    </rdf:RDF>
  </metadata>
  <defs
     id="defs38" />
  <sodipodi:namedview
     pagecolor="#ffffff"
     bordercolor="#666666"
     borderopacity="1"
     objecttolerance="10"
     gridtolerance="10"
     guidetolerance="10"
     inkscape:pageopacity="0"
     inkscape:pageshadow="2"
     inkscape:window-width="1680"
     inkscape:window-height="965"
     id="namedview36"
     showgrid="false"
     inkscape:zoom="10.429825"
     inkscape:cx="-20.229325"
     inkscape:cy="25.894867"
     inkscape:window-x="0"
     inkscape:window-y="0"
     inkscape:window-maximized="1"
     inkscape:current-layer="svg34" />
  <rect
     style="opacity:1;fill:#cbbb2e;fill-opacity:1;fill-rule:evenodd;stroke:none;stroke-width:1.03534329;stroke-linecap:round;stroke-linejoin:bevel;stroke-miterlimit:4;stroke-dasharray:none;stroke-dashoffset:0;stroke-opacity:1"
     id="rect4497-3"
     width="28.203388"
     height="28.203388"
     x="1.8983059"
     y="1.8983059"
     ry="5.575182" />
  <g
     id="g4507"
     transform="matrix(0.66284551,0,0,0.66284551,5.0609198,5.7258946)">
    <path
       inkscape:connector-curvature="0"
       style="fill:#ffffff;fill-opacity:1;stroke:#ffffff;stroke-width:6;stroke-opacity:1"
       id="path2"
       d="M 20,3.9999995 12,12" />
    <rect
       style="fill:#ffffff"
       id="rect4"
       transform="scale(-1,1)"
       ry="0"
       y="11"
       x="-13"
       height="17"
       width="8" />
    <path
       style="fill:#ffffff"
       id="path6"
       d="m 13,26 c 1,0 1,1 1,1 v 2 H 4 v -2 c 0,-1 1,-1 1,-1 z"
       inkscape:connector-curvature="0" />
    <path
       id="path8"
       d="m 15,27 c 1,0 1,1 1,1 v 2 H 2 v -2 c 0,-1 1,-1 1,-1 z"
       inkscape:connector-curvature="0"
       style="fill:#4f4f4f" />
    <path
       style="fill:#ffffff;stroke:#ffffff;stroke-width:4;stroke-linecap:square;stroke-opacity:1"
       id="path10"
       d="m 19,5 4,4"
       inkscape:connector-curvature="0" />
    <rect
       style="fill:#ffffff"
       id="rect16"
       transform="scale(-1,1)"
       ry="6"
       y="9"
       x="-15"
       height="12"
       width="12" />
    <rect
       id="rect18"
       transform="scale(-1,1)"
       ry="4"
       y="11"
       x="-13"
       height="8"
       width="8"
       style="fill:#4f4f4f" />
    <rect
       id="rect20"
       transform="scale(-1,1)"
       ry="3"
       y="12"
       x="-12"
       height="6"
       width="6"
       style="opacity:0.1;fill:#ffffff" />
    <rect
       style="fill:#ffffff"
       id="rect22"
       transform="scale(-1,1)"
       ry="4"
       y="1"
       x="-23"
       height="8"
       width="8" />
    <path
       id="path24"
       d="m 25,16 -2,-1 v -4 l 2,-2 h 4 l 1,2"
       inkscape:connector-curvature="0"
       style="fill:none;stroke:#4f4f4f;stroke-width:2;stroke-linecap:round" />
    <rect
       id="rect26"
       transform="scale(-1,1)"
       ry="2"
       y="3"
       x="-21"
       height="4"
       width="4"
       style="fill:#4f4f4f" />
    <path
       id="path30"
       d="m 19,1 c -2.216,0 -4,1.784 -4,4 0,0.17126 0.0281,0.33452 0.0488,0.5 C 15.29579,3.5243 16.9552,2 19,2 21.0447,2 22.7042,3.5243 22.9512,5.5 22.9719,5.33452 23,5.17126 23,5 23,2.784 21.216,1 19,1 Z"
       inkscape:connector-curvature="0"
       style="opacity:0.2;fill:#f9f9f9" />
  </g>
</svg>
