<?xml version="1.0" encoding="UTF-8" standalone="no"?>
<svg
   xmlns:dc="http://purl.org/dc/elements/1.1/"
   xmlns:cc="http://creativecommons.org/ns#"
   xmlns:rdf="http://www.w3.org/1999/02/22-rdf-syntax-ns#"
   xmlns:svg="http://www.w3.org/2000/svg"
   xmlns="http://www.w3.org/2000/svg"
   xmlns:sodipodi="http://sodipodi.sourceforge.net/DTD/sodipodi-0.dtd"
   xmlns:inkscape="http://www.inkscape.org/namespaces/inkscape"
   height="32"
   width="32"
   version="1"
   id="svg14"
   sodipodi:docname="guvcview.svg"
   inkscape:version="0.92.1 r">
  <metadata
     id="metadata20">
    <rdf:RDF>
      <cc:Work
         rdf:about="">
        <dc:format>image/svg+xml</dc:format>
        <dc:type
           rdf:resource="http://purl.org/dc/dcmitype/StillImage" />
      </cc:Work>
    </rdf:RDF>
  </metadata>
  <defs
     id="defs18" />
  <sodipodi:namedview
     pagecolor="#ffffff"
     bordercolor="#666666"
     borderopacity="1"
     objecttolerance="10"
     gridtolerance="10"
     guidetolerance="10"
     inkscape:pageopacity="0"
     inkscape:pageshadow="2"
     inkscape:window-width="1680"
     inkscape:window-height="963"
     id="namedview16"
     showgrid="false"
     inkscape:zoom="7.375"
     inkscape:cx="-29.212582"
     inkscape:cy="27.136828"
     inkscape:window-x="0"
     inkscape:window-y="0"
     inkscape:window-maximized="1"
     inkscape:current-layer="svg14" />
  <g
     id="g4675"
     transform="translate(34.910438,6.350586)">
    <path
       id="path4595"
       d="M -5.1230469,-0.47851562 C -6.1936886,0.99379151 -7.272665,2.3040277 -8.3632812,3.3164062 c -1.2253516,1.1374485 -2.4601968,2.0109612 -3.6992188,2.6875 -1.239022,0.6765389 -2.482178,1.155777 -3.722656,1.4980469 -1.240478,0.34227 -2.477314,0.548952 -3.707032,0.6835938 -2.459435,0.2692835 -4.885412,0.2486507 -7.228515,0.4472656 -1.171552,0.099308 -2.32312,0.2537893 -3.447266,0.5253906 -0.97049,0.2344771 -1.909262,0.6136277 -2.835937,1.0644529 v 7.953125 c 0,3.088651 2.485568,5.576172 5.574218,5.576172 h 17.052735 c 3.0886507,0 5.5761718,-2.487521 5.5761718,-5.576172 V 1.1230469 c 0,-0.56888477 -0.1653325,-1.08530526 -0.3222657,-1.60156252 z"
       style="opacity:0.98999999;fill:#ad7fa8;fill-opacity:1;fill-rule:evenodd;stroke:none;stroke-width:1.03534329;stroke-linecap:round;stroke-linejoin:bevel;stroke-miterlimit:4;stroke-dasharray:none;stroke-dashoffset:0;stroke-opacity:1"
       inkscape:connector-curvature="0" />
    <path
       id="rect4497-3-5"
       d="m -27.429688,-4.453125 c -3.08865,0 -5.574218,2.4875211 -5.574218,5.5761719 v 9.0996091 c 0.926675,-0.4508252 1.865447,-0.8299758 2.835937,-1.0644529 1.124146,-0.2716013 2.275714,-0.4260831 3.447266,-0.5253906 2.343103,-0.1986149 4.76908,-0.1779821 7.228515,-0.4472656 1.229718,-0.1346418 2.466554,-0.3413238 3.707032,-0.6835938 1.240478,-0.3422699 2.483634,-0.821508 3.722656,-1.4980469 1.239022,-0.6765388 2.4738672,-1.5500515 3.6992188,-2.6875 C -7.272665,2.3040277 -6.1936886,0.99379151 -5.1230469,-0.47851562 -5.8181524,-2.7651784 -7.8571871,-4.453125 -10.376953,-4.453125 Z"
       style="opacity:0.98999999;fill:#c19ebd;fill-opacity:1;fill-rule:evenodd;stroke:none;stroke-width:1.03534329;stroke-linecap:round;stroke-linejoin:bevel;stroke-miterlimit:4;stroke-dasharray:none;stroke-dashoffset:0;stroke-opacity:1"
       inkscape:connector-curvature="0" />
    <path
       sodipodi:nodetypes="ccccc"
       inkscape:connector-curvature="0"
       id="path4500-6-5"
       d="m -33.015529,12.175042 0.04794,4.36249 c 7.450035,5.017384 14.132379,3.413441 20.56602,-0.335576 0.584082,2.179825 -0.191758,-6.9032792 -0.191758,-6.9032792 -6.978758,2.7865932 -13.826082,4.1712392 -20.422202,2.8763652 z"
       style="fill:#c09dbd;fill-opacity:1;stroke:none;stroke-width:0.1;stroke-linecap:butt;stroke-linejoin:miter;stroke-miterlimit:4;stroke-dasharray:none;stroke-opacity:1" />
    <path
       sodipodi:nodetypes="ccccc"
       inkscape:connector-curvature="0"
       id="path4500-62"
       d="m -32.715502,13.277759 0.04794,3.835156 c 7.450035,5.017384 14.132379,3.413441 20.56602,-0.335576 L -12.2933,10.401393 c -6.978758,2.786594 -13.826082,4.17124 -20.422202,2.876366 z"
       style="fill:#eeeeec;fill-opacity:1;stroke:#555753;stroke-width:0.60000002;stroke-linecap:butt;stroke-linejoin:miter;stroke-miterlimit:4;stroke-dasharray:none;stroke-opacity:1" />
    <path
       inkscape:connector-curvature="0"
       id="path4502-9"
       d="m -30.126772,13.900972 -0.143819,4.218671 0.958789,-4.122792 z"
       style="fill:#b5b6b2;fill-opacity:1;stroke:none;stroke-width:1px;stroke-linecap:butt;stroke-linejoin:miter;stroke-opacity:1" />
    <path
       inkscape:connector-curvature="0"
       id="path4521-1"
       d="m -22.504402,13.565396 1.534062,5.99243 -0.335576,-6.136248 z"
       style="fill:#b5b6b2;fill-opacity:1;stroke:none;stroke-width:1px;stroke-linecap:butt;stroke-linejoin:miter;stroke-opacity:1" />
    <path
       inkscape:connector-curvature="0"
       id="path4519-2"
       d="m -26.483375,13.996851 0.239697,5.656854 0.623213,-5.752733 z"
       style="fill:#b5b6b2;fill-opacity:1;stroke:none;stroke-width:1px;stroke-linecap:butt;stroke-linejoin:miter;stroke-opacity:1" />
    <path
       id="path4656"
       d="m -32.994141,4.6875 c 2.459614,-0.6695046 4.582875,-0.6294619 6.480469,-0.1191406 -0.510455,-0.3921944 -3.215713,-2.4590042 -6.480469,-0.4414063 z"
       style="fill:#2e3436;fill-opacity:1;stroke:none;stroke-width:1px;stroke-linecap:butt;stroke-linejoin:miter;stroke-opacity:1"
       inkscape:connector-curvature="0" />
    <path
       sodipodi:nodetypes="ccc"
       inkscape:connector-curvature="0"
       id="path4538-7-9"
       d="m -20.780698,4.0028848 c 2.980686,-1.6880973 5.453953,-1.7805813 7.803035,-1.4825613 -0.643064,-0.367002 -4.460166,-3.00371389 -7.803035,1.4825613 z"
       style="fill:#2e3436;fill-opacity:1;stroke:none;stroke-width:1px;stroke-linecap:butt;stroke-linejoin:miter;stroke-opacity:1" />
    <g
       style="stroke-width:1.17590892"
       transform="matrix(0.84986864,0,0,0.85094362,-81.272538,-6.1245863)"
       id="g4646">
      <path
         style="fill:#555753;fill-opacity:1;stroke:#555753;stroke-width:0.94072717;stroke-linecap:butt;stroke-linejoin:miter;stroke-miterlimit:4;stroke-dasharray:none;stroke-opacity:1"
         d="m 76.105598,28.623798 -1.054668,1.869638 c -1.585694,3.494841 11.885656,3.159602 10.223086,0.04794 l -1.066652,-2.444911 z"
         id="path4633"
         inkscape:connector-curvature="0"
         sodipodi:nodetypes="ccccc" />
      <circle
         style="opacity:1;fill:#f3f3f3;fill-opacity:1;fill-rule:nonzero;stroke:#555753;stroke-width:0.70554543;stroke-linecap:round;stroke-linejoin:bevel;stroke-miterlimit:4;stroke-dasharray:none;stroke-dashoffset:0;stroke-opacity:1"
         id="path4597"
         cx="80.033897"
         cy="22.610168"
         r="7.9661016" />
      <circle
         style="opacity:1;fill:#9b9c9a;fill-opacity:1;fill-rule:nonzero;stroke:#2e3436;stroke-width:0.70554543;stroke-linecap:round;stroke-linejoin:bevel;stroke-miterlimit:4;stroke-dasharray:none;stroke-dashoffset:0;stroke-opacity:1"
         id="path4597-3"
         cx="80.033897"
         cy="22.610168"
         r="3.7627115" />
      <circle
         style="opacity:1;fill:#4e9a06;fill-opacity:1;fill-rule:nonzero;stroke:none;stroke-width:0.70554543;stroke-linecap:round;stroke-linejoin:bevel;stroke-miterlimit:4;stroke-dasharray:none;stroke-dashoffset:0;stroke-opacity:1"
         id="path4614"
         cx="75.511383"
         cy="18.845047"
         r="0.779661" />
      <circle
         style="opacity:1;fill:#555753;fill-opacity:1;fill-rule:nonzero;stroke:none;stroke-width:0.70554543;stroke-linecap:round;stroke-linejoin:bevel;stroke-miterlimit:4;stroke-dasharray:none;stroke-dashoffset:0;stroke-opacity:1"
         id="path4597-3-6"
         cx="80.033897"
         cy="22.610168"
         r="2.7118642" />
      <ellipse
         style="opacity:1;fill:#e0e0df;fill-opacity:1;fill-rule:nonzero;stroke:none;stroke-width:0.70554543;stroke-linecap:round;stroke-linejoin:bevel;stroke-miterlimit:4;stroke-dasharray:none;stroke-dashoffset:0;stroke-opacity:1"
         id="path4631"
         cx="79.314804"
         cy="21.507561"
         rx="0.66101694"
         ry="0.69176191" />
      <ellipse
         style="opacity:1;fill:#555753;fill-opacity:1;fill-rule:nonzero;stroke:#555753;stroke-width:0.94072717;stroke-linecap:round;stroke-linejoin:bevel;stroke-miterlimit:4;stroke-dasharray:none;stroke-dashoffset:0;stroke-opacity:1"
         id="path4637"
         cx="80.05085"
         cy="14.864407"
         rx="2.6949153"
         ry="0.86440676" />
    </g>
  </g>
</svg>
