<?xml version="1.0" encoding="UTF-8" standalone="no"?>
<svg
   xmlns:dc="http://purl.org/dc/elements/1.1/"
   xmlns:cc="http://creativecommons.org/ns#"
   xmlns:rdf="http://www.w3.org/1999/02/22-rdf-syntax-ns#"
   xmlns:svg="http://www.w3.org/2000/svg"
   xmlns="http://www.w3.org/2000/svg"
   xmlns:sodipodi="http://sodipodi.sourceforge.net/DTD/sodipodi-0.dtd"
   xmlns:inkscape="http://www.inkscape.org/namespaces/inkscape"
   height="32"
   width="32"
   version="1"
   id="svg12"
   sodipodi:docname="chrome-haiffjcadagjlijoggckpgfnoeiflnem-Default.svg"
   inkscape:version="0.92.1 r">
  <metadata
     id="metadata18">
    <rdf:RDF>
      <cc:Work
         rdf:about="">
        <dc:format>image/svg+xml</dc:format>
        <dc:type
           rdf:resource="http://purl.org/dc/dcmitype/StillImage" />
      </cc:Work>
    </rdf:RDF>
  </metadata>
  <defs
     id="defs16" />
  <sodipodi:namedview
     pagecolor="#ffffff"
     bordercolor="#666666"
     borderopacity="1"
     objecttolerance="10"
     gridtolerance="10"
     guidetolerance="10"
     inkscape:pageopacity="0"
     inkscape:pageshadow="2"
     inkscape:window-width="1680"
     inkscape:window-height="965"
     id="namedview14"
     showgrid="false"
     inkscape:zoom="7.375"
     inkscape:cx="-10.711864"
     inkscape:cy="16"
     inkscape:window-x="0"
     inkscape:window-y="0"
     inkscape:window-maximized="1"
     inkscape:current-layer="svg12" />
  <rect
     style="opacity:1;fill:#4f4f4f;fill-opacity:1;fill-rule:evenodd;stroke:none;stroke-width:1.03534329;stroke-linecap:round;stroke-linejoin:bevel;stroke-miterlimit:4;stroke-dasharray:none;stroke-dashoffset:0;stroke-opacity:1"
     id="rect4497-3"
     width="28.203388"
     height="28.203388"
     x="1.8983059"
     y="1.8983059"
     ry="5.575182" />
  <path
     style="fill:#ffffff"
     d="m 15.999977,5.9999798 a 1,1 0 0 0 -0.0957,0.0059 c -5.466609,0.05227 -9.9042975,4.5154852 -9.9042975,9.9941402 0,5.511003 4.4889975,10 10.0000005,10 5.477339,0 9.939762,-4.43559 9.99414,-9.900391 a 1,1 0 0 0 0.0059,-0.09961 1,1 0 0 0 -1,-1 1,1 0 0 0 -1,1 c 0,4.430123 -3.569878,8 -8,8 -4.430123,0 -8.0000005,-3.569877 -8.0000005,-8 0,-4.430123 3.5698775,-7.9999998 8.0000005,-7.9999998 a 1,1 0 0 0 1,-1.0000004 1,1 0 0 0 -1,-1 z m 0,4.0000004 a 1,1 0 0 0 -0.0957,0.00391 c -3.257684,0.05206 -5.9042975,2.72652 -5.9042975,5.996094 0,3.301864 2.6981365,6 6.0000005,6 3.268225,0 5.93994,-2.644556 5.99414,-5.900391 a 1,1 0 0 0 0.0059,-0.09961 1,1 0 0 0 -1,-1 1,1 0 0 0 -1,1 c 0,2.220984 -1.779016,4 -4,4 -2.220984,0 -4,-1.779016 -4,-4 0,-2.220984 1.779016,-4 4,-4 a 1,1 0 0 0 1,-1 1,1 0 0 0 -1,-0.9999998 z m 0,3.9999998 a 2,2 0 0 0 -2,2 2,2 0 0 0 2,2 2,2 0 0 0 2,-2 2,2 0 0 0 -2,-2 z"
     id="path8"
     inkscape:connector-curvature="0" />
</svg>
