<?xml version="1.0" encoding="UTF-8" standalone="no"?>
<svg
   xmlns:dc="http://purl.org/dc/elements/1.1/"
   xmlns:cc="http://creativecommons.org/ns#"
   xmlns:rdf="http://www.w3.org/1999/02/22-rdf-syntax-ns#"
   xmlns:svg="http://www.w3.org/2000/svg"
   xmlns="http://www.w3.org/2000/svg"
   xmlns:sodipodi="http://sodipodi.sourceforge.net/DTD/sodipodi-0.dtd"
   xmlns:inkscape="http://www.inkscape.org/namespaces/inkscape"
   width="32"
   height="32"
   version="1"
   id="svg14"
   sodipodi:docname="com.github.robertsanseries.karim.svg"
   inkscape:version="0.92.1 r">
  <metadata
     id="metadata20">
    <rdf:RDF>
      <cc:Work
         rdf:about="">
        <dc:format>image/svg+xml</dc:format>
        <dc:type
           rdf:resource="http://purl.org/dc/dcmitype/StillImage" />
      </cc:Work>
    </rdf:RDF>
  </metadata>
  <defs
     id="defs18" />
  <sodipodi:namedview
     pagecolor="#ffffff"
     bordercolor="#666666"
     borderopacity="1"
     objecttolerance="10"
     gridtolerance="10"
     guidetolerance="10"
     inkscape:pageopacity="0"
     inkscape:pageshadow="2"
     inkscape:window-width="640"
     inkscape:window-height="480"
     id="namedview16"
     showgrid="false"
     inkscape:zoom="8.8125"
     inkscape:cx="-5.6737589"
     inkscape:cy="16"
     inkscape:current-layer="svg14" />
  <rect
     style="opacity:1;fill:#da3e45;fill-opacity:1;fill-rule:evenodd;stroke:none;stroke-width:1.03534329;stroke-linecap:round;stroke-linejoin:bevel;stroke-miterlimit:4;stroke-dasharray:none;stroke-dashoffset:0;stroke-opacity:1"
     id="rect4497-3"
     width="28.203388"
     height="28.203388"
     x="1.8983059"
     y="1.8983059"
     ry="5.575182" />
  <g
     id="g4517"
     transform="translate(42.620567,0.68085095)">
    <path
       inkscape:connector-curvature="0"
       id="path4"
       d="m -34.424124,5.4382952 a 1.6856953,1.5507304 0 0 0 -1.724812,1.5501374 V 23.650829 a 1.6856953,1.5507304 0 0 0 2.528518,1.341846 l 7.842974,-4.164858 7.842473,-4.165352 a 1.6856953,1.5507304 0 0 0 0,-2.685865 l -7.842473,-4.165846 -7.842974,-4.1652534 a 1.6856953,1.5507304 0 0 0 -0.803756,-0.2072054 z"
       style="fill:#ffffff;fill-opacity:1;stroke-width:1" />
    <g
       style="fill:#da3e45;fill-opacity:1;stroke-width:1.41682172"
       transform="matrix(0.70580509,0,0,0.70580509,-38.266351,4.0262675)"
       id="g4511">
      <rect
         style="fill:#da3e45;fill-opacity:1;stroke-width:1.41682172"
         width="3"
         height="7"
         x="11"
         y="10"
         rx="0.75"
         ry="0.69999999"
         id="rect6" />
      <path
         inkscape:connector-curvature="0"
         style="fill:#da3e45;fill-opacity:1;stroke-width:1.41682172"
         d="m 7.8778711,16.000014 a 0.53973849,0.87812746 89.999999 0 0 -0.2603032,0.02403 0.53973849,0.87812746 89.999999 0 0 -0.4995413,0.785704 l 4.6222604,4.920859 a 0.53973849,0.87812746 89.999999 0 0 1.521193,-0.0012 l 4.620756,-4.919657 a 0.53973849,0.87812746 89.999999 0 0 -0.759844,-0.809732 z"
         id="path10" />
    </g>
  </g>
</svg>
