<?xml version="1.0" encoding="UTF-8" standalone="no"?>
<svg
   xmlns:dc="http://purl.org/dc/elements/1.1/"
   xmlns:cc="http://creativecommons.org/ns#"
   xmlns:rdf="http://www.w3.org/1999/02/22-rdf-syntax-ns#"
   xmlns:svg="http://www.w3.org/2000/svg"
   xmlns="http://www.w3.org/2000/svg"
   xmlns:sodipodi="http://sodipodi.sourceforge.net/DTD/sodipodi-0.dtd"
   xmlns:inkscape="http://www.inkscape.org/namespaces/inkscape"
   height="32"
   width="32"
   version="1"
   id="svg20"
   sodipodi:docname="com.github.donadigo.appeditor.svg"
   inkscape:version="0.92.2 2405546, 2018-03-11">
  <metadata
     id="metadata26">
    <rdf:RDF>
      <cc:Work
         rdf:about="">
        <dc:format>image/svg+xml</dc:format>
        <dc:type
           rdf:resource="http://purl.org/dc/dcmitype/StillImage" />
      </cc:Work>
    </rdf:RDF>
  </metadata>
  <defs
     id="defs24" />
  <sodipodi:namedview
     pagecolor="#ffffff"
     bordercolor="#666666"
     borderopacity="1"
     objecttolerance="10"
     gridtolerance="10"
     guidetolerance="10"
     inkscape:pageopacity="0"
     inkscape:pageshadow="2"
     inkscape:window-width="1680"
     inkscape:window-height="972"
     id="namedview22"
     showgrid="false"
     inkscape:zoom="14.75"
     inkscape:cx="5.6901424"
     inkscape:cy="16.250147"
     inkscape:window-x="0"
     inkscape:window-y="0"
     inkscape:window-maximized="1"
     inkscape:current-layer="svg20" />
  <rect
     style="opacity:1;fill:#5f7c8a;fill-opacity:1;fill-rule:evenodd;stroke:none;stroke-width:1.03534329;stroke-linecap:round;stroke-linejoin:bevel;stroke-miterlimit:4;stroke-dasharray:none;stroke-dashoffset:0;stroke-opacity:1"
     id="rect4497"
     width="28.203388"
     height="28.203388"
     x="1.8983059"
     y="1.8983059"
     ry="5.575182" />
  <g
     id="g4505"
     transform="matrix(0.68155368,0,0,0.68155368,5.095231,6.0799346)">
    <path
       id="path2-3"
       d="m 13.134,1.0006 c -0.29681,0.0323 -0.55825,0.27515 -0.6125,0.56874 l -0.59061,2.9968 c -1.0603,0.41466 -2.0568,0.98438 -2.9312,1.6844 l -2.909,-0.9844 C 5.78844,5.16192 5.42184,5.29694 5.25945,5.57239 l -2.8,4.8562 c -0.15772,0.2793 -0.0901,0.66583 0.15312,0.87499 l 2.3187,2.0343 c -0.0816,0.54547 -0.13125,1.0943 -0.13125,1.6625 0,0.56822 0.0496,1.117 0.13125,1.6625 l -2.3187,2.0344 c -0.24319,0.20916 -0.31084,0.59569 -0.15312,0.87499 l 2.8,4.8562 c 0.16239,0.2754 0.52899,0.41046 0.83124,0.30624 l 2.9093,-0.98436 c 0.87441,0.69997 1.8709,1.2697 2.9312,1.6844 l 0.59061,2.9968 c 0.0599,0.3137 0.35879,0.56439 0.67812,0.56874 h 5.5999 c 0.31933,-0.004 0.61824,-0.25504 0.67811,-0.56874 l 0.59062,-2.9968 c 1.0603,-0.41466 2.0568,-0.98439 2.9312,-1.6844 l 2.9093,0.98436 c 0.30224,0.10422 0.66885,-0.0308 0.83124,-0.30624 l 2.8,-4.8562 c 0.15771,-0.2793 0.0901,-0.66583 -0.15312,-0.87499 l -2.3187,-2.0344 c 0.0816,-0.54547 0.13124,-1.0942 0.13124,-1.6625 0,-0.56822 -0.0497,-1.117 -0.13124,-1.6625 l 2.3187,-2.0343 c 0.24319,-0.20916 0.31083,-0.59569 0.15312,-0.87499 l -2.8,-4.8562 C 26.5779,5.29699 26.21129,5.16192 25.90905,5.26614 l -2.9093,0.98436 c -0.875,-0.7005 -1.871,-1.2702 -2.931,-1.6849 L 19.47813,1.5688 C 19.41823,1.2551 19.11935,1.0044 18.80002,1.00006 h -5.5999 c -0.0219,-5.1e-4 -0.0438,-5.1e-4 -0.0656,0 z"
       style="fill:#ffffff;enable-background:new"
       inkscape:connector-curvature="0" />
    <path
       id="path6-6"
       d="m 16,9.0002 c 3.3137,0 6,2.6863 6,6 0,3.3137 -2.6863,6 -6,6 -3.3137,0 -6,-2.6863 -6,-6 0,-3.3137 2.6863,-6 6,-6 z"
       style="fill:#5f7c8a;fill-opacity:1;enable-background:new"
       inkscape:connector-curvature="0" />
  </g>
  <path
     style="fill:#f2f2f2;fill-opacity:1;stroke:none;stroke-width:1.54591537px;stroke-linecap:butt;stroke-linejoin:miter;stroke-opacity:1"
     d="m 19.143676,22.945485 4.867932,-8.252055 c 1.53258,-0.915981 4.364278,-0.364124 4.347296,2.499045 l -4.8419,8.434276 -4.165074,2.1346 z"
     id="path4496"
     inkscape:connector-curvature="0"
     sodipodi:nodetypes="cccccc" />
  <path
     style="fill:#300503;fill-opacity:1;stroke:none;stroke-width:1.54591537px;stroke-linecap:butt;stroke-linejoin:miter;stroke-opacity:1"
     d="m 19.282227,26.14682 0.06971,1.614531 1.444396,-0.740098 z"
     id="path4528"
     inkscape:connector-curvature="0" />
  <path
     style="fill:#cccccc;fill-opacity:1;stroke:none;stroke-width:1.54591537px;stroke-linecap:butt;stroke-linejoin:miter;stroke-opacity:1"
     d="m 22.192973,24.723018 -1.748546,2.095153 0.343118,0.198013 2.729459,-1.389433 0.05383,-0.100577 z"
     id="path4563"
     inkscape:connector-curvature="0"
     sodipodi:nodetypes="cccccc" />
  <path
     style="fill:#0ab884;fill-opacity:1;stroke:none;stroke-width:1.54591537px;stroke-linecap:butt;stroke-linejoin:miter;stroke-opacity:1"
     d="m 27.781545,18.198204 -4.35822,-2.50702 -4.279649,7.254301 4.429821,2.582742 z"
     id="path4516"
     inkscape:connector-curvature="0" />
  <path
     style="fill:#e3e2db;fill-opacity:1;stroke:none;stroke-width:1.54591537px;stroke-linecap:butt;stroke-linejoin:miter;stroke-opacity:1"
     d="m 28.358588,17.189623 -4.336043,-2.501002 c -0.0032,0.002 -0.0074,0.0028 -0.01082,0.0048 l -0.588339,0.997677 4.358221,2.50702 0.577251,-1.005598 c 6e-6,-10e-4 -3.25e-4,-0.0019 -3.25e-4,-0.0028 z"
     id="path4523"
     inkscape:connector-curvature="0" />
  <path
     style="fill:#f2f2f2;fill-opacity:1;stroke:none;stroke-width:1.54591537px;stroke-linecap:butt;stroke-linejoin:miter;stroke-opacity:1"
     d="m 25.339897,14.29481 c -0.476592,0.03206 -0.936123,0.168352 -1.317352,0.393811 l 4.336043,2.501002 c 0.01113,-2.145101 -1.577206,-2.991774 -3.018691,-2.894813 z"
     id="path4496-3"
     inkscape:connector-curvature="0" />
  <path
     style="fill:#007d68;fill-opacity:1;stroke:none;stroke-width:1.54591537px;stroke-linecap:butt;stroke-linejoin:miter;stroke-opacity:1"
     d="m 26.359749,17.380035 -4.166858,7.343011 1.380717,0.805048 4.208045,-7.330023 z"
     id="path4548"
     inkscape:connector-curvature="0" />
  <path
     style="fill:#0ab884;fill-opacity:1;stroke:none;stroke-width:1.54591537px;stroke-linecap:butt;stroke-linejoin:miter;stroke-opacity:1"
     d="m 24.775951,16.468851 -4.215966,7.302142 1.632906,0.952053 4.166858,-7.343011 z"
     id="path4553"
     inkscape:connector-curvature="0" />
  <path
     style="fill:#cccccc;fill-opacity:1;stroke:none;stroke-width:1.54591537px;stroke-linecap:butt;stroke-linejoin:miter;stroke-opacity:1"
     d="m 24.58459,16.358596 -4.215332,7.301191 0.190727,0.111198 4.215966,-7.302142 z"
     id="path4558"
     inkscape:connector-curvature="0" />
</svg>
