<?xml version="1.0" encoding="UTF-8" standalone="no"?>
<svg
   xmlns:dc="http://purl.org/dc/elements/1.1/"
   xmlns:cc="http://creativecommons.org/ns#"
   xmlns:rdf="http://www.w3.org/1999/02/22-rdf-syntax-ns#"
   xmlns:svg="http://www.w3.org/2000/svg"
   xmlns="http://www.w3.org/2000/svg"
   xmlns:sodipodi="http://sodipodi.sourceforge.net/DTD/sodipodi-0.dtd"
   xmlns:inkscape="http://www.inkscape.org/namespaces/inkscape"
   height="32"
   width="32"
   version="1"
   id="svg12"
   sodipodi:docname="com.github.stsdc.monitor.svg"
   inkscape:version="0.92.1 r">
  <metadata
     id="metadata18">
    <rdf:RDF>
      <cc:Work
         rdf:about="">
        <dc:format>image/svg+xml</dc:format>
        <dc:type
           rdf:resource="http://purl.org/dc/dcmitype/StillImage" />
      </cc:Work>
    </rdf:RDF>
  </metadata>
  <defs
     id="defs16" />
  <sodipodi:namedview
     pagecolor="#ffffff"
     bordercolor="#666666"
     borderopacity="1"
     objecttolerance="10"
     gridtolerance="10"
     guidetolerance="10"
     inkscape:pageopacity="0"
     inkscape:pageshadow="2"
     inkscape:window-width="640"
     inkscape:window-height="480"
     id="namedview14"
     showgrid="false"
     inkscape:zoom="6.2313785"
     inkscape:cx="-24.309519"
     inkscape:cy="6.8095178"
     inkscape:current-layer="svg12" />
  <g
     id="g4529"
     transform="translate(52.199218,-4.9921875)">
    <path
       id="path4524"
       d="m -22.097656,22.447266 h -8.134766 l -2.919922,6.560546 a 1.50015,1.50015 0 0 1 -0.01953,0.04492 1.50015,1.50015 0 0 1 -0.07227,0.13086 1.50015,1.50015 0 0 1 -0.08594,0.123047 1.50015,1.50015 0 0 1 -0.0957,0.115234 1.50015,1.50015 0 0 1 -0.107422,0.103516 1.50015,1.50015 0 0 1 -0.117188,0.09375 1.50015,1.50015 0 0 1 -0.126953,0.08203 1.50015,1.50015 0 0 1 -0.134765,0.06641 1.50015,1.50015 0 0 1 -0.138672,0.05469 1.50015,1.50015 0 0 1 -0.144531,0.04102 1.50015,1.50015 0 0 1 -0.148438,0.02539 1.50015,1.50015 0 0 1 -0.148438,0.0098 1.50015,1.50015 0 0 1 -0.15039,-0.0039 1.50015,1.50015 0 0 1 -0.148438,-0.01953 1.50015,1.50015 0 0 1 -0.146484,-0.03516 1.50015,1.50015 0 0 1 -0.142578,-0.04883 1.50015,1.50015 0 0 1 -0.134766,-0.06055 1.50015,1.50015 0 0 1 -0.130859,-0.07617 1.50015,1.50015 0 0 1 -0.121094,-0.08984 1.50015,1.50015 0 0 1 -0.111328,-0.09961 1.50015,1.50015 0 0 1 -0.101563,-0.109375 1.50015,1.50015 0 0 1 -0.08984,-0.121094 1.50015,1.50015 0 0 1 -0.07617,-0.128906 1.50015,1.50015 0 0 1 -0.06445,-0.134766 1.50015,1.50015 0 0 1 -0.05078,-0.140625 1.50015,1.50015 0 0 1 -0.03516,-0.146484 l -1.988281,-10.230469 -1.380859,3.103516 a 1.50015,1.50015 0 0 1 -0.0332,0.07031 1.50015,1.50015 0 0 1 -0.07617,0.130859 1.50015,1.50015 0 0 1 -0.08594,0.123047 1.50015,1.50015 0 0 1 -0.09961,0.111329 1.50015,1.50015 0 0 1 -0.109375,0.101562 1.50015,1.50015 0 0 1 -0.119141,0.0918 1.50015,1.50015 0 0 1 -0.128906,0.07813 1.50015,1.50015 0 0 1 -0.134766,0.06445 1.50015,1.50015 0 0 1 -0.140625,0.05273 1.50015,1.50015 0 0 1 -0.144531,0.03711 1.50015,1.50015 0 0 1 -0.148438,0.02148 1.50015,1.50015 0 0 1 -0.15039,0.0078 h -9.529297 a 1.50015,1.50015 0 0 1 -0.03516,0 v 7.072265 c 0,3.088651 2.487521,5.574219 5.576172,5.574219 h 17.052734 c 3.088651,0 5.574219,-2.485568 5.574219,-5.574219 z"
       style="opacity:1;fill:#4f4f4f;fill-opacity:1;fill-rule:evenodd;stroke:none;stroke-width:1.03534329;stroke-linecap:round;stroke-linejoin:bevel;stroke-miterlimit:4;stroke-dasharray:none;stroke-dashoffset:0;stroke-opacity:1"
       inkscape:connector-curvature="0" />
    <path
       id="path4522"
       d="m -22.097656,19.447266 h -9.109375 a 1.50015,1.50015 0 0 0 -0.150391,0.0078 1.50015,1.50015 0 0 0 -0.148437,0.02148 1.50015,1.50015 0 0 0 -0.144532,0.03711 1.50015,1.50015 0 0 0 -0.140625,0.05078 1.50015,1.50015 0 0 0 -0.134765,0.06641 1.50015,1.50015 0 0 0 -0.128907,0.07813 1.50015,1.50015 0 0 0 -0.11914,0.08984 1.50015,1.50015 0 0 0 -0.109375,0.103516 1.50015,1.50015 0 0 0 -0.09961,0.111328 1.50015,1.50015 0 0 0 -0.08789,0.123047 1.50015,1.50015 0 0 0 -0.07422,0.128906 1.50015,1.50015 0 0 0 -0.0332,0.07031 l -1.380859,3.103515 -1.988282,-10.228515 a 1.50015,1.50015 0 0 0 -0.03516,-0.146485 1.50015,1.50015 0 0 0 -0.05078,-0.140625 1.50015,1.50015 0 0 0 -0.06445,-0.134766 1.50015,1.50015 0 0 0 -0.07813,-0.128906 1.50015,1.50015 0 0 0 -0.08984,-0.11914 1.50015,1.50015 0 0 0 -0.101563,-0.111328 1.50015,1.50015 0 0 0 -0.111328,-0.09961 1.50015,1.50015 0 0 0 -0.121093,-0.08789 1.50015,1.50015 0 0 0 -0.128907,-0.07617 1.50015,1.50015 0 0 0 -0.136718,-0.0625 1.50015,1.50015 0 0 0 -0.142578,-0.04883 1.50015,1.50015 0 0 0 -0.146485,-0.0332 1.50015,1.50015 0 0 0 -0.148437,-0.01953 1.50015,1.50015 0 0 0 -0.150391,-0.0039 1.50015,1.50015 0 0 0 -0.150391,0.0098 1.50015,1.50015 0 0 0 -0.146484,0.02734 1.50015,1.50015 0 0 0 -0.144531,0.03906 1.50015,1.50015 0 0 0 -0.140625,0.05469 1.50015,1.50015 0 0 0 -0.132813,0.06836 1.50015,1.50015 0 0 0 -0.126953,0.08008 1.50015,1.50015 0 0 0 -0.117187,0.09375 1.50015,1.50015 0 0 0 -0.107422,0.105468 1.50015,1.50015 0 0 0 -0.0957,0.113282 1.50015,1.50015 0 0 0 -0.08594,0.125 1.50015,1.50015 0 0 0 -0.07031,0.130859 1.50015,1.50015 0 0 0 -0.01953,0.04102 l -2.919922,6.560547 h -8.554687 a 1.50015,1.50015 0 0 0 -0.03516,0.002 v 2.998047 a 1.50015,1.50015 0 0 0 0.03516,0 h 9.529297 a 1.50015,1.50015 0 0 0 0.15039,-0.0078 1.50015,1.50015 0 0 0 0.148438,-0.02148 1.50015,1.50015 0 0 0 0.144531,-0.03711 1.50015,1.50015 0 0 0 0.140625,-0.05273 1.50015,1.50015 0 0 0 0.134766,-0.06445 1.50015,1.50015 0 0 0 0.128906,-0.07813 1.50015,1.50015 0 0 0 0.119141,-0.0918 1.50015,1.50015 0 0 0 0.109375,-0.101562 1.50015,1.50015 0 0 0 0.09961,-0.111329 1.50015,1.50015 0 0 0 0.08594,-0.123047 1.50015,1.50015 0 0 0 0.07617,-0.130859 1.50015,1.50015 0 0 0 0.0332,-0.07031 l 1.380859,-3.103516 1.988281,10.230469 a 1.50015,1.50015 0 0 0 0.03516,0.146484 1.50015,1.50015 0 0 0 0.05078,0.140625 1.50015,1.50015 0 0 0 0.06445,0.134766 1.50015,1.50015 0 0 0 0.07617,0.128906 1.50015,1.50015 0 0 0 0.08984,0.121094 1.50015,1.50015 0 0 0 0.101563,0.109375 1.50015,1.50015 0 0 0 0.111328,0.09961 1.50015,1.50015 0 0 0 0.121094,0.08984 1.50015,1.50015 0 0 0 0.130859,0.07617 1.50015,1.50015 0 0 0 0.134766,0.06055 1.50015,1.50015 0 0 0 0.142578,0.04883 1.50015,1.50015 0 0 0 0.146484,0.03516 1.50015,1.50015 0 0 0 0.148438,0.01953 1.50015,1.50015 0 0 0 0.15039,0.0039 1.50015,1.50015 0 0 0 0.148438,-0.0098 1.50015,1.50015 0 0 0 0.148438,-0.02539 1.50015,1.50015 0 0 0 0.144531,-0.04102 1.50015,1.50015 0 0 0 0.138672,-0.05469 1.50015,1.50015 0 0 0 0.134765,-0.06641 1.50015,1.50015 0 0 0 0.126953,-0.08203 1.50015,1.50015 0 0 0 0.117188,-0.09375 1.50015,1.50015 0 0 0 0.107422,-0.103516 1.50015,1.50015 0 0 0 0.0957,-0.115234 1.50015,1.50015 0 0 0 0.08594,-0.123047 1.50015,1.50015 0 0 0 0.07227,-0.13086 1.50015,1.50015 0 0 0 0.01953,-0.04492 l 2.919922,-6.560546 h 8.134766 z"
       style="opacity:1;fill:#659fff;fill-opacity:1;fill-rule:evenodd;stroke:none;stroke-width:1.03534329;stroke-linecap:round;stroke-linejoin:bevel;stroke-miterlimit:4;stroke-dasharray:none;stroke-dashoffset:0;stroke-opacity:1"
       inkscape:connector-curvature="0" />
    <path
       id="rect4497-3"
       d="m -44.724609,6.890625 c -3.088651,0 -5.576172,2.4875211 -5.576172,5.576172 v 6.982422 a 1.50015,1.50015 0 0 1 0.03516,-0.002 h 8.554687 l 2.919922,-6.560547 a 1.50015,1.50015 0 0 1 0.01953,-0.04102 1.50015,1.50015 0 0 1 0.07031,-0.130859 1.50015,1.50015 0 0 1 0.08594,-0.125 1.50015,1.50015 0 0 1 0.0957,-0.113282 1.50015,1.50015 0 0 1 0.107422,-0.105468 1.50015,1.50015 0 0 1 0.117187,-0.09375 1.50015,1.50015 0 0 1 0.126953,-0.08008 1.50015,1.50015 0 0 1 0.132813,-0.06836 1.50015,1.50015 0 0 1 0.140625,-0.05469 1.50015,1.50015 0 0 1 0.144531,-0.03906 1.50015,1.50015 0 0 1 0.146484,-0.02734 1.50015,1.50015 0 0 1 0.150391,-0.0098 1.50015,1.50015 0 0 1 0.150391,0.0039 1.50015,1.50015 0 0 1 0.148437,0.01953 1.50015,1.50015 0 0 1 0.146485,0.0332 1.50015,1.50015 0 0 1 0.142578,0.04883 1.50015,1.50015 0 0 1 0.136718,0.0625 1.50015,1.50015 0 0 1 0.128907,0.07617 1.50015,1.50015 0 0 1 0.121093,0.08789 1.50015,1.50015 0 0 1 0.111328,0.09961 1.50015,1.50015 0 0 1 0.101563,0.111328 1.50015,1.50015 0 0 1 0.08984,0.11914 1.50015,1.50015 0 0 1 0.07813,0.128906 1.50015,1.50015 0 0 1 0.06445,0.134766 1.50015,1.50015 0 0 1 0.05078,0.140625 1.50015,1.50015 0 0 1 0.03516,0.146485 l 1.988282,10.228515 1.380859,-3.103515 a 1.50015,1.50015 0 0 1 0.0332,-0.07031 1.50015,1.50015 0 0 1 0.07422,-0.128906 1.50015,1.50015 0 0 1 0.08789,-0.123047 1.50015,1.50015 0 0 1 0.09961,-0.111328 1.50015,1.50015 0 0 1 0.109375,-0.103516 1.50015,1.50015 0 0 1 0.11914,-0.08984 1.50015,1.50015 0 0 1 0.128907,-0.07813 1.50015,1.50015 0 0 1 0.134765,-0.06641 1.50015,1.50015 0 0 1 0.140625,-0.05078 1.50015,1.50015 0 0 1 0.144532,-0.03711 1.50015,1.50015 0 0 1 0.148437,-0.02148 1.50015,1.50015 0 0 1 0.150391,-0.0078 h 9.109375 v -6.980469 c 0,-3.0886509 -2.485568,-5.576172 -5.574219,-5.576172 z"
       style="opacity:1;fill:#4f4f4f;fill-opacity:1;fill-rule:evenodd;stroke:none;stroke-width:1.03534329;stroke-linecap:round;stroke-linejoin:bevel;stroke-miterlimit:4;stroke-dasharray:none;stroke-dashoffset:0;stroke-opacity:1"
       inkscape:connector-curvature="0" />
  </g>
</svg>
