<?xml version="1.0" encoding="UTF-8" standalone="no"?>
<svg
   xmlns:dc="http://purl.org/dc/elements/1.1/"
   xmlns:cc="http://creativecommons.org/ns#"
   xmlns:rdf="http://www.w3.org/1999/02/22-rdf-syntax-ns#"
   xmlns:svg="http://www.w3.org/2000/svg"
   xmlns="http://www.w3.org/2000/svg"
   xmlns:sodipodi="http://sodipodi.sourceforge.net/DTD/sodipodi-0.dtd"
   xmlns:inkscape="http://www.inkscape.org/namespaces/inkscape"
   height="32"
   width="32"
   version="1"
   id="svg12"
   sodipodi:docname="com.github.donadigo.eddy.svg"
   inkscape:version="0.92.1 r">
  <metadata
     id="metadata18">
    <rdf:RDF>
      <cc:Work
         rdf:about="">
        <dc:format>image/svg+xml</dc:format>
        <dc:type
           rdf:resource="http://purl.org/dc/dcmitype/StillImage" />
      </cc:Work>
    </rdf:RDF>
  </metadata>
  <defs
     id="defs16" />
  <sodipodi:namedview
     pagecolor="#ffffff"
     bordercolor="#666666"
     borderopacity="1"
     objecttolerance="10"
     gridtolerance="10"
     guidetolerance="10"
     inkscape:pageopacity="0"
     inkscape:pageshadow="2"
     inkscape:window-width="640"
     inkscape:window-height="480"
     id="namedview14"
     showgrid="false"
     inkscape:zoom="8.8125"
     inkscape:cx="-5.6737589"
     inkscape:cy="16"
     inkscape:current-layer="svg12" />
  <rect
     style="opacity:1;fill:#cccccc;fill-opacity:1;fill-rule:evenodd;stroke:none;stroke-width:1.03534329;stroke-linecap:round;stroke-linejoin:bevel;stroke-miterlimit:4;stroke-dasharray:none;stroke-dashoffset:0;stroke-opacity:1"
     id="rect4497-3"
     width="28.203388"
     height="28.203388"
     x="1.8983059"
     y="1.8983059"
     ry="5.575182" />
  <path
     style="fill:#f9548f"
     d="m 14.424669,17.024392 c -0.118991,-0.130562 -0.187984,-0.28743 -0.266975,-0.444308 0.07514,0.274786 0.229093,0.510986 0.371873,0.75151 l -0.104918,-0.306985 m 3.31e-4,6.38e-4 c -0.118415,-0.130701 -0.188094,-0.287726 -0.266894,-0.443844 0.07514,0.274786 0.229084,0.511006 0.371873,0.751529 L 14.42498,17.025237 m 7.331976,-2.393058 c 0.01877,0.512684 -0.146997,0.761805 -0.296918,1.202372 l -0.269597,0.136445 c -0.220399,0.435869 0.02188,0.27672 -0.13595,0.623247 -0.344452,0.311307 -1.04383,0.973812 -1.267687,1.034468 -0.163681,-0.0037 0.110718,-0.196499 0.146582,-0.271834 -0.460599,0.321702 -0.369684,0.482982 -1.074196,0.678839 l -0.02043,-0.04691 c -1.736891,0.83185 -4.149795,-0.81635 -4.118117,-3.064809 -0.01835,0.142605 -0.05275,0.106952 -0.09112,0.164252 -0.08966,-1.156767 0.525022,-2.31857 1.561659,-2.793656 1.014069,-0.51056 2.202765,-0.301327 2.928513,0.388123 -0.398667,-0.531783 -1.192933,-1.095568 -2.133459,-1.04345 -0.921823,0.01528 -1.784508,0.611363 -2.072123,1.258735 -0.472069,0.302394 -0.527111,1.166342 -0.732709,1.324572 -0.277113,2.071108 0.520643,2.965508 1.870358,4.018336 0.211843,0.145566 0.05963,0.167854 0.08799,0.278625 -0.448301,-0.213477 -0.85864,-0.536028 -1.196364,-0.930943 0.179318,0.266742 0.3726,0.52606 0.622616,0.729774 -0.42307,-0.145368 -0.987921,-1.042562 -1.152379,-1.079084 0.728734,1.32793 2.956256,2.328936 4.123263,1.832134 -0.540044,0.02036 -1.225822,0.01125 -1.832125,-0.216873 -0.255424,-0.133473 -0.601339,-0.409563 -0.539407,-0.461119 1.592226,0.604998 3.236507,0.457941 4.613854,-0.665682 0.350717,-0.277993 0.733535,-0.750561 0.844253,-0.756938 -0.166597,0.255064 0.02856,0.122656 -0.09946,0.34781 0.34863,-0.573162 -0.152009,-0.233426 0.360725,-0.989752 l 0.189326,0.265259 c -0.07089,-0.47619 0.580699,-1.053716 0.51439,-1.806271 0.149497,-0.230021 0.166596,0.247858 0.0081,0.777095 0.219973,-0.587169 0.05818,-0.681604 0.114471,-1.166343 0.06068,0.162968 0.141367,0.335916 0.182446,0.508015 -0.143454,-0.567646 0.146582,-0.955561 0.218723,-1.285584 -0.07131,-0.03183 -0.221225,0.250829 -0.255838,-0.419315 0.0053,-0.291151 0.07987,-0.152574 0.108418,-0.224296 -0.05589,-0.03289 -0.203298,-0.256129 -0.29275,-0.68414 0.06442,-0.100802 0.173478,0.260798 0.26189,0.275437 -0.05693,-0.340171 -0.154713,-0.599686 -0.158889,-0.860909 -0.258552,-0.54961 -0.09153,0.07343 -0.300881,-0.235973 -0.275228,-0.87301 0.228115,-0.202658 0.262304,-0.599053 0.416603,0.614334 0.654091,1.567199 0.763557,1.96154 -0.0834,-0.481057 -0.217895,-0.947278 -0.382414,-1.39821 0.12698,0.05454 -0.204126,-0.989555 0.164923,-0.298139 C 22.887055,9.6643511 21.59677,8.2872661 20.409385,7.641217 20.554656,7.7764481 20.738262,7.9461281 20.672688,7.9728781 20.081518,7.6153552 20.185426,7.5871245 20.100685,7.4360014 19.619476,7.2368071 19.588202,7.4523874 19.269414,7.4364949 18.362482,6.9467075 18.187956,6.998727 17.353659,6.6922363 l 0.03796,0.1808049 C 16.790904,6.669326 16.691657,6.9498592 16.04252,6.873466 16.00312,6.842287 16.250619,6.7597337 16.454533,6.7298053 15.873622,6.8079003 15.900729,6.6131018 15.332318,6.7512413 15.472232,6.6512893 15.62069,6.5848678 15.769975,6.499998 15.296454,6.529277 14.639084,6.7805381 14.841909,6.551776 14.069382,6.9027549 12.69715,7.3952819 11.927115,8.1301291 l -0.0242,-0.164676 c -0.352789,0.430982 -1.53855,1.287261 -1.633076,1.846051 l -0.09446,0.02228 C 9.992105,10.150175 9.873045,10.508597 9.727501,10.833902 c -0.239989,0.41655 -0.351969,0.160431 -0.31777,0.225786 -0.47227,0.974453 -0.707255,1.793143 -0.909726,2.464955 0.144292,0.219627 0.0036,1.322501 0.05797,2.205055 -0.236862,4.359573 3.006295,8.591909 6.5513,9.568928 0.519603,0.189501 1.2921,0.182711 1.949349,0.201376 -0.775231,-0.225786 -0.875327,-0.119477 -1.630965,-0.387482 -0.544824,-0.261439 -0.664097,-0.55958 -1.050184,-0.900598 l 0.152836,0.274804 c -0.75689,-0.272672 -0.440169,-0.337395 -1.056136,-0.53581 L 13.637442,23.73426 C 13.393306,23.7155 12.988768,23.313756 12.877798,23.090674 l -0.268559,0.01083 C 12.28688,22.697035 12.114865,22.404837 12.127575,22.178419 l -0.08675,0.157461 c -0.0982,-0.171675 -1.186578,-1.518932 -0.62198,-1.205234 -0.104878,-0.09718 -0.244367,-0.158517 -0.39554,-0.438405 L 11.1382,20.558766 c -0.271272,-0.355865 -0.500003,-0.811889 -0.482479,-0.963832 0.144907,0.199037 0.245416,0.236398 0.345087,0.270561 -0.686201,-1.732438 -0.724778,-0.09528 -1.244181,-1.763434 l 0.109669,-0.0089 C 9.782266,17.963514 9.730775,17.823674 9.663214,17.685955 l 0.04796,-0.484887 C 9.217557,16.619674 9.573268,14.729401 9.644794,13.692958 9.693724,13.271472 10.057,12.822347 10.332409,12.118554 l -0.16806,-0.02928 c 0.321512,-0.570407 1.835251,-2.2916219 2.536686,-2.2032769 0.339661,-0.43417 -0.06756,-0.0017 -0.134073,-0.110771 0.746258,-0.7858 0.980829,-0.555128 1.484383,-0.696666 0.542748,-0.327852 -0.466016,0.128163 -0.208715,-0.124995 0.938922,-0.243821 0.665137,-0.554704 1.889727,-0.678416 0.129271,0.07469 -0.29963,0.11544 -0.407221,0.212421 0.781909,-0.389603 2.474845,-0.300696 3.574967,0.216025 1.275355,0.607118 2.709397,2.4008919 2.766092,4.0886149 l 0.06442,0.01761 c -0.03252,0.670993 0.100923,1.446971 -0.130733,2.159551 l 0.15659,-0.337614"
     id="path8"
     inkscape:connector-curvature="0" />
</svg>
