<?xml version="1.0" encoding="UTF-8" standalone="no"?>
<svg
   xmlns:dc="http://purl.org/dc/elements/1.1/"
   xmlns:cc="http://creativecommons.org/ns#"
   xmlns:rdf="http://www.w3.org/1999/02/22-rdf-syntax-ns#"
   xmlns:svg="http://www.w3.org/2000/svg"
   xmlns="http://www.w3.org/2000/svg"
   xmlns:sodipodi="http://sodipodi.sourceforge.net/DTD/sodipodi-0.dtd"
   xmlns:inkscape="http://www.inkscape.org/namespaces/inkscape"
   height="32"
   width="32"
   version="1"
   id="svg14"
   sodipodi:docname="bleachbit.svg"
   inkscape:version="0.92.1 r">
  <metadata
     id="metadata20">
    <rdf:RDF>
      <cc:Work
         rdf:about="">
        <dc:format>image/svg+xml</dc:format>
        <dc:type
           rdf:resource="http://purl.org/dc/dcmitype/StillImage" />
      </cc:Work>
    </rdf:RDF>
  </metadata>
  <defs
     id="defs18" />
  <sodipodi:namedview
     pagecolor="#ffffff"
     bordercolor="#666666"
     borderopacity="1"
     objecttolerance="10"
     gridtolerance="10"
     guidetolerance="10"
     inkscape:pageopacity="0"
     inkscape:pageshadow="2"
     inkscape:window-width="1680"
     inkscape:window-height="963"
     id="namedview16"
     showgrid="false"
     inkscape:zoom="10.429825"
     inkscape:cx="-4.6668183"
     inkscape:cy="14.609998"
     inkscape:window-x="0"
     inkscape:window-y="0"
     inkscape:window-maximized="1"
     inkscape:current-layer="svg14" />
  <rect
     style="opacity:1;fill:#c2352a;fill-opacity:1;fill-rule:evenodd;stroke:none;stroke-width:1.03534329;stroke-linecap:round;stroke-linejoin:bevel;stroke-miterlimit:4;stroke-dasharray:none;stroke-dashoffset:0;stroke-opacity:1"
     id="rect4497-3"
     width="28.203388"
     height="28.203388"
     x="1.8983059"
     y="1.8983059"
     ry="5.575182" />
  <path
     d="m 15.066947,15.366523 -1.157344,1.336909 -0.892336,0.879859 -0.993443,0.674937 -1.19464,0.636929 -1.3840392,0.521039 -0.8667705,0.204792 -0.037364,0.113924 0.05008,0.305946 0.2012316,0.509911 0.4270516,0.840867 0.4152117,0.623021 0.8049258,0.853886 0.364224,0.368991 0.326894,0.11589 1.483315,-0.01391 -0.879587,0.610971 -0.01274,0.153899 0.528125,0.419986 0.716635,0.419985 c 0.926445,0.523155 1.761005,-0.51084 1.761005,-0.51084 0,0 -0.449186,0.783769 -0.421586,1.059695 h 0.880536 l 0.465297,-0.07602 0.528126,-0.267938 -0.17665,0.279988 0.957028,0.01205 c 1.009853,-0.02409 1.677461,-0.614985 2.275493,-1.247873 l 0.628283,-0.751897 0.490795,-0.750948 0.364224,-0.687951 0.579113,-1.362882 0.4398,-1.107909 0.21398,-0.586864 H 21.7433 l -1.589848,-0.186347 c -1.276693,-0.366285 -1.964644,-1.320635 -3.147824,-2.050764 l -0.980695,-0.611893 -0.779428,-0.470974 -0.112907,-0.165955 -0.02276,-0.0649 -0.0428,-0.02781 z"
     id="path2"
     inkscape:connector-curvature="0"
     style="fill:#fed24c;stroke-width:0.67811805" />
  <path
     d="m 22.204818,7.0030891 -0.924546,1.765616 -0.799569,1.8010139 -0.978321,1.964372 -0.675955,1.61582 -0.751219,-0.319902 -1.081802,-0.47237 h -0.264737 l -0.225766,0.06398 -0.364184,0.484617 -1.056236,1.412995 0.04973,0.140214 0.112886,0.166078 0.779429,0.471007 0.981034,0.611222 c 1.18318,0.730198 1.870792,1.684513 3.147485,2.050765 l 1.589576,0.187228 h 0.267423 l 0.01747,-0.07079 0.231144,-1.441611 0.189479,-1.165278 0.01881,-0.249113 -0.138418,-0.261367 -0.931259,-0.432891 -0.54023,-0.235503 -0.330589,-0.215086 -0.03763,-0.01634 0.04434,-0.07215 0.55232,-1.387159 0.497224,-1.225156 0.6222,-1.65671 0.481098,-1.1720592 0.408525,-1.0440984 0.335567,-1.0118199 C 23.630812,6.5327193 22.747902,6.1239497 22.20473,7.0029263 Z"
     id="path4"
     style="fill:#ffffff;stroke-width:0.67811805"
     inkscape:connector-curvature="0" />
</svg>
