<?xml version="1.0" encoding="UTF-8" standalone="no"?>
<svg
   xmlns:dc="http://purl.org/dc/elements/1.1/"
   xmlns:cc="http://creativecommons.org/ns#"
   xmlns:rdf="http://www.w3.org/1999/02/22-rdf-syntax-ns#"
   xmlns:svg="http://www.w3.org/2000/svg"
   xmlns="http://www.w3.org/2000/svg"
   xmlns:xlink="http://www.w3.org/1999/xlink"
   xmlns:sodipodi="http://sodipodi.sourceforge.net/DTD/sodipodi-0.dtd"
   xmlns:inkscape="http://www.inkscape.org/namespaces/inkscape"
   height="32"
   width="32"
   version="1"
   id="svg16"
   sodipodi:docname="cs.svg"
   inkscape:version="0.92.1 r">
  <metadata
     id="metadata22">
    <rdf:RDF>
      <cc:Work
         rdf:about="">
        <dc:format>image/svg+xml</dc:format>
        <dc:type
           rdf:resource="http://purl.org/dc/dcmitype/StillImage" />
      </cc:Work>
    </rdf:RDF>
  </metadata>
  <defs
     id="defs20">
    <radialGradient
       inkscape:collect="always"
       xlink:href="#linearGradient4534"
       id="radialGradient4567"
       gradientUnits="userSpaceOnUse"
       gradientTransform="matrix(1.5554062,0,0,1.5554062,-99.783041,-11.572473)"
       cx="24.391607"
       cy="16.559441"
       fx="24.391607"
       fy="16.559441"
       r="14.101694" />
    <linearGradient
       id="linearGradient4534">
      <stop
         style="stop-color:#56572b;stop-opacity:1;"
         offset="0"
         id="stop4530" />
      <stop
         style="stop-color:#1a1c0e;stop-opacity:1"
         offset="1"
         id="stop4532" />
    </linearGradient>
  </defs>
  <sodipodi:namedview
     pagecolor="#ffffff"
     bordercolor="#666666"
     borderopacity="1"
     objecttolerance="10"
     gridtolerance="10"
     guidetolerance="10"
     inkscape:pageopacity="0"
     inkscape:pageshadow="2"
     inkscape:window-width="640"
     inkscape:window-height="480"
     id="namedview18"
     showgrid="false"
     inkscape:zoom="8.8125"
     inkscape:cx="-33.072999"
     inkscape:cy="17.67269"
     inkscape:current-layer="svg16" />
  <g
     id="g4585"
     transform="translate(77.843971,1.8156029)">
    <rect
       inkscape:export-ydpi="300"
       inkscape:export-xdpi="300"
       inkscape:export-filename="/home/ramil/8.png"
       ry="5.575182"
       y="0.082489163"
       x="-75.945877"
       height="28.203388"
       width="28.203388"
       id="rect4497-3-367"
       style="opacity:1;fill:#56572b;fill-opacity:1;fill-rule:evenodd;stroke:none;stroke-width:1.03534329;stroke-linecap:round;stroke-linejoin:bevel;stroke-miterlimit:4;stroke-dasharray:none;stroke-dashoffset:0;stroke-opacity:1" />
    <path
       inkscape:export-ydpi="300"
       inkscape:export-xdpi="300"
       inkscape:export-filename="/home/ramil/8.png"
       id="path4565-5"
       d="m -59.911986,28.286305 c -0.791887,-0.342472 -1.799597,-0.637879 -2.451171,-1.009765 -1.488042,-0.8493 -2.632598,-1.768898 -3.533203,-2.728516 -0.900606,-0.959618 -1.556327,-1.95875 -2.070313,-2.96875 -0.513986,-1.01 -0.884708,-2.030803 -1.212891,-3.03125 -0.328182,-1.000446 -0.613836,-1.981153 -0.957031,-2.912109 -0.343195,-0.930957 -0.74371,-1.811752 -1.302734,-2.613282 -0.559024,-0.801529 -1.276285,-1.524551 -2.251953,-2.136718 -0.578271,-0.362827 -1.473098,-0.59546 -2.253907,-0.875 v 12.699218 c 0,3.088651 2.485568,5.576172 5.574219,5.576172 z"
       style="opacity:1;fill:#222514;fill-opacity:1;fill-rule:evenodd;stroke:none;stroke-width:1.03534329;stroke-linecap:round;stroke-linejoin:bevel;stroke-miterlimit:4;stroke-dasharray:none;stroke-dashoffset:0;stroke-opacity:1"
       inkscape:connector-curvature="0" />
    <path
       inkscape:export-ydpi="300"
       inkscape:export-xdpi="300"
       inkscape:export-filename="/home/ramil/8.png"
       id="path4570-3"
       d="m -64.968626,0.08318084 h -5.402344 c -3.088651,0 -5.574219,2.48556796 -5.574219,5.57421876 v 4.3535154 c 0.780809,0.27954 1.675636,0.512173 2.253907,0.875 0.975668,0.612167 1.692929,1.33519 2.251953,2.136718 0.559024,0.80153 0.959539,1.682325 1.302734,2.613282 0.343195,0.930956 0.628849,1.911663 0.957031,2.912109 0.328183,1.000447 0.698905,2.02125 1.212891,3.03125 0.513986,1.01 1.169706,2.009132 2.070313,2.96875 0.900604,0.959618 2.045161,1.879216 3.533203,2.728516 0.651574,0.371886 1.659285,0.667293 2.451171,1.009765 h 6.59375 c 3.088651,0 5.576172,-2.487521 5.576172,-5.576172 v -3.851562 c -0.656957,-0.253829 -1.462094,-0.448958 -1.966796,-0.765625 -0.975669,-0.612167 -1.69293,-1.333236 -2.251954,-2.134766 -0.559023,-0.80153 -0.959539,-1.682325 -1.302734,-2.613281 -0.343195,-0.930956 -0.628849,-1.911663 -0.957031,-2.912109 -0.328183,-1.0004465 -0.698905,-2.0212495 -1.212891,-3.0312497 -0.513986,-1.0100004 -1.17166,-2.0091321 -2.072266,-2.96875 -0.900605,-0.959618 -2.045161,-1.8792164 -3.533203,-2.7285157 -1.04499,-0.5964278 -2.5107,-1.10422976 -3.929687,-1.62109376 z"
       style="opacity:1;fill:url(#radialGradient4567);fill-opacity:1;fill-rule:evenodd;stroke:none;stroke-width:1.03534329;stroke-linecap:round;stroke-linejoin:bevel;stroke-miterlimit:4;stroke-dasharray:none;stroke-dashoffset:0;stroke-opacity:1"
       inkscape:connector-curvature="0" />
    <path
       inkscape:export-ydpi="300"
       inkscape:export-xdpi="300"
       inkscape:export-filename="/home/ramil/8.png"
       id="rect4497-3-3-5"
       d="m -64.968626,0.08318084 c 1.418987,0.516864 2.884697,1.02466596 3.929687,1.62109376 1.488042,0.8492993 2.632598,1.7688977 3.533203,2.7285157 0.900606,0.9596179 1.55828,1.9587496 2.072266,2.96875 0.513986,1.0100002 0.884708,2.0308032 1.212891,3.0312497 0.328182,1.000446 0.613836,1.981153 0.957031,2.912109 0.343195,0.930956 0.743711,1.811751 1.302734,2.613281 0.559024,0.80153 1.276285,1.522599 2.251954,2.134766 0.504702,0.316667 1.309839,0.511796 1.966796,0.765625 V 5.6573996 c 0,-3.0886508 -2.487521,-5.57421876 -5.576172,-5.57421876 z"
       style="opacity:1;fill:#56572b;fill-opacity:1;fill-rule:evenodd;stroke:none;stroke-width:1.03534329;stroke-linecap:round;stroke-linejoin:bevel;stroke-miterlimit:4;stroke-dasharray:none;stroke-dashoffset:0;stroke-opacity:1"
       inkscape:connector-curvature="0" />
    <g
       transform="translate(-0.45390071,0.68085106)"
       id="g4575">
      <path
         style="fill:#ffffff;stroke-width:1"
         d="m -62.109305,22.344175 c 0.41097,-0.201813 0.46475,-0.31052 0.482758,-0.975847 l 0.01511,-0.557606 h -0.689726 -0.689727 l 0.0146,0.409775 0.0146,0.409773 -1.399707,-9e-5 -1.399702,-1.19e-4 V 20.44657 19.263079 l 1.399702,-9.1e-5 1.399707,-9.2e-5 -0.0149,0.39393 -0.01494,0.39393 0.310797,-0.02837 c 0.395478,-0.03609 0.851196,-0.256041 1.007318,-0.486169 0.08817,-0.129969 0.10316,-0.196039 0.08137,-0.358679 -0.04053,-0.302454 -0.176793,-0.48371 -0.473001,-0.629166 l -0.259377,-0.127397 h -1.980076 -1.980069 l -0.238598,0.107855 c -0.317354,0.143462 -0.542781,0.396266 -0.58055,0.651039 -0.01604,0.108347 -0.02266,0.750054 -0.01469,1.426009 0.0163,1.381265 0.02216,1.407389 0.368247,1.647241 0.328261,0.227486 0.450997,0.238745 2.491184,0.228511 l 1.889035,-0.0095 z m 5.830119,0.102186 c 0.263082,-0.06693 0.53947,-0.264383 0.634588,-0.453355 0.06286,-0.124868 0.07961,-0.27566 0.07966,-0.717182 9e-5,-0.661668 -0.04873,-0.815411 -0.314811,-0.991493 -0.332918,-0.220314 -0.568586,-0.245948 -2.268318,-0.246724 l -1.559019,-7.21e-4 V 19.649981 19.26307 h 2.071106 c 2.051676,0 2.07111,-8.91e-4 2.07111,-0.09249 0,-0.141747 -0.112695,-0.374655 -0.233104,-0.481781 -0.05955,-0.05298 -0.210704,-0.134917 -0.335881,-0.182076 -0.210164,-0.07918 -0.379249,-0.08575 -2.207667,-0.08575 h -1.980066 l -0.250358,0.123053 c -0.292329,0.143685 -0.480746,0.395543 -0.527085,0.704563 -0.04957,0.330618 4.24e-4,0.975543 0.08887,1.143671 0.09954,0.189474 0.424585,0.398226 0.718052,0.461163 0.13428,0.0288 0.859107,0.04832 1.793517,0.04832 h 1.568162 v 0.364152 0.36415 h -2.09874 c -1.895075,0 -2.096059,0.007 -2.071111,0.072 0.01519,0.03959 0.02763,0.100337 0.02763,0.134973 0,0.186434 0.447357,0.523567 0.807256,0.608359 0.252293,0.05945 3.753045,0.0603 3.986214,9.76e-4 z"
         id="path4496-3"
         inkscape:connector-curvature="0"
         sodipodi:nodetypes="sccccccccccccccccccccscsscccsscscccssccscscccscccscscccss"
         inkscape:export-filename="/home/ramil/8.png"
         inkscape:export-xdpi="300"
         inkscape:export-ydpi="300" />
      <path
         style="color:#000000;font-style:normal;font-variant:normal;font-weight:normal;font-stretch:normal;font-size:medium;line-height:normal;font-family:sans-serif;font-variant-ligatures:normal;font-variant-position:normal;font-variant-caps:normal;font-variant-numeric:normal;font-variant-alternates:normal;font-feature-settings:normal;text-indent:0;text-align:start;text-decoration:none;text-decoration-line:none;text-decoration-style:solid;text-decoration-color:#000000;letter-spacing:normal;word-spacing:normal;text-transform:none;writing-mode:lr-tb;direction:ltr;text-orientation:mixed;dominant-baseline:auto;baseline-shift:baseline;text-anchor:start;white-space:normal;shape-padding:0;clip-rule:nonzero;display:inline;overflow:visible;visibility:visible;opacity:1;isolation:auto;mix-blend-mode:normal;color-interpolation:sRGB;color-interpolation-filters:linearRGB;solid-color:#000000;solid-opacity:1;vector-effect:none;fill:#ffffff;fill-opacity:1;fill-rule:nonzero;stroke:none;stroke-width:0.80000001;stroke-linecap:round;stroke-linejoin:bevel;stroke-miterlimit:4;stroke-dasharray:none;stroke-dashoffset:0;stroke-opacity:1;color-rendering:auto;image-rendering:auto;shape-rendering:auto;text-rendering:auto;enable-background:accumulate"
         d="m -61.208942,5.3759595 c -4.093721,0 -7.421874,3.328153 -7.421874,7.4218755 0,2.04785 0.832836,3.904138 2.177734,5.248046 h 1.214844 c -1.573635,-1.209593 -2.591797,-3.106206 -2.591797,-5.248046 0,-3.6613705 2.959723,-6.6210942 6.621093,-6.6210942 3.661371,0 6.621094,2.9597237 6.621094,6.6210942 0,2.14184 -1.018162,4.038453 -2.591797,5.248046 h 1.214844 c 1.344898,-1.343908 2.177735,-3.200196 2.177735,-5.248046 0,-4.0937225 -3.328154,-7.4218755 -7.421876,-7.4218755 z"
         id="path4545"
         inkscape:connector-curvature="0" />
      <path
         style="fill:#ffffff;stroke-width:0.99999994"
         d="m -59.130852,17.602588 c 0.137151,-0.124119 0.104142,-0.363416 -0.0876,-0.635171 -0.167549,-0.237452 -0.168475,-0.241193 -0.288557,-1.1605 -0.115254,-0.882401 -0.128001,-0.936636 -0.294695,-1.2543 -0.113675,-0.216624 -0.23319,-0.375523 -0.343869,-0.457184 -0.20638,-0.152267 -0.309358,-0.421588 -0.222943,-0.583058 0.04865,-0.09089 0.03119,-0.129125 -0.182678,-0.400306 -0.130052,-0.164896 -0.260709,-0.325221 -0.290345,-0.356276 -0.02963,-0.03106 -0.117578,-0.145151 -0.19542,-0.253547 -0.09999,-0.13923 -0.163682,-0.190054 -0.216984,-0.173136 -0.06023,0.01911 -0.07941,-0.0096 -0.0951,-0.142549 -0.0108,-0.09157 -0.03488,-0.201152 -0.05348,-0.243512 -0.02729,-0.06216 -0.01198,-0.07702 0.07935,-0.07702 0.153858,0 0.204303,-0.113384 0.204303,-0.459217 V 11.11785 h 0.341374 c 0.187753,0 0.409067,-0.01941 0.491805,-0.04315 0.197747,-0.05671 0.38976,-0.242215 0.490628,-0.473982 0.08533,-0.196084 0.167441,-0.233245 0.262437,-0.118781 0.03447,0.04156 0.109785,0.06307 0.192436,0.05501 0.122301,-0.01194 0.137135,-0.02963 0.149438,-0.17829 0.0075,-0.09078 0.02778,-0.165039 0.04505,-0.165039 0.01728,0 0.1208,0.212901 0.230072,0.473113 0.189395,0.451003 0.204509,0.472692 0.323384,0.464095 0.06859,-0.005 0.135523,-0.01983 0.148744,-0.03306 0.01321,-0.01323 -0.05197,-0.227014 -0.144887,-0.475097 -0.09291,-0.248084 -0.176289,-0.472486 -0.185292,-0.498672 -0.0089,-0.02618 0.07025,-0.08333 0.176125,-0.1269901 0.147144,-0.06068 0.202013,-0.111666 0.232924,-0.216454 l 0.04042,-0.137071 0.506124,-0.02722 c 0.278365,-0.01497 0.511071,-0.02983 0.517124,-0.03301 0.006,-0.0033 0.01103,-0.03424 0.01103,-0.06902 0,-0.03917 -0.05443,-0.06847 -0.143037,-0.07702 -0.141113,-0.01361 -0.14321,-0.01714 -0.156116,-0.262942 -0.0013,-0.08653 -0.15265,-0.08156 -0.228975,-0.122342 0,0.121666 -0.01057,0.129434 -0.176042,0.129434 -0.127143,0 -0.176043,-0.01833 -0.176043,-0.06601 0,-0.07343 -0.07238,-0.09059 -0.09535,-0.02261 -0.0081,0.02387 -0.108739,0.05627 -0.223718,0.072 l -0.209052,0.02859 v -0.133305 c 0,-0.07331 -0.02729,-0.143779 -0.06065,-0.156581 -0.0695,-0.02667 -0.159402,0.04816 -0.159402,0.132687 0,0.04314 -0.108334,0.05721 -0.440105,0.05721 h -0.440149 v -0.132032 c 0,-0.121552 -0.01223,-0.132031 -0.154034,-0.132031 -0.102319,0 -0.154038,0.02059 -0.154038,0.06131 0,0.07388 -0.09475,0.114731 -0.266114,0.114731 -0.08185,0 -0.143607,0.03125 -0.17399,0.08803 -0.06176,0.115405 -0.333228,0.12903 -0.289287,0.01451 0.267817,-0.697918 -0.114627,-1.356075 -0.779282,-1.341101 -0.426245,0.0096 -0.690628,0.375971 -0.691423,0.958155 -4.11e-4,0.311133 -0.0016,0.314219 -0.140887,0.371916 -0.465181,0.192683 -0.798701,0.9314351 -0.781842,1.7317891 0.0053,0.253871 -0.01966,0.519415 -0.06873,0.729313 -0.05174,0.22139 -0.08036,0.547456 -0.08692,0.990237 -0.0089,0.603657 -0.02294,0.707242 -0.163699,1.210291 -0.12867,0.459876 -0.215814,0.856695 -0.324418,1.47721 -0.0088,0.05025 -0.125174,0.166133 -0.260372,0.259249 -0.264529,0.182187 -0.443198,0.384953 -0.583768,0.6625 l -0.08935,0.176427 0.160515,0.417717 c 0.199979,0.520407 0.196499,0.515311 0.388123,0.568221 0.118526,0.03273 0.195695,0.02816 0.306485,-0.01813 l 0.148075,-0.06187 v -0.332298 -0.332325 h 0.175915 c 0.384603,0 0.676618,-0.439933 1.057174,-1.592683 0.34123,-1.033627 0.444731,-1.312015 0.487787,-1.312015 0.02175,0 0.03956,0.02029 0.03956,0.04509 0,0.0248 0.07912,0.170369 0.175829,0.323491 0.203201,0.321747 0.543285,0.657877 0.890052,0.8797 0.216919,0.138762 0.245537,0.174969 0.272387,0.344601 0.0165,0.104246 0.109727,0.427203 0.207185,0.717672 0.09745,0.29047 0.204706,0.682404 0.23834,0.870963 0.0785,0.440102 0.169616,0.565003 0.515312,0.706435 0.323018,0.132154 0.501686,0.145027 0.613129,0.04417 z m -1.750112,-7.507982 c 0.016,-0.1028761 0.06194,-0.2118021 0.102063,-0.2420591 0.15014,-0.11321 0.760308,-0.0344 0.760308,0.0982 0,0.06246 -0.134289,0.1093321 -0.315884,0.1102491 -0.07277,3.52e-4 -0.150932,0.04267 -0.204382,0.110633 -0.06044,0.07684 -0.129478,0.110029 -0.228871,0.110029 h -0.142332 z"
         id="path4496-3-7"
         inkscape:connector-curvature="0"
         sodipodi:nodetypes="sssccssccccsscsccscsscccsccccscsssccscccscsscsssssssccssssccscssccccsssssscscsccscccscccc"
         inkscape:export-filename="/home/ramil/8.png"
         inkscape:export-xdpi="300"
         inkscape:export-ydpi="300" />
    </g>
  </g>
</svg>
