<?xml version="1.0" encoding="UTF-8" standalone="no"?>
<svg
   xmlns:dc="http://purl.org/dc/elements/1.1/"
   xmlns:cc="http://creativecommons.org/ns#"
   xmlns:rdf="http://www.w3.org/1999/02/22-rdf-syntax-ns#"
   xmlns:svg="http://www.w3.org/2000/svg"
   xmlns="http://www.w3.org/2000/svg"
   xmlns:sodipodi="http://sodipodi.sourceforge.net/DTD/sodipodi-0.dtd"
   xmlns:inkscape="http://www.inkscape.org/namespaces/inkscape"
   height="32"
   width="32"
   version="1"
   id="svg20"
   sodipodi:docname="darktable.svg"
   inkscape:version="0.92.1 r">
  <metadata
     id="metadata26">
    <rdf:RDF>
      <cc:Work
         rdf:about="">
        <dc:format>image/svg+xml</dc:format>
        <dc:type
           rdf:resource="http://purl.org/dc/dcmitype/StillImage" />
      </cc:Work>
    </rdf:RDF>
  </metadata>
  <defs
     id="defs24" />
  <sodipodi:namedview
     pagecolor="#ffffff"
     bordercolor="#666666"
     borderopacity="1"
     objecttolerance="10"
     gridtolerance="10"
     guidetolerance="10"
     inkscape:pageopacity="0"
     inkscape:pageshadow="2"
     inkscape:window-width="640"
     inkscape:window-height="480"
     id="namedview22"
     showgrid="false"
     inkscape:zoom="8.8125"
     inkscape:cx="-16.424034"
     inkscape:cy="16.665267"
     inkscape:current-layer="svg20" />
  <path
     style="opacity:1;fill:#e3bf20;fill-opacity:1;fill-rule:evenodd;stroke:none;stroke-width:1.03534329;stroke-linecap:round;stroke-linejoin:bevel;stroke-miterlimit:4;stroke-dasharray:none;stroke-dashoffset:0;stroke-opacity:1"
     d="M 30.101562 11.044922 L 20.160156 12.886719 L 30.064453 24.710938 C 30.066652 24.646268 30.101562 24.592569 30.101562 24.527344 L 30.101562 11.044922 z "
     id="path4560" />
  <path
     style="opacity:1;fill:#28a226;fill-opacity:1;fill-rule:evenodd;stroke:none;stroke-width:1.03534329;stroke-linecap:round;stroke-linejoin:bevel;stroke-miterlimit:4;stroke-dasharray:none;stroke-dashoffset:0;stroke-opacity:1"
     d="M 29.099609 27.511719 L 20.814453 17.996094 L 16.236328 30.101562 L 24.527344 30.101562 C 26.488919 30.101563 28.116739 29.037895 29.099609 27.511719 z "
     id="path4564" />
  <path
     style="opacity:1;fill:#2977d1;fill-opacity:1;fill-rule:evenodd;stroke:none;stroke-width:1.03534329;stroke-linecap:round;stroke-linejoin:bevel;stroke-miterlimit:4;stroke-dasharray:none;stroke-dashoffset:0;stroke-opacity:1"
     d="M 13.449219 30.101562 L 16.654297 21.109375 L 1.8984375 23.556641 L 1.8984375 24.527344 C 1.8984375 27.615995 4.3840055 30.101564 7.4726562 30.101562 L 13.449219 30.101562 z "
     id="path4567" />
  <path
     style="opacity:1;fill:#c029c0;fill-opacity:1;fill-rule:evenodd;stroke:none;stroke-width:1.03534329;stroke-linecap:round;stroke-linejoin:bevel;stroke-miterlimit:4;stroke-dasharray:none;stroke-dashoffset:0;stroke-opacity:1"
     d="M 1.8984375 20.955078 L 11.839844 19.113281 L 1.9355469 7.2890625 C 1.9333477 7.3537319 1.8984375 7.4074312 1.8984375 7.4726562 L 1.8984375 20.955078 z "
     id="path4570" />
  <path
     style="opacity:1;fill:#343434;fill-opacity:1;fill-rule:evenodd;stroke:none;stroke-width:1.03534329;stroke-linecap:round;stroke-linejoin:bevel;stroke-miterlimit:4;stroke-dasharray:none;stroke-dashoffset:0;stroke-opacity:1"
     d="M 2.9003906 4.4882812 C 2.3683375 5.3144396 1.971349 6.2362573 1.9355469 7.2890625 L 11.839844 19.113281 L 1.8984375 20.955078 L 1.8984375 23.556641 L 16.654297 21.109375 L 13.449219 30.101562 L 16.236328 30.101562 L 20.814453 17.996094 L 29.099609 27.511719 C 29.631662 26.68556 30.028651 25.763742 30.064453 24.710938 L 20.160156 12.886719 L 30.101562 11.044922 L 30.101562 8.4433594 L 15.345703 10.892578 L 18.548828 1.8984375 L 15.763672 1.8984375 L 11.185547 14.003906 L 2.9003906 4.4882812 z "
     id="path4573" />
  <path
     style="opacity:1;fill:#c01728;fill-opacity:1;fill-rule:evenodd;stroke:none;stroke-width:1.03534329;stroke-linecap:round;stroke-linejoin:bevel;stroke-miterlimit:4;stroke-dasharray:none;stroke-dashoffset:0;stroke-opacity:1"
     d="M 2.9003906 4.4882812 L 11.185547 14.003906 L 15.763672 1.8984375 L 7.4726562 1.8984375 C 5.5110812 1.8984375 3.8832615 2.9621047 2.9003906 4.4882812 z "
     id="path4557" />
  <path
     style="opacity:1;fill:#e9721a;fill-opacity:1;fill-rule:evenodd;stroke:none;stroke-width:1.03534329;stroke-linecap:round;stroke-linejoin:bevel;stroke-miterlimit:4;stroke-dasharray:none;stroke-dashoffset:0;stroke-opacity:1"
     d="M 18.548828 1.8984375 L 15.345703 10.892578 L 30.101562 8.4433594 L 30.101562 7.4726562 C 30.101563 4.3840054 27.615995 1.8984375 24.527344 1.8984375 L 18.548828 1.8984375 z "
     id="rect4497-3" />
</svg>
