<?xml version="1.0" encoding="UTF-8" standalone="no"?>
<svg
   xmlns:dc="http://purl.org/dc/elements/1.1/"
   xmlns:cc="http://creativecommons.org/ns#"
   xmlns:rdf="http://www.w3.org/1999/02/22-rdf-syntax-ns#"
   xmlns:svg="http://www.w3.org/2000/svg"
   xmlns="http://www.w3.org/2000/svg"
   xmlns:sodipodi="http://sodipodi.sourceforge.net/DTD/sodipodi-0.dtd"
   xmlns:inkscape="http://www.inkscape.org/namespaces/inkscape"
   height="32"
   width="32"
   version="1.1"
   viewBox="0 0 32 32"
   id="svg16"
   sodipodi:docname="diablo-2.svg"
   inkscape:version="0.92.1 r">
  <metadata
     id="metadata22">
    <rdf:RDF>
      <cc:Work
         rdf:about="">
        <dc:format>image/svg+xml</dc:format>
        <dc:type
           rdf:resource="http://purl.org/dc/dcmitype/StillImage" />
      </cc:Work>
    </rdf:RDF>
  </metadata>
  <defs
     id="defs20" />
  <sodipodi:namedview
     pagecolor="#ffffff"
     bordercolor="#666666"
     borderopacity="1"
     objecttolerance="10"
     gridtolerance="10"
     guidetolerance="10"
     inkscape:pageopacity="0"
     inkscape:pageshadow="2"
     inkscape:window-width="640"
     inkscape:window-height="480"
     id="namedview18"
     showgrid="false"
     inkscape:zoom="8.8125"
     inkscape:cx="-5.5602837"
     inkscape:cy="16"
     inkscape:current-layer="svg16" />
  <g
     id="g4530"
     transform="translate(45.390625,-1.0214845)">
    <path
       id="path4524"
       d="m -40.117188,3.3730469 c -1.986105,0.8512517 -3.375,2.8163455 -3.375,5.1210937 V 25.546875 c 0,2.249335 1.338367,4.152335 3.248047,5.035156 0.430775,-0.370697 0.857205,-0.741243 1.234375,-1.171875 0.444823,-0.507873 0.838938,-1.081916 1.146485,-1.77539 0.557324,-1.256688 0.738878,-2.485688 0.78125,-3.816407 0.04237,-1.330718 -0.05469,-2.762727 -0.05469,-4.421875 V 6.9355469 c 0,-0.5406482 -0.03044,-0.8940904 -0.15039,-1.1972657 -0.119954,-0.3031752 -0.330313,-0.5548866 -0.69336,-0.8945312 -0.66193,-0.5168465 -1.417776,-0.9958501 -2.136719,-1.4707031 z"
       style="opacity:1;fill:#333333;fill-opacity:1;fill-rule:evenodd;stroke:none;stroke-width:1.03534329;stroke-linecap:round;stroke-linejoin:bevel;stroke-miterlimit:4;stroke-dasharray:none;stroke-dashoffset:0;stroke-opacity:1"
       inkscape:connector-curvature="0" />
    <path
       id="rect4497-3"
       d="m -40.117188,3.3730469 c 0.718943,0.474853 1.474789,0.9538566 2.136719,1.4707031 0.363047,0.3396446 0.573406,0.591356 0.69336,0.8945312 0.119953,0.3031753 0.15039,0.6566175 0.15039,1.1972657 V 19.396484 c 0,1.659148 0.09706,3.091157 0.05469,4.421875 -0.04237,1.330719 -0.223926,2.559719 -0.78125,3.816407 -0.307547,0.693474 -0.701662,1.267517 -1.146485,1.77539 -0.37717,0.430632 -0.8036,0.801178 -1.234375,1.171875 0.712577,0.329416 1.48881,0.541016 2.328125,0.541016 h 17.052735 c 3.088651,0 5.574219,-2.487521 5.574219,-5.576172 V 8.4941406 c 0,-3.0886508 -2.485568,-5.5742187 -5.574219,-5.5742187 h -17.052735 c -0.783902,0 -1.525647,0.1635929 -2.201172,0.453125 z"
       style="opacity:1;fill:#e97e10;fill-opacity:1;fill-rule:evenodd;stroke:none;stroke-width:1.03534329;stroke-linecap:round;stroke-linejoin:bevel;stroke-miterlimit:4;stroke-dasharray:none;stroke-dashoffset:0;stroke-opacity:1"
       inkscape:connector-curvature="0" />
    <path
       inkscape:connector-curvature="0"
       id="path8"
       d="m -30.891889,7.9505883 c 1.716294,0.00331 5.235403,0.051456 5.925548,0.3863561 3.014427,1.6930636 3.465482,3.7236576 3.402029,6.6168266 0.0836,2.617886 -0.88069,5.440522 -3.402029,6.779182 -0.920193,0.446533 -6.716339,0.446534 -6.716339,0.446534 L -31.835448,7.9532046 c 0,0 0.371463,-0.00372 0.943559,-0.00266 z"
       style="fill:#ffffff;fill-opacity:1;fill-rule:evenodd;stroke-width:1" />
    <path
       inkscape:connector-curvature="0"
       id="path12"
       d="m -34.228584,15.083449 c -0.07436,0.03698 0.139443,0.55982 0.373637,0.886232 0.357013,0.497591 0.593664,0.789132 1.088492,1.2398 0.647693,0.589892 0.816234,0.68811 1.088492,0.963431 0.272258,0.275323 0.625303,0.793595 0.625303,0.793595 v 8.022414 c 0,0.550644 -0.561613,0.898738 -0.742645,0.964976 -0.255534,0.0935 -0.809034,0.27328 -0.809034,0.27328 v 0.276369 h 3.04932 3.253123 v -0.274825 c 0,0 -0.644596,-0.181328 -0.900129,-0.274824 -0.181031,-0.06624 -0.640503,-0.414369 -0.646919,-0.964976 v -6.782615 -1.239799 -0.137412 c 0,-0.59267 0.525097,-0.737027 0.731837,-0.826019 0.280077,-0.120559 0.680625,-0.13846 0.816755,-0.413781 0.136128,-0.275322 -0.171819,-0.138034 -0.273281,-0.137413 -0.977579,0.0057 -3.52486,0 -3.52486,0 -0.665061,10e-7 -1.313703,-0.08998 -1.851207,-0.379814 -0.379853,-0.20482 -0.741429,-0.475051 -1.088492,-0.826018 l -1.090036,-1.102388 c -0.05105,-0.05163 -0.0832,-0.06875 -0.100356,-0.06021 z m 16.679396,0 c -0.01716,-0.0085 -0.0493,0.0086 -0.100359,0.06021 l -1.090035,1.102387 c -0.347063,0.350968 -0.708639,0.621198 -1.088491,0.826018 -0.537504,0.28983 -1.184602,0.379815 -1.849664,0.379814 0,0 -2.548825,0.0057 -3.526404,0 -0.101462,-6.21e-4 -0.409409,-0.137909 -0.27328,0.137413 0.13613,0.275322 0.536677,0.293223 0.816754,0.413781 0.20674,0.08899 0.731837,0.233349 0.731837,0.826019 v 0.137412 1.2398 6.782614 c -0.0064,0.550607 -0.465887,0.898738 -0.646919,0.964976 -0.255533,0.0935 -0.889321,0.27328 -0.889321,0.27328 v 0.276369 h 3.242315 3.049321 v -0.276369 c 0,0 -0.553501,-0.179785 -0.809035,-0.27328 -0.181032,-0.06624 -0.742644,-0.414332 -0.742644,-0.964976 v -8.022413 c 0,0 0.353044,-0.518272 0.625303,-0.793595 0.272258,-0.275321 0.440799,-0.373539 1.088491,-0.963431 0.494829,-0.450668 0.731479,-0.742209 1.088492,-1.2398 0.234195,-0.326412 0.447994,-0.849252 0.373639,-0.886232 z"
       style="fill:#c2352a;fill-rule:evenodd;stroke-width:1" />
  </g>
</svg>
