<?xml version="1.0" encoding="UTF-8" standalone="no"?>
<svg
   xmlns:dc="http://purl.org/dc/elements/1.1/"
   xmlns:cc="http://creativecommons.org/ns#"
   xmlns:rdf="http://www.w3.org/1999/02/22-rdf-syntax-ns#"
   xmlns:svg="http://www.w3.org/2000/svg"
   xmlns="http://www.w3.org/2000/svg"
   xmlns:sodipodi="http://sodipodi.sourceforge.net/DTD/sodipodi-0.dtd"
   xmlns:inkscape="http://www.inkscape.org/namespaces/inkscape"
   height="32"
   width="32"
   version="1"
   id="svg24"
   sodipodi:docname="dino.svg"
   inkscape:version="0.92.1 r">
  <metadata
     id="metadata30">
    <rdf:RDF>
      <cc:Work
         rdf:about="">
        <dc:format>image/svg+xml</dc:format>
        <dc:type
           rdf:resource="http://purl.org/dc/dcmitype/StillImage" />
      </cc:Work>
    </rdf:RDF>
  </metadata>
  <defs
     id="defs28" />
  <sodipodi:namedview
     pagecolor="#ffffff"
     bordercolor="#666666"
     borderopacity="1"
     objecttolerance="10"
     gridtolerance="10"
     guidetolerance="10"
     inkscape:pageopacity="0"
     inkscape:pageshadow="2"
     inkscape:window-width="640"
     inkscape:window-height="480"
     id="namedview26"
     showgrid="false"
     inkscape:zoom="6.2313785"
     inkscape:cx="-56.129256"
     inkscape:cy="-4.8721239"
     inkscape:current-layer="svg24" />
  <g
     id="g4626"
     transform="translate(67.001953,-32.878906)">
    <path
       id="path4588"
       d="m -52.105469,47.957031 a 1.4484178,1.4484178 0 0 0 -0.101562,0.002 1.4484178,1.4484178 0 0 0 -0.144531,0.01758 1.4484178,1.4484178 0 0 0 -0.140626,0.0332 1.4484178,1.4484178 0 0 0 -0.138671,0.04492 1.4484178,1.4484178 0 0 0 -0.13086,0.05859 1.4484178,1.4484178 0 0 0 -0.126953,0.07227 1.4484178,1.4484178 0 0 0 -0.117187,0.08398 1.4484178,1.4484178 0 0 0 -0.109375,0.0957 1.4484178,1.4484178 0 0 0 -0.09766,0.105469 1.4484178,1.4484178 0 0 0 -0.08789,0.115235 1.4484178,1.4484178 0 0 0 -0.07617,0.125 1.4484178,1.4484178 0 0 0 -0.0625,0.128906 1.4484178,1.4484178 0 0 0 -0.04883,0.136718 1.4484178,1.4484178 0 0 0 -0.03711,0.140626 1.4484178,1.4484178 0 0 0 -0.02148,0.142578 1.4484178,1.4484178 0 0 0 -0.0059,0.144531 1.4484178,1.4484178 0 0 0 0.002,0.103515 1.4484178,1.4484178 0 0 0 0.01758,0.142579 1.4484178,1.4484178 0 0 0 0.0332,0.142578 1.4484178,1.4484178 0 0 0 0.04492,0.136719 1.4484178,1.4484178 0 0 0 0.05859,0.132812 1.4484178,1.4484178 0 0 0 0.07227,0.125 1.4484178,1.4484178 0 0 0 0.08398,0.117188 1.4484178,1.4484178 0 0 0 0.0957,0.109374 1.4484178,1.4484178 0 0 0 0.105469,0.09766 1.4484178,1.4484178 0 0 0 0.115234,0.08789 1.4484178,1.4484178 0 0 0 0.125,0.07617 1.4484178,1.4484178 0 0 0 0.128906,0.0625 1.4484178,1.4484178 0 0 0 0.136719,0.05078 1.4484178,1.4484178 0 0 0 0.140625,0.03516 1.4484178,1.4484178 0 0 0 0.142578,0.02148 1.4484178,1.4484178 0 0 0 0.144531,0.0078 1.4484178,1.4484178 0 0 0 0.103516,-0.0039 1.4484178,1.4484178 0 0 0 0.142578,-0.01758 1.4484178,1.4484178 0 0 0 0.142578,-0.03125 1.4484178,1.4484178 0 0 0 0.136719,-0.04687 1.4484178,1.4484178 0 0 0 0.132812,-0.05859 1.4484178,1.4484178 0 0 0 0.125,-0.07227 1.4484178,1.4484178 0 0 0 0.117188,-0.08398 1.4484178,1.4484178 0 0 0 0.109375,-0.0957 1.4484178,1.4484178 0 0 0 0.09766,-0.105468 1.4484178,1.4484178 0 0 0 0.08789,-0.115235 1.4484178,1.4484178 0 0 0 0.07617,-0.123047 1.4484178,1.4484178 0 0 0 0.0625,-0.130859 1.4484178,1.4484178 0 0 0 0.05078,-0.136719 1.4484178,1.4484178 0 0 0 0.03516,-0.138672 1.4484178,1.4484178 0 0 0 0.02148,-0.144531 1.4484178,1.4484178 0 0 0 0.0078,-0.144531 1.4484178,1.4484178 0 0 0 -0.0039,-0.101563 1.4484178,1.4484178 0 0 0 -0.01758,-0.144531 1.4484178,1.4484178 0 0 0 -0.03125,-0.140625 1.4484178,1.4484178 0 0 0 -0.04687,-0.138672 1.4484178,1.4484178 0 0 0 -0.05859,-0.130859 1.4484178,1.4484178 0 0 0 -0.07227,-0.125 1.4484178,1.4484178 0 0 0 -0.08398,-0.119141 1.4484178,1.4484178 0 0 0 -0.0957,-0.107422 1.4484178,1.4484178 0 0 0 -0.105469,-0.09961 1.4484178,1.4484178 0 0 0 -0.115234,-0.08789 1.4484178,1.4484178 0 0 0 -0.123047,-0.07617 1.4484178,1.4484178 0 0 0 -0.13086,-0.0625 1.4484178,1.4484178 0 0 0 -0.136718,-0.04883 1.4484178,1.4484178 0 0 0 -0.140625,-0.03711 1.4484178,1.4484178 0 0 0 -0.142579,-0.02148 1.4484178,1.4484178 0 0 0 -0.144531,-0.0059 z"
       style="opacity:1;fill:#ffffff;fill-opacity:1;fill-rule:evenodd;stroke:none;stroke-width:1.03534329;stroke-linecap:round;stroke-linejoin:bevel;stroke-miterlimit:4;stroke-dasharray:none;stroke-dashoffset:0;stroke-opacity:1"
       inkscape:connector-curvature="0" />
    <path
       id="path4595"
       d="m -44.904297,62.980469 c -0.0145,-0.01559 -0.03043,-0.02736 -0.04492,-0.04297 -0.331807,-0.357159 -0.663886,-0.715451 -1.03125,-0.988281 -0.367363,-0.27283 -0.769313,-0.459742 -1.242187,-0.47461 -0.473285,-0.01488 -0.90175,0.155954 -1.300782,0.421875 -0.399031,0.265922 -0.769511,0.626705 -1.126953,0.990235 -0.03323,0.0338 -0.06463,0.05997 -0.09766,0.09375 z"
       style="opacity:1;fill:#80cbc4;fill-opacity:1;fill-rule:evenodd;stroke:none;stroke-width:1.03534329;stroke-linecap:round;stroke-linejoin:bevel;stroke-miterlimit:4;stroke-dasharray:none;stroke-dashoffset:0;stroke-opacity:1"
       inkscape:connector-curvature="0" />
    <path
       id="path4593"
       d="m -39.080078,61.722656 c -0.108464,-0.08869 -0.31411,-0.15864 -0.410156,-0.248047 h -0.544922 c -0.168917,0.429397 -0.422397,0.764233 -0.644532,1.144532 0.595494,-0.204277 1.1154,-0.515746 1.59961,-0.896485 z"
       style="opacity:1;fill:#80cbc4;fill-opacity:1;fill-rule:evenodd;stroke:none;stroke-width:1.03534329;stroke-linecap:round;stroke-linejoin:bevel;stroke-miterlimit:4;stroke-dasharray:none;stroke-dashoffset:0;stroke-opacity:1"
       inkscape:connector-curvature="0" />
    <path
       id="path4591"
       d="m -36.900391,47.162109 c -0.513791,-0.899023 -0.995475,-1.827506 -1.722656,-2.554687 -1.047304,-1.047304 -2.292957,-1.894757 -3.677734,-2.480469 -1.384778,-0.585711 -2.907728,-0.910156 -4.50586,-0.910156 -1.598132,0 -3.121082,0.324445 -4.505859,0.910156 -1.384777,0.585712 -2.632384,1.433165 -3.679688,2.480469 -1.047303,1.047304 -1.894757,2.29491 -2.480468,3.679687 -0.585712,1.384778 -0.908203,2.907728 -0.908203,4.50586 0,0.04356 0.0054,0.08546 0.0059,0.128906 -5.45e-4,0.04564 -0.0059,0.08899 -0.0059,0.134766 0,0.610256 0.04765,1.210346 0.140625,1.794921 0.02991,0.141984 0.07912,0.26196 0.11914,0.392579 0.282176,0.920882 0.790406,1.567017 1.228516,1.982421 0.438109,0.415405 0.80664,0.59961 0.80664,0.59961 0.356693,0.288145 0.800555,0.582647 1.3125,0.873047 h -0.04297 c 0,0 0.268649,1.429301 0.783203,2.853515 0.188097,0.520627 0.444488,0.978892 0.697265,1.427735 h 3.587891 c 0.03303,-0.03378 0.06442,-0.05995 0.09766,-0.09375 0.357442,-0.36353 0.727922,-0.724313 1.126953,-0.990235 0.399032,-0.265921 0.827497,-0.436753 1.300782,-0.421875 0.472874,0.01487 0.874824,0.20178 1.242187,0.47461 0.367364,0.27283 0.699443,0.631122 1.03125,0.988281 0.0145,0.0156 0.03042,0.02738 0.04492,0.04297 h 2.429688 c 0.637577,0 1.225299,-0.165926 1.794921,-0.361328 0.222135,-0.380299 0.475615,-0.715135 0.644532,-1.144532 h 0.544922 c 0.09605,0.08941 0.301692,0.159357 0.410156,0.248047 1.296389,-1.019364 2.179687,-2.533822 2.179687,-4.318359 z m -15.205078,0.794922 a 1.4484178,1.4484178 0 0 1 0.144531,0.0059 1.4484178,1.4484178 0 0 1 0.142579,0.02148 1.4484178,1.4484178 0 0 1 0.140625,0.03711 1.4484178,1.4484178 0 0 1 0.136718,0.04883 1.4484178,1.4484178 0 0 1 0.13086,0.0625 1.4484178,1.4484178 0 0 1 0.123047,0.07617 1.4484178,1.4484178 0 0 1 0.115234,0.08789 1.4484178,1.4484178 0 0 1 0.105469,0.09961 1.4484178,1.4484178 0 0 1 0.0957,0.107422 1.4484178,1.4484178 0 0 1 0.08398,0.119141 1.4484178,1.4484178 0 0 1 0.07227,0.125 1.4484178,1.4484178 0 0 1 0.05859,0.130859 1.4484178,1.4484178 0 0 1 0.04687,0.138672 1.4484178,1.4484178 0 0 1 0.03125,0.140625 1.4484178,1.4484178 0 0 1 0.01758,0.144531 1.4484178,1.4484178 0 0 1 0.0039,0.101563 1.4484178,1.4484178 0 0 1 -0.0078,0.144531 1.4484178,1.4484178 0 0 1 -0.02148,0.144531 1.4484178,1.4484178 0 0 1 -0.03516,0.138672 1.4484178,1.4484178 0 0 1 -0.05078,0.136719 1.4484178,1.4484178 0 0 1 -0.0625,0.130859 1.4484178,1.4484178 0 0 1 -0.07617,0.123047 1.4484178,1.4484178 0 0 1 -0.08789,0.115235 1.4484178,1.4484178 0 0 1 -0.09766,0.105468 1.4484178,1.4484178 0 0 1 -0.109375,0.0957 1.4484178,1.4484178 0 0 1 -0.117188,0.08398 1.4484178,1.4484178 0 0 1 -0.125,0.07227 1.4484178,1.4484178 0 0 1 -0.132812,0.05859 1.4484178,1.4484178 0 0 1 -0.136719,0.04687 1.4484178,1.4484178 0 0 1 -0.142578,0.03125 1.4484178,1.4484178 0 0 1 -0.142578,0.01758 1.4484178,1.4484178 0 0 1 -0.103516,0.0039 1.4484178,1.4484178 0 0 1 -0.144531,-0.0078 1.4484178,1.4484178 0 0 1 -0.142578,-0.02148 1.4484178,1.4484178 0 0 1 -0.140625,-0.03516 1.4484178,1.4484178 0 0 1 -0.136719,-0.05078 1.4484178,1.4484178 0 0 1 -0.128906,-0.0625 1.4484178,1.4484178 0 0 1 -0.125,-0.07617 1.4484178,1.4484178 0 0 1 -0.115234,-0.08789 1.4484178,1.4484178 0 0 1 -0.105469,-0.09766 1.4484178,1.4484178 0 0 1 -0.0957,-0.109374 1.4484178,1.4484178 0 0 1 -0.08398,-0.117188 1.4484178,1.4484178 0 0 1 -0.07227,-0.125 1.4484178,1.4484178 0 0 1 -0.05859,-0.132812 1.4484178,1.4484178 0 0 1 -0.04492,-0.136719 1.4484178,1.4484178 0 0 1 -0.0332,-0.142578 1.4484178,1.4484178 0 0 1 -0.01758,-0.142579 1.4484178,1.4484178 0 0 1 -0.002,-0.103515 1.4484178,1.4484178 0 0 1 0.0059,-0.144531 1.4484178,1.4484178 0 0 1 0.02148,-0.142578 1.4484178,1.4484178 0 0 1 0.03711,-0.140626 1.4484178,1.4484178 0 0 1 0.04883,-0.136718 1.4484178,1.4484178 0 0 1 0.0625,-0.128906 1.4484178,1.4484178 0 0 1 0.07617,-0.125 1.4484178,1.4484178 0 0 1 0.08789,-0.115235 1.4484178,1.4484178 0 0 1 0.09766,-0.105469 1.4484178,1.4484178 0 0 1 0.109375,-0.0957 1.4484178,1.4484178 0 0 1 0.117187,-0.08398 1.4484178,1.4484178 0 0 1 0.126953,-0.07227 1.4484178,1.4484178 0 0 1 0.13086,-0.05859 1.4484178,1.4484178 0 0 1 0.138671,-0.04492 1.4484178,1.4484178 0 0 1 0.140626,-0.0332 1.4484178,1.4484178 0 0 1 0.144531,-0.01758 1.4484178,1.4484178 0 0 1 0.101562,-0.002 z"
       style="opacity:1;fill:#009688;fill-opacity:1;fill-rule:evenodd;stroke:none;stroke-width:1.03534329;stroke-linecap:round;stroke-linejoin:bevel;stroke-miterlimit:4;stroke-dasharray:none;stroke-dashoffset:0;stroke-opacity:1"
       inkscape:connector-curvature="0" />
    <path
       id="path4600"
       d="m -58.169922,55.085938 c 0.04037,0.216999 0.03003,0.446328 0.08594,0.658203 0.194909,0.738617 0.48417,1.444136 0.859375,2.08789 0.46852,0.966644 1.067116,1.858456 1.773437,2.652344 0.449028,0.504697 1.007038,0.892806 1.53711,1.3125 -0.03579,-0.08563 -0.08698,-0.155127 -0.119141,-0.244141 -0.514554,-1.424214 -0.783203,-2.853515 -0.783203,-2.853515 h 0.04297 c -0.511945,-0.2904 -0.955806,-0.584902 -1.3125,-0.873047 0,0 -0.368531,-0.184204 -0.80664,-0.59961 -0.43811,-0.415404 -0.94634,-1.061539 -1.228516,-1.982421 -0.01615,-0.05271 -0.03156,-0.106811 -0.04883,-0.158203 z"
       style="opacity:1;fill:#80cbc4;fill-opacity:1;fill-rule:evenodd;stroke:none;stroke-width:1.03534329;stroke-linecap:round;stroke-linejoin:bevel;stroke-miterlimit:4;stroke-dasharray:none;stroke-dashoffset:0;stroke-opacity:1"
       inkscape:connector-curvature="0" />
    <path
       id="path4598"
       d="m -58.355469,53.390625 c -2.85e-4,0.0055 -0.02539,0.05378 -0.02539,0.05859 3.28e-4,0.205878 0.06406,0.399407 0.07813,0.603515 -0.01925,-0.220363 -0.04622,-0.438439 -0.05273,-0.662109 z"
       style="opacity:1;fill:#8e8e8e;fill-opacity:1;fill-rule:evenodd;stroke:none;stroke-width:1.03534329;stroke-linecap:round;stroke-linejoin:bevel;stroke-miterlimit:4;stroke-dasharray:none;stroke-dashoffset:0;stroke-opacity:1"
       inkscape:connector-curvature="0" />
    <path
       id="path4612"
       d="m -48.855469,41.630859 c 0.689678,-0.128226 1.322138,-0.414062 2.048828,-0.414062 1.080647,0 2.054456,0.338071 3.046875,0.615234 -0.196855,-0.437558 -0.259535,-0.625255 -0.591796,-1.25 -0.303504,-0.570672 -0.640027,-1.140355 -0.966797,-1.568359 -0.326771,-0.428004 -0.643823,-0.712891 -0.908203,-0.712891 -0.266052,0 -0.604419,0.284267 -0.964844,0.712891 -0.360425,0.428623 -0.742303,1.000767 -1.089844,1.572266 -0.317509,0.522112 -0.353117,0.631753 -0.574219,1.044921 z"
       style="opacity:1;fill:#455a64;fill-opacity:1;fill-rule:evenodd;stroke:none;stroke-width:1.03534329;stroke-linecap:round;stroke-linejoin:bevel;stroke-miterlimit:4;stroke-dasharray:none;stroke-dashoffset:0;stroke-opacity:1"
       inkscape:connector-curvature="0" />
    <path
       id="path4610"
       d="m -54.425781,44.224609 c 0.936903,-0.83263 1.941834,-1.602175 3.113281,-2.097656 0.182429,-0.07716 0.406669,-0.05119 0.59375,-0.119141 -0.338884,-0.251304 -0.392286,-0.311148 -0.820312,-0.601562 -1.043602,-0.708079 -2.174027,-1.366305 -2.519532,-1.169922 -0.305454,0.173594 -0.389037,1.499762 -0.396484,2.783203 -0.0036,0.612906 0.01385,0.742289 0.0293,1.205078 z"
       style="opacity:1;fill:#455a64;fill-opacity:1;fill-rule:evenodd;stroke:none;stroke-width:1.03534329;stroke-linecap:round;stroke-linejoin:bevel;stroke-miterlimit:4;stroke-dasharray:none;stroke-dashoffset:0;stroke-opacity:1"
       inkscape:connector-curvature="0" />
    <path
       id="path4608"
       d="m -36.900391,47.009766 c -0.0208,-2.36e-4 -0.0893,-0.0038 -0.105468,-0.0039 0.03126,0.05517 0.07403,0.101247 0.105468,0.15625 z"
       style="opacity:1;fill:#8e8e8e;fill-opacity:1;fill-rule:evenodd;stroke:none;stroke-width:1.03534329;stroke-linecap:round;stroke-linejoin:bevel;stroke-miterlimit:4;stroke-dasharray:none;stroke-dashoffset:0;stroke-opacity:1"
       inkscape:connector-curvature="0" />
    <path
       id="path4606"
       d="m -36.900391,45.421875 c -0.142923,0.508183 -0.297002,1.098825 -0.339843,1.238281 0.06939,0.122224 0.165122,0.223469 0.234375,0.345703 0.01616,1.3e-4 0.08467,0.0037 0.105468,0.0039 z"
       style="opacity:1;fill:#8e8e8e;fill-opacity:1;fill-rule:evenodd;stroke:none;stroke-width:1.03534329;stroke-linecap:round;stroke-linejoin:bevel;stroke-miterlimit:4;stroke-dasharray:none;stroke-dashoffset:0;stroke-opacity:1"
       inkscape:connector-curvature="0" />
    <path
       id="path4604"
       d="m -36.900391,41.359375 c -0.578967,-0.0176 -1.715785,0.188129 -3.126953,0.568359 -0.918765,0.247556 -1.182434,0.335759 -1.798828,0.519532 1.173897,0.56806 2.291003,1.248033 3.203125,2.160156 0.584121,0.584121 0.971618,1.328441 1.382813,2.052734 0.04284,-0.139456 0.19692,-0.730098 0.339843,-1.238281 z"
       style="opacity:1;fill:#455a64;fill-opacity:1;fill-rule:evenodd;stroke:none;stroke-width:1.03534329;stroke-linecap:round;stroke-linejoin:bevel;stroke-miterlimit:4;stroke-dasharray:none;stroke-dashoffset:0;stroke-opacity:1"
       inkscape:connector-curvature="0" />
    <path
       id="rect4497-3-3"
       d="m -59.527344,34.777344 c -3.088651,0 -5.576172,2.485568 -5.576172,5.574218 v 17.052735 c 0,3.088651 2.487521,5.576172 5.576172,5.576172 h 6.191406 c -0.209558,-0.372103 -0.40457,-0.768376 -0.578124,-1.183594 -0.530072,-0.419694 -1.088082,-0.807803 -1.53711,-1.3125 -0.706321,-0.793888 -1.304917,-1.6857 -1.773437,-2.652344 -0.375205,-0.643754 -0.664466,-1.349273 -0.859375,-2.08789 -0.05591,-0.211875 -0.04557,-0.441205 -0.08594,-0.658203 -0.02553,-0.07596 -0.05247,-0.149691 -0.07031,-0.234376 -0.04138,-0.260162 -0.03928,-0.532991 -0.0625,-0.798828 -0.01406,-0.204108 -0.0778,-0.397637 -0.07813,-0.603515 0,-0.0048 0.02511,-0.05313 0.02539,-0.05859 -0.0033,-0.112793 -0.02539,-0.220453 -0.02539,-0.333984 0,-0.04577 0.0053,-0.08913 0.0059,-0.134766 -5e-4,-0.04344 -0.0059,-0.08535 -0.0059,-0.128906 0,-1.598132 0.322491,-3.121082 0.908203,-4.50586 0.585711,-1.384777 1.433166,-2.632383 2.480468,-3.679687 0.161342,-0.161341 0.395789,-0.231184 0.566407,-0.382813 -0.01545,-0.462789 -0.03285,-0.592172 -0.0293,-1.205078 0.0074,-1.283441 0.09103,-2.609609 0.396484,-2.783203 0.345505,-0.196383 1.47593,0.461843 2.519532,1.169922 0.428026,0.290414 0.481428,0.350258 0.820312,0.601562 0.587277,-0.213299 1.236037,-0.260334 1.863281,-0.376953 0.221102,-0.413168 0.25671,-0.522809 0.574219,-1.044921 0.347541,-0.571499 0.729419,-1.143643 1.089844,-1.572266 0.360425,-0.428624 0.698792,-0.712891 0.964844,-0.712891 0.26438,0 0.581432,0.284887 0.908203,0.712891 0.32677,0.428004 0.663293,0.997687 0.966797,1.568359 0.332261,0.624745 0.394941,0.812442 0.591796,1.25 0.475237,0.132724 1.010585,0.105265 1.458985,0.294922 0.178741,0.0756 0.300631,0.236123 0.474609,0.320313 0.616394,-0.183773 0.880063,-0.271976 1.798828,-0.519532 1.411168,-0.38023 2.547986,-0.585954 3.126953,-0.568359 v -1.007813 c 0,-3.08865 -2.485568,-5.574218 -5.574218,-5.574218 z"
       style="opacity:1;fill:#8e8e8e;fill-opacity:1;fill-rule:evenodd;stroke:none;stroke-width:1.03534329;stroke-linecap:round;stroke-linejoin:bevel;stroke-miterlimit:4;stroke-dasharray:none;stroke-dashoffset:0;stroke-opacity:1"
       inkscape:connector-curvature="0" />
  </g>
</svg>
