<?xml version="1.0" encoding="UTF-8" standalone="no"?>
<svg
   xmlns:dc="http://purl.org/dc/elements/1.1/"
   xmlns:cc="http://creativecommons.org/ns#"
   xmlns:rdf="http://www.w3.org/1999/02/22-rdf-syntax-ns#"
   xmlns:svg="http://www.w3.org/2000/svg"
   xmlns="http://www.w3.org/2000/svg"
   xmlns:sodipodi="http://sodipodi.sourceforge.net/DTD/sodipodi-0.dtd"
   xmlns:inkscape="http://www.inkscape.org/namespaces/inkscape"
   height="32"
   width="32"
   version="1"
   id="svg12"
   sodipodi:docname="document-share.svg"
   inkscape:version="0.92.1 r">
  <metadata
     id="metadata18">
    <rdf:RDF>
      <cc:Work
         rdf:about="">
        <dc:format>image/svg+xml</dc:format>
        <dc:type
           rdf:resource="http://purl.org/dc/dcmitype/StillImage" />
        <dc:title></dc:title>
      </cc:Work>
    </rdf:RDF>
  </metadata>
  <defs
     id="defs16" />
  <sodipodi:namedview
     pagecolor="#ffffff"
     bordercolor="#666666"
     borderopacity="1"
     objecttolerance="10"
     gridtolerance="10"
     guidetolerance="10"
     inkscape:pageopacity="0"
     inkscape:pageshadow="2"
     inkscape:window-width="1680"
     inkscape:window-height="965"
     id="namedview14"
     showgrid="false"
     inkscape:zoom="10.429825"
     inkscape:cx="14.823094"
     inkscape:cy="14.570235"
     inkscape:window-x="0"
     inkscape:window-y="0"
     inkscape:window-maximized="1"
     inkscape:current-layer="svg12" />
  <rect
     style="opacity:1;fill:#03cd38;fill-opacity:1;fill-rule:evenodd;stroke:none;stroke-width:1.03534329;stroke-linecap:round;stroke-linejoin:bevel;stroke-miterlimit:4;stroke-dasharray:none;stroke-dashoffset:0;stroke-opacity:1"
     id="rect4497-3"
     width="28.203388"
     height="28.203388"
     x="1.8983059"
     y="1.8983059"
     ry="5.575182" />
  <g
     id="g4521"
     transform="translate(0.09891919,-0.27937771)">
    <path
       id="path4517"
       d="m 19.250241,23.368048 c -1.080351,-0.190373 -1.991735,-0.960788 -2.338894,-1.977125 -0.06909,-0.202275 -0.145541,-0.562524 -0.146065,-0.688295 -6.94e-4,-0.200521 0.04978,-0.166489 -1.608907,-1.081832 l -1.576262,-0.869858 -0.161162,0.0886 c -0.650415,0.357569 -1.575818,0.429457 -2.305909,0.179131 -1.2142108,-0.416316 -2.0360098,-1.561445 -2.0360098,-2.837068 0,-1.275341 0.821557,-2.421125 2.0335898,-2.836144 0.727875,-0.249238 1.544955,-0.195392 2.248351,0.148168 l 0.285719,0.139554 1.53868,-0.809311 c 0.846274,-0.445121 1.548301,-0.824447 1.560059,-0.842948 0.01175,-0.0185 0.02157,-0.08003 0.02181,-0.136731 0.0014,-0.36104 0.246073,-1.023536 0.520825,-1.410773 0.94303,-1.329104 2.749176,-1.675591 4.094386,-0.785457 0.882616,0.584031 1.383374,1.564326 1.338205,2.619683 -0.06619,1.546479 -1.283179,2.781504 -2.819036,2.860823 -0.544225,0.02811 -1.020779,-0.07264 -1.493927,-0.315823 l -0.240341,-0.123529 -1.439549,0.757293 c -0.791751,0.416511 -1.42948,0.766969 -1.417171,0.778796 0.01231,0.01183 0.671421,0.379817 1.464694,0.817757 l 1.442312,0.796254 0.165191,-0.08339 c 0.48045,-0.242531 0.825731,-0.32139 1.39343,-0.318246 0.536801,0.003 0.833012,0.07247 1.29537,0.303923 1.637453,0.819702 2.16109,2.886541 1.112902,4.392726 -0.287695,0.413402 -0.811366,0.840329 -1.259671,1.026959 -0.518501,0.215853 -1.166677,0.296016 -1.672615,0.206862 z"
       style="fill:#ffffff;stroke-width:1.00000012"
       inkscape:connector-curvature="0" />
    <path
       id="path4513"
       d="m 20.261762,22.666805 c 0.400428,-0.08647 0.870352,-0.358115 1.159159,-0.67006 0.849039,-0.917063 0.844066,-2.273062 -0.01165,-3.173898 -0.571385,-0.601523 -1.378239,-0.845583 -2.187088,-0.661559 -0.22109,0.0503 -0.405719,0.127779 -0.680425,0.285535 -0.186986,0.107381 -0.231482,0.122019 -0.334285,0.109968 -0.08855,-0.01038 -0.556139,-0.255416 -1.84575,-0.967245 -0.949934,-0.52434 -1.765547,-0.976853 -1.812474,-1.005585 -0.117955,-0.07222 -0.165395,-0.174862 -0.165395,-0.357829 0,-0.197622 0.05222,-0.321725 0.164611,-0.391185 0.04863,-0.03005 0.865103,-0.46265 1.814388,-0.961325 1.91915,-1.008162 1.843181,-0.978075 2.074244,-0.821494 0.471137,0.31927 1.02549,0.459843 1.551436,0.393415 0.556517,-0.07029 0.967867,-0.269456 1.362477,-0.659677 0.377283,-0.373088 0.566811,-0.726791 0.664011,-1.23919 0.134251,-0.707708 -0.08278,-1.432932 -0.594107,-1.985223 -0.290427,-0.313695 -0.750673,-0.578897 -1.173087,-0.675956 -0.29809,-0.06849 -0.783086,-0.06311 -1.072511,0.0119 -0.652802,0.169188 -1.229602,0.639605 -1.516399,1.236722 -0.140638,0.292804 -0.197596,0.517296 -0.225883,0.890277 -0.01737,0.22923 -0.03573,0.317792 -0.07779,0.375531 -0.0841,0.115447 -3.540331,1.930232 -3.712155,1.949163 -0.117373,0.01293 -0.149276,0.0012 -0.387609,-0.142475 -0.731923,-0.441242 -1.591786,-0.454531 -2.339869,-0.03616 -0.284023,0.158842 -0.696223,0.571041 -0.855064,0.855065 -0.2871158,0.513385 -0.3754978,1.054145 -0.2620958,1.603602 0.2416938,1.171055 1.3184068,1.978055 2.4707668,1.851849 0.391413,-0.04287 0.656075,-0.130926 0.999899,-0.332687 0.137608,-0.08075 0.226281,-0.11417 0.302937,-0.11417 0.09004,0 0.391711,0.15611 1.78331,0.922847 0.921214,0.507566 1.745613,0.96518 1.832002,1.016918 0.204236,0.122323 0.246805,0.211214 0.247061,0.515892 6.94e-4,0.79517 0.485111,1.572564 1.227636,1.970003 0.487354,0.260858 1.027013,0.330701 1.599691,0.207033 z"
       style="fill:#ffffff;stroke-width:1.00000012"
       inkscape:connector-curvature="0" />
  </g>
</svg>
