<?xml version="1.0" encoding="UTF-8" standalone="no"?>
<!-- Created with Inkscape (http://www.inkscape.org/) -->

<svg
   xmlns:dc="http://purl.org/dc/elements/1.1/"
   xmlns:cc="http://creativecommons.org/ns#"
   xmlns:rdf="http://www.w3.org/1999/02/22-rdf-syntax-ns#"
   xmlns:svg="http://www.w3.org/2000/svg"
   xmlns="http://www.w3.org/2000/svg"
   xmlns:sodipodi="http://sodipodi.sourceforge.net/DTD/sodipodi-0.dtd"
   xmlns:inkscape="http://www.inkscape.org/namespaces/inkscape"
   viewBox="0 0 32 32.000001"
   width="32"
   version="1.1"
   height="32"
   id="svg26"
   sodipodi:docname="dont-starve-together.svg"
   inkscape:version="0.92.1 r">
  <metadata
     id="metadata32">
    <rdf:RDF>
      <cc:Work
         rdf:about="">
        <dc:format>image/svg+xml</dc:format>
        <dc:type
           rdf:resource="http://purl.org/dc/dcmitype/StillImage" />
      </cc:Work>
    </rdf:RDF>
  </metadata>
  <defs
     id="defs30" />
  <sodipodi:namedview
     pagecolor="#ffffff"
     bordercolor="#666666"
     borderopacity="1"
     objecttolerance="10"
     gridtolerance="10"
     guidetolerance="10"
     inkscape:pageopacity="0"
     inkscape:pageshadow="2"
     inkscape:window-width="640"
     inkscape:window-height="480"
     id="namedview28"
     showgrid="false"
     inkscape:zoom="9.5"
     inkscape:cx="-4.1052632"
     inkscape:cy="16"
     inkscape:current-layer="svg26" />
  <rect
     style="opacity:1;fill:#fec786;fill-opacity:1;fill-rule:evenodd;stroke:none;stroke-width:1.03534329;stroke-linecap:round;stroke-linejoin:bevel;stroke-miterlimit:4;stroke-dasharray:none;stroke-dashoffset:0;stroke-opacity:1"
     id="rect4497-3"
     width="28.203388"
     height="28.203388"
     x="1.8983059"
     y="1.8983059"
     ry="5.575182"
     inkscape:export-filename="/home/ramil/3.png"
     inkscape:export-xdpi="71"
     inkscape:export-ydpi="71" />
  <g
     id="g4535"
     transform="translate(49.552636,1.7894744)">
    <path
       style="fill:#ffffff;stroke-width:0.99999994"
       d="m -27.550375,16.128727 c 0.550534,3.847013 -2.199132,9.16499 -3.110296,8.897964 -0.309418,0.362746 -6.011053,-3.133834 -6.674713,-6.913471 -0.0619,-0.3526 -1.645391,-2.821891 -0.919719,-2.050707 1.031884,1.096602 -1.066476,-2.167647 -0.59914,-3.172401 0.689055,-1.481574 4.513943,-1.698726 6.305178,-1.698726 1.634754,0 3.551277,-0.742684 4.372184,0.191673 0.688633,0.783729 0.388211,3.080475 0.626506,4.745668 z"
       id="path4"
       inkscape:connector-curvature="0" />
    <path
       style="fill:#4f4f4f;stroke-width:0.99999994"
       d="m -32.390974,21.851115 c 0,-0.107337 0.232538,-0.24116 0.957328,-0.549308 0.333542,-0.141722 0.448115,-0.155197 0.525299,-0.06196 0.05429,0.06505 0.08055,0.141335 0.05835,0.168208 -0.03761,0.04492 -1.414145,0.546829 -1.501386,0.546829 -0.02177,0 -0.03959,-0.04647 -0.03959,-0.104006 z"
       id="path6"
       inkscape:connector-curvature="0" />
    <path
       style="fill:#4f4f4f;stroke-width:0.99999994"
       d="m -32.031338,20.55192 c -0.393688,-0.168362 -0.503353,-0.420983 -0.130369,-0.300481 0.598747,0.193687 0.618712,0.16147 0.573588,-0.925141 -0.02819,-0.678716 0.0012,-0.992518 0.08644,-0.924755 0.07101,0.05731 0.151034,0.599801 0.177828,1.207346 0.0535,1.212768 0.02195,1.254897 -0.707487,0.943031 z"
       id="path8"
       inkscape:connector-curvature="0" />
    <path
       style="fill:#4f4f4f;stroke-width:0.99999994"
       d="m -40.283229,16.797298 c -0.369572,-0.252234 -0.671397,-0.478601 -0.67072,-0.503074 6.93e-4,-0.02478 0.192335,-0.200811 0.425905,-0.391864 0.404254,-0.330685 0.458699,-0.62164 0.457654,-0.850796 -5.38e-4,-0.123678 -1.499534,-2.193823 -2.435251,-3.363222 -0.36207,-0.452503 -0.68406,-0.894552 -0.715531,-0.982373 -0.03558,-0.09928 0.0097,-0.247122 0.11981,-0.390858 0.36981,-0.4827058 0.995654,-1.2517985 1.341043,-1.9130897 0.342553,-0.6559476 0.753735,-1.1947229 0.824372,-1.0801838 0.102244,0.1656519 0.205255,0.061955 1.018979,-1.0266703 0.817935,-1.0941236 1.487953,-2.116457 1.651886,-2.116457 0.184951,0 0.108314,0.184006 -0.243259,0.5840024 -0.628105,0.6702747 -0.823497,1.5959584 -0.824594,2.2012579 -0.05546,1.1418289 0.873653,1.9643577 1.885093,2.4293293 1.294589,0.3052054 2.500264,0.1685948 2.727608,-0.9129055 0.189007,-0.8991981 -0.446762,-1.4507516 -1.182975,-1.6720855 -0.179779,0.081935 -0.701065,0.6328693 -0.866977,1.1579372 -0.05788,0.183309 -0.224384,0.1154684 -0.224384,-0.091306 0,-0.4304317 0.485454,-1.5276531 0.742956,-1.9958773 0.361262,-0.6569544 0.75578,-0.6889386 1.079657,-0.6240408 0.18076,0.036399 0.318185,-0.076669 0.482399,-0.2069294 l 0.22963,-0.1809083 c 0.799934,0.5883393 1.696308,1.0203973 2.549979,1.5174305 0.957757,0.6810393 1.880271,1.065547 1.890365,1.1627388 0.006,0.057308 0.0021,0.060406 -0.0087,0.4781369 -0.01871,0.7246401 -0.01102,0.7597995 0.165946,0.7597995 0.359381,0 0.72064,-0.2009662 1.199922,-0.7795476 0.83927,-1.013195 0.94773,-1.0224883 0.94773,-1.8728968 0.06062,-0.6509138 -0.797367,-2.0452864 -1.335042,-1.5225419 -0.225407,0.2257482 -0.486788,1.0206297 -0.405437,1.2329801 0.05488,0.1432708 0.399518,0.2418565 0.589738,0.1686723 0.199554,-0.076669 0.167462,0.081626 -0.05814,0.2868512 -0.295642,0.2688843 -0.6181,0.3151956 -0.85534,0.1227481 -0.293288,-0.2378294 -0.372348,-1.1830289 -0.149689,-1.7895675 0.211427,-0.5759483 0.966525,-1.1878304 1.125037,-1.2487011 0.178411,-0.068925 0.378763,0.074346 1.092679,1.0124981 1.149678,1.7297035 2.404134,3.2785762 3.52572,4.9308361 0.139572,0.2043738 0.275171,0.5036934 0.301336,0.6651634 0.04357,0.2688847 -0.0088,0.3581767 -0.622615,1.0612877 -1.010671,1.157859 -1.690939,2.096863 -1.690939,2.334306 0,0.255873 0.523207,0.463035 0.981713,0.533664 0.332246,0.05111 0.551067,0.164567 0.551067,0.285612 -0.545121,0.743691 -2.696898,3.78196 -2.95583,3.575108 -0.02532,-0.04105 -0.06761,-0.529637 -0.09399,-1.085683 -0.19865,-1.506278 -0.270461,-2.31781 -0.44612,-3.787535 -0.05265,-0.286697 -0.06074,-0.291498 -0.41085,-0.242864 -0.858654,0.119496 -1.915557,0.18602 -2.759913,0.32658 -0.681854,0.113455 -1.278473,0.589656 -1.556226,0.440732 -0.284658,-0.152564 -1.783862,-0.42292 -2.673815,-0.534361 -2.626535,-0.328903 -2.195546,-0.273221 -2.195546,0.04956 l 0.575423,4.658079 c 0,0 0.275873,1.25087 0.04534,1.25087 -1.252714,-0.47775 -2.171815,-1.388409 -3.147117,-2.06093 z"
       id="path12"
       inkscape:connector-curvature="0" />
    <circle
       cx="-33.93985"
       style="fill:#4f4f4f;stroke-width:0.99999994"
       r="0.77443635"
       cy="18.082693"
       id="circle14" />
    <path
       style="fill:#4f4f4f;stroke-width:0.99999994"
       d="m -36.050136,16.534377 c -0.05584,0 -0.091,0.0077 -0.103079,0.01317 -0.04222,0.02711 -0.08401,0.18664 -0.09326,0.354847 l -0.01668,0.305438 1.068106,0.05189 c 0.601426,0.05111 1.26968,0.06505 1.834825,0.02633 0.198686,0 0.221173,-0.01549 0.173764,-0.116785 -0.126708,-0.270743 -0.327991,-0.427334 -0.568413,-0.441429 -0.131526,-0.0077 -0.707657,-0.06273 -1.280156,-0.121973 -0.491468,-0.05111 -0.847539,-0.0759 -1.015094,-0.07202 z"
       id="path16"
       inkscape:connector-curvature="0" />
    <path
       style="fill:#4f4f4f;stroke-width:0.99999994"
       d="m -31.430724,15.759399 c -0.07583,0 -0.122339,0.0077 -0.133378,0.01626 -0.04133,0.03795 -0.06237,0.222495 -0.04785,0.409522 0.02399,0.308922 0.04531,0.338738 0.236213,0.325883 0.531896,0.0271 1.068324,0.02246 1.609703,0.02246 0.424585,-0.01704 0.948092,-0.286851 1.247243,-0.432677 0,-0.04337 -0.03992,-0.07876 -0.0896,-0.07876 -0.04967,0 -0.718396,-0.07125 -1.48549,-0.157752 -0.614733,-0.0697 -1.109336,-0.107492 -1.336839,-0.104781 z"
       id="path18"
       inkscape:connector-curvature="0" />
    <circle
       cy="17.308258"
       cx="-30.842104"
       r="0.77443635"
       style="fill:#4f4f4f;stroke-width:0.99999994"
       id="circle20" />
  </g>
</svg>
