<?xml version="1.0" encoding="UTF-8" standalone="no"?>
<svg
   xmlns:dc="http://purl.org/dc/elements/1.1/"
   xmlns:cc="http://creativecommons.org/ns#"
   xmlns:rdf="http://www.w3.org/1999/02/22-rdf-syntax-ns#"
   xmlns:svg="http://www.w3.org/2000/svg"
   xmlns="http://www.w3.org/2000/svg"
   xmlns:sodipodi="http://sodipodi.sourceforge.net/DTD/sodipodi-0.dtd"
   xmlns:inkscape="http://www.inkscape.org/namespaces/inkscape"
   height="32"
   width="32"
   version="1"
   id="svg12"
   sodipodi:docname="dota2.svg"
   inkscape:version="0.92.1 r">
  <metadata
     id="metadata18">
    <rdf:RDF>
      <cc:Work
         rdf:about="">
        <dc:format>image/svg+xml</dc:format>
        <dc:type
           rdf:resource="http://purl.org/dc/dcmitype/StillImage" />
      </cc:Work>
    </rdf:RDF>
  </metadata>
  <defs
     id="defs16" />
  <sodipodi:namedview
     pagecolor="#ffffff"
     bordercolor="#666666"
     borderopacity="1"
     objecttolerance="10"
     gridtolerance="10"
     guidetolerance="10"
     inkscape:pageopacity="0"
     inkscape:pageshadow="2"
     inkscape:window-width="640"
     inkscape:window-height="480"
     id="namedview14"
     showgrid="false"
     inkscape:zoom="4.75"
     inkscape:cx="-46.415258"
     inkscape:cy="20.22261"
     inkscape:current-layer="svg12" />
  <rect
     style="opacity:1;fill:#c2352a;fill-opacity:1;fill-rule:evenodd;stroke:none;stroke-width:1.03534329;stroke-linecap:round;stroke-linejoin:bevel;stroke-miterlimit:4;stroke-dasharray:none;stroke-dashoffset:0;stroke-opacity:1"
     id="rect4497-3"
     width="28.203388"
     height="28.203388"
     x="1.8983059"
     y="1.8983059"
     ry="5.575182"
     inkscape:export-filename="/home/ramil/3.png"
     inkscape:export-xdpi="71"
     inkscape:export-ydpi="71" />
  <path
     style="fill:#ffffff;stroke-width:0.99999994;enable-background:new"
     d="m 17.708521,5.1584863 -3.722402,0.063528 -0.754773,0.5687301 0.06202,0.063528 -2.458756,0.063581 0.18904,-0.252621 -5.6131103,-0.1270849 -0.063581,0.3797059 -0.063504,0.5686681 0.3796284,0.6958306 -0.1890398,1.4550874 -0.3161247,1.2644987 0.1890398,1.2024658 0.063581,0.948142 0.378157,1.264654 -0.1256135,0.632714 0.062032,0.695443 0.4416607,0.506481 0.125536,0.821676 -0.8182688,0.31597 0.125536,2.530856 0.5052419,0.379474 -0.3161246,2.212563 -0.252621,0.127007 -0.1891172,4.238487 0.2223405,-0.0302 0.5355223,0.110744 c 0,0 0.6482105,0.224509 0.7820253,0.269241 0.1337915,0.04474 0.3327673,-0.201175 0.3327673,-0.201175 h 0.5354526 l 0.4462067,-0.08924 0.2465494,0.11193 0.2223482,-0.02269 0.5581359,-0.04386 0.2647021,-0.11344 0.1134394,0.269241 0.089137,-0.06738 0.2465029,-0.113068 0.5112825,-0.04414 0.110435,0.157211 c 0,0 0.624055,0.06655 0.847078,0.06655 0.222983,0 0.179994,-0.179995 0.179994,-0.179995 0,0 0.06548,-0.02109 0.176974,0.09076 0.111488,0.111813 0.26924,-0.04537 0.26924,-0.04537 l 0.222349,-0.111929 0.157303,0.157303 0.155793,0.11193 0.423524,-0.08924 h 0.689728 l 0.158821,-0.04537 0.645879,0.916932 0.04235,-0.467387 h 1.048199 c 0.0892,0 0.04689,0.311586 0.04689,0.311586 l 0.689728,-0.223858 0.356969,0.356968 0.73662,-0.468897 0.400832,-0.06807 0.780476,-0.04235 h 1.114801 l 1.270539,0.08773 0.335788,-0.13311 0.243521,-0.223859 0.670073,0.378142 0.49007,-0.201168 c 0,0 0.535492,0.204529 0.624691,0.226887 0.08919,0.02234 0.915074,-0.09227 0.915074,-0.09227 l 0.511251,-0.13462 -0.332767,-0.245039 0.222348,-0.08924 0.936293,0.04386 1.247848,0.314614 -0.02117,-8.161778 v -0.51579 l -0.311586,0.04689 -0.402343,0.06655 v -0.246549 l 0.222348,-0.202686 0.179995,-0.266212 0.04235,-0.962004 -0.06656,-0.694266 -0.290414,-0.850098 -0.264702,-0.356969 -0.04537,-0.335787 0.06656,-0.222349 0.02117,-0.06655 0.290413,-0.113439 0.04537,-0.113439 -0.222349,-0.378142 0.201168,-0.114957 0.314614,-0.190581 0.125544,-1.137491 0.06353,-0.759311 V 7.9414924 L 26.600918,7.1812289 26.727151,6.3598623 26.790655,6.0422662 26.222994,5.7896452 24.078581,5.4100168 23.761837,5.853149 23.636378,5.3464356 19.53729,5.2829319 19.410282,5.9802339 18.401967,6.1057699 18.275734,5.6641092 17.392877,5.5370243 17.708847,5.1573959 Z"
     id="path2"
     inkscape:connector-curvature="0" />
  <path
     style="fill:#c2352a;fill-opacity:1;stroke-width:0.99999994;enable-background:new"
     d="m 20.646615,8.6428602 -3.097743,1.5488718 4.646614,3.097743 V 10.191732 Z M 9.8045139,9.417296 7.4812065,10.191732 20.646615,23.35714 h 2.323307 l 1.548871,-3.872179 z M 8.2556423,17.936089 7.4812065,21.808268 9.0300781,23.35714 H 10.57895 l 2.323307,-0.774436 z"
     id="path6"
     inkscape:connector-curvature="0" />
</svg>
