<?xml version="1.0" encoding="UTF-8" standalone="no"?>
<svg
   xmlns:dc="http://purl.org/dc/elements/1.1/"
   xmlns:cc="http://creativecommons.org/ns#"
   xmlns:rdf="http://www.w3.org/1999/02/22-rdf-syntax-ns#"
   xmlns:svg="http://www.w3.org/2000/svg"
   xmlns="http://www.w3.org/2000/svg"
   xmlns:sodipodi="http://sodipodi.sourceforge.net/DTD/sodipodi-0.dtd"
   xmlns:inkscape="http://www.inkscape.org/namespaces/inkscape"
   height="32"
   viewBox="0 0 32 32"
   width="32"
   version="1.1"
   id="svg2"
   inkscape:version="0.92.1 r"
   sodipodi:docname="dragon-ball-online-global.svg">
  <metadata
     id="metadata14">
    <rdf:RDF>
      <cc:Work
         rdf:about="">
        <dc:format>image/svg+xml</dc:format>
        <dc:type
           rdf:resource="http://purl.org/dc/dcmitype/StillImage" />
      </cc:Work>
    </rdf:RDF>
  </metadata>
  <defs
     id="defs12" />
  <sodipodi:namedview
     pagecolor="#ffffff"
     bordercolor="#666666"
     borderopacity="1"
     objecttolerance="10"
     gridtolerance="10"
     guidetolerance="10"
     inkscape:pageopacity="0"
     inkscape:pageshadow="2"
     inkscape:window-width="1920"
     inkscape:window-height="1056"
     id="namedview10"
     showgrid="false"
     inkscape:zoom="20.17464"
     inkscape:cx="17.237544"
     inkscape:cy="17.454937"
     inkscape:window-x="0"
     inkscape:window-y="24"
     inkscape:window-maximized="1"
     inkscape:current-layer="svg2">
    <inkscape:grid
       type="xygrid"
       id="grid4142" />
  </sodipodi:namedview>
  <rect
     style="opacity:1;fill:#ffd44a;fill-opacity:1;fill-rule:evenodd;stroke:none;stroke-width:1.03534329;stroke-linecap:round;stroke-linejoin:bevel;stroke-miterlimit:4;stroke-dasharray:none;stroke-dashoffset:0;stroke-opacity:1"
     id="rect4497-3"
     width="28.203388"
     height="28.203388"
     x="1.8983055"
     y="1.8983059"
     ry="5.575182" />
  <path
     style="fill:#f4b400;stroke-width:0.99999994"
     d="M 16,5.8947365 A 10.105263,10.105263 0 0 0 5.894736,16 10.105263,10.105263 0 0 0 16,26.105263 10.105263,10.105263 0 0 0 26.105262,16 10.105263,10.105263 0 0 0 16,5.8947365 Z"
     id="path2"
     inkscape:connector-curvature="0" />
  <path
     style="opacity:1;fill:#ffd44a;stroke-width:0.5;fill-opacity:1"
     d="m 14.713417,5.9855615 c -1.308055,0.165787 -2.533502,0.58277 -3.632742,1.198152 l 0.713963,0.178731 0.461576,0.323091 v 0.27694 l 0.785623,0.508705 -0.184629,0.739506 -0.415187,-0.32317 -0.277989,0.323098 -0.323242,0.184608 -0.184679,-0.554828 0.09202,-0.323099 -0.09202,-0.230795 -0.462596,-0.416407 h -0.184629 l 0.184629,0.462545 v 0.415409 c -0.181806,-0.05057 -0.368712,-0.0686 -0.554828,-0.0923 l 0.508712,0.370235 0.04616,0.230781 0.601022,0.508704 0.600046,-0.13847 v -0.370235 l 0.277924,0.184622 -0.13847,0.324075 h 0.461576 l 0.231765,0.4154105 0.276947,0.324075 0.55487,0.09231 -0.324083,0.323092 -0.09232,0.324075 h 0.416393 l 0.507728,0.27694 v 0.83181 h -0.230788 l -0.230788,0.230781 -0.508712,-0.230781 -0.184629,-0.508704 -0.370241,-0.23078 -0.04616,-0.184622 -0.600046,-0.13847 -0.324083,0.36925 -0.369257,0.184622 0.230788,0.416387 -0.3231,-0.09231 -0.185613,-0.416386 0.416401,-0.461561 H 11.6561 l -0.370292,0.323099 -0.09238,0.462595 -0.323099,0.415188 -0.0923,-0.599795 -0.185612,-0.09338 c -0.195706,0.207291 -0.342896,0.460038 -0.507728,0.693326 l -0.647182,0.04616 -0.324083,0.231764 0.139454,0.230779 0.369258,0.323092 h 0.508712 l 0.69334,-0.23078 0.323099,0.04616 0.276947,0.27694 0.739507,-0.739507 0.508711,-0.13847 0.739507,0.09231 0.693341,0.185606 c 0.377569,0.436743 0.751359,0.885899 1.108721,1.339516 l 0.416394,1.06354 -0.185613,0.184621 0.370242,0.554856 -0.416394,0.970231 c -0.336582,0.388465 -0.680368,0.766156 -1.016418,1.154909 l -0.508711,-0.41541 -0.184629,0.230781 -0.554871,-0.323099 -0.184629,0.184629 h -0.507727 l -0.324083,0.36925 0.184629,0.647176 -0.369258,0.416387 0.04616,0.739505 -0.323099,0.553879 0.230788,0.462546 c 0.0197,0.336344 0.04616,0.680002 0.04616,1.016418 -0.162216,0.455737 -0.35553,0.881446 -0.508711,1.340522 l -0.09231,0.739511 v 0.369251 h -0.27694 l -0.462553,-0.276939 h -0.440946 c 1.646812,1.177033 3.660827,1.876673 5.848245,1.876673 1.642574,0 3.186236,-0.398413 4.552832,-1.091051 l 0.02259,-0.04616 -0.324083,-0.323099 -0.09232,-0.324076 -0.507727,-0.13847 -0.370242,-1.016418 0.09232,-0.230781 -0.230788,-0.416386 -0.601022,-0.13847 -0.276947,-0.693326 0.04616,-0.924114 -0.462552,-0.647174 -0.04616,-0.647175 c 0.630638,-0.319062 1.223292,-0.641744 1.849233,-0.97023 l 0.323099,-0.647174 0.554871,-0.13847 0.323098,-0.831811 0.739507,0.09231 0.693341,-0.507721 0.69334,0.646191 v 0.09231 c 0.20926,-0.06167 0.460858,-0.0678 0.647182,-0.184622 l 0.138469,-0.461561 v -0.462549 l 0.461576,0.04616 c -0.03844,-0.310679 -0.09987,-0.659644 -0.13847,-0.97023 h 0.277924 l 0.27694,0.369251 0.276947,0.13847 0.370241,-0.230781 0.04616,-0.461562 -0.04616,-0.554856 -0.601029,-0.416386 h -0.46158 l -0.09329,-0.276939 -0.553887,0.138469 -0.416394,0.508698 -0.09232,-0.877927 -0.739507,-0.601015 -0.230788,-0.693326 -0.55487,-0.230781 -0.323099,-0.416386 -0.69334,-0.13847 -0.324083,-0.554857 h 1.017423 L 20.57516,10.505005 h -0.462552 l -0.600046,-0.230781 -0.0933,0.600032 -0.27694,-0.41541 0.323099,-0.230781 -0.09231,-0.2317635 0.231772,-0.230781 0.27694,-0.04616 -0.09231,-0.27694 0.230788,-0.416386 0.462553,0.184621 -0.09232,-0.36925 0.553887,-0.324076 0.416395,0.785623 -0.04616,0.231765 0.415416,0.184621 0.277924,0.6010145 0.09232,-0.5548555 0.739507,-0.276939 0.138469,-0.416387 -0.970301,-0.554856 -0.416394,-0.41541 -0.04616,-0.508704 0.02455,-0.01473 c -0.105592,-0.07011 -0.219086,-0.132314 -0.328988,-0.199333 l 0.166951,0.400677 h -0.462553 l -0.13847,-0.370235 -0.415416,0.323092 H 20.02127 v -0.369257 l 0.416392,-0.185606 0.369258,0.231765 -0.04616,-0.09231 c -0.185326,-0.134182 -0.364187,-0.287327 -0.553104,-0.416408 l -0.462552,0.139454 c -0.287284,0.199139 -0.54429,0.401187 -0.831811,0.600031 l -0.462553,-0.415409 0.508712,-0.184629 0.184629,-0.462546 0.360422,-0.04027 c -0.19467,-0.0719 -0.388615,-0.145027 -0.588307,-0.205151 l -0.927059,0.6619 v 0.41541 l 0.369257,0.416387 -0.507727,1.016417 -0.370242,-0.184622 -0.415417,-0.693326 c -0.620625,-0.195741 -1.217546,-0.422729 -1.803692,-0.693391 l 0.04616,0.27694 -0.276947,0.185606 -0.508712,-0.370235 0.231772,-0.27694 0.369258,0.184622 0.04616,-0.04616 -0.453972,-1.238377 z m -4.62366,1.838459 c -0.157024,0.114068 -0.31649,0.224833 -0.466475,0.347593 l 0.183645,0.207213 0.508711,-0.554857 h -0.225874 z m 3.830064,0.508704 h 0.277923 v 0.27694 l -0.184629,0.23078 v 0.416387 l 0.09232,0.601015 -0.462553,-0.09231 -0.369258,-0.324075 0.323099,-0.323092 c 0.101304,-0.275388 0.196244,-0.521498 0.3231,-0.785622 z m 0.69334,0.601016 0.277923,0.09231 -0.04616,0.553879 -0.416395,-0.230781 z m -7.209025,4.7135205 -0.416408,0.461877 -0.46159,-0.04597 c -0.162468,0.150488 -0.323989,0.27967 -0.475324,0.430135 -0.06922,0.478134 -0.107044,0.967285 -0.107044,1.465222 0,3.302029 1.582954,6.212719 4.026452,8.043707 L 9.34464,23.259493 9.43795,22.936251 8.883123,22.473655 9.298525,22.05775 8.836935,21.688535 8.374411,21.411265 8.189782,21.1795 8.328252,20.67178 V 19.377445 L 7.959037,18.591607 7.542629,18.129012 7.033917,16.927986 V 16.60391 c 0.237878,0.03058 0.460585,0.07644 0.69334,0.09329 L 7.265682,16.188502 6.618501,15.725957 6.248259,15.310548 v -0.416387 c 0.0793,-0.153001 0.151995,-0.355566 0.231801,-0.50785 l 0.323099,0.41541 0.230787,-0.323092 0.370241,-0.277916 v -0.553879 z m 1.802114,0.230781 -0.415418,0.507719 -0.55487,1.155844 -0.3231,0.36925 0.184629,0.416386 -0.323098,0.369251 c 0.135022,0.0089 0.276659,0 0.415417,0 0.252057,-0.540411 0.455233,-1.098234 0.647182,-1.66362 L 9.16009,14.663621 9.345703,13.970295 9.20625,13.877985 Z m 16.843082,1.816621 c -0.01843,0.03222 -0.06678,0.124722 -0.06678,0.124722 l -0.785623,0.462544 -0.83181,0.230781 -0.324083,0.462546 -0.553887,0.415409 -0.277924,-0.09231 -0.230787,0.138469 v 0.04616 l 0.276946,0.877926 0.231765,0.324076 -0.04616,0.184622 0.184629,0.693326 -0.69334,1.248218 -0.69334,0.646191 -0.323099,0.416387 0.04616,0.97023 -0.231772,0.508705 0.169896,0.74633 c 2.517554,-1.824236 4.156106,-4.779964 4.156106,-8.139961 0,-0.08853 -0.0045,-0.176203 -0.0068,-0.264168 z"
     id="path8-3-6"
     inkscape:connector-curvature="0" />
  <path
     style="opacity:1;fill:#ffffff;fill-opacity:1;stroke:none;stroke-width:0.125;stroke-miterlimit:4;stroke-dasharray:none"
     d="M 16.761719 8.5917969 L 17.111328 10.628906 L 15.628906 12.074219 L 17.675781 12.371094 L 18.591797 14.224609 L 19.507812 12.371094 L 21.554688 12.074219 L 20.072266 10.628906 L 20.421875 8.5917969 L 18.591797 9.5527344 L 16.761719 8.5917969 z M 9.7265625 10.369141 L 10.076172 12.408203 L 8.5957031 13.851562 L 10.642578 14.148438 L 11.556641 16.003906 L 12.472656 14.148438 L 14.519531 13.851562 L 13.037109 12.408203 L 13.386719 10.369141 L 11.556641 11.332031 L 9.7265625 10.369141 z M 18.613281 15.552734 L 18.962891 17.591797 L 17.480469 19.035156 L 19.527344 19.332031 L 20.443359 21.1875 L 21.357422 19.332031 L 23.404297 19.035156 L 21.923828 17.591797 L 22.273438 15.552734 L 20.443359 16.515625 L 18.613281 15.552734 z M 10.466797 17.775391 L 10.816406 19.8125 L 9.3359375 21.255859 L 11.382812 21.554688 L 12.296875 23.408203 L 13.212891 21.554688 L 15.259766 21.255859 L 13.779297 19.8125 L 14.128906 17.775391 L 12.296875 18.736328 L 10.466797 17.775391 z "
     id="path4146-5" />
  <path
     style="color:#000000;font-style:normal;font-variant:normal;font-weight:normal;font-stretch:normal;font-size:medium;line-height:normal;font-family:sans-serif;font-variant-ligatures:normal;font-variant-position:normal;font-variant-caps:normal;font-variant-numeric:normal;font-variant-alternates:normal;font-feature-settings:normal;text-indent:0;text-align:start;text-decoration:none;text-decoration-line:none;text-decoration-style:solid;text-decoration-color:#000000;letter-spacing:normal;word-spacing:normal;text-transform:none;writing-mode:lr-tb;direction:ltr;text-orientation:mixed;dominant-baseline:auto;baseline-shift:baseline;text-anchor:start;white-space:normal;shape-padding:0;clip-rule:nonzero;display:inline;overflow:visible;visibility:visible;opacity:1;isolation:auto;mix-blend-mode:normal;color-interpolation:sRGB;color-interpolation-filters:linearRGB;solid-color:#000000;solid-opacity:1;vector-effect:none;fill:#c2352a;fill-opacity:1;fill-rule:nonzero;stroke:none;stroke-width:2.58304191;stroke-linecap:round;stroke-linejoin:round;stroke-miterlimit:4;stroke-dasharray:none;stroke-dashoffset:0;stroke-opacity:1;color-rendering:auto;image-rendering:auto;shape-rendering:auto;text-rendering:auto;enable-background:accumulate"
     d="m 15.355944,17.706887 a 0.88510915,0.88510915 0 0 0 -0.728083,1.338388 l 1.869728,3.244252 -1.869728,3.244252 a 0.88510915,0.88510915 0 1 0 1.533792,0.883336 l 1.357125,-2.355563 1.358464,2.355563 a 0.88510915,0.88510915 0 1 0 1.533792,-0.883336 l -1.869727,-3.244252 1.869727,-3.244252 a 0.88510915,0.88510915 0 0 0 -0.753512,-1.338388 0.88510915,0.88510915 0 0 0 -0.78028,0.455051 l -1.358464,2.355564 -1.357125,-2.355564 a 0.88510915,0.88510915 0 0 0 -0.805709,-0.455051 z m 6.413554,0.0053 a 0.88510915,0.88510915 0 0 0 -0.849876,1.142983 l 2.124021,7.371849 a 0.88510915,0.88510915 0 0 0 1.701091,0 l 2.125359,-7.37184 A 0.88529342,0.88529342 0 1 0 25.169002,18.36399 l -1.274145,4.422035 -1.275483,-4.422035 a 0.88510915,0.88510915 0 0 0 -0.849876,-0.651795 z"
     id="path36"
     inkscape:connector-curvature="0" />
</svg>
