<?xml version="1.0" encoding="UTF-8" standalone="no"?>
<svg
   xmlns:dc="http://purl.org/dc/elements/1.1/"
   xmlns:cc="http://creativecommons.org/ns#"
   xmlns:rdf="http://www.w3.org/1999/02/22-rdf-syntax-ns#"
   xmlns:svg="http://www.w3.org/2000/svg"
   xmlns="http://www.w3.org/2000/svg"
   xmlns:sodipodi="http://sodipodi.sourceforge.net/DTD/sodipodi-0.dtd"
   xmlns:inkscape="http://www.inkscape.org/namespaces/inkscape"
   height="32"
   width="32"
   version="1.1"
   viewBox="0 0 32 32"
   id="svg46"
   sodipodi:docname="dragon-ball-xenoverse.svg"
   inkscape:version="0.92.1 r">
  <metadata
     id="metadata52">
    <rdf:RDF>
      <cc:Work
         rdf:about="">
        <dc:format>image/svg+xml</dc:format>
        <dc:type
           rdf:resource="http://purl.org/dc/dcmitype/StillImage" />
      </cc:Work>
    </rdf:RDF>
  </metadata>
  <defs
     id="defs50" />
  <sodipodi:namedview
     pagecolor="#ffffff"
     bordercolor="#666666"
     borderopacity="1"
     objecttolerance="10"
     gridtolerance="10"
     guidetolerance="10"
     inkscape:pageopacity="0"
     inkscape:pageshadow="2"
     inkscape:window-width="640"
     inkscape:window-height="480"
     id="namedview48"
     showgrid="false"
     inkscape:zoom="13.435029"
     inkscape:cx="-1.2281332"
     inkscape:cy="12.886664"
     inkscape:current-layer="svg46" />
  <g
     id="g4511"
     transform="translate(15.106812,-2.2300258)">
    <rect
       ry="5.575182"
       y="4.1283317"
       x="-13.208507"
       height="28.203388"
       width="28.203388"
       id="rect4497-3"
       style="opacity:1;fill:#ffd44a;fill-opacity:1;fill-rule:evenodd;stroke:none;stroke-width:1.03534329;stroke-linecap:round;stroke-linejoin:bevel;stroke-miterlimit:4;stroke-dasharray:none;stroke-dashoffset:0;stroke-opacity:1" />
    <path
       inkscape:connector-curvature="0"
       id="path2"
       d="M 0.8931874,8.1247625 A 10.105263,10.105263 0 0 0 -9.2120761,18.230026 10.105263,10.105263 0 0 0 0.8931874,28.335289 10.105263,10.105263 0 0 0 10.998449,18.230026 10.105263,10.105263 0 0 0 0.8931874,8.1247625 Z"
       style="fill:#f4b400;stroke-width:0.99999994" />
    <path
       inkscape:connector-curvature="0"
       id="path8-3-6"
       d="m -0.3933956,8.2155875 c -1.308055,0.165787 -2.533502,0.58277 -3.6327415,1.198152 l 0.713963,0.178731 0.4615755,0.323091 v 0.2769395 l 0.785623,0.508705 -0.184629,0.739506 -0.415187,-0.32317 -0.277989,0.323098 -0.3232415,0.184608 -0.184679,-0.554828 0.09202,-0.323099 -0.09202,-0.230795 -0.462596,-0.416407 h -0.184629 l 0.184629,0.462545 v 0.415409 c -0.181806,-0.05057 -0.368712,-0.0686 -0.554828,-0.0923 l 0.508712,0.370235 0.04616,0.230781 0.601022,0.508704 0.6000455,-0.13847 v -0.370235 l 0.277924,0.184622 -0.13847,0.324075 h 0.461576 l 0.231765,0.415411 0.276947,0.324075 0.55487,0.09231 -0.324083,0.323092 -0.09232,0.324075 h 0.416393 l 0.507728,0.27694 v 0.83181 h -0.230788 l -0.230788,0.230781 -0.508712,-0.230781 -0.184629,-0.508704 -0.370241,-0.23078 -0.04616,-0.184622 -0.600046,-0.13847 -0.324083,0.36925 -0.3692565,0.184622 0.2307875,0.416387 -0.3230995,-0.09231 -0.185613,-0.416386 0.416401,-0.461561 h -0.184629 l -0.370292,0.323099 -0.09238,0.462595 -0.323099,0.415188 -0.0923,-0.599795 -0.185612,-0.09338 c -0.195706,0.207291 -0.342896,0.460038 -0.507728,0.693326 l -0.647182,0.04616 -0.324083,0.231764 0.139454,0.230779 0.369258,0.323092 h 0.508712 l 0.69334,-0.23078 0.323099,0.04616 0.276947,0.27694 0.7395065,-0.739507 0.508711,-0.13847 0.739507,0.09231 0.693341,0.185606 c 0.377569,0.436743 0.751359,0.885899 1.108721,1.339516 l 0.416394,1.06354 -0.185613,0.184621 0.370242,0.554856 -0.416394,0.970231 c -0.336582,0.388465 -0.680368,0.766156 -1.016418,1.154909 l -0.508711,-0.41541 -0.184629,0.230781 -0.554871,-0.323099 -0.184629,0.184629 h -0.507727 l -0.324083,0.36925 0.184629,0.647176 -0.369258,0.416387 0.04616,0.739505 -0.3230985,0.553879 0.230788,0.462546 c 0.019699,0.336344 0.046159,0.680002 0.046159,1.016418 -0.162215,0.455737 -0.355529,0.881446 -0.50871,1.340522 l -0.09231,0.739511 v 0.369251 h -0.2769405 l -0.462553,-0.276939 h -0.440946 c 1.646812,1.177033 3.660827,1.876673 5.848244,1.876673 1.642574,0 3.186236,-0.398413 4.552832,-1.091051 l 0.02259,-0.04616 -0.324083,-0.323099 -0.09232,-0.324076 -0.507727,-0.13847 -0.370242,-1.016418 0.09232,-0.230781 -0.230788,-0.416386 -0.601022,-0.13847 -0.276947,-0.693326 0.04616,-0.924114 -0.462552,-0.647174 -0.04616,-0.647175 c 0.630638,-0.319062 1.223292,-0.641744 1.849233,-0.97023 l 0.323099,-0.647174 0.554871,-0.13847 0.323098,-0.831811 0.739507,0.09231 0.693341,-0.507721 0.69334,0.646191 v 0.09231 c 0.20926,-0.06167 0.460858,-0.0678 0.647182,-0.184622 l 0.138469,-0.461561 v -0.462549 l 0.461576,0.04616 c -0.03844,-0.310679 -0.09987,-0.659644 -0.13847,-0.97023 h 0.277924 l 0.27694,0.369251 0.276947,0.13847 0.3702406,-0.230781 0.04616,-0.461562 -0.04616,-0.554856 -0.6010286,-0.416386 h -0.46158 l -0.09329,-0.276939 -0.553887,0.138469 -0.416394,0.508698 -0.09232,-0.877927 -0.739507,-0.601015 -0.230788,-0.693326 -0.55487,-0.230781 -0.323099,-0.416386 -0.69334,-0.13847 -0.324083,-0.554857 h 1.017423 l -0.647182,-0.276938 h -0.462552 l -0.600046,-0.230781 -0.0933,0.600032 -0.27694,-0.41541 0.323099,-0.230781 -0.09231,-0.231764 0.231772,-0.230781 0.27694,-0.04616 -0.09231,-0.27694 0.230788,-0.416386 0.462553,0.184621 -0.09232,-0.36925 0.553887,-0.324076 0.416395,0.785623 -0.04616,0.231765 0.415416,0.184621 0.277924,0.601015 0.09232,-0.554856 0.739507,-0.276939 0.138469,-0.416387 -0.970301,-0.554856 -0.416394,-0.41541 -0.04616,-0.5087035 0.02455,-0.01473 c -0.105592,-0.07011 -0.219086,-0.132314 -0.328988,-0.199333 l 0.166951,0.4006765 h -0.462553 l -0.13847,-0.3702345 -0.415416,0.323092 h -0.370241 v -0.369257 l 0.416392,-0.185606 0.369258,0.231765 -0.04616,-0.09231 c -0.185325,-0.134182 -0.364186,-0.287327 -0.553103,-0.416408 l -0.462552,0.139454 c -0.287284,0.199139 -0.54429,0.401187 -0.831811,0.600031 l -0.462553,-0.415409 0.508712,-0.184629 0.184629,-0.462546 0.360422,-0.04027 c -0.19467,-0.0719 -0.388615,-0.145027 -0.588307,-0.205151 l -0.927059,0.6619 v 0.41541 l 0.369257,0.4163865 -0.507727,1.016417 -0.370242,-0.184622 -0.415417,-0.693326 C 1.3375704,9.9987875 0.7406494,9.7717995 0.1545034,9.5011375 l 0.04616,0.27694 -0.276947,0.185606 -0.508712,-0.370235 0.231772,-0.27694 0.369258,0.184622 0.04616,-0.04616 -0.453972,-1.238377 z m -4.6236595,1.8384585 c -0.157024,0.114068 -0.31649,0.224833 -0.466475,0.347593 l 0.183645,0.207213 0.508711,-0.554857 h -0.225874 z m 3.8300635,0.508704 h 0.277923 v 0.27694 l -0.184629,0.23078 v 0.416387 l 0.09232,0.601015 -0.462553,-0.09231 -0.369258,-0.324075 0.323099,-0.323092 c 0.101304,-0.275388 0.196244,-0.521498 0.3231,-0.785622 z m 0.69334,0.601016 0.277923,0.09231 -0.04616,0.553879 -0.416395,-0.230781 z m -7.2090245,4.713521 -0.416408,0.461877 -0.46159,-0.04597 c -0.162468,0.150488 -0.323989,0.27967 -0.475324,0.430135 -0.06922,0.478134 -0.107044,0.967285 -0.107044,1.465222 0,3.302029 1.582954,6.212719 4.026452,8.043707 l -0.625582,-0.742739 0.09331,-0.323242 -0.554827,-0.462596 0.415402,-0.415905 -0.46159,-0.369215 -0.462524,-0.27727 -0.184629,-0.231765 0.13847,-0.50772 v -1.294335 l -0.369215,-0.785838 -0.416408,-0.462595 -0.508712,-1.201026 v -0.324076 c 0.237878,0.03058 0.460585,0.07644 0.69334,0.09329 l -0.461575,-0.508698 -0.647181,-0.462545 -0.370242,-0.415409 v -0.416387 c 0.0793,-0.153001 0.151995,-0.355566 0.231801,-0.50785 l 0.323099,0.41541 0.230787,-0.323092 0.370241,-0.277916 V 15.87686 Z m 1.802114,0.230781 -0.415418,0.507719 -0.55487,1.155844 -0.3231,0.36925 0.184629,0.416386 -0.323098,0.369251 c 0.135022,0.0089 0.276659,0 0.415417,0 0.252057,-0.540411 0.455233,-1.098234 0.647182,-1.66362 l 0.323098,-0.369251 0.185613,-0.693326 -0.139453,-0.09231 z m 16.8430811,1.816621 c -0.01843,0.03222 -0.06678,0.124722 -0.06678,0.124722 l -0.785623,0.462544 -0.8318096,0.230781 -0.324083,0.462546 -0.553887,0.415409 -0.277924,-0.09231 -0.230787,0.138469 v 0.04616 l 0.276946,0.877926 0.231765,0.324076 -0.04616,0.184622 0.184629,0.693326 -0.69334,1.248218 -0.69334,0.646191 -0.323099,0.416387 0.04616,0.97023 -0.231772,0.508705 0.169896,0.74633 c 2.517554,-1.824236 4.1561056,-4.779964 4.1561056,-8.139961 0,-0.08853 -0.0045,-0.176203 -0.0068,-0.264168 z"
       style="opacity:1;fill:#ffd44a;fill-opacity:1;stroke-width:0.5" />
    <path
       id="path4146-5"
       d="m 1.6549064,10.821823 0.349609,2.037109 -1.482422,1.445313 2.046875,0.296875 0.916016,1.853515 0.916015,-1.853515 2.046876,-0.296875 -1.482422,-1.445313 0.349609,-2.037109 -1.830078,0.960937 z m -7.035156,1.777344 0.3496095,2.039062 -1.4804689,1.443359 2.0468749,0.296876 0.914063,1.855468 0.9160145,-1.855468 2.046875,-0.296876 -1.482422,-1.443359 0.34961,-2.039062 -1.8300775,0.96289 z m 8.886718,5.183593 0.34961,2.039063 -1.482422,1.443359 2.046875,0.296875 0.916015,1.855469 0.914063,-1.855469 2.046875,-0.296875 -1.480469,-1.443359 0.34961,-2.039063 -1.830079,0.962891 z m -8.1464835,2.222657 0.349609,2.037109 -1.4804685,1.443359 2.0468745,0.298829 0.9140625,1.853515 0.916016,-1.853515 2.046875,-0.298829 -1.480469,-1.443359 0.349609,-2.037109 -1.832031,0.960937 z"
       style="opacity:1;fill:#ffffff;fill-opacity:1;stroke:none;stroke-width:0.125;stroke-miterlimit:4;stroke-dasharray:none"
       inkscape:connector-curvature="0" />
    <path
       inkscape:connector-curvature="0"
       id="path36"
       d="m 0.2491314,19.936913 a 0.88510915,0.88510915 0 0 0 -0.728083,1.338388 l 1.869728,3.244252 -1.869728,3.244252 a 0.88510915,0.88510915 0 1 0 1.533792,0.883336 l 1.357125,-2.355563 1.358464,2.355563 a 0.88510915,0.88510915 0 1 0 1.533792,-0.883336 l -1.869727,-3.244252 1.869727,-3.244252 a 0.88510915,0.88510915 0 0 0 -0.753512,-1.338388 0.88510915,0.88510915 0 0 0 -0.78028,0.455051 l -1.358464,2.355564 -1.357125,-2.355564 a 0.88510915,0.88510915 0 0 0 -0.805709,-0.455051 z m 6.413554,0.0053 a 0.88510915,0.88510915 0 0 0 -0.849876,1.142983 l 2.124021,7.371849 a 0.88510915,0.88510915 0 0 0 1.701091,0 l 2.1253586,-7.37184 a 0.88529342,0.88529342 0 1 0 -1.701091,-0.491189 l -1.2741446,4.422035 -1.275483,-4.422035 a 0.88510915,0.88510915 0 0 0 -0.849876,-0.651795 z"
       style="color:#000000;font-style:normal;font-variant:normal;font-weight:normal;font-stretch:normal;font-size:medium;line-height:normal;font-family:sans-serif;font-variant-ligatures:normal;font-variant-position:normal;font-variant-caps:normal;font-variant-numeric:normal;font-variant-alternates:normal;font-feature-settings:normal;text-indent:0;text-align:start;text-decoration:none;text-decoration-line:none;text-decoration-style:solid;text-decoration-color:#000000;letter-spacing:normal;word-spacing:normal;text-transform:none;writing-mode:lr-tb;direction:ltr;text-orientation:mixed;dominant-baseline:auto;baseline-shift:baseline;text-anchor:start;white-space:normal;shape-padding:0;clip-rule:nonzero;display:inline;overflow:visible;visibility:visible;opacity:1;isolation:auto;mix-blend-mode:normal;color-interpolation:sRGB;color-interpolation-filters:linearRGB;solid-color:#000000;solid-opacity:1;vector-effect:none;fill:#c2352a;fill-opacity:1;fill-rule:nonzero;stroke:none;stroke-width:2.58304191;stroke-linecap:round;stroke-linejoin:round;stroke-miterlimit:4;stroke-dasharray:none;stroke-dashoffset:0;stroke-opacity:1;color-rendering:auto;image-rendering:auto;shape-rendering:auto;text-rendering:auto;enable-background:accumulate" />
  </g>
</svg>
