<?xml version="1.0" encoding="UTF-8" standalone="no"?>
<svg
   xmlns:dc="http://purl.org/dc/elements/1.1/"
   xmlns:cc="http://creativecommons.org/ns#"
   xmlns:rdf="http://www.w3.org/1999/02/22-rdf-syntax-ns#"
   xmlns:svg="http://www.w3.org/2000/svg"
   xmlns="http://www.w3.org/2000/svg"
   xmlns:sodipodi="http://sodipodi.sourceforge.net/DTD/sodipodi-0.dtd"
   xmlns:inkscape="http://www.inkscape.org/namespaces/inkscape"
   height="32"
   width="32"
   version="1"
   id="svg12"
   sodipodi:docname="draksec.svg"
   inkscape:version="0.92.2 2405546, 2018-03-11">
  <metadata
     id="metadata18">
    <rdf:RDF>
      <cc:Work
         rdf:about="">
        <dc:format>image/svg+xml</dc:format>
        <dc:type
           rdf:resource="http://purl.org/dc/dcmitype/StillImage" />
        <dc:title></dc:title>
      </cc:Work>
    </rdf:RDF>
  </metadata>
  <defs
     id="defs16" />
  <sodipodi:namedview
     pagecolor="#ffffff"
     bordercolor="#666666"
     borderopacity="1"
     objecttolerance="10"
     gridtolerance="10"
     guidetolerance="10"
     inkscape:pageopacity="0"
     inkscape:pageshadow="2"
     inkscape:window-width="1680"
     inkscape:window-height="972"
     id="namedview14"
     showgrid="false"
     showguides="true"
     inkscape:guide-bbox="true"
     inkscape:zoom="5.2149125"
     inkscape:cx="4.9395045"
     inkscape:cy="-9.0764217"
     inkscape:window-x="0"
     inkscape:window-y="0"
     inkscape:window-maximized="1"
     inkscape:current-layer="svg12" />
  <rect
     style="opacity:1;fill:#c2352a;fill-opacity:1;fill-rule:evenodd;stroke:none;stroke-width:1.03534329;stroke-linecap:round;stroke-linejoin:bevel;stroke-miterlimit:4;stroke-dasharray:none;stroke-dashoffset:0;stroke-opacity:1"
     id="rect4497"
     width="28.203388"
     height="28.203388"
     x="1.8983059"
     y="1.8983059"
     ry="5.575182" />
  <g
     id="g865"
     transform="translate(-0.87611787,-0.19644136)">
    <path
       sodipodi:nodetypes="csssscsssssscsssccccccccccssssccccc"
       inkscape:connector-curvature="0"
       id="path846"
       d="m 15.649145,20.90628 2.368359,-2.370279 0.01231,-1.115426 c 0.01173,-1.064944 0.01572,-1.130707 0.08739,-1.45299 0.123996,-0.557347 0.216942,-0.818407 0.470262,-1.320902 0.284251,-0.563838 0.667525,-1.059215 1.159972,-1.499248 l 0.243876,-0.21792 -0.01223,-0.880599 C 19.968607,11.29402 19.957698,11.122224 19.902638,10.845432 19.690965,9.7813117 19.250028,8.9470066 18.506112,8.2030479 18.076845,7.7737611 18.072405,7.7699926 17.727686,7.5422718 17.220327,7.2071121 16.492708,6.906523 15.995842,6.8268311 c -0.439364,-0.070468 -0.959205,-0.105801 -1.167769,-0.079369 -0.124585,0.015795 -0.31898,0.037476 -0.431986,0.048226 -0.525171,0.049894 -1.221402,0.2952827 -1.775878,0.6259194 -1.09534,0.6531531 -1.898968,1.7073312 -2.252037,2.9541705 -0.16151,0.570368 -0.161684,0.572548 -0.180908,2.260203 l -0.01803,1.58508 -0.7998792,0.0077 -0.7998795,0.0077 v 4.519938 4.51994 h 2.3556747 2.355668 z m -2.75866,-8.204254 0.0085,-1.533711 0.08633,-0.20547 c 0.393969,-0.937694 1.437315,-1.6055432 2.31401,-1.4812018 0.723043,0.1025474 1.451932,0.6384298 1.798439,1.3222278 0.155611,0.307085 0.160188,0.362989 0.160188,1.955693 v 1.476173 h -2.188048 -2.188052 z"
       style="fill:#ffffff;stroke-width:0.02935332" />
    <path
       sodipodi:nodetypes="ccccccccccccccccsscccccsssscsssssssssscccccssccsccccccscsscsssssc"
       inkscape:connector-curvature="0"
       id="path846-3"
       d="m 16.631026,25.448706 0.196404,-0.205473 h 0.20417 0.204165 l 0.186472,-0.181038 0.186471,-0.181038 0.0081,-0.413366 0.0081,-0.413367 0.410946,-0.0082 0.410947,-0.0082 0.183458,-0.181765 0.183458,-0.181766 V 23.270036 22.86558 h 0.614473 0.614478 l 0.178449,-0.143214 c 0.414131,-0.332364 0.536821,-0.606417 0.566645,-1.265745 l 0.0073,-0.161443 0.395952,-0.0082 0.395954,-0.0082 0.10634,-0.103834 0.10634,-0.103834 0.158161,0.04309 c 0.534905,0.145746 0.582593,0.151701 1.214876,0.151701 0.667492,0 0.773546,-0.01551 1.335578,-0.195354 0.446553,-0.142891 1.027193,-0.454079 1.368098,-0.733223 0.345329,-0.282768 0.78287,-0.790685 0.995398,-1.155505 0.09615,-0.165048 0.278302,-0.53137 0.278302,-0.559685 0,-0.01025 0.01948,-0.06013 0.04334,-0.111008 0.07174,-0.15312 0.190679,-0.596764 0.220138,-0.821163 0.08229,-0.62686 0.08586,-0.714381 0.04409,-1.079961 -0.0644,-0.563697 -0.104894,-0.741781 -0.269555,-1.185408 -0.422982,-1.139584 -1.341021,-2.043954 -2.544695,-2.506817 -0.831005,-0.31955 -1.985056,-0.3361 -2.835633,-0.04067 -0.692415,0.240502 -1.164576,0.529015 -1.64706,1.006425 -0.588078,0.5819 -0.931815,1.15626 -1.150648,1.922643 -0.24119,0.844702 -0.201338,1.875358 0.102558,2.652166 l 0.06147,0.157133 -2.340046,2.340724 -2.340049,2.340727 0.0099,0.848418 0.0099,0.84842 0.07784,0.146766 c 0.210737,0.397375 0.487226,0.505251 1.308054,0.510356 l 0.534944,0.0033 z m -1.192556,-0.780235 -0.190438,-0.189098 2.774144,-2.774147 2.774149,-2.774148 0.19951,0.19276 c 0.109733,0.106021 0.195314,0.205276 0.190182,0.220578 -0.01658,0.04947 -5.496362,5.517292 -5.527242,5.515187 -0.01642,-0.0011 -0.115561,-0.08713 -0.220305,-0.191132 z m 9.113853,-8.073528 c -0.448768,-0.116788 -0.735975,-0.346262 -0.91634,-0.732145 -0.07188,-0.153795 -0.08137,-0.20826 -0.08137,-0.467604 0,-0.258238 0.0096,-0.314129 0.0801,-0.464836 0.155043,-0.331603 0.384763,-0.544549 0.71695,-0.664607 0.148858,-0.05381 0.22692,-0.06344 0.440297,-0.05437 0.221723,0.0095 0.289027,0.02542 0.463787,0.110257 0.824638,0.400246 0.921,1.540024 0.174019,2.058347 -0.237136,0.164545 -0.666737,0.269787 -0.877449,0.214954 z"
       style="fill:#ffc372;fill-opacity:1;stroke-width:0.02935332" />
  </g>
</svg>
