<?xml version="1.0" encoding="UTF-8" standalone="no"?>
<svg
   xmlns:dc="http://purl.org/dc/elements/1.1/"
   xmlns:cc="http://creativecommons.org/ns#"
   xmlns:rdf="http://www.w3.org/1999/02/22-rdf-syntax-ns#"
   xmlns:svg="http://www.w3.org/2000/svg"
   xmlns="http://www.w3.org/2000/svg"
   xmlns:sodipodi="http://sodipodi.sourceforge.net/DTD/sodipodi-0.dtd"
   xmlns:inkscape="http://www.inkscape.org/namespaces/inkscape"
   height="32"
   width="32"
   version="1"
   id="svg28"
   sodipodi:docname="driconf.svg"
   inkscape:version="0.92.1 r">
  <metadata
     id="metadata34">
    <rdf:RDF>
      <cc:Work
         rdf:about="">
        <dc:format>image/svg+xml</dc:format>
        <dc:type
           rdf:resource="http://purl.org/dc/dcmitype/StillImage" />
      </cc:Work>
    </rdf:RDF>
  </metadata>
  <defs
     id="defs32" />
  <sodipodi:namedview
     pagecolor="#ffffff"
     bordercolor="#666666"
     borderopacity="1"
     objecttolerance="10"
     gridtolerance="10"
     guidetolerance="10"
     inkscape:pageopacity="0"
     inkscape:pageshadow="2"
     inkscape:window-width="1680"
     inkscape:window-height="963"
     id="namedview30"
     showgrid="false"
     inkscape:zoom="10.429825"
     inkscape:cx="-16.158789"
     inkscape:cy="16.09831"
     inkscape:window-x="0"
     inkscape:window-y="0"
     inkscape:window-maximized="1"
     inkscape:current-layer="svg28" />
  <rect
     style="opacity:1;fill:#3b80ae;fill-opacity:1;fill-rule:evenodd;stroke:none;stroke-width:1.03534329;stroke-linecap:round;stroke-linejoin:bevel;stroke-miterlimit:4;stroke-dasharray:none;stroke-dashoffset:0;stroke-opacity:1"
     id="rect4497-3"
     width="28.203388"
     height="28.203388"
     x="1.8983059"
     y="1.8983059"
     ry="5.575182" />
  <path
     style="fill:#c9d0ff;fill-opacity:1"
     d="M 7.6328125 7.5 C 7.0056845 7.5 6.5 8.0468045 6.5 8.7265625 L 6.5 13.273438 C 6.5 13.953195 7.0056845 14.5 7.6328125 14.5 L 12.337891 14.5 L 15.066406 19.5 L 14.349609 19.5 C 13.879263 19.5 13.5 19.891649 13.5 20.376953 L 13.5 23.623047 C 13.5 24.108351 13.879263 24.5 14.349609 24.5 L 18.650391 24.5 C 19.120737 24.5 19.5 24.108351 19.5 23.623047 L 19.5 20.376953 C 19.5 20.151267 19.412261 19.94991 19.277344 19.794922 L 20.998047 17.5 L 24.509766 17.5 C 25.05878 17.5 25.5 17.031473 25.5 16.449219 L 25.5 12.550781 C 25.5 11.968527 25.05878 11.5 24.509766 11.5 L 19.490234 11.5 C 19.002669 11.5 18.619295 11.87662 18.535156 12.367188 L 14.5 11.359375 L 14.5 8.7265625 C 14.5 8.0468045 13.994316 7.5 13.367188 7.5 L 7.6328125 7.5 z M 14.5 12.388672 L 18.5 13.388672 L 18.5 16.449219 C 18.5 17.031473 18.94122 17.5 19.490234 17.5 L 19.748047 17.5 L 18.248047 19.5 L 16.207031 19.5 L 13.472656 14.488281 C 14.049538 14.430528 14.5 13.914307 14.5 13.273438 L 14.5 12.388672 z "
     id="rect18" />
</svg>
