<?xml version="1.0" encoding="UTF-8" standalone="no"?>
<svg
   xmlns:dc="http://purl.org/dc/elements/1.1/"
   xmlns:cc="http://creativecommons.org/ns#"
   xmlns:rdf="http://www.w3.org/1999/02/22-rdf-syntax-ns#"
   xmlns:svg="http://www.w3.org/2000/svg"
   xmlns="http://www.w3.org/2000/svg"
   xmlns:sodipodi="http://sodipodi.sourceforge.net/DTD/sodipodi-0.dtd"
   xmlns:inkscape="http://www.inkscape.org/namespaces/inkscape"
   height="32"
   width="32"
   version="1"
   id="svg12"
   sodipodi:docname="edit-find.svg"
   inkscape:version="0.92.1 r">
  <metadata
     id="metadata18">
    <rdf:RDF>
      <cc:Work
         rdf:about="">
        <dc:format>image/svg+xml</dc:format>
        <dc:type
           rdf:resource="http://purl.org/dc/dcmitype/StillImage" />
        <dc:title></dc:title>
      </cc:Work>
    </rdf:RDF>
  </metadata>
  <defs
     id="defs16" />
  <sodipodi:namedview
     pagecolor="#ffffff"
     bordercolor="#666666"
     borderopacity="1"
     objecttolerance="10"
     gridtolerance="10"
     guidetolerance="10"
     inkscape:pageopacity="0"
     inkscape:pageshadow="2"
     inkscape:window-width="1680"
     inkscape:window-height="963"
     id="namedview14"
     showgrid="false"
     inkscape:zoom="7.375"
     inkscape:cx="34.567853"
     inkscape:cy="18.33077"
     inkscape:window-x="0"
     inkscape:window-y="0"
     inkscape:window-maximized="1"
     inkscape:current-layer="svg12" />
  <rect
     style="opacity:1;fill:#42a3ce;fill-opacity:1;fill-rule:evenodd;stroke:none;stroke-width:1.03534329;stroke-linecap:round;stroke-linejoin:bevel;stroke-miterlimit:4;stroke-dasharray:none;stroke-dashoffset:0;stroke-opacity:1"
     id="rect4497-3"
     width="28.203388"
     height="28.203388"
     x="1.8983059"
     y="1.8983059"
     ry="5.575182" />
  <path
     style="fill:#ffffff;stroke-width:1"
     d="m 22.730606,23.316659 c 0.255207,-0.129883 0.481842,-0.358235 0.619242,-0.623938 0.151602,-0.293166 0.152439,-0.888064 0.0016,-1.17964 -0.114838,-0.222074 -2.880602,-3.034475 -2.984155,-3.034475 -0.02908,0 -0.130659,0.10896 -0.225734,0.242134 -0.272504,0.3817 -0.752519,0.879478 -1.197983,1.242313 -0.225286,0.183498 -0.40961,0.357765 -0.40961,0.387261 0,0.07599 2.67064,2.775092 2.884424,2.915169 0.347516,0.227702 0.921328,0.25008 1.312158,0.05118 z m -6.384544,-2.574453 c 0.666291,-0.171607 1.683501,-0.682612 2.265857,-1.138274 1.111219,-0.86947 1.926224,-2.178873 2.217224,-3.562237 0.13678,-0.650231 0.137367,-1.968229 0.0012,-2.611109 C 20.513454,11.934867 19.685956,10.635834 18.472951,9.7298739 17.865735,9.27636 17.35145,9.0138279 16.561311,8.754018 16.000555,8.569632 15.85931,8.5531002 14.803768,8.5483131 c -1.000301,-0.00455 -1.223669,0.016498 -1.738371,0.1637261 -2.320514,0.6637601 -4.0581911,2.6036498 -4.4719054,4.9922968 -0.053396,0.308286 -0.071235,0.82813 -0.046788,1.362992 0.072979,1.596372 0.656299,2.92024 1.7832494,4.04719 1.555419,1.55542 3.867738,2.181025 6.016146,1.627688 z M 13.620077,19.15711 c -2.166469,-0.601059 -3.539989,-2.486481 -3.420824,-4.695745 0.150872,-2.797117 2.764401,-4.7827648 5.525198,-4.19781 1.668809,0.353585 3.067605,1.711987 3.455062,3.355287 0.136903,0.580636 0.134914,1.614911 -0.0042,2.205515 -0.339316,1.44014 -1.490551,2.705272 -2.924179,3.213484 -0.656212,0.232621 -2.002475,0.29365 -2.631017,0.119269 z m 1.764805,-0.977199 c 0.06145,-0.09942 -0.155993,-0.288147 -0.73031,-0.633878 -0.564337,-0.339723 -1.334182,-1.104358 -1.552846,-1.542335 -0.09849,-0.197274 -0.250157,-0.574785 -0.337036,-0.83891 -0.28164,-0.856223 -0.952039,-1.337735 -1.256771,-0.902671 -0.146382,0.208991 -0.144975,0.849123 0.003,1.351945 0.33792,1.148467 1.40719,2.137618 2.718945,2.515215 0.502678,0.144699 1.081235,0.170061 1.155045,0.05064 z"
     id="path4513"
     inkscape:connector-curvature="0"
     sodipodi:nodetypes="cscsccssccccscssccccscccssscccccsssccscc" />
</svg>
