<?xml version="1.0" encoding="UTF-8" standalone="no"?>
<svg
   xmlns:dc="http://purl.org/dc/elements/1.1/"
   xmlns:cc="http://creativecommons.org/ns#"
   xmlns:rdf="http://www.w3.org/1999/02/22-rdf-syntax-ns#"
   xmlns:svg="http://www.w3.org/2000/svg"
   xmlns="http://www.w3.org/2000/svg"
   xmlns:sodipodi="http://sodipodi.sourceforge.net/DTD/sodipodi-0.dtd"
   xmlns:inkscape="http://www.inkscape.org/namespaces/inkscape"
   width="32"
   version="1.1"
   height="32"
   viewBox="0 0 32 32"
   id="svg24"
   sodipodi:docname="education_sciences.svg"
   inkscape:version="0.92.2 2405546, 2018-03-11">
  <metadata
     id="metadata30">
    <rdf:RDF>
      <cc:Work
         rdf:about="">
        <dc:format>image/svg+xml</dc:format>
        <dc:type
           rdf:resource="http://purl.org/dc/dcmitype/StillImage" />
        <dc:title></dc:title>
      </cc:Work>
    </rdf:RDF>
  </metadata>
  <defs
     id="defs28" />
  <sodipodi:namedview
     pagecolor="#ffffff"
     bordercolor="#666666"
     borderopacity="1"
     objecttolerance="10"
     gridtolerance="10"
     guidetolerance="10"
     inkscape:pageopacity="0"
     inkscape:pageshadow="2"
     inkscape:window-width="1680"
     inkscape:window-height="972"
     id="namedview26"
     showgrid="false"
     inkscape:zoom="16"
     inkscape:cx="22.796313"
     inkscape:cy="10.96085"
     inkscape:window-x="0"
     inkscape:window-y="0"
     inkscape:window-maximized="1"
     inkscape:current-layer="svg24"
     showguides="false" />
  <rect
     style="opacity:1;fill:#eb5f65;fill-opacity:1;fill-rule:evenodd;stroke:none;stroke-width:1.03534329;stroke-linecap:round;stroke-linejoin:bevel;stroke-miterlimit:4;stroke-dasharray:none;stroke-dashoffset:0;stroke-opacity:1"
     id="rect4497-3"
     width="28.203388"
     height="28.203388"
     x="1.8983059"
     y="1.8983059"
     ry="5.575182" />
  <path
     style="fill:#ffffff;stroke-width:0.03078435"
     d="m 21.38663,27.057743 c 0.730156,-0.210453 1.209831,-0.883126 1.16143,-1.628735 -0.0091,-0.140902 -0.04457,-0.321798 -0.0828,-0.422791 -0.03674,-0.09708 -0.312921,-0.602718 -0.613733,-1.123628 -0.831727,-1.440307 -1.846034,-3.196237 -2.743236,-4.74898 -0.445137,-0.770378 -0.840089,-1.469952 -0.877671,-1.554611 -0.136001,-0.306352 -0.137913,-0.351139 -0.137913,-3.21848 v -2.738292 h 0.07091 c 0.039,0 0.142177,-0.0355 0.229272,-0.07891 0.260477,-0.129793 0.436014,-0.458427 0.39134,-0.732642 -0.02696,-0.165534 -0.148941,-0.385091 -0.265699,-0.478232 -0.195759,-0.156162 -0.165019,-0.154283 -2.536212,-0.155721 l -2.218122,-0.0014 -0.158957,0.07921 c -0.493982,0.246161 -0.537223,0.932697 -0.07862,1.248228 0.0761,0.05236 0.192953,0.102523 0.259662,0.111461 l 0.121296,0.01634 -0.0085,2.820309 -0.0085,2.820306 -0.06838,0.179238 c -0.03761,0.09859 -0.205489,0.4172 -0.373078,0.70804 -0.167585,0.29084 -0.740517,1.283789 -1.273177,2.20655 -0.53266,0.92276 -1.006855,1.747011 -1.053763,1.83167 -0.04691,0.08465 -0.1037,0.1747 -0.126198,0.200096 -0.0225,0.02541 -0.04168,0.05671 -0.04263,0.06959 -8.45e-4,0.01291 -0.02117,0.05444 -0.04496,0.09235 -0.211308,0.336681 -1.3311259,2.318141 -1.3780188,2.438339 -0.088358,0.226459 -0.1088303,0.656627 -0.043166,0.906937 0.1389257,0.52957 0.4749172,0.905972 0.9972048,1.117102 0.167972,0.0679 0.214082,0.07078 1.374392,0.08566 0.660324,0.0085 3.036106,0.01193 5.279517,0.0077 3.616121,-0.0069 4.098136,-0.0134 4.24824,-0.0566 z M 10.745224,26.477724 C 10.259103,26.325025 9.9554439,25.811246 10.0667,25.329672 c 0.04008,-0.173498 0.176941,-0.423639 1.149917,-2.101744 0.122701,-0.211643 0.26977,-0.467922 0.326798,-0.56951 0.05702,-0.101592 0.364596,-0.634927 0.683493,-1.185197 2.122479,-3.662474 2.111763,-3.643098 2.210888,-3.997547 0.06493,-0.232182 0.06593,-0.276417 0.07467,-3.336826 l 0.0088,-3.101523 h -0.31688 c -0.333066,0 -0.390763,-0.02046 -0.390763,-0.138533 0,-0.03555 0.01662,-0.08127 0.03694,-0.101593 0.05343,-0.05343 4.244067,-0.05343 4.297496,0 0.02031,0.02031 0.03694,0.06604 0.03694,0.101593 0,0.118159 -0.05764,0.138533 -0.392085,0.138533 h -0.3182 l 0.0096,3.101523 c 0.0095,3.067837 0.01029,3.10408 0.07599,3.336826 0.03648,0.129417 0.110726,0.323355 0.164964,0.430982 0.08671,0.172055 1.010553,1.77984 3.137215,5.459803 1.036709,1.793909 1.040145,1.800283 1.075068,1.993947 0.07707,0.42734 -0.148402,0.865192 -0.546077,1.060482 l -0.174255,0.08558 -5.171771,0.0059 c -4.193805,0.0047 -5.196081,-0.0016 -5.30032,-0.03456 z m 10.424547,-0.448419 c 0.194396,-0.109076 0.315826,-0.29386 0.333548,-0.507583 0.01209,-0.146507 2.81e-4,-0.198683 -0.08163,-0.362796 -0.05269,-0.105432 -0.688732,-1.216799 -1.413419,-2.469725 l -1.3176,-2.278042 h -2.691578 -2.691583 l -1.377819,2.385788 c -0.757799,1.312183 -1.393674,2.432716 -1.413058,2.490075 -0.07638,0.226051 0.03931,0.571373 0.234221,0.699082 0.20833,0.136508 0.03887,0.132472 5.294687,0.126149 l 4.987062,-0.006 z m -3.55906,-0.785735 c -0.182061,-0.07821 -0.308397,-0.302365 -0.267043,-0.473816 0.08045,-0.333557 0.470349,-0.449582 0.708965,-0.21097 0.128632,0.128633 0.161669,0.294252 0.09199,0.461038 -0.07981,0.191021 -0.348237,0.303509 -0.533907,0.223748 z m 0.267119,-0.153516 c 0.173251,-0.08958 0.207365,-0.291245 0.07215,-0.426463 -0.207795,-0.207796 -0.552186,0.02265 -0.4397,0.29423 0.03552,0.08574 0.154938,0.17495 0.237633,0.177497 0.02199,5.62e-4 0.08047,-0.01969 0.129923,-0.04526 z m -1.369459,-0.54444 c -0.176457,-0.04916 -0.423718,-0.305917 -0.476352,-0.494654 -0.0802,-0.287615 0.02526,-0.596772 0.266173,-0.780285 0.340827,-0.25962 0.840143,-0.159202 1.057233,0.212616 0.08555,0.146523 0.09275,0.180394 0.08437,0.39631 -0.008,0.204974 -0.02147,0.253566 -0.102377,0.368683 -0.184835,0.26299 -0.520361,0.383324 -0.829049,0.29733 z m 0.425513,-0.221025 c 0.129792,-0.05423 0.285827,-0.243223 0.310825,-0.376479 0.07163,-0.381779 -0.326353,-0.729287 -0.681523,-0.595095 -0.117931,0.04455 -0.254686,0.177405 -0.305942,0.297201 -0.179355,0.419177 0.253921,0.850997 0.67664,0.674373 z m 0.358426,-1.269047 c -0.404961,-0.146131 -0.65227,-0.494865 -0.655032,-0.92367 -0.0011,-0.192068 0.01274,-0.253434 0.09703,-0.424576 0.179188,-0.363982 0.487159,-0.554844 0.896618,-0.555676 0.348252,-5.64e-4 0.675014,0.19655 0.845994,0.510695 0.11481,0.210955 0.142454,0.554213 0.06372,0.791281 -0.06638,0.199831 -0.285286,0.445226 -0.490803,0.550184 -0.201577,0.102948 -0.549769,0.126737 -0.757531,0.05176 z m 0.646472,-0.290614 c 0.290936,-0.147715 0.445625,-0.481472 0.369748,-0.797766 -0.05176,-0.215778 -0.179159,-0.377818 -0.372973,-0.474399 -0.694983,-0.346325 -1.369193,0.50197 -0.866097,1.089726 0.224939,0.262792 0.568888,0.334977 0.869322,0.182439 z M 15.807954,9.9120643 c 0.482095,-0.201383 0.559867,-0.8680248 0.136017,-1.1659152 -0.262063,-0.1841846 -0.671396,-0.1339914 -0.87826,0.1076703 -0.179739,0.2099814 -0.219718,0.4648379 -0.110644,0.7052971 0.08449,0.1862468 0.139857,0.2428348 0.320869,0.3278548 0.178953,0.08406 0.369361,0.09303 0.532018,0.0251 z m -0.503585,-0.329319 c -0.274972,-0.2519894 -0.101984,-0.6801508 0.27271,-0.6749797 0.152944,0.00196 0.264223,0.077853 0.340808,0.2319517 0.07676,0.1544471 0.04656,0.3071068 -0.08718,0.440858 -0.08914,0.08914 -0.122407,0.102246 -0.259691,0.102246 -0.134727,0 -0.17321,-0.01438 -0.266643,-0.100073 z m 2.459459,-0.6688446 c 0.324686,-0.1647306 0.524844,-0.4878327 0.526354,-0.8496487 0.0011,-0.2926408 -0.132014,-0.5755161 -0.353541,-0.7506248 -0.19818,-0.1566528 -0.333769,-0.200613 -0.613545,-0.198935 -0.188531,0.00113 -0.260343,0.016567 -0.391473,0.084159 -0.340616,0.175571 -0.5331,0.4751213 -0.535855,0.8339246 -0.0031,0.4029251 0.188338,0.7163876 0.541279,0.8863252 0.166051,0.07996 0.212303,0.088489 0.432223,0.079781 0.186475,-0.00735 0.282282,-0.02802 0.394558,-0.084976 z M 17.108216,8.5668823 c -0.07457,-0.038101 -0.177683,-0.122195 -0.229151,-0.1868772 -0.0815,-0.1024256 -0.09365,-0.1424384 -0.09414,-0.3099677 -5.64e-4,-0.1588748 0.01422,-0.2146689 0.08414,-0.3204602 0.241472,-0.3652324 0.801091,-0.3268567 0.980044,0.067216 0.13159,0.2897849 0.03091,0.5890754 -0.247022,0.7342684 -0.197555,0.1032099 -0.315448,0.106984 -0.493865,0.015848 z M 16.01739,7.2164364 c 0.235964,-0.088293 0.507638,-0.3465984 0.633576,-0.6024173 0.135495,-0.275224 0.158221,-0.6300341 0.05797,-0.9049935 -0.205534,-0.5636981 -0.641653,-0.8564513 -1.22551,-0.822652 -0.569552,0.032971 -1.027389,0.4522693 -1.122845,1.0283283 -0.101445,0.6121811 0.337962,1.2354267 0.96293,1.3658187 0.188972,0.039425 0.492043,0.011437 0.693885,-0.064079 z m -0.633908,-0.42533 c -0.332278,-0.1010695 -0.534159,-0.3640201 -0.53334,-0.6946706 0.0011,-0.4201654 0.302133,-0.7234301 0.718245,-0.7234301 0.189981,0 0.321083,0.051801 0.476531,0.1882847 0.236053,0.2072578 0.298649,0.5435842 0.157552,0.8465934 -0.140331,0.3013965 -0.513687,0.4760951 -0.818996,0.3832226 z"
     id="path1114"
     inkscape:connector-curvature="0"
     sodipodi:nodetypes="ccccscscscccscscccccccscsccsccsscccccsccscssccsscscsscccsccccscccscsscccscccccccccscccccccccccccccccccssccccccccccccsccccccccscccccccccccssccscsccs" />
</svg>
