<?xml version="1.0" encoding="UTF-8" standalone="no"?>
<svg
   xmlns:dc="http://purl.org/dc/elements/1.1/"
   xmlns:cc="http://creativecommons.org/ns#"
   xmlns:rdf="http://www.w3.org/1999/02/22-rdf-syntax-ns#"
   xmlns:svg="http://www.w3.org/2000/svg"
   xmlns="http://www.w3.org/2000/svg"
   xmlns:sodipodi="http://sodipodi.sourceforge.net/DTD/sodipodi-0.dtd"
   xmlns:inkscape="http://www.inkscape.org/namespaces/inkscape"
   height="32"
   width="32"
   version="1"
   id="svg20"
   sodipodi:docname="eeschema.svg"
   inkscape:version="0.92.2 2405546, 2018-03-11">
  <metadata
     id="metadata26">
    <rdf:RDF>
      <cc:Work
         rdf:about="">
        <dc:format>image/svg+xml</dc:format>
        <dc:type
           rdf:resource="http://purl.org/dc/dcmitype/StillImage" />
      </cc:Work>
    </rdf:RDF>
  </metadata>
  <defs
     id="defs24" />
  <sodipodi:namedview
     pagecolor="#ffffff"
     bordercolor="#666666"
     borderopacity="1"
     objecttolerance="10"
     gridtolerance="10"
     guidetolerance="10"
     inkscape:pageopacity="0"
     inkscape:pageshadow="2"
     inkscape:window-width="1680"
     inkscape:window-height="972"
     id="namedview22"
     showgrid="false"
     inkscape:zoom="22.627417"
     inkscape:cx="23.449307"
     inkscape:cy="14.871803"
     inkscape:window-x="0"
     inkscape:window-y="0"
     inkscape:window-maximized="1"
     inkscape:current-layer="svg20"
     showguides="true"
     inkscape:guide-bbox="true" />
  <rect
     style="opacity:1;fill:#ececec;fill-opacity:1;fill-rule:evenodd;stroke:none;stroke-width:1.03534329;stroke-linecap:round;stroke-linejoin:bevel;stroke-miterlimit:4;stroke-dasharray:none;stroke-dashoffset:0;stroke-opacity:1"
     id="rect4497-3"
     width="28.203388"
     height="28.203388"
     x="1.8983055"
     y="1.8983057"
     ry="5.575182" />
  <g
     id="g1576"
     transform="rotate(-90,34.468706,31.328786)">
    <circle
       r="9.4690485"
       cy="12.953331"
       cx="50.564793"
       id="path880"
       style="fill:none;fill-opacity:1;stroke:#666666;stroke-width:1.15699995;stroke-linecap:round;stroke-miterlimit:4;stroke-dasharray:none;stroke-opacity:1" />
    <path
       inkscape:connector-curvature="0"
       id="path827"
       d="m 53.147916,23.501141 c 0,-0.498694 -0.0059,-0.912673 -0.01324,-0.919956 -0.0073,-0.0073 -0.07368,0.0026 -0.147553,0.02215 -0.178979,0.04716 -0.55381,0.125454 -0.775856,0.162074 -0.09879,0.0163 -0.243147,0.04015 -0.320774,0.05303 -0.744547,0.12345 -1.897243,0.113393 -2.874114,-0.02508 -0.629984,-0.0893 -1.55514,-0.336706 -2.117094,-0.566155 -0.02823,-0.01149 -0.114837,-0.04653 -0.19246,-0.07781 -0.203148,-0.08184 -0.339698,-0.144184 -0.618611,-0.282479 -2.369154,-1.17468 -4.189225,-3.25114 -5.042253,-5.752537 -0.209253,-0.613614 -0.371223,-1.307472 -0.44662,-1.91328 -0.01272,-0.102228 -0.02872,-0.229252 -0.03557,-0.28228 -0.0069,-0.05303 -0.02001,-0.197457 -0.02923,-0.320953 l -0.0168,-0.224537 H 39.75019 38.982642 v -0.46191 -0.461913 h 0.767084 0.767085 l 0.01683,-0.263032 c 0.03172,-0.49613 0.167132,-1.342002 0.284481,-1.777075 0.579018,-2.1467316 1.684693,-3.8853207 3.348202,-5.2647967 0.810999,-0.67253 1.805044,-1.253737 2.771469,-1.620448 1.16256,-0.4411394 2.29549,-0.6501597 3.554149,-0.6557281 0.535549,-0.00237 0.741908,0.00663 1.129116,0.049018 0.308837,0.033839 0.995752,0.1520548 1.244594,0.2141801 0.105851,0.026439 0.209784,0.052274 0.230955,0.057437 0.0336,0.00817 0.03935,-0.110587 0.04523,-0.93369 l 0.0066,-0.9430686 h 0.448767 0.448764 v 1.0628637 c 0,0.5845758 0.007,1.0811284 0.01558,1.1034554 0.0086,0.022331 0.03182,0.040588 0.05167,0.040588 0.01983,0 0.05615,0.010419 0.08066,0.023171 0.0245,0.01274 0.160037,0.071668 0.301178,0.1309439 0.671717,0.282106 1.601976,0.8268466 2.142755,1.2547546 1.258558,0.99587 2.185494,2.1213811 2.865763,3.4796891 0.435037,0.868649 0.740072,1.7951966 0.90819,2.7586376 0.101245,0.580208 0.16948,1.612349 0.139964,2.117093 -0.03918,0.669972 -0.05357,0.797107 -0.158295,1.398563 -0.159033,0.913367 -0.459517,1.818235 -0.890429,2.681389 -0.09857,0.197451 -0.217724,0.419192 -0.264784,0.492757 -0.04705,0.07356 -0.08556,0.141614 -0.08556,0.151226 0,0.03439 -0.501398,0.769278 -0.689036,1.009891 -1.078405,1.382873 -2.507518,2.474851 -4.096879,3.130411 l -0.30794,0.127014 -0.0066,1.066557 -0.0066,1.066553 h -0.448872 -0.448799 z m -1.884178,-1.557069 c 0.530325,-0.04903 0.953291,-0.117869 1.422186,-0.231454 0.356342,-0.08631 0.494097,-0.131398 0.470971,-0.154118 -0.02378,-0.02337 -0.299461,-0.161306 -2.305704,-1.15373 -0.733927,-0.363049 -1.354969,-0.683226 -1.380095,-0.711506 -0.06712,-0.07554 -0.09536,-0.197998 -0.06812,-0.295369 0.01514,-0.05417 0.120369,-0.182602 0.296848,-0.362389 l 0.27338,-0.278492 -1.062219,-1.062591 -1.062216,-1.062595 -0.0071,0.199139 c -0.0078,0.220846 -0.04363,0.320029 -0.151478,0.420544 -0.129977,0.121142 -0.153812,0.125031 -0.766453,0.125031 -0.555178,0 -0.58671,-0.0026 -0.684239,-0.05746 -0.05713,-0.03211 -0.129441,-0.103873 -0.163881,-0.162641 l -0.06163,-0.105176 v -1.83898 -1.838974 h -2.2711 -2.271063 v 0.146462 c 0,0.189862 0.06627,0.720526 0.13072,1.046807 0.255426,1.293025 0.727772,2.422001 1.454804,3.477165 1.031061,1.496422 2.552945,2.692044 4.239689,3.330784 0.791232,0.299625 1.52278,0.471286 2.373712,0.557002 0.392451,0.03953 1.22977,0.04613 1.592987,0.01254 z m 2.564215,-0.589293 c 0.02823,-0.01172 0.132156,-0.05397 0.230955,-0.09384 0.788107,-0.318086 1.712443,-0.894379 2.425033,-1.511927 1.058786,-0.917572 1.955682,-2.164482 2.46329,-3.424601 0.03127,-0.07762 0.06629,-0.164232 0.07781,-0.19246 0.218404,-0.534904 0.431724,-1.371291 0.523601,-2.052942 0.111866,-0.829942 0.07771,-2.084352 -0.07826,-2.874114 -0.06565,-0.332394 -0.08047,-0.3981 -0.147678,-0.654373 C 59.043881,9.4872832 58.53942,8.4344534 57.871812,7.5224324 57.451229,6.9478764 56.673932,6.1410573 56.150338,5.7355733 55.467727,5.2069443 54.6592,4.7381493 53.921877,4.4434823 l -0.0857,-0.03425 -3.000119,3.0000351 -3.000115,3.0000336 v 2.450824 2.450827 l 1.398793,1.398475 1.398795,1.398479 0.254703,-0.256619 c 0.14009,-0.141139 0.292207,-0.271944 0.338044,-0.290673 0.109829,-0.04489 0.231318,-0.01975 0.316546,0.06548 0.03777,0.03777 0.29467,0.52538 0.570901,1.083586 0.276231,0.558204 0.697714,1.409994 0.936629,1.892868 l 0.434394,0.877952 0.145942,-0.05219 c 0.08028,-0.0287 0.169041,-0.06179 0.197269,-0.07353 z M 46.013955,10.56043 V 8.6713694 l 0.05746,-0.102239 c 0.03211,-0.05713 0.103874,-0.129442 0.162639,-0.163881 0.10269,-0.06018 0.118966,-0.06164 0.688,-0.06164 0.63074,0 0.657581,0.005 0.790355,0.145266 0.09781,0.103376 0.123525,0.189661 0.123525,0.414498 v 0.197158 l 2.501397,-2.5012981 c 1.592552,-1.592485 2.489967,-2.507659 2.46994,-2.518814 -0.06867,-0.03826 -0.850322,-0.183256 -1.237555,-0.2295735 -0.711526,-0.085107 -1.810845,-0.061154 -2.489189,0.054252 -0.715702,0.1217523 -1.421531,0.3261395 -2.104261,0.6093165 -0.488865,0.202771 -1.333979,0.685904 -1.802587,1.030501 -0.891003,0.65521 -1.746068,1.5685331 -2.30785,2.4650961 -0.264186,0.421625 -0.315983,0.514214 -0.494511,0.884013 -0.147096,0.304684 -0.221763,0.478491 -0.38642,0.8994788 -0.125479,0.3208248 -0.315271,1.0293568 -0.405562,1.5140418 -0.03903,0.209533 -0.103518,0.756952 -0.114115,0.968729 l -0.0086,0.173217 h 2.278695 2.278698 z"
       style="fill:#666666;fill-opacity:1;stroke-width:0.02566173" />
  </g>
  <path
     style="fill:#ececec;fill-opacity:1;stroke-width:0.01140059"
     d="m 18.07209,28.230383 -0.404722,-0.0061 -0.06271,-0.03261 c -0.193208,-0.100506 -0.338689,-0.230375 -0.400031,-0.357085 -0.0584,-0.120637 -0.0609,-0.167535 -0.06131,-1.149375 -3.28e-4,-0.839841 0.0011,-0.917862 0.0199,-0.985505 0.01114,-0.0404 0.03318,-0.09037 0.04893,-0.111018 0.06317,-0.08283 0.28866,-0.320247 0.804676,-0.847274 0.770034,-0.786494 6.664197,-6.679995 6.681371,-6.679995 0.0079,0 0.606603,0.578737 1.317264,1.299295 l 1.302982,1.299328 -3.699965,3.702409 c -1.773365,1.774535 -3.336668,3.328846 -3.47148,3.456551 -0.301497,0.285604 -0.39174,0.358946 -0.47058,0.382441 -0.132283,0.03942 -0.480718,0.0457 -1.604328,0.02891 z m 7.943365,-8.869634 -1.377984,-1.240128 0.403065,-0.410751 c 0.189769,-0.183354 0.386076,-0.364665 0.436237,-0.402913 0.115995,-0.08845 0.234974,-0.148296 0.381091,-0.191704 0.311363,-0.0925 0.580581,-0.08811 0.904662,0.01473 0.140148,0.04447 0.236948,0.09621 0.358633,0.19165 0.127829,0.100271 0.86312,0.840399 0.946966,0.953202 0.07961,0.107092 0.135585,0.217389 0.177754,0.350201 0.04643,0.146222 0.05269,0.184249 0.06008,0.364819 0.0172,0.419747 -0.07581,0.702058 -0.32985,1.001354 -0.0709,0.08353 -0.646441,0.668832 -0.657675,0.668832 -1.187844,-0.32963 -0.974359,-0.727186 -1.302982,-1.299292 z"
     id="path871-3"
     inkscape:connector-curvature="0"
     inkscape:transform-center-x="0.5260505"
     inkscape:transform-center-y="2.0384456"
     sodipodi:nodetypes="ccccccccsscsscccccccccccccccc" />
  <path
     style="fill:#46719d;fill-opacity:1;stroke-width:0.00920837"
     d="m 19.138987,27.296092 -0.326898,-0.0049 -0.05065,-0.02634 c -0.156056,-0.08118 -0.273563,-0.186076 -0.323109,-0.288421 -0.04717,-0.09744 -0.04919,-0.13532 -0.04952,-0.928362 -2.65e-4,-0.678348 8.91e-4,-0.741367 0.01607,-0.796003 0.009,-0.03263 0.0268,-0.07299 0.03952,-0.08967 0.05102,-0.0669 0.233153,-0.258667 0.649945,-0.684352 0.621964,-0.635259 5.000209,-5.009376 5.01408,-5.009376 0.0064,0 0.485131,0.472254 1.063968,1.049454 l 1.052432,1.049454 -2.605969,2.604349 c -1.433283,1.432392 -2.695061,2.688743 -2.80395,2.791892 -0.243522,0.230685 -0.316412,0.289924 -0.380092,0.308901 -0.106846,0.03184 -0.388281,0.03691 -1.295832,0.02335 z m 6.406579,-7.171449 -1.056779,-1.056809 0.278685,-0.269268 c 0.153278,-0.148097 0.311837,-0.294544 0.352353,-0.325437 0.09369,-0.07144 0.189791,-0.11978 0.307811,-0.154841 0.251491,-0.07471 0.468941,-0.07117 0.730705,0.0119 0.113199,0.03592 0.191385,0.07771 0.289671,0.154797 0.103249,0.08099 0.697151,0.678799 0.764874,0.769911 0.0643,0.0865 0.109514,0.175588 0.143574,0.282861 0.0375,0.118105 0.04256,0.14882 0.04853,0.294668 0.01389,0.339034 -0.06123,0.56706 -0.266423,0.808804 -0.05727,0.06747 -0.522137,0.540223 -0.531211,0.540223 -0.0027,0 -0.480564,-0.475564 -1.061791,-1.056808 z"
     id="path871"
     inkscape:connector-curvature="0" />
</svg>
