<?xml version="1.0" encoding="UTF-8" standalone="no"?>
<svg
   xmlns:dc="http://purl.org/dc/elements/1.1/"
   xmlns:cc="http://creativecommons.org/ns#"
   xmlns:rdf="http://www.w3.org/1999/02/22-rdf-syntax-ns#"
   xmlns:svg="http://www.w3.org/2000/svg"
   xmlns="http://www.w3.org/2000/svg"
   xmlns:sodipodi="http://sodipodi.sourceforge.net/DTD/sodipodi-0.dtd"
   xmlns:inkscape="http://www.inkscape.org/namespaces/inkscape"
   height="32"
   width="32"
   version="1"
   id="svg12"
   sodipodi:docname="error.svg"
   inkscape:version="0.92.1 r">
  <metadata
     id="metadata18">
    <rdf:RDF>
      <cc:Work
         rdf:about="">
        <dc:format>image/svg+xml</dc:format>
        <dc:type
           rdf:resource="http://purl.org/dc/dcmitype/StillImage" />
        <dc:title></dc:title>
      </cc:Work>
    </rdf:RDF>
  </metadata>
  <defs
     id="defs16" />
  <sodipodi:namedview
     pagecolor="#ffffff"
     bordercolor="#666666"
     borderopacity="1"
     objecttolerance="10"
     gridtolerance="10"
     guidetolerance="10"
     inkscape:pageopacity="0"
     inkscape:pageshadow="2"
     inkscape:window-width="1680"
     inkscape:window-height="963"
     id="namedview14"
     showgrid="false"
     inkscape:zoom="7.375"
     inkscape:cx="-9.7697465"
     inkscape:cy="24.972182"
     inkscape:window-x="0"
     inkscape:window-y="0"
     inkscape:window-maximized="1"
     inkscape:current-layer="svg12" />
  <rect
     style="opacity:1;fill:#ffba39;fill-opacity:1;fill-rule:evenodd;stroke:none;stroke-width:1.03534329;stroke-linecap:round;stroke-linejoin:bevel;stroke-miterlimit:4;stroke-dasharray:none;stroke-dashoffset:0;stroke-opacity:1"
     id="rect4497-3"
     width="28.203388"
     height="28.203388"
     x="1.8983059"
     y="1.8983059"
     ry="5.575182" />
  <path
     style="fill:#ffffff;stroke-width:0.99999994"
     d="m 14.289909,24.305204 c -1.300036,-0.812035 -2.364205,-1.507324 -2.36482,-1.545078 -0.002,-0.122739 4.694785,-3.009222 4.795358,-2.947063 0.05367,0.03319 0.09759,0.368264 0.09759,0.744638 v 0.684317 l 0.390484,-0.0631 c 0.697079,-0.112543 1.851428,-0.764934 2.498348,-1.411861 1.942035,-1.942031 2.12849,-4.902574 0.443304,-7.038826 -0.218232,-0.276639 -0.372883,-0.55382 -0.343668,-0.615942 0.125689,-0.267305 1.923282,-1.742466 2.059579,-1.690162 0.08069,0.03096 0.359688,0.327661 0.619995,0.659312 2.120403,2.701621 2.17244,6.911425 0.119953,9.7042 -0.527936,0.718351 -1.696862,1.797796 -2.4038,2.219789 -0.727181,0.434083 -1.827702,0.84581 -2.741117,1.025515 l -0.643078,0.126518 v 0.761273 c 0,0.418697 -0.037,0.784135 -0.08222,0.812082 -0.04522,0.0279 -1.14588,-0.613588 -2.445917,-1.425635 z M 9.6859349,21.188736 C 9.0745879,20.476648 8.6249616,19.658326 8.266808,18.605899 7.9831059,17.772249 7.9249986,17.431015 7.8856259,16.367369 7.8317555,14.912184 7.9964864,13.918066 8.4796115,12.782737 9.5175933,10.343523 11.846769,8.4745751 14.449102,7.9927903 L 15.151974,7.8626702 V 7.0996311 c 0,-0.4196619 0.04013,-0.7878314 0.08919,-0.8181453 0.04905,-0.030373 0.810494,0.4012852 1.692098,0.9591195 0.881603,0.5578348 1.942636,1.2232334 2.35785,1.4786706 0.415215,0.2554365 0.754936,0.4951929 0.754936,0.5327939 0,0.1173707 -4.708466,3.0058892 -4.803778,2.9469802 -0.04966,-0.03073 -0.09029,-0.357609 -0.09029,-0.726497 0,-0.579413 -0.02582,-0.670696 -0.189709,-0.670696 -0.34609,0 -1.208264,0.340175 -1.777305,0.701245 -2.713394,1.721688 -3.3261089,5.319387 -1.333224,7.828318 0.20077,0.252753 0.341097,0.510473 0.311843,0.572714 -0.08094,0.172183 -1.876559,1.72715 -1.994455,1.72715 -0.05679,0 -0.2742211,-0.199142 -0.4831891,-0.442548 z"
     id="path4487"
     inkscape:connector-curvature="0" />
</svg>
