<?xml version="1.0" encoding="UTF-8" standalone="no"?>
<svg
   xmlns:dc="http://purl.org/dc/elements/1.1/"
   xmlns:cc="http://creativecommons.org/ns#"
   xmlns:rdf="http://www.w3.org/1999/02/22-rdf-syntax-ns#"
   xmlns:svg="http://www.w3.org/2000/svg"
   xmlns="http://www.w3.org/2000/svg"
   xmlns:sodipodi="http://sodipodi.sourceforge.net/DTD/sodipodi-0.dtd"
   xmlns:inkscape="http://www.inkscape.org/namespaces/inkscape"
   height="32"
   width="32"
   version="1"
   id="svg12"
   sodipodi:docname="evernote.svg"
   inkscape:version="0.92.1 r">
  <metadata
     id="metadata18">
    <rdf:RDF>
      <cc:Work
         rdf:about="">
        <dc:format>image/svg+xml</dc:format>
        <dc:type
           rdf:resource="http://purl.org/dc/dcmitype/StillImage" />
      </cc:Work>
    </rdf:RDF>
  </metadata>
  <defs
     id="defs16" />
  <sodipodi:namedview
     pagecolor="#ffffff"
     bordercolor="#666666"
     borderopacity="1"
     objecttolerance="10"
     gridtolerance="10"
     guidetolerance="10"
     inkscape:pageopacity="0"
     inkscape:pageshadow="2"
     inkscape:window-width="1680"
     inkscape:window-height="963"
     id="namedview14"
     showgrid="false"
     inkscape:zoom="7.375"
     inkscape:cx="12.381767"
     inkscape:cy="16"
     inkscape:window-x="0"
     inkscape:window-y="0"
     inkscape:window-maximized="1"
     inkscape:current-layer="svg12" />
  <rect
     style="opacity:1;fill:#7ec242;fill-opacity:1;fill-rule:evenodd;stroke:none;stroke-width:1.03534329;stroke-linecap:round;stroke-linejoin:bevel;stroke-miterlimit:4;stroke-dasharray:none;stroke-dashoffset:0;stroke-opacity:1"
     id="rect4497-3"
     width="28.203388"
     height="28.203388"
     x="1.8983059"
     y="1.8983059"
     ry="5.575182" />
  <g
     id="g4528"
     transform="matrix(0.73849732,0,0,0.73849732,4.1840049,4.1840112)">
    <path
       style="fill:#ffffff"
       id="path2"
       d="M 14.092,2.0029 C 13.161,1.9831 12.353,2.0664 12.022,2.1574 11.501,2.2962 10.719,2.5917 10.4,3.042 10.183,3.3441 10,3.7319 10,4.2697 10.008,5.2847 9.9871,6.1247 10,7.148 10,7.7192 9.8023,7.9872 9.2143,8.0005 H 6.5214 C 5.94562,8.0005 5.5084,7.9879 5.176,8.1356 4.84,8.2875 4.6006,8.4834 4.4219,8.7235 4.0595,9.1953 4,10.075 4,10.668 c 0,0 0.00402,0.4753 0.12409,1.4175 0.102,0.73149 0.9069,5.8037 1.6737,7.3394 0.29759,0.6006 0.49489,0.84909 1.0779,1.1137 1.6801,0.3907 7.5865,2.3554 8.2281,1.0021 0.52523,-1.3745 0.78678,-3.642 0.89602,-4.541 0,0.6069 0.09388,3.0615 1.7506,3.6376 0.65646,0.2261 2.0103,0.4263 3.3903,0.5824 1.249,0.139 1.859,0.618 1.859,3.745 0,1.901 -0.116,2.035 -2.25,2.035 -1.927,0 -2.75,0 -2.75,-1 0,-1 0.58826,-1 2,-1 v -1.9999 c -2.8235,0 -4.0002,0 -4.0002,3.2949 0,3.0051 1.1435,3.7051 5.1437,3.7051 3.1369,0 4.2437,-0.105 5.5383,-4.0236 0.25552,-0.77489 0.88022,-3.1381 1.2543,-7.1091 0.235,-2.507 -0.227,-10.078 -0.594,-11.997 V 6.8673 c -0.213,-1.1187 -0.889,-1.6656 -1.508,-1.8838 -0.664,-0.2356 -2.011,-0.4724 -3.699,-0.6672 -1.364,-0.1587 -3.168,-0.3466 -4.135,-0.3162 0,-0.7 -0.466,-1.281 -1.089,-1.5295 -0.83,-0.3231 -1.887,-0.4477 -2.819,-0.4676 z"
       inkscape:connector-curvature="0" />
    <path
       id="path4"
       d="m 24,17 h -3 c 0,-1.1046 0.67157,-2 1.5,-2 0.82843,0 1.5,0.89543 1.5,2 z"
       inkscape:connector-curvature="0"
       style="opacity:0.2" />
    <path
       id="path6"
       d="m 24,16 h -3 c 0,-1.1046 0.67157,-2 1.5,-2 0.82843,0 1.5,0.89543 1.5,2 z"
       inkscape:connector-curvature="0"
       style="fill:#ffffff" />
  </g>
</svg>
