<?xml version="1.0" encoding="UTF-8" standalone="no"?>
<svg
   xmlns:dc="http://purl.org/dc/elements/1.1/"
   xmlns:cc="http://creativecommons.org/ns#"
   xmlns:rdf="http://www.w3.org/1999/02/22-rdf-syntax-ns#"
   xmlns:svg="http://www.w3.org/2000/svg"
   xmlns="http://www.w3.org/2000/svg"
   xmlns:sodipodi="http://sodipodi.sourceforge.net/DTD/sodipodi-0.dtd"
   xmlns:inkscape="http://www.inkscape.org/namespaces/inkscape"
   width="32"
   height="32"
   version="1"
   id="svg20"
   sodipodi:docname="filelight.svg"
   inkscape:version="0.92.1 r">
  <metadata
     id="metadata26">
    <rdf:RDF>
      <cc:Work
         rdf:about="">
        <dc:format>image/svg+xml</dc:format>
        <dc:type
           rdf:resource="http://purl.org/dc/dcmitype/StillImage" />
      </cc:Work>
    </rdf:RDF>
  </metadata>
  <defs
     id="defs24" />
  <sodipodi:namedview
     pagecolor="#ffffff"
     bordercolor="#666666"
     borderopacity="1"
     objecttolerance="10"
     gridtolerance="10"
     guidetolerance="10"
     inkscape:pageopacity="0"
     inkscape:pageshadow="2"
     inkscape:window-width="1680"
     inkscape:window-height="963"
     id="namedview22"
     showgrid="false"
     inkscape:zoom="20.85965"
     inkscape:cx="13.764685"
     inkscape:cy="10.988405"
     inkscape:window-x="0"
     inkscape:window-y="0"
     inkscape:window-maximized="1"
     inkscape:current-layer="svg20" />
  <rect
     style="opacity:1;fill:#8e8e8e;fill-opacity:1;fill-rule:evenodd;stroke:none;stroke-width:1.03534329;stroke-linecap:round;stroke-linejoin:bevel;stroke-miterlimit:4;stroke-dasharray:none;stroke-dashoffset:0;stroke-opacity:1"
     id="rect4497-3-6"
     width="28.203388"
     height="28.203388"
     x="1.8983059"
     y="1.8983059"
     ry="5.575182" />
  <g
     id="g4542"
     transform="translate(34.304687,-0.27148445)">
    <path
       id="rect4497-3-3"
       d="m -26.832031,2.1699219 c -3.088651,0 -5.574219,2.4855679 -5.574219,5.5742187 V 24.796875 c 0,3.088651 2.485568,5.576172 5.574219,5.576172 h 8.527343 v -7.712891 c 0,-0.772162 0.154175,-1.506374 0.435547,-2.173828 0.281373,-0.667454 0.689503,-1.267627 1.19336,-1.771484 0.503857,-0.503857 1.10403,-0.911987 1.771484,-1.19336 0.667454,-0.281372 1.401666,-0.4375 2.173828,-0.4375 h 8.527344 V 7.7441406 c 0,-3.0886508 -2.4875211,-5.5742187 -5.5761719,-5.5742187 z"
       style="opacity:1;fill:#8e8e8e;fill-opacity:1;fill-rule:evenodd;stroke:none;stroke-width:1.03534329;stroke-linecap:round;stroke-linejoin:bevel;stroke-miterlimit:4;stroke-dasharray:none;stroke-dashoffset:0;stroke-opacity:1"
       inkscape:connector-curvature="0" />
    <g
       transform="translate(-34.292889,0.1391421)"
       id="g4577">
      <circle
         style="opacity:1;fill:#4d4d4d;fill-opacity:1;fill-rule:nonzero;stroke:none;stroke-width:0.80000001;stroke-linecap:round;stroke-linejoin:bevel;stroke-miterlimit:4;stroke-dasharray:none;stroke-dashoffset:0;stroke-opacity:1"
         id="path4523-6"
         cx="25.695541"
         cy="6.4003382"
         r="1.4381833" />
      <circle
         style="opacity:1;fill:#4d4d4d;fill-opacity:1;fill-rule:nonzero;stroke:none;stroke-width:0.80000001;stroke-linecap:round;stroke-linejoin:bevel;stroke-miterlimit:4;stroke-dasharray:none;stroke-dashoffset:0;stroke-opacity:1"
         id="path4523-6-7"
         cx="6.2321272"
         cy="6.4003382"
         r="1.4381833" />
      <circle
         style="opacity:1;fill:#4d4d4d;fill-opacity:1;fill-rule:nonzero;stroke:none;stroke-width:0.80000001;stroke-linecap:round;stroke-linejoin:bevel;stroke-miterlimit:4;stroke-dasharray:none;stroke-dashoffset:0;stroke-opacity:1"
         id="path4523-6-5"
         cx="25.743481"
         cy="25.86375"
         r="1.4381833" />
      <circle
         style="opacity:1;fill:#4d4d4d;fill-opacity:1;fill-rule:nonzero;stroke:none;stroke-width:0.80000001;stroke-linecap:round;stroke-linejoin:bevel;stroke-miterlimit:4;stroke-dasharray:none;stroke-dashoffset:0;stroke-opacity:1"
         id="path4523-6-7-3"
         cx="6.280067"
         cy="25.86375"
         r="1.4381833" />
    </g>
    <path
       style="opacity:1;fill:#4d4d4d"
       inkscape:connector-curvature="0"
       id="path4-3"
       d="m -18.305085,9.2711863 c -3.866,0 -7,3.1339997 -7,6.9999997 v 7.000001 h 7 c 3.866,0 7,-3.134 7,-7.000001 0,-3.866 -3.134,-6.9999998 -7,-6.9999997 z m 0,2.9999997 a 4,4 0 0 1 4,4 4,4 0 0 1 -4,4.000001 4,4 0 0 1 -4,-4.000001 4,4 0 0 1 4,-4 z" />
    <path
       id="path4525"
       d="m -4.203125,17.083984 h -8.527344 c -0.772162,0 -1.506374,0.156128 -2.173828,0.4375 -0.667454,0.281373 -1.267627,0.689503 -1.771484,1.19336 -0.503857,0.503857 -0.911987,1.10403 -1.19336,1.771484 -0.281372,0.667454 -0.435547,1.401666 -0.435547,2.173828 v 7.712891 h 8.5253911 c 3.0886508,0 5.5761719,-2.487521 5.5761719,-5.576172 z"
       style="opacity:1;fill:#4daaf5;fill-opacity:1;fill-rule:evenodd;stroke:none;stroke-width:1.03534329;stroke-linecap:round;stroke-linejoin:bevel;stroke-miterlimit:4;stroke-dasharray:none;stroke-dashoffset:0;stroke-opacity:1"
       inkscape:connector-curvature="0" />
    <path
       sodipodi:nodetypes="scscccscccscscccccccccccccccscccsccccccccscccccccccsscccccccc"
       inkscape:connector-curvature="0"
       id="text4529"
       d="m -10.732422,19.673828 c -0.293812,0 -0.592653,0.144108 -0.785156,0.357422 -0.190453,0.211043 -0.302734,0.500675 -0.302734,0.785156 0,0.281549 0.116344,0.566898 0.302734,0.773438 l 0.002,0.002 0.002,0.002 c 0.193713,0.20942 0.490706,0.347656 0.78125,0.347656 0.299633,0 0.611411,-0.143358 0.8085939,-0.367187 l 0.00195,-0.002 0.00195,-0.002 C -9.7327263,21.352761 -9.625,21.062206 -9.625,20.775391 c 0,-0.275394 -0.1175718,-0.557903 -0.3046875,-0.757813 -0.2020535,-0.21803 -0.5106715,-0.34375 -0.8027345,-0.34375 z m -0.785156,2.376953 c -0.191522,0 -0.373699,0.03786 -0.591797,0.09766 -0.227121,0.06227 -0.468471,0.153921 -0.730469,0.271484 l -0.226562,0.101562 -0.316406,1.34961 0.802734,-0.210938 c 0.03959,-0.01042 0.118839,-0.02822 0.224609,-0.04883 0.06205,-0.01174 0.0841,-0.01238 0.117188,-0.01563 -0.0036,0.04294 -0.0035,0.08002 -0.01758,0.150391 l -0.002,0.0059 -0.002,0.0059 c -0.02063,0.117887 -0.04154,0.227895 -0.06445,0.328126 l -0.496093,1.990234 -0.002,0.0039 c -0.03004,0.126849 -0.05282,0.234943 -0.06836,0.332031 -0.01632,0.101967 -0.02539,0.203624 -0.02539,0.304688 0,0.300453 0.117448,0.608965 0.326172,0.828125 l 0.002,0.002 0.002,0.002 c 0.241705,0.247748 0.587706,0.34375 0.923829,0.34375 0.183741,0 0.366358,-0.03239 0.564453,-0.08594 l 0.0078,-0.002 c 0.208398,-0.05353 0.449054,-0.138351 0.746094,-0.257813 l 0.240234,-0.09766 0.3417972,-1.457031 -0.8710932,0.320312 c 3.43e-4,-1.27e-4 -0.0611,0.01831 -0.154297,0.03125 h -0.002 c -0.09715,0.01388 -0.167911,0.01758 -0.183594,0.01758 -0.0058,0 0.0014,1.54e-4 -0.0039,0 0.0018,-0.03223 0.0065,-0.07638 0.01953,-0.148437 l 0.002,-0.0059 c 3.53e-4,-0.0019 -3.63e-4,-0.002 0,-0.0039 0.02302,-0.108649 0.04937,-0.217922 0.07813,-0.330078 v -0.002 L -10.375,23.875 v -0.002 c 0.02987,-0.116057 0.0532,-0.232114 0.06836,-0.349609 0.01411,-0.109331 0.02344,-0.201476 0.02344,-0.294922 0,-0.300267 -0.09962,-0.613504 -0.3125,-0.837891 -0.242887,-0.256016 -0.585633,-0.339844 -0.921875,-0.339844 z m -0.664062,1.470703 0.0098,0.0098 0.0098,0.0078 c -0.0341,-0.0323 -0.0056,0.01258 -0.01758,-0.0039 -0.01568,-0.01273 0.0236,0.0133 -0.002,-0.01367 z"
       style="color:#000000;font-style:normal;font-variant:normal;font-weight:normal;font-stretch:normal;font-size:9.62711906px;line-height:1.25;font-family:sans-serif;font-variant-ligatures:normal;font-variant-position:normal;font-variant-caps:normal;font-variant-numeric:normal;font-variant-alternates:normal;font-feature-settings:normal;text-indent:0;text-align:start;text-decoration:none;text-decoration-line:none;text-decoration-style:solid;text-decoration-color:#000000;letter-spacing:0px;word-spacing:0px;text-transform:none;writing-mode:lr-tb;direction:ltr;text-orientation:mixed;dominant-baseline:auto;baseline-shift:baseline;text-anchor:start;white-space:normal;shape-padding:0;clip-rule:nonzero;display:inline;overflow:visible;visibility:visible;opacity:1;isolation:auto;mix-blend-mode:normal;color-interpolation:sRGB;color-interpolation-filters:linearRGB;solid-color:#000000;solid-opacity:1;vector-effect:none;fill:#ffffff;fill-opacity:1;fill-rule:nonzero;stroke:none;stroke-width:1;stroke-linecap:butt;stroke-linejoin:miter;stroke-miterlimit:4;stroke-dasharray:none;stroke-dashoffset:0;stroke-opacity:1;color-rendering:auto;image-rendering:auto;shape-rendering:auto;text-rendering:auto;enable-background:accumulate" />
  </g>
</svg>
