<?xml version="1.0" encoding="UTF-8" standalone="no"?>
<svg
   xmlns:dc="http://purl.org/dc/elements/1.1/"
   xmlns:cc="http://creativecommons.org/ns#"
   xmlns:rdf="http://www.w3.org/1999/02/22-rdf-syntax-ns#"
   xmlns:svg="http://www.w3.org/2000/svg"
   xmlns="http://www.w3.org/2000/svg"
   xmlns:sodipodi="http://sodipodi.sourceforge.net/DTD/sodipodi-0.dtd"
   xmlns:inkscape="http://www.inkscape.org/namespaces/inkscape"
   width="32"
   version="1"
   height="32"
   id="svg22"
   sodipodi:docname="firefox-alt.svg"
   inkscape:version="0.92.1 r">
  <metadata
     id="metadata28">
    <rdf:RDF>
      <cc:Work
         rdf:about="">
        <dc:format>image/svg+xml</dc:format>
        <dc:type
           rdf:resource="http://purl.org/dc/dcmitype/StillImage" />
      </cc:Work>
    </rdf:RDF>
  </metadata>
  <defs
     id="defs26" />
  <sodipodi:namedview
     pagecolor="#ffffff"
     bordercolor="#666666"
     borderopacity="1"
     objecttolerance="10"
     gridtolerance="10"
     guidetolerance="10"
     inkscape:pageopacity="0"
     inkscape:pageshadow="2"
     inkscape:window-width="1680"
     inkscape:window-height="955"
     id="namedview24"
     showgrid="false"
     inkscape:zoom="7.375"
     inkscape:cx="-36.474576"
     inkscape:cy="16"
     inkscape:window-x="0"
     inkscape:window-y="0"
     inkscape:window-maximized="1"
     inkscape:current-layer="svg22" />
  <rect
     style="opacity:1;fill:#042c38;fill-opacity:1;fill-rule:evenodd;stroke:none;stroke-width:1.03534329;stroke-linecap:round;stroke-linejoin:bevel;stroke-miterlimit:4;stroke-dasharray:none;stroke-dashoffset:0;stroke-opacity:1"
     id="rect4497-3-9"
     width="28.203388"
     height="28.203388"
     x="1.8983059"
     y="1.8983059"
     ry="5.575182" />
  <g
     id="g4649"
     transform="translate(176.0332,-4.6015625)">
    <path
       id="rect4497-3-3"
       d="m -168.56055,6.5 c -3.08865,0 -5.57422,2.4875211 -5.57422,5.576172 v 5.341797 c 0.206,-0.651855 0.42306,-1.283635 0.67969,-1.722657 0.38891,-0.742268 0.93113,-1.375888 1.5586,-1.888671 0.62746,-0.512784 1.34031,-0.904942 2.07031,-1.160157 0.73,-0.255214 1.4773,-0.37419 2.17383,-0.34375 0.69652,0.03044 1.34211,0.210508 1.86914,0.554688 0.626,-0.721577 1.31923,-1.206584 2.04882,-1.566406 0.7296,-0.359822 1.49554,-0.594458 2.26368,-0.81836 -0.79121,0.974248 -1.35105,1.915352 -1.68946,2.824219 -0.3384,0.908867 -0.45523,1.78536 -0.35742,2.626953 0.0978,0.841593 0.4103,1.649447 0.92774,2.421875 0.51743,0.772428 1.23968,1.509566 2.16015,2.210938 -1.1915,-0.217872 -3.32213,-0.296922 -5.16992,-0.201172 -0.25229,0.575887 -0.40354,1.161944 -0.46484,1.746093 -0.0613,0.58415 -0.0321,1.165585 0.0723,1.734376 0.20878,1.137581 0.72362,2.221835 1.44336,3.15625 0.71974,0.934414 1.64359,1.719446 2.67188,2.261718 1.02828,0.542272 2.1605,0.84158 3.29492,0.802735 0.95002,-0.04429 1.74873,-0.220262 2.42773,-0.50586 0.67901,-0.285597 1.23848,-0.681364 1.70703,-1.167969 0.46856,-0.486604 0.84735,-1.063628 1.16602,-1.710937 0.31867,-0.647309 0.57728,-1.365101 0.80664,-2.132813 0.45871,-1.535422 0.79882,-3.269707 1.26367,-5.044921 0.46486,-1.775215 1.05424,-3.590617 2.00977,-5.283203 0.87904,0.662898 1.59073,1.386571 2.16406,2.158203 0.47454,0.638671 0.80222,1.328703 1.10547,2.027343 V 12.076172 C -145.9316,8.9875211 -148.41912,6.5 -151.50777,6.5 Z"
       style="opacity:1;fill:#042c38;fill-opacity:1;fill-rule:evenodd;stroke:none;stroke-width:1.03534329;stroke-linecap:round;stroke-linejoin:bevel;stroke-miterlimit:4;stroke-dasharray:none;stroke-dashoffset:0;stroke-opacity:1"
       inkscape:connector-curvature="0" />
    <path
       sodipodi:nodetypes="cccsc"
       inkscape:connector-curvature="0"
       id="path4560"
       d="m -162.92222,26.957901 c 9.40248,5.85045 18.13995,-10.790526 7.77422,-18.797567 11.67766,1.5200766 6.06597,14.08033 7.31469,22.259834 -4.37305,-0.195074 -10.14739,3.954797 -14.06207,1.743045 -0.96218,-0.543621 -0.59188,-4.344406 -1.02684,-5.205312 z"
       style="fill:#ffc607;fill-opacity:1;stroke:none;stroke-width:0.10000001;stroke-linecap:butt;stroke-linejoin:miter;stroke-miterlimit:4;stroke-dasharray:none;stroke-opacity:1" />
    <path
       sodipodi:nodetypes="ccccccccc"
       inkscape:connector-curvature="0"
       id="path4555"
       d="m -164.66971,19.635497 c -0.95277,1.85974 -0.51657,2.161633 -0.21819,2.516361 1.01391,0.896471 2.66643,0.395452 5.66475,-1.281573 0.14374,1.146671 -0.80898,2.462848 -3.29217,3.708649 -0.81498,0.407298 -1.21499,1.037162 -0.4069,2.378967 l 3.77482,4.541052 -5.26237,-0.447301 -4.34146,-11.050982 z"
       style="fill:#d14b01;fill-opacity:1;stroke:none;stroke-width:0.10000001;stroke-linecap:butt;stroke-linejoin:miter;stroke-miterlimit:4;stroke-dasharray:none;stroke-opacity:1" />
    <path
       sodipodi:nodetypes="cccc"
       inkscape:connector-curvature="0"
       id="path4562"
       d="m -155.59186,11.701239 c 4.57076,2.957715 3.48092,7.233658 4.83737,10.939912 l 0.96747,-6.828143 c -1.8364,-2.910581 -2.1269,-3.631657 -5.80484,-4.111769 z"
       style="fill:#f78f04;fill-opacity:1;stroke:none;stroke-width:0.10000001;stroke-linecap:butt;stroke-linejoin:miter;stroke-miterlimit:4;stroke-dasharray:none;stroke-opacity:1" />
    <path
       sodipodi:nodetypes="cccc"
       inkscape:connector-curvature="0"
       id="path4562-7"
       d="m -152.78247,18.808461 c 0.43002,3.95584 -0.0483,6.674479 0.707,6.828142 l 1.35819,-3.702453 c -0.34252,-0.305525 -1.13968,-2.142234 -2.06519,-3.125689 z"
       style="fill:#f78f04;fill-opacity:1;stroke:none;stroke-width:0.10000001;stroke-linecap:butt;stroke-linejoin:miter;stroke-miterlimit:4;stroke-dasharray:none;stroke-opacity:1" />
    <path
       sodipodi:nodetypes="cccc"
       inkscape:connector-curvature="0"
       id="path4514"
       d="m -170.88249,9.7390462 c -1.55171,2.0362748 -2.04014,4.0150098 -1.63135,5.8412318 l 2.97326,-2.183884 c -0.68459,-0.714897 -1.21595,-1.755383 -1.34191,-3.6573478 z"
       style="fill:#dc4a04;fill-opacity:1;stroke:none;stroke-width:0.10000001;stroke-linecap:butt;stroke-linejoin:miter;stroke-miterlimit:4;stroke-dasharray:none;stroke-opacity:1" />
    <path
       sodipodi:nodetypes="cccc"
       inkscape:connector-curvature="0"
       id="path4549"
       d="m -164.38346,16.553817 c 1.92792,-0.0021 3.93491,0.359387 5.63073,-0.71042 -0.88061,1.30066 -1.87682,2.214625 -3.73627,3.025864 z"
       style="fill:#ffffff;fill-opacity:1;stroke:none;stroke-width:0.10000001;stroke-linecap:butt;stroke-linejoin:miter;stroke-miterlimit:4;stroke-dasharray:none;stroke-opacity:1" />
    <path
       sodipodi:nodetypes="ccccc"
       inkscape:connector-curvature="0"
       id="path4547"
       d="m -164.17297,13.738449 c 0.93956,0.587691 1.06136,1.405736 5.34131,1.052473 0.31421,0.332546 0.31705,0.684861 0.0789,1.052475 -1.46564,0.974797 -3.72003,1.038254 -5.48694,0.65433 z"
       style="fill:#f25900;fill-opacity:1;stroke:none;stroke-width:0.10000001;stroke-linecap:butt;stroke-linejoin:miter;stroke-miterlimit:4;stroke-dasharray:none;stroke-opacity:1" />
    <path
       sodipodi:nodetypes="ccc"
       inkscape:connector-curvature="0"
       id="path4551"
       d="m -158.83166,14.790922 c 0.32115,0.605362 0.004,0.897717 -0.19536,1.195391 1.11516,0.148883 1.30231,-1.498112 0.19536,-1.195391 z"
       style="fill:#656465;fill-opacity:1;stroke:none;stroke-width:0.10000001;stroke-linecap:butt;stroke-linejoin:miter;stroke-miterlimit:4;stroke-dasharray:none;stroke-opacity:1" />
    <path
       id="path4619"
       d="m -145.93164,18.396484 c -0.30325,-0.69864 -0.63093,-1.388672 -1.10547,-2.027343 -0.57333,-0.771632 -1.28502,-1.495305 -2.16406,-2.158203 -0.95553,1.692586 -1.54491,3.507988 -2.00977,5.283203 -0.46485,1.775214 -0.80496,3.509499 -1.26367,5.044921 -0.22936,0.767712 -0.48797,1.485504 -0.80664,2.132813 -0.31867,0.647309 -0.69746,1.224333 -1.16602,1.710937 -0.46855,0.486605 -1.02802,0.882372 -1.70703,1.167969 -0.679,0.285598 -1.47771,0.461572 -2.42773,0.50586 -1.13442,0.03885 -2.26664,-0.260463 -3.29492,-0.802735 -1.02829,-0.542272 -1.95214,-1.327304 -2.67188,-2.261718 -0.71974,-0.934415 -1.23458,-2.018669 -1.44336,-3.15625 -0.10439,-0.568791 -0.13356,-1.150226 -0.0723,-1.734376 0.0613,-0.584149 0.21255,-1.170206 0.46484,-1.746093 1.84779,-0.09575 3.97842,-0.0167 5.16992,0.201172 -0.92047,-0.701372 -1.64272,-1.43851 -2.16015,-2.210938 -0.51744,-0.772428 -0.82993,-1.580282 -0.92774,-2.421875 -0.0978,-0.841593 0.019,-1.718086 0.35742,-2.626953 0.33841,-0.908867 0.89825,-1.849971 1.68946,-2.824219 -0.76814,0.223902 -1.53408,0.458538 -2.26368,0.81836 -0.72959,0.359822 -1.42282,0.844829 -2.04882,1.566406 -0.52703,-0.34418 -1.17262,-0.524247 -1.86914,-0.554688 -0.69653,-0.03044 -1.44383,0.08854 -2.17383,0.34375 -0.73,0.255215 -1.44285,0.647373 -2.07031,1.160157 -0.62747,0.512783 -1.16969,1.146403 -1.5586,1.888671 -0.25663,0.439022 -0.47369,1.070802 -0.67969,1.722657 v 11.710937 c 0,3.088651 2.48557,5.574219 5.57422,5.574219 h 17.05274 c 3.08865,0 5.57617,-2.485568 5.57617,-5.574219 z"
       style="opacity:1;fill:#ef5a00;fill-opacity:1;fill-rule:evenodd;stroke:none;stroke-width:1.03534329;stroke-linecap:round;stroke-linejoin:bevel;stroke-miterlimit:4;stroke-dasharray:none;stroke-dashoffset:0;stroke-opacity:1"
       inkscape:connector-curvature="0" />
  </g>
</svg>
