<?xml version="1.0" encoding="UTF-8" standalone="no"?>
<svg
   xmlns:dc="http://purl.org/dc/elements/1.1/"
   xmlns:cc="http://creativecommons.org/ns#"
   xmlns:rdf="http://www.w3.org/1999/02/22-rdf-syntax-ns#"
   xmlns:svg="http://www.w3.org/2000/svg"
   xmlns="http://www.w3.org/2000/svg"
   xmlns:sodipodi="http://sodipodi.sourceforge.net/DTD/sodipodi-0.dtd"
   xmlns:inkscape="http://www.inkscape.org/namespaces/inkscape"
   width="32"
   version="1"
   height="32"
   id="svg12"
   sodipodi:docname="firefox.svg"
   inkscape:version="0.92.2 2405546, 2018-03-11">
  <metadata
     id="metadata18">
    <rdf:RDF>
      <cc:Work
         rdf:about="">
        <dc:format>image/svg+xml</dc:format>
        <dc:type
           rdf:resource="http://purl.org/dc/dcmitype/StillImage" />
      </cc:Work>
    </rdf:RDF>
  </metadata>
  <defs
     id="defs16">
    <linearGradient
       id="linearGradient4543">
      <stop
         style="stop-color:#ee5400;stop-opacity:1"
         offset="0"
         id="stop4539" />
      <stop
         style="stop-color:#f06201;stop-opacity:0;"
         offset="1"
         id="stop4541" />
    </linearGradient>
  </defs>
  <sodipodi:namedview
     pagecolor="#ffffff"
     bordercolor="#666666"
     borderopacity="1"
     objecttolerance="10"
     gridtolerance="10"
     guidetolerance="10"
     inkscape:pageopacity="0"
     inkscape:pageshadow="2"
     inkscape:window-width="1680"
     inkscape:window-height="972"
     id="namedview14"
     showgrid="false"
     inkscape:zoom="10.429825"
     inkscape:cx="7.9298511"
     inkscape:cy="27.075846"
     inkscape:window-x="0"
     inkscape:window-y="0"
     inkscape:window-maximized="1"
     inkscape:current-layer="svg12"
     showguides="true"
     inkscape:guide-bbox="true" />
  <g
     id="g862"
     transform="translate(39.873843,21.392765)">
    <path
       sodipodi:nodetypes="ssccsss"
       inkscape:connector-curvature="0"
       id="rect4497-3-9"
       d="m -32.401186,-19.494328 c -3.088651,0 -5.574206,2.485568 -5.574219,5.574219 l -2.3e-5,5.343751 c 2.503893,13.426751 20.704098,23.189655 28.2031704,0.978515 l -2.3e-5,-6.322266 c -1.1e-5,-3.088651 -2.4855674,-5.574219 -5.5742184,-5.574219 z"
       style="opacity:1;fill:#042c38;fill-opacity:1;fill-rule:evenodd;stroke:none;stroke-width:1.03534329;stroke-linecap:round;stroke-linejoin:bevel;stroke-miterlimit:4;stroke-dasharray:none;stroke-dashoffset:0;stroke-opacity:1" />
    <path
       sodipodi:nodetypes="cccsc"
       inkscape:connector-curvature="0"
       id="path4560"
       d="m -26.762863,0.96357204 c 9.40248,5.85045096 18.1399504,-10.79052454 7.77422,-18.79756604 11.6776604,1.520077 6.06597,14.08033 7.31469,22.259834 -4.37305,-0.195075 -10.14739,3.954797 -14.06207,1.743044 -0.96218,-0.543621 -0.59188,-4.344406 -1.02684,-5.20531196 z"
       style="fill:#ffc607;fill-opacity:1;stroke:none;stroke-width:0.10000001;stroke-linecap:butt;stroke-linejoin:miter;stroke-miterlimit:4;stroke-dasharray:none;stroke-opacity:1" />
    <path
       sodipodi:nodetypes="ccccccccc"
       inkscape:connector-curvature="0"
       id="path4555"
       d="m -28.510353,-6.35883 c -0.95277,1.859739 -0.51657,2.161633 -0.21819,2.516359 1.01391,0.896472 2.66643,0.395452 5.66475,-1.281573 0.14374,1.146671 -0.80898,2.462848 -3.29217,3.708649 -0.81498,0.407298 -1.21499,1.03716204 -0.4069,2.37896704 l 3.77482,4.54105296 -5.26237,-0.447302 -4.34146,-11.05098 z"
       style="fill:#d14b01;fill-opacity:1;stroke:none;stroke-width:0.10000001;stroke-linecap:butt;stroke-linejoin:miter;stroke-miterlimit:4;stroke-dasharray:none;stroke-opacity:1" />
    <path
       sodipodi:nodetypes="cccc"
       inkscape:connector-curvature="0"
       id="path4562"
       d="m -19.432503,-14.293089 c 4.57076,2.957716 3.48092,7.233658 4.83737,10.939911 l 0.96747,-6.828141 c -1.8364,-2.910582 -2.1269,-3.631658 -5.80484,-4.11177 z"
       style="fill:#f78f04;fill-opacity:1;stroke:none;stroke-width:0.10000001;stroke-linecap:butt;stroke-linejoin:miter;stroke-miterlimit:4;stroke-dasharray:none;stroke-opacity:1" />
    <path
       sodipodi:nodetypes="cccc"
       inkscape:connector-curvature="0"
       id="path4562-7"
       d="m -16.623113,-7.185866 c 0.43002,3.955838 -0.0483,6.67447704 0.707,6.82814004 l 1.35819,-3.70245204 c -0.34252,-0.305525 -1.13968,-2.142234 -2.06519,-3.125688 z"
       style="fill:#f78f04;fill-opacity:1;stroke:none;stroke-width:0.10000001;stroke-linecap:butt;stroke-linejoin:miter;stroke-miterlimit:4;stroke-dasharray:none;stroke-opacity:1" />
    <path
       sodipodi:nodetypes="cccc"
       inkscape:connector-curvature="0"
       id="path4514"
       d="m -34.723133,-16.255282 c -1.55171,2.036275 -2.04014,4.01501 -1.63135,5.841233 l 2.97326,-2.183885 c -0.68459,-0.714897 -1.21595,-1.755383 -1.34191,-3.657348 z"
       style="fill:#dc4a04;fill-opacity:1;stroke:none;stroke-width:0.10000001;stroke-linecap:butt;stroke-linejoin:miter;stroke-miterlimit:4;stroke-dasharray:none;stroke-opacity:1" />
    <path
       sodipodi:nodetypes="cccc"
       inkscape:connector-curvature="0"
       id="path4549"
       d="m -28.224103,-9.440511 c 1.92792,-0.0021 3.93491,0.359387 5.63073,-0.710419 -0.88061,1.30066 -1.87682,2.214625 -3.73627,3.025862 z"
       style="fill:#ffffff;fill-opacity:1;stroke:none;stroke-width:0.10000001;stroke-linecap:butt;stroke-linejoin:miter;stroke-miterlimit:4;stroke-dasharray:none;stroke-opacity:1" />
    <path
       sodipodi:nodetypes="ccccc"
       inkscape:connector-curvature="0"
       id="path4547"
       d="m -28.013613,-12.255879 c 0.93956,0.587691 1.06136,1.405737 5.34131,1.052473 0.31421,0.332546 0.31705,0.684861 0.0789,1.052475 -1.46564,0.974797 -3.72003,1.038253 -5.48694,0.6543295 z"
       style="fill:#f25900;fill-opacity:1;stroke:none;stroke-width:0.10000001;stroke-linecap:butt;stroke-linejoin:miter;stroke-miterlimit:4;stroke-dasharray:none;stroke-opacity:1" />
    <path
       sodipodi:nodetypes="ccc"
       inkscape:connector-curvature="0"
       id="path4551"
       d="m -22.672303,-11.203405 c 0.32115,0.605362 0.004,0.897717 -0.19536,1.195391 1.11516,0.1488825 1.30231,-1.498113 0.19536,-1.195391 z"
       style="fill:#656465;fill-opacity:1;stroke:none;stroke-width:0.10000001;stroke-linecap:butt;stroke-linejoin:miter;stroke-miterlimit:4;stroke-dasharray:none;stroke-opacity:1" />
    <path
       id="path4619"
       d="m -9.7722576,-7.597843 c -0.3032504,-0.69864 -0.6309304,-1.388672 -1.1054704,-2.0273445 -0.57333,-0.7716315 -1.28502,-1.4953045 -2.16406,-2.1582025 -0.95553,1.692586 -1.54491,3.507989 -2.00977,5.283203 -0.46485,1.775213 -0.80496,3.509498 -1.26367,5.044921 -0.22936,0.76771104 -0.48797,1.48550404 -0.80664,2.13281304 -0.31867,0.64730796 -0.69746,1.22433296 -1.16602,1.71093696 -0.46855,0.486605 -1.02802,0.882372 -1.70703,1.167968 -0.679,0.285598 -1.47771,0.461572 -2.42773,0.50586 -1.13442,0.03885 -2.26664,-0.260463 -3.29492,-0.802735 -1.02829,-0.542272 -1.95214,-1.327304 -2.67188,-2.26171796 -0.71974,-0.934415 -1.23458,-2.01866904 -1.44336,-3.15625004 -0.10439,-0.568791 -0.13356,-1.150226 -0.0723,-1.734376 0.0613,-0.584149 0.21255,-1.170206 0.46484,-1.746093 1.84779,-0.09575 3.97842,-0.0167 5.16992,0.201172 -0.92047,-0.701371 -1.64272,-1.43851 -2.16015,-2.210937 -0.51744,-0.772429 -0.82993,-1.580282 -0.92774,-2.421874 -0.0978,-0.841593 0.019,-1.718087 0.35742,-2.626954 0.33841,-0.908867 0.89825,-1.849971 1.68946,-2.824219 -0.76814,0.223902 -1.53408,0.458538 -2.26368,0.81836 -0.72959,0.359822 -1.42282,0.844829 -2.04882,1.566406 -0.52703,-0.34418 -1.17262,-0.524247 -1.86914,-0.554688 -0.69653,-0.03044 -1.44383,0.08854 -2.17383,0.34375 -0.73,0.255215 -1.44285,0.647373 -2.07031,1.160157 -0.62747,0.512783 -1.16969,1.146404 -1.5586,1.888672 -0.25663,0.4390215 -0.47369,1.070802 -0.67969,1.722657 V 3.134578 c 0,3.08865 2.48557,5.574219 5.57422,5.574219 h 17.05274 c 3.08865,0 5.5761704,-2.485569 5.5761704,-5.574219 z"
       style="opacity:1;fill:#ef5a00;fill-opacity:1;fill-rule:evenodd;stroke:none;stroke-width:1.03534329;stroke-linecap:round;stroke-linejoin:bevel;stroke-miterlimit:4;stroke-dasharray:none;stroke-dashoffset:0;stroke-opacity:1"
       inkscape:connector-curvature="0" />
  </g>
</svg>
