<?xml version="1.0" encoding="UTF-8" standalone="no"?>
<svg
   xmlns:dc="http://purl.org/dc/elements/1.1/"
   xmlns:cc="http://creativecommons.org/ns#"
   xmlns:rdf="http://www.w3.org/1999/02/22-rdf-syntax-ns#"
   xmlns:svg="http://www.w3.org/2000/svg"
   xmlns="http://www.w3.org/2000/svg"
   xmlns:sodipodi="http://sodipodi.sourceforge.net/DTD/sodipodi-0.dtd"
   xmlns:inkscape="http://www.inkscape.org/namespaces/inkscape"
   height="32"
   width="32"
   version="1"
   id="svg20"
   sodipodi:docname="fontforge.svg"
   inkscape:version="0.92.1 r">
  <metadata
     id="metadata26">
    <rdf:RDF>
      <cc:Work
         rdf:about="">
        <dc:format>image/svg+xml</dc:format>
        <dc:type
           rdf:resource="http://purl.org/dc/dcmitype/StillImage" />
      </cc:Work>
    </rdf:RDF>
  </metadata>
  <defs
     id="defs24" />
  <sodipodi:namedview
     pagecolor="#ffffff"
     bordercolor="#666666"
     borderopacity="1"
     objecttolerance="10"
     gridtolerance="10"
     guidetolerance="10"
     inkscape:pageopacity="0"
     inkscape:pageshadow="2"
     inkscape:window-width="1680"
     inkscape:window-height="963"
     id="namedview22"
     showgrid="false"
     inkscape:zoom="7.375"
     inkscape:cx="-8.6779661"
     inkscape:cy="16"
     inkscape:window-x="0"
     inkscape:window-y="0"
     inkscape:window-maximized="1"
     inkscape:current-layer="svg20" />
  <rect
     style="opacity:1;fill:#cccccc;fill-opacity:1;fill-rule:evenodd;stroke:none;stroke-width:1.03534329;stroke-linecap:round;stroke-linejoin:bevel;stroke-miterlimit:4;stroke-dasharray:none;stroke-dashoffset:0;stroke-opacity:1"
     id="rect4497-3"
     width="28.203388"
     height="28.203388"
     x="1.8983059"
     y="1.8983059"
     ry="5.575182" />
  <g
     id="g4515"
     transform="translate(0.5)">
    <g
       id="g10">
      <path
         id="path6"
         style="fill:#404040;fill-opacity:1;enable-background:new"
         d="m 16.369141,9 c -1.849676,0 -2.973819,2.069019 -3.681641,3.908203 l -0.888672,2.701172 -1.130859,3.621094 C 10.316975,20.249382 10.069708,21.869213 9,22 8.5320799,22.05721 8.5522847,21 8,21 c -0.5522847,0 -1,0.447715 -1,1 0,0.552285 0.4477153,1 1,1 h 0.6308594 c 2.1388996,0 3.3587316,-2.690808 4.2753906,-5.652344 l 0.513672,-1.671875 0.820312,-2.638672 C 14.663611,11.946361 14.839858,10.15182 16,10 c 0.467419,-0.061168 0.447715,1 1,1 0.552285,0 1,-0.447715 1,-1 0,-0.5522847 -0.447715,-1 -1,-1 z"
         inkscape:connector-curvature="0" />
      <rect
         id="rect8"
         style="opacity:1;fill:#404040;fill-opacity:1"
         width="8"
         height="1"
         x="9"
         y="14" />
    </g>
    <g
       id="g16"
       transform="translate(6)">
      <path
         id="path12"
         d="m 16.369141,9 c -1.849676,0 -2.973819,2.069019 -3.681641,3.908203 l -0.888672,2.701172 -1.130859,3.621094 C 10.316975,20.249382 10.069708,21.869213 9,22 8.5320799,22.05721 8.5522847,21 8,21 c -0.5522847,0 -1,0.447715 -1,1 0,0.552285 0.4477153,1 1,1 h 0.6308594 c 2.1388996,0 3.3587316,-2.690808 4.2753906,-5.652344 l 0.513672,-1.671875 0.820312,-2.638672 C 14.663611,11.946361 14.839858,10.15182 16,10 c 0.467419,-0.061168 0.447715,1 1,1 0.552285,0 1,-0.447715 1,-1 0,-0.5522847 -0.447715,-1 -1,-1 z"
         style="fill:#404040;fill-opacity:1;enable-background:new"
         inkscape:connector-curvature="0" />
      <rect
         id="rect14"
         y="14"
         x="9"
         height="1"
         width="8"
         style="opacity:1;fill:#404040;fill-opacity:1" />
    </g>
  </g>
</svg>
