<?xml version="1.0" encoding="UTF-8" standalone="no"?>
<svg
   xmlns:dc="http://purl.org/dc/elements/1.1/"
   xmlns:cc="http://creativecommons.org/ns#"
   xmlns:rdf="http://www.w3.org/1999/02/22-rdf-syntax-ns#"
   xmlns:svg="http://www.w3.org/2000/svg"
   xmlns="http://www.w3.org/2000/svg"
   xmlns:sodipodi="http://sodipodi.sourceforge.net/DTD/sodipodi-0.dtd"
   xmlns:inkscape="http://www.inkscape.org/namespaces/inkscape"
   height="32"
   width="32"
   version="1"
   id="svg34"
   sodipodi:docname="freeplane.svg"
   inkscape:version="0.92.1 r">
  <metadata
     id="metadata40">
    <rdf:RDF>
      <cc:Work
         rdf:about="">
        <dc:format>image/svg+xml</dc:format>
        <dc:type
           rdf:resource="http://purl.org/dc/dcmitype/StillImage" />
      </cc:Work>
    </rdf:RDF>
  </metadata>
  <defs
     id="defs38" />
  <sodipodi:namedview
     pagecolor="#ffffff"
     bordercolor="#666666"
     borderopacity="1"
     objecttolerance="10"
     gridtolerance="10"
     guidetolerance="10"
     inkscape:pageopacity="0"
     inkscape:pageshadow="2"
     inkscape:window-width="640"
     inkscape:window-height="480"
     id="namedview36"
     showgrid="false"
     inkscape:zoom="12.462757"
     inkscape:cx="-1.1594978"
     inkscape:cy="16.62939"
     inkscape:current-layer="svg34" />
  <rect
     style="opacity:1;fill:#3f3f3f;fill-opacity:1;fill-rule:evenodd;stroke:none;stroke-width:1.03534329;stroke-linecap:round;stroke-linejoin:bevel;stroke-miterlimit:4;stroke-dasharray:none;stroke-dashoffset:0;stroke-opacity:1"
     id="rect4497-3-3"
     width="28.203388"
     height="28.203388"
     x="1.8983059"
     y="1.8983059"
     ry="5.575182" />
  <g
     id="g4636"
     transform="translate(52.199199,-2.0429713)">
    <path
       id="path4530"
       d="m -36.025391,18.908203 a 2.4570148,2.4570148 0 0 0 -0.173828,0.0059 2.4570148,2.4570148 0 0 0 -0.24414,0.0293 2.4570148,2.4570148 0 0 0 -0.238282,0.05469 2.4570148,2.4570148 0 0 0 -0.234375,0.07813 2.4570148,2.4570148 0 0 0 -0.224609,0.09961 2.4570148,2.4570148 0 0 0 -0.212891,0.123047 2.4570148,2.4570148 0 0 0 -0.199218,0.142578 2.4570148,2.4570148 0 0 0 -0.183594,0.16211 2.4570148,2.4570148 0 0 0 -0.167969,0.179687 2.4570148,2.4570148 0 0 0 -0.148437,0.195313 2.4570148,2.4570148 0 0 0 -0.128907,0.208984 2.4570148,2.4570148 0 0 0 -0.107421,0.220703 2.4570148,2.4570148 0 0 0 -0.08398,0.230469 2.4570148,2.4570148 0 0 0 -0.06055,0.238281 2.4570148,2.4570148 0 0 0 -0.03711,0.244141 2.4570148,2.4570148 0 0 0 -0.01172,0.24414 2.4570148,2.4570148 0 0 0 0.0059,0.173828 2.4570148,2.4570148 0 0 0 0.0293,0.244141 2.4570148,2.4570148 0 0 0 0.05469,0.240235 2.4570148,2.4570148 0 0 0 0.07813,0.232421 2.4570148,2.4570148 0 0 0 0.09961,0.22461 2.4570148,2.4570148 0 0 0 0.121094,0.21289 2.4570148,2.4570148 0 0 0 0.144531,0.199219 2.4570148,2.4570148 0 0 0 0.16211,0.185547 2.4570148,2.4570148 0 0 0 0.179687,0.166016 2.4570148,2.4570148 0 0 0 0.195313,0.148437 2.4570148,2.4570148 0 0 0 0.208984,0.128906 2.4570148,2.4570148 0 0 0 0.220703,0.107422 2.4570148,2.4570148 0 0 0 0.230469,0.08398 2.4570148,2.4570148 0 0 0 0.238281,0.06055 2.4570148,2.4570148 0 0 0 0.242188,0.03711 2.4570148,2.4570148 0 0 0 0.246093,0.01172 2.4570148,2.4570148 0 0 0 0.173829,-0.0059 2.4570148,2.4570148 0 0 0 0.24414,-0.0293 2.4570148,2.4570148 0 0 0 0.240234,-0.05469 2.4570148,2.4570148 0 0 0 0.232422,-0.07617 2.4570148,2.4570148 0 0 0 0.22461,-0.101562 2.4570148,2.4570148 0 0 0 0.21289,-0.121094 2.4570148,2.4570148 0 0 0 0.199219,-0.142578 2.4570148,2.4570148 0 0 0 0.183594,-0.16211 2.4570148,2.4570148 0 0 0 0.167969,-0.179687 2.4570148,2.4570148 0 0 0 0.148437,-0.197266 2.4570148,2.4570148 0 0 0 0.128906,-0.208984 2.4570148,2.4570148 0 0 0 0.107422,-0.220703 2.4570148,2.4570148 0 0 0 0.08398,-0.230469 2.4570148,2.4570148 0 0 0 0.06055,-0.238281 2.4570148,2.4570148 0 0 0 0.03711,-0.242188 2.4570148,2.4570148 0 0 0 0.01172,-0.246094 2.4570148,2.4570148 0 0 0 -0.0059,-0.173828 2.4570148,2.4570148 0 0 0 -0.0293,-0.24414 2.4570148,2.4570148 0 0 0 -0.05469,-0.238282 2.4570148,2.4570148 0 0 0 -0.07617,-0.234375 2.4570148,2.4570148 0 0 0 -0.101563,-0.222656 2.4570148,2.4570148 0 0 0 -0.121093,-0.214844 2.4570148,2.4570148 0 0 0 -0.144531,-0.199218 2.4570148,2.4570148 0 0 0 -0.16211,-0.183594 2.4570148,2.4570148 0 0 0 -0.179687,-0.167969 2.4570148,2.4570148 0 0 0 -0.195313,-0.148437 2.4570148,2.4570148 0 0 0 -0.208984,-0.128907 2.4570148,2.4570148 0 0 0 -0.220703,-0.107422 2.4570148,2.4570148 0 0 0 -0.230469,-0.08398 2.4570148,2.4570148 0 0 0 -0.238281,-0.06055 2.4570148,2.4570148 0 0 0 -0.242188,-0.03711 2.4570148,2.4570148 0 0 0 -0.246094,-0.01172 z"
       style="opacity:1;fill:#3f3f3f;fill-opacity:1;fill-rule:evenodd;stroke:none;stroke-width:1.03534329;stroke-linecap:round;stroke-linejoin:bevel;stroke-miterlimit:4;stroke-dasharray:none;stroke-dashoffset:0;stroke-opacity:1"
       inkscape:connector-curvature="0" />
    <path
       id="path4533"
       d="m -27.671875,14.976562 a 1.9656119,1.9656119 0 0 0 -0.138672,0.0059 1.9656119,1.9656119 0 0 0 -0.195312,0.02344 1.9656119,1.9656119 0 0 0 -0.191407,0.04297 1.9656119,1.9656119 0 0 0 -0.185546,0.0625 1.9656119,1.9656119 0 0 0 -0.179688,0.08008 1.9656119,1.9656119 0 0 0 -0.171875,0.09766 1.9656119,1.9656119 0 0 0 -0.158203,0.113282 1.9656119,1.9656119 0 0 0 -0.148438,0.130859 1.9656119,1.9656119 0 0 0 -0.134765,0.142578 1.9656119,1.9656119 0 0 0 -0.117188,0.158203 A 1.9656119,1.9656119 0 0 0 -29.396484,16 a 1.9656119,1.9656119 0 0 0 -0.08594,0.177734 1.9656119,1.9656119 0 0 0 -0.06641,0.183594 1.9656119,1.9656119 0 0 0 -0.04883,0.191406 1.9656119,1.9656119 0 0 0 -0.0293,0.19336 1.9656119,1.9656119 0 0 0 -0.0098,0.197265 1.9656119,1.9656119 0 0 0 0.0039,0.138672 1.9656119,1.9656119 0 0 0 0.02344,0.195313 1.9656119,1.9656119 0 0 0 0.04297,0.191406 1.9656119,1.9656119 0 0 0 0.0625,0.185547 1.9656119,1.9656119 0 0 0 0.08008,0.179687 1.9656119,1.9656119 0 0 0 0.09766,0.171875 1.9656119,1.9656119 0 0 0 0.115234,0.158203 1.9656119,1.9656119 0 0 0 0.128907,0.148438 1.9656119,1.9656119 0 0 0 0.144531,0.134766 1.9656119,1.9656119 0 0 0 0.15625,0.117187 1.9656119,1.9656119 0 0 0 0.167969,0.103516 1.9656119,1.9656119 0 0 0 0.175781,0.08594 1.9656119,1.9656119 0 0 0 0.185547,0.06641 1.9656119,1.9656119 0 0 0 0.189453,0.04883 1.9656119,1.9656119 0 0 0 0.195312,0.0293 1.9656119,1.9656119 0 0 0 0.195313,0.0098 1.9656119,1.9656119 0 0 0 0.138672,-0.0039 1.9656119,1.9656119 0 0 0 0.195312,-0.02344 1.9656119,1.9656119 0 0 0 0.191407,-0.04492 1.9656119,1.9656119 0 0 0 0.1875,-0.06055 1.9656119,1.9656119 0 0 0 0.179687,-0.08008 1.9656119,1.9656119 0 0 0 0.169922,-0.09766 1.9656119,1.9656119 0 0 0 0.160156,-0.115234 1.9656119,1.9656119 0 0 0 0.146485,-0.128906 1.9656119,1.9656119 0 0 0 0.134765,-0.144532 1.9656119,1.9656119 0 0 0 0.119141,-0.15625 1.9656119,1.9656119 0 0 0 0.101562,-0.167968 1.9656119,1.9656119 0 0 0 0.08594,-0.175782 1.9656119,1.9656119 0 0 0 0.06836,-0.185546 1.9656119,1.9656119 0 0 0 0.04883,-0.189454 1.9656119,1.9656119 0 0 0 0.0293,-0.195312 1.9656119,1.9656119 0 0 0 0.0098,-0.195313 1.9656119,1.9656119 0 0 0 -0.0059,-0.138671 1.9656119,1.9656119 0 0 0 -0.02344,-0.195313 1.9656119,1.9656119 0 0 0 -0.04297,-0.191406 1.9656119,1.9656119 0 0 0 -0.0625,-0.1875 1.9656119,1.9656119 0 0 0 -0.08008,-0.179688 1.9656119,1.9656119 0 0 0 -0.09766,-0.169922 1.9656119,1.9656119 0 0 0 -0.113281,-0.160156 1.9656119,1.9656119 0 0 0 -0.13086,-0.146484 1.9656119,1.9656119 0 0 0 -0.142578,-0.134766 1.9656119,1.9656119 0 0 0 -0.158203,-0.119141 1.9656119,1.9656119 0 0 0 -0.166016,-0.101562 1.9656119,1.9656119 0 0 0 -0.177734,-0.08594 1.9656119,1.9656119 0 0 0 -0.183594,-0.06836 1.9656119,1.9656119 0 0 0 -0.191406,-0.04883 1.9656119,1.9656119 0 0 0 -0.193359,-0.0293 1.9656119,1.9656119 0 0 0 -0.197266,-0.0098 z"
       style="opacity:1;fill:#3f3f3f;fill-opacity:1;fill-rule:evenodd;stroke:none;stroke-width:1.03534329;stroke-linecap:round;stroke-linejoin:bevel;stroke-miterlimit:4;stroke-dasharray:none;stroke-dashoffset:0;stroke-opacity:1"
       inkscape:connector-curvature="0" />
    <path
       id="path4536"
       d="m -26.689453,12.029297 a 3.9312239,3.9312239 0 0 0 -0.277344,0.0098 3.9312239,3.9312239 0 0 0 -0.390625,0.04688 3.9312239,3.9312239 0 0 0 -0.382812,0.08594 3.9312239,3.9312239 0 0 0 -0.373047,0.125 3.9312239,3.9312239 0 0 0 -0.359375,0.160156 3.9312239,3.9312239 0 0 0 -0.339844,0.195313 3.9312239,3.9312239 0 0 0 -0.320312,0.228515 3.9312239,3.9312239 0 0 0 -0.294922,0.259766 3.9312239,3.9312239 0 0 0 -0.267578,0.287109 3.9312239,3.9312239 0 0 0 -0.238282,0.3125 3.9312239,3.9312239 0 0 0 -0.205078,0.335938 3.9312239,3.9312239 0 0 0 -0.169922,0.353516 3.9312239,3.9312239 0 0 0 -0.134765,0.36914 3.9312239,3.9312239 0 0 0 -0.09766,0.38086 3.9312239,3.9312239 0 0 0 -0.05859,0.388671 3.9312239,3.9312239 0 0 0 -0.01953,0.392579 3.9312239,3.9312239 0 0 0 0.0098,0.277343 3.9312239,3.9312239 0 0 0 0.04687,0.390625 3.9312239,3.9312239 0 0 0 0.08594,0.382813 3.9312239,3.9312239 0 0 0 0.123046,0.373047 3.9312239,3.9312239 0 0 0 0.16211,0.359375 3.9312239,3.9312239 0 0 0 0.195312,0.339843 3.9312239,3.9312239 0 0 0 0.228516,0.320313 3.9312239,3.9312239 0 0 0 0.259766,0.294922 3.9312239,3.9312239 0 0 0 0.287109,0.267578 3.9312239,3.9312239 0 0 0 0.3125,0.238281 3.9312239,3.9312239 0 0 0 0.333984,0.205078 3.9312239,3.9312239 0 0 0 0.355469,0.169922 3.9312239,3.9312239 0 0 0 0.369141,0.134766 3.9312239,3.9312239 0 0 0 0.380859,0.09766 3.9312239,3.9312239 0 0 0 0.386719,0.05859 3.9312239,3.9312239 0 0 0 0.392578,0.01953 3.9312239,3.9312239 0 0 0 0.279297,-0.0098 3.9312239,3.9312239 0 0 0 0.390625,-0.04687 3.9312239,3.9312239 0 0 0 0.382812,-0.08594 3.9312239,3.9312239 0 0 0 0.373047,-0.123047 3.9312239,3.9312239 0 0 0 0.357422,-0.162109 3.9312239,3.9312239 0 0 0 0.341797,-0.195313 3.9312239,3.9312239 0 0 0 0.320312,-0.228516 3.9312239,3.9312239 0 0 0 0.294922,-0.259765 3.9312239,3.9312239 0 0 0 0.267578,-0.287109 3.9312239,3.9312239 0 0 0 0.238282,-0.3125 3.9312239,3.9312239 0 0 0 0.205078,-0.333985 3.9312239,3.9312239 0 0 0 0.169922,-0.355469 3.9312239,3.9312239 0 0 0 0.134765,-0.36914 3.9312239,3.9312239 0 0 0 0.09766,-0.38086 3.9312239,3.9312239 0 0 0 0.05859,-0.386718 3.9312239,3.9312239 0 0 0 0.01953,-0.392578 3.9312239,3.9312239 0 0 0 -0.0098,-0.279297 3.9312239,3.9312239 0 0 0 -0.04687,-0.390625 3.9312239,3.9312239 0 0 0 -0.08594,-0.382813 3.9312239,3.9312239 0 0 0 -0.125,-0.373047 3.9312239,3.9312239 0 0 0 -0.160156,-0.357422 3.9312239,3.9312239 0 0 0 -0.195312,-0.341796 3.9312239,3.9312239 0 0 0 -0.228516,-0.320313 3.9312239,3.9312239 0 0 0 -0.259766,-0.294922 3.9312239,3.9312239 0 0 0 -0.287109,-0.267578 3.9312239,3.9312239 0 0 0 -0.3125,-0.238281 3.9312239,3.9312239 0 0 0 -0.335938,-0.205078 3.9312239,3.9312239 0 0 0 -0.353515,-0.169922 3.9312239,3.9312239 0 0 0 -0.369141,-0.134766 3.9312239,3.9312239 0 0 0 -0.380859,-0.09766 3.9312239,3.9312239 0 0 0 -0.388672,-0.05859 3.9312239,3.9312239 0 0 0 -0.392578,-0.01953 z m -0.982422,2.947265 a 1.9656119,1.9656119 0 0 1 0.197266,0.0098 1.9656119,1.9656119 0 0 1 0.193359,0.0293 1.9656119,1.9656119 0 0 1 0.191406,0.04883 1.9656119,1.9656119 0 0 1 0.183594,0.06836 1.9656119,1.9656119 0 0 1 0.177734,0.08594 1.9656119,1.9656119 0 0 1 0.166016,0.101562 1.9656119,1.9656119 0 0 1 0.158203,0.119141 1.9656119,1.9656119 0 0 1 0.142578,0.134766 1.9656119,1.9656119 0 0 1 0.13086,0.146484 1.9656119,1.9656119 0 0 1 0.113281,0.160156 1.9656119,1.9656119 0 0 1 0.09766,0.169922 1.9656119,1.9656119 0 0 1 0.08008,0.179688 1.9656119,1.9656119 0 0 1 0.0625,0.1875 1.9656119,1.9656119 0 0 1 0.04297,0.191406 1.9656119,1.9656119 0 0 1 0.02344,0.195313 1.9656119,1.9656119 0 0 1 0.0059,0.138671 1.9656119,1.9656119 0 0 1 -0.0098,0.195313 1.9656119,1.9656119 0 0 1 -0.0293,0.195312 1.9656119,1.9656119 0 0 1 -0.04883,0.189454 1.9656119,1.9656119 0 0 1 -0.06836,0.185546 1.9656119,1.9656119 0 0 1 -0.08594,0.175782 1.9656119,1.9656119 0 0 1 -0.101562,0.167968 1.9656119,1.9656119 0 0 1 -0.119141,0.15625 1.9656119,1.9656119 0 0 1 -0.134765,0.144532 1.9656119,1.9656119 0 0 1 -0.146485,0.128906 1.9656119,1.9656119 0 0 1 -0.160156,0.115234 1.9656119,1.9656119 0 0 1 -0.169922,0.09766 1.9656119,1.9656119 0 0 1 -0.179687,0.08008 1.9656119,1.9656119 0 0 1 -0.1875,0.06055 1.9656119,1.9656119 0 0 1 -0.191407,0.04492 1.9656119,1.9656119 0 0 1 -0.195312,0.02344 1.9656119,1.9656119 0 0 1 -0.138672,0.0039 1.9656119,1.9656119 0 0 1 -0.195313,-0.0098 1.9656119,1.9656119 0 0 1 -0.195312,-0.0293 1.9656119,1.9656119 0 0 1 -0.189453,-0.04883 1.9656119,1.9656119 0 0 1 -0.185547,-0.06641 1.9656119,1.9656119 0 0 1 -0.175781,-0.08594 1.9656119,1.9656119 0 0 1 -0.167969,-0.103516 1.9656119,1.9656119 0 0 1 -0.15625,-0.117187 1.9656119,1.9656119 0 0 1 -0.144531,-0.134766 1.9656119,1.9656119 0 0 1 -0.128907,-0.148438 1.9656119,1.9656119 0 0 1 -0.115234,-0.158203 1.9656119,1.9656119 0 0 1 -0.09766,-0.171875 1.9656119,1.9656119 0 0 1 -0.08008,-0.179687 1.9656119,1.9656119 0 0 1 -0.0625,-0.185547 1.9656119,1.9656119 0 0 1 -0.04297,-0.191406 1.9656119,1.9656119 0 0 1 -0.02344,-0.195313 1.9656119,1.9656119 0 0 1 -0.0039,-0.138672 1.9656119,1.9656119 0 0 1 0.0098,-0.197265 1.9656119,1.9656119 0 0 1 0.0293,-0.19336 1.9656119,1.9656119 0 0 1 0.04883,-0.191406 1.9656119,1.9656119 0 0 1 0.06641,-0.183594 1.9656119,1.9656119 0 0 1 0.08594,-0.177734 1.9656119,1.9656119 0 0 1 0.103515,-0.166016 1.9656119,1.9656119 0 0 1 0.117188,-0.158203 1.9656119,1.9656119 0 0 1 0.134765,-0.142578 1.9656119,1.9656119 0 0 1 0.148438,-0.130859 1.9656119,1.9656119 0 0 1 0.158203,-0.113282 1.9656119,1.9656119 0 0 1 0.171875,-0.09766 1.9656119,1.9656119 0 0 1 0.179688,-0.08008 1.9656119,1.9656119 0 0 1 0.185546,-0.0625 1.9656119,1.9656119 0 0 1 0.191407,-0.04297 1.9656119,1.9656119 0 0 1 0.195312,-0.02344 1.9656119,1.9656119 0 0 1 0.138672,-0.0059 z"
       style="opacity:1;fill:#ffffff;fill-opacity:1;fill-rule:evenodd;stroke:none;stroke-width:1.03534329;stroke-linecap:round;stroke-linejoin:bevel;stroke-miterlimit:4;stroke-dasharray:none;stroke-dashoffset:0;stroke-opacity:1"
       inkscape:connector-curvature="0" />
    <path
       id="path4539"
       d="m -30.597656,16.333984 a 5.4054322,5.4054322 0 0 0 -0.210938,-0.294922 5.4054322,5.4054322 0 0 0 -0.355468,-0.404296 5.4054322,5.4054322 0 0 0 -0.396485,-0.369141 5.4054322,5.4054322 0 0 0 -0.429687,-0.326172 5.4054322,5.4054322 0 0 0 -0.460938,-0.283203 5.4054322,5.4054322 0 0 0 -0.486328,-0.234375 5.4054322,5.4054322 0 0 0 -0.507812,-0.185547 5.4054322,5.4054322 0 0 0 -0.523438,-0.134766 5.4054322,5.4054322 0 0 0 -0.533203,-0.08008 5.4054322,5.4054322 0 0 0 -0.541016,-0.02734 5.4054322,5.4054322 0 0 0 -0.382812,0.01367 5.4054322,5.4054322 0 0 0 -0.535157,0.06445 5.4054322,5.4054322 0 0 0 -0.527343,0.11914 5.4054322,5.4054322 0 0 0 -0.513672,0.169922 5.4054322,5.4054322 0 0 0 -0.492188,0.220703 5.4054322,5.4054322 0 0 0 -0.46875,0.269531 5.4054322,5.4054322 0 0 0 -0.439453,0.314454 5.4054322,5.4054322 0 0 0 -0.40625,0.355468 5.4054322,5.4054322 0 0 0 -0.36914,0.396485 5.4054322,5.4054322 0 0 0 -0.326172,0.429687 5.4054322,5.4054322 0 0 0 -0.283203,0.460938 5.4054322,5.4054322 0 0 0 -0.234375,0.486328 5.4054322,5.4054322 0 0 0 -0.185547,0.507812 5.4054322,5.4054322 0 0 0 -0.132813,0.523438 5.4054322,5.4054322 0 0 0 -0.08203,0.533203 5.4054322,5.4054322 0 0 0 -0.02539,0.541016 5.4054322,5.4054322 0 0 0 0.01367,0.382812 5.4054322,5.4054322 0 0 0 0.06445,0.535156 5.4054322,5.4054322 0 0 0 0.119141,0.527344 5.4054322,5.4054322 0 0 0 0.169922,0.513672 5.4054322,5.4054322 0 0 0 0.220703,0.492187 5.4054322,5.4054322 0 0 0 0.267578,0.46875 5.4054322,5.4054322 0 0 0 0.314453,0.439454 5.4054322,5.4054322 0 0 0 0.357422,0.40625 5.4054322,5.4054322 0 0 0 0.394531,0.36914 5.4054322,5.4054322 0 0 0 0.431641,0.326172 5.4054322,5.4054322 0 0 0 0.458984,0.283203 5.4054322,5.4054322 0 0 0 0.486328,0.234375 5.4054322,5.4054322 0 0 0 0.507813,0.185547 5.4054322,5.4054322 0 0 0 0.523437,0.132813 5.4054322,5.4054322 0 0 0 0.535157,0.08203 5.4054322,5.4054322 0 0 0 0.539062,0.02539 5.4054322,5.4054322 0 0 0 0.382813,-0.01367 5.4054322,5.4054322 0 0 0 0.537109,-0.06445 5.4054322,5.4054322 0 0 0 0.527344,-0.11914 5.4054322,5.4054322 0 0 0 0.511719,-0.169922 5.4054322,5.4054322 0 0 0 0.49414,-0.220703 5.4054322,5.4054322 0 0 0 0.46875,-0.267578 5.4054322,5.4054322 0 0 0 0.439453,-0.314453 5.4054322,5.4054322 0 0 0 0.404297,-0.357422 5.4054322,5.4054322 0 0 0 0.369141,-0.394532 5.4054322,5.4054322 0 0 0 0.326172,-0.43164 5.4054322,5.4054322 0 0 0 0.283203,-0.458984 5.4054322,5.4054322 0 0 0 0.234375,-0.486329 5.4054322,5.4054322 0 0 0 0.185547,-0.507812 5.4054322,5.4054322 0 0 0 0.134765,-0.523438 5.4054322,5.4054322 0 0 0 0.08008,-0.535156 5.4054322,5.4054322 0 0 0 0.02734,-0.539062 5.4054322,5.4054322 0 0 0 -0.01367,-0.382813 5.4054322,5.4054322 0 0 0 -0.06445,-0.537109 5.4054322,5.4054322 0 0 0 -0.0059,-0.02148 3.9312239,3.9312239 0 0 1 -0.04687,-0.05469 3.9312239,3.9312239 0 0 1 -0.228516,-0.320313 3.9312239,3.9312239 0 0 1 -0.195312,-0.339843 3.9312239,3.9312239 0 0 1 -0.16211,-0.359375 3.9312239,3.9312239 0 0 1 -0.123046,-0.373047 3.9312239,3.9312239 0 0 1 -0.08594,-0.382813 3.9312239,3.9312239 0 0 1 -0.03516,-0.294922 z m -5.427735,2.574219 a 2.4570148,2.4570148 0 0 1 0.246094,0.01172 2.4570148,2.4570148 0 0 1 0.242188,0.03711 2.4570148,2.4570148 0 0 1 0.238281,0.06055 2.4570148,2.4570148 0 0 1 0.230469,0.08398 2.4570148,2.4570148 0 0 1 0.220703,0.107422 2.4570148,2.4570148 0 0 1 0.208984,0.128907 2.4570148,2.4570148 0 0 1 0.195313,0.148437 2.4570148,2.4570148 0 0 1 0.179687,0.167969 2.4570148,2.4570148 0 0 1 0.16211,0.183594 2.4570148,2.4570148 0 0 1 0.144531,0.199218 2.4570148,2.4570148 0 0 1 0.121093,0.214844 2.4570148,2.4570148 0 0 1 0.101563,0.222656 2.4570148,2.4570148 0 0 1 0.07617,0.234375 2.4570148,2.4570148 0 0 1 0.05469,0.238282 2.4570148,2.4570148 0 0 1 0.0293,0.24414 2.4570148,2.4570148 0 0 1 0.0059,0.173828 2.4570148,2.4570148 0 0 1 -0.01172,0.246094 2.4570148,2.4570148 0 0 1 -0.03711,0.242188 2.4570148,2.4570148 0 0 1 -0.06055,0.238281 2.4570148,2.4570148 0 0 1 -0.08398,0.230469 2.4570148,2.4570148 0 0 1 -0.107422,0.220703 2.4570148,2.4570148 0 0 1 -0.128906,0.208984 2.4570148,2.4570148 0 0 1 -0.148437,0.197266 2.4570148,2.4570148 0 0 1 -0.167969,0.179687 2.4570148,2.4570148 0 0 1 -0.183594,0.16211 2.4570148,2.4570148 0 0 1 -0.199219,0.142578 2.4570148,2.4570148 0 0 1 -0.21289,0.121094 2.4570148,2.4570148 0 0 1 -0.22461,0.101562 2.4570148,2.4570148 0 0 1 -0.232422,0.07617 2.4570148,2.4570148 0 0 1 -0.240234,0.05469 2.4570148,2.4570148 0 0 1 -0.24414,0.0293 2.4570148,2.4570148 0 0 1 -0.173829,0.0059 2.4570148,2.4570148 0 0 1 -0.246093,-0.01172 2.4570148,2.4570148 0 0 1 -0.242188,-0.03711 2.4570148,2.4570148 0 0 1 -0.238281,-0.06055 2.4570148,2.4570148 0 0 1 -0.230469,-0.08398 2.4570148,2.4570148 0 0 1 -0.220703,-0.107422 2.4570148,2.4570148 0 0 1 -0.208984,-0.128906 2.4570148,2.4570148 0 0 1 -0.195313,-0.148437 2.4570148,2.4570148 0 0 1 -0.179687,-0.166016 2.4570148,2.4570148 0 0 1 -0.16211,-0.185547 2.4570148,2.4570148 0 0 1 -0.144531,-0.199219 2.4570148,2.4570148 0 0 1 -0.121094,-0.21289 2.4570148,2.4570148 0 0 1 -0.09961,-0.22461 2.4570148,2.4570148 0 0 1 -0.07813,-0.232421 2.4570148,2.4570148 0 0 1 -0.05469,-0.240235 2.4570148,2.4570148 0 0 1 -0.0293,-0.244141 2.4570148,2.4570148 0 0 1 -0.0059,-0.173828 2.4570148,2.4570148 0 0 1 0.01172,-0.24414 2.4570148,2.4570148 0 0 1 0.03711,-0.244141 2.4570148,2.4570148 0 0 1 0.06055,-0.238281 2.4570148,2.4570148 0 0 1 0.08398,-0.230469 2.4570148,2.4570148 0 0 1 0.107421,-0.220703 2.4570148,2.4570148 0 0 1 0.128907,-0.208984 2.4570148,2.4570148 0 0 1 0.148437,-0.195313 2.4570148,2.4570148 0 0 1 0.167969,-0.179687 2.4570148,2.4570148 0 0 1 0.183594,-0.16211 2.4570148,2.4570148 0 0 1 0.199218,-0.142578 2.4570148,2.4570148 0 0 1 0.212891,-0.123047 2.4570148,2.4570148 0 0 1 0.224609,-0.09961 2.4570148,2.4570148 0 0 1 0.234375,-0.07813 2.4570148,2.4570148 0 0 1 0.238282,-0.05469 2.4570148,2.4570148 0 0 1 0.24414,-0.0293 2.4570148,2.4570148 0 0 1 0.173828,-0.0059 z"
       style="opacity:1;fill:#ffffff;fill-opacity:1;fill-rule:evenodd;stroke:none;stroke-width:1.03534329;stroke-linecap:round;stroke-linejoin:bevel;stroke-miterlimit:4;stroke-dasharray:none;stroke-dashoffset:0;stroke-opacity:1"
       inkscape:connector-curvature="0" />
    <path
       id="path4542"
       d="m -48.986328,30.048828 c 0.311685,0.135348 0.610996,0.374768 0.919922,0.460938 0.469814,0.131046 0.93024,0.200403 1.36914,0.191406 0.438901,-0.009 0.855989,-0.09657 1.234375,-0.277344 0.756773,-0.361555 1.464656,-0.828493 2.095703,-1.365234 0.631048,-0.536741 1.184938,-1.142803 1.636719,-1.779297 0.451781,-0.636494 0.800559,-1.30403 1.019531,-1.964844 0.218973,-0.660814 0.307612,-1.314126 0.240235,-1.923828 -0.06738,-0.609701 -0.283403,-1.117876 -0.619141,-1.513672 -0.335738,-0.395796 -0.789987,-0.679179 -1.330078,-0.841797 -0.54009,-0.162618 -1.167221,-0.205067 -1.847656,-0.115234 -0.680436,0.08983 -1.415102,0.312273 -2.171875,0.673828 -0.756772,0.361556 -1.637102,0.594481 -2.527344,0.779297 -0.45891,0.09527 -0.885181,0.171595 -1.333984,0.251953 v 3.943359 c 0,1.340908 0.531124,2.520516 1.314453,3.480469 z"
       style="opacity:1;fill:#cccccc;fill-opacity:1;fill-rule:evenodd;stroke:none;stroke-width:1.03534329;stroke-linecap:round;stroke-linejoin:bevel;stroke-miterlimit:4;stroke-dasharray:none;stroke-dashoffset:0;stroke-opacity:1"
       inkscape:connector-curvature="0" />
    <path
       id="path4545"
       d="m -38.482422,25.789062 c 0,0.723718 0.440932,1.705937 1.152344,2.507813 0.355706,0.400938 0.777722,0.756247 1.248047,1.011719 0.470325,0.255471 0.988461,0.410156 1.53125,0.410156 1.085576,0 2.067885,-0.326695 2.779297,-0.654297 0.711411,-0.327602 1.152343,-0.65625 1.152343,-0.65625 0,0 -0.584406,0.04832 -1.449218,-0.0098 -0.864813,-0.05809 -2.011495,-0.221676 -3.138672,-0.644532 -1.192347,-0.447304 -3.275391,-1.964844 -3.275391,-1.964844 z"
       style="opacity:1;fill:#3f3f3f;fill-opacity:1;fill-rule:evenodd;stroke:none;stroke-width:1.03534329;stroke-linecap:round;stroke-linejoin:bevel;stroke-miterlimit:4;stroke-dasharray:none;stroke-dashoffset:0;stroke-opacity:1"
       inkscape:connector-curvature="0" />
    <path
       id="path4561"
       d="m -41.1875,31.414062 c -1.31645,-0.260937 -2.53019,-0.770026 -3.679688,-1.376953 -0.0054,0.0031 -0.01027,0.0067 -0.01562,0.0098 0.347684,0.183433 0.670454,0.406803 1.035156,0.560547 0.823622,0.347207 1.688628,0.616141 2.585937,0.798828 0.02397,0.0049 0.0502,0.0031 0.07422,0.0078 z"
       style="opacity:1;fill:#3f3f3f;fill-opacity:1;fill-rule:evenodd;stroke:none;stroke-width:1.03534329;stroke-linecap:round;stroke-linejoin:bevel;stroke-miterlimit:4;stroke-dasharray:none;stroke-dashoffset:0;stroke-opacity:1"
       inkscape:connector-curvature="0" />
    <path
       id="path4559"
       d="m -38.75,23.324219 a 20.64191,20.654612 0 0 0 -0.126953,0.216797 20.64191,20.654612 0 0 0 -0.861328,1.876953 20.64191,20.654612 0 0 0 -0.671875,1.953125 20.64191,20.654612 0 0 0 -0.470703,2.009765 20.64191,20.654612 0 0 0 -0.267579,2.03711 c 0.863204,0.168489 1.752034,0.267578 2.666016,0.267578 0.95283,0 1.881988,-0.09661 2.779297,-0.279297 0.897309,-0.182687 1.762316,-0.451621 2.585937,-0.798828 0.823623,-0.347207 1.606123,-0.772065 2.337891,-1.265625 0.731768,-0.493561 1.413409,-1.055986 2.035156,-1.677735 0.621748,-0.621747 1.184174,-1.303388 1.677735,-2.035156 0.49356,-0.731768 0.918418,-1.514268 1.265625,-2.33789 0.347207,-0.823622 0.616141,-1.688629 0.798828,-2.585938 0.08281,-0.406733 0.08066,-0.840605 0.126953,-1.259766 a 3.9312239,3.9312239 0 0 1 -0.03125,0.01758 3.9312239,3.9312239 0 0 1 -0.357422,0.162109 3.9312239,3.9312239 0 0 1 -0.373047,0.123047 3.9312239,3.9312239 0 0 1 -0.382812,0.08594 3.9312239,3.9312239 0 0 1 -0.390625,0.04687 3.9312239,3.9312239 0 0 1 -0.279297,0.0098 3.9312239,3.9312239 0 0 1 -0.392578,-0.01953 3.9312239,3.9312239 0 0 1 -0.386719,-0.05859 3.9312239,3.9312239 0 0 1 -0.380859,-0.09766 3.9312239,3.9312239 0 0 1 -0.369141,-0.134766 3.9312239,3.9312239 0 0 1 -0.355469,-0.169922 3.9312239,3.9312239 0 0 1 -0.333984,-0.205078 3.9312239,3.9312239 0 0 1 -0.3125,-0.238281 3.9312239,3.9312239 0 0 1 -0.287109,-0.267578 3.9312239,3.9312239 0 0 1 -0.212891,-0.240235 5.4054322,5.4054322 0 0 1 0.0059,0.02148 5.4054322,5.4054322 0 0 1 0.06445,0.537109 5.4054322,5.4054322 0 0 1 0.01367,0.382813 5.4054322,5.4054322 0 0 1 -0.02734,0.539062 5.4054322,5.4054322 0 0 1 -0.08008,0.535156 5.4054322,5.4054322 0 0 1 -0.134765,0.523438 5.4054322,5.4054322 0 0 1 -0.185547,0.507812 5.4054322,5.4054322 0 0 1 -0.234375,0.486329 5.4054322,5.4054322 0 0 1 -0.283203,0.458984 5.4054322,5.4054322 0 0 1 -0.326172,0.43164 5.4054322,5.4054322 0 0 1 -0.369141,0.394532 5.4054322,5.4054322 0 0 1 -0.404297,0.357422 5.4054322,5.4054322 0 0 1 -0.439453,0.314453 5.4054322,5.4054322 0 0 1 -0.46875,0.267578 5.4054322,5.4054322 0 0 1 -0.49414,0.220703 5.4054322,5.4054322 0 0 1 -0.511719,0.169922 5.4054322,5.4054322 0 0 1 -0.527344,0.11914 5.4054322,5.4054322 0 0 1 -0.537109,0.06445 5.4054322,5.4054322 0 0 1 -0.382813,0.01367 5.4054322,5.4054322 0 0 1 -0.539062,-0.02539 5.4054322,5.4054322 0 0 1 -0.535157,-0.08203 5.4054322,5.4054322 0 0 1 -0.523437,-0.132813 5.4054322,5.4054322 0 0 1 -0.507813,-0.185547 5.4054322,5.4054322 0 0 1 -0.486328,-0.234375 5.4054322,5.4054322 0 0 1 -0.458984,-0.283203 5.4054322,5.4054322 0 0 1 -0.431641,-0.326172 A 5.4054322,5.4054322 0 0 1 -38.75,23.324219 Z m 0.267578,2.464843 c 0,0 2.083044,1.51754 3.275391,1.964844 1.127177,0.422856 2.273859,0.586444 3.138672,0.644532 0.864812,0.05809 1.449218,0.0098 1.449218,0.0098 0,0 -0.440932,0.328648 -1.152343,0.65625 -0.711412,0.327602 -1.693721,0.654297 -2.779297,0.654297 -0.542789,0 -1.060925,-0.154685 -1.53125,-0.410156 -0.470325,-0.255472 -0.892341,-0.610781 -1.248047,-1.011719 -0.711412,-0.801876 -1.152344,-1.784095 -1.152344,-2.507813 z"
       style="opacity:1;fill:#fead38;fill-opacity:1;fill-rule:evenodd;stroke:none;stroke-width:1.03534329;stroke-linecap:round;stroke-linejoin:bevel;stroke-miterlimit:4;stroke-dasharray:none;stroke-dashoffset:0;stroke-opacity:1"
       inkscape:connector-curvature="0" />
    <path
       id="path4557"
       d="m -30.494141,14.994141 a 20.64191,20.654612 0 0 0 -0.826171,0.49414 5.4054322,5.4054322 0 0 1 0.15625,0.146485 5.4054322,5.4054322 0 0 1 0.355468,0.404296 5.4054322,5.4054322 0 0 1 0.210938,0.294922 3.9312239,3.9312239 0 0 1 -0.01172,-0.0957 3.9312239,3.9312239 0 0 1 -0.0098,-0.277343 3.9312239,3.9312239 0 0 1 0.01953,-0.392579 3.9312239,3.9312239 0 0 1 0.05859,-0.388671 3.9312239,3.9312239 0 0 1 0.04687,-0.185547 z"
       style="opacity:1;fill:#3f3f3f;fill-opacity:1;fill-rule:evenodd;stroke:none;stroke-width:1.03534329;stroke-linecap:round;stroke-linejoin:bevel;stroke-miterlimit:4;stroke-dasharray:none;stroke-dashoffset:0;stroke-opacity:1"
       inkscape:connector-curvature="0" />
    <path
       id="path4555"
       d="m -26.488281,11.291016 c 0.141025,0.255324 0.261745,0.52198 0.386719,0.787109 a 3.9312239,3.9312239 0 0 1 0.04297,0.0059 c -0.128411,-0.273566 -0.291665,-0.525112 -0.429687,-0.792968 z"
       style="opacity:1;fill:#3f3f3f;fill-opacity:1;fill-rule:evenodd;stroke:none;stroke-width:1.03534329;stroke-linecap:round;stroke-linejoin:bevel;stroke-miterlimit:4;stroke-dasharray:none;stroke-dashoffset:0;stroke-opacity:1"
       inkscape:connector-curvature="0" />
    <path
       id="path4553"
       d="m -27.9375,9.1640625 c 0.375123,0.4514866 0.743374,0.9086325 1.058594,1.4062495 -0.06823,-0.112173 -0.114168,-0.23893 -0.1875,-0.347656 -0.256539,-0.3803515 -0.578686,-0.706698 -0.871094,-1.0585935 z"
       style="opacity:1;fill:#3f3f3f;fill-opacity:1;fill-rule:evenodd;stroke:none;stroke-width:1.03534329;stroke-linecap:round;stroke-linejoin:bevel;stroke-miterlimit:4;stroke-dasharray:none;stroke-dashoffset:0;stroke-opacity:1"
       inkscape:connector-curvature="0" />
    <path
       id="path4551"
       d="m -28.371094,8.640625 a 20.64191,20.654612 0 0 0 -1.980468,0.4550781 20.64191,20.654612 0 0 0 -1.953126,0.6621094 20.64191,20.654612 0 0 0 -1.878906,0.8535155 20.64191,20.654612 0 0 0 -1.785156,1.03711 20.64191,20.654612 0 0 0 -1.671875,1.210937 20.64191,20.654612 0 0 0 -1.541016,1.371094 20.64191,20.654612 0 0 0 -1.398437,1.517578 20.64191,20.654612 0 0 0 -1.240234,1.650391 20.64191,20.654612 0 0 0 -1.06836,1.765624 20.64191,20.654612 0 0 0 -0.851562,1.789063 c 0.462516,-0.01094 0.934376,-0.03417 1.320312,0.08203 0.540091,0.162618 0.99434,0.446001 1.330078,0.841797 0.335738,0.395796 0.551763,0.903971 0.619141,1.513672 0.06738,0.609702 -0.02126,1.263014 -0.240235,1.923828 -0.218972,0.660814 -0.56775,1.32835 -1.019531,1.964844 -0.451781,0.636494 -1.005671,1.242556 -1.636719,1.779297 -0.451857,0.38433 -0.978892,0.679894 -1.5,0.978515 1.149498,0.606927 2.363238,1.116016 3.679688,1.376953 0.01264,0.0025 0.02642,0.0014 0.03906,0.0039 a 20.64191,20.654612 0 0 1 0.267579,-2.03711 20.64191,20.654612 0 0 1 0.470703,-2.009765 20.64191,20.654612 0 0 1 0.671875,-1.953125 20.64191,20.654612 0 0 1 0.861328,-1.876953 20.64191,20.654612 0 0 1 0.126953,-0.216797 5.4054322,5.4054322 0 0 1 -0.169922,-0.158203 5.4054322,5.4054322 0 0 1 -0.357422,-0.40625 5.4054322,5.4054322 0 0 1 -0.314453,-0.439454 5.4054322,5.4054322 0 0 1 -0.267578,-0.46875 5.4054322,5.4054322 0 0 1 -0.220703,-0.492187 5.4054322,5.4054322 0 0 1 -0.169922,-0.513672 5.4054322,5.4054322 0 0 1 -0.119141,-0.527344 5.4054322,5.4054322 0 0 1 -0.06445,-0.535156 5.4054322,5.4054322 0 0 1 -0.01367,-0.382812 5.4054322,5.4054322 0 0 1 0.02539,-0.541016 5.4054322,5.4054322 0 0 1 0.08203,-0.533203 5.4054322,5.4054322 0 0 1 0.132813,-0.523438 5.4054322,5.4054322 0 0 1 0.185547,-0.507812 5.4054322,5.4054322 0 0 1 0.234375,-0.486328 5.4054322,5.4054322 0 0 1 0.283203,-0.460938 5.4054322,5.4054322 0 0 1 0.326172,-0.429687 5.4054322,5.4054322 0 0 1 0.36914,-0.396485 5.4054322,5.4054322 0 0 1 0.40625,-0.355468 5.4054322,5.4054322 0 0 1 0.439453,-0.314454 5.4054322,5.4054322 0 0 1 0.46875,-0.269531 5.4054322,5.4054322 0 0 1 0.492188,-0.220703 5.4054322,5.4054322 0 0 1 0.513672,-0.169922 5.4054322,5.4054322 0 0 1 0.527343,-0.11914 5.4054322,5.4054322 0 0 1 0.535157,-0.06445 5.4054322,5.4054322 0 0 1 0.382812,-0.01367 5.4054322,5.4054322 0 0 1 0.541016,0.02734 5.4054322,5.4054322 0 0 1 0.533203,0.08008 5.4054322,5.4054322 0 0 1 0.523438,0.134766 5.4054322,5.4054322 0 0 1 0.507812,0.185547 5.4054322,5.4054322 0 0 1 0.486328,0.234375 5.4054322,5.4054322 0 0 1 0.460938,0.283203 5.4054322,5.4054322 0 0 1 0.429687,0.326172 5.4054322,5.4054322 0 0 1 0.240235,0.222656 20.64191,20.654612 0 0 1 0.826171,-0.49414 3.9312239,3.9312239 0 0 1 0.05078,-0.195313 3.9312239,3.9312239 0 0 1 0.134765,-0.36914 3.9312239,3.9312239 0 0 1 0.169922,-0.353516 3.9312239,3.9312239 0 0 1 0.205078,-0.335938 3.9312239,3.9312239 0 0 1 0.238282,-0.3125 3.9312239,3.9312239 0 0 1 0.267578,-0.287109 3.9312239,3.9312239 0 0 1 0.294922,-0.259766 3.9312239,3.9312239 0 0 1 0.320312,-0.228515 3.9312239,3.9312239 0 0 1 0.339844,-0.195313 3.9312239,3.9312239 0 0 1 0.359375,-0.160156 3.9312239,3.9312239 0 0 1 0.373047,-0.125 3.9312239,3.9312239 0 0 1 0.382812,-0.08594 3.9312239,3.9312239 0 0 1 0.390625,-0.04688 3.9312239,3.9312239 0 0 1 0.277344,-0.0098 3.9312239,3.9312239 0 0 1 0.392578,0.01953 3.9312239,3.9312239 0 0 1 0.195313,0.0293 c -0.124974,-0.265129 -0.245694,-0.531785 -0.386719,-0.787109 -0.125451,-0.24346 -0.249014,-0.487903 -0.390625,-0.720704 -0.31522,-0.497617 -0.683471,-0.9547629 -1.058594,-1.4062495 -0.144975,-0.1744683 -0.280295,-0.3564683 -0.433594,-0.5234375 z"
       style="opacity:1;fill:#3f3f3f;fill-opacity:1;fill-rule:evenodd;stroke:none;stroke-width:1.03534329;stroke-linecap:round;stroke-linejoin:bevel;stroke-miterlimit:4;stroke-dasharray:none;stroke-dashoffset:0;stroke-opacity:1"
       inkscape:connector-curvature="0" />
    <path
       id="path4609"
       d="m -46.611328,21.646484 c 0.05255,-0.02341 0.120432,-0.02816 0.171875,-0.05273 0.756773,-0.361555 1.491439,-0.583996 2.171875,-0.673828 0.194212,-0.02564 0.342601,0.03757 0.527344,0.0332 a 20.64191,20.654612 0 0 1 0.851562,-1.789063 20.64191,20.654612 0 0 1 1.06836,-1.765624 20.64191,20.654612 0 0 1 1.240234,-1.650391 20.64191,20.654612 0 0 1 1.398437,-1.517578 20.64191,20.654612 0 0 1 1.541016,-1.371094 20.64191,20.654612 0 0 1 1.671875,-1.210937 20.64191,20.654612 0 0 1 1.785156,-1.03711 20.64191,20.654612 0 0 1 1.878906,-0.8535155 20.64191,20.654612 0 0 1 1.953126,-0.6621094 20.64191,20.654612 0 0 1 1.980468,-0.4550781 C -28.50347,8.4964444 -28.605784,8.3258566 -28.744141,8.1875 -29.349853,7.5817873 -30.016192,7.0370202 -30.726562,6.5527344 a 21.003038,21.015963 0 0 0 -1.22461,0.2734375 21.003038,21.015963 0 0 0 -1.992187,0.6621093 21.003038,21.015963 0 0 0 -1.917969,0.8554688 21.003038,21.015963 0 0 0 -1.822266,1.0449219 21.003038,21.015963 0 0 0 -1.707031,1.2207031 21.003038,21.015963 0 0 0 -1.580078,1.384766 21.003038,21.015963 0 0 0 -1.431641,1.535156 21.003038,21.015963 0 0 0 -1.271484,1.671875 21.003038,21.015963 0 0 0 -1.09961,1.789062 21.003038,21.015963 0 0 0 -0.914062,1.892578 21.003038,21.015963 0 0 0 -0.720703,1.972657 21.003038,21.015963 0 0 0 -0.203125,0.791015 z"
       style="opacity:1;fill:#fead38;fill-opacity:1;fill-rule:evenodd;stroke:none;stroke-width:1.03534329;stroke-linecap:round;stroke-linejoin:bevel;stroke-miterlimit:4;stroke-dasharray:none;stroke-dashoffset:0;stroke-opacity:1"
       inkscape:connector-curvature="0" />
    <path
       id="path4607"
       d="m -40.421875,4.3613281 c -0.276724,0.039193 -0.568709,0.028783 -0.839844,0.083984 -0.897309,0.1826867 -1.762315,0.4516212 -2.585937,0.7988281 -0.823622,0.3472069 -1.606123,0.7720645 -2.337891,1.265625 -0.731768,0.4935605 -1.413409,1.0559868 -2.035156,1.6777344 -0.621748,0.6217476 -1.184172,1.3033886 -1.677735,2.0351564 -0.157054,0.232853 -0.259481,0.50136 -0.402343,0.744141 v 4.865234 a 21.003038,21.015963 0 0 1 0.46289,-1.248047 21.003038,21.015963 0 0 1 0.925782,-1.886718 21.003038,21.015963 0 0 1 1.107421,-1.783204 21.003038,21.015963 0 0 1 1.28125,-1.6640624 21.003038,21.015963 0 0 1 1.439454,-1.5292969 21.003038,21.015963 0 0 1 1.585937,-1.3769531 21.003038,21.015963 0 0 1 1.714844,-1.2109375 21.003038,21.015963 0 0 1 1.361328,-0.771484 z"
       style="opacity:1;fill:#fead38;fill-opacity:1;fill-rule:evenodd;stroke:none;stroke-width:1.03534329;stroke-linecap:round;stroke-linejoin:bevel;stroke-miterlimit:4;stroke-dasharray:none;stroke-dashoffset:0;stroke-opacity:1"
       inkscape:connector-curvature="0" />
    <path
       id="path4548"
       d="M -40.421875,4.3613281 A 21.003038,21.015963 0 0 0 -41.783203,5.1328125 21.003038,21.015963 0 0 0 -43.498047,6.34375 21.003038,21.015963 0 0 0 -45.083984,7.7207031 21.003038,21.015963 0 0 0 -46.523438,9.25 a 21.003038,21.015963 0 0 0 -1.28125,1.664062 21.003038,21.015963 0 0 0 -1.107421,1.783204 21.003038,21.015963 0 0 0 -0.925782,1.886718 21.003038,21.015963 0 0 0 -0.46289,1.248047 V 22.625 c 0.448803,-0.08036 0.875074,-0.156683 1.333984,-0.251953 0.829726,-0.172253 1.634973,-0.405536 2.355469,-0.726563 a 21.003038,21.015963 0 0 1 0.203125,-0.791015 21.003038,21.015963 0 0 1 0.720703,-1.972657 21.003038,21.015963 0 0 1 0.914062,-1.892578 21.003038,21.015963 0 0 1 1.09961,-1.789062 21.003038,21.015963 0 0 1 1.271484,-1.671875 21.003038,21.015963 0 0 1 1.431641,-1.535156 21.003038,21.015963 0 0 1 1.580078,-1.384766 21.003038,21.015963 0 0 1 1.707031,-1.2207031 21.003038,21.015963 0 0 1 1.822266,-1.0449219 21.003038,21.015963 0 0 1 1.917969,-0.8554688 21.003038,21.015963 0 0 1 1.992187,-0.6621093 21.003038,21.015963 0 0 1 1.22461,-0.2734375 c -0.01881,-0.01282 -0.03386,-0.03024 -0.05273,-0.042969 -0.731768,-0.4935605 -1.514267,-0.9184181 -2.337891,-1.265625 -0.823621,-0.3472069 -1.688628,-0.6161414 -2.585937,-0.7988281 -0.897309,-0.1826867 -1.826467,-0.2792969 -2.779297,-0.2792969 -0.664919,0 -1.300368,0.1047986 -1.939453,0.1953125 z"
       style="opacity:1;fill:#3f3f3f;fill-opacity:1;fill-rule:evenodd;stroke:none;stroke-width:1.03534329;stroke-linecap:round;stroke-linejoin:bevel;stroke-miterlimit:4;stroke-dasharray:none;stroke-dashoffset:0;stroke-opacity:1"
       inkscape:connector-curvature="0" />
    <path
       id="path4568"
       d="m -38.082031,4.2070312 c -0.06569,-0.00192 -0.121578,-0.034157 -0.1875,-0.035156 a 20.64191,20.654612 0 0 0 -0.0293,0.011719 c 0.07413,9.923e-4 0.142961,0.021281 0.216797,0.023437 z"
       style="opacity:1;fill:#3f3f3f;fill-opacity:1;fill-rule:evenodd;stroke:none;stroke-width:1.03534329;stroke-linecap:round;stroke-linejoin:bevel;stroke-miterlimit:4;stroke-dasharray:none;stroke-dashoffset:0;stroke-opacity:1"
       inkscape:connector-curvature="0" />
    <path
       id="path4566"
       d="m -33.570312,5.1035156 c -0.06575,-0.025161 -0.115402,-0.077384 -0.181641,-0.1015625 -0.115254,-0.042069 -0.25245,-0.029302 -0.369141,-0.068359 0.181957,0.060743 0.372347,0.1018747 0.550782,0.1699215 z"
       style="opacity:1;fill:#3f3f3f;fill-opacity:1;fill-rule:evenodd;stroke:none;stroke-width:1.03534329;stroke-linecap:round;stroke-linejoin:bevel;stroke-miterlimit:4;stroke-dasharray:none;stroke-dashoffset:0;stroke-opacity:1"
       inkscape:connector-curvature="0" />
    <path
       id="path4564"
       d="m -29.960938,7.1855469 a 20.64191,20.654612 0 0 1 0.07031,-0.011719 c -0.07786,-0.062206 -0.182489,-0.085946 -0.261719,-0.1464843 0.0659,0.05038 0.126458,0.1066623 0.191406,0.1582031 z"
       style="opacity:1;fill:#3f3f3f;fill-opacity:1;fill-rule:evenodd;stroke:none;stroke-width:1.03534329;stroke-linecap:round;stroke-linejoin:bevel;stroke-miterlimit:4;stroke-dasharray:none;stroke-dashoffset:0;stroke-opacity:1"
       inkscape:connector-curvature="0" />
    <path
       id="rect4497-3"
       d="m -44.724609,3.9414062 c -3.088651,0 -5.576172,2.485568 -5.576172,5.5742188 v 1.451172 c 0.142862,-0.242781 0.245289,-0.511288 0.402343,-0.744141 0.493561,-0.7317676 1.055987,-1.4134084 1.677735,-2.035156 0.621747,-0.6217476 1.303388,-1.1841739 2.035156,-1.6777344 0.731768,-0.4935605 1.514269,-0.9184181 2.337891,-1.265625 0.823622,-0.3472069 1.688628,-0.6161414 2.585937,-0.7988281 0.89731,-0.1826867 1.826467,-0.2792969 2.779297,-0.2792969 0.06291,0 0.120891,0.016739 0.183594,0.017578 a 20.64191,20.654612 0 0 1 0.0293,-0.011719 c 0.06592,9.99e-4 0.121815,0.033239 0.1875,0.035156 0.809553,0.023642 1.61089,0.081918 2.378906,0.2382813 0.548916,0.111756 1.059371,0.3137996 1.582031,0.4882813 0.116691,0.039057 0.253887,0.02629 0.369141,0.068359 0.06624,0.024179 0.115888,0.076401 0.181641,0.1015625 0.146873,0.056011 0.308746,0.079761 0.453124,0.140625 0.823623,0.3472069 1.606123,0.7720645 2.337891,1.265625 0.225559,0.1521342 0.411206,0.3526375 0.626953,0.5175782 0.07923,0.060538 0.183858,0.084279 0.261719,0.1464843 a 20.64191,20.654612 0 0 0 -0.07031,0.011719 c 0.412261,0.3271549 0.845234,0.630389 1.216797,1.0019531 0.621748,0.6217476 1.184174,1.3033884 1.677735,2.0351557 0.392967,0.582626 0.706447,1.219302 1.007812,1.861328 a 3.9312239,3.9312239 0 0 1 0.150391,0.02344 3.9312239,3.9312239 0 0 1 0.380859,0.09766 3.9312239,3.9312239 0 0 1 0.369141,0.134766 3.9312239,3.9312239 0 0 1 0.353515,0.169922 3.9312239,3.9312239 0 0 1 0.335938,0.205078 3.9312239,3.9312239 0 0 1 0.3125,0.238281 3.9312239,3.9312239 0 0 1 0.287109,0.267578 3.9312239,3.9312239 0 0 1 0.259766,0.294922 3.9312239,3.9312239 0 0 1 0.228516,0.320313 3.9312239,3.9312239 0 0 1 0.195312,0.341796 3.9312239,3.9312239 0 0 1 0.160156,0.357422 3.9312239,3.9312239 0 0 1 0.125,0.373047 3.9312239,3.9312239 0 0 1 0.08594,0.382813 3.9312239,3.9312239 0 0 1 0.04687,0.390625 3.9312239,3.9312239 0 0 1 0.0098,0.279297 3.9312239,3.9312239 0 0 1 -0.01953,0.392578 3.9312239,3.9312239 0 0 1 -0.05859,0.386718 3.9312239,3.9312239 0 0 1 -0.09766,0.38086 3.9312239,3.9312239 0 0 1 -0.134765,0.36914 3.9312239,3.9312239 0 0 1 -0.169922,0.355469 3.9312239,3.9312239 0 0 1 -0.205078,0.333985 3.9312239,3.9312239 0 0 1 -0.238282,0.3125 3.9312239,3.9312239 0 0 1 -0.267578,0.287109 3.9312239,3.9312239 0 0 1 -0.294922,0.259765 3.9312239,3.9312239 0 0 1 -0.320312,0.228516 3.9312239,3.9312239 0 0 1 -0.310547,0.177734 c -0.04629,0.419161 -0.04415,0.853033 -0.126953,1.259766 -0.182687,0.897309 -0.451621,1.762316 -0.798828,2.585938 -0.347207,0.823622 -0.772065,1.606122 -1.265625,2.33789 -0.493561,0.731768 -1.055987,1.41341 -1.677735,2.035156 -0.621747,0.621749 -1.303388,1.184174 -2.035156,1.677735 -0.731768,0.49356 -1.514268,0.918418 -2.337891,1.265625 -0.823621,0.347207 -1.688628,0.616141 -2.585937,0.798828 -0.897309,0.182687 -1.826467,0.279297 -2.779297,0.279297 -0.95283,0 -1.881987,-0.09661 -2.779297,-0.279297 -0.897309,-0.182687 -1.762315,-0.451621 -2.585937,-0.798828 -0.364702,-0.153744 -0.687472,-0.377114 -1.035156,-0.560547 -0.201246,0.115374 -0.370763,0.276951 -0.580079,0.376953 -0.378386,0.180778 -0.795474,0.268346 -1.234375,0.277344 -0.4389,0.009 -0.899326,-0.06036 -1.36914,-0.191406 -0.308926,-0.08617 -0.608237,-0.32559 -0.919922,-0.460938 1.020994,1.251206 2.513975,2.095703 4.261719,2.095703 h 17.052734 c 3.088651,0 5.574219,-2.487521 5.574219,-5.576172 V 9.515625 c 0,-3.0886508 -2.485568,-5.5742188 -5.574219,-5.5742188 z"
       style="opacity:1;fill:#3f3f3f;fill-opacity:1;fill-rule:evenodd;stroke:none;stroke-width:1.03534329;stroke-linecap:round;stroke-linejoin:bevel;stroke-miterlimit:4;stroke-dasharray:none;stroke-dashoffset:0;stroke-opacity:1"
       inkscape:connector-curvature="0" />
  </g>
</svg>
