<?xml version="1.0" encoding="UTF-8" standalone="no"?>
<svg
   xmlns:dc="http://purl.org/dc/elements/1.1/"
   xmlns:cc="http://creativecommons.org/ns#"
   xmlns:rdf="http://www.w3.org/1999/02/22-rdf-syntax-ns#"
   xmlns:svg="http://www.w3.org/2000/svg"
   xmlns="http://www.w3.org/2000/svg"
   xmlns:sodipodi="http://sodipodi.sourceforge.net/DTD/sodipodi-0.dtd"
   xmlns:inkscape="http://www.inkscape.org/namespaces/inkscape"
   height="32"
   width="32"
   version="1"
   id="svg33"
   sodipodi:docname="freeciv-server.svg"
   inkscape:version="0.92.1 r">
  <metadata
     id="metadata37">
    <rdf:RDF>
      <cc:Work
         rdf:about="">
        <dc:format>image/svg+xml</dc:format>
        <dc:type
           rdf:resource="http://purl.org/dc/dcmitype/StillImage" />
      </cc:Work>
    </rdf:RDF>
  </metadata>
  <sodipodi:namedview
     pagecolor="#ffffff"
     bordercolor="#666666"
     borderopacity="1"
     objecttolerance="10"
     gridtolerance="10"
     guidetolerance="10"
     inkscape:pageopacity="0"
     inkscape:pageshadow="2"
     inkscape:window-width="640"
     inkscape:window-height="480"
     id="namedview35"
     showgrid="false"
     inkscape:zoom="25.279067"
     inkscape:cx="13.305458"
     inkscape:cy="13.042862"
     inkscape:current-layer="svg33" />
  <defs
     id="defs5">
    <clipPath
       id="clipPath4186"
       clipPathUnits="userSpaceOnUse">
      <circle
         cx="286"
         cy="26"
         r="10"
         style="fill:url(#linearGradient4190)"
         id="circle2" />
    </clipPath>
    <clipPath
       id="clipPath4186-3"
       clipPathUnits="userSpaceOnUse">
      <circle
         cx="286"
         cy="26"
         r="10"
         style="fill:url(#linearGradient4190)"
         id="circle2-6" />
    </clipPath>
    <clipPath
       id="clipPath4503"
       clipPathUnits="userSpaceOnUse">
      <circle
         cx="286"
         cy="26"
         r="10"
         style="fill:url(#linearGradient4190)"
         id="circle4501" />
    </clipPath>
    <clipPath
       id="clipPath4186-3-3"
       clipPathUnits="userSpaceOnUse">
      <circle
         cx="286"
         cy="26"
         r="10"
         style="fill:url(#linearGradient4190)"
         id="circle2-6-6" />
    </clipPath>
    <clipPath
       id="clipPath4511"
       clipPathUnits="userSpaceOnUse">
      <circle
         cx="286"
         cy="26"
         r="10"
         style="fill:url(#linearGradient4190)"
         id="circle4509" />
    </clipPath>
  </defs>
  <rect
     style="opacity:1;fill:#cba606;fill-opacity:1;fill-rule:evenodd;stroke:none;stroke-width:1.03534329;stroke-linecap:round;stroke-linejoin:bevel;stroke-miterlimit:4;stroke-dasharray:none;stroke-dashoffset:0;stroke-opacity:1"
     id="rect4497-3"
     width="28.203388"
     height="28.203388"
     x="1.898306"
     y="1.8983059"
     ry="5.575182" />
  <circle
     style="color:#000000;opacity:0;stroke-width:1.05676711"
     clip-path="url(#clipPath4186-3)"
     r="10"
     transform="matrix(1.3247951,0,0,1.3247951,-362.8914,-18.444674)"
     cy="26"
     cx="286"
     id="circle9-7" />
  <circle
     style="fill:#cba606;stroke-width:1.62026858;stroke-linecap:round;stroke-linejoin:round"
     cx="15.999996"
     cy="15.999999"
     r="13.247952"
     id="circle11-5" />
  <circle
     style="color:#000000;opacity:0;stroke-width:1.05676711"
     clip-path="url(#clipPath4186-3)"
     r="10"
     transform="matrix(1.3247951,0,0,1.3247951,-362.8914,-18.444674)"
     cy="26"
     cx="286"
     id="circle15-3" />
  <circle
     r="11.355387"
     cy="15.999999"
     cx="15.999996"
     style="fill:#e4d487;stroke-width:1.38880181;stroke-linecap:round;stroke-linejoin:round"
     id="circle17-5" />
  <path
     style="opacity:1;stroke-width:0.99999994;fill:#897f51;fill-opacity:1"
     d="M 14.927481,4.7055904 A 11.355387,11.355387 0 0 0 10.817966,5.897679 c 0.05735,0.181743 -0.0096,0.3867645 -0.218592,0.5677693 -0.141373,0.1225252 -0.257199,0.313352 -0.257199,0.4247483 0,0.3404913 0.307731,0.8632934 0.553575,0.9392609 0.326468,0.101063 0.216889,0.4494462 -0.203261,0.6419204 -0.194178,0.089133 -0.433209,0.3457716 -0.530865,0.5700396 -0.09822,0.2248372 -0.2424366,0.4462665 -0.3207895,0.4922559 -0.077786,0.046559 -0.1419429,0.2219985 -0.1419429,0.3906261 0,0.2356245 0.1078701,0.3497465 0.4615974,0.4911195 0.253225,0.101625 0.556414,0.175442 0.673942,0.164087 0.676213,-0.06359 0.723338,0.330441 0.13229,1.100336 -0.313976,0.408795 -0.465003,0.511561 -0.679052,0.459894 -0.199287,-0.04769 -0.3082984,0.0085 -0.3991411,0.206099 -0.095392,0.209508 -0.2520901,0.280479 -0.6728079,0.309435 -0.4139029,0.02895 -0.5989964,0.112984 -0.753997,0.339526 -0.1135501,0.165221 -0.2770716,0.299215 -0.3639403,0.299215 -0.087095,0 -0.2916064,0.111276 -0.4546697,0.246411 -0.3318045,0.275369 -0.4613694,0.303189 -0.5777054,0.123202 -0.1537519,-0.238463 -0.4854995,-0.1181 -0.9791749,0.354855 -0.4366147,0.417878 -0.489474,0.529729 -0.4236128,0.892534 0.1171869,0.645553 0.467331,1.218433 0.8671541,1.418287 0.3488942,0.174305 0.3557075,0.193042 0.1441567,0.416743 -0.1216732,0.128884 -0.3304418,0.266852 -0.4635269,0.307164 -0.3843799,0.116955 -0.168003,0.263445 0.5178624,0.350881 0.7019901,0.08915 0.920127,0.3435 0.5921834,0.690407 -0.1828785,0.193609 -0.1726018,0.229946 0.1208777,0.413904 0.5734471,0.359965 1.02948,0.139671 0.491234,-0.237327 -0.3459419,-0.242438 -0.1040149,-0.34123 0.4036847,-0.165221 0.4048199,0.140239 0.4848743,0.132289 0.7239054,-0.07551 0.4911212,-0.425259 1.0248236,0.20383 0.5757184,0.678486 -0.2855885,0.302621 -0.1992873,0.667127 0.1708983,0.71766 0.1635182,0.02215 0.5030439,0.174305 0.7551339,0.33839 0.252089,0.163518 0.526889,0.298079 0.609784,0.298079 0.08289,0 0.316816,0.166357 0.520077,0.369618 0.412201,0.411633 0.641012,0.463867 0.757405,0.173737 0.13967,-0.34861 0.08345,-0.528593 -0.29297,-0.939091 -0.299215,-0.327035 -0.785793,-1.195722 -0.785793,-1.404093 0,-0.128316 0.494528,-0.0193 0.771599,0.169764 0.173169,0.118664 0.453648,0.271393 0.62341,0.34066 0.180551,0.07382 0.367915,0.303189 0.453648,0.554143 0.133426,0.394032 0.186229,0.428098 0.658613,0.428098 h 0.513263 l 0.07779,0.922626 c 0.09312,1.109989 0.182253,1.334825 0.563226,1.426237 0.280479,0.06757 0.579693,0.501907 0.579693,0.841433 0,0.09028 -0.201558,0.311707 -0.447971,0.491689 -0.30546,0.223133 -0.437182,0.412768 -0.416742,0.598429 0.02553,0.232217 -0.02726,0.268554 -0.355991,0.24414 -0.211779,-0.0159 -0.579693,0.05848 -0.815885,0.165221 -0.27991,0.126041 -0.583099,0.166357 -0.867552,0.115259 -0.327035,-0.05848 -0.43775,-0.03578 -0.43775,0.09197 0,0.09425 -0.114694,0.270257 -0.254361,0.391761 -0.345203,0.299214 -0.202693,0.457621 0.327603,0.362236 0.329307,-0.05905 0.457623,-0.03292 0.514399,0.109014 0.12094,0.301485 -0.18566,0.732989 -0.470112,0.662018 -0.180551,-0.04542 -0.266852,0.01646 -0.323061,0.229379 -0.0193,0.07552 -0.05506,0.139671 -0.09765,0.194178 a 11.355387,11.355387 0 0 0 1.79699,0.530863 c -0.05678,-0.108448 -0.121505,-0.207235 -0.184525,-0.251522 -0.292401,-0.206667 -0.09652,-0.743778 0.306028,-0.840298 0.410497,-0.0988 0.345771,-0.365076 -0.100494,-0.416175 -0.391193,-0.04428 -0.807368,-0.440589 -0.676781,-0.643283 0.088,-0.135696 0.462164,-0.115825 1.219001,0.06359 0.341797,0.08063 0.57515,-0.08176 1.367188,-0.948176 0.45819,-0.501907 0.810775,-0.710846 1.197426,-0.710846 0.147619,0 0.673942,-0.135698 1.170172,-0.301487 0.93682,-0.313976 1.303031,-0.302621 1.268398,0.03975 -0.07154,0.711984 0.38665,0.688136 1.133267,-0.05791 0.311137,-0.310569 0.595589,-0.535406 0.632494,-0.500204 0.142511,0.136832 -0.114115,0.802825 -0.413903,1.072516 -0.379837,0.341798 -0.398574,0.55755 -0.06415,0.728448 0.182821,0.09425 0.260605,0.284452 0.289562,0.711982 l 0.0386,0.583668 h 0.474655 c 0.166357,0 0.304325,0.02271 0.415607,0.06529 a 11.355387,11.355387 0 0 0 5.501686,-9.371599 c -0.173738,-0.371322 -0.161247,-0.595591 0,-0.848248 a 11.355387,11.355387 0 0 0 -0.0511,-0.63647 c -0.103334,-0.005 -0.20894,-0.0096 -0.330442,-0.0045 -0.572312,0.02385 -1.062297,-0.201558 -1.062297,-0.48885 0,-0.06075 -0.203262,-0.311137 -0.451377,-0.555845 -0.281613,-0.277072 -0.425826,-0.522348 -0.383812,-0.649529 0.0386,-0.115825 -0.04428,-0.302622 -0.190771,-0.429234 -0.142509,-0.123779 -0.25947,-0.322493 -0.25947,-0.441725 0,-0.190203 -0.120939,-0.214049 -0.995867,-0.193042 l -0.995868,0.02442 0.01704,0.981673 c 0.02952,1.719207 0.285588,2.165473 1.075355,1.877614 0.361669,-0.132289 1.250228,-0.03237 1.502886,0.16806 0.09141,0.07267 0.223701,0.33612 0.293536,0.585938 0.0704,0.249251 0.330442,0.681323 0.579125,0.958962 0.503043,0.563228 0.542219,0.782955 0.253793,1.443839 -0.251522,0.576853 -0.522915,0.510424 -0.468978,-0.115259 l 0.03975,-0.465572 -0.425827,0.07948 c -0.235624,0.04485 -0.530864,0.218592 -0.663154,0.390626 -0.188501,0.244709 -0.276505,0.280478 -0.417879,0.168628 -0.0988,-0.07835 -0.178847,-0.243574 -0.178847,-0.366212 0,-0.122636 -0.121505,-0.258903 -0.269123,-0.303756 -0.148188,-0.04486 -0.350881,-0.267988 -0.450241,-0.496799 -0.159543,-0.365643 -0.155569,-0.477494 0.03008,-0.92149 0.187931,-0.450241 0.189635,-0.524618 0.01646,-0.690975 -0.158976,-0.152162 -0.241302,-0.157272 -0.45024,-0.03179 -0.210076,0.125476 -0.309435,0.11639 -0.559254,-0.0511 -0.166356,-0.111854 -0.457622,-0.204396 -0.646121,-0.204396 -0.383244,0 -0.499069,-0.186229 -0.499069,-0.802827 0,-0.569473 -0.339526,-0.776141 -1.14803,-0.701763 -0.560956,0.05167 -0.68473,0.01477 -1.137242,-0.333849 -0.27991,-0.215183 -0.721634,-0.732989 -0.982809,-1.152003 -0.261174,-0.419014 -0.54222,-0.856764 -0.624546,-0.972589 -0.118099,-0.167493 -0.08915,-0.328171 0.141943,-0.78409 l 0.291832,-0.5734461 -0.616596,0.083466 c -1.09693,0.1481891 -1.318929,0.2901311 -0.847112,0.5433561 0.183957,0.09822 0.191905,0.148755 0.04996,0.31284 -0.09312,0.106739 -0.136833,0.276504 -0.09652,0.376999 0.04031,0.09993 -0.0108,0.33612 -0.112985,0.524052 -0.102768,0.188499 -0.188499,0.452512 -0.191905,0.588208 -0.0108,0.422988 -0.735262,0.759676 -1.54263,0.714822 -1.222975,-0.06757 -1.322335,-0.04825 -1.756678,0.354856 -0.542787,0.504179 -0.612624,0.738669 -0.359966,1.206511 0.244709,0.454216 0.67962,0.635333 1.432483,0.597861 0.673374,-0.0335 0.749455,0.02611 0.595589,0.471249 -0.131154,0.378134 -0.570609,0.523483 -0.868687,0.287291 -0.229379,-0.182255 -1.020282,-0.04144 -1.262719,0.225404 -0.101624,0.111288 -0.252658,0.404252 -0.334984,0.649528 -0.141942,0.423556 -0.18339,0.449674 -0.819291,0.510993 -0.634767,0.06188 -0.696086,0.04143 -1.152573,-0.37927 -0.5092791,-0.468978 -0.595579,-0.827808 -0.3503038,-1.445541 0.1090139,-0.273664 0.189635,-0.318519 0.4803328,-0.265148 0.575718,0.105043 0.802827,-0.09483 0.802827,-0.709712 0,-0.298079 -0.05791,-0.576854 -0.128884,-0.618869 -0.0704,-0.04201 -0.128316,-0.199854 -0.128316,-0.351449 0,-0.151594 -0.07267,-0.346907 -0.160678,-0.432639 -0.128884,-0.124911 -0.110145,-0.191907 0.09539,-0.337256 0.140807,-0.09936 0.372456,-0.166357 0.514398,-0.149323 0.141374,0.01703 0.532567,-0.04428 0.869255,-0.135697 0.486578,-0.131155 0.629656,-0.230515 0.695518,-0.486578 0.12491,-0.486011 0.4298,-0.876069 0.685297,-0.876069 0.403684,0 0.4122,-0.949311 0.01988,-2.3301252 -0.05792,-0.20383 -0.21746,-0.3332806 -0.499074,-0.403116 -0.228243,-0.056775 -0.476358,-0.2123464 -0.551304,-0.3462263 -0.07438,-0.13388 -0.211211,-0.2428917 -0.303756,-0.2428917 -0.09255,0 -0.273666,-0.1108284 -0.401413,-0.2461848 -0.128884,-0.1362647 -0.395168,-0.2461849 -0.597862,-0.2461849 -0.479765,0 -0.487713,-0.3303283 -0.01195,-0.5045198 0.502476,-0.1841844 1.284862,0.057231 1.473929,0.4546129 0.256063,0.5388699 0.540516,0.3140333 0.631928,-0.5000912 0.112984,-1.006939 0.46046,-1.296331 1.555687,-1.296331 h 0.7875 L 15.185815,5.0737889 C 15.078507,4.9661399 14.989367,4.8345876 14.927481,4.7055904 Z m 4.082261,0.3570703 c -0.02214,0.019986 -0.04372,0.036337 -0.0653,0.058764 -0.263445,0.2688957 -0.387219,0.30722 -0.79431,0.2451061 -0.710846,-0.1083867 -0.619435,0.1778253 0.167492,0.5234265 0.425259,0.186853 0.698925,0.39988 0.792039,0.6154053 0.448538,1.0399263 0.757404,1.5998037 0.912405,1.6565806 0.313409,0.1152567 0.500205,-0.1160523 0.57004,-0.707327 0.08006,-0.678371 0.309435,-0.8221869 0.721635,-0.45132 0.160112,0.1439296 0.383813,0.261685 0.496799,0.261685 0.352584,0 0.61319,0.1415449 0.61319,0.3327129 0,0.1007224 0.11923,0.3434436 0.265149,0.539835 0.215184,0.2889938 0.361101,0.3582625 0.763081,0.3582625 0.493392,0 0.796013,0.092552 1.413746,0.4337755 0.0096,0.00501 0.0193,0.00681 0.02895,0.011951 A 11.355387,11.355387 0 0 0 19.009742,5.0626607 Z M 4.6468805,15.951341 a 11.355387,11.355387 0 0 0 -0.00221,0.04883 11.355387,11.355387 0 0 0 0.2217709,2.181371 c 0.4114056,0.167492 0.5250731,0.101059 0.5677693,-0.281614 0.022082,-0.198157 0.1255299,-0.422425 0.2306807,-0.50021 C 5.827333,17.279918 5.7980362,17.218599 5.4652666,16.991492 5.2498545,16.844443 5.0375655,16.58781 4.9939608,16.421455 4.9517187,16.260208 4.808868,16.084198 4.6468835,15.951341 Z m 3.5741649,3.753524 c -0.1061725,-0.0108 -0.2340913,0.04598 -0.3760337,0.182253 -0.3002931,0.287292 -0.2549283,0.864713 0.085393,1.092957 0.3900003,0.261741 0.5404594,0.18566 0.5898556,-0.296944 0.060746,-0.595023 -0.066426,-0.953852 -0.2992149,-0.978266 z m 1.9270096,1.716933 c -0.115825,0.0039 -0.2435728,0.08687 -0.3713219,0.261743 -0.135696,0.185092 -0.1726011,0.424123 -0.1209394,0.786928 0.064151,0.446267 0.036342,0.541652 -0.1970165,0.661451 -0.3003502,0.153299 -0.3645081,0.609786 -0.1186648,0.844842 0.2441406,0.23392 0.4769262,0.172602 0.5609566,-0.14762 0.11923,-0.456487 0.787495,-0.509857 1.243981,-0.09993 0.194747,0.174874 0.353721,0.263445 0.353721,0.196449 0,-0.06699 -0.202694,-0.310571 -0.450241,-0.539949 -0.378702,-0.352018 -0.449106,-0.501909 -0.449106,-0.954989 0,-0.639308 -0.19588,-1.016874 -0.451376,-1.008927 z m -3.1646901,1.465981 a 11.355387,11.355387 0 0 0 0.2628205,0.331578 c -0.077387,-0.1198 -0.1657319,-0.23449 -0.2628205,-0.331578 z m 3.8267081,1.743052 c -0.05735,0.01987 -0.08176,0.09197 -0.08176,0.218591 0,0.128316 -0.08176,0.262878 -0.181687,0.299215 -0.132858,0.04883 -0.163518,0.202694 -0.112419,0.570041 0.0096,0.0687 0.01247,0.123779 0.0159,0.181118 a 11.355387,11.355387 0 0 0 0.472384,0.242437 c -0.008,-0.196447 0.02781,-0.42753 0.130586,-0.717092 0.174307,-0.491689 0.180551,-0.614894 0.0386,-0.701196 -0.132858,-0.08063 -0.223701,-0.112984 -0.281613,-0.09312 z"
     id="path19-6"
     inkscape:connector-curvature="0" />
  <path
     style="fill:#cba606;stroke-width:3.00000024"
     d="m 29.225769,15.373457 c -0.69663,0.378815 -6.550985,3.465389 -13.225772,3.465389 -6.6594451,0 -12.4969657,-3.069071 -13.2165321,-3.459845 a 13.247951,13.247951 0 0 0 -0.031419,0.620998 13.247951,13.247951 0 0 0 0.2846239,2.663267 c 2.576526,1.174422 7.4622242,3.014426 12.9633282,3.014426 5.511934,0 10.405866,-1.847792 12.978112,-3.021818 a 13.247951,13.247951 0 0 0 0.269839,-2.655875 13.247951,13.247951 0 0 0 -0.02218,-0.626542 z"
     id="path23-2"
     inkscape:connector-curvature="0" />
  <g
     id="g4544"
     transform="matrix(0.75,0,0,0.75,4.586169,5.477633)"
     style="stroke-width:1.33333337">
    <circle
       id="circle27"
       r="8"
       cy="23"
       cx="24"
       style="fill:#4f4f4f;fill-rule:evenodd;stroke-width:1.33333337" />
    <path
       id="path29"
       style="fill:#ffffff;stroke-width:1.33333337"
       d="m 23,19 -0.0882,1.0536 a 3.1429,3.1429 0 0 0 -0.91852,0.53126 l -0.95759,-0.4509 -1,1.7321 0.86941,0.6038 a 3.1429,3.1429 0 0 0 -0.048,0.53013 3.1429,3.1429 0 0 0 0.0457,0.53237 l -0.86719,0.60156 1,1.7321 0.95536,-0.44978 a 3.1429,3.1429 0 0 0 0.92075,0.5279 l 0.0882,1.0558 h 2 l 0.0882,-1.0536 a 3.1429,3.1429 0 0 0 0.91854,-0.53126 l 0.95758,0.4509 1,-1.7321 -0.86942,-0.6038 a 3.1429,3.1429 0 0 0 0.048,-0.53013 3.1429,3.1429 0 0 0 -0.0457,-0.53237 l 0.86719,-0.60156 -1,-1.7321 -0.95536,0.44978 a 3.1429,3.1429 0 0 0 -0.921,-0.528 l -0.088,-1.056 h -2 z m 1,2.8572 a 1.1429,1.1429 0 0 1 1.143,1.143 A 1.1429,1.1429 0 0 1 24,24.1432 1.1429,1.1429 0 0 1 22.857,23.0002 1.1429,1.1429 0 0 1 24,21.8572 Z"
       inkscape:connector-curvature="0" />
  </g>
</svg>
