<?xml version="1.0" encoding="UTF-8" standalone="no"?>
<svg
   xmlns:dc="http://purl.org/dc/elements/1.1/"
   xmlns:cc="http://creativecommons.org/ns#"
   xmlns:rdf="http://www.w3.org/1999/02/22-rdf-syntax-ns#"
   xmlns:svg="http://www.w3.org/2000/svg"
   xmlns="http://www.w3.org/2000/svg"
   xmlns:sodipodi="http://sodipodi.sourceforge.net/DTD/sodipodi-0.dtd"
   xmlns:inkscape="http://www.inkscape.org/namespaces/inkscape"
   width="32"
   height="32"
   version="1"
   id="svg16"
   sodipodi:docname="full-throttle-remastered.svg"
   inkscape:version="0.92.1 r">
  <metadata
     id="metadata22">
    <rdf:RDF>
      <cc:Work
         rdf:about="">
        <dc:format>image/svg+xml</dc:format>
        <dc:type
           rdf:resource="http://purl.org/dc/dcmitype/StillImage" />
      </cc:Work>
    </rdf:RDF>
  </metadata>
  <defs
     id="defs20" />
  <sodipodi:namedview
     pagecolor="#ffffff"
     bordercolor="#666666"
     borderopacity="1"
     objecttolerance="10"
     gridtolerance="10"
     guidetolerance="10"
     inkscape:pageopacity="0"
     inkscape:pageshadow="2"
     inkscape:window-width="640"
     inkscape:window-height="480"
     id="namedview18"
     showgrid="false"
     inkscape:zoom="8.8125"
     inkscape:cx="-5.5602837"
     inkscape:cy="16"
     inkscape:current-layer="svg16" />
  <rect
     style="opacity:1;fill:#8a4b2c;fill-opacity:1;fill-rule:evenodd;stroke:none;stroke-width:1.03534329;stroke-linecap:round;stroke-linejoin:bevel;stroke-miterlimit:4;stroke-dasharray:none;stroke-dashoffset:0;stroke-opacity:1"
     id="rect4497-3"
     width="28.203388"
     height="28.203388"
     x="1.8983059"
     y="1.8983059"
     ry="5.575182" />
  <g
     id="g4507"
     transform="translate(-1.1800684e-4,-0.03993795)">
    <path
       id="path8"
       d="m 9.7201926,27.928962 c 0.0154,-0.03981 0.060011,-0.315069 0.099133,-0.611688 0.2347704,-1.780136 0.2182894,-2.920885 0.6812114,-3.681451 0.08527,-0.1401 0.327868,-0.449918 0.539098,-0.688484 0.21123,-0.238565 0.384054,-0.387869 0.384054,-0.417058 0,-0.03664 -0.06128,-0.04325 -0.197845,-0.02137 C 10.573093,22.613513 10.17935,22.494821 10,22.188768 c -0.09295,-0.158613 0.01242,0.04524 0,-3.870103 -0.01427,-4.498922 0.03354,-4.067652 0.446099,-4.274731 0.298439,-0.149802 0.670141,-0.38262 0.999002,-0.435142 0.55995,-0.08943 0.940013,0.325838 1.217663,0.867368 0.07605,0.148329 0.162736,0.26028 0.193633,0.250073 0.08823,-0.02915 0.104374,-4.080526 0.01627,-4.080526 -0.03524,0 -0.101604,0.09746 -0.147477,0.216577 -0.116486,0.302485 -0.390141,0.999306 -0.716912,1.144734 -0.341403,0.15194 -1.428803,0.536267 -1.655725,0.536267 -0.09194,0 -0.321827,-0.02493 -0.352553,-0.0554 -0.04227,-0.04192 -5.4e-4,-0.752717 0,-2.9199452 4.66e-4,-1.5755005 -0.0197,-3.1895694 0,-3.2203232 0.17503,-0.2731315 2.916774,-0.3862212 3.865464,-0.1750469 0.192026,0.042742 0.516726,0.1576141 0.721554,0.2552662 0.531968,0.2536184 0.865838,0.7231953 1.230326,1.4105386 0.0202,0.038087 0.06586,0.069251 0.101473,0.069251 0.05398,0 0.06692,-0.1189555 0.07771,-1.6197144 0.0071,-0.9902418 10e-4,-2.1490774 -0.01357,-2.2084476 0,0 -0.514697,0.6807646 -0.582393,0.815595 l -0.14569,0.1215749 -0.892554,-0.015779 c -0.490828,-0.00868 -2.638989,2.309e-4 -4.4074496,-0.00172 -1.7684604,-0.00194 -3.8515767,0.027441 -3.8945678,0.043801 -0.1566883,0.059626 4.874e-4,0.1588375 0.3993947,0.3755947 0.6878002,0.3737409 1.3318301,0.6733554 1.4992218,1.2969001 0.097978,0.3649919 0.094454,5.5412058 -0.00406,5.9557008 -0.095445,0.40145 -0.4157902,0.694427 -0.7169015,1.016961 -0.1414994,0.151567 -0.2572745,0.294285 -0.2572745,0.31715 0,0.02286 0.1163847,0.15512 0.2586339,0.293902 0.2855167,0.278562 0.6595547,0.615706 0.7307188,0.898643 0.067648,0.268964 0.1201585,8.120647 0.057204,8.553762 -0.062671,0.43113 -0.3400838,0.616331 -0.6978769,0.995638 -0.3346203,0.354736 -0.3348205,0.354109 0.1772743,0.547626 0.4179245,0.157931 1.2025195,0.514514 1.3616757,0.752683 0.1655808,0.247777 0.3817352,0.710772 0.5583942,1.353707 0.080228,0.291995 0.1553174,0.54648 0.1668618,0.565523 0.034881,0.05754 0.096925,0.03904 0.126644,-0.03776 z"
       style="fill:#fbb64a"
       inkscape:connector-curvature="0" />
    <path
       id="path12"
       d="m 18.052734,6 c -0.04932,0.030247 -0.05912,0.4319144 -0.04883,1.7265625 0.01497,1.8825075 -0.04876,1.2743613 0.337891,0.78125 0.537628,-0.6856431 1.254275,-0.5057129 1.556641,-0.5390625 0.772981,-0.018921 0.959985,-0.010146 1.033203,0.0625 0.07492,0.074334 0.145358,0.9409457 0.08203,2.666016 v 2.320312 c 0,0 -0.533289,0.42321 -0.824219,0.708984 -0.09901,0.108737 -0.179687,0.225715 -0.179687,0.259766 0,0.03405 0.07153,0.142292 0.158203,0.240234 0.219871,0.391601 0.820312,0.728516 0.820312,0.728516 l 0.01563,4.00586 c 0.01371,4.375553 0.01112,4.106453 -0.08984,4.193359 0,0 -0.718367,0.749137 -0.914062,0.845703 1.027253,0.337721 1.438454,0.610362 1.871094,1.548828 C 21.941808,25.779317 21.960103,26 22,26 22.0399,26 22.05819,25.779317 22.128906,25.548828 22.561546,24.610362 22.972747,24.337721 24,24 c -0.195695,-0.09657 -0.914062,-0.845703 -0.914062,-0.845703 -0.100961,-0.08691 -0.103554,0.182194 -0.08984,-4.193359 l 0.01563,-4.00586 c 0,0 0.600441,-0.336915 0.820312,-0.728516 0.08667,-0.09794 0.158203,-0.206184 0.158203,-0.240234 0,-0.03405 -0.08068,-0.151029 -0.179687,-0.259766 -0.29093,-0.285774 -0.824219,-0.708984 -0.824219,-0.708984 v -2.320312 c -0.06333,-1.7250703 0.0071,-2.591682 0.08203,-2.666016 0.07322,-0.072646 0.260222,-0.081421 1.033203,-0.0625 0.302366,0.03335 1.019013,-0.1465806 1.556641,0.5390625 0.386651,0.4931113 0.322921,1.1012575 0.337891,-0.78125 C 26.006384,6.4319144 25.996586,6.030247 25.947266,6 25.768929,6.2759224 25.375,6.984375 25.375,6.984375 25.299487,7.022645 23.912419,6.9995205 22,7 20.087581,6.9995205 18.700513,7.022645 18.625,6.984375 c 0,0 -0.393929,-0.7084526 -0.572266,-0.984375 z"
       style="fill:#fbb64a"
       inkscape:connector-curvature="0" />
  </g>
</svg>
