<?xml version="1.0" encoding="UTF-8" standalone="no"?>
<svg
   xmlns:dc="http://purl.org/dc/elements/1.1/"
   xmlns:cc="http://creativecommons.org/ns#"
   xmlns:rdf="http://www.w3.org/1999/02/22-rdf-syntax-ns#"
   xmlns:svg="http://www.w3.org/2000/svg"
   xmlns="http://www.w3.org/2000/svg"
   xmlns:sodipodi="http://sodipodi.sourceforge.net/DTD/sodipodi-0.dtd"
   xmlns:inkscape="http://www.inkscape.org/namespaces/inkscape"
   height="32"
   width="32"
   version="1"
   id="svg28"
   sodipodi:docname="gambas3.svg"
   inkscape:version="0.92.1 r">
  <metadata
     id="metadata34">
    <rdf:RDF>
      <cc:Work
         rdf:about="">
        <dc:format>image/svg+xml</dc:format>
        <dc:type
           rdf:resource="http://purl.org/dc/dcmitype/StillImage" />
      </cc:Work>
    </rdf:RDF>
  </metadata>
  <defs
     id="defs32" />
  <sodipodi:namedview
     pagecolor="#ffffff"
     bordercolor="#666666"
     borderopacity="1"
     objecttolerance="10"
     gridtolerance="10"
     guidetolerance="10"
     inkscape:pageopacity="0"
     inkscape:pageshadow="2"
     inkscape:window-width="640"
     inkscape:window-height="480"
     id="namedview30"
     showgrid="false"
     inkscape:zoom="12.462757"
     inkscape:cx="-47.490627"
     inkscape:cy="21.446936"
     inkscape:current-layer="svg28" />
  <title
     id="title2">
  Gambas logo
 </title>
  <rect
     style="opacity:1;fill:#3398c3;fill-opacity:1;fill-rule:evenodd;stroke:none;stroke-width:1.03534329;stroke-linecap:round;stroke-linejoin:bevel;stroke-miterlimit:4;stroke-dasharray:none;stroke-dashoffset:0;stroke-opacity:1"
     id="rect4497-3"
     width="28.203388"
     height="28.203388"
     x="1.8983059"
     y="1.8983059"
     ry="5.575182" />
  <g
     id="g4534"
     transform="translate(59.858049,0.96222218)">
    <path
       id="path6"
       d="m -39.30609,6.2796392 c -1.900741,0.5414844 -3.088102,3.8260038 -2.883984,3.7486848 l 0.02933,0.761173 c 0.296136,0.01614 0.567163,0.05373 0.771056,0.123158 0.732584,0.249383 1.661216,-0.201384 2.261309,-0.586718 0.01347,-0.149676 0.02101,-0.296799 0.01897,-0.4370419 0.324024,-0.2736792 0.679225,-0.6214363 0.777937,-0.9022968 0.194603,-0.5538766 0.369232,-1.6452653 0.05865,-2.0791485 -0.156582,-0.2187494 -0.382206,0.7013694 -0.388962,0.7765608 -0.01239,0.1379593 -0.345668,-0.1440147 -0.449334,-0.05386 -0.192833,0.1676668 -0.0076,0.5411716 -0.08366,0.531119 -0.09939,-0.013137 -0.132061,-0.1900866 -0.231136,-0.1736158 -0.2619,0.2200568 -0.410625,0.4869362 -0.525226,0.7475351 -0.07308,-0.02008 -0.145685,-0.041787 -0.213889,-0.070988 -0.09849,-0.042287 -0.08718,-0.3036494 -0.05261,-0.4071095 0.04316,-0.1291641 0.270746,-0.039785 0.33118,-0.1616427 0.06578,-0.1326359 -0.06207,-0.3627579 0.03105,-0.4772402 0.05486,-0.06746 0.157815,0.024959 0.211299,-0.043601 0.17022,-0.2183053 0.452237,-1.3274222 0.33808,-1.2948935 z"
       inkscape:connector-curvature="0"
       style="fill:#a5ccdf;fill-opacity:1;fill-rule:evenodd;stroke-width:1.59858727" />
    <path
       id="path8"
       d="m -36.431051,8.6192051 c -0.188292,0.6590195 -0.426001,1.0906506 -0.704372,1.3675827 0.03941,-0.1678983 0.03753,-0.3522486 -0.01376,-0.5568042 l -0.814157,0.8800894 c 0.05315,-0.150007 0.08573,-0.308785 0.0483,-0.4951996 l -0.779626,0.6662756 c 0.12735,-0.163575 0.195285,-0.356902 0.177663,-0.611521 0.01129,0.021331 -1.688741,1.448216 -2.872787,1.045173 -0.986683,-0.335872 -3.328939,-0.09289 -4.366543,1.160587 -3.152346,0.315072 -5.836967,3.21534 -5.592939,5.437802 0.254287,2.316108 2.51985,3.735048 3.064269,3.87611 0.129808,0.04179 0.248707,0.0598 0.361363,0.06672 0.134193,0.904861 0.724014,1.880285 1.44978,2.269879 0.633872,0.3403 2.298404,-0.659395 2.298404,-0.659395 -1.092402,-0.646195 -1.783324,-1.279254 -2.298404,-1.924387 0.812905,-0.0538 1.97637,0.243603 3.065144,0.466982 0.140186,-0.01007 -0.01246,-1.532229 -1.39542,-1.951724 -0.714881,-0.216823 -2.061007,-0.336309 -2.73823,0.328421 -0.246499,-0.578323 -0.452456,-1.5717 0.05088,-2.225402 0.523419,-0.679788 2.206198,-1.18292 2.962491,-1.249541 0.07075,0.03115 0.139467,0.06866 0.211299,0.09494 2.502898,0.808714 8.738967,-3.966628 7.886965,-7.9864275 z"
       inkscape:connector-curvature="0"
       style="fill:#ffffff;fill-rule:evenodd;stroke-width:1.59858727" />
    <path
       id="path14"
       d="m -43.663062,17.051651 c -0.01349,0.02709 -0.438694,-0.209766 -0.590096,-0.26245 -0.172159,-0.05987 -0.40761,0.376783 -0.299884,0.524895 0.153567,0.21113 0.635186,0.261762 0.609438,0.281886 l 0.280248,-0.544231 z"
       inkscape:connector-curvature="0"
       style="fill:#3398c3;fill-rule:evenodd;stroke:#000000;stroke-width:0.123" />
    <path
       id="path16"
       d="m -43.382815,15.037373 c -0.18537,0.0025 -0.40761,0.0608 -0.645007,0.195147 -0.351266,0.198794 -0.890036,1.604792 -1.07057,2.075833 -0.733461,0.643256 -0.7922,2.123813 -0.38434,2.859275 1.583148,2.854583 5.924482,4.554209 7.140681,3.092543 -0.257803,-0.4034 -0.711691,-0.462358 -1.300524,-0.875273 -0.125817,0.02346 -0.234757,0.07349 -0.316198,0.166541 l -0.319475,-0.546764 c -0.122934,0.01927 -0.224768,-0.161117 -0.345524,0.05192 -0.228727,-0.167091 -0.215741,-0.229496 -0.172328,-0.361863 0.03875,-0.09976 0.08687,-0.178289 0.136452,-0.254844 0.344742,0.114851 0.712004,0.242295 0.951716,0.340144 0.136977,0.05592 0.02601,-0.401842 0.173021,-0.41379 0.204512,-0.01664 0.250346,0.517144 0.455065,0.530881 0.176205,0.01182 0.251397,-0.52193 0.40659,-0.435685 0.234569,0.130353 1.128872,0.897793 1.067255,0.509331 -0.134525,-0.848562 -1.19443,-1.795523 -1.829366,-2.161659 -0.320264,-0.184657 -0.936264,-0.272634 -1.431264,-0.315941 -0.557554,-0.790573 -1.475427,-1.728276 -2.194938,-2.12863 -0.04017,-0.02233 -0.07831,-0.04041 -0.117472,-0.06062 0.201453,-0.581983 0.540321,-1.498949 0.281523,-2.033796 -0.0699,-0.144459 -0.247262,-0.235439 -0.485597,-0.232774 z"
       inkscape:connector-curvature="0"
       style="fill:#a5ccdf;fill-opacity:1;fill-rule:evenodd;stroke-width:1.59858727" />
    <circle
       id="circle20"
       r="0.93832856"
       cx="-42.294353"
       cy="12.222387"
       style="fill:#3398c3;fill-opacity:1;fill-rule:evenodd;stroke-width:1.59858727" />
  </g>
</svg>
