<?xml version="1.0" encoding="UTF-8" standalone="no"?>
<svg
   xmlns:dc="http://purl.org/dc/elements/1.1/"
   xmlns:cc="http://creativecommons.org/ns#"
   xmlns:rdf="http://www.w3.org/1999/02/22-rdf-syntax-ns#"
   xmlns:svg="http://www.w3.org/2000/svg"
   xmlns="http://www.w3.org/2000/svg"
   xmlns:sodipodi="http://sodipodi.sourceforge.net/DTD/sodipodi-0.dtd"
   xmlns:inkscape="http://www.inkscape.org/namespaces/inkscape"
   width="32"
   height="32"
   version="1"
   id="svg48"
   sodipodi:docname="gargoyle-house.svg"
   inkscape:version="0.92.1 r">
  <metadata
     id="metadata54">
    <rdf:RDF>
      <cc:Work
         rdf:about="">
        <dc:format>image/svg+xml</dc:format>
        <dc:type
           rdf:resource="http://purl.org/dc/dcmitype/StillImage" />
      </cc:Work>
    </rdf:RDF>
  </metadata>
  <defs
     id="defs52" />
  <sodipodi:namedview
     pagecolor="#ffffff"
     bordercolor="#666666"
     borderopacity="1"
     objecttolerance="10"
     gridtolerance="10"
     guidetolerance="10"
     inkscape:pageopacity="0"
     inkscape:pageshadow="2"
     inkscape:window-width="640"
     inkscape:window-height="480"
     id="namedview50"
     showgrid="false"
     inkscape:zoom="25.279067"
     inkscape:cx="17.945582"
     inkscape:cy="20.413098"
     inkscape:current-layer="svg48" />
  <rect
     style="opacity:1;fill:#956a42;fill-opacity:1;fill-rule:evenodd;stroke:none;stroke-width:1.03534329;stroke-linecap:round;stroke-linejoin:bevel;stroke-miterlimit:4;stroke-dasharray:none;stroke-dashoffset:0;stroke-opacity:1"
     id="rect4497-3-3"
     width="28.203388"
     height="28.203388"
     x="1.8983059"
     y="1.8983059"
     ry="5.575182" />
  <path
     style="fill:#cccccc;stroke-width:1"
     d="M 24.800762,25.559808 V 14.211081 L 23.366811,12.765186 C 23.015169,12.410616 20.838399,10.47728 20.358936,10.38437 L 16.132961,7.2382094 11.363526,10.530057 c -0.407406,0.28119 -2.48266,2.014137 -2.822849,2.380816 l -1.341439,1.445895 v 11.20304 c 0,0.511866 0.392514,0.923947 0.880076,0.923947 h 15.841373 c 0.487561,0 0.880075,-0.412081 0.880075,-0.923947 z"
     id="path4"
     inkscape:connector-curvature="0" />
  <rect
     style="opacity:1;stroke-width:1;fill:#808080"
     width="17.601524"
     height="0.73411697"
     x="7.1992373"
     y="14.003765"
     id="rect6" />
  <rect
     style="fill:#4f4f4f;stroke-width:1"
     width="2.9335873"
     height="5.1388187"
     x="7.9326358"
     y="7.3967133"
     rx="0.52291197"
     ry="0.56159949"
     id="rect8" />
  <rect
     style="fill:#956a42;stroke-width:1"
     width="5.1337776"
     height="8.0752869"
     x="8.6660309"
     y="16.940233"
     rx="0.77006662"
     ry="0.75687462"
     id="rect10" />
  <path
     style="fill:#956a42;stroke-width:1"
     d="m 18.108516,16.940234 c -0.752302,0 -1.375119,0.623428 -1.375119,1.376468 v 3.854115 c 0,0.753041 0.622817,1.37647 1.375119,1.37647 h 3.850333 c 0.752302,0 1.375119,-0.623429 1.375119,-1.37647 v -3.854115 c 0,-0.75304 -0.622817,-1.376468 -1.375119,-1.376468 z"
     id="path12"
     inkscape:connector-curvature="0" />
  <path
     style="fill:#c2eeff;stroke-width:1"
     d="m 18.429378,18.408469 c -0.134898,0 -0.229187,0.09438 -0.229187,0.229411 v 3.211761 c 0,0.135031 0.09429,0.229412 0.229187,0.229412 h 3.20861 c 0.134898,0 0.229187,-0.09438 0.229187,-0.229412 V 18.63788 c 0,-0.13503 -0.09429,-0.229411 -0.229187,-0.229411 z"
     id="path16"
     inkscape:connector-curvature="0" />
  <ellipse
     style="fill:#ffffff;stroke-width:1"
     cx="12.333015"
     cy="20.610819"
     id="circle20"
     rx="0.73339683"
     ry="0.73411697" />
  <path
     style="opacity:0.05;stroke-width:1"
     d="M 8.820798,12.657614 C 8.521253,12.906819 8.275007,13.118106 8.176793,13.21904 l -1.407196,1.445672 v -0.50025 h 2.051201 z"
     id="path22"
     inkscape:connector-curvature="0" />
  <path
     style="opacity:1;stroke-width:1;fill:#808080"
     d="m 10.866222,10.873795 c -0.508844,0.349807 -1.484855,1.068303 -2.20019,1.623123 v 1.506848 h 2.20019 z"
     id="path24"
     inkscape:connector-curvature="0" />
  <path
     style="opacity:1;stroke-width:1;fill:#cccccc;fill-opacity:1"
     d="m 13.066413,9.5023111 -1.915498,1.1749849 c -0.05129,0.03146 -0.191785,0.132629 -0.284693,0.196499 v 3.129971 h 2.200191 z"
     id="path26"
     inkscape:connector-curvature="0" />
  <path
     style="opacity:1;stroke-width:1;fill:#808080"
     d="m 15.266603,8.1518811 -2.20019,1.35043 v 4.5014549 h 2.20019 z"
     id="path28"
     inkscape:connector-curvature="0" />
  <path
     style="opacity:1;stroke-width:1;fill:#cccccc;fill-opacity:1"
     d="m 16.516028,7.384933 -1.249425,0.7669481 v 5.8518849 h 2.200191 V 8.0145322 Z"
     id="path30"
     inkscape:connector-curvature="0" />
  <path
     style="opacity:1;stroke-width:1;fill:#808080"
     d="m 17.466794,8.0145322 v 5.9892338 h 2.20019 V 9.4702296 Z"
     id="path32"
     inkscape:connector-curvature="0" />
  <path
     style="opacity:1;stroke-width:1;fill:#cccccc;fill-opacity:1"
     d="m 19.666984,9.4702296 v 4.5335364 h 2.200191 v -3.17308 c -0.259136,-0.16058 -0.47829,-0.278442 -0.596243,-0.298759 z"
     id="path34"
     inkscape:connector-curvature="0" />
  <path
     style="opacity:1;stroke-width:1;fill:#808080"
     d="m 21.867175,10.830686 v 3.17308 h 2.20019 V 12.43075 c -0.623911,-0.495825 -1.554709,-1.200076 -2.20019,-1.600064 z"
     id="path36"
     inkscape:connector-curvature="0" />
  <path
     style="opacity:0.05;stroke-width:1"
     d="m 23.179208,12.591446 v 1.573016 h 2.051201 v 0.354881 l -1.504348,-1.446675 c -0.08727,-0.0839 -0.294178,-0.265834 -0.546853,-0.481222 z"
     id="path38"
     inkscape:connector-curvature="0" />
  <path
     style="fill:none;stroke:#5d5d5d;stroke-width:3.00000024;stroke-linecap:round;stroke-linejoin:round"
     d="M 16.000003,7.0296548 6.83254,14.370824"
     id="path40"
     inkscape:connector-curvature="0" />
  <path
     style="fill:none;stroke:#5d5d5d;stroke-width:3.00000024;stroke-linecap:round;stroke-linejoin:round"
     d="m 16,7.0296548 9.167461,7.3411692"
     id="path42"
     inkscape:connector-curvature="0" />
</svg>
