<?xml version="1.0" encoding="UTF-8" standalone="no"?>
<svg
   xmlns:dc="http://purl.org/dc/elements/1.1/"
   xmlns:cc="http://creativecommons.org/ns#"
   xmlns:rdf="http://www.w3.org/1999/02/22-rdf-syntax-ns#"
   xmlns:svg="http://www.w3.org/2000/svg"
   xmlns="http://www.w3.org/2000/svg"
   xmlns:sodipodi="http://sodipodi.sourceforge.net/DTD/sodipodi-0.dtd"
   xmlns:inkscape="http://www.inkscape.org/namespaces/inkscape"
   height="32"
   width="32"
   version="1"
   id="svg16"
   sodipodi:docname="gcompris.svg"
   inkscape:version="0.92.1 r">
  <metadata
     id="metadata22">
    <rdf:RDF>
      <cc:Work
         rdf:about="">
        <dc:format>image/svg+xml</dc:format>
        <dc:type
           rdf:resource="http://purl.org/dc/dcmitype/StillImage" />
      </cc:Work>
    </rdf:RDF>
  </metadata>
  <defs
     id="defs20" />
  <sodipodi:namedview
     pagecolor="#ffffff"
     bordercolor="#666666"
     borderopacity="1"
     objecttolerance="10"
     gridtolerance="10"
     guidetolerance="10"
     inkscape:pageopacity="0"
     inkscape:pageshadow="2"
     inkscape:window-width="1680"
     inkscape:window-height="963"
     id="namedview18"
     showgrid="false"
     inkscape:zoom="7.375"
     inkscape:cx="-21.149319"
     inkscape:cy="13.284926"
     inkscape:window-x="0"
     inkscape:window-y="0"
     inkscape:window-maximized="1"
     inkscape:current-layer="svg16" />
  <rect
     style="opacity:1;fill:#4d4d4d;fill-opacity:1;fill-rule:evenodd;stroke:none;stroke-width:1.03534329;stroke-linecap:round;stroke-linejoin:bevel;stroke-miterlimit:4;stroke-dasharray:none;stroke-dashoffset:0;stroke-opacity:1"
     id="rect4497-3"
     width="28.203388"
     height="28.203388"
     x="1.8983059"
     y="1.8983059"
     ry="5.575182" />
  <g
     id="g4510"
     transform="matrix(0.71555526,0,0,0.71555526,4.5509012,4.1929858)">
    <circle
       id="circle2"
       r="1"
       cx="16"
       cy="4"
       style="fill:#535353" />
    <path
       id="path4"
       d="m 15.986,4 c -0.07752,0 -0.14998,0.015273 -0.22536,0.021959 -0.09141,0.0082 -0.18437,0.010719 -0.27316,0.027449 -0.02436,0.00485 -0.0469,0.015045 -0.07102,0.020587 -2.3565,0.50889 -3.5542,3.9751 -3.4111,7.2796 -0.0024,0.09668 -0.01501,0.20037 -0.015,0.29508 l -9.7059,6.2214 c -0.18043,0.09015 -0.27556,0.24676 -0.28408,0.46801 v 3.1484 c 2.256e-4,0.18033 0.077561,0.32724 0.23218,0.44194 0.16333,0.10673 0.3396,0.13556 0.52856,0.08647 l 9.0292,-2.8163 1.3986,6.5892 -3.5879,1.6003 c -0.12029,0.11482 -0.18033,0.24621 -0.18029,0.39389 l 0.2716,2.223 6.3079,-1 6.3079,1 0.27179,-2.222 c 4.5e-5,-0.14768 -0.06,-0.27907 -0.18028,-0.3939 l -3.6166,-1.6003 1.4272,-6.5892 9.0306,2.8163 c 0.18896,0.04909 0.36523,0.02025 0.52856,-0.08647 0.15462,-0.11469 0.23059,-0.2616 0.23082,-0.44194 v -3.1484 c -0.0085,-0.22125 -0.10229,-0.37787 -0.28272,-0.46801 l -9.707,-6.222 c 4e-6,-0.09472 -0.0076,-0.1984 -0.01,-0.29508 0.14312,-3.3045 -1.0597,-6.7707 -3.4161,-7.2796 C 16.56028,4.064845 16.53774,4.054642 16.51338,4.049798 16.4246,4.033068 16.33163,4.030548 16.24022,4.022349 16.16485,4.015659 16.09239,4.00039 16.01487,4.00039 c -0.0052,0 -0.0099,0.00134 -0.01502,0.00137 -0.0047,-2.02e-5 -0.009,-0.00137 -0.01366,-0.00137 z"
       inkscape:connector-curvature="0"
       style="fill:#fead00" />
    <path
       id="path6"
       style="fill:#fe5600;fill-opacity:1"
       d="M 9,13.560547 7,14.84375 v 5.845703 l 2,-0.623047 z m 14,0 v 6.503906 l 2,0.625 V 14.84375 Z M 6,15.484375 4,16.765625 V 21.625 l 2,-0.623047 z m 20,0 v 5.517578 L 28,21.625 v -4.857422 z"
       inkscape:connector-curvature="0" />
    <rect
       id="rect10"
       x="11"
       y="4"
       width="10"
       height="1"
       ry="1"
       rx="0.625"
       style="fill:#292929" />
    <path
       id="path12"
       d="M 20,15.333 C 20,17.911 18.209,20 16,20 13.791,20 12,17.911 12,15.333 12,12.756 13.791,12 16,12 c 2.2091,0 4,0.756 4,3.3333 z"
       inkscape:connector-curvature="0"
       style="fill:#292929" />
  </g>
</svg>
