<?xml version="1.0" encoding="UTF-8" standalone="no"?>
<svg
   xmlns:dc="http://purl.org/dc/elements/1.1/"
   xmlns:cc="http://creativecommons.org/ns#"
   xmlns:rdf="http://www.w3.org/1999/02/22-rdf-syntax-ns#"
   xmlns:svg="http://www.w3.org/2000/svg"
   xmlns="http://www.w3.org/2000/svg"
   xmlns:sodipodi="http://sodipodi.sourceforge.net/DTD/sodipodi-0.dtd"
   xmlns:inkscape="http://www.inkscape.org/namespaces/inkscape"
   height="32"
   width="32"
   version="1"
   id="svg16"
   sodipodi:docname="gconf-editor.svg"
   inkscape:version="0.92.1 r">
  <metadata
     id="metadata22">
    <rdf:RDF>
      <cc:Work
         rdf:about="">
        <dc:format>image/svg+xml</dc:format>
        <dc:type
           rdf:resource="http://purl.org/dc/dcmitype/StillImage" />
      </cc:Work>
    </rdf:RDF>
  </metadata>
  <defs
     id="defs20" />
  <sodipodi:namedview
     pagecolor="#ffffff"
     bordercolor="#666666"
     borderopacity="1"
     objecttolerance="10"
     gridtolerance="10"
     guidetolerance="10"
     inkscape:pageopacity="0"
     inkscape:pageshadow="2"
     inkscape:window-width="1680"
     inkscape:window-height="963"
     id="namedview18"
     showgrid="false"
     inkscape:zoom="7.375"
     inkscape:cx="-8.6779661"
     inkscape:cy="16"
     inkscape:window-x="0"
     inkscape:window-y="0"
     inkscape:window-maximized="1"
     inkscape:current-layer="svg16" />
  <rect
     style="opacity:1;fill:#5bbc41;fill-opacity:1;fill-rule:evenodd;stroke:none;stroke-width:1.03534329;stroke-linecap:round;stroke-linejoin:bevel;stroke-miterlimit:4;stroke-dasharray:none;stroke-dashoffset:0;stroke-opacity:1"
     id="rect4497-3"
     width="28.203388"
     height="28.203388"
     x="1.8983059"
     y="1.8983059"
     ry="5.575182" />
  <g
     id="g4507"
     transform="translate(58.407533,8.392197)">
    <path
       inkscape:connector-curvature="0"
       id="path8"
       d="m -41.098762,11.019105 6.112946,6.112946 c 1.413764,1.472453 3.593547,-0.70733 2.121094,-2.121094 l -6.205825,-6.2058247 c -2.370131,0.788088 -1.370131,0.788088 -2.028215,2.2139727 z"
       style="fill:#565656;stroke-width:3;stroke-linecap:round" />
    <path
       inkscape:connector-curvature="0"
       id="path12"
       d="m -44.440678,-2.4067797 a 8.0000002,8.0000002 0 0 0 -8,8 8.0000002,8.0000002 0 0 0 8,7.9999997 8.0000002,8.0000002 0 0 0 8,-7.9999997 8.0000002,8.0000002 0 0 0 -8,-8 z m 0,3.00000004 a 4.9999996,4.9999996 0 0 1 5,4.99999996 4.9999996,4.9999996 0 0 1 -5,4.9999997 4.9999996,4.9999996 0 0 1 -5,-4.9999997 4.9999996,4.9999996 0 0 1 5,-4.99999996 z"
       style="fill:#ffffff;stroke-width:9.99350452;stroke-linecap:round;stroke-linejoin:round" />
  </g>
</svg>
