<?xml version="1.0" encoding="UTF-8" standalone="no"?>
<svg
   xmlns:dc="http://purl.org/dc/elements/1.1/"
   xmlns:cc="http://creativecommons.org/ns#"
   xmlns:rdf="http://www.w3.org/1999/02/22-rdf-syntax-ns#"
   xmlns:svg="http://www.w3.org/2000/svg"
   xmlns="http://www.w3.org/2000/svg"
   xmlns:xlink="http://www.w3.org/1999/xlink"
   xmlns:sodipodi="http://sodipodi.sourceforge.net/DTD/sodipodi-0.dtd"
   xmlns:inkscape="http://www.inkscape.org/namespaces/inkscape"
   width="32"
   version="1.1"
   height="32"
   viewBox="0 0 32 32"
   id="svg40"
   sodipodi:docname="giggle.svg"
   inkscape:version="0.92.1 r">
  <metadata
     id="metadata44">
    <rdf:RDF>
      <cc:Work
         rdf:about="">
        <dc:format>image/svg+xml</dc:format>
        <dc:type
           rdf:resource="http://purl.org/dc/dcmitype/StillImage" />
      </cc:Work>
    </rdf:RDF>
  </metadata>
  <sodipodi:namedview
     pagecolor="#ffffff"
     bordercolor="#666666"
     borderopacity="1"
     objecttolerance="10"
     gridtolerance="10"
     guidetolerance="10"
     inkscape:pageopacity="0"
     inkscape:pageshadow="2"
     inkscape:window-width="640"
     inkscape:window-height="480"
     id="namedview42"
     showgrid="false"
     inkscape:zoom="6.2313785"
     inkscape:cx="-68.486825"
     inkscape:cy="-7.0958494"
     inkscape:current-layer="svg40" />
  <defs
     id="defs8">
    <linearGradient
       xlink:href="#linearGradient4530"
       id="linearGradient4532"
       x1="17"
       y1="5"
       x2="10"
       y2="18"
       gradientUnits="userSpaceOnUse"
       gradientTransform="matrix(0.67710366,0,0,0.6769272,-42.840864,-2.1611204)" />
    <linearGradient
       id="linearGradient4530">
      <stop
         style="stop-color:#000000;stop-opacity:1"
         offset="0"
         id="stop3" />
      <stop
         style="stop-color:#000000;stop-opacity:0"
         offset="1"
         id="stop5" />
    </linearGradient>
    <linearGradient
       xlink:href="#linearGradient4530"
       id="linearGradient4532-3"
       x1="17"
       y1="5"
       x2="10"
       y2="18"
       gradientUnits="userSpaceOnUse"
       gradientTransform="matrix(0.67710366,0,0,0.6769272,-85.255263,17.026119)" />
  </defs>
  <rect
     style="opacity:1;fill:#ffda00;fill-opacity:1;fill-rule:evenodd;stroke:none;stroke-width:1.03534329;stroke-linecap:round;stroke-linejoin:bevel;stroke-miterlimit:4;stroke-dasharray:none;stroke-dashoffset:0;stroke-opacity:1"
     id="rect4497-3"
     width="28.203388"
     height="28.203388"
     x="1.8983059"
     y="1.8983059"
     ry="5.575182" />
  <g
     id="g4618"
     transform="translate(83.492187,-20.095703)">
    <path
       id="path4584"
       d="m -64.265625,32.369141 a 6.3196344,6.3196344 0 0 0 -0.630859,0.03125 6.3196344,6.3196344 0 0 0 -0.623047,0.09375 6.3196344,6.3196344 0 0 0 -0.613281,0.15625 6.3196344,6.3196344 0 0 0 -0.59375,0.216797 6.3196344,6.3196344 0 0 0 -0.56836,0.27539 6.3196344,6.3196344 0 0 0 -0.539062,0.330078 6.3196344,6.3196344 0 0 0 -0.501954,0.382813 6.3196344,6.3196344 0 0 0 -0.46289,0.429687 6.3196344,6.3196344 0 0 0 -0.416016,0.47461 6.3196344,6.3196344 0 0 0 -0.367187,0.513672 6.3196344,6.3196344 0 0 0 -0.314453,0.548828 6.3196344,6.3196344 0 0 0 -0.257813,0.576172 6.3196344,6.3196344 0 0 0 -0.199219,0.599609 6.3196344,6.3196344 0 0 0 -0.138672,0.617187 6.3196344,6.3196344 0 0 0 -0.07617,0.626954 6.3196344,6.3196344 0 0 0 -0.01563,0.447265 6.3196344,6.3196344 0 0 0 0.03125,0.630859 6.3196344,6.3196344 0 0 0 0.09375,0.623047 6.3196344,6.3196344 0 0 0 0.15625,0.613282 6.3196344,6.3196344 0 0 0 0.216796,0.59375 6.3196344,6.3196344 0 0 0 0.275391,0.568359 6.3196344,6.3196344 0 0 0 0.330078,0.539062 6.3196344,6.3196344 0 0 0 0.382813,0.501954 6.3196344,6.3196344 0 0 0 0.429687,0.46289 6.3196344,6.3196344 0 0 0 0.47461,0.416016 6.3196344,6.3196344 0 0 0 0.513671,0.367187 6.3196344,6.3196344 0 0 0 0.548829,0.314453 6.3196344,6.3196344 0 0 0 0.576171,0.257813 6.3196344,6.3196344 0 0 0 0.59961,0.199219 6.3196344,6.3196344 0 0 0 0.615234,0.138672 6.3196344,6.3196344 0 0 0 0.626953,0.07617 6.3196344,6.3196344 0 0 0 0.447266,0.01562 6.3196344,6.3196344 0 0 0 0.630859,-0.03125 6.3196344,6.3196344 0 0 0 0.625,-0.09375 6.3196344,6.3196344 0 0 0 0.613282,-0.15625 6.3196344,6.3196344 0 0 0 0.591796,-0.216796 6.3196344,6.3196344 0 0 0 0.570313,-0.275391 6.3196344,6.3196344 0 0 0 0.537109,-0.330078 6.3196344,6.3196344 0 0 0 0.503907,-0.382813 6.3196344,6.3196344 0 0 0 0.460937,-0.429687 6.3196344,6.3196344 0 0 0 0.417969,-0.474609 6.3196344,6.3196344 0 0 0 0.367187,-0.513672 6.3196344,6.3196344 0 0 0 0.314454,-0.548828 6.3196344,6.3196344 0 0 0 0.257812,-0.576172 6.3196344,6.3196344 0 0 0 0.199219,-0.59961 6.3196344,6.3196344 0 0 0 0.138672,-0.617187 6.3196344,6.3196344 0 0 0 0.07617,-0.626953 6.3196344,6.3196344 0 0 0 0.01563,-0.445313 6.3196344,6.3196344 0 0 0 -0.03125,-0.632812 6.3196344,6.3196344 0 0 0 -0.0957,-0.623047 6.3196344,6.3196344 0 0 0 -0.15625,-0.613282 6.3196344,6.3196344 0 0 0 -0.214843,-0.59375 6.3196344,6.3196344 0 0 0 -0.275391,-0.568359 6.3196344,6.3196344 0 0 0 -0.330078,-0.537109 6.3196344,6.3196344 0 0 0 -0.382813,-0.503906 6.3196344,6.3196344 0 0 0 -0.429687,-0.462891 6.3196344,6.3196344 0 0 0 -0.47461,-0.416016 6.3196344,6.3196344 0 0 0 -0.513671,-0.367187 6.3196344,6.3196344 0 0 0 -0.548829,-0.314453 6.3196344,6.3196344 0 0 0 -0.576171,-0.257813 6.3196344,6.3196344 0 0 0 -0.59961,-0.199219 6.3196344,6.3196344 0 0 0 -0.617187,-0.138671 6.3196344,6.3196344 0 0 0 -0.626953,-0.07617 6.3196344,6.3196344 0 0 0 -0.447266,-0.01563 z"
       style="opacity:1;fill:#ff3737;fill-opacity:1;fill-rule:evenodd;stroke:none;stroke-width:1.03534329;stroke-linecap:round;stroke-linejoin:bevel;stroke-miterlimit:4;stroke-dasharray:none;stroke-dashoffset:0;stroke-opacity:1"
       inkscape:connector-curvature="0" />
    <path
       id="path4587"
       d="m -81.408203,35.712891 a 6.3196344,6.3196344 0 0 0 -0.0098,0.267578 6.3196344,6.3196344 0 0 0 0.03125,0.630859 6.3196344,6.3196344 0 0 0 0.09375,0.625 6.3196344,6.3196344 0 0 0 0.15625,0.611328 6.3196344,6.3196344 0 0 0 0.216797,0.59375 6.3196344,6.3196344 0 0 0 0.275391,0.56836 6.3196344,6.3196344 0 0 0 0.330078,0.539062 6.3196344,6.3196344 0 0 0 0.382812,0.501953 6.3196344,6.3196344 0 0 0 0.429688,0.462891 6.3196344,6.3196344 0 0 0 0.474609,0.416016 6.3196344,6.3196344 0 0 0 0.513672,0.36914 6.3196344,6.3196344 0 0 0 0.548828,0.3125 6.3196344,6.3196344 0 0 0 0.576172,0.259766 6.3196344,6.3196344 0 0 0 0.59961,0.199218 6.3196344,6.3196344 0 0 0 0.617187,0.136719 6.3196344,6.3196344 0 0 0 0.626953,0.07617 6.3196344,6.3196344 0 0 0 0.447266,0.01563 6.3196344,6.3196344 0 0 0 0.630859,-0.03125 6.3196344,6.3196344 0 0 0 0.623047,-0.09375 6.3196344,6.3196344 0 0 0 0.613281,-0.15625 6.3196344,6.3196344 0 0 0 0.59375,-0.216797 6.3196344,6.3196344 0 0 0 0.56836,-0.27539 6.3196344,6.3196344 0 0 0 0.537109,-0.330079 6.3196344,6.3196344 0 0 0 0.503906,-0.380859 6.3196344,6.3196344 0 0 0 0.462891,-0.431641 6.3196344,6.3196344 0 0 0 0.167969,-0.191406 6.3196344,6.3196344 0 0 1 -0.0625,-0.248047 6.3196344,6.3196344 0 0 1 -0.09375,-0.623047 6.3196344,6.3196344 0 0 1 -0.03125,-0.630859 6.3196344,6.3196344 0 0 1 0.01563,-0.447265 6.3196344,6.3196344 0 0 1 0.07617,-0.626954 6.3196344,6.3196344 0 0 1 0.138672,-0.617187 6.3196344,6.3196344 0 0 1 0.199219,-0.599609 6.3196344,6.3196344 0 0 1 0.257813,-0.576172 6.3196344,6.3196344 0 0 1 0.314453,-0.548828 6.3196344,6.3196344 0 0 1 0.367187,-0.513672 6.3196344,6.3196344 0 0 1 0.248047,-0.283204 6.3196344,6.3196344 0 0 0 -0.09375,-0.363281 6.3196344,6.3196344 0 0 0 -0.216797,-0.59375 6.3196344,6.3196344 0 0 0 -0.27539,-0.568359 6.3196344,6.3196344 0 0 0 -0.330078,-0.539063 6.3196344,6.3196344 0 0 0 -0.382813,-0.503906 6.3196344,6.3196344 0 0 0 -0.429687,-0.460937 6.3196344,6.3196344 0 0 0 -0.47461,-0.417969 6.3196344,6.3196344 0 0 0 -0.513672,-0.367188 6.3196344,6.3196344 0 0 0 -0.548828,-0.314453 6.3196344,6.3196344 0 0 0 -0.576172,-0.257812 6.3196344,6.3196344 0 0 0 -0.599609,-0.199219 6.3196344,6.3196344 0 0 0 -0.617188,-0.138672 6.3196344,6.3196344 0 0 0 -0.486328,-0.05859 c -0.293018,0.354696 -0.48311,0.7209 -0.814453,1.064453 -0.876889,0.909204 -1.858254,1.767086 -2.77539,2.513672 -1.771643,1.442184 -3.203303,2.373836 -3.306641,2.441407 z"
       style="opacity:1;fill:#c72828;fill-opacity:1;fill-rule:evenodd;stroke:none;stroke-width:1.03534329;stroke-linecap:round;stroke-linejoin:bevel;stroke-miterlimit:4;stroke-dasharray:none;stroke-dashoffset:0;stroke-opacity:1"
       inkscape:connector-curvature="0" />
    <path
       id="path4603"
       d="m -63.648438,32.40625 a 6.3196344,6.3196344 0 0 1 0.457032,0.05469 6.3196344,6.3196344 0 0 1 0.617187,0.138671 6.3196344,6.3196344 0 0 1 0.59961,0.199219 6.3196344,6.3196344 0 0 1 0.576171,0.257813 6.3196344,6.3196344 0 0 1 0.548829,0.314453 6.3196344,6.3196344 0 0 1 0.513671,0.367187 6.3196344,6.3196344 0 0 1 0.47461,0.416016 6.3196344,6.3196344 0 0 1 0.429687,0.462891 6.3196344,6.3196344 0 0 1 0.382813,0.503906 6.3196344,6.3196344 0 0 1 0.330078,0.537109 6.3196344,6.3196344 0 0 1 0.275391,0.568359 6.3196344,6.3196344 0 0 1 0.214843,0.59375 6.3196344,6.3196344 0 0 1 0.15625,0.613282 6.3196344,6.3196344 0 0 1 0.0957,0.623047 6.3196344,6.3196344 0 0 1 0.03125,0.632812 6.3196344,6.3196344 0 0 1 -0.01563,0.445313 6.3196344,6.3196344 0 0 1 -0.07617,0.626953 6.3196344,6.3196344 0 0 1 -0.138672,0.617187 6.3196344,6.3196344 0 0 1 -0.199219,0.59961 6.3196344,6.3196344 0 0 1 -0.257812,0.576172 6.3196344,6.3196344 0 0 1 -0.314454,0.548828 6.3196344,6.3196344 0 0 1 -0.367187,0.513672 6.3196344,6.3196344 0 0 1 -0.417969,0.474609 6.3196344,6.3196344 0 0 1 -0.460937,0.429687 6.3196344,6.3196344 0 0 1 -0.503907,0.382813 6.3196344,6.3196344 0 0 1 -0.537109,0.330078 6.3196344,6.3196344 0 0 1 -0.570313,0.275391 6.3196344,6.3196344 0 0 1 -0.591796,0.216796 6.3196344,6.3196344 0 0 1 -0.613282,0.15625 6.3196344,6.3196344 0 0 1 -0.625,0.09375 6.3196344,6.3196344 0 0 1 -0.630859,0.03125 6.3196344,6.3196344 0 0 1 -0.447266,-0.01562 6.3196344,6.3196344 0 0 1 -0.626953,-0.07617 6.3196344,6.3196344 0 0 1 -0.615234,-0.138672 6.3196344,6.3196344 0 0 1 -0.59961,-0.199219 6.3196344,6.3196344 0 0 1 -0.576171,-0.257813 6.3196344,6.3196344 0 0 1 -0.548829,-0.314453 6.3196344,6.3196344 0 0 1 -0.513671,-0.367187 6.3196344,6.3196344 0 0 1 -0.47461,-0.416016 6.3196344,6.3196344 0 0 1 -0.429687,-0.46289 6.3196344,6.3196344 0 0 1 -0.382813,-0.501954 6.3196344,6.3196344 0 0 1 -0.330078,-0.539062 6.3196344,6.3196344 0 0 1 -0.275391,-0.568359 6.3196344,6.3196344 0 0 1 -0.216796,-0.59375 6.3196344,6.3196344 0 0 1 -0.09375,-0.365235 6.3196344,6.3196344 0 0 1 -0.167969,0.191406 6.3196344,6.3196344 0 0 1 -0.462891,0.431641 6.3196344,6.3196344 0 0 1 -0.503906,0.380859 6.3196344,6.3196344 0 0 1 -0.537109,0.330079 6.3196344,6.3196344 0 0 1 -0.56836,0.27539 6.3196344,6.3196344 0 0 1 -0.59375,0.216797 6.3196344,6.3196344 0 0 1 -0.613281,0.15625 6.3196344,6.3196344 0 0 1 -0.623047,0.09375 6.3196344,6.3196344 0 0 1 -0.630859,0.03125 6.3196344,6.3196344 0 0 1 -0.447266,-0.01563 6.3196344,6.3196344 0 0 1 -0.626953,-0.07617 6.3196344,6.3196344 0 0 1 -0.617187,-0.136719 6.3196344,6.3196344 0 0 1 -0.59961,-0.199218 6.3196344,6.3196344 0 0 1 -0.576172,-0.259766 6.3196344,6.3196344 0 0 1 -0.548828,-0.3125 6.3196344,6.3196344 0 0 1 -0.513672,-0.36914 6.3196344,6.3196344 0 0 1 -0.474609,-0.416016 6.3196344,6.3196344 0 0 1 -0.429688,-0.462891 6.3196344,6.3196344 0 0 1 -0.382812,-0.501953 6.3196344,6.3196344 0 0 1 -0.330078,-0.539062 6.3196344,6.3196344 0 0 1 -0.275391,-0.56836 6.3196344,6.3196344 0 0 1 -0.216797,-0.59375 6.3196344,6.3196344 0 0 1 -0.15625,-0.611328 6.3196344,6.3196344 0 0 1 -0.09375,-0.625 6.3196344,6.3196344 0 0 1 -0.03125,-0.630859 6.3196344,6.3196344 0 0 1 0.0098,-0.267578 c -0.0037,0.0024 -0.117188,0.08594 -0.117188,0.08594 l -0.06836,0.04492 v 8.777344 c 0,3.088651 2.485568,5.576172 5.574219,5.576172 h 17.052734 c 3.088651,0 5.576172,-2.487521 5.576172,-5.576172 V 27.568359 c 0,-3.08865 -2.487521,-5.574218 -5.576172,-5.574218 h -10.867187 c 0.01156,0.0088 0.0099,0.0068 0.02148,0.01563 0.834767,0.639476 1.72601,1.347042 2.537109,2.123046 0.811099,0.776005 1.542055,1.62045 2.058594,2.53125 0.536971,0.946793 0.902164,2.05629 1.164063,3.203126 0.193989,0.849466 0.294588,1.699294 0.404296,2.539062 z"
       style="opacity:1;fill:#ffda00;fill-opacity:1;fill-rule:evenodd;stroke:none;stroke-width:1.03534329;stroke-linecap:round;stroke-linejoin:bevel;stroke-miterlimit:4;stroke-dasharray:none;stroke-dashoffset:0;stroke-opacity:1"
       inkscape:connector-curvature="0" />
    <path
       id="path4608"
       d="m -70.921875,31.248047 a 6.3196344,6.3196344 0 0 1 0.226563,0.199219 6.3196344,6.3196344 0 0 1 0.429687,0.460937 6.3196344,6.3196344 0 0 1 0.382813,0.503906 6.3196344,6.3196344 0 0 1 0.330078,0.539063 6.3196344,6.3196344 0 0 1 0.27539,0.568359 6.3196344,6.3196344 0 0 1 0.216797,0.59375 6.3196344,6.3196344 0 0 1 0.09375,0.363281 6.3196344,6.3196344 0 0 1 0.167969,-0.191406 6.3196344,6.3196344 0 0 1 0.46289,-0.429687 6.3196344,6.3196344 0 0 1 0.501954,-0.382813 6.3196344,6.3196344 0 0 1 0.539062,-0.330078 6.3196344,6.3196344 0 0 1 0.56836,-0.27539 6.3196344,6.3196344 0 0 1 0.04883,-0.01758 c -0.267298,-1.810228 -0.646644,-3.822263 -1.148438,-4.707031 -0.450292,-0.793988 -1.854581,-2.026219 -3.148437,-3.099609 0.122407,0.484528 0.263923,0.948088 0.353515,1.447265 0.17289,0.96328 0.261663,1.937732 0.175782,2.857422 -0.05998,0.642381 -0.264893,1.274818 -0.476563,1.900391 z"
       style="opacity:1;fill:#ffda00;fill-opacity:1;fill-rule:evenodd;stroke:none;stroke-width:1.03534329;stroke-linecap:round;stroke-linejoin:bevel;stroke-miterlimit:4;stroke-dasharray:none;stroke-dashoffset:0;stroke-opacity:1"
       inkscape:connector-curvature="0" />
    <path
       id="path4606"
       d="m -73.539062,28.423828 c -0.303752,0.423684 -0.623014,0.846293 -0.972657,1.269531 a 6.3196344,6.3196344 0 0 1 0.486328,0.05859 6.3196344,6.3196344 0 0 1 0.316407,0.07031 c 0.05858,-0.217837 0.263567,-0.604399 0.277343,-0.751954 0.01226,-0.131248 -0.101989,-0.475652 -0.107421,-0.646484 z"
       style="opacity:1;fill:#ffda00;fill-opacity:1;fill-rule:evenodd;stroke:none;stroke-width:1.03534329;stroke-linecap:round;stroke-linejoin:bevel;stroke-miterlimit:4;stroke-dasharray:none;stroke-dashoffset:0;stroke-opacity:1"
       inkscape:connector-curvature="0" />
    <path
       id="path4601"
       d="m -73.539062,28.423828 c 0.0054,0.170832 0.119678,0.515236 0.107421,0.646484 -0.01378,0.147555 -0.21876,0.534117 -0.277343,0.751954 a 6.3196344,6.3196344 0 0 1 0.300781,0.06836 6.3196344,6.3196344 0 0 1 0.599609,0.199219 6.3196344,6.3196344 0 0 1 0.576172,0.257812 6.3196344,6.3196344 0 0 1 0.548828,0.314453 6.3196344,6.3196344 0 0 1 0.513672,0.367188 6.3196344,6.3196344 0 0 1 0.248047,0.21875 c 0.21167,-0.625573 0.416584,-1.25801 0.476563,-1.900391 0.08588,-0.91969 -0.0029,-1.894142 -0.175782,-2.857422 -0.08959,-0.499177 -0.231108,-0.962737 -0.353515,-1.447265 -0.272199,-0.225817 -0.393195,-0.446341 -0.66211,-0.652344 -0.483889,-0.370685 -0.497196,-0.347369 -0.908203,-0.636719 0.05565,0.445062 0.16931,0.850117 0.146484,1.330078 -0.04421,0.929597 -0.263664,1.90619 -0.771484,2.857422 -0.08655,0.16212 -0.253769,0.321498 -0.36914,0.482422 z"
       style="opacity:1;fill:#1f711f;fill-opacity:1;fill-rule:evenodd;stroke:none;stroke-width:1.03534329;stroke-linecap:round;stroke-linejoin:bevel;stroke-miterlimit:4;stroke-dasharray:none;stroke-dashoffset:0;stroke-opacity:1"
       inkscape:connector-curvature="0" />
    <path
       id="path4581"
       d="m -72.544922,23.753906 c 0.411007,0.28935 0.424314,0.266034 0.908203,0.636719 1.54716,1.185208 3.265524,2.790928 3.810547,3.751953 0.501794,0.884768 0.88114,2.896803 1.148438,4.707031 a 6.3196344,6.3196344 0 0 1 0.544922,-0.199218 6.3196344,6.3196344 0 0 1 0.613281,-0.15625 6.3196344,6.3196344 0 0 1 0.623047,-0.09375 6.3196344,6.3196344 0 0 1 0.630859,-0.03125 6.3196344,6.3196344 0 0 1 0.447266,0.01563 6.3196344,6.3196344 0 0 1 0.169921,0.02148 c -0.109708,-0.839768 -0.210307,-1.689596 -0.404296,-2.539062 -0.261899,-1.146836 -0.627092,-2.256333 -1.164063,-3.203126 -0.516539,-0.9108 -1.247495,-1.755245 -2.058594,-2.53125 -0.811099,-0.776004 -1.702342,-1.48357 -2.537109,-2.123046 -0.01158,-0.0089 -0.0099,-0.0068 -0.02148,-0.01563 h -3.052735 c 0.0907,0.261947 0.127427,0.20945 0.205078,0.513671 0.09431,0.369464 0.08459,0.829153 0.136719,1.246094 z"
       style="opacity:1;fill:#248424;fill-opacity:1;fill-rule:evenodd;stroke:none;stroke-width:1.03534329;stroke-linecap:round;stroke-linejoin:bevel;stroke-miterlimit:4;stroke-dasharray:none;stroke-dashoffset:0;stroke-opacity:1"
       inkscape:connector-curvature="0" />
    <path
       id="rect4497-3-5"
       d="m -81.59375,35.84375 0.06836,-0.04492 c 0,0 1.589549,-1.034171 3.423829,-2.527344 0.917138,-0.746586 1.898501,-1.604468 2.77539,-2.513672 0.876889,-0.909203 1.650874,-1.86975 2.15625,-2.816406 0.50782,-0.951232 0.727279,-1.927825 0.771484,-2.857422 0.04421,-0.929596 -0.08823,-1.812326 -0.283203,-2.576172 -0.07765,-0.304221 -0.114378,-0.251724 -0.205078,-0.513671 h -2.042969 -1.089843 c -3.088651,0 -5.574219,2.485568 -5.574219,5.574218 z"
       style="opacity:1;fill:#32b632;fill-opacity:1;fill-rule:evenodd;stroke:none;stroke-width:1.03534329;stroke-linecap:round;stroke-linejoin:bevel;stroke-miterlimit:4;stroke-dasharray:none;stroke-dashoffset:0;stroke-opacity:1"
       inkscape:connector-curvature="0" />
  </g>
</svg>
