<?xml version="1.0" encoding="UTF-8" standalone="no"?>
<svg
   xmlns:dc="http://purl.org/dc/elements/1.1/"
   xmlns:cc="http://creativecommons.org/ns#"
   xmlns:rdf="http://www.w3.org/1999/02/22-rdf-syntax-ns#"
   xmlns:svg="http://www.w3.org/2000/svg"
   xmlns="http://www.w3.org/2000/svg"
   xmlns:sodipodi="http://sodipodi.sourceforge.net/DTD/sodipodi-0.dtd"
   xmlns:inkscape="http://www.inkscape.org/namespaces/inkscape"
   height="32"
   viewBox="0 0 32 32"
   width="32"
   version="1.1"
   id="svg12"
   sodipodi:docname="gimagereader.svg"
   inkscape:version="0.92.1 r">
  <metadata
     id="metadata18">
    <rdf:RDF>
      <cc:Work
         rdf:about="">
        <dc:format>image/svg+xml</dc:format>
        <dc:type
           rdf:resource="http://purl.org/dc/dcmitype/StillImage" />
        <dc:title />
      </cc:Work>
    </rdf:RDF>
  </metadata>
  <defs
     id="defs16" />
  <sodipodi:namedview
     pagecolor="#ffffff"
     bordercolor="#666666"
     borderopacity="1"
     objecttolerance="10"
     gridtolerance="10"
     guidetolerance="10"
     inkscape:pageopacity="0"
     inkscape:pageshadow="2"
     inkscape:window-width="1680"
     inkscape:window-height="955"
     id="namedview14"
     showgrid="false"
     inkscape:zoom="7.375"
     inkscape:cx="-24.2934"
     inkscape:cy="36.915007"
     inkscape:window-x="0"
     inkscape:window-y="0"
     inkscape:window-maximized="1"
     inkscape:current-layer="svg12" />
  <rect
     style="opacity:1;fill:#4bae4f;fill-opacity:1;fill-rule:evenodd;stroke:none;stroke-width:1.03534329;stroke-linecap:round;stroke-linejoin:bevel;stroke-miterlimit:4;stroke-dasharray:none;stroke-dashoffset:0;stroke-opacity:1"
     id="rect4497"
     width="28.203388"
     height="28.203388"
     x="1.8983059"
     y="1.8983059"
     ry="5.575182" />
  <path
     style="fill:#ffffff;stroke-width:0.99999994"
     d="m 24.299364,24.531591 c -0.27307,-0.08992 -0.56985,-0.272299 -0.738832,-0.45404 -0.09718,-0.104508 -0.177302,-0.204374 -0.178063,-0.221923 -7.45e-4,-0.01755 0.256887,-0.177681 0.572543,-0.355844 0.31566,-0.178168 0.619836,-0.349906 0.675951,-0.381647 0.05609,-0.03175 0.366038,-0.209101 0.688707,-0.394138 l 0.586674,-0.336436 0.08795,0.188818 c 0.122522,0.263092 0.116467,0.753562 -0.01352,1.101212 -0.115044,0.307488 -0.366887,0.56952 -0.720987,0.75017 -0.234789,0.11979 -0.744517,0.174892 -0.960335,0.103824 z m -1.296082,-1.345838 c -0.140719,-0.239506 -0.633615,-1.096097 -0.785064,-1.364336 -0.07134,-0.126255 -0.259265,-0.447659 -0.417728,-0.714213 -0.418154,-0.703382 -0.637732,-1.114661 -0.609943,-1.142453 0.01338,-0.01338 0.46009,-0.274813 0.992661,-0.580942 0.53257,-0.30613 1.088105,-0.627974 1.234512,-0.715203 l 0.266195,-0.15861 0.275231,0.469606 c 0.151385,0.258281 0.373707,0.641781 0.49406,0.852219 0.120354,0.210437 0.338376,0.589226 0.484492,0.84175 0.625907,1.081733 0.694437,1.212734 0.654055,1.250227 -0.03647,0.03386 -0.635233,0.384567 -1.241376,0.727097 -0.09821,0.05551 -0.412649,0.235915 -0.698772,0.400936 -0.286114,0.165029 -0.52716,0.299894 -0.535659,0.299717 -0.0085,-1.54e-4 -0.05915,-0.07479 -0.112664,-0.165799 z M 18.796027,19.617011 C 16.78489,19.491362 15.059248,18.372476 14.013112,16.515836 13.842206,16.212528 13.593288,15.543013 13.472551,15.0619 c -0.16471,-0.656325 -0.163202,-1.980847 0.003,-2.647469 0.289363,-1.160538 0.789548,-2.049431 1.610695,-2.862412 0.856849,-0.8483206 1.77345,-1.3435132 2.933732,-1.5849462 3.037831,-0.6321187 6.006073,1.138041 6.88838,4.1079942 0.609899,2.052994 0.03909,4.305385 -1.474872,5.819648 -1.067464,1.06768 -2.317881,1.630383 -3.878549,1.745397 -0.09821,0.0072 -0.43972,-0.0032 -0.758923,-0.02309 z m 1.677196,-1.094397 c 2.692179,-0.682966 4.306766,-3.51376 3.512057,-6.157564 -0.456939,-1.520136 -1.522194,-2.6727089 -2.995272,-3.2407874 -1.27846,-0.4930271 -2.907857,-0.3895532 -4.075938,0.258837 -0.492717,0.273502 -0.730549,0.4527802 -1.133709,0.8545604 -0.5767,0.574748 -0.856346,0.990359 -1.130189,1.67971 -0.738772,1.859767 -0.274027,3.993157 1.17054,5.37329 1.27562,1.218722 2.953413,1.662992 4.652511,1.231954 z"
     id="path4513"
     inkscape:connector-curvature="0"
     sodipodi:nodetypes="cccccccccccccccccccccccccccccccccscccccsccccccs" />
  <text
     xml:space="preserve"
     style="font-style:normal;font-weight:normal;font-size:9.00994205px;line-height:1.25;font-family:sans-serif;letter-spacing:0px;word-spacing:0px;fill:#c6fbcf;fill-opacity:1;stroke:none;stroke-width:1;"
     x="15.447625"
     y="16.800108"
     id="text4517"><tspan
       sodipodi:role="line"
       id="tspan4515"
       x="15.447625"
       y="16.800108"
       style="fill:#c6fbcf;fill-opacity:1;stroke-width:1;">G</tspan></text>
  <path
     style="fill:#c6fbcf;fill-opacity:1;stroke-width:1"
     d="M 6.1533583,14.052007 C 5.8352199,13.853626 5.840287,13.186736 6.1613983,12.99467 6.2584573,12.9366 6.7956492,12.9234 9.0605819,12.9234 h 2.7800431 l -0.02338,0.117601 c -0.01287,0.06468 -0.04143,0.305743 -0.06348,0.535706 -0.02205,0.229963 -0.04575,0.447512 -0.05274,0.483442 -0.01911,0.09877 -5.3888725,0.09086 -5.5476598,-0.0081 z M 6.1156671,11.295664 C 6.0062528,11.219659 5.9177853,10.977587 5.9177853,10.75422 c 0,-0.149972 0.027758,-0.232873 0.1241263,-0.370852 l 0.1241263,-0.177696 h 3.2711205 c 1.7991186,0 3.2711196,0.01597 3.2711196,0.03536 0,0.01946 -0.07263,0.189964 -0.161411,0.378915 -0.08878,0.188951 -0.190397,0.431743 -0.225815,0.53954 l -0.06439,0.195987 -3.0325367,-0.0034 c -1.9604676,-0.0022 -3.0593736,-0.02219 -3.1084584,-0.05628 z M 6.1510195,8.5865272 C 6.0167541,8.5088552 5.9178059,8.2768039 5.9178059,8.0395841 c 0,-0.2780882 0.1521595,-0.5221469 0.3555512,-0.5702702 0.1977165,-0.046784 9.2096859,-0.041331 9.2089019,0.00563 -3.63e-4,0.021571 -0.119467,0.09305 -0.264686,0.1588336 -0.306922,0.1390844 -0.809444,0.4936634 -1.125361,0.7940641 l -0.220817,0.2099573 -3.821633,-0.00342 C 7.947859,8.6325001 6.1934261,8.6109846 6.1510193,8.5864776 Z"
     id="path4513-3"
     inkscape:connector-curvature="0"
     sodipodi:nodetypes="ccscccccccsccsscscccccscccccscc" />
</svg>
