<?xml version="1.0" encoding="UTF-8" standalone="no"?>
<svg
   xmlns:dc="http://purl.org/dc/elements/1.1/"
   xmlns:cc="http://creativecommons.org/ns#"
   xmlns:rdf="http://www.w3.org/1999/02/22-rdf-syntax-ns#"
   xmlns:svg="http://www.w3.org/2000/svg"
   xmlns="http://www.w3.org/2000/svg"
   xmlns:sodipodi="http://sodipodi.sourceforge.net/DTD/sodipodi-0.dtd"
   xmlns:inkscape="http://www.inkscape.org/namespaces/inkscape"
   width="32"
   height="32"
   version="1"
   id="svg12"
   sodipodi:docname="github.svg"
   inkscape:version="0.92.1 r">
  <metadata
     id="metadata18">
    <rdf:RDF>
      <cc:Work
         rdf:about="">
        <dc:format>image/svg+xml</dc:format>
        <dc:type
           rdf:resource="http://purl.org/dc/dcmitype/StillImage" />
      </cc:Work>
    </rdf:RDF>
  </metadata>
  <defs
     id="defs16" />
  <sodipodi:namedview
     pagecolor="#ffffff"
     bordercolor="#666666"
     borderopacity="1"
     objecttolerance="10"
     gridtolerance="10"
     guidetolerance="10"
     inkscape:pageopacity="0"
     inkscape:pageshadow="2"
     inkscape:window-width="1680"
     inkscape:window-height="963"
     id="namedview14"
     showgrid="false"
     inkscape:zoom="7.375"
     inkscape:cx="-8.6779661"
     inkscape:cy="16"
     inkscape:window-x="0"
     inkscape:window-y="0"
     inkscape:window-maximized="1"
     inkscape:current-layer="svg12" />
  <rect
     style="opacity:0.98000004;fill:#4f4f4f;fill-opacity:1;fill-rule:evenodd;stroke:none;stroke-width:1.03534329;stroke-linecap:round;stroke-linejoin:bevel;stroke-miterlimit:4;stroke-dasharray:none;stroke-dashoffset:0;stroke-opacity:1"
     id="rect4497-3"
     width="28.203388"
     height="28.203388"
     x="1.8983059"
     y="1.8983059"
     ry="5.575182" />
  <path
     d="m 23.310671,9.1207722 c -0.42608,-0.0199 -1.6271,0.07253 -3.5035,1.3778998 -2.01,-0.6060898 -4.1662,-0.6997098 -6.5771,0 -1.877,-1.3052998 -2.836,-1.3965998 -3.2624999,-1.3764998 -0.1422,0.0067 -0.2109,0.0283 -0.2109,0.0283 -0.71357,1.8510998 -0.26226,3.2197998 -0.12711,3.5598998 -0.83826,0.93961 -1.3508,2.1404 -1.3508,3.6084 0,5.1538 3.0601999,6.3077 5.9699999,6.6471 -0.37408,0.33605 -0.71254,0.9309 -0.8316,1.7995 -0.74655,0.3443 -2.6457,0.93713 -3.8145999,-1.118 0,0 -0.69135,-1.2924 -2.0067,-1.3873 0,0 -1.2791,-0.01634 -0.08924,0.81758 0,0 0.85885,0.41396 1.455,1.9679 0,0 0.76851,2.616 4.4135999,1.8035 0.0057,0.98925 0.01268,1.628 0.01487,2.0164 0.85992,0.16645 1.7337,0.25123 2.6097,0.25322 1.318,-0.0026 2.6289,-0.19264 3.893,-0.56436 0.0034,-0.62566 0.01217,-1.5927 0.01217,-3.1074 0,-1.2542 -0.41723,-2.0752 -0.88704,-2.4905 2.9186,-0.33274 5.9821,-1.4707 5.9821,-6.6377 0,-1.468 -0.50827,-2.6688 -1.3481,-3.6084 0.13435,-0.34018 0.58536,-1.7088 -0.12981,-3.5598998 0,0 -0.06891,-0.023 -0.21094,-0.02963 z"
     id="path8"
     inkscape:connector-curvature="0"
     style="fill:#ffffff" />
</svg>
