<?xml version="1.0" encoding="UTF-8" standalone="no"?>
<svg
   xmlns:dc="http://purl.org/dc/elements/1.1/"
   xmlns:cc="http://creativecommons.org/ns#"
   xmlns:rdf="http://www.w3.org/1999/02/22-rdf-syntax-ns#"
   xmlns:svg="http://www.w3.org/2000/svg"
   xmlns="http://www.w3.org/2000/svg"
   xmlns:sodipodi="http://sodipodi.sourceforge.net/DTD/sodipodi-0.dtd"
   xmlns:inkscape="http://www.inkscape.org/namespaces/inkscape"
   height="32"
   width="32"
   version="1"
   id="svg12"
   sodipodi:docname="app.svg"
   inkscape:version="0.92.1 r">
  <metadata
     id="metadata18">
    <rdf:RDF>
      <cc:Work
         rdf:about="">
        <dc:format>image/svg+xml</dc:format>
        <dc:type
           rdf:resource="http://purl.org/dc/dcmitype/StillImage" />
      </cc:Work>
    </rdf:RDF>
  </metadata>
  <defs
     id="defs16" />
  <sodipodi:namedview
     pagecolor="#ffffff"
     bordercolor="#666666"
     borderopacity="1"
     objecttolerance="10"
     gridtolerance="10"
     guidetolerance="10"
     inkscape:pageopacity="0"
     inkscape:pageshadow="2"
     inkscape:window-width="1680"
     inkscape:window-height="963"
     id="namedview14"
     showgrid="false"
     inkscape:zoom="7.375"
     inkscape:cx="16"
     inkscape:cy="16"
     inkscape:window-x="0"
     inkscape:window-y="0"
     inkscape:window-maximized="1"
     inkscape:current-layer="svg12" />
  <rect
     style="opacity:1;fill:#4f4f4f;fill-opacity:1;fill-rule:evenodd;stroke:none;stroke-width:1.03534329;stroke-linecap:round;stroke-linejoin:bevel;stroke-miterlimit:4;stroke-dasharray:none;stroke-dashoffset:0;stroke-opacity:1"
     id="rect4497-3"
     width="28.203388"
     height="28.203388"
     x="1.8983059"
     y="1.8983059"
     ry="5.575182" />
  <path
     d="m 10.480665,10.163193 c -1.733099,1.527639 -2.828948,3.759131 -2.828948,6.261755 0,3.380676 1.993473,6.272608 4.869821,7.588016 v 0.06523 h 0.134518 c 0.402145,0.175184 0.824651,0.309841 1.256878,0.421254 v 1.417349 A 9.7396423,9.7405698 0 0 1 6.260358,16.425748 9.7396423,9.7405698 0 0 1 6.670721,13.642993 H 5.231759 A 11.13102,11.131947 0 0 0 4.86898,16.425748 11.13102,11.131947 0 0 0 15.304311,27.531723 v -4.916479 c 0.239688,0.03756 0.477836,0.06674 0.710632,0.07202 0.240801,-0.0098 0.460611,-0.0393 0.680746,-0.06795 v 4.902843 A 11.13102,11.131947 0 0 0 27.13102,16.425458 11.13102,11.131947 0 0 0 26.762768,13.642703 h -1.437571 a 9.7396423,9.7405698 0 0 1 0.414427,2.783034 9.7396423,9.7405698 0 0 1 -7.652576,9.501253 v -1.426812 c 0.432208,-0.111412 0.854714,-0.246069 1.256877,-0.421253 h 0.134519 v -0.06523 c 2.876348,-1.315408 4.869821,-4.20734 4.869821,-7.588016 0,-2.502624 -1.095849,-4.734116 -2.828949,-6.261755 h -2.491957 c 2.327218,1.122841 3.929528,3.495418 3.929528,6.261755 0,2.583788 -1.398241,4.825204 -3.478443,6.025314 v -0.902299 c 0.480702,-0.464062 0.507519,-1.165047 0.01631,-1.694512 l -0.274473,-0.29488 0.09376,-0.540837 c 0.13898,-0.805209 0.471723,-1.410672 0.963389,-1.752951 0.221916,-0.15448 0.446864,-0.331008 0.500024,-0.394075 0.118982,-0.141132 0.12489,-0.84758 0.01086,-1.25428 -0.312633,-1.11505 -1.951824,-3.489853 -3.161859,-4.580786 -0.687349,-0.619683 -1.225803,-0.901483 -1.745993,-0.869685 -0.312104,0.01907 -0.616686,0.151233 -0.944374,0.391357 -0.437097,0.320332 -1.55825,1.496937 -2.088458,2.193275 -1.132395,1.48729 -1.717516,2.688791 -1.717516,3.523617 0,0.553444 0.04951,0.642408 0.528556,0.9607 0.529874,0.352111 0.836404,0.868062 0.99734,1.680969 l 0.127728,0.649551 -0.2011,0.180731 c -0.330564,0.29833 -0.469386,0.632705 -0.42937,1.038153 0.02749,0.278619 0.170434,0.553666 0.368223,0.762336 v 0.903662 C 10.441289,21.25093 9.043048,19.009513 9.043048,16.425725 c 0,-2.766336 1.602403,-5.138914 3.929528,-6.261755 h -2.491957 z m 3.432065,9.74057 a 0.69568873,0.69575366 0 0 1 0.695688,0.695689 0.69568873,0.69575366 0 0 1 -0.695688,0.695688 0.69568873,0.69575366 0 0 1 -0.695689,-0.695688 0.69568873,0.69575366 0 0 1 0.695689,-0.695689 z m 4.174132,0 a 0.69568873,0.69575366 0 0 1 0.695689,0.695754 0.69568873,0.69575366 0 0 1 -0.695689,0.695753 0.69568873,0.69575366 0 0 1 -0.695689,-0.695688 0.69568873,0.69575366 0 0 1 0.695689,-0.695689 z"
     id="path6"
     inkscape:connector-curvature="0"
     style="fill:#3fb2ab;stroke-width:0.92758501" />
</svg>
