<?xml version="1.0" encoding="UTF-8" standalone="no"?>
<svg
   xmlns:dc="http://purl.org/dc/elements/1.1/"
   xmlns:cc="http://creativecommons.org/ns#"
   xmlns:rdf="http://www.w3.org/1999/02/22-rdf-syntax-ns#"
   xmlns:svg="http://www.w3.org/2000/svg"
   xmlns="http://www.w3.org/2000/svg"
   xmlns:sodipodi="http://sodipodi.sourceforge.net/DTD/sodipodi-0.dtd"
   xmlns:inkscape="http://www.inkscape.org/namespaces/inkscape"
   height="32"
   width="32"
   version="1"
   id="svg12"
   sodipodi:docname="gnewb.svg"
   inkscape:version="0.92.1 r">
  <metadata
     id="metadata18">
    <rdf:RDF>
      <cc:Work
         rdf:about="">
        <dc:format>image/svg+xml</dc:format>
        <dc:type
           rdf:resource="http://purl.org/dc/dcmitype/StillImage" />
        <dc:title></dc:title>
      </cc:Work>
    </rdf:RDF>
  </metadata>
  <defs
     id="defs16" />
  <sodipodi:namedview
     pagecolor="#ffffff"
     bordercolor="#666666"
     borderopacity="1"
     objecttolerance="10"
     gridtolerance="10"
     guidetolerance="10"
     inkscape:pageopacity="0"
     inkscape:pageshadow="2"
     inkscape:window-width="1680"
     inkscape:window-height="965"
     id="namedview14"
     showgrid="false"
     inkscape:zoom="5.12"
     inkscape:cx="43.528158"
     inkscape:cy="8.6340662"
     inkscape:window-x="0"
     inkscape:window-y="0"
     inkscape:window-maximized="1"
     inkscape:current-layer="svg12" />
  <rect
     style="opacity:1;fill:#ac1500;fill-opacity:1;fill-rule:evenodd;stroke:none;stroke-width:1.03534329;stroke-linecap:round;stroke-linejoin:bevel;stroke-miterlimit:4;stroke-dasharray:none;stroke-dashoffset:0;stroke-opacity:1"
     id="rect4497-3"
     width="28.203388"
     height="28.203388"
     x="1.8983059"
     y="1.8983059"
     ry="5.575182" />
  <path
     style="fill:#ffffff;stroke-width:1.00000024"
     d="M 19.525643,26.007391 C 18.600484,25.586412 17.245246,24.862094 16.076067,24.163778 15.341803,23.725286 15.253853,23.689862 14.807059,23.652854 14.093698,23.593772 13.653336,23.482526 13.158791,23.236238 12.74291,23.029163 12.418158,22.794293 12.064624,22.444935 11.022534,21.414911 10.353011,19.806904 10.0796,17.677416 9.9874905,16.960066 9.9437615,15.658687 9.9864905,14.90792 10.12618,12.453417 10.902625,10.321199 12.119369,9.0510068 c 0.695125,-0.7257761 1.3464,-1.1066941 2.240984,-1.3105899 0.694926,-0.1584624 1.686148,-0.1086912 2.345849,0.1176658 1.769199,0.6071752 2.87158,2.2634083 3.337806,5.0146683 0.138569,0.817304 0.180811,1.412937 0.180687,2.546504 0,2.480167 -0.328405,4.258977 -1.02459,5.553251 -0.261395,0.486056 -0.686836,0.992804 -0.993739,1.1837 -0.160644,0.09997 -0.197789,0.160855 -0.197789,0.324752 0,0.08177 0.02032,0.175502 0.04512,0.208209 0.05285,0.06955 1.055689,0.476371 2.158207,0.875338 0.427162,0.154549 0.789183,0.292183 0.804502,0.305707 -0.235978,0.910386 -0.627444,1.588157 -1.490802,2.137117 z m -4.049846,-5.193423 c 0.673761,-0.217557 1.070085,-1.231252 1.275963,-3.263504 0.07416,-0.733342 0.06282,-3.669452 -0.01708,-4.359741 -0.120159,-1.039634 -0.277063,-1.644429 -0.550873,-2.123979 -0.173644,-0.304124 -0.302915,-0.440561 -0.541238,-0.571091 -0.119037,-0.06519 -0.201639,-0.0789 -0.469603,-0.0779 -1.477391,0.451886 -1.660113,2.495745 -1.755538,3.647627 -0.05858,0.761462 -0.02318,3.250379 0.05522,3.882496 0.156667,1.261517 0.422113,2.073249 0.820556,2.50916 0.342191,0.374487 0.748586,0.497138 1.182516,0.356974 z m 6.289372,-7.290204 c 0,-0.01 0.122402,-0.387362 0.272139,-0.839789 0.552456,-1.669695 0.971129,-3.2374542 1.174689,-4.3986061 0.04176,-0.2383853 0.08688,-0.4430041 0.100215,-0.4546834 0.01334,-0.011218 0.471199,-0.056839 1.017549,-0.10034 0.546285,-0.043501 1.094892,-0.088623 1.21906,-0.1003399 0.143271,-0.013462 0.225784,-0.00748 0.225784,0.015581 0,0.093858 -0.506555,1.4498817 -0.731476,1.9582252 -0.336884,0.7614622 -0.796344,1.6991482 -1.177007,2.4021022 -0.398838,0.736458 -0.703622,1.268085 -0.761982,1.329174 -0.04699,0.04899 -0.194011,0.08202 -0.601204,0.13478 -0.54828,0.07105 -0.73778,0.08488 -0.73778,0.05397 z"
     id="path4513"
     inkscape:connector-curvature="0"
     sodipodi:nodetypes="ccccccccccccccsccccccccccccccccccccccscccccc" />
</svg>
