<?xml version="1.0" encoding="UTF-8" standalone="no"?>
<svg
   xmlns:dc="http://purl.org/dc/elements/1.1/"
   xmlns:cc="http://creativecommons.org/ns#"
   xmlns:rdf="http://www.w3.org/1999/02/22-rdf-syntax-ns#"
   xmlns:svg="http://www.w3.org/2000/svg"
   xmlns="http://www.w3.org/2000/svg"
   xmlns:sodipodi="http://sodipodi.sourceforge.net/DTD/sodipodi-0.dtd"
   xmlns:inkscape="http://www.inkscape.org/namespaces/inkscape"
   height="32"
   width="32"
   version="1"
   id="svg18"
   sodipodi:docname="goobox.svg"
   inkscape:version="0.92.1 r">
  <metadata
     id="metadata24">
    <rdf:RDF>
      <cc:Work
         rdf:about="">
        <dc:format>image/svg+xml</dc:format>
        <dc:type
           rdf:resource="http://purl.org/dc/dcmitype/StillImage" />
      </cc:Work>
    </rdf:RDF>
  </metadata>
  <defs
     id="defs22" />
  <sodipodi:namedview
     pagecolor="#ffffff"
     bordercolor="#666666"
     borderopacity="1"
     objecttolerance="10"
     gridtolerance="10"
     guidetolerance="10"
     inkscape:pageopacity="0"
     inkscape:pageshadow="2"
     inkscape:window-width="640"
     inkscape:window-height="480"
     id="namedview20"
     showgrid="false"
     inkscape:zoom="8.9375"
     inkscape:cx="-5.2587413"
     inkscape:cy="16"
     inkscape:current-layer="svg18" />
  <rect
     style="opacity:1;fill:#178528;fill-opacity:1;fill-rule:evenodd;stroke:none;stroke-width:1.03534329;stroke-linecap:round;stroke-linejoin:bevel;stroke-miterlimit:4;stroke-dasharray:none;stroke-dashoffset:0;stroke-opacity:1"
     id="rect4497"
     width="28.203388"
     height="28.203388"
     x="1.8983059"
     y="1.8983059"
     ry="5.575182" />
  <circle
     style="opacity:1;fill:#ffffff;fill-opacity:1;fill-rule:nonzero;stroke:none;stroke-width:10.04598427;stroke-linecap:round;stroke-linejoin:bevel;stroke-miterlimit:4;stroke-dasharray:none;stroke-dashoffset:0;stroke-opacity:1"
     id="path4520"
     cx="16.27972"
     cy="16.95105"
     r="3.4125874" />
  <path
     d="M 16,10.625874 A 5.3741259,5.3741259 0 0 0 10.625874,16 5.3741259,5.3741259 0 0 0 16,21.374126 5.3741259,5.3741259 0 0 0 21.374126,16 5.3741259,5.3741259 0 0 0 16,10.625874 Z m 0,3.224476 c 1.187252,0 2.14965,0.962398 2.14965,2.14965 0,1.187252 -0.962398,2.14965 -2.14965,2.14965 -1.187252,0 -2.14965,-0.962398 -2.14965,-2.14965 0,-1.187252 0.962398,-2.14965 2.14965,-2.14965 z"
     id="path2"
     inkscape:connector-curvature="0"
     style="fill:#848484;stroke-width:1" />
  <path
     d="M 16,5.2517481 C 10.045468,5.2517481 5.251748,10.045468 5.251748,16 5.251748,21.954531 10.045468,26.748252 16,26.748252 21.954531,26.748252 26.748252,21.954531 26.748252,16 26.748252,10.045468 21.954531,5.2517481 16,5.2517481 Z m 0,6.4489509 A 4.2993007,4.2993007 0 0 1 20.299301,16 4.2993007,4.2993007 0 0 1 16,20.299301 4.2993007,4.2993007 0 0 1 11.700699,16 4.2993007,4.2993007 0 0 1 16,11.700699 Z"
     id="path4"
     inkscape:connector-curvature="0"
     style="fill:#cccccc;stroke-width:1" />
  <g
     id="g4518"
     transform="matrix(0.75,0,0,0.75,4.041958,4.9038462)"
     style="stroke-width:1.33333337">
    <circle
       id="circle10"
       r="8"
       cy="23"
       cx="24"
       style="fill:#2eac43;stroke-width:1.77777779;enable-background:new" />
    <circle
       id="circle12"
       r="2.5"
       cx="23.5"
       cy="26.5"
       style="fill:#ffffff;stroke-width:1.77777779" />
    <rect
       id="rect14"
       x="24"
       y="19"
       width="2"
       height="8"
       ry="1"
       rx="1"
       style="fill:#ffffff;stroke-width:1.77777779" />
  </g>
</svg>
