<?xml version="1.0" encoding="UTF-8" standalone="no"?>
<svg
   xmlns:dc="http://purl.org/dc/elements/1.1/"
   xmlns:cc="http://creativecommons.org/ns#"
   xmlns:rdf="http://www.w3.org/1999/02/22-rdf-syntax-ns#"
   xmlns:svg="http://www.w3.org/2000/svg"
   xmlns="http://www.w3.org/2000/svg"
   xmlns:sodipodi="http://sodipodi.sourceforge.net/DTD/sodipodi-0.dtd"
   xmlns:inkscape="http://www.inkscape.org/namespaces/inkscape"
   height="32"
   width="32"
   version="1"
   id="svg24"
   sodipodi:docname="mygpo.svg"
   inkscape:version="0.92.1 r">
  <metadata
     id="metadata30">
    <rdf:RDF>
      <cc:Work
         rdf:about="">
        <dc:format>image/svg+xml</dc:format>
        <dc:type
           rdf:resource="http://purl.org/dc/dcmitype/StillImage" />
      </cc:Work>
    </rdf:RDF>
  </metadata>
  <defs
     id="defs28" />
  <sodipodi:namedview
     pagecolor="#ffffff"
     bordercolor="#666666"
     borderopacity="1"
     objecttolerance="10"
     gridtolerance="10"
     guidetolerance="10"
     inkscape:pageopacity="0"
     inkscape:pageshadow="2"
     inkscape:window-width="640"
     inkscape:window-height="480"
     id="namedview26"
     showgrid="false"
     inkscape:zoom="8.9375"
     inkscape:cx="-5.3706294"
     inkscape:cy="16"
     inkscape:current-layer="svg24" />
  <rect
     style="opacity:1;fill:#974fa4;fill-opacity:1;fill-rule:evenodd;stroke:none;stroke-width:1.03534329;stroke-linecap:round;stroke-linejoin:bevel;stroke-miterlimit:4;stroke-dasharray:none;stroke-dashoffset:0;stroke-opacity:1"
     id="rect4497-3"
     width="28.203388"
     height="28.203388"
     x="1.8983059"
     y="1.8983059"
     ry="5.575182"
     inkscape:export-filename="/home/ramil/3.png"
     inkscape:export-xdpi="71"
     inkscape:export-ydpi="71" />
  <g
     id="g4520"
     transform="translate(44.866789,4.0463474)">
    <path
       inkscape:connector-curvature="0"
       id="path6"
       d="m -29.151481,1.5170331 c -0.215828,0.00348 -0.434291,0.017501 -0.653558,0.041738 -3.436287,0.3798903 -5.939528,3.2146972 -5.703492,6.3795813 l -0.804233,0.090095 0.460157,4.1622636 2.682762,-0.296348 -0.46053,-4.163752 -0.993508,0.1101995 c -0.184137,-2.7121728 1.965572,-5.1337317 4.912663,-5.4594902 2.945304,-0.3255724 5.58406,1.5631199 6.000063,4.2470726 l -0.874448,0.096708 0.460135,4.1625621 2.589762,-0.286057 -0.460135,-4.1625621 -0.831708,0.091622 c -0.438564,-2.9333163 -3.161533,-5.0650803 -6.323811,-5.0140758 z"
       style="fill:#4d4d4d;stroke-width:1" />
    <path
       inkscape:connector-curvature="0"
       id="path8"
       d="m -29.546859,3.7775594 c -0.364619,0.014044 -0.684994,0.2077781 -0.936547,0.4948179 -0.251523,0.2870399 -0.450209,0.6693278 -0.617556,1.1180034 -0.334694,0.8973811 -0.540454,2.8123336 -0.654399,4.0228152 -0.113945,1.2104811 -0.13343,1.7141391 -0.08144,2.7576841 0.052,1.043544 0.15355,1.855669 0.368402,2.309125 0.187919,0.396584 0.406241,0.849876 0.500253,1.259252 0.09401,0.409377 0.07435,0.735627 -0.166751,0.999539 -0.241099,0.263876 -0.77296,0.501214 -1.795507,0.556046 -1.022472,0.05484 -2.516643,-0.366599 -4.635079,-0.760853 -0.341216,-0.0635 -0.625873,-0.06917 -0.87348,0.01284 -0.247628,0.08202 -0.441482,0.264434 -0.559388,0.494818 -0.23582,0.46076 -0.257018,2.136766 -0.291813,3.012554 -0.01125,0.28319 0.09275,0.553157 0.275335,0.7743 0.182588,0.221166 0.438236,0.402459 0.755238,0.56099 0.633982,0.317062 1.521796,0.545621 2.624386,0.708151 2.205106,0.325043 5.266715,0.376271 8.744477,0.174815 l 0.0029,-9.68e-4 h 0.0039 c 1.280027,-0.105412 3.304868,-0.179357 5.051008,-0.623208 0.873033,-0.221925 1.680318,-0.534557 2.296691,-1.012346 0.616357,-0.477789 1.038481,-1.14116 1.080029,-1.987164 0.03863,-0.786586 -0.002,-1.983872 -0.159968,-2.362348 -0.157972,-0.378483 -0.496523,-0.580386 -0.844441,-0.587653 -0.69579,-0.01454 -1.515615,0.366547 -2.579784,0.616283 -1.221129,0.286578 -2.082695,0.164282 -2.668986,0.11983 -0.586299,-0.04446 -0.879362,0.0046 -1.060596,-0.228474 -0.181233,-0.233094 -0.262662,-0.577906 -0.300539,-1.016292 -0.03787,-0.438393 -0.03346,-0.957469 -0.09113,-1.504223 -0.110944,-1.047639 -0.320174,-2.756492 -0.792989,-4.9478232 -0.236035,-1.0954423 -0.536106,-2.8710074 -0.938929,-3.64635 -0.201784,-0.3876341 -0.42814,-0.713616 -0.699916,-0.9491301 -0.271776,-0.2354397 -0.599396,-0.3781034 -0.953821,-0.3644029 z"
       style="fill:#f2f2f2;stroke-width:1" />
    <path
       inkscape:connector-curvature="0"
       id="path14"
       d="m -30.365909,9.8451681 a 2.2271461,4.4679928 2.5216 1 1 -4.44841,-0.2241218 2.2271461,4.4679928 2.5216 1 1 4.44841,0.2241218 z"
       style="fill:#ffffff;stroke-width:1" />
    <path
       inkscape:connector-curvature="0"
       id="path16"
       d="m -31.106033,10.513811 a 1.110428,1.495165 6.8892 0 1 -2.223572,-0.07149 1.110428,1.495165 6.8892 0 1 2.223572,0.07149 z"
       style="fill:#4d4d4d;stroke-width:1" />
    <path
       inkscape:connector-curvature="0"
       id="path20"
       d="m -23.70182,9.4974441 a 4.4869671,2.5693955 83.212 0 1 -5.118318,0.4717208 4.4869671,2.5693955 83.212 1 1 5.118318,-0.4717208 z"
       style="fill:#ffffff;stroke-width:1" />
    <path
       inkscape:connector-curvature="0"
       id="path22"
       d="m -25.183556,10.580079 a 1.0713175,1.5223163 16.98 0 1 -2.155516,-0.201761 1.0713175,1.5223163 16.98 1 1 2.155516,0.201761 z"
       style="fill:#4d4d4d;stroke-width:1" />
  </g>
</svg>
