<?xml version="1.0" encoding="UTF-8" standalone="no"?>
<svg
   xmlns:dc="http://purl.org/dc/elements/1.1/"
   xmlns:cc="http://creativecommons.org/ns#"
   xmlns:rdf="http://www.w3.org/1999/02/22-rdf-syntax-ns#"
   xmlns:svg="http://www.w3.org/2000/svg"
   xmlns="http://www.w3.org/2000/svg"
   xmlns:sodipodi="http://sodipodi.sourceforge.net/DTD/sodipodi-0.dtd"
   xmlns:inkscape="http://www.inkscape.org/namespaces/inkscape"
   height="32"
   width="32"
   version="1"
   id="svg16"
   sodipodi:docname="granatier.svg"
   inkscape:version="0.92.1 r">
  <metadata
     id="metadata22">
    <rdf:RDF>
      <cc:Work
         rdf:about="">
        <dc:format>image/svg+xml</dc:format>
        <dc:type
           rdf:resource="http://purl.org/dc/dcmitype/StillImage" />
      </cc:Work>
    </rdf:RDF>
  </metadata>
  <defs
     id="defs20" />
  <sodipodi:namedview
     pagecolor="#ffffff"
     bordercolor="#666666"
     borderopacity="1"
     objecttolerance="10"
     gridtolerance="10"
     guidetolerance="10"
     inkscape:pageopacity="0"
     inkscape:pageshadow="2"
     inkscape:window-width="640"
     inkscape:window-height="480"
     id="namedview18"
     showgrid="false"
     inkscape:zoom="8.9375"
     inkscape:cx="-15.173691"
     inkscape:cy="6.3279547"
     inkscape:current-layer="svg16" />
  <rect
     style="opacity:1;fill:#ececec;fill-opacity:1;fill-rule:evenodd;stroke:none;stroke-width:1.03534329;stroke-linecap:round;stroke-linejoin:bevel;stroke-miterlimit:4;stroke-dasharray:none;stroke-dashoffset:0;stroke-opacity:1"
     id="rect4497-3-3"
     width="28.203388"
     height="28.203388"
     x="1.8983059"
     y="1.8983059"
     ry="5.575182" />
  <g
     id="g4508"
     transform="translate(43.05728,-8.1700733)">
    <path
       style="fill:#4f4f4f;stroke-width:1"
       inkscape:connector-curvature="0"
       id="path2"
       d="m -23.520953,14.564873 c -0.242331,-0.139871 -0.549789,-0.0574 -0.689887,0.184778 l -0.686291,1.188711 a 9.087431,9.087431 0 0 0 -10.046155,4.274122 9.087431,9.087431 0 0 0 3.326,12.413431 9.087431,9.087431 0 0 0 12.413431,-3.326 9.087431,9.087431 0 0 0 -1.322221,-10.835247 l 0.687274,-1.190378 c 0.139848,-0.242218 0.05743,-0.549804 -0.184792,-0.689645 l -3.497753,-2.019454 z" />
    <path
       style="fill:#bbb673;fill-rule:evenodd;stroke-width:1"
       inkscape:connector-curvature="0"
       id="path8"
       d="m -18.344146,15.620681 c -0.190836,-0.130556 -0.41575,-0.220446 -0.644451,-0.283225 -0.456643,-0.125407 -0.972355,-0.158424 -1.466862,-0.15691 -0.988031,0.003 -1.907376,0.0533 -1.907376,0.0533 l 1.25096,0.722246 c 0.209761,-0.01416 0.431805,-0.01788 0.660028,-0.01858 0.454493,-0.0014 0.917679,0.03664 1.263077,0.13148 0.345421,0.09483 0.529176,0.232108 0.584875,0.36842 0.155985,0.381725 0.06788,0.644367 -0.22886,1.008704 -0.296742,0.364376 -0.817944,0.754409 -1.393179,1.152893 -0.575257,0.398483 -1.202191,0.809387 -1.726157,1.28004 -0.523981,0.470585 -0.963874,1.01393 -1.067773,1.69261 -0.113109,0.738884 0.288957,1.496775 0.661966,2.131078 0.373009,0.634303 0.765313,1.12669 0.765313,1.12669 0.310889,0.418787 0.93025,-0.07295 0.592834,-0.470683 0,0 -0.364126,-0.457863 -0.706275,-1.039678 -0.34215,-0.581823 -0.613962,-1.30594 -0.564019,-1.632179 0.06357,-0.415341 0.361195,-0.830136 0.822867,-1.244751 0.461649,-0.414598 1.067621,-0.815899 1.653079,-1.221426 0.58542,-0.405519 1.152438,-0.81128 1.548271,-1.297306 0.395849,-0.486072 0.605534,-1.128432 0.342884,-1.771217 -0.09239,-0.2287 -0.249904,-0.401134 -0.44074,-0.53169 z" />
    <path
       style="fill:#ff6363;stroke-width:1"
       inkscape:connector-curvature="0"
       id="path10"
       d="m -17.78224,23.125006 -0.898368,2.113282 2.069435,1.087008 -2.238537,0.595613 0.457946,2.267995 -1.893064,-1.370536 -1.498366,1.741152 -0.122082,-2.304648 -2.326382,-0.09681 1.740849,-1.503289 -1.402569,-1.861863 2.29291,0.430063 0.577392,-2.224906 1.11836,2.039598 z" />
  </g>
</svg>
