<?xml version="1.0" encoding="UTF-8" standalone="no"?>
<svg
   xmlns:dc="http://purl.org/dc/elements/1.1/"
   xmlns:cc="http://creativecommons.org/ns#"
   xmlns:rdf="http://www.w3.org/1999/02/22-rdf-syntax-ns#"
   xmlns:svg="http://www.w3.org/2000/svg"
   xmlns="http://www.w3.org/2000/svg"
   xmlns:sodipodi="http://sodipodi.sourceforge.net/DTD/sodipodi-0.dtd"
   xmlns:inkscape="http://www.inkscape.org/namespaces/inkscape"
   height="32"
   width="32"
   version="1"
   id="svg12"
   sodipodi:docname="grsync.svg"
   inkscape:version="0.92.1 r">
  <metadata
     id="metadata18">
    <rdf:RDF>
      <cc:Work
         rdf:about="">
        <dc:format>image/svg+xml</dc:format>
        <dc:type
           rdf:resource="http://purl.org/dc/dcmitype/StillImage" />
      </cc:Work>
    </rdf:RDF>
  </metadata>
  <defs
     id="defs16" />
  <sodipodi:namedview
     pagecolor="#ffffff"
     bordercolor="#666666"
     borderopacity="1"
     objecttolerance="10"
     gridtolerance="10"
     guidetolerance="10"
     inkscape:pageopacity="0"
     inkscape:pageshadow="2"
     inkscape:window-width="1680"
     inkscape:window-height="963"
     id="namedview14"
     showgrid="false"
     inkscape:zoom="7.375"
     inkscape:cx="-8.6779661"
     inkscape:cy="16"
     inkscape:window-x="0"
     inkscape:window-y="0"
     inkscape:window-maximized="1"
     inkscape:current-layer="svg12" />
  <rect
     style="opacity:1;fill:#d54747;fill-opacity:1;fill-rule:evenodd;stroke:none;stroke-width:1.03534329;stroke-linecap:round;stroke-linejoin:bevel;stroke-miterlimit:4;stroke-dasharray:none;stroke-dashoffset:0;stroke-opacity:1"
     id="rect4497-3"
     width="28.203388"
     height="28.203388"
     x="1.8983059"
     y="1.8983059"
     ry="5.575182" />
  <path
     style="fill:#ffad87"
     d="m 16.017555,8.0070259 c -0.7789,-0.00775 -1.552534,0.1033613 -2.302734,0.3007812 -3.4966,0.9006 -5.7678575,4.2083469 -5.7148445,7.6855469 h -2 l 3,4.013672 3.0000005,-4.013672 H 9.9999765 c -0.0067,-1.4563 0.2287815,-2.907041 1.2382815,-3.99414 1.7614,-1.9918 5.255344,-2.8069975 7.777344,-1.341797 0.83781,1.0529 2.696943,-0.103794 1.720703,-1.1835942 -1.3886,-1.03847 -2.96555,-1.4630969 -4.71875,-1.4667969 z m 6.982422,3.9863281 -3,4.013672 h 2 c 0.0067,1.4563 -0.228782,2.907041 -1.238281,3.994141 -1.897501,2.19064 -5.255344,2.806996 -7.777344,1.341797 -0.83781,-1.052901 -2.696943,0.10184 -1.720703,1.18164 1.388599,1.03847 2.96555,1.46505 4.71875,1.46875 l 0.002,-0.002 c 0.778899,0.0077 1.550581,-0.101408 2.300781,-0.298828 3.4966,-0.9006 5.767854,-4.208347 5.714843,-7.685547 h 2 z"
     id="path8"
     inkscape:connector-curvature="0" />
</svg>
