<?xml version="1.0" encoding="UTF-8" standalone="no"?>
<svg
   xmlns:dc="http://purl.org/dc/elements/1.1/"
   xmlns:cc="http://creativecommons.org/ns#"
   xmlns:rdf="http://www.w3.org/1999/02/22-rdf-syntax-ns#"
   xmlns:svg="http://www.w3.org/2000/svg"
   xmlns="http://www.w3.org/2000/svg"
   xmlns:sodipodi="http://sodipodi.sourceforge.net/DTD/sodipodi-0.dtd"
   xmlns:inkscape="http://www.inkscape.org/namespaces/inkscape"
   height="32"
   width="32"
   version="1"
   id="svg22"
   sodipodi:docname="hb-icon.svg"
   inkscape:version="0.92.1 r">
  <metadata
     id="metadata28">
    <rdf:RDF>
      <cc:Work
         rdf:about="">
        <dc:format>image/svg+xml</dc:format>
        <dc:type
           rdf:resource="http://purl.org/dc/dcmitype/StillImage" />
      </cc:Work>
    </rdf:RDF>
  </metadata>
  <defs
     id="defs26" />
  <sodipodi:namedview
     pagecolor="#ffffff"
     bordercolor="#666666"
     borderopacity="1"
     objecttolerance="10"
     gridtolerance="10"
     guidetolerance="10"
     inkscape:pageopacity="0"
     inkscape:pageshadow="2"
     inkscape:window-width="640"
     inkscape:window-height="480"
     id="namedview24"
     showgrid="false"
     inkscape:zoom="8.8125"
     inkscape:cx="-2.089139"
     inkscape:cy="16.337908"
     inkscape:current-layer="svg22" />
  <rect
     style="opacity:1;fill:#7c5500;fill-opacity:1;fill-rule:evenodd;stroke:none;stroke-width:1.03534329;stroke-linecap:round;stroke-linejoin:bevel;stroke-miterlimit:4;stroke-dasharray:none;stroke-dashoffset:0;stroke-opacity:1"
     id="rect4497-3"
     width="28.203388"
     height="28.203388"
     x="1.8983059"
     y="1.8983059"
     ry="5.575182" />
  <path
     d="M 16.724272,8.7557153 5.1335292,8.7907053 10.20448,18.150953 v 7.266672 H 8.0312149 v 0.724421 H 13.826587 V 25.417625 H 11.653322 V 18.19623 l 5.07095,-9.4399347 z"
     id="path8"
     inkscape:connector-curvature="0"
     style="fill:#e2e5e7;stroke-width:1" />
  <path
     d="m 7.3099085,10.204558 c -0.004,0.0077 -0.00376,0.0168 -0.00133,0.02761 0.029866,0.132374 2.1530529,4.021481 2.6200149,4.79922 0.2562356,0.426792 0.5408756,0.774768 0.7264506,0.888068 0.163176,0.09962 0.35004,0.107395 0.512093,0.01994 0.176962,-0.0955 0.52677,-0.517469 0.780709,-0.941748 0.439789,-0.734708 2.584156,-4.659551 2.602846,-4.763867 0.0023,-0.01282 -0.0088,-0.0217 -0.03573,-0.02914 H 7.3100823 Z"
     id="path10"
     inkscape:connector-curvature="0"
     style="fill:#b31f13;stroke-width:1" />
  <path
     d="M 19.472003,11.823639 C 18.678761,11.313067 18.26077,10.15747 17.679784,9.6810912 17.353794,9.4132726 17.358865,9.209855 17.784825,9.2337609 c 0.413594,0.023195 0.979056,0.1346483 1.657259,0.4670925 0,0 -0.447272,-2.1006772 -1.526646,-3.2870622 -0.283335,-0.311436 -0.240182,-0.4272999 0.166291,-0.3008812 0.887489,0.2760263 2.334811,0.879665 3.018954,2.014616 0,0 1.442178,-2.3219155 3.723309,-2.2686705 0.426539,0.00996 0.452763,0.2572058 0.100173,0.4925268 -0.834534,0.5570004 -2.16276,1.7046361 -2.184058,3.3771078 0,0 1.83083,-1.1308219 3.938244,0.6008349 0.326403,0.26818 0.211162,0.507877 -0.21516,0.525959 -0.970652,0.04117 -2.587054,0.237414 -3.23034,1.060697 0,0 0.988038,-0.121978 1.140746,0.220145 0.148883,0.333466 -0.03221,0.797588 -0.611759,0.905744 -1.456956,0.272056 -3.050176,-0.419237 -4.290169,-1.21826 z"
     id="path12"
     inkscape:connector-curvature="0"
     style="fill:#76ae17;stroke-width:1" />
  <path
     d="m 24.382855,20.389923 a 5.6843175,7.3325935 14.121 0 1 -7.356499,5.596155 5.6843175,7.3325935 14.121 0 1 -3.614138,-8.580772 5.6843175,7.3325935 14.121 0 1 7.355775,-5.596879 5.6843175,7.3325935 14.121 0 1 3.614862,8.581496 z"
     id="path14"
     inkscape:connector-curvature="0"
     style="fill:#9b7528;stroke-width:1" />
  <path
     d="m 21.100502,11.915641 c -0.104853,0.160242 -0.122674,0.370484 -0.02124,0.548909 l 0.517425,0.908062 c 0.143341,0.251548 0.458943,0.336885 0.707745,0.191363 l 0.671025,-0.392528 a 5.7028627,7.342011 14.475 0 0 -1.875093,-1.255712 z m -1.187037,-0.252012 a 5.7028627,7.342011 14.475 0 0 -2.095099,0.330996 l 0.240131,0.421403 c 0.143341,0.251548 0.458943,0.336885 0.707745,0.191363 l 0.897993,-0.525307 c 0.155454,-0.09094 0.237654,-0.250672 0.249404,-0.418469 z m 0.402583,0.819683 c -0.127933,-0.03459 -0.268898,-0.01996 -0.393289,0.0528 l -0.897992,0.525307 c -0.248781,0.145522 -0.33364,0.465122 -0.190299,0.716692 l 0.517158,0.909004 c 0.143334,0.251548 0.458942,0.336885 0.707745,0.191363 l 0.898282,-0.526292 c 0.248781,-0.145522 0.33364,-0.465122 0.190299,-0.716692 L 20.630715,12.72707 c -0.07172,-0.12605 -0.186177,-0.209358 -0.314399,-0.24413 z m 3.001423,1.093732 -0.754123,0.441143 c -0.248781,0.145522 -0.333632,0.465122 -0.190298,0.716692 l 0.517157,0.909004 c 0.143341,0.251548 0.458943,0.336885 0.707745,0.191363 l 0.689656,-0.403416 a 5.7028627,7.342011 14.475 0 0 -0.97,-1.854518 z m -5.979665,-1.375025 a 5.7028627,7.342011 14.475 0 0 -1.697681,1.224635 l 0.172948,0.30351 c 0.143334,0.251549 0.458943,0.336885 0.707746,0.191364 l 0.898282,-0.526293 c 0.248781,-0.145521 0.33364,-0.465122 0.190298,-0.716691 l -0.271571,-0.47659 z m 0.73326,1.594452 c -0.127933,-0.03459 -0.268898,-0.01996 -0.393289,0.0528 l -0.898282,0.526292 c -0.248781,0.145522 -0.33364,0.465122 -0.190298,0.716692 l 0.517425,0.908062 c 0.143341,0.251548 0.458943,0.336885 0.707745,0.191363 l 0.897993,-0.525307 c 0.248781,-0.145522 0.333639,-0.465122 0.190298,-0.716692 l -0.517237,-0.909148 c -0.07128,-0.125869 -0.186408,-0.209547 -0.314572,-0.24413 z m 3.538581,0.956816 c -0.127933,-0.03459 -0.268898,-0.01997 -0.393288,0.0528 l -0.898283,0.526292 c -0.248773,0.145522 -0.333632,0.465122 -0.190298,0.716692 l 0.517425,0.908062 c 0.143334,0.251548 0.458943,0.336885 0.707745,0.191363 l 0.897993,-0.525307 c 0.248781,-0.145522 0.33364,-0.465122 0.190298,-0.716692 L 21.924082,14.997496 C 21.852408,14.871722 21.73758,14.787921 21.609654,14.75333 Z m 2.829952,1.194933 -0.582963,0.341014 c -0.248781,0.145522 -0.333633,0.465122 -0.190299,0.716692 l 0.518396,0.908279 c 0.10657,0.187024 0.307937,0.281257 0.50669,0.257952 a 5.7028627,7.342011 14.475 0 0 -0.251375,-2.224698 z m -9.173348,-2.129075 a 5.7028627,7.342011 14.475 0 0 -1.003976,1.417548 c 0.004,-0.0022 0.0086,-0.0017 0.01259,-0.004 l 0.898934,-0.525047 c 0.248781,-0.145521 0.333633,-0.465122 0.190299,-0.716691 l -0.09791,-0.171826 z m 0.559869,1.288673 c -0.127933,-0.03459 -0.269159,-0.01898 -0.393549,0.05379 l -0.898935,0.525046 c -0.24878,0.145522 -0.333632,0.465122 -0.190298,0.716692 l 0.518396,0.908279 c 0.143334,0.251548 0.458943,0.336885 0.707745,0.191363 l 0.897993,-0.525307 c 0.248774,-0.145521 0.333632,-0.465122 0.190298,-0.716691 l -0.517961,-0.9077 c -0.07127,-0.12518 -0.186408,-0.210242 -0.313884,-0.244819 z m 3.538581,0.956816 c -0.127932,-0.03459 -0.269158,-0.01898 -0.393549,0.0538 l -0.897993,0.525307 c -0.24878,0.145521 -0.333632,0.465122 -0.190298,0.716691 l 0.517425,0.908063 c 0.143342,0.251548 0.458943,0.336885 0.707746,0.191363 l 0.897992,-0.525307 c 0.248781,-0.145522 0.33364,-0.465122 0.190299,-0.716692 l -0.518114,-0.908714 c -0.07128,-0.125868 -0.185727,-0.210937 -0.313884,-0.245514 z m 3.538582,0.956816 c -0.127933,-0.03459 -0.269159,-0.01898 -0.39355,0.05379 l -0.897992,0.525307 c -0.248781,0.145522 -0.33364,0.465122 -0.190299,0.716692 l 0.517426,0.908062 c 0.143341,0.251548 0.458942,0.336885 0.707745,0.191363 l 0.898934,-0.525046 c 0.248774,-0.145521 0.333633,-0.465122 0.190299,-0.716692 l -0.518802,-0.91009 c -0.07196,-0.12518 -0.186408,-0.210242 -0.314573,-0.244818 z m -5.783636,0.356466 c -0.127933,-0.03459 -0.269159,-0.01898 -0.393549,0.05379 l -0.897993,0.525307 c -0.248781,0.145522 -0.333632,0.465122 -0.190298,0.716692 l 0.517425,0.908062 c 0.143334,0.251548 0.458943,0.336885 0.707745,0.191363 l 0.897993,-0.525306 c 0.248781,-0.145522 0.33364,-0.465122 0.190298,-0.716692 l -0.517432,-0.908717 c -0.07196,-0.125868 -0.186408,-0.210937 -0.314573,-0.245513 z m 3.538581,0.956816 c -0.127933,-0.03459 -0.269159,-0.01898 -0.393549,0.05379 l -0.897993,0.525307 c -0.248781,0.145522 -0.333632,0.465122 -0.190298,0.716692 l 0.517425,0.908062 c 0.143334,0.251548 0.458943,0.336885 0.707745,0.191363 l 0.897993,-0.525307 c 0.248774,-0.145521 0.333633,-0.465122 0.190299,-0.716684 l -0.517426,-0.908716 c -0.07196,-0.125869 -0.186408,-0.210242 -0.314572,-0.244826 z m 3.539523,0.957105 c -0.127933,-0.03459 -0.269159,-0.01898 -0.393549,0.05379 l -0.898934,0.525046 c -0.248781,0.145522 -0.33364,0.465122 -0.190299,0.716684 l 0.518396,0.90828 c 0.141683,0.248643 0.451184,0.332777 0.69856,0.19421 a 5.7028627,7.342011 14.475 0 0 0.455748,-1.306421 5.7028627,7.342011 14.475 0 0 0.16448,-0.777377 l -0.03931,-0.06898 C 24.440883,19.4112 24.326434,19.326827 24.19827,19.29225 Z M 13.683499,16.472389 a 5.7028627,7.342011 14.475 0 0 -0.307778,0.934214 5.7028627,7.342011 14.475 0 0 -0.261748,1.474995 c 0.07135,-0.0072 0.142733,-0.02664 0.209112,-0.06547 l 0.898934,-0.525047 c 0.248781,-0.145521 0.33364,-0.465122 0.190299,-0.716691 l -0.518404,-0.908348 c -0.05077,-0.0891 -0.127143,-0.149086 -0.210473,-0.193769 z m 1.190587,2.219917 c -0.127933,-0.03459 -0.268898,-0.01996 -0.393289,0.0528 l -0.898934,0.525046 c -0.248781,0.145522 -0.333633,0.465122 -0.190299,0.716692 l 0.518396,0.90828 c 0.143349,0.251548 0.458943,0.336885 0.707746,0.191363 l 0.899006,-0.525206 c 0.248774,-0.145521 0.333633,-0.465122 0.190299,-0.716691 l -0.516745,-0.907338 c -0.07196,-0.125868 -0.186408,-0.209554 -0.314572,-0.24413 z m 3.538581,0.956816 c -0.127933,-0.03459 -0.268898,-0.01996 -0.393289,0.0528 l -0.897992,0.525307 c -0.248781,0.145522 -0.333633,0.465122 -0.190299,0.716692 l 0.517426,0.908062 c 0.143341,0.251548 0.458942,0.336885 0.707745,0.191363 l 0.897993,-0.525307 c 0.24878,-0.145521 0.333639,-0.465122 0.190298,-0.716691 l -0.516513,-0.908425 c -0.07172,-0.126049 -0.1869,-0.209358 -0.314399,-0.24413 z m 3.538581,0.956816 c -0.127933,-0.03459 -0.268898,-0.01996 -0.393281,0.0528 l -0.897993,0.525307 c -0.248781,0.145522 -0.333632,0.465122 -0.190298,0.716692 l 0.517425,0.908062 c 0.143341,0.251548 0.458943,0.336885 0.707745,0.191363 l 0.898935,-0.525046 c 0.248781,-0.145522 0.333632,-0.465122 0.190298,-0.716692 l -0.518396,-0.908352 c -0.07167,-0.125774 -0.186502,-0.209575 -0.314435,-0.244159 z m -5.783636,0.356466 c -0.127932,-0.03459 -0.268898,-0.01996 -0.393288,0.0528 l -0.897993,0.525307 c -0.248781,0.145522 -0.333632,0.465122 -0.190298,0.716692 l 0.517157,0.909004 c 0.143341,0.251548 0.458943,0.336885 0.707745,0.191363 l 0.898283,-0.5263 c 0.248781,-0.145521 0.333632,-0.465122 0.190298,-0.716691 l -0.516512,-0.9077 c -0.07167,-0.125774 -0.186503,-0.209576 -0.314435,-0.244159 z m 3.538582,0.956816 c -0.127933,-0.03459 -0.268898,-0.01996 -0.393289,0.0528 l -0.897993,0.525307 c -0.24878,0.145521 -0.333632,0.465122 -0.190298,0.716692 l 0.517157,0.909004 c 0.143342,0.251548 0.458943,0.336884 0.707746,0.191363 l 0.898282,-0.526292 c 0.248781,-0.145522 0.33364,-0.465123 0.190298,-0.716692 l -0.517425,-0.90806 c -0.07167,-0.125781 -0.186502,-0.209575 -0.314435,-0.244166 z m 3.539523,0.957105 c -0.127933,-0.03459 -0.268898,-0.01996 -0.393289,0.0528 l -0.898934,0.525049 c -0.248781,0.145522 -0.33364,0.465122 -0.190299,0.716692 l 0.200107,0.351171 a 5.7028627,7.342011 14.475 0 0 1.330618,-1.622052 c -0.01676,-0.0065 -0.03088,-0.01896 -0.0482,-0.02364 z M 13.101644,20.527027 a 5.7028627,7.342011 14.475 0 0 0.218565,1.303596 c 0.204642,-0.158018 0.27286,-0.441173 0.140914,-0.672727 L 13.101086,20.52765 Z m 0.821204,1.748753 c -0.127933,-0.03459 -0.268898,-0.01996 -0.393289,0.0528 l -0.05457,0.03193 a 5.7028627,7.342011 14.475 0 0 0.970072,1.854736 l 0.119074,-0.06965 c 0.24878,-0.145522 0.333632,-0.465122 0.190298,-0.716692 L 14.237276,22.5199 c -0.07168,-0.125781 -0.186503,-0.209575 -0.314435,-0.244166 z m 3.538581,0.956816 c -0.127933,-0.03459 -0.268898,-0.01996 -0.393288,0.0528 l -0.898283,0.526299 c -0.248781,0.145522 -0.333639,0.465122 -0.190298,0.716685 l 0.517425,0.908062 c 0.143334,0.251548 0.458943,0.336885 0.707745,0.191363 l 0.897993,-0.525307 c 0.248774,-0.145522 0.333632,-0.465122 0.190298,-0.716692 l -0.516512,-0.909149 c -0.07196,-0.125868 -0.186408,-0.209553 -0.314573,-0.24413 z m 3.538581,0.956815 c -0.127933,-0.03459 -0.268898,-0.01997 -0.393288,0.0528 l -0.898283,0.526292 c -0.24878,0.145521 -0.333639,0.465122 -0.190298,0.716692 l 0.223694,0.392556 a 5.7028627,7.342011 14.475 0 0 1.817718,-1.013972 l -0.245129,-0.43018 c -0.07168,-0.125774 -0.186503,-0.209567 -0.314435,-0.244159 z m -5.783635,0.356467 c -0.127933,-0.03459 -0.269159,-0.01898 -0.39355,0.05379 l -0.03597,0.02104 a 5.7028627,7.342011 14.475 0 0 1.187471,0.949209 l -0.443809,-0.778898 c -0.07167,-0.125774 -0.186234,-0.21056 -0.314174,-0.245151 z m 3.538581,0.956815 c -0.127933,-0.03459 -0.269159,-0.01898 -0.393549,0.05379 l -0.897993,0.525307 c -0.0018,10e-4 -0.0025,0.0031 -0.0042,0.0041 a 5.7028627,7.342011 14.475 0 0 1.765053,-0.06594 l -0.1542,-0.27318 c -0.07196,-0.12518 -0.186408,-0.210241 -0.314573,-0.244818 z"
     id="path16"
     inkscape:connector-curvature="0"
     style="opacity:1;stroke-width:1;fill:#7c5e20;fill-opacity:1" />
</svg>
