<?xml version="1.0" encoding="UTF-8" standalone="no"?>
<svg
   xmlns:dc="http://purl.org/dc/elements/1.1/"
   xmlns:cc="http://creativecommons.org/ns#"
   xmlns:rdf="http://www.w3.org/1999/02/22-rdf-syntax-ns#"
   xmlns:svg="http://www.w3.org/2000/svg"
   xmlns="http://www.w3.org/2000/svg"
   xmlns:sodipodi="http://sodipodi.sourceforge.net/DTD/sodipodi-0.dtd"
   xmlns:inkscape="http://www.inkscape.org/namespaces/inkscape"
   height="32"
   width="32"
   version="1"
   id="svg26"
   sodipodi:docname="httrack.svg"
   inkscape:version="0.92.1 r">
  <metadata
     id="metadata32">
    <rdf:RDF>
      <cc:Work
         rdf:about="">
        <dc:format>image/svg+xml</dc:format>
        <dc:type
           rdf:resource="http://purl.org/dc/dcmitype/StillImage" />
      </cc:Work>
    </rdf:RDF>
  </metadata>
  <defs
     id="defs30" />
  <sodipodi:namedview
     pagecolor="#ffffff"
     bordercolor="#666666"
     borderopacity="1"
     objecttolerance="10"
     gridtolerance="10"
     guidetolerance="10"
     inkscape:pageopacity="0"
     inkscape:pageshadow="2"
     inkscape:window-width="640"
     inkscape:window-height="480"
     id="namedview28"
     showgrid="false"
     inkscape:zoom="8.9375"
     inkscape:cx="-8.6562613"
     inkscape:cy="0.55119807"
     inkscape:current-layer="svg26" />
  <rect
     style="opacity:1;fill:#7767c0;fill-opacity:1;fill-rule:evenodd;stroke:none;stroke-width:1.03534329;stroke-linecap:round;stroke-linejoin:bevel;stroke-miterlimit:4;stroke-dasharray:none;stroke-dashoffset:0;stroke-opacity:1"
     id="rect4497-3-3"
     width="28.203388"
     height="28.203388"
     x="1.8983059"
     y="1.8983059"
     ry="5.575182"
     inkscape:export-filename="/home/ramil/3.png"
     inkscape:export-xdpi="71"
     inkscape:export-ydpi="71" />
  <g
     id="g4546"
     transform="translate(42.628906,-1.1191405)">
    <path
       id="path4519"
       d="M -20.699219,31.220703 V 16.205078 c 0,-0.772162 -0.156127,-1.506374 -0.4375,-2.173828 -0.281372,-0.667454 -0.687549,-1.269581 -1.191406,-1.773438 -0.503857,-0.503856 -1.104031,-0.910033 -1.771484,-1.191406 -0.667454,-0.281372 -1.403619,-0.4375 -2.175782,-0.4375 h -13.015625 c -0.510821,0 -0.970095,0.161561 -1.439453,0.289063 v 14.726562 c 0,3.088651 2.485568,5.576172 5.574219,5.576172 z"
       style="opacity:1;fill:#9182d7;fill-opacity:1;fill-rule:evenodd;stroke:none;stroke-width:1.03534329;stroke-linecap:round;stroke-linejoin:bevel;stroke-miterlimit:4;stroke-dasharray:none;stroke-dashoffset:0;stroke-opacity:1"
       inkscape:connector-curvature="0" />
    <path
       id="path4530"
       d="m -20.699219,24.951172 v 6.269531 h 2.595703 c 3.088651,0 5.576172,-2.487521 5.576172,-5.576172 v -0.693359 z"
       style="opacity:1;fill:#a79bdf;fill-opacity:1;fill-rule:evenodd;stroke:none;stroke-width:1.03534329;stroke-linecap:round;stroke-linejoin:bevel;stroke-miterlimit:4;stroke-dasharray:none;stroke-dashoffset:0;stroke-opacity:1"
       inkscape:connector-curvature="0" />
    <path
       id="path4528"
       d="m -33.791016,3.0175781 h -1.365234 c -3.088651,0 -5.574219,2.485568 -5.574219,5.5742188 v 2.3261721 c 0.469358,-0.127502 0.928632,-0.289063 1.439453,-0.289063 h 5.5 z"
       style="opacity:1;fill:#a79bdf;fill-opacity:1;fill-rule:evenodd;stroke:none;stroke-width:1.03534329;stroke-linecap:round;stroke-linejoin:bevel;stroke-miterlimit:4;stroke-dasharray:none;stroke-dashoffset:0;stroke-opacity:1"
       inkscape:connector-curvature="0" />
    <path
       id="rect4497-3"
       d="m -33.791016,3.0175781 v 7.6113279 h 7.515625 c 0.772163,0 1.508328,0.156128 2.175782,0.4375 0.667453,0.281373 1.267627,0.687551 1.771484,1.191406 0.503857,0.503857 0.910034,1.105984 1.191406,1.773438 0.281373,0.667454 0.4375,1.401666 0.4375,2.173828 v 8.746094 h 8.171875 V 8.5917969 c 0,-3.0886508 -2.487521,-5.5742188 -5.576172,-5.5742188 z"
       style="opacity:1;fill:#7767c0;fill-opacity:1;fill-rule:evenodd;stroke:none;stroke-width:1.03534329;stroke-linecap:round;stroke-linejoin:bevel;stroke-miterlimit:4;stroke-dasharray:none;stroke-dashoffset:0;stroke-opacity:1"
       inkscape:connector-curvature="0" />
    <path
       inkscape:connector-curvature="0"
       id="path10"
       d="m -31.195804,14.132867 c -3.866004,0 -6.999988,3.134022 -6.999988,7.000025 0,3.866003 3.133984,6.999988 6.999988,6.999988 3.866003,0 7.000025,-3.133985 7.000025,-6.999988 0,-3.866003 -3.134022,-7.000025 -7.000025,-7.000025 z m -0.701178,1.337915 c 0.08164,-0.0076 0.185197,0.0038 0.26759,0 0.01134,0.03893 -0.05934,0.177638 -0.152315,0.380863 -0.592667,1.29479 -0.62623,2.812535 -0.07635,3.623017 0.0994,0.147024 0.189355,0.286488 0.189355,0.30463 0,0.0189 -0.107339,0.03779 -0.228662,0.03779 -0.284976,0 -0.554532,-0.173102 -1.105474,-0.609373 -0.244914,-0.19389 -0.562281,-0.356409 -0.685569,-0.380863 -0.193512,-0.03855 -0.245669,-0.02268 -0.496101,0.228662 -0.232819,0.232819 -0.30463,0.359055 -0.30463,0.572258 0,0.808705 0.959547,1.449827 2.744126,1.82812 2.423585,0.513675 3.021052,0.975609 3.087912,2.250028 0.08391,1.598022 -0.767357,2.803465 -2.630853,3.736328 -0.222236,0.111496 -0.363591,0.153448 -0.457059,0.189354 -0.0412,-0.0037 -0.07219,0.0037 -0.113385,0 -0.01512,-0.04951 -0.03893,-0.163654 -0.03893,-0.380863 0,-0.848769 -0.333733,-1.722369 -0.837922,-2.21091 -0.135307,-0.13115 -0.515376,-0.408529 -0.839811,-0.609411 -0.324283,-0.200693 -0.651666,-0.433663 -0.724611,-0.533178 -0.120945,-0.165166 -0.130016,-0.267213 -0.03779,-0.572259 0.169323,-0.557329 0.370016,-0.868573 0.761726,-1.220711 0.205228,-0.184441 0.411515,-0.338268 0.45702,-0.34167 0.04535,-0.0037 -0.260787,-0.09676 -0.722645,-0.191244 -0.461859,-0.09449 -1.138999,-0.293669 -1.488303,-0.419905 -0.638702,-0.230929 -1.499376,-0.715276 -1.828119,-1.066432 l -0.03893,-0.03893 c 0.471042,-1.876309 1.792554,-3.413216 3.544932,-4.154305 0.366614,-0.154961 0.745549,-0.2623 1.144554,-0.34356 0.198803,-0.04082 0.404145,-0.05518 0.609373,-0.07635 z m 5.718765,2.859364 c 0.143244,0.08844 0.683452,1.259187 0.837883,1.830085 0.199559,0.737045 0.184819,2.011956 0,2.744126 -0.0703,0.278551 -0.159496,0.53983 -0.189354,0.572258 -0.03024,0.03402 -0.139464,-0.153827 -0.26759,-0.380863 -0.128126,-0.226772 -0.537109,-0.709757 -0.876964,-1.068359 -0.980939,-1.035099 -1.135522,-1.574249 -0.724611,-2.400378 0.207118,-0.416579 1.10982,-1.365317 1.220712,-1.296869 z"
       style="fill:#ffffff" />
    <g
       style="stroke-width:1.33333337"
       transform="matrix(0.75,0,0,0.75,-35.463287,5.8479021)"
       id="g4523">
      <circle
         style="fill:#4f4f4f;fill-rule:evenodd;stroke-width:1.77777779"
         cy="23"
         cx="21"
         r="8"
         id="circle18" />
      <path
         inkscape:connector-curvature="0"
         style="fill:#ffffff;stroke-width:1.33333337"
         d="M 22,18.999955 V 23 h 1.5 L 20.99998,26 18.5,23 H 20 v -4.000045 z"
         id="path22" />
    </g>
  </g>
</svg>
