<?xml version="1.0" encoding="UTF-8" standalone="no"?>
<svg
   xmlns:dc="http://purl.org/dc/elements/1.1/"
   xmlns:cc="http://creativecommons.org/ns#"
   xmlns:rdf="http://www.w3.org/1999/02/22-rdf-syntax-ns#"
   xmlns:svg="http://www.w3.org/2000/svg"
   xmlns="http://www.w3.org/2000/svg"
   xmlns:sodipodi="http://sodipodi.sourceforge.net/DTD/sodipodi-0.dtd"
   xmlns:inkscape="http://www.inkscape.org/namespaces/inkscape"
   height="32"
   width="32"
   version="1"
   id="svg26"
   sodipodi:docname="hydrogen.svg"
   inkscape:version="0.92.1 r">
  <metadata
     id="metadata32">
    <rdf:RDF>
      <cc:Work
         rdf:about="">
        <dc:format>image/svg+xml</dc:format>
        <dc:type
           rdf:resource="http://purl.org/dc/dcmitype/StillImage" />
      </cc:Work>
    </rdf:RDF>
  </metadata>
  <defs
     id="defs30" />
  <sodipodi:namedview
     pagecolor="#ffffff"
     bordercolor="#666666"
     borderopacity="1"
     objecttolerance="10"
     gridtolerance="10"
     guidetolerance="10"
     inkscape:pageopacity="0"
     inkscape:pageshadow="2"
     inkscape:window-width="640"
     inkscape:window-height="480"
     id="namedview28"
     showgrid="false"
     inkscape:zoom="8.9375"
     inkscape:cx="9.6925025"
     inkscape:cy="5.8830946"
     inkscape:current-layer="svg26" />
  <g
     id="g4525"
     transform="translate(39.932299,-5.0351564)">
    <path
       sodipodi:nodetypes="sscccccsss"
       inkscape:connector-curvature="0"
       id="rect4497-3"
       d="m -32.470703,6.9335938 c -3.088651,0 -5.574219,2.4855679 -5.574219,5.5742182 v 10.001954 c 0.06244,-0.107548 0.05331,-0.254482 0.140625,-0.341797 0.2586,-0.258607 0.617494,-0.417444 1.013672,-0.417969 6.661252,1.494108 21.463253,-2.430936 26.810547,0.417969 0.1474778,0.147479 0.1663182,0.377477 0.2382811,0.578125 V 12.507812 c 0,-3.0886503 -2.4875211,-5.5742182 -5.5761721,-5.5742182 z"
       style="opacity:1;fill:#0286c2;fill-opacity:1;fill-rule:evenodd;stroke:none;stroke-width:1.03534329;stroke-linecap:round;stroke-linejoin:bevel;stroke-miterlimit:4;stroke-dasharray:none;stroke-dashoffset:0;stroke-opacity:1" />
    <path
       sodipodi:nodetypes="ccsccccssssc"
       inkscape:connector-curvature="0"
       id="path4517"
       d="m -9.8417969,21.984595 c -0.071963,-0.200648 -0.090803,-0.430646 -0.2382811,-0.578125 -0.259026,-0.259029 -0.618667,-0.417969 -1.015625,-0.417969 h -25.792969 -0.002 c -0.396178,5.25e-4 -0.755072,0.159362 -1.013672,0.417969 -0.08731,0.08732 -0.07818,0.234249 -0.140625,0.341797 v 7.81228 c 0,3.088651 2.485568,5.576172 5.574219,5.576172 h 17.052734 c 3.088651,0 5.5761529,-2.487521 5.5761721,-5.576172 z"
       style="opacity:1;fill:#e6281b;fill-opacity:1;fill-rule:evenodd;stroke:none;stroke-width:1.03534329;stroke-linecap:round;stroke-linejoin:bevel;stroke-miterlimit:4;stroke-dasharray:none;stroke-dashoffset:0;stroke-opacity:1" />
    <ellipse
       style="fill:#ffffc8;stroke-width:0.99999988"
       id="ellipse6"
       cx="-24.199692"
       cy="21.749439"
       ry="4.5040889"
       rx="13.569117" />
    <ellipse
       style="opacity:0.02000002;stroke-width:1"
       id="ellipse8"
       cx="-23.99201"
       cy="22.124405"
       ry="2.2520444"
       rx="6.61413" />
    <ellipse
       style="opacity:0.02000002;stroke-width:1"
       id="ellipse12"
       cx="-23.99201"
       cy="22.087248"
       ry="1.6890332"
       rx="4.9605975" />
    <path
       style="fill:#afafaf;stroke-width:0.99999994"
       inkscape:connector-curvature="0"
       id="path22"
       d="m -23.927727,17.245351 a 14.1081,4.5040886 0 0 0 -14.108099,4.504089 14.1081,4.5040886 0 0 0 0.01064,0.07207 14.1081,4.3914864 0 0 0 -0.01064,0.09684 14.1081,4.3914864 0 0 0 3.552419,2.907389 l 0.07205,2.149576 0.703777,0.06531 0.385803,-1.841046 c 9.63e-4,-0.0045 -0.0011,-0.0079 0,-0.01239 a 14.1081,4.3914864 0 0 0 8.775454,1.114762 l 0.266969,2.203625 h 0.703235 l 0.266969,-2.205877 a 14.1081,4.3914864 0 0 0 8.766555,-1.108006 l 0.390687,1.848928 0.701062,-0.06531 0.07272,-2.149575 a 14.1081,4.3914864 0 0 0 3.5584965,-2.90739 14.1081,4.3914864 0 0 0 -0.010847,-0.06981 14.1081,4.5040886 0 0 0 0.010847,-0.09909 14.1081,4.5040886 0 0 0 -14.1081005,-4.504089 z m 0,1.126022 c 3.805932,0 7.252649,0.501193 9.656453,1.269027 1.202444,0.383862 2.143346,0.842716 2.705499,1.266776 0.561068,0.42451 0.66091,0.715023 0.66091,0.842264 0,0.12724 -0.09984,0.417755 -0.66091,0.842265 -0.562153,0.42451 -1.503055,0.880549 -2.705499,1.264522 -2.403804,0.767947 -5.850521,1.27128 -9.656453,1.27128 -3.805931,0 -7.252106,-0.503333 -9.656885,-1.27128 -1.202445,-0.383973 -2.142803,-0.840012 -2.704631,-1.264522 -0.561829,-0.42451 -0.661345,-0.715025 -0.661345,-0.842265 0,-0.127241 0.09952,-0.417754 0.661345,-0.842264 0.561828,-0.42406 1.502186,-0.882914 2.704631,-1.266776 2.404779,-0.767834 5.850954,-1.269027 9.656885,-1.269027 z" />
  </g>
</svg>
