<?xml version="1.0" encoding="UTF-8" standalone="no"?>
<svg
   xmlns:dc="http://purl.org/dc/elements/1.1/"
   xmlns:cc="http://creativecommons.org/ns#"
   xmlns:rdf="http://www.w3.org/1999/02/22-rdf-syntax-ns#"
   xmlns:svg="http://www.w3.org/2000/svg"
   xmlns="http://www.w3.org/2000/svg"
   xmlns:sodipodi="http://sodipodi.sourceforge.net/DTD/sodipodi-0.dtd"
   xmlns:inkscape="http://www.inkscape.org/namespaces/inkscape"
   height="32"
   viewBox="0 0 32 32"
   width="32"
   version="1.1"
   id="svg18"
   sodipodi:docname="icq.svg"
   inkscape:version="0.92.1 r">
  <metadata
     id="metadata24">
    <rdf:RDF>
      <cc:Work
         rdf:about="">
        <dc:format>image/svg+xml</dc:format>
        <dc:type
           rdf:resource="http://purl.org/dc/dcmitype/StillImage" />
      </cc:Work>
    </rdf:RDF>
  </metadata>
  <defs
     id="defs22" />
  <sodipodi:namedview
     pagecolor="#ffffff"
     bordercolor="#666666"
     borderopacity="1"
     objecttolerance="10"
     gridtolerance="10"
     guidetolerance="10"
     inkscape:pageopacity="0"
     inkscape:pageshadow="2"
     inkscape:window-width="640"
     inkscape:window-height="480"
     id="namedview20"
     showgrid="false"
     inkscape:zoom="8.9375"
     inkscape:cx="-36.13986"
     inkscape:cy="14.657343"
     inkscape:current-layer="svg18" />
  <rect
     style="opacity:1;fill:#37b648;fill-opacity:1;fill-rule:evenodd;stroke:none;stroke-width:1.03534329;stroke-linecap:round;stroke-linejoin:bevel;stroke-miterlimit:4;stroke-dasharray:none;stroke-dashoffset:0;stroke-opacity:1"
     id="rect4497-3"
     width="28.203388"
     height="28.203388"
     x="1.8983059"
     y="1.8983059"
     ry="5.575182"
     inkscape:export-filename="/home/ramil/3.png"
     inkscape:export-xdpi="71"
     inkscape:export-ydpi="71" />
  <g
     id="g4510"
     transform="translate(79.664275,-0.55980055)">
    <path
       style="fill:#f9f9f9;stroke-width:1"
       inkscape:connector-curvature="0"
       id="path2"
       d="m -66.647475,27.527546 c -0.422692,-0.05097 -0.731673,-0.144296 -1.067317,-0.322312 -0.723516,-0.384266 -1.21365,-1.055553 -1.390961,-1.904858 -0.05976,-0.286301 -0.05973,-0.943646 6.8e-5,-1.239295 0.158623,-0.784293 0.492699,-1.3672 1.630618,-2.845209 0.69014,-0.896436 1.937089,-2.430595 1.975594,-2.430595 0.01176,0 0.103532,0.05807 0.203935,0.129042 0.353994,0.250227 0.7738,0.418975 1.233883,0.495993 0.04646,0.0078 0.0896,0.02275 0.09587,0.03329 0.0063,0.01053 0.04745,0.501404 0.09153,1.090843 0.159196,2.1293 0.220709,3.403492 0.190015,3.936288 -0.02891,0.501615 -0.164308,1.040417 -0.368871,1.467736 -0.293806,0.613821 -0.783956,1.111154 -1.349555,1.369239 -0.386728,0.176503 -0.880359,0.263684 -1.244706,0.219839 z m 5.684694,-1.175852 c -0.954389,-0.181938 -1.661751,-1.016342 -1.988769,-2.347939 -0.152137,-0.617961 -0.631292,-3.629346 -0.696382,-4.378271 l -0.01535,-0.175923 0.09961,-0.01181 c 0.555914,-0.06594 0.775047,-0.123945 1.128406,-0.29866 0.128102,-0.06335 0.307875,-0.168975 0.399503,-0.234731 0.09163,-0.06576 0.172135,-0.119562 0.178903,-0.119562 0.01348,0 0.928824,1.036967 1.396216,1.581683 0.725147,0.845227 1.308619,1.570782 1.508907,1.876469 0.580539,0.885928 0.786411,1.888154 0.547069,2.663664 -0.111202,0.360386 -0.308644,0.657846 -0.596255,0.898318 -0.534701,0.447034 -1.325166,0.667139 -1.96187,0.546284 z m 4.570482,-3.803912 c -0.732519,-0.07547 -1.444837,-0.394146 -2.069229,-0.925765 -0.359421,-0.306017 -1.410724,-1.282191 -1.909641,-1.773188 -0.42019,-0.413485 -1.239687,-1.262508 -1.239687,-1.284387 0,-0.01133 0.0497,-0.08047 0.110441,-0.153636 0.312337,-0.376242 0.507285,-0.777972 0.63948,-1.317794 l 0.02422,-0.09894 1.142131,0.01051 c 3.25551,0.02996 3.546533,0.04648 4.189118,0.237844 0.783627,0.233383 1.412763,0.722552 1.751073,1.361476 0.388202,0.73317 0.379145,1.637832 -0.0248,2.475765 -0.129717,0.26908 -0.22194,0.40431 -0.429302,0.629458 -0.376651,0.40896 -0.828994,0.667006 -1.36673,0.779698 -0.22376,0.04689 -0.641738,0.07708 -0.817073,0.05902 z m -4.406346,-6.164398 c -0.0072,-0.178519 -0.0294,-0.404239 -0.04932,-0.501615 -0.07867,-0.384524 -0.23539,-0.778318 -0.426009,-1.070375 -0.04951,-0.07586 -0.0847,-0.152365 -0.07817,-0.17001 0.02524,-0.06827 1.790598,-1.568586 2.52674,-2.147494 0.504941,-0.397032 0.798017,-0.594434 1.159697,-0.781085 1.114761,-0.57534 2.146396,-0.541525 2.913358,0.09551 0.352395,0.292693 0.64962,0.782584 0.774279,1.276153 0.08219,0.325441 0.08761,0.838247 0.01218,1.15209 -0.233179,0.970152 -0.94992,1.63697 -2.044997,1.902269 -0.376972,0.09135 -1.755073,0.284662 -2.871324,0.402781 -0.524961,0.05555 -1.750367,0.166246 -1.840317,0.166246 h -0.06301 l -0.0131,-0.324571 z m -10.441819,0.134885 c -0.822328,-0.08705 -1.498086,-0.38505 -1.954342,-0.863421 -0.746807,-0.78343 -0.875027,-1.999747 -0.327566,-3.10549 0.371247,-0.750572 0.963956,-1.226434 1.747544,-1.403431 0.288591,-0.06517 0.906317,-0.05991 1.219846,0.01027 0.455707,0.102105 0.941214,0.313608 1.34485,0.585809 0.494447,0.333683 2.090716,1.629206 2.933747,2.380484 l 0.416199,0.371184 -0.03956,0.06271 c -0.02176,0.03448 -0.08182,0.122283 -0.13345,0.195105 -0.219603,0.30971 -0.412207,0.807819 -0.481288,1.244705 l -0.03738,0.236425 -0.104465,0.01402 c -0.394476,0.05295 -2.080678,0.201763 -2.821761,0.249035 -0.550158,0.03509 -1.526631,0.04778 -1.762288,0.02288 z m 9.549383,-2.220896 c -0.350615,-0.380156 -0.994306,-0.703057 -1.578468,-0.791822 -0.131763,-0.02001 -0.243036,-0.03975 -0.247286,-0.04386 -0.0042,-0.0042 -0.02695,-0.287125 -0.05044,-0.628925 -0.137457,-1.999905 -0.179624,-3.1914405 -0.139959,-3.9548735 0.03909,-0.7521796 0.104215,-1.0917838 0.289862,-1.5113387 0.189639,-0.428589 0.610307,-0.9405871 0.988659,-1.2033775 0.821465,-0.5704535 1.831377,-0.7311391 2.769141,-0.4406268 1.468285,0.4548524 2.341116,2.1236536 1.949401,3.7269022 -0.185851,0.7605633 -0.663179,1.5114173 -1.785814,2.8090573 -0.422111,0.487915 -2.017,2.13628 -2.066954,2.13628 -0.02106,0 -0.07874,-0.04385 -0.128173,-0.09746 z m -5.000153,-1.088726 c -1.835769,-1.903446 -2.374289,-2.602338 -2.639667,-3.425607 -0.121397,-0.3767368 -0.154491,-0.625176 -0.140139,-1.0538278 0.01435,-0.429436 0.05787,-0.6294107 0.210091,-0.9642704 0.289453,-0.6368608 0.780372,-1.0655126 1.499261,-1.3094818 0.506227,-0.1717117 0.993836,-0.1925012 1.47801,-0.063012 0.263449,0.070455 0.648106,0.2753692 0.87534,0.4663098 0.413517,0.3474934 0.748604,0.9000433 0.884908,1.4591884 0.0973,0.3991574 0.239554,1.3743363 0.421571,2.8898318 0.171821,1.430643 0.257991,2.229758 0.242361,2.247716 -0.0081,0.0094 -0.09133,0.02811 -0.184863,0.04167 -0.528404,0.07659 -1.012891,0.291061 -1.421938,0.62945 -0.08393,0.06943 -0.167281,0.126242 -0.185231,0.126242 -0.01795,0 -0.485994,-0.470042 -1.040104,-1.044574 z" />
    <path
       style="fill:#f15b43;stroke-width:1"
       inkscape:connector-curvature="0"
       id="path8"
       d="m -70.330383,22.109406 c -0.894318,-0.105869 -1.758131,-0.939489 -2.015353,-1.945637 -0.06854,-0.268201 -0.08375,-0.71834 -0.03302,-0.979484 0.08391,-0.431318 0.283258,-0.797546 0.613178,-1.126132 0.524561,-0.523071 1.172165,-0.79441 2.594182,-1.087706 0.856363,-0.176699 2.548227,-0.437733 2.59481,-0.40035 0.01392,0.01118 0.0323,0.100498 0.04086,0.198485 0.04699,0.538324 0.292214,1.143777 0.634093,1.565528 0.07759,0.09572 0.150702,0.187694 0.162466,0.204374 0.01499,0.02125 -0.0054,0.06443 -0.06822,0.144335 -0.13367,0.170057 -1.660889,1.755543 -1.988769,2.064759 -0.314956,0.296935 -0.869929,0.795743 -1.011402,0.909062 -0.165273,0.132367 -0.451715,0.288889 -0.660481,0.360903 -0.176433,0.06086 -0.537156,0.125812 -0.647001,0.116488 -0.01876,-0.0016 -0.115648,-0.01254 -0.215314,-0.02433 z" />
    <circle
       style="fill:#ffca2b;stroke-width:1"
       id="circle16"
       r="3.1368589"
       cx="-63.664322"
       cy="16.559519" />
  </g>
</svg>
