<?xml version="1.0" encoding="UTF-8" standalone="no"?>
<svg
   xmlns:dc="http://purl.org/dc/elements/1.1/"
   xmlns:cc="http://creativecommons.org/ns#"
   xmlns:rdf="http://www.w3.org/1999/02/22-rdf-syntax-ns#"
   xmlns:svg="http://www.w3.org/2000/svg"
   xmlns="http://www.w3.org/2000/svg"
   xmlns:xlink="http://www.w3.org/1999/xlink"
   xmlns:sodipodi="http://sodipodi.sourceforge.net/DTD/sodipodi-0.dtd"
   xmlns:inkscape="http://www.inkscape.org/namespaces/inkscape"
   width="32"
   height="32"
   version="1"
   id="svg98"
   sodipodi:docname="indicator-cpufreq.svg"
   inkscape:version="0.92.1 r">
  <metadata
     id="metadata102">
    <rdf:RDF>
      <cc:Work
         rdf:about="">
        <dc:format>image/svg+xml</dc:format>
        <dc:type
           rdf:resource="http://purl.org/dc/dcmitype/StillImage" />
      </cc:Work>
    </rdf:RDF>
  </metadata>
  <sodipodi:namedview
     pagecolor="#ffffff"
     bordercolor="#666666"
     borderopacity="1"
     objecttolerance="10"
     gridtolerance="10"
     guidetolerance="10"
     inkscape:pageopacity="0"
     inkscape:pageshadow="2"
     inkscape:window-width="640"
     inkscape:window-height="480"
     id="namedview100"
     showgrid="false"
     inkscape:zoom="8.9375"
     inkscape:cx="-11.813605"
     inkscape:cy="31.931878"
     inkscape:current-layer="svg98" />
  <defs
     id="defs36">
    <filter
       id="filter3831"
       style="color-interpolation-filters:sRGB">
      <feGaussianBlur
         stdDeviation=".637"
         id="feGaussianBlur2" />
    </filter>
    <clipPath
       id="clipPath3823">
      <path
         fill="#fff"
         d="m108.81 58c-1.56 0-2.81 1.254-2.81 2.812v24.375c0 1.559 1.25 2.813 2.81 2.813h24.375c1.57 0 2.82-1.254 2.82-2.812v-24.375c0-1.559-1.25-2.813-2.81-2.813h-24.375zm7.1875 4.5h10v8.75h5l-10 13.75-10-13.75h5v-8.75z"
         id="path5" />
    </clipPath>
    <linearGradient
       id="linearGradient3812"
       x1="65.263"
       x2="65.263"
       y1="64.205"
       y2="50.069"
       gradientTransform="matrix(.625 0 0 .625 78.5 32.25)"
       gradientUnits="userSpaceOnUse">
      <stop
         offset="0"
         id="stop8" />
      <stop
         offset="1"
         stop-opacity="0"
         id="stop10" />
    </linearGradient>
    <filter
       id="filter3806"
       style="color-interpolation-filters:sRGB">
      <feGaussianBlur
         stdDeviation="1.2"
         id="feGaussianBlur13" />
    </filter>
    <linearGradient
       id="linearGradient3788"
       x1="70"
       x2="70"
       y1="54"
       y2="75.095"
       gradientTransform="translate(0,4)"
       gradientUnits="userSpaceOnUse"
       xlink:href="#linearGradient3737" />
    <linearGradient
       id="linearGradient3773"
       x1="56"
       x2="88"
       y1="72"
       y2="72"
       gradientTransform="matrix(.9375 0 0 .9375 -140.5 3.5)"
       gradientUnits="userSpaceOnUse">
      <stop
         offset="0"
         stop-color="#499119"
         id="stop17" />
      <stop
         offset="1"
         stop-color="#8fd625"
         id="stop19" />
    </linearGradient>
    <linearGradient
       id="linearGradient3832"
       x1="65.263"
       x2="65.263"
       y1="64.205"
       y2="50.069"
       gradientTransform="matrix(.625 0 0 .625 28.5 31.25)"
       gradientUnits="userSpaceOnUse"
       xlink:href="#linearGradient3737" />
    <filter
       id="filter3174"
       style="color-interpolation-filters:sRGB">
      <feGaussianBlur
         stdDeviation="1.71"
         id="feGaussianBlur23" />
    </filter>
    <linearGradient
       id="linearGradient3737">
      <stop
         offset="0"
         stop-color="#fff"
         id="stop26" />
      <stop
         offset="1"
         stop-color="#fff"
         stop-opacity="0"
         id="stop28" />
    </linearGradient>
    <linearGradient
       id="ButtonShadow"
       x1="45.448"
       x2="45.448"
       y1="92.54"
       y2="7.016"
       gradientTransform="scale(1.0059 .99417)"
       gradientUnits="userSpaceOnUse">
      <stop
         offset="0"
         id="stop31" />
      <stop
         offset="1"
         stop-opacity=".588"
         id="stop33" />
    </linearGradient>
  </defs>
  <g
     display="none"
     transform="translate(-187.24 -49.656)"
     id="g40">
    <path
       fill="url(#ButtonShadow)"
       opacity=".9"
       d="m11 7 37-2 37 2c3.324 0 6 2.676 6 6v73c0 3.324-2.676 6-6 6h-74c-3.324 0-6-2.676-6-6v-73c0-3.324 2.676-6 6-6z"
       filter="url(#filter3174)"
       id="path38" />
  </g>
  <g
     display="none"
     transform="translate(-187.24 -49.656)"
     id="g52">
    <rect
       opacity=".6"
       width="30"
       height="30"
       x="-86"
       y="56"
       filter="url(#filter3806)"
       rx="2.813"
       ry="2.813"
       transform="matrix(0,-1,1,0,0,4)"
       id="rect42" />
    <rect
       fill="url(#linearGradient3773)"
       width="30"
       height="30"
       x="-88"
       y="56"
       rx="2.813"
       ry="2.813"
       transform="rotate(-90)"
       id="rect44" />
    <path
       fill="url(#linearGradient3788)"
       opacity=".5"
       d="m58.812 58c-1.558 0-2.812 1.254-2.812 2.812v24.375c0 0.87307 0.41082 1.6412 1.0312 2.1562-0.003-0.053-0.031-0.101-0.031-0.155v-24.375c0-1.559 1.171-2.813 2.625-2.813h22.75c1.454 0 2.625 1.254 2.625 2.812v24.375c0 0.05463-0.02841 0.10241-0.03125 0.15625 0.62-0.514 1.031-1.282 1.031-2.155v-24.375c0-1.559-1.254-2.813-2.812-2.813h-24.375z"
       id="path46" />
    <path
       fill="url(#linearGradient3812)"
       opacity=".6"
       d="m116 63.5v8.75h-5l10 13.75 10-13.75h-5v-8.75h-10z"
       clip-path="url(#clipPath3823)"
       filter="url(#filter3831)"
       transform="translate(-50)"
       id="path48" />
    <path
       fill="url(#linearGradient3832)"
       d="m66 62.5v8.75h-5l10 13.75 10-13.75h-5v-8.75h-10z"
       id="path50" />
  </g>
  <rect
     style="opacity:1;fill:#d13232;fill-opacity:1;fill-rule:evenodd;stroke:none;stroke-width:1.03534329;stroke-linecap:round;stroke-linejoin:bevel;stroke-miterlimit:4;stroke-dasharray:none;stroke-dashoffset:0;stroke-opacity:1"
     id="rect4497"
     width="28.203388"
     height="28.203388"
     x="1.8983059"
     y="1.8983059"
     ry="5.575182" />
  <g
     style="fill:#ffffff;stroke-width:1.23357666"
     id="g70"
     transform="matrix(0.81065089,0,0,0.81065089,3.0295858,3.0295858)">
    <rect
       style="stroke-width:1.23357666;fill:#ffffff"
       width="1"
       height="26"
       x="20"
       y="-29"
       transform="rotate(90)"
       id="rect54" />
    <rect
       style="stroke-width:1.23357666;fill:#ffffff"
       width="1"
       height="26"
       x="23"
       y="-29"
       transform="rotate(90)"
       id="rect56" />
    <rect
       style="stroke-width:1.23357666;fill:#ffffff"
       width="1"
       height="26"
       x="26"
       y="-29"
       transform="rotate(90)"
       id="rect58" />
    <rect
       style="stroke-width:1.23357666;fill:#ffffff"
       width="1"
       height="26"
       x="11"
       y="-29"
       transform="rotate(90)"
       id="rect60" />
    <rect
       style="stroke-width:1.23357666;fill:#ffffff"
       width="1"
       height="26"
       x="14"
       y="-29"
       transform="rotate(90)"
       id="rect62" />
    <rect
       style="stroke-width:1.23357666;fill:#ffffff"
       width="1"
       height="26"
       x="17"
       y="-29"
       transform="rotate(90)"
       id="rect64" />
    <rect
       style="stroke-width:1.23357666;fill:#ffffff"
       width="1"
       height="26"
       x="8"
       y="-29"
       transform="rotate(90)"
       id="rect66" />
    <rect
       style="stroke-width:1.23357666;fill:#ffffff"
       width="1"
       height="26"
       x="5"
       y="-29"
       transform="rotate(90)"
       id="rect68" />
  </g>
  <g
     style="fill:#ffffff;stroke-width:1.23357666"
     transform="matrix(0,0.81065089,-0.81065089,0,28.970414,3.0295858)"
     id="g88">
    <rect
       style="stroke-width:1.23357666;fill:#ffffff"
       width="1"
       height="26"
       x="20"
       y="-29"
       transform="rotate(90)"
       id="rect72" />
    <rect
       style="stroke-width:1.23357666;fill:#ffffff"
       width="1"
       height="26"
       x="23"
       y="-29"
       transform="rotate(90)"
       id="rect74" />
    <rect
       style="stroke-width:1.23357666;fill:#ffffff"
       width="1"
       height="26"
       x="26"
       y="-29"
       transform="rotate(90)"
       id="rect76" />
    <rect
       style="stroke-width:1.23357666;fill:#ffffff"
       width="1"
       height="26"
       x="11"
       y="-29"
       transform="rotate(90)"
       id="rect78" />
    <rect
       style="stroke-width:1.23357666;fill:#ffffff"
       width="1"
       height="26"
       x="14"
       y="-29"
       transform="rotate(90)"
       id="rect80" />
    <rect
       style="stroke-width:1.23357666;fill:#ffffff"
       width="1"
       height="26"
       x="17"
       y="-29"
       transform="rotate(90)"
       id="rect82" />
    <rect
       style="stroke-width:1.23357666;fill:#ffffff"
       width="1"
       height="26"
       x="8"
       y="-29"
       transform="rotate(90)"
       id="rect84" />
    <rect
       style="stroke-width:1.23357666;fill:#ffffff"
       width="1"
       height="26"
       x="5"
       y="-29"
       transform="rotate(90)"
       id="rect86" />
  </g>
  <rect
     style="fill:#b7b7b7;stroke-width:1"
     width="19.455622"
     height="19.455622"
     x="-25.72781"
     y="-25.72781"
     rx="0.97278112"
     ry="1.2159764"
     transform="matrix(0,-1,-1,0,0,0)"
     id="rect90" />
  <rect
     style="fill:#d13232;stroke-width:1"
     width="14.591716"
     height="14.591716"
     x="8.7041416"
     y="8.7041416"
     rx="0.81065089"
     ry="0.81065089"
     id="rect96" />
</svg>
