<?xml version="1.0" encoding="UTF-8" standalone="no"?>
<svg
   xmlns:dc="http://purl.org/dc/elements/1.1/"
   xmlns:cc="http://creativecommons.org/ns#"
   xmlns:rdf="http://www.w3.org/1999/02/22-rdf-syntax-ns#"
   xmlns:svg="http://www.w3.org/2000/svg"
   xmlns="http://www.w3.org/2000/svg"
   xmlns:sodipodi="http://sodipodi.sourceforge.net/DTD/sodipodi-0.dtd"
   xmlns:inkscape="http://www.inkscape.org/namespaces/inkscape"
   height="32"
   width="32"
   version="1"
   id="svg12"
   sodipodi:docname="inkscape-logo.svg"
   inkscape:version="0.92.1 r">
  <metadata
     id="metadata18">
    <rdf:RDF>
      <cc:Work
         rdf:about="">
        <dc:format>image/svg+xml</dc:format>
        <dc:type
           rdf:resource="http://purl.org/dc/dcmitype/StillImage" />
      </cc:Work>
    </rdf:RDF>
  </metadata>
  <defs
     id="defs16" />
  <sodipodi:namedview
     pagecolor="#ffffff"
     bordercolor="#666666"
     borderopacity="1"
     objecttolerance="10"
     gridtolerance="10"
     guidetolerance="10"
     inkscape:pageopacity="0"
     inkscape:pageshadow="2"
     inkscape:window-width="1680"
     inkscape:window-height="955"
     id="namedview14"
     showgrid="false"
     inkscape:zoom="10.429825"
     inkscape:cx="-6.5163565"
     inkscape:cy="22.232412"
     inkscape:window-x="0"
     inkscape:window-y="0"
     inkscape:window-maximized="1"
     inkscape:current-layer="svg12"
     showguides="true"
     inkscape:guide-bbox="true" />
  <rect
     style="opacity:1;fill:#5b5b5b;fill-opacity:1;fill-rule:evenodd;stroke:none;stroke-width:1.03534329;stroke-linecap:round;stroke-linejoin:bevel;stroke-miterlimit:4;stroke-dasharray:none;stroke-dashoffset:0;stroke-opacity:1"
     id="rect4497-3"
     width="28.203388"
     height="28.203388"
     x="1.8983059"
     y="1.8983059"
     ry="5.575182" />
  <path
     style="fill:#ffffff;fill-opacity:1;fill-rule:evenodd;stroke-width:0.78312117;enable-background:new"
     d="M 16 5.0371094 C 15.372681 5.0371094 14.762008 5.2712202 14.28125 5.7675781 L 5.7304688 14.582031 C 5.2593039 15.068521 5.0093583 15.708873 5 16.34375 C 4.999859 16.35345 5 16.376149 5 16.386719 C 4.9999107 18.275608 10.044302 16.442452 10.5 18.751953 C 10.746675 20.001894 7.75 19.429987 7.75 20.6875 C 7.75 22.162744 11.991706 21.147188 13.207031 22.363281 C 13.706272 23.57939 11.583161 23.383629 11.960938 24.513672 C 12.672864 25.248788 14.274421 24.830985 14.582031 26.017578 C 14.933417 27.373005 17.234995 27.139348 18.578125 26.146484 C 19.290046 25.411399 17.479447 25.076913 18.191406 24.341797 C 18.903302 23.606704 22.419861 23.754767 22.445312 22.148438 C 22.109268 21.139308 20.789814 20.975897 20.769531 19.783203 C 20.698731 18.773133 21.850195 19.069644 25.496094 18.064453 C 26.953952 17.38082 27.00556 17.01627 27 16.386719 C 26.999882 16.374259 27 16.35707 27 16.34375 C 26.9917 15.70889 26.697688 15.068506 26.226562 14.582031 L 17.71875 5.7675781 C 17.238032 5.2711732 16.627358 5.0371094 16 5.0371094 z M 16.455078 6.6445312 C 17.425096 6.6527712 20.081634 9.9340076 22.453125 12.390625 C 23.120189 13.283244 22.195312 14.197266 22.195312 14.197266 L 17.228516 11.486328 L 15.035156 14.455078 L 13.099609 11.550781 L 11.939453 16.070312 L 8.5195312 14.003906 L 9.421875 12.841797 L 14.777344 7.3554688 C 15.188023 6.9379827 15.503024 6.6371475 16.455078 6.6445312 z M 25.966797 20.128906 C 25.793038 20.123406 25.617772 20.135382 25.494141 20.169922 C 25.2611 20.237122 24.157127 20.277729 24.248047 21.117188 C 25.24825 21.536714 26.773393 21.870585 26.955078 21.03125 C 27.091537 20.401832 26.488176 20.148171 25.966797 20.128906 z M 8.9101562 22.921875 C 8.8131043 22.932915 8.7471954 22.971673 8.6523438 23.007812 C 7.8938048 23.296415 7.3850958 23.904679 8.09375 24.169922 C 8.8025139 24.435133 9.2771875 24.155033 9.8984375 23.826172 C 10.519805 23.497128 10.501959 23.437475 10.457031 23.310547 C 10.370891 23.327767 9.8058355 22.974195 9.2109375 22.921875 C 9.1118025 22.913575 9.007185 22.910825 8.9101562 22.921875 z "
     id="path2" />
</svg>
