<?xml version="1.0" encoding="UTF-8" standalone="no"?>
<svg
   xmlns:dc="http://purl.org/dc/elements/1.1/"
   xmlns:cc="http://creativecommons.org/ns#"
   xmlns:rdf="http://www.w3.org/1999/02/22-rdf-syntax-ns#"
   xmlns:svg="http://www.w3.org/2000/svg"
   xmlns="http://www.w3.org/2000/svg"
   xmlns:sodipodi="http://sodipodi.sourceforge.net/DTD/sodipodi-0.dtd"
   xmlns:inkscape="http://www.inkscape.org/namespaces/inkscape"
   height="32"
   width="32"
   version="1"
   id="svg25"
   sodipodi:docname="jdownloader.svg"
   inkscape:version="0.92.1 r">
  <metadata
     id="metadata29">
    <rdf:RDF>
      <cc:Work
         rdf:about="">
        <dc:format>image/svg+xml</dc:format>
        <dc:type
           rdf:resource="http://purl.org/dc/dcmitype/StillImage" />
      </cc:Work>
    </rdf:RDF>
  </metadata>
  <sodipodi:namedview
     pagecolor="#ffffff"
     bordercolor="#666666"
     borderopacity="1"
     objecttolerance="10"
     gridtolerance="10"
     guidetolerance="10"
     inkscape:pageopacity="0"
     inkscape:pageshadow="2"
     inkscape:window-width="640"
     inkscape:window-height="480"
     id="namedview27"
     showgrid="false"
     inkscape:zoom="8.8125"
     inkscape:cx="-22.412404"
     inkscape:cy="22.140616"
     inkscape:current-layer="svg25" />
  <defs
     id="defs5">
    <clipPath
       id="clipPath4186"
       clipPathUnits="userSpaceOnUse">
      <circle
         cx="286"
         cy="26"
         r="10"
         fill="url(#linearGradient4190)"
         id="circle2" />
    </clipPath>
  </defs>
  <rect
     style="opacity:1;fill:#37a0f2;fill-opacity:1;fill-rule:evenodd;stroke:none;stroke-width:1.03534329;stroke-linecap:round;stroke-linejoin:bevel;stroke-miterlimit:4;stroke-dasharray:none;stroke-dashoffset:0;stroke-opacity:1"
     id="rect4497-3"
     width="28.203388"
     height="28.203388"
     x="1.8983059"
     y="1.8983059"
     ry="5.575182"
     inkscape:export-filename="/home/ramil/3.png"
     inkscape:export-xdpi="71"
     inkscape:export-ydpi="71" />
  <path
     d="M 10.859839,5.4384099 A 11.197392,11.197392 0 0 0 9.983963,5.9086203 h 0.114821 l 0.05795,0.1869885 -0.165082,0.1541241 0.705276,0.019755 L 10.805223,6.524229 10.011328,6.4947159 9.971978,6.2990015 9.509446,6.1983849 a 11.197392,11.197392 0 0 0 -0.47349,0.338961 h 0.276655 v 0.184797 L 9.191232,6.8839772 H 8.611679 V 6.8599204 A 11.197392,11.197392 0 0 0 5.119052,11.857316 l 0.06123,0.02952 v 0.934903 l 0.469107,0.803732 0.382726,0.05905 0.04921,-0.275559 -0.451615,-0.696558 -0.08748,-0.67797 h 0.26353 l 0.111534,0.697653 0.65172,0.952418 -0.167305,0.307273 0.414432,0.635324 1.02904,0.25594 v -0.167305 l 0.411152,0.05905 -0.03827,0.294148 0.322581,0.05905 0.499724,0.136688 0.705308,0.805892 0.902109,0.06779 0.08748,0.737012 -0.616728,0.431932 -0.02843,0.658286 -0.08857,0.402403 0.892272,1.119739 0.0678,0.382727 c 0,0 0.323397,0.08857 0.363044,0.08857 0.03911,0 0.724983,0.520503 0.724983,0.520503 v 2.022969 l 0.244943,0.06889 -0.166209,0.932743 0.411152,0.550031 -0.07546,0.925065 0.543466,0.957937 0.693278,0.605795 a 11.197392,11.197392 0 0 0 0.03718,0.0066 l 0.670308,0.01203 0.0678,-0.226355 -0.515032,-0.43521 0.02952,-0.21651 0.09185,-0.264626 0.01968,-0.270098 -0.348823,-0.01093 -0.176055,-0.220885 0.289773,-0.279934 0.03937,-0.209951 -0.323677,-0.09295 0.01968,-0.195738 0.460365,-0.06998 0.700933,-0.337889 0.235105,-0.431932 0.734829,-0.94258 -0.166209,-0.737012 0.225259,-0.392565 0.675779,0.02078 0.454894,-0.361948 0.147622,-1.422628 0.504098,-0.641883 0.08857,-0.413343 -0.460356,-0.147622 -0.303994,-0.498636 -1.038798,-0.01093 -0.823408,-0.314927 -0.03827,-0.588303 -0.27556,-0.481136 -0.744666,-0.01093 -0.42974,-0.676875 -0.382727,-0.186988 -0.01968,0.205576 -0.695462,0.04155 -0.254789,-0.355389 -0.724983,-0.147622 -0.598141,0.692183 -0.938981,-0.158363 -0.06894,-1.062953 -0.68672,-0.116773 0.275616,-0.521478 -0.07878,-0.29993 -0.90211,0.604659 -0.567548,-0.06878 -0.202273,-0.445496 0.123571,-0.457494 0.312744,-0.577369 0.720616,-0.365227 1.390956,-0.0011 -0.0033,0.425373 0.499731,0.232913 -0.03937,-0.726079 0.359757,-0.364131 0.727174,-0.477856 0.0503,-0.336794 0.724991,-0.756696 0.770916,-0.427556 -0.0678,-0.056861 0.521598,-0.4920694 0.191364,0.050299 0.08857,0.1104463 0.197922,-0.2208845 0.04812,-0.020777 -0.21651,-0.030619 -0.220884,-0.074358 V 9.0792083 l 0.117005,-0.095138 h 0.256972 l 0.1181,0.051396 0.101697,0.2066719 0.125754,-0.018588 v -0.018588 l 0.03499,0.012032 0.361948,-0.054677 0.0514,-0.1771427 0.205576,0.051396 v 0.1924512 l -0.190268,0.1312174 0.02843,0.2099511 0.653911,0.2022969 c 0,0 0.0012,0.00342 0.0022,0.00875 l 0.150901,-0.013123 0.0098,-0.2843098 L 15.39279,9.2465156 15.36327,9.1109232 15.794106,8.9633016 15.812696,8.5499579 15.363264,8.2754938 15.333744,7.578936 14.71592,7.8829292 H 14.49066 L 14.54971,7.3525807 13.709905,7.1535631 13.36217,7.4170937 v 0.8026131 l -0.625478,0.1990176 -0.250414,0.523782 -0.27228,0.043743 V 8.3159341 l -0.587863,-0.081101 -0.293532,-0.1913955 -0.118372,-0.4340589 1.050955,-0.6167363 0.51348,-0.1563636 0.05249,0.3455435 0.286493,-0.014216 0.02187,-0.1738635 0.299618,-0.043739 0.0055,-0.060124 -0.129034,-0.053581 -0.02952,-0.184797 0.368506,-0.030618 0.22198,-0.2329138 0.01203,-0.016403 0.0033,0.00109 0.0678,-0.069984 0.774196,-0.098417 0.342264,0.291964 -0.897791,0.4789525 1.142694,0.270097 0.147622,-0.3827268 h 0.499723 l 0.176055,-0.3335143 -0.35211,-0.088571 V 6.0183694 L 14.68461,5.526244 l -0.763822,0.088539 -0.431099,0.2263473 0.02952,0.5500319 -0.451615,-0.06889 -0.06889,-0.3039932 0.431931,-0.3936603 -0.784033,-0.038272 -0.22526,0.067797 -0.09732,0.2646263 0.29306,0.050301 -0.05795,0.2941475 -0.499723,0.029524 -0.07764,0.1957384 -0.724983,0.020776 c 0,0 -0.02013,-0.4122479 -0.04921,-0.4122479 -0.02909,1.96e-5 0.567524,-0.00984 0.567524,-0.00984 L 12.206999,5.6639863 11.971854,5.5458538 11.658327,5.8509828 11.139248,5.8213897 10.861153,5.4397985 Z m 12.138773,1.6238618 -0.356477,0.1399673 -0.228539,0.249318 0.05249,0.2908682 0.281031,0.039365 0.1684,0.4242772 0.484415,-0.1957385 0.07982,0.5664281 h -0.145438 l -0.398036,-0.059049 -0.440681,0.074358 -0.426461,0.6036113 -0.610169,0.096226 -0.08857,0.523782 0.258068,0.060142 -0.07436,0.3367937 -0.605795,-0.12138 -0.555494,0.12138 -0.118101,0.309456 0.09623,0.650632 0.32586,0.153093 0.546745,-0.0033 0.369602,-0.0328 0.112629,-0.295244 0.57737,-0.751233 0.380535,0.07764 0.373977,-0.3389847 0.06998,0.2646267 0.920745,0.623295 -0.112629,0.1509 -0.415528,-0.02187 0.159651,0.226356 0.255877,0.05577 0.298522,-0.124659 -0.0066,-0.360852 0.133409,-0.0667 -0.107159,-0.113726 -0.614545,-0.34336 -0.160747,-0.4559898 h 0.510665 l 0.16293,0.1618343 0.439586,0.3805355 0.01859,0.459269 0.455989,0.485511 0.169489,-0.665941 0.314926,-0.172776 0.05905,0.544561 0.308368,0.338985 0.143247,-0.0022 A 11.197392,11.197392 0 0 0 24.398666,8.5100898 l -0.742483,-0.00656 -0.0503,-0.1684008 0.44177,-0.2252595 A 11.197392,11.197392 0 0 0 22.997897,7.0622734 Z M 9.302602,7.1781646 c 0.02219,0 0,0.2569722 0,0.2569722 L 8.721937,7.4723278 8.611483,7.3399587 9.022667,7.2219061 c 0,0 0.257732,-0.043739 0.279935,-0.043739 z m 0.706395,1.2520285 0.278815,0.066704 -0.09622,0.3751126 -0.30185,0.096218 -0.190196,-0.3915088 z m 0.76435,0.8901126 h 0.462549 v 0.1410632 h 0.101696 v 0.2427594 h -0.705308 l -0.263698,-0.073263 0.06558,-0.1694805 0.338961,-0.1410872 z m 0.69,0.1038798 0.242759,0.2208846 -0.242759,0.059049 V 9.4241839 Z m 0.533627,0.3389851 0.179334,0.1126297 -0.144342,0.1191883 -0.142159,-0.1191883 0.107159,-0.1126297 z m -1.355924,0.037181 h 0.389285 l -0.499243,0.6987174 -0.205552,-0.110374 0.04375,-0.294172 0.272257,-0.2941714 z m 0.625478,0 h 0.395844 v 0.2351054 l -0.176055,0.113725 -0.219789,0.04155 V 9.8003547 Z m 0.49207,0.2580684 h 0.02952 l 0.448335,0.132313 v 0.228539 H 11.861381 L 11.75859,10.270554 v -0.212135 z m -0.184805,0.212134 v 0.229635 l -0.168401,0.169488 h -0.375073 l 0.05905,-0.256972 0.177142,-0.01531 0.03608,-0.08857 0.271185,-0.03827 z m 11.656485,0.973213 -1.323132,0.102793 -0.410064,0.220884 h -0.524878 l -0.258068,-0.02624 -0.637508,0.355389 v 0.668125 l -1.304576,0.94258 0.108255,0.402402 h 0.264626 l -0.06889,0.382727 -0.185893,0.06889 -0.01093,1.001607 1.127418,1.285941 h 0.489886 l 0.03062,-0.07764 h 0.881394 l 0.253693,-0.236193 h 0.50082 l 0.273376,0.275559 0.745762,0.07764 -0.09842,0.992889 0.826688,1.463099 -0.435211,0.834366 0.02952,0.392565 0.342264,0.34336 v 0.94474 l 0.450519,0.60689 v 0.413344 a 11.197392,11.197392 0 0 0 2.583399,-7.147135 11.197392,11.197392 0 0 0 -0.475889,-3.198456 h -0.556591 l -0.572994,-0.427556 -0.602516,0.05905 v 0.368506 h -0.191363 l -0.205577,-0.147621 -1.045356,-0.265722 v -0.676875 z"
     id="path9"
     inkscape:connector-curvature="0"
     style="fill:#a2f46a;stroke-width:1" />
  <g
     id="g4497"
     transform="matrix(0.75,0,0,0.75,4.047399,5.01614)"
     style="stroke-width:1.33333337">
    <circle
       id="circle19"
       r="8"
       cy="23"
       cx="24"
       style="fill:#ffc921;stroke-width:1.77777779;enable-background:new" />
    <path
       id="path21"
       d="m 23.983,27 -2.9828,-4 h 2 v -4 h 2 v 4 h 2 z"
       inkscape:connector-curvature="0"
       style="fill:#2e2e2e;stroke-width:1.77777779" />
  </g>
</svg>
