<?xml version="1.0" encoding="UTF-8" standalone="no"?>
<svg
   xmlns:dc="http://purl.org/dc/elements/1.1/"
   xmlns:cc="http://creativecommons.org/ns#"
   xmlns:rdf="http://www.w3.org/1999/02/22-rdf-syntax-ns#"
   xmlns:svg="http://www.w3.org/2000/svg"
   xmlns="http://www.w3.org/2000/svg"
   xmlns:sodipodi="http://sodipodi.sourceforge.net/DTD/sodipodi-0.dtd"
   xmlns:inkscape="http://www.inkscape.org/namespaces/inkscape"
   height="32"
   width="32"
   version="1"
   id="svg16"
   sodipodi:docname="media-optical-copy.svg"
   inkscape:version="0.92.1 r">
  <metadata
     id="metadata22">
    <rdf:RDF>
      <cc:Work
         rdf:about="">
        <dc:format>image/svg+xml</dc:format>
        <dc:type
           rdf:resource="http://purl.org/dc/dcmitype/StillImage" />
      </cc:Work>
    </rdf:RDF>
  </metadata>
  <defs
     id="defs20" />
  <sodipodi:namedview
     pagecolor="#ffffff"
     bordercolor="#666666"
     borderopacity="1"
     objecttolerance="10"
     gridtolerance="10"
     guidetolerance="10"
     inkscape:pageopacity="0"
     inkscape:pageshadow="2"
     inkscape:window-width="1680"
     inkscape:window-height="963"
     id="namedview18"
     showgrid="false"
     inkscape:zoom="10.429825"
     inkscape:cx="-0.0327003"
     inkscape:cy="12.862568"
     inkscape:window-x="0"
     inkscape:window-y="0"
     inkscape:window-maximized="1"
     inkscape:current-layer="svg16" />
  <rect
     style="opacity:1;fill:#858585;fill-opacity:1;fill-rule:evenodd;stroke:none;stroke-width:1.03534329;stroke-linecap:round;stroke-linejoin:bevel;stroke-miterlimit:4;stroke-dasharray:none;stroke-dashoffset:0;stroke-opacity:1"
     id="rect4497-3"
     width="28.203388"
     height="28.203388"
     x="1.8983059"
     y="1.8983059"
     ry="5.575182" />
  <path
     style="opacity:1;fill:#858585;fill-opacity:1;stroke-width:0.74818403"
     d="M 16,10.38862 A 5.6113801,5.6113801 0 0 0 10.38862,16 5.6113801,5.6113801 0 0 0 16,21.61138 5.6113801,5.6113801 0 0 0 21.61138,16 5.6113801,5.6113801 0 0 0 16,10.38862 Z m 0,3.366828 c 1.239666,0 2.244552,1.004886 2.244552,2.244552 0,1.239666 -1.004886,2.244552 -2.244552,2.244552 -1.239666,0 -2.244552,-1.004886 -2.244552,-2.244552 0,-1.239666 1.004886,-2.244552 2.244552,-2.244552 z"
     id="path4-36"
     inkscape:connector-curvature="0" />
  <path
     d="M 16,5.5254239 C 10.197085,5.5254239 5.525424,10.197085 5.525424,16 5.525424,21.802915 10.197085,26.474576 16,26.474576 21.802915,26.474576 26.474576,21.802915 26.474576,16 26.474576,10.197085 21.802915,5.5254239 16,5.5254239 Z m 0,5.9854721 A 4.4891041,4.4891041 0 0 1 20.489104,16 4.4891041,4.4891041 0 0 1 16,20.489104 4.4891041,4.4891041 0 0 1 11.510896,16 4.4891041,4.4891041 0 0 1 16,11.510896 Z"
     style="fill:#cccccc;stroke-width:0.74818403"
     id="path6-7"
     inkscape:connector-curvature="0" />
  <path
     style="opacity:1;fill:#ffffff;fill-opacity:1;stroke-width:0.40468118"
     d="m 16,12.964891 c -1.676244,0 -3.035109,1.358865 -3.035109,3.035109 0,1.676244 1.358865,3.035109 3.035109,3.035109 1.676244,0 3.035109,-1.358865 3.035109,-3.035109 0,-1.676244 -1.358865,-3.035109 -3.035109,-3.035109 z"
     id="path4-3"
     inkscape:connector-curvature="0"
     sodipodi:nodetypes="sssss" />
  <g
     id="g4520"
     transform="matrix(0.75,0,0,0.75,4.6189786,5.1737288)"
     style="stroke-width:0.83333331">
    <circle
       id="circle10"
       r="8"
       cy="23"
       cx="24"
       style="fill:#ff4d4d;stroke-width:0.83333331;enable-background:new" />
    <path
       id="path14"
       style="fill:#ffffff;stroke-width:0.83333331"
       d="m 24,18 a 5,5 0 0 0 -5,5 5,5 0 0 0 5,5 5,5 0 0 0 5,-5 5,5 0 0 0 -5,-5 z m 0,3 a 2,2 0 0 1 2,2 2,2 0 0 1 -2,2 2,2 0 0 1 -2,-2 2,2 0 0 1 2,-2 z"
       inkscape:connector-curvature="0" />
  </g>
</svg>
