<?xml version="1.0" encoding="UTF-8" standalone="no"?>
<svg
   xmlns:dc="http://purl.org/dc/elements/1.1/"
   xmlns:cc="http://creativecommons.org/ns#"
   xmlns:rdf="http://www.w3.org/1999/02/22-rdf-syntax-ns#"
   xmlns:svg="http://www.w3.org/2000/svg"
   xmlns="http://www.w3.org/2000/svg"
   xmlns:sodipodi="http://sodipodi.sourceforge.net/DTD/sodipodi-0.dtd"
   xmlns:inkscape="http://www.inkscape.org/namespaces/inkscape"
   height="32"
   width="32"
   version="1"
   id="svg12"
   sodipodi:docname="kblackbox.svg"
   inkscape:version="0.92.1 r">
  <metadata
     id="metadata18">
    <rdf:RDF>
      <cc:Work
         rdf:about="">
        <dc:format>image/svg+xml</dc:format>
        <dc:type
           rdf:resource="http://purl.org/dc/dcmitype/StillImage" />
      </cc:Work>
    </rdf:RDF>
  </metadata>
  <defs
     id="defs16" />
  <sodipodi:namedview
     pagecolor="#ffffff"
     bordercolor="#666666"
     borderopacity="1"
     objecttolerance="10"
     gridtolerance="10"
     guidetolerance="10"
     inkscape:pageopacity="0"
     inkscape:pageshadow="2"
     inkscape:window-width="640"
     inkscape:window-height="480"
     id="namedview14"
     showgrid="false"
     inkscape:zoom="8.8125"
     inkscape:cx="-5.5602837"
     inkscape:cy="16"
     inkscape:current-layer="svg12" />
  <rect
     style="opacity:1;fill:#4f4f4f;fill-opacity:1;fill-rule:evenodd;stroke:none;stroke-width:1.03534329;stroke-linecap:round;stroke-linejoin:bevel;stroke-miterlimit:4;stroke-dasharray:none;stroke-dashoffset:0;stroke-opacity:1"
     id="rect4497-3"
     width="28.203388"
     height="28.203388"
     x="1.8983059"
     y="1.8983059"
     ry="5.575182" />
  <path
     d="m 13.033165,23.74744 c 0,-0.41513 0.0596,-0.76587 0.17874,-1.0532 0.11916,-0.28636 0.28444,-0.51794 0.4968,-0.69476 0.21141,-0.17681 0.46125,-0.30461 0.74857,-0.38437 0.28636,-0.0788 0.5929,-0.11916 0.91962,-0.11916 0.30942,0 0.60347,0.0404 0.88118,0.11916 0.27771,0.0798 0.52275,0.20756 0.73512,0.38437 0.21141,0.17682 0.37861,0.4084 0.50257,0.69476 0.12396,0.28732 0.18546,0.63806 0.18546,1.0532 0,0.39783 -0.0615,0.738 -0.18546,1.0205 -0.12396,0.28155 -0.29116,0.51698 -0.50257,0.70244 -0.21237,0.1845 -0.45741,0.31903 -0.73512,0.4036 -0.278,0.084 -0.572,0.126 -0.881,0.126 -0.327,0 -0.633,-0.042 -0.92,-0.126 -0.287,-0.084 -0.537,-0.219 -0.748,-0.403 -0.213,-0.186 -0.378,-0.421 -0.497,-0.703 -0.119,-0.282 -0.179,-0.623 -0.179,-1.02 m 0.43723,-4.5299 v -0.9792 c 0,-0.45068 0.0461,-0.85908 0.13934,-1.2252 0.0922,-0.36708 0.23351,-0.71494 0.42377,-1.0465 0.18931,-0.33056 0.43435,-0.65344 0.73416,-0.9667 0.30077,-0.31327 0.66304,-0.63806 1.0868,-0.97343 0.37092,-0.29116 0.68419,-0.55158 0.9398,-0.7822 0.25657,-0.2287 0.46317,-0.45645 0.62269,-0.68227 0.15855,-0.22486 0.27386,-0.46029 0.34401,-0.70725 0.0711,-0.24792 0.10666,-0.53524 0.10666,-0.861 0,-0.50353 -0.17104,-0.91962 -0.51026,-1.2454 -0.34017,-0.32672 -0.85907,-0.49008 -1.5567,-0.49008 -0.60828,0 -1.2646,0.1278 -1.967,0.38341 -0.70053,0.25657 -1.428,0.56984 -2.1784,0.94076 l -1.35,-2.9272999 c 0.379,-0.221 0.792,-0.4305 1.238,-0.6285 0.447,-0.1989 0.91,-0.3757001 1.39,-0.5304001 0.482,-0.1536999 0.97,-0.2758 1.464,-0.3642 0.495,-0.0884 0.98,-0.1326 1.457,-0.1326 0.9004,0 1.7124,0.10858 2.436,0.3248 0.72455,0.21621 1.3386,0.5314 1.8412,0.94652 0.50449,0.41512 0.88982,0.91962 1.1589,1.5106 0.27002,0.5919399 0.40455,1.2665 0.40455,2.0257 0,0.55638 -0.0625,1.0532 -0.18546,1.4904 -0.123,0.43723 -0.3075,0.8437 -0.5487,1.2185 -0.24407,0.37573 -0.54869,0.738 -0.91481,1.0859 -0.36612,0.34882 -0.79277,0.71782 -1.278,1.106 -0.37092,0.29116 -0.67361,0.54581 -0.90808,0.76202 -0.23351,0.21621 -0.41705,0.42185 -0.5487,0.615 -0.13261,0.19507 -0.22293,0.39591 -0.27194,0.60347 -0.0481,0.2066 -0.073,0.45164 -0.073,0.73416 v 0.7947 h -3.4959 z"
     style="fill:#b7b7b7;enable-background:new"
     id="path10"
     inkscape:connector-curvature="0" />
</svg>
