<?xml version="1.0" encoding="UTF-8" standalone="no"?>
<svg
   xmlns:dc="http://purl.org/dc/elements/1.1/"
   xmlns:cc="http://creativecommons.org/ns#"
   xmlns:rdf="http://www.w3.org/1999/02/22-rdf-syntax-ns#"
   xmlns:svg="http://www.w3.org/2000/svg"
   xmlns="http://www.w3.org/2000/svg"
   xmlns:sodipodi="http://sodipodi.sourceforge.net/DTD/sodipodi-0.dtd"
   xmlns:inkscape="http://www.inkscape.org/namespaces/inkscape"
   height="32"
   width="32"
   version="1"
   id="svg18"
   sodipodi:docname="kcron.svg"
   inkscape:version="0.92.2 2405546, 2018-03-11">
  <metadata
     id="metadata24">
    <rdf:RDF>
      <cc:Work
         rdf:about="">
        <dc:format>image/svg+xml</dc:format>
        <dc:type
           rdf:resource="http://purl.org/dc/dcmitype/StillImage" />
        <dc:title />
      </cc:Work>
    </rdf:RDF>
  </metadata>
  <defs
     id="defs22" />
  <sodipodi:namedview
     pagecolor="#ffffff"
     bordercolor="#666666"
     borderopacity="1"
     objecttolerance="10"
     gridtolerance="10"
     guidetolerance="10"
     inkscape:pageopacity="0"
     inkscape:pageshadow="2"
     inkscape:window-width="1680"
     inkscape:window-height="972"
     id="namedview20"
     showgrid="false"
     inkscape:zoom="9.1171876"
     inkscape:cx="2.0206492"
     inkscape:cy="10.966618"
     inkscape:window-x="0"
     inkscape:window-y="0"
     inkscape:window-maximized="1"
     inkscape:current-layer="svg18" />
  <rect
     style="opacity:1;fill:#4b88e8;fill-opacity:1;fill-rule:evenodd;stroke:none;stroke-width:1.03534329;stroke-linecap:round;stroke-linejoin:bevel;stroke-miterlimit:4;stroke-dasharray:none;stroke-dashoffset:0;stroke-opacity:1"
     id="rect4497-3-3"
     width="28.203388"
     height="28.203388"
     x="1.8983059"
     y="1.8983059"
     ry="5.575182" />
  <g
     id="g826"
     transform="translate(30.318573,4.5521006)">
    <path
       sodipodi:nodetypes="ccscccccccccscccssccccccccccscccccscccscssccscccscsccccsccccccac"
       inkscape:connector-curvature="0"
       id="path4498"
       d="m -15.599829,21.948955 c -1.803605,-0.204275 -3.539556,-0.973575 -4.897531,-2.170385 -1.407252,-1.240233 -2.408538,-2.966167 -2.822025,-4.864356 -0.101032,-0.463806 -0.116973,-0.698855 -0.118693,-1.750076 -0.0014,-1.069996 0.01236,-1.281229 0.118637,-1.777367 0.370622,-1.7301215 1.135329,-3.1644325 2.355581,-4.4182034 1.149922,-1.1815045 2.546444,-1.9870695 4.176117,-2.4089315 l 0.633556,-0.164003 0.01552,-0.380604 0.01552,-0.380605 h -1.005442 -1.005436 v -0.252888 c 0,-1.1360879 0.92215,-2.2133863 2.088715,-2.44013688 0.212808,-0.041362 0.752397,-0.055189 1.610284,-0.041271 1.199325,0.019466 1.312562,0.029642 1.607012,0.14440428 0.414021,0.1613634 0.825718,0.4355455 1.063083,0.7079897 0.360208,0.4134418 0.652798,1.1773349 0.652798,1.7043189 v 0.17758 h -0.976728 -0.976736 v 0.390673 0.390671 l 0.409176,0.09095 c 1.007072,0.223856 2.118743,0.716937 3.0753731,1.364079 0.688001,0.4654175 1.68369,1.4456835 2.179459,2.1457085 0.42985,0.6069369 0.983133,1.6982769 1.196467,2.3600194 0.565404,1.753778 0.564442,3.786661 -0.0028,5.52464 -0.704117,2.15807 -2.275174,4.008345 -4.3236441,5.092056 -1.509906,0.798791 -3.36521,1.148637 -5.068436,0.955731 z m 0.273614,-2.647259 c 0.01777,-0.460217 0.0448,-0.627257 0.120077,-0.741846 0.268214,-0.40825 0.910759,-0.398251 1.156642,0.018 0.06594,0.111671 0.08635,0.284475 0.08635,0.731991 0,0.677607 -0.05456,0.634015 0.631085,0.503945 0.857508,-0.162666 1.88458,-0.604569 2.642278,-1.136848 0.21778,-0.152993 0.610944,-0.494432 0.8736961,-0.758754 2.285062,-2.298727 2.632939,-5.842933 0.838119,-8.5389605 -0.992044,-1.4901649 -2.5198361,-2.5182649 -4.3128931,-2.9022789 -0.701863,-0.150318 -1.958175,-0.160619 -2.597813,-0.0213 -2.044705,0.445356 -3.662272,1.604945 -4.647399,3.3316019 -0.386149,0.6768135 -0.742095,1.7193515 -0.832986,2.4397595 l -0.0283,0.224384 h 0.554561 c 0.785331,0 1.027577,0.135793 1.100034,0.616638 0.03954,0.262198 -0.10627,0.53921 -0.349211,0.663587 -0.138601,0.07096 -0.311599,0.09233 -0.747874,0.09239 -0.312154,4.5e-5 -0.567559,0.0093 -0.567559,0.02065 0,0.01131 0.03659,0.219196 0.08128,0.461967 0.510608,2.772844 2.654575,4.963559 5.389431,5.506932 0.635754,0.126314 0.584188,0.16955 0.61048,-0.51186 z m 7.5771351,-12.9108334 -1.203813,-1.2051815 0.658058,-0.640385 c 0.68944,-0.670923 0.842817,-0.758626 1.181649,-0.675682 0.09112,0.0223 0.476212,0.365669 1.029874,0.918267 l 0.884334,0.882641 v 0.284678 0.28468 l -0.673148,0.6780815 -0.673149,0.678082 z"
       style="fill:#ffffff;stroke-width:1" />
    <path
       sodipodi:nodetypes="cccccscccc"
       inkscape:connector-curvature="0"
       id="path4498-3"
       d="M -14.559718,9.9513575 V 6.7835856 l 0.277176,2.12e-4 c 0.432434,3.16e-4 1.230778,0.146825 1.754026,0.321857 2.214915,0.740919 3.8805151,2.6606169 4.2759691,4.9282964 0.04466,0.256001 0.08117,0.604892 0.08117,0.775317 v 0.309861 h -3.1941711 -3.194165 z"
       style="fill:#cceaff;fill-opacity:1;stroke-width:1" />
  </g>
</svg>
