<?xml version="1.0" encoding="UTF-8" standalone="no"?>
<svg
   xmlns:dc="http://purl.org/dc/elements/1.1/"
   xmlns:cc="http://creativecommons.org/ns#"
   xmlns:rdf="http://www.w3.org/1999/02/22-rdf-syntax-ns#"
   xmlns:svg="http://www.w3.org/2000/svg"
   xmlns="http://www.w3.org/2000/svg"
   xmlns:sodipodi="http://sodipodi.sourceforge.net/DTD/sodipodi-0.dtd"
   xmlns:inkscape="http://www.inkscape.org/namespaces/inkscape"
   height="32"
   width="32"
   version="1"
   id="svg12"
   sodipodi:docname="calligrakexi.svg"
   inkscape:version="0.92.1 r">
  <metadata
     id="metadata18">
    <rdf:RDF>
      <cc:Work
         rdf:about="">
        <dc:format>image/svg+xml</dc:format>
        <dc:type
           rdf:resource="http://purl.org/dc/dcmitype/StillImage" />
      </cc:Work>
    </rdf:RDF>
  </metadata>
  <defs
     id="defs16" />
  <sodipodi:namedview
     pagecolor="#ffffff"
     bordercolor="#666666"
     borderopacity="1"
     objecttolerance="10"
     gridtolerance="10"
     guidetolerance="10"
     inkscape:pageopacity="0"
     inkscape:pageshadow="2"
     inkscape:window-width="640"
     inkscape:window-height="480"
     id="namedview14"
     showgrid="false"
     inkscape:zoom="8.4375"
     inkscape:cx="-6.637037"
     inkscape:cy="16"
     inkscape:current-layer="svg12" />
  <rect
     style="opacity:1;fill:#69c276;fill-opacity:1;fill-rule:evenodd;stroke:none;stroke-width:1.03534329;stroke-linecap:round;stroke-linejoin:bevel;stroke-miterlimit:4;stroke-dasharray:none;stroke-dashoffset:0;stroke-opacity:1"
     id="rect4497"
     width="28.203388"
     height="28.203388"
     x="1.8983059"
     y="1.8983059"
     ry="5.575182" />
  <path
     d="m 15.999928,8.578773 c -2.594557,0 -4.811199,0.853666 -5.729574,2.061766 -0.07709,0.101425 -0.145463,0.204717 -0.203641,0.310867 -0.0553,0.10088 -0.1025625,0.203022 -0.1397855,0.307651 a 6.1851745,3.298801 0 0 0 -0.02589,0.09665 c -0.0212,0.07091 -0.04436,0.141888 -0.05695,0.21423 a 6.1851745,3.298801 0 0 0 -0.02933,0.307651 c 3.4e-4,0.107189 0.01126,0.214242 0.03107,0.320528 a 6.1851745,3.298801 0 0 0 0.08456,0.309258 6.1851745,3.298801 0 0 0 0.1432365,0.307651 6.1851745,3.298801 0 0 0 0.196738,0.299597 6.1851745,3.298801 0 0 0 5.729575,2.061767 6.1851745,3.298801 0 0 0 5.729574,-2.061767 6.1851745,3.298801 0 0 0 0.0019,-0.0032 6.1851745,3.298801 0 0 0 0.167395,-0.254495 c 0.0098,-0.01673 0.02175,-0.03314 0.03106,-0.04993 a 6.1851745,3.298801 0 0 0 0.101821,-0.219054 c 0.01442,-0.03451 0.03255,-0.06835 0.04488,-0.103082 a 6.1851745,3.298801 0 0 0 0.05005,-0.183625 c 0.01187,-0.04837 0.0249,-0.09632 0.03279,-0.144969 a 6.1851745,3.298801 0 0 0 0.02584,-0.278654 6.1851745,3.298801 0 0 0 -0.03279,-0.328581 c -0.0569,-0.321629 -0.20411,-0.62594 -0.420591,-0.910458 C 20.812749,9.429991 18.595982,8.576437 16.00192,8.576437 Z m -5.729574,6.185175 a 6.1851745,3.298801 0 0 0 -0.4556005,1.237035 6.1851745,3.298801 0 0 0 6.1851745,3.298801 6.1851745,3.298801 0 0 0 6.185175,-3.299173 6.1851745,3.298801 0 0 0 -0.455229,-1.237034 6.1851745,3.298801 0 0 1 -5.729946,2.062137 6.1851745,3.298801 0 0 1 -5.729945,-2.062137 z m 0,4.123408 a 6.1851745,3.298801 0 0 0 -0.4556005,1.237035 6.1851745,3.298801 0 0 0 6.1851745,3.299172 6.1851745,3.298801 0 0 0 6.185175,-3.298801 6.1851745,3.298801 0 0 0 -0.4556,-1.237035 6.1851745,3.298801 0 0 1 -5.729946,2.062137 6.1851745,3.298801 0 0 1 -5.729945,-2.062137 z"
     id="path10"
     inkscape:connector-curvature="0"
     style="fill:#ffffff;stroke-width:1" />
</svg>
