<?xml version="1.0" encoding="UTF-8" standalone="no"?>
<svg
   xmlns:dc="http://purl.org/dc/elements/1.1/"
   xmlns:cc="http://creativecommons.org/ns#"
   xmlns:rdf="http://www.w3.org/1999/02/22-rdf-syntax-ns#"
   xmlns:svg="http://www.w3.org/2000/svg"
   xmlns="http://www.w3.org/2000/svg"
   xmlns:sodipodi="http://sodipodi.sourceforge.net/DTD/sodipodi-0.dtd"
   xmlns:inkscape="http://www.inkscape.org/namespaces/inkscape"
   height="32"
   width="32"
   version="1"
   id="svg22"
   sodipodi:docname="keybase.svg"
   inkscape:version="0.92.1 r">
  <metadata
     id="metadata28">
    <rdf:RDF>
      <cc:Work
         rdf:about="">
        <dc:format>image/svg+xml</dc:format>
        <dc:type
           rdf:resource="http://purl.org/dc/dcmitype/StillImage" />
      </cc:Work>
    </rdf:RDF>
  </metadata>
  <defs
     id="defs26" />
  <sodipodi:namedview
     pagecolor="#ffffff"
     bordercolor="#666666"
     borderopacity="1"
     objecttolerance="10"
     gridtolerance="10"
     guidetolerance="10"
     inkscape:pageopacity="0"
     inkscape:pageshadow="2"
     inkscape:window-width="640"
     inkscape:window-height="480"
     id="namedview24"
     showgrid="false"
     inkscape:zoom="6.3197669"
     inkscape:cx="-32.134305"
     inkscape:cy="45.217336"
     inkscape:current-layer="svg22" />
  <rect
     style="opacity:1;fill:#2d96d0;fill-opacity:1;fill-rule:evenodd;stroke:none;stroke-width:1.03534329;stroke-linecap:round;stroke-linejoin:bevel;stroke-miterlimit:4;stroke-dasharray:none;stroke-dashoffset:0;stroke-opacity:1"
     id="rect4497-3"
     width="28.203388"
     height="28.203388"
     x="1.8983059"
     y="1.8983059"
     ry="5.575182"
     inkscape:export-filename="/home/ramil/3.png"
     inkscape:export-xdpi="71"
     inkscape:export-ydpi="71" />
  <g
     id="g4516"
     transform="translate(0.5,2.1156551)">
    <path
       id="path6"
       d="M 15.5,11 A 10.499897,10.499897 0 0 0 5,21.5 10.499897,10.499897 0 0 0 7.2832031,28 H 23.71875 A 10.499897,10.499897 0 0 0 26,21.5 10.499897,10.499897 0 0 0 15.5,11 Z"
       style="fill:#f4deb9"
       inkscape:connector-curvature="0" />
    <path
       id="path10"
       d="m 15.500103,11.000172 c -3.732199,0 -7.0068013,1.949594 -8.8688577,4.883546 -0.2715904,0.355137 -0.5110202,0.725698 -0.6849545,1.12245 -0.2733178,0.623452 -0.4764174,1.268909 -0.6302672,1.965997 -0.1023721,0.413635 -0.1889223,0.833289 -0.2406227,1.264634 -0.0046,0.0384 0.00713,0.04646 0.025976,0.04101 -0.019733,0.166146 -0.044806,0.323649 -0.060155,0.497652 -0.049209,0.557821 -0.053954,0.786124 -0.016407,0.786125 L 11,14.500138 9.9480102,20.400986 c 0.0091,0.0091 0.2070838,-0.07175 0.4402298,-0.179101 1.43244,-0.65955 2.722927,-0.952851 4.30113,-1.141201 0.54426,-0.06495 2.432183,-0.07313 2.99958,-0.01367 1.149379,0.120433 2.198476,0.384298 3.489027,0.739299 0.571839,0.157298 0.852345,0.194729 1.320691,0.177733 0.46869,-0.01701 0.744787,-0.07961 1.091005,-0.246092 0.863936,-0.41544 1.316871,-1.767844 1.190808,-2.741358 -0.01188,-0.09176 -0.03608,-0.178916 -0.05468,-0.267965 0.03702,-0.09169 0.0013,-0.246252 -0.14492,-0.501753 -0.143837,-0.382199 -0.355627,-0.76495 -0.675388,-1.197644 -2.16441,-2.378407 -4.991288,-4.075277 -8.40539,-4.029062 z"
       style="fill:#ff8e49"
       inkscape:connector-curvature="0" />
    <circle
       id="circle12"
       cy="22.5"
       cx="11.5"
       style="fill:#252524"
       r="1.5" />
    <circle
       id="circle14"
       style="fill:#252524"
       r="1.5"
       cy="22.5"
       cx="20.5" />
    <path
       id="path18"
       d="m 13.337413,5 c -0.04614,0 -0.347511,0.5093951 -0.634277,1.071902 -0.4198,0.8234639 -0.619794,1.457217 -0.688476,2.1887696 -0.01697,0.1807744 -0.0143,0.3577978 -0.0029,0.5323251 C 12.00466,8.8716207 12.00074,8.9504922 12,9.0294241 12,10.670028 13.343146,12 15,12 16.656854,12 18,10.670028 18,9.0294241 17.999975,8.9539161 17.9971,8.8784364 17.9912,8.8031493 17.9938,8.7278883 18.001,8.6523815 17.9971,8.5783257 17.944149,7.5611834 17.350339,6.8637738 16.453136,6.4049318 15.978129,6.1620063 15.251479,6.0479025 14.777355,6.0469655 14.185862,6.0457996 13.736363,5.5364409 13.447277,5.1203894 13.401002,5.0537891 13.351202,4.9999997 13.337413,5 Z"
       style="fill:#ff8e49"
       inkscape:connector-curvature="0" />
  </g>
</svg>
