<?xml version="1.0" encoding="UTF-8" standalone="no"?>
<svg
   xmlns:dc="http://purl.org/dc/elements/1.1/"
   xmlns:cc="http://creativecommons.org/ns#"
   xmlns:rdf="http://www.w3.org/1999/02/22-rdf-syntax-ns#"
   xmlns:svg="http://www.w3.org/2000/svg"
   xmlns="http://www.w3.org/2000/svg"
   xmlns:sodipodi="http://sodipodi.sourceforge.net/DTD/sodipodi-0.dtd"
   xmlns:inkscape="http://www.inkscape.org/namespaces/inkscape"
   height="32"
   width="32"
   version="1.1"
   viewBox="0 0 32 32"
   id="svg20"
   sodipodi:docname="keyring.svg"
   inkscape:version="0.92.1 r">
  <metadata
     id="metadata26">
    <rdf:RDF>
      <cc:Work
         rdf:about="">
        <dc:format>image/svg+xml</dc:format>
        <dc:type
           rdf:resource="http://purl.org/dc/dcmitype/StillImage" />
        <dc:title></dc:title>
      </cc:Work>
    </rdf:RDF>
  </metadata>
  <defs
     id="defs24" />
  <sodipodi:namedview
     pagecolor="#ffffff"
     bordercolor="#666666"
     borderopacity="1"
     objecttolerance="10"
     gridtolerance="10"
     guidetolerance="10"
     inkscape:pageopacity="0"
     inkscape:pageshadow="2"
     inkscape:window-width="1680"
     inkscape:window-height="955"
     id="namedview22"
     showgrid="false"
     inkscape:zoom="14.75"
     inkscape:cx="17.919027"
     inkscape:cy="23.442538"
     inkscape:window-x="0"
     inkscape:window-y="0"
     inkscape:window-maximized="1"
     inkscape:current-layer="svg20" />
  <rect
     style="opacity:1;fill:#dea71e;fill-opacity:1;fill-rule:evenodd;stroke:none;stroke-width:1.03534329;stroke-linecap:round;stroke-linejoin:bevel;stroke-miterlimit:4;stroke-dasharray:none;stroke-dashoffset:0;stroke-opacity:1"
     id="rect4497-3"
     width="28.203388"
     height="28.203388"
     x="1.8983059"
     y="1.8983059"
     ry="5.575182" />
  <path
     style="fill:#ffffff;stroke-width:0.99999994"
     d="m 18.383161,26.051601 c 0,-0.0063 0.117037,-0.318447 0.260077,-0.693629 l 0.26008,-0.682149 -0.04314,-0.09055 c -0.02372,-0.0498 -0.261586,-0.485757 -0.52857,-0.968789 -0.536084,-0.969881 -1.570014,-2.845819 -2.371635,-4.303032 -0.285932,-0.519778 -0.526496,-0.962299 -0.534588,-0.983382 -0.01014,-0.02642 0.02417,-0.05949 0.110411,-0.106432 0.155755,-0.08477 0.219101,-0.153208 0.219101,-0.236706 0,-0.03562 -0.09307,-0.23305 -0.206813,-0.438737 l -0.206813,-0.373976 0.150002,-0.204365 c 0.951745,-1.29666 1.102408,-3.05757 0.385649,-4.507369 -0.66398,-1.343038 -1.924932,-2.23112 -3.434126,-2.418636 -0.761068,-0.09456 -1.712351,0.06419 -2.369953,0.39551 l -0.1607554,0.08099 0.0882,0.202878 c 0.175025,0.402605 0.333797,0.603695 0.695198,0.880508 0.178599,0.136796 0.190369,0.141713 0.275629,0.115183 0.04899,-0.01524 0.205301,-0.0281 0.347372,-0.02857 0.44583,-0.0015 0.81619,0.160277 1.130889,0.493875 0.476648,0.505271 0.56046,1.253595 0.208238,1.859267 -0.181266,0.311697 -0.594439,0.617353 -0.964585,0.713578 -0.230803,0.06 -0.671195,0.0411 -0.896911,-0.0385 -0.321773,-0.113466 -0.655301,-0.385049 -0.8104164,-0.659894 -0.07267,-0.128772 -0.08622,-0.138852 -0.275892,-0.205328 C 9.1167635,13.645499 8.5936765,13.179143 8.205892,12.512534 L 8.089655,12.312718 7.993225,12.51433 c -0.314933,0.658415 -0.474718,1.533897 -0.40874,2.239505 0.181914,1.945486 1.5166895,3.476966 3.411122,3.913813 0.358295,0.08262 0.698643,0.113387 1.108728,0.100224 l 0.381415,-0.01224 0.211291,0.38082 c 0.116209,0.209451 0.229394,0.387767 0.25152,0.396258 0.07784,0.02987 0.168147,0.01479 0.29431,-0.04914 0.07009,-0.03552 0.137185,-0.06458 0.149097,-0.06458 0.02385,0 0.07756,0.09366 0.607474,1.059056 0.198855,0.362275 0.373336,0.666306 0.387735,0.675625 0.01438,0.0093 0.180948,0.02523 0.37011,0.03536 0.189162,0.01013 0.3604,0.03157 0.380529,0.04763 0.02013,0.01606 0.0956,0.13992 0.167717,0.275231 l 0.131116,0.246019 -0.210652,0.279551 -0.210655,0.279551 0.119781,0.223518 0.119778,0.223519 0.13699,0.01672 c 0.07535,0.0092 0.250277,0.02481 0.388736,0.03469 l 0.251741,0.01797 0.144408,0.25729 c 0.0801,0.142724 0.137791,0.274526 0.129552,0.295999 -0.0082,0.02129 -0.101993,0.151852 -0.208492,0.290136 l -0.193633,0.251425 0.0834,0.159032 0.0834,0.159032 0.374707,0.0695 c 0.206087,0.03823 0.38917,0.0771 0.40685,0.08638 0.02253,0.01183 -0.02176,0.105378 -0.148237,0.312984 -0.09921,0.162858 -0.180512,0.306614 -0.180672,0.319458 -1.54e-4,0.01284 0.0874,0.182698 0.194587,0.377454 l 0.194878,0.354103 0.676906,0.134577 c 0.3723,0.07402 0.70306,0.140804 0.735027,0.148416 0.03197,0.0076 0.05812,0.0087 0.05812,0.0023 z m 6.042762,-4.211336 -0.0043,-0.704249 -1.217545,-1.319311 c -0.669652,-0.725621 -1.699935,-1.840871 -2.289521,-2.478333 -1.600578,-1.730557 -1.897748,-2.054568 -1.90668,-2.078896 -0.0045,-0.01218 0.03987,-0.06551 0.09854,-0.118512 0.21095,-0.19058 0.2276,-0.30449 0.07004,-0.479147 -0.05983,-0.06633 -0.176011,-0.195918 -0.258173,-0.287982 l -0.149389,-0.167388 0.347204,-0.938974 c 0.19096,-0.516436 0.407424,-1.101707 0.481026,-1.300603 0.11974,-0.323558 0.132585,-0.378025 0.122041,-0.517372 -0.01935,-0.255679 -0.07597,-0.33169 -0.554467,-0.744331 -1.592126,-1.3729985 -2.720666,-2.3270905 -2.809247,-2.3749998 -0.145788,-0.07885 -0.447943,-0.07896 -0.594106,-2.32e-4 -0.08682,0.04677 -1.080629,0.9417273 -1.455833,1.3110199 l -0.11264,0.110866 0.241794,0.135884 c 1.078569,0.6061369 1.874592,1.5176219 2.31717,2.6532829 0.220802,0.566577 0.314471,1.045937 0.331981,1.698965 0.02455,0.916074 -0.142812,1.683913 -0.539907,2.476815 l -0.127899,0.255381 0.124705,0.127639 c 0.1147,0.1174 0.132547,0.126628 0.222512,0.115037 0.06831,-0.0088 0.141512,-0.04994 0.242725,-0.136407 l 0.144914,-0.123806 0.105989,0.119206 c 0.121665,0.136837 1.416163,1.539764 1.684492,1.825587 l 0.179076,0.190753 0.242015,-0.223041 c 0.133105,-0.12266 0.264153,-0.223028 0.291209,-0.223028 0.05419,0 0.434413,0.384857 0.468007,0.473714 0.01769,0.04675 -0.01656,0.0907 -0.230139,0.295448 l -0.250906,0.240527 0.08881,0.09572 c 0.04885,0.05264 0.16348,0.177084 0.254742,0.276532 0.09126,0.09945 0.234485,0.253673 0.318277,0.342723 l 0.152352,0.161908 0.231211,-0.220027 c 0.156142,-0.148591 0.25099,-0.220027 0.292127,-0.220027 0.07113,0 0.478869,0.418071 0.478869,0.491001 0,0.04012 -0.23357,0.285206 -0.424292,0.445217 l -0.07558,0.06341 0.20473,0.211205 0.20473,0.211206 0.232475,-0.2193 c 0.217999,-0.205642 0.294907,-0.248237 0.363655,-0.201404 0.0863,0.05879 0.398421,0.435687 0.398822,0.48159 3.09e-4,0.03519 -0.08263,0.131347 -0.238112,0.27605 l -0.238583,0.222049 0.07338,0.08792 c 0.04036,0.04836 0.124436,0.142822 0.186842,0.209925 l 0.113461,0.122007 0.871393,0.0264 c 0.479267,0.01452 0.967894,0.02645 1.085839,0.02652 l 0.214446,1.29e-4 -0.0043,-0.70425 z M 12.038649,13.808449 c 0.138514,-0.236354 0.199757,-0.566199 0.152486,-0.821269 l -0.02154,-0.116238 -0.231824,-0.01672 C 11.174758,12.799192 10.537127,12.509301 10.011645,11.978526 9.4684636,11.429879 9.1821306,10.728347 9.1792635,9.9391631 9.1766635,9.1919765 9.4167756,8.5474025 9.9024046,7.9988442 c 0.4187104,-0.472971 0.8930284,-0.761062 1.5182684,-0.922169 0.227237,-0.05855 0.310738,-0.06676 0.67273,-0.06613 0.659647,0.0012 1.139232,0.145278 1.669539,0.501768 0.214837,0.14442 0.629015,0.56116 0.768935,0.773694 0.0608,0.09234 0.120391,0.1678993 0.132435,0.1678993 0.03027,0 0.759601,-0.6597933 0.768148,-0.6948993 0.01053,-0.04321 -0.260657,-0.391202 -0.481568,-0.617983 -1.218097,-1.250458 -3.124643,-1.556147 -4.67855,-0.75014 -0.7641564,0.396367 -1.4158105,1.069695 -1.771115,1.83002 -0.754686,1.6149889 -0.372055,3.5035698 0.9487226,4.6826668 0.6364204,0.56815 1.4681954,0.926058 2.3247714,1.000336 l 0.197931,0.01716 z"
     id="path4515"
     inkscape:connector-curvature="0" />
</svg>
