<?xml version="1.0" encoding="UTF-8" standalone="no"?>
<svg
   xmlns:dc="http://purl.org/dc/elements/1.1/"
   xmlns:cc="http://creativecommons.org/ns#"
   xmlns:rdf="http://www.w3.org/1999/02/22-rdf-syntax-ns#"
   xmlns:svg="http://www.w3.org/2000/svg"
   xmlns="http://www.w3.org/2000/svg"
   xmlns:sodipodi="http://sodipodi.sourceforge.net/DTD/sodipodi-0.dtd"
   xmlns:inkscape="http://www.inkscape.org/namespaces/inkscape"
   width="32"
   height="32"
   version="1"
   id="svg12"
   sodipodi:docname="kmidimon.svg"
   inkscape:version="0.92.2 2405546, 2018-03-11">
  <metadata
     id="metadata18">
    <rdf:RDF>
      <cc:Work
         rdf:about="">
        <dc:format>image/svg+xml</dc:format>
        <dc:type
           rdf:resource="http://purl.org/dc/dcmitype/StillImage" />
        <dc:title></dc:title>
      </cc:Work>
    </rdf:RDF>
  </metadata>
  <defs
     id="defs16" />
  <sodipodi:namedview
     pagecolor="#ffffff"
     bordercolor="#666666"
     borderopacity="1"
     objecttolerance="10"
     gridtolerance="10"
     guidetolerance="10"
     inkscape:pageopacity="0"
     inkscape:pageshadow="2"
     inkscape:window-width="1680"
     inkscape:window-height="972"
     id="namedview14"
     showgrid="false"
     inkscape:zoom="7.375"
     inkscape:cx="18.42096"
     inkscape:cy="18.486384"
     inkscape:window-x="1280"
     inkscape:window-y="0"
     inkscape:window-maximized="1"
     inkscape:current-layer="svg12"
     showguides="true"
     inkscape:guide-bbox="true">
    <sodipodi:guide
       position="28.284271,15.963834"
       orientation="0,1"
       id="guide940"
       inkscape:locked="false" />
    <sodipodi:guide
       position="16.011774,29.962152"
       orientation="1,0"
       id="guide942"
       inkscape:locked="false" />
  </sodipodi:namedview>
  <rect
     style="opacity:1;fill:#e6e6e6;fill-opacity:1;fill-rule:evenodd;stroke:none;stroke-width:1.03534329;stroke-linecap:round;stroke-linejoin:bevel;stroke-miterlimit:4;stroke-dasharray:none;stroke-dashoffset:0;stroke-opacity:1"
     id="rect4497-6"
     width="28.203388"
     height="28.203388"
     x="1.8983059"
     y="1.8983059"
     ry="5.575182" />
  <circle
     style="fill:#1a1a1a;fill-opacity:1;stroke:none;stroke-width:1.09803927;stroke-opacity:1"
     id="path886-3"
     cx="-15.999999"
     cy="-16"
     r="9.4915257"
     transform="scale(-1)" />
  <circle
     style="fill:#808080;fill-opacity:1;stroke:none;stroke-opacity:1"
     id="path886"
     cx="-15.999999"
     cy="-16"
     r="8.6440678"
     transform="scale(-1)" />
  <path
     style="fill:#1a1a1a;fill-opacity:1;stroke:none;stroke-width:0.93227321;stroke-opacity:1"
     d="m 10.392914,16.99925 a 0.96089213,0.96089213 0 0 0 0.910781,-0.654925 h 0.728947 V 15.731237 H 11.302086 A 0.96089213,0.96089213 0 0 0 10.392914,15.07792 0.96089213,0.96089213 0 0 0 9.4837423,15.731237 H 8.7531858 v 0.613088 h 0.7305565 a 0.96089213,0.96089213 0 0 0 0.9091717,0.654925 z"
     id="path864"
     inkscape:connector-curvature="0"
     inkscape:transform-center-x="5.6240333"
     inkscape:transform-center-y="0.043070928" />
  <rect
     style="fill:#1a1a1a;fill-opacity:1;stroke:none;stroke-opacity:1"
     id="rect903"
     width="2.7457628"
     height="1.3559322"
     x="-17.457626"
     y="-24.711864"
     transform="scale(-1)" />
  <path
     inkscape:transform-center-y="-3.9469051"
     inkscape:transform-center-x="4.0066792"
     inkscape:connector-curvature="0"
     id="path944"
     d="m 11.330407,12.728471 a 0.96089213,0.96089213 0 0 0 1.107121,0.180917 l 0.515443,0.515443 0.433519,-0.433518 -0.516581,-0.516581 a 0.96089213,0.96089213 0 0 0 -0.180917,-1.104847 0.96089213,0.96089213 0 0 0 -1.104846,-0.180917 l -0.516582,-0.516581 -0.433518,0.433519 0.516581,0.516581 a 0.96089213,0.96089213 0 0 0 0.17978,1.105984 z"
     style="fill:#1a1a1a;fill-opacity:1;stroke:none;stroke-width:0.93227321;stroke-opacity:1" />
  <path
     style="fill:#1a1a1a;fill-opacity:1;stroke:none;stroke-width:0.93227321;stroke-opacity:1"
     d="m 15.049166,10.371481 a 0.96089213,0.96089213 0 0 0 0.654925,0.910781 v 0.728946 l 0.613088,10e-7 V 11.280653 A 0.96089213,0.96089213 0 0 0 16.970496,10.371481 0.96089213,0.96089213 0 0 0 16.31718,9.462309 l -1e-6,-0.7305566 -0.613088,7e-7 V 9.462309 a 0.96089213,0.96089213 0 0 0 -0.654925,0.909172 z"
     id="path946"
     inkscape:connector-curvature="0"
     inkscape:transform-center-x="0.0430712"
     inkscape:transform-center-y="-5.6240334" />
  <path
     inkscape:transform-center-y="-4.0066791"
     inkscape:transform-center-x="-3.9469048"
     inkscape:connector-curvature="0"
     id="path948"
     d="m 19.28399,11.308973 a 0.96089213,0.96089213 0 0 0 -0.180917,1.107122 l -0.515443,0.515442 0.433518,0.43352 0.516581,-0.516581 a 0.96089213,0.96089213 0 0 0 1.104847,-0.180917 0.96089213,0.96089213 0 0 0 0.180917,-1.104846 l 0.516581,-0.516582 -0.433519,-0.433518 -0.516581,0.516581 a 0.96089213,0.96089213 0 0 0 -1.105984,0.179779 z"
     style="fill:#1a1a1a;fill-opacity:1;stroke:none;stroke-width:0.93227321;stroke-opacity:1" />
  <path
     style="fill:#1a1a1a;fill-opacity:1;stroke:none;stroke-width:0.93227321;stroke-opacity:1"
     d="m 21.64098,15.075671 a 0.96089213,0.96089213 0 0 0 -0.910781,0.654926 l -0.728946,-10e-7 -10e-7,0.613089 h 0.730556 a 0.96089213,0.96089213 0 0 0 0.909172,0.653317 0.96089213,0.96089213 0 0 0 0.909172,-0.653316 l 0.730557,-1e-6 -1e-6,-0.613088 H 22.550152 A 0.96089213,0.96089213 0 0 0 21.64098,15.075671 Z"
     id="path950"
     inkscape:connector-curvature="0"
     inkscape:transform-center-x="-5.6240333"
     inkscape:transform-center-y="-0.0430716" />
</svg>
