<?xml version="1.0" encoding="UTF-8" standalone="no"?>
<svg
   xmlns:dc="http://purl.org/dc/elements/1.1/"
   xmlns:cc="http://creativecommons.org/ns#"
   xmlns:rdf="http://www.w3.org/1999/02/22-rdf-syntax-ns#"
   xmlns:svg="http://www.w3.org/2000/svg"
   xmlns="http://www.w3.org/2000/svg"
   xmlns:sodipodi="http://sodipodi.sourceforge.net/DTD/sodipodi-0.dtd"
   xmlns:inkscape="http://www.inkscape.org/namespaces/inkscape"
   height="32"
   width="32"
   version="1"
   id="svg8"
   sodipodi:docname="gnome-mines.svg"
   inkscape:version="0.92.1 r">
  <metadata
     id="metadata14">
    <rdf:RDF>
      <cc:Work
         rdf:about="">
        <dc:format>image/svg+xml</dc:format>
        <dc:type
           rdf:resource="http://purl.org/dc/dcmitype/StillImage" />
      </cc:Work>
    </rdf:RDF>
  </metadata>
  <defs
     id="defs12" />
  <sodipodi:namedview
     pagecolor="#ffffff"
     bordercolor="#666666"
     borderopacity="1"
     objecttolerance="10"
     gridtolerance="10"
     guidetolerance="10"
     inkscape:pageopacity="0"
     inkscape:pageshadow="2"
     inkscape:window-width="1680"
     inkscape:window-height="963"
     id="namedview10"
     showgrid="false"
     inkscape:zoom="7.375"
     inkscape:cx="-8.6779661"
     inkscape:cy="16"
     inkscape:window-x="0"
     inkscape:window-y="0"
     inkscape:window-maximized="1"
     inkscape:current-layer="svg8" />
  <rect
     style="opacity:1;fill:#4f4f4f;fill-opacity:1;fill-rule:evenodd;stroke:none;stroke-width:1.03534329;stroke-linecap:round;stroke-linejoin:bevel;stroke-miterlimit:4;stroke-dasharray:none;stroke-dashoffset:0;stroke-opacity:1"
     id="rect4497-3"
     width="28.203388"
     height="28.203388"
     x="1.8983059"
     y="1.8983059"
     ry="5.575182" />
  <path
     style="fill:#b3b3b3;stroke-width:0.70518649;enable-background:new"
     d="m 14.018347,5.9326144 c -0.205245,0.023228 -0.386033,0.197871 -0.423547,0.4090029 l -0.40841,2.1551145 c -0.733202,0.298198 -1.422287,0.7079061 -2.026939,1.2113171 l -2.0115887,-0.70792 c -0.209111,-0.074934 -0.462617,0.02215 -0.574917,0.220272 l -1.936215,3.4922811 c -0.109064,0.200855 -0.0623,0.478824 0.105884,0.629239 l 1.603393,1.462943 c -0.05643,0.392269 -0.09076,0.786954 -0.09076,1.195568 0,0.408629 0.0343,0.803278 0.09076,1.195568 l -1.603393,1.463016 c -0.168167,0.150415 -0.214948,0.428383 -0.105884,0.629239 l 1.936215,3.49228 c 0.112293,0.198051 0.365799,0.295178 0.574807,0.220229 l 2.0117947,-0.707891 c 0.604659,0.503376 1.293737,0.91309 2.02694,1.211317 l 0.40841,2.155115 c 0.04142,0.225594 0.248105,0.405874 0.468924,0.409003 h 3.872359 c 0.220818,-0.0029 0.427516,-0.183409 0.468917,-0.409003 l 0.408416,-2.155115 c 0.733203,-0.298198 1.422288,-0.707913 2.02694,-1.211317 l 2.011796,0.707891 c 0.209001,0.07495 0.462513,-0.02215 0.574807,-0.220229 l 1.936214,-3.49228 c 0.109057,-0.200856 0.06231,-0.478824 -0.105883,-0.629239 L 23.653994,17.196 c 0.05643,-0.392268 0.09075,-0.786881 0.09075,-1.195568 0,-0.408629 -0.03437,-0.803278 -0.09075,-1.195568 l 1.603393,-1.462943 c 0.168167,-0.150415 0.21494,-0.428384 0.105883,-0.629239 L 23.427056,9.2204009 c -0.112024,-0.198338 -0.365806,-0.295494 -0.574641,-0.22056 l -2.011796,0.707891 C 20.235552,9.2039759 19.546813,8.7942825 18.813818,8.4960558 l -0.40868,-2.1551145 c -0.04149,-0.2255938 -0.24825,-0.4058818 -0.46884,-0.4089741 h -3.87236 c -0.01514,-3.668e-4 -0.03029,-3.668e-4 -0.04536,0 z"
     id="path2"
     inkscape:connector-curvature="0" />
</svg>
