<?xml version="1.0" encoding="UTF-8" standalone="no"?>
<svg
   xmlns:dc="http://purl.org/dc/elements/1.1/"
   xmlns:cc="http://creativecommons.org/ns#"
   xmlns:rdf="http://www.w3.org/1999/02/22-rdf-syntax-ns#"
   xmlns:svg="http://www.w3.org/2000/svg"
   xmlns="http://www.w3.org/2000/svg"
   xmlns:sodipodi="http://sodipodi.sourceforge.net/DTD/sodipodi-0.dtd"
   xmlns:inkscape="http://www.inkscape.org/namespaces/inkscape"
   height="32"
   width="32"
   version="1"
   id="svg16"
   sodipodi:docname="kmymoney.svg"
   inkscape:version="0.92.1 r">
  <metadata
     id="metadata22">
    <rdf:RDF>
      <cc:Work
         rdf:about="">
        <dc:format>image/svg+xml</dc:format>
        <dc:type
           rdf:resource="http://purl.org/dc/dcmitype/StillImage" />
      </cc:Work>
    </rdf:RDF>
  </metadata>
  <defs
     id="defs20" />
  <sodipodi:namedview
     pagecolor="#ffffff"
     bordercolor="#666666"
     borderopacity="1"
     objecttolerance="10"
     gridtolerance="10"
     guidetolerance="10"
     inkscape:pageopacity="0"
     inkscape:pageshadow="2"
     inkscape:window-width="640"
     inkscape:window-height="480"
     id="namedview18"
     showgrid="false"
     inkscape:zoom="8.8125"
     inkscape:cx="-5.5602837"
     inkscape:cy="16"
     inkscape:current-layer="svg16" />
  <rect
     style="opacity:1;fill:#ffc947;fill-opacity:1;fill-rule:evenodd;stroke:none;stroke-width:1.03534329;stroke-linecap:round;stroke-linejoin:bevel;stroke-miterlimit:4;stroke-dasharray:none;stroke-dashoffset:0;stroke-opacity:1"
     id="rect4497-3"
     width="28.203388"
     height="28.203388"
     x="1.8983059"
     y="1.8983059"
     ry="5.575182" />
  <path
     style="fill:#b38d32;stroke-width:1"
     d="m 16,5.7021275 c 5.736521,0 10.297872,4.5613525 10.297872,10.2978735 0,5.736521 -4.561351,10.297872 -10.297872,10.297872 -5.736521,0 -10.297872,-4.561351 -10.297872,-10.297872 C 5.702128,10.26348 10.263479,5.7021275 16,5.7021275 Z"
     id="path8"
     inkscape:connector-curvature="0" />
  <path
     style="fill:#ffc947;stroke-width:1"
     d="m 13.831939,9.1346232 c -0.713128,0 -1.287234,0.510877 -1.287234,1.1447658 v 11.440964 c 0,0.633889 0.574106,1.144766 1.287234,1.144766 0.713128,0 1.287234,-0.510877 1.287234,-1.144766 v -2.80074 l 1.966049,3.405807 c 0.316945,0.548964 1.070231,0.705189 1.687818,0.348626 0.617584,-0.356564 0.859997,-1.086894 0.543052,-1.63586 l -2.904657,-5.031611 2.904657,-5.029934 c 0.316945,-0.548965 0.07453,-1.2776198 -0.543052,-1.6341838 -0.231595,-0.133711 -0.482963,-0.195019 -0.722392,-0.191074 -0.39905,0.0066 -0.767336,0.194921 -0.965426,0.538024 l -1.966049,3.4058068 v -2.815825 c 0,-0.6338888 -0.574106,-1.1447658 -1.287234,-1.1447658 z"
     id="path12"
     inkscape:connector-curvature="0" />
</svg>
