<?xml version="1.0" encoding="UTF-8" standalone="no"?>
<svg
   xmlns:dc="http://purl.org/dc/elements/1.1/"
   xmlns:cc="http://creativecommons.org/ns#"
   xmlns:rdf="http://www.w3.org/1999/02/22-rdf-syntax-ns#"
   xmlns:svg="http://www.w3.org/2000/svg"
   xmlns="http://www.w3.org/2000/svg"
   xmlns:sodipodi="http://sodipodi.sourceforge.net/DTD/sodipodi-0.dtd"
   xmlns:inkscape="http://www.inkscape.org/namespaces/inkscape"
   width="32"
   height="32"
   version="1"
   id="svg12"
   sodipodi:docname="mate-netspeed-applet.svg"
   inkscape:version="0.92.2 2405546, 2018-03-11">
  <metadata
     id="metadata18">
    <rdf:RDF>
      <cc:Work
         rdf:about="">
        <dc:format>image/svg+xml</dc:format>
        <dc:type
           rdf:resource="http://purl.org/dc/dcmitype/StillImage" />
      </cc:Work>
    </rdf:RDF>
  </metadata>
  <defs
     id="defs16" />
  <sodipodi:namedview
     pagecolor="#ffffff"
     bordercolor="#666666"
     borderopacity="1"
     objecttolerance="10"
     gridtolerance="10"
     guidetolerance="10"
     inkscape:pageopacity="0"
     inkscape:pageshadow="2"
     inkscape:window-width="1680"
     inkscape:window-height="972"
     id="namedview14"
     showgrid="false"
     inkscape:zoom="5.2149125"
     inkscape:cx="-16.520264"
     inkscape:cy="24.185638"
     inkscape:window-x="0"
     inkscape:window-y="0"
     inkscape:window-maximized="1"
     inkscape:current-layer="svg12" />
  <rect
     style="opacity:1;fill:#5294e2;fill-opacity:1;fill-rule:evenodd;stroke:none;stroke-width:1.03534329;stroke-linecap:round;stroke-linejoin:bevel;stroke-miterlimit:4;stroke-dasharray:none;stroke-dashoffset:0;stroke-opacity:1"
     id="rect4497"
     width="28.203388"
     height="28.203388"
     x="1.8983059"
     y="1.8983059"
     ry="5.575182" />
  <path
     style="fill:#ffffff;stroke-width:0.9616484"
     d="m 16,6.3835153 c -5.311047,0 -9.6164847,4.3054377 -9.6164847,9.6164847 0,5.311047 4.3054377,9.616485 9.6164847,9.616485 5.311047,0 9.616485,-4.305438 9.616485,-9.616485 0,-5.311047 -4.305438,-9.6164847 -9.616485,-9.6164847 z m -0.899667,1.9176624 c 0.104633,-0.010953 0.236263,0.00625 0.341836,0 0.01251,0.050045 -0.07412,0.2295975 -0.193457,0.4902147 -0.759909,1.6600826 -0.804803,3.6038056 -0.09955,4.6429596 0.127626,0.188405 0.244169,0.367369 0.244169,0.39067 0,0.02331 -0.137379,0.04883 -0.293002,0.04883 -0.365331,1e-6 -0.711683,-0.221988 -1.418056,-0.78134 -0.313798,-0.24848 -0.720959,-0.456746 -0.879007,-0.488336 -0.248183,-0.04958 -0.31377,-0.0281 -0.634838,0.293003 -0.298722,0.298672 -0.39067,0.460956 -0.39067,0.734383 0,1.036871 1.231706,1.859005 3.519783,2.344017 3.107303,0.658574 3.871698,1.249137 3.95741,2.883068 0.107612,2.048904 -0.98216,3.593431 -3.371405,4.789461 -0.285173,0.142796 -0.466355,0.199906 -0.586005,0.246046 -0.05303,-0.0047 -0.09552,0.0047 -0.148379,0 -0.02033,-0.06335 -0.04883,-0.209875 -0.04883,-0.488337 0,-1.088235 -0.427999,-2.20971 -1.074342,-2.836112 -0.173497,-0.168166 -0.658336,-0.523818 -1.074341,-0.781339 -0.415991,-0.257506 -0.83619,-0.556046 -0.929719,-0.683672 -0.154961,-0.211787 -0.166044,-0.341258 -0.04696,-0.732505 0.217025,-0.714567 0.474489,-1.11494 0.976674,-1.566435 0.263277,-0.236702 0.52768,-0.432915 0.586005,-0.437627 0.05835,-0.0047 -0.335692,-0.124911 -0.927841,-0.246046 C 12.01769,16.000711 11.14937,15.746993 10.701537,15.58491 9.8826316,15.288602 8.7771523,14.665884 8.3556415,14.215689 c -0.01782,-0.01909 -0.03335,-0.03193 -0.048833,-0.04883 0.6039268,-2.405666 2.2985335,-4.3764707 4.5452925,-5.3266312 0.470106,-0.1988381 0.95532,-0.3348682 1.466889,-0.4395042 0.254815,-0.052083 0.518235,-0.072797 0.781338,-0.099546 z m 7.332569,3.6662843 c 0.183699,0.113551 0.878225,1.615799 1.07622,2.347775 0.255625,0.944984 0.237123,2.579162 0,3.517905 -0.09025,0.357291 -0.207571,0.690905 -0.246047,0.732506 -0.03848,0.0416 -0.179579,-0.195593 -0.343714,-0.486459 -0.164146,-0.290821 -0.685568,-0.90947 -1.121297,-1.369222 -1.257716,-1.327144 -1.456553,-2.019228 -0.929719,-3.078402 0.265686,-0.534107 1.422385,-1.751843 1.564557,-1.664103 z"
     id="path10"
     inkscape:connector-curvature="0" />
  <rect
     style="opacity:1;fill:#5294e2;fill-opacity:1;fill-rule:evenodd;stroke:none;stroke-width:1.03534329;stroke-linecap:round;stroke-linejoin:bevel;stroke-miterlimit:4;stroke-dasharray:none;stroke-dashoffset:0;stroke-opacity:1"
     id="rect4497-3"
     width="28.203388"
     height="28.203388"
     x="51.755325"
     y="1.5147903"
     ry="5.575182" />
  <circle
     style="fill:#ffffff;fill-opacity:1;stroke:none;stroke-width:0.09572299;stroke-linecap:round;stroke-linejoin:round;stroke-miterlimit:4;stroke-dasharray:none;stroke-opacity:1"
     id="path854"
     cx="65.857018"
     cy="15.616485"
     r="11.097377" />
  <path
     style="opacity:1;fill:#6db3de;fill-opacity:1;fill-rule:evenodd;stroke:none;stroke-width:0.98056901;stroke-linecap:round;stroke-linejoin:bevel;stroke-miterlimit:4;stroke-dasharray:none;stroke-dashoffset:0;stroke-opacity:1"
     d="m 65.404744,4.48719 c -0.410776,0.012585 -0.807757,0.070052 -1.206066,0.1239398 l 0.382907,0.3274132 -1.035886,0.5549379 1.318905,0.3126159 0.168331,-0.4439508 h 0.577137 L 65.8117,4.9773881 65.404744,4.8737996 Z m -1.206066,0.1239398 -0.01111,-0.00934 -0.469848,0.059192 c 0.156671,-0.028326 0.322093,-0.028444 0.480947,-0.049951 z M 60.28451,5.8800894 c -0.919885,0.5071816 -1.761522,1.1386031 -2.500926,1.8719929 -0.739403,0.7333894 -1.37759,1.5672882 -1.89234,2.4824267 -0.514752,0.915137 -0.904648,1.910943 -1.150573,2.963372 l 0.03515,0.05365 -0.0962,0.17943 c -0.01748,0.08335 -0.03055,0.167406 -0.04624,0.251572 l 0.429152,0.660378 1.185719,0.294116 v -0.192376 l 0.473549,0.06843 -0.0444,0.340363 0.371809,0.06659 0.575287,0.159083 0.813909,0.932297 1.039586,0.0777 0.09989,0.852757 -0.710322,0.497594 -0.0333,0.763967 -0.101745,0.464297 1.028488,1.296709 0.0777,0.44025 c 0,0 0.372408,0.101734 0.418053,0.101734 0.02462,0 0.237661,0.165983 0.456899,0.329261 l 0.0777,-0.0777 c 0.137822,0.0999 0.294116,0.210878 0.294116,0.210878 v 2.33999 l 0.283019,0.07954 -0.192378,1.076582 0.473549,0.636332 -0.08694,1.069181 0.0093,0.01851 c 0.589168,0.232268 1.197619,0.424871 1.831298,0.556787 l 0.02405,-0.06843 0.02405,-0.310764 -0.403255,-0.01295 -0.203478,-0.253423 0.334814,-0.323714 0.04623,-0.244173 -0.373659,-0.107276 0.0222,-0.225674 0.530892,-0.0814 0.808359,-0.390307 0.270072,-0.499446 0.847205,-1.089532 -0.192377,-0.852753 0.258971,-0.4532 0.778764,0.02405 0.525341,-0.418055 0.170182,-1.646319 0.580836,-0.741768 0.101733,-0.477246 -0.530892,-0.170183 -0.349612,-0.577135 -1.196817,-0.01295 -0.948945,-0.364411 -0.0259,-0.399556 -0.0093,-0.140586 -0.316316,-0.554938 -0.860156,-0.01294 -0.495744,-0.784314 -0.440251,-0.214577 -0.02405,0.236774 -0.800963,0.04809 -0.294117,-0.410656 -0.834258,-0.170181 -0.689973,0.79911 -1.083981,-0.183129 -0.07954,-1.228266 -0.791712,-0.136884 0.318164,-0.603033 -0.09064,-0.347763 -1.039586,0.701074 -0.654827,-0.0814 -0.233075,-0.512392 0.142435,-0.530891 0.36071,-0.665929 0.832409,-0.423604 h 1.601922 l -0.0037,0.490197 0.575287,0.27007 -0.04624,-0.839806 0.416205,-0.421756 0.837957,-0.551238 0.05734,-0.390306 0.837957,-0.8749536 0.886052,-0.4938945 -0.07585,-0.064746 0.601186,-0.5715882 0.218276,0.059192 0.103589,0.1294856 0.227524,-0.2571218 0.0555,-0.024048 -0.249721,-0.035144 -0.255273,-0.085095 V 7.9259807 l 0.136886,-0.1109859 h 0.294117 l 0.136885,0.061047 0.11654,0.2386233 0.146133,-0.022204 v -0.020349 l 0.03884,0.012951 0.419904,-0.06289 0.05734,-0.2053287 0.236775,0.061047 v 0.2201261 l -0.220126,0.1516827 0.0333,0.2441738 0.752867,0.2349257 c 0,0 0.002,0.00319 0.0037,0.00934 l 0.173883,-0.014807 0.01111,-0.3292661 -0.597485,-0.2737697 -0.03514,-0.157232 0.495743,-0.1701807 0.02405,-0.4772478 -0.519793,-0.3181651 -0.03514,-0.8065104 -0.710321,0.351461 h -0.25901 L 63.972958,5.9282865 63.005515,5.69891 62.605958,6.0041273 v 0.928596 L 61.884539,7.1620986 61.59412,7.7669825 61.281506,7.8187767 V 7.0437057 L 60.60448,6.94937 60.265968,6.7292452 60.129082,6.2261003 c -0.596795,0.5173049 2.1958,-1.4769847 0.155428,-0.3460109 z m 13.005914,1.4576392 -0.159083,0.025891 -0.488345,0.6992227 -0.704771,0.1128412 -0.101733,0.6048827 0.295966,0.068433 -0.08509,0.390306 -0.699222,-0.1405841 -0.638179,0.1405841 -0.136887,0.3570114 0.110986,0.7528664 0.353311,0.164631 0.127635,-0.127635 0.516094,-0.0037 0.425453,-0.03884 0.129486,-0.340363 0.665926,-0.8694036 0.440251,0.088782 0.429153,-0.3903061 0.0814,0.3052161 1.059934,0.7195701 -0.129486,0.1757305 -0.477248,-0.02589 0.18313,0.26082 0.294118,0.06475 0.345913,-0.142434 -0.0093,-0.4180525 0.155381,-0.0777 L 75.149392,9.563055 74.440918,9.1671985 74.25779,8.6400047 h 0.388457 C 74.369722,8.2896995 74.046012,7.9842613 73.730598,7.6707124 l -0.06289,0.06289 C 73.543259,7.6002944 73.42694,7.4592423 73.290347,7.3377345 Z m 0.678875,2.9522744 -1.522383,0.120239 -0.473546,0.255272 h -0.604885 l -0.297815,-0.0296 -0.693674,0.388458 -0.04069,0.04069 v 0.754716 l -1.502035,1.087681 0.12394,0.466148 h 0.303365 l -0.07768,0.442102 -0.216428,0.0777 -0.01111,1.159822 1.298557,1.487236 h 0.566038 l 0.03514,-0.09064 h 1.013687 l 0.294117,-0.271918 h 0.577138 l 0.314464,0.318163 0.860156,0.09064 -0.112841,1.146874 0.950796,1.690713 -0.501296,0.965594 0.0333,0.45505 0.395855,0.395855 v 1.09323 l 0.110986,0.147984 c 0.715417,-0.948496 1.288144,-2.012173 1.681464,-3.159452 0.393317,-1.147279 0.606732,-2.377837 0.606732,-3.662596 0,-0.816986 -0.0874,-1.612636 -0.251572,-2.378836 -0.164187,-0.766204 -0.405275,-1.502662 -0.714021,-2.203108 l -0.482798,0.04624 v 0.425454 H 75.412141 L 75.175368,11.379524 73.9693,11.074307 Z"
     id="path4840"
     inkscape:connector-curvature="0"
     sodipodi:nodetypes="ccccccccccccccccsccccccccccccccccccccsccccccccccccccccccccccccccccccccccccccccccccccccccccccccccccccccccccccccccccccccccccccccccccccccccccccccccccccccccccccccccccccccccccccccccccccccccccccccccccccccccccccccccccccccscccccccc" />
</svg>
