<?xml version="1.0" encoding="UTF-8" standalone="no"?>
<svg
   xmlns:dc="http://purl.org/dc/elements/1.1/"
   xmlns:cc="http://creativecommons.org/ns#"
   xmlns:rdf="http://www.w3.org/1999/02/22-rdf-syntax-ns#"
   xmlns:svg="http://www.w3.org/2000/svg"
   xmlns="http://www.w3.org/2000/svg"
   xmlns:sodipodi="http://sodipodi.sourceforge.net/DTD/sodipodi-0.dtd"
   xmlns:inkscape="http://www.inkscape.org/namespaces/inkscape"
   height="32"
   width="32"
   version="1"
   id="svg22"
   sodipodi:docname="krdc.svg"
   inkscape:version="0.92.1 r">
  <metadata
     id="metadata28">
    <rdf:RDF>
      <cc:Work
         rdf:about="">
        <dc:format>image/svg+xml</dc:format>
        <dc:type
           rdf:resource="http://purl.org/dc/dcmitype/StillImage" />
      </cc:Work>
    </rdf:RDF>
  </metadata>
  <defs
     id="defs26" />
  <sodipodi:namedview
     pagecolor="#ffffff"
     bordercolor="#666666"
     borderopacity="1"
     objecttolerance="10"
     gridtolerance="10"
     guidetolerance="10"
     inkscape:pageopacity="0"
     inkscape:pageshadow="2"
     inkscape:window-width="640"
     inkscape:window-height="480"
     id="namedview24"
     showgrid="false"
     inkscape:zoom="8.8125"
     inkscape:cx="-4.7659574"
     inkscape:cy="3.4042556"
     inkscape:current-layer="svg22" />
  <rect
     style="opacity:1;fill:#8e8e8e;fill-opacity:1;fill-rule:evenodd;stroke:none;stroke-width:1.03534329;stroke-linecap:round;stroke-linejoin:bevel;stroke-miterlimit:4;stroke-dasharray:none;stroke-dashoffset:0;stroke-opacity:1"
     id="rect4497-3-3-3"
     width="28.203388"
     height="28.203388"
     x="1.8983059"
     y="1.8983059"
     ry="5.575182" />
  <rect
     style="opacity:1;fill:#474747;fill-opacity:1;fill-rule:nonzero;stroke:none;stroke-width:10.04598427;stroke-linecap:round;stroke-linejoin:bevel;stroke-miterlimit:4;stroke-dasharray:none;stroke-dashoffset:0;stroke-opacity:1"
     id="rect4493"
     width="20.895578"
     height="15.641833"
     x="5.5522108"
     y="8.1790829"
     ry="3.3625257"
     rx="3.3625257" />
  <rect
     style="opacity:1;fill:#232323;fill-opacity:1;fill-rule:nonzero;stroke:none;stroke-width:10.04598427;stroke-linecap:round;stroke-linejoin:bevel;stroke-miterlimit:4;stroke-dasharray:none;stroke-dashoffset:0;stroke-opacity:1"
     id="rect4493-3"
     width="19.017578"
     height="13.662251"
     x="6.4912109"
     y="9.1688747"
     ry="2.4445295"
     rx="2.5471909" />
  <g
     id="g4531"
     transform="matrix(0.75,0,0,0.75,4.0141844,4.6507092)"
     style="stroke-width:1.33333325">
    <circle
       id="circle10"
       r="8"
       cy="23"
       cx="24"
       style="fill:#48cd42;fill-rule:evenodd;stroke-width:2.13333344;enable-background:new" />
    <g
       id="g18"
       transform="translate(-404,-46.999)"
       style="fill:#ffffff;stroke-width:2.13333344;enable-background:new">
      <path
         id="path12"
         d="m 424,66 h 0.67187 c 4.05,0 7.33,3.278 7.33,7.328 V 74 h -0.67188 c -0.36436,0 -0.65625,-0.30511 -0.65625,-0.67188 0,-3.3137 -2.6863,-6 -6,-6 -0.36,0 -0.67,-0.289 -0.67,-0.656 v -0.672 z"
         style="color:#000000;stroke-width:1.33333325"
         inkscape:connector-curvature="0" />
      <path
         id="path14"
         d="m 424,68.672 h 0.67187 c 2.5773,0 4.6562,2.0789 4.6562,4.6562 v 0.67188 h -0.65625 c -0.36,0 -0.67,-0.305 -0.67,-0.672 0,-1.841 -1.49,-3.328 -3.33,-3.328 -0.36,0 -0.67,-0.305 -0.67,-0.672 v -0.65625 z"
         style="color:#000000;stroke-width:1.33333325"
         inkscape:connector-curvature="0" />
      <path
         id="path16"
         d="m 425.33,71.328 c 0.73638,0 1.3438,0.60737 1.3438,1.3438 0,0.736 -0.61,1.328 -1.34,1.328 -0.74,0 -1.33,-0.592 -1.33,-1.328 0,-0.73638 0.59174,-1.3438 1.3281,-1.3438 z"
         style="color:#000000;stroke-width:1.33333325"
         inkscape:connector-curvature="0" />
    </g>
  </g>
</svg>
