<?xml version="1.0" encoding="UTF-8" standalone="no"?>
<svg
   xmlns:dc="http://purl.org/dc/elements/1.1/"
   xmlns:cc="http://creativecommons.org/ns#"
   xmlns:rdf="http://www.w3.org/1999/02/22-rdf-syntax-ns#"
   xmlns:svg="http://www.w3.org/2000/svg"
   xmlns="http://www.w3.org/2000/svg"
   xmlns:sodipodi="http://sodipodi.sourceforge.net/DTD/sodipodi-0.dtd"
   xmlns:inkscape="http://www.inkscape.org/namespaces/inkscape"
   height="32"
   width="32"
   version="1"
   id="svg12"
   sodipodi:docname="kscd.svg"
   inkscape:version="0.92.1 r">
  <metadata
     id="metadata18">
    <rdf:RDF>
      <cc:Work
         rdf:about="">
        <dc:format>image/svg+xml</dc:format>
        <dc:type
           rdf:resource="http://purl.org/dc/dcmitype/StillImage" />
        <dc:title></dc:title>
      </cc:Work>
    </rdf:RDF>
  </metadata>
  <defs
     id="defs16" />
  <sodipodi:namedview
     pagecolor="#ffffff"
     bordercolor="#666666"
     borderopacity="1"
     objecttolerance="10"
     gridtolerance="10"
     guidetolerance="10"
     inkscape:pageopacity="0"
     inkscape:pageshadow="2"
     inkscape:window-width="1680"
     inkscape:window-height="963"
     id="namedview14"
     showgrid="false"
     inkscape:zoom="7.375"
     inkscape:cx="-0.24612738"
     inkscape:cy="7.1606496"
     inkscape:window-x="0"
     inkscape:window-y="0"
     inkscape:window-maximized="1"
     inkscape:current-layer="svg12" />
  <rect
     style="opacity:1;fill:#309fff;fill-opacity:1;fill-rule:evenodd;stroke:none;stroke-width:1.03534329;stroke-linecap:round;stroke-linejoin:bevel;stroke-miterlimit:4;stroke-dasharray:none;stroke-dashoffset:0;stroke-opacity:1"
     id="rect4497-3-9"
     width="28.203388"
     height="28.203388"
     x="1.8983059"
     y="1.8983059"
     ry="5.575182"
     inkscape:export-filename="/home/ramil/3.png"
     inkscape:export-xdpi="71"
     inkscape:export-ydpi="71" />
  <g
     id="g4675"
     transform="translate(120.86183,-4.9154692)">
    <g
       id="g4662">
      <circle
         style="opacity:1;fill:#e6e6e6;fill-opacity:1;fill-rule:evenodd;stroke:none;stroke-width:7.33984232;stroke-linecap:round;stroke-linejoin:bevel;stroke-miterlimit:4;stroke-dasharray:none;stroke-dashoffset:0;stroke-opacity:1"
         id="path4556-5"
         cx="-104.86185"
         cy="20.91547"
         r="9.2203388" />
    </g>
    <g
       transform="translate(10.353001,-4.0337498)"
       id="g4659">
      <path
         inkscape:connector-curvature="0"
         style="opacity:1;fill:#f2f2f2;fill-opacity:1;fill-rule:evenodd;stroke:none;stroke-width:7.33984232;stroke-linecap:round;stroke-linejoin:bevel;stroke-miterlimit:4;stroke-dasharray:none;stroke-dashoffset:0;stroke-opacity:1"
         d="m -111.20312,33.236328 -1.0918,-2.208984 1.05078,2.230468 a 9.2203388,9.2203388 0 0 0 0.041,-0.02148 z"
         id="path4649" />
      <path
         inkscape:connector-curvature="0"
         style="opacity:1;fill:#ffffff;fill-opacity:1;fill-rule:evenodd;stroke:none;stroke-width:7.33984232;stroke-linecap:round;stroke-linejoin:bevel;stroke-miterlimit:4;stroke-dasharray:none;stroke-dashoffset:0;stroke-opacity:1"
         d="m -109.55078,32.210938 -5.26367,-6.539063 2.51953,5.355469 1.0918,2.208984 a 9.2203388,9.2203388 0 0 0 1.65234,-1.02539 z"
         id="path4647" />
      <path
         inkscape:connector-curvature="0"
         style="opacity:1;fill:#f2f2f2;fill-opacity:1;fill-rule:evenodd;stroke:none;stroke-width:7.33984232;stroke-linecap:round;stroke-linejoin:bevel;stroke-miterlimit:4;stroke-dasharray:none;stroke-dashoffset:0;stroke-opacity:1"
         d="m -115.16992,24.917969 0.35547,0.753906 5.26367,6.539063 a 9.2203388,9.2203388 0 0 0 0.95117,-0.837891 9.2203388,9.2203388 0 0 0 0.5957,-0.679688 9.2203388,9.2203388 0 0 0 0.0195,-0.02344 9.2203388,9.2203388 0 0 0 0.49415,-0.689453 9.2203388,9.2203388 0 0 0 0.0605,-0.09375 9.2203388,9.2203388 0 0 0 0.39063,-0.679688 9.2203388,9.2203388 0 0 0 0.0723,-0.142578 9.2203388,9.2203388 0 0 0 0.29688,-0.664062 9.2203388,9.2203388 0 0 0 0.0801,-0.205079 9.2203388,9.2203388 0 0 0 0.21484,-0.644531 9.2203388,9.2203388 0 0 0 0.0723,-0.253906 9.2203388,9.2203388 0 0 0 0.0996,-0.445313 z"
         id="path4624" />
      <path
         inkscape:connector-curvature="0"
         style="opacity:1;fill:#e6e6e6;fill-opacity:1;fill-rule:evenodd;stroke:none;stroke-width:7.33984232;stroke-linecap:round;stroke-linejoin:bevel;stroke-miterlimit:4;stroke-dasharray:none;stroke-dashoffset:0;stroke-opacity:1"
         d="m -115.21484,15.728516 a 9.2203388,9.2203388 0 0 0 -4.99024,1.46875 L -115.24609,25 l -9.15235,-0.791016 a 9.2203388,9.2203388 0 0 0 -0.0371,0.740235 9.2203388,9.2203388 0 0 0 9.22071,9.220703 9.2203388,9.2203388 0 0 0 3.9707,-0.91211 l -3.92578,-8.339843 8.9668,1.933593 a 9.2203388,9.2203388 0 0 0 0.20898,-1.902343 9.2203388,9.2203388 0 0 0 -9.2207,-9.220703 z"
         id="path4606" />
      <path
         inkscape:connector-curvature="0"
         style="opacity:1;fill:#f2f2f2;fill-opacity:1;fill-rule:evenodd;stroke:none;stroke-width:7.33984232;stroke-linecap:round;stroke-linejoin:bevel;stroke-miterlimit:4;stroke-dasharray:none;stroke-dashoffset:0;stroke-opacity:1"
         d="m -121.76953,18.478516 a 9.2203388,9.2203388 0 0 0 -2.62891,5.730468 L -115.24609,25 Z"
         id="path4629" />
      <path
         inkscape:connector-curvature="0"
         style="opacity:1;fill:#ffffff;fill-opacity:1;fill-rule:evenodd;stroke:none;stroke-width:7.33984232;stroke-linecap:round;stroke-linejoin:bevel;stroke-miterlimit:4;stroke-dasharray:none;stroke-dashoffset:0;stroke-opacity:1"
         d="M -121.76953,18.478516 -115.24609,25 l -4.95899,-7.802734 a 9.2203388,9.2203388 0 0 0 -1.56445,1.28125 z"
         id="path4556" />
      <circle
         style="opacity:1;fill:#b3b3b3;fill-opacity:1;fill-rule:evenodd;stroke:none;stroke-width:7.3398428;stroke-linecap:round;stroke-linejoin:bevel;stroke-miterlimit:4;stroke-dasharray:none;stroke-dashoffset:0;stroke-opacity:1"
         id="path4556-6-7"
         cx="-115.21519"
         cy="24.949152"
         r="3.3035879" />
      <circle
         style="opacity:1;fill:#ffffff;fill-opacity:1;fill-rule:evenodd;stroke:none;stroke-width:7.3398428;stroke-linecap:round;stroke-linejoin:bevel;stroke-miterlimit:4;stroke-dasharray:none;stroke-dashoffset:0;stroke-opacity:1"
         id="path4556-6"
         cx="-115.21519"
         cy="24.949152"
         r="2.4406779" />
    </g>
  </g>
  <path
     inkscape:connector-curvature="0"
     style="opacity:1;fill:#2f7dbc;fill-opacity:1;fill-rule:evenodd;stroke:none;stroke-width:1.03534329;stroke-linecap:round;stroke-linejoin:bevel;stroke-miterlimit:4;stroke-dasharray:none;stroke-dashoffset:0;stroke-opacity:1"
     d="m 30.102536,17.808595 c -0.534737,0.08427 -1.118304,0.248922 -1.640625,0.3125 -2.016078,0.245398 -3.942616,0.339404 -5.787109,0.298828 -1.844494,-0.04058 -3.608539,-0.214787 -5.302734,-0.50586 C 15.677872,17.622991 14.05444,17.215075 12.489255,16.708985 10.92407,16.202895 9.41742,15.597739 7.959958,14.91211 6.5025,14.226481 5.09466,13.460549 3.72363,12.63086 3.0863,12.245172 2.51948,11.741282 1.89746,11.330079 v 13.197266 c 0,3.08865 2.48752,5.574218 5.57617,5.574218 h 17.052734 c 3.088651,0 5.576172,-2.485568 5.576172,-5.574218 z"
     id="path4550" />
  <g
     id="g4699"
     transform="matrix(0.82334778,0,0,0.82334778,4.2165466,4.2066987)"
     style="stroke-width:1.21455359">
    <path
       inkscape:transform-center-x="-0.94007916"
       d="M 21.693726,23.81345 16.05325,27.06998 V 20.55692 Z"
       inkscape:randomized="0"
       inkscape:rounded="0"
       inkscape:flatsided="true"
       sodipodi:arg2="1.0471976"
       sodipodi:arg1="0"
       sodipodi:r2="1.8801583"
       sodipodi:r1="3.7603168"
       sodipodi:cy="23.81345"
       sodipodi:cx="17.933409"
       sodipodi:sides="3"
       id="path4552"
       style="opacity:1;fill:#ffffff;fill-opacity:1;fill-rule:evenodd;stroke:none;stroke-width:8.91463184;stroke-linecap:round;stroke-linejoin:bevel;stroke-miterlimit:4;stroke-dasharray:none;stroke-dashoffset:0;stroke-opacity:1"
       sodipodi:type="star" />
    <rect
       y="20.556919"
       x="8.0823421"
       height="6.479383"
       width="6.479383"
       id="rect4554"
       style="opacity:1;fill:#ffffff;fill-opacity:1;fill-rule:evenodd;stroke:none;stroke-width:8.91463184;stroke-linecap:round;stroke-linejoin:bevel;stroke-miterlimit:4;stroke-dasharray:none;stroke-dashoffset:0;stroke-opacity:1" />
  </g>
</svg>
