<?xml version="1.0" encoding="UTF-8" standalone="no"?>
<svg
   xmlns:dc="http://purl.org/dc/elements/1.1/"
   xmlns:cc="http://creativecommons.org/ns#"
   xmlns:rdf="http://www.w3.org/1999/02/22-rdf-syntax-ns#"
   xmlns:svg="http://www.w3.org/2000/svg"
   xmlns="http://www.w3.org/2000/svg"
   xmlns:sodipodi="http://sodipodi.sourceforge.net/DTD/sodipodi-0.dtd"
   xmlns:inkscape="http://www.inkscape.org/namespaces/inkscape"
   height="32"
   width="32"
   version="1"
   id="svg10"
   sodipodi:docname="kshisen.svg"
   inkscape:version="0.92.1 r">
  <metadata
     id="metadata16">
    <rdf:RDF>
      <cc:Work
         rdf:about="">
        <dc:format>image/svg+xml</dc:format>
        <dc:type
           rdf:resource="http://purl.org/dc/dcmitype/StillImage" />
      </cc:Work>
    </rdf:RDF>
  </metadata>
  <defs
     id="defs14" />
  <sodipodi:namedview
     pagecolor="#ffffff"
     bordercolor="#666666"
     borderopacity="1"
     objecttolerance="10"
     gridtolerance="10"
     guidetolerance="10"
     inkscape:pageopacity="0"
     inkscape:pageshadow="2"
     inkscape:window-width="640"
     inkscape:window-height="480"
     id="namedview12"
     showgrid="false"
     inkscape:zoom="8.8125"
     inkscape:cx="-4.5390071"
     inkscape:cy="14.978723"
     inkscape:current-layer="svg10" />
  <rect
     style="opacity:1;fill:#cccccc;fill-opacity:1;fill-rule:evenodd;stroke:none;stroke-width:1.03534329;stroke-linecap:round;stroke-linejoin:bevel;stroke-miterlimit:4;stroke-dasharray:none;stroke-dashoffset:0;stroke-opacity:1"
     id="rect4497-3"
     width="28.203388"
     height="28.203388"
     x="1.8983059"
     y="1.8983059"
     ry="5.575182" />
  <path
     d="m 13.658833,5.180225 c -0.1641,0.14474 -0.20512,0.36184 -0.20512,0.61513 0,0.4704 0.16409,1.0493 0.24614,1.2664 0,0 0.12308,2.5329 0.1641,2.8224 -0.36922,0.03618 -1.0256,0.07237 -1.2717,0.14473 h -0.32819 c -0.69741,0.03619 -1.3538,0.07237 -1.641,0.32566 l -0.12307,0.10855 0.12307,0.14474 c 0.20512,0.2171 0.28717,0.83224 0.36922,1.4836 0.20512,1.3388 0.45125,3.0033 1.682,3.6546 l 0.24614,0.10855 v -0.25329 c 0,0 0.0411,-0.10855 0.0411,-0.25329 0,-0.10855 -0.0411,-0.28948 -0.082,-0.54276 0.32819,0.03618 1.0256,0.10855 1.2717,0.10855 0.04099,0.28947 1.1076,12.086 1.1076,12.086 h 0.41024 c 0,0 0.45127,-11.651 0.45127,-12.013 0.28716,0 1.5589,0.03618 1.9281,0.07237 -0.082,0.21711 -0.41023,1.1217 -0.41023,1.1217 l 0.57433,-0.4704 c 0.1641,-0.10855 3.7332,-2.9671 3.2409,-4.8487 -0.1641,-0.61513 -0.73843,-1.0493 -1.682,-1.2664 h -0.0822 c -0.53331,0 -2.1743,0.03618 -3.405,0.10855 0.0411,-0.94079 0.0411,-1.4474 0.0411,-1.7007 v -0.32565 c 0,-0.18092 0.20512,-0.43421 0.36922,-0.61513 0.1641,-0.2171 0.36922,-0.39803 0.36922,-0.61513 0,-0.07237 -0.0411,-0.14474 -0.082,-0.2171 -0.244,-0.3254 -2.049,-1.1576 -2.829,-1.23 -0.246,0.0362 -0.41,0.0724 -0.492,0.1809 z m 0.0411,5.9342 h 0.20512 c 0,0.32566 0.12307,2.6053 0.16409,2.9309 -0.32819,-0.03619 -1.1076,-0.10855 -1.3538,-0.10855 -0.12307,-0.4704 -0.1641,-0.97698 -0.20512,-1.4836 -0.041,-0.43421 -0.082,-0.86842 -0.1641,-1.2664 0.36922,0 1.3538,-0.07237 1.3538,-0.07237 z m 2.5025,1.1217 c 0,0 0.041,-0.86842 0.041,-1.1579 0.5333,0.07237 1.2307,0.10855 1.8871,0.10855 h 0.73843 c 0,0.14474 -0.0411,0.32566 -0.0411,0.32566 -0.082,0.79605 -0.20512,1.7368 -0.57434,2.6776 -0.24613,0 -1.764,-0.07237 -2.0922,-0.10855 0,-0.25329 0.0411,-1.8454 0.0411,-1.8454 z"
     style="fill:#4d4d4d;enable-background:new"
     id="path8"
     inkscape:connector-curvature="0" />
</svg>
