<?xml version="1.0" encoding="UTF-8" standalone="no"?>
<svg
   xmlns:dc="http://purl.org/dc/elements/1.1/"
   xmlns:cc="http://creativecommons.org/ns#"
   xmlns:rdf="http://www.w3.org/1999/02/22-rdf-syntax-ns#"
   xmlns:svg="http://www.w3.org/2000/svg"
   xmlns="http://www.w3.org/2000/svg"
   xmlns:sodipodi="http://sodipodi.sourceforge.net/DTD/sodipodi-0.dtd"
   xmlns:inkscape="http://www.inkscape.org/namespaces/inkscape"
   height="32"
   width="32"
   version="1"
   id="svg12"
   sodipodi:docname="kturtle.svg"
   inkscape:version="0.92.1 r">
  <metadata
     id="metadata18">
    <rdf:RDF>
      <cc:Work
         rdf:about="">
        <dc:format>image/svg+xml</dc:format>
        <dc:type
           rdf:resource="http://purl.org/dc/dcmitype/StillImage" />
      </cc:Work>
    </rdf:RDF>
  </metadata>
  <defs
     id="defs16" />
  <sodipodi:namedview
     pagecolor="#ffffff"
     bordercolor="#666666"
     borderopacity="1"
     objecttolerance="10"
     gridtolerance="10"
     guidetolerance="10"
     inkscape:pageopacity="0"
     inkscape:pageshadow="2"
     inkscape:window-width="640"
     inkscape:window-height="480"
     id="namedview14"
     showgrid="false"
     inkscape:zoom="9.5"
     inkscape:cx="-4.1052632"
     inkscape:cy="16"
     inkscape:current-layer="svg12" />
  <rect
     style="opacity:1;fill:#478f30;fill-opacity:1;fill-rule:evenodd;stroke:none;stroke-width:1.03534329;stroke-linecap:round;stroke-linejoin:bevel;stroke-miterlimit:4;stroke-dasharray:none;stroke-dashoffset:0;stroke-opacity:1"
     id="rect4497-3"
     width="28.203388"
     height="28.203388"
     x="1.8983059"
     y="1.8983059"
     ry="5.575182"
     inkscape:export-filename="/home/ramil/3.png"
     inkscape:export-xdpi="71"
     inkscape:export-ydpi="71" />
  <g
     id="g4503"
     transform="translate(45.368422,8.7364006)">
    <path
       inkscape:connector-curvature="0"
       id="path4"
       d="m -29.368421,-4.1052632 c -1.799472,0 -3.248144,1.4486723 -3.248144,3.24814406 V 2.9350257 l -1.438509,-1.4385092 c -0.973709,-0.97370825 -2.542472,-0.97370825 -3.51618,0 -0.973708,0.9737079 -0.973708,2.5424713 0,3.5161797 l 4.686654,4.6866529 -4.686654,4.6866529 c -0.973708,0.973708 -0.973708,2.542472 0,3.516179 0.973708,0.973708 2.542472,0.973708 3.51618,0 l 3.000726,-3.000726 c 0.492155,0.299647 1.065251,0.482146 1.685927,0.482146 0.620675,0 1.193771,-0.182499 1.685926,-0.482146 l 3.000727,3.000726 c 0.973708,0.973708 2.542471,0.973708 3.516179,0 0.973708,-0.973707 0.973708,-2.542471 0,-3.516179 l -4.686653,-4.6866529 4.686653,-4.6866529 c 0.973708,-0.9737084 0.973708,-2.5424718 0,-3.5161797 -0.973708,-0.97370825 -2.542471,-0.97370825 -3.516179,0 l -1.438509,1.4385092 v -3.79214484 c 0,-1.79947176 -1.448672,-3.24814406 -3.248144,-3.24814406 z"
       style="opacity:1;fill:#ffffff;fill-opacity:1;stroke-width:1" />
    <rect
       id="rect10"
       x="-17.81971"
       y="22.060097"
       width="17.052755"
       height="14.616648"
       ry="7.3083239"
       rx="8.5263777"
       transform="matrix(0,-1,-1,0,0,0)"
       style="fill:#b08e57;stroke-width:1" />
  </g>
</svg>
