<?xml version="1.0" encoding="UTF-8" standalone="no"?>
<svg
   xmlns:dc="http://purl.org/dc/elements/1.1/"
   xmlns:cc="http://creativecommons.org/ns#"
   xmlns:rdf="http://www.w3.org/1999/02/22-rdf-syntax-ns#"
   xmlns:svg="http://www.w3.org/2000/svg"
   xmlns="http://www.w3.org/2000/svg"
   xmlns:sodipodi="http://sodipodi.sourceforge.net/DTD/sodipodi-0.dtd"
   xmlns:inkscape="http://www.inkscape.org/namespaces/inkscape"
   height="32"
   width="32"
   version="1"
   id="svg12"
   sodipodi:docname="kvantum.svg"
   inkscape:version="0.92.1 r">
  <metadata
     id="metadata18">
    <rdf:RDF>
      <cc:Work
         rdf:about="">
        <dc:format>image/svg+xml</dc:format>
        <dc:type
           rdf:resource="http://purl.org/dc/dcmitype/StillImage" />
      </cc:Work>
    </rdf:RDF>
  </metadata>
  <defs
     id="defs16" />
  <sodipodi:namedview
     pagecolor="#ffffff"
     bordercolor="#666666"
     borderopacity="1"
     objecttolerance="10"
     gridtolerance="10"
     guidetolerance="10"
     inkscape:pageopacity="0"
     inkscape:pageshadow="2"
     inkscape:window-width="1680"
     inkscape:window-height="966"
     id="namedview14"
     showgrid="false"
     inkscape:zoom="3.2234126"
     inkscape:cx="-79.820535"
     inkscape:cy="25.812617"
     inkscape:current-layer="svg12"
     inkscape:window-x="0"
     inkscape:window-y="0"
     inkscape:window-maximized="1" />
  <rect
     style="opacity:1;fill:#2a9722;fill-opacity:1;fill-rule:evenodd;stroke:none;stroke-width:1.03534329;stroke-linecap:round;stroke-linejoin:bevel;stroke-miterlimit:4;stroke-dasharray:none;stroke-dashoffset:0;stroke-opacity:1"
     id="rect4497-3-3"
     width="28.203388"
     height="28.203388"
     x="1.8983059"
     y="1.8983059"
     ry="5.575182" />
  <path
     inkscape:connector-curvature="0"
     style="opacity:1;fill:#8500db;fill-opacity:1;fill-rule:evenodd;stroke:none;stroke-width:1.03534329;stroke-linecap:round;stroke-linejoin:bevel;stroke-miterlimit:4;stroke-dasharray:none;stroke-dashoffset:0;stroke-opacity:1"
     d="m 9.054693,30.101608 h 15.472656 c 3.088651,0 5.574219,-2.485568 5.574219,-5.574219 V 8.73637 a 22.225332,22.225332 0 0 1 -0.07031,1.40039 22.225332,22.225332 0 0 1 -0.332032,2.19532 22.225332,22.225332 0 0 1 -0.548828,2.15234 22.225332,22.225332 0 0 1 -0.761718,2.087891 22.225332,22.225332 0 0 1 -0.966797,2 22.225332,22.225332 0 0 1 -1.16211,1.894531 22.225332,22.225332 0 0 1 -1.34375,1.767578 22.225332,22.225332 0 0 1 -1.513672,1.626953 22.225332,22.225332 0 0 1 -1.669921,1.464844 22.225332,22.225332 0 0 1 -1.806641,1.292969 22.225332,22.225332 0 0 1 -1.927735,1.105468 22.225332,22.225332 0 0 1 -2.027343,0.908204 22.225332,22.225332 0 0 1 -2.109375,0.699218 22.225332,22.225332 0 0 1 -2.166016,0.486328 22.225332,22.225332 0 0 1 -2.207031,0.267578 22.225332,22.225332 0 0 1 -0.433594,0.01563 z"
     id="path986" />
  <path
     inkscape:connector-curvature="0"
     style="opacity:1;fill:#5631d4;fill-opacity:1;fill-rule:evenodd;stroke:none;stroke-width:1.03534329;stroke-linecap:round;stroke-linejoin:bevel;stroke-miterlimit:4;stroke-dasharray:none;stroke-dashoffset:0;stroke-opacity:1"
     d="m 9.054693,30.101608 c 0.1445787,-0.0038 0.289117,-0.009 0.433594,-0.01563 0.73968,-0.05232 1.476278,-0.141623 2.207031,-0.267578 0.729656,-0.125927 1.452562,-0.288239 2.166016,-0.486328 0.714345,-0.197753 1.418349,-0.431117 2.109375,-0.699218 0.690498,-0.268751 1.367123,-0.571865 2.027343,-0.908204 0.66061,-0.336114 1.303992,-0.705065 1.927735,-1.105468 0.623391,-0.400603 1.226358,-0.832131 1.806641,-1.292969 0.580709,-0.460141 1.138045,-0.949033 1.669921,-1.464844 0.53137,-0.516739 1.036559,-1.059735 1.513672,-1.626953 0.477086,-0.566437 0.925562,-1.156365 1.34375,-1.767578 0.418723,-0.611734 0.806578,-1.244035 1.16211,-1.894531 0.355402,-0.650135 0.67807,-1.317635 0.966797,-2 0.288567,-0.682825 0.54279,-1.37966 0.761718,-2.087891 0.218702,-0.70785 0.401873,-1.426192 0.548828,-2.152336 0.147183,-0.725785 0.257998,-1.458472 0.332032,-2.19532 0.03816,-0.465941 0.06161,-0.93297 0.07031,-1.40039 V 7.47465 c 0,-2.7819801 -1.993898,-5.0354374 -4.53531,-5.4925637 0.09599,0.2674419 0.2407,0.6741459 0.324373,0.9456937 0.166281,0.5989397 0.302519,1.205817 0.408203,1.81836 0.105699,0.6130549 0.180663,1.2310139 0.224609,1.85156 0.03121,0.4394118 0.04684,0.8797913 0.04687,1.32031 -2.15e-4,0.6216179 -0.0315,1.2428364 -0.09375,1.86133 -0.0623,0.618856 -0.155516,1.234208 -0.279297,1.84375 -0.123432,0.609521 -0.27727,1.212487 -0.460937,1.80664 -0.183548,0.594267 -0.396705,1.178981 -0.638672,1.751952 -0.242701,0.572437 -0.513873,1.132381 -0.8125,1.677734 -0.297523,0.545825 -0.622147,1.076435 -0.972656,1.589844 -0.351317,0.513305 -0.72809,1.008716 -1.128907,1.484375 -0.400841,0.475335 -0.825198,0.930331 -1.271484,1.363281 -0.445997,0.433241 -0.913377,0.84391 -1.400391,1.230469 -0.487424,0.387072 -0.993917,0.749505 -1.517578,1.085937 -0.523261,0.336009 -1.062997,0.645641 -1.617187,0.927735 -0.554009,0.282098 -1.121775,0.536321 -1.701172,0.761718 -0.579674,0.225342 -1.170255,0.421551 -1.769531,0.587891 -0.59894,0.166281 -1.205817,0.302519 -1.81836,0.408203 -0.613056,0.105699 -1.2310153,0.180663 -1.851562,0.224609 -0.4394127,0.03121 -0.8797932,0.04685 -1.320313,0.04688 -0.6216172,-2.15e-4 -1.2428351,-0.0315 -1.861328,-0.09375 -0.6188556,-0.0623 -1.2342077,-0.155516 -1.84375,-0.279297 -0.6095212,-0.123432 -1.2124879,-0.277271 -1.806641,-0.460938 -0.094678,-0.03374 -0.2908727,-0.05857 -0.3849933,-0.09383 0.525106,2.535554 2.7573863,4.459065 5.4533533,4.459066 z"
     id="path983"
     sodipodi:nodetypes="cccccccccccccccccscccccccccccccccccccccccccsc" />
  <path
     inkscape:connector-curvature="0"
     style="opacity:1;fill:#018dc1;fill-opacity:1;fill-rule:evenodd;stroke:none;stroke-width:1.03534329;stroke-linecap:round;stroke-linejoin:bevel;stroke-miterlimit:4;stroke-dasharray:none;stroke-dashoffset:0;stroke-opacity:1"
     d="m 2.0193017,25.642542 c 0.094121,0.03527 0.2903219,0.06009 0.3850003,0.09383 0.5941531,0.183667 1.1971198,0.337506 1.806641,0.460938 0.6095423,0.123781 1.2248944,0.216997 1.84375,0.279297 0.6184929,0.06225 1.2397108,0.09354 1.861328,0.09375 0.4405198,-3.1e-5 0.8809003,-0.01567 1.320313,-0.04688 0.6205467,-0.04395 1.238506,-0.11891 1.851562,-0.224609 0.612543,-0.105684 1.21942,-0.241922 1.81836,-0.408203 0.599276,-0.16634 1.189857,-0.362549 1.769531,-0.587891 0.579397,-0.225397 1.147163,-0.47962 1.701172,-0.761718 0.55419,-0.282094 1.093926,-0.591726 1.617187,-0.927735 0.523661,-0.336432 1.030154,-0.698865 1.517578,-1.085937 0.487014,-0.386559 0.954394,-0.797228 1.400391,-1.230469 0.446286,-0.43295 0.870643,-0.887946 1.271484,-1.363281 0.400817,-0.475659 0.77759,-0.97107 1.128907,-1.484375 0.350509,-0.513409 0.675133,-1.044019 0.972656,-1.589844 0.298627,-0.545353 0.569799,-1.105297 0.8125,-1.677734 0.241967,-0.572971 0.455124,-1.157685 0.638672,-1.751952 0.183667,-0.594153 0.337505,-1.197119 0.460937,-1.80664 0.123781,-0.609542 0.216997,-1.224894 0.279297,-1.84375 0.06225,-0.6184936 0.09353,-1.2397121 0.09375,-1.86133 C 26.57029,7.4774913 26.554657,7.0371118 26.523448,6.5977 26.479502,5.9771539 26.404538,5.3591949 26.298839,4.74614 26.193155,4.133597 26.056917,3.5267197 25.890636,2.92778 25.806963,2.6562322 25.662247,2.2495281 25.566256,1.9820863 25.200543,1.9070863 24.915904,1.89848 24.527354,1.89848 h -2.314453 c 0.0604,0.1300421 0.119004,0.2609146 0.175782,0.39258 0.1872,0.4824428 0.350164,0.973943 0.488281,1.47266 0.138433,0.4985786 0.251855,1.0037657 0.339843,1.51367 0.08816,0.5102222 0.150734,1.0245349 0.1875,1.54101 0.02601,0.3659601 0.03904,0.732727 0.03906,1.09961 -2.28e-4,0.5172558 -0.0263,1.0341771 -0.07813,1.54883 -0.05118,0.5152428 -0.128097,1.027603 -0.230469,1.53516 -0.103099,0.507402 -0.231514,1.009329 -0.384765,1.5039 -0.153342,0.49426 -0.331299,0.980544 -0.533204,1.457032 -0.201152,0.477089 -0.426042,0.943818 -0.673828,1.398437 -0.247986,0.453983 -0.518506,0.895288 -0.810546,1.322266 -0.292335,0.42752 -0.605879,0.840145 -0.939454,1.236328 -0.333729,0.395664 -0.687034,0.774392 -1.058593,1.134765 -0.371327,0.36103 -0.760486,0.703255 -1.166016,1.025391 -0.405276,0.321615 -0.826374,0.622773 -1.261719,0.902344 -0.43607,0.279478 -0.885851,0.536962 -1.347656,0.771484 -0.46113,0.235058 -0.933726,0.446912 -1.416016,0.634766 -0.482442,0.1872 -0.97394,0.350164 -1.472656,0.488281 -0.498579,0.138433 -1.003767,0.251856 -1.513672,0.339844 -0.510224,0.08816 -1.0245382,0.150734 -1.541015,0.1875 -0.3659601,0.02601 -0.732727,0.03904 -1.09961,0.03906 C 7.3987629,23.44317 6.8818423,23.417094 6.36719,23.365268 5.8519486,23.314091 5.3395897,23.237172 4.832034,23.1348 4.32463,23.031701 3.8227009,22.903285 3.328128,22.750034 2.8433278,22.59968 2.3661922,22.425643 1.89844,22.22855 v 2.298828 c 0,0.392684 0.044378,0.745845 0.1208617,1.115164 z"
     id="path980"
     sodipodi:nodetypes="cccccccccccccccccccccccccsccccccccccccccccccccccccccscc" />
  <path
     inkscape:connector-curvature="0"
     style="opacity:1;fill:#2a9722;fill-opacity:1;fill-rule:evenodd;stroke:none;stroke-width:1.03534329;stroke-linecap:round;stroke-linejoin:bevel;stroke-miterlimit:4;stroke-dasharray:none;stroke-dashoffset:0;stroke-opacity:1"
     d="m 1.898443,22.228561 a 15.526425,15.526425 0 0 0 1.429688,0.521484 15.526425,15.526425 0 0 0 1.503906,0.384766 15.526425,15.526425 0 0 0 1.535156,0.230468 15.526425,15.526425 0 0 0 1.548828,0.07813 15.526425,15.526425 0 0 0 1.09961,-0.03906 15.526425,15.526425 0 0 0 1.541015,-0.1875 15.526425,15.526425 0 0 0 1.513672,-0.339844 15.526425,15.526425 0 0 0 1.472656,-0.488281 15.526425,15.526425 0 0 0 1.416016,-0.634766 15.526425,15.526425 0 0 0 1.347656,-0.771484 15.526425,15.526425 0 0 0 1.261719,-0.902344 15.526425,15.526425 0 0 0 1.166016,-1.025391 15.526425,15.526425 0 0 0 1.058593,-1.134765 15.526425,15.526425 0 0 0 0.939454,-1.236328 15.526425,15.526425 0 0 0 0.810546,-1.322266 15.526425,15.526425 0 0 0 0.673828,-1.398437 15.526425,15.526425 0 0 0 0.533204,-1.457033 15.526425,15.526425 0 0 0 0.384765,-1.5039 A 15.526425,15.526425 0 0 0 23.36524,9.46685 15.526425,15.526425 0 0 0 23.44337,7.91802 15.526425,15.526425 0 0 0 23.40431,6.81841 15.526425,15.526425 0 0 0 23.21681,5.2774 15.526425,15.526425 0 0 0 22.876967,3.76373 15.526425,15.526425 0 0 0 22.388686,2.29107 15.526425,15.526425 0 0 0 22.212904,1.89849 h -3.8125 a 12.10254,12.10254 0 0 1 0.302735,0.5293 12.10254,12.10254 0 0 1 0.49414,1.10351 12.10254,12.10254 0 0 1 0.38086,1.14844 12.10254,12.10254 0 0 1 0.265625,1.17969 12.10254,12.10254 0 0 1 0.144531,1.20117 12.10254,12.10254 0 0 1 0.03125,0.85742 12.10254,12.10254 0 0 1 -0.06055,1.20704 12.10254,12.10254 0 0 1 -0.181641,1.19726 12.10254,12.10254 0 0 1 -0.298828,1.17188 12.10254,12.10254 0 0 1 -0.414062,1.13671 12.10254,12.10254 0 0 1 -0.527344,1.087892 12.10254,12.10254 0 0 1 -0.630859,1.03125 12.10254,12.10254 0 0 1 -0.732422,0.962891 12.10254,12.10254 0 0 1 -0.824219,0.886718 12.10254,12.10254 0 0 1 -0.910156,0.796875 12.10254,12.10254 0 0 1 -0.984375,0.705079 12.10254,12.10254 0 0 1 -1.048833,0.601555 12.10254,12.10254 0 0 1 -1.103516,0.494141 12.10254,12.10254 0 0 1 -1.148438,0.380859 12.10254,12.10254 0 0 1 -1.179687,0.265625 12.10254,12.10254 0 0 1 -1.201172,0.146484 12.10254,12.10254 0 0 1 -0.857422,0.0293 A 12.10254,12.10254 0 0 1 6.70899,19.959029 12.10254,12.10254 0 0 1 5.511724,19.779342 12.10254,12.10254 0 0 1 4.339849,19.478561 12.10254,12.10254 0 0 1 3.203131,19.064498 12.10254,12.10254 0 0 1 2.11524,18.537154 12.10254,12.10254 0 0 1 1.898443,18.404342 Z"
     id="path977" />
  <path
     inkscape:connector-curvature="0"
     style="opacity:1;fill:#e8e022;fill-opacity:1;fill-rule:evenodd;stroke:none;stroke-width:1.03534329;stroke-linecap:round;stroke-linejoin:bevel;stroke-miterlimit:4;stroke-dasharray:none;stroke-dashoffset:0;stroke-opacity:1"
     d="m 1.898443,18.404342 a 12.10254,12.10254 0 0 0 0.216797,0.132812 12.10254,12.10254 0 0 0 1.087891,0.527344 12.10254,12.10254 0 0 0 1.136718,0.414063 12.10254,12.10254 0 0 0 1.171875,0.300781 12.10254,12.10254 0 0 0 1.197266,0.179687 12.10254,12.10254 0 0 0 1.207031,0.06055 12.10254,12.10254 0 0 0 0.857422,-0.0293 12.10254,12.10254 0 0 0 1.201172,-0.146484 12.10254,12.10254 0 0 0 1.179687,-0.265625 12.10254,12.10254 0 0 0 1.148438,-0.380859 12.10254,12.10254 0 0 0 1.103516,-0.494141 12.10254,12.10254 0 0 0 1.048828,-0.601562 12.10254,12.10254 0 0 0 0.984375,-0.705079 12.10254,12.10254 0 0 0 0.910156,-0.796875 12.10254,12.10254 0 0 0 0.824219,-0.886718 12.10254,12.10254 0 0 0 0.732422,-0.962891 12.10254,12.10254 0 0 0 0.630859,-1.03125 12.10254,12.10254 0 0 0 0.527344,-1.087895 12.10254,12.10254 0 0 0 0.414062,-1.13671 12.10254,12.10254 0 0 0 0.298828,-1.17188 A 12.10254,12.10254 0 0 0 19.95899,9.12505 12.10254,12.10254 0 0 0 20.01954,7.91801 12.10254,12.10254 0 0 0 19.98829,7.06059 12.10254,12.10254 0 0 0 19.843759,5.85942 12.10254,12.10254 0 0 0 19.578134,4.67973 12.10254,12.10254 0 0 0 19.197274,3.53129 12.10254,12.10254 0 0 0 18.703134,2.42778 12.10254,12.10254 0 0 0 18.400399,1.89848 h -3.605468 a 9.1507893,9.1507893 0 0 1 0.291015,0.33008 9.1507893,9.1507893 0 0 1 0.53125,0.74414 9.1507893,9.1507893 0 0 1 0.455078,0.79297 9.1507893,9.1507893 0 0 1 0.373047,0.83594 9.1507893,9.1507893 0 0 1 0.289063,0.86718 9.1507893,9.1507893 0 0 1 0.201171,0.89258 9.1507893,9.1507893 0 0 1 0.109376,0.90821 9.1507893,9.1507893 0 0 1 0.02344,0.64843 9.1507893,9.1507893 0 0 1 -0.04687,0.91211 9.1507893,9.1507893 0 0 1 -0.136719,0.9043 9.1507893,9.1507893 0 0 1 -0.226562,0.88672 9.1507893,9.1507893 0 0 1 -0.3125,0.85937 9.1507893,9.1507893 0 0 1 -0.398438,0.82422 9.1507893,9.1507893 0 0 1 -0.478515,0.7793 9.1507893,9.1507893 0 0 1 -0.552735,0.728515 9.1507893,9.1507893 0 0 1 -0.623047,0.669922 9.1507893,9.1507893 0 0 1 -0.6875,0.603515 9.1507893,9.1507893 0 0 1 -0.74414,0.53125 9.1507893,9.1507893 0 0 1 -0.792969,0.455079 9.1507893,9.1507893 0 0 1 -0.835937,0.373047 A 9.1507893,9.1507893 0 0 1 10.365251,16.73442 9.1507893,9.1507893 0 0 1 9.472673,16.935592 9.1507893,9.1507893 0 0 1 8.56447,17.044967 9.1507893,9.1507893 0 0 1 7.916032,17.068407 9.1507893,9.1507893 0 0 1 7.003923,17.021537 9.1507893,9.1507893 0 0 1 6.099626,16.884819 9.1507893,9.1507893 0 0 1 5.212907,16.658256 9.1507893,9.1507893 0 0 1 4.353532,16.345756 9.1507893,9.1507893 0 0 1 3.529313,15.947319 9.1507893,9.1507893 0 0 1 2.750017,15.468803 9.1507893,9.1507893 0 0 1 2.021501,14.916069 9.1507893,9.1507893 0 0 1 1.898454,14.800834 Z"
     id="path974" />
  <path
     inkscape:connector-curvature="0"
     style="opacity:1;fill:#d76100;fill-opacity:1;fill-rule:evenodd;stroke:none;stroke-width:1.03534329;stroke-linecap:round;stroke-linejoin:bevel;stroke-miterlimit:4;stroke-dasharray:none;stroke-dashoffset:0;stroke-opacity:1"
     d="m 1.898443,14.800826 a 9.1507893,9.1507893 0 0 0 0.123047,0.115235 9.1507893,9.1507893 0 0 0 0.728516,0.552734 9.1507893,9.1507893 0 0 0 0.779296,0.478516 9.1507893,9.1507893 0 0 0 0.824219,0.398437 9.1507893,9.1507893 0 0 0 0.859375,0.3125 9.1507893,9.1507893 0 0 0 0.886719,0.226563 9.1507893,9.1507893 0 0 0 0.904297,0.136718 9.1507893,9.1507893 0 0 0 0.912109,0.04687 9.1507893,9.1507893 0 0 0 0.648438,-0.02344 9.1507893,9.1507893 0 0 0 0.908203,-0.109375 9.1507893,9.1507893 0 0 0 0.892578,-0.201172 9.1507893,9.1507893 0 0 0 0.867188,-0.289062 9.1507893,9.1507893 0 0 0 0.835937,-0.373047 9.1507893,9.1507893 0 0 0 0.792969,-0.455079 9.1507893,9.1507893 0 0 0 0.74414,-0.53125 9.1507893,9.1507893 0 0 0 0.6875,-0.603515 9.1507893,9.1507893 0 0 0 0.623047,-0.669922 9.1507893,9.1507893 0 0 0 0.552735,-0.728517 9.1507893,9.1507893 0 0 0 0.478515,-0.7793 9.1507893,9.1507893 0 0 0 0.398438,-0.82422 9.1507893,9.1507893 0 0 0 0.3125,-0.85937 A 9.1507893,9.1507893 0 0 0 16.884771,9.73441 9.1507893,9.1507893 0 0 0 17.02149,8.83011 9.1507893,9.1507893 0 0 0 17.06836,7.918 9.1507893,9.1507893 0 0 0 17.04492,7.26957 9.1507893,9.1507893 0 0 0 16.935544,6.36136 9.1507893,9.1507893 0 0 0 16.734373,5.46878 9.1507893,9.1507893 0 0 0 16.44531,4.6016 9.1507893,9.1507893 0 0 0 16.072263,3.76566 9.1507893,9.1507893 0 0 0 15.617185,2.97269 9.1507893,9.1507893 0 0 0 15.085935,2.22855 9.1507893,9.1507893 0 0 0 14.79492,1.89847 H 9.761716 a 6.2968216,6.2968216 0 0 1 0.01563,0.004 6.2968216,6.2968216 0 0 1 0.591797,0.21484 6.2968216,6.2968216 0 0 1 0.566406,0.27344 6.2968216,6.2968216 0 0 1 0.53711,0.33008 6.2968216,6.2968216 0 0 1 0.5,0.38086 6.2968216,6.2968216 0 0 1 0.460937,0.42773 6.2968216,6.2968216 0 0 1 0.416016,0.47266 6.2968216,6.2968216 0 0 1 0.365234,0.51367 6.2968216,6.2968216 0 0 1 0.314453,0.54492 6.2968216,6.2968216 0 0 1 0.25586,0.57422 6.2968216,6.2968216 0 0 1 0.199219,0.59766 6.2968216,6.2968216 0 0 1 0.138671,0.61523 6.2968216,6.2968216 0 0 1 0.07422,0.62305 6.2968216,6.2968216 0 0 1 0.01563,0.44726 6.2968216,6.2968216 0 0 1 -0.03125,0.62696 6.2968216,6.2968216 0 0 1 -0.09375,0.62304 6.2968216,6.2968216 0 0 1 -0.15625,0.60938 6.2968216,6.2968216 0 0 1 -0.214844,0.5918 6.2968216,6.2968216 0 0 1 -0.273437,0.5664 6.2968216,6.2968216 0 0 1 -0.330078,0.53711 6.2968216,6.2968216 0 0 1 -0.380859,0.5 6.2968216,6.2968216 0 0 1 -0.427735,0.46094 6.2968216,6.2968216 0 0 1 -0.472656,0.41601 6.2968216,6.2968216 0 0 1 -0.513672,0.36524 6.2968216,6.2968216 0 0 1 -0.544922,0.31445 6.2968216,6.2968216 0 0 1 -0.574219,0.255863 6.2968216,6.2968216 0 0 1 -0.597656,0.199219 6.2968216,6.2968216 0 0 1 -0.615234,0.138672 6.2968216,6.2968216 0 0 1 -0.623047,0.07422 6.2968216,6.2968216 0 0 1 -0.447266,0.01758 6.2968216,6.2968216 0 0 1 -0.626953,-0.0332 A 6.2968216,6.2968216 0 0 1 6.666024,14.088024 6.2968216,6.2968216 0 0 1 6.056649,13.933727 6.2968216,6.2968216 0 0 1 5.464852,13.71693 6.2968216,6.2968216 0 0 1 4.898446,13.44349 6.2968216,6.2968216 0 0 1 4.361337,13.11342 6.2968216,6.2968216 0 0 1 3.861337,12.73256 6.2968216,6.2968216 0 0 1 3.400399,12.30482 6.2968216,6.2968216 0 0 1 2.984384,11.83217 6.2968216,6.2968216 0 0 1 2.619149,11.31849 6.2968216,6.2968216 0 0 1 2.304696,10.77357 6.2968216,6.2968216 0 0 1 2.048837,10.19935 6.2968216,6.2968216 0 0 1 1.898446,9.74818 Z"
     id="path971" />
  <path
     inkscape:connector-curvature="0"
     style="opacity:1;fill:#ab1406;fill-opacity:1;fill-rule:evenodd;stroke:none;stroke-width:1.03534329;stroke-linecap:round;stroke-linejoin:bevel;stroke-miterlimit:4;stroke-dasharray:none;stroke-dashoffset:0;stroke-opacity:1"
     d="m 1.898443,9.74809 a 6.2968216,6.2968216 0 0 0 0.150391,0.45117 6.2968216,6.2968216 0 0 0 0.255859,0.57422 6.2968216,6.2968216 0 0 0 0.314453,0.54492 6.2968216,6.2968216 0 0 0 0.365235,0.51368 6.2968216,6.2968216 0 0 0 0.416015,0.47265 6.2968216,6.2968216 0 0 0 0.460938,0.42774 6.2968216,6.2968216 0 0 0 0.5,0.38086 6.2968216,6.2968216 0 0 0 0.537109,0.33007 6.2968216,6.2968216 0 0 0 0.566406,0.273442 6.2968216,6.2968216 0 0 0 0.591797,0.216797 6.2968216,6.2968216 0 0 0 0.609375,0.154297 6.2968216,6.2968216 0 0 0 0.623047,0.09375 6.2968216,6.2968216 0 0 0 0.626953,0.0332 6.2968216,6.2968216 0 0 0 0.447266,-0.01758 6.2968216,6.2968216 0 0 0 0.623047,-0.07422 6.2968216,6.2968216 0 0 0 0.615234,-0.138672 6.2968216,6.2968216 0 0 0 0.597656,-0.199219 6.2968216,6.2968216 0 0 0 0.574219,-0.255865 6.2968216,6.2968216 0 0 0 0.544922,-0.31445 6.2968216,6.2968216 0 0 0 0.513672,-0.36524 6.2968216,6.2968216 0 0 0 0.472656,-0.41601 6.2968216,6.2968216 0 0 0 0.427735,-0.46094 6.2968216,6.2968216 0 0 0 0.380859,-0.5 6.2968216,6.2968216 0 0 0 0.330078,-0.53711 6.2968216,6.2968216 0 0 0 0.273437,-0.5664 6.2968216,6.2968216 0 0 0 0.214844,-0.5918 A 6.2968216,6.2968216 0 0 0 14.087896,9.168 6.2968216,6.2968216 0 0 0 14.181646,8.54496 6.2968216,6.2968216 0 0 0 14.212896,7.918 6.2968216,6.2968216 0 0 0 14.197266,7.47074 6.2968216,6.2968216 0 0 0 14.123046,6.84769 6.2968216,6.2968216 0 0 0 13.984375,6.23246 6.2968216,6.2968216 0 0 0 13.785156,5.6348 6.2968216,6.2968216 0 0 0 13.529296,5.06058 6.2968216,6.2968216 0 0 0 13.214843,4.51566 6.2968216,6.2968216 0 0 0 12.849609,4.00199 6.2968216,6.2968216 0 0 0 12.433593,3.52933 6.2968216,6.2968216 0 0 0 11.972656,3.1016 6.2968216,6.2968216 0 0 0 11.472656,2.72074 6.2968216,6.2968216 0 0 0 10.935546,2.39066 6.2968216,6.2968216 0 0 0 10.36914,2.11722 6.2968216,6.2968216 0 0 0 9.777343,1.90238 6.2968216,6.2968216 0 0 0 9.761713,1.89838 H 7.472651 C 4.384,1.89838 1.898432,4.3859 1.898432,7.47455 Z"
     id="rect4497-3-3-6-2" />
  <path
     d="m 8.9727658,9.6238306 1.32e-4,0.9379264 1.2464592,0.09499 0.201828,0.284929 -2.0064176,10.684914 -0.3086797,0.296878 -1.2694511,0.09417 v 0.973442 l 5.5562334,8.4e-5 1.71e-4,-0.973368 -1.234841,-0.0833 -0.213703,-0.308704 0.819187,-4.475855 h 1.258445 l 1.804626,3.799059 c 0.737553,1.514903 1.25502,2.164426 2.849294,2.184605 0.458445,0.006 0.642858,0.03955 1.879595,0 4.265625,-3.561311 6.443015,-6.275956 6.787038,-7.503336 0.208347,-0.743363 -0.122444,-1.199289 -0.831258,-1.199289 -0.34576,0 -0.741601,0.145608 -1.187022,0.439501 l -0.320543,2.552478 c -0.873023,1.140965 -2.03687,2.383828 -3.45479,3.68043 l 0.937902,-4.903286 c 0.194624,-1.002755 0.258794,-1.537771 -0.391855,-1.745311 l -2.908608,0.64122 -0.154144,0.546023 1.341362,0.213837 c 0.09325,0.345712 -0.01003,1.097317 -0.213703,2.255661 l -0.652973,3.597267 c -0.01027,0.03701 -0.01676,0.07759 -0.02375,0.118727 -0.423407,-0.227498 -0.69031,-0.632585 -0.997265,-1.246459 l -2.552477,-5.105077 4.665783,-4.725098 1.59085,-0.154327 -1.94e-4,-0.9735765 -4.986081,4.16e-5 2.09e-4,0.9736619 1.234474,0.09487 0.118727,0.320567 -4.998189,5.152529 h -0.593609 l 0.98539,-5.223706 0.261192,-0.284917 1.317758,-0.09494 -1.21e-4,-0.938012 z"
     id="path6"
     inkscape:connector-curvature="0"
     style="fill:#ffffff;stroke-width:1.222978" />
</svg>
