<?xml version="1.0" encoding="UTF-8" standalone="no"?>
<svg
   xmlns:dc="http://purl.org/dc/elements/1.1/"
   xmlns:cc="http://creativecommons.org/ns#"
   xmlns:rdf="http://www.w3.org/1999/02/22-rdf-syntax-ns#"
   xmlns:svg="http://www.w3.org/2000/svg"
   xmlns="http://www.w3.org/2000/svg"
   xmlns:sodipodi="http://sodipodi.sourceforge.net/DTD/sodipodi-0.dtd"
   xmlns:inkscape="http://www.inkscape.org/namespaces/inkscape"
   width="32"
   height="32"
   version="1"
   id="svg12"
   sodipodi:docname="linphone.svg"
   inkscape:version="0.92.1 r">
  <metadata
     id="metadata18">
    <rdf:RDF>
      <cc:Work
         rdf:about="">
        <dc:format>image/svg+xml</dc:format>
        <dc:type
           rdf:resource="http://purl.org/dc/dcmitype/StillImage" />
      </cc:Work>
    </rdf:RDF>
  </metadata>
  <defs
     id="defs16" />
  <sodipodi:namedview
     pagecolor="#ffffff"
     bordercolor="#666666"
     borderopacity="1"
     objecttolerance="10"
     gridtolerance="10"
     guidetolerance="10"
     inkscape:pageopacity="0"
     inkscape:pageshadow="2"
     inkscape:window-width="640"
     inkscape:window-height="480"
     id="namedview14"
     showgrid="false"
     inkscape:zoom="8.9375"
     inkscape:cx="-5.3706294"
     inkscape:cy="16"
     inkscape:current-layer="svg12" />
  <rect
     style="opacity:1;fill:#f57f38;fill-opacity:1;fill-rule:evenodd;stroke:none;stroke-width:1.03534329;stroke-linecap:round;stroke-linejoin:bevel;stroke-miterlimit:4;stroke-dasharray:none;stroke-dashoffset:0;stroke-opacity:1"
     id="rect4497-3"
     width="28.203388"
     height="28.203388"
     x="1.8983059"
     y="1.8983059"
     ry="5.575182"
     inkscape:export-filename="/home/ramil/3.png"
     inkscape:export-xdpi="71"
     inkscape:export-ydpi="71" />
  <g
     id="g4503"
     transform="matrix(1.131362,0,0,1.131362,57.266967,17.265818)"
     style="stroke-width:0.88389033">
    <path
       inkscape:connector-curvature="0"
       id="path4"
       d="m -36.475506,-9.6363745 c -0.237845,0 -0.471823,0.011961 -0.704643,0.030894 -2.105711,0.14975 -3.797617,0.9293157 -5.319879,2.4490218 -1.254142,1.2520737 -2.031335,2.7970033 -2.338512,4.4144175 -0.0283,0.1478153 -0.0507,0.2975032 -0.0713,0.4479771 -0.01245,0.092372 -0.02625,0.184196 -0.03565,0.2768672 -0.02065,0.1987439 -0.03235,0.399796 -0.03921,0.6024519 -0.0015,0.051068 -0.0041,0.1021937 -0.0047,0.1532866 -0.0012,0.046846 -0.0036,0.095138 -0.0036,0.1425922 0,4.6399739 3.673651,8.3868755 8.282232,8.5103794 0.03579,0.00103 0.07233,0.00304 0.108133,0.00359 0.0432,9.125e-4 0.08456,0.00359 0.127145,0.00359 0.205095,0 0.408185,-0.010842 0.609581,-0.024956 0.02527,-0.00189 0.04961,-0.00262 0.07486,-0.00475 3.04282,-0.2401329 5.61952,-2.0673802 6.921665,-4.6568247 0,0 0.0012,-0.00119 0.0012,-0.00119 0.08423,-0.1676368 0.170321,-0.3347674 0.243596,-0.5085793 0.398729,-0.9004224 0.615373,-1.8562159 0.654736,-2.85659736 0.0017,-0.0323179 0.0022,-0.0650227 0.0036,-0.0974379 0.0026,-0.0955664 0.0078,-0.18999764 0.0071,-0.28637324 -6.1e-5,-0.027378 0.0012,-0.053424 0.0012,-0.080802 v -7.240176 c 0,-0.707805 -0.569583,-1.2773885 -1.277388,-1.2773885 h -7.175954 z"
       style="fill:#ffffff;stroke-width:0.88389033" />
    <path
       inkscape:connector-curvature="0"
       id="path8"
       d="m -35.639878,-5.9851387 c -0.213777,0 -0.391172,0.1707273 -0.39321,0.3776145 -0.0013,0.2078297 0.17619,0.3825968 0.391483,0.383667 0.929138,0.00698 1.693098,0.3005999 2.309096,0.8796447 0.608759,0.5736731 0.926097,1.3684985 0.934189,2.4057005 v 9.126e-4 c 0.0022,0.2063269 0.179737,0.3767325 0.394074,0.3767325 2.3e-5,0 0.0041,-8.518e-4 0.0043,-9.126e-4 0.214818,-0.00195 0.393217,-0.1751565 0.391477,-0.3828037 v -9.125e-4 c -0.0049,-0.6052877 -0.103427,-1.161301 -0.29568,-1.6503982 -0.194685,-0.4942675 -0.490365,-0.9315351 -0.876086,-1.2953162 -0.762317,-0.716673 -1.735747,-1.0869024 -2.856408,-1.0948107 h -0.0035 z m -3.990818,0.8943657 c -0.149908,-0.025473 -0.312294,0.00237 -0.474443,0.08036 h -0.01297 l -0.01815,0.010373 c -0.300425,0.1708187 -0.582112,0.3997944 -0.845972,0.6869866 l -0.02074,0.022468 v 0.02074 c -0.182518,0.2275757 -0.303224,0.4566729 -0.330966,0.6861346 -0.0089,0.038889 -0.0086,0.073948 -0.0086,0.1114705 0,0.1043955 0.01534,0.2104883 0.04753,0.314537 l 0.0086,0.029379 0.01815,0.010373 c 0.104211,0.3575151 0.3407,0.9138934 0.858139,1.8561349 0.344649,0.62451109 0.696793,1.14615377 1.046559,1.58567186 0.18424,0.23099485 0.392949,0.47149828 0.635163,0.71375324 0.0029,0.00292 0.01309,0.013312 0.0242,0.023332 0.0038,0.00383 0.0092,0.011827 0.02247,0.025066 l 0.02419,0.024196 h 0.0018 c 0.0085,0.00853 0.01428,0.014717 0.01556,0.016421 l 0.0043,0.00517 0.0043,0.00438 c 0.242225,0.2395604 0.481135,0.4495066 0.714679,0.6325412 0.438877,0.3497405 0.960471,0.704628 1.584926,1.0499163 0.943375,0.5203894 1.504983,0.7556058 1.860589,0.8580484 l 0.01297,0.015557 0.02161,0.00778 c 0.10075,0.033583 0.205589,0.049091 0.309381,0.047528 0.0421,0.00225 0.07938,-6.084e-4 0.114937,-0.00864 0.243571,-0.028479 0.484744,-0.1437913 0.723319,-0.3439132 l 0.0026,-0.00347 0.0026,-0.0017 c 0.0037,-0.00365 0.0015,-0.00189 0.0035,-0.00438 0.0021,-0.00189 0.003,-0.00414 0.0052,-0.00608 0.282404,-0.2577191 0.510338,-0.5380127 0.681826,-0.8381569 l 0.01123,-0.019012 v -0.018148 c 0.157513,-0.3279691 0.09512,-0.6627754 -0.160737,-0.8762381 -0.0063,-0.00535 -0.129205,-0.1081304 -0.281729,-0.2324429 -0.15598,-0.1270922 -0.340968,-0.2764856 -0.465865,-0.3681243 -0.236313,-0.17479752 -0.601556,-0.4009015 -0.809772,-0.51673962 h -8.52e-4 c -0.399885,-0.22392593 -0.817742,-0.0937924 -1.001598,0.1443079 l -0.322345,0.40354192 c -0.130002,0.1637862 -0.389768,0.1481645 -0.396667,0.147763 -2.186384,-0.56244339 -2.774213,-2.7607212 -2.778411,-2.7763557 -3.9e-4,-0.00688 -0.0161,-0.2670805 0.147779,-0.3992224 l 0.40185,-0.3214471 c 0.238691,-0.1827912 0.372884,-0.6005489 0.147778,-1.001493 -0.117432,-0.2072882 -0.344533,-0.5752549 -0.516787,-0.8096866 h -8.52e-4 c -0.09308,-0.1253771 -0.242141,-0.3114044 -0.369295,-0.4675626 -0.06327,-0.078048 -0.12107,-0.1494664 -0.163049,-0.2004445 -0.02129,-0.025492 -0.03833,-0.046049 -0.0505,-0.060468 -0.0061,-0.00721 -0.01114,-0.012277 -0.01469,-0.01642 -0.0018,-0.00207 -0.0027,-0.00347 -0.0043,-0.00517 -0.111336,-0.1322508 -0.253092,-0.2127936 -0.409449,-0.2393779 z m 4.014181,0.8762384 c -0.210851,-0.014869 -0.400305,0.1431093 -0.415679,0.3465105 -0.01539,0.2036263 0.148892,0.3852372 0.359506,0.4000802 0.520833,0.036802 0.872314,0.1899143 1.136418,0.4692107 v 9.126e-4 c 0.269585,0.2844793 0.39225,0.6093639 0.381974,1.0533226 v 0.0017 c -0.0046,0.204301 0.166815,0.3774443 0.378518,0.3819215 h 0.0095 c 0.208612,0 0.382515,-0.1646629 0.387157,-0.3663849 0.01427,-0.6102765 -0.18452,-1.1547924 -0.585062,-1.576973 -0.403364,-0.4242487 -0.973429,-0.6619231 -1.653005,-0.7102246 z"
       style="fill:#f57f38;fill-opacity:1;stroke-width:0.88389033" />
  </g>
</svg>
