<?xml version="1.0" encoding="UTF-8" standalone="no"?>
<svg
   xmlns:dc="http://purl.org/dc/elements/1.1/"
   xmlns:cc="http://creativecommons.org/ns#"
   xmlns:rdf="http://www.w3.org/1999/02/22-rdf-syntax-ns#"
   xmlns:svg="http://www.w3.org/2000/svg"
   xmlns="http://www.w3.org/2000/svg"
   xmlns:sodipodi="http://sodipodi.sourceforge.net/DTD/sodipodi-0.dtd"
   xmlns:inkscape="http://www.inkscape.org/namespaces/inkscape"
   width="32"
   version="1.1"
   height="32"
   viewBox="0 0 32 32"
   id="svg16"
   sodipodi:docname="lollypop.svg"
   inkscape:version="0.92.1 r">
  <metadata
     id="metadata22">
    <rdf:RDF>
      <cc:Work
         rdf:about="">
        <dc:format>image/svg+xml</dc:format>
        <dc:type
           rdf:resource="http://purl.org/dc/dcmitype/StillImage" />
      </cc:Work>
    </rdf:RDF>
  </metadata>
  <defs
     id="defs20" />
  <sodipodi:namedview
     pagecolor="#ffffff"
     bordercolor="#666666"
     borderopacity="1"
     objecttolerance="10"
     gridtolerance="10"
     guidetolerance="10"
     inkscape:pageopacity="0"
     inkscape:pageshadow="2"
     inkscape:window-width="640"
     inkscape:window-height="480"
     id="namedview18"
     showgrid="false"
     inkscape:zoom="4.75"
     inkscape:cx="-40.729853"
     inkscape:cy="26.04268"
     inkscape:current-layer="svg16" />
  <g
     id="g4632"
     transform="translate(48.421875,-16.84182)">
    <path
       id="path4540"
       d="m -44.892578,45.3125 24.943359,-24.943359 c -1.007714,-1.007715 -2.400987,-1.628907 -3.945312,-1.628907 h -17.052735 c -3.08865,0 -5.576172,2.487521 -5.576172,5.576172 v 17.052735 c 0,1.543739 0.623821,2.935734 1.63086,3.943359 z"
       style="opacity:1;fill:#f8b417;fill-opacity:1;fill-rule:evenodd;stroke:none;stroke-width:1.03534329;stroke-linecap:round;stroke-linejoin:bevel;stroke-miterlimit:4;stroke-dasharray:none;stroke-dashoffset:0;stroke-opacity:1"
       inkscape:connector-curvature="0" />
    <path
       id="path4621"
       d="m -31.132812,46.943359 v -8.230468 h -2.285157 v 8.230468 z"
       style="opacity:1;fill:#cccccc;fill-opacity:1;fill-rule:evenodd;stroke:none;stroke-width:1.03534329;stroke-linecap:round;stroke-linejoin:bevel;stroke-miterlimit:4;stroke-dasharray:none;stroke-dashoffset:0;stroke-opacity:1"
       inkscape:connector-curvature="0" />
    <path
       id="path4545"
       d="M -32.744141,33.164062 -44.892578,45.3125 v 0.002 c 1.007714,1.007714 2.400987,1.628906 3.945312,1.628906 h 7.529297 v -8.230468 h 2.285157 v 8.230468 h 7.238281 c 1.376411,0 2.590266,-0.548517 3.560547,-1.36914 z"
       style="opacity:1;fill:#662c8f;fill-opacity:1;fill-rule:evenodd;stroke:none;stroke-width:1.03534329;stroke-linecap:round;stroke-linejoin:bevel;stroke-miterlimit:4;stroke-dasharray:none;stroke-dashoffset:0;stroke-opacity:1"
       inkscape:connector-curvature="0" />
    <path
       id="rect4497-3-3"
       d="m -32.744141,33.164062 12.410157,12.410157 c 1.207016,-1.020846 2.013672,-2.49284 2.013672,-4.205078 V 24.316406 c 0,-1.544325 -0.621193,-2.939551 -1.628907,-3.947265 z"
       style="opacity:1;fill:#02a8d8;fill-opacity:1;fill-rule:evenodd;stroke:none;stroke-width:1.03534329;stroke-linecap:round;stroke-linejoin:bevel;stroke-miterlimit:4;stroke-dasharray:none;stroke-dashoffset:0;stroke-opacity:1"
       inkscape:connector-curvature="0" />
    <circle
       r="7.9577847"
       cy="33.119366"
       cx="-32.274708"
       id="path4554"
       style="opacity:1;fill:#496220;fill-opacity:1;fill-rule:evenodd;stroke:none;stroke-width:0.10000002;stroke-linecap:round;stroke-linejoin:bevel;stroke-miterlimit:4;stroke-dasharray:none;stroke-dashoffset:0;stroke-opacity:1" />
    <path
       id="path4547"
       d="m -38.722981,23.648299 a 0.4865766,0.4865766 0 0 0 -0.423227,0.72219 l 1.148341,2.149026 a 8.745685,8.745685 0 0 0 -3.012293,6.363751 h 17.47144 a 8.745685,8.745685 0 0 0 -3.013753,-6.360827 l 1.1498,-2.15195 a 0.4865766,0.4865766 0 0 0 -0.423226,-0.72219 0.4865766,0.4865766 0 0 0 -0.434923,0.263146 l -1.073048,2.008682 a 8.745685,8.745685 0 0 0 -4.942032,-1.546714 8.745685,8.745685 0 0 0 -4.94349,1.537212 l -1.068666,-1.99918 a 0.4865766,0.4865766 0 0 0 -0.434923,-0.263146 z m -2.275483,10.101156 a 8.745685,8.745685 0 0 0 8.722562,8.115865 8.745685,8.745685 0 0 0 8.713791,-8.115865 z"
       style="opacity:1;fill:#92c642;fill-opacity:1;fill-rule:evenodd;stroke:none;stroke-width:0.1;stroke-linecap:round;stroke-linejoin:bevel;stroke-miterlimit:4;stroke-dasharray:none;stroke-dashoffset:0;stroke-opacity:1"
       inkscape:connector-curvature="0" />
    <g
       transform="matrix(0.37425227,0,0,0.37425227,42.871207,26.835868)"
       id="g4575"
       style="stroke-width:2.67199445">
      <circle
         style="opacity:1;fill:#ffffff;fill-opacity:1;fill-rule:evenodd;stroke:none;stroke-width:0.26719946;stroke-linecap:round;stroke-linejoin:bevel;stroke-miterlimit:4;stroke-dasharray:none;stroke-dashoffset:0;stroke-opacity:1"
         id="path4556"
         cx="-210"
         cy="7.5263157"
         r="3.6842105" />
      <circle
         style="opacity:1;fill:#ffffff;fill-opacity:1;fill-rule:evenodd;stroke:none;stroke-width:0.26719946;stroke-linecap:round;stroke-linejoin:bevel;stroke-miterlimit:4;stroke-dasharray:none;stroke-dashoffset:0;stroke-opacity:1"
         id="path4556-6"
         cx="-191.57895"
         cy="7.5263157"
         r="3.6842105" />
    </g>
  </g>
</svg>
