<?xml version="1.0" encoding="UTF-8" standalone="no"?>
<svg
   xmlns:dc="http://purl.org/dc/elements/1.1/"
   xmlns:cc="http://creativecommons.org/ns#"
   xmlns:rdf="http://www.w3.org/1999/02/22-rdf-syntax-ns#"
   xmlns:svg="http://www.w3.org/2000/svg"
   xmlns="http://www.w3.org/2000/svg"
   xmlns:sodipodi="http://sodipodi.sourceforge.net/DTD/sodipodi-0.dtd"
   xmlns:inkscape="http://www.inkscape.org/namespaces/inkscape"
   width="32"
   height="32"
   version="1.1"
   viewBox="0 0 32 32"
   id="svg40"
   sodipodi:docname="lugaru.svg"
   inkscape:version="0.92.1 r">
  <metadata
     id="metadata46">
    <rdf:RDF>
      <cc:Work
         rdf:about="">
        <dc:format>image/svg+xml</dc:format>
        <dc:type
           rdf:resource="http://purl.org/dc/dcmitype/StillImage" />
      </cc:Work>
    </rdf:RDF>
  </metadata>
  <defs
     id="defs44" />
  <sodipodi:namedview
     pagecolor="#ffffff"
     bordercolor="#666666"
     borderopacity="1"
     objecttolerance="10"
     gridtolerance="10"
     guidetolerance="10"
     inkscape:pageopacity="0"
     inkscape:pageshadow="2"
     inkscape:window-width="640"
     inkscape:window-height="480"
     id="namedview42"
     showgrid="false"
     inkscape:zoom="8.9375"
     inkscape:cx="-35.322952"
     inkscape:cy="18.548813"
     inkscape:current-layer="svg40" />
  <rect
     style="opacity:1;fill:#7e572d;fill-opacity:1;fill-rule:evenodd;stroke:none;stroke-width:1.03534329;stroke-linecap:round;stroke-linejoin:bevel;stroke-miterlimit:4;stroke-dasharray:none;stroke-dashoffset:0;stroke-opacity:1"
     id="rect4497-6"
     width="28.203388"
     height="28.203388"
     x="1.8983059"
     y="1.8983059"
     ry="5.575182" />
  <circle
     style="fill:#8f6943;stroke-width:1"
     cx="15.911801"
     cy="24.881119"
     r="3.5524476"
     id="circle4" />
  <rect
     style="fill:#ffffff;stroke-width:1"
     width="1.3321679"
     height="2.6643357"
     x="14.579634"
     y="24.881119"
     rx="0.33304197"
     ry="0.33304197"
     id="rect10" />
  <rect
     style="fill:#ffffff;stroke-width:1"
     width="1.3321679"
     height="2.6643357"
     x="15.911801"
     y="24.881119"
     rx="0.33304197"
     ry="0.33304197"
     id="rect14" />
  <path
     inkscape:connector-curvature="0"
     style="fill:#b08458;stroke-width:1"
     d="M 5.6516806,3.5716373 C 5.5582366,3.5637847 5.4742538,3.5665963 5.39843,3.5803102 5.2973316,3.5985954 5.2112364,3.6348526 5.1399756,3.6913242 4.5566665,4.1535769 4.7390851,5.9897715 5.7488179,9.8092356 6.3150247,11.950997 6.781812,13.090557 7.5857524,14.298363 c 0.5278867,0.793056 0.7828814,1.09498 1.6548022,1.956622 0.7808784,0.860253 1.7664384,2.063167 1.7866314,3.075435 -0.224233,1.998257 -1.6874142,3.044864 -1.7762238,4.745847 0,2.059477 0.9598868,3.469188 3.0199278,3.469188 1.292142,0.129299 2.484052,-1.543118 3.640911,-1.776224 1.15686,0.233106 2.348769,1.905523 3.640912,1.776224 2.060041,0 3.019928,-1.409711 3.019928,-3.469188 -0.08881,-1.700983 -1.551991,-2.74759 -1.776224,-4.745847 0.02019,-1.012268 1.005752,-2.215183 1.786631,-3.075435 0.871921,-0.861642 1.126916,-1.163566 1.654802,-1.956622 0.803941,-1.207806 1.270728,-2.347367 1.836935,-4.4891274 1.009732,-3.8194641 1.192151,-5.6556587 0.608842,-6.1179114 -0.07126,-0.056472 -0.157356,-0.092729 -0.258454,-0.111014 -0.07583,-0.013712 -0.159808,-0.016524 -0.253251,-0.00868 -0.280333,0.023558 -0.641476,0.1442372 -1.092793,0.3642646 -0.895028,0.4363571 -1.77026,1.0800812 -2.75627,2.0294784 -1.479568,1.4246182 -2.008171,2.24123 -3.750191,5.7866038 -0.520302,1.056334 -1.158751,2.083408 -1.939276,3.205529 -0.226822,0.156153 -0.721591,0.154379 -0.721591,0.154379 0,0 -0.494769,0.0018 -0.721591,-0.154379 C 14.409685,13.835388 13.771237,12.808314 13.250935,11.75198 11.508915,8.2066064 10.980312,7.3899946 9.5007437,5.9653764 8.514734,5.0159792 7.6395018,4.3722551 6.7444746,3.9359019 6.2931568,3.7158745 5.9320124,3.5951952 5.6516806,3.5716373 Z"
     id="path16" />
  <path
     inkscape:connector-curvature="0"
     style="opacity:1;stroke-width:1;fill:#7c5d3e;fill-opacity:1"
     d="m 6.0802786,5.0018108 c 0.0019,0.133876 -0.01472,0.1830194 0.00364,0.3678983 0.085933,0.8652227 0.369934,2.2429034 0.866929,4.1233766 0.5509125,2.0844783 0.9437446,3.0285143 1.6707202,4.1209483 h -0.00124 c 0.5058549,0.760165 0.6394156,0.915172 1.4946632,1.76057 l 0.02428,0.02307 0.02186,0.0255 c 0.365819,0.403114 0.814781,0.867592 1.206901,1.413313 0.63894,-0.716713 1.435211,-1.275682 2.326382,-1.633081 -0.62753,-1.013745 -1.140407,-2.050585 -1.559016,-2.900691 v -0.0012 C 10.404098,8.776917 10.054069,8.2264621 8.638569,6.8631583 7.7146753,5.9733261 6.9473985,5.4176428 6.1992688,5.0528066 6.0960297,5.0024636 6.1628618,5.0317034 6.0802786,5.0018108 Z m 19.8398044,0.00607 c -0.05551,0.024181 -0.05626,0.014336 -0.118991,0.044925 -0.74813,0.3648362 -1.515406,0.9205196 -2.4393,1.8103518 -1.4155,1.3633038 -1.765529,1.9137588 -3.496856,5.4383394 v 0.0012 c -0.418805,0.850503 -0.932296,1.887711 -1.56023,2.901905 0.891608,0.357236 1.68831,0.916216 2.327595,1.633081 0.392251,-0.546073 0.840893,-1.011218 1.206901,-1.414527 l 0.02186,-0.0255 0.02428,-0.02307 c 0.855247,-0.845398 0.988807,-1.000405 1.494663,-1.76057 h -0.0012 c 0.726947,-1.092435 1.119808,-2.03647 1.670721,-4.1209478 0.496995,-1.8804733 0.780996,-3.258154 0.866928,-4.1233767 0.01808,-0.1818284 0.0016,-0.2292682 0.0036,-0.3618275 z"
     id="path18" />
  <path
     inkscape:connector-curvature="0"
     style="fill-opacity:0;stroke-width:1"
     d="M 5.3979059,3.5799986 C 5.296809,3.5982885 5.2117581,3.6352176 5.1404984,3.6917037 4.5571979,4.1540766 4.7390877,5.9907455 5.7488057,9.8112026 c 0.5661986,2.1423174 1.0331356,3.2831544 1.837064,4.4912744 0.5278793,0.793263 0.783028,1.094189 1.6549357,1.956055 0.7808676,0.860477 1.7658756,2.064217 1.7860676,3.076747 0,0.445028 -0.219895,0.79599 -0.579167,1.512877 -0.5813419,1.160059 -0.6177148,1.811734 -0.6641592,3.041536 -0.076838,2.034705 0.2217262,3.290721 1.2493982,4.009243 0.574697,0.401814 1.053862,0.527729 2.009478,0.526957 1.086074,0.07471 1.948697,-0.416261 2.957757,-0.596165 1.009061,0.179904 1.871684,0.670874 2.957758,0.596165 0.955615,7.46e-4 1.434781,-0.125143 2.009479,-0.526957 1.027671,-0.718522 1.326235,-1.974538 1.249397,-4.009243 -0.04645,-1.229802 -0.08282,-1.881477 -0.664159,-3.041536 -0.359272,-0.716887 -0.579167,-1.067849 -0.579167,-1.512877 0.0202,-1.01253 1.0052,-2.21627 1.786067,-3.076747 0.871909,-0.861866 1.127057,-1.162792 1.654936,-1.956055 0.803928,-1.20812 1.270865,-2.348957 1.837064,-4.4912744 1.009718,-3.8204571 1.191608,-5.657126 0.608307,-6.1194989 -0.285038,-0.2259447 -0.801608,-0.1472101 -1.60394,0.2440515 -0.895014,0.4364666 -1.770207,1.0816896 -2.756203,2.0313336 -1.479546,1.4249885 -2.008627,2.2405158 -3.75062,5.7868122 -0.520295,1.056608 -1.158543,2.351371 -1.939057,3.473786 -0.226817,0.156208 -0.809862,0.159059 -0.809862,0.159059 0,0 -0.583044,-0.0028 -0.809861,-0.159059 C 14.409805,14.105272 13.771557,12.810509 13.251262,11.753901 11.509269,8.2076046 10.980188,7.3920773 9.5006414,5.9670888 8.514646,5.0174448 7.6394527,4.3722218 6.7444384,3.9357552 6.1426901,3.642309 5.7011967,3.5251288 5.3979059,3.5799986 Z"
     id="path20" />
  <path
     inkscape:connector-curvature="0"
     style="fill-opacity:0;stroke-width:1"
     d="m 18.473764,25.07059 c 0,1.170436 -1.110387,2.119261 -2.480119,2.119261 -1.369731,0 -2.480119,-0.948825 -2.480118,-2.119261 0,-1.170434 1.110387,-5.3407 2.480118,-5.3407 1.369731,0 2.480119,4.170266 2.480119,5.3407 z"
     id="path22" />
  <path
     inkscape:connector-curvature="0"
     style="fill:#bf3667;stroke-width:1"
     d="m 15.911801,25.769231 c -1.42952,-0.08774 -2.657092,-1.361371 -2.07024,-1.989042 0.626205,-0.494961 1.412149,-0.681099 2.07024,-0.675156 0.658092,-0.0059 1.444036,0.180195 2.070241,0.675156 0.586852,0.627671 -0.640719,1.90131 -2.070241,1.989042 z"
     id="path24" />
  <path
     inkscape:connector-curvature="0"
     style="opacity:0.2;stroke-width:1"
     d="m 13.093037,23.105043 c -0.844438,0 -2.064138,-0.596432 -2.064138,-1.332167 0,-0.735736 -0.07994,-1.332168 0.764496,-1.332168 2.17054,0.225019 2.293487,2.664335 1.299642,2.664335 z"
     id="path26" />
  <path
     inkscape:connector-curvature="0"
     style="fill:#ffffff;stroke-width:1"
     d="m 13.093037,22.216543 c -0.844438,0 -2.064138,-0.596432 -2.064138,-1.332167 0,-0.735736 -0.07994,-1.332168 0.764496,-1.332168 2.17054,0.225019 2.293487,2.664335 1.299642,2.664335 z"
     id="path28" />
  <circle
     style="fill:#323232;stroke-width:1"
     cx="13.247466"
     cy="21.772728"
     r="0.44405594"
     id="circle30" />
  <path
     inkscape:connector-curvature="0"
     style="opacity:0.2;stroke-width:1"
     d="m 18.730566,23.105043 c 0.844438,0 2.064138,-0.596432 2.064138,-1.332167 0,-0.735736 0.07994,-1.332168 -0.764496,-1.332168 -2.17054,0.225019 -2.293487,2.664335 -1.299642,2.664335 z"
     id="path32" />
  <path
     inkscape:connector-curvature="0"
     style="fill:#ffffff;stroke-width:1"
     d="m 18.730566,22.216543 c 0.844438,0 2.064138,-0.596432 2.064138,-1.332167 0,-0.735736 0.07994,-1.332168 -0.764496,-1.332168 -2.17054,0.225019 -2.293487,2.664335 -1.299642,2.664335 z"
     id="path34" />
  <circle
     style="fill:#323232;stroke-width:1"
     cx="-18.576138"
     cy="21.772728"
     r="0.44405594"
     transform="scale(-1,1)"
     id="circle36" />
</svg>
