<?xml version="1.0" encoding="UTF-8" standalone="no"?>
<svg
   xmlns:dc="http://purl.org/dc/elements/1.1/"
   xmlns:cc="http://creativecommons.org/ns#"
   xmlns:rdf="http://www.w3.org/1999/02/22-rdf-syntax-ns#"
   xmlns:svg="http://www.w3.org/2000/svg"
   xmlns="http://www.w3.org/2000/svg"
   xmlns:sodipodi="http://sodipodi.sourceforge.net/DTD/sodipodi-0.dtd"
   xmlns:inkscape="http://www.inkscape.org/namespaces/inkscape"
   height="32"
   width="32"
   version="1"
   id="svg14"
   sodipodi:docname="mandrivaupdate.svg"
   inkscape:version="0.92.1 r">
  <metadata
     id="metadata20">
    <rdf:RDF>
      <cc:Work
         rdf:about="">
        <dc:format>image/svg+xml</dc:format>
        <dc:type
           rdf:resource="http://purl.org/dc/dcmitype/StillImage" />
        <dc:title>
  Compiz
 </dc:title>
      </cc:Work>
    </rdf:RDF>
  </metadata>
  <defs
     id="defs18" />
  <sodipodi:namedview
     pagecolor="#ffffff"
     bordercolor="#666666"
     borderopacity="1"
     objecttolerance="10"
     gridtolerance="10"
     guidetolerance="10"
     inkscape:pageopacity="0"
     inkscape:pageshadow="2"
     inkscape:window-width="1680"
     inkscape:window-height="963"
     id="namedview16"
     showgrid="false"
     inkscape:zoom="3.6875"
     inkscape:cx="0.37853734"
     inkscape:cy="30.132106"
     inkscape:window-x="0"
     inkscape:window-y="0"
     inkscape:window-maximized="1"
     inkscape:current-layer="svg14" />
  <title
     id="title2">
  Compiz
 </title>
  <rect
     style="opacity:1;fill:#ff8a00;fill-opacity:1;fill-rule:evenodd;stroke:none;stroke-width:1.03534329;stroke-linecap:round;stroke-linejoin:bevel;stroke-miterlimit:4;stroke-dasharray:none;stroke-dashoffset:0;stroke-opacity:1"
     id="rect4497-3-3"
     width="28.203388"
     height="28.203388"
     x="1.8983059"
     y="1.8983059"
     ry="5.575182" />
  <path
     style="fill:#ffffff;stroke-width:0.04057383"
     d="m 10.367067,23.234695 c -1.1228824,-1.691264 -2.0428204,-3.10783 -2.0443094,-3.147926 -0.0022,-0.05783 0.68094,-0.386801 3.3040614,-1.591221 1.818722,-0.835075 3.32959,-1.518905 3.357485,-1.519621 0.0279,-7.18e-4 0.05072,0.0347 0.05072,0.07871 0,0.04401 -0.181905,0.741328 -0.404233,1.549605 -0.286225,1.040576 -0.392084,1.484235 -0.362616,1.519742 0.06654,0.08017 0.691337,0.290762 1.124622,0.37906 0.59175,0.120591 1.481618,0.176537 2.038517,0.128163 1.706437,-0.148229 3.506409,-0.951096 5.145673,-2.295199 0.511443,-0.419354 0.536022,-0.437916 0.554887,-0.41905 0.0294,0.0294 -0.33479,0.871816 -0.539819,1.248656 -0.355994,0.654307 -0.686807,1.13263 -1.192605,1.724388 -1.270858,1.48684 -2.878209,2.37953 -4.830514,2.68277 -0.54308,0.08435 -1.872913,0.09496 -2.446824,0.01951 -0.20084,-0.02641 -0.457629,-0.0586 -0.570641,-0.07154 l -0.205477,-0.02353 -0.211688,0.704797 c -0.418359,1.392893 -0.642813,2.0801 -0.683864,2.093785 -0.02297,0.0077 -0.96049,-1.369839 -2.083372,-3.061102 z m 6.509168,-8.197471 c 0.08385,-0.285429 0.836659,-3.04781 0.836659,-3.070075 0,-0.103543 -0.920346,-0.39273 -1.569762,-0.493245 -0.599888,-0.09285 -1.727948,-0.09404 -2.244178,-0.0024 -1.610698,0.286003 -3.272966,1.110572 -4.7877134,2.374947 -0.189682,0.158331 -0.358571,0.287898 -0.375307,0.28793 -0.0563,1.21e-4 -0.03124,-0.08435 0.154231,-0.519838 0.444112,-1.042789 1.075876,-1.987245 1.8947094,-2.832502 1.276651,-1.3178452 2.703471,-2.0550782 4.554451,-2.3532672 0.621267,-0.100084 1.910416,-0.09963 2.669886,9.74e-4 0.308026,0.04079 0.571595,0.06262 0.585707,0.04851 0.01411,-0.01411 0.21244,-0.629944 0.440725,-1.368513 0.228285,-0.738568 0.435069,-1.362858 0.45952,-1.387308 0.03223,-0.03223 0.06567,-0.02257 0.121579,0.03512 0.154255,0.159145 4.060506,6.1037422 4.060506,6.1793442 0,0.04279 -0.02282,0.09638 -0.05072,0.119094 -0.0279,0.02271 -1.155386,0.54327 -2.505537,1.156796 -1.350152,0.613527 -2.827548,1.290993 -3.283103,1.50548 -0.844366,0.397549 -0.999895,0.449137 -0.961655,0.318973 z"
     id="path4502"
     inkscape:connector-curvature="0" />
</svg>
