<?xml version="1.0" encoding="UTF-8" standalone="no"?>
<svg
   xmlns:dc="http://purl.org/dc/elements/1.1/"
   xmlns:cc="http://creativecommons.org/ns#"
   xmlns:rdf="http://www.w3.org/1999/02/22-rdf-syntax-ns#"
   xmlns:svg="http://www.w3.org/2000/svg"
   xmlns="http://www.w3.org/2000/svg"
   xmlns:sodipodi="http://sodipodi.sourceforge.net/DTD/sodipodi-0.dtd"
   xmlns:inkscape="http://www.inkscape.org/namespaces/inkscape"
   width="32"
   height="32"
   version="1"
   id="svg20"
   sodipodi:docname="mate-inhibit-applet.svg"
   inkscape:version="0.92.1 r">
  <metadata
     id="metadata26">
    <rdf:RDF>
      <cc:Work
         rdf:about="">
        <dc:format>image/svg+xml</dc:format>
        <dc:type
           rdf:resource="http://purl.org/dc/dcmitype/StillImage" />
      </cc:Work>
    </rdf:RDF>
  </metadata>
  <defs
     id="defs24" />
  <sodipodi:namedview
     pagecolor="#ffffff"
     bordercolor="#666666"
     borderopacity="1"
     objecttolerance="10"
     gridtolerance="10"
     guidetolerance="10"
     inkscape:pageopacity="0"
     inkscape:pageshadow="2"
     inkscape:window-width="640"
     inkscape:window-height="480"
     id="namedview22"
     showgrid="false"
     inkscape:zoom="25.279067"
     inkscape:cx="13.4553"
     inkscape:cy="11.875361"
     inkscape:current-layer="svg20" />
  <rect
     style="opacity:1;fill:#8e8e8e;fill-opacity:1;fill-rule:evenodd;stroke:none;stroke-width:1.03534329;stroke-linecap:round;stroke-linejoin:bevel;stroke-miterlimit:4;stroke-dasharray:none;stroke-dashoffset:0;stroke-opacity:1"
     id="rect4497-3-3"
     width="28.203388"
     height="28.203388"
     x="1.8983059"
     y="1.8983059"
     ry="5.575182" />
  <rect
     style="opacity:1;fill:#474747;fill-opacity:1;fill-rule:nonzero;stroke:none;stroke-width:10.04598427;stroke-linecap:round;stroke-linejoin:bevel;stroke-miterlimit:4;stroke-dasharray:none;stroke-dashoffset:0;stroke-opacity:1"
     id="rect4493"
     width="20.895578"
     height="15.641833"
     x="5.5522108"
     y="8.1790829"
     ry="3.3625257"
     rx="3.3625257" />
  <rect
     style="opacity:1;fill:#232323;fill-opacity:1;fill-rule:nonzero;stroke:none;stroke-width:10.04598427;stroke-linecap:round;stroke-linejoin:bevel;stroke-miterlimit:4;stroke-dasharray:none;stroke-dashoffset:0;stroke-opacity:1"
     id="rect4493-3"
     width="19.017578"
     height="13.662251"
     x="6.4912109"
     y="9.1688747"
     ry="2.4445295"
     rx="2.5471909" />
  <path
     style="fill:#ffffff;fill-rule:evenodd;stroke-width:1.33333337"
     inkscape:connector-curvature="0"
     d="m 15.916058,12.800432 c -1.033689,0.0101 -2.074267,0.246246 -2.97468,0.756536 -0.358875,0.233758 -0.789683,0.535673 -1.114345,0.839859 -0.510835,0.50017 -0.948084,1.083525 -1.243493,1.737265 0.809806,1.786429 2.590114,3.095724 4.548563,3.28918 1.284659,0.145422 2.629146,-0.07656 3.758422,-0.712247 0.358864,-0.233757 0.789682,-0.535672 1.114345,-0.83986 0.510835,-0.501236 0.948084,-1.08459 1.243494,-1.737265 -0.809444,-1.786322 -2.590434,-3.095936 -4.548457,-3.288966 -0.260216,-0.03093 -0.522566,-0.04479 -0.783849,-0.04479 z m 0,1.333396 c 1.071154,-0.02373 2.019771,0.934571 1.999615,2.000041 0.03433,1.177586 -1.139087,2.193924 -2.299077,1.97402 -1.171508,-0.137546 -1.994389,-1.451881 -1.609077,-2.565159 0.246353,-0.819042 1.050465,-1.418394 1.908966,-1.408795 z m 0,1.333396 a 0.66653817,0.66668748 0 0 0 -0.666538,0.667605 0.66653817,0.66668748 0 0 0 0.666538,0.666538 0.66653817,0.66668748 0 0 0 0.666538,-0.666538 0.66653817,0.66668748 0 0 0 -0.666538,-0.665472 z"
     id="path16" />
</svg>
