<?xml version="1.0" encoding="UTF-8" standalone="no"?>
<svg
   xmlns:dc="http://purl.org/dc/elements/1.1/"
   xmlns:cc="http://creativecommons.org/ns#"
   xmlns:rdf="http://www.w3.org/1999/02/22-rdf-syntax-ns#"
   xmlns:svg="http://www.w3.org/2000/svg"
   xmlns="http://www.w3.org/2000/svg"
   xmlns:sodipodi="http://sodipodi.sourceforge.net/DTD/sodipodi-0.dtd"
   xmlns:inkscape="http://www.inkscape.org/namespaces/inkscape"
   height="32"
   viewBox="0 0 32 32"
   width="32"
   version="1.1"
   id="svg12"
   sodipodi:docname="mendeley-desktop.svg"
   inkscape:version="0.92.1 r">
  <metadata
     id="metadata18">
    <rdf:RDF>
      <cc:Work
         rdf:about="">
        <dc:format>image/svg+xml</dc:format>
        <dc:type
           rdf:resource="http://purl.org/dc/dcmitype/StillImage" />
      </cc:Work>
    </rdf:RDF>
  </metadata>
  <defs
     id="defs16" />
  <sodipodi:namedview
     pagecolor="#ffffff"
     bordercolor="#666666"
     borderopacity="1"
     objecttolerance="10"
     gridtolerance="10"
     guidetolerance="10"
     inkscape:pageopacity="0"
     inkscape:pageshadow="2"
     inkscape:window-width="640"
     inkscape:window-height="480"
     id="namedview14"
     showgrid="false"
     inkscape:zoom="8.9375"
     inkscape:cx="-5.2587413"
     inkscape:cy="16"
     inkscape:current-layer="svg12" />
  <rect
     style="opacity:1;fill:#be212e;fill-opacity:1;fill-rule:evenodd;stroke:none;stroke-width:1.03534329;stroke-linecap:round;stroke-linejoin:bevel;stroke-miterlimit:4;stroke-dasharray:none;stroke-dashoffset:0;stroke-opacity:1"
     id="rect4497-3-3"
     width="28.203388"
     height="28.203388"
     x="1.8983059"
     y="1.8983059"
     ry="5.575182" />
  <path
     d="m 10.348059,8.5017856 c -0.8707996,0.0277 -1.7116996,0.4297 -2.3557996,1.0389997 -0.6546,0.6189997 -1.1237,1.4699997 -1.2188,2.3849997 -0.0475,0.457 -0.0014,0.925 0.1446,1.359 0.146,0.434 0.3928,0.834 0.7207,1.143 0.3866,0.364 0.8704,0.594 1.3144,0.879 0.2221,0.142 0.4353,0.301 0.6192,0.494 0.1839,0.192 0.3376,0.421 0.4218,0.678 0.0749,0.228 0.0919,0.474 0.0589,0.712 -0.034,0.239 -0.1185996,0.47 -0.2424996,0.674 -0.2477,0.408 -0.6474,0.705 -1.0859,0.864 -0.5085,0.184 -1.0684,0.193 -1.5586,0.425 -0.3879,0.184 -0.7145,0.504 -0.918,0.893 -0.2034,0.389 -0.2838,0.847 -0.2343,1.287 0.0581,0.517 0.2973,1.008 0.6543,1.373 0.3569,0.365 0.8292,0.603 1.3242,0.682 0.7259,0.115 1.5016,-0.126 2.0287996,-0.657 0.264,-0.265 0.464,-0.597 0.577,-0.961 0.112,-0.363 0.135,-0.756 0.062,-1.13 -0.056,-0.286 -0.164,-0.557 -0.265,-0.829 -0.102,-0.271 -0.199,-0.549 -0.223,-0.839 -0.043,-0.513 0.145,-1.034 0.473,-1.42 0.327,-0.386 0.786,-0.64 1.269,-0.752 0.312,-0.073 0.636,-0.09 0.951,-0.033 0.315,0.056 0.62,0.185 0.875,0.384 0.255,0.2 0.459,0.471 0.572,0.782 0.114,0.31 0.134,0.66 0.043,0.978 -0.092,0.326 -0.29,0.607 -0.492,0.875 -0.201,0.268 -0.413,0.537 -0.533,0.854 -0.132,0.349 -0.145,0.742 -0.055,1.105 0.091,0.363 0.281,0.695 0.532,0.965 0.277,0.299 0.628,0.522 1.009,0.644 0.382,0.123 0.771,0.145 1.17,0.145 0.399,0 0.816,-0.022 1.198,-0.145 0.381,-0.122 0.732,-0.345 1.009,-0.644 0.251,-0.27 0.441,-0.602 0.532,-0.965 0.09,-0.363 0.077,-0.756 -0.055,-1.105 -0.12,-0.317 -0.332,-0.586 -0.533,-0.854 -0.202,-0.268 -0.4,-0.549 -0.492,-0.875 -0.091,-0.318 -0.071,-0.668 0.043,-0.978 0.113,-0.311 0.317,-0.582 0.572,-0.782 0.255,-0.199 0.56,-0.328 0.875,-0.384 0.315,-0.057 0.639,-0.04 0.951,0.033 0.483,0.112 0.942,0.366 1.269,0.752 0.328,0.386 0.516,0.907 0.473,1.42 -0.024,0.29 -0.121,0.568 -0.223,0.839 -0.101,0.272 -0.209,0.543 -0.265,0.829 -0.073,0.374 -0.05,0.767 0.062,1.13 0.113,0.364 0.313,0.696 0.577,0.961 0.527,0.531 1.303,0.772 2.029,0.657 0.495,-0.079 0.967,-0.317 1.324,-0.682 0.357,-0.365 0.596,-0.856 0.654,-1.373 0.05,-0.44 -0.031,-0.898 -0.234,-1.287 -0.204,-0.389 -0.53,-0.709 -0.918,-0.893 -0.49,-0.232 -1.05,-0.241 -1.559,-0.425 -0.438,-0.159 -0.838,-0.456 -1.086,-0.864 -0.123,-0.204 -0.208,-0.435 -0.242,-0.674 -0.033,-0.238 -0.016,-0.484 0.059,-0.712 0.084,-0.257 0.238,-0.486 0.422,-0.678 0.184,-0.193 0.397,-0.352 0.619,-0.494 0.444,-0.285 0.928,-0.515 1.314,-0.879 0.328,-0.309 0.575,-0.709 0.721,-1.143 0.146,-0.434 0.192,-0.902 0.145,-1.359 -0.095,-0.915 -0.565,-1.766 -1.219,-2.3849997 -0.644,-0.6092997 -1.485,-1.0112997 -2.356,-1.0389997 -0.435,-0.0139 -0.872,0.0643 -1.273,0.2402 -0.401,0.1759 -0.766,0.4499997 -1.043,0.7987997 -0.318,0.4 -0.518,0.8849997 -0.701,1.3669997 -0.183,0.483 -0.356,0.977 -0.633,1.408 -0.457,0.712 -1.179,1.387 -2.002,1.387 -0.823,0 -1.545,-0.675 -2.002,-1.387 -0.277,-0.431 -0.45,-0.925 -0.633,-1.408 -0.183,-0.482 -0.383,-0.9669997 -0.701,-1.3669997 -0.277,-0.3488 -0.642,-0.6228997 -1.043,-0.7987997 -0.401,-0.1759 -0.838,-0.2541 -1.273,-0.2402 z m 5.652,5.9979994 a 1,1 0 0 1 1,1 1,1 0 0 1 -1,1 1,1 0 0 1 -1,-1 1,1 0 0 1 1,-1 z"
     id="path6"
     inkscape:connector-curvature="0"
     style="fill:#ffffff" />
</svg>
