<?xml version="1.0" encoding="UTF-8" standalone="no"?>
<svg
   xmlns:dc="http://purl.org/dc/elements/1.1/"
   xmlns:cc="http://creativecommons.org/ns#"
   xmlns:rdf="http://www.w3.org/1999/02/22-rdf-syntax-ns#"
   xmlns:svg="http://www.w3.org/2000/svg"
   xmlns="http://www.w3.org/2000/svg"
   xmlns:sodipodi="http://sodipodi.sourceforge.net/DTD/sodipodi-0.dtd"
   xmlns:inkscape="http://www.inkscape.org/namespaces/inkscape"
   height="32"
   width="32"
   version="1"
   id="svg24"
   sodipodi:docname="milkytracker.svg"
   inkscape:version="0.92.1 r">
  <metadata
     id="metadata30">
    <rdf:RDF>
      <cc:Work
         rdf:about="">
        <dc:format>image/svg+xml</dc:format>
        <dc:type
           rdf:resource="http://purl.org/dc/dcmitype/StillImage" />
      </cc:Work>
    </rdf:RDF>
  </metadata>
  <defs
     id="defs28" />
  <sodipodi:namedview
     pagecolor="#ffffff"
     bordercolor="#666666"
     borderopacity="1"
     objecttolerance="10"
     gridtolerance="10"
     guidetolerance="10"
     inkscape:pageopacity="0"
     inkscape:pageshadow="2"
     inkscape:window-width="640"
     inkscape:window-height="480"
     id="namedview26"
     showgrid="false"
     inkscape:zoom="12.639534"
     inkscape:cx="-24.03667"
     inkscape:cy="17.777229"
     inkscape:current-layer="svg24" />
  <rect
     style="opacity:1;fill:#8e8e8e;fill-opacity:1;fill-rule:evenodd;stroke:none;stroke-width:1.03534329;stroke-linecap:round;stroke-linejoin:bevel;stroke-miterlimit:4;stroke-dasharray:none;stroke-dashoffset:0;stroke-opacity:1"
     id="rect4497-3-3"
     width="28.203388"
     height="28.203388"
     x="1.8983059"
     y="1.8983059"
     ry="5.575182" />
  <g
     id="g4541"
     transform="translate(45.571301,0.15823365)">
    <path
       id="path4"
       style="fill:#cccccc;stroke-width:1"
       d="M -21.577741,24.998026 V 10.754955 h -15.98712 v 14.243071 c 0,0.563618 0.445641,1.017362 0.999195,1.017362 h 13.98873 c 0.553554,0 0.999195,-0.453744 0.999195,-1.017362 z"
       inkscape:connector-curvature="0" />
    <path
       id="path6"
       d="m -33.931425,7.8482064 h 8.720248 l 3.633436,2.9067486 h -15.98712 z"
       style="fill:#b8b8b8;stroke-width:1.09451163;stroke-linejoin:round"
       inkscape:connector-curvature="0" />
    <rect
       id="rect8"
       y="5.6681447"
       x="-33.931423"
       height="2.1800618"
       width="8.7202473"
       style="fill:#a3a3a3;stroke-width:1.53254163;stroke-linejoin:round" />
    <path
       id="path10"
       style="fill:#a3a3a3;stroke-width:1.05837905;stroke-linejoin:round"
       d="m -25.211177,7.8482064 v 0 l 3.633436,2.9067486 h -6.540185 z"
       inkscape:connector-curvature="0" />
    <path
       id="path12"
       d="m -28.117926,10.754955 v 15.260433 h 5.605873 c 0.517608,0 0.934312,-0.453744 0.934312,-1.017362 V 10.754955 Z"
       style="fill:#b8b8b8;stroke-width:1.40596986;stroke-linejoin:round"
       inkscape:connector-curvature="0" />
    <path
       inkscape:connector-curvature="0"
       id="path16"
       d="m -35.389057,14.378456 a 0.72675994,0.72675994 0 0 0 -0.0369,0.0028 0.72675994,0.72675994 0 0 0 -0.06103,0.0057 0.72675994,0.72675994 0 0 0 -0.03123,0.0057 0.72675994,0.72675994 0 0 0 -0.03122,0.0071 0.72675994,0.72675994 0 0 0 -0.04258,0.01136 0.72675994,0.72675994 0 0 0 -0.01845,0.0057 0.72675994,0.72675994 0 0 0 -0.05535,0.02129 0.72675994,0.72675994 0 0 0 -0.01277,0.0057 0.72675994,0.72675994 0 0 0 -0.05251,0.02555 0.72675994,0.72675994 0 0 0 -0.0085,0.0057 0.72675994,0.72675994 0 0 0 -0.366183,0.715333 v 5.728339 a 0.72675994,0.72675994 0 1 0 1.453376,0 v -3.617824 l 0.86578,1.156738 a 0.72675994,0.72675994 0 0 0 1.163834,0 l 0.871458,-1.162398 v 3.623501 a 0.72675994,0.72675994 0 1 0 1.453375,0 v -5.721243 a 0.72675994,0.72675994 0 0 0 -0.266831,-0.655722 0.72675994,0.72675994 0 0 0 -0.05819,-0.04258 0.72675994,0.72675994 0 0 0 -0.06245,-0.0369 0.72675994,0.72675994 0 0 0 -0.05961,-0.02839 0.72675994,0.72675994 0 0 0 -0.0071,-0.0028 0.72675994,0.72675994 0 0 0 -0.03123,-0.01136 0.72675994,0.72675994 0 0 0 -0.0057,-0.0015 0.72675994,0.72675994 0 0 0 -0.05961,-0.01845 0.72675994,0.72675994 0 0 0 -0.0057,-0.0015 0.72675994,0.72675994 0 0 0 -0.0057,-0.0015 0.72675994,0.72675994 0 0 0 -0.06103,-0.0099 0.72675994,0.72675994 0 0 0 -0.0043,-0.0015 0.72675994,0.72675994 0 0 0 -0.0057,0 0.72675994,0.72675994 0 0 0 -0.06528,-0.0057 0.72675994,0.72675994 0 0 0 -0.0015,0 0.72675994,0.72675994 0 0 0 -0.0015,0 0.72675994,0.72675994 0 0 0 -0.654302,0.361924 l -1.549678,2.067994 -1.547049,-2.067937 a 0.72675994,0.72675994 0 0 0 -0.63869,-0.363343 z"
       style="color:#000000;font-style:normal;font-variant:normal;font-weight:normal;font-stretch:normal;font-size:medium;line-height:normal;font-family:sans-serif;font-variant-ligatures:normal;font-variant-position:normal;font-variant-caps:normal;font-variant-numeric:normal;font-variant-alternates:normal;font-feature-settings:normal;text-indent:0;text-align:start;text-decoration:none;text-decoration-line:none;text-decoration-style:solid;text-decoration-color:#000000;letter-spacing:normal;word-spacing:normal;text-transform:none;writing-mode:lr-tb;direction:ltr;text-orientation:mixed;dominant-baseline:auto;baseline-shift:baseline;text-anchor:start;white-space:normal;shape-padding:0;clip-rule:nonzero;display:inline;overflow:visible;visibility:visible;opacity:1;isolation:auto;mix-blend-mode:normal;color-interpolation:sRGB;color-interpolation-filters:linearRGB;solid-color:#000000;solid-opacity:1;vector-effect:none;fill:#3a86c5;fill-opacity:1;fill-rule:nonzero;stroke:none;stroke-width:2;stroke-linecap:round;stroke-linejoin:round;stroke-miterlimit:4;stroke-dasharray:none;stroke-dashoffset:0;stroke-opacity:1;color-rendering:auto;image-rendering:auto;shape-rendering:auto;text-rendering:auto;enable-background:accumulate" />
    <path
       inkscape:connector-curvature="0"
       id="path20"
       d="m -24.495845,14.378456 a 0.72675994,0.72675994 0 0 0 -0.103609,0.0099 h -1.338411 a 0.72675994,0.72675994 0 1 0 0,1.453375 h 0.726688 v 5.086811 a 0.72675994,0.72675994 0 1 0 1.453374,0 v -5.086776 h 0.726687 a 0.72675994,0.72675994 0 1 0 0,-1.453375 h -1.331313 a 0.72675994,0.72675994 0 0 0 -0.133416,-0.0099 z"
       style="color:#000000;font-style:normal;font-variant:normal;font-weight:normal;font-stretch:normal;font-size:medium;line-height:normal;font-family:sans-serif;font-variant-ligatures:normal;font-variant-position:normal;font-variant-caps:normal;font-variant-numeric:normal;font-variant-alternates:normal;font-feature-settings:normal;text-indent:0;text-align:start;text-decoration:none;text-decoration-line:none;text-decoration-style:solid;text-decoration-color:#000000;letter-spacing:normal;word-spacing:normal;text-transform:none;writing-mode:lr-tb;direction:ltr;text-orientation:mixed;dominant-baseline:auto;baseline-shift:baseline;text-anchor:start;white-space:normal;shape-padding:0;clip-rule:nonzero;display:inline;overflow:visible;visibility:visible;opacity:1;isolation:auto;mix-blend-mode:normal;color-interpolation:sRGB;color-interpolation-filters:linearRGB;solid-color:#000000;solid-opacity:1;vector-effect:none;fill:#3a86c5;fill-opacity:1;fill-rule:nonzero;stroke:none;stroke-width:2;stroke-linecap:round;stroke-linejoin:miter;stroke-miterlimit:4;stroke-dasharray:none;stroke-dashoffset:0;stroke-opacity:1;color-rendering:auto;image-rendering:auto;shape-rendering:auto;text-rendering:auto;enable-background:accumulate" />
  </g>
</svg>
