<?xml version="1.0" encoding="UTF-8" standalone="no"?>
<svg
   xmlns:dc="http://purl.org/dc/elements/1.1/"
   xmlns:cc="http://creativecommons.org/ns#"
   xmlns:rdf="http://www.w3.org/1999/02/22-rdf-syntax-ns#"
   xmlns:svg="http://www.w3.org/2000/svg"
   xmlns="http://www.w3.org/2000/svg"
   xmlns:sodipodi="http://sodipodi.sourceforge.net/DTD/sodipodi-0.dtd"
   xmlns:inkscape="http://www.inkscape.org/namespaces/inkscape"
   height="32"
   width="32"
   version="1"
   id="svg20"
   sodipodi:docname="mintnanny.svg"
   inkscape:version="0.92.1 r">
  <metadata
     id="metadata26">
    <rdf:RDF>
      <cc:Work
         rdf:about="">
        <dc:format>image/svg+xml</dc:format>
        <dc:type
           rdf:resource="http://purl.org/dc/dcmitype/StillImage" />
      </cc:Work>
    </rdf:RDF>
  </metadata>
  <defs
     id="defs24" />
  <sodipodi:namedview
     pagecolor="#ffffff"
     bordercolor="#666666"
     borderopacity="1"
     objecttolerance="10"
     gridtolerance="10"
     guidetolerance="10"
     inkscape:pageopacity="0"
     inkscape:pageshadow="2"
     inkscape:window-width="640"
     inkscape:window-height="480"
     id="namedview22"
     showgrid="false"
     inkscape:zoom="8.9375"
     inkscape:cx="-6.2807767"
     inkscape:cy="15.803466"
     inkscape:current-layer="svg20"
     showguides="true"
     inkscape:guide-bbox="true" />
  <g
     id="g4531"
     transform="translate(3.0214844,-36.140625)">
    <path
       id="path4520"
       d="M 12.978516,38.039062 H 4.453125 c -3.0886508,10e-7 -5.5761719,2.485568 -5.5761719,5.574219 v 17.052735 c 0,3.08865 2.4875211,5.576172 5.5761719,5.576172 h 8.525391 z"
       style="opacity:1;fill:#2867ab;fill-opacity:1;fill-rule:evenodd;stroke:none;stroke-width:1.03534329;stroke-linecap:round;stroke-linejoin:bevel;stroke-miterlimit:4;stroke-dasharray:none;stroke-dashoffset:0;stroke-opacity:1"
       inkscape:connector-curvature="0" />
    <path
       id="rect4497-3-3-3"
       d="m 12.978516,38.039062 v 28.203126 h 8.527343 c 3.088651,-10e-7 5.574219,-2.487522 5.574219,-5.576172 V 43.613281 c 0,-3.088651 -2.485568,-5.574219 -5.574219,-5.574219 z"
       style="opacity:1;fill:#77b1e3;fill-opacity:1;fill-rule:evenodd;stroke:none;stroke-width:1.03534329;stroke-linecap:round;stroke-linejoin:bevel;stroke-miterlimit:4;stroke-dasharray:none;stroke-dashoffset:0;stroke-opacity:1"
       inkscape:connector-curvature="0" />
  </g>
  <path
     style="fill:#c0c0c0;fill-opacity:1;stroke:none;stroke-width:0.1;stroke-linecap:butt;stroke-linejoin:miter;stroke-miterlimit:4;stroke-dasharray:none;stroke-opacity:1"
     d="M 9.9092327,7.760396 C 4.0570179,16.019688 10.486145,22.970419 15.831448,24.303974 23.778666,22.188799 26.081852,13.415907 21.753662,7.760396 19.423133,8.97779 17.521526,8.844955 15.960192,7.696026 13.904918,9.191552 11.904873,8.560801 9.9092327,7.760396 Z"
     id="path4498"
     inkscape:connector-curvature="0"
     sodipodi:nodetypes="ccccc" />
  <path
     style="opacity:1;fill:#1e3151;fill-opacity:1;fill-rule:nonzero;stroke:none;stroke-width:0.1;stroke-linecap:round;stroke-linejoin:bevel;stroke-miterlimit:4;stroke-dasharray:none;stroke-dashoffset:0;stroke-opacity:1"
     d="m 15.916084,12.233399 a 2.2797203,2.2797203 0 0 0 -2.279297,2.279297 2.2797203,2.2797203 0 0 0 1.132813,1.966796 v 2.138672 c 0,0.635357 0.511128,1.148437 1.146484,1.148437 0.635357,0 1.146484,-0.51308 1.146484,-1.148437 v -2.138672 a 2.2797203,2.2797203 0 0 0 1.132813,-1.966796 2.2797203,2.2797203 0 0 0 -2.279297,-2.279297 z"
     id="path4522"
     inkscape:connector-curvature="0" />
</svg>
