<?xml version="1.0" encoding="UTF-8" standalone="no"?>
<svg
   xmlns:dc="http://purl.org/dc/elements/1.1/"
   xmlns:cc="http://creativecommons.org/ns#"
   xmlns:rdf="http://www.w3.org/1999/02/22-rdf-syntax-ns#"
   xmlns:svg="http://www.w3.org/2000/svg"
   xmlns="http://www.w3.org/2000/svg"
   xmlns:sodipodi="http://sodipodi.sourceforge.net/DTD/sodipodi-0.dtd"
   xmlns:inkscape="http://www.inkscape.org/namespaces/inkscape"
   height="32"
   width="32"
   version="1.1"
   viewBox="0 0 32 32"
   id="svg16"
   sodipodi:docname="moneydance.svg"
   inkscape:version="0.92.1 r">
  <metadata
     id="metadata22">
    <rdf:RDF>
      <cc:Work
         rdf:about="">
        <dc:format>image/svg+xml</dc:format>
        <dc:type
           rdf:resource="http://purl.org/dc/dcmitype/StillImage" />
      </cc:Work>
    </rdf:RDF>
  </metadata>
  <defs
     id="defs20" />
  <sodipodi:namedview
     pagecolor="#ffffff"
     bordercolor="#666666"
     borderopacity="1"
     objecttolerance="10"
     gridtolerance="10"
     guidetolerance="10"
     inkscape:pageopacity="0"
     inkscape:pageshadow="2"
     inkscape:window-width="640"
     inkscape:window-height="480"
     id="namedview18"
     showgrid="false"
     inkscape:zoom="16.75"
     inkscape:cx="-1.031333"
     inkscape:cy="21.354823"
     inkscape:current-layer="svg16" />
  <rect
     style="opacity:1;fill:#ff7c40;fill-opacity:1;fill-rule:evenodd;stroke:none;stroke-width:1.03534329;stroke-linecap:round;stroke-linejoin:bevel;stroke-miterlimit:4;stroke-dasharray:none;stroke-dashoffset:0;stroke-opacity:1"
     id="rect4497-3-3"
     width="28.203388"
     height="28.203388"
     x="1.8983059"
     y="1.8983059"
     ry="5.575182" />
  <path
     d="m 19,8 a 6,2 0 0 0 -6,2 6,2 0 0 0 6,2 6,2 0 0 0 6,-2 6,2 0 0 0 -6,-2 z m 5.802734,3.498047 A 6,2 0 0 1 19,13 6,2 0 0 1 13.197266,11.501953 6,2 0 0 0 13,12 a 6,2 0 0 0 6,2 6,2 0 0 0 6,-2 6,2 0 0 0 -0.197266,-0.501953 z m 0,2 A 6,2 0 0 1 19,15 6,2 0 0 1 13.197266,13.501953 6,2 0 0 0 13,14 a 6,2 0 0 0 0.865234,1.029297 c 1.817825,0.0883 3.359364,0.443177 4.265625,0.947265 A 6,2 0 0 0 19,16.000002 a 6,2 0 0 0 6,-2 6,2 0 0 0 -0.197266,-0.501953 z m 0,2 A 6,2 0 0 1 19,17 c 0,0 7.1e-5,0.729282 0,1 a 6,2 0 0 0 6,-2 6,2 0 0 0 -0.197266,-0.501953 z m 0,2 A 6,2 0 0 1 19,19 c -9.4e-5,0.435032 7.1e-5,0.507059 0,1 a 6,2 0 0 0 6,-2 6,2 0 0 0 -0.197266,-0.501953 z m 0,2 A 6,2 0 0 1 19,21 c 0,0.444444 -1.18e-4,0.710456 0,1 a 6,2 0 0 0 6,-2 6,2 0 0 0 -0.197266,-0.501953 z m 0,2 A 6,2 0 0 1 19,23 c 0,0.357263 -0.304491,0.688232 -0.796875,0.978516 A 6,2 0 0 0 19,23.999996 a 6,2 0 0 0 6,-2 6,2 0 0 0 -0.197266,-0.501953 z"
     style="opacity:1;fill:#d75e32;stroke-width:0.58750123;stroke-linecap:round;stroke-linejoin:round;fill-opacity:1"
     id="path6"
     inkscape:connector-curvature="0" />
  <path
     style="fill:#ffd8c6;stroke-width:0.58750123;stroke-linecap:round;stroke-linejoin:round;opacity:1"
     d="m 19,7 a 6,2 0 0 0 -6,2 6,2 0 0 0 6,2 6,2 0 0 0 6,-2 6,2 0 0 0 -6,-2 z m 5.802734,3.498047 A 6,2 0 0 1 19,12 6,2 0 0 1 13.197266,10.501953 6,2 0 0 0 13,11 a 6,2 0 0 0 6,2 6,2 0 0 0 6,-2 6,2 0 0 0 -0.197266,-0.501953 z m 0,2 A 6,2 0 0 1 19,14 6,2 0 0 1 13.197266,12.501953 6,2 0 0 0 13,13 a 6,2 0 0 0 0.865234,1.029297 c 1.817825,0.0883 3.359364,0.443177 4.265625,0.947265 A 6,2 0 0 0 19,15.000002 a 6,2 0 0 0 6,-2 6,2 0 0 0 -0.197266,-0.501953 z m 0,2 A 6,2 0 0 1 19,16 c 0,0 7.1e-5,0.729282 0,1 a 6,2 0 0 0 6,-2 6,2 0 0 0 -0.197266,-0.501953 z m 0,2 A 6,2 0 0 1 19,18 c -9.4e-5,0.435032 7.1e-5,0.507059 0,1 a 6,2 0 0 0 6,-2 6,2 0 0 0 -0.197266,-0.501953 z m 0,2 A 6,2 0 0 1 19,20 c 0,0.444444 -1.18e-4,0.710456 0,1 a 6,2 0 0 0 6,-2 6,2 0 0 0 -0.197266,-0.501953 z m 0,2 A 6,2 0 0 1 19,22 c 0,0.357263 -0.304491,0.688232 -0.796875,0.978516 A 6,2 0 0 0 19,22.999996 a 6,2 0 0 0 6,-2 6,2 0 0 0 -0.197266,-0.501953 z"
     id="path8"
     inkscape:connector-curvature="0" />
  <path
     d="m 13,15 a 6,2 0 0 0 -6,2 6,2 0 0 0 6,2 6,2 0 0 0 6,-2 6,2 0 0 0 -6,-2 z m 5.802734,3.498047 A 6,2 0 0 1 13,20 6,2 0 0 1 7.197266,18.501953 6,2 0 0 0 7,19 a 6,2 0 0 0 6,2 6,2 0 0 0 6,-2 6,2 0 0 0 -0.197266,-0.501953 z m 0,2 A 6,2 0 0 1 13,22 6,2 0 0 1 7.197266,20.501953 6,2 0 0 0 7,21 a 6,2 0 0 0 6,2 6,2 0 0 0 6,-2 6,2 0 0 0 -0.197266,-0.501953 z m 0,2 A 6,2 0 0 1 13,24 6,2 0 0 1 7.197266,22.501953 6,2 0 0 0 7,23 a 6,2 0 0 0 6,2 6,2 0 0 0 6,-2 6,2 0 0 0 -0.197266,-0.501953 z"
     style="opacity:1;fill:#d75e32;stroke-width:0.58750123;stroke-linecap:round;stroke-linejoin:round;fill-opacity:1"
     id="path10"
     inkscape:connector-curvature="0" />
  <path
     style="fill:#ffffff;stroke-width:0.58750123;stroke-linecap:round;stroke-linejoin:round;opacity:1"
     d="m 13,14 a 6,2 0 0 0 -6,2 6,2 0 0 0 6,2 6,2 0 0 0 6,-2 6,2 0 0 0 -6,-2 z m 5.802734,3.498047 A 6,2 0 0 1 13,19 6,2 0 0 1 7.197266,17.501953 6,2 0 0 0 7,18 a 6,2 0 0 0 6,2 6,2 0 0 0 6,-2 6,2 0 0 0 -0.197266,-0.501953 z m 0,2 A 6,2 0 0 1 13,21 6,2 0 0 1 7.197266,19.501953 6,2 0 0 0 7,20 a 6,2 0 0 0 6,2 6,2 0 0 0 6,-2 6,2 0 0 0 -0.197266,-0.501953 z m 0,2 A 6,2 0 0 1 13,23 6,2 0 0 1 7.197266,21.501953 6,2 0 0 0 7,22 a 6,2 0 0 0 6,2 6,2 0 0 0 6,-2 6,2 0 0 0 -0.197266,-0.501953 z"
     id="path12"
     inkscape:connector-curvature="0" />
</svg>
