<?xml version="1.0" encoding="UTF-8" standalone="no"?>
<svg
   xmlns:dc="http://purl.org/dc/elements/1.1/"
   xmlns:cc="http://creativecommons.org/ns#"
   xmlns:rdf="http://www.w3.org/1999/02/22-rdf-syntax-ns#"
   xmlns:svg="http://www.w3.org/2000/svg"
   xmlns="http://www.w3.org/2000/svg"
   xmlns:sodipodi="http://sodipodi.sourceforge.net/DTD/sodipodi-0.dtd"
   xmlns:inkscape="http://www.inkscape.org/namespaces/inkscape"
   height="32"
   width="32"
   version="1"
   id="svg31"
   sodipodi:docname="mono-runtime-common.svg"
   inkscape:version="0.92.1 r">
  <metadata
     id="metadata35">
    <rdf:RDF>
      <cc:Work
         rdf:about="">
        <dc:format>image/svg+xml</dc:format>
        <dc:type
           rdf:resource="http://purl.org/dc/dcmitype/StillImage" />
      </cc:Work>
    </rdf:RDF>
  </metadata>
  <sodipodi:namedview
     pagecolor="#ffffff"
     bordercolor="#666666"
     borderopacity="1"
     objecttolerance="10"
     gridtolerance="10"
     guidetolerance="10"
     inkscape:pageopacity="0"
     inkscape:pageshadow="2"
     inkscape:window-width="640"
     inkscape:window-height="480"
     id="namedview33"
     showgrid="false"
     inkscape:zoom="8.375"
     inkscape:cx="-6.6865672"
     inkscape:cy="16"
     inkscape:current-layer="svg31" />
  <defs
     id="defs7">
    <clipPath
       id="clipPath-787446318">
      <g
         transform="translate(0 -1004.4)"
         id="g4">
        <path
           transform="matrix(15.333 0 0 11.5 415 878.86)"
           fill="#1890d0"
           d="m-24 13c0 1.105-0.672 2-1.5 2s-1.5-0.895-1.5-2 0.672-2 1.5-2 1.5 0.895 1.5 2z"
           id="path2" />
      </g>
    </clipPath>
  </defs>
  <rect
     style="opacity:1;fill:#5e6884;fill-opacity:1;fill-rule:evenodd;stroke:none;stroke-width:1.03534329;stroke-linecap:round;stroke-linejoin:bevel;stroke-miterlimit:4;stroke-dasharray:none;stroke-dashoffset:0;stroke-opacity:1"
     id="rect4497-3-3"
     width="28.203388"
     height="28.203388"
     x="1.8983059"
     y="1.8983059"
     ry="5.575182" />
  <g
     transform="matrix(0.66653,0,0,0.66708,-0.00164703,0.00585519)"
     id="g29">
    <g
       clip-path="url(#clipPath-787446318)"
       id="g27">
      <g
         id="g25">
        <path
           d="m 14.04,35.926 c 0,-0.148 5.01,-6.172 5.117,-6.148 0.059,0.016 2.301,0.965 4.973,2.113 4.57,1.961 4.875,2.078 4.996,1.914 0.188,-0.254 0.832,-1.598 1.172,-2.449 l 0.289,-0.723 -0.484,-0.266 c -0.691,-0.375 -1.703,-1.215 -2.336,-1.938 -0.578,-0.66 -1.621,-2.25 -1.621,-2.473 0,-0.074 0.332,0.262 0.738,0.746 1.137,1.352 3.758,3.477 3.922,3.176 0.195,-0.359 0.324,-1.414 0.316,-2.641 -0.008,-1.496 -0.203,-2.66 -0.719,-4.266 l -0.289,-0.902 -1.422,-0.445 c -0.785,-0.25 -1.57,-0.492 -1.746,-0.551 -0.617,-0.195 -0.23,-0.184 0.668,0.02 1.078,0.242 2.176,0.441 2.852,0.527 0.602,0.074 0.73,-0.043 0.793,-0.703 0.082,-0.848 -0.461,-3.191 -1.016,-4.352 -0.219,-0.465 -0.32,-0.57 -0.762,-0.77 -1.465,-0.684 -6.06,-1.309 -8.01,-1.105 -0.844,0.086 -1.707,0.293 -1.98,0.465 -0.074,0.059 0.469,0.191 1.402,0.363 0.84,0.156 1.453,0.293 1.363,0.316 -0.102,0.016 -1.414,-0.129 -2.941,-0.324 -2.672,-0.344 -2.77,-0.352 -2.965,-0.18 -0.391,0.352 -0.945,1.309 -1.063,1.824 -0.109,0.496 -0.102,0.555 0.145,1.059 0.422,0.863 1.211,1.492 2.996,2.395 0.844,0.438 1.516,0.797 1.492,0.824 -0.027,0.023 -0.75,-0.246 -1.602,-0.602 l -1.559,-0.645 -2.285,0.641 c -1.254,0.348 -2.324,0.637 -2.375,0.637 -0.063,0 -0.094,-1.516 -0.094,-4.086 0,-3.934 0.008,-4.098 0.203,-4.5 0.117,-0.246 0.348,-0.508 0.555,-0.633 l 0.359,-0.223 10.461,-0.031 c 5.75,-0.016 10.699,0 10.977,0.031 0.641,0.078 1.219,0.547 1.371,1.113 0.066,0.246 0.09,3.969 0.074,11.05 l -0.027,10.668 -0.223,0.355 c -0.129,0.211 -0.391,0.441 -0.633,0.559 -0.41,0.199 -0.492,0.203 -10.738,0.203 -5.68,0 -10.332,-0.035 -10.332,-0.074 m -0.02,0.02"
           id="path23"
           inkscape:connector-curvature="0"
           style="fill:#ffffff" />
      </g>
    </g>
  </g>
</svg>
