<?xml version="1.0" encoding="UTF-8" standalone="no"?>
<svg
   xmlns:dc="http://purl.org/dc/elements/1.1/"
   xmlns:cc="http://creativecommons.org/ns#"
   xmlns:rdf="http://www.w3.org/1999/02/22-rdf-syntax-ns#"
   xmlns:svg="http://www.w3.org/2000/svg"
   xmlns="http://www.w3.org/2000/svg"
   xmlns:sodipodi="http://sodipodi.sourceforge.net/DTD/sodipodi-0.dtd"
   xmlns:inkscape="http://www.inkscape.org/namespaces/inkscape"
   height="32"
   viewBox="0 0 32 32"
   width="32"
   version="1.1"
   id="svg18"
   sodipodi:docname="com.xamarin.MonoDevelop.svg"
   inkscape:version="0.92.1 r">
  <metadata
     id="metadata24">
    <rdf:RDF>
      <cc:Work
         rdf:about="">
        <dc:format>image/svg+xml</dc:format>
        <dc:type
           rdf:resource="http://purl.org/dc/dcmitype/StillImage" />
      </cc:Work>
    </rdf:RDF>
  </metadata>
  <defs
     id="defs22" />
  <sodipodi:namedview
     pagecolor="#ffffff"
     bordercolor="#666666"
     borderopacity="1"
     objecttolerance="10"
     gridtolerance="10"
     guidetolerance="10"
     inkscape:pageopacity="0"
     inkscape:pageshadow="2"
     inkscape:window-width="640"
     inkscape:window-height="480"
     id="namedview20"
     showgrid="false"
     inkscape:zoom="8.8125"
     inkscape:cx="-5.5602837"
     inkscape:cy="16"
     inkscape:current-layer="svg18" />
  <rect
     style="opacity:1;fill:#5e6884;fill-opacity:1;fill-rule:evenodd;stroke:none;stroke-width:1.03534329;stroke-linecap:round;stroke-linejoin:bevel;stroke-miterlimit:4;stroke-dasharray:none;stroke-dashoffset:0;stroke-opacity:1"
     id="rect4497-3"
     width="28.203388"
     height="28.203388"
     x="1.8983059"
     y="1.8983059"
     ry="5.575182" />
  <g
     id="g4509"
     transform="translate(1.831258e-7,-0.49999965)">
    <path
       id="path10"
       style="fill:#f9f9f9"
       d="M 11.679263,8.01344 C 8.6495011,8.2170979 4.9667891,11.02583 5.000226,15.575785 5.0318051,19.894091 6.3358476,22.280066 7.4689903,25 L 9.8346557,23.979783 C 8.4841737,21.921977 6.4714532,17.752311 6.5875538,14.998594 6.6646448,13.184018 7.2971606,11.912849 8.3959373,10.888773 11.04396,8.4197903 14.694163,8.9998749 16.838774,11.632941 c 1.218592,1.552041 1.427573,3.831845 0.310221,5.496816 -1.89569,2.825142 -6.199773,1.451661 -6.496062,-1.821334 -0.14025,-1.554937 1.353269,-2.751785 2.725114,-2.765298 -1.40714,-0.81656 -3.584258,0.690118 -3.4663003,2.537511 0.3473733,5.444696 6.2740773,5.550868 8.1019663,2.446783 3.262891,-5.543145 -2.27743,-9.7880955 -6.331664,-9.5149438 z"
       inkscape:connector-curvature="0" />
    <path
       id="path12"
       style="fill:#7fafdb"
       d="m 24.464878,8 -2.55282,1.0806914 c 1.537719,2.9894336 3.322149,5.2804996 3.324974,8.9721426 9.11e-4,1.355427 -0.5358,2.891451 -1.807971,4.033621 -1.156349,1.037463 -2.663934,1.650336 -4.461548,1.397694 -1.88048,-0.264168 -3.173368,-1.135446 -3.980364,-2.127761 -1.267464,-1.691643 -1.477452,-3.852065 -0.453877,-5.434198 0.583825,-0.902018 1.88048,-1.668588 3.164893,-1.556196 2.265616,0.196926 3.53402,1.466858 3.514246,3.387129 -0.01977,1.95389 -1.388937,2.704129 -2.924771,2.570604 1.43696,0.641691 3.607469,-0.197887 3.598994,-2.350624 -0.0113,-2.901057 -1.944511,-4.297792 -4.031213,-4.309318 -2.155442,-0.01248 -3.347574,0.79923 -4.038746,1.899135 -0.691173,1.099904 -0.877621,2.550433 -0.800405,3.735831 0.0791,1.20365 0.941653,2.658983 2.247724,3.783863 1.304188,1.124878 3.055662,1.917386 4.89,1.917386 2.953963,0 6.877828,-3.040346 6.845811,-7.508165 -0.03296,-4.46878 -1.320195,-7.121998 -2.535869,-9.489914 z"
       inkscape:connector-curvature="0" />
  </g>
</svg>
