<?xml version="1.0" encoding="UTF-8" standalone="no"?>
<svg
   xmlns:dc="http://purl.org/dc/elements/1.1/"
   xmlns:cc="http://creativecommons.org/ns#"
   xmlns:rdf="http://www.w3.org/1999/02/22-rdf-syntax-ns#"
   xmlns:svg="http://www.w3.org/2000/svg"
   xmlns="http://www.w3.org/2000/svg"
   xmlns:sodipodi="http://sodipodi.sourceforge.net/DTD/sodipodi-0.dtd"
   xmlns:inkscape="http://www.inkscape.org/namespaces/inkscape"
   height="32"
   width="32"
   version="1.1"
   viewBox="0 0 32 32"
   id="svg8"
   sodipodi:docname="navicat-postgresql.svg"
   inkscape:version="0.92.1 r">
  <metadata
     id="metadata14">
    <rdf:RDF>
      <cc:Work
         rdf:about="">
        <dc:format>image/svg+xml</dc:format>
        <dc:type
           rdf:resource="http://purl.org/dc/dcmitype/StillImage" />
      </cc:Work>
    </rdf:RDF>
  </metadata>
  <defs
     id="defs12" />
  <sodipodi:namedview
     pagecolor="#ffffff"
     bordercolor="#666666"
     borderopacity="1"
     objecttolerance="10"
     gridtolerance="10"
     guidetolerance="10"
     inkscape:pageopacity="0"
     inkscape:pageshadow="2"
     inkscape:window-width="640"
     inkscape:window-height="480"
     id="namedview10"
     showgrid="false"
     inkscape:zoom="8.9375"
     inkscape:cx="-5.3706294"
     inkscape:cy="16"
     inkscape:current-layer="svg8" />
  <rect
     style="opacity:1;fill:#10a0b0;fill-opacity:1;fill-rule:evenodd;stroke:none;stroke-width:1.03534329;stroke-linecap:round;stroke-linejoin:bevel;stroke-miterlimit:4;stroke-dasharray:none;stroke-dashoffset:0;stroke-opacity:1"
     id="rect4497-3"
     width="28.203388"
     height="28.203388"
     x="1.8983059"
     y="1.8983059"
     ry="5.575182"
     inkscape:export-filename="/home/ramil/3.png"
     inkscape:export-xdpi="71"
     inkscape:export-ydpi="71" />
  <path
     style="fill:#ffffff;stroke-width:1"
     d="m 16.613946,13.640249 c -1.893026,-0.09991 -4.054488,0.210919 -5.480111,1.35362 -2.30539,1.847889 -3.387964,4.612163 -2.173897,7.82511 0.354218,0.937416 1.672258,1.767673 2.909046,2.441796 5.131228,1.92327 10.180166,-0.262587 12.970462,-3.627614 0.958373,-1.181213 0.363844,-2.538517 -0.20824,-3.323868 -1.724763,-2.367952 -3.936811,-4.453727 -8.017015,-4.669121 z M 15.792593,6.0212439 C 12.623093,5.9906929 9.400091,7.7665797 7.797071,9.8665558 6.480528,11.590706 5.473028,13.330898 5.253181,15.421893 h 0.0012 c 0.05488,1.188275 0.662877,1.980611 2.039334,2.040409 0.373945,0.01626 0.748305,0.02316 1.122412,0.03241 0.453349,-1.164863 1.187968,-2.284512 2.267317,-3.022655 1.677786,-1.147283 3.882004,-1.554198 5.890019,-1.472063 0.334621,0.01369 0.664651,0.04071 0.985393,0.08102 0.22264,-1.639941 0.527232,-3.2904772 0.458445,-4.9571315 -0.05503,-1.3339677 -1.23484,-2.0742597 -2.224915,-2.1027383 z m 6.334701,2.4130878 c -0.896733,1.7836403 -1.890876,3.3977903 -2.861531,5.0206903 2.317212,0.723428 4.387328,2.357359 5.83145,4.599344 0.132921,0.206367 0.240065,0.404682 0.33013,0.599542 0.653988,-0.09436 1.016251,-0.70099 1.118728,-1.376111 0.720794,-4.71702 -0.603349,-7.090653 -2.316675,-9.0287379 C 23.43184,7.3535546 22.729468,7.2759482 22.127655,8.4348997 Z"
     id="path4"
     inkscape:connector-curvature="0" />
</svg>
