<?xml version="1.0" encoding="UTF-8" standalone="no"?>
<svg
   xmlns:dc="http://purl.org/dc/elements/1.1/"
   xmlns:cc="http://creativecommons.org/ns#"
   xmlns:rdf="http://www.w3.org/1999/02/22-rdf-syntax-ns#"
   xmlns:svg="http://www.w3.org/2000/svg"
   xmlns="http://www.w3.org/2000/svg"
   xmlns:sodipodi="http://sodipodi.sourceforge.net/DTD/sodipodi-0.dtd"
   xmlns:inkscape="http://www.inkscape.org/namespaces/inkscape"
   height="32"
   width="32"
   version="1"
   id="svg16"
   sodipodi:docname="nootka.svg"
   inkscape:version="0.92.1 r">
  <metadata
     id="metadata22">
    <rdf:RDF>
      <cc:Work
         rdf:about="">
        <dc:format>image/svg+xml</dc:format>
        <dc:type
           rdf:resource="http://purl.org/dc/dcmitype/StillImage" />
      </cc:Work>
    </rdf:RDF>
  </metadata>
  <defs
     id="defs20" />
  <sodipodi:namedview
     pagecolor="#ffffff"
     bordercolor="#666666"
     borderopacity="1"
     objecttolerance="10"
     gridtolerance="10"
     guidetolerance="10"
     inkscape:pageopacity="0"
     inkscape:pageshadow="2"
     inkscape:window-width="640"
     inkscape:window-height="480"
     id="namedview18"
     showgrid="false"
     inkscape:zoom="8.9375"
     inkscape:cx="-5.3706294"
     inkscape:cy="16"
     inkscape:current-layer="svg16" />
  <rect
     style="opacity:1;fill:#dcdcbe;fill-opacity:1;fill-rule:evenodd;stroke:none;stroke-width:1.03534329;stroke-linecap:round;stroke-linejoin:bevel;stroke-miterlimit:4;stroke-dasharray:none;stroke-dashoffset:0;stroke-opacity:1"
     id="rect4497-3"
     width="28.203388"
     height="28.203388"
     x="1.8983059"
     y="1.8983059"
     ry="5.575182"
     inkscape:export-filename="/home/ramil/3.png"
     inkscape:export-xdpi="71"
     inkscape:export-ydpi="71" />
  <g
     id="g4509"
     transform="translate(47.664336,3.2378112)">
    <path
       style="opacity:0.5;fill:#2a2a2a;fill-rule:evenodd"
       inkscape:connector-curvature="0"
       id="path4"
       d="m -42.664336,6.7622378 v 1 h 22 v -1 z m 0,3 v 1.0000002 h 22 V 9.7622378 Z m 0,3.0000002 v 1 h 22 v -1 z m 0,3 v 1 h 22 v -1 z m 0,3 v 1 h 22 v -1 z" />
    <g
       style="fill:#2a2a2a"
       id="g12"
       transform="matrix(0.84528,0,0,0.77519,-47.568728,2.7622378)">
      <g
         id="g10">
        <path
           inkscape:connector-curvature="0"
           id="path8"
           d="m 16.681,13.4 c -0.7,-0.8 -1.7,-1.3 -2.9,-1.2 -0.1,-0.2 -0.5,-2.2 -0.5,-2.2 0,0 1.4,-2.1 1.7,-2.5 1.5,-2.4 1.6,-4.3 0.7,-6.2 -0.3,-0.7 -1.1,-1.3 -1.9,-1.3 -0.6,0 -1.1,0.5 -1.4,1.1 -1,1.7 -1,4.9 -0.5,7.1 0,0 -0.5,0.5 -1,1.1 -1,1.1 -2.1,2.3 -2.5,3.9 -0.5,1.8 -0.1,3.5 1,4.8 1.2,1.5 3,2.2 5.2,2 0.4,1.9 0.7,3.1 0.1,4.2 -0.2,0.4 -0.6,0.8 -1.3,0.8 -0.2,0 -0.3,0 -0.5,-0.1 0.6,-0.3 1.1,-0.9 1.1,-1.6 0,-1 -0.8,-1.8 -1.8,-1.8 -1.7,0.1 -1.8,1.8 -1.8,1.8 0,0.6 0.2,1.2 0.6,1.6 0.5,0.5 1.3,0.9 2.2,0.9 1.1,0 2.2,-0.4 2.6,-2 0.4,-1.3 -0.3,-3.4 -0.4,-4.1 1.1,-0.5 2.1,-2 2.2,-3 0.2,-1.1 -0.2,-2.4 -0.9,-3.3 z m -3.2,-11.1 c 0.1,-0.2 0.3,-0.3 0.5,-0.3 0.1,0 0.3,0.1 0.4,0.2 0.4,0.2 0.5,0.6 0.5,1.2 -0.1,1.5 -1.4,3.3 -2.1,3.9 -0.3,-1.4 -0.1,-4 0.7,-5 z m -2.9,15.7 c -0.7,-0.7 -1,-1.7 -0.9,-2.7 0.2,-1.6 1.3,-2.9 2.2,-3.9 0.2,-0.2 0.4,-0.4 0.5,-0.6 0.1,0.5 0.4,1.3 0.5,1.7 -1.2,0.5 -1.9,2.1 -1.8,3.4 0,0.6 0.2,1 0.5,1.4 0.1,0.1 0.2,0.2 0.3,0.2 0.1,0 0.3,-0.1 0.3,-0.2 0.1,-0.1 0.1,-0.3 0,-0.4 -0.1,-0.1 -0.1,-0.2 -0.1,-0.4 -0.1,-0.9 0.5,-1.6 1.2,-1.9 0.1,0.6 0.8,3.7 0.9,4.4 -1.3,0.4 -2.7,0 -3.6,-1 z m 4.5,0.6 c -0.2,-0.7 -0.3,-1.5 -0.5,-2.4 -0.1,-0.6 -0.2,-1.3 -0.4,-1.9 1.3,0 1.7,1.1 1.8,1.5 0.3,1.1 0,2.2 -0.9,2.8 z" />
      </g>
    </g>
  </g>
</svg>
