<?xml version="1.0" encoding="UTF-8" standalone="no"?>
<svg
   xmlns:dc="http://purl.org/dc/elements/1.1/"
   xmlns:cc="http://creativecommons.org/ns#"
   xmlns:rdf="http://www.w3.org/1999/02/22-rdf-syntax-ns#"
   xmlns:svg="http://www.w3.org/2000/svg"
   xmlns="http://www.w3.org/2000/svg"
   xmlns:sodipodi="http://sodipodi.sourceforge.net/DTD/sodipodi-0.dtd"
   xmlns:inkscape="http://www.inkscape.org/namespaces/inkscape"
   height="32"
   width="32"
   version="1"
   id="svg48"
   sodipodi:docname="numerical_analysis_section.svg"
   inkscape:version="0.92.2 2405546, 2018-03-11">
  <metadata
     id="metadata54">
    <rdf:RDF>
      <cc:Work
         rdf:about="">
        <dc:format>image/svg+xml</dc:format>
        <dc:type
           rdf:resource="http://purl.org/dc/dcmitype/StillImage" />
        <dc:title></dc:title>
      </cc:Work>
    </rdf:RDF>
  </metadata>
  <defs
     id="defs52" />
  <sodipodi:namedview
     pagecolor="#ffffff"
     bordercolor="#666666"
     borderopacity="1"
     objecttolerance="10"
     gridtolerance="10"
     guidetolerance="10"
     inkscape:pageopacity="0"
     inkscape:pageshadow="2"
     inkscape:window-width="1680"
     inkscape:window-height="972"
     id="namedview50"
     showgrid="false"
     inkscape:zoom="10.429825"
     inkscape:cx="45.743819"
     inkscape:cy="18.792555"
     inkscape:window-x="0"
     inkscape:window-y="0"
     inkscape:window-maximized="1"
     inkscape:current-layer="svg48"
     showguides="true"
     inkscape:guide-bbox="true" />
  <rect
     style="opacity:1;fill:#39a7da;fill-opacity:1;fill-rule:evenodd;stroke:none;stroke-width:1.03534329;stroke-linecap:round;stroke-linejoin:bevel;stroke-miterlimit:4;stroke-dasharray:none;stroke-dashoffset:0;stroke-opacity:1"
     id="rect4497-3"
     width="28.203388"
     height="28.203388"
     x="1.8983059"
     y="1.8983059"
     ry="5.575182" />
  <path
     style="fill:#ffffff;stroke-width:0.03668723"
     d="m 25.306222,24.016564 -0.759394,-0.523097 -0.01065,0.289664 -0.01065,0.289664 H 23.224615 21.923701 V 21.61475 19.156706 h -0.660374 -0.66037 v 2.458044 2.458045 H 18.456754 16.31055 v -4.530874 -4.530873 h -0.66037 -0.66037 v 4.530873 4.530874 h -0.605339 -0.605339 v -3.998909 -3.998908 h -0.66037 -0.66037 v 3.998908 3.998909 H 10.00034 7.5422958 v -6.493641 c 0,-3.571502 0.00719,-6.49364 0.015927,-6.49364 0.00876,0 1.420688,0.991222 3.1376182,2.202716 1.716931,1.211493 3.141942,2.209789 3.166692,2.218437 0.02712,0.0095 0.466974,-0.668093 1.107068,-1.70537 l 1.062068,-1.72109 0.277015,0.19309 c 0.152359,0.1062 1.449173,0.999397 2.881809,1.984883 1.432637,0.985486 2.617148,1.802343 2.632246,1.815238 0.0151,0.0129 -0.33985,0.389878 -0.788775,0.837738 l -0.816228,0.814293 2.687339,2.21e-4 2.687341,2.19e-4 V 14.89486 12.06383 l -0.119234,0.135904 c -0.376842,0.429525 -1.773075,1.96249 -1.788502,1.963649 -0.01009,7.55e-4 -1.899369,-1.360287 -4.198398,-3.024542 -2.29903,-1.6642556 -4.194086,-3.0118876 -4.211235,-2.9947396 -0.01715,0.01715 -0.515703,0.822181 -1.107899,1.7889595 C 13.574953,10.89984 13.072416,11.69084 13.0504,11.69084 c -0.02202,0 -1.274474,-0.866736 -2.783239,-1.9260806 l -2.7432075,-1.926066 0.3210127,-0.0106 c 0.1765576,-0.0058 0.3210136,-0.01884 0.3210136,-0.0289 0,-0.03122 -1.1478954,-1.519797 -1.1707588,-1.5182221 C 6.983356,6.281779 6.7398093,6.6243556 6.4540108,7.0422318 l -0.5196341,0.7597736 0.2719955,0.01072 0.2719946,0.01072 v 8.6217096 8.62171 l 9.0158872,-0.0055 9.015888,-0.0055 0.01052,0.331582 0.01052,0.331583 0.76722,-0.589677 0.767221,-0.589678 z"
     id="path927"
     inkscape:connector-curvature="0"
     sodipodi:nodetypes="ccccccccccccccccccccccccccccccssscsccscscccccccscsscccscccccccccccccc" />
</svg>
