<?xml version="1.0" encoding="UTF-8" standalone="no"?>
<svg
   xmlns:dc="http://purl.org/dc/elements/1.1/"
   xmlns:cc="http://creativecommons.org/ns#"
   xmlns:rdf="http://www.w3.org/1999/02/22-rdf-syntax-ns#"
   xmlns:svg="http://www.w3.org/2000/svg"
   xmlns="http://www.w3.org/2000/svg"
   xmlns:sodipodi="http://sodipodi.sourceforge.net/DTD/sodipodi-0.dtd"
   xmlns:inkscape="http://www.inkscape.org/namespaces/inkscape"
   height="32"
   width="32"
   version="1"
   id="svg10"
   sodipodi:docname="nvidia304-settings.svg"
   inkscape:version="0.92.1 r">
  <metadata
     id="metadata16">
    <rdf:RDF>
      <cc:Work
         rdf:about="">
        <dc:format>image/svg+xml</dc:format>
        <dc:type
           rdf:resource="http://purl.org/dc/dcmitype/StillImage" />
        <dc:title></dc:title>
      </cc:Work>
    </rdf:RDF>
  </metadata>
  <defs
     id="defs14" />
  <sodipodi:namedview
     pagecolor="#ffffff"
     bordercolor="#666666"
     borderopacity="1"
     objecttolerance="10"
     gridtolerance="10"
     guidetolerance="10"
     inkscape:pageopacity="0"
     inkscape:pageshadow="2"
     inkscape:window-width="1680"
     inkscape:window-height="969"
     id="namedview12"
     showgrid="false"
     inkscape:zoom="7.375"
     inkscape:cx="-39.728813"
     inkscape:cy="16"
     inkscape:window-x="0"
     inkscape:window-y="0"
     inkscape:window-maximized="1"
     inkscape:current-layer="svg10" />
  <rect
     style="opacity:1;fill:#4ca341;fill-opacity:1;fill-rule:evenodd;stroke:none;stroke-width:1.03534329;stroke-linecap:round;stroke-linejoin:bevel;stroke-miterlimit:4;stroke-dasharray:none;stroke-dashoffset:0;stroke-opacity:1"
     id="rect4497-3"
     width="28.203388"
     height="28.203388"
     x="1.8983059"
     y="1.8983059"
     ry="5.575182" />
  <path
     d="m 8.04338,15.026878 c 0,0 2.34778,-2.8223 5.95818,-3.1143 v -1.0239 c -3.999,0.33976 -8.00148,3.9228 -8.00148,3.9228 0,0 2.50098,5.9982 8.00148,6.5474 v -1.0884 c -4.0366,-0.538 -5.95828,-5.244 -5.95828,-5.244 z m 5.95818,3.079 v 0.99674 c -3.0508,-0.57538 -4.43718,-3.9303 -4.43718,-3.9303 0,0 2.00438,-1.7166 4.43718,-1.995 v 1.0937 c -0.0015,0 -0.0025,-5.68e-4 -0.0039,-5.68e-4 -1.2768,-0.1621 -2.81388,1.0998 -2.81388,1.0998 0,0 1.09866,2.1243 2.81858,2.7356 m 0,-9.1058998 V 10.88855 c 0.11739,-0.0095 -0.30479,-0.0175 -0.18676,-0.02176 4.5464,-0.1621 7.5087,3.9446 7.5087,3.9446 0,0 -3.4023,4.3766 -6.9469,4.3766 -0.32486,0 -0.0894,-0.03189 -0.37506,-0.08541 v 1.1679 c 0.24427,0.03276 -0.04205,0.05211 0.22223,0.05211 3.2985,0 5.6838,-1.7821 7.9936,-3.8912 0.38296,0.32446 1.9508,1.1138 2.2731,1.4593 -2.1961,1.9451 -7.3144,3.5131 -10.216,3.5131 -0.2797,0 -0.0087,-0.0179 -0.27277,-0.04484 v 1.6411 H 25.99992 V 9.0000502 H 14.0025 Z m 0,4.1773998 v -1.2647 c 0.11619,-0.0072 -0.30632,-0.01516 -0.18676,-0.0192 3.2693,-0.10864 5.4142,2.9721 5.4142,2.9721 0,0 -2.3167,3.4038 -4.8006,3.4038 -0.35748,0 -0.13842,-0.06076 -0.42688,-0.16338 v -3.8348 c 1.2728,0.1627 1.23256,0.75746 1.99776,2.1069 l 1.45856,-1.5181 c 0,0 -1.2423,-1.7236 -3.3365,-1.7236 -0.22764,-8.2e-5 0.09412,0.01687 -0.11978,0.04096"
     style="fill:#262626"
     id="path6"
     inkscape:connector-curvature="0" />
</svg>
