<?xml version="1.0" encoding="UTF-8" standalone="no"?>
<svg
   xmlns:dc="http://purl.org/dc/elements/1.1/"
   xmlns:cc="http://creativecommons.org/ns#"
   xmlns:rdf="http://www.w3.org/1999/02/22-rdf-syntax-ns#"
   xmlns:svg="http://www.w3.org/2000/svg"
   xmlns="http://www.w3.org/2000/svg"
   xmlns:sodipodi="http://sodipodi.sourceforge.net/DTD/sodipodi-0.dtd"
   xmlns:inkscape="http://www.inkscape.org/namespaces/inkscape"
   height="32"
   width="32"
   version="1"
   id="svg26"
   sodipodi:docname="ocenaudio.svg"
   inkscape:version="0.92.1 r">
  <metadata
     id="metadata32">
    <rdf:RDF>
      <cc:Work
         rdf:about="">
        <dc:format>image/svg+xml</dc:format>
        <dc:type
           rdf:resource="http://purl.org/dc/dcmitype/StillImage" />
      </cc:Work>
    </rdf:RDF>
  </metadata>
  <defs
     id="defs30" />
  <sodipodi:namedview
     pagecolor="#ffffff"
     bordercolor="#666666"
     borderopacity="1"
     objecttolerance="10"
     gridtolerance="10"
     guidetolerance="10"
     inkscape:pageopacity="0"
     inkscape:pageshadow="2"
     inkscape:window-width="640"
     inkscape:window-height="480"
     id="namedview28"
     showgrid="false"
     inkscape:zoom="8.9375"
     inkscape:cx="-5.3706294"
     inkscape:cy="16"
     inkscape:current-layer="svg26" />
  <rect
     style="opacity:1;fill:#fdbb28;fill-opacity:1;fill-rule:evenodd;stroke:none;stroke-width:1.03534329;stroke-linecap:round;stroke-linejoin:bevel;stroke-miterlimit:4;stroke-dasharray:none;stroke-dashoffset:0;stroke-opacity:1"
     id="rect4497-3"
     width="28.203388"
     height="28.203388"
     x="1.8983059"
     y="1.8983059"
     ry="5.575182"
     inkscape:export-filename="/home/ramil/3.png"
     inkscape:export-xdpi="71"
     inkscape:export-ydpi="71" />
  <g
     id="g4519"
     transform="translate(41.958042,-6.9370632)">
    <circle
       id="circle6"
       r="8.3491125"
       cy="24.455084"
       cx="-25.958042"
       style="opacity:1;fill:#ffffff;fill-opacity:1;stroke-width:1" />
    <path
       inkscape:connector-curvature="0"
       id="path12"
       d="m -25.958042,13.06993 c -2.359428,0 -4.511564,0.717905 -6.098765,1.922727 -1.587357,1.204873 -2.250347,2.928551 -2.250347,4.846103 v 0.821272 c -1.57592,0.777809 -3.036041,2.690415 -3.036041,5.081811 0,3.060826 2.250265,5.544332 4.554061,5.544332 V 19.83876 c 0,-1.436148 0.300977,-2.606185 1.611415,-3.600852 1.310333,-0.994869 3.160507,-1.649957 5.219677,-1.649957 2.05917,0 3.909189,0.65529 5.219678,1.649957 1.310437,0.994668 1.611414,2.164703 1.611414,3.600852 v 11.447415 c 2.303951,0 4.554061,-2.48499 4.554061,-5.545815 0,-2.391396 -1.460224,-4.302519 -3.03604,-5.080328 V 19.83876 c 0,-1.917755 -0.663043,-3.641281 -2.250347,-4.846103 -1.587202,-1.204772 -3.739441,-1.922727 -6.098766,-1.922727 z m -3.795051,7.590102 a 1.5180204,1.5180204 0 0 0 -1.51802,1.518021 1.5180204,1.5180204 0 0 0 1.51802,1.51802 1.5180204,1.5180204 0 0 0 1.51802,-1.51802 1.5180204,1.5180204 0 0 0 -1.51802,-1.518021 z m 7.590102,0 a 1.5180204,1.5180204 0 0 0 -1.51802,1.518021 1.5180204,1.5180204 0 0 0 1.51802,1.51802 1.5180204,1.5180204 0 0 0 1.518021,-1.51802 1.5180204,1.5180204 0 0 0 -1.518021,-1.518021 z m -0.75901,6.831092 -6.072082,0.01482 c 0,1.67676 1.359282,3.021216 3.036041,3.021216 1.676759,0 3.036041,-1.359281 3.036041,-3.03604 z"
       style="fill:#4f4f4f;fill-opacity:1;stroke-width:1" />
  </g>
</svg>
