<?xml version="1.0" encoding="UTF-8" standalone="no"?>
<svg
   xmlns:dc="http://purl.org/dc/elements/1.1/"
   xmlns:cc="http://creativecommons.org/ns#"
   xmlns:rdf="http://www.w3.org/1999/02/22-rdf-syntax-ns#"
   xmlns:svg="http://www.w3.org/2000/svg"
   xmlns="http://www.w3.org/2000/svg"
   xmlns:sodipodi="http://sodipodi.sourceforge.net/DTD/sodipodi-0.dtd"
   xmlns:inkscape="http://www.inkscape.org/namespaces/inkscape"
   width="32"
   height="32"
   version="1"
   id="svg24"
   sodipodi:docname="ocrfeeder.svg"
   inkscape:version="0.92.1 r">
  <metadata
     id="metadata30">
    <rdf:RDF>
      <cc:Work
         rdf:about="">
        <dc:format>image/svg+xml</dc:format>
        <dc:type
           rdf:resource="http://purl.org/dc/dcmitype/StillImage" />
      </cc:Work>
    </rdf:RDF>
  </metadata>
  <defs
     id="defs28" />
  <sodipodi:namedview
     pagecolor="#ffffff"
     bordercolor="#666666"
     borderopacity="1"
     objecttolerance="10"
     gridtolerance="10"
     guidetolerance="10"
     inkscape:pageopacity="0"
     inkscape:pageshadow="2"
     inkscape:window-width="640"
     inkscape:window-height="480"
     id="namedview26"
     showgrid="false"
     inkscape:zoom="8.9375"
     inkscape:cx="-3.5664335e-07"
     inkscape:cy="14.097903"
     inkscape:current-layer="svg24" />
  <rect
     style="opacity:1;fill:#62aeff;fill-opacity:1;fill-rule:evenodd;stroke:none;stroke-width:1.03534329;stroke-linecap:round;stroke-linejoin:bevel;stroke-miterlimit:4;stroke-dasharray:none;stroke-dashoffset:0;stroke-opacity:1"
     id="rect4497-3"
     width="28.203388"
     height="28.203388"
     x="1.8983059"
     y="1.8983059"
     ry="5.575182"
     inkscape:export-filename="/home/ramil/3.png"
     inkscape:export-xdpi="71"
     inkscape:export-ydpi="71" />
  <path
     style="fill:#a27fbd;fill-opacity:1"
     d="m 17.308771,19.411302 6.112946,6.112946 c 1.413764,1.472453 3.593547,-0.70733 2.121094,-2.121094 l -6.205825,-6.205825 c -2.370131,0.788088 -1.370131,0.788088 -2.028215,2.213973 z"
     id="path8"
     inkscape:connector-curvature="0" />
  <path
     style="fill:#ffffff"
     d="m 13.966855,5.9854171 a 8.0000002,8.0000002 0 0 0 -8,7.9999999 8.0000002,8.0000002 0 0 0 8,8 8.0000002,8.0000002 0 0 0 8,-8 8.0000002,8.0000002 0 0 0 -8,-7.9999999 z"
     id="path14"
     inkscape:connector-curvature="0" />
  <path
     style="fill:#62aeff;fill-opacity:1"
     d="m 9.966855,10.413988 v 1.428572 2.142857 2.857143 0.714286 c 0,1.428571 1,1.428571 1,1.428571 0,0 0.9995,0 0.9995,-1.428571 v -1.571429 h 4.0005 v 1.571429 c 0,1.428571 1,1.428571 1,1.428571 0,0 1,0 1,-1.428571 v -7.142858 c 0,0 0,-1.4285709 -1.333333,-1.4285709 h -4.700167 -0.633167 c -1.333333,0 -1.333333,1.4285709 -1.333333,1.4285709 z m 1.9995,0.571429 h 4.0005 v 3 h -4.0005 z"
     id="path20"
     inkscape:connector-curvature="0" />
</svg>
