<?xml version="1.0" encoding="UTF-8" standalone="no"?>
<svg
   xmlns:dc="http://purl.org/dc/elements/1.1/"
   xmlns:cc="http://creativecommons.org/ns#"
   xmlns:rdf="http://www.w3.org/1999/02/22-rdf-syntax-ns#"
   xmlns:svg="http://www.w3.org/2000/svg"
   xmlns="http://www.w3.org/2000/svg"
   xmlns:sodipodi="http://sodipodi.sourceforge.net/DTD/sodipodi-0.dtd"
   xmlns:inkscape="http://www.inkscape.org/namespaces/inkscape"
   height="32"
   width="32"
   version="1"
   id="svg32"
   sodipodi:docname="octopi.svg"
   inkscape:version="0.92.1 r">
  <metadata
     id="metadata38">
    <rdf:RDF>
      <cc:Work
         rdf:about="">
        <dc:format>image/svg+xml</dc:format>
        <dc:type
           rdf:resource="http://purl.org/dc/dcmitype/StillImage" />
      </cc:Work>
    </rdf:RDF>
  </metadata>
  <defs
     id="defs36" />
  <sodipodi:namedview
     pagecolor="#ffffff"
     bordercolor="#666666"
     borderopacity="1"
     objecttolerance="10"
     gridtolerance="10"
     guidetolerance="10"
     inkscape:pageopacity="0"
     inkscape:pageshadow="2"
     inkscape:window-width="640"
     inkscape:window-height="480"
     id="namedview34"
     showgrid="false"
     inkscape:zoom="8.9375"
     inkscape:cx="-23.954115"
     inkscape:cy="25.285389"
     inkscape:current-layer="svg32" />
  <g
     id="g4556"
     transform="translate(61.874023,3.5800783)">
    <path
       id="path4537"
       d="m -59.904297,21.304688 c 0.193791,2.910358 2.542794,5.216796 5.503906,5.216796 h 17.052735 c 3.088651,0 5.576172,-2.487521 5.576172,-5.576172 v -0.27539 c -0.228711,0.301159 -0.526574,0.542233 -0.876954,0.71289 -0.742938,0.361859 -1.671684,0.464844 -2.416015,0.464844 -0.744332,0 -1.673078,-0.10299 -2.416016,-0.464844 -0.371469,-0.180926 -0.695653,-0.42716 -0.927734,-0.755859 -0.232081,-0.328699 -0.371094,-0.741182 -0.371094,-1.255859 -0.01242,0.431258 -0.158169,0.802176 -0.392578,1.115234 -0.234409,0.313058 -0.557417,0.569703 -0.925781,0.771484 -0.736729,0.403564 -1.654106,0.589844 -2.398438,0.589844 -0.744331,0 -1.673077,-0.10299 -2.416015,-0.464844 -0.371469,-0.180926 -0.695654,-0.42716 -0.927735,-0.755859 -0.232081,-0.328699 -0.373047,-0.741182 -0.373047,-1.255859 -0.01242,0.431258 -0.156215,0.802176 -0.390625,1.115234 -0.234409,0.313058 -0.55937,0.569703 -0.927734,0.771484 -0.736729,0.403564 -1.652153,0.589844 -2.396484,0.589844 -0.744332,0 -1.673078,-0.10299 -2.416016,-0.464844 -0.371469,-0.180926 -0.697606,-0.42716 -0.929688,-0.755859 -0.232081,-0.328699 -0.371093,-0.741182 -0.371093,-1.255859 0,0.514668 -0.138994,0.929487 -0.371094,1.259765 -0.2321,0.330279 -0.55625,0.577572 -0.927734,0.759766 -0.742969,0.364388 -1.671808,0.467151 -2.416016,0.457031 -0.806142,-0.01096 -1.735405,-0.115496 -2.462891,-0.474609 -0.03318,-0.01638 -0.04972,-0.05091 -0.08203,-0.06836 z"
       style="opacity:1;fill:#028649;fill-opacity:1;fill-rule:evenodd;stroke:none;stroke-width:1.03534329;stroke-linecap:round;stroke-linejoin:bevel;stroke-miterlimit:4;stroke-dasharray:none;stroke-dashoffset:0;stroke-opacity:1"
       inkscape:connector-curvature="0" />
    <path
       id="rect4497-3"
       d="m -59.904297,21.304688 c 0.03231,0.01745 0.04885,0.05198 0.08203,0.06836 0.727486,0.359113 1.656749,0.463647 2.462891,0.474609 0.744208,0.01012 1.673047,-0.09264 2.416016,-0.457031 0.371484,-0.182194 0.695634,-0.429487 0.927734,-0.759766 0.2321,-0.330278 0.371094,-0.745097 0.371094,-1.259765 0,0.514677 0.139012,0.92716 0.371093,1.255859 0.232082,0.328699 0.558219,0.574933 0.929688,0.755859 0.742938,0.361854 1.671684,0.464844 2.416016,0.464844 0.744331,0 1.659755,-0.18628 2.396484,-0.589844 0.368364,-0.201781 0.693325,-0.458426 0.927734,-0.771484 0.23441,-0.313058 0.378207,-0.683976 0.390625,-1.115234 0,0.514677 0.140966,0.92716 0.373047,1.255859 0.232081,0.328699 0.556266,0.574933 0.927735,0.755859 0.742938,0.361854 1.671684,0.464844 2.416015,0.464844 0.744332,0 1.661709,-0.18628 2.398438,-0.589844 0.368364,-0.201781 0.691372,-0.458426 0.925781,-0.771484 0.234409,-0.313058 0.38016,-0.683976 0.392578,-1.115234 0,0.514677 0.139013,0.92716 0.371094,1.255859 0.232081,0.328699 0.556265,0.574933 0.927734,0.755859 0.742938,0.361854 1.671684,0.464844 2.416016,0.464844 0.744331,0 1.673077,-0.102985 2.416015,-0.464844 0.35038,-0.170657 0.648243,-0.411731 0.876954,-0.71289 V 3.8925781 c 0,-3.08865078 -2.487521,-5.5742187 -5.576172,-5.5742187 h -17.052735 c -3.08865,0 -5.576171,2.48556792 -5.576171,5.5742187 V 20.945312 c 0,0.127539 0.06392,0.234023 0.07227,0.359376 z"
       style="opacity:1;fill:#3fc778;fill-opacity:1;fill-rule:evenodd;stroke:none;stroke-width:1.03534329;stroke-linecap:round;stroke-linejoin:bevel;stroke-miterlimit:4;stroke-dasharray:none;stroke-dashoffset:0;stroke-opacity:1"
       inkscape:connector-curvature="0" />
    <g
       id="g4545">
      <g
         id="g14"
         transform="matrix(1.2386944,0,0,1.2386944,-67.485594,-8.1588476)"
         style="stroke-width:0.80730164">
        <rect
           ry="3"
           height="6"
           width="6"
           y="9"
           x="9"
           id="rect10"
           style="fill:#ecf0f1;stroke-width:0.80730164" />
        <rect
           ry="1"
           height="2"
           width="2"
           y="11"
           x="13"
           id="rect12"
           style="fill:#494949;stroke-width:0.80730164" />
      </g>
      <g
         transform="matrix(1.2386944,0,0,1.2386944,-53.859955,-8.1588476)"
         id="g26"
         style="stroke-width:0.80730164">
        <rect
           ry="3"
           height="6"
           width="6"
           y="9"
           x="9"
           id="rect22"
           style="fill:#ecf0f1;stroke-width:0.80730164" />
        <rect
           ry="1"
           height="2"
           width="2"
           y="11"
           x="13"
           id="rect24"
           style="fill:#494949;stroke-width:0.80730164" />
      </g>
    </g>
  </g>
</svg>
