<?xml version="1.0" encoding="UTF-8" standalone="no"?>
<svg
   xmlns:dc="http://purl.org/dc/elements/1.1/"
   xmlns:cc="http://creativecommons.org/ns#"
   xmlns:rdf="http://www.w3.org/1999/02/22-rdf-syntax-ns#"
   xmlns:svg="http://www.w3.org/2000/svg"
   xmlns="http://www.w3.org/2000/svg"
   xmlns:sodipodi="http://sodipodi.sourceforge.net/DTD/sodipodi-0.dtd"
   xmlns:inkscape="http://www.inkscape.org/namespaces/inkscape"
   height="32"
   width="32"
   version="1"
   id="svg20"
   sodipodi:docname="openttd.svg"
   inkscape:version="0.92.1 r">
  <metadata
     id="metadata26">
    <rdf:RDF>
      <cc:Work
         rdf:about="">
        <dc:format>image/svg+xml</dc:format>
        <dc:type
           rdf:resource="http://purl.org/dc/dcmitype/StillImage" />
      </cc:Work>
    </rdf:RDF>
  </metadata>
  <defs
     id="defs24" />
  <sodipodi:namedview
     pagecolor="#ffffff"
     bordercolor="#666666"
     borderopacity="1"
     objecttolerance="10"
     gridtolerance="10"
     guidetolerance="10"
     inkscape:pageopacity="0"
     inkscape:pageshadow="2"
     inkscape:window-width="1316"
     inkscape:window-height="712"
     id="namedview22"
     showgrid="false"
     inkscape:zoom="32.5625"
     inkscape:cx="6.151447"
     inkscape:cy="13.946032"
     inkscape:window-x="50"
     inkscape:window-y="30"
     inkscape:window-maximized="1"
     inkscape:current-layer="svg20" />
  <rect
     style="opacity:1;fill:#257833;fill-opacity:1;fill-rule:evenodd;stroke:none;stroke-width:1.03534329;stroke-linecap:round;stroke-linejoin:bevel;stroke-miterlimit:4;stroke-dasharray:none;stroke-dashoffset:0;stroke-opacity:1"
     id="rect4497"
     width="28.203388"
     height="28.203388"
     x="1.8983059"
     y="1.8983059"
     ry="5.575182" />
  <rect
     style="fill:#4bae4f;stroke-width:1"
     ry="0.67135161"
     rx="0.67135161"
     transform="matrix(0.70710676,0.7071068,0.70710676,-0.7071068,0,0)"
     height="12.536321"
     width="12.536321"
     y="-9.5780792"
     x="16.359257"
     id="rect4" />
  <rect
     style="fill:#4bae4f;stroke-width:1"
     ry="0.67135161"
     rx="0.67135161"
     transform="matrix(0.70710676,0.7071068,0.70710676,-0.7071068,0,0)"
     height="12.536321"
     width="12.536321"
     y="-6.2681589"
     x="19.669176"
     id="rect6" />
  <rect
     style="fill:#f58411;stroke-width:1"
     ry="0.85480237"
     rx="0.85480237"
     transform="matrix(0.70710676,0.7071068,0.70710676,-0.7071068,0,0)"
     height="15.955529"
     width="15.955529"
     y="-7.9777641"
     x="14.649652"
     id="rect8" />
  <g
     aria-label="$"
     transform="matrix(0.42673744,0,0,0.39667966,2.1210575,3.5083109)"
     style="font-size:39.06629181px;line-height:1.25;font-family:'DejaVu Serif';font-variant-ligatures:normal;font-variant-caps:normal;font-variant-numeric:normal;font-feature-settings:normal;letter-spacing:0px;word-spacing:0px;fill:#ffffff;stroke-width:1.25109601"
     id="text16">
    <path
       d="m 34.350656,42.310691 c 1.437009,-0.127169 1.640335,-0.517345 2.390632,-1.216774 0.763013,-0.699429 0.861501,-1.510999 0.861501,-2.719104 0,-1.093653 0.06677,-2.335121 -0.683528,-3.098134 -0.750297,-0.763013 -1.11888,-1.42749 -2.568605,-1.821714 z m -3.658649,-21.64733 c -1.30984,0.08902 -1.704749,0.624737 -2.429612,1.298732 -0.724863,0.661279 -0.822522,1.518059 -0.822522,2.637146 0,1.017351 0.06587,1.896427 0.727145,2.570422 0.673995,0.673995 1.100697,0.945799 2.524989,1.365456 z m -7.3173,21.64733 v -4.919848 h 2.032583 c 0.05087,1.742214 0.510474,2.489351 1.476959,3.379533 0.966484,0.890183 1.900224,1.502164 3.807758,1.540315 v -8.855726 c -2.924885,-0.813881 -4.356221,-2.2922 -5.538892,-3.347702 -1.182671,-1.068219 -1.778408,-2.479836 -1.778408,-4.234767 0,-2.034703 0.70383,-3.668781 2.102688,-4.90232 1.398859,-1.233539 2.722101,-2.122152 5.214612,-2.274754 v -4.919848 h 3.658649 v 4.919848 c 1.284406,0.443611 1.715926,0.54538 2.571942,0.825028 1.244941,0.406705 2.597263,0.718931 3.729066,1.240324 v 4.822435 h -2.032583 c -0.152603,-1.47516 -0.714198,-2.592083 -1.591663,-3.444114 -0.877466,-0.852032 -1.176169,-1.361282 -2.676762,-1.475734 v 8.855726 c 3.128355,0.852031 4.186988,1.751771 5.433243,2.858141 1.258972,1.093653 1.884057,2.185697 1.884057,4.029646 0,2.111004 -0.822877,4.067271 -2.208338,5.450797 -1.316261,1.314424 -2.425698,2.230205 -5.108962,2.420959 v 4.919848 H 30.692007 V 44.27863 c -1.181098,-0.281837 -1.863711,-0.430765 -3.17355,-0.761405 -1.30984,-0.317922 -2.719458,-0.570689 -4.14375,-1.206534 z"
       style="fill:#ffffff;stroke-width:1.25109601"
       id="path4503"
       inkscape:connector-curvature="0"
       sodipodi:nodetypes="ccssccccsccccccscccssccccacccscccsscccccc" />
  </g>
</svg>
