<?xml version="1.0" encoding="UTF-8" standalone="no"?>
<svg
   xmlns:dc="http://purl.org/dc/elements/1.1/"
   xmlns:cc="http://creativecommons.org/ns#"
   xmlns:rdf="http://www.w3.org/1999/02/22-rdf-syntax-ns#"
   xmlns:svg="http://www.w3.org/2000/svg"
   xmlns="http://www.w3.org/2000/svg"
   xmlns:sodipodi="http://sodipodi.sourceforge.net/DTD/sodipodi-0.dtd"
   xmlns:inkscape="http://www.inkscape.org/namespaces/inkscape"
   height="32"
   width="32"
   version="1"
   id="svg10"
   sodipodi:docname="opera-beta.svg"
   inkscape:version="0.92.1 r">
  <metadata
     id="metadata16">
    <rdf:RDF>
      <cc:Work
         rdf:about="">
        <dc:format>image/svg+xml</dc:format>
        <dc:type
           rdf:resource="http://purl.org/dc/dcmitype/StillImage" />
      </cc:Work>
    </rdf:RDF>
  </metadata>
  <defs
     id="defs14" />
  <sodipodi:namedview
     pagecolor="#ffffff"
     bordercolor="#666666"
     borderopacity="1"
     objecttolerance="10"
     gridtolerance="10"
     guidetolerance="10"
     inkscape:pageopacity="0"
     inkscape:pageshadow="2"
     inkscape:window-width="1680"
     inkscape:window-height="963"
     id="namedview12"
     showgrid="false"
     inkscape:zoom="7.375"
     inkscape:cx="16.413877"
     inkscape:cy="14.574559"
     inkscape:window-x="0"
     inkscape:window-y="0"
     inkscape:window-maximized="1"
     inkscape:current-layer="svg10" />
  <rect
     style="opacity:1;fill:#ffffff;fill-opacity:1;fill-rule:evenodd;stroke:none;stroke-width:1.03534329;stroke-linecap:round;stroke-linejoin:bevel;stroke-miterlimit:4;stroke-dasharray:none;stroke-dashoffset:0;stroke-opacity:1"
     id="rect4497-3"
     width="28.203388"
     height="28.203388"
     x="1.8983059"
     y="1.8983059"
     ry="5.575182" />
  <g
     id="g4501"
     transform="translate(1.898305,-1.8983051)">
    <path
       inkscape:connector-curvature="0"
       id="path2"
       d="m 14.101695,5.7966102 v 5.1864408 a 5.1864407,6.9152542 0 0 1 5.186441,6.915254 5.1864407,6.9152542 0 0 1 -5.186441,6.915254 2.5932203,2.5932203 0 0 0 -2.59322,2.593221 2.5932203,2.5932203 0 0 0 2.59322,2.59322 2.5932203,2.5932203 0 0 0 0.221166,-0.01182 c 6.600345,-0.118422 11.880529,-5.46023 11.880529,-12.089875 0,-6.704339 -5.397356,-12.1016948 -12.101695,-12.1016948 z"
       style="fill:#cccccc;stroke-width:0.86440676" />
    <path
       inkscape:connector-curvature="0"
       id="path4"
       d="m 14.101695,5.7966102 a 2.5932203,2.5932203 0 0 0 -0.221166,0.011818 C 7.280184,5.9268522 2,11.26866 2,17.898305 2,24.515411 7.2605326,29.84855 13.843386,29.986494 a 2.5932203,2.5932203 0 0 1 -2.334911,-2.579714 2.5932203,2.5932203 0 0 1 2.59322,-2.593221 5.1864407,6.9152542 0 0 1 -5.1864408,-6.915254 5.1864407,6.9152542 0 0 1 5.1864408,-6.915254 2.5932203,2.5932203 0 0 0 2.59322,-2.5932206 2.5932203,2.5932203 0 0 0 -2.59322,-2.5932202 z"
       style="fill:#e74c3c;stroke-width:0.86440676" />
  </g>
</svg>
