<?xml version="1.0" encoding="UTF-8" standalone="no"?>
<svg
   xmlns:dc="http://purl.org/dc/elements/1.1/"
   xmlns:cc="http://creativecommons.org/ns#"
   xmlns:rdf="http://www.w3.org/1999/02/22-rdf-syntax-ns#"
   xmlns:svg="http://www.w3.org/2000/svg"
   xmlns="http://www.w3.org/2000/svg"
   xmlns:sodipodi="http://sodipodi.sourceforge.net/DTD/sodipodi-0.dtd"
   xmlns:inkscape="http://www.inkscape.org/namespaces/inkscape"
   height="32"
   width="32"
   version="1"
   id="svg14"
   sodipodi:docname="other_sciences.svg"
   inkscape:version="0.92.2 2405546, 2018-03-11">
  <metadata
     id="metadata20">
    <rdf:RDF>
      <cc:Work
         rdf:about="">
        <dc:format>image/svg+xml</dc:format>
        <dc:type
           rdf:resource="http://purl.org/dc/dcmitype/StillImage" />
        <dc:title></dc:title>
      </cc:Work>
    </rdf:RDF>
  </metadata>
  <defs
     id="defs18" />
  <sodipodi:namedview
     pagecolor="#ffffff"
     bordercolor="#666666"
     borderopacity="1"
     objecttolerance="10"
     gridtolerance="10"
     guidetolerance="10"
     inkscape:pageopacity="0"
     inkscape:pageshadow="2"
     inkscape:window-width="1680"
     inkscape:window-height="972"
     id="namedview16"
     showgrid="false"
     inkscape:zoom="8"
     inkscape:cx="1.3974665"
     inkscape:cy="20.656313"
     inkscape:window-x="0"
     inkscape:window-y="0"
     inkscape:window-maximized="1"
     inkscape:current-layer="svg14"
     showguides="true"
     inkscape:guide-bbox="true" />
  <rect
     style="opacity:1;fill:#88c5cc;fill-opacity:1;fill-rule:evenodd;stroke:none;stroke-width:1.03534329;stroke-linecap:round;stroke-linejoin:bevel;stroke-miterlimit:4;stroke-dasharray:none;stroke-dashoffset:0;stroke-opacity:1"
     id="rect4497-3"
     width="28.203388"
     height="28.203388"
     x="1.8983059"
     y="1.8983059"
     ry="5.575182" />
  <g
     id="g1021"
     transform="translate(0.05399683,-0.00312498)">
    <path
       sodipodi:nodetypes="cscccsccccsccccscscscscccscccccscccssssccccscccsssccscccccccsccsscsccccc"
       inkscape:connector-curvature="0"
       id="path920"
       d="m 16.478546,25.234376 c 0.250266,-0.127615 0.346349,-0.295744 0.346349,-0.606067 0,-0.310323 -0.09609,-0.478453 -0.346349,-0.606069 -0.132805,-0.06773 -0.288398,-0.07999 -1.014607,-0.08006 l -0.857745,-7.1e-5 v -0.201512 c 0,-0.1923 0.01,-0.207244 0.217295,-0.326931 0.669573,-0.38646 1.40686,-1.073401 1.845775,-1.719729 0.261693,-0.385362 0.564712,-1.016352 0.70532,-1.468724 l 0.124422,-0.400282 h 0.969532 c 0.910707,0 0.97557,-0.0056 1.069094,-0.09276 0.208458,-0.194208 0.167708,-0.4992 -0.08369,-0.626413 -0.157014,-0.07945 -5.262529,-0.08444 -5.411139,-0.0052 -0.241657,0.128708 -0.290762,0.423421 -0.102001,0.612184 0.111143,0.111142 0.120912,0.112292 0.960676,0.112292 0.973976,0 0.931726,-0.02544 0.704887,0.42446 -0.567894,1.126329 -1.522598,1.894318 -2.724737,2.191842 -0.31351,0.0776 -0.529202,0.09864 -0.974462,0.09512 -1.099188,-0.0087 -1.9920253,-0.370347 -2.7822448,-1.126915 -0.8245055,-0.789398 -1.2456661,-1.781885 -1.2468,-2.938158 -9.998e-4,-1.049291 0.3649749,-1.986171 1.0740407,-2.749281 0.3372901,-0.362998 0.7305348,-0.666639 1.1105761,-0.857522 l 0.234299,-0.117681 0.222397,0.115382 c 0.442135,0.229388 0.967352,0.192661 1.38859,-0.0971 l 0.224983,-0.154761 1.064073,1.22348 c 0.58524,0.672915 1.144741,1.300315 1.243334,1.394221 0.216355,0.206069 0.447504,0.264754 0.630087,0.159963 0.110607,-0.06348 0.131796,-0.06394 0.18166,-0.0038 0.07082,0.08532 0.287766,0.199226 0.379475,0.199226 0.03812,0 0.143717,-0.06534 0.234674,-0.145201 l 0.165373,-0.1452 0.251591,0.282439 c 0.138373,0.155342 0.269072,0.282438 0.29044,0.282438 0.05691,0 0.685784,-0.554788 0.685784,-0.604998 0,-0.02347 -0.102932,-0.161016 -0.228733,-0.305654 -0.125802,-0.144639 -0.228732,-0.275238 -0.228732,-0.290222 0,-0.01499 0.06177,-0.089 0.13724,-0.164478 0.163047,-0.163048 0.179741,-0.352386 0.04606,-0.522333 -0.08368,-0.10638 -0.08559,-0.126645 -0.02315,-0.246338 0.09342,-0.179126 0.08594,-0.290282 -0.03435,-0.509485 -0.05662,-0.1032 -1.449921,-1.731851 -3.096239,-3.619256 C 10.720302,8.0282273 10.618229,7.922814 10.342607,7.9919897 10.278238,8.0081427 10.119673,8.1165785 9.9902407,8.2329478 L 9.7549077,8.4445318 9.5615667,8.2233582 C 9.2553057,7.8729874 9.2077775,7.8328832 9.1167589,7.8480109 8.9845558,7.8699854 8.2474412,8.5245179 8.2474412,8.6199355 c 0,0.04588 0.1145778,0.2184831 0.2546135,0.3835515 L 8.7566669,9.3036098 8.5216886,9.5207368 C 8.313809,9.7128235 8.2864715,9.7594923 8.2846519,9.9253947 c -0.00109,0.1031493 0.021593,0.2317133 0.050489,0.2857163 0.028909,0.054 0.4930778,0.60404 1.0315027,1.222303 l 0.9789554,1.124119 -0.177916,0.183329 c -0.09785,0.100838 -0.1904093,0.222691 -0.2056773,0.270799 -0.01692,0.0533 -0.191954,0.166868 -0.448007,0.290699 -1.7716258,0.856768 -2.9562948,2.456782 -3.2361543,4.37075 -0.078211,0.534847 -0.031668,1.607081 0.091427,2.106091 0.3584294,1.453173 1.2060995,2.664976 2.426641,3.469058 0.2355529,0.155183 0.4418197,0.28215 0.4583673,0.28215 0.016549,0 0.030084,0.09264 0.030084,0.205858 v 0.205858 H 8.3519148 c -0.711704,0 -0.9616925,0.01521 -1.0559788,0.06427 -0.529106,0.27529 -0.5210525,1.005864 0.013714,1.243541 0.1112195,0.04943 0.978761,0.06132 4.574642,0.06271 4.136297,0.0017 4.448047,-0.0036 4.594263,-0.07826 z"
       style="fill:#f5f5f5;fill-opacity:1;stroke-width:0.04574642" />
    <path
       sodipodi:nodetypes="cscccscccccccccsccccccccscscccscccccscccc"
       inkscape:connector-curvature="0"
       id="path918"
       d="m 16.457366,25.240264 c 0.245643,-0.11657 0.360548,-0.314163 0.360548,-0.620019 0,-0.301641 -0.09842,-0.471565 -0.346348,-0.597985 -0.132806,-0.06773 -0.288399,-0.07999 -1.014608,-0.08006 l -0.857745,-7e-5 v -0.199359 c 0,-0.195407 0.0056,-0.202818 0.285916,-0.374096 0.914085,-0.55866 1.684773,-1.402341 2.171855,-2.377554 0.153462,-0.30725 0.232359,-0.51514 0.403525,-1.063242 0.01388,-0.04442 -0.173153,-0.05643 -0.838452,-0.05377 l -0.856311,0.0033 -0.217265,0.442617 c -0.502981,1.024684 -1.472707,1.808662 -2.619013,2.117341 -0.475395,0.128017 -1.395702,0.139617 -1.875604,0.02362 -0.840828,-0.203198 -1.3874723,-0.507457 -2.0050639,-1.116008 -1.6154588,-1.591808 -1.5841437,-4.220817 0.069132,-5.80369 0.281633,-0.269642 0.9092539,-0.714191 1.0887159,-0.77115 0.05089,-0.01615 0.185649,0.02499 0.329428,0.100558 0.204409,0.107439 0.298174,0.127735 0.586413,0.126938 0.406583,-0.0011 0.64648,-0.09592 0.969378,-0.38305 0.684178,-0.6084 0.466532,-1.788096 -0.403369,-2.186352 -0.321727,-0.147291 -0.780312,-0.156951 -1.083524,-0.02282 -0.216521,0.09578 -0.544481,0.40105 -0.6499353,0.604975 -0.04068,0.07868 -0.162622,0.164913 -0.350942,0.248188 -1.7402877,0.769545 -3.0023864,2.409359 -3.3089028,4.299179 -0.3609066,2.225161 0.6219711,4.457293 2.5105383,5.701464 0.2263106,0.149092 0.4251841,0.271076 0.441941,0.271076 0.016753,0 0.031872,0.09264 0.033583,0.20586 l 0.00319,0.205857 -0.9222319,9.4e-5 c -1.0349453,9.2e-5 -1.1521433,0.02758 -1.3444739,0.315484 -0.2176238,0.325761 -0.090099,0.799286 0.2630424,0.97671 0.1482859,0.07451 0.4629592,0.07999 4.5896892,0.08005 3.993091,4.5e-5 4.445939,-0.0074 4.586981,-0.07419 z M 10.775329,14.294627 c -0.439604,-0.268067 -0.503534,-0.789691 -0.13997,-1.142069 0.348504,-0.337784 0.904798,-0.250903 1.134372,0.177161 0.171385,0.31957 0.05387,0.766922 -0.250943,0.955309 -0.200706,0.12404 -0.548419,0.128533 -0.743459,0.0096 z"
       style="fill:#f5f5f5;fill-opacity:1;stroke-width:0.04574642" />
    <circle
       r="1.5529853"
       cy="13.429394"
       cx="11.06264"
       id="path922"
       style="fill:#96e652;fill-opacity:1;stroke:#f5f5f5;stroke-width:0.65225381;stroke-linecap:round;stroke-linejoin:round;stroke-miterlimit:4;stroke-dasharray:none;stroke-opacity:1" />
    <g
       transform="translate(6.6875002,12.5)"
       id="g856">
      <rect
         style="fill:#96e652;fill-opacity:1;stroke:#f5f5f5;stroke-width:0.60000002;stroke-linecap:round;stroke-linejoin:round;stroke-miterlimit:4;stroke-dasharray:none;stroke-opacity:1"
         id="rect837"
         width="3.6266005"
         height="12.34375"
         x="14.1867"
         y="0.30000001"
         ry="1.8133003" />
      <rect
         style="fill:#f5f5f5;fill-opacity:1;stroke:#f5f5f5;stroke-width:0.48141795;stroke-linecap:round;stroke-linejoin:round;stroke-miterlimit:4;stroke-dasharray:none;stroke-opacity:1"
         id="rect837-3"
         width="3.7455821"
         height="7.6943073"
         x="14.127209"
         y="0.23599817"
         ry="0" />
    </g>
    <rect
       ry="0.3314563"
       y="11.662447"
       x="19.704393"
       height="0.66291261"
       width="5.9662137"
       id="rect860"
       style="fill:#f5f5f5;fill-opacity:1;stroke:#f5f5f5;stroke-width:0;stroke-linecap:round;stroke-linejoin:round;stroke-miterlimit:4;stroke-dasharray:none;stroke-opacity:1" />
    <path
       inkscape:connector-curvature="0"
       id="path862"
       d="m 21.498047,13.742188 a 0.15059342,0.15059342 0 0 0 0.01563,0.300781 h 1.027344 a 0.1503905,0.1503905 0 0 0 0,-0.300781 h -1.027344 a 0.15001501,0.15001501 0 0 0 -0.01563,0 z m -0.0059,0.583984 a 0.15059326,0.15059326 0 0 0 0.01562,0.300781 h 0.460938 a 0.1503905,0.1503905 0 0 0 0,-0.300781 h -0.460938 a 0.15001501,0.15001501 0 0 0 -0.01562,0 z m -0.0078,0.585937 a 0.15110286,0.15110286 0 0 0 0.0293,0.300782 h 1.027344 a 0.150391,0.150391 0 0 0 0,-0.300782 h -1.027344 a 0.15001501,0.15001501 0 0 0 -0.01563,0 0.15059342,0.15059342 0 0 0 -0.01367,0 z m 0.0078,0.583985 a 0.15001501,0.15001501 0 0 0 0.01562,0.298828 h 0.460938 a 0.15001501,0.15001501 0 1 0 0,-0.298828 h -0.460938 a 0.15001501,0.15001501 0 0 0 -0.01562,0 z m 0.0059,0.583984 a 0.15059342,0.15059342 0 0 0 0.01563,0.300781 h 1.027344 a 0.1503905,0.1503905 0 0 0 0,-0.300781 h -1.027344 a 0.15001501,0.15001501 0 0 0 -0.01563,0 z m -0.0059,0.583984 a 0.15059376,0.15059376 0 0 0 0.01562,0.300782 h 0.460938 a 0.150391,0.150391 0 1 0 0,-0.300782 h -0.460938 a 0.150391,0.150391 0 0 0 -0.01562,0 z M 21.484375,17.25 a 0.15110237,0.15110237 0 0 0 0.0293,0.300781 h 1.027344 a 0.1503905,0.1503905 0 0 0 0,-0.300781 h -1.027344 a 0.15001501,0.15001501 0 0 0 -0.01563,0 0.15059342,0.15059342 0 0 0 -0.01367,0 z m 0.0078,0.583984 a 0.15001501,0.15001501 0 0 0 0.01562,0.298828 h 0.460938 a 0.15001501,0.15001501 0 1 0 0,-0.298828 h -0.460938 a 0.15001501,0.15001501 0 0 0 -0.01562,0 z m 0.0059,0.583985 a 0.15059342,0.15059342 0 0 0 0.01563,0.300781 h 1.027344 a 0.1503905,0.1503905 0 0 0 0,-0.300781 h -1.027344 a 0.15001501,0.15001501 0 0 0 -0.01563,0 z m -0.0059,0.583984 a 0.15059326,0.15059326 0 0 0 0.01562,0.300781 h 0.460938 a 0.1503905,0.1503905 0 0 0 0,-0.300781 h -0.460938 a 0.1503905,0.1503905 0 0 0 -0.01562,0 z"
       style="color:#000000;font-style:normal;font-variant:normal;font-weight:normal;font-stretch:normal;font-size:medium;line-height:normal;font-family:sans-serif;font-variant-ligatures:normal;font-variant-position:normal;font-variant-caps:normal;font-variant-numeric:normal;font-variant-alternates:normal;font-feature-settings:normal;text-indent:0;text-align:start;text-decoration:none;text-decoration-line:none;text-decoration-style:solid;text-decoration-color:#000000;letter-spacing:normal;word-spacing:normal;text-transform:none;writing-mode:lr-tb;direction:ltr;text-orientation:mixed;dominant-baseline:auto;baseline-shift:baseline;text-anchor:start;white-space:normal;shape-padding:0;clip-rule:nonzero;display:inline;overflow:visible;visibility:visible;opacity:1;isolation:auto;mix-blend-mode:normal;color-interpolation:sRGB;color-interpolation-filters:linearRGB;solid-color:#000000;solid-opacity:1;vector-effect:none;fill:#b3b3b3;fill-opacity:1;fill-rule:nonzero;stroke:none;stroke-width:0.30000001;stroke-linecap:round;stroke-linejoin:bevel;stroke-miterlimit:4;stroke-dasharray:none;stroke-dashoffset:0;stroke-opacity:1;color-rendering:auto;image-rendering:auto;shape-rendering:auto;text-rendering:auto;enable-background:accumulate" />
    <circle
       transform="scale(-1,1)"
       r="0.71465164"
       cy="7.8250513"
       cx="-21.807121"
       id="path962"
       style="fill:#f5f5f5;fill-opacity:1;stroke:none;stroke-width:0.57172137;stroke-linecap:round;stroke-linejoin:bevel;stroke-miterlimit:4;stroke-dasharray:none;stroke-opacity:1" />
    <circle
       transform="scale(-1,1)"
       r="0.92904711"
       cy="9.61168"
       cx="-19.782274"
       id="path962-7"
       style="fill:#f5f5f5;fill-opacity:1;stroke:none;stroke-width:0.74323779;stroke-linecap:round;stroke-linejoin:bevel;stroke-miterlimit:4;stroke-dasharray:none;stroke-opacity:1" />
    <circle
       transform="scale(-1,1)"
       r="0.40496927"
       cy="10.516906"
       cx="-22.021517"
       id="path962-7-0"
       style="fill:#f5f5f5;fill-opacity:1;stroke:none;stroke-width:0.32397544;stroke-linecap:round;stroke-linejoin:bevel;stroke-miterlimit:4;stroke-dasharray:none;stroke-opacity:1" />
    <circle
       transform="scale(-1,1)"
       r="0.40496927"
       cy="6.9674692"
       cx="-19.806097"
       id="path962-7-0-9"
       style="fill:#f5f5f5;fill-opacity:1;stroke:none;stroke-width:0.32397544;stroke-linecap:round;stroke-linejoin:bevel;stroke-miterlimit:4;stroke-dasharray:none;stroke-opacity:1" />
  </g>
</svg>
