<?xml version="1.0" encoding="UTF-8" standalone="no"?>
<svg
   xmlns:dc="http://purl.org/dc/elements/1.1/"
   xmlns:cc="http://creativecommons.org/ns#"
   xmlns:rdf="http://www.w3.org/1999/02/22-rdf-syntax-ns#"
   xmlns:svg="http://www.w3.org/2000/svg"
   xmlns="http://www.w3.org/2000/svg"
   xmlns:sodipodi="http://sodipodi.sourceforge.net/DTD/sodipodi-0.dtd"
   xmlns:inkscape="http://www.inkscape.org/namespaces/inkscape"
   height="32"
   width="32"
   version="1"
   id="svg26"
   sodipodi:docname="pcbcalculator.svg"
   inkscape:version="0.92.2 2405546, 2018-03-11">
  <metadata
     id="metadata32">
    <rdf:RDF>
      <cc:Work
         rdf:about="">
        <dc:format>image/svg+xml</dc:format>
        <dc:type
           rdf:resource="http://purl.org/dc/dcmitype/StillImage" />
      </cc:Work>
    </rdf:RDF>
  </metadata>
  <defs
     id="defs30" />
  <sodipodi:namedview
     pagecolor="#ffffff"
     bordercolor="#666666"
     borderopacity="1"
     objecttolerance="10"
     gridtolerance="10"
     guidetolerance="10"
     inkscape:pageopacity="0"
     inkscape:pageshadow="2"
     inkscape:window-width="1680"
     inkscape:window-height="972"
     id="namedview28"
     showgrid="false"
     inkscape:zoom="20.85965"
     inkscape:cx="7.3676612"
     inkscape:cy="10.882383"
     inkscape:window-x="0"
     inkscape:window-y="0"
     inkscape:window-maximized="1"
     inkscape:current-layer="svg26" />
  <path
     inkscape:connector-curvature="0"
     style="opacity:1;fill:#ececec;fill-opacity:1;fill-rule:evenodd;stroke:none;stroke-width:1.03534329;stroke-linecap:round;stroke-linejoin:bevel;stroke-miterlimit:4;stroke-dasharray:none;stroke-dashoffset:0;stroke-opacity:1"
     d="m 7.474609,1.898438 c -3.08865,0 -5.576171,2.485568 -5.576171,5.574219 v 8.527344 H 30.101563 V 7.472657 c 0,-3.088651 -2.485568,-5.574219 -5.574219,-5.574219 z"
     id="rect4497-3-3-6-2-3" />
  <path
     style="color:#000000;font-style:normal;font-variant:normal;font-weight:normal;font-stretch:normal;font-size:medium;line-height:normal;font-family:sans-serif;font-variant-ligatures:normal;font-variant-position:normal;font-variant-caps:normal;font-variant-numeric:normal;font-variant-alternates:normal;font-feature-settings:normal;text-indent:0;text-align:start;text-decoration:none;text-decoration-line:none;text-decoration-style:solid;text-decoration-color:#000000;letter-spacing:normal;word-spacing:normal;text-transform:none;writing-mode:lr-tb;direction:ltr;text-orientation:mixed;dominant-baseline:auto;baseline-shift:baseline;text-anchor:start;white-space:normal;shape-padding:0;clip-rule:nonzero;display:inline;overflow:visible;visibility:visible;opacity:1;isolation:auto;mix-blend-mode:normal;color-interpolation:sRGB;color-interpolation-filters:linearRGB;solid-color:#000000;solid-opacity:1;vector-effect:none;fill:#666666;fill-opacity:1;fill-rule:nonzero;stroke:none;stroke-width:0.70933259;stroke-linecap:round;stroke-linejoin:miter;stroke-miterlimit:4;stroke-dasharray:none;stroke-dashoffset:0;stroke-opacity:1;color-rendering:auto;image-rendering:auto;shape-rendering:auto;text-rendering:auto;enable-background:accumulate"
     d="m 22.979888,7.5724734 -0.654136,-0.00337 -0.573351,-0.0045 C 20.899729,5.1843989 18.62784,3.4748533 15.957188,3.4748533 c -2.609075,0 -4.837942,1.6315029 -5.734622,3.9259334 -0.01194,0.027329 -0.03135,0.074194 -0.03479,0.080785 -0.0077,0.015037 -0.01459,0.037204 -0.01459,0.049362 0,0.012168 -0.01102,0.02725 -0.02468,0.032548 -0.01367,0.00528 -0.318183,0.00888 -0.676575,0.00888 h -0.65189 v 0.2748927 0.2760162 l 0.577838,0.00337 c 0.504628,0.0036 0.578349,0.00742 0.573351,0.02806 -0.0031,0.012978 -0.0197,0.076477 -0.03591,0.1413748 -0.03809,0.1525595 -0.110532,0.5736282 -0.131274,0.7629686 -0.02597,0.2373908 -0.03173,0.3639515 -0.03029,0.6922859 0.0033,0.7716561 0.132349,1.4662131 0.402802,2.1789531 0.224823,0.592496 0.58067,1.201527 0.992986,1.698733 0.845728,1.019862 1.911922,1.698304 3.228038,2.053289 0.266735,0.07194 0.78531,0.154467 1.089477,0.173913 l 0.161571,0.01114 v 0.470124 0.470125 h 0.282747 0.282749 v -0.471243 -0.470125 l 0.138007,-0.01012 c 0.07571,-0.0056 0.163844,-0.01372 0.196352,-0.01795 0.03251,-0.0043 0.11124,-0.01464 0.173914,-0.02244 0.371408,-0.04623 0.796314,-0.145482 1.172508,-0.273771 1.266055,-0.431751 2.349204,-1.27172 3.09564,-2.367453 0.03655,-0.05182 0.07388,-0.102982 0.108834,-0.155959 0.02208,-0.03468 0.04256,-0.0703 0.06396,-0.105471 0.600591,-0.950606 0.953715,-2.072794 0.953715,-3.2785303 0,-0.5200536 -0.07233,-1.0219811 -0.194109,-1.5046228 0.0512,-0.00382 0.22879,-0.00675 0.500421,-0.00675 h 0.556514 V 7.8482804 Z m -1.571945,2.062265 c 0,2.9276706 -2.299986,5.3024946 -5.193811,5.4372896 v -1.182606 -1.39242 h 1.127626 1.127625 l 0.06396,-0.03815 c 0.03604,-0.02112 0.08018,-0.06482 0.09986,-0.09986 0.03362,-0.05978 0.03591,-0.07927 0.03591,-0.419634 0,-0.375598 -0.0031,-0.390438 -0.07742,-0.470125 -0.06162,-0.06612 -0.121545,-0.08836 -0.256942,-0.09313 l -0.1223,-0.0045 0.650768,-0.650768 0.651893,-0.651892 0.170545,0.168303 c 0.110217,0.108192 0.188949,0.172483 0.22216,0.181767 0.0597,0.01669 0.135453,-3.67e-4 0.181767,-0.04151 0.01734,-0.01541 0.212763,-0.3960437 0.435342,-0.8460004 0.584298,-1.1811919 0.660146,-1.3305012 0.679941,-1.3576392 0.128977,0.4654275 0.203086,0.9538894 0.203086,1.4608643 z m -0.270406,-1.6942435 -0.491443,0.242355 c -0.296038,0.146474 -0.817941,0.4051209 -1.160163,0.5744717 -0.342227,0.1693519 -0.641078,0.3269128 -0.664234,0.3500697 -0.05225,0.052252 -0.06792,0.1267744 -0.04039,0.1941092 0.01152,0.028105 0.09188,0.1205639 0.178401,0.20645 l 0.157081,0.157083 -0.85722,0.8572195 -0.85722,0.85722 H 15.899973 14.397594 L 12.557488,9.5404893 10.825094,7.8080961 c 0.750289,-2.1124947 2.75949,-3.6241106 5.132101,-3.6241106 2.422344,0 4.468844,1.5743193 5.180348,3.7565094 z m -5.488901,4.5565071 v 1.396908 1.175873 c -2.869482,-0.160536 -5.142199,-2.524807 -5.142199,-5.4350446 0,-0.4071195 0.0481,-0.8022768 0.132398,-1.1837269 0.08571,0.06929 0.523041,0.4960747 1.422716,1.3957888 l 1.533796,1.5326727 h -0.121178 c -0.137843,0 -0.19132,0.01635 -0.254698,0.0763 -0.08601,0.0814 -0.08863,0.09801 -0.08863,0.484712 0,0.348861 0.0014,0.35892 0.03815,0.421877 0.02112,0.03604 0.06482,0.07904 0.09986,0.09873 l 0.06283,0.03591 h 1.15792 z"
     id="path880-3-3-6"
     inkscape:connector-curvature="0" />
  <path
     inkscape:connector-curvature="0"
     style="color:#000000;font-style:normal;font-variant:normal;font-weight:normal;font-stretch:normal;font-size:medium;line-height:normal;font-family:sans-serif;font-variant-ligatures:normal;font-variant-position:normal;font-variant-caps:normal;font-variant-numeric:normal;font-variant-alternates:normal;font-feature-settings:normal;text-indent:0;text-align:start;text-decoration:none;text-decoration-line:none;text-decoration-style:solid;text-decoration-color:#000000;letter-spacing:normal;word-spacing:normal;text-transform:none;writing-mode:lr-tb;direction:ltr;text-orientation:mixed;dominant-baseline:auto;baseline-shift:baseline;text-anchor:start;white-space:normal;shape-padding:0;clip-rule:nonzero;display:inline;overflow:visible;visibility:visible;opacity:1;isolation:auto;mix-blend-mode:normal;color-interpolation:sRGB;color-interpolation-filters:linearRGB;solid-color:#000000;solid-opacity:1;vector-effect:none;fill:#666666;fill-opacity:1;fill-rule:nonzero;stroke:none;stroke-width:1.4284569px;stroke-linecap:butt;stroke-linejoin:miter;stroke-miterlimit:4;stroke-dasharray:none;stroke-dashoffset:0;stroke-opacity:1;color-rendering:auto;image-rendering:auto;shape-rendering:auto;text-rendering:auto;enable-background:accumulate"
     d="m 25.604586,7.5635469 h -0.560135 -3.292718 v 0.5601356 h 3.292718 v 9.7529455 h 0.560135 V 8.1236825 Z"
     id="path1111-7-1" />
  <path
     inkscape:connector-curvature="0"
     style="color:#000000;font-style:normal;font-variant:normal;font-weight:normal;font-stretch:normal;font-size:medium;line-height:normal;font-family:sans-serif;font-variant-ligatures:normal;font-variant-position:normal;font-variant-caps:normal;font-variant-numeric:normal;font-variant-alternates:normal;font-feature-settings:normal;text-indent:0;text-align:start;text-decoration:none;text-decoration-line:none;text-decoration-style:solid;text-decoration-color:#000000;letter-spacing:normal;word-spacing:normal;text-transform:none;writing-mode:lr-tb;direction:ltr;text-orientation:mixed;dominant-baseline:auto;baseline-shift:baseline;text-anchor:start;white-space:normal;shape-padding:0;clip-rule:nonzero;display:inline;overflow:visible;visibility:visible;opacity:1;isolation:auto;mix-blend-mode:normal;color-interpolation:sRGB;color-interpolation-filters:linearRGB;solid-color:#000000;solid-opacity:1;vector-effect:none;fill:#666666;fill-opacity:1;fill-rule:nonzero;stroke:none;stroke-width:1.4284569px;stroke-linecap:butt;stroke-linejoin:miter;stroke-miterlimit:4;stroke-dasharray:none;stroke-dashoffset:0;stroke-opacity:1;color-rendering:auto;image-rendering:auto;shape-rendering:auto;text-rendering:auto;enable-background:accumulate"
     d="m 6.381773,7.5576548 h 0.560135 3.292717 V 8.1177904 H 6.941908 V 17.870736 H 6.381773 V 8.1177904 Z"
     id="path1111-7-2-2" />
  <path
     style="fill:#46719d;fill-opacity:1;stroke-width:1.00724995"
     d="M 1.8984375 16 L 1.8984375 24.525391 C 1.8984375 25.297554 2.0545645 26.031766 2.3359375 26.699219 C 2.6173095 27.366673 3.0234867 27.966846 3.5273438 28.470703 C 4.0312007 28.97456 4.6313751 29.38269 5.2988281 29.664062 C 5.9662821 29.945435 6.7004943 30.101562 7.4726562 30.101562 L 16 30.101562 L 24.527344 30.101562 C 25.299507 30.101562 26.033718 29.945435 26.701172 29.664062 C 27.368626 29.38269 27.968799 28.97456 28.472656 28.470703 C 28.976513 27.966846 29.382689 27.366672 29.664062 26.699219 C 29.945435 26.031765 30.101563 25.297554 30.101562 24.525391 L 30.101562 16 L 16 16 L 1.8984375 16 z "
     id="path2-0" />
  <circle
     style="fill:#4b4b4b;fill-opacity:1;fill-rule:evenodd;stroke-width:0.78965372;enable-background:new"
     cx="22.99984"
     cy="22.791994"
     r="6.3172297"
     id="circle12-3" />
  <path
     inkscape:connector-curvature="0"
     style="fill:#ebebeb;stroke-width:1.00724995;enable-background:new"
     d="m 20.028968,21.035521 v 1.007249 h 6.043499 v -1.007249 z m 0,3.02175 v 1.007249 h 6.043499 v -1.007249 z"
     id="path22-8" />
  <path
     style="fill:#ebebeb;fill-rule:evenodd;stroke-width:1.00724995"
     inkscape:connector-curvature="0"
     d="m 6.283563,19.672496 -0.712126,0.713133 2.665687,2.665184 -2.665687,2.665184 0.712126,0.713133 2.665688,-2.666191 2.665182,2.666191 0.713133,-0.713133 -2.66619,-2.665184 2.66619,-2.665184 -0.713133,-0.713133 -2.665182,2.666192 z"
     id="path20-9" />
</svg>
