<?xml version="1.0" encoding="UTF-8" standalone="no"?>
<svg
   xmlns:dc="http://purl.org/dc/elements/1.1/"
   xmlns:cc="http://creativecommons.org/ns#"
   xmlns:rdf="http://www.w3.org/1999/02/22-rdf-syntax-ns#"
   xmlns:svg="http://www.w3.org/2000/svg"
   xmlns="http://www.w3.org/2000/svg"
   xmlns:sodipodi="http://sodipodi.sourceforge.net/DTD/sodipodi-0.dtd"
   xmlns:inkscape="http://www.inkscape.org/namespaces/inkscape"
   height="32"
   width="32"
   version="1"
   id="svg40"
   sodipodi:docname="pcsx2.svg"
   inkscape:version="0.92.1 r">
  <metadata
     id="metadata46">
    <rdf:RDF>
      <cc:Work
         rdf:about="">
        <dc:format>image/svg+xml</dc:format>
        <dc:type
           rdf:resource="http://purl.org/dc/dcmitype/StillImage" />
      </cc:Work>
    </rdf:RDF>
  </metadata>
  <defs
     id="defs44" />
  <sodipodi:namedview
     pagecolor="#ffffff"
     bordercolor="#666666"
     borderopacity="1"
     objecttolerance="10"
     gridtolerance="10"
     guidetolerance="10"
     inkscape:pageopacity="0"
     inkscape:pageshadow="2"
     inkscape:window-width="640"
     inkscape:window-height="480"
     id="namedview42"
     showgrid="false"
     inkscape:zoom="13.435029"
     inkscape:cx="-4.5347876"
     inkscape:cy="21.885733"
     inkscape:current-layer="svg40" />
  <rect
     style="opacity:1;fill:#225670;fill-opacity:1;fill-rule:evenodd;stroke:none;stroke-width:1.03534329;stroke-linecap:round;stroke-linejoin:bevel;stroke-miterlimit:4;stroke-dasharray:none;stroke-dashoffset:0;stroke-opacity:1"
     id="rect4497-3"
     width="28.203388"
     height="28.203388"
     x="1.8983059"
     y="1.8983059"
     ry="5.575182"
     inkscape:export-filename="/home/ramil/3.png"
     inkscape:export-xdpi="71"
     inkscape:export-ydpi="71" />
  <g
     id="g4560"
     transform="translate(36.787106,17.863492)">
    <path
       style="fill:#5f7c8a;stroke-width:1"
       inkscape:connector-curvature="0"
       id="path2"
       d="m -30.581338,-5.8291454 0.0771,3.3885069 c 0.0771,0.5385401 0.527012,1.51341054 1.210317,2.28251812 0.948014,1.06717484 2.33872,1.73895938 3.893499,1.73895938 h 9.210667 l 3.453938,4.5600094 c 1.726928,2.2799637 3.6733891,0.4030542 3.4539383,-1.140023 L -9.8570818,-5.8299694 Z" />
    <path
       style="fill:#7f96a1;stroke-width:1"
       inkscape:connector-curvature="0"
       id="path4"
       d="m -26.517421,-10.92851 h 11.500767 c 2.867198,0 5.1754274,2.2648001 5.1754274,5.0781035 0,1.2892627 -0.4847944,2.4634022 -1.2859664,3.3571097 -0.947025,1.0563795 -2.336248,1.72099461 -3.889379,1.72099461 h -9.200778 l -4.600389,6.77075069 c -1.74069,2.291748 -3.812657,0.9682861 -3.449818,-1.1281563 l 0.575039,-10.720369 c 0.150723,-2.8092655 2.308229,-5.0779392 5.175427,-5.0779392 z" />
    <rect
       style="fill:#dfe5e8;stroke-width:1"
       id="rect22"
       x="-6.8081446"
       y="24.068933"
       width="1.6481465"
       height="4.9444394"
       ry="0"
       transform="rotate(90)" />
    <g
       style="fill:#dfe5e8;stroke-width:1.21348441"
       id="g32"
       transform="matrix(0.82407326,0,0,0.82407326,-33.957813,-15.87295)">
      <circle
         style="stroke-width:1.21348441"
         id="circle24"
         r="1"
         cx="21"
         cy="12" />
      <circle
         style="stroke-width:1.21348441"
         id="circle26"
         r="1"
         cx="25"
         cy="12" />
      <circle
         style="stroke-width:1.21348441"
         id="circle28"
         transform="rotate(90)"
         r="1"
         cx="10"
         cy="-23" />
      <circle
         style="stroke-width:1.21348441"
         id="circle30"
         transform="rotate(90)"
         r="1"
         cx="14"
         cy="-23" />
    </g>
    <rect
       style="fill:#dfe5e8;stroke-width:1"
       id="rect36"
       x="25.717079"
       y="3.5118513"
       width="1.6481465"
       height="4.9444394"
       transform="scale(-1)"
       ry="0" />
  </g>
</svg>
