<?xml version="1.0" encoding="UTF-8" standalone="no"?>
<svg
   xmlns:dc="http://purl.org/dc/elements/1.1/"
   xmlns:cc="http://creativecommons.org/ns#"
   xmlns:rdf="http://www.w3.org/1999/02/22-rdf-syntax-ns#"
   xmlns:svg="http://www.w3.org/2000/svg"
   xmlns="http://www.w3.org/2000/svg"
   xmlns:sodipodi="http://sodipodi.sourceforge.net/DTD/sodipodi-0.dtd"
   xmlns:inkscape="http://www.inkscape.org/namespaces/inkscape"
   height="32"
   viewBox="0 0 32 32"
   width="32"
   version="1.1"
   id="svg14"
   sodipodi:docname="pencil.svg"
   inkscape:version="0.92.1 r">
  <metadata
     id="metadata20">
    <rdf:RDF>
      <cc:Work
         rdf:about="">
        <dc:format>image/svg+xml</dc:format>
        <dc:type
           rdf:resource="http://purl.org/dc/dcmitype/StillImage" />
      </cc:Work>
    </rdf:RDF>
  </metadata>
  <defs
     id="defs18" />
  <sodipodi:namedview
     pagecolor="#ffffff"
     bordercolor="#666666"
     borderopacity="1"
     objecttolerance="10"
     gridtolerance="10"
     guidetolerance="10"
     inkscape:pageopacity="0"
     inkscape:pageshadow="2"
     inkscape:window-width="640"
     inkscape:window-height="480"
     id="namedview16"
     showgrid="false"
     inkscape:zoom="9.5"
     inkscape:cx="-12.897657"
     inkscape:cy="14.078138"
     inkscape:current-layer="svg14" />
  <rect
     style="opacity:1;fill:#cccccc;fill-opacity:1;fill-rule:evenodd;stroke:none;stroke-width:1.03534329;stroke-linecap:round;stroke-linejoin:bevel;stroke-miterlimit:4;stroke-dasharray:none;stroke-dashoffset:0;stroke-opacity:1"
     id="rect4497-3-3"
     width="28.203388"
     height="28.203388"
     x="1.8983059"
     y="1.8983059"
     ry="5.575182"
     inkscape:export-filename="/home/ramil/3.png"
     inkscape:export-xdpi="71"
     inkscape:export-ydpi="71" />
  <g
     id="g4550"
     transform="translate(41.578125,3.3691406)">
    <path
       id="path4528"
       d="m -16.052734,26.53125 v -13.125 l -6,-3.300781 -6,3.300781 v 13.326172 h 11 c 0.355264,0 0.666711,-0.131069 1,-0.201172 z"
       style="opacity:1;fill:#fea332;fill-opacity:1;fill-rule:evenodd;stroke:none;stroke-width:1.03534329;stroke-linecap:round;stroke-linejoin:bevel;stroke-miterlimit:4;stroke-dasharray:none;stroke-dashoffset:0;stroke-opacity:1"
       inkscape:connector-curvature="0" />
    <path
       id="path4525"
       d="m -22.052734,9.1054688 -7,3.5996092 v 14.027344 h 1 V 13.40625 l 6,-3.300781 6,3.300781 v 13.125 c 0.333163,-0.07008 0.688177,-0.07917 1,-0.199219 V 12.705078 Z"
       style="opacity:1;fill:#4e4e4e;fill-opacity:1;fill-rule:evenodd;stroke:none;stroke-width:1.03534329;stroke-linecap:round;stroke-linejoin:bevel;stroke-miterlimit:4;stroke-dasharray:none;stroke-dashoffset:0;stroke-opacity:1"
       inkscape:connector-curvature="0" />
    <path
       id="rect4497-3"
       d="m -34.105469,-1.4707031 c -3.088651,0 -5.574219,2.487521 -5.574219,5.5761719 V 21.158203 c 0,3.088651 2.485568,5.574219 5.574219,5.574219 h 5.052735 V 12.705078 l 7,-3.5996092 7,3.5996092 v 13.626953 c 2.088225,-0.803975 3.576172,-2.795572 3.576172,-5.173828 V 4.1054688 c -1e-6,-3.0886509 -2.487522,-5.5761719 -5.576172,-5.5761719 z"
       style="opacity:1;fill:#cccccc;fill-opacity:1;fill-rule:evenodd;stroke:none;stroke-width:1.03534329;stroke-linecap:round;stroke-linejoin:bevel;stroke-miterlimit:4;stroke-dasharray:none;stroke-dashoffset:0;stroke-opacity:1"
       inkscape:connector-curvature="0" />
    <path
       style="fill:#4e4e4e"
       inkscape:connector-curvature="0"
       id="path8"
       d="m -20.052632,13.105263 a 2,1 0 0 1 -1,0.86602 2,1 0 0 1 -2,0 2,1 0 0 1 -1,-0.866" />
  </g>
</svg>
