<?xml version="1.0" encoding="UTF-8" standalone="no"?>
<svg
   xmlns:dc="http://purl.org/dc/elements/1.1/"
   xmlns:cc="http://creativecommons.org/ns#"
   xmlns:rdf="http://www.w3.org/1999/02/22-rdf-syntax-ns#"
   xmlns:svg="http://www.w3.org/2000/svg"
   xmlns="http://www.w3.org/2000/svg"
   xmlns:sodipodi="http://sodipodi.sourceforge.net/DTD/sodipodi-0.dtd"
   xmlns:inkscape="http://www.inkscape.org/namespaces/inkscape"
   height="32"
   width="32"
   version="1"
   id="svg32"
   sodipodi:docname="persepolis.svg"
   inkscape:version="0.92.1 r">
  <metadata
     id="metadata38">
    <rdf:RDF>
      <cc:Work
         rdf:about="">
        <dc:format>image/svg+xml</dc:format>
        <dc:type
           rdf:resource="http://purl.org/dc/dcmitype/StillImage" />
      </cc:Work>
    </rdf:RDF>
  </metadata>
  <defs
     id="defs36" />
  <sodipodi:namedview
     pagecolor="#ffffff"
     bordercolor="#666666"
     borderopacity="1"
     objecttolerance="10"
     gridtolerance="10"
     guidetolerance="10"
     inkscape:pageopacity="0"
     inkscape:pageshadow="2"
     inkscape:window-width="640"
     inkscape:window-height="480"
     id="namedview34"
     showgrid="false"
     inkscape:zoom="9.5"
     inkscape:cx="-4.1052632"
     inkscape:cy="16"
     inkscape:current-layer="svg32" />
  <rect
     style="opacity:1;fill:#ea4141;fill-opacity:1;fill-rule:evenodd;stroke:none;stroke-width:1.03534329;stroke-linecap:round;stroke-linejoin:bevel;stroke-miterlimit:4;stroke-dasharray:none;stroke-dashoffset:0;stroke-opacity:1"
     id="rect4497-3"
     width="28.203388"
     height="28.203388"
     x="1.8983059"
     y="1.8983059"
     ry="5.575182"
     inkscape:export-filename="/home/ramil/3.png"
     inkscape:export-xdpi="71"
     inkscape:export-ydpi="71" />
  <g
     style="fill:#ffffff"
     id="g28"
     transform="translate(0,-0.5)">
    <path
       d="m 15,19 c -2.1,2.8 -1.978498,5.023192 -2.5,8 -0.700624,-3.156686 -0.4,-5.2 -2.5,-8 l 2.5,0.5 z"
       style="fill:#ffffff;stroke-width:1px"
       id="path18"
       inkscape:connector-curvature="0" />
    <path
       style="fill:#ffffff;stroke-width:1px"
       d="m 22,19 c -2.1,2.8 -1.978498,5.023192 -2.5,8 -0.700624,-3.156686 -0.4,-5.2 -2.5,-8 l 2.5,0.5 z"
       id="path20"
       inkscape:connector-curvature="0" />
    <path
       style="fill:#ffffff;stroke-width:1px"
       d="m 10,13 c 2.8,2.1 9.023192,1.978498 12,2.5 -3.156686,0.700624 -9.2,0.4 -12,2.5 l 0.5,-2.5 z"
       id="path22"
       inkscape:connector-curvature="0" />
    <path
       d="M 10,6 C 12.8,8.1 19.023192,7.978498 22,8.5 18.843314,9.200624 12.8,8.9 10,11 L 10.5,8.5 Z"
       style="fill:#ffffff;stroke-width:1px"
       id="path24"
       inkscape:connector-curvature="0" />
    <path
       style="fill:#ffffff;stroke-width:1px"
       d="M 12,9.5000003 C 14.8,11.6 17.023192,11.478498 20,12 c -3.156686,0.700624 -5.2,0.4 -8,2.5 L 12.5,12 Z"
       id="path26"
       inkscape:connector-curvature="0" />
  </g>
</svg>
