<?xml version="1.0" encoding="UTF-8" standalone="no"?>
<svg
   xmlns:dc="http://purl.org/dc/elements/1.1/"
   xmlns:cc="http://creativecommons.org/ns#"
   xmlns:rdf="http://www.w3.org/1999/02/22-rdf-syntax-ns#"
   xmlns:svg="http://www.w3.org/2000/svg"
   xmlns="http://www.w3.org/2000/svg"
   xmlns:sodipodi="http://sodipodi.sourceforge.net/DTD/sodipodi-0.dtd"
   xmlns:inkscape="http://www.inkscape.org/namespaces/inkscape"
   height="32"
   width="32"
   version="1"
   id="svg12"
   sodipodi:docname="pgadmin3.svg"
   inkscape:version="0.92.1 r">
  <metadata
     id="metadata18">
    <rdf:RDF>
      <cc:Work
         rdf:about="">
        <dc:format>image/svg+xml</dc:format>
        <dc:type
           rdf:resource="http://purl.org/dc/dcmitype/StillImage" />
      </cc:Work>
    </rdf:RDF>
  </metadata>
  <defs
     id="defs16" />
  <sodipodi:namedview
     pagecolor="#ffffff"
     bordercolor="#666666"
     borderopacity="1"
     objecttolerance="10"
     gridtolerance="10"
     guidetolerance="10"
     inkscape:pageopacity="0"
     inkscape:pageshadow="2"
     inkscape:window-width="640"
     inkscape:window-height="480"
     id="namedview14"
     showgrid="false"
     inkscape:zoom="9.5"
     inkscape:cx="-4.1052632"
     inkscape:cy="16"
     inkscape:current-layer="svg12" />
  <rect
     style="opacity:1;fill:#0286c2;fill-opacity:1;fill-rule:evenodd;stroke:none;stroke-width:1.03534329;stroke-linecap:round;stroke-linejoin:bevel;stroke-miterlimit:4;stroke-dasharray:none;stroke-dashoffset:0;stroke-opacity:1"
     id="rect4497-3"
     width="28.203388"
     height="28.203388"
     x="1.8983059"
     y="1.8983059"
     ry="5.575182"
     inkscape:export-filename="/home/ramil/3.png"
     inkscape:export-xdpi="71"
     inkscape:export-ydpi="71" />
  <path
     d="m 11.017851,8.5002284 c -1.2352994,-0.014 -2.7066994,1.277 -2.9730994,4.9449996 -0.2838,3.913 0.8285,4.299 2.0350994,4.299 1.005,0 1.812,-0.503 2.697,-1.537 0.134,-0.156 0.284,-0.238 0.342,-0.18 0.059,0.059 0.103,0.104 0.098,0.1 -0.005,-0.004 -0.07,0.15 -0.133,0.348 -0.174,0.543 -0.439,1.599 -0.172,2.341 0.07,0.195 0.216,0.167 0.276,-0.031 0.141,-0.472 0.414,-1.284 0.71,-1.693 0.121,-0.167 0.261,-0.072 0.254,0.135 -0.038,1.259 0.368,3.553 2.221,5.011 1.938,1.526 4.762,1.486 6.293,0.834 0.187,-0.08 0.48,-0.075 0.68,-0.039 0.123,0.023 0.279,0.036 0.474,0.026 0.567,-0.033 -0.38,-0.514 -0.443,-0.772 -0.063,-0.258 0.443,-0.308 0.545,-1.129 0.103,-0.822 -0.543,-0.031 -0.543,-0.031 0,0 -0.475,0.557 -2.367,0.435 -1.744,-0.11 -3.822,-1.009 -3.752,-4.169 0.005,-0.208 0.069,-0.393 0.131,-0.418 0.061,-0.025 0.233,0.068 0.339,0.244 0.264,0.434 0.499,1.139 0.627,1.566 0.06,0.198 0.205,0.227 0.276,0.033 0.232,-0.645 0.062,-1.529 -0.102,-2.105 -0.055,-0.199 0.004,-0.45 0.135,-0.574 0.131,-0.125 0.332,-0.104 0.465,0.052 0.89,1.044 1.701,1.555 2.711,1.555 1.206,0 2.319,-0.386 2.035,-4.299 -0.284,-3.9129996 -1.942,-5.1207996 -3.219,-4.9269996 -0.823,0.124 -1.393,0.548 -1.693,0.835 -0.149,0.142 -0.25,0.287 -0.25,0.303 0,0.016 -0.118,-0.089 -0.276,-0.22 -0.688,-0.575 -1.552,-0.918 -2.492,-0.918 -0.927,0 -1.782,0.334 -2.467,0.894 -0.158,0.13 -0.274,0.24 -0.275,0.232 0,-0.008 -0.102,-0.147 -0.25,-0.289 -0.301,-0.286 -0.87,-0.713 -1.693,-0.837 -0.08,-0.013 -0.162,-0.019 -0.244,-0.02 z m 3.482,2.9999996 c 0.276,0 0.5,0.224 0.5,0.5 0,0.276 -0.224,0.5 -0.5,0.5 -0.276,0 -0.5,-0.224 -0.5,-0.5 0,-0.276 0.224,-0.5 0.5,-0.5 z m 3,0 c 0.276,0 0.5,0.224 0.5,0.5 0,0.276 -0.224,0.5 -0.5,0.5 -0.276,0 -0.5,-0.224 -0.5,-0.5 0,-0.276 0.224,-0.5 0.5,-0.5 z"
     id="path10"
     inkscape:connector-curvature="0"
     style="fill:#ececec" />
</svg>
