<?xml version="1.0" encoding="UTF-8" standalone="no"?>
<svg
   xmlns:dc="http://purl.org/dc/elements/1.1/"
   xmlns:cc="http://creativecommons.org/ns#"
   xmlns:rdf="http://www.w3.org/1999/02/22-rdf-syntax-ns#"
   xmlns:svg="http://www.w3.org/2000/svg"
   xmlns="http://www.w3.org/2000/svg"
   xmlns:sodipodi="http://sodipodi.sourceforge.net/DTD/sodipodi-0.dtd"
   xmlns:inkscape="http://www.inkscape.org/namespaces/inkscape"
   height="32"
   width="32"
   version="1"
   id="svg18"
   sodipodi:docname="pidgin.svg"
   inkscape:version="0.92.1 r">
  <metadata
     id="metadata24">
    <rdf:RDF>
      <cc:Work
         rdf:about="">
        <dc:format>image/svg+xml</dc:format>
        <dc:type
           rdf:resource="http://purl.org/dc/dcmitype/StillImage" />
      </cc:Work>
    </rdf:RDF>
  </metadata>
  <defs
     id="defs22" />
  <sodipodi:namedview
     pagecolor="#ffffff"
     bordercolor="#666666"
     borderopacity="1"
     objecttolerance="10"
     gridtolerance="10"
     guidetolerance="10"
     inkscape:pageopacity="0"
     inkscape:pageshadow="2"
     inkscape:window-width="640"
     inkscape:window-height="480"
     id="namedview20"
     showgrid="false"
     inkscape:zoom="9.5"
     inkscape:cx="-38.067445"
     inkscape:cy="14.020225"
     inkscape:current-layer="svg18" />
  <rect
     style="opacity:1;fill:#a002c2;fill-opacity:1;fill-rule:evenodd;stroke:none;stroke-width:1.03534329;stroke-linecap:round;stroke-linejoin:bevel;stroke-miterlimit:4;stroke-dasharray:none;stroke-dashoffset:0;stroke-opacity:1"
     id="rect4497-3"
     width="28.203388"
     height="28.203388"
     x="1.8983059"
     y="1.8983059"
     ry="5.575182"
     inkscape:export-filename="/home/ramil/3.png"
     inkscape:export-xdpi="71"
     inkscape:export-ydpi="71" />
  <g
     id="g4510"
     transform="translate(44.945654,3.57275)">
    <path
       inkscape:connector-curvature="0"
       id="path6"
       style="fill:#f9f9f9;stroke-width:1"
       d="m -32.157403,3.1488649 c -0.593102,0 -1.070582,0.47748 -1.070582,1.070583 v 9.9921071 c 0,0.593103 0.47748,1.070583 1.070582,1.070583 h 9.992108 c 0.593103,0 1.070583,-0.47748 1.070583,-1.070583 V 5.2900299 l 2.141166,-2.141165 z" />
    <path
       inkscape:connector-curvature="0"
       id="path10"
       style="fill:#d335f5;stroke-width:1"
       d="m -38.937761,9.5723619 2.141166,2.1411661 v 8.921524 c 0,0.593103 0.47748,1.070583 1.070583,1.070583 h 9.992107 c 0.593103,0 1.070583,-0.47748 1.070583,-1.070583 v -9.992107 c 0,-0.593103 -0.47748,-1.0705831 -1.070583,-1.0705831 z" />
    <path
       inkscape:connector-curvature="0"
       id="path12"
       style="fill:#edaefb;stroke-width:1"
       d="m -34.655429,13.140972 v 0.713722 h 7.850941 v -0.713722 z m 0,2.141166 v 0.713721 h 7.850941 v -0.713721 z m 0,2.141165 v 0.713722 h 5.995264 v -0.713722 z" />
  </g>
</svg>
