<?xml version="1.0" encoding="UTF-8" standalone="no"?>
<svg
   xmlns:dc="http://purl.org/dc/elements/1.1/"
   xmlns:cc="http://creativecommons.org/ns#"
   xmlns:rdf="http://www.w3.org/1999/02/22-rdf-syntax-ns#"
   xmlns:svg="http://www.w3.org/2000/svg"
   xmlns="http://www.w3.org/2000/svg"
   xmlns:sodipodi="http://sodipodi.sourceforge.net/DTD/sodipodi-0.dtd"
   xmlns:inkscape="http://www.inkscape.org/namespaces/inkscape"
   height="32"
   viewBox="0 0 32 32"
   width="32"
   version="1.1"
   id="svg20"
   sodipodi:docname="playonlinux.svg"
   inkscape:version="0.92.1 r">
  <metadata
     id="metadata26">
    <rdf:RDF>
      <cc:Work
         rdf:about="">
        <dc:format>image/svg+xml</dc:format>
        <dc:type
           rdf:resource="http://purl.org/dc/dcmitype/StillImage" />
      </cc:Work>
    </rdf:RDF>
  </metadata>
  <defs
     id="defs24" />
  <sodipodi:namedview
     pagecolor="#ffffff"
     bordercolor="#666666"
     borderopacity="1"
     objecttolerance="10"
     gridtolerance="10"
     guidetolerance="10"
     inkscape:pageopacity="0"
     inkscape:pageshadow="2"
     inkscape:window-width="640"
     inkscape:window-height="480"
     id="namedview22"
     showgrid="false"
     inkscape:zoom="9.5"
     inkscape:cx="-4"
     inkscape:cy="16"
     inkscape:current-layer="svg20" />
  <rect
     style="opacity:1;fill:#f2f2f2;fill-opacity:1;fill-rule:evenodd;stroke:none;stroke-width:1.03534329;stroke-linecap:round;stroke-linejoin:bevel;stroke-miterlimit:4;stroke-dasharray:none;stroke-dashoffset:0;stroke-opacity:1"
     id="rect4497-3"
     width="28.203388"
     height="28.203388"
     x="1.8983059"
     y="1.8983059"
     ry="5.575182" />
  <g
     transform="matrix(0.88026552,0,0,0.88026552,1.9160992,1.915716)"
     id="g10"
     style="stroke-width:1.10762036">
    <path
       d="m 16.152,16.049 c 2.9826,5.4284 1.6086,15.754 -3.5984,12.746 -1.5225,-0.88067 -2.1166,-1.8066 -2.2172,-2.6715 -0.7993,0.34619 -1.8973,0.29584 -3.4235,-0.58285 -5.7828,-3.3387 3.0463,-9.3606 9.2354,-9.4896"
       id="path2"
       inkscape:connector-curvature="0"
       style="fill:#37a0f2;stroke-width:1.10762036" />
    <path
       d="m 16.152,16.049 c 0.20953,-0.0045 0.42142,-0.01601 0.63507,-0.03432 6.101,-0.524 13.637,-6.5524 8.604,-9.4557 -1.524,-0.8782 -2.623,-0.9298 -3.422,-0.5845 -0.1,-0.8653 -0.693,-1.791 -2.217,-2.6733 -5.526,-3.1907 -6.502,6.4008 -3.975,11.992 0.11728,0.25942 0.06692,0.53942 0.19918,0.77994"
       id="path4"
       inkscape:connector-curvature="0"
       style="fill:#e74c3c;stroke-width:1.10762036" />
    <path
       d="m 15.951,16.102 c 0.13122,6.1925 6.4842,14.448 9.4893,9.2391 0.8782,-1.5239 0.92972,-2.6228 0.58441,-3.4222 0.86531,-0.09984 1.791,-0.69244 2.6734,-2.2165 3.3387,-5.7828 -7.3184,-6.5834 -12.743,-3.6006"
       id="path6"
       inkscape:connector-curvature="0"
       style="fill:#fecd38;stroke-width:1.10762036" />
    <path
       d="M 15.951,16.102 C 10.523,19.085 0.197,17.711 3.205,12.504 4.0862,10.981 5.0121,10.387 5.877,10.287 5.5308,9.4873 5.5812,8.3893 6.4599,6.8632 9.7986,1.0804 15.82,9.9094 15.95,16.099"
       id="path8"
       inkscape:connector-curvature="0"
       style="fill:#a4c639;stroke-width:1.10762036" />
  </g>
</svg>
