<?xml version="1.0" encoding="UTF-8" standalone="no"?>
<svg
   xmlns:dc="http://purl.org/dc/elements/1.1/"
   xmlns:cc="http://creativecommons.org/ns#"
   xmlns:rdf="http://www.w3.org/1999/02/22-rdf-syntax-ns#"
   xmlns:svg="http://www.w3.org/2000/svg"
   xmlns="http://www.w3.org/2000/svg"
   xmlns:sodipodi="http://sodipodi.sourceforge.net/DTD/sodipodi-0.dtd"
   xmlns:inkscape="http://www.inkscape.org/namespaces/inkscape"
   height="32"
   width="32"
   version="1"
   id="svg18"
   sodipodi:docname="poedit.svg"
   inkscape:version="0.92.1 r">
  <metadata
     id="metadata24">
    <rdf:RDF>
      <cc:Work
         rdf:about="">
        <dc:format>image/svg+xml</dc:format>
        <dc:type
           rdf:resource="http://purl.org/dc/dcmitype/StillImage" />
      </cc:Work>
    </rdf:RDF>
  </metadata>
  <defs
     id="defs22" />
  <sodipodi:namedview
     pagecolor="#ffffff"
     bordercolor="#666666"
     borderopacity="1"
     objecttolerance="10"
     gridtolerance="10"
     guidetolerance="10"
     inkscape:pageopacity="0"
     inkscape:pageshadow="2"
     inkscape:window-width="640"
     inkscape:window-height="480"
     id="namedview20"
     showgrid="false"
     inkscape:zoom="13.435029"
     inkscape:cx="8.9395918"
     inkscape:cy="18.840939"
     inkscape:current-layer="svg18" />
  <rect
     style="opacity:1;fill:#dd9f59;fill-opacity:1;fill-rule:evenodd;stroke:none;stroke-width:1.03534329;stroke-linecap:round;stroke-linejoin:bevel;stroke-miterlimit:4;stroke-dasharray:none;stroke-dashoffset:0;stroke-opacity:1"
     id="rect4497-3"
     width="28.203388"
     height="28.203388"
     x="1.8983059"
     y="1.8983059"
     ry="5.575182"
     inkscape:export-filename="/home/ramil/3.png"
     inkscape:export-xdpi="71"
     inkscape:export-ydpi="71" />
  <g
     id="g4511"
     transform="translate(50.631578,6.7368412)">
    <rect
       id="rect8"
       x="-20.263159"
       y="23.631578"
       width="22"
       height="22"
       transform="matrix(0,-1,-1,0,0,0)"
       rx="2.8066843"
       ry="2.8066843"
       style="fill:#ffffff" />
    <path
       inkscape:connector-curvature="0"
       id="path10"
       d="m -38.602282,-0.73758441 c -1.055693,0.648432 -4.280806,1.478958 -6.029297,1.98632801 l 0.05469,0.154297 c 0.831584,-0.08305 2.019654,-0.200735 2.853515,-0.341797 v 1.2265633 h -2.896484 l 0.07031,1.035155 h 2.423828 c -0.416362,1.712088 -1.379916,2.432289 -2.476562,3.75418 l 0.166015,0.154297 c 1.02839,-0.745128 2.059094,-1.406923 2.710938,-2.388672 v 3.420391 h 0.265625 c 0.707587,0 1.866396,-0.273242 1.878906,-0.357422 v -3.484844 c 0.527846,0.475517 0.628733,1.031495 0.726563,1.623047 0.179741,0.151297 0.374946,0.222656 0.554687,0.222656 0.37427,0 0.69336,-0.270754 0.69336,-0.648437 0,-0.510783 -0.184028,-0.983193 -1.97461,-1.384766 v -0.91043 h 2.34375 c 0.375408,0 0.555644,-0.859281 0.652344,-1.011718 l -2.017578,-1.0488283 -0.449219,1.0234383 h -0.529297 V 0.77804059 c 0.62568,-0.1422 1.209536,-0.283581 1.681641,-0.425781 0.274247,0.00698 1.296875,-0.089844 1.296875,-0.089844 z"
       style="fill:#6b6b6b;fill-opacity:1" />
    <path
       inkscape:connector-curvature="0"
       id="path12"
       d="m -35.631579,1.2936653 v 6.9694926 c 1.304827,-10e-7 1.972656,-0.521121 1.972656,-0.496094 v -0.464844 h 2.021485 v 0.736329 c 1.098922,0 1.986328,-0.319045 1.986328,-0.341797 v -5.270274 c 0.291226,-0.05802 0.514611,-0.151694 0.597656,-0.2597657 l -1.605469,-0.8652344 -1.115234,0.9609375 h -1.814453 z m 1.972656,2.0039056 h 2.021485 v 3.004649 h -2.021485 z"
       style="fill:#6b6b6b;fill-opacity:1" />
    <path
       inkscape:connector-curvature="0"
       id="path14"
       d="m -35.631579,11.263158 v 3 2 3 h 2 v -3 h 1.132383 c 0.455457,1.763986 2.045353,2.99736 3.867187,3 2.209139,0 4,-1.790861 4,-4 0,-2.209139 -1.790861,-4 -4,-4 -1.822562,0.0018 -3.413501,1.235311 -3.86914,3 h -1.13043 v -3 z m 6.99957,2 c 1.10457,0 2,0.895431 2,2 0,1.104569 -0.89543,2 -2,2 -1.104569,0 -2,-0.895431 -2,-2 0,-1.104569 0.895431,-2 2,-2 z"
       style="fill:#6b6b6b;fill-opacity:1" />
  </g>
</svg>
