<?xml version="1.0" encoding="UTF-8" standalone="no"?>
<svg
   xmlns:dc="http://purl.org/dc/elements/1.1/"
   xmlns:cc="http://creativecommons.org/ns#"
   xmlns:rdf="http://www.w3.org/1999/02/22-rdf-syntax-ns#"
   xmlns:svg="http://www.w3.org/2000/svg"
   xmlns="http://www.w3.org/2000/svg"
   xmlns:sodipodi="http://sodipodi.sourceforge.net/DTD/sodipodi-0.dtd"
   xmlns:inkscape="http://www.inkscape.org/namespaces/inkscape"
   height="32"
   width="32"
   version="1"
   id="svg28"
   sodipodi:docname="pokerth.svg"
   inkscape:version="0.92.1 r">
  <metadata
     id="metadata34">
    <rdf:RDF>
      <cc:Work
         rdf:about="">
        <dc:format>image/svg+xml</dc:format>
        <dc:type
           rdf:resource="http://purl.org/dc/dcmitype/StillImage" />
      </cc:Work>
    </rdf:RDF>
  </metadata>
  <defs
     id="defs32" />
  <sodipodi:namedview
     pagecolor="#ffffff"
     bordercolor="#666666"
     borderopacity="1"
     objecttolerance="10"
     gridtolerance="10"
     guidetolerance="10"
     inkscape:pageopacity="0"
     inkscape:pageshadow="2"
     inkscape:window-width="640"
     inkscape:window-height="480"
     id="namedview30"
     showgrid="false"
     inkscape:zoom="9.5"
     inkscape:cx="-0.81774537"
     inkscape:cy="15.570221"
     inkscape:current-layer="svg28" />
  <rect
     style="opacity:1;fill:#c12d25;fill-opacity:1;fill-rule:evenodd;stroke:none;stroke-width:1.03534329;stroke-linecap:round;stroke-linejoin:bevel;stroke-miterlimit:4;stroke-dasharray:none;stroke-dashoffset:0;stroke-opacity:1"
     id="rect4497-3"
     width="28.203388"
     height="28.203388"
     x="1.8983059"
     y="1.8983059"
     ry="5.575182"
     inkscape:export-filename="/home/ramil/3.png"
     inkscape:export-xdpi="71"
     inkscape:export-ydpi="71" />
  <rect
     ry="12.105263"
     style="fill:#c12d25;stroke-width:1"
     rx="12.105263"
     transform="matrix(0,-1,-1,0,0,0)"
     height="24.210526"
     width="24.210526"
     y="-28.105263"
     x="-28.105263"
     id="rect4" />
  <path
     style="fill:#ffffff;stroke-width:1"
     d="m 16,3.8947368 c -0.891973,0 -1.757895,0.1023263 -2.593985,0.2837171 V 9.7379581 L 9.4745065,5.8047609 C 7.9998119,6.7480687 6.7480687,7.9998119 5.8047609,9.4745065 L 9.7379581,13.406015 H 4.1784539 C 3.9970631,14.242105 3.8947368,15.108027 3.8947368,16 c 0,0.891973 0.1023263,1.757895 0.2837171,2.593985 h 5.5595042 l -3.9331972,3.931508 c 0.9433078,1.474695 2.195051,2.726438 3.6697456,3.669746 l 3.9315085,-3.933197 v 5.559504 c 0.83609,0.18139 1.702012,0.283717 2.593985,0.283717 0.891973,0 1.757895,-0.102327 2.593985,-0.283717 v -5.559504 l 3.931508,3.933197 c 1.474695,-0.943308 2.726438,-2.195051 3.669746,-3.669746 l -3.933197,-3.931508 h 5.559504 c 0.18139,-0.83609 0.283717,-1.702012 0.283717,-2.593985 0,-0.891973 -0.102327,-1.757895 -0.283717,-2.593985 H 22.262042 L 26.195239,9.4745065 C 25.251931,7.9998119 24.000188,6.7480687 22.525493,5.8047609 L 18.593985,9.7379581 V 4.1784539 C 17.757895,3.9970631 16.891973,3.8947368 16,3.8947368 Z"
     id="path6"
     inkscape:connector-curvature="0" />
  <rect
     ry="10.375939"
     style="fill:#ffcb05;stroke-width:1"
     rx="10.375939"
     transform="matrix(0,-1,-1,0,0,0)"
     height="20.751879"
     width="20.751879"
     y="-26.37594"
     x="-26.37594"
     id="rect8" />
  <rect
     style="fill:#c12d25;stroke-width:1"
     transform="matrix(0,-1,-1,0,0,0)"
     rx="8.6466169"
     ry="8.6466169"
     height="17.293234"
     width="17.293234"
     y="-24.646616"
     x="-24.646616"
     id="rect10" />
  <g
     transform="matrix(0.86466165,0,0,0.86466165,1.3007519,2.1654135)"
     id="g24"
     style="stroke-width:1.1565218">
    <rect
       style="fill:#fffcf7;stroke-width:1.1565218"
       height="10"
       width="2"
       y="11"
       x="12"
       id="rect14" />
    <rect
       style="fill:#fffcf7;stroke-width:1.1565218"
       transform="rotate(90)"
       height="6"
       width="2"
       y="-16"
       x="11"
       id="rect16" />
    <rect
       style="fill:#fffcf7;stroke-width:1.1565218"
       height="10"
       width="2"
       y="11"
       x="17"
       id="rect18" />
    <rect
       style="fill:#fffcf7;stroke-width:1.1565218"
       transform="rotate(90)"
       height="6"
       width="2"
       y="-23"
       x="15"
       id="rect20" />
    <rect
       style="fill:#fffcf7;stroke-width:1.1565218"
       height="10"
       width="2"
       y="11"
       x="21"
       id="rect22" />
  </g>
</svg>
