<?xml version="1.0" encoding="UTF-8" standalone="no"?>
<svg
   xmlns:dc="http://purl.org/dc/elements/1.1/"
   xmlns:cc="http://creativecommons.org/ns#"
   xmlns:rdf="http://www.w3.org/1999/02/22-rdf-syntax-ns#"
   xmlns:svg="http://www.w3.org/2000/svg"
   xmlns="http://www.w3.org/2000/svg"
   xmlns:sodipodi="http://sodipodi.sourceforge.net/DTD/sodipodi-0.dtd"
   xmlns:inkscape="http://www.inkscape.org/namespaces/inkscape"
   height="32"
   width="32"
   version="1"
   id="svg12"
   sodipodi:docname="pragha.svg"
   inkscape:version="0.92.1 r">
  <metadata
     id="metadata18">
    <rdf:RDF>
      <cc:Work
         rdf:about="">
        <dc:format>image/svg+xml</dc:format>
        <dc:type
           rdf:resource="http://purl.org/dc/dcmitype/StillImage" />
      </cc:Work>
    </rdf:RDF>
  </metadata>
  <defs
     id="defs16" />
  <sodipodi:namedview
     pagecolor="#ffffff"
     bordercolor="#666666"
     borderopacity="1"
     objecttolerance="10"
     gridtolerance="10"
     guidetolerance="10"
     inkscape:pageopacity="0"
     inkscape:pageshadow="2"
     inkscape:window-width="640"
     inkscape:window-height="480"
     id="namedview14"
     showgrid="false"
     inkscape:zoom="8.375"
     inkscape:cx="-6.6865672"
     inkscape:cy="16"
     inkscape:current-layer="svg12" />
  <rect
     style="opacity:1;fill:#3c6eb4;fill-opacity:1;fill-rule:evenodd;stroke:none;stroke-width:1.03534329;stroke-linecap:round;stroke-linejoin:bevel;stroke-miterlimit:4;stroke-dasharray:none;stroke-dashoffset:0;stroke-opacity:1"
     id="rect4497-3-3"
     width="28.203388"
     height="28.203388"
     x="1.8983059"
     y="1.8983059"
     ry="5.575182" />
  <path
     style="fill:#ffffff;stroke-width:0.6870411"
     d="m 20.007427,7.0002605 c -0.100023,-0.00609 -0.260178,0.057943 -0.552734,0.1855469 -0.347271,0.1514756 -1.136108,0.2753906 -1.753906,0.2753906 -2.186353,0.044646 -3.93601,0.7937085 -5.353516,2.2050786 -1.924028,1.9286844 -2.5299819,4.3544644 -1.652344,6.6074224 0.202591,0.52005 0.326048,1.049298 0.273438,1.175781 -0.05259,0.126477 -0.422565,0.476837 -0.820312,0.779297 -0.8642069,0.657078 -1.4618049,1.716632 -1.6113279,2.855468 -0.08982,0.684071 -0.02784,1.010418 0.353515,1.824219 0.819003,1.747578 2.6765849,2.496148 4.6562499,1.876953 1.146276,-0.358516 2.292731,-1.632446 3.210937,-3.564453 0.793027,-1.668725 0.826618,-1.709236 1.677735,-2.009765 1.43489,-0.506683 2.339574,-1.065769 3.238281,-2.003907 1.593278,-1.663256 2.184306,-3.817978 1.613281,-5.876953 C 23.030135,10.405216 22.813944,10.086208 21.651959,8.9084636 20.915934,8.162439 20.263514,7.4070585 20.200787,7.2307293 20.147907,7.0821751 20.107457,7.0063251 20.007427,7.0002605 Z m -3.867187,2 c 0.681144,0.0028 1.207836,0.2083559 1.351563,0.6171871 0.04712,0.134067 -0.151514,0.7666804 -0.44336,1.4042974 -0.750512,1.639777 -0.989845,2.540902 -1.443359,5.433594 -0.562458,3.587533 -1.176917,5.136871 -2.408203,6.06836 -0.776215,0.587188 -1.729123,0.636937 -2.238282,0.11914 -0.440501,-0.447975 -0.568186,-1.009382 -0.363281,-1.597656 0.16231,-0.465997 0.318924,-0.540626 1.501953,-0.714844 0.823061,-0.121185 1.402344,-0.691261 1.402344,-1.4375 0,-0.46958 -0.188837,-0.739851 -0.828125,-1.416016 -0.98906,-1.046138 -1.421227,-2.050741 -1.425781,-3.318359 -0.0072,-1.982662 0.963302,-3.668566 2.621094,-4.5546874 0.757936,-0.4051229 1.592292,-0.6063114 2.273437,-0.6035161 z m 2.533203,1.0019535 c 0.204095,-0.03048 0.463436,0.208441 0.830078,0.707031 1.448618,1.969844 1.300256,4.951352 -0.332031,6.664063 -0.695799,0.730063 -0.859357,0.774173 -1.341797,0.380859 -0.279053,-0.2275 -0.332376,-0.433578 -0.330078,-1.265625 0.0033,-1.274698 0.382391,-4.395963 0.677734,-5.582031 0.143119,-0.574731 0.291997,-0.873794 0.496094,-0.904297 z"
     id="path8"
     inkscape:connector-curvature="0" />
</svg>
