<?xml version="1.0" encoding="UTF-8" standalone="no"?>
<svg
   xmlns:dc="http://purl.org/dc/elements/1.1/"
   xmlns:cc="http://creativecommons.org/ns#"
   xmlns:rdf="http://www.w3.org/1999/02/22-rdf-syntax-ns#"
   xmlns:svg="http://www.w3.org/2000/svg"
   xmlns="http://www.w3.org/2000/svg"
   xmlns:sodipodi="http://sodipodi.sourceforge.net/DTD/sodipodi-0.dtd"
   xmlns:inkscape="http://www.inkscape.org/namespaces/inkscape"
   height="32"
   width="32"
   version="1"
   id="svg18"
   sodipodi:docname="preferences-desktop-font.svg"
   inkscape:version="0.92.1 r">
  <metadata
     id="metadata24">
    <rdf:RDF>
      <cc:Work
         rdf:about="">
        <dc:format>image/svg+xml</dc:format>
        <dc:type
           rdf:resource="http://purl.org/dc/dcmitype/StillImage" />
      </cc:Work>
    </rdf:RDF>
  </metadata>
  <defs
     id="defs22" />
  <sodipodi:namedview
     pagecolor="#ffffff"
     bordercolor="#666666"
     borderopacity="1"
     objecttolerance="10"
     gridtolerance="10"
     guidetolerance="10"
     inkscape:pageopacity="0"
     inkscape:pageshadow="2"
     inkscape:window-width="1680"
     inkscape:window-height="963"
     id="namedview20"
     showgrid="false"
     inkscape:zoom="5.2149125"
     inkscape:cx="-11.698124"
     inkscape:cy="9.9800232"
     inkscape:window-x="0"
     inkscape:window-y="0"
     inkscape:window-maximized="1"
     inkscape:current-layer="svg18" />
  <g
     id="g4555">
    <path
       id="path4554"
       d="m 19.185547,18.304687 v 11.796875 h 5.339844 c 3.08865,0 5.576171,-2.487521 5.576171,-5.576172 v -6.220703 z"
       style="opacity:1;fill:#999999;fill-opacity:1;fill-rule:evenodd;stroke:none;stroke-width:1.03534329;stroke-linecap:round;stroke-linejoin:bevel;stroke-miterlimit:4;stroke-dasharray:none;stroke-dashoffset:0;stroke-opacity:1"
       inkscape:connector-curvature="0" />
    <path
       id="path4552"
       d="M 13.423828,1.898437 H 7.472656 c -3.088651,0 -5.574219,2.485568 -5.574219,5.5742189 V 12.74414 h 11.525391 z"
       style="opacity:1;fill:#999999;fill-opacity:1;fill-rule:evenodd;stroke:none;stroke-width:1.03534329;stroke-linecap:round;stroke-linejoin:bevel;stroke-miterlimit:4;stroke-dasharray:none;stroke-dashoffset:0;stroke-opacity:1"
       inkscape:connector-curvature="0" />
    <path
       id="rect4497-3"
       d="M 13.423828,1.898437 V 12.74414 h 5.761719 v 5.560547 H 30.101562 V 7.4726559 c 0,-3.0886509 -2.487521,-5.5742189 -5.576171,-5.5742189 z"
       style="opacity:1;fill:#c2c2c2;fill-opacity:1;fill-rule:evenodd;stroke:none;stroke-width:1.03534329;stroke-linecap:round;stroke-linejoin:bevel;stroke-miterlimit:4;stroke-dasharray:none;stroke-dashoffset:0;stroke-opacity:1"
       inkscape:connector-curvature="0" />
    <path
       style="fill:#9d9d9d"
       inkscape:connector-curvature="0"
       id="path4"
       d="m 25.449933,11.021824 v 0.63757 h -5.9932 c 0.0567,0.89732 0.32586,1.5821 0.80759,2.0544 0.48644,0.46756 1.1618,0.70133 2.0261,0.70133 0.5006,0 0.98469,-0.06139 1.4522,-0.18418 0.47226,-0.12279 0.93982,-0.30698 1.4027,-0.55257 v 1.2326 c -0.46756,0.19836 -0.94692,0.34948 -1.4381,0.45338 -0.49118,0.1039 -0.98942,0.15586 -1.4948,0.15586 -1.2657,0 -2.2693,-0.36838 -3.0108,-1.1051 -0.73675,-0.73675 -1.1051,-1.7332 -1.1051,-2.9895 -7e-6,-1.2988 0.34948,-2.3282998 1.0484,-3.0886998 0.70369,-0.76508 1.6506,-1.1476 2.8407,-1.1476 1.0673,7e-6 1.9103,0.34477 2.529,1.0343 0.62339,0.6848 0.9351,1.6175 0.9351,2.7981998 m -1.3035,-0.38254 c -0.0095,-0.7131298 -0.21018,-1.2821998 -0.60215,-1.7072998 -0.38727,-0.42504 -0.90205,-0.63756 -1.5443,-0.63757 -0.72731,7e-6 -1.3106,0.20544 -1.7498,0.61632 -0.4345,0.41089 -0.6848,0.98942 -0.75092,1.7355998 l 4.6472,-0.0071 m -1.5727,-6.3189998 h 1.4381 v 1.431 h -1.4381 v -1.431 m -2.7699,0 h 1.4381 v 1.431 h -1.4381 v -1.431" />
    <path
       id="path4549"
       d="M 19.185547,30.101562 V 12.74414 H 1.898437 v 11.78125 c 0,3.088651 2.485568,5.576172 5.574219,5.576172 z"
       style="opacity:1;fill:#d3d3d3;fill-opacity:1;fill-rule:evenodd;stroke:none;stroke-width:1.03534329;stroke-linecap:round;stroke-linejoin:bevel;stroke-miterlimit:4;stroke-dasharray:none;stroke-dashoffset:0;stroke-opacity:1"
       inkscape:connector-curvature="0" />
    <path
       inkscape:connector-curvature="0"
       id="path14"
       style="fill:#7e7e7e;enable-background:new"
       d="m 11.436542,22.856645 c -1.1001,1.1e-5 -1.8621999,0.12238 -2.2864996,0.36713 -0.42425,0.24476 -0.63637,0.66227 -0.63637,1.2526 0,0.47031 0.15786,0.84464 0.47358,1.123 0.32064,0.27355 0.7547497,0.41032 1.3022996,0.41032 0.75475,0 1.359,-0.25915 1.8129,-0.77744 0.45876,-0.5231 0.68815,-1.2166 0.68816,-2.0804 v -0.29514 h -1.3541 m 2.716,-0.547 v 4.5999 h -1.3615 v -1.2238 c -0.31,0.49 -0.698,0.852 -1.161,1.087 -0.464,0.231 -1.031,0.346 -1.7019999,0.346 -0.8489997,0 -1.5239997,-0.23 -2.0279997,-0.691 -0.498,-0.466 -0.747,-1.087 -0.747,-1.864 0,-0.90702 0.31078,-1.5909 0.93235,-2.0516 0.6265,-0.4607 1.5587997,-0.69106 2.7969996,-0.69106 h 1.9091 v -0.12958 c -1.1e-5,-0.60947 -0.20719,-1.0798 -0.62156,-1.4109 -0.40945,-0.33592 -0.98661,-0.5039 -1.7315,-0.5039 -0.4735699,10e-6 -0.9348099,0.0552 -1.3836996,0.16557 -0.44891,0.11038 -0.88055,0.27595 -1.2949,0.4967 v -1.2238 c 0.49824,-0.18716 0.98167,-0.32632 1.4503,-0.41752 0.4686397,-0.09597 0.9249496,-0.14396 1.3688996,-0.14397 1.1987,10e-6 2.0941,0.30235 2.686,0.90702 0.59196,0.60469 0.88794,1.5213 0.88795,2.7499 m -4.5869999,-7.191 2.0866999,2.6923 h -1.1321 l -2.4119996,-2.692 h 1.4576997" />
  </g>
</svg>
