<?xml version="1.0" encoding="UTF-8" standalone="no"?>
<svg
   xmlns:dc="http://purl.org/dc/elements/1.1/"
   xmlns:cc="http://creativecommons.org/ns#"
   xmlns:rdf="http://www.w3.org/1999/02/22-rdf-syntax-ns#"
   xmlns:svg="http://www.w3.org/2000/svg"
   xmlns="http://www.w3.org/2000/svg"
   xmlns:sodipodi="http://sodipodi.sourceforge.net/DTD/sodipodi-0.dtd"
   xmlns:inkscape="http://www.inkscape.org/namespaces/inkscape"
   height="32"
   width="32"
   version="1"
   id="svg12"
   sodipodi:docname="preferences-desktop-display-randr.svg"
   inkscape:version="0.92.1 r">
  <metadata
     id="metadata18">
    <rdf:RDF>
      <cc:Work
         rdf:about="">
        <dc:format>image/svg+xml</dc:format>
        <dc:type
           rdf:resource="http://purl.org/dc/dcmitype/StillImage" />
        <dc:title />
      </cc:Work>
    </rdf:RDF>
  </metadata>
  <defs
     id="defs16" />
  <sodipodi:namedview
     pagecolor="#ffffff"
     bordercolor="#666666"
     borderopacity="1"
     objecttolerance="10"
     gridtolerance="10"
     guidetolerance="10"
     inkscape:pageopacity="0"
     inkscape:pageshadow="2"
     inkscape:window-width="1680"
     inkscape:window-height="963"
     id="namedview14"
     showgrid="false"
     inkscape:zoom="14.75"
     inkscape:cx="24.32039"
     inkscape:cy="11.795339"
     inkscape:window-x="0"
     inkscape:window-y="0"
     inkscape:window-maximized="1"
     inkscape:current-layer="svg12" />
  <rect
     style="opacity:1;fill:#999999;fill-opacity:1;fill-rule:evenodd;stroke:none;stroke-width:1.03534329;stroke-linecap:round;stroke-linejoin:bevel;stroke-miterlimit:4;stroke-dasharray:none;stroke-dashoffset:0;stroke-opacity:1"
     id="rect4497-3-3"
     width="28.203388"
     height="28.203388"
     x="1.8983059"
     y="1.8983059"
     ry="5.575182" />
  <g
     id="g4503">
    <rect
       transform="rotate(-90)"
       rx="0.37037969"
       ry="0.36146787"
       y="5.2232666"
       x="-23.993927"
       height="7.1639481"
       width="10.781137"
       id="rect4483-3"
       style="opacity:1;fill:#666666;fill-opacity:1;fill-rule:nonzero;stroke:none;stroke-width:0.30000001;stroke-linecap:round;stroke-linejoin:bevel;stroke-miterlimit:4;stroke-dasharray:none;stroke-dashoffset:0;stroke-opacity:1" />
    <rect
       rx="0.62891126"
       ry="0.65627754"
       y="7.9962559"
       x="8.1268139"
       height="13.006794"
       width="18.306561"
       id="rect4483"
       style="opacity:1;fill:#666666;fill-opacity:1;fill-rule:nonzero;stroke:none;stroke-width:0.30000001;stroke-linecap:round;stroke-linejoin:bevel;stroke-miterlimit:4;stroke-dasharray:none;stroke-dashoffset:0;stroke-opacity:1" />
    <path
       sodipodi:nodetypes="cccscccsccccccscccccscccccsccscscscccsscssscccccccccccccccscccscscscsccccccccccsccsccccccccscc"
       inkscape:connector-curvature="0"
       id="path4523"
       d="m 5.3812404,24.366877 c -0.078627,-0.03874 -0.1948758,-0.13851 -0.2583301,-0.221699 l -0.1153712,-0.151251 -0.011267,-5.28909 c -0.011092,-5.20589 -0.00992,-5.291731 0.074371,-5.456954 0.047104,-0.09233 0.1490451,-0.213089 0.2265418,-0.268364 l 0.1409034,-0.1005 h 3.344369 c 3.3259247,0 3.3450387,4.96e-4 3.4659267,0.09007 0.06686,0.04954 0.165152,0.154121 0.218432,0.232406 l 0.09687,0.142337 v 5.294299 5.294299 l -0.09403,0.167315 c -0.05993,0.106633 -0.158553,0.198546 -0.271924,0.253428 -0.173128,0.08381 -0.26478,0.08609 -3.4257097,0.08513 -2.9189084,-8.53e-4 -3.2623002,-0.0081 -3.3907809,-0.07143 z m 3.5262969,-0.444251 c 0.02174,0 0.07828,-0.03875 0.125644,-0.08611 0.203299,-0.203299 0.03209,-0.60277 -0.25833,-0.60277 -0.268261,0 -0.446963,0.356548 -0.285346,0.569329 0.0679,0.0894 0.24196,0.164402 0.321159,0.138386 0.03154,-0.01036 0.07513,-0.01883 0.09687,-0.01883 z m 3.0518687,-0.944379 c 0.02985,-0.05579 0.04457,-1.481065 0.04457,-4.317447 0,-3.76257 -0.0075,-4.244826 -0.06703,-4.329858 l -0.06703,-0.09569 H 8.8126223 c -2.025134,0 -3.0854099,0.01505 -3.1405739,0.04457 -0.081485,0.04361 -0.083279,0.137542 -0.083279,4.361471 0,3.300184 0.012165,4.32907 0.051669,4.368568 0.039233,0.03923 0.8004862,0.05167 3.1630279,0.05167 3.0320467,0 3.1124967,-0.0021 3.1559307,-0.08328 z m -2.3636797,-9.17506 c 0.0458,-0.02451 0.08328,-0.07227 0.08328,-0.106123 0,-0.122845 -0.16997,-0.150692 -0.919777,-0.150692 -0.627337,0 -0.764524,0.01131 -0.820875,0.06766 -0.03721,0.03721 -0.06766,0.07458 -0.06766,0.08304 0,0.0085 0.03045,0.04582 0.06766,0.08303 0.05635,0.05635 0.193538,0.06766 0.820875,0.06766 0.436876,0 0.788194,-0.01872 0.836497,-0.04457 z m 3.9843627,10.481885 c -0.05099,-0.132882 -0.02872,-0.829294 0.02769,-0.865801 0.0296,-0.01915 0.499437,-0.04452 1.044083,-0.05636 l 0.990265,-0.02153 0.02153,-0.39487 c 0.01184,-0.21718 0.03766,-0.410927 0.05736,-0.430551 0.01971,-0.01962 0.804674,-0.04115 1.744361,-0.04784 1.437493,-0.01022 1.722081,-0.0023 1.793998,0.05022 0.0707,0.05158 0.0892,0.128138 0.107004,0.442704 l 0.02153,0.380334 1.30403,0.02153 c 1.096042,0.01809 1.310533,0.03183 1.344809,0.08611 0.06046,0.09575 0.05266,0.790258 -0.0096,0.852489 -0.03947,0.03947 -1.038994,0.05167 -4.236311,0.05167 -3.776131,0 -4.187196,-0.0067 -4.210779,-0.0681 z m -1.208684,-2.726167 c -0.202118,-0.123866 -0.231664,-0.271293 -0.231664,-1.155943 0,-0.905877 0.0363,-1.052815 0.285894,-1.1571 0.11823,-0.0494 2.575801,-0.05928 7.671297,-0.05928 h 6.115192 v -5.317295 c 0,-5.259887 -9.24e-4,-5.3182233 -0.08611,-5.4034037 -0.08554,-0.085542 -0.143516,-0.086112 -8.755019,-0.086112 H 8.7020873 l -0.08202,0.090647 c -0.07708,0.085187 -0.08259,0.1843832 -0.09149,1.6468537 -0.0052,0.855914 -0.01005,2.799041 -0.01076,2.853243 -0.0013,0.09605 0.1233359,0.587466 -0.37802,0.08611 l -0.376731,-0.01244 -0.01275,-2.899159 c -0.008,-1.0725675 0.0036,-1.7570472 0.03138,-1.8533127 0.06442,-0.2228229 0.331847,-0.5114223 0.581745,-0.6277883 l 0.21767,-0.1013585 8.7647847,-4.219e-4 c 9.758875,-4.685e-4 8.999296,-0.024533 9.329131,0.2955618 0.09056,0.087888 0.202675,0.2364618 0.24914,0.3301652 0.08277,0.1669137 0.08448,0.2970667 0.08448,6.4133464 v 6.242975 l -0.09255,0.172785 c -0.117626,0.219608 -0.290053,0.392034 -0.509661,0.509659 l -0.172784,0.09255 -6.156865,0.01101 c -5.996784,0.01073 -7.57457,0.0089 -7.705382,-0.07129 z m 5.254679,-0.946583 c 0.410083,-0.250068 0.223912,-0.866031 -0.261753,-0.866031 -0.360928,0 -0.572943,0.373851 -0.404316,0.712941 0.109761,0.220718 0.433242,0.295068 0.666069,0.15309 z"
       style="fill:#ffffff;stroke-width:1" />
  </g>
</svg>
