<?xml version="1.0" encoding="UTF-8" standalone="no"?>
<svg
   xmlns:dc="http://purl.org/dc/elements/1.1/"
   xmlns:cc="http://creativecommons.org/ns#"
   xmlns:rdf="http://www.w3.org/1999/02/22-rdf-syntax-ns#"
   xmlns:svg="http://www.w3.org/2000/svg"
   xmlns="http://www.w3.org/2000/svg"
   xmlns:sodipodi="http://sodipodi.sourceforge.net/DTD/sodipodi-0.dtd"
   xmlns:inkscape="http://www.inkscape.org/namespaces/inkscape"
   width="32"
   height="32"
   version="1"
   id="svg20"
   sodipodi:docname="preferences-desktop-joystick.svg"
   inkscape:version="0.92.2 2405546, 2018-03-11">
  <metadata
     id="metadata26">
    <rdf:RDF>
      <cc:Work
         rdf:about="">
        <dc:format>image/svg+xml</dc:format>
        <dc:type
           rdf:resource="http://purl.org/dc/dcmitype/StillImage" />
        <dc:title></dc:title>
      </cc:Work>
    </rdf:RDF>
  </metadata>
  <defs
     id="defs24" />
  <sodipodi:namedview
     pagecolor="#ffffff"
     bordercolor="#666666"
     borderopacity="1"
     objecttolerance="10"
     gridtolerance="10"
     guidetolerance="10"
     inkscape:pageopacity="0"
     inkscape:pageshadow="2"
     inkscape:window-width="1680"
     inkscape:window-height="972"
     id="namedview22"
     showgrid="false"
     inkscape:zoom="5.2149125"
     inkscape:cx="-12.226433"
     inkscape:cy="16.772694"
     inkscape:window-x="0"
     inkscape:window-y="0"
     inkscape:window-maximized="1"
     inkscape:current-layer="svg20" />
  <g
     id="g4540"
     transform="translate(46.644068,3.3898305)">
    <path
       id="path4524"
       d="m -27.505398,-1.491393 h -11.666015 c -3.088651,0 -5.574219,2.48556789 -5.574219,5.5742187 V 21.137513 c 0,3.088651 2.485568,5.574219 5.574219,5.574219 h 17.054687 c 3.088651,10e-7 5.574219,-2.485567 5.574219,-5.574219 V 4.0828257 c 1e-6,-3.08865081 -2.485567,-5.5742187 -5.574219,-5.5742187 h -3.50586 c -0.450212,0.4806592 -0.963149,0.96911419 -1.324217,1.43945309 -0.64278,0.8373025 -1.153959,1.65942801 -1.56836,2.47460941 -0.828801,1.6303629 -1.270377,3.230301 -1.601562,4.853516 l -1.371094,-0.279297 c 0.344881,-1.6903418 0.838566,-3.4278384 1.742187,-5.2031252 0.451811,-0.88764351 1.005278,-1.78338631 1.695312,-2.68945321 0.149807,-0.19670659 0.382004,-0.39818189 0.544922,-0.59570309 z"
       style="opacity:1;fill:#999999;fill-opacity:1;fill-rule:evenodd;stroke:none;stroke-width:1.03534329;stroke-linecap:round;stroke-linejoin:bevel;stroke-miterlimit:4;stroke-dasharray:none;stroke-dashoffset:0;stroke-opacity:1"
       inkscape:connector-curvature="0" />
    <path
       id="rect4497-3-3"
       d="m -27.505398,-1.491393 c -0.162918,0.1975212 -0.395115,0.3989965 -0.544922,0.59570309 -0.690034,0.9060669 -1.243501,1.8018097 -1.695312,2.68945321 -0.903621,1.7752868 -1.397306,3.5127834 -1.742187,5.2031252 l 1.371093,0.279297 c 0.331186,-1.623215 0.772761,-3.2231531 1.601562,-4.853516 0.414402,-0.8151814 0.92558,-1.63730691 1.56836,-2.47460941 0.361069,-0.4703389 0.874006,-0.95879389 1.324218,-1.43945309 z"
       style="opacity:1;fill:#666666;fill-opacity:1;fill-rule:evenodd;stroke:none;stroke-width:1.03534329;stroke-linecap:round;stroke-linejoin:bevel;stroke-miterlimit:4;stroke-dasharray:none;stroke-dashoffset:0;stroke-opacity:1"
       inkscape:connector-curvature="0" />
    <path
       id="path4651"
       d="m -20.339382,26.35431 -1.664063,-2.089844 c -1.766131,-2.216931 -1.837036,-2.294418 -2.0625,-2.255859 -0.785194,0.134281 -1.539305,0.135976 -2.027344,0.0039 -0.609041,-0.16486 -1.294366,-0.592604 -1.701172,-1.060547 -0.326992,-0.376131 -0.720123,-1.131588 -0.79492,-1.529297 l -0.04688,-0.253906 h -2.04492 -2.042969 l -0.171875,0.525391 c -0.264403,0.808475 -0.717461,1.431716 -1.322266,1.84375 -0.604805,0.412035 -1.359884,0.612124 -2.226562,0.574218 l -0.720704,-0.03125 -1.972656,2.28125 c -1.037732,1.199909 -1.479683,1.719985 -1.8125,1.992188 0.565352,0.191996 1.147322,0.357421 1.779297,0.357421 h 17.054691 c 0.631308,10e-7 1.212501,-0.165813 1.777344,-0.357421 z"
       style="opacity:1;fill:#999999;fill-opacity:1;fill-rule:evenodd;stroke:none;stroke-width:1.03534329;stroke-linecap:round;stroke-linejoin:bevel;stroke-miterlimit:4;stroke-dasharray:none;stroke-dashoffset:0;stroke-opacity:1"
       inkscape:connector-curvature="0" />
    <path
       id="path4649"
       d="m -16.542507,18.805482 c -0.0148,-0.06202 -0.02942,-0.124926 -0.04297,-0.181641 -0.107429,-0.449545 -0.564938,-2.393695 -1.017578,-4.320312 -0.65353,-2.781694 -0.883092,-3.631565 -1.113282,-4.125 -0.273554,-0.586402 -0.625266,-1.118061 -1.052733,-1.595703 -0.427467,-0.4776425 -0.93159,-0.9012525 -1.505859,-1.2656255 -1.148539,-0.7287447 -2.582286,-1.226002 -4.275391,-1.4746091 -0.99879,-0.1466543 -9.402738,-0.1449913 -10.230468,0.00195 -1.305229,0.2317136 -2.32247,0.51314 -3.181641,0.904297 -0.85917,0.391157 -1.561552,0.891708 -2.234375,1.560547 -0.677344,0.6733345 -0.831202,0.8779095 -1.146484,1.5175785 -0.38359,0.7782561 -0.417816,0.9014331 -1.798828,6.5390611 -0.189404,0.773194 -0.3906,1.597737 -0.603516,2.466797 v 2.304688 c 0,2.456675 1.597232,4.470451 3.794922,5.216797 0.332817,-0.272204 0.774768,-0.79228 1.8125,-1.992188 l 1.972656,-2.28125 0.720704,0.03125 c 0.866678,0.0379 1.621757,-0.162184 2.226561,-0.574219 0.604806,-0.412033 1.057863,-1.035274 1.322267,-1.84375 l 0.171875,-0.52539 h 2.042968 2.044921 l 0.04688,0.253906 c 0.0748,0.397709 0.467929,1.153166 0.794921,1.529297 0.406806,0.467943 1.09213,0.895687 1.701172,1.060547 0.488039,0.13207 1.24215,0.130375 2.027344,-0.0039 0.225463,-0.03856 0.296369,0.03893 2.0625,2.255859 l 1.664063,2.089844 c 2.198626,-0.745827 3.796875,-2.759455 3.796874,-5.216797 z M -24.089382,8.760561 c 0.383012,0.257742 0.507853,0.680704 0.335937,1.130859 -0.112634,0.294929 -0.330334,0.497487 -0.587891,0.585938 -0.257556,0.08845 -0.553422,0.06236 -0.822265,-0.101563 -0.287017,-0.175006 -0.449621,-0.446104 -0.476563,-0.730469 -0.02694,-0.284366 0.08125,-0.582509 0.330078,-0.810547 0.348939,-0.319778 0.814504,-0.3475675 1.220705,-0.07422 z m -13.552734,0.289062 h 1.011719 1.011719 v 0.970703 0.970703 l 0.992186,0.02149 0.992188,0.02148 0.02148,0.992188 0.02344,0.99414 h -1.015625 -1.013671 v 1.011719 1.011718 h -1.011717 -1.011719 v -1.011719 -1.011719 h -0.972656 -0.97461 v -1.013672 -1.011718 h 0.97461 0.972656 v -0.972657 z m 5.99414,6.927734 h 1.011718 1.011719 v 0.544921 0.544922 h -1.011719 -1.011718 v -0.544922 z m -4.220702,1.060546 c 0.453115,0.07671 0.870538,0.361044 1.095703,0.826172 0.155231,0.320665 0.187915,0.645034 0.128906,0.941406 -0.05901,0.296373 -0.210494,0.564907 -0.419922,0.773438 -0.209428,0.208531 -0.477414,0.356923 -0.773437,0.414062 -0.296024,0.05714 -0.618704,0.02304 -0.937501,-0.134765 -0.463101,-0.229229 -0.744981,-0.647766 -0.820312,-1.099609 -0.07533,-0.451844 0.05575,-0.938563 0.419922,-1.302735 0.365182,-0.365181 0.853526,-0.494681 1.306641,-0.417969 z"
       style="opacity:1;fill:#333333;fill-opacity:1;fill-rule:evenodd;stroke:none;stroke-width:1.03534329;stroke-linecap:round;stroke-linejoin:bevel;stroke-miterlimit:4;stroke-dasharray:none;stroke-dashoffset:0;stroke-opacity:1"
       inkscape:connector-curvature="0" />
    <path
       id="path4646"
       d="m -25.509304,17.059388 c -0.41609,0.09856 -0.784507,0.375677 -0.992188,0.804687 -0.187245,0.386801 -0.200743,0.797012 -0.07031,1.158203 0.130431,0.361192 0.406079,0.671684 0.800782,0.859375 0.451841,0.214864 0.946618,0.165213 1.345703,-0.07031 0.399083,-0.235525 0.701346,-0.656772 0.771484,-1.179688 0.05201,-0.387764 -0.251404,-1.082759 -0.570312,-1.30664 -0.404532,-0.283993 -0.869066,-0.364188 -1.285157,-0.265625 z"
       style="opacity:1;fill:#e6e6e6;fill-opacity:1;fill-rule:evenodd;stroke:none;stroke-width:1.03534329;stroke-linecap:round;stroke-linejoin:bevel;stroke-miterlimit:4;stroke-dasharray:none;stroke-dashoffset:0;stroke-opacity:1"
       inkscape:connector-curvature="0" />
    <path
       id="path4644"
       d="m -25.509304,17.059388 c 0.41609,-0.09856 0.880624,-0.01837 1.285156,0.265625 0.318908,0.223881 0.622321,0.918876 0.570312,1.30664 -0.07014,0.522916 -0.372399,0.944165 -0.771484,1.179688 -0.399083,0.235525 -0.893861,0.285176 -1.345703,0.07031 -0.394703,-0.187691 -0.670351,-0.498183 -0.800781,-0.859375 -0.130431,-0.361191 -0.116934,-0.771403 0.07031,-1.158203 0.207681,-0.42901 0.576098,-0.706126 0.992188,-0.804687 z"
       style="opacity:1;fill:#e6e6e6;fill-opacity:1;fill-rule:evenodd;stroke:none;stroke-width:1.03534329;stroke-linecap:round;stroke-linejoin:bevel;stroke-miterlimit:4;stroke-dasharray:none;stroke-dashoffset:0;stroke-opacity:1"
       inkscape:connector-curvature="0" />
    <path
       id="path4642"
       d="m -35.868678,17.037903 c -0.453115,-0.07671 -0.941459,0.05279 -1.306641,0.417969 -0.364171,0.364172 -0.495253,0.850891 -0.419922,1.302735 0.07533,0.451843 0.357211,0.87038 0.820312,1.099609 0.318797,0.157801 0.641477,0.191905 0.937501,0.134766 0.296023,-0.05714 0.564009,-0.205532 0.773437,-0.414063 0.209428,-0.208531 0.360911,-0.477065 0.419922,-0.773437 0.05901,-0.296373 0.02632,-0.620741 -0.128906,-0.941407 -0.225165,-0.465128 -0.642588,-0.749459 -1.095703,-0.826172 z"
       style="opacity:1;fill:#e6e6e6;fill-opacity:1;fill-rule:evenodd;stroke:none;stroke-width:1.03534329;stroke-linecap:round;stroke-linejoin:bevel;stroke-miterlimit:4;stroke-dasharray:none;stroke-dashoffset:0;stroke-opacity:1"
       inkscape:connector-curvature="0" />
    <path
       id="path4640"
       d="m -31.647976,15.977357 v 0.544921 0.544922 h 1.011718 1.011719 v -0.544922 -0.544921 h -1.011719 z"
       style="opacity:1;fill:#e6e6e6;fill-opacity:1;fill-rule:evenodd;stroke:none;stroke-width:1.03534329;stroke-linecap:round;stroke-linejoin:bevel;stroke-miterlimit:4;stroke-dasharray:none;stroke-dashoffset:0;stroke-opacity:1"
       inkscape:connector-curvature="0" />
    <path
       id="path4638"
       d="m -24.819851,12.576967 c -0.409862,0.05496 -0.686878,0.336127 -0.783203,0.673828 -0.09633,0.3377 -0.0125,0.731033 0.302734,1.007812 0.272489,0.23925 0.622881,0.299776 0.927734,0.214843 0.304854,-0.08493 0.565885,-0.31482 0.660158,-0.65625 0.1005,-0.363982 0.01341,-0.699752 -0.19336,-0.93164 -0.206771,-0.231889 -0.534403,-0.359503 -0.914063,-0.308593 z"
       style="opacity:1;fill:#e6e6e6;fill-opacity:1;fill-rule:evenodd;stroke:none;stroke-width:1.03534329;stroke-linecap:round;stroke-linejoin:bevel;stroke-miterlimit:4;stroke-dasharray:none;stroke-dashoffset:0;stroke-opacity:1"
       inkscape:connector-curvature="0" />
    <path
       id="path4636"
       d="m -24.819851,12.576967 c 0.379659,-0.05091 0.707291,0.07671 0.914062,0.308593 0.206773,0.231889 0.29386,0.567659 0.19336,0.931641 -0.09427,0.34143 -0.355303,0.571317 -0.660157,0.65625 -0.304853,0.08493 -0.655245,0.02441 -0.927734,-0.214843 -0.315236,-0.27678 -0.39906,-0.670113 -0.302734,-1.007813 0.09633,-0.3377 0.373341,-0.618865 0.783203,-0.673828 z"
       style="opacity:1;fill:#e6e6e6;fill-opacity:1;fill-rule:evenodd;stroke:none;stroke-width:1.03534329;stroke-linecap:round;stroke-linejoin:bevel;stroke-miterlimit:4;stroke-dasharray:none;stroke-dashoffset:0;stroke-opacity:1"
       inkscape:connector-curvature="0" />
    <path
       id="path4634"
       d="m -26.220242,10.67267 c -0.408832,-0.20857 -0.777567,-0.140402 -1.123047,0.205078 -0.223386,0.223382 -0.257812,0.31057 -0.257812,0.644531 0,0.445642 0.1932,0.752325 0.578125,0.919922 0.324992,0.141502 0.409373,0.135921 0.791015,-0.04883 0.373637,-0.180885 0.56231,-0.516154 0.564454,-0.853515 0.0021,-0.337362 -0.181436,-0.677766 -0.552735,-0.867188 z"
       style="opacity:1;fill:#e6e6e6;fill-opacity:1;fill-rule:evenodd;stroke:none;stroke-width:1.03534329;stroke-linecap:round;stroke-linejoin:bevel;stroke-miterlimit:4;stroke-dasharray:none;stroke-dashoffset:0;stroke-opacity:1"
       inkscape:connector-curvature="0" />
    <path
       id="path4632"
       d="m -26.220242,10.67267 c 0.371299,0.189422 0.554878,0.529826 0.552735,0.867188 -0.0021,0.337361 -0.190817,0.672631 -0.564454,0.853515 -0.381641,0.184749 -0.466023,0.19033 -0.791015,0.04883 -0.384925,-0.167597 -0.578125,-0.47428 -0.578125,-0.919922 0,-0.333961 0.03443,-0.421149 0.257812,-0.644531 0.34548,-0.345479 0.714215,-0.413648 1.123047,-0.205078 z"
       style="opacity:1;fill:#e6e6e6;fill-opacity:1;fill-rule:evenodd;stroke:none;stroke-width:1.03534329;stroke-linecap:round;stroke-linejoin:bevel;stroke-miterlimit:4;stroke-dasharray:none;stroke-dashoffset:0;stroke-opacity:1"
       inkscape:connector-curvature="0" />
    <path
       id="path4630"
       d="m -22.282742,10.633608 c -0.388762,-0.162435 -0.769276,-0.07643 -1.089844,0.24414 -0.223386,0.223382 -0.257812,0.31057 -0.257812,0.644531 0,0.445642 0.191249,0.752325 0.576172,0.919922 0.311202,0.135531 0.46003,0.134708 0.787109,-0.002 0.382649,-0.159882 0.571461,-0.531049 0.56836,-0.902344 -0.0031,-0.371295 -0.198652,-0.743295 -0.583985,-0.904296 z"
       style="opacity:1;fill:#e6e6e6;fill-opacity:1;fill-rule:evenodd;stroke:none;stroke-width:1.03534329;stroke-linecap:round;stroke-linejoin:bevel;stroke-miterlimit:4;stroke-dasharray:none;stroke-dashoffset:0;stroke-opacity:1"
       inkscape:connector-curvature="0" />
    <path
       id="path4628"
       d="m -22.282742,10.633608 c 0.385332,0.161001 0.580883,0.533001 0.583985,0.904296 0.0031,0.371295 -0.185711,0.742462 -0.56836,0.902344 -0.327079,0.136661 -0.475907,0.137484 -0.787109,0.002 -0.384924,-0.167597 -0.576172,-0.47428 -0.576172,-0.919922 0,-0.333961 0.03442,-0.421149 0.257812,-0.644531 0.320568,-0.320567 0.701082,-0.406575 1.089844,-0.24414 z"
       style="opacity:1;fill:#ffca58;fill-opacity:1;fill-rule:evenodd;stroke:none;stroke-width:1.03534329;stroke-linecap:round;stroke-linejoin:bevel;stroke-miterlimit:4;stroke-dasharray:none;stroke-dashoffset:0;stroke-opacity:1"
       inkscape:connector-curvature="0" />
    <path
       id="path4626"
       d="m -37.642116,9.049623 v 0.972656 0.972657 h -0.972656 -0.97461 v 1.011718 1.013672 h 0.97461 0.972656 v 1.011719 1.011718 h 1.011719 1.011719 v -1.011718 -1.011719 h 1.013671 1.015625 l -0.02344,-0.99414 -0.02148,-0.992188 -0.992188,-0.02148 -0.992186,-0.02149 V 10.020325 9.049621 h -1.011719 z"
       style="opacity:1;fill:#e6e6e6;fill-opacity:1;fill-rule:evenodd;stroke:none;stroke-width:1.03534329;stroke-linecap:round;stroke-linejoin:bevel;stroke-miterlimit:4;stroke-dasharray:none;stroke-dashoffset:0;stroke-opacity:1"
       inkscape:connector-curvature="0" />
    <path
       id="path4624"
       d="m -24.089382,8.760561 c -0.406199,-0.2733495 -0.871766,-0.24556 -1.220704,0.07422 -0.248832,0.228038 -0.357019,0.526181 -0.330078,0.810547 0.02694,0.284366 0.189546,0.555464 0.476563,0.730469 0.268843,0.163923 0.564708,0.190012 0.822265,0.101563 0.257557,-0.08845 0.475257,-0.291009 0.587891,-0.585938 0.171916,-0.450155 0.04707,-0.873117 -0.335937,-1.130859 z"
       style="opacity:1;fill:#ee5353;fill-opacity:1;fill-rule:evenodd;stroke:none;stroke-width:1.03534329;stroke-linecap:round;stroke-linejoin:bevel;stroke-miterlimit:4;stroke-dasharray:none;stroke-dashoffset:0;stroke-opacity:1"
       inkscape:connector-curvature="0" />
  </g>
</svg>
