<?xml version="1.0" encoding="UTF-8" standalone="no"?>
<svg
   xmlns:dc="http://purl.org/dc/elements/1.1/"
   xmlns:cc="http://creativecommons.org/ns#"
   xmlns:rdf="http://www.w3.org/1999/02/22-rdf-syntax-ns#"
   xmlns:svg="http://www.w3.org/2000/svg"
   xmlns="http://www.w3.org/2000/svg"
   xmlns:sodipodi="http://sodipodi.sourceforge.net/DTD/sodipodi-0.dtd"
   xmlns:inkscape="http://www.inkscape.org/namespaces/inkscape"
   height="32"
   width="32"
   version="1"
   id="svg18"
   sodipodi:docname="deepin-remote-assistance.svg"
   inkscape:version="0.92.1 r">
  <metadata
     id="metadata24">
    <rdf:RDF>
      <cc:Work
         rdf:about="">
        <dc:format>image/svg+xml</dc:format>
        <dc:type
           rdf:resource="http://purl.org/dc/dcmitype/StillImage" />
      </cc:Work>
    </rdf:RDF>
  </metadata>
  <defs
     id="defs22" />
  <sodipodi:namedview
     pagecolor="#ffffff"
     bordercolor="#666666"
     borderopacity="1"
     objecttolerance="10"
     gridtolerance="10"
     guidetolerance="10"
     inkscape:pageopacity="0"
     inkscape:pageshadow="2"
     inkscape:window-width="1680"
     inkscape:window-height="965"
     id="namedview20"
     showgrid="false"
     inkscape:zoom="10.429825"
     inkscape:cx="-17.418485"
     inkscape:cy="19.398899"
     inkscape:window-x="0"
     inkscape:window-y="0"
     inkscape:window-maximized="1"
     inkscape:current-layer="svg18" />
  <g
     id="g4510"
     transform="translate(33.449957,4.4222026)">
    <rect
       ry="5.575182"
       y="-2.5238967"
       x="-31.551651"
       height="28.203388"
       width="28.203388"
       id="rect4497-3-3-6"
       style="opacity:1;fill:#8e8e8e;fill-opacity:1;fill-rule:evenodd;stroke:none;stroke-width:1.03534329;stroke-linecap:round;stroke-linejoin:bevel;stroke-miterlimit:4;stroke-dasharray:none;stroke-dashoffset:0;stroke-opacity:1" />
    <g
       style="stroke-width:1.0891577"
       transform="matrix(0.91814072,0,0,0.91814072,-1.1413033,-4.4201465)"
       id="g4514">
      <path
         inkscape:connector-curvature="0"
         style="opacity:1;fill:#474747;fill-opacity:1;fill-rule:nonzero;stroke:none;stroke-width:10.94166088;stroke-linecap:round;stroke-linejoin:bevel;stroke-miterlimit:4;stroke-dasharray:none;stroke-dashoffset:0;stroke-opacity:1"
         d="m -25.283203,8.7851562 c -1.977025,0 -3.568359,1.5913348 -3.568359,3.5683598 v 9.46289 c 0,1.977025 1.591334,3.56836 3.568359,3.56836 h 1.925781 c 0.163539,1.210237 1.184932,2.140625 2.441406,2.140625 h 6.306641 c 1.256474,0 2.277867,-0.930388 2.441406,-2.140625 h 1.925781 c 1.9770252,0 3.5683599,-1.591335 3.5683599,-3.56836 v -9.46289 c 0,-1.977025 -1.5913347,-3.5683598 -3.5683599,-3.5683598 z"
         id="rect4493" />
      <rect
         style="opacity:1;fill:#232323;fill-opacity:1;fill-rule:nonzero;stroke:none;stroke-width:10.94166088;stroke-linecap:round;stroke-linejoin:bevel;stroke-miterlimit:4;stroke-dasharray:none;stroke-dashoffset:0;stroke-opacity:1"
         id="rect4493-3"
         width="20.183289"
         height="14.499698"
         x="-27.854357"
         y="9.8348961"
         ry="2.5943706"
         rx="2.7033246" />
    </g>
  </g>
  <g
     style="opacity:0.8;fill:#8e8e8e;fill-opacity:1;stroke-width:1.30293107;enable-background:new"
     transform="matrix(0.44742938,0,0,0.44742938,-266.77729,-224.01251)"
     id="g10">
    <path
       d="m 636,528 c -1.6568,0 -3,1.3432 -3,3 0,0.23127 0.0442,0.44001 0.0937,0.65625 l -3.2188,2 c -0.51,-0.42 -1.16,-0.66 -1.87,-0.66 -1.6568,0 -3,1.3432 -3,3 0,1.6568 1.3432,3 3,3 0.70904,0 1.3615,-0.24498 1.875,-0.65625 l 3.2188,2 c -0.06,0.22 -0.1,0.43 -0.1,0.66 0,1.6568 1.3432,3 3,3 1.6568,0 3,-1.3432 3,-3 0,-1.6568 -1.3432,-3 -3,-3 -0.70904,0 -1.3615,0.24498 -1.875,0.65625 l -3.2188,-2 c 0.0495,-0.21624 0.0937,-0.42498 0.0937,-0.65625 0,-0.23127 -0.0442,-0.44001 -0.0937,-0.65625 l 3.2188,-2 c 0.52,0.41 1.17,0.65 1.88,0.65 1.6568,0 3,-1.3432 3,-3 0,-1.6568 -1.3432,-3 -3,-3 z"
       id="path8"
       inkscape:connector-curvature="0"
       style="fill:#8e8e8e;fill-opacity:1;stroke-width:1.30293107" />
  </g>
</svg>
