<?xml version="1.0" encoding="UTF-8" standalone="no"?>
<svg
   xmlns:dc="http://purl.org/dc/elements/1.1/"
   xmlns:cc="http://creativecommons.org/ns#"
   xmlns:rdf="http://www.w3.org/1999/02/22-rdf-syntax-ns#"
   xmlns:svg="http://www.w3.org/2000/svg"
   xmlns="http://www.w3.org/2000/svg"
   xmlns:sodipodi="http://sodipodi.sourceforge.net/DTD/sodipodi-0.dtd"
   xmlns:inkscape="http://www.inkscape.org/namespaces/inkscape"
   width="32"
   height="32"
   version="1"
   id="svg20"
   sodipodi:docname="preferences-desktop-peripherals.svg"
   inkscape:version="0.92.1 r">
  <metadata
     id="metadata26">
    <rdf:RDF>
      <cc:Work
         rdf:about="">
        <dc:format>image/svg+xml</dc:format>
        <dc:type
           rdf:resource="http://purl.org/dc/dcmitype/StillImage" />
      </cc:Work>
    </rdf:RDF>
  </metadata>
  <defs
     id="defs24" />
  <sodipodi:namedview
     pagecolor="#ffffff"
     bordercolor="#666666"
     borderopacity="1"
     objecttolerance="10"
     gridtolerance="10"
     guidetolerance="10"
     inkscape:pageopacity="0"
     inkscape:pageshadow="2"
     inkscape:window-width="1680"
     inkscape:window-height="963"
     id="namedview22"
     showgrid="false"
     inkscape:zoom="7.375"
     inkscape:cx="-44.872425"
     inkscape:cy="24.314187"
     inkscape:window-x="0"
     inkscape:window-y="0"
     inkscape:window-maximized="1"
     inkscape:current-layer="svg20" />
  <rect
     style="opacity:1;fill:#b3b3b3;fill-opacity:1;fill-rule:evenodd;stroke:none;stroke-width:1.03534329;stroke-linecap:round;stroke-linejoin:bevel;stroke-miterlimit:4;stroke-dasharray:none;stroke-dashoffset:0;stroke-opacity:1"
     id="rect4497-3"
     width="28.203388"
     height="28.203388"
     x="1.8983059"
     y="1.8983059"
     ry="5.575182" />
  <g
     style="display:none"
     display="none"
     transform="translate(-52.273,-18.186)"
     id="g6">
    <rect
       style="fill:#abe1ad"
       width="44"
       height="44"
       x="2"
       y="2"
       rx="9"
       ry="9"
       id="rect4" />
  </g>
  <path
     inkscape:connector-curvature="0"
     style="fill:#5b5b5b;stroke-width:0.81996363"
     d="m 16.000005,5.2972635 c -0.01055,0 -0.02199,0.00153 -0.03254,0.00153 h -0.0036 C 12.018631,5.3201978 8.0847497,8.874271 8.0847497,11.541546 v 8.81829 c 0,3.624405 2.9682203,6.3429 7.9152553,6.3429 4.947033,7.49e-4 7.915254,-2.716966 7.915254,-6.341371 v -8.576714 c 0,-2.7720091 -3.952351,-6.4621597 -7.915254,-6.4843296 z"
     id="path8" />
  <path
     inkscape:connector-curvature="0"
     style="opacity:1;stroke-width:0.81996363;fill:#666666;fill-opacity:1"
     d="m 16.000005,5.2972635 c -0.01055,0 -0.02156,0.00105 -0.0321,0.00105 h -0.0036 C 12.019016,5.3197163 8.0847407,8.8739527 8.0847407,11.541227 V 16 H 23.915259 v -4.215248 c 0,-2.7720085 -3.952351,-6.462183 -7.915254,-6.484353 z"
     id="path10" />
  <path
     inkscape:connector-curvature="0"
     style="opacity:1;stroke-width:0.81996363;fill:#333333"
     d="m 16.000005,5.2972635 c -0.01055,0 -0.02156,0.00105 -0.0321,0.00105 h -0.0036 C 12.019016,5.3197163 8.0847407,8.8739527 8.0847407,11.541227 V 16 h 7.9152643 c 0,0 0,-10.7027365 0,-10.699601 z"
     id="path12" />
  <path
     inkscape:connector-curvature="0"
     style="fill:#cccccc;stroke-width:0.81996363"
     d="m 16.000005,8.3554171 c 0.484589,0 0.879472,0.4403714 0.879472,0.9829593 v 2.6212756 c 0,0.542052 -0.394883,0.982423 -0.879472,0.982423 -0.48459,0 -0.879473,-0.440371 -0.879473,-0.983188 V 9.3376118 c 0,-0.5420531 0.394883,-0.9824236 0.879473,-0.9824236"
     id="path16" />
</svg>
