<?xml version="1.0" encoding="UTF-8" standalone="no"?>
<svg
   xmlns:dc="http://purl.org/dc/elements/1.1/"
   xmlns:cc="http://creativecommons.org/ns#"
   xmlns:rdf="http://www.w3.org/1999/02/22-rdf-syntax-ns#"
   xmlns:svg="http://www.w3.org/2000/svg"
   xmlns="http://www.w3.org/2000/svg"
   xmlns:sodipodi="http://sodipodi.sourceforge.net/DTD/sodipodi-0.dtd"
   xmlns:inkscape="http://www.inkscape.org/namespaces/inkscape"
   width="32"
   height="32"
   version="1"
   id="svg20"
   sodipodi:docname="applications-games.svg"
   inkscape:version="0.92.2 2405546, 2018-03-11">
  <metadata
     id="metadata26">
    <rdf:RDF>
      <cc:Work
         rdf:about="">
        <dc:format>image/svg+xml</dc:format>
        <dc:type
           rdf:resource="http://purl.org/dc/dcmitype/StillImage" />
      </cc:Work>
    </rdf:RDF>
  </metadata>
  <defs
     id="defs24" />
  <sodipodi:namedview
     pagecolor="#ffffff"
     bordercolor="#666666"
     borderopacity="1"
     objecttolerance="10"
     gridtolerance="10"
     guidetolerance="10"
     inkscape:pageopacity="0"
     inkscape:pageshadow="2"
     inkscape:window-width="1680"
     inkscape:window-height="972"
     id="namedview22"
     showgrid="false"
     inkscape:zoom="5.2149125"
     inkscape:cx="-23.540141"
     inkscape:cy="18.498514"
     inkscape:window-x="0"
     inkscape:window-y="0"
     inkscape:window-maximized="1"
     inkscape:current-layer="svg20" />
  <path
     inkscape:connector-curvature="0"
     style="opacity:1;fill:#e6e6e6;fill-opacity:1;fill-rule:evenodd;stroke:none;stroke-width:1.03534329;stroke-linecap:round;stroke-linejoin:bevel;stroke-miterlimit:4;stroke-dasharray:none;stroke-dashoffset:0;stroke-opacity:1"
     d="M 19.13867,1.8984375 H 7.472655 c -3.088651,0 -5.574219,2.4855679 -5.574219,5.5742187 V 24.527343 c 0,3.088651 2.485568,5.574219 5.574219,5.574219 h 17.054687 c 3.088651,10e-7 5.574219,-2.485567 5.574219,-5.574219 V 7.4726562 c 1e-6,-3.0886508 -2.485567,-5.5742187 -5.574219,-5.5742187 h -3.50586 C 20.57127,2.3790967 20.058333,2.8675517 19.697265,3.3378906 19.054485,4.1751931 18.543306,4.9973186 18.128905,5.8125 17.300104,7.4428629 16.858528,9.042801 16.527343,10.666016 L 15.156249,10.386719 C 15.50113,8.6963772 15.994815,6.9588806 16.898436,5.1835938 17.350247,4.2959503 17.903714,3.4002075 18.593748,2.4941406 18.743555,2.297434 18.975752,2.0959587 19.13867,1.8984375 Z"
     id="path4524" />
  <path
     inkscape:connector-curvature="0"
     style="opacity:1;fill:#666666;fill-opacity:1;fill-rule:evenodd;stroke:none;stroke-width:1.03534329;stroke-linecap:round;stroke-linejoin:bevel;stroke-miterlimit:4;stroke-dasharray:none;stroke-dashoffset:0;stroke-opacity:1"
     d="M 19.13867,1.8984375 C 18.975752,2.0959587 18.743555,2.297434 18.593748,2.4941406 17.903714,3.4002075 17.350247,4.2959503 16.898436,5.1835938 15.994815,6.9588806 15.50113,8.6963772 15.156249,10.386719 l 1.371093,0.279297 C 16.858528,9.042801 17.300103,7.4428629 18.128904,5.8125 18.543306,4.9973186 19.054484,4.1751931 19.697264,3.3378906 20.058333,2.8675517 20.57127,2.3790967 21.021482,1.8984375 Z"
     id="rect4497-3-3" />
  <path
     inkscape:connector-curvature="0"
     style="opacity:1;fill:#e6e6e6;fill-opacity:1;fill-rule:evenodd;stroke:none;stroke-width:1.03534329;stroke-linecap:round;stroke-linejoin:bevel;stroke-miterlimit:4;stroke-dasharray:none;stroke-dashoffset:0;stroke-opacity:1"
     d="m 26.304686,29.74414 -1.664063,-2.089844 c -1.766131,-2.21693 -1.837036,-2.294418 -2.0625,-2.255859 -0.785194,0.134282 -1.539305,0.135976 -2.027344,0.0039 -0.609041,-0.164861 -1.294366,-0.592605 -1.701172,-1.060547 -0.326992,-0.376132 -0.720123,-1.131589 -0.79492,-1.529297 l -0.04688,-0.253906 h -2.04492 -2.042969 l -0.171875,0.52539 c -0.264403,0.808476 -0.717461,1.431717 -1.322266,1.84375 -0.604805,0.412035 -1.359884,0.612125 -2.226562,0.574218 l -0.720704,-0.03125 -1.972656,2.28125 c -1.037732,1.199909 -1.479683,1.719985 -1.8125,1.992188 0.565352,0.191996 1.147322,0.357421 1.779297,0.357421 h 17.054691 c 0.631308,10e-7 1.212501,-0.165813 1.777344,-0.357421 z"
     id="path4651" />
  <path
     inkscape:connector-curvature="0"
     style="opacity:1;fill:#333333;fill-opacity:1;fill-rule:evenodd;stroke:none;stroke-width:1.03534329;stroke-linecap:round;stroke-linejoin:bevel;stroke-miterlimit:4;stroke-dasharray:none;stroke-dashoffset:0;stroke-opacity:1"
     d="m 30.101561,22.195312 c -0.0148,-0.06202 -0.02942,-0.124925 -0.04297,-0.181641 -0.107429,-0.449545 -0.564938,-2.393695 -1.017578,-4.320312 -0.65353,-2.781693 -0.883092,-3.631564 -1.113282,-4.124999 -0.273554,-0.586402 -0.625266,-1.118061 -1.052733,-1.595703 -0.427467,-0.477643 -0.93159,-0.901253 -1.505859,-1.265626 C 24.2206,9.9782863 22.786853,9.481029 21.093748,9.2324219 20.094958,9.0857676 11.69101,9.0874306 10.86328,9.2343719 9.558051,9.4660855 8.54081,9.7475119 7.681639,10.138669 6.822469,10.529826 6.120087,11.030377 5.447264,11.699216 4.76992,12.37255 4.616062,12.577125 4.30078,13.216794 c -0.38359,0.778257 -0.417816,0.901434 -1.798828,6.539061 -0.189404,0.773194 -0.3906,1.597737 -0.603516,2.466797 v 2.304688 c 0,2.456675 1.597232,4.470451 3.794922,5.216797 0.332817,-0.272204 0.774768,-0.79228 1.8125,-1.992188 l 1.972656,-2.28125 0.720704,0.03125 c 0.866678,0.0379 1.621757,-0.162184 2.226561,-0.574219 0.604806,-0.412033 1.057863,-1.035274 1.322267,-1.84375 l 0.171875,-0.52539 h 2.042968 2.044921 l 0.04688,0.253906 c 0.0748,0.397709 0.467929,1.153166 0.794921,1.529297 0.406806,0.467943 1.09213,0.895687 1.701172,1.060547 0.488039,0.13207 1.24215,0.130375 2.027344,-0.0039 0.225463,-0.03856 0.296369,0.03893 2.0625,2.255859 l 1.664063,2.089844 c 2.198626,-0.745827 3.796875,-2.759455 3.796874,-5.216797 z m -7.546875,-10.04492 c 0.383012,0.257742 0.507853,0.680704 0.335937,1.130859 -0.112634,0.294929 -0.330334,0.497487 -0.587891,0.585938 -0.257556,0.08845 -0.553422,0.06236 -0.822265,-0.101563 -0.287017,-0.175006 -0.449621,-0.446104 -0.476563,-0.730469 -0.02694,-0.284366 0.08125,-0.582509 0.330078,-0.810547 0.348939,-0.319778 0.814504,-0.347568 1.220705,-0.07422 z M 9.001952,12.439453 h 1.011719 1.011719 v 0.970703 0.970704 l 0.992186,0.02149 0.992188,0.02148 0.02148,0.992188 0.02344,0.994139 h -1.015625 -1.013671 v 1.011719 1.011718 H 10.013671 9.001952 V 17.421875 16.410156 H 8.029296 7.054686 v -1.013671 -1.011718 h 0.97461 0.972656 V 13.41211 Z m 5.99414,6.927734 h 1.011718 1.011719 v 0.544921 0.544922 H 16.00781 14.996092 v -0.544922 z m -4.220702,1.060546 c 0.453115,0.07671 0.870538,0.361044 1.095703,0.826172 0.155231,0.320665 0.187915,0.645034 0.128906,0.941406 -0.05901,0.296373 -0.210494,0.564907 -0.419922,0.773438 -0.209428,0.208531 -0.477414,0.356923 -0.773437,0.414062 -0.296024,0.05714 -0.618704,0.02304 -0.937501,-0.134765 -0.463101,-0.229229 -0.744981,-0.647766 -0.820312,-1.099609 -0.07533,-0.451844 0.05575,-0.938563 0.419922,-1.302735 0.365182,-0.365181 0.853526,-0.494681 1.306641,-0.417969 z"
     id="path4649" />
  <path
     inkscape:connector-curvature="0"
     style="opacity:1;fill:#e6e6e6;fill-opacity:1;fill-rule:evenodd;stroke:none;stroke-width:1.03534329;stroke-linecap:round;stroke-linejoin:bevel;stroke-miterlimit:4;stroke-dasharray:none;stroke-dashoffset:0;stroke-opacity:1"
     d="m 21.134764,20.449218 c -0.41609,0.09856 -0.784507,0.375677 -0.992188,0.804687 -0.187245,0.386801 -0.200743,0.797012 -0.07031,1.158203 0.130431,0.361192 0.406079,0.671684 0.800782,0.859375 0.451841,0.214864 0.946618,0.165213 1.345703,-0.07031 0.399083,-0.235525 0.701346,-0.656772 0.771484,-1.179688 0.05201,-0.387764 -0.251404,-1.082758 -0.570312,-1.30664 -0.404532,-0.283993 -0.869066,-0.364188 -1.285157,-0.265625 z"
     id="path4646" />
  <path
     inkscape:connector-curvature="0"
     style="opacity:1;fill:#e6e6e6;fill-opacity:1;fill-rule:evenodd;stroke:none;stroke-width:1.03534329;stroke-linecap:round;stroke-linejoin:bevel;stroke-miterlimit:4;stroke-dasharray:none;stroke-dashoffset:0;stroke-opacity:1"
     d="m 21.134764,20.449218 c 0.41609,-0.09856 0.880624,-0.01837 1.285156,0.265625 0.318908,0.223881 0.622321,0.918876 0.570312,1.30664 -0.07014,0.522916 -0.372399,0.944165 -0.771484,1.179688 -0.399083,0.235525 -0.893861,0.285176 -1.345703,0.07031 -0.394703,-0.187691 -0.670351,-0.498183 -0.800781,-0.859375 -0.130431,-0.361191 -0.116934,-0.771403 0.07031,-1.158203 0.207681,-0.42901 0.576098,-0.706126 0.992188,-0.804687 z"
     id="path4644" />
  <path
     inkscape:connector-curvature="0"
     style="opacity:1;fill:#e6e6e6;fill-opacity:1;fill-rule:evenodd;stroke:none;stroke-width:1.03534329;stroke-linecap:round;stroke-linejoin:bevel;stroke-miterlimit:4;stroke-dasharray:none;stroke-dashoffset:0;stroke-opacity:1"
     d="m 10.77539,20.427733 c -0.453115,-0.07671 -0.941459,0.05279 -1.306641,0.417969 -0.364171,0.364172 -0.495253,0.850891 -0.419922,1.302735 0.07533,0.451843 0.357211,0.87038 0.820312,1.099609 0.318797,0.157801 0.641477,0.191905 0.937501,0.134766 0.296023,-0.05714 0.564009,-0.205532 0.773437,-0.414063 0.209428,-0.208531 0.360911,-0.477065 0.419922,-0.773437 0.05901,-0.296373 0.02632,-0.620741 -0.128906,-0.941407 -0.225165,-0.465128 -0.642588,-0.749459 -1.095703,-0.826172 z"
     id="path4642" />
  <path
     inkscape:connector-curvature="0"
     style="opacity:1;fill:#e6e6e6;fill-opacity:1;fill-rule:evenodd;stroke:none;stroke-width:1.03534329;stroke-linecap:round;stroke-linejoin:bevel;stroke-miterlimit:4;stroke-dasharray:none;stroke-dashoffset:0;stroke-opacity:1"
     d="m 14.996092,19.367187 v 0.544921 0.544922 h 1.011718 1.011719 V 19.912108 19.367187 H 16.00781 Z"
     id="path4640" />
  <path
     inkscape:connector-curvature="0"
     style="opacity:1;fill:#e6e6e6;fill-opacity:1;fill-rule:evenodd;stroke:none;stroke-width:1.03534329;stroke-linecap:round;stroke-linejoin:bevel;stroke-miterlimit:4;stroke-dasharray:none;stroke-dashoffset:0;stroke-opacity:1"
     d="m 21.824217,15.966798 c -0.409862,0.05496 -0.686878,0.336126 -0.783203,0.673827 -0.09633,0.3377 -0.0125,0.731033 0.302734,1.007812 0.272489,0.23925 0.622881,0.299776 0.927734,0.214843 0.304854,-0.08493 0.565885,-0.31482 0.660158,-0.65625 0.1005,-0.363982 0.01341,-0.699752 -0.19336,-0.93164 -0.206771,-0.231889 -0.534403,-0.359502 -0.914063,-0.308592 z"
     id="path4638" />
  <path
     inkscape:connector-curvature="0"
     style="opacity:1;fill:#e6e6e6;fill-opacity:1;fill-rule:evenodd;stroke:none;stroke-width:1.03534329;stroke-linecap:round;stroke-linejoin:bevel;stroke-miterlimit:4;stroke-dasharray:none;stroke-dashoffset:0;stroke-opacity:1"
     d="m 21.824217,15.966798 c 0.379659,-0.05091 0.707291,0.07671 0.914062,0.308592 0.206773,0.231889 0.29386,0.567659 0.19336,0.931641 -0.09427,0.341431 -0.355303,0.571317 -0.660157,0.65625 -0.304853,0.08493 -0.655245,0.02441 -0.927734,-0.214843 -0.315236,-0.27678 -0.39906,-0.670113 -0.302734,-1.007813 0.09633,-0.3377 0.373341,-0.618865 0.783203,-0.673827 z"
     id="path4636" />
  <path
     inkscape:connector-curvature="0"
     style="opacity:1;fill:#e6e6e6;fill-opacity:1;fill-rule:evenodd;stroke:none;stroke-width:1.03534329;stroke-linecap:round;stroke-linejoin:bevel;stroke-miterlimit:4;stroke-dasharray:none;stroke-dashoffset:0;stroke-opacity:1"
     d="m 20.423826,14.062501 c -0.408832,-0.20857 -0.777567,-0.140402 -1.123047,0.205078 -0.223386,0.223382 -0.257812,0.31057 -0.257812,0.644531 0,0.445642 0.1932,0.752325 0.578125,0.919922 0.324992,0.141502 0.409373,0.135921 0.791015,-0.04883 0.373637,-0.180885 0.56231,-0.516154 0.564454,-0.853515 0.0021,-0.337362 -0.181436,-0.677766 -0.552735,-0.867188 z"
     id="path4634" />
  <path
     inkscape:connector-curvature="0"
     style="opacity:1;fill:#e6e6e6;fill-opacity:1;fill-rule:evenodd;stroke:none;stroke-width:1.03534329;stroke-linecap:round;stroke-linejoin:bevel;stroke-miterlimit:4;stroke-dasharray:none;stroke-dashoffset:0;stroke-opacity:1"
     d="m 20.423826,14.062501 c 0.371299,0.189422 0.554878,0.529826 0.552735,0.867188 -0.0021,0.337361 -0.190817,0.672631 -0.564454,0.853515 -0.381641,0.184749 -0.466023,0.19033 -0.791015,0.04883 -0.384925,-0.167597 -0.578125,-0.47428 -0.578125,-0.919922 0,-0.333961 0.03443,-0.421149 0.257812,-0.644531 0.34548,-0.345479 0.714215,-0.413648 1.123047,-0.205078 z"
     id="path4632" />
  <path
     inkscape:connector-curvature="0"
     style="opacity:1;fill:#e6e6e6;fill-opacity:1;fill-rule:evenodd;stroke:none;stroke-width:1.03534329;stroke-linecap:round;stroke-linejoin:bevel;stroke-miterlimit:4;stroke-dasharray:none;stroke-dashoffset:0;stroke-opacity:1"
     d="m 24.361326,14.023439 c -0.388762,-0.162435 -0.769276,-0.07643 -1.089844,0.24414 -0.223386,0.223382 -0.257812,0.31057 -0.257812,0.644531 0,0.445642 0.191249,0.752325 0.576172,0.919922 0.311202,0.135531 0.46003,0.134708 0.787109,-0.002 0.382649,-0.159882 0.571461,-0.531049 0.56836,-0.902344 -0.0031,-0.371295 -0.198652,-0.743295 -0.583985,-0.904296 z"
     id="path4630" />
  <path
     inkscape:connector-curvature="0"
     style="opacity:1;fill:#ffca58;fill-opacity:1;fill-rule:evenodd;stroke:none;stroke-width:1.03534329;stroke-linecap:round;stroke-linejoin:bevel;stroke-miterlimit:4;stroke-dasharray:none;stroke-dashoffset:0;stroke-opacity:1"
     d="m 24.361326,14.023439 c 0.385332,0.161001 0.580883,0.533001 0.583985,0.904296 0.0031,0.371295 -0.185711,0.742462 -0.56836,0.902344 -0.327079,0.136661 -0.475907,0.137484 -0.787109,0.002 -0.384924,-0.167597 -0.576172,-0.47428 -0.576172,-0.919922 0,-0.333961 0.03442,-0.421149 0.257812,-0.644531 0.320568,-0.320567 0.701082,-0.406575 1.089844,-0.24414 z"
     id="path4628" />
  <path
     inkscape:connector-curvature="0"
     style="opacity:1;fill:#e6e6e6;fill-opacity:1;fill-rule:evenodd;stroke:none;stroke-width:1.03534329;stroke-linecap:round;stroke-linejoin:bevel;stroke-miterlimit:4;stroke-dasharray:none;stroke-dashoffset:0;stroke-opacity:1"
     d="m 9.001952,12.439454 v 0.972656 0.972657 H 8.029296 7.054686 v 1.011718 1.013671 h 0.97461 0.972656 v 1.011719 1.011718 h 1.011719 1.011719 v -1.011718 -1.011719 h 1.013671 1.015625 l -0.02344,-0.994139 -0.02148,-0.992188 -0.992188,-0.02148 -0.992186,-0.02149 v -0.970703 -0.970704 h -1.011719 z"
     id="path4626" />
  <path
     inkscape:connector-curvature="0"
     style="opacity:1;fill:#ee5353;fill-opacity:1;fill-rule:evenodd;stroke:none;stroke-width:1.03534329;stroke-linecap:round;stroke-linejoin:bevel;stroke-miterlimit:4;stroke-dasharray:none;stroke-dashoffset:0;stroke-opacity:1"
     d="m 22.554686,12.150392 c -0.406199,-0.27335 -0.871766,-0.24556 -1.220704,0.07422 -0.248832,0.228038 -0.357019,0.52618 -0.330078,0.810547 0.02694,0.284366 0.189546,0.555464 0.476563,0.730468 0.268843,0.163924 0.564708,0.190012 0.822265,0.101564 0.257557,-0.08845 0.475257,-0.29101 0.587891,-0.585939 0.171916,-0.450155 0.04707,-0.873117 -0.335937,-1.130859 z"
     id="path4624" />
</svg>
