<?xml version="1.0" encoding="UTF-8" standalone="no"?>
<svg
   xmlns:dc="http://purl.org/dc/elements/1.1/"
   xmlns:cc="http://creativecommons.org/ns#"
   xmlns:rdf="http://www.w3.org/1999/02/22-rdf-syntax-ns#"
   xmlns:svg="http://www.w3.org/2000/svg"
   xmlns="http://www.w3.org/2000/svg"
   xmlns:sodipodi="http://sodipodi.sourceforge.net/DTD/sodipodi-0.dtd"
   xmlns:inkscape="http://www.inkscape.org/namespaces/inkscape"
   height="32"
   viewBox="0 0 32 32"
   width="32"
   version="1.1"
   id="svg32"
   sodipodi:docname="preferences-desktop-theme.svg"
   inkscape:version="0.92.1 r">
  <metadata
     id="metadata38">
    <rdf:RDF>
      <cc:Work
         rdf:about="">
        <dc:format>image/svg+xml</dc:format>
        <dc:type
           rdf:resource="http://purl.org/dc/dcmitype/StillImage" />
      </cc:Work>
    </rdf:RDF>
  </metadata>
  <defs
     id="defs36" />
  <sodipodi:namedview
     pagecolor="#ffffff"
     bordercolor="#666666"
     borderopacity="1"
     objecttolerance="10"
     gridtolerance="10"
     guidetolerance="10"
     inkscape:pageopacity="0"
     inkscape:pageshadow="2"
     inkscape:window-width="1680"
     inkscape:window-height="965"
     id="namedview34"
     showgrid="false"
     inkscape:zoom="7.375"
     inkscape:cx="-33.355932"
     inkscape:cy="16"
     inkscape:window-x="0"
     inkscape:window-y="0"
     inkscape:window-maximized="1"
     inkscape:current-layer="svg32" />
  <path
     inkscape:connector-curvature="0"
     style="opacity:1;fill:#29809c;fill-opacity:1;fill-rule:evenodd;stroke:none;stroke-width:1.03534329;stroke-linecap:round;stroke-linejoin:bevel;stroke-miterlimit:4;stroke-dasharray:none;stroke-dashoffset:0;stroke-opacity:1"
     d="M 29.935546,25.357422 H 2.066406 c 0.413963,2.674193 2.614466,4.744141 5.408203,4.744141 h 17.052734 c 2.793821,0 4.99434,-2.069831 5.408203,-4.744141 z"
     id="path4527" />
  <path
     inkscape:connector-curvature="0"
     style="opacity:1;fill:#4ab3e4;fill-opacity:1;fill-rule:evenodd;stroke:none;stroke-width:1.03534329;stroke-linecap:round;stroke-linejoin:bevel;stroke-miterlimit:4;stroke-dasharray:none;stroke-dashoffset:0;stroke-opacity:1"
     d="m 7.474609,1.898438 c -3.088651,0 -5.576172,2.4875212 -5.576172,5.576172 v 17.052734 c 0,0.294914 0.12427,0.547785 0.167969,0.830078 h 27.86914 c 0.04368,-0.282218 0.166016,-0.535247 0.166016,-0.830078 V 7.47461 c 0,-3.0886508 -2.485568,-5.576172 -5.574219,-5.576172 z"
     id="rect4497-3" />
  <path
     style="fill:#ffffff"
     inkscape:connector-curvature="0"
     d="m 13.5,16.008475 v 5.334 c 0,0.369 0.334,0.666 0.75,0.666 h 10.5 c 0.416,0 0.75,-0.297 0.75,-0.666 v -5.334 z"
     id="path10" />
  <path
     style="fill:#4f4f4f"
     inkscape:connector-curvature="0"
     d="m 14.25,14.008475 h 10.5 c 0.416,0 0.75,0.297 0.75,0.667 v 1.333 h -12 v -1.3333 c 0,-0.36933 0.3345,-0.66667 0.75,-0.66667 z"
     id="path12" />
  <rect
     style="fill:#ffffff"
     rx="0.375"
     ry="0.375"
     height="3"
     width="3"
     y="7.0084748"
     x="6.5"
     id="rect18" />
  <rect
     style="fill:#ffffff"
     rx="0.375"
     ry="0.375"
     height="3"
     width="3"
     y="11.008474"
     x="6.5"
     id="rect22" />
  <rect
     style="fill:#ffffff"
     rx="0.375"
     ry="0.375"
     height="3"
     width="3"
     y="15.008474"
     x="6.5"
     id="rect26" />
  <rect
     style="fill:#ffffff"
     rx="0.375"
     ry="0.375"
     height="3"
     width="3"
     y="19.008474"
     x="6.5"
     id="rect28" />
</svg>
