<?xml version="1.0" encoding="UTF-8" standalone="no"?>
<svg
   xmlns:dc="http://purl.org/dc/elements/1.1/"
   xmlns:cc="http://creativecommons.org/ns#"
   xmlns:rdf="http://www.w3.org/1999/02/22-rdf-syntax-ns#"
   xmlns:svg="http://www.w3.org/2000/svg"
   xmlns="http://www.w3.org/2000/svg"
   xmlns:sodipodi="http://sodipodi.sourceforge.net/DTD/sodipodi-0.dtd"
   xmlns:inkscape="http://www.inkscape.org/namespaces/inkscape"
   height="32"
   width="32"
   version="1"
   id="svg18"
   sodipodi:docname="psi-plus.svg"
   inkscape:version="0.92.1 r">
  <metadata
     id="metadata24">
    <rdf:RDF>
      <cc:Work
         rdf:about="">
        <dc:format>image/svg+xml</dc:format>
        <dc:type
           rdf:resource="http://purl.org/dc/dcmitype/StillImage" />
      </cc:Work>
    </rdf:RDF>
  </metadata>
  <defs
     id="defs22" />
  <sodipodi:namedview
     pagecolor="#ffffff"
     bordercolor="#666666"
     borderopacity="1"
     objecttolerance="10"
     gridtolerance="10"
     guidetolerance="10"
     inkscape:pageopacity="0"
     inkscape:pageshadow="2"
     inkscape:window-width="640"
     inkscape:window-height="480"
     id="namedview20"
     showgrid="false"
     inkscape:zoom="9.5"
     inkscape:cx="6.5263157"
     inkscape:cy="12.421053"
     inkscape:current-layer="svg18" />
  <rect
     style="opacity:1;fill:#35b9f5;fill-opacity:1;fill-rule:evenodd;stroke:none;stroke-width:1.03534329;stroke-linecap:round;stroke-linejoin:bevel;stroke-miterlimit:4;stroke-dasharray:none;stroke-dashoffset:0;stroke-opacity:1"
     id="rect4497-3"
     width="28.203388"
     height="28.203388"
     x="1.8983059"
     y="1.8983059"
     ry="5.575182" />
  <path
     d="m 12.593117,6.1578948 c -0.629137,0 -1.135627,0.5064899 -1.135627,1.1356275 V 17.892712 c 0,0.629138 0.50649,1.135628 1.135627,1.135628 h 10.599191 c 0.629137,0 1.135627,-0.50649 1.135627,-1.135628 V 8.4291499 L 26.59919,6.1578948 Z"
     id="path6"
     inkscape:connector-curvature="0"
     style="fill:#ef4444;stroke-width:1;fill-opacity:1" />
  <path
     d="m 5.40081,12.97166 2.271255,2.271255 v 9.463563 c 0,0.629137 0.50649,1.135627 1.135627,1.135627 h 10.599191 c 0.629137,0 1.135627,-0.50649 1.135627,-1.135627 V 14.107287 c 0,-0.629137 -0.50649,-1.135627 -1.135627,-1.135627 z"
     id="path10"
     inkscape:connector-curvature="0"
     style="fill:#f9f9f9;stroke-width:1" />
  <path
     d="m 9.94332,16.757085 v 0.757085 h 8.327935 v -0.757085 z m 0,2.271255 v 0.757085 h 8.327935 V 19.02834 Z m 0,2.271255 v 0.757085 h 6.359514 v -0.757085 z"
     id="path12"
     inkscape:connector-curvature="0"
     style="fill:#aee3fb;stroke-width:1" />
</svg>
