<?xml version="1.0" encoding="UTF-8" standalone="no"?>
<svg
   xmlns:dc="http://purl.org/dc/elements/1.1/"
   xmlns:cc="http://creativecommons.org/ns#"
   xmlns:rdf="http://www.w3.org/1999/02/22-rdf-syntax-ns#"
   xmlns:svg="http://www.w3.org/2000/svg"
   xmlns="http://www.w3.org/2000/svg"
   xmlns:sodipodi="http://sodipodi.sourceforge.net/DTD/sodipodi-0.dtd"
   xmlns:inkscape="http://www.inkscape.org/namespaces/inkscape"
   height="32"
   width="32"
   version="1"
   id="svg20"
   sodipodi:docname="pulseeffects.svg"
   inkscape:version="0.92.2 2405546, 2018-03-11">
  <metadata
     id="metadata26">
    <rdf:RDF>
      <cc:Work
         rdf:about="">
        <dc:format>image/svg+xml</dc:format>
        <dc:type
           rdf:resource="http://purl.org/dc/dcmitype/StillImage" />
        <dc:title></dc:title>
      </cc:Work>
    </rdf:RDF>
  </metadata>
  <defs
     id="defs24" />
  <sodipodi:namedview
     pagecolor="#ffffff"
     bordercolor="#666666"
     borderopacity="1"
     objecttolerance="10"
     gridtolerance="10"
     guidetolerance="10"
     inkscape:pageopacity="0"
     inkscape:pageshadow="2"
     inkscape:window-width="1680"
     inkscape:window-height="972"
     id="namedview22"
     showgrid="false"
     inkscape:zoom="5.2149125"
     inkscape:cx="-35.288338"
     inkscape:cy="-19.88997"
     inkscape:window-x="0"
     inkscape:window-y="0"
     inkscape:window-maximized="1"
     inkscape:current-layer="svg20" />
  <rect
     style="opacity:1;fill:#222b00;fill-opacity:1;fill-rule:evenodd;stroke:none;stroke-width:1.03534329;stroke-linecap:round;stroke-linejoin:bevel;stroke-miterlimit:4;stroke-dasharray:none;stroke-dashoffset:0;stroke-opacity:1"
     id="rect4497-3"
     width="28.203388"
     height="28.203388"
     x="1.8983059"
     y="1.8983059"
     ry="5.575182" />
  <g
     id="g4668"
     transform="translate(4.7460936,-43.593751)">
    <path
       id="path4626"
       d="m 19.90625,45.517578 v 28.152344 c 3.026781,-0.0701 5.449219,-2.506548 5.449219,-5.550781 V 51.066406 c 0,-3.044226 -2.422449,-5.478712 -5.449219,-5.548828 z"
       style="opacity:1;fill:#222b00;fill-opacity:1;fill-rule:evenodd;stroke:none;stroke-width:1.03534329;stroke-linecap:round;stroke-linejoin:bevel;stroke-miterlimit:4;stroke-dasharray:none;stroke-dashoffset:0;stroke-opacity:1"
       inkscape:connector-curvature="0" />
    <path
       id="path4624"
       d="m 18.863281,45.492188 v 28.203124 h 0.917969 c 0.04442,0 0.08084,-0.02437 0.125,-0.02539 V 45.517578 c -0.04417,-10e-4 -0.08057,-0.02539 -0.125,-0.02539 z"
       style="opacity:1;fill:#94ad8f;fill-opacity:1;fill-rule:evenodd;stroke:none;stroke-width:1.03534329;stroke-linecap:round;stroke-linejoin:bevel;stroke-miterlimit:4;stroke-dasharray:none;stroke-dashoffset:0;stroke-opacity:1"
       inkscape:connector-curvature="0" />
    <path
       id="path4622"
       d="m 14.457031,45.492188 v 28.203124 h 4.40625 V 45.492188 Z"
       style="opacity:1;fill:#222b00;fill-opacity:1;fill-rule:evenodd;stroke:none;stroke-width:1.03534329;stroke-linecap:round;stroke-linejoin:bevel;stroke-miterlimit:4;stroke-dasharray:none;stroke-dashoffset:0;stroke-opacity:1"
       inkscape:connector-curvature="0" />
    <path
       id="path4620"
       d="m 13.412109,45.492188 v 28.203124 h 1.044922 V 45.492188 Z"
       style="opacity:1;fill:#94ad8f;fill-opacity:1;fill-rule:evenodd;stroke:none;stroke-width:1.03534329;stroke-linecap:round;stroke-linejoin:bevel;stroke-miterlimit:4;stroke-dasharray:none;stroke-dashoffset:0;stroke-opacity:1"
       inkscape:connector-curvature="0" />
    <path
       id="path4618"
       d="M 9.0078125,45.492188 V 73.695312 H 13.412109 V 45.492188 Z"
       style="opacity:1;fill:#222b00;fill-opacity:1;fill-rule:evenodd;stroke:none;stroke-width:1.03534329;stroke-linecap:round;stroke-linejoin:bevel;stroke-miterlimit:4;stroke-dasharray:none;stroke-dashoffset:0;stroke-opacity:1"
       inkscape:connector-curvature="0" />
    <path
       id="path4616"
       d="M 7.9628906,45.492188 V 73.695312 H 9.0078125 V 45.492188 Z"
       style="opacity:1;fill:#94ad8f;fill-opacity:1;fill-rule:evenodd;stroke:none;stroke-width:1.03534329;stroke-linecap:round;stroke-linejoin:bevel;stroke-miterlimit:4;stroke-dasharray:none;stroke-dashoffset:0;stroke-opacity:1"
       inkscape:connector-curvature="0" />
    <path
       id="path4614"
       d="m 3.5566406,73.695312 h 4.40625 V 45.492188 h -4.40625 z"
       style="opacity:1;fill:#222b00;fill-opacity:1;fill-rule:evenodd;stroke:none;stroke-width:1.03534329;stroke-linecap:round;stroke-linejoin:bevel;stroke-miterlimit:4;stroke-dasharray:none;stroke-dashoffset:0;stroke-opacity:1"
       inkscape:connector-curvature="0" />
    <path
       id="path4612"
       d="m 2.5136719,45.535156 c -2.98229488,0.11861 -5.3613281,2.518843 -5.3613281,5.53125 v 17.052735 c 0,3.01242 2.37901469,5.414613 5.3613281,5.533203 z"
       style="opacity:1;fill:#222b00;fill-opacity:1;fill-rule:evenodd;stroke:none;stroke-width:1.03534329;stroke-linecap:round;stroke-linejoin:bevel;stroke-miterlimit:4;stroke-dasharray:none;stroke-dashoffset:0;stroke-opacity:1"
       inkscape:connector-curvature="0" />
    <path
       id="rect4497-3-3"
       d="m 2.5136719,45.535156 v 28.117188 c 0.075468,0.003 0.1386137,0.04297 0.2148437,0.04297 h 0.828125 V 45.492188 h -0.828125 c -0.076243,0 -0.1393626,0.03997 -0.2148437,0.04297 z"
       style="opacity:1;fill:#94ad8f;fill-opacity:1;fill-rule:evenodd;stroke:none;stroke-width:1.03534329;stroke-linecap:round;stroke-linejoin:bevel;stroke-miterlimit:4;stroke-dasharray:none;stroke-dashoffset:0;stroke-opacity:1"
       inkscape:connector-curvature="0" />
    <path
       style="fill:#94ad8f;fill-opacity:1"
       inkscape:connector-curvature="0"
       id="path10-6"
       d="m 5.4830508,63.889832 a 2.5,2.5 0 0 1 -2.5,2.5 2.5,2.5 0 0 1 -2.49999996,-2.5 2.5,2.5 0 0 1 2.49999996,-2.5 2.5,2.5 0 0 1 2.5,2.5 z" />
    <path
       style="fill:#94ad8f;fill-opacity:1"
       inkscape:connector-curvature="0"
       id="path10-6-2"
       d="m 11.177966,56.677966 a 2.5,2.5 0 0 1 -2.4999995,2.5 2.5,2.5 0 0 1 -2.5000004,-2.5 2.5,2.5 0 0 1 2.5000004,-2.5 2.5,2.5 0 0 1 2.4999995,2.5 z" />
    <path
       style="fill:#94ad8f;fill-opacity:1"
       inkscape:connector-curvature="0"
       id="path10-6-9"
       d="m 16.449651,62.576271 a 2.5,2.5 0 0 1 -2.5,2.5 2.5,2.5 0 0 1 -2.5,-2.5 2.5,2.5 0 0 1 2.5,-2.5 2.5,2.5 0 0 1 2.5,2.5 z" />
    <path
       style="fill:#94ad8f;fill-opacity:1"
       inkscape:connector-curvature="0"
       id="path10-6-1"
       d="m 21.889831,55.254238 a 2.5,2.5 0 0 1 -2.5,2.5 2.5,2.5 0 0 1 -2.5,-2.5 2.5,2.5 0 0 1 2.5,-2.5 2.5,2.5 0 0 1 2.5,2.5 z" />
  </g>
</svg>
