<?xml version="1.0" encoding="UTF-8" standalone="no"?>
<svg
   xmlns:dc="http://purl.org/dc/elements/1.1/"
   xmlns:cc="http://creativecommons.org/ns#"
   xmlns:rdf="http://www.w3.org/1999/02/22-rdf-syntax-ns#"
   xmlns:svg="http://www.w3.org/2000/svg"
   xmlns="http://www.w3.org/2000/svg"
   xmlns:sodipodi="http://sodipodi.sourceforge.net/DTD/sodipodi-0.dtd"
   xmlns:inkscape="http://www.inkscape.org/namespaces/inkscape"
   height="32"
   width="32"
   version="1"
   id="svg12"
   sodipodi:docname="pysol.svg"
   inkscape:version="0.92.1 r">
  <metadata
     id="metadata18">
    <rdf:RDF>
      <cc:Work
         rdf:about="">
        <dc:format>image/svg+xml</dc:format>
        <dc:type
           rdf:resource="http://purl.org/dc/dcmitype/StillImage" />
        <dc:title></dc:title>
      </cc:Work>
    </rdf:RDF>
  </metadata>
  <defs
     id="defs16" />
  <sodipodi:namedview
     pagecolor="#ffffff"
     bordercolor="#666666"
     borderopacity="1"
     objecttolerance="10"
     gridtolerance="10"
     guidetolerance="10"
     inkscape:pageopacity="0"
     inkscape:pageshadow="2"
     inkscape:window-width="1680"
     inkscape:window-height="965"
     id="namedview14"
     showgrid="false"
     inkscape:zoom="10.24"
     inkscape:cx="10.84407"
     inkscape:cy="15.379082"
     inkscape:window-x="0"
     inkscape:window-y="0"
     inkscape:window-maximized="1"
     inkscape:current-layer="svg12" />
  <rect
     style="opacity:1;fill:#1e8438;fill-opacity:1;fill-rule:evenodd;stroke:none;stroke-width:1.03534329;stroke-linecap:round;stroke-linejoin:bevel;stroke-miterlimit:4;stroke-dasharray:none;stroke-dashoffset:0;stroke-opacity:1"
     id="rect4497-3"
     width="28.203388"
     height="28.203388"
     x="1.8983059"
     y="1.8983059"
     ry="5.575182" />
  <g
     id="g4695"
     transform="translate(0.071633,-0.31137817)">
    <g
       style="stroke-width:0.7257663"
       transform="matrix(1.377854,0,0,1.377854,-13.587856,-13.030064)"
       id="g4662">
      <rect
         style="opacity:1;fill:#ffffff;fill-opacity:1;fill-rule:evenodd;stroke:none;stroke-width:1.08864951;stroke-linecap:round;stroke-linejoin:bevel;stroke-miterlimit:4;stroke-dasharray:none;stroke-dashoffset:0;stroke-opacity:1"
         id="rect4542-3-7"
         width="7.466145"
         height="10.150849"
         x="21.954792"
         y="13.735376"
         ry="1.2695312" />
      <path
         style="fill:#1e8438;fill-opacity:1;stroke-width:0.7257663"
         d="m 22.454382,18.993457 c -8e-6,-0.863774 0.02523,-1.180328 0.09642,-1.209214 0.07315,-0.02968 0.06924,-0.05804 -0.01622,-0.117442 -0.0975,-0.06778 -0.09491,-0.09792 0.01929,-0.224106 0.07257,-0.08019 0.130838,-0.247211 0.129489,-0.371165 -0.0023,-0.214846 -0.0077,-0.218377 -0.115723,-0.07561 -0.102951,0.136118 -0.113266,0.09891 -0.113266,-0.408536 0,-0.489889 0.0232,-0.581492 0.189365,-0.747656 0.268223,-0.268223 0.746079,-0.266744 0.890312,0.0028 0.08991,0.168002 0.08482,0.212014 -0.04057,0.350564 -0.196605,0.217248 -0.460495,0.171521 -0.460495,-0.0798 0,-0.106079 0.0434,-0.192871 0.09644,-0.192871 0.05304,0 0.09296,0.03472 0.08872,0.07715 -0.0042,0.04243 -0.03896,0.06847 -0.07715,0.05786 -0.03819,-0.01061 -0.06943,0.01797 -0.06943,0.06352 0,0.04554 0.06076,0.0711 0.13501,0.0568 0.07454,-0.01435 0.13501,-0.09464 0.13501,-0.179241 0,-0.213993 -0.310885,-0.249466 -0.41882,-0.04779 -0.101135,0.188973 -0.0371,0.373669 0.167511,0.483175 0.204989,0.109707 0.550229,-0.137457 0.583864,-0.417999 0.03842,-0.320438 -0.241994,-0.545085 -0.617519,-0.494716 -0.168094,0.02255 -0.372364,0.101391 -0.453934,0.17521 -0.144868,0.131104 -0.202102,0.07536 -0.08927,-0.08695 0.105473,-0.151711 0.53017,-0.275546 0.758443,-0.22115 0.263748,0.06285 0.494038,0.245476 0.494038,0.391784 0,0.05707 0.03363,0.103766 0.07473,0.103766 0.0411,0 0.05721,0.04566 0.03579,0.101472 -0.02142,0.05581 -0.0067,0.185998 0.03269,0.289307 l 0.07162,0.187834 0.0542,-0.207965 c 0.03634,-0.139434 0.01365,-0.26585 -0.06884,-0.383621 -0.149886,-0.213993 -0.161161,-0.346156 -0.0195,-0.228588 0.05694,0.04726 0.125837,0.06362 0.153098,0.03636 0.02726,-0.02726 -0.0106,-0.09355 -0.08413,-0.14732 -0.07353,-0.05377 -0.108545,-0.1229 -0.07781,-0.153632 0.0854,-0.0854 0.291049,0.119914 0.291049,0.290581 0,0.08769 0.04053,0.137015 0.09644,0.117343 0.05309,-0.01868 0.09135,-0.142711 0.08512,-0.275918 -0.01014,-0.216722 0.0074,-0.237283 0.168017,-0.196972 0.218003,0.05471 0.518187,-0.02986 0.457056,-0.128773 -0.02434,-0.03938 -0.111633,-0.07159 -0.193992,-0.07159 -0.221791,0 -0.179024,-0.10032 0.09867,-0.231445 0.318425,-0.150361 0.39684,-0.351728 0.108815,-0.279438 -0.117402,0.02947 -0.202929,0.01855 -0.202929,-0.02591 0,-0.166196 0.362714,-0.293919 0.837352,-0.294859 0.386487,-7.63e-4 0.522492,0.03134 0.642904,0.151749 0.186044,0.186045 0.136638,0.262003 -0.09113,0.140105 -0.150913,-0.08077 -0.164599,-0.07205 -0.141617,0.09019 0.01793,0.126587 0.103945,0.204965 0.291437,0.265565 l 0.265997,0.08597 -0.227423,0.120235 c -0.195763,0.103498 -0.208297,0.12771 -0.09003,0.173926 0.07556,0.02953 0.234143,0.03434 0.352397,0.01069 0.199575,-0.03992 0.212716,-0.02739 0.183075,0.174568 -0.0476,0.32431 0.100691,0.34903 0.279165,0.04654 0.152146,-0.257869 0.152533,-0.267663 0.0123,-0.31217 -0.35459,-0.112542 -0.831584,-0.964348 -0.540015,-0.964348 0.04243,0 0.07715,0.08211 0.07715,0.182467 0,0.379649 0.593197,0.815611 0.983019,0.722457 0.153495,-0.03668 0.06572,-0.08553 -0.293743,-0.163469 -0.370258,-0.08028 -0.665473,-0.454193 -0.530016,-0.671302 0.05496,-0.08809 0.09104,-0.07579 0.190108,0.06486 0.152594,0.21663 0.41756,0.222598 0.640994,0.01444 0.136369,-0.127048 0.240085,-0.151531 0.514216,-0.121386 0.400602,0.04405 0.523967,0.104264 0.452045,0.220635 -0.03005,0.04862 -0.01602,0.06166 0.03345,0.03108 0.114912,-0.07102 0.247236,0.194007 0.247236,0.49518 v 0.245064 l -0.147675,-0.182134 c -0.08121,-0.100172 -0.17295,-0.156932 -0.203865,-0.126134 -0.03092,0.0308 -0.01685,0.103427 0.03126,0.161396 0.161816,0.194976 -0.0051,0.201969 -0.255873,0.01072 -0.297608,-0.226997 -0.375512,-0.238253 -0.314307,-0.04541 0.03817,0.120254 -0.007,0.152548 -0.272465,0.195005 -0.320505,0.05125 -0.534364,0.193026 -0.534364,0.354251 0,0.04797 0.04062,0.06211 0.09026,0.03143 0.06311,-0.03901 0.07309,-0.01137 0.03317,0.09188 -0.0314,0.08122 -0.07752,0.248964 -0.102493,0.372772 -0.03592,0.178069 -0.02154,0.215949 0.0688,0.181282 0.06495,-0.02493 0.153687,0.01939 0.205758,0.102774 0.05035,0.08063 0.148016,0.1466 0.217026,0.1466 0.09084,0 0.06936,-0.04414 -0.0778,-0.159897 -0.144907,-0.113987 -0.202567,-0.23028 -0.200818,-0.40503 0.0033,-0.332712 0.160684,-0.515995 0.510784,-0.594956 0.400698,-0.09037 0.952583,0.142081 0.952583,0.401225 v 0.175801 l -0.115962,-0.165558 c -0.240961,-0.34402 -0.955048,-0.405469 -1.120448,-0.09642 -0.2461,0.459843 0.261355,0.961011 0.638509,0.6306 0.253897,-0.22243 0.117152,-0.557254 -0.227588,-0.557254 -0.137838,0 -0.177441,0.04305 -0.177441,0.192872 0,0.141438 0.04115,0.192871 0.154297,0.192871 0.08486,0 0.154297,-0.03843 0.154297,-0.0854 0,-0.04697 -0.05207,-0.06542 -0.115723,-0.04099 -0.132855,0.05098 -0.158231,-0.06967 -0.03117,-0.148197 0.0465,-0.02874 0.141975,0.0062 0.212158,0.07757 0.118854,0.120922 0.115208,0.139994 -0.05314,0.278028 -0.206077,0.168968 -0.431143,0.101608 -0.51203,-0.153247 -0.144354,-0.454815 0.564171,-0.65614 0.927907,-0.263661 0.104053,0.112275 0.192096,0.242463 0.195651,0.289306 0.06638,0.874627 0.02063,1.189499 -0.121659,0.837368 -0.04726,-0.116948 -0.06445,-0.109238 -0.12854,0.05763 -0.06238,0.162416 -0.04301,0.217335 0.12345,0.350066 0.223717,0.178385 0.250908,0.267354 0.08171,0.267354 -0.06365,0 -0.115723,0.01984 -0.115723,0.04409 0,0.02425 0.05208,0.09616 0.115723,0.159808 0.09201,0.09201 0.115723,0.340404 0.115723,1.21207 v 1.096346 l -3.240223,-0.0025 -3.240224,-0.0025 -10e-6,-1.170085 z m 1.604027,0.880779 c 0.0097,-0.09547 0.03194,-0.243018 0.0495,-0.327881 0.01756,-0.08486 0.03458,-0.169612 0.03783,-0.18833 0.0032,-0.01872 0.0549,0.03298 0.114784,0.114872 0.05989,0.0819 0.08951,0.184004 0.06583,0.226904 -0.02368,0.0429 0.0022,0.03607 0.05757,-0.01517 0.08184,-0.07577 0.08219,-0.115377 0.0019,-0.212112 -0.08648,-0.104206 -0.06648,-0.113591 0.161424,-0.07575 0.252261,0.04189 0.254638,0.03992 0.07847,-0.06495 -0.22742,-0.135384 -0.499908,-0.08734 -0.681632,0.12018 -0.07679,0.0877 -0.09623,0.134072 -0.04319,0.103059 0.05906,-0.03453 0.09643,-0.01226 0.09643,0.05746 0,0.06262 -0.0367,0.126081 -0.08156,0.141034 -0.0847,0.02823 -0.01871,0.294264 0.07299,0.294264 0.02864,0 0.05998,-0.07811 0.06964,-0.173584 z m 1.944793,0.05786 c 0.05357,-0.06455 0.06193,-0.115723 0.01889,-0.115723 -0.04243,0 -0.120367,0.05208 -0.17319,0.115723 -0.05357,0.06455 -0.06193,0.115722 -0.01889,0.115722 0.04243,0 0.120367,-0.05207 0.17319,-0.115722 z m 0.655762,0.03857 c -0.02622,-0.04243 -0.008,-0.07715 0.04045,-0.07715 0.04847,0 0.07222,-0.0434 0.05277,-0.09644 -0.01945,-0.05304 -0.07442,-0.08776 -0.122152,-0.07715 -0.04774,0.01061 -0.08679,-0.02823 -0.08679,-0.08632 0,-0.07189 -0.07388,-0.097 -0.231445,-0.07865 -0.127295,0.01482 -0.231445,-0.0071 -0.231445,-0.04869 0,-0.0416 0.03447,-0.07564 0.07659,-0.07564 0.09095,0 0.08058,-0.606302 -0.01134,-0.663114 -0.03492,-0.02158 -0.04281,0.01464 -0.01754,0.08049 0.02527,0.06585 0.01177,0.11973 -0.03001,0.11973 -0.129315,0 -0.289028,-0.24737 -0.26215,-0.406027 0.01574,-0.09294 -0.0065,-0.131077 -0.05787,-0.09932 -0.155699,0.09623 -0.08433,0.345759 0.148019,0.517544 0.264867,0.195825 0.320528,0.36754 0.05998,0.185046 -0.233433,-0.163503 -0.369244,-0.147776 -0.169095,0.01958 0.0885,0.074 0.184581,0.228867 0.213515,0.34415 0.02893,0.115282 0.07803,0.205697 0.109112,0.200921 0.191527,-0.02943 0.322385,0.02931 0.365099,0.163885 0.02693,0.08486 0.0834,0.154297 0.125474,0.154297 0.04208,0 0.05505,-0.03472 0.02882,-0.07715 z m 0.794515,-0.202755 c 0.02952,-0.294084 -0.205661,-0.517547 -0.534834,-0.508187 -0.305548,0.0087 -0.491779,0.165475 -0.21725,0.182901 0.103958,0.0066 0.267127,0.0053 0.362598,-0.0029 0.154346,-0.01327 0.173584,0.02032 0.173584,0.303024 0,0.373444 0.178851,0.394305 0.215902,0.02518 z m -2.684652,0.04391 c 0,-0.04494 0.03232,-0.06173 0.07182,-0.03732 0.0395,0.02441 0.09269,0.01062 0.118193,-0.03065 0.02551,-0.04127 0.106018,-0.05269 0.178915,-0.02539 0.112699,0.04222 0.117679,0.03136 0.03327,-0.07255 -0.101594,-0.125061 -0.352309,-0.107908 -0.537203,0.03675 -0.131336,0.102759 -0.121448,0.210856 0.01929,0.210856 0.06365,0 0.115723,-0.03677 0.115723,-0.0817 z m 1.067855,-0.158839 c 0.07319,-0.117193 0.07843,-0.186997 0.01856,-0.246875 -0.05988,-0.05988 -0.08348,-0.03549 -0.08348,0.08624 0,0.09335 -0.03047,0.169727 -0.0677,0.169727 -0.104841,0 -0.246193,-0.200427 -0.184711,-0.261909 0.03016,-0.03016 -0.0049,-0.03193 -0.07782,-0.0039 -0.172135,0.06605 -0.167557,0.09627 0.04093,0.270197 0.220125,0.183636 0.231417,0.183207 0.354232,-0.01345 z m 1.16945,0.01735 c 0,-0.03789 -0.05699,-0.09076 -0.126635,-0.117489 -0.105884,-0.04063 -0.110657,-0.02934 -0.02913,0.06889 0.111104,0.133872 0.155763,0.147805 0.155763,0.04859 z m -3.208982,-0.40806 c 0.08889,-0.07433 0.275352,-0.157678 0.414359,-0.185224 0.333945,-0.06618 0.219535,-0.209721 -0.273493,-0.343145 -0.522381,-0.141366 -0.787259,-0.289429 -0.865545,-0.483824 -0.04993,-0.123978 -0.06959,-0.134741 -0.07317,-0.04004 -0.0027,0.07122 0.04966,0.184054 0.116342,0.250732 0.110544,0.110544 0.0892,0.154459 -0.06337,0.13037 -0.03182,-0.005 -0.05786,0.02963 -0.05786,0.07701 0,0.0518 0.08232,0.07041 0.206479,0.04667 0.121997,-0.02332 0.250547,0.0046 0.314185,0.06824 0.09218,0.09218 0.08345,0.104914 -0.06055,0.08834 -0.176846,-0.02036 -0.381293,0.200889 -0.279605,0.302578 0.03263,0.03263 0.08348,0.023 0.112994,-0.0214 0.02952,-0.0444 0.162224,-0.143826 0.294905,-0.220949 0.23087,-0.134198 0.249105,-0.13437 0.424316,-0.004 0.135866,0.101106 0.145459,0.123393 0.0372,0.08642 -0.224384,-0.07662 -0.51099,0.150403 -0.503791,0.399065 0.0035,0.121135 0.02495,0.162425 0.05054,0.09733 0.02445,-0.06217 0.117177,-0.173859 0.206067,-0.248186 z m 1.708962,-0.06309 c 0.06124,0 0.111348,-0.03363 0.111348,-0.07473 0,-0.102159 -0.247978,-0.0082 -0.366455,0.138828 -0.08009,0.0994 -0.09655,0.100841 -0.09713,0.0085 -3.86e-4,-0.06115 0.109394,-0.201671 0.243947,-0.312269 0.188746,-0.155142 0.230245,-0.234465 0.181628,-0.347168 -0.06081,-0.140958 -0.06422,-0.14067 -0.09728,0.0082 -0.01884,0.08486 -0.136502,0.249203 -0.261466,0.365199 -0.194661,0.180694 -0.214705,0.234263 -0.139925,0.37399 l 0.08728,0.163086 0.11335,-0.16183 c 0.06234,-0.08901 0.163457,-0.161831 0.224699,-0.161831 z m 2.271504,0.145394 c 0,-0.04232 -0.111887,-0.179137 -0.248638,-0.30404 -0.313311,-0.286165 -0.125267,-0.309161 0.279873,-0.03422 0.156316,0.106079 0.300027,0.192871 0.319359,0.192871 0.08297,0 0.02535,-0.220685 -0.08057,-0.308594 -0.172288,-0.142986 -0.140318,-0.21475 0.07715,-0.173179 0.112587,0.02152 0.192871,10e-4 0.192871,-0.04927 0,-0.04738 -0.05745,-0.08614 -0.12768,-0.08614 -0.118807,0 -0.118807,-0.0098 0,-0.141084 0.07023,-0.0776 0.124939,-0.190426 0.121589,-0.250733 -0.0051,-0.09151 -0.01344,-0.09095 -0.05054,0.0034 -0.07757,0.197274 -0.355252,0.379484 -0.763533,0.501011 -0.217716,0.0648 -0.478092,0.186318 -0.578613,0.270031 l -0.182766,0.152205 0.252221,-0.06958 c 0.138722,-0.03827 0.233678,-0.03958 0.211014,-0.0029 -0.02266,0.03667 0.03742,0.07784 0.133522,0.09148 0.0961,0.01364 0.207964,0.100515 0.248586,0.193052 0.07143,0.162726 0.196161,0.172721 0.196161,0.01572 z M 26.82312,18.849425 c 0.09029,-0.09814 0.315944,-0.219309 0.501464,-0.26926 0.567101,-0.152692 0.672325,-0.213778 0.802768,-0.466026 0.224905,-0.43492 -0.03055,-0.830207 -0.465911,-0.720938 -0.24412,0.06127 -0.365764,0.275978 -0.301476,0.53212 0.06423,0.255917 0.398918,0.352134 0.542388,0.155927 0.116681,-0.15957 0.01583,-0.425035 -0.161473,-0.425035 -0.152988,0 -0.228403,0.151462 -0.126268,0.253597 0.06304,0.06304 0.08586,0.05101 0.08586,-0.0453 0,-0.07213 0.03472,-0.131153 0.07715,-0.131153 0.09642,0 0.102186,0.284014 0.007,0.342866 -0.212599,0.131364 -0.470436,-0.272026 -0.302927,-0.473861 0.128978,-0.15541 0.476803,-0.121977 0.588293,0.05654 0.081,0.129699 0.07662,0.202144 -0.02518,0.416668 -0.12951,0.272921 -0.412213,0.411637 -0.51517,0.252782 -0.04389,-0.06771 -0.07659,-0.06977 -0.118483,-0.0075 -0.03182,0.04734 -0.196728,0.157655 -0.366455,0.245147 -0.203873,0.105094 -0.368604,0.272236 -0.485433,0.492541 -0.111546,0.210341 -0.125789,0.266231 -0.03858,0.151372 0.07605,-0.100153 0.212135,-0.262393 0.302421,-0.360534 z m -2.169427,0.07365 c -0.11759,-0.154168 -0.327551,-0.327834 -0.466581,-0.385924 -0.139029,-0.05809 -0.270677,-0.149877 -0.29255,-0.203972 -0.03084,-0.07628 -0.05728,-0.07318 -0.117774,0.0138 -0.06571,0.09449 -0.107841,0.09619 -0.267401,0.01079 -0.296435,-0.158647 -0.409777,-0.427095 -0.281514,-0.666757 0.08322,-0.155488 0.154556,-0.191813 0.340918,-0.173584 0.201487,0.01971 0.239081,0.058 0.259121,0.263937 0.02845,0.292345 -0.191879,0.426726 -0.348489,0.21255 -0.05372,-0.07347 -0.122003,-0.109247 -0.151739,-0.07951 -0.108771,0.108771 0.188619,0.30312 0.387463,0.253214 0.303395,-0.07615 0.326949,-0.595043 0.03412,-0.751759 -0.366164,-0.195965 -0.729985,0.130376 -0.645775,0.579251 0.04772,0.254393 0.363636,0.509726 0.63066,0.509726 0.25804,0 0.767829,0.304989 0.908864,0.543741 0.07746,0.131134 0.159658,0.219609 0.182656,0.19661 0.023,-0.023 -0.05439,-0.167953 -0.171983,-0.322121 z m 0.423728,-0.419467 c 0,-0.03337 -0.120388,-0.131702 -0.267528,-0.218516 -0.332744,-0.196324 -0.426412,-0.493347 -0.225566,-0.715278 0.104068,-0.114994 0.200977,-0.14561 0.360146,-0.113776 0.133391,0.02668 0.19957,0.01411 0.170804,-0.03243 -0.105197,-0.170213 -0.732192,0.0066 -0.732192,0.206417 0,0.146645 -0.132236,0.128053 -0.225266,-0.03167 -0.07216,-0.12389 -0.07883,-0.122222 -0.08098,0.02026 -0.0013,0.0854 0.08445,0.220451 0.190525,0.300113 0.106079,0.07966 0.19234,0.200732 0.19169,0.269044 -6.94e-4,0.07674 -0.02284,0.09257 -0.05786,0.04143 -0.05669,-0.08279 -0.3267,-0.208876 -0.3267,-0.152558 0,0.115552 0.105642,0.265404 0.162381,0.230337 0.03798,-0.02348 0.06906,-0.0047 0.06906,0.04173 0,0.05592 0.04558,0.06053 0.13501,0.01367 0.08424,-0.04414 0.207538,-0.04068 0.327881,0.0092 l 0.192871,0.07996 -0.231445,0.04931 -0.231445,0.04931 0.212158,0.05595 c 0.116687,0.03077 0.212158,0.09206 0.212158,0.136185 0,0.04413 -0.03148,0.06078 -0.06995,0.037 -0.03847,-0.02378 -0.0508,0.03 -0.0274,0.119505 0.03826,0.146313 0.05311,0.137642 0.147102,-0.0859 0.0575,-0.136751 0.104545,-0.275941 0.104545,-0.309309 z m 1.411053,0.386872 c 0.02221,-0.08492 0.01254,-0.137196 -0.02149,-0.116165 -0.03403,0.02103 -0.08476,-0.0214 -0.112727,-0.09429 -0.0666,-0.173547 0.16461,-0.343227 0.430074,-0.315627 0.201005,0.0209 0.453248,-0.122379 0.453248,-0.257452 0,-0.03873 -0.07136,-0.03223 -0.158574,0.01445 -0.08722,0.04668 -0.200045,0.07002 -0.250732,0.05187 -0.132595,-0.04747 -0.498424,0.153696 -0.589715,0.324277 -0.05759,0.107597 -0.04815,0.170015 0.03629,0.240093 0.06276,0.05208 0.114101,0.14252 0.114101,0.200971 0,0.155383 0.05302,0.129749 0.09953,-0.04813 z M 25.27999,18.386577 c -0.02389,-0.06225 -0.07597,-0.113178 -0.115741,-0.113178 -0.04043,0 -0.03299,0.08393 0.01687,0.19035 0.09122,0.194715 0.177399,0.127456 0.09887,-0.07717 z m 1.10842,-0.20772 c 0.417832,-0.280487 0.392011,-0.59546 -0.04907,-0.598612 -0.176306,-0.0013 -0.302982,0.193967 -0.176557,0.272101 0.04163,0.02573 0.06615,8.03e-4 0.05449,-0.05539 -0.01309,-0.06308 0.05218,-0.10217 0.170615,-0.10217 0.310303,0 0.274551,0.22169 -0.07282,0.451572 -0.217984,0.144255 -0.309545,0.258302 -0.30417,0.378869 l 0.0077,0.172489 0.05017,-0.168978 c 0.02759,-0.09294 0.171439,-0.250385 0.319657,-0.349881 z m 0.270554,0.403136 c 0.136726,-0.05875 0.130137,-0.06692 -0.05786,-0.07173 -0.116687,-0.003 -0.212159,0.02929 -0.212159,0.07173 0,0.09055 0.0593,0.09055 0.270019,0 z m -0.78745,-0.400049 c 0.0088,0.01335 0.08229,-0.0012 0.163355,-0.03229 0.137515,-0.05277 0.135347,-0.06101 -0.03236,-0.123054 -0.11038,-0.04083 -0.210031,-0.03622 -0.258201,0.01195 -0.05316,0.05316 -0.123543,0.03764 -0.218368,-0.04818 -0.157217,-0.142281 -0.192847,-0.03785 -0.04349,0.127456 0.05846,0.0647 0.01288,0.05488 -0.115722,-0.02492 -0.116687,-0.07241 -0.212159,-0.09933 -0.212159,-0.05983 0,0.0395 0.11283,0.140068 0.250733,0.223476 0.229871,0.139034 0.259032,0.141229 0.350489,0.02639 0.05487,-0.06889 0.106941,-0.114343 0.115723,-0.100995 z m -1.027475,-0.126045 c -0.24816,-0.200947 -0.158824,-0.437057 0.137665,-0.363837 0.159416,0.03937 0.189901,0.03028 0.123902,-0.03692 -0.141202,-0.143785 -0.449242,-0.06038 -0.476219,0.128949 -0.02226,0.156211 0.27554,0.533224 0.356913,0.451851 0.01971,-0.01971 -0.04431,-0.100724 -0.142261,-0.18004 z m 2.297103,-0.237062 c 0.05304,-0.06323 0.09566,-0.169086 0.09472,-0.235232 -0.0012,-0.08496 -0.04601,-0.06364 -0.152581,0.07261 -0.117975,0.150823 -0.15124,0.164391 -0.152581,0.06224 -0.0034,-0.259506 -0.675569,-0.514066 -0.804886,-0.304825 -0.02244,0.0363 0.04488,0.04963 0.1496,0.02961 0.106771,-0.02041 0.278775,0.02151 0.39162,0.09545 0.167111,0.109496 0.193301,0.171467 0.154486,0.365541 -0.04257,0.212877 -0.03472,0.224603 0.08822,0.131638 0.07423,-0.05613 0.178359,-0.153792 0.231399,-0.217024 z m -3.413819,-0.0137 c 0,-0.142386 -0.26214,-0.189724 -0.37465,-0.06766 -0.06848,0.0743 -0.05645,0.0845 0.05373,0.04556 0.187969,-0.06644 0.332612,0.02307 0.194146,0.120136 -0.0847,0.05938 -0.08259,0.06735 0.01105,0.04179 0.06365,-0.01738 0.115722,-0.0803 0.115722,-0.139827 z m 1.385787,0.08719 c 0.02464,-0.03986 -0.02539,-0.06719 -0.11117,-0.06073 -0.08578,0.0065 -0.155964,0.03908 -0.155964,0.07248 0,0.08531 0.212937,0.07594 0.267134,-0.01175 z m 0.769828,-0.122845 c 0.171089,-0.129405 0.103669,-0.151106 -0.111571,-0.03591 -0.09743,0.05214 -0.160511,0.05152 -0.193534,-0.0019 -0.02694,-0.0436 -0.02037,-0.06999 0.0146,-0.05865 0.104017,0.03373 0.565303,-0.417824 0.562164,-0.550303 -0.0019,-0.07828 -0.101345,-0.01125 -0.276579,0.186336 -0.154938,0.174703 -0.289295,0.269955 -0.309666,0.219539 -0.07494,-0.185474 -0.4136,-0.526537 -0.413694,-0.416632 -5.1e-5,0.06133 0.09319,0.208872 0.207211,0.327881 0.186655,0.194825 0.192418,0.216652 0.05786,0.219114 -0.128554,0.0023 -0.122484,0.01815 0.04343,0.112989 0.237994,0.136049 0.236647,0.136057 0.419775,-0.0024 z m -1.128336,-0.546308 c 0.177372,-0.03548 0.24567,-0.09182 0.24567,-0.202669 0,-0.183965 -0.561497,-0.727158 -0.607866,-0.588051 -0.01717,0.05152 0.03697,0.148888 0.120314,0.216377 0.146426,0.118569 0.291149,0.467348 0.193921,0.467348 -0.02626,0 -0.121149,-0.09206 -0.210872,-0.204586 -0.13098,-0.164265 -0.203773,-0.194385 -0.369352,-0.152827 -0.233161,0.05852 -0.288141,0.33082 -0.08271,0.40965 0.121516,0.04663 0.296637,-0.124634 0.208902,-0.2043 -0.02472,-0.02245 -0.06044,0.0026 -0.07938,0.05563 -0.04812,0.134741 -0.17588,0.12073 -0.17588,-0.01929 0,-0.07201 0.07286,-0.115723 0.192871,-0.115723 0.153053,0 0.192871,0.03888 0.192871,0.188318 0,0.103575 -0.03472,0.209775 -0.07715,0.235999 -0.04243,0.02622 -0.07715,0.08573 -0.07715,0.132232 0,0.0465 0.06303,0.02751 0.140072,-0.04221 0.07704,-0.06972 0.250624,-0.148874 0.385742,-0.175897 z m 2.175817,-0.02716 c -0.121055,-0.226194 -0.02442,-0.335161 0.248774,-0.280522 0.199442,0.03989 0.218203,0.03028 0.135493,-0.06938 -0.0528,-0.06362 -0.155803,-0.115675 -0.228895,-0.115675 -0.168129,0 -0.419982,0.271989 -0.352683,0.380881 0.02788,0.0451 0.0325,0.08201 0.01027,0.08201 -0.02223,0 -0.07666,-0.06774 -0.120974,-0.150528 -0.0658,-0.122957 -0.04225,-0.186049 0.12858,-0.344454 0.259198,-0.240342 0.191018,-0.337735 -0.104616,-0.149439 -0.27394,0.174479 -0.331908,0.254852 -0.333393,0.462251 -9.18e-4,0.128298 0.05978,0.176434 0.272893,0.216415 0.150741,0.02828 0.29598,0.1085 0.322752,0.178269 0.02851,0.0743 0.06086,0.09029 0.0781,0.0386 0.01618,-0.04854 -0.0092,-0.160334 -0.0563,-0.248427 z m -0.850068,-0.384393 c 0.338181,-0.443559 0.347533,-1.010484 0.01657,-1.004616 -0.12327,0.0022 -0.123085,0.0077 0.0027,0.08098 0.07426,0.04325 0.13501,0.148394 0.13501,0.233653 0,0.08526 -0.03189,0.135306 -0.07087,0.111216 -0.03898,-0.02409 -0.09345,0.05902 -0.121057,0.184695 -0.0276,0.125672 -0.121405,0.319037 -0.208452,0.429698 l -0.158248,0.201202 -0.183569,-0.172453 c -0.100963,-0.09485 -0.183569,-0.232996 -0.183569,-0.306992 0,-0.206358 -0.08542,-0.382599 -0.16238,-0.335034 -0.103685,0.06408 -0.08315,-0.230076 0.02351,-0.336734 0.0689,-0.0689 0.06959,-0.09258 0.0027,-0.09258 -0.04943,0 -0.127933,0.07113 -0.174463,0.158074 -0.118466,0.221356 0.03369,0.645182 0.380799,1.060718 0.309007,0.36992 0.242427,0.390031 0.701301,-0.21183 z m 1.263811,0.339129 c 0.02635,-0.06866 0.01341,-0.09962 -0.03032,-0.07259 -0.04194,0.02592 -0.07626,0.0798 -0.07626,0.11973 0,0.110972 0.0553,0.08652 0.106585,-0.04713 z m -0.214271,-0.16797 c -0.07842,-0.07842 -0.14313,0.03965 -0.07879,0.143757 0.04861,0.07865 0.06678,0.07871 0.09291,3.09e-4 0.01787,-0.0536 0.01151,-0.118432 -0.01412,-0.144068 z m -1.234745,-0.716263 c 0.04752,-0.257271 0.04425,-0.262266 -0.0751,-0.11469 -0.119233,0.147427 -0.123945,0.139863 -0.105825,-0.169883 0.01081,-0.184799 -0.0142,-0.317479 -0.05818,-0.308594 -0.04243,0.0086 -0.06759,0.154454 -0.0559,0.324181 0.01926,0.279642 0.01091,0.295494 -0.08903,0.168967 -0.14647,-0.185444 -0.237896,-0.03421 -0.118426,0.195893 0.17427,0.335652 0.239387,0.386504 0.351438,0.274453 0.05574,-0.05574 0.123699,-0.222385 0.151025,-0.370327 z m -2.125712,0.148722 c 0.123814,-0.231348 0.06015,-0.243941 -0.133596,-0.02642 -0.116887,0.131227 -0.134763,0.18733 -0.05969,0.18733 0.05895,0 0.145922,-0.07241 0.193285,-0.160904 z m -1.056355,-1.248726 c 0.05593,-0.222834 -0.01258,-0.271456 -0.166127,-0.117908 -0.07201,0.07201 -0.09258,0.04725 -0.09258,-0.111421 0,-0.513063 0.830759,-0.897617 1.148268,-0.531526 0.180897,0.208576 0.45175,0.210404 0.670896,0.0045 0.217069,-0.203926 0.286883,-0.09655 0.137615,0.211651 -0.108265,0.223544 -0.443715,0.429456 -0.838127,0.514476 -0.110208,0.02376 -0.09297,0.03582 0.06034,0.04221 0.387009,0.01614 0.717452,-0.180693 0.87444,-0.520864 0.07991,-0.173161 0.171336,-0.315734 0.20316,-0.316829 0.08427,-0.0029 0.06657,0.08078 -0.08087,0.382257 -0.185474,0.379251 -0.649679,0.622425 -1.078401,0.564921 -0.277649,-0.03724 -0.322421,-0.0669 -0.283954,-0.188096 0.06443,-0.202992 -0.06579,-0.178722 -0.357339,0.0666 l -0.250149,0.210487 0.05283,-0.210487 z m 1.11068,-0.731847 c -0.218947,-0.04864 -0.154363,-0.147259 0.09643,-0.147259 0.127295,0 0.231446,0.02522 0.231446,0.05604 0,0.07949 -0.16901,0.126516 -0.327881,0.09122 z m 3.433105,0.003 c -0.177125,-0.06351 -0.09916,-0.150301 0.13501,-0.150301 0.127295,0 0.231445,0.01035 0.231445,0.023 0,0.06018 -0.281205,0.157867 -0.366455,0.127299 z"
         id="path4540"
         inkscape:connector-curvature="0"
         sodipodi:nodetypes="ccccccscccsscsscscccccccsscccccccscsccccsccsccccccccccccssscccccccscccscccscccccscccscccsssssccccccccscsscscccccccccsccccccscscccscsccsscscsscssccccscccsccccccscccsccccsccccssscsccccccccccccccscccccccccccccsccccccccccccccsccssccccccccccccccccccssssccccccscccccccccccccccccscccccccccscccccscsccccccssccccccccsccccscccscccccccsccccccccscccccscccsccccccccscccccccccccccccccccsccscccccccccccccccsccscscccssscsccccccscsccccccccccccssccccsccsccccccsccccccccccccccsccccsccccssccccscccccccccsscccssc" />
    </g>
    <g
       style="stroke-width:0.7257663"
       transform="matrix(1.377854,0,0,1.377854,-0.91217445,-1.9173771)"
       id="g4669">
      <rect
         style="opacity:1;fill:#ffffff;fill-opacity:1;fill-rule:evenodd;stroke:none;stroke-width:1.08864951;stroke-linecap:round;stroke-linejoin:bevel;stroke-miterlimit:4;stroke-dasharray:none;stroke-dashoffset:0;stroke-opacity:1"
         id="rect4542"
         width="7.466145"
         height="10.150849"
         x="4.2232404"
         y="5.6701622"
         ry="1.2695312" />
      <path
         style="fill:#d10000;fill-opacity:1;stroke-width:0.7257663"
         d="m 6.9860424,13.976437 c -1.17863,-1.207887 -1.4376,-1.604104 -1.4376,-2.199434 0,-0.638591 0.32383,-1.06264 0.93656,-1.226403 0.30877,-0.08252 0.40634,-0.07719 0.71003,0.03879 0.19364,0.07395 0.46118,0.258723 0.59454,0.410605 l 0.24246,0.276147 0.28188,-0.307716 c 0.65881,-0.719172 1.6895996,-0.590328 2.1025896,0.262814 0.15764,0.325624 0.16504,0.395087 0.0835,0.783655 -0.12057,0.574856 -0.49264,1.108954 -1.2488996,1.792791 -0.34713,0.313883 -0.7581,0.726922 -0.91326,0.917865 l -0.28211,0.347168 z"
         id="path4540-3-7"
         inkscape:connector-curvature="0"
         sodipodi:nodetypes="csccccccccccc" />
      <path
         style="fill:#d10000;fill-opacity:1;stroke-width:0.7257663"
         d="m 9.4894458,7.954649 c -0.42438,-0.434915 -0.517626,-0.5775779 -0.517626,-0.791934 0,-0.2299328 0.116599,-0.382617 0.33722,-0.4415819 0.111177,-0.029712 0.146308,-0.027793 0.255656,0.013967 0.06972,0.026627 0.166053,0.093157 0.214071,0.1478436 l 0.0873,0.09943 0.101494,-0.1107971 c 0.2372132,-0.2589469 0.6083622,-0.212555 0.7570652,0.094629 0.05676,0.1172451 0.05942,0.1422561 0.03007,0.2821649 -0.04341,0.2069842 -0.177381,0.3992929 -0.449682,0.6455171 C 10.180025,8.0069051 10.03205,8.155625 9.9761828,8.2243765 l -0.101577,0.1250022 z"
         id="path4540-3-7-5"
         inkscape:connector-curvature="0"
         sodipodi:nodetypes="csccccccccccc" />
      <text
         xml:space="preserve"
         style="font-style:normal;font-weight:normal;font-size:3.49447203px;line-height:1.25;font-family:sans-serif;letter-spacing:0px;word-spacing:0px;fill:#000000;fill-opacity:1;stroke:none;stroke-width:0.72576642"
         x="6.9174113"
         y="7.52598"
         id="text4597"
         transform="scale(0.76244234,1.3115746)"><tspan
           sodipodi:role="line"
           id="tspan4595"
           x="6.9174113"
           y="7.52598"
           style="stroke-width:0.72576642">A</tspan></text>
    </g>
    <g
       style="stroke-width:0.7257663"
       transform="matrix(1.377854,0,0,1.377854,-0.31331884,-2.9003345)"
       id="g4677">
      <path
         style="fill:#d10000;fill-opacity:1;stroke-width:0.7257663"
         d="m 15.083381,19.658293 c -1.17863,-1.207887 -1.4376,-1.604104 -1.4376,-2.199434 0,-0.638591 0.32383,-1.06264 0.93656,-1.226403 0.30877,-0.08252 0.40634,-0.07719 0.71003,0.03879 0.19364,0.07395 0.46118,0.258723 0.59454,0.410605 l 0.24246,0.276147 0.28188,-0.307716 c 0.65881,-0.719172 1.6896,-0.590328 2.10259,0.262814 0.15764,0.325624 0.16504,0.395087 0.0835,0.783655 -0.12057,0.574856 -0.49264,1.108954 -1.2489,1.792791 -0.34713,0.313883 -0.7581,0.726922 -0.91326,0.917865 l -0.28211,0.347168 z"
         id="path4540-3-7-56"
         inkscape:connector-curvature="0"
         sodipodi:nodetypes="csccccccccccc" />
      <rect
         style="opacity:1;fill:#ffffff;fill-opacity:1;fill-rule:evenodd;stroke:none;stroke-width:1.08864951;stroke-linecap:round;stroke-linejoin:bevel;stroke-miterlimit:4;stroke-dasharray:none;stroke-dashoffset:0;stroke-opacity:1"
         id="rect4542-3"
         width="7.466145"
         height="10.150849"
         x="12.32058"
         y="11.352018"
         ry="1.2695312" />
      <path
         style="fill:#000000;stroke-width:0.7257663"
         d="m 14.926743,20.483299 c 0.48176,-0.170937 0.98997,-0.755338 1.111,-1.277569 0.0599,-0.258298 0.0165,-0.260281 -0.37809,-0.01727 -0.35774,0.220341 -0.99408,0.25966 -1.33464,0.08246 -0.42499,-0.221123 -0.59407,-0.486571 -0.59407,-0.93268 0,-0.553951 0.24774,-0.895819 1.26119,-1.74039 0.43551,-0.362934 0.86995,-0.757846 0.96542,-0.877581 l 0.17359,-0.217701 0.20839,0.247652 c 0.11461,0.13621 0.51192,0.500634 0.88291,0.809832 0.84742,0.706287 1.06036,0.933756 1.21046,1.293101 0.35207,0.84281 -0.15806,1.52616 -1.13929,1.52616 -0.31718,0 -0.48446,-0.04604 -0.70084,-0.192871 -0.15631,-0.106079 -0.30002,-0.192871 -0.31936,-0.192871 -0.11455,0 -0.004,0.4875 0.16836,0.741431 0.21316,0.314295 0.35814,0.442773 0.75215,0.666528 0.23326,0.132463 0.21302,0.134895 -1.07258,0.128919 -0.72068,-0.0034 -1.25824,-0.02457 -1.1946,-0.04715 z"
         id="path4540-3"
         inkscape:connector-curvature="0"
         sodipodi:nodetypes="ccccsccccccscscccc" />
      <path
         style="fill:#000000;stroke-width:0.7257663"
         d="m 17.372183,14.295992 c 0.20396,-0.07237 0.419119,-0.319785 0.470359,-0.540879 0.02536,-0.109355 0.007,-0.110194 -0.16007,-0.0073 -0.151455,0.09328 -0.42086,0.109931 -0.565041,0.03491 -0.179927,-0.09362 -0.251509,-0.205998 -0.251509,-0.394865 0,-0.234524 0.104884,-0.379259 0.533944,-0.736822 0.184381,-0.153654 0.368308,-0.320846 0.408726,-0.371538 l 0.07349,-0.09217 0.08823,0.104848 c 0.04852,0.05767 0.216729,0.211951 0.373794,0.342855 0.358768,0.299018 0.44892,0.39532 0.512467,0.547455 0.149054,0.356817 -0.06692,0.646124 -0.482336,0.646124 -0.134284,0 -0.205104,-0.01949 -0.296712,-0.08165 -0.06618,-0.04491 -0.127018,-0.08165 -0.135206,-0.08165 -0.0485,0 -0.0017,0.206391 0.07128,0.313896 0.09024,0.133062 0.151624,0.187455 0.318434,0.282186 0.09876,0.05608 0.09019,0.05711 -0.454094,0.05458 -0.305111,-0.0014 -0.532695,-0.0104 -0.505752,-0.01996 z"
         id="path4540-3-2"
         inkscape:connector-curvature="0"
         sodipodi:nodetypes="ccccsccccccscscccc" />
      <text
         xml:space="preserve"
         style="font-style:normal;font-weight:normal;font-size:3.57730985px;line-height:1.25;font-family:sans-serif;letter-spacing:0px;word-spacing:0px;fill:#000000;fill-opacity:1;stroke:none;stroke-width:0.72576624"
         x="16.57485"
         y="12.377423"
         id="text4643"
         transform="scale(0.7968939,1.2548722)"><tspan
           sodipodi:role="line"
           id="tspan4641"
           x="16.57485"
           y="12.377423"
           style="stroke-width:0.72576624">4</tspan></text>
    </g>
  </g>
</svg>
