<?xml version="1.0" encoding="UTF-8" standalone="no"?>
<svg
   xmlns:dc="http://purl.org/dc/elements/1.1/"
   xmlns:cc="http://creativecommons.org/ns#"
   xmlns:rdf="http://www.w3.org/1999/02/22-rdf-syntax-ns#"
   xmlns:svg="http://www.w3.org/2000/svg"
   xmlns="http://www.w3.org/2000/svg"
   xmlns:sodipodi="http://sodipodi.sourceforge.net/DTD/sodipodi-0.dtd"
   xmlns:inkscape="http://www.inkscape.org/namespaces/inkscape"
   width="32"
   height="32"
   viewBox="0 0 32 32"
   version="1.1"
   id="svg46"
   sodipodi:docname="qjoypad.svg"
   inkscape:version="0.92.1 r">
  <metadata
     id="metadata52">
    <rdf:RDF>
      <cc:Work
         rdf:about="">
        <dc:format>image/svg+xml</dc:format>
        <dc:type
           rdf:resource="http://purl.org/dc/dcmitype/StillImage" />
        <dc:title />
      </cc:Work>
    </rdf:RDF>
  </metadata>
  <defs
     id="defs50" />
  <sodipodi:namedview
     pagecolor="#ffffff"
     bordercolor="#666666"
     borderopacity="1"
     objecttolerance="10"
     gridtolerance="10"
     guidetolerance="10"
     inkscape:pageopacity="0"
     inkscape:pageshadow="2"
     inkscape:window-width="640"
     inkscape:window-height="480"
     id="namedview48"
     showgrid="false"
     inkscape:zoom="19"
     inkscape:cx="22.988477"
     inkscape:cy="17.097587"
     inkscape:current-layer="svg46" />
  <path
     style="opacity:1;fill:#83a7e6;fill-opacity:1;fill-rule:evenodd;stroke:none;stroke-width:1.03534329;stroke-linecap:round;stroke-linejoin:bevel;stroke-miterlimit:4;stroke-dasharray:none;stroke-dashoffset:0;stroke-opacity:1"
     d="M 19.138672 1.8984375 L 7.4726562 1.8984375 C 4.3840054 1.8984375 1.8984375 4.3840054 1.8984375 7.4726562 L 1.8984375 24.527344 C 1.8984375 27.615995 4.3840054 30.101562 7.4726562 30.101562 L 24.527344 30.101562 C 27.615995 30.101563 30.101562 27.615995 30.101562 24.527344 L 30.101562 7.4726562 C 30.101563 4.3840054 27.615995 1.8984375 24.527344 1.8984375 L 21.021484 1.8984375 C 20.571272 2.3790967 20.058335 2.8675517 19.697266 3.3378906 C 19.054486 4.1751931 18.543307 4.9973186 18.128906 5.8125 C 17.300105 7.4428629 16.858529 9.042801 16.527344 10.666016 L 15.15625 10.386719 C 15.501131 8.6963772 15.994816 6.9588806 16.898438 5.1835938 C 17.350248 4.2959503 17.903716 3.4002075 18.59375 2.4941406 C 18.743556 2.297434 18.975754 2.0959587 19.138672 1.8984375 z "
     id="path4524" />
  <path
     style="opacity:1;fill:#003870;fill-opacity:1;fill-rule:evenodd;stroke:none;stroke-width:1.03534329;stroke-linecap:round;stroke-linejoin:bevel;stroke-miterlimit:4;stroke-dasharray:none;stroke-dashoffset:0;stroke-opacity:1"
     d="M 19.138672 1.8984375 C 18.975754 2.0959587 18.743556 2.297434 18.59375 2.4941406 C 17.903716 3.4002075 17.350248 4.2959503 16.898438 5.1835938 C 15.994816 6.9588806 15.501131 8.6963772 15.15625 10.386719 L 16.527344 10.666016 C 16.858529 9.042801 17.300105 7.4428629 18.128906 5.8125 C 18.543307 4.9973186 19.054486 4.1751931 19.697266 3.3378906 C 20.058335 2.8675517 20.571272 2.3790967 21.021484 1.8984375 L 19.138672 1.8984375 z "
     id="rect4497-3-3" />
  <path
     style="opacity:1;fill:#83a7e6;fill-opacity:1;fill-rule:evenodd;stroke:none;stroke-width:1.03534329;stroke-linecap:round;stroke-linejoin:bevel;stroke-miterlimit:4;stroke-dasharray:none;stroke-dashoffset:0;stroke-opacity:1"
     d="M 26.304688 29.744141 L 24.640625 27.654297 C 22.874494 25.437366 22.803588 25.359879 22.578125 25.398438 C 21.792931 25.532719 21.03882 25.534414 20.550781 25.402344 C 19.941739 25.237484 19.256415 24.80974 18.849609 24.341797 C 18.522617 23.965665 18.129485 23.210208 18.054688 22.8125 L 18.007812 22.558594 L 15.962891 22.558594 L 13.919922 22.558594 L 13.748047 23.083984 C 13.483644 23.892459 13.030586 24.5157 12.425781 24.927734 C 11.820976 25.339769 11.065897 25.539858 10.199219 25.501953 L 9.4785156 25.470703 L 7.5058594 27.751953 C 6.4681268 28.951861 6.0261764 29.471937 5.6933594 29.744141 C 6.2587113 29.936137 6.8406809 30.101562 7.4726562 30.101562 L 24.527344 30.101562 C 25.158652 30.101563 25.739845 29.935749 26.304688 29.744141 z "
     id="path4651" />
  <path
     style="opacity:1;fill:#0061ac;fill-opacity:1;fill-rule:evenodd;stroke:none;stroke-width:1.03534329;stroke-linecap:round;stroke-linejoin:bevel;stroke-miterlimit:4;stroke-dasharray:none;stroke-dashoffset:0;stroke-opacity:1"
     d="M 30.101562 22.195312 C 30.086765 22.13329 30.072147 22.070387 30.058594 22.013672 C 29.951165 21.564127 29.493655 19.619977 29.041016 17.693359 C 28.387486 14.911665 28.157923 14.061794 27.927734 13.568359 C 27.654178 12.981957 27.302467 12.450299 26.875 11.972656 C 26.447533 11.495014 25.94341 11.071404 25.369141 10.707031 C 24.220602 9.9782863 22.786854 9.481029 21.09375 9.2324219 C 20.09496 9.0857676 11.691011 9.0874306 10.863281 9.234375 C 9.5580522 9.4660886 8.5408114 9.747515 7.6816406 10.138672 C 6.8224698 10.529829 6.120088 11.03038 5.4472656 11.699219 C 4.7699208 12.372554 4.6160628 12.577129 4.3007812 13.216797 C 3.9171911 13.995053 3.8829655 14.11823 2.5019531 19.755859 C 2.312549 20.529053 2.1113537 21.353596 1.8984375 22.222656 L 1.8984375 24.527344 C 1.8984375 26.984019 3.4956689 28.997795 5.6933594 29.744141 C 6.0261764 29.471937 6.4681268 28.951861 7.5058594 27.751953 L 9.4785156 25.470703 L 10.199219 25.501953 C 11.065897 25.539858 11.820976 25.339769 12.425781 24.927734 C 13.030586 24.5157 13.483644 23.892459 13.748047 23.083984 L 13.919922 22.558594 L 15.962891 22.558594 L 18.007812 22.558594 L 18.054688 22.8125 C 18.129485 23.210208 18.522617 23.965665 18.849609 24.341797 C 19.256415 24.80974 19.941739 25.237484 20.550781 25.402344 C 21.03882 25.534414 21.792931 25.532719 22.578125 25.398438 C 22.803588 25.359879 22.874494 25.437366 24.640625 27.654297 L 26.304688 29.744141 C 28.503314 28.998314 30.101563 26.984686 30.101562 24.527344 L 30.101562 22.195312 z M 22.554688 12.150391 C 22.9377 12.408133 23.062541 12.831095 22.890625 13.28125 C 22.777991 13.576179 22.560291 13.778737 22.302734 13.867188 C 22.045177 13.955636 21.749312 13.929548 21.480469 13.765625 C 21.193452 13.59062 21.030848 13.319522 21.003906 13.035156 C 20.976965 12.75079 21.085152 12.452647 21.333984 12.224609 C 21.682922 11.904831 22.148488 11.877042 22.554688 12.150391 z M 9.0019531 12.439453 L 10.013672 12.439453 L 11.025391 12.439453 L 11.025391 13.410156 L 11.025391 14.380859 L 12.017578 14.402344 L 13.009766 14.423828 L 13.03125 15.416016 L 13.054688 16.410156 L 12.039062 16.410156 L 11.025391 16.410156 L 11.025391 17.421875 L 11.025391 18.433594 L 10.013672 18.433594 L 9.0019531 18.433594 L 9.0019531 17.421875 L 9.0019531 16.410156 L 8.0292969 16.410156 L 7.0546875 16.410156 L 7.0546875 15.396484 L 7.0546875 14.384766 L 8.0292969 14.384766 L 9.0019531 14.384766 L 9.0019531 13.412109 L 9.0019531 12.439453 z M 14.996094 19.367188 L 16.007812 19.367188 L 17.019531 19.367188 L 17.019531 19.912109 L 17.019531 20.457031 L 16.007812 20.457031 L 14.996094 20.457031 L 14.996094 19.912109 L 14.996094 19.367188 z M 10.775391 20.427734 C 11.228506 20.504447 11.645929 20.788778 11.871094 21.253906 C 12.026325 21.574571 12.05901 21.89894 12 22.195312 C 11.94099 22.491685 11.789506 22.760219 11.580078 22.96875 C 11.37065 23.177281 11.102664 23.325673 10.806641 23.382812 C 10.510617 23.439953 10.187937 23.405847 9.8691406 23.248047 C 9.4060394 23.018818 9.1241588 22.60028 9.0488281 22.148438 C 8.9734975 21.696594 9.1045792 21.209875 9.46875 20.845703 C 9.833932 20.480522 10.322276 20.351022 10.775391 20.427734 z "
     id="path4649" />
  <path
     style="opacity:1;fill:#e6e6e6;fill-opacity:1;fill-rule:evenodd;stroke:none;stroke-width:1.03534329;stroke-linecap:round;stroke-linejoin:bevel;stroke-miterlimit:4;stroke-dasharray:none;stroke-dashoffset:0;stroke-opacity:1"
     d="M 21.134766 20.449219 C 20.718676 20.54778 20.350259 20.824896 20.142578 21.253906 C 19.955332 21.640706 19.941835 22.050918 20.072266 22.412109 C 20.202696 22.773301 20.478344 23.083793 20.873047 23.271484 C 21.324888 23.486348 21.819666 23.436696 22.21875 23.201172 C 22.617834 22.965648 22.920096 22.5444 22.990234 22.021484 C 23.042243 21.63372 22.73883 20.938725 22.419922 20.714844 C 22.01539 20.430852 21.550856 20.350657 21.134766 20.449219 z "
     id="path4646" />
  <path
     style="opacity:1;fill:#e6e6e6;fill-opacity:1;fill-rule:evenodd;stroke:none;stroke-width:1.03534329;stroke-linecap:round;stroke-linejoin:bevel;stroke-miterlimit:4;stroke-dasharray:none;stroke-dashoffset:0;stroke-opacity:1"
     d="M 21.134766 20.449219 C 21.550856 20.350657 22.01539 20.430852 22.419922 20.714844 C 22.73883 20.938725 23.042243 21.63372 22.990234 22.021484 C 22.920096 22.5444 22.617834 22.965648 22.21875 23.201172 C 21.819666 23.436696 21.324888 23.486348 20.873047 23.271484 C 20.478344 23.083793 20.202696 22.773301 20.072266 22.412109 C 19.941835 22.050918 19.955332 21.640706 20.142578 21.253906 C 20.350259 20.824896 20.718676 20.54778 21.134766 20.449219 z "
     id="path4644" />
  <path
     style="opacity:1;fill:#e6e6e6;fill-opacity:1;fill-rule:evenodd;stroke:none;stroke-width:1.03534329;stroke-linecap:round;stroke-linejoin:bevel;stroke-miterlimit:4;stroke-dasharray:none;stroke-dashoffset:0;stroke-opacity:1"
     d="M 10.775391 20.427734 C 10.322276 20.351022 9.833932 20.480522 9.46875 20.845703 C 9.1045792 21.209875 8.9734975 21.696594 9.0488281 22.148438 C 9.1241588 22.600281 9.4060394 23.018818 9.8691406 23.248047 C 10.187937 23.405847 10.510617 23.439952 10.806641 23.382812 C 11.102664 23.325673 11.37065 23.177281 11.580078 22.96875 C 11.789506 22.760219 11.94099 22.491685 12 22.195312 C 12.05901 21.89894 12.026325 21.574571 11.871094 21.253906 C 11.645929 20.788778 11.228506 20.504447 10.775391 20.427734 z "
     id="path4642" />
  <path
     style="opacity:1;fill:#e6e6e6;fill-opacity:1;fill-rule:evenodd;stroke:none;stroke-width:1.03534329;stroke-linecap:round;stroke-linejoin:bevel;stroke-miterlimit:4;stroke-dasharray:none;stroke-dashoffset:0;stroke-opacity:1"
     d="M 14.996094 19.367188 L 14.996094 19.912109 L 14.996094 20.457031 L 16.007812 20.457031 L 17.019531 20.457031 L 17.019531 19.912109 L 17.019531 19.367188 L 16.007812 19.367188 L 14.996094 19.367188 z "
     id="path4640" />
  <path
     style="opacity:1;fill:#e6e6e6;fill-opacity:1;fill-rule:evenodd;stroke:none;stroke-width:1.03534329;stroke-linecap:round;stroke-linejoin:bevel;stroke-miterlimit:4;stroke-dasharray:none;stroke-dashoffset:0;stroke-opacity:1"
     d="M 21.824219 15.966797 C 21.414357 16.02176 21.137341 16.302925 21.041016 16.640625 C 20.94469 16.978325 21.028514 17.371658 21.34375 17.648438 C 21.616239 17.887687 21.966631 17.948214 22.271484 17.863281 C 22.576338 17.778348 22.837368 17.548461 22.931641 17.207031 C 23.032141 16.843049 22.945053 16.507279 22.738281 16.275391 C 22.53151 16.043502 22.203878 15.915888 21.824219 15.966797 z "
     id="path4638" />
  <path
     style="opacity:1;fill:#e6e6e6;fill-opacity:1;fill-rule:evenodd;stroke:none;stroke-width:1.03534329;stroke-linecap:round;stroke-linejoin:bevel;stroke-miterlimit:4;stroke-dasharray:none;stroke-dashoffset:0;stroke-opacity:1"
     d="M 21.824219 15.966797 C 22.203878 15.915888 22.53151 16.043502 22.738281 16.275391 C 22.945053 16.507279 23.032141 16.843049 22.931641 17.207031 C 22.837368 17.548461 22.576338 17.778348 22.271484 17.863281 C 21.966631 17.948214 21.616239 17.887687 21.34375 17.648438 C 21.028514 17.371658 20.94469 16.978325 21.041016 16.640625 C 21.137341 16.302925 21.414357 16.02176 21.824219 15.966797 z "
     id="path4636" />
  <path
     style="opacity:1;fill:#e6e6e6;fill-opacity:1;fill-rule:evenodd;stroke:none;stroke-width:1.03534329;stroke-linecap:round;stroke-linejoin:bevel;stroke-miterlimit:4;stroke-dasharray:none;stroke-dashoffset:0;stroke-opacity:1"
     d="M 20.423828 14.0625 C 20.014996 13.85393 19.64626 13.922099 19.300781 14.267578 C 19.077394 14.49096 19.042969 14.578148 19.042969 14.912109 C 19.042969 15.357751 19.236169 15.664434 19.621094 15.832031 C 19.946086 15.973533 20.030467 15.967952 20.412109 15.783203 C 20.785745 15.602319 20.974419 15.267049 20.976562 14.929688 C 20.978706 14.592326 20.795127 14.251922 20.423828 14.0625 z "
     id="path4634" />
  <path
     style="opacity:1;fill:#e6e6e6;fill-opacity:1;fill-rule:evenodd;stroke:none;stroke-width:1.03534329;stroke-linecap:round;stroke-linejoin:bevel;stroke-miterlimit:4;stroke-dasharray:none;stroke-dashoffset:0;stroke-opacity:1"
     d="M 20.423828 14.0625 C 20.795127 14.251922 20.978706 14.592326 20.976562 14.929688 C 20.974419 15.267049 20.785745 15.602319 20.412109 15.783203 C 20.030467 15.967952 19.946086 15.973533 19.621094 15.832031 C 19.236169 15.664434 19.042969 15.357751 19.042969 14.912109 C 19.042969 14.578148 19.077394 14.49096 19.300781 14.267578 C 19.64626 13.922099 20.014996 13.85393 20.423828 14.0625 z "
     id="path4632" />
  <path
     style="opacity:1;fill:#e6e6e6;fill-opacity:1;fill-rule:evenodd;stroke:none;stroke-width:1.03534329;stroke-linecap:round;stroke-linejoin:bevel;stroke-miterlimit:4;stroke-dasharray:none;stroke-dashoffset:0;stroke-opacity:1"
     d="M 24.361328 14.023438 C 23.972566 13.861003 23.592051 13.947011 23.271484 14.267578 C 23.048097 14.49096 23.013672 14.578148 23.013672 14.912109 C 23.013672 15.357751 23.20492 15.664434 23.589844 15.832031 C 23.901046 15.967562 24.049874 15.966739 24.376953 15.830078 C 24.759602 15.670196 24.948414 15.299029 24.945312 14.927734 C 24.942211 14.556439 24.74666 14.184439 24.361328 14.023438 z "
     id="path4630" />
  <path
     style="opacity:1;fill:#e6e6e6;fill-opacity:1;fill-rule:evenodd;stroke:none;stroke-width:1.03534329;stroke-linecap:round;stroke-linejoin:bevel;stroke-miterlimit:4;stroke-dasharray:none;stroke-dashoffset:0;stroke-opacity:1"
     d="M 24.361328 14.023438 C 24.74666 14.184439 24.942211 14.556439 24.945312 14.927734 C 24.948414 15.299029 24.759602 15.670196 24.376953 15.830078 C 24.049874 15.966739 23.901046 15.967562 23.589844 15.832031 C 23.20492 15.664434 23.013672 15.357751 23.013672 14.912109 C 23.013672 14.578148 23.048097 14.49096 23.271484 14.267578 C 23.592051 13.947011 23.972566 13.861003 24.361328 14.023438 z "
     id="path4628" />
  <path
     style="opacity:1;fill:#e6e6e6;fill-opacity:1;fill-rule:evenodd;stroke:none;stroke-width:1.03534329;stroke-linecap:round;stroke-linejoin:bevel;stroke-miterlimit:4;stroke-dasharray:none;stroke-dashoffset:0;stroke-opacity:1"
     d="M 9.0019531 12.439453 L 9.0019531 13.412109 L 9.0019531 14.384766 L 8.0292969 14.384766 L 7.0546875 14.384766 L 7.0546875 15.396484 L 7.0546875 16.410156 L 8.0292969 16.410156 L 9.0019531 16.410156 L 9.0019531 17.421875 L 9.0019531 18.433594 L 10.013672 18.433594 L 11.025391 18.433594 L 11.025391 17.421875 L 11.025391 16.410156 L 12.039062 16.410156 L 13.054688 16.410156 L 13.03125 15.416016 L 13.009766 14.423828 L 12.017578 14.402344 L 11.025391 14.380859 L 11.025391 13.410156 L 11.025391 12.439453 L 10.013672 12.439453 L 9.0019531 12.439453 z "
     id="path4626" />
  <path
     style="opacity:1;fill:#e6e6e6;fill-opacity:1;fill-rule:evenodd;stroke:none;stroke-width:1.03534329;stroke-linecap:round;stroke-linejoin:bevel;stroke-miterlimit:4;stroke-dasharray:none;stroke-dashoffset:0;stroke-opacity:1"
     d="M 22.554688 12.150391 C 22.148489 11.877042 21.682922 11.904831 21.333984 12.224609 C 21.085152 12.452647 20.976965 12.75079 21.003906 13.035156 C 21.030848 13.319522 21.193452 13.59062 21.480469 13.765625 C 21.749312 13.929548 22.045177 13.955637 22.302734 13.867188 C 22.560291 13.778738 22.777991 13.576179 22.890625 13.28125 C 23.062541 12.831095 22.9377 12.408133 22.554688 12.150391 z "
     id="path4624" />
</svg>
