<?xml version="1.0" encoding="UTF-8" standalone="no"?>
<svg
   xmlns:dc="http://purl.org/dc/elements/1.1/"
   xmlns:cc="http://creativecommons.org/ns#"
   xmlns:rdf="http://www.w3.org/1999/02/22-rdf-syntax-ns#"
   xmlns:svg="http://www.w3.org/2000/svg"
   xmlns="http://www.w3.org/2000/svg"
   xmlns:sodipodi="http://sodipodi.sourceforge.net/DTD/sodipodi-0.dtd"
   xmlns:inkscape="http://www.inkscape.org/namespaces/inkscape"
   height="32"
   width="32"
   version="1"
   id="svg31"
   sodipodi:docname="qtractor.svg"
   inkscape:version="0.92.1 r">
  <metadata
     id="metadata35">
    <rdf:RDF>
      <cc:Work
         rdf:about="">
        <dc:format>image/svg+xml</dc:format>
        <dc:type
           rdf:resource="http://purl.org/dc/dcmitype/StillImage" />
      </cc:Work>
    </rdf:RDF>
  </metadata>
  <sodipodi:namedview
     pagecolor="#ffffff"
     bordercolor="#666666"
     borderopacity="1"
     objecttolerance="10"
     gridtolerance="10"
     guidetolerance="10"
     inkscape:pageopacity="0"
     inkscape:pageshadow="2"
     inkscape:window-width="640"
     inkscape:window-height="480"
     id="namedview33"
     showgrid="false"
     inkscape:zoom="8.9375"
     inkscape:cx="-5.3706294"
     inkscape:cy="16"
     inkscape:current-layer="svg31" />
  <defs
     id="defs9">
    <radialGradient
       id="radialGradient3035"
       fx="143.62"
       fy="122.04"
       gradientUnits="userSpaceOnUse"
       cy="109.06"
       cx="198.31"
       gradientTransform="matrix(0.094477,-0.0081976,0.0097477,0.12744,4.0427,-1.167)"
       r="63.508">
      <stop
         stop-opacity=".667"
         stop-color="#1d1100"
         offset="0"
         id="stop2" />
      <stop
         stop-opacity=".302"
         stop-color="#4f340c"
         offset=".527"
         id="stop4" />
      <stop
         stop-opacity="0"
         stop-color="#3d3001"
         offset="1"
         id="stop6" />
    </radialGradient>
  </defs>
  <rect
     style="opacity:1;fill:#8f704f;fill-opacity:1;fill-rule:evenodd;stroke:none;stroke-width:1.03534329;stroke-linecap:round;stroke-linejoin:bevel;stroke-miterlimit:4;stroke-dasharray:none;stroke-dashoffset:0;stroke-opacity:1"
     id="rect4497-6"
     width="28.203388"
     height="28.203388"
     x="1.8983059"
     y="1.8983059"
     ry="5.575182" />
  <g
     id="g4524"
     transform="matrix(0.7762286,0,0,0.7762286,2.8041294,3.5806449)"
     style="stroke-width:1.28828025">
    <path
       id="path11"
       d="M 18.333,9 19,15.316 c 0,0 -4.4119,-0.53928 -6,0.63158 -1.498,1.104 -2,5.052 -2,5.052 H 9 c 0,0 0.12504,-4.4994 1.3333,-6.3158 1.7772,-2.6716 8,-5.6842 8,-5.6842 z"
       inkscape:connector-curvature="0"
       style="fill:#c6ae91;stroke-width:1.28828025" />
    <ellipse
       id="ellipse15"
       cx="19.899"
       cy="17.409"
       ry="8.5869999"
       transform="matrix(0.96315,-0.26898,0.24899,0.96851,0,0)"
       rx="6.3730001"
       style="fill:#d1bda5;stroke-width:1.28828025" />
    <path
       id="path17"
       d="m 18.793,4.5536 c -1.593,1.5982 -1.8103,6.0888 0.0937,10.762 1.8912,4.605 7.625,4.1582 9.052,2.5273 1.4398,-1.5624 3.4701,-5.4767 -0.25978,-11.081 -3.7043,-5.467 -7.2419,-3.8192 -8.8859,-2.209 z"
       style="fill:url(#radialGradient3035);fill-rule:evenodd;stroke-width:1.28828037pt"
       inkscape:connector-curvature="0" />
    <rect
       id="rect19"
       x="7"
       y="19"
       width="11"
       height="1"
       ry="1"
       rx="1.322"
       style="fill:#0b0b0b;stroke-width:1.28828025" />
    <path
       id="path21"
       d="m 5.3077,20 h 14.384 c 0.725,0 1.308,0.502 1.308,1.125 v 6.75 c 0,0.623 -0.583,1.125 -1.308,1.125 H 5.3077 c -0.7248,0 -1.308,-0.502 -1.308,-1.125 v -6.75 C 3.9997,20.502 4.5829,20 5.3074,20 Z"
       inkscape:connector-curvature="0"
       style="fill:#c6ae91;stroke-width:1.28828025" />
    <rect
       id="rect23"
       x="7"
       y="21"
       width="11"
       height="7"
       ry="0.875"
       rx="0.84600002"
       style="fill:#c69191;stroke-width:1.28828025" />
  </g>
</svg>
