<?xml version="1.0" encoding="UTF-8" standalone="no"?>
<svg
   xmlns:dc="http://purl.org/dc/elements/1.1/"
   xmlns:cc="http://creativecommons.org/ns#"
   xmlns:rdf="http://www.w3.org/1999/02/22-rdf-syntax-ns#"
   xmlns:svg="http://www.w3.org/2000/svg"
   xmlns="http://www.w3.org/2000/svg"
   xmlns:sodipodi="http://sodipodi.sourceforge.net/DTD/sodipodi-0.dtd"
   xmlns:inkscape="http://www.inkscape.org/namespaces/inkscape"
   height="32"
   width="32"
   version="1"
   id="svg16"
   sodipodi:docname="quadra.svg"
   inkscape:version="0.92.1 r">
  <metadata
     id="metadata22">
    <rdf:RDF>
      <cc:Work
         rdf:about="">
        <dc:format>image/svg+xml</dc:format>
        <dc:type
           rdf:resource="http://purl.org/dc/dcmitype/StillImage" />
        <dc:title></dc:title>
      </cc:Work>
    </rdf:RDF>
  </metadata>
  <defs
     id="defs20" />
  <sodipodi:namedview
     pagecolor="#ffffff"
     bordercolor="#666666"
     borderopacity="1"
     objecttolerance="10"
     gridtolerance="10"
     guidetolerance="10"
     inkscape:pageopacity="0"
     inkscape:pageshadow="2"
     inkscape:window-width="640"
     inkscape:window-height="480"
     id="namedview18"
     showgrid="false"
     inkscape:zoom="11.313709"
     inkscape:cx="-11.846164"
     inkscape:cy="16.295655"
     inkscape:current-layer="svg16"
     showguides="true"
     inkscape:guide-bbox="true" />
  <rect
     style="opacity:1;fill:#f2f2f2;fill-opacity:1;fill-rule:evenodd;stroke:none;stroke-width:1.03534329;stroke-linecap:round;stroke-linejoin:bevel;stroke-miterlimit:4;stroke-dasharray:none;stroke-dashoffset:0;stroke-opacity:1"
     id="rect4497-3"
     width="28.203388"
     height="28.203388"
     x="-30.115526"
     y="1.856993"
     ry="5.575182"
     transform="rotate(-90)" />
  <path
     style="opacity:1;fill:#fecd38;fill-opacity:1;fill-rule:evenodd;stroke:none;stroke-width:0.13500001;stroke-linecap:round;stroke-linejoin:bevel;stroke-miterlimit:4;stroke-dasharray:none;stroke-dashoffset:0;stroke-opacity:0"
     d="m 14.530468,1.9117269 -1.078125,0.404297 -3.345703,1.25586 1.253906,3.345703 3.345703,-1.253906 3.34375,-1.25586 3.345703,-1.253906 3.214844,-1.207031 c -0.06126,-0.002 -0.112071,-0.03516 -0.173828,-0.03516 z"
     id="path5033"
     inkscape:connector-curvature="0" />
  <path
     style="opacity:1;fill:#8ebcd3;fill-opacity:1;fill-rule:evenodd;stroke:none;stroke-width:0.13500001;stroke-linecap:round;stroke-linejoin:bevel;stroke-miterlimit:4;stroke-dasharray:none;stroke-dashoffset:0;stroke-opacity:0"
     d="m 13.579296,12.532821 3.382812,1.144531 3.384766,1.144531 3.384766,1.144531 1.144531,-3.384765 -3.384766,-1.144531 1.144531,-3.3847661 -3.384765,-1.146484 -1.144531,3.3867181 -3.382813,-1.1445311 z"
     id="path5036"
     inkscape:connector-curvature="0" />
  <path
     style="opacity:1;fill:#ce4e4f;fill-opacity:1;fill-rule:evenodd;stroke:none;stroke-width:0.13500001;stroke-linecap:round;stroke-linejoin:bevel;stroke-miterlimit:4;stroke-dasharray:none;stroke-dashoffset:0;stroke-opacity:0"
     d="M 3.9464832,6.4996179 6.1417957,9.3179769 8.335155,12.13829 11.153515,9.9449299 8.960155,7.1246179 6.7648426,4.3043049 Z"
     id="path5039"
     inkscape:connector-curvature="0" />
  <path
     style="opacity:1;fill:#ce4e4f;fill-opacity:1;fill-rule:evenodd;stroke:none;stroke-width:0.1;stroke-linecap:round;stroke-linejoin:bevel;stroke-miterlimit:4;stroke-dasharray:none;stroke-dashoffset:0;stroke-opacity:0.33333333"
     d="M 12.438671,30.200004 V 26.698051 H 8.866405 l -3.5722656,0 v 3.013672 c 0.6665436,0.284514 1.3752217,0.488281 2.1503906,0.488281 z"
     id="path5073"
     inkscape:connector-curvature="0" />
  <path
     style="opacity:1;fill:#30a446;fill-opacity:1;fill-rule:evenodd;stroke:none;stroke-width:0.1;stroke-linecap:round;stroke-linejoin:bevel;stroke-miterlimit:4;stroke-dasharray:none;stroke-dashoffset:0;stroke-opacity:0.33333333"
     d="M 16.010936,30.200004 V 26.698051 23.125786 H 12.438671 8.866405 v 3.572265 h 3.572266 v 3.501953 z"
     id="path5076"
     inkscape:connector-curvature="0" />
  <path
     style="opacity:1;fill:#ffb426;fill-opacity:1;fill-rule:evenodd;stroke:none;stroke-width:0.1;stroke-linecap:round;stroke-linejoin:bevel;stroke-miterlimit:4;stroke-dasharray:none;stroke-dashoffset:0;stroke-opacity:0.33333333"
     d="m 19.583202,30.200004 v -3.501953 -3.572265 -3.574219 h -3.572266 v 3.574219 3.572265 3.501953 z"
     id="path5079"
     inkscape:connector-curvature="0" />
  <path
     style="opacity:1;fill:#ce224f;fill-opacity:1;fill-rule:evenodd;stroke:none;stroke-width:0.1;stroke-linecap:round;stroke-linejoin:bevel;stroke-miterlimit:4;stroke-dasharray:none;stroke-dashoffset:0;stroke-opacity:0.33333333"
     d="m 26.727733,29.725395 v -3.027344 -3.574219 h -3.570312 -3.574219 v 0.002 3.572265 3.501953 h 4.916016 c 0.796066,0 1.544805,-0.17661 2.228515,-0.474609 z"
     id="path5087"
     inkscape:connector-curvature="0" />
  <path
     style="opacity:1;fill:#fecd38;fill-opacity:1;fill-rule:evenodd;stroke:none;stroke-width:0.1;stroke-linecap:round;stroke-linejoin:bevel;stroke-miterlimit:4;stroke-dasharray:none;stroke-dashoffset:0;stroke-opacity:0.33333333"
     d="m 30.073436,23.125786 h -3.34375 v 3.572265 3.025391 c 1.967632,-0.858784 3.343752,-2.806076 3.34375,-5.097656 z"
     id="path5090"
     inkscape:connector-curvature="0" />
  <path
     style="opacity:1;fill:#4d4d4d;fill-opacity:1;fill-rule:evenodd;stroke:none;stroke-width:0.1;stroke-linecap:round;stroke-linejoin:bevel;stroke-miterlimit:4;stroke-dasharray:none;stroke-dashoffset:0;stroke-opacity:0.33333333"
     d="m 26.729686,23.125786 h -0.002 v 3.572265 3.027344 c 0,0 0.002,-0.0019 0.002,-0.0019 v -3.025391 z"
     id="path5095"
     inkscape:connector-curvature="0" />
  <path
     style="opacity:1;fill:#0890d5;fill-opacity:1;fill-rule:evenodd;stroke:none;stroke-width:0.1;stroke-linecap:round;stroke-linejoin:bevel;stroke-miterlimit:4;stroke-dasharray:none;stroke-dashoffset:0;stroke-opacity:0.33333333"
     d="m 30.073436,15.977348 -3.34375,0 v 3.574219 h -3.572265 -3.574219 v 3.572265 h 3.574219 3.570312 v 0.002 h 0.002 3.34375 z"
     id="path5093"
     inkscape:connector-curvature="0" />
  <path
     style="opacity:1;fill:#30a4ee;fill-opacity:1;fill-rule:evenodd;stroke:none;stroke-width:0.1;stroke-linecap:round;stroke-linejoin:bevel;stroke-miterlimit:4;stroke-dasharray:none;stroke-dashoffset:0;stroke-opacity:0.33333333"
     d="M 5.2941394,29.711723 V 26.698051 H 2.28828 c 0.5504613,1.375911 1.6495603,2.434736 3.0058594,3.013672 z"
     id="path5067"
     inkscape:connector-curvature="0" />
  <path
     style="opacity:1;fill:#ce4e4f;fill-opacity:1;fill-rule:evenodd;stroke:none;stroke-width:0.1;stroke-linecap:round;stroke-linejoin:bevel;stroke-miterlimit:4;stroke-dasharray:none;stroke-dashoffset:0;stroke-opacity:0.33333333"
     d="m 2.28828,26.698051 h 3.0058594 l 3.5722656,0 V 23.125786 H 5.2941394 V 19.551567 H 1.8703113 l 0,5.074219 c 0,0.736149 0.1610657,1.430121 0.4179687,2.072265 z"
     id="rect4497-3-6"
     inkscape:connector-curvature="0" />
  <polygon
     points="713 603 688.5 578 676.5 569.5 693.5 560.5 693.5 540 732.5 497.5 664 430.5 588 333 517.5 214 500 192 386 355 328 328 304 332.5 299.5 366 318.5 403.5 338 431 309.5 462 275.5 507 300 533 304 551 318.5 569.5 340.5 583 351.5 604.5 373.5 617 395 637.5 452.5 723 488.5 788.5 502 812.5 551.5 721.5 612.5 637 628.5 616 668 619.5 707 615"
     fill="#5a0e00"
     transform="matrix(.063142 0 0 .063142 -131 -24.03)"
     display="none"
     id="polygon2" />
</svg>
