<?xml version="1.0" encoding="UTF-8" standalone="no"?>
<svg
   xmlns:dc="http://purl.org/dc/elements/1.1/"
   xmlns:cc="http://creativecommons.org/ns#"
   xmlns:rdf="http://www.w3.org/1999/02/22-rdf-syntax-ns#"
   xmlns:svg="http://www.w3.org/2000/svg"
   xmlns="http://www.w3.org/2000/svg"
   xmlns:sodipodi="http://sodipodi.sourceforge.net/DTD/sodipodi-0.dtd"
   xmlns:inkscape="http://www.inkscape.org/namespaces/inkscape"
   height="32"
   width="32"
   version="1"
   id="svg14"
   sodipodi:docname="qupzilla.svg"
   inkscape:version="0.92.1 r">
  <metadata
     id="metadata20">
    <rdf:RDF>
      <cc:Work
         rdf:about="">
        <dc:format>image/svg+xml</dc:format>
        <dc:type
           rdf:resource="http://purl.org/dc/dcmitype/StillImage" />
      </cc:Work>
    </rdf:RDF>
  </metadata>
  <defs
     id="defs18" />
  <sodipodi:namedview
     pagecolor="#ffffff"
     bordercolor="#666666"
     borderopacity="1"
     objecttolerance="10"
     gridtolerance="10"
     guidetolerance="10"
     inkscape:pageopacity="0"
     inkscape:pageshadow="2"
     inkscape:window-width="640"
     inkscape:window-height="480"
     id="namedview16"
     showgrid="false"
     inkscape:zoom="6.319767"
     inkscape:cx="-46.714601"
     inkscape:cy="13.124332"
     inkscape:current-layer="svg14" />
  <g
     id="g4528"
     transform="translate(47.804687,-2.9453125)">
    <path
       id="path4520"
       d="m -45.90625,26.367188 c 1.554443,-1.72673 3.121144,-3.254516 4.707031,-4.5 1.701618,-1.336375 3.421989,-2.408458 5.164063,-3.244141 1.742073,-0.835683 3.506034,-1.435947 5.292968,-1.826172 1.786935,-0.390225 3.597394,-0.570313 5.433594,-0.570313 1.008984,0 2.28088,0.452782 3.304688,0.550782 -1.636637,-0.7199 -4.593776,-2.372511 -8.00586,-3.845703 -1.706041,-0.736597 -3.525318,-1.428094 -5.349609,-1.935547 -1.824291,-0.507454 -3.65344,-0.832032 -5.378906,-0.832032 -0.964183,1e-6 -1.886396,0.0319 -2.794922,0.185547 -0.793665,0.134223 -1.579388,0.422418 -2.373047,0.802735 z"
       style="opacity:1;fill:#ffffff;fill-opacity:1;fill-rule:evenodd;stroke:none;stroke-width:1.03534329;stroke-linecap:round;stroke-linejoin:bevel;stroke-miterlimit:4;stroke-dasharray:none;stroke-dashoffset:0;stroke-opacity:1"
       inkscape:connector-curvature="0" />
    <path
       id="path4523"
       d="m -34.126953,20.083984 c -0.840994,0.05825 -1.650383,0.243839 -2.431641,0.527344 -0.781258,0.283506 -1.534218,0.663756 -2.263672,1.115234 -1.458906,0.902958 -2.821814,2.085238 -4.121093,3.316407 1.557228,-0.616962 3.021852,-1.003386 4.402343,-1.138672 1.380491,-0.135286 2.676226,-0.01965 3.896485,0.367187 0.421779,0.133735 1.682357,0.698068 2.800781,1.253907 1.418307,0.70491 2.478069,1.178763 3.429688,1.507812 0.951618,0.32905 1.795079,0.512646 2.78125,0.638672 1.177936,0.119789 2.332561,0.03223 3.482421,-0.164063 1.149861,-0.196291 2.294035,-0.501473 3.453125,-0.8125 l -2.662109,-0.943359 c -1.242079,-0.530116 -2.748468,-1.336044 -4.896484,-2.578125 -1.454236,-0.784704 -2.717878,-1.606243 -3.970703,-2.207031 -0.626413,-0.300394 -1.250082,-0.545162 -1.892579,-0.703125 -0.642497,-0.157964 -1.30494,-0.228456 -2.007812,-0.179688 z"
       style="opacity:1;fill:#7ed1f3;fill-opacity:1;fill-rule:evenodd;stroke:none;stroke-width:1.03534329;stroke-linecap:round;stroke-linejoin:bevel;stroke-miterlimit:4;stroke-dasharray:none;stroke-dashoffset:0;stroke-opacity:1"
       inkscape:connector-curvature="0" />
    <path
       id="rect4497-3-3"
       d="m -40.332031,4.84375 c -3.088651,0 -5.574219,2.487521 -5.574219,5.576172 v 0.732422 c 0.793659,-0.380317 1.579382,-0.668512 2.373047,-0.802735 0.908526,-0.153648 1.830739,-0.185545 2.794922,-0.185547 1.725466,0 3.554615,0.324578 5.378906,0.832032 1.824291,0.507453 3.643568,1.19895 5.349609,1.935547 3.412084,1.473192 6.369223,3.125803 8.00586,3.845703 -1.023808,-0.098 -2.295704,-0.550782 -3.304688,-0.550782 -1.8362,0 -3.646658,0.180088 -5.433594,0.570313 -1.786934,0.390225 -3.550895,0.990489 -5.292968,1.826172 -1.742074,0.835683 -3.462445,1.907765 -5.164063,3.244141 -1.585887,1.245484 -3.152588,2.77327 -4.707031,4.5 v 1.105468 c 0,3.088651 2.485568,5.574219 5.574219,5.574219 h 17.052734 c 3.088651,0 5.576172,-2.485568 5.576172,-5.574219 V 10.419922 c 0,-3.088651 -2.487521,-5.576172 -5.576172,-5.576172 z m 6.205078,15.240234 c 0.702872,-0.04877 1.365315,0.02172 2.007812,0.179688 0.642497,0.157963 1.266166,0.402731 1.892579,0.703125 1.252825,0.600788 2.516467,1.422327 3.970703,2.207031 2.148016,1.242081 3.654405,2.048009 4.896484,2.578125 l 2.662109,0.943359 c -1.15909,0.311027 -2.303264,0.616209 -3.453125,0.8125 -1.14986,0.196292 -2.304485,0.283852 -3.482421,0.164063 -0.986171,-0.126026 -1.829632,-0.309622 -2.78125,-0.638672 -0.951619,-0.329049 -2.011381,-0.802902 -3.429688,-1.507812 -1.118424,-0.555839 -2.379002,-1.120172 -2.800781,-1.253907 -1.220259,-0.386835 -2.515994,-0.502473 -3.896485,-0.367187 -1.380491,0.135286 -2.845115,0.52171 -4.402343,1.138672 1.299279,-1.231169 2.662187,-2.413449 4.121093,-3.316407 0.729454,-0.451478 1.482414,-0.831728 2.263672,-1.115234 0.781258,-0.283505 1.590647,-0.469092 2.431641,-0.527344 z"
       style="opacity:1;fill:#0286c2;fill-opacity:1;fill-rule:evenodd;stroke:none;stroke-width:1.03534329;stroke-linecap:round;stroke-linejoin:bevel;stroke-miterlimit:4;stroke-dasharray:none;stroke-dashoffset:0;stroke-opacity:1"
       inkscape:connector-curvature="0" />
  </g>
</svg>
