<?xml version="1.0" encoding="UTF-8" standalone="no"?>
<svg
   xmlns:dc="http://purl.org/dc/elements/1.1/"
   xmlns:cc="http://creativecommons.org/ns#"
   xmlns:rdf="http://www.w3.org/1999/02/22-rdf-syntax-ns#"
   xmlns:svg="http://www.w3.org/2000/svg"
   xmlns="http://www.w3.org/2000/svg"
   xmlns:sodipodi="http://sodipodi.sourceforge.net/DTD/sodipodi-0.dtd"
   xmlns:inkscape="http://www.inkscape.org/namespaces/inkscape"
   height="32"
   width="32"
   version="1"
   id="svg12"
   sodipodi:docname="radiotunes.svg"
   inkscape:version="0.92.1 r">
  <metadata
     id="metadata18">
    <rdf:RDF>
      <cc:Work
         rdf:about="">
        <dc:format>image/svg+xml</dc:format>
        <dc:type
           rdf:resource="http://purl.org/dc/dcmitype/StillImage" />
      </cc:Work>
    </rdf:RDF>
  </metadata>
  <defs
     id="defs16" />
  <sodipodi:namedview
     pagecolor="#ffffff"
     bordercolor="#666666"
     borderopacity="1"
     objecttolerance="10"
     gridtolerance="10"
     guidetolerance="10"
     inkscape:pageopacity="0"
     inkscape:pageshadow="2"
     inkscape:window-width="640"
     inkscape:window-height="480"
     id="namedview14"
     showgrid="false"
     inkscape:zoom="8.9375"
     inkscape:cx="-5.3706294"
     inkscape:cy="16"
     inkscape:current-layer="svg12" />
  <rect
     style="opacity:1;fill:#2095f2;fill-opacity:1;fill-rule:evenodd;stroke:none;stroke-width:1.03534329;stroke-linecap:round;stroke-linejoin:bevel;stroke-miterlimit:4;stroke-dasharray:none;stroke-dashoffset:0;stroke-opacity:1"
     id="rect4497-6"
     width="28.203388"
     height="28.203388"
     x="1.8983059"
     y="1.8983059"
     ry="5.575182" />
  <path
     d="m 9.9099061,26.400739 c -2.9431,-0.978 -3.884,-3.665 -1.7486,-4.992 0.71655,-0.44551 2.2251999,-0.44118 3.1986999,0.0092 0.39528,0.18287 0.77772,0.27229 0.84986,0.19872 0.17472,-0.17816 0.50207,-1.9787 1.2783,-7.0309 0.66934,-4.356701 0.7731,-5.8524008 0.46792,-6.7451008 -0.13589,-0.3975 -0.13126,-0.58481 0.01904,-0.76945 0.49933,-0.61352 4.879,-1.5732 7.1701,-1.5712 1.8861,0.00168 2.9125,0.53839 3.5796,1.8719 1.1355,2.2698 -1.3437,6.1698008 -5.5925,8.7976008 l -0.44799,0.27707 0.34648,0.69985 c 0.67535,1.3642 2.0518,3.3743 2.8796,4.2052 0.46155,0.46329 0.83919,0.92689 0.83919,1.0302 0,0.11414 -0.30877,0.18788 -0.78668,0.18788 -1.5413,0 -3.132,-1.1519 -5.2602,-3.8091 -0.3273,-0.40866 -0.63289,-0.70449 -0.67908,-0.65739 -0.04618,0.0471 -0.30614,1.2391 -0.57766,2.649 -0.62715,3.2564 -1.1801,4.4855 -2.3433,5.2083 -0.61068,0.37952 -1.0151,0.50008 -1.7878,0.53297 -0.54923,0.02338 -1.1814,-0.01827 -1.4048999,-0.09256 z m 8.6950999,-13.367 c 1.2516,-0.905821 2.3237,-1.964501 2.9909,-2.953401 0.42726,-0.6332398 0.59632,-0.7650598 0.88171,-0.6874498 0.24461,0.066514 0.20329,0.00623 -0.13449,-0.19631 -0.83658,-0.50156 -4.4785,-0.24767 -4.9331,0.34391 -0.17541,0.22826 -0.83499,4.4430008 -0.72416,4.6273008 0.0874,0.14536 0.43558,-0.0604 1.9191,-1.1341 z"
     id="path10"
     inkscape:connector-curvature="0"
     style="fill:#ffffff" />
</svg>
