<?xml version="1.0" encoding="UTF-8" standalone="no"?>
<svg
   xmlns:dc="http://purl.org/dc/elements/1.1/"
   xmlns:cc="http://creativecommons.org/ns#"
   xmlns:rdf="http://www.w3.org/1999/02/22-rdf-syntax-ns#"
   xmlns:svg="http://www.w3.org/2000/svg"
   xmlns="http://www.w3.org/2000/svg"
   xmlns:sodipodi="http://sodipodi.sourceforge.net/DTD/sodipodi-0.dtd"
   xmlns:inkscape="http://www.inkscape.org/namespaces/inkscape"
   height="32"
   width="32"
   version="1"
   id="svg26"
   sodipodi:docname="rakarrack.svg"
   inkscape:version="0.92.1 r">
  <metadata
     id="metadata32">
    <rdf:RDF>
      <cc:Work
         rdf:about="">
        <dc:format>image/svg+xml</dc:format>
        <dc:type
           rdf:resource="http://purl.org/dc/dcmitype/StillImage" />
      </cc:Work>
    </rdf:RDF>
  </metadata>
  <defs
     id="defs30" />
  <sodipodi:namedview
     pagecolor="#ffffff"
     bordercolor="#666666"
     borderopacity="1"
     objecttolerance="10"
     gridtolerance="10"
     guidetolerance="10"
     inkscape:pageopacity="0"
     inkscape:pageshadow="2"
     inkscape:window-width="640"
     inkscape:window-height="480"
     id="namedview28"
     showgrid="false"
     inkscape:zoom="8.9375"
     inkscape:cx="-5.3706294"
     inkscape:cy="16"
     inkscape:current-layer="svg26" />
  <rect
     style="opacity:1;fill:#cd8652;fill-opacity:1;fill-rule:evenodd;stroke:none;stroke-width:1.03534329;stroke-linecap:round;stroke-linejoin:bevel;stroke-miterlimit:4;stroke-dasharray:none;stroke-dashoffset:0;stroke-opacity:1"
     id="rect4497-6"
     width="28.203388"
     height="28.203388"
     x="1.8983059"
     y="1.8983059"
     ry="5.575182" />
  <g
     transform="matrix(0.04573044,0,0,0.04449797,4.9540947,5.2518145)"
     id="g8"
     style="fill:#ffffff;stroke-width:1.39556932">
    <g
       id="g6"
       style="fill:#ffffff;stroke-width:1.39556932">
      <g
         id="g4"
         style="fill:#ffffff;stroke-width:1.39556932">
        <path
           d="m 377.6,125.4 c 8.051,-7.326 18.943,-9.081 27.078,-4.883 l 1.56,-1.553 c 4.904,-12.028 13.757,-25.333 26.031,-37.604 12.283,-12.276 25.584,-21.135 37.606,-26.042 0,0 2.368,-2.369 5.298,-5.298 2.925,-2.93 1.154,-9.438 -3.96,-14.547 L 441.133,5.39 c -5.1,-5.109 -11.59,-6.906 -14.48,-4.015 l -5.238,5.236 c -4.889,12.062 -13.773,25.441 -26.116,37.784 -12.331,12.331 -25.708,21.219 -37.782,26.115 l -1.082,1.078 c 5.178,8.233 3.574,19.979 -4.168,28.487 l -80.781,80.303 c -3.494,-0.226 -9.117,-3.047 -16.635,-14.697 -13.442,-20.827 -44.812,-32.687 -70.648,12.13 -25.836,44.817 -4.408,52.227 -77.991,60.774 l 0.016,0.024 c -25.982,1.429 -50.592,11.36 -69.375,30.136 -44.54,44.544 -39.464,121.84 11.34,172.66 50.806,50.806 128.11,55.879 172.65,11.328 0.797,-0.797 1.557,-1.639 2.324,-2.46 l 0.014,0.032 c 0,0 0.293,-0.316 0.775,-0.866 3.573,-3.903 6.777,-8.026 9.636,-12.343 11.461,-16.27 27.822,-45.524 24.159,-76.081 -5.538,-46.129 37.694,-44.021 55.619,-55.623 17.921,-11.598 24.249,-21.607 24.77,-33.218 0,0 -21.352,15.028 -40.855,-4.476 -15.677,-15.678 -8.708,-42.391 -1.947,-56.529 l 82.25,-85.77 z"
           id="path2"
           inkscape:connector-curvature="0"
           style="fill:#ffffff;stroke-width:1.39556932" />
      </g>
    </g>
  </g>
</svg>
