<?xml version="1.0" encoding="UTF-8" standalone="no"?>
<svg
   xmlns:dc="http://purl.org/dc/elements/1.1/"
   xmlns:cc="http://creativecommons.org/ns#"
   xmlns:rdf="http://www.w3.org/1999/02/22-rdf-syntax-ns#"
   xmlns:svg="http://www.w3.org/2000/svg"
   xmlns="http://www.w3.org/2000/svg"
   xmlns:sodipodi="http://sodipodi.sourceforge.net/DTD/sodipodi-0.dtd"
   xmlns:inkscape="http://www.inkscape.org/namespaces/inkscape"
   height="32"
   viewBox="0 0 32 32"
   width="32"
   version="1.1"
   id="svg12"
   sodipodi:docname="rapidsvn.svg"
   inkscape:version="0.92.1 r">
  <metadata
     id="metadata18">
    <rdf:RDF>
      <cc:Work
         rdf:about="">
        <dc:format>image/svg+xml</dc:format>
        <dc:type
           rdf:resource="http://purl.org/dc/dcmitype/StillImage" />
      </cc:Work>
    </rdf:RDF>
  </metadata>
  <defs
     id="defs16" />
  <sodipodi:namedview
     pagecolor="#ffffff"
     bordercolor="#666666"
     borderopacity="1"
     objecttolerance="10"
     gridtolerance="10"
     guidetolerance="10"
     inkscape:pageopacity="0"
     inkscape:pageshadow="2"
     inkscape:window-width="640"
     inkscape:window-height="480"
     id="namedview14"
     showgrid="false"
     inkscape:zoom="8.9375"
     inkscape:cx="2.8816465"
     inkscape:cy="17.615777"
     inkscape:current-layer="svg12" />
  <path
     style="opacity:1;fill:#cccccc;fill-opacity:1;fill-rule:evenodd;stroke:none;stroke-width:1.03534329;stroke-linecap:round;stroke-linejoin:bevel;stroke-miterlimit:4;stroke-dasharray:none;stroke-dashoffset:0;stroke-opacity:1"
     d="M 15.701172 20.462891 C 14.444362 20.462891 13.222671 20.714027 12.314453 21.189453 C 11.860344 21.427166 11.484687 21.721754 11.222656 22.068359 C 10.960625 22.414965 10.8125 22.812863 10.8125 23.261719 C 10.8125 23.710575 11.037429 24.219189 11.414062 24.728516 C 11.790696 25.237842 12.31887 25.748451 12.925781 26.203125 C 13.532693 26.657799 14.217368 27.056898 14.908203 27.341797 C 15.599039 27.626695 16.295423 27.796875 16.923828 27.796875 C 17.427153 27.796875 17.909477 27.580928 18.347656 27.238281 C 18.785835 26.895634 19.181095 26.426378 19.513672 25.919922 C 20.178825 24.90701 20.591797 23.745506 20.591797 23.150391 C 20.591797 22.832482 20.443672 22.506898 20.181641 22.195312 C 19.919609 21.883727 19.543953 21.586571 19.089844 21.330078 C 18.181626 20.817093 16.957981 20.462891 15.701172 20.462891 z "
     id="path4508" />
  <path
     style="opacity:1;fill:#cccccc;fill-opacity:1;fill-rule:evenodd;stroke:none;stroke-width:1.03534329;stroke-linecap:round;stroke-linejoin:bevel;stroke-miterlimit:4;stroke-dasharray:none;stroke-dashoffset:0;stroke-opacity:1"
     d="M 24.259766 11.933594 C 23.584642 11.933594 22.971726 12.137369 22.529297 12.466797 C 22.086867 12.796224 21.814453 13.251217 21.814453 13.753906 C 21.814453 14.256596 22.086867 14.711588 22.529297 15.041016 C 22.971727 15.370444 23.584642 15.574219 24.259766 15.574219 C 24.934891 15.574219 25.545851 15.370443 25.988281 15.041016 C 26.430711 14.711588 26.703125 14.256596 26.703125 13.753906 C 26.703125 13.251217 26.430711 12.796224 25.988281 12.466797 C 25.545851 12.137369 24.934891 11.933594 24.259766 11.933594 z "
     id="path4506" />
  <path
     style="opacity:1;fill:#4f4f4f;fill-opacity:1;fill-rule:evenodd;stroke:none;stroke-width:1.03534329;stroke-linecap:round;stroke-linejoin:bevel;stroke-miterlimit:4;stroke-dasharray:none;stroke-dashoffset:0;stroke-opacity:1"
     d="M 29.033203 4.3613281 C 28.718208 4.6253721 27.813219 5.4159166 25.816406 6.6914062 C 24.666078 7.4261931 23.291971 8.224933 21.759766 8.9667969 C 20.227561 9.7086608 18.537177 10.393614 16.751953 10.902344 C 16.622629 11.394596 16.41095 12.009513 16.091797 12.654297 C 15.772644 13.299081 15.34487 13.974305 14.783203 14.587891 C 14.221536 15.201476 13.526788 15.753686 12.669922 16.152344 C 11.813056 16.551001 10.794593 16.796875 9.5898438 16.796875 C 8.8783273 16.796875 8.2337779 16.71376 7.6503906 16.566406 C 7.0670033 16.419053 6.5441836 16.206248 6.0761719 15.945312 C 5.1401483 15.423442 4.4221363 14.709111 3.8710938 13.935547 C 3.3200512 13.161983 2.9360587 12.3293 2.6679688 11.574219 C 2.3998788 10.819138 2.2473219 10.140249 2.1601562 9.6738281 C 2.0414799 9.5884623 2.0178773 9.5438323 1.8984375 9.4394531 L 1.8984375 24.527344 C 1.8984375 27.615995 4.3840054 30.101562 7.4726562 30.101562 L 24.527344 30.101562 C 27.615995 30.101563 30.101562 27.615995 30.101562 24.527344 L 30.101562 7.4726562 C 30.101563 6.2917818 29.654822 5.2608616 29.033203 4.3613281 z M 24.259766 11.933594 C 24.934891 11.933594 25.545851 12.137369 25.988281 12.466797 C 26.430711 12.796224 26.703125 13.251217 26.703125 13.753906 C 26.703125 14.256596 26.430711 14.711588 25.988281 15.041016 C 25.545851 15.370443 24.934891 15.574219 24.259766 15.574219 C 23.584642 15.574219 22.971727 15.370444 22.529297 15.041016 C 22.086867 14.711588 21.814453 14.256596 21.814453 13.753906 C 21.814453 13.251217 22.086867 12.796224 22.529297 12.466797 C 22.971726 12.137369 23.584642 11.933594 24.259766 11.933594 z M 15.701172 20.462891 C 16.957981 20.462891 18.181626 20.817093 19.089844 21.330078 C 19.543953 21.586571 19.919609 21.883727 20.181641 22.195312 C 20.443672 22.506898 20.591797 22.832482 20.591797 23.150391 C 20.591797 23.745506 20.178825 24.90701 19.513672 25.919922 C 19.181095 26.426378 18.785835 26.895634 18.347656 27.238281 C 17.909477 27.580928 17.427153 27.796875 16.923828 27.796875 C 16.295423 27.796875 15.599039 27.626695 14.908203 27.341797 C 14.217368 27.056898 13.532693 26.657799 12.925781 26.203125 C 12.31887 25.748451 11.790696 25.237842 11.414062 24.728516 C 11.037429 24.219189 10.8125 23.710575 10.8125 23.261719 C 10.8125 22.812863 10.960625 22.414965 11.222656 22.068359 C 11.484687 21.721754 11.860344 21.427166 12.314453 21.189453 C 13.222671 20.714027 14.444362 20.462891 15.701172 20.462891 z "
     id="path4504" />
  <path
     style="opacity:1;fill:#cccccc;fill-opacity:1;fill-rule:evenodd;stroke:none;stroke-width:1.03534329;stroke-linecap:round;stroke-linejoin:bevel;stroke-miterlimit:4;stroke-dasharray:none;stroke-dashoffset:0;stroke-opacity:1"
     d="M 28.228516 3.3632812 C 27.950222 3.5980904 26.268023 5.0511202 23.167969 6.7753906 C 21.497565 7.7044802 19.519594 8.6435965 17.345703 9.3691406 C 16.258758 9.7319127 15.122524 10.041157 13.951172 10.269531 C 12.77982 10.497906 11.57382 10.645291 10.345703 10.683594 C 8.9984543 10.72557 7.8326349 10.57708 6.8378906 10.339844 C 5.8431464 10.102608 5.0194469 9.7763912 4.3574219 9.4609375 C 3.0906926 8.8573249 1.9994773 7.7873396 1.8984375 7.6894531 L 1.8984375 9.4394531 C 2.0178773 9.5438323 2.0414799 9.5884623 2.1601562 9.6738281 C 2.2473219 10.140249 2.3998788 10.819138 2.6679688 11.574219 C 2.9360587 12.3293 3.3200512 13.161983 3.8710938 13.935547 C 4.4221363 14.709111 5.1401483 15.423442 6.0761719 15.945312 C 6.5441836 16.206248 7.0670033 16.419053 7.6503906 16.566406 C 8.2337779 16.71376 8.8783273 16.796875 9.5898438 16.796875 C 10.794593 16.796875 11.813056 16.551001 12.669922 16.152344 C 13.526788 15.753686 14.221536 15.201476 14.783203 14.587891 C 15.34487 13.974305 15.772644 13.299081 16.091797 12.654297 C 16.41095 12.009513 16.622629 11.394596 16.751953 10.902344 C 18.537177 10.393614 20.227561 9.7086608 21.759766 8.9667969 C 23.291971 8.224933 24.666078 7.4261931 25.816406 6.6914062 C 27.813219 5.4159166 28.718208 4.6253721 29.033203 4.3613281 C 28.785876 4.0034257 28.550943 3.6533413 28.228516 3.3632812 z "
     id="path4502" />
  <path
     style="opacity:1;fill:#4f4f4f;fill-opacity:1;fill-rule:evenodd;stroke:none;stroke-width:1.03534329;stroke-linecap:round;stroke-linejoin:bevel;stroke-miterlimit:4;stroke-dasharray:none;stroke-dashoffset:0;stroke-opacity:1"
     d="M 7.4726562 1.8984375 C 4.3840054 1.8984375 1.8984375 4.3840054 1.8984375 7.4726562 L 1.8984375 7.6894531 C 1.9994773 7.7873396 3.0906926 8.8573249 4.3574219 9.4609375 C 5.0194469 9.7763912 5.8431464 10.102608 6.8378906 10.339844 C 7.8326349 10.57708 8.9984543 10.72557 10.345703 10.683594 C 11.57382 10.645291 12.77982 10.497906 13.951172 10.269531 C 15.122524 10.041157 16.258758 9.7319127 17.345703 9.3691406 C 19.519594 8.6435965 21.497565 7.7044802 23.167969 6.7753906 C 26.268023 5.0511202 27.950222 3.5980904 28.228516 3.3632812 C 27.241734 2.4755609 25.965279 1.8984375 24.527344 1.8984375 L 7.4726562 1.8984375 z "
     id="rect4497-3" />
</svg>
