<?xml version="1.0" encoding="UTF-8" standalone="no"?>
<svg
   xmlns:dc="http://purl.org/dc/elements/1.1/"
   xmlns:cc="http://creativecommons.org/ns#"
   xmlns:rdf="http://www.w3.org/1999/02/22-rdf-syntax-ns#"
   xmlns:svg="http://www.w3.org/2000/svg"
   xmlns="http://www.w3.org/2000/svg"
   xmlns:sodipodi="http://sodipodi.sourceforge.net/DTD/sodipodi-0.dtd"
   xmlns:inkscape="http://www.inkscape.org/namespaces/inkscape"
   width="32"
   height="32"
   version="1"
   id="svg14"
   sodipodi:docname="redshiftgui.svg"
   inkscape:version="0.92.1 r">
  <metadata
     id="metadata20">
    <rdf:RDF>
      <cc:Work
         rdf:about="">
        <dc:format>image/svg+xml</dc:format>
        <dc:type
           rdf:resource="http://purl.org/dc/dcmitype/StillImage" />
      </cc:Work>
    </rdf:RDF>
  </metadata>
  <defs
     id="defs18" />
  <sodipodi:namedview
     pagecolor="#ffffff"
     bordercolor="#666666"
     borderopacity="1"
     objecttolerance="10"
     gridtolerance="10"
     guidetolerance="10"
     inkscape:pageopacity="0"
     inkscape:pageshadow="2"
     inkscape:window-width="640"
     inkscape:window-height="480"
     id="namedview16"
     showgrid="false"
     inkscape:zoom="8.9375"
     inkscape:cx="-5.3706294"
     inkscape:cy="16"
     inkscape:current-layer="svg14" />
  <rect
     style="opacity:1;fill:#e74c3c;fill-opacity:1;fill-rule:evenodd;stroke:none;stroke-width:1.03534329;stroke-linecap:round;stroke-linejoin:bevel;stroke-miterlimit:4;stroke-dasharray:none;stroke-dashoffset:0;stroke-opacity:1"
     id="rect4497-3"
     width="28.203388"
     height="28.203388"
     x="1.8983059"
     y="1.8983059"
     ry="5.575182" />
  <g
     id="g4506"
     transform="matrix(0.7235673,0,0,0.7235673,4.7847793,4.4229232)"
     style="stroke-width:1.38204145">
    <path
       style="fill:#ffffff;stroke-width:1.38204145"
       id="path2"
       d="m 15.5,3 c -4.694,0 -8.4999,3.8133 -8.4999,8.517 -0.0174,2.551 2.235,4.78 3.2689,7.207 C 10.73,19.806 11.577,22 11.577,22 h 7.8461 c 0,0 0.84678,-2.1943 1.3077,-3.2759 1.034,-2.427 3.224,-4.684 3.269,-7.207 0,-4.7037 -3.806,-8.517 -8.5,-8.517 z"
       inkscape:connector-curvature="0" />
    <path
       id="path4"
       d="m 19.423,22 -1.308,5.7 C 17.954,28.402 17.532,29 16.808,29 h -2.6154 c -0.72446,0 -1.1559,-0.59578 -1.3077,-1.3 L 11.5769,22 Z"
       inkscape:connector-curvature="0"
       style="fill:#4f4f4f;stroke-width:1.38204145" />
    <path
       id="path6"
       d="m 11.834,23 0.223,1 h 6.886 l 0.223,-1 z m 0.447,2 0.223,1 h 5.992 l 0.223,-1 z m 0.448,2 0.156,0.699 c 0.023,0.106 0.064,0.202 0.099,0.301 h 5.03 c 0.036,-0.099 0.078,-0.195 0.101,-0.301 L 18.271,27 Z"
       inkscape:connector-curvature="0"
       style="opacity:0.2;fill:#ffffff;stroke-width:1.38204145" />
  </g>
</svg>
