<?xml version="1.0" encoding="UTF-8" standalone="no"?>
<svg
   xmlns:dc="http://purl.org/dc/elements/1.1/"
   xmlns:cc="http://creativecommons.org/ns#"
   xmlns:rdf="http://www.w3.org/1999/02/22-rdf-syntax-ns#"
   xmlns:svg="http://www.w3.org/2000/svg"
   xmlns="http://www.w3.org/2000/svg"
   xmlns:sodipodi="http://sodipodi.sourceforge.net/DTD/sodipodi-0.dtd"
   xmlns:inkscape="http://www.inkscape.org/namespaces/inkscape"
   width="32"
   height="32"
   version="1"
   id="svg28"
   sodipodi:docname="rider.svg"
   inkscape:version="0.92.1 r">
  <metadata
     id="metadata34">
    <rdf:RDF>
      <cc:Work
         rdf:about="">
        <dc:format>image/svg+xml</dc:format>
        <dc:type
           rdf:resource="http://purl.org/dc/dcmitype/StillImage" />
      </cc:Work>
    </rdf:RDF>
  </metadata>
  <defs
     id="defs32" />
  <sodipodi:namedview
     pagecolor="#ffffff"
     bordercolor="#666666"
     borderopacity="1"
     objecttolerance="10"
     gridtolerance="10"
     guidetolerance="10"
     inkscape:pageopacity="0"
     inkscape:pageshadow="2"
     inkscape:window-width="1680"
     inkscape:window-height="963"
     id="namedview30"
     showgrid="false"
     inkscape:zoom="7.375"
     inkscape:cx="16"
     inkscape:cy="16"
     inkscape:window-x="0"
     inkscape:window-y="0"
     inkscape:window-maximized="1"
     inkscape:current-layer="svg28" />
  <path
     style="fill:#2086e7;fill-opacity:1;stroke-width:0.69999999"
     d="M 30.000001,6.96875 C 29.945867,6.390208 29.880209,5.811553 29.664064,5.298828 29.382691,4.631374 28.974561,4.0312 28.470704,3.527343 27.966847,3.023486 27.366674,2.615356 26.69922,2.333984 26.187674,2.118336 25.610295,2.054412 25.033204,2 H 16 v 14 h 14.000001 z"
     id="path6-2"
     inkscape:connector-curvature="0" />
  <path
     style="fill:#c72566;fill-opacity:1;stroke-width:0.69999999"
     d="M 6.964844,2 C 6.387754,2.05441 5.810374,2.118337 5.298828,2.333985 4.631374,2.615357 4.031201,3.023487 3.527345,3.527344 3.023488,4.031201 2.615358,4.631375 2.333986,5.298829 2.118338,5.810374 2.054413,6.387754 2.000001,6.964844 V 16 H 16 V 2 Z"
     id="path4-8"
     inkscape:connector-curvature="0" />
  <path
     style="fill:#c72566;fill-opacity:1;stroke-width:0.69999999"
     d="m 25.035157,30 c 0.577089,-0.05441 1.154471,-0.118337 1.666017,-0.333985 0.667454,-0.281372 1.267627,-0.689502 1.771483,-1.193359 0.503857,-0.503857 0.911987,-1.104031 1.193359,-1.771485 0.215647,-0.511545 0.279573,-1.088925 0.333985,-1.666015 V 16 h -14 v 14 z"
     id="path4-8-7"
     inkscape:connector-curvature="0" />
  <path
     style="fill:#ff8c2a;fill-opacity:1;stroke-width:0.69999999"
     d="m 2,25.03125 c 0.05413,0.578542 0.119792,1.157197 0.335937,1.669922 0.281373,0.667454 0.689503,1.267628 1.19336,1.771485 0.503857,0.503857 1.10403,0.911987 1.771484,1.193359 C 5.812327,29.881664 6.389707,29.945588 6.966798,30 h 9.033203 V 16 H 2 Z"
     id="path6-2-8"
     inkscape:connector-curvature="0" />
  <rect
     style="opacity:1;fill:#3f3f3f;fill-opacity:1;fill-rule:evenodd;stroke:none;stroke-width:0.78646272;stroke-linecap:round;stroke-linejoin:bevel;stroke-miterlimit:4;stroke-dasharray:none;stroke-dashoffset:0;stroke-opacity:1"
     id="rect4497-3-361"
     width="21.423727"
     height="21.423727"
     x="5.2881365"
     y="5.2881365"
     ry="4.2349939" />
  <g
     id="g4542"
     transform="matrix(0.89853995,0,0,0.89853995,-40.11441,32.220728)">
    <path
       inkscape:connector-curvature="0"
       id="path16"
       d="m 56.457627,-11.033898 h 8"
       style="fill:none;stroke:#ffffff;stroke-width:2;stroke-linecap:round" />
    <path
       inkscape:connector-curvature="0"
       id="path20"
       d="m 64.457627,-17.033898 c 0,0 4.044,0.351 4,-4 -0.044,-4.35 -4,-4 -4,-4 m -0.014,8 v -8"
       style="fill:none;stroke:#ffffff;stroke-width:2;stroke-linecap:round;stroke-linejoin:bevel" />
    <path
       inkscape:connector-curvature="0"
       id="path24"
       d="m 60.457627,-17.033898 -2,-3 m -2,-1 c 0,0 4,0.464 4,-2 0,-2.4646 -4,-2 -4,-2 m 0,8 v -8"
       style="fill:none;stroke:#ffffff;stroke-width:2;stroke-linecap:round" />
  </g>
</svg>
