<?xml version="1.0" encoding="UTF-8" standalone="no"?>
<svg
   xmlns:dc="http://purl.org/dc/elements/1.1/"
   xmlns:cc="http://creativecommons.org/ns#"
   xmlns:rdf="http://www.w3.org/1999/02/22-rdf-syntax-ns#"
   xmlns:svg="http://www.w3.org/2000/svg"
   xmlns="http://www.w3.org/2000/svg"
   xmlns:sodipodi="http://sodipodi.sourceforge.net/DTD/sodipodi-0.dtd"
   xmlns:inkscape="http://www.inkscape.org/namespaces/inkscape"
   height="32"
   width="32"
   version="1.1"
   viewBox="0 0 32 32"
   id="svg10"
   sodipodi:docname="riot.svg"
   inkscape:version="0.92.1 r">
  <metadata
     id="metadata16">
    <rdf:RDF>
      <cc:Work
         rdf:about="">
        <dc:format>image/svg+xml</dc:format>
        <dc:type
           rdf:resource="http://purl.org/dc/dcmitype/StillImage" />
      </cc:Work>
    </rdf:RDF>
  </metadata>
  <defs
     id="defs14" />
  <sodipodi:namedview
     pagecolor="#ffffff"
     bordercolor="#666666"
     borderopacity="1"
     objecttolerance="10"
     gridtolerance="10"
     guidetolerance="10"
     inkscape:pageopacity="0"
     inkscape:pageshadow="2"
     inkscape:window-width="640"
     inkscape:window-height="480"
     id="namedview12"
     showgrid="false"
     inkscape:zoom="9.5"
     inkscape:cx="41.454376"
     inkscape:cy="22.967517"
     inkscape:current-layer="svg10" />
  <rect
     style="opacity:1;fill:#7bc9a4;fill-opacity:1;fill-rule:evenodd;stroke:none;stroke-width:1.03534329;stroke-linecap:round;stroke-linejoin:bevel;stroke-miterlimit:4;stroke-dasharray:none;stroke-dashoffset:0;stroke-opacity:1"
     id="rect4497-6"
     width="27.25602"
     height="27.25602"
     x="2.3719902"
     y="2.3719902"
     ry="5.3879085" />
  <path
     inkscape:connector-curvature="0"
     style="opacity:1;fill:#7bc9a4;fill-opacity:1;fill-rule:evenodd;stroke:none;stroke-width:1.03534329;stroke-linecap:round;stroke-linejoin:bevel;stroke-miterlimit:4;stroke-dasharray:none;stroke-dashoffset:0;stroke-opacity:1"
     d="m 14.912108,1.8974608 c 1.029076,0.054509 2.037488,0.2030515 2.941407,0.5703125 1.046174,0.4250592 1.988124,1.0406965 2.779297,1.8007812 0.791172,0.7600848 1.430599,1.6648453 1.873046,2.6699219 0.442448,1.0050766 0.6875,2.1094964 0.6875,3.2695316 -4.85e-4,1.082879 -0.374649,2.302546 -1.035156,3.46875 -0.660506,1.166204 -1.607421,2.279038 -2.753906,3.152343 l -2.708984,-3.71875 c -0.399327,-0.611454 -0.950008,-1.102181 -1.587891,-1.441406 -0.637883,-0.339225 -1.363703,-0.526863 -2.115234,-0.527344 -0.600691,0 -1.172795,0.11847 -1.695313,0.332032 -0.522518,0.213562 -0.99428,0.523356 -1.390625,0.904296 -0.396345,0.380941 -0.71728,0.833803 -0.939453,1.335938 -0.222173,0.502135 -0.345703,1.053713 -0.345703,1.630859 v 0.002 c 0.0019,0.866304 0.281958,1.70841 0.802734,2.416016 l 0.002,0.0019 v 0.002 l 0.613282,0.84375 H 8.62114 v 6.535156 c 0,0.434086 -0.09971,0.826008 -0.277344,1.169922 -0.177632,0.343915 -0.433953,0.63935 -0.746094,0.88086 -0.624282,0.483019 -1.473368,0.75 -2.376953,0.75 -0.903391,0 -1.754575,-0.266864 -2.378906,-0.75 -0.223614,-0.173043 -0.375466,-0.404425 -0.533203,-0.63086 0.813381,2.068881 2.801642,3.53711 5.166015,3.53711 H 24.52739 c 3.088651,0 5.574219,-2.487521 5.574219,-5.576172 V 7.4736327 c 0,-3.0886508 -2.485568,-5.5761719 -5.574219,-5.5761719 z M 12.992187,12.077148 c 0.554296,9.34e-4 1.09099,0.129891 1.568359,0.369141 0.477369,0.239249 0.897131,0.588971 1.214844,1.025391 l 6.800781,9.333984 c 0.401259,0.548441 0.615887,1.202677 0.617187,1.873047 0,0.451121 -0.09549,0.880666 -0.267578,1.271484 -0.17209,0.390817 -0.420807,0.743533 -0.728515,1.039062 -0.307708,0.295529 -0.673226,0.533963 -1.080078,0.699219 -0.406853,0.165257 -0.854695,0.257813 -1.324219,0.257813 -0.554296,-9.34e-4 -1.09099,-0.131845 -1.56836,-0.371094 -0.477369,-0.23925 -0.895178,-0.587019 -1.21289,-1.023438 L 10.210937,17.21582 C 9.809678,16.667379 9.593096,16.013142 9.591796,15.342773 c 0,-0.451122 0.09549,-0.880667 0.267578,-1.271484 0.172091,-0.390818 0.420807,-0.743534 0.728516,-1.039063 0.307708,-0.295529 0.675178,-0.533962 1.082031,-0.699218 0.406853,-0.165257 0.852741,-0.25586 1.322266,-0.25586 z"
     id="path4541" />
  <path
     inkscape:connector-curvature="0"
     style="opacity:1;fill:#b47bb5;fill-opacity:1;fill-rule:evenodd;stroke:none;stroke-width:1.03534329;stroke-linecap:round;stroke-linejoin:bevel;stroke-miterlimit:4;stroke-dasharray:none;stroke-dashoffset:0;stroke-opacity:1"
     d="m 12.992187,12.077148 c -0.469525,0 -0.915413,0.0906 -1.322266,0.25586 -0.406853,0.165256 -0.774323,0.403689 -1.082031,0.699218 -0.307709,0.295529 -0.556425,0.648245 -0.728516,1.039063 -0.172091,0.390817 -0.267578,0.820362 -0.267578,1.271484 0.0013,0.670369 0.217882,1.324606 0.619141,1.873047 l 6.800781,9.335937 c 0.317712,0.436419 0.735521,0.784188 1.21289,1.023438 0.47737,0.239249 1.014064,0.37016 1.56836,0.371094 0.469524,0 0.917366,-0.09256 1.324219,-0.257813 0.406852,-0.165256 0.77237,-0.40369 1.080078,-0.699219 0.307708,-0.295529 0.556425,-0.648245 0.728515,-1.039062 0.172091,-0.390818 0.267578,-0.820363 0.267578,-1.271484 -0.0013,-0.67037 -0.215928,-1.324606 -0.617187,-1.873047 L 15.77539,13.47168 c -0.317713,-0.43642 -0.737475,-0.786142 -1.214844,-1.025391 -0.477369,-0.23925 -1.014063,-0.368207 -1.568359,-0.369141 z"
     id="path4543" />
  <path
     inkscape:connector-curvature="0"
     style="opacity:1;fill:#ffffff;fill-opacity:1;fill-rule:evenodd;stroke:none;stroke-width:1.03534329;stroke-linecap:round;stroke-linejoin:bevel;stroke-miterlimit:4;stroke-dasharray:none;stroke-dashoffset:0;stroke-opacity:1"
     d="m 8.003905,1.8974608 c 0.460335,0.3731918 0.860628,0.8161805 1.132813,1.3359375 0.290489,0.5547092 0.455078,1.17998 0.455078,1.8417969 0,0.5772402 -0.12353,1.1287064 -0.345703,1.6308593 C 9.02392,7.2082075 8.702985,7.661075 8.30664,8.0419921 7.910295,8.4229091 7.440485,8.730803 6.917968,8.9443358 6.39545,9.1578686 5.821392,9.276367 5.220702,9.276367 c -0.688814,0 -1.33843,-0.1583627 -1.916015,-0.4375 C 2.757384,8.5743649 2.289214,8.1864221 1.898437,7.7373045 V 24.526367 c 0,0.724277 0.160993,1.405303 0.410156,2.039062 0.157737,0.226435 0.309589,0.457817 0.533203,0.63086 0.624331,0.483136 1.475515,0.75 2.378906,0.75 0.903585,0 1.752671,-0.266981 2.376953,-0.75 0.312141,-0.24151 0.568462,-0.536945 0.746094,-0.88086 0.177632,-0.343914 0.277344,-0.735836 0.277344,-1.169922 v -6.535156 h 1.417969 L 9.42578,17.766601 v -0.002 l -0.002,-0.002 C 8.903051,17.055089 8.623036,16.212983 8.621093,15.34668 v -0.0019 c 0,-0.577147 0.12353,-1.128724 0.345703,-1.63086 0.222173,-0.502135 0.543108,-0.954997 0.939453,-1.335937 0.396345,-0.380941 0.868107,-0.690735 1.390625,-0.904297 0.522518,-0.213562 1.094622,-0.332031 1.695313,-0.332031 0.751531,4.8e-4 1.477351,0.188118 2.115234,0.527343 0.637883,0.339225 1.188564,0.829952 1.587891,1.441407 l 2.708984,3.718749 c 1.146485,-0.873305 2.0934,-1.986139 2.753906,-3.152343 0.660507,-1.166204 1.034671,-2.38587 1.035156,-3.46875 0,-1.1600351 -0.245052,-2.2644549 -0.6875,-3.2695315 C 22.063411,5.9334029 21.423984,5.0286424 20.632812,4.2685576 19.841639,3.5084729 18.899689,2.8928356 17.853515,2.4677764 16.949596,2.1005154 15.941184,1.9519726 14.912108,1.8974639 Z"
     id="path4539" />
  <path
     inkscape:connector-curvature="0"
     style="opacity:1;fill:#7bc9a4;fill-opacity:1;fill-rule:evenodd;stroke:none;stroke-width:1.03534329;stroke-linecap:round;stroke-linejoin:bevel;stroke-miterlimit:4;stroke-dasharray:none;stroke-dashoffset:0;stroke-opacity:1"
     d="M 2.115234,6.3994139 C 2.042874,6.7590897 1.898437,7.0920195 1.898437,7.4736327 v 0.2636718 c 0.390777,0.4491176 0.858947,0.8370604 1.40625,1.1015625 0.577585,0.2791373 1.227201,0.4375 1.916015,0.4375 0.60069,0 1.174748,-0.1184984 1.697266,-0.3320312 C 7.440485,8.730803 7.910295,8.4229091 8.30664,8.0419921 8.702985,7.661075 9.02392,7.2082075 9.246093,6.7060545 9.468266,6.2039016 9.591796,5.6524354 9.591796,5.0751952 9.591796,4.4133783 9.427207,3.7881075 9.136718,3.2333983 8.864533,2.7136413 8.46424,2.2706526 8.003905,1.8974608 H 7.474608 c -0.321856,0 -0.599602,0.1297709 -0.90625,0.1816406 a 3.4005909,3.2673093 0 0 1 0.19336,0.083984 3.4005909,3.2673093 0 0 1 0.294922,0.1621094 3.4005909,3.2673093 0 0 1 0.277344,0.1894531 3.4005909,3.2673093 0 0 1 0.255859,0.2167969 3.4005909,3.2673093 0 0 1 0.230469,0.2382812 3.4005909,3.2673093 0 0 1 0.207031,0.2597657 3.4005909,3.2673093 0 0 1 0.177734,0.2792968 3.4005909,3.2673093 0 0 1 0.146485,0.2929688 3.4005909,3.2673093 0 0 1 0.117187,0.3066406 3.4005909,3.2673093 0 0 1 0.08398,0.3164062 3.4005909,3.2673093 0 0 1 0.05078,0.3242188 3.4005909,3.2673093 0 0 1 0.01758,0.3261719 3.4005909,3.2673093 0 0 1 -0.0078,0.2304687 A 3.4005909,3.2673093 0 0 1 8.572269,5.6298823 3.4005909,3.2673093 0 0 1 8.496099,5.9482417 3.4005909,3.2673093 0 0 1 8.39063,6.2587885 3.4005909,3.2673093 0 0 1 8.250005,6.5576167 3.4005909,3.2673093 0 0 1 8.082036,6.8408198 3.4005909,3.2673093 0 0 1 7.884771,7.1064448 3.4005909,3.2673093 0 0 1 7.660161,7.3505854 3.4005909,3.2673093 0 0 1 7.410161,7.5732417 3.4005909,3.2673093 0 0 1 7.14063,7.7724604 3.4005909,3.2673093 0 0 1 6.849614,7.9423823 3.4005909,3.2673093 0 0 1 6.544927,8.0849604 3.4005909,3.2673093 0 0 1 6.224614,8.1962885 3.4005909,3.2673093 0 0 1 5.89649,8.2763666 3.4005909,3.2673093 0 0 1 5.560552,8.3251947 3.4005909,3.2673093 0 0 1 5.220708,8.3427728 3.4005909,3.2673093 0 0 1 4.978521,8.3349598 3.4005909,3.2673093 0 0 1 4.64063,8.2939442 3.4005909,3.2673093 0 0 1 4.310552,8.2236317 3.4005909,3.2673093 0 0 1 3.986333,8.1201161 3.4005909,3.2673093 0 0 1 3.67774,7.9873035 3.4005909,3.2673093 0 0 1 3.382818,7.8232411 3.4005909,3.2673093 0 0 1 3.105474,7.6337879 3.4005909,3.2673093 0 0 1 2.849614,7.4189442 3.4005909,3.2673093 0 0 1 2.619146,7.1787098 3.4005909,3.2673093 0 0 1 2.412114,6.9189442 3.4005909,3.2673093 0 0 1 2.236333,6.6416004 3.4005909,3.2673093 0 0 1 2.11524,6.3994129 Z"
     id="path4537" />
  <path
     inkscape:connector-curvature="0"
     style="opacity:1;fill:#b47bb5;fill-opacity:1;fill-rule:evenodd;stroke:none;stroke-width:1.03534329;stroke-linecap:round;stroke-linejoin:bevel;stroke-miterlimit:4;stroke-dasharray:none;stroke-dashoffset:0;stroke-opacity:1"
     d="M 2.115246,6.3994119 A 3.4005909,3.2673093 0 0 0 2.236339,6.6415994 3.4005909,3.2673093 0 0 0 2.41212,6.9189432 3.4005909,3.2673093 0 0 0 2.619152,7.1787088 3.4005909,3.2673093 0 0 0 2.84962,7.4189432 3.4005909,3.2673093 0 0 0 3.10548,7.6337869 3.4005909,3.2673093 0 0 0 3.382824,7.8232401 3.4005909,3.2673093 0 0 0 3.677746,7.9873025 3.4005909,3.2673093 0 0 0 3.986339,8.1201151 3.4005909,3.2673093 0 0 0 4.310558,8.2236307 3.4005909,3.2673093 0 0 0 4.640636,8.2939427 3.4005909,3.2673093 0 0 0 4.978527,8.3349587 3.4005909,3.2673093 0 0 0 5.220714,8.3427687 3.4005909,3.2673093 0 0 0 5.560558,8.3251937 3.4005909,3.2673093 0 0 0 5.896496,8.2763657 3.4005909,3.2673093 0 0 0 6.22462,8.1962877 3.4005909,3.2673093 0 0 0 6.544933,8.0849596 3.4005909,3.2673093 0 0 0 6.84962,7.9423815 3.4005909,3.2673093 0 0 0 7.140636,7.7724596 3.4005909,3.2673093 0 0 0 7.410167,7.5732409 3.4005909,3.2673093 0 0 0 7.660167,7.3505846 3.4005909,3.2673093 0 0 0 7.884777,7.106444 3.4005909,3.2673093 0 0 0 8.082042,6.840819 3.4005909,3.2673093 0 0 0 8.250011,6.5576159 3.4005909,3.2673093 0 0 0 8.390636,6.2587877 3.4005909,3.2673093 0 0 0 8.496105,5.9482409 3.4005909,3.2673093 0 0 0 8.572275,5.6298815 3.4005909,3.2673093 0 0 0 8.613295,5.3056627 3.4005909,3.2673093 0 0 0 8.621095,5.075194 3.4005909,3.2673093 0 0 0 8.603515,4.7490219 3.4005909,3.2673093 0 0 0 8.552735,4.4248031 3.4005909,3.2673093 0 0 0 8.468755,4.1083969 3.4005909,3.2673093 0 0 0 8.351568,3.8017563 3.4005909,3.2673093 0 0 0 8.205083,3.5087875 3.4005909,3.2673093 0 0 0 8.027349,3.2294907 3.4005909,3.2673093 0 0 0 7.820318,2.969725 3.4005909,3.2673093 0 0 0 7.589849,2.7314438 3.4005909,3.2673093 0 0 0 7.33399,2.5146469 3.4005909,3.2673093 0 0 0 7.056646,2.3251938 3.4005909,3.2673093 0 0 0 6.761724,2.1630844 3.4005909,3.2673093 0 0 0 6.568364,2.0791004 C 4.295893,2.4634916 2.567519,4.1513463 2.11524,6.3994129 Z"
     id="rect4497-6-3" />
</svg>
