<?xml version="1.0" encoding="UTF-8" standalone="no"?>
<svg
   xmlns:dc="http://purl.org/dc/elements/1.1/"
   xmlns:cc="http://creativecommons.org/ns#"
   xmlns:rdf="http://www.w3.org/1999/02/22-rdf-syntax-ns#"
   xmlns:svg="http://www.w3.org/2000/svg"
   xmlns="http://www.w3.org/2000/svg"
   xmlns:sodipodi="http://sodipodi.sourceforge.net/DTD/sodipodi-0.dtd"
   xmlns:inkscape="http://www.inkscape.org/namespaces/inkscape"
   height="32"
   width="32"
   version="1"
   id="svg12"
   sodipodi:docname="Rlogo.svg"
   inkscape:version="0.92.2 2405546, 2018-03-11">
  <metadata
     id="metadata18">
    <rdf:RDF>
      <cc:Work
         rdf:about="">
        <dc:format>image/svg+xml</dc:format>
        <dc:type
           rdf:resource="http://purl.org/dc/dcmitype/StillImage" />
        <dc:title></dc:title>
      </cc:Work>
    </rdf:RDF>
  </metadata>
  <defs
     id="defs16" />
  <sodipodi:namedview
     pagecolor="#ffffff"
     bordercolor="#666666"
     borderopacity="1"
     objecttolerance="10"
     gridtolerance="10"
     guidetolerance="10"
     inkscape:pageopacity="0"
     inkscape:pageshadow="2"
     inkscape:window-width="1680"
     inkscape:window-height="972"
     id="namedview14"
     showgrid="false"
     showguides="true"
     inkscape:guide-bbox="true"
     inkscape:zoom="7.375"
     inkscape:cx="2.8128313"
     inkscape:cy="4.5813923"
     inkscape:window-x="0"
     inkscape:window-y="0"
     inkscape:window-maximized="1"
     inkscape:current-layer="svg12" />
  <rect
     style="opacity:1;fill:#ececec;fill-opacity:1;fill-rule:evenodd;stroke:none;stroke-width:1.03534329;stroke-linecap:round;stroke-linejoin:bevel;stroke-miterlimit:4;stroke-dasharray:none;stroke-dashoffset:0;stroke-opacity:1"
     id="rect4497"
     width="28.203388"
     height="28.203388"
     x="1.8983059"
     y="1.8983059"
     ry="5.575182" />
  <g
     id="g887"
     transform="matrix(0.63795482,0,0,0.63795482,28.84846,7.9358737)">
    <ellipse
       ry="12.137167"
       rx="18.273417"
       cy="12.632465"
       cx="-20.422201"
       id="path865-3"
       style="fill:#babcbf;fill-opacity:1;stroke:none;stroke-width:3.1314826;stroke-linecap:round;stroke-linejoin:round;stroke-miterlimit:4;stroke-dasharray:none;stroke-opacity:1" />
    <ellipse
       ry="8.4937696"
       rx="13.862988"
       cy="13.351557"
       cx="-17.977291"
       id="path865"
       style="fill:#ffffff;fill-opacity:1;stroke:none;stroke-width:2.28170824;stroke-linecap:round;stroke-linejoin:round;stroke-miterlimit:4;stroke-dasharray:none;stroke-opacity:1" />
    <path
       inkscape:connector-curvature="0"
       id="path882"
       d="M -23.864735,18.287059 V 8.0072937 l 6.260276,2.71e-4 c 6.851324,2.96e-4 6.56084,-0.0056 7.331007,0.149744 2.3213578,0.468334 3.8843888,1.794391 4.3988548,3.7319373 0.215055,0.809924 0.258397,1.878319 0.112592,2.775385 -0.259144,1.594393 -1.077737,2.829519 -2.442546,3.685407 -0.723655,0.453813 -1.7732816,0.834713 -2.6205798,0.950983 -0.11837,0.01624 -0.231341,0.03438 -0.251044,0.04031 -0.01971,0.0059 0.163478,0.07806 0.407073,0.160304 0.8132562,0.274569 1.3627428,0.517008 1.7664868,0.779393 0.07757,0.05041 0.249274,0.200627 0.381569,0.333815 0.188854,0.190129 0.275898,0.303405 0.405114,0.527195 0.180787,0.313109 1.77393,3.005807 3.362754,5.683655 0.559647,0.943245 1.01754,1.720874 1.01754,1.728064 0,0.0072 -1.575792,0.01307 -3.501762,0.01307 h -3.5017588 l -0.306734,-0.576021 c -0.541769,-1.017393 -2.266673,-4.249762 -2.658372,-4.981635 -0.695838,-1.300138 -1.13426,-1.91903 -1.608479,-2.270583 -0.305088,-0.226171 -0.288035,-0.223399 -1.374151,-0.223399 h -0.949214 v 4.025819 4.02582 h -3.114313 -3.114313 z m 10.633711,-2.425815 c 0.328907,-0.11477 0.488114,-0.210841 0.702753,-0.424068 0.321734,-0.319613 0.46121,-0.698934 0.462038,-1.25657 5.57e-4,-0.373975 -0.04751,-0.608859 -0.179767,-0.878542 -0.180539,-0.368126 -0.478718,-0.609539 -0.946516,-0.766325 l -0.177237,-0.0594 -2.107858,-0.0072 -2.107858,-0.0072 v 1.748599 1.748598 l 2.057219,-0.007 2.057219,-0.007 z"
       style="fill:#1e64b6;fill-opacity:1;stroke-width:0.02531962" />
  </g>
</svg>
