<?xml version="1.0" encoding="UTF-8" standalone="no"?>
<svg
   xmlns:dc="http://purl.org/dc/elements/1.1/"
   xmlns:cc="http://creativecommons.org/ns#"
   xmlns:rdf="http://www.w3.org/1999/02/22-rdf-syntax-ns#"
   xmlns:svg="http://www.w3.org/2000/svg"
   xmlns="http://www.w3.org/2000/svg"
   xmlns:sodipodi="http://sodipodi.sourceforge.net/DTD/sodipodi-0.dtd"
   xmlns:inkscape="http://www.inkscape.org/namespaces/inkscape"
   height="32"
   width="32"
   version="1"
   id="svg22"
   sodipodi:docname="rocket-league.svg"
   inkscape:version="0.92.1 r">
  <metadata
     id="metadata28">
    <rdf:RDF>
      <cc:Work
         rdf:about="">
        <dc:format>image/svg+xml</dc:format>
        <dc:type
           rdf:resource="http://purl.org/dc/dcmitype/StillImage" />
      </cc:Work>
    </rdf:RDF>
  </metadata>
  <defs
     id="defs26" />
  <sodipodi:namedview
     pagecolor="#ffffff"
     bordercolor="#666666"
     borderopacity="1"
     objecttolerance="10"
     gridtolerance="10"
     guidetolerance="10"
     inkscape:pageopacity="0"
     inkscape:pageshadow="2"
     inkscape:window-width="640"
     inkscape:window-height="480"
     id="namedview24"
     showgrid="false"
     inkscape:zoom="8.9375"
     inkscape:cx="-5.3706294"
     inkscape:cy="16"
     inkscape:current-layer="svg22" />
  <rect
     style="opacity:1;fill:#007eff;fill-opacity:1;fill-rule:evenodd;stroke:none;stroke-width:1.03534329;stroke-linecap:round;stroke-linejoin:bevel;stroke-miterlimit:4;stroke-dasharray:none;stroke-dashoffset:0;stroke-opacity:1"
     id="rect4497-6"
     width="28.203388"
     height="28.203388"
     x="1.8983059"
     y="1.8983059"
     ry="5.575182" />
  <g
     id="g4517"
     transform="matrix(0.91816613,0,0,0.91816613,42.970299,1.6175895)"
     style="stroke-width:1.08912754">
    <path
       inkscape:connector-curvature="0"
       id="path4"
       d="m -29.61018,6.0935549 c -1.003651,7.93e-4 -2.010836,0.059215 -2.954253,0.1869292 -1.396364,0.1890331 -2.694201,0.5154926 -3.870447,1.0214345 -1.34457,0.5559713 -2.314096,1.3462982 -2.64574,2.1950829 -0.189725,0.4976013 -0.140093,0.50129 -0.152253,0.5808155 -0.01216,0.07953 -0.01696,0.124584 -0.02137,0.166901 -0.04898,0.370925 -0.03045,0.73672 -0.02137,1.088196 0.657766,3.535955 2.116627,7.648001 4.088142,10.112869 0.590844,0.711521 1.04451,1.183563 1.840399,1.807872 0.780554,0.612286 1.548977,1.08444 2.509513,1.547507 0.10384,0.05006 0.198633,0.09506 0.281803,0.133522 0.04159,0.01923 0.07767,0.03584 0.126877,0.05741 0.0246,0.01078 0.04929,0.02159 0.10551,0.04406 0.02811,0.01123 0.06105,0.02509 0.140233,0.05207 0.03958,0.01349 0.08785,0.02997 0.186978,0.05608 0.04956,0.01305 0.209487,0.0467 0.209682,0.04673 1.96e-4,3.5e-5 0.488692,0.04406 0.488815,0.04406 6.06e-4,0 0.498848,-0.04303 0.609014,-0.0681 0.110166,-0.02507 0.173207,-0.04516 0.224373,-0.06142 0.102334,-0.0325 0.150349,-0.05199 0.190986,-0.0681 0.08128,-0.0322 0.119805,-0.05099 0.157595,-0.0681 0.07558,-0.03421 0.132655,-0.06103 0.196327,-0.09213 0.127345,-0.06221 0.270075,-0.13364 0.420701,-0.210963 1.021544,-0.44338 1.928811,-1.228077 2.75392,-1.842611 0.216142,-0.191027 0.376629,-0.355921 0.615692,-0.599509 l 0.0041,-0.0041 c 2.870119,-2.936624 4.133621,-6.76775 4.639727,-10.88729 0.08929,-0.709693 -0.09479,-1.4644731 -0.19502,-1.8358539 -0.2884,-0.8924145 -0.926383,-1.2669702 -1.62537,-1.6903741 -0.314043,-0.1764375 -0.651545,-0.3460674 -1.020366,-0.5047088 -1.176245,-0.5059432 -2.474082,-0.8324013 -3.870446,-1.0214345 -1.023825,-0.1385996 -2.123582,-0.1958857 -3.21068,-0.1855941 -0.06715,-5.29e-4 -0.13482,-0.00138 -0.203007,-0.00134 z"
       style="fill:#f2f2f2;stroke-width:1.08912742" />
    <path
       inkscape:connector-curvature="0"
       id="path10"
       d="m -29.601509,8.8280637 c -0.894217,7.042e-4 -1.798254,0.054967 -2.588416,0.1619625 -1.195931,0.1619417 -2.271988,0.4425271 -3.156598,0.8231267 -0.500114,0.2151721 -1.137736,0.5735041 -1.16968,0.6573251 -0.01069,0.02805 -0.02689,0.266103 -0.03601,0.52903 0.06761,0.55047 0.148536,1.087016 0.244257,1.609661 0.04507,0.323639 0.176585,0.975787 0.305498,1.482351 0.181583,0.713541 0.299343,0.961292 0.59737,1.256895 0.180736,0.179267 0.318317,0.274633 0.590205,0.409081 0.393121,0.194397 0.854483,0.322106 1.690313,0.467891 0.516383,0.09007 1.006334,0.20729 1.414538,0.338471 2.591133,0.832699 4.872048,2.706077 4.985133,4.094396 0.0077,0.0943 0.01851,0.185937 0.02408,0.20366 0.01484,0.0473 0.177713,-0.09668 0.624866,-0.552413 2.327848,-2.382409 3.414442,-5.520262 3.879906,-9.309993 -0.0091,-0.262927 -0.02532,-0.500981 -0.03601,-0.52903 -0.03194,-0.08382 -0.669565,-0.442153 -1.169682,-0.6573251 -0.884607,-0.3805996 -1.960663,-0.661185 -3.156594,-0.8231267 -0.857391,-0.1160991 -1.848777,-0.1700326 -2.816297,-0.1608706 -0.07553,-7.52e-4 -0.151145,-0.00113 -0.226889,-0.00109 z M -33.954366,17.1087 c -0.158432,-0.0012 -0.281156,0.0075 -0.34944,0.02758 -0.05906,0.01734 -0.144065,0.06841 -0.18976,0.113999 -0.126221,0.125935 -0.106499,0.237267 0.104198,0.588334 0.385124,0.641695 0.858614,1.312204 1.314327,1.861145 0.280732,0.338159 1.11832,1.163931 1.423292,1.40322 0.676098,0.530486 1.14405,0.818253 2.008624,1.235166 0.185286,0.08935 0.343336,0.162456 0.351206,0.162456 0.03881,0 1.009669,-0.498517 1.254712,-0.64426 0.429123,-0.255228 0.758436,-0.480488 0.843145,-0.576748 0.04215,-0.04789 0.104239,-0.147059 0.137977,-0.220387 0.119873,-0.260548 0.06934,-0.608642 -0.139565,-0.961107 -0.721793,-1.217787 -3.02558,-2.434554 -5.393981,-2.848912 -0.4948,-0.08657 -1.016181,-0.13777 -1.364735,-0.140482 z"
       style="fill:#0087db;stroke-width:1.08912742" />
  </g>
  <g
     id="g4513"
     transform="matrix(0.77622378,0,0,0.77622378,4.7412584,4.3006997)"
     style="stroke-width:1.28828824">
    <circle
       id="circle14"
       r="5"
       cy="7"
       cx="6"
       style="fill:#e6e6e6;stroke-width:1.28828824" />
    <circle
       id="circle18"
       style="fill:#4f4f4f;stroke-width:1.28828824"
       cx="6"
       cy="7"
       r="3" />
  </g>
</svg>
