<?xml version="1.0" encoding="UTF-8" standalone="no"?>
<svg
   xmlns:dc="http://purl.org/dc/elements/1.1/"
   xmlns:cc="http://creativecommons.org/ns#"
   xmlns:rdf="http://www.w3.org/1999/02/22-rdf-syntax-ns#"
   xmlns:svg="http://www.w3.org/2000/svg"
   xmlns="http://www.w3.org/2000/svg"
   xmlns:sodipodi="http://sodipodi.sourceforge.net/DTD/sodipodi-0.dtd"
   xmlns:inkscape="http://www.inkscape.org/namespaces/inkscape"
   height="32"
   width="32"
   version="1"
   id="svg30"
   sodipodi:docname="rosegarden.svg"
   inkscape:version="0.92.1 r">
  <metadata
     id="metadata36">
    <rdf:RDF>
      <cc:Work
         rdf:about="">
        <dc:format>image/svg+xml</dc:format>
        <dc:type
           rdf:resource="http://purl.org/dc/dcmitype/StillImage" />
      </cc:Work>
    </rdf:RDF>
  </metadata>
  <defs
     id="defs34" />
  <sodipodi:namedview
     pagecolor="#ffffff"
     bordercolor="#666666"
     borderopacity="1"
     objecttolerance="10"
     gridtolerance="10"
     guidetolerance="10"
     inkscape:pageopacity="0"
     inkscape:pageshadow="2"
     inkscape:window-width="640"
     inkscape:window-height="480"
     id="namedview32"
     showgrid="false"
     inkscape:zoom="9.5"
     inkscape:cx="-4.1052632"
     inkscape:cy="16"
     inkscape:current-layer="svg30" />
  <rect
     style="opacity:1;fill:#c36591;fill-opacity:1;fill-rule:evenodd;stroke:none;stroke-width:1.03534329;stroke-linecap:round;stroke-linejoin:bevel;stroke-miterlimit:4;stroke-dasharray:none;stroke-dashoffset:0;stroke-opacity:1"
     id="rect4497-3"
     width="28.203388"
     height="28.203388"
     x="1.8983059"
     y="1.8983059"
     ry="5.575182"
     inkscape:export-filename="/home/ramil/3.png"
     inkscape:export-xdpi="71"
     inkscape:export-ydpi="71" />
  <g
     transform="matrix(0.26324,0.98241,-0.98241,0.26324,27.50672,-3.9304)"
     id="g10"
     style="fill:#cf87a8">
    <path
       d="m 16,4 c -3.324,0 -6,2.676 -6,6 -3.324,0 -6,2.676 -6,6 0,3.324 2.676,6 6,6 0,3.324 2.676,6 6,6 3.324,0 6,-2.676 6,-6 3.324,0 6,-2.676 6,-6 0,-3.324 -2.676,-6 -6,-6 0,-3.324 -2.676,-6 -6,-6 z"
       id="path8"
       inkscape:connector-curvature="0" />
  </g>
  <g
     transform="matrix(0.80604,0.46537,-0.46537,0.80604,9.851225,-3.1335)"
     id="g14"
     style="fill:#e2b7cb">
    <path
       transform="translate(0,-1.5)"
       d="M 16,11.5 A 3,3 0 0 0 13.268,13.268 3,3 0 0 0 11.5,16 3,3 0 0 0 13.268,18.732 3,3 0 0 0 16,20.5 3,3 0 0 0 18.732,18.732 3,3 0 0 0 20.5,16 3,3 0 0 0 18.732,13.268 3,3 0 0 0 16,11.5 Z"
       id="path12"
       inkscape:connector-curvature="0" />
  </g>
</svg>
