<?xml version="1.0" encoding="UTF-8" standalone="no"?>
<svg
   xmlns:dc="http://purl.org/dc/elements/1.1/"
   xmlns:cc="http://creativecommons.org/ns#"
   xmlns:rdf="http://www.w3.org/1999/02/22-rdf-syntax-ns#"
   xmlns:svg="http://www.w3.org/2000/svg"
   xmlns="http://www.w3.org/2000/svg"
   xmlns:sodipodi="http://sodipodi.sourceforge.net/DTD/sodipodi-0.dtd"
   xmlns:inkscape="http://www.inkscape.org/namespaces/inkscape"
   height="32"
   width="32"
   version="1"
   id="svg28"
   sodipodi:docname="rubymine.svg"
   inkscape:version="0.92.1 r">
  <metadata
     id="metadata34">
    <rdf:RDF>
      <cc:Work
         rdf:about="">
        <dc:format>image/svg+xml</dc:format>
        <dc:type
           rdf:resource="http://purl.org/dc/dcmitype/StillImage" />
      </cc:Work>
    </rdf:RDF>
  </metadata>
  <defs
     id="defs32" />
  <sodipodi:namedview
     pagecolor="#ffffff"
     bordercolor="#666666"
     borderopacity="1"
     objecttolerance="10"
     gridtolerance="10"
     guidetolerance="10"
     inkscape:pageopacity="0"
     inkscape:pageshadow="2"
     inkscape:window-width="640"
     inkscape:window-height="480"
     id="namedview30"
     showgrid="false"
     inkscape:zoom="9.5"
     inkscape:cx="-12.80901"
     inkscape:cy="32.947368"
     inkscape:current-layer="svg28" />
  <g
     id="g4543"
     transform="translate(43.157894,19.368421)">
    <path
       inkscape:connector-curvature="0"
       id="path6-2"
       d="m -13.157894,-12.399671 c -0.05413,-0.578542 -0.119792,-1.157197 -0.335937,-1.669922 -0.281373,-0.667454 -0.689503,-1.267628 -1.19336,-1.771485 -0.503857,-0.503857 -1.10403,-0.911987 -1.771484,-1.193359 -0.511546,-0.215648 -1.088925,-0.279572 -1.666016,-0.333984 h -9.033204 v 13.9999999 h 14.000001 z"
       style="fill:#ff8c2a;fill-opacity:1;stroke-width:0.69999999" />
    <path
       inkscape:connector-curvature="0"
       id="path4-8"
       d="m -36.193051,-17.368421 c -0.57709,0.05441 -1.15447,0.118337 -1.666016,0.333985 -0.667454,0.281372 -1.267627,0.689502 -1.771483,1.193359 -0.503857,0.503857 -0.911987,1.104031 -1.193359,1.771485 -0.215648,0.511545 -0.279573,1.088925 -0.333985,1.666015 v 9.0351559 h 13.999999 V -17.368421 Z"
       style="fill:#6655e4;fill-opacity:1;stroke-width:0.69999999" />
    <path
       inkscape:connector-curvature="0"
       id="path4-8-7"
       d="m -18.122738,10.631579 c 0.577089,-0.05441 1.154471,-0.118337 1.666017,-0.333985 0.667454,-0.281372 1.267627,-0.6895021 1.771483,-1.1933591 0.503857,-0.503857 0.911987,-1.104031 1.193359,-1.771485 0.215647,-0.511545 0.279573,-1.088925 0.333985,-1.666015 v -9.035156 h -14 V 10.631579 Z"
       style="fill:#fe4b71;fill-opacity:1;stroke-width:0.69999999" />
    <path
       inkscape:connector-curvature="0"
       id="path6-2-8"
       d="m -41.157895,5.6628289 c 0.05413,0.578542 0.119792,1.157197 0.335937,1.669922 0.281373,0.667454 0.689503,1.267628 1.19336,1.771485 0.503857,0.503857 1.10403,0.9119871 1.771484,1.1933591 0.511546,0.215648 1.088926,0.279572 1.666017,0.333984 h 9.033203 V -3.3684211 h -14.000001 z"
       style="fill:#c72566;fill-opacity:1;stroke-width:0.69999999" />
    <rect
       ry="4.2349939"
       y="-14.080284"
       x="-37.869759"
       height="21.423727"
       width="21.423727"
       id="rect4497-3-361"
       style="opacity:1;fill:#3f3f3f;fill-opacity:1;fill-rule:evenodd;stroke:none;stroke-width:0.78646272;stroke-linecap:round;stroke-linejoin:bevel;stroke-miterlimit:4;stroke-dasharray:none;stroke-dashoffset:0;stroke-opacity:1" />
  </g>
  <g
     id="g4536"
     transform="matrix(0.92493512,0,0,0.92494483,-20.9948,35.392376)"
     style="stroke-width:1.08115125">
    <path
       inkscape:connector-curvature="0"
       id="path18"
       d="m 33.000242,-13.947368 h 8"
       style="fill:none;stroke:#ffffff;stroke-width:2.16230249;stroke-linecap:round;stroke-opacity:1" />
    <path
       inkscape:connector-curvature="0"
       id="path22"
       d="m 47.000242,-19.947607 v -8.000002 m -6,0 3,3.999999 3,-3.999999 m -6,8.000002 v -8.000002"
       style="fill:none;stroke:#ffffff;stroke-width:2.16230226;stroke-linecap:round;stroke-linejoin:round;stroke-opacity:1" />
    <path
       inkscape:connector-curvature="0"
       id="path26"
       d="m 37.000244,-19.947608 -2.000002,-3 m -2,-1.000003 c 0,0 4.000002,0.464501 4.000002,-1.999997 0,-2.464502 -4.000002,-2.000002 -4.000002,-2.000002 m 9.7e-5,8.0001 v -8.000002"
       style="opacity:1;fill:none;stroke:#ffffff;stroke-width:2.16230226;stroke-linecap:round;stroke-opacity:1" />
  </g>
</svg>
