<?xml version="1.0" encoding="UTF-8" standalone="no"?>
<svg
   xmlns:dc="http://purl.org/dc/elements/1.1/"
   xmlns:cc="http://creativecommons.org/ns#"
   xmlns:rdf="http://www.w3.org/1999/02/22-rdf-syntax-ns#"
   xmlns:svg="http://www.w3.org/2000/svg"
   xmlns="http://www.w3.org/2000/svg"
   xmlns:sodipodi="http://sodipodi.sourceforge.net/DTD/sodipodi-0.dtd"
   xmlns:inkscape="http://www.inkscape.org/namespaces/inkscape"
   height="32"
   width="32"
   version="1"
   id="svg14"
   sodipodi:docname="rygel.svg"
   inkscape:version="0.92.1 r">
  <metadata
     id="metadata20">
    <rdf:RDF>
      <cc:Work
         rdf:about="">
        <dc:format>image/svg+xml</dc:format>
        <dc:type
           rdf:resource="http://purl.org/dc/dcmitype/StillImage" />
      </cc:Work>
    </rdf:RDF>
  </metadata>
  <defs
     id="defs18" />
  <sodipodi:namedview
     pagecolor="#ffffff"
     bordercolor="#666666"
     borderopacity="1"
     objecttolerance="10"
     gridtolerance="10"
     guidetolerance="10"
     inkscape:pageopacity="0"
     inkscape:pageshadow="2"
     inkscape:window-width="640"
     inkscape:window-height="480"
     id="namedview16"
     showgrid="false"
     inkscape:zoom="4.75"
     inkscape:cx="11.817396"
     inkscape:cy="-0.61086961"
     inkscape:current-layer="svg14" />
  <rect
     style="opacity:1;fill:#ff4848;fill-opacity:1;fill-rule:evenodd;stroke:none;stroke-width:1.03534329;stroke-linecap:round;stroke-linejoin:bevel;stroke-miterlimit:4;stroke-dasharray:none;stroke-dashoffset:0;stroke-opacity:1"
     id="rect4497-3"
     width="28.203388"
     height="28.203388"
     x="1.8983059"
     y="1.8983059"
     ry="5.575182"
     inkscape:export-filename="/home/ramil/3.png"
     inkscape:export-xdpi="71"
     inkscape:export-ydpi="71" />
  <path
     d="m 9.6805755,1.8883993 c 0.05826,0.2096587 0.151599,0.5690018 0.151599,0.5690018 l 0.1734735,0.521627 -0.006,0.00202 0.012099,0.03538 c 0.04334,0.137891 0.07963,0.2772939 0.107853,0.4194184 0.02822,0.1420236 0.0504,0.2890872 0.0635,0.433026 0.0121,0.1440396 0.01814,0.2872728 0.01512,0.4312117 -0.002,0.143838 -0.0121,0.2855592 -0.02923,0.4271797 -0.01714,0.1416205 -0.04133,0.2803178 -0.07258,0.4174024 -0.03225,0.1370846 -0.07157,0.2749756 -0.1189405,0.4055083 -0.04627,0.130432 -0.09798,0.256328 -0.159058,0.3779906 -0.06118,0.1216626 -0.131238,0.2357653 -0.206736,0.3465418 l 0.01381,-0.00393 c -0.08013,0.1123892 -0.153515,0.2316326 -0.220545,0.352388 -0.06703,0.1206546 -0.125997,0.2443331 -0.179117,0.3720435 -0.05312,0.1277105 -0.101201,0.2564289 -0.139807,0.3897839 -0.0385,0.1334559 -0.06733,0.2697341 -0.09052,0.4075243 -0.02328,0.1377902 -0.04022,0.2805194 -0.04727,0.4213335 -0.0073,0.1408141 -0.0057,0.2806202 0.0039,0.4232487 0.0097,0.1426284 0.02984,0.2880792 0.05715,0.4311108 0.02721,0.1431325 0.06078,0.2830394 0.10624,0.4252646 0.0377,0.1177315 0.08185,0.2337494 0.129928,0.3445259 0.04818,0.1107764 0.101604,0.2170168 0.159462,0.3208388 0.115816,0.207642 0.249373,0.399158 0.399662,0.574545 0.150692,0.176396 0.3190245,0.335656 0.4984435,0.476772 0.178412,0.141117 0.366903,0.264089 0.568498,0.367911 0.201594,0.103821 0.416294,0.186475 0.634016,0.249977 0.217723,0.0635 0.441493,0.106846 0.669296,0.125997 0.22881,0.02016 0.456612,0.01915 0.689455,-0.0071 0.115917,-0.01411 0.23385,-0.03427 0.349767,-0.05947 0.116925,-0.02621 0.234858,-0.06048 0.350775,-0.09878 0.115917,-0.0383 0.229818,-0.07661 0.33868,-0.125996 0.108861,-0.04838 0.212682,-0.105838 0.314488,-0.165308 0.203611,-0.117933 0.392102,-0.255017 0.565474,-0.407222 0.173371,-0.153212 0.329608,-0.320536 0.468708,-0.501971 0.139101,-0.181436 0.260058,-0.375975 0.361863,-0.580594 0.102814,-0.2048202 0.183452,-0.4188132 0.245946,-0.6401645 0.06249,-0.2213513 0.108861,-0.4529839 0.128013,-0.6851206 0.02016,-0.2320358 0.01713,-0.4640716 -0.0091,-0.7008449 -0.01411,-0.1183363 -0.03225,-0.2379829 -0.05746,-0.3563191 -0.0252,-0.1184371 -0.05846,-0.2386885 -0.09676,-0.3563192 C 15.779311,7.1266065 15.723873,6.9912354 15.663395,6.8592915 15.602915,6.7274484 15.535382,6.6023587 15.460792,6.4813009 15.386202,6.360344 15.305564,6.2424109 15.218878,6.132844 15.131188,6.0233779 15.037442,5.9211693 14.938661,5.8237989 14.839881,5.7264289 14.736058,5.6347028 14.628205,5.5501337 14.519343,5.4655647 14.404434,5.3871442 14.287509,5.3158804 14.170584,5.2446164 14.049627,5.1802069 13.924638,5.122954 13.800657,5.0656 13.671636,5.0160078 13.541608,4.9732697 l 0.02117,-0.00786 C 13.437789,4.9212607 13.314816,4.8714667 13.194867,4.8098792 13.07391,4.7483932 12.955977,4.6764233 12.842076,4.5993132 12.728175,4.5220012 12.617298,4.4366261 12.51146,4.3453035 12.405623,4.2539815 12.30281,4.1558042 12.206044,4.0519828 12.109274,3.9480606 12.018561,3.8399049 11.932883,3.7251974 11.847203,3.610389 11.767575,3.4889281 11.695001,3.3648463 11.621421,3.2407646 11.55086,3.1127518 11.49139,2.9810095 11.44603,2.8806152 11.40874,2.7781042 11.371441,2.6738797 l 0.006,-0.00202 -0.222763,-0.6692954 c 0,0 -0.0252,-0.094548 -0.03125,-0.1142035 z M 19.718493,8.9462395 c -0.140108,-0.00595 -0.282233,-0.00131 -0.424358,0.00978 -0.143132,0.010987 -0.285256,0.030542 -0.427381,0.059067 -0.143132,0.028526 -0.284249,0.063402 -0.425365,0.1102725 -0.116924,0.038706 -0.232843,0.08467 -0.342712,0.1338591 -0.109869,0.049189 -0.217721,0.1026118 -0.320536,0.1614775 -0.205627,0.1176307 -0.395126,0.2537073 -0.569506,0.4055083 -0.174378,0.1522043 -0.330615,0.3185201 -0.470724,0.4979401 -0.1391,0.180427 -0.264089,0.37295 -0.365895,0.574545 -0.101804,0.202603 -0.182442,0.416294 -0.243929,0.634016 -0.06149,0.21873 -0.100797,0.445525 -0.117934,0.673327 -0.01814,0.22881 -0.01109,0.458629 0.01714,0.691471 0.01512,0.115917 0.03225,0.231834 0.05947,0.348759 0.02621,0.115917 0.06048,0.232842 0.100798,0.347752 0.03931,0.115917 0.08165,0.22881 0.131037,0.336663 0.0504,0.108861 0.107853,0.213691 0.167323,0.315496 0.119949,0.202603 0.258042,0.389079 0.412262,0.560434 0.154219,0.172364 0.324567,0.327592 0.508019,0.464677 0.182444,0.138092 0.376983,0.258041 0.58261,0.358839 0.204619,0.100797 0.41831,0.179419 0.639056,0.239898 0.221754,0.06048 0.451573,0.100797 0.683406,0.117933 0.231834,0.01814 0.468708,0.01512 0.704575,-0.0131 0.11894,-0.01512 0.234859,-0.03528 0.352792,-0.06149 0.117933,-0.02621 0.236874,-0.06149 0.354807,-0.100798 0.141116,-0.04637 0.278201,-0.100797 0.409238,-0.163292 0.131036,-0.06149 0.256025,-0.128012 0.375974,-0.204619 0.119948,-0.0756 0.23385,-0.157244 0.342711,-0.245945 0.107853,-0.0887 0.212682,-0.181436 0.30844,-0.281225 0.09677,-0.09979 0.186476,-0.207643 0.270137,-0.317513 0.08366,-0.108861 0.158252,-0.222762 0.227803,-0.340695 0.07056,-0.116925 0.135068,-0.23889 0.191515,-0.363879 0.05645,-0.124989 0.103821,-0.253002 0.145148,-0.384038 l 0.0081,0.02016 c 0.04334,-0.125997 0.09374,-0.246954 0.15422,-0.367911 0.05947,-0.121965 0.130029,-0.241914 0.206635,-0.356823 0.0756,-0.114909 0.161276,-0.225786 0.251994,-0.332632 0.08971,-0.106845 0.186475,-0.209658 0.289289,-0.307432 0.102813,-0.09777 0.20865,-0.192523 0.322552,-0.279209 0.113901,-0.08669 0.234858,-0.165308 0.358839,-0.239898 0.122973,-0.07459 0.249977,-0.142124 0.381014,-0.203611 0.09979,-0.04536 0.200587,-0.08568 0.303401,-0.12398 l 0.004,0.0061 c 0.603776,-0.121965 1.165218,-0.125997 1.813346,-0.125997 V 9.7966679 c -0.655183,6.048e-4 -1.331534,0.00786 -2.131867,0.1595624 l -0.004,-0.00605 -0.03326,0.012096 c -0.138092,0.045359 -0.280217,0.083662 -0.421333,0.1139007 -0.142125,0.03024 -0.284249,0.0504 -0.427381,0.06552 -0.144141,0.01411 -0.287273,0.02217 -0.431414,0.02117 -0.143132,-0.001 -0.287273,-0.0121 -0.429397,-0.02721 -0.141117,-0.01613 -0.280217,-0.03629 -0.417302,-0.06753 C 22.654767,10.037875 22.517682,9.9955404 22.386645,9.9501814 22.255609,9.9047214 22.13062,9.8567424 22.008655,9.7966668 21.88669,9.7365918 21.769765,9.6663356 21.65788,9.5919471 l 0.006,0.015724 C 21.550987,9.5285451 21.431038,9.4531485 21.310081,9.387227 21.188116,9.321205 21.065143,9.2659676 20.937131,9.2139561 20.809118,9.1619451 20.677073,9.113461 20.54402,9.0761659 20.40996,9.0387699 20.275899,9.0114539 20.137806,8.9894799 20.000722,8.9675059 19.859605,8.9519829 19.718489,8.9462379 Z M 9.3121605,12.978139 c -0.116925,0.003 -0.236269,0.0091 -0.354303,0.02318 -0.118135,0.01512 -0.23637,0.0373 -0.354404,0.0635 -0.118034,0.02621 -0.235161,0.05745 -0.352388,0.09677 -0.141621,0.04637 -0.276286,0.100798 -0.407524,0.163292 -0.131138,0.06149 -0.25784,0.132045 -0.377991,0.208651 -0.120151,0.0756 -0.234052,0.155228 -0.34251,0.24393 -0.108559,0.0887 -0.212783,0.185467 -0.309146,0.285257 -0.09626,0.09979 -0.186173,0.201595 -0.269734,0.311464 -0.08346,0.108861 -0.160268,0.222763 -0.230322,0.340696 -0.07005,0.116925 -0.130936,0.23889 -0.186979,0.363879 -0.05614,0.124988 -0.108257,0.253001 -0.149685,0.384038 l -0.0058,-0.01814 c -0.04294,0.125997 -0.09525,0.246954 -0.155531,0.367911 -0.06028,0.121965 -0.126702,0.241914 -0.202804,0.356823 -0.179823,0.223771 -0.425769,0.342712 -0.700845,0.409238 v 2.238712 h 0.425265 c 0.143737,10e-4 0.285559,0.0081 0.427179,0.02318 0.14152,0.01613 0.280117,0.0383 0.417403,0.06955 0.137185,0.03024 0.274774,0.06854 0.405508,0.113901 0.130734,0.04536 0.255925,0.09979 0.377991,0.15926 0.122065,0.06048 0.239192,0.124989 0.350473,0.198571 l -0.0059,-0.0131 c 0.113095,0.07862 0.233145,0.152204 0.354404,0.21873 0.121159,0.06552 0.244031,0.122973 0.372044,0.17438 0.128114,0.05241 0.260158,0.09878 0.393715,0.136077 0.133657,0.0373 0.267819,0.06249 0.405609,0.08467 0.13779,0.02218 0.280519,0.04133 0.421233,0.04738 0.140814,0.006 0.281023,0.001 0.423349,-0.01008 0.142326,-0.01109 0.284753,-0.02822 0.4268785,-0.05645 0.143132,-0.02923 0.284249,-0.06552 0.425365,-0.112893 0.116925,-0.0383 0.234858,-0.08467 0.344727,-0.133053 0.10987,-0.04939 0.215707,-0.102813 0.31852,-0.162284 0.206635,-0.116925 0.397143,-0.253002 0.571522,-0.405206 0.17438,-0.152204 0.330616,-0.321544 0.470725,-0.501971 0.1391,-0.180428 0.262073,-0.370935 0.363878,-0.57253 0.101806,-0.202603 0.180428,-0.416294 0.241914,-0.634016 0.06149,-0.218731 0.102814,-0.441493 0.119949,-0.669296 0.01814,-0.22881 0.01512,-0.460644 -0.0131,-0.693486 -0.01512,-0.115917 -0.03427,-0.233851 -0.06149,-0.350776 -0.02621,-0.115917 -0.06249,-0.232842 -0.102813,-0.347751 -0.03931,-0.115917 -0.08165,-0.226794 -0.131037,-0.334648 -0.0504,-0.108861 -0.109869,-0.211674 -0.16934,-0.31348 -0.119949,-0.202603 -0.256025,-0.391094 -0.410245,-0.56245 C 11.9217,13.997205 11.751353,13.841977 11.568909,13.704893 11.385458,13.5668 11.190919,13.448867 10.985292,13.34807 10.780673,13.247272 10.565974,13.166634 10.34422,13.106156 10.122465,13.045676 9.8927475,13.005358 9.6607115,12.988223 c -0.115917,-0.0091 -0.231532,-0.0131 -0.348457,-0.01008 z m 7.1483565,3.05114 c -0.115917,0.002 -0.231834,0.0081 -0.348759,0.02218 -0.115917,0.0131 -0.23385,0.03125 -0.349767,0.05645 -0.116925,0.02621 -0.232842,0.06048 -0.34876,0.09878 -0.115917,0.0383 -0.229818,0.08064 -0.338679,0.130029 -0.108861,0.04939 -0.210667,0.10483 -0.31348,0.163292 -0.203611,0.117933 -0.393111,0.255018 -0.566482,0.407222 -0.173372,0.153212 -0.329608,0.320536 -0.468709,0.501972 -0.1391,0.182443 -0.262073,0.376982 -0.363878,0.581601 -0.102814,0.204619 -0.183452,0.420326 -0.245947,0.641072 -0.06249,0.221755 -0.108862,0.449557 -0.128013,0.681391 -0.02016,0.231834 -0.01714,0.4677 0.0091,0.704575 0.01411,0.118941 0.03427,0.235866 0.05947,0.354807 0.0252,0.117933 0.05645,0.23889 0.09475,0.355815 0.04536,0.143132 0.100797,0.278201 0.161276,0.410246 0.06048,0.132044 0.128013,0.259049 0.202603,0.380006 0.07459,0.120957 0.155228,0.234858 0.241914,0.34372 0.08769,0.109869 0.181435,0.215706 0.280217,0.31348 0.09878,0.09777 0.204619,0.187483 0.312472,0.271145 0.108861,0.08467 0.221754,0.161276 0.33868,0.232842 0.116925,0.07157 0.237882,0.137085 0.36287,0.194539 0.123981,0.05746 0.253002,0.108862 0.383031,0.152205 l -0.02117,0.004 c 0.124989,0.04334 0.247962,0.09777 0.367911,0.15926 0.120957,0.06149 0.23889,0.12902 0.352792,0.206634 0.113901,0.07761 0.226794,0.1643 0.332631,0.256026 0.105838,0.09072 0.206635,0.189499 0.303401,0.293321 0.09677,0.103821 0.191515,0.21369 0.277193,0.3286 0.08568,0.114909 0.163292,0.23385 0.235866,0.357831 0.07358,0.124989 0.142124,0.250985 0.201595,0.382022 0.04536,0.100798 0.08265,0.203611 0.119949,0.307432 l -0.0081,0.004 0.22881,0.671312 c 0,0 0.614865,1.864753 0.680383,4.114553 h 1.396046 c -0.06552,-2.513889 -0.757997,-4.573182 -0.757997,-4.573182 l -0.175388,-0.518099 0.0081,-0.002 -0.0121,-0.0373 c -0.04334,-0.138093 -0.07761,-0.279209 -0.105837,-0.421334 -0.02822,-0.142124 -0.05241,-0.28324 -0.06552,-0.427381 -0.0121,-0.14414 -0.01512,-0.289289 -0.0131,-0.432421 0.002,-0.144141 0.01209,-0.288281 0.02923,-0.429397 0.01713,-0.142125 0.04133,-0.282233 0.07257,-0.419318 0.03225,-0.137085 0.07157,-0.273161 0.118941,-0.404198 0.04637,-0.130029 0.09777,-0.256026 0.15926,-0.377991 0.06048,-0.120957 0.131037,-0.236874 0.206635,-0.347751 l -0.01613,0.0081 c 0.08064,-0.112893 0.153213,-0.23385 0.220747,-0.354807 0.06653,-0.120957 0.125997,-0.24393 0.179419,-0.371943 0.05241,-0.128013 0.100798,-0.258042 0.139101,-0.392102 0.03931,-0.133053 0.06753,-0.267114 0.09072,-0.405206 0.02318,-0.138093 0.0383,-0.278201 0.04536,-0.419318 0.0071,-0.141116 0.01008,-0.283241 0,-0.425365 -0.0091,-0.142125 -0.03125,-0.286265 -0.05846,-0.429397 -0.02722,-0.143133 -0.06149,-0.285257 -0.106845,-0.427382 -0.0373,-0.116925 -0.07963,-0.231834 -0.128013,-0.341703 -0.04838,-0.110877 -0.103821,-0.219739 -0.161276,-0.32356 -0.115917,-0.206635 -0.24897,-0.399158 -0.400166,-0.574546 -0.150188,-0.175387 -0.316504,-0.334648 -0.495924,-0.476772 -0.178411,-0.141116 -0.367911,-0.264089 -0.568498,-0.367911 -0.201595,-0.103821 -0.414277,-0.188491 -0.632,-0.251994 -0.217722,-0.0635 -0.441493,-0.105837 -0.669295,-0.125996 -0.113901,-0.01008 -0.22881,-0.0131 -0.344728,-0.0121 z"
     id="path8"
     inkscape:connector-curvature="0"
     style="fill:#ffffff;stroke-width:1" />
</svg>
