<?xml version="1.0" encoding="UTF-8" standalone="no"?>
<svg
   xmlns:dc="http://purl.org/dc/elements/1.1/"
   xmlns:cc="http://creativecommons.org/ns#"
   xmlns:rdf="http://www.w3.org/1999/02/22-rdf-syntax-ns#"
   xmlns:svg="http://www.w3.org/2000/svg"
   xmlns="http://www.w3.org/2000/svg"
   xmlns:sodipodi="http://sodipodi.sourceforge.net/DTD/sodipodi-0.dtd"
   xmlns:inkscape="http://www.inkscape.org/namespaces/inkscape"
   height="32"
   width="32"
   version="1"
   id="svg12"
   sodipodi:docname="scilab.svg"
   inkscape:version="0.92.1 r">
  <metadata
     id="metadata18">
    <rdf:RDF>
      <cc:Work
         rdf:about="">
        <dc:format>image/svg+xml</dc:format>
        <dc:type
           rdf:resource="http://purl.org/dc/dcmitype/StillImage" />
      </cc:Work>
    </rdf:RDF>
  </metadata>
  <defs
     id="defs16" />
  <sodipodi:namedview
     pagecolor="#ffffff"
     bordercolor="#666666"
     borderopacity="1"
     objecttolerance="10"
     gridtolerance="10"
     guidetolerance="10"
     inkscape:pageopacity="0"
     inkscape:pageshadow="2"
     inkscape:window-width="640"
     inkscape:window-height="480"
     id="namedview14"
     showgrid="false"
     inkscape:zoom="9.5"
     inkscape:cx="-4.1052632"
     inkscape:cy="16"
     inkscape:current-layer="svg12" />
  <rect
     style="opacity:1;fill:#e74c3c;fill-opacity:1;fill-rule:evenodd;stroke:none;stroke-width:1.03534329;stroke-linecap:round;stroke-linejoin:bevel;stroke-miterlimit:4;stroke-dasharray:none;stroke-dashoffset:0;stroke-opacity:1"
     id="rect4497-6"
     width="28.203388"
     height="28.203388"
     x="1.8983059"
     y="1.8983059"
     ry="5.575182" />
  <path
     style="fill:#ffffff;enable-background:new"
     d="m 4.00035,16.36655 c 0,-6.0632 3.1355,-9.1892 4.97,-9.1892 1.8346,0 2.1354,0.90557 2.1354,2.3938 0,2.8888 -3.4016,1.7023 -3.4016,7.1236 0,1.7956 0.78692,4.0154 2.8347,4.0154 1.643,0 2.2473,-1.9583 3.0803,-5.4633 1.382,-5.2693 2.781,-9.247 7.502,-9.247 4.587,0 6.879,3.8595 6.879,9.923 0,6.0633 -3.5513,9.9228 -5.3859,9.9228 -1.8345,0 -2.3054,-0.73182 -2.3054,-2.2201 0,-2.8888 3.8551,-2.4745 3.8551,-7.8957 0,-1.7956 -0.78692,-4.4402 -2.8346,-4.4402 -1.643,0 -2.2237,0.11512 -3.2315,3.9575 -0.548,4.105 -1.852,10.753 -6.841,10.753 -4.5867,0 -7.257,-3.57 -7.257,-9.633 z"
     id="path8"
     inkscape:connector-curvature="0" />
</svg>
