<?xml version="1.0" encoding="UTF-8" standalone="no"?>
<svg
   xmlns:dc="http://purl.org/dc/elements/1.1/"
   xmlns:cc="http://creativecommons.org/ns#"
   xmlns:rdf="http://www.w3.org/1999/02/22-rdf-syntax-ns#"
   xmlns:svg="http://www.w3.org/2000/svg"
   xmlns="http://www.w3.org/2000/svg"
   xmlns:sodipodi="http://sodipodi.sourceforge.net/DTD/sodipodi-0.dtd"
   xmlns:inkscape="http://www.inkscape.org/namespaces/inkscape"
   width="32"
   height="32"
   version="1.1"
   viewBox="0 0 32 32"
   id="svg42"
   sodipodi:docname="scout-app.svg"
   inkscape:version="0.92.1 r">
  <metadata
     id="metadata48">
    <rdf:RDF>
      <cc:Work
         rdf:about="">
        <dc:format>image/svg+xml</dc:format>
        <dc:type
           rdf:resource="http://purl.org/dc/dcmitype/StillImage" />
      </cc:Work>
    </rdf:RDF>
  </metadata>
  <defs
     id="defs46" />
  <sodipodi:namedview
     pagecolor="#ffffff"
     bordercolor="#666666"
     borderopacity="1"
     objecttolerance="10"
     gridtolerance="10"
     guidetolerance="10"
     inkscape:pageopacity="0"
     inkscape:pageshadow="2"
     inkscape:window-width="640"
     inkscape:window-height="480"
     id="namedview44"
     showgrid="false"
     inkscape:zoom="9.5"
     inkscape:cx="-5.0105984"
     inkscape:cy="13.170171"
     inkscape:current-layer="svg42" />
  <rect
     style="opacity:1;fill:#997954;fill-opacity:1;fill-rule:evenodd;stroke:none;stroke-width:1.03534329;stroke-linecap:round;stroke-linejoin:bevel;stroke-miterlimit:4;stroke-dasharray:none;stroke-dashoffset:0;stroke-opacity:1"
     id="rect4497-3"
     width="28.203388"
     height="28.203388"
     x="1.8983059"
     y="1.8983059"
     ry="5.575182"
     inkscape:export-filename="/home/ramil/3.png"
     inkscape:export-xdpi="71"
     inkscape:export-ydpi="71" />
  <g
     id="g4652"
     transform="translate(87.945312,-0.1894533)">
    <path
       id="path4626"
       d="m -68.316406,2.1640625 c -0.0043,-0.025386 -0.0081,-0.050409 -0.01953,-0.076172 h -0.263671 c 0.0645,0.015463 0.131245,0.026958 0.195312,0.042969 0.03151,0.00788 0.05646,0.025175 0.08789,0.033203 z"
       style="opacity:1;fill:#007eff;fill-opacity:1;fill-rule:evenodd;stroke:none;stroke-width:1.03534329;stroke-linecap:round;stroke-linejoin:bevel;stroke-miterlimit:4;stroke-dasharray:none;stroke-dashoffset:0;stroke-opacity:1"
       inkscape:connector-curvature="0" />
    <path
       id="path4629"
       d="m -80.59375,18.921875 c -0.06677,0.02411 -0.124347,0.07482 -0.191406,0.09766 -0.371379,-0.860026 -0.916186,-1.74081 -1.449219,-2.740234 -0.533033,-0.999424 -1.052916,-2.117823 -1.376953,-3.449219 -0.0067,-0.02788 -0.01488,-0.05202 -0.02148,-0.08008 -0.04083,-0.173035 -0.05946,-0.338273 -0.08984,-0.507812 -0.331997,0.334227 -1.196132,1.423873 -1.25586,1.382812 -0.112701,-0.07748 -0.66185,-2.237674 -1.068359,-3.494141 v 14.585938 c 0,3.088651 2.487521,5.574219 5.576172,5.574219 h 17.052734 c 3.088651,0 5.574219,-2.485568 5.574219,-5.574219 V 10.417969 c -0.360275,1.096115 -0.877029,3.135919 -0.980469,3.207031 -0.05973,0.04106 -0.923863,-1.048586 -1.255859,-1.382812 -0.03039,0.169539 -0.04901,0.334777 -0.08984,0.507812 -0.0066,0.02806 -0.01476,0.0522 -0.02148,0.08008 -0.324038,1.331396 -0.845875,2.449795 -1.378906,3.449219 -0.533033,0.999424 -1.077841,1.880208 -1.449219,2.740234 -0.04528,-0.01542 -0.08377,-0.0504 -0.128907,-0.06641 -0.0024,0.193617 -0.012,0.391966 -0.05078,0.5 -0.0016,-6e-4 -0.0024,-0.0015 -0.0039,-0.002 -0.0082,0.0236 -0.01719,0.05062 -0.02539,0.07422 -0.866805,2.510753 -1.25381,4.41215 -1.839843,5.824218 -0.293017,0.706035 -0.636065,1.288533 -1.113282,1.765625 -0.477216,0.477093 -1.08891,0.848316 -1.919921,1.126954 -1.33702,0.44515 -2.41733,0.657611 -3.800782,0.638671 -1.383452,0.01895 -2.461809,-0.193521 -3.798828,-0.638671 -0.831011,-0.278638 -1.442705,-0.649861 -1.919922,-1.126954 -0.477216,-0.477092 -0.820264,-1.05959 -1.113281,-1.765625 -0.586034,-1.412068 -0.973039,-3.313465 -1.839844,-5.824218 -0.0082,-0.02385 -0.0209,-0.04841 -0.0293,-0.07227 -0.05467,-0.152305 -0.02807,-0.343171 0.0098,-0.53125 z"
       style="opacity:1;fill:#997954;fill-opacity:1;fill-rule:evenodd;stroke:none;stroke-width:1.03534329;stroke-linecap:round;stroke-linejoin:bevel;stroke-miterlimit:4;stroke-dasharray:none;stroke-dashoffset:0;stroke-opacity:1"
       inkscape:connector-curvature="0" />
    <path
       id="path4624"
       d="m -80.59375,18.921875 c -0.03784,0.188079 -0.06444,0.378945 -0.0098,0.53125 0.0084,0.02386 0.02107,0.04842 0.0293,0.07227 0.866805,2.510753 1.25381,4.41215 1.839844,5.824218 0.293017,0.706035 0.636065,1.288533 1.113281,1.765625 0.477217,0.477093 1.088911,0.848316 1.919922,1.126954 1.337019,0.44515 2.415376,0.65762 3.798828,0.638671 1.383452,0.01894 2.463762,-0.193521 3.800782,-0.638671 0.831011,-0.278638 1.442705,-0.649861 1.919921,-1.126954 0.477217,-0.477092 0.820265,-1.05959 1.113282,-1.765625 0.586033,-1.412068 0.973038,-3.313465 1.839843,-5.824218 0.0082,-0.0236 0.01724,-0.05062 0.02539,-0.07422 0.0015,4.86e-4 0.0023,0.0014 0.0039,0.002 0.03878,-0.108034 0.04837,-0.306383 0.05078,-0.5 -0.994641,-0.352609 -1.961686,-0.826549 -2.847656,-1.449219 -0.926175,-0.650926 -1.770949,-1.443732 -2.484375,-2.359375 -0.713426,-0.915643 -1.296471,-1.95412 -1.701172,-3.103515 -0.404701,-1.149396 -0.630859,-2.4095341 -0.630859,-3.7617191 -0.0041,-1.0147801 0.04568,-2.1495913 0.201172,-3.2675781 0.143787,-1.0338098 0.408699,-2.03085 0.777344,-2.9238282 h -4.134766 c 0.368641,0.8929782 0.633568,1.8900184 0.777344,2.9238282 0.155482,1.1179868 0.205222,2.252798 0.201172,3.2675781 0,1.352185 -0.226159,2.6123231 -0.63086,3.7617191 -0.404701,1.149395 -0.987746,2.187872 -1.701172,3.103515 -0.713426,0.915643 -1.558199,1.708449 -2.484375,2.359375 -0.866624,0.609074 -1.815449,1.067059 -2.787109,1.417969 z"
       style="opacity:1;fill:#d7cec7;fill-opacity:1;fill-rule:evenodd;stroke:none;stroke-width:1.03534329;stroke-linecap:round;stroke-linejoin:bevel;stroke-miterlimit:4;stroke-dasharray:none;stroke-dashoffset:0;stroke-opacity:1"
       inkscape:connector-curvature="0" />
    <path
       id="path4621"
       d="m -69.833984,2.0878906 c -0.368645,0.8929782 -0.633557,1.8900184 -0.777344,2.9238282 -0.155495,1.1179868 -0.205272,2.252798 -0.201172,3.2675781 0,1.352185 0.226158,2.6123231 0.630859,3.7617191 0.404701,1.149395 0.987746,2.187872 1.701172,3.103515 0.713426,0.915643 1.5582,1.708449 2.484375,2.359375 0.926176,0.650927 1.933613,1.160379 2.976563,1.515625 0.371378,-0.860026 0.916186,-1.74081 1.449219,-2.740234 0.533032,-0.999424 1.054868,-2.117823 1.378906,-3.449219 0.0067,-0.02788 0.01488,-0.05202 0.02148,-0.08008 0.04083,-0.173035 0.05946,-0.338272 0.08984,-0.507812 C -60.8792,11.437694 -61.682932,10.64131 -63.105469,8.9160156 -65.119,6.473945 -67.082031,3.9960938 -67.082031,3.9960938 c 0,0 -0.739366,-0.7868959 -1.197266,-1.6875 -0.02448,-0.048148 -0.02899,-0.096359 -0.03711,-0.1445313 -0.03143,-0.00803 -0.05638,-0.025328 -0.08789,-0.033203 -0.06407,-0.016011 -0.130807,-0.027505 -0.195312,-0.042969 z"
       style="opacity:1;fill:#de8c4a;fill-opacity:1;fill-rule:evenodd;stroke:none;stroke-width:1.03534329;stroke-linecap:round;stroke-linejoin:bevel;stroke-miterlimit:4;stroke-dasharray:none;stroke-dashoffset:0;stroke-opacity:1"
       inkscape:connector-curvature="0" />
    <path
       id="path4619"
       d="m -75.203125,2.0878906 h -0.265625 c -0.01142,0.025753 -0.01525,0.050783 -0.01953,0.076172 0.03202,-0.00818 0.05773,-0.025178 0.08984,-0.033203 0.06418,-0.016038 0.130697,-0.02748 0.195313,-0.042969 z"
       style="opacity:1;fill:#007eff;fill-opacity:1;fill-rule:evenodd;stroke:none;stroke-width:1.03534329;stroke-linecap:round;stroke-linejoin:bevel;stroke-miterlimit:4;stroke-dasharray:none;stroke-dashoffset:0;stroke-opacity:1"
       inkscape:connector-curvature="0" />
    <path
       id="path4616"
       d="m -75.203125,2.0878906 c -0.06462,0.015489 -0.131136,0.026931 -0.195313,0.042969 -0.03211,0.00802 -0.05782,0.025019 -0.08984,0.033203 -0.0081,0.048178 -0.01264,0.0964 -0.03711,0.1445313 -0.457899,0.900604 -1.195312,1.6875 -1.195312,1.6875 0,0 -1.963031,2.4778512 -3.976563,4.9199218 -1.422536,1.7252944 -2.226268,2.5216784 -3.02539,3.3261724 0.03039,0.16954 0.04902,0.334777 0.08984,0.507812 0.0066,0.02806 0.01475,0.0522 0.02148,0.08008 0.324037,1.331396 0.84392,2.449795 1.376953,3.449219 0.533033,0.999424 1.07784,1.880208 1.449219,2.740234 1.042949,-0.355246 2.05234,-0.864698 2.978515,-1.515625 0.926176,-0.650926 1.770949,-1.443732 2.484375,-2.359375 0.713426,-0.915643 1.296471,-1.95412 1.701172,-3.103515 0.404701,-1.149396 0.63086,-2.4095341 0.63086,-3.7617191 0.0041,-1.0147801 -0.04569,-2.1495913 -0.201172,-3.2675781 -0.143776,-1.0338098 -0.408703,-2.03085 -0.777344,-2.9238282 z"
       style="opacity:1;fill:#de8c4a;fill-opacity:1;fill-rule:evenodd;stroke:none;stroke-width:1.03534329;stroke-linecap:round;stroke-linejoin:bevel;stroke-miterlimit:4;stroke-dasharray:none;stroke-dashoffset:0;stroke-opacity:1"
       inkscape:connector-curvature="0" />
    <path
       id="path4613"
       d="m -86.046875,10.130859 c 0.406509,1.256467 0.955658,3.416662 1.068359,3.494141 0.203493,0.139896 2.267719,-2.266914 4.28125,-4.7089844 2.013532,-2.4420706 3.976563,-4.9199218 3.976563,-4.9199218 0,0 0.737413,-0.7868959 1.195312,-1.6875 0.03737,-0.073496 0.02356,-0.1460805 0.05664,-0.2207032 h -5.001953 c -3.088651,0 -5.576172,2.4875211 -5.576172,5.5761719 z"
       style="opacity:1;fill:#86522b;fill-opacity:1;fill-rule:evenodd;stroke:none;stroke-width:1.03534329;stroke-linecap:round;stroke-linejoin:bevel;stroke-miterlimit:4;stroke-dasharray:none;stroke-dashoffset:0;stroke-opacity:1"
       inkscape:connector-curvature="0" />
    <path
       id="rect4497-6-3"
       d="m -68.335938,2.0878906 c 0.03309,0.074649 0.01926,0.1471816 0.05664,0.2207032 0.4579,0.9006041 1.197266,1.6875 1.197266,1.6875 0,0 1.963031,2.4778512 3.976562,4.9199218 2.013532,2.4420704 4.077758,4.8488804 4.28125,4.7089844 0.10344,-0.07111 0.620194,-2.110916 0.980469,-3.207031 V 7.6640625 c 0,-3.0886508 -2.485568,-5.5761719 -5.574219,-5.5761719 z"
       style="opacity:1;fill:#86522b;fill-opacity:1;fill-rule:evenodd;stroke:none;stroke-width:1.03534329;stroke-linecap:round;stroke-linejoin:bevel;stroke-miterlimit:4;stroke-dasharray:none;stroke-dashoffset:0;stroke-opacity:1"
       inkscape:connector-curvature="0" />
    <path
       id="path6-5"
       d="m -72.701565,21.256107 c -0.761677,0 -1.378668,0.552679 -1.378668,1.235058 0,0.689403 1.419112,2.032898 2.178638,2.032898 0.759525,0 2.178637,-1.343495 2.178637,-2.032898 0,-0.682379 -0.616991,-1.235058 -1.378668,-1.235058 h -0.799969 z"
       style="fill:#3f3f3f;stroke-width:1"
       inkscape:connector-curvature="0" />
    <circle
       id="circle12-5"
       r="2.1786375"
       cy="13.630876"
       cx="-78.437508"
       style="fill:#3f3f3f;stroke-width:1" />
    <circle
       id="circle14-6"
       r="0.54465938"
       cy="13.086216"
       cx="-78.98217"
       style="fill:#ffffff;stroke-width:1" />
    <path
       id="path16-2"
       d="m -69.722972,27.325168 c 0,0.859449 -0.975405,1.556171 -2.17863,1.556171 -1.203224,0 -2.178631,-0.696722 -2.178631,-1.556171 0,-0.185193 0.04529,-0.362829 0.128394,-0.527568 0.302546,-0.599787 1.06178,-0.265617 2.005736,-0.265617 0.942958,0 1.790505,-0.335076 2.093791,0.263717 0.08371,0.165273 0.129354,0.343564 0.129354,0.529468 z"
       style="fill:#d86f6f;stroke-width:1"
       inkscape:connector-curvature="0" />
    <path
       id="path18-9"
       d="m -75.714211,26.158041 c 0,0 0.96359,0.536643 1.867404,0.776663 0.560521,0.148854 1.945212,-0.778084 1.945212,-0.778084 0,0 1.384691,0.926938 1.945212,0.778084 0.903814,-0.24002 1.867404,-0.776663 1.867404,-0.776663"
       style="fill:none;stroke:#79431b;stroke-width:1;stroke-linecap:round;stroke-linejoin:round"
       inkscape:connector-curvature="0" />
    <circle
       id="circle30-7"
       transform="scale(-1,1)"
       r="2.1786375"
       cy="13.630876"
       cx="65.365685"
       style="fill:#3f3f3f;stroke-width:1" />
    <circle
       id="circle32-0"
       transform="scale(-1,1)"
       r="0.54465938"
       cy="13.086216"
       cx="65.910339"
       style="fill:#ffffff;stroke-width:1" />
  </g>
</svg>
