<?xml version="1.0" encoding="UTF-8" standalone="no"?>
<svg
   xmlns:dc="http://purl.org/dc/elements/1.1/"
   xmlns:cc="http://creativecommons.org/ns#"
   xmlns:rdf="http://www.w3.org/1999/02/22-rdf-syntax-ns#"
   xmlns:svg="http://www.w3.org/2000/svg"
   xmlns="http://www.w3.org/2000/svg"
   xmlns:sodipodi="http://sodipodi.sourceforge.net/DTD/sodipodi-0.dtd"
   xmlns:inkscape="http://www.inkscape.org/namespaces/inkscape"
   height="32"
   width="32"
   version="1"
   id="svg20"
   sodipodi:docname="screencloud.svg"
   inkscape:version="0.92.1 r">
  <metadata
     id="metadata26">
    <rdf:RDF>
      <cc:Work
         rdf:about="">
        <dc:format>image/svg+xml</dc:format>
        <dc:type
           rdf:resource="http://purl.org/dc/dcmitype/StillImage" />
      </cc:Work>
    </rdf:RDF>
  </metadata>
  <defs
     id="defs24" />
  <sodipodi:namedview
     pagecolor="#ffffff"
     bordercolor="#666666"
     borderopacity="1"
     objecttolerance="10"
     gridtolerance="10"
     guidetolerance="10"
     inkscape:pageopacity="0"
     inkscape:pageshadow="2"
     inkscape:window-width="640"
     inkscape:window-height="480"
     id="namedview22"
     showgrid="false"
     inkscape:zoom="13.435029"
     inkscape:cx="-14.900357"
     inkscape:cy="8.3840245"
     inkscape:current-layer="svg20" />
  <rect
     style="opacity:1;fill:#569cde;fill-opacity:1;fill-rule:evenodd;stroke:none;stroke-width:1.03534329;stroke-linecap:round;stroke-linejoin:bevel;stroke-miterlimit:4;stroke-dasharray:none;stroke-dashoffset:0;stroke-opacity:1"
     id="rect4497-6"
     width="28.203388"
     height="28.203388"
     x="1.8983059"
     y="1.8983059"
     ry="5.575182" />
  <g
     id="g4513"
     transform="translate(43.691655,-0.44654393)">
    <path
       inkscape:connector-curvature="0"
       style="fill:#ffffff;stroke-width:0.99999994"
       id="path2"
       d="m -29.165922,7.7960469 a 7.3724166,7.2087774 0 0 0 -7.373138,7.2087771 7.3724166,7.2087774 0 0 0 0.246901,1.833913 c -1.310772,0.629327 -2.212734,1.955742 -2.212734,3.501304 v 0.863539 c 0,2.156866 1.752093,3.893461 3.928207,3.893461 h 13.770206 c 2.175609,0 3.928063,-1.736595 3.928063,-3.893461 v -0.863539 c 0,-1.634446 -1.006922,-3.025524 -2.441252,-3.604389 a 4.4235942,4.3252664 0 0 0 0.966697,-2.691758 4.4235942,4.3252664 0 0 0 -4.424027,-4.3254824 4.4235942,4.3252664 0 0 0 -1.208191,0.1660902 7.3724166,7.2087774 0 0 0 -5.180948,-2.0884549 z" />
    <path
       style="fill:#aaceee;stroke-width:0.99999994"
       inkscape:connector-curvature="0"
       id="path6"
       d="m -27.691727,11.400436 a 5.7670219,5.7670219 0 0 0 -5.767022,5.767022 5.7670219,5.7670219 0 0 0 5.767022,5.767022 5.7670219,5.7670219 0 0 0 5.767022,-5.767022 5.7670219,5.7670219 0 0 0 -5.767022,-5.767022 z m 0,1.441755 a 4.3252664,4.3252664 0 0 1 4.325266,4.325267 4.3252664,4.3252664 0 0 1 -4.325266,4.325266 4.3252664,4.3252664 0 0 1 -4.325267,-4.325266 4.3252664,4.3252664 0 0 1 4.325267,-4.325267 z" />
    <path
       style="fill:#569cde;fill-opacity:1;stroke-width:0.99999994"
       inkscape:connector-curvature="0"
       id="path10"
       d="m -27.691727,14.283947 a 2.883511,2.883511 0 0 0 -2.883511,2.883511 2.883511,2.883511 0 0 0 2.883511,2.883511 2.883511,2.883511 0 0 0 2.883511,-2.883511 2.883511,2.883511 0 0 0 -2.883511,-2.883511 z" />
    <circle
       style="fill:#569cde;fill-opacity:1;stroke-width:0.99999994"
       id="circle14"
       r="1.0813166"
       cx="-32.377434"
       cy="11.039997" />
  </g>
</svg>
