<?xml version="1.0" encoding="UTF-8" standalone="no"?>
<svg
   xmlns:dc="http://purl.org/dc/elements/1.1/"
   xmlns:cc="http://creativecommons.org/ns#"
   xmlns:rdf="http://www.w3.org/1999/02/22-rdf-syntax-ns#"
   xmlns:svg="http://www.w3.org/2000/svg"
   xmlns="http://www.w3.org/2000/svg"
   xmlns:sodipodi="http://sodipodi.sourceforge.net/DTD/sodipodi-0.dtd"
   xmlns:inkscape="http://www.inkscape.org/namespaces/inkscape"
   height="32"
   viewBox="0 0 32 32"
   width="32"
   version="1.1"
   id="svg22"
   sodipodi:docname="seamonkey.svg"
   inkscape:version="0.92.1 r">
  <metadata
     id="metadata28">
    <rdf:RDF>
      <cc:Work
         rdf:about="">
        <dc:format>image/svg+xml</dc:format>
        <dc:type
           rdf:resource="http://purl.org/dc/dcmitype/StillImage" />
      </cc:Work>
    </rdf:RDF>
  </metadata>
  <defs
     id="defs26" />
  <sodipodi:namedview
     pagecolor="#ffffff"
     bordercolor="#666666"
     borderopacity="1"
     objecttolerance="10"
     gridtolerance="10"
     guidetolerance="10"
     inkscape:pageopacity="0"
     inkscape:pageshadow="2"
     inkscape:window-width="640"
     inkscape:window-height="480"
     id="namedview24"
     showgrid="false"
     inkscape:zoom="9.5"
     inkscape:cx="-10.927597"
     inkscape:cy="19.259761"
     inkscape:current-layer="svg22" />
  <rect
     style="opacity:1;fill:#3a68b6;fill-opacity:1;fill-rule:evenodd;stroke:none;stroke-width:1.03534329;stroke-linecap:round;stroke-linejoin:bevel;stroke-miterlimit:4;stroke-dasharray:none;stroke-dashoffset:0;stroke-opacity:1"
     id="rect4497-6"
     width="28.203388"
     height="28.203388"
     x="1.8983059"
     y="1.8983059"
     ry="5.575182" />
  <g
     id="g4565"
     transform="translate(46.630859,2.1054686)">
    <path
       sodipodi:nodetypes="cccccsc"
       inkscape:connector-curvature="0"
       id="path4549"
       d="m -22.209602,15.902652 c 0.249715,0.08559 0.742461,0.375612 0.965461,0.429379 2.510867,0.605383 3.813772,0.68704 4.714844,0.644531 v -1.71289 c -0.284545,-0.08862 -0.4959,-0.208318 -0.892578,-0.240234 -0.705511,-0.05677 -1.593933,4.77e-4 -2.685547,0.261718 -0.651834,0.155994 -1.454868,0.367973 -2.10218,0.617496 z"
       style="opacity:1;fill:#595afd;fill-opacity:1;fill-rule:evenodd;stroke:none;stroke-width:1.03534329;stroke-linecap:round;stroke-linejoin:bevel;stroke-miterlimit:4;stroke-dasharray:none;stroke-dashoffset:0;stroke-opacity:1" />
    <path
       sodipodi:nodetypes="csssscccccccccc"
       inkscape:connector-curvature="0"
       id="path4547"
       d="m -44.732422,15.982422 v 6.439453 c 0,3.088651 2.485568,5.574219 5.574219,5.574219 h 17.052734 c 3.088651,0 5.576172,-2.485568 5.576172,-5.574219 v -5.445313 c -0.901072,0.04251 -2.203977,-0.03915 -4.714844,-0.644531 -0.223,-0.05377 -0.715746,-0.343784 -0.965461,-0.429379 -1.443513,0.55644 -2.716793,1.284341 -4.093132,1.88641 -0.996765,0.436029 -1.969197,0.808179 -2.902344,1.00586 -0.933147,0.19768 -1.828059,0.221867 -2.673828,-0.03906 -1.192293,-0.367835 -2.673662,-1.2147 -4.09961,-1.978515 -0.529964,0.07179 -1.049477,0.183617 -1.591796,0.197265 -0.995442,0.02505 -2.011415,-0.06266 -3.039063,-0.308593 -2.180871,-0.521921 -3.3238,-0.694964 -4.123047,-0.683594 z"
       style="opacity:1;fill:#4882e3;fill-opacity:1;fill-rule:evenodd;stroke:none;stroke-width:1.03534329;stroke-linecap:round;stroke-linejoin:bevel;stroke-miterlimit:4;stroke-dasharray:none;stroke-dashoffset:0;stroke-opacity:1" />
    <path
       id="path4540"
       d="m -44.732422,15.982422 c 0.799247,-0.01137 1.942176,0.161673 4.123047,0.683594 1.027648,0.245933 2.043621,0.333646 3.039063,0.308593 0.542319,-0.01365 1.061832,-0.125472 1.591796,-0.197265 -0.597088,-0.319833 -1.133984,-0.508087 -1.716796,-0.828125 -0.987334,-0.542172 -1.929647,-1.055318 -2.75,-1.439453 -0.820355,-0.384135 -1.518807,-0.640977 -2.013672,-0.667969 -0.599371,-0.03269 -1.146853,0.09044 -1.623047,0.277344 -0.25946,0.101838 -0.436509,0.234587 -0.650391,0.359375 z"
       style="opacity:1;fill:#595afd;fill-opacity:1;fill-rule:evenodd;stroke:none;stroke-width:1.03534329;stroke-linecap:round;stroke-linejoin:bevel;stroke-miterlimit:4;stroke-dasharray:none;stroke-dashoffset:0;stroke-opacity:1"
       inkscape:connector-curvature="0" />
    <path
       id="path4538"
       d="m -16.529297,12.861328 c -0.467275,0.01952 -0.911569,-0.0028 -1.453125,0.177734 -0.755795,0.251933 -2.358898,0.680496 -4.230469,1.033204 -1.87157,0.352707 -4.011437,0.630558 -5.847656,0.580078 -1.177866,-0.0767 -2.291826,-0.366091 -3.371094,-0.75586 -1.079267,-0.389768 -2.125224,-0.881186 -3.166015,-1.361328 -1.040792,-0.480142 -2.076233,-0.949057 -3.138672,-1.296875 -1.06244,-0.347818 -2.150711,-0.57361 -3.294922,-0.566406 h -0.002 c -0.650221,0.004 -1.321862,0.195096 -2.015625,0.470703 -0.542238,0.215412 -1.110694,0.49475 -1.683594,0.763672 v 2.572266 c 0.213882,-0.124788 0.390931,-0.257537 0.650391,-0.359375 0.476194,-0.186908 1.023676,-0.310037 1.623047,-0.277344 0.494865,0.02699 1.193318,0.283834 2.013672,0.667969 0.820353,0.384135 1.762666,0.897281 2.75,1.439453 1.974666,1.084344 4.124864,2.284781 5.816406,2.80664 0.845769,0.26093 1.740681,0.236743 2.673828,0.03906 0.933147,-0.197681 1.905579,-0.569832 2.902344,-1.00586 1.993528,-0.872054 4.08988,-2.000044 6.195312,-2.503906 1.091614,-0.261241 1.980036,-0.318483 2.685547,-0.261718 0.396678,0.03192 0.608033,0.151617 0.892578,0.240234 z"
       style="opacity:1;fill:#9d83c0;fill-opacity:1;fill-rule:evenodd;stroke:none;stroke-width:1.03534329;stroke-linecap:round;stroke-linejoin:bevel;stroke-miterlimit:4;stroke-dasharray:none;stroke-dashoffset:0;stroke-opacity:1"
       inkscape:connector-curvature="0" />
    <path
       id="path4544"
       d="m -16.529297,11.767578 c -1.057678,0.28752 -2.431481,0.674961 -4.103515,1.058594 -1.896507,0.435136 -3.982177,0.820401 -5.791016,0.90039 -1.609267,-0.08239 -3.116242,-0.407238 -4.589844,-0.785156 -1.473602,-0.377917 -2.915006,-0.808318 -4.394531,-1.099609 -0.322545,-0.0635 -0.680888,-0.01027 -1.007813,-0.05859 0.605746,0.24929 1.215314,0.473754 1.81836,0.751953 1.040791,0.480142 2.086748,0.97156 3.166015,1.361328 1.079268,0.389769 2.193228,0.679162 3.371094,0.75586 1.836219,0.05048 3.976086,-0.227371 5.847656,-0.580078 1.871571,-0.352708 3.474674,-0.78127 4.230469,-1.033204 0.541556,-0.180507 0.98585,-0.15821 1.453125,-0.177734 z"
       style="opacity:1;fill:#7767c0;fill-opacity:1;fill-rule:evenodd;stroke:none;stroke-width:1.03534329;stroke-linecap:round;stroke-linejoin:bevel;stroke-miterlimit:4;stroke-dasharray:none;stroke-dashoffset:0;stroke-opacity:1"
       inkscape:connector-curvature="0" />
    <path
       id="rect4497-3"
       d="m -39.158203,-0.20703125 c -3.088651,0 -5.574219,2.48752105 -5.574219,5.57617185 V 11.90625 c 0.5729,-0.268922 1.141356,-0.54826 1.683594,-0.763672 0.693763,-0.275607 1.365404,-0.466653 2.015625,-0.470703 h 0.002 c 1.144211,-0.0072 2.232482,0.218588 3.294922,0.566406 0.446851,0.146289 0.880606,0.363965 1.320312,0.544922 0.326925,0.04833 0.685268,-0.0049 1.007813,0.05859 1.479525,0.291291 2.920929,0.721692 4.394531,1.099609 1.473602,0.377918 2.980577,0.702769 4.589844,0.785156 1.808839,-0.07999 3.894509,-0.465254 5.791016,-0.90039 1.672034,-0.383633 3.045837,-0.771074 4.103515,-1.058594 V 5.3691406 c 0,-3.0886508 -2.487521,-5.57617185 -5.576172,-5.57617185 z"
       style="opacity:1;fill:#3a68b6;fill-opacity:1;fill-rule:evenodd;stroke:none;stroke-width:1.03534329;stroke-linecap:round;stroke-linejoin:bevel;stroke-miterlimit:4;stroke-dasharray:none;stroke-dashoffset:0;stroke-opacity:1"
       inkscape:connector-curvature="0" />
  </g>
  <path
     d="m 21.821794,6.4729361 c -1.235501,-0.061265 -2.444689,0.6466358 -3.164267,1.6373705 -3.89e-4,3.035e-4 -7.77e-4,6.084e-4 -0.0012,9.146e-4 -0.858219,1.1979848 -1.310689,2.8567468 -1.685983,4.2291558 -1e-6,3.05e-4 -1e-6,6.09e-4 0,9.15e-4 -0.518853,1.921746 -1.394998,3.740559 -2.497892,5.402156 -2.286116,3.427357 -5.2575193,6.409946 -9.1201263,7.915587 -0.02456,0.0099 -0.04703,0.02429 -0.06622,0.04251 l -0.155356,0.144723 c -0.146736,0.137868 -0.03327,0.383148 0.166807,0.36058 2.708633,-0.318223 4.451606,-2.334449 6.4496483,-3.935391 1.606155,-0.157333 3.452132,-0.258298 5.004832,-0.672837 7.79e-4,-3e-4 0.0016,-6.06e-4 0.0023,-9.15e-4 2.18214,-0.613439 4.549096,-1.581081 6.038206,-3.420194 1.484388,-1.820372 1.73357,-4.353713 1.191303,-6.548489 -0.184392,-0.877085 -0.94094,-1.7760508 -1.899311,-1.9656099 -0.02576,-0.090644 -0.05064,-0.1800483 -0.07604,-0.2714569 0.207812,-0.22769 0.879425,-0.4726836 1.085577,-0.7710362 0.229085,-0.3315429 0.389699,-0.9914206 0.272278,-1.4459043 -0.0063,-0.024005 -0.01686,-0.046694 -0.03111,-0.067009 -0.252704,-0.364531 -1.09757,-0.6343329 -1.514017,-0.6350746 z"
     style="fill:#50beee;stroke-width:1"
     id="path18"
     inkscape:connector-curvature="0" />
</svg>
