<?xml version="1.0" encoding="UTF-8" standalone="no"?>
<svg
   xmlns:dc="http://purl.org/dc/elements/1.1/"
   xmlns:cc="http://creativecommons.org/ns#"
   xmlns:rdf="http://www.w3.org/1999/02/22-rdf-syntax-ns#"
   xmlns:svg="http://www.w3.org/2000/svg"
   xmlns="http://www.w3.org/2000/svg"
   xmlns:sodipodi="http://sodipodi.sourceforge.net/DTD/sodipodi-0.dtd"
   xmlns:inkscape="http://www.inkscape.org/namespaces/inkscape"
   height="32"
   width="32"
   version="1"
   id="svg12"
   sodipodi:docname="security-low.svg"
   inkscape:version="0.92.1 r">
  <metadata
     id="metadata18">
    <rdf:RDF>
      <cc:Work
         rdf:about="">
        <dc:format>image/svg+xml</dc:format>
        <dc:type
           rdf:resource="http://purl.org/dc/dcmitype/StillImage" />
      </cc:Work>
    </rdf:RDF>
  </metadata>
  <defs
     id="defs16" />
  <sodipodi:namedview
     pagecolor="#ffffff"
     bordercolor="#666666"
     borderopacity="1"
     objecttolerance="10"
     gridtolerance="10"
     guidetolerance="10"
     inkscape:pageopacity="0"
     inkscape:pageshadow="2"
     inkscape:window-width="640"
     inkscape:window-height="480"
     id="namedview14"
     showgrid="false"
     inkscape:zoom="9.5"
     inkscape:cx="-4.1052632"
     inkscape:cy="16"
     inkscape:current-layer="svg12" />
  <rect
     style="opacity:1;fill:#f46868;fill-opacity:1;fill-rule:evenodd;stroke:none;stroke-width:1.03534329;stroke-linecap:round;stroke-linejoin:bevel;stroke-miterlimit:4;stroke-dasharray:none;stroke-dashoffset:0;stroke-opacity:1"
     id="rect4497-3"
     width="28.203388"
     height="28.203388"
     x="1.8983059"
     y="1.8983059"
     ry="5.575182" />
  <path
     style="fill:#ffffff;stroke-width:0.07316787"
     d="M 15.893614,4.5976404 6.548827,7.943644 c -0.12752,0.04567 -0.212771,0.168109 -0.212771,0.30543 0,3.386249 0.88235,7.300965 2.421134,10.739811 1.248148,2.789747 3.492791,6.510974 7.096958,8.395895 0.04587,0.02397 0.09571,0.03604 0.145852,0.03604 0.05014,0 0.09999,-0.01207 0.145851,-0.03604 3.603975,-1.88531 5.848554,-5.606472 7.096958,-8.395895 1.53872,-3.439105 2.421135,-7.354081 2.421135,-10.739811 0,-0.137321 -0.08524,-0.259765 -0.212772,-0.30543 L 16.106386,4.5976404 c -0.06864,-0.024614 -0.144131,-0.024614 -0.212772,0 z m 0.04805,5.2626616 c 0.03744,-0.01325 0.07924,-0.01325 0.116682,0 l 5.09622,1.801694 h 0.0018 c 0.06955,0.02459 0.114966,0.09079 0.114966,0.164727 0,1.823075 -0.480225,3.930765 -1.319527,5.78258 -0.680946,1.501988 -1.905264,3.504517 -3.871068,4.519678 -0.02502,0.01294 -0.0533,0.02059 -0.08065,0.02059 -0.02735,0 -0.05391,-0.0076 -0.07893,-0.02059 -1.965909,-1.014951 -3.19026,-3.017515 -3.871068,-4.519678 -0.839337,-1.851676 -1.321242,-3.959226 -1.321242,-5.78258 0,-0.07394 0.04713,-0.140136 0.11668,-0.164727 z"
     id="path2-3"
     inkscape:connector-curvature="0" />
</svg>
