<?xml version="1.0" encoding="UTF-8" standalone="no"?>
<svg
   xmlns:dc="http://purl.org/dc/elements/1.1/"
   xmlns:cc="http://creativecommons.org/ns#"
   xmlns:rdf="http://www.w3.org/1999/02/22-rdf-syntax-ns#"
   xmlns:svg="http://www.w3.org/2000/svg"
   xmlns="http://www.w3.org/2000/svg"
   xmlns:sodipodi="http://sodipodi.sourceforge.net/DTD/sodipodi-0.dtd"
   xmlns:inkscape="http://www.inkscape.org/namespaces/inkscape"
   height="32"
   viewBox="0 0 32 32"
   width="32"
   version="1.1"
   id="svg10"
   sodipodi:docname="shutter.svg"
   inkscape:version="0.92.1 r">
  <metadata
     id="metadata16">
    <rdf:RDF>
      <cc:Work
         rdf:about="">
        <dc:format>image/svg+xml</dc:format>
        <dc:type
           rdf:resource="http://purl.org/dc/dcmitype/StillImage" />
      </cc:Work>
    </rdf:RDF>
  </metadata>
  <defs
     id="defs14" />
  <sodipodi:namedview
     pagecolor="#ffffff"
     bordercolor="#666666"
     borderopacity="1"
     objecttolerance="10"
     gridtolerance="10"
     guidetolerance="10"
     inkscape:pageopacity="0"
     inkscape:pageshadow="2"
     inkscape:window-width="640"
     inkscape:window-height="480"
     id="namedview12"
     showgrid="false"
     inkscape:zoom="9.5"
     inkscape:cx="-4.1052632"
     inkscape:cy="16"
     inkscape:current-layer="svg10" />
  <rect
     style="opacity:1;fill:#37a0f2;fill-opacity:1;fill-rule:evenodd;stroke:none;stroke-width:1.03534329;stroke-linecap:round;stroke-linejoin:bevel;stroke-miterlimit:4;stroke-dasharray:none;stroke-dashoffset:0;stroke-opacity:1"
     id="rect4497-3"
     width="28.203388"
     height="28.203388"
     x="1.8983059"
     y="1.8983059"
     ry="5.575182"
     inkscape:export-filename="/home/ramil/3.png"
     inkscape:export-xdpi="71"
     inkscape:export-ydpi="71" />
  <g
     id="g4501"
     transform="translate(45.236649,-0.52631577)">
    <path
       inkscape:connector-curvature="0"
       id="path4"
       style="fill:#ffffff;stroke-width:1"
       d="m -22.198375,5.5798457 c -3.059523,0.035688 -7.779683,0.8930775 -9.25514,2.6651651 h -0.0032 c -1.177323,1.7252335 -1.327203,8.4770112 -1.021469,8.0610152 2.505617,-3.427587 8.511167,-7.6608928 12.097989,-9.362097 1.936504,-0.922635 0.561511,-1.3918346 -1.818119,-1.3640286 z m -2.954172,5.5913133 c -2.070691,0.150273 -5.712849,3.704389 -5.201354,3.684027 4.235437,-0.147252 6.880942,0.09685 10.18538,1.132165 0.490235,0.153295 -0.528216,-4.468015 -4.983918,-4.816138 z m -2.240067,3.700065 c -0.109234,0.0057 -0.15448,0.03462 -0.117732,0.08766 2.420358,3.504546 3.650358,5.878131 4.581954,9.237845 0.138347,0.498385 3.436072,-2.872835 1.306679,-6.83328 -1.092067,-1.464195 -5.005802,-2.532648 -5.770955,-2.492143 z m 1.260031,2.808464 c -0.02393,-0.0063 -0.0409,0.0052 -0.04879,0.03635 -1.072191,4.132809 -2.061947,6.620355 -3.989056,9.517 -0.287977,0.427403 4.396993,0.766582 6.000121,-3.440285 l 0.0011,0.0021 c 0.421405,-1.916865 -1.604159,-6.020993 -1.963112,-6.115686 z m -1.176239,2.640589 c -0.0098,-0.0024 -0.02168,-5e-4 -0.03606,0.0064 -3.824134,1.843299 -6.346584,2.687662 -9.789499,3.068243 -0.50828,0.0589 2.255001,3.885347 6.478544,2.407521 l 0.0042,-0.0011 c 1.780921,-0.942943 3.646611,-5.404334 3.343102,-5.481293 z" />
    <path
       inkscape:connector-curvature="0"
       id="path6"
       style="fill:#4f4f4f;stroke-width:1"
       d="m -33.626787,9.4371128 c -0.772973,0.1323633 -3.875179,2.2881962 -3.160693,6.1622122 l 0.0011,0.0021 c 0.678211,1.979209 5.022963,4.61022 4.872594,4.114856 -1.233856,-4.085244 -1.679752,-6.728186 -1.542144,-10.2116044 0.0026,-0.064562 -0.06034,-0.086259 -0.170761,-0.067353 z m -4.9818,6.1009082 c -0.398314,-0.05281 -1.331767,4.33298 2.389622,6.561787 1.924122,0.790612 6.748981,-0.767238 6.280875,-0.982461 -3.862472,-1.754901 -6.126107,-3.159653 -8.634438,-5.560114 -0.01156,-0.01116 -0.02322,-0.01754 -0.03606,-0.01924 z" />
  </g>
</svg>
