<?xml version="1.0" encoding="UTF-8" standalone="no"?>
<svg
   xmlns:dc="http://purl.org/dc/elements/1.1/"
   xmlns:cc="http://creativecommons.org/ns#"
   xmlns:rdf="http://www.w3.org/1999/02/22-rdf-syntax-ns#"
   xmlns:svg="http://www.w3.org/2000/svg"
   xmlns="http://www.w3.org/2000/svg"
   xmlns:sodipodi="http://sodipodi.sourceforge.net/DTD/sodipodi-0.dtd"
   xmlns:inkscape="http://www.inkscape.org/namespaces/inkscape"
   height="32"
   viewBox="0 0 32 32"
   width="32"
   version="1.1"
   id="svg12"
   sodipodi:docname="sigil.svg"
   inkscape:version="0.92.1 r">
  <metadata
     id="metadata18">
    <rdf:RDF>
      <cc:Work
         rdf:about="">
        <dc:format>image/svg+xml</dc:format>
        <dc:type
           rdf:resource="http://purl.org/dc/dcmitype/StillImage" />
      </cc:Work>
    </rdf:RDF>
  </metadata>
  <defs
     id="defs16" />
  <sodipodi:namedview
     pagecolor="#ffffff"
     bordercolor="#666666"
     borderopacity="1"
     objecttolerance="10"
     gridtolerance="10"
     guidetolerance="10"
     inkscape:pageopacity="0"
     inkscape:pageshadow="2"
     inkscape:window-width="640"
     inkscape:window-height="480"
     id="namedview14"
     showgrid="false"
     inkscape:zoom="9.5"
     inkscape:cx="-4.1052632"
     inkscape:cy="16"
     inkscape:current-layer="svg12" />
  <rect
     style="opacity:1;fill:#661e1a;fill-opacity:1;fill-rule:evenodd;stroke:none;stroke-width:1.03534329;stroke-linecap:round;stroke-linejoin:bevel;stroke-miterlimit:4;stroke-dasharray:none;stroke-dashoffset:0;stroke-opacity:1"
     id="rect4497-3"
     width="28.203388"
     height="28.203388"
     x="1.8983059"
     y="1.8983059"
     ry="5.575182"
     inkscape:export-filename="/home/ramil/3.png"
     inkscape:export-xdpi="71"
     inkscape:export-ydpi="71" />
  <path
     style="fill:#ffffff;fill-opacity:1"
     d="m 15.701238,6.5000911 c -2.114689,-5.784e-4 -3.715559,0.9684952 -4.478516,2.7109372 -0.254918,0.582183 -0.303151,0.7916167 -0.33789,1.4609377 -0.07124,1.372418 0.350551,2.481459 1.267578,3.333984 0.669218,0.622146 0.923427,0.768125 3.189453,1.826172 2.798928,1.306868 3.276908,1.583931 3.925781,2.285157 0.882437,0.953631 1.334255,2.258039 1.115234,3.216796 -0.281065,1.230361 -1.062492,2.470725 -2.003906,2.960938 -1.412497,0.735517 -3.297116,0.714678 -4.59375,-0.05078 -0.531858,-0.313977 -1.458177,-0.930265 -1.779297,-1.515625 -0.142642,-0.260018 -0.336223,-0.804942 -0.429687,-1.210938 -0.390487,-1.696207 0.461673,-2.715328 1.808594,-3.027344 0.892175,-0.206674 2.138835,0.133137 2.671875,0.908204 0.289444,0.420867 0.292194,1.012081 -0.05859,1.53125 -0.03755,-0.800093 -0.697079,-1.429527 -1.498051,-1.429689 -0.828427,0 -1.5,0.671573 -1.5,1.5 0,0.828427 0.671573,1.5 1.5,1.5 1.956761,-0.03736 2.443959,-1.896927 2.466797,-3.134766 0,-1.820557 -4.073763,-2.679612 -5.900391,-0.599609 -1.043838,1.202112 -1.4287235,2.564096 -0.667968,4.539063 0.135541,0.351876 0.226453,0.323813 0.253906,0.714843 0.02722,0.387674 0.07732,0.613374 0.111328,0.673828 0.04871,0.08657 0.231729,0.09079 0.861328,0.01563 0.746769,-0.08915 0.850973,0.05944 1.576172,0.261719 1.230045,0.584503 2.621683,0.612974 3.953125,0.427735 1.910614,-0.286959 3.628366,-1.420373 4.314453,-2.847657 0.419892,-0.873509 0.53873,-1.452347 0.53125,-2.58789 -0.01165,-1.768745 -0.436361,-3.00558 -1.388672,-4.039063 -0.650684,-0.706146 -1.288873,-1.081398 -3.351562,-1.976562 -2.48921,-1.080265 -3.290207,-1.544376 -4.058594,-2.355469 -0.597742,-0.630965 -0.730775,-1.8661207 -0.324219,-2.8066407 0.218063,-0.504466 0.858156,-1.115426 1.410156,-1.345703 0.625663,-0.261007 1.658246,-0.324344 2.310547,-0.140625 1.097726,0.309173 2.145466,1.141027 2.5625,2.033203 0.251823,0.538735 0.332968,1.8348097 0.175782,2.6484377 -0.05568,0.288231 -0.07889,0.547434 -0.05273,0.576172 0.09324,0.102415 0.600283,-0.06455 0.925781,-0.304688 0.37137,-0.273973 0.655614,-0.690723 0.798828,-1.171875 0.134813,-0.452942 -0.07913,-1.4432887 -0.230473,-2.1601607 -0.07028,-0.332891 -0.120588,-0.835298 -0.111328,-1.117188 0.01741,-0.529901 -0.07667,-0.710004 -0.330078,-0.632812 -0.06593,0.02008 -0.389091,0.08401 -0.71875,0.142578 -0.598918,0.106402 -0.400436,0.03478 -1.119141,-0.277344 C 17.604596,6.6472076 16.834699,6.5004007 15.701238,6.5000911 Z"
     id="path8"
     inkscape:connector-curvature="0" />
</svg>
