<?xml version="1.0" encoding="UTF-8" standalone="no"?>
<svg
   xmlns:dc="http://purl.org/dc/elements/1.1/"
   xmlns:cc="http://creativecommons.org/ns#"
   xmlns:rdf="http://www.w3.org/1999/02/22-rdf-syntax-ns#"
   xmlns:svg="http://www.w3.org/2000/svg"
   xmlns="http://www.w3.org/2000/svg"
   xmlns:sodipodi="http://sodipodi.sourceforge.net/DTD/sodipodi-0.dtd"
   xmlns:inkscape="http://www.inkscape.org/namespaces/inkscape"
   height="32"
   width="32"
   version="1"
   id="svg12"
   sodipodi:docname="skrooge.svg"
   inkscape:version="0.92.1 r">
  <metadata
     id="metadata18">
    <rdf:RDF>
      <cc:Work
         rdf:about="">
        <dc:format>image/svg+xml</dc:format>
        <dc:type
           rdf:resource="http://purl.org/dc/dcmitype/StillImage" />
      </cc:Work>
    </rdf:RDF>
  </metadata>
  <defs
     id="defs16" />
  <sodipodi:namedview
     pagecolor="#ffffff"
     bordercolor="#666666"
     borderopacity="1"
     objecttolerance="10"
     gridtolerance="10"
     guidetolerance="10"
     inkscape:pageopacity="0"
     inkscape:pageshadow="2"
     inkscape:window-width="640"
     inkscape:window-height="480"
     id="namedview14"
     showgrid="false"
     inkscape:zoom="9.5"
     inkscape:cx="-4.1052632"
     inkscape:cy="16"
     inkscape:current-layer="svg12" />
  <rect
     style="opacity:1;fill:#ffc947;fill-opacity:1;fill-rule:evenodd;stroke:none;stroke-width:1.03534329;stroke-linecap:round;stroke-linejoin:bevel;stroke-miterlimit:4;stroke-dasharray:none;stroke-dashoffset:0;stroke-opacity:1"
     id="rect4497-3"
     width="28.203388"
     height="28.203388"
     x="1.8983059"
     y="1.8983059"
     ry="5.575182"
     inkscape:export-filename="/home/ramil/3.png"
     inkscape:export-xdpi="71"
     inkscape:export-ydpi="71" />
  <g
     id="g4503"
     transform="translate(47.368421,9.1578949)">
    <path
       style="fill:#b38d32;stroke-width:0.99999994"
       inkscape:connector-curvature="0"
       id="path4"
       d="m -31.368421,0.46153844 a 6.3805668,6.3805668 0 0 0 -5.911675,3.98785426 h -1.266463 l -0.797571,1.5951417 h 1.652807 a 6.3805668,6.3805668 0 0 0 -0.05767,0.7975708 l -0.797571,1.5951417 h 1.009406 a 6.3805668,6.3805668 0 0 0 6.168732,4.7854251 6.3805668,6.3805668 0 0 0 4.980032,-2.392713 h -2.339275 a 4.7854251,4.7854251 0 0 1 -2.640757,0.797571 4.7854251,4.7854251 0 0 1 -4.506275,-3.1902831 h 5.303846 l 0.797571,-1.5951417 h -6.380567 a 4.7854251,4.7854251 0 0 1 0.07178,-0.7975708 h 6.308786 l 0.797571,-1.5951417 h -6.531308 a 4.7854251,4.7854251 0 0 1 4.138595,-2.3927126 4.7854251,4.7854251 0 0 1 2.639162,0.7975709 h 2.33449 a 6.3805668,6.3805668 0 0 0 -4.973652,-2.39271256 z" />
    <path
       style="fill:#b38d32;stroke-width:0.99999994"
       inkscape:connector-curvature="0"
       id="path6"
       d="m -31.368421,-3.5263158 c -5.744105,0 -10.368421,4.6243157 -10.368421,10.368421 0,5.7441048 4.624316,10.3684208 10.368421,10.3684208 C -25.624316,17.210526 -21,12.58621 -21,6.8421052 c 0,-5.7441053 -4.624316,-10.368421 -10.368421,-10.368421 z m 0,1.5951417 c 4.888312,0 8.773279,3.8852866 8.773279,8.7732793 0,4.8883118 -3.884967,8.7732788 -8.773279,8.7732788 -4.887993,0 -8.773279,-3.884967 -8.773279,-8.7732788 0,-4.8879927 3.885286,-8.7732793 8.773279,-8.7732793 z" />
  </g>
</svg>
