<?xml version="1.0" encoding="UTF-8" standalone="no"?>
<svg
   xmlns:dc="http://purl.org/dc/elements/1.1/"
   xmlns:cc="http://creativecommons.org/ns#"
   xmlns:rdf="http://www.w3.org/1999/02/22-rdf-syntax-ns#"
   xmlns:svg="http://www.w3.org/2000/svg"
   xmlns="http://www.w3.org/2000/svg"
   xmlns:sodipodi="http://sodipodi.sourceforge.net/DTD/sodipodi-0.dtd"
   xmlns:inkscape="http://www.inkscape.org/namespaces/inkscape"
   height="32"
   width="32"
   version="1"
   id="svg14"
   sodipodi:docname="sound-juicer.svg"
   inkscape:version="0.92.1 r">
  <metadata
     id="metadata20">
    <rdf:RDF>
      <cc:Work
         rdf:about="">
        <dc:format>image/svg+xml</dc:format>
        <dc:type
           rdf:resource="http://purl.org/dc/dcmitype/StillImage" />
      </cc:Work>
    </rdf:RDF>
  </metadata>
  <defs
     id="defs18" />
  <sodipodi:namedview
     pagecolor="#ffffff"
     bordercolor="#666666"
     borderopacity="1"
     objecttolerance="10"
     gridtolerance="10"
     guidetolerance="10"
     inkscape:pageopacity="0"
     inkscape:pageshadow="2"
     inkscape:window-width="640"
     inkscape:window-height="480"
     id="namedview16"
     showgrid="false"
     inkscape:zoom="9.5"
     inkscape:cx="-4.1052632"
     inkscape:cy="16"
     inkscape:current-layer="svg14" />
  <rect
     style="opacity:1;fill:#007eff;fill-opacity:1;fill-rule:evenodd;stroke:none;stroke-width:1.03534329;stroke-linecap:round;stroke-linejoin:bevel;stroke-miterlimit:4;stroke-dasharray:none;stroke-dashoffset:0;stroke-opacity:1"
     id="rect4497-6"
     width="28.203388"
     height="28.203388"
     x="1.8983059"
     y="1.8983059"
     ry="5.575182" />
  <g
     id="g4505"
     transform="matrix(0.71228481,0,0,0.71228481,4.603443,4.603443)"
     style="stroke-width:1.40393281">
    <path
       id="path2"
       d="M 16,8.5 A 7.5,7.5 0 0 0 8.5,16 7.5,7.5 0 0 0 16,23.5 7.5,7.5 0 0 0 23.5,16 7.5,7.5 0 0 0 16,8.5 Z m 0,4.5 c 1.6569,0 3,1.3431 3,3 0,1.6569 -1.3431,3 -3,3 -1.6569,0 -3,-1.3431 -3,-3 0,-1.6569 1.3431,-3 3,-3 z"
       inkscape:connector-curvature="0"
       style="fill:#858585;stroke-width:1.40393281" />
    <path
       id="path4"
       d="M 16,1 C 7.69,1 1,7.69 1,16 1,24.31 7.69,31 16,31 24.31,31 31,24.31 31,16 31,7.69 24.31,1 16,1 Z m 0,9 a 6,6 0 0 1 6,6 6,6 0 0 1 -6,6 6,6 0 0 1 -6,-6 6,6 0 0 1 6,-6 z"
       inkscape:connector-curvature="0"
       style="fill:#cccccc;stroke-width:1.40393281" />
  </g>
  <path
     d="m 23.614423,15.98578 c -1.272283,1.781068 -5.59514,6.803887 -3.753812,9.70773 1.424783,2.246403 6.267679,2.257942 7.675581,0 1.832709,-2.937463 -2.838455,-7.927018 -3.921128,-9.70773 z"
     id="path10"
     inkscape:connector-curvature="0"
     style="fill:#ff9f26;stroke-width:1" />
  <circle
     style="opacity:1;fill:#ffffff;fill-opacity:1;fill-rule:nonzero;stroke:none;stroke-width:0.1;stroke-linecap:round;stroke-linejoin:bevel;stroke-miterlimit:4;stroke-dasharray:none;stroke-dashoffset:0;stroke-opacity:1"
     id="path4507"
     cx="16"
     cy="16"
     r="2.3684211" />
</svg>
