<?xml version="1.0" encoding="UTF-8" standalone="no"?>
<svg
   xmlns:dc="http://purl.org/dc/elements/1.1/"
   xmlns:cc="http://creativecommons.org/ns#"
   xmlns:rdf="http://www.w3.org/1999/02/22-rdf-syntax-ns#"
   xmlns:svg="http://www.w3.org/2000/svg"
   xmlns="http://www.w3.org/2000/svg"
   xmlns:sodipodi="http://sodipodi.sourceforge.net/DTD/sodipodi-0.dtd"
   xmlns:inkscape="http://www.inkscape.org/namespaces/inkscape"
   height="32"
   width="32"
   version="1"
   id="svg12"
   sodipodi:docname="spotify.svg"
   inkscape:version="0.92.1 r">
  <metadata
     id="metadata18">
    <rdf:RDF>
      <cc:Work
         rdf:about="">
        <dc:format>image/svg+xml</dc:format>
        <dc:type
           rdf:resource="http://purl.org/dc/dcmitype/StillImage" />
      </cc:Work>
    </rdf:RDF>
  </metadata>
  <defs
     id="defs16" />
  <sodipodi:namedview
     pagecolor="#ffffff"
     bordercolor="#666666"
     borderopacity="1"
     objecttolerance="10"
     gridtolerance="10"
     guidetolerance="10"
     inkscape:pageopacity="0"
     inkscape:pageshadow="2"
     inkscape:window-width="640"
     inkscape:window-height="480"
     id="namedview14"
     showgrid="false"
     inkscape:zoom="9.5"
     inkscape:cx="-4.1052632"
     inkscape:cy="16"
     inkscape:current-layer="svg12" />
  <rect
     style="opacity:1;fill:#1ed760;fill-opacity:1;fill-rule:evenodd;stroke:none;stroke-width:1.03534329;stroke-linecap:round;stroke-linejoin:bevel;stroke-miterlimit:4;stroke-dasharray:none;stroke-dashoffset:0;stroke-opacity:1"
     id="rect4497-6"
     width="28.203388"
     height="28.203388"
     x="1.8983059"
     y="1.8983059"
     ry="5.575182" />
  <path
     d="m 14.057333,10.000023 c -1.6961,-2.133e-4 -3.3361,0.17367 -4.7344,0.52083 -0.71826,0.17833 -0.7716,0.19912 -0.97135,0.36719 -0.24577,0.20682 -0.35141,0.43382 -0.35156,0.76042 -2e-4,0.40444 0.19305,0.71632 0.55729,0.89583 0.29819,0.146939 0.49142,0.141769 1.1432,-0.02344 0.65916,-0.16705 1.5934,-0.32732 2.4115,-0.41406 0.83189,-0.08813 3.4573,-0.07349 4.2969,0.02344 2.2759,0.26293 3.898,0.695429 5.4688,1.458299 0.4019,0.19519 0.80017,0.37126 0.88542,0.39062 0.44964,0.10289 0.98508,-0.17244 1.1719,-0.60156 0.09301,-0.21363 0.08464,-0.60685 -0.01563,-0.817709 -0.12385,-0.26058 -0.37686,-0.44713 -1.0495,-0.77344 -1.1427,-0.55438 -2.3723,-0.97109 -3.7448,-1.2656 -1.6195,-0.34753 -3.3716,-0.52062 -5.0677,-0.52083 z m -0.67916,4.003899 c -0.30195,0.0044 -0.56226,0.01476 -0.73828,0.03255 -1.1406,0.11503 -2.621,0.42889 -3.0911,0.65625 -0.49458,0.23917 -0.6693,1.00816 -0.36458,1.50073 0.11679,0.18881 0.46562,0.39844 0.66406,0.39844 0.07478,0 0.43412,-0.08368 0.79948,-0.1849 1.0658,-0.29531 1.7796,-0.3918 3.0807,-0.41667 0.84345,-0.01588 1.58435,-0.0022 2.07625,0.05468 2.0889,0.24128 3.924665,0.652055 5.695765,1.694615 0.24353,0.14329 0.49504,0.26057 0.5599,0.26042 0.5272,-0.0012 0.98595,-0.65235 0.89583,-1.17783 -0.07875,-0.45896 -0.27629,-0.65078 -1.1823,-1.1562 -1.5003,-0.83705 -3.446965,-1.273515 -5.404165,-1.561815 -0.33531,-0.04932 -1.0177,-0.08263 -1.7031,-0.09635 -0.34272,-0.007 -0.98658,-0.0083 -1.28853,-0.004 z m 1.111295,3.999805 c -0.24195,0.0044 -0.45031,0.01496 -0.59115,0.03274 -0.91243,0.11503 -2.0978,0.42889 -2.474,0.65625 -0.39568,0.23917 -0.53542,1.0081 -0.29167,1.50065 0.09344,0.18881 0.3725,0.39844 0.53125,0.39844 0.05982,0 0.34834,-0.08368 0.64062,-0.1849 0.85264,-0.2953 1.4226,-0.39181 2.4635,-0.41667 0.67472,-0.01587 0.682095,-0.0022 1.075695,0.05468 1.6711,0.24128 2.59869,0.65209 4.01559,1.69465 0.1948,0.14329 0.39869,0.26056 0.45052,0.26042 0.42179,-0.0012 0.78579,-0.55262 0.71354,-1.0781 -0.06299,-0.45896 -0.21789,-0.65078 -0.94271,-1.1562 -1.2003,-0.83705 -2.21809,-1.3732 -3.78379,-1.6615 -0.26829,-0.04932 -0.81361,-0.08283 -1.362,-0.09654 -0.27417,-0.007 -0.203505,-0.0083 -0.445465,-0.004 z"
     style="fill:#ffffff"
     id="path8"
     inkscape:connector-curvature="0" />
</svg>
