<?xml version="1.0" encoding="UTF-8" standalone="no"?>
<svg
   xmlns:dc="http://purl.org/dc/elements/1.1/"
   xmlns:cc="http://creativecommons.org/ns#"
   xmlns:rdf="http://www.w3.org/1999/02/22-rdf-syntax-ns#"
   xmlns:svg="http://www.w3.org/2000/svg"
   xmlns="http://www.w3.org/2000/svg"
   xmlns:sodipodi="http://sodipodi.sourceforge.net/DTD/sodipodi-0.dtd"
   xmlns:inkscape="http://www.inkscape.org/namespaces/inkscape"
   height="32"
   width="32"
   version="1"
   id="svg18"
   sodipodi:docname="staruml.svg"
   inkscape:version="0.92.1 r">
  <metadata
     id="metadata24">
    <rdf:RDF>
      <cc:Work
         rdf:about="">
        <dc:format>image/svg+xml</dc:format>
        <dc:type
           rdf:resource="http://purl.org/dc/dcmitype/StillImage" />
      </cc:Work>
    </rdf:RDF>
  </metadata>
  <defs
     id="defs22" />
  <sodipodi:namedview
     pagecolor="#ffffff"
     bordercolor="#666666"
     borderopacity="1"
     objecttolerance="10"
     gridtolerance="10"
     guidetolerance="10"
     inkscape:pageopacity="0"
     inkscape:pageshadow="2"
     inkscape:window-width="640"
     inkscape:window-height="480"
     id="namedview20"
     showgrid="false"
     inkscape:zoom="9.5"
     inkscape:cx="-4.1052632"
     inkscape:cy="16"
     inkscape:current-layer="svg18" />
  <rect
     style="opacity:1;fill:#f2f2f2;fill-opacity:1;fill-rule:evenodd;stroke:none;stroke-width:1.03534329;stroke-linecap:round;stroke-linejoin:bevel;stroke-miterlimit:4;stroke-dasharray:none;stroke-dashoffset:0;stroke-opacity:1"
     id="rect4497-6"
     width="28.203388"
     height="28.203388"
     x="1.8983059"
     y="1.8983059"
     ry="5.575182" />
  <g
     id="g4527"
     transform="translate(46.184227,5.263158)">
    <path
       d="m -30.184197,0.10526315 c 0.992683,0.0141886 1.700631,0.61215281 2.032869,1.60201275 l -0.01229,-0.044644 1.559728,4.5178197 h 5.259858 c 0.01147,-1.839e-4 0.02233,-1.839e-4 0.03379,0 0.628119,0.02036 1.194489,0.3891029 1.593525,0.8749167 l -10.467484,3.6815287 z"
       style="opacity:1;fill:#f74545;fill-opacity:1;stroke-width:1;enable-background:new"
       id="path4"
       inkscape:connector-curvature="0" />
    <path
       style="opacity:1;fill:#707070;fill-opacity:1;stroke-width:1;enable-background:new"
       d="m -23.27449,20.812032 c 0.0046,-0.0041 0.0098,-0.0083 0.01434,-0.01246 0.616803,-0.567715 0.847394,-1.397618 0.60218,-2.203157 -0.0017,-0.0055 -0.0033,-0.01109 -0.0052,-0.01661 l -1.604767,-4.985655 4.135379,-3.022333 c 1.095876,-0.7388015 1.278788,-2.5258151 0.415792,-3.5164474 l -10.467488,3.6815294 c 0,0 6.924042,10.062675 6.909707,10.075135 z"
       id="path6"
       inkscape:connector-curvature="0" />
    <path
       d="m -37.108245,20.799572 c 0.0045,0.0042 0.0098,0.0084 0.01434,0.01246 0.741205,0.658919 1.782641,0.742665 2.619688,0.197266 0.01592,-0.0103 0.03176,-0.02106 0.04711,-0.03218 l 4.242919,-3.025989 4.242912,3.025984 c 0.01535,0.01113 0.03118,0.02189 0.04711,0.03218 0.837047,0.545398 1.878483,0.461653 2.619688,-0.197267 0.0046,-0.0041 0.0098,-0.0083 0.01434,-0.01246 l -6.924043,-10.06267 z"
       style="opacity:1;fill:#7b4188;fill-opacity:1;stroke-width:1;enable-background:new"
       id="path8"
       inkscape:connector-curvature="0" />
    <path
       style="opacity:1;fill:#ff9d45;fill-opacity:1;stroke-width:1;enable-background:new"
       d="m -30.184225,0.10526315 c -0.992683,0.0141886 -1.700631,0.61215281 -2.032869,1.60201275 l 0.01229,-0.044644 -1.559728,4.5178197 h -5.259858 c -0.01147,-1.839e-4 -0.02233,-1.839e-4 -0.03379,0 -0.628119,0.02036 -1.194488,0.3891029 -1.593525,0.8749167 l 10.467484,3.6815287 z"
       id="path10"
       inkscape:connector-curvature="0" />
    <path
       d="m -37.093931,20.812032 c -0.0046,-0.0041 -0.0099,-0.0083 -0.01434,-0.01246 -0.616803,-0.567715 -0.847393,-1.397618 -0.60218,-2.203157 0.0017,-0.0055 0.0033,-0.01109 0.0052,-0.01661 l 1.604765,-4.98565 -4.135379,-3.022332 c -1.09591,-0.7388092 -1.278822,-2.5258228 -0.415825,-3.5164551 l 10.467486,3.6815291 c 0,0 -6.924042,10.062675 -6.909706,10.075135 z"
       style="opacity:1;fill:#ffd945;fill-opacity:1;stroke-width:1;enable-background:new"
       id="path12"
       inkscape:connector-curvature="0" />
  </g>
</svg>
