<?xml version="1.0" encoding="UTF-8" standalone="no"?>
<svg
   xmlns:dc="http://purl.org/dc/elements/1.1/"
   xmlns:cc="http://creativecommons.org/ns#"
   xmlns:rdf="http://www.w3.org/1999/02/22-rdf-syntax-ns#"
   xmlns:svg="http://www.w3.org/2000/svg"
   xmlns="http://www.w3.org/2000/svg"
   xmlns:sodipodi="http://sodipodi.sourceforge.net/DTD/sodipodi-0.dtd"
   xmlns:inkscape="http://www.inkscape.org/namespaces/inkscape"
   height="32"
   width="32"
   version="1"
   id="svg14"
   sodipodi:docname="stellarium.svg"
   inkscape:version="0.92.1 r">
  <metadata
     id="metadata20">
    <rdf:RDF>
      <cc:Work
         rdf:about="">
        <dc:format>image/svg+xml</dc:format>
        <dc:type
           rdf:resource="http://purl.org/dc/dcmitype/StillImage" />
      </cc:Work>
    </rdf:RDF>
  </metadata>
  <defs
     id="defs18" />
  <sodipodi:namedview
     pagecolor="#ffffff"
     bordercolor="#666666"
     borderopacity="1"
     objecttolerance="10"
     gridtolerance="10"
     guidetolerance="10"
     inkscape:pageopacity="0"
     inkscape:pageshadow="2"
     inkscape:window-width="640"
     inkscape:window-height="480"
     id="namedview16"
     showgrid="false"
     inkscape:zoom="23.688077"
     inkscape:cx="0.4869959"
     inkscape:cy="5.7540803"
     inkscape:current-layer="svg14" />
  <rect
     style="opacity:1;fill:#276ed6;fill-opacity:1;fill-rule:evenodd;stroke:none;stroke-width:1.03534329;stroke-linecap:round;stroke-linejoin:bevel;stroke-miterlimit:4;stroke-dasharray:none;stroke-dashoffset:0;stroke-opacity:1"
     id="rect4497-3-3"
     width="28.203388"
     height="28.203388"
     x="1.8983059"
     y="1.8983059"
     ry="5.575182" />
  <path
     d="m 15.601716,5.2462708 c -0.967836,0 -1.900623,0.1412323 -2.788005,0.3873733 4.372388,1.2127022 7.567441,5.1989909 7.567441,9.9683109 0,4.76908 -3.195053,8.75513 -7.567441,9.96831 0.887382,0.246141 1.820169,0.387135 2.788005,0.387135 5.736916,0 10.355445,-4.618529 10.355445,-10.355445 0,-5.7369169 -4.618529,-10.3554453 -10.355445,-10.3554453 z"
     id="path2"
     inkscape:connector-curvature="0"
     style="fill:#ffc947;stroke-width:1" />
  <path
     d="m 10.423993,17.194861 1.354174,2.622317 3.026976,0.420591 -2.190575,2.040819 0.516976,2.882 -2.707551,-1.360546 -2.70771,1.360546 0.517135,-2.882 -2.190575,-2.040819 3.027295,-0.420591 z"
     id="path4"
     inkscape:connector-curvature="0"
     style="fill:#478aff;stroke-width:1" />
  <path
     d="m 14.406764,12.415611 1.10767,2.097722 2.47687,0.336387 -1.79227,1.632841 0.4231,2.305606 -2.21539,-1.088576 -2.215389,1.088576 0.423101,-2.305606 -1.79227,-1.632841 2.476869,-0.336387 z"
     id="path6"
     inkscape:connector-curvature="0"
     style="fill:#6fa4ff;stroke-width:0.59107238" />
  <path
     d="m 11.618896,9.2292412 0.738459,1.3110628 1.651273,0.210239 -1.194866,1.020515 0.282071,1.440989 -1.476951,-0.680354 -1.47695,0.680354 0.282072,-1.440989 -1.194866,-1.020515 1.651273,-0.210239 z"
     id="path8"
     inkscape:connector-curvature="0"
     style="fill:#90b9ff;stroke-width:0.38153672" />
  <path
     d="m 14.215679,6.1393084 c -0.477943,0.066116 -0.946328,0.1645719 -1.401968,0.2909084 4.249716,1.1786089 7.37706,4.9792162 7.550713,9.5700242 0.0048,-0.133028 0.01673,-0.264462 0.01673,-0.398286 0,-4.24175 -2.529915,-7.8599422 -6.165473,-9.4624872 z m -4.174439,5.3050946 -0.812106,0.102758 1.061035,0.907296 0.133824,-0.683459 z m 3.154826,0 -0.382355,0.326435 0.133824,0.68346 1.061035,-0.907297 -0.812504,-0.102758 z m -1.577214,1.087322 -1.305343,0.600615 -0.171104,0.87623 1.476447,-0.680273 1.476846,0.680273 -0.171263,-0.87623 z m -0.03585,3.011044 -0.760726,0.104351 1.66643,1.518268 0.125858,-0.68346 z m 5.647701,0 -1.031562,0.939159 0.125859,0.68346 1.66643,-1.518268 z m 8.706539,0.457233 c -0.210295,5.548925 -4.733235,9.957159 -10.33553,9.957159 -0.470775,0 -0.932787,-0.03346 -1.386037,-0.09639 -0.451657,0.199144 -0.918448,0.371203 -1.401968,0.505824 0.887382,0.246141 1.820169,0.387134 2.788005,0.387134 5.736916,0 10.355445,-4.618528 10.355445,-10.355445 0,-0.13462 -0.01514,-0.265258 -0.01992,-0.398286 z m -11.530389,1.69909 -2.055158,1.009257 -0.160111,0.87623 2.215269,-1.088915 2.215268,1.088915 -0.160111,-0.87623 z M 6.78652,20.92999 6.042839,21.034341 8.110503,22.962047 8.233414,22.279385 Z m 7.27462,0 -1.446576,1.349395 0.122672,0.682662 2.067903,-1.927706 z m -3.637151,2.869255 -2.549988,1.281686 -0.157084,0.87623 2.707072,-1.361343 2.706754,1.361343 -0.05735,-0.323409 c -0.08603,-0.0223 -0.174449,-0.04062 -0.259683,-0.06373 0.07966,-0.0223 0.156128,-0.05257 0.234989,-0.07647 l -0.07488,-0.412624 z"
     id="path10"
     inkscape:connector-curvature="0"
     style="opacity:1;stroke-width:1;fill:#000000;fill-opacity:0.15662651" />
</svg>
