<?xml version="1.0" encoding="UTF-8" standalone="no"?>
<svg
   xmlns:dc="http://purl.org/dc/elements/1.1/"
   xmlns:cc="http://creativecommons.org/ns#"
   xmlns:rdf="http://www.w3.org/1999/02/22-rdf-syntax-ns#"
   xmlns:svg="http://www.w3.org/2000/svg"
   xmlns="http://www.w3.org/2000/svg"
   xmlns:sodipodi="http://sodipodi.sourceforge.net/DTD/sodipodi-0.dtd"
   xmlns:inkscape="http://www.inkscape.org/namespaces/inkscape"
   height="32"
   width="32"
   version="1.1"
   viewBox="0 0 32 32"
   id="svg36"
   sodipodi:docname="supermeatboy.svg"
   inkscape:version="0.92.1 r">
  <metadata
     id="metadata42">
    <rdf:RDF>
      <cc:Work
         rdf:about="">
        <dc:format>image/svg+xml</dc:format>
        <dc:type
           rdf:resource="http://purl.org/dc/dcmitype/StillImage" />
      </cc:Work>
    </rdf:RDF>
  </metadata>
  <defs
     id="defs40" />
  <sodipodi:namedview
     pagecolor="#ffffff"
     bordercolor="#666666"
     borderopacity="1"
     objecttolerance="10"
     gridtolerance="10"
     guidetolerance="10"
     inkscape:pageopacity="0"
     inkscape:pageshadow="2"
     inkscape:window-width="640"
     inkscape:window-height="480"
     id="namedview38"
     showgrid="false"
     inkscape:zoom="8.375"
     inkscape:cx="-27.016842"
     inkscape:cy="13.106149"
     inkscape:current-layer="svg36" />
  <rect
     style="opacity:1;fill:#9f3830;fill-opacity:1;fill-rule:evenodd;stroke:none;stroke-width:1.03534329;stroke-linecap:round;stroke-linejoin:bevel;stroke-miterlimit:4;stroke-dasharray:none;stroke-dashoffset:0;stroke-opacity:1"
     id="rect4497-3-3"
     width="28.203388"
     height="28.203388"
     x="1.8983059"
     y="1.8983059"
     ry="5.575182" />
  <g
     id="g4537"
     transform="translate(45.373134,-7.0447755)">
    <path
       inkscape:connector-curvature="0"
       id="path4"
       d="m -29.373135,13.104477 c -2.969712,0.08159 -6.291155,0.538408 -8.854292,1.194558 -0.699037,0.181835 -0.960775,0.282719 -1.086006,0.474186 v 17.269547 c 0,0.620927 3.727624,0.931666 4.329466,0.942306 0.640696,-0.01064 3.480768,-0.321379 3.480768,-0.942306 v -1.897779 h 2.130064 2.130064 v 1.897779 c 0,0.620927 2.840072,0.931666 3.480768,0.942306 0.601842,-0.01064 4.329467,-0.321379 4.329467,-0.942306 V 14.773221 c -0.125231,-0.191467 -0.386969,-0.292351 -1.086007,-0.474186 -2.563136,-0.65615 -5.88458,-1.112968 -8.854292,-1.194558 z"
       style="fill:#e84343;stroke-width:1" />
    <path
       inkscape:connector-curvature="0"
       id="path8"
       d="m -35.035321,21.269723 c 0.862247,-0.08584 0.858777,-0.09511 2.390696,-0.222894 0.166117,-0.48383 0.316619,-0.773543 -0.287995,-1.674873 -0.665768,-1.00424 -1.734901,-0.571622 -2.168627,0.186802 -0.370835,0.85158 -0.271078,1.38711 0.06593,1.710965 m 0,0"
       style="fill:#2f2f2f;stroke-width:0.64777905" />
    <path
       inkscape:connector-curvature="0"
       id="path10"
       d="m -33.633263,19.778348 c 0,0.194504 -0.158724,0.35501 -0.35501,0.35501 -0.196286,0 -0.355011,-0.160506 -0.355011,-0.35501 0,-0.194506 0.158725,-0.355012 0.355011,-0.355012 0.196286,0 0.35501,0.160506 0.35501,0.355012 m 0,0"
       style="fill:#ffffff;stroke-width:0.97476012" />
    <path
       inkscape:connector-curvature="0"
       id="path12"
       style="opacity:0.2;stroke-width:0.68473226"
       d="m -26.30969,21.618195 c 0.871927,0.01625 2.143376,-0.0029 2.254205,-0.0029 0.355714,-0.251653 0.605931,-1.233099 -0.02299,-2.199344 -0.690238,-1.079487 -1.803364,-0.614452 -2.254205,0.200799 -0.385469,0.915389 -0.121727,1.520666 0.02299,1.995662" />
    <path
       inkscape:connector-curvature="0"
       id="path14"
       d="m -26.30969,20.908173 c 0.871927,0.01625 2.143376,-0.0029 2.254205,-0.0029 0.355714,-0.251653 0.605931,-1.233099 -0.02299,-2.199343 -0.690238,-1.079486 -1.803364,-0.614453 -2.254205,0.200799 -0.385469,0.915388 -0.121727,1.520666 0.02299,1.995662"
       style="fill:#2f2f2f;stroke-width:0.68473226" />
    <path
       inkscape:connector-curvature="0"
       id="path16"
       d="m -25.113007,19.139659 c 0,0.197668 -0.159269,0.35501 -0.356226,0.35501 -0.194526,0 -0.353795,-0.157342 -0.353795,-0.35501 0,-0.194504 0.159269,-0.35501 0.353795,-0.35501 0.196957,0 0.356226,0.160506 0.356226,0.35501 m 0,0"
       style="fill:#ffffff;stroke-width:0.97642767" />
    <path
       inkscape:connector-curvature="0"
       id="path18"
       d="m -35.053306,22.562672 c 3.774,-0.239786 7.555101,-0.361918 11.360342,0 -0.626713,3.911408 -2.921502,3.95425 -5.206823,4.016275 -2.570277,0.170089 -5.699105,-1.011582 -6.153519,-4.016275 m 0,0"
       style="fill:#2f2f2f;stroke-width:0.77484703" />
    <path
       inkscape:connector-curvature="0"
       id="path20"
       d="m -34.343283,23.825907 c 0.0461,0.217575 -0.07658,0.444738 0.129852,0.582841 1.278529,0.851882 3.67782,1.443651 5.306204,1.475634 2.154957,0.01115 3.853515,-0.381408 4.431824,-1.123291 0.126009,-0.162817 0.04717,-0.710102 0.05692,-0.95239 l -1.213536,-0.02859 1.213536,-0.109997 v -0.580273 h -5.661225 l -0.0069,0.664958 h -1.41088 l -0.01144,-0.710023 -2.832032,-10e-7 0.0023,0.683732 0.932008,0.03052"
       style="fill:#ffffff;stroke-width:0.70168436" />
    <path
       inkscape:connector-curvature="0"
       id="path22"
       style="opacity:0.2;stroke-width:0.63970196"
       d="m -35.75513,21.886155 v 0.02703 c -0.01105,0.03346 -0.01105,0.07036 0,0.103829 0.01105,0.04205 0.0375,0.07551 0.06587,0.108978 0.105303,0.115841 0.266863,0.187921 0.431789,0.204654 0.16733,0.01673 0.693133,-0.01845 0.841711,-0.09053 0.129825,-0.06221 0.24234,-0.149307 0.371684,-0.212806 0.125979,-0.05877 0.261093,-0.09053 0.405824,-0.09868 0.206758,-0.0086 0.413035,0.03862 0.623641,0.01845 0.103379,-0.0086 0.204836,-0.03518 0.289461,-0.09053 0.04135,-0.02703 0.07886,-0.06049 0.105303,-0.09739 0.0303,-0.04376 0.04712,-0.08538 0.05049,-0.134292 0.0058,-0.05706 -0.01105,-0.112409 -0.0375,-0.164324 -0.02645,-0.0502 -0.0678,-0.09568 -0.112515,-0.134291 -0.09184,-0.07895 -0.202911,-0.135578 -0.308214,-0.199506 -0.05626,-0.03518 -0.114438,-0.0738 -0.184159,-0.09225 -0.08078,-0.02188 -0.170695,-0.0069 -0.257246,-0.01673 -0.09184,-0.0086 -0.174543,-0.04205 -0.261093,-0.0635 -0.176466,-0.04677 -0.364472,-0.0502 -0.546707,-0.02017 -0.180313,0.02832 -0.351009,0.09568 -0.50728,0.18449 -0.148577,0.08366 -0.640722,0.194357 -0.708039,0.3368 -0.01299,0.02832 -0.0226,0.05878 -0.0375,0.0871 -0.05241,0.125708 -0.131267,0.241551 -0.225511,0.343663" />
    <path
       inkscape:connector-curvature="0"
       id="path24"
       d="m -35.75513,21.176133 v 0.02703 c -0.01105,0.03346 -0.01105,0.07036 0,0.103828 0.01105,0.04205 0.0375,0.07551 0.06587,0.108979 0.105303,0.115841 0.266863,0.187921 0.431789,0.204654 0.16733,0.01673 0.693133,-0.01845 0.841711,-0.09053 0.129825,-0.06221 0.24234,-0.149308 0.371684,-0.212806 0.125979,-0.05878 0.261093,-0.09053 0.405824,-0.09868 0.206758,-0.0086 0.413035,0.03862 0.623641,0.01845 0.103379,-0.0086 0.204836,-0.03517 0.289461,-0.09053 0.04135,-0.02703 0.07886,-0.06049 0.105303,-0.09739 0.0303,-0.04376 0.04712,-0.08538 0.05049,-0.134291 0.0058,-0.05706 -0.01105,-0.11241 -0.0375,-0.164324 -0.02645,-0.0502 -0.0678,-0.09568 -0.112515,-0.134292 -0.09184,-0.07894 -0.202911,-0.135578 -0.308214,-0.199506 -0.05626,-0.03518 -0.114438,-0.0738 -0.184159,-0.09224 -0.08078,-0.02188 -0.170695,-0.0069 -0.257246,-0.01673 -0.09184,-0.0086 -0.174543,-0.04205 -0.261093,-0.0635 -0.176466,-0.04677 -0.364472,-0.0502 -0.546707,-0.02016 -0.180313,0.02831 -0.351009,0.09568 -0.50728,0.18449 -0.148577,0.08366 -0.640722,0.194357 -0.708039,0.3368 -0.01299,0.02831 -0.0226,0.05877 -0.0375,0.0871 -0.05241,0.125708 -0.131267,0.24155 -0.225511,0.343663"
       style="fill:#cd5d82;stroke-width:0.63970196" />
    <path
       inkscape:connector-curvature="0"
       id="path28"
       d="m -33.778398,14.432537 0.831945,-0.566645 c 0.149692,-0.102122 0.358075,-0.0448 0.453033,0.107933 l 0.45722,0.910065 1.436385,2.135214 c 0.100439,0.149356 -0.211824,0.460778 -0.364194,0.559409 l -0.689375,0.446259 c -0.152363,0.09862 -0.358107,0.04486 -0.453085,-0.10788 l -0.865973,-1.624794 -1.028391,-1.420808 c -0.105641,-0.14589 0.07175,-0.336837 0.221703,-0.439024 z"
       style="fill:#e6e6e6;stroke-width:0.40799594;stroke-linecap:round;stroke-linejoin:round" />
    <path
       inkscape:connector-curvature="0"
       id="path32"
       d="m -30.796689,14.049287 0.646096,0.76437 c 0.116443,0.137768 0.07548,0.345603 -0.0721,0.450966 l -0.88892,0.521587 -2.054212,1.578962 c -0.143691,0.110386 -0.486664,-0.167838 -0.599757,-0.308563 l -0.511723,-0.635199 c -0.113094,-0.140725 -0.07544,-0.346004 0.07208,-0.451225 l 1.581658,-0.979266 1.360749,-1.121541 c 0.139734,-0.115169 0.348934,0.04194 0.465384,0.179703 z"
       style="fill:#efefef;stroke-width:0.40799594;stroke-linecap:round;stroke-linejoin:round" />
  </g>
</svg>
