<?xml version="1.0" encoding="UTF-8" standalone="no"?>
<svg
   xmlns:dc="http://purl.org/dc/elements/1.1/"
   xmlns:cc="http://creativecommons.org/ns#"
   xmlns:rdf="http://www.w3.org/1999/02/22-rdf-syntax-ns#"
   xmlns:svg="http://www.w3.org/2000/svg"
   xmlns="http://www.w3.org/2000/svg"
   xmlns:sodipodi="http://sodipodi.sourceforge.net/DTD/sodipodi-0.dtd"
   xmlns:inkscape="http://www.inkscape.org/namespaces/inkscape"
   version="1"
   width="32"
   height="32"
   id="svg12"
   sodipodi:docname="svgcleaner.svg"
   inkscape:version="0.92.1 r">
  <metadata
     id="metadata18">
    <rdf:RDF>
      <cc:Work
         rdf:about="">
        <dc:format>image/svg+xml</dc:format>
        <dc:type
           rdf:resource="http://purl.org/dc/dcmitype/StillImage" />
        <dc:title></dc:title>
      </cc:Work>
    </rdf:RDF>
  </metadata>
  <defs
     id="defs16" />
  <sodipodi:namedview
     pagecolor="#ffffff"
     bordercolor="#666666"
     borderopacity="1"
     objecttolerance="10"
     gridtolerance="10"
     guidetolerance="10"
     inkscape:pageopacity="0"
     inkscape:pageshadow="2"
     inkscape:window-width="1680"
     inkscape:window-height="966"
     id="namedview14"
     showgrid="false"
     inkscape:zoom="14.75"
     inkscape:cx="22.078016"
     inkscape:cy="15.353599"
     inkscape:window-x="0"
     inkscape:window-y="0"
     inkscape:window-maximized="1"
     inkscape:current-layer="svg12" />
  <rect
     style="opacity:1;fill:#355681;fill-opacity:1;fill-rule:evenodd;stroke:none;stroke-width:1.03534329;stroke-linecap:round;stroke-linejoin:bevel;stroke-miterlimit:4;stroke-dasharray:none;stroke-dashoffset:0;stroke-opacity:1"
     id="rect4497-3"
     width="28.203388"
     height="28.203388"
     x="1.8983059"
     y="1.8983059"
     ry="5.575182" />
  <path
     style="fill:#ffffff;stroke-width:0.03142171"
     d="m 18.704298,21.210764 c -3.4204,-0.448924 -6.559283,-2.072737 -8.562101,-4.429369 l -0.2269812,-0.267083 -6e-6,-0.530363 -2e-6,-0.530362 0.3220742,0.02422 c 1.790697,0.13466 3.981717,-0.500959 5.365255,-1.556451 0.342388,-0.261206 0.776197,-0.726462 0.984439,-1.055799 l 0.181232,-0.286633 0.556199,0.297594 c 0.305908,0.163677 0.568867,0.309577 0.584353,0.324217 0.0349,0.033 -0.163771,0.371906 -0.42279,0.721255 -0.990634,1.336069 -2.868124,2.363662 -4.970621,2.720537 -0.185778,0.03155 -0.337785,0.06839 -0.337785,0.08189 0,0.0377 0.704666,0.615832 1.058758,0.86864 0.173523,0.123905 0.342673,0.225244 0.375885,0.225244 0.102652,0 0.676172,-0.190487 0.874854,-0.290584 0.279997,-0.141051 0.505584,-0.291868 0.678505,-0.453614 0.08479,-0.07933 0.154159,-0.1357 0.154159,-0.125301 0,0.08219 -0.571928,0.922081 -0.802564,1.178571 -0.120311,0.133792 -0.141742,0.173526 -0.106152,0.196627 0.128299,0.0833 0.815872,0.418982 1.153692,0.563269 l 0.386373,0.16503 0.210637,-0.05505 c 0.587677,-0.153588 1.488897,-0.70839 2.262177,-1.392642 0.125993,-0.111481 0.234237,-0.197387 0.240556,-0.190892 0.01595,0.01641 -0.312338,0.706516 -0.498878,1.048735 -0.139101,0.255198 -0.478873,0.778591 -0.646079,0.995245 -0.03565,0.04619 -0.05384,0.09041 -0.0404,0.0982 0.0902,0.05236 1.058678,0.247403 1.44223,0.290439 l 0.192342,0.02164 0.20488,-0.294249 c 0.722741,-1.038051 1.450729,-2.52765 2.017271,-4.127702 0.09789,-0.276512 0.189917,-0.514858 0.204476,-0.529657 0.0349,-0.03548 1.257805,0.386033 1.257805,0.43354 0,0.109366 -0.378756,1.121341 -0.704682,1.882796 -0.595534,1.391332 -1.328052,2.695814 -2.088613,3.719432 l -0.238901,0.32153 -0.314217,-0.0031 c -0.172811,-0.0016 -0.509146,-0.02858 -0.747393,-0.05985 z m 1.501167,-8.214561 c -1.588559,-0.714255 -2.892556,-1.311448 -2.897771,-1.327095 -0.01193,-0.03542 0.13891,-0.264721 0.289216,-0.440014 0.169053,-0.19715 0.545302,-0.434454 0.842547,-0.53139 0.213112,-0.06949 0.318361,-0.08457 0.603752,-0.08653 0.352611,-0.0024 0.412209,0.0095 0.809306,0.160725 0.116757,0.04448 0.21794,0.07508 0.224864,0.06799 0.0069,-0.0072 0.623359,-1.193568 1.369887,-2.6366097 0.746531,-1.4430391 1.369202,-2.6363381 1.383719,-2.6517733 0.02259,-0.024127 1.133658,0.4490275 1.199518,0.510859 0.01234,0.011664 -0.450617,1.2716506 -1.029058,2.7999 -0.578445,1.528249 -1.051715,2.782184 -1.051715,2.786521 0,0.0042 0.123728,0.06814 0.274939,0.141766 0.69188,0.336878 1.116056,1.054188 1.065343,1.801564 -0.01618,0.239095 -0.120514,0.655956 -0.172096,0.687833 -0.01329,0.008 -1.323873,-0.569469 -2.912432,-1.28372 z m -8.905933,0.200264 C 10.84911,13.108137 10.35652,12.716458 10.151334,12.283466 9.8319978,11.609588 9.9566358,10.897948 10.486905,10.367487 10.861083,9.993175 11.36676,9.820613 11.875408,9.893663 c 0.736916,0.10584 1.333873,0.702793 1.439706,1.439705 0.04546,0.316486 -0.01451,0.672829 -0.164913,0.978086 -0.123714,0.251312 -0.451075,0.584414 -0.709647,0.722106 -0.330356,0.175928 -0.761068,0.237425 -1.141034,0.162915 z M 8.7634014,8.517474 C 8.1831929,8.3969054 7.8208958,7.7443551 8.0281292,7.1931418 8.1124591,6.968824 8.3057074,6.7478792 8.5130604,6.6386925 c 0.142123,-0.074836 0.195983,-0.084764 0.459491,-0.084764 0.263517,0 0.317376,0.010036 0.4594922,0.084764 0.3448822,0.181613 0.5617702,0.5577652 0.5397602,0.9361294 C 9.9357438,8.1949205 9.3626216,8.641995 8.7634014,8.517474 Z m 3.0683246,0.0035 C 11.5023,8.4140616 11.329181,8.1865323 11.329181,7.8605304 c 0,-0.1959116 0.03179,-0.2797031 0.162582,-0.4286909 0.271413,-0.3091223 0.723119,-0.3091223 0.994533,0 0.130821,0.1489973 0.162581,0.232763 0.162581,0.4286909 0,0.175761 -0.06366,0.3528252 -0.166459,0.4630427 C 12.333135,8.483632 12.014427,8.580322 11.831714,8.521006 Z"
     id="path4513"
     inkscape:connector-curvature="0" />
  <text
     xml:space="preserve"
     style="font-style:normal;font-variant:normal;font-weight:normal;font-stretch:normal;font-size:6.01078844px;line-height:1.25;font-family:sans-serif;-inkscape-font-specification:sans-serif;letter-spacing:0px;word-spacing:0px;fill:#f9f9f9;fill-opacity:1;stroke:none;stroke-width:0.15026969"
     x="9.75735"
     y="27.464756"
     id="text4517"><tspan
       sodipodi:role="line"
       id="tspan4515"
       x="9.75735"
       y="27.464756"
       style="font-style:normal;font-variant:normal;font-weight:normal;font-stretch:normal;font-family:sans-serif;-inkscape-font-specification:sans-serif;fill:#f9f9f9;stroke-width:0.15026969">SVG</tspan></text>
</svg>
