<?xml version="1.0" encoding="UTF-8" standalone="no"?>
<svg
   xmlns:dc="http://purl.org/dc/elements/1.1/"
   xmlns:cc="http://creativecommons.org/ns#"
   xmlns:rdf="http://www.w3.org/1999/02/22-rdf-syntax-ns#"
   xmlns:svg="http://www.w3.org/2000/svg"
   xmlns="http://www.w3.org/2000/svg"
   xmlns:sodipodi="http://sodipodi.sourceforge.net/DTD/sodipodi-0.dtd"
   xmlns:inkscape="http://www.inkscape.org/namespaces/inkscape"
   height="32"
   width="32"
   version="1"
   id="svg32"
   sodipodi:docname="syncthing-gtk.svg"
   inkscape:version="0.92.1 r">
  <metadata
     id="metadata38">
    <rdf:RDF>
      <cc:Work
         rdf:about="">
        <dc:format>image/svg+xml</dc:format>
        <dc:type
           rdf:resource="http://purl.org/dc/dcmitype/StillImage" />
      </cc:Work>
    </rdf:RDF>
  </metadata>
  <defs
     id="defs36" />
  <sodipodi:namedview
     pagecolor="#ffffff"
     bordercolor="#666666"
     borderopacity="1"
     objecttolerance="10"
     gridtolerance="10"
     guidetolerance="10"
     inkscape:pageopacity="0"
     inkscape:pageshadow="2"
     inkscape:window-width="640"
     inkscape:window-height="480"
     id="namedview34"
     showgrid="false"
     inkscape:zoom="8.375"
     inkscape:cx="-14.725085"
     inkscape:cy="36.943245"
     inkscape:current-layer="svg32" />
  <rect
     style="opacity:1;fill:#0083c4;fill-opacity:1;fill-rule:evenodd;stroke:none;stroke-width:1.03534329;stroke-linecap:round;stroke-linejoin:bevel;stroke-miterlimit:4;stroke-dasharray:none;stroke-dashoffset:0;stroke-opacity:1"
     id="rect4497-3-3"
     width="28.203388"
     height="28.203388"
     x="1.8983059"
     y="1.8983059"
     ry="5.575182" />
  <g
     id="g4528"
     transform="matrix(0.80383795,0,0,0.80383795,3.1385928,3.1385928)"
     style="stroke-width:1.24403179">
    <rect
       id="rect2"
       x="-30"
       y="-30"
       width="28"
       height="28"
       ry="14"
       rx="14"
       transform="matrix(0,-1,-1,0,0,0)"
       style="fill:#1ca4d4;stroke-width:1.24403179" />
    <path
       id="path6"
       d="M 16,6 A 10,10 0 0 0 6,16 10,10 0 0 0 16,26 10,10 0 0 0 26,16 10,10 0 0 0 25.385,12.586 L 25.406,12.57 25.354,12.496 A 10,10 0 0 0 16,6 Z m 0,1 a 9,9 0 0 1 7.988,4.861 L 17.748,16.32 7.102,17.287 A 9,9 0 0 1 7,16 9,9 0 0 1 16,7 Z m 8.539,6.189 A 9,9 0 0 1 25,16 9,9 0 0 1 22.393,22.326 l -3.434,-5.15 z m -6.891,4.545 3.674,5.51 A 9,9 0 0 1 16,25 9,9 0 0 1 7.4141,18.666 l 10.234,-0.932 z"
       inkscape:connector-curvature="0"
       style="fill:#ffffff;stroke-width:1.24403179" />
    <g
       id="g26"
       style="fill:#ffffff;stroke-width:1.24403179">
      <circle
         id="circle18"
         r="2"
         cx="7"
         cy="18"
         style="stroke-width:1.24403179" />
      <circle
         id="circle20"
         r="2"
         cx="22"
         cy="23"
         style="stroke-width:1.24403179" />
      <circle
         id="circle22"
         r="2"
         cx="25"
         cy="12"
         style="stroke-width:1.24403179" />
      <circle
         id="circle24"
         r="2"
         cx="18"
         cy="17"
         style="stroke-width:1.24403179" />
    </g>
  </g>
</svg>
