<?xml version="1.0" encoding="UTF-8" standalone="no"?>
<svg
   xmlns:dc="http://purl.org/dc/elements/1.1/"
   xmlns:cc="http://creativecommons.org/ns#"
   xmlns:rdf="http://www.w3.org/1999/02/22-rdf-syntax-ns#"
   xmlns:svg="http://www.w3.org/2000/svg"
   xmlns="http://www.w3.org/2000/svg"
   xmlns:sodipodi="http://sodipodi.sourceforge.net/DTD/sodipodi-0.dtd"
   xmlns:inkscape="http://www.inkscape.org/namespaces/inkscape"
   height="32"
   width="32"
   version="1"
   id="svg10"
   sodipodi:docname="A35F_hh.0.svg"
   inkscape:version="0.92.1 r">
  <metadata
     id="metadata16">
    <rdf:RDF>
      <cc:Work
         rdf:about="">
        <dc:format>image/svg+xml</dc:format>
        <dc:type
           rdf:resource="http://purl.org/dc/dcmitype/StillImage" />
      </cc:Work>
    </rdf:RDF>
  </metadata>
  <defs
     id="defs14" />
  <sodipodi:namedview
     pagecolor="#ffffff"
     bordercolor="#666666"
     borderopacity="1"
     objecttolerance="10"
     gridtolerance="10"
     guidetolerance="10"
     inkscape:pageopacity="0"
     inkscape:pageshadow="2"
     inkscape:window-width="1680"
     inkscape:window-height="965"
     id="namedview12"
     showgrid="false"
     inkscape:zoom="7.375"
     inkscape:cx="-10.711864"
     inkscape:cy="16"
     inkscape:window-x="0"
     inkscape:window-y="0"
     inkscape:window-maximized="1"
     inkscape:current-layer="svg10" />
  <rect
     style="opacity:1;fill:#666666;fill-opacity:1;fill-rule:evenodd;stroke:none;stroke-width:1.03534329;stroke-linecap:round;stroke-linejoin:bevel;stroke-miterlimit:4;stroke-dasharray:none;stroke-dashoffset:0;stroke-opacity:1"
     id="rect4497-3"
     width="28.203388"
     height="28.203388"
     x="1.8983059"
     y="1.8983059"
     ry="5.575182" />
  <path
     inkscape:connector-curvature="0"
     style="fill:#cccccc;stroke-width:0.72881722"
     d="M 16.065594,5.7968256 C 14.740604,5.7900456 13.390835,6.0435302 12.086981,6.5854058 6.8708357,8.7529081 4.4176367,14.695684 6.5851397,19.911829 8.7526417,25.127974 14.696875,27.58263 19.91302,25.415128 25.129165,23.247626 27.582363,17.30485 25.414861,12.088705 23.78887,8.1766324 20.039105,5.8171596 16.065594,5.7968256 Z m -0.06559,4.3729034 a 5.8305376,5.8305376 0 0 1 5.830538,5.830538 5.8305376,5.8305376 0 0 1 -5.830538,5.830538 5.8305376,5.8305376 0 0 1 -5.830537,-5.830538 5.8305376,5.8305376 0 0 1 5.830537,-5.830538 z"
     id="path2-3" />
  <path
     inkscape:connector-curvature="0"
     style="fill:#e74c3c;stroke-width:0.72881722"
     d="m 16.065442,5.796553 c -1.228786,-0.00627 -2.47725,0.215001 -3.692917,0.6789661 l 1.55311,4.0768579 a 5.8305376,5.8305376 0 0 1 2.074213,-0.382921 5.8305376,5.8305376 0 0 1 2.072756,0.387148 L 19.628629,6.4726767 C 18.498234,6.0423101 17.294228,5.8028208 16.065442,5.796553 Z m -9.5883188,6.57466 c -0.463965,1.215667 -0.685307,2.464131 -0.678966,3.692917 0.0063,1.228786 0.247214,2.43425 0.677508,3.564645 l 4.0768578,-1.553109 a 5.8305376,5.8305376 0 0 1 -0.382921,-2.075672 5.8305376,5.8305376 0 0 1 0.388606,-2.074214 z m 19.0469078,0 -4.076274,1.55311 a 5.8305376,5.8305376 0 0 1 0.382629,2.075671 5.8305376,5.8305376 0 0 1 -0.387002,2.072757 l 4.082105,1.556024 c 0.430731,-1.130395 0.669783,-2.335859 0.676342,-3.564645 0.0066,-1.228786 -0.213543,-2.47725 -0.6778,-3.692917 z m -11.596939,9.072317 -1.554567,4.080648 c 1.215667,0.464256 2.464131,0.685817 3.692917,0.679257 1.228786,-0.0066 2.432792,-0.245611 3.563187,-0.676342 l -1.553109,-4.07919 a 5.8305376,5.8305376 0 0 1 -2.075672,0.382629 5.8305376,5.8305376 0 0 1 -2.072756,-0.387002 z"
     id="path4-6" />
</svg>
