<?xml version="1.0" encoding="UTF-8" standalone="no"?>
<svg
   xmlns:dc="http://purl.org/dc/elements/1.1/"
   xmlns:cc="http://creativecommons.org/ns#"
   xmlns:rdf="http://www.w3.org/1999/02/22-rdf-syntax-ns#"
   xmlns:svg="http://www.w3.org/2000/svg"
   xmlns="http://www.w3.org/2000/svg"
   xmlns:sodipodi="http://sodipodi.sourceforge.net/DTD/sodipodi-0.dtd"
   xmlns:inkscape="http://www.inkscape.org/namespaces/inkscape"
   height="32"
   width="32"
   version="1"
   id="svg26"
   sodipodi:docname="teamspeak3.svg"
   inkscape:version="0.92.1 r">
  <metadata
     id="metadata32">
    <rdf:RDF>
      <cc:Work
         rdf:about="">
        <dc:format>image/svg+xml</dc:format>
        <dc:type
           rdf:resource="http://purl.org/dc/dcmitype/StillImage" />
      </cc:Work>
    </rdf:RDF>
  </metadata>
  <defs
     id="defs30" />
  <sodipodi:namedview
     pagecolor="#ffffff"
     bordercolor="#666666"
     borderopacity="1"
     objecttolerance="10"
     gridtolerance="10"
     guidetolerance="10"
     inkscape:pageopacity="0"
     inkscape:pageshadow="2"
     inkscape:window-width="640"
     inkscape:window-height="480"
     id="namedview28"
     showgrid="false"
     inkscape:zoom="5.9220193"
     inkscape:cx="-38.259302"
     inkscape:cy="27.729629"
     inkscape:current-layer="svg26" />
  <rect
     style="opacity:1;fill:#3d6080;fill-opacity:1;fill-rule:evenodd;stroke:none;stroke-width:1.03534329;stroke-linecap:round;stroke-linejoin:bevel;stroke-miterlimit:4;stroke-dasharray:none;stroke-dashoffset:0;stroke-opacity:1"
     id="rect4497-3-3-6"
     width="28.203388"
     height="28.203388"
     x="1.8983059"
     y="1.8983059"
     ry="5.575182" />
  <g
     display="none"
     transform="translate(-52.273,-18.186)"
     id="g6">
    <rect
       rx="9"
       ry="9"
       height="44"
       width="44"
       y="2"
       x="2"
       fill="#abe1ad"
       id="rect4" />
  </g>
  <g
     id="g4552"
     transform="translate(43.46289,-1.1933595)">
    <path
       id="path4532"
       d="M -28.716797,31.294922 V 29.25 l 2.791016,-0.03516 c 0.607142,0 1.192728,-0.253452 1.626953,-0.658203 0.434225,-0.404752 0.716797,-0.959882 0.716797,-1.564453 v -2.890626 l 1.230469,-0.01758 c 0.57945,-0.0077 0.996187,-0.172475 1.201171,-0.46289 0.204985,-0.290416 0.197768,-0.708031 -0.07227,-1.222656 l -2.345703,-3.701172 -0.01367,-0.712891 v -1.916016 c 0,-0.03212 -0.002,-0.06358 -0.002,-0.0957 0.01028,-0.161906 0.01107,-0.326377 0.01367,-0.488281 0,-0.06296 -0.01107,-0.122583 -0.01367,-0.185547 0.0032,-0.0669 0.0059,-0.132271 0.0078,-0.199219 0,-1.419323 -0.288415,-2.772112 -0.808594,-4.001953 -0.520178,-1.2298404 -1.272999,-2.3374523 -2.203125,-3.2675779 -0.930125,-0.9301256 -2.037737,-1.6829462 -3.267578,-2.203125 -1.22984,-0.5201787 -2.582629,-0.8085937 -4.001953,-0.8085937 -0.72729,0.00221 -2.351284,-0.013969 -3.960937,0.042969 -1.005608,0.035571 -1.646161,0.1878787 -2.416016,0.3046875 -0.79371,0.9628787 -1.330078,2.1510121 -1.330078,3.5019532 V 25.720703 c 0,3.088651 2.487521,5.574219 5.576172,5.574219 z"
       style="opacity:1;fill:#7a9bbb;fill-opacity:1;fill-rule:evenodd;stroke:none;stroke-width:1.03534329;stroke-linecap:round;stroke-linejoin:bevel;stroke-miterlimit:4;stroke-dasharray:none;stroke-dashoffset:0;stroke-opacity:1"
       inkscape:connector-curvature="0" />
    <path
       id="rect4497-3-3"
       d="m -35.988281,3.0917969 c -1.73771,0 -3.225148,0.835672 -4.246094,2.0742187 0.769855,-0.1168088 1.410408,-0.2691165 2.416016,-0.3046875 1.609653,-0.056938 3.233647,-0.040754 3.960937,-0.042969 1.419324,0 2.772113,0.288415 4.001953,0.8085937 1.229841,0.5201788 2.337453,1.2729994 3.267578,2.203125 0.930126,0.9301256 1.682947,2.0377375 2.203125,3.2675779 0.520179,1.229841 0.808594,2.58263 0.808594,4.001953 -0.0019,0.06695 -0.0046,0.132319 -0.0078,0.199219 0.0026,0.06296 0.01367,0.122587 0.01367,0.185547 -0.0026,0.161904 -0.0034,0.326375 -0.01367,0.488281 0,0.03212 0.002,0.06358 0.002,0.0957 v 1.916016 l 0.01367,0.712891 2.345703,3.701172 c 0.270033,0.514625 0.27725,0.93224 0.07227,1.222656 -0.204984,0.290415 -0.621721,0.45518 -1.201171,0.46289 l -1.230469,0.01758 v 2.890626 c 0,0.604571 -0.282572,1.159701 -0.716797,1.564453 -0.434225,0.404751 -1.019811,0.658203 -1.626953,0.658203 L -28.716797,29.25 v 2.044922 h 9.78125 c 3.088651,0 5.574219,-2.485568 5.574219,-5.574219 V 8.6679688 c 0,-3.0886509 -2.485568,-5.5761719 -5.574219,-5.5761719 z"
       style="opacity:1;fill:#3d6080;fill-opacity:1;fill-rule:evenodd;stroke:none;stroke-width:1.03534329;stroke-linecap:round;stroke-linejoin:bevel;stroke-miterlimit:4;stroke-dasharray:none;stroke-dashoffset:0;stroke-opacity:1"
       inkscape:connector-curvature="0" />
    <rect
       id="rect16"
       x="-37.711353"
       y="4.8190951"
       width="3.8548698"
       height="7.7097397"
       ry="1.9274349"
       rx="1.9274349"
       style="fill:#4c4c4c;stroke-width:1.00000012" />
    <circle
       id="circle18"
       cy="26.02088"
       cx="-24.219309"
       style="fill:#4c4c4c;stroke-width:1.00000012"
       r="1.9274349" />
    <path
       inkscape:connector-curvature="0"
       id="path20"
       d="m -35.783918,15.741226 11.56461,10.279653"
       style="fill:none;stroke:#4c4c4c;stroke-width:1.00000012" />
    <path
       inkscape:connector-curvature="0"
       id="path24"
       d="m -31.28657,15.741226 a 4.497348,4.497348 0 0 1 -4.497348,4.497348 4.497348,4.497348 0 0 1 -4.497348,-4.497348 4.497348,4.497348 0 0 1 4.497348,-4.497348 4.497348,4.497348 0 0 1 4.497348,4.497348 z"
       style="fill:#4cff83;stroke-width:1.00000012" />
  </g>
</svg>
