<?xml version="1.0" encoding="UTF-8" standalone="no"?>
<svg
   xmlns:dc="http://purl.org/dc/elements/1.1/"
   xmlns:cc="http://creativecommons.org/ns#"
   xmlns:rdf="http://www.w3.org/1999/02/22-rdf-syntax-ns#"
   xmlns:svg="http://www.w3.org/2000/svg"
   xmlns="http://www.w3.org/2000/svg"
   xmlns:sodipodi="http://sodipodi.sourceforge.net/DTD/sodipodi-0.dtd"
   xmlns:inkscape="http://www.inkscape.org/namespaces/inkscape"
   height="32"
   width="32"
   version="1.1"
   viewBox="0 0 32 32"
   id="svg24"
   sodipodi:docname="com.teeworlds.Teeworlds.svg"
   inkscape:version="0.92.1 r">
  <metadata
     id="metadata30">
    <rdf:RDF>
      <cc:Work
         rdf:about="">
        <dc:format>image/svg+xml</dc:format>
        <dc:type
           rdf:resource="http://purl.org/dc/dcmitype/StillImage" />
      </cc:Work>
    </rdf:RDF>
  </metadata>
  <defs
     id="defs28" />
  <sodipodi:namedview
     pagecolor="#ffffff"
     bordercolor="#666666"
     borderopacity="1"
     objecttolerance="10"
     gridtolerance="10"
     guidetolerance="10"
     inkscape:pageopacity="0"
     inkscape:pageshadow="2"
     inkscape:window-width="640"
     inkscape:window-height="480"
     id="namedview26"
     showgrid="false"
     inkscape:zoom="8.8125"
     inkscape:cx="-5.6737589"
     inkscape:cy="16"
     inkscape:current-layer="svg24" />
  <rect
     style="opacity:1;fill:#fdc33b;fill-opacity:1;fill-rule:evenodd;stroke:none;stroke-width:1.03534329;stroke-linecap:round;stroke-linejoin:bevel;stroke-miterlimit:4;stroke-dasharray:none;stroke-dashoffset:0;stroke-opacity:1"
     id="rect4497-3"
     width="28.203388"
     height="28.203388"
     x="1.8983059"
     y="1.8983059"
     ry="5.575182" />
  <g
     id="g4519"
     transform="translate(48,0.45390078)">
    <path
       inkscape:connector-curvature="0"
       id="path4"
       style="fill:#e9980a;stroke-width:0.99999994"
       d="m -23.784803,23.510237 c -0.0018,1.455011 -0.361697,1.940193 -4.936507,1.940193 -1.30056,0 -2.883708,0.114213 -3.717185,-0.408487 -0.786998,-0.49355 -0.503146,-1.217879 -0.503147,-1.955024 0,-1.517827 1.487118,-2.583373 4.015709,-2.583373 2.528592,0 5.143018,1.487234 5.14113,3.006691 z" />
    <path
       inkscape:connector-curvature="0"
       id="path8"
       style="fill:#ffffff;stroke-width:0.99999994"
       d="M -32,5.6312056 A 9.206687,9.206687 0 0 0 -41.206687,14.837892 9.206687,9.206687 0 0 0 -32,24.044579 9.206687,9.206687 0 0 0 -22.793313,14.837892 9.206687,9.206687 0 0 0 -32,5.6312056 Z" />
    <path
       inkscape:connector-curvature="0"
       id="path14"
       d="m -31.291794,23.510237 c -0.0018,1.455011 -0.361697,1.940193 -4.936508,1.940193 -1.300559,0 -2.883706,0.114213 -3.717184,-0.408487 -0.786998,-0.49355 -0.503146,-1.217879 -0.503147,-1.955024 0,-1.517827 1.487118,-2.583373 4.015708,-2.583373 2.528592,0 5.143018,1.487234 5.141131,3.006691 z"
       style="fill:#e9980a;stroke-width:0.99999994" />
    <ellipse
       id="ellipse16"
       ry="2.12462"
       rx="1.4164134"
       cy="13.421479"
       cx="-33.416412"
       style="fill:#414141;stroke-width:0.99999994" />
    <ellipse
       id="ellipse20"
       style="fill:#414141;stroke-width:0.99999994"
       cx="-29.167173"
       cy="13.421479"
       rx="1.4164134"
       ry="2.12462" />
  </g>
</svg>
