<?xml version="1.0" encoding="UTF-8" standalone="no"?>
<svg
   xmlns:dc="http://purl.org/dc/elements/1.1/"
   xmlns:cc="http://creativecommons.org/ns#"
   xmlns:rdf="http://www.w3.org/1999/02/22-rdf-syntax-ns#"
   xmlns:svg="http://www.w3.org/2000/svg"
   xmlns="http://www.w3.org/2000/svg"
   xmlns:sodipodi="http://sodipodi.sourceforge.net/DTD/sodipodi-0.dtd"
   xmlns:inkscape="http://www.inkscape.org/namespaces/inkscape"
   height="32"
   width="32"
   version="1"
   id="svg14"
   sodipodi:docname="tigervnc.svg"
   inkscape:version="0.92.1 r">
  <metadata
     id="metadata20">
    <rdf:RDF>
      <cc:Work
         rdf:about="">
        <dc:format>image/svg+xml</dc:format>
        <dc:type
           rdf:resource="http://purl.org/dc/dcmitype/StillImage" />
      </cc:Work>
    </rdf:RDF>
  </metadata>
  <defs
     id="defs18" />
  <sodipodi:namedview
     pagecolor="#ffffff"
     bordercolor="#666666"
     borderopacity="1"
     objecttolerance="10"
     gridtolerance="10"
     guidetolerance="10"
     inkscape:pageopacity="0"
     inkscape:pageshadow="2"
     inkscape:window-width="640"
     inkscape:window-height="480"
     id="namedview16"
     showgrid="false"
     inkscape:zoom="13.435029"
     inkscape:cx="28.199578"
     inkscape:cy="24.436523"
     inkscape:current-layer="svg14" />
  <polygon
     fill="#5a0e00"
     display="none"
     points="713 603 688.5 578 676.5 569.5 693.5 560.5 693.5 540 732.5 497.5 664 430.5 588 333 517.5 214 500 192 386 355 328 328 304 332.5 299.5 366 318.5 403.5 338 431 309.5 462 275.5 507 300 533 304 551 318.5 569.5 340.5 583 351.5 604.5 373.5 617 395 637.5 452.5 723 488.5 788.5 502 812.5 551.5 721.5 612.5 637 628.5 616 668 619.5 707 615"
     transform="matrix(.063142 0 0 .063142 -131 -24.03)"
     id="polygon2" />
  <g
     id="g4649">
    <g
       transform="translate(82.655993,4.5263671)"
       id="g4636">
      <path
         inkscape:connector-curvature="0"
         style="opacity:1;fill:#ff7f2a;fill-opacity:1;fill-rule:evenodd;stroke:none;stroke-width:1.03534329;stroke-linecap:round;stroke-linejoin:bevel;stroke-miterlimit:4;stroke-dasharray:none;stroke-dashoffset:0;stroke-opacity:1"
         d="m -68.533203,-2.6289062 h -6.941406 c -1.482833,0 -2.807936,0.5974481 -3.804688,1.5351562 0.04079,0.071227 0.123285,0.24197089 0.246094,0.53710938 0.145501,0.34972402 0.414505,0.99611843 0.597656,1.43554687 0.457662,1.09802035 0.511713,1.37155225 0.507813,2.57226565 -0.0032,1.0067323 -0.01925,1.1418114 -0.402344,3.5703125 -0.0772,0.4896661 -0.138178,1.0906298 -0.142578,1.421875 -0.0074,0.520194 0.006,0.5988062 0.121094,0.8242187 0.07879,0.1544005 0.192848,0.28448 0.298828,0.34375 0.170573,0.095404 0.169649,0.093914 0.585937,-0.035156 0.229252,-0.071068 0.680714,-0.1946418 1.003906,-0.2773438 0.323203,-0.082705 0.763512,-0.2072396 0.976563,-0.2753906 0.400004,-0.1279478 1.476562,-0.5736661 1.476562,-0.6113281 -1e-5,-0.011639 -0.05592,-0.1263175 -0.123046,-0.2558594 -0.197193,-0.3805503 -0.307163,-0.8429515 -0.328126,-1.3359375 -0.02096,-0.492986 0.04769,-1.0175932 0.207032,-1.5234375 0.100225,-0.3180323 0.156544,-0.3968975 0.28125,-0.3984375 0.12993,-0.00158 0.165374,0.1756678 0.08984,0.453125 -0.0949,0.348362 -0.09521,0.7094978 0.002,1.1679687 0.172981,0.818424 0.387519,1.2246152 0.753906,1.4296876 0.185116,0.1036101 0.282494,0.1191406 0.675781,0.1191406 0.632381,0 0.604263,0.016528 2.050781,-1.1601563 0.503614,-0.4096709 1.067555,-0.7380745 1.759766,-1.0136719 0.692211,-0.2755973 1.513452,-0.4980764 2.527344,-0.6933593 1.718204,-0.330937 2.914585,-0.4056338 4.546875,-0.2792969 0.898644,0.069554 1.51602,0.081865 2.052734,0.00977 0.536715,-0.072099 0.99367,-0.2271863 1.570313,-0.4941406 0.763857,-0.3536229 1.075451,-0.4028188 1.341797,-0.2089844 0.34241,0.2491872 0.438486,0.7050516 0.230468,1.1035156 -0.294743,0.5645887 -0.991313,1.1598308 -2.4375,2.0878907 -1.076789,0.6910055 -1.364068,0.9030163 -2.068359,1.5214843 -0.238888,0.2097763 -0.632617,0.5422673 -0.875,0.7382813 -0.496047,0.4011385 -0.894917,0.8634195 -1.474609,1.7089845 -0.500451,0.729983 -0.812009,1.063721 -1.398438,1.49414 -0.802574,0.589058 -1.463744,0.867178 -2.277344,0.960938 -0.611205,0.07044 -1.941975,0.0265 -2.457031,-0.08203 -0.946797,-0.19949 -1.977637,-0.620868 -3.603516,-1.47461 -0.888711,-0.466659 -1.68515,-0.651814 -3.58789,-0.828125 -0.87083,-0.08066 -0.947694,-0.08104 -1.113281,-0.0039 -0.24262,0.113056 -0.227985,0.235551 0.0625,0.539063 0.302629,0.316161 1.081137,0.701618 1.701171,0.84375 0.706663,0.161989 1.200336,0.318658 1.730469,0.599609 0.530133,0.280951 1.096506,0.686168 1.949219,1.349609 0.946185,0.736168 1.394063,1.0418 1.794922,1.220703 0.360525,0.160903 0.829122,0.275391 1.117187,0.275391 0.127759,0 0.525771,0.0332 0.884766,0.07422 1.007233,0.11514 1.879824,0.31474 2.458984,0.535156 0.579161,0.220417 0.863442,0.461494 0.691406,0.664063 -0.0847,0.09976 -0.18614,0.0966 -1.050781,-0.04883 -0.408231,-0.06866 -0.866141,-0.125 -1.017578,-0.125 -0.151447,10e-7 -0.696621,0.07882 -1.210937,0.177735 -1.098414,0.211255 -2.181395,0.272008 -2.726563,0.150391 -0.451045,-0.100605 -0.875507,-0.326741 -1.386719,-0.742188 -1.163195,-0.945286 -2.039789,-1.527005 -3.839843,-2.544922 -1.410516,-0.797633 -1.860688,-1.079158 -2.357422,-1.472656 -0.711585,-0.563696 -1.166528,-1.227182 -1.375,-2.041016 -0.208472,-0.813834 -0.170994,-1.7774942 0.09766,-2.941406 0.08238,-0.3570353 0.276413,-1.1205175 0.431641,-1.6972656 0.332274,-1.2345473 0.438046,-1.8622022 0.435546,-2.6035156 -0.0032,-1.014729 -0.210657,-1.7564991 -0.824218,-2.95507818 l -0.205078,-0.3984375 C -80.73669,1.1085776 -81.048828,1.9750578 -81.048828,2.9472656 V 20 c 0,3.088651 2.485568,5.576172 5.574219,5.576172 h 6.99414 c -0.991913,-0.150446 -1.976733,-0.272468 -3.082031,-0.666016 -1.568983,-0.558645 -3.178219,-1.33616 -4.619141,-2.257812 -0.860554,-0.550434 -1.813866,-1.386339 -2.009765,-1.761719 -0.109176,-0.209219 -0.12924,-0.421645 -0.07422,-0.597656 0.05502,-0.176012 0.18464,-0.314783 0.376953,-0.371094 0.419277,-0.122754 0.963729,0.103376 2.269531,0.941406 0.858875,0.551204 2.11792,1.191295 3.064453,1.558594 1.634915,0.63442 3.160816,1.022687 4.613282,1.167969 1.452466,0.145282 2.831399,0.04762 4.173828,-0.289063 1.510149,-0.378744 4.247629,-1.339743 5.351562,-1.878906 0.91257,-0.445704 1.737759,-0.970799 2.498047,-1.595703 0.760289,-0.624904 1.45497,-1.349126 2.109375,-2.191406 0.326553,-0.420305 0.652921,-0.700777 0.962891,-0.962891 V 2.9472656 c 0,-3.08865078 -2.485568,-5.5761718 -5.574219,-5.5761718 h -8.464844 c -0.151595,0.4101723 -0.241629,0.738973 -0.53125,1.3320312 -0.275582,0.564305 -0.598438,1.25270261 -0.716796,1.52734375 -0.381512,0.88528985 -0.447607,1.00895825 -0.798829,1.53125005 -0.311316,0.4629323 -0.625584,0.8174439 -0.904297,1.0332031 -0.278712,0.2157592 -0.521129,0.2934997 -0.689453,0.2011719 C -70.598474,2.9560031 -70.71465,2.845418 -70.78125,2.75 c -0.10345,-0.1482608 -0.118116,-0.2185682 -0.09766,-0.4746094 0.02904,-0.36448 0.20577,-0.7556473 0.666015,-1.48242185 0.36795,-0.58100723 1.094079,-1.96934185 1.507813,-2.88476565 0.09018,-0.1995315 0.108206,-0.3528582 0.171875,-0.5371093 z m -5.429688,0.3378906 h 0.404297 l 0.183594,0.7617187 c 0.286191,1.18587647 0.337146,1.54391617 0.253906,1.7558594 -0.05925,0.15081124 -0.265401,0.0906853 -0.423828,-0.12304688 -0.08227,-0.11092331 -0.221617,-0.39747566 -0.310547,-0.63671874 -0.147465,-0.39669 -0.511719,-1.61979698 -0.511719,-1.71874998 0,-0.022784 0.182175,-0.039063 0.404297,-0.039063 z m 14.589844,1.66406248 c 0.309641,-0.0122091 0.626249,-0.0118876 0.949219,0 0.916711,0.0337382 2.050209,0.17631883 2.65625,0.3359375 0.876029,0.23072523 1.776513,0.69470106 2.283203,1.17578124 0.460788,0.43749058 0.592505,0.81460758 0.376953,1.07421878 -0.08384,0.1009803 -0.139148,0.1180012 -0.394531,0.1132812 -0.163976,-0.00304 -0.65423,-0.086592 -1.089844,-0.1855468 -1.468329,-0.333541 -3.391884,-0.561877 -4.34375,-0.515625 -1.138666,0.055323 -2.911839,0.4121033 -4.009765,0.8066406 -1.881111,0.6759782 -2.717091,0.8456208 -3.142579,0.6367187 -0.382002,-0.1875576 -0.527223,-0.6633969 -0.300781,-0.9863281 0.133546,-0.190457 0.534527,-0.4889031 0.91211,-0.6757812 0.393022,-0.1945151 2.888463,-1.15429203 3.482421,-1.3398438 0.82231,-0.2568861 1.692172,-0.40282582 2.621094,-0.43945312 z"
         id="path4596" />
      <path
         style="fill:#ffffff;fill-opacity:1;stroke:none;stroke-width:0.09999999;stroke-linecap:butt;stroke-linejoin:miter;stroke-miterlimit:4;stroke-dasharray:none;stroke-opacity:1"
         d="m -79.157894,5.2458839 c 3.037625,-2.8878465 8.23888,-1.3910625 9.584439,-1.4212669 1.345558,-0.030203 8.735701,-4.61046195 17.310297,-2.0043496 l -0.109331,4.5553419 c -6.906577,-0.00249 -5.086763,12.1504547 -13.702468,10.8963767 l -5.393523,-0.473757 -7.689417,-4.956211 z"
         id="path4612"
         inkscape:connector-curvature="0"
         sodipodi:nodetypes="czcccccc" />
      <path
         inkscape:connector-curvature="0"
         style="opacity:1;fill:#000000;fill-opacity:1;fill-rule:evenodd;stroke:none;stroke-width:1.03534329;stroke-linecap:round;stroke-linejoin:bevel;stroke-miterlimit:4;stroke-dasharray:none;stroke-dashoffset:0;stroke-opacity:1"
         d="m -67.699219,8.84375 c -0.543793,0 -0.902473,0.350198 -1.003906,0.7597656 -0.05072,0.2047838 -0.03618,0.4251374 0.05078,0.6230464 0.08696,0.19791 0.247531,0.373998 0.490235,0.492188 0.443146,0.215798 0.912774,0.124456 1.242187,-0.242188 0.247216,-0.27519 0.322263,-0.6145244 0.210938,-0.9394526 C -66.85984,9.0968343 -67.222456,8.84375 -67.699219,8.84375 Z"
         id="path4610" />
      <path
         inkscape:connector-curvature="0"
         style="opacity:1;fill:#8dde81;fill-opacity:1;fill-rule:evenodd;stroke:none;stroke-width:1.03534329;stroke-linecap:round;stroke-linejoin:bevel;stroke-miterlimit:4;stroke-dasharray:none;stroke-dashoffset:0;stroke-opacity:1"
         d="m -66.21875,6.2109375 c -0.07628,-0.010343 -0.157158,0.00167 -0.304688,0.03125 -0.482613,0.096747 -1.477775,0.4381472 -1.933593,0.6621094 -0.496713,0.2440539 -1.031203,0.5909751 -1.466797,0.9511719 -0.175168,0.1448481 -0.504828,0.4176758 -0.732422,0.6054687 -0.227593,0.1877915 -0.544001,0.405219 -0.703125,0.484375 l -0.291016,0.1445313 -0.03711,0.3886718 c -0.04436,0.460736 0.0073,0.9453154 0.142578,1.4082034 0.135304,0.462888 0.353647,0.904709 0.640625,1.27539 0.177713,0.229527 0.217829,0.252464 0.525391,0.314453 0.81212,0.163667 2.035252,0.18933 2.990234,0.06055 0.565888,-0.07631 1.102195,-0.336256 1.734375,-0.833984 0.676135,-0.532331 1.436275,-1.259613 1.734375,-1.660156 0.235549,-0.3165078 0.241164,-0.3297976 0.208984,-0.5996096 -0.08093,-0.6784452 -0.326569,-1.305541 -0.707031,-1.8398438 -0.380461,-0.5343027 -0.89673,-0.9745037 -1.517578,-1.28125 -0.135236,-0.066816 -0.206923,-0.1009851 -0.283203,-0.1113281 z M -67.699219,8.84375 c 0.476763,0 0.839379,0.2530843 0.990235,0.6933594 0.111325,0.3249282 0.03628,0.6642626 -0.210938,0.9394526 -0.329413,0.366644 -0.799041,0.457986 -1.242187,0.242188 -0.242704,-0.11819 -0.403272,-0.294278 -0.490235,-0.492188 -0.08696,-0.197909 -0.101498,-0.4182626 -0.05078,-0.6230464 0.101433,-0.4095676 0.460113,-0.7597656 1.003906,-0.7597656 z"
         id="path4608" />
      <path
         inkscape:connector-curvature="0"
         style="opacity:1;fill:#4f4f4f;fill-opacity:1;fill-rule:evenodd;stroke:none;stroke-width:1.03534329;stroke-linecap:round;stroke-linejoin:bevel;stroke-miterlimit:4;stroke-dasharray:none;stroke-dashoffset:0;stroke-opacity:1"
         d="m -59.373047,-0.62695312 c -0.928922,0.0366273 -1.798784,0.18256702 -2.621094,0.43945312 -0.593958,0.18555177 -3.089399,1.1453287 -3.482421,1.3398438 -0.377583,0.1868781 -0.778564,0.4853242 -0.91211,0.6757812 -0.226442,0.3229312 -0.08122,0.7987705 0.300781,0.9863281 0.425488,0.2089021 1.261468,0.03926 3.142579,-0.6367187 1.097926,-0.3945373 2.871099,-0.751318 4.009765,-0.8066406 0.951866,-0.046252 2.875421,0.182084 4.34375,0.515625 0.435614,0.098955 0.925868,0.1825022 1.089844,0.1855468 0.255383,0.00472 0.310687,-0.012301 0.394531,-0.1132812 0.215552,-0.2596112 0.08384,-0.6367282 -0.376953,-1.07421878 -0.50669,-0.48108018 -1.407174,-0.94505601 -2.283203,-1.17578124 -0.606041,-0.15961867 -1.739539,-0.30219928 -2.65625,-0.3359375 -0.32297,-0.0118876 -0.639578,-0.0122091 -0.949219,0 z"
         id="path4606" />
      <path
         inkscape:connector-curvature="0"
         style="opacity:1;fill:#4f4f4f;fill-opacity:1;fill-rule:evenodd;stroke:none;stroke-width:1.03534329;stroke-linecap:round;stroke-linejoin:bevel;stroke-miterlimit:4;stroke-dasharray:none;stroke-dashoffset:0;stroke-opacity:1"
         d="m -73.962891,-2.2910156 c -0.222122,-2e-7 -0.404297,0.016279 -0.404297,0.039063 0,0.098953 0.364254,1.32205998 0.511719,1.71874998 0.08893,0.23924308 0.228275,0.52579543 0.310547,0.63671874 0.158427,0.21373217 0.36458,0.27385812 0.423828,0.12304688 0.08324,-0.21194323 0.03229,-0.56998293 -0.253906,-1.7558594 l -0.183594,-0.7617187 z"
         id="path4604" />
      <path
         inkscape:connector-curvature="0"
         style="opacity:1;fill:#4f4f4f;fill-opacity:1;fill-rule:evenodd;stroke:none;stroke-width:1.03534329;stroke-linecap:round;stroke-linejoin:bevel;stroke-miterlimit:4;stroke-dasharray:none;stroke-dashoffset:0;stroke-opacity:1"
         d="m -80.302734,0.31445312 0.205078,0.3984375 c 0.613561,1.19857908 0.82105,1.94034918 0.824218,2.95507818 0.0025,0.7413134 -0.103272,1.3689683 -0.435546,2.6035156 -0.155228,0.5767481 -0.349264,1.3402303 -0.431641,1.6972656 -0.26865,1.1639118 -0.306128,2.127572 -0.09766,2.941406 0.208472,0.813834 0.663415,1.47732 1.375,2.041016 0.496734,0.393498 0.946906,0.675023 2.357422,1.472656 1.800054,1.017917 2.676648,1.599636 3.839843,2.544922 0.511212,0.415447 0.935674,0.641583 1.386719,0.742188 0.545168,0.121617 1.628149,0.06086 2.726563,-0.150391 0.514316,-0.09891 1.05949,-0.177734 1.210937,-0.177735 0.151437,0 0.609347,0.05634 1.017578,0.125 0.864641,0.14543 0.966082,0.148593 1.050781,0.04883 0.172036,-0.202569 -0.112245,-0.443646 -0.691406,-0.664063 -0.57916,-0.220416 -1.451751,-0.420016 -2.458984,-0.535156 -0.358995,-0.04102 -0.757007,-0.07422 -0.884766,-0.07422 -0.288065,0 -0.756662,-0.114488 -1.117187,-0.275391 -0.400859,-0.178903 -0.848737,-0.484535 -1.794922,-1.220703 -0.852713,-0.663441 -1.419086,-1.068658 -1.949219,-1.349609 -0.530133,-0.280951 -1.023806,-0.43762 -1.730469,-0.599609 -0.620034,-0.142132 -1.398542,-0.527589 -1.701171,-0.84375 -0.290485,-0.303512 -0.30512,-0.426007 -0.0625,-0.539063 0.165587,-0.07713 0.242451,-0.07675 1.113281,0.0039 1.90274,0.176311 2.699179,0.361466 3.58789,0.828125 1.625879,0.853742 2.656719,1.27512 3.603516,1.47461 0.515056,0.108532 1.845826,0.152475 2.457031,0.08203 0.8136,-0.09376 1.47477,-0.37188 2.277344,-0.960938 0.586429,-0.430419 0.897987,-0.764157 1.398438,-1.49414 0.579692,-0.845565 0.978562,-1.307846 1.474609,-1.7089845 0.242383,-0.196014 0.636112,-0.528505 0.875,-0.7382813 0.704291,-0.618468 0.99157,-0.8304788 2.068359,-1.5214843 1.446187,-0.9280599 2.142757,-1.523302 2.4375,-2.0878907 0.208018,-0.398464 0.111942,-0.8543284 -0.230468,-1.1035156 -0.266346,-0.1938344 -0.57794,-0.1446385 -1.341797,0.2089844 -0.576643,0.2669543 -1.033598,0.4220415 -1.570313,0.4941406 -0.536714,0.072099 -1.15409,0.059789 -2.052734,-0.00977 -1.63229,-0.1263369 -2.828671,-0.05164 -4.546875,0.2792969 -1.013892,0.1952829 -1.835133,0.417762 -2.527344,0.6933593 -0.692211,0.2755974 -1.256152,0.604001 -1.759766,1.0136719 -1.446518,1.1766845 -1.4184,1.1601563 -2.050781,1.1601563 -0.393287,0 -0.490665,-0.015531 -0.675781,-0.1191406 -0.366387,-0.2050724 -0.580925,-0.6112636 -0.753906,-1.4296876 -0.09716,-0.4584709 -0.09685,-0.8196067 -0.002,-1.1679687 0.07553,-0.2774572 0.04009,-0.454704 -0.08984,-0.453125 -0.124706,0.00154 -0.181025,0.080405 -0.28125,0.3984375 -0.159347,0.5058443 -0.227994,1.0304515 -0.207032,1.5234375 0.02096,0.492986 0.130933,0.9553872 0.328126,1.3359375 0.06713,0.1295419 0.123036,0.2442208 0.123046,0.2558594 0,0.037662 -1.076558,0.4833803 -1.476562,0.6113281 -0.213051,0.068151 -0.65336,0.192686 -0.976563,0.2753906 -0.323192,0.082702 -0.774654,0.2062756 -1.003906,0.2773438 -0.416288,0.12907 -0.415364,0.1305601 -0.585937,0.035156 -0.10598,-0.05927 -0.220042,-0.1893495 -0.298828,-0.34375 -0.115075,-0.2254125 -0.128487,-0.3040247 -0.121094,-0.8242187 0.0044,-0.3312452 0.06538,-0.9322089 0.142578,-1.421875 0.383096,-2.4285011 0.399176,-2.5635802 0.402344,-3.5703125 0.0039,-1.2007134 -0.05015,-1.4742453 -0.507813,-2.57226565 -0.183151,-0.43942844 -0.452155,-1.08582285 -0.597656,-1.43554687 -0.122809,-0.29513849 -0.205308,-0.46588258 -0.246094,-0.53710938 -0.425909,0.40067984 -0.740618,0.89065404 -1.023437,1.40820312 z M -66.21875,6.2109375 c 0.07628,0.010343 0.147967,0.044512 0.283203,0.1113281 0.620848,0.3067463 1.137117,0.7469473 1.517578,1.28125 0.380462,0.5343028 0.626106,1.1613986 0.707031,1.8398438 0.03218,0.269812 0.02656,0.2831018 -0.208984,0.5996096 -0.2981,0.400543 -1.05824,1.127825 -1.734375,1.660156 -0.63218,0.497728 -1.168487,0.757673 -1.734375,0.833984 -0.954982,0.128783 -2.178114,0.10312 -2.990234,-0.06055 -0.307562,-0.06199 -0.347678,-0.08493 -0.525391,-0.314453 -0.286978,-0.370681 -0.505321,-0.812502 -0.640625,-1.27539 -0.135304,-0.462888 -0.186935,-0.9474674 -0.142578,-1.4082034 l 0.03711,-0.3886718 0.291016,-0.1445313 c 0.159124,-0.079156 0.475532,-0.2965835 0.703125,-0.484375 0.227594,-0.1877929 0.557254,-0.4606206 0.732422,-0.6054687 0.435594,-0.3601968 0.970084,-0.707118 1.466797,-0.9511719 0.455818,-0.2239622 1.45098,-0.5653625 1.933593,-0.6621094 0.14753,-0.029576 0.228405,-0.041593 0.304688,-0.03125 z"
         id="path4602" />
      <path
         inkscape:connector-curvature="0"
         style="opacity:1;fill:#ff7f2a;fill-opacity:1;fill-rule:evenodd;stroke:none;stroke-width:1.03534329;stroke-linecap:round;stroke-linejoin:bevel;stroke-miterlimit:4;stroke-dasharray:none;stroke-dashoffset:0;stroke-opacity:1"
         d="m -53.027344,20.900391 -5.126953,3.15625 c -1.527117,0.559629 -3.18262,1.030427 -4.757812,1.351562 -0.591508,0.120591 -1.047767,0.0933 -1.605469,0.167969 h 6.097656 c 2.768795,0 4.949024,-2.036898 5.392578,-4.675781 z"
         id="path4600" />
      <path
         inkscape:connector-curvature="0"
         style="opacity:1;fill:#4f4f4f;fill-opacity:1;fill-rule:evenodd;stroke:none;stroke-width:1.03534329;stroke-linecap:round;stroke-linejoin:bevel;stroke-miterlimit:4;stroke-dasharray:none;stroke-dashoffset:0;stroke-opacity:1"
         d="m -52.845703,16.671875 c -0.30997,0.262114 -0.636338,0.542586 -0.962891,0.962891 -0.654405,0.84228 -1.349086,1.566502 -2.109375,2.191406 -0.760288,0.624904 -1.585477,1.149999 -2.498047,1.595703 -1.103933,0.539163 -3.841413,1.500162 -5.351562,1.878906 -1.342429,0.336679 -2.721362,0.434345 -4.173828,0.289063 -1.452466,-0.145282 -2.978367,-0.533549 -4.613282,-1.167969 -0.946533,-0.367299 -2.205578,-1.00739 -3.064453,-1.558594 -1.305802,-0.83803 -1.850254,-1.06416 -2.269531,-0.941406 -0.192313,0.05631 -0.321932,0.195082 -0.376953,0.371094 -0.05502,0.176011 -0.03496,0.388437 0.07422,0.597656 0.195899,0.37538 1.149211,1.211285 2.009765,1.761719 1.440922,0.921652 3.050158,1.699167 4.619141,2.257812 1.105298,0.393548 2.090118,0.51557 3.082031,0.666016 h 3.962891 c 0.557702,-0.07467 1.013961,-0.04738 1.605469,-0.167969 1.575192,-0.321135 3.230695,-0.791933 4.757812,-1.351562 l 5.126953,-3.15625 c 0.05124,-0.304849 0.181641,-0.580535 0.181641,-0.900391 z"
         id="path4598" />
      <path
         inkscape:connector-curvature="0"
         style="opacity:1;fill:#4f4f4f;fill-opacity:1;fill-rule:evenodd;stroke:none;stroke-width:1.03534329;stroke-linecap:round;stroke-linejoin:bevel;stroke-miterlimit:4;stroke-dasharray:none;stroke-dashoffset:0;stroke-opacity:1"
         d="m -68.533203,-2.6289062 c -0.06367,0.1842511 -0.0817,0.3375778 -0.171875,0.5371093 -0.413734,0.9154238 -1.139863,2.30375842 -1.507813,2.88476565 -0.460245,0.72677455 -0.636972,1.11794185 -0.666015,1.48242185 -0.02046,0.2560412 -0.0058,0.3263486 0.09766,0.4746094 0.0666,0.095418 0.182776,0.2060031 0.255859,0.2460938 0.168324,0.092328 0.410741,0.014587 0.689453,-0.2011719 0.278713,-0.2157592 0.592981,-0.5702708 0.904297,-1.0332031 0.351222,-0.5222918 0.417317,-0.6459602 0.798829,-1.53125005 0.118358,-0.27464114 0.441214,-0.96303875 0.716796,-1.52734375 0.289621,-0.5930582 0.379655,-0.9218589 0.53125,-1.3320312 z"
         id="rect4497-3-6" />
    </g>
  </g>
</svg>
