<?xml version="1.0" encoding="UTF-8" standalone="no"?>
<svg
   xmlns:dc="http://purl.org/dc/elements/1.1/"
   xmlns:cc="http://creativecommons.org/ns#"
   xmlns:rdf="http://www.w3.org/1999/02/22-rdf-syntax-ns#"
   xmlns:svg="http://www.w3.org/2000/svg"
   xmlns="http://www.w3.org/2000/svg"
   xmlns:sodipodi="http://sodipodi.sourceforge.net/DTD/sodipodi-0.dtd"
   xmlns:inkscape="http://www.inkscape.org/namespaces/inkscape"
   height="32"
   width="32"
   version="1"
   id="svg24"
   sodipodi:docname="tixati.svg"
   inkscape:version="0.92.1 r">
  <metadata
     id="metadata30">
    <rdf:RDF>
      <cc:Work
         rdf:about="">
        <dc:format>image/svg+xml</dc:format>
        <dc:type
           rdf:resource="http://purl.org/dc/dcmitype/StillImage" />
      </cc:Work>
    </rdf:RDF>
  </metadata>
  <defs
     id="defs28" />
  <sodipodi:namedview
     pagecolor="#ffffff"
     bordercolor="#666666"
     borderopacity="1"
     objecttolerance="10"
     gridtolerance="10"
     guidetolerance="10"
     inkscape:pageopacity="0"
     inkscape:pageshadow="2"
     inkscape:window-width="640"
     inkscape:window-height="480"
     id="namedview26"
     showgrid="false"
     inkscape:zoom="8.375"
     inkscape:cx="-0.74221577"
     inkscape:cy="20.842324"
     inkscape:current-layer="svg24" />
  <rect
     style="opacity:1;fill:#666666;fill-opacity:1;fill-rule:evenodd;stroke:none;stroke-width:1.03534329;stroke-linecap:round;stroke-linejoin:bevel;stroke-miterlimit:4;stroke-dasharray:none;stroke-dashoffset:0;stroke-opacity:1"
     id="rect4497-3-3"
     width="28.203388"
     height="28.203388"
     x="1.8983059"
     y="1.8983059"
     ry="5.575182" />
  <g
     id="g4518">
    <g
       style="stroke-width:1.24403179"
       transform="matrix(0.80383795,0,0,0.80383795,3.1386124,3.1385928)"
       id="g10">
      <path
         style="fill:#ed5050;stroke-width:1.54761517"
         inkscape:connector-curvature="0"
         id="path8"
         d="M 14.182,2 2,28.459 V 28.5 c 0,0.82835 0.66488,1.4957 1.4922,1.5 L 16.0002,2.836 28.5082,30 c 0.827,-0.004 1.492,-0.672 1.492,-1.5 V 28.459 L 17.8182,2 h -3.636 z" />
    </g>
    <path
       style="fill:#70ed50;stroke-width:0.99999994"
       inkscape:connector-curvature="0"
       id="path14"
       d="M 5.8892655,4.7525386 C 5.272561,4.7846118 4.7846314,5.2725414 4.7525582,5.8892459 L 14.863232,15.99992 4.7525582,26.110593 c 0.03205,0.616657 0.5200269,1.104634 1.1367073,1.136708 L 15.999939,17.136627 26.110613,27.247301 c 0.616656,-0.03205 1.104634,-0.520027 1.136707,-1.136708 L 17.136646,15.99992 27.24732,5.8892459 C 27.215167,5.272461 26.727237,4.7845314 26.110693,4.7524583 L 16.00002,14.863132 5.8893459,4.7524583 Z" />
    <path
       style="fill:#5093ed;stroke-width:0.99999994"
       inkscape:connector-curvature="0"
       id="path16"
       d="m 5.9520452,4.7462687 c -0.6679893,0 -1.2057569,0.5377676 -1.2057569,1.2057569 v 0.401919 H 15.196182 V 27.253731 h 1.607676 V 6.3539446 h 10.449893 v -0.401919 c 0,-0.6679893 -0.537768,-1.2057569 -1.205757,-1.2057569 z" />
  </g>
</svg>
