<?xml version="1.0" encoding="UTF-8" standalone="no"?>
<svg
   xmlns:dc="http://purl.org/dc/elements/1.1/"
   xmlns:cc="http://creativecommons.org/ns#"
   xmlns:rdf="http://www.w3.org/1999/02/22-rdf-syntax-ns#"
   xmlns:svg="http://www.w3.org/2000/svg"
   xmlns="http://www.w3.org/2000/svg"
   xmlns:sodipodi="http://sodipodi.sourceforge.net/DTD/sodipodi-0.dtd"
   xmlns:inkscape="http://www.inkscape.org/namespaces/inkscape"
   height="32"
   width="32"
   version="1"
   id="svg62"
   sodipodi:docname="transmageddon.svg"
   inkscape:version="0.92.1 r">
  <metadata
     id="metadata68">
    <rdf:RDF>
      <cc:Work
         rdf:about="">
        <dc:format>image/svg+xml</dc:format>
        <dc:type
           rdf:resource="http://purl.org/dc/dcmitype/StillImage" />
      </cc:Work>
    </rdf:RDF>
  </metadata>
  <defs
     id="defs66" />
  <sodipodi:namedview
     pagecolor="#ffffff"
     bordercolor="#666666"
     borderopacity="1"
     objecttolerance="10"
     gridtolerance="10"
     guidetolerance="10"
     inkscape:pageopacity="0"
     inkscape:pageshadow="2"
     inkscape:window-width="640"
     inkscape:window-height="480"
     id="namedview64"
     showgrid="false"
     inkscape:zoom="11.313708"
     inkscape:cx="-23.11921"
     inkscape:cy="19.596835"
     inkscape:current-layer="svg62" />
  <rect
     style="opacity:1;fill:#4f4f4f;fill-opacity:1;fill-rule:evenodd;stroke:none;stroke-width:1.03534329;stroke-linecap:round;stroke-linejoin:bevel;stroke-miterlimit:4;stroke-dasharray:none;stroke-dashoffset:0;stroke-opacity:1"
     id="rect4497-3-3"
     width="28.203388"
     height="28.203388"
     x="1.8983059"
     y="1.8983059"
     ry="5.575182" />
  <rect
     height="10"
     width="12"
     y="4.5"
     x="10.000001"
     id="rect4"
     style="opacity:1;fill:#808080" />
  <g
     id="g48"
     transform="translate(0,0.49999998)"
     style="fill:#ffffff">
    <rect
       y="4"
       width="3"
       x="6"
       height="3"
       id="rect28" />
    <rect
       y="9"
       width="3"
       x="6"
       height="3"
       id="rect30" />
    <rect
       y="14"
       width="3"
       x="6"
       height="3"
       id="rect32" />
    <rect
       y="19"
       width="3"
       x="6"
       height="3"
       id="rect34" />
    <rect
       y="24"
       width="3"
       x="6"
       height="3"
       id="rect36" />
    <rect
       y="4"
       width="3"
       x="23"
       height="3"
       id="rect38" />
    <rect
       y="9"
       width="3"
       x="23"
       height="3"
       id="rect40" />
    <rect
       y="14"
       width="3"
       x="23"
       height="3"
       id="rect42" />
    <rect
       y="19"
       width="3"
       x="23"
       height="3"
       id="rect44" />
    <rect
       y="24"
       width="3"
       x="23"
       height="3"
       id="rect46" />
  </g>
  <rect
     height="10"
     width="12"
     y="17.5"
     x="10.000001"
     id="rect50"
     style="opacity:1;fill:#808080" />
  <g
     id="g4559"
     transform="matrix(0.75,0,0,0.75,4.562425,5.3347175)"
     style="stroke-width:1.33333337">
    <circle
       id="circle56"
       r="8"
       cy="23"
       cx="24"
       style="fill:#4269cd;fill-rule:evenodd;stroke-width:1.33333337;enable-background:new" />
    <path
       id="path58"
       style="fill:#ffffff;stroke-width:1.33333337;enable-background:new"
       d="m 24,19 c -2.2091,0 -4,1.7909 -4,4 0,2.2091 1.7909,4 4,4 1.8142,0 3.3495,-1.2018 3.8393,-2.8571 h -1.2321 c -0.44244,1.0054 -1.4382,1.7143 -2.6071,1.7143 -1.578,0 -2.8571,-1.2792 -2.8571,-2.8571 0,-1.578 1.2792,-2.8571 2.8571,-2.8571 0.78946,0 1.4946,0.3286 2.0089,0.84821 l -1.4375,1.4375 h 3.4286 v -3.428 l -1.173,1.173 c -0.725,-0.723 -1.722,-1.173 -2.827,-1.173 z"
       inkscape:connector-curvature="0" />
  </g>
</svg>
