<?xml version="1.0" encoding="UTF-8" standalone="no"?>
<svg
   xmlns:dc="http://purl.org/dc/elements/1.1/"
   xmlns:cc="http://creativecommons.org/ns#"
   xmlns:rdf="http://www.w3.org/1999/02/22-rdf-syntax-ns#"
   xmlns:svg="http://www.w3.org/2000/svg"
   xmlns="http://www.w3.org/2000/svg"
   xmlns:sodipodi="http://sodipodi.sourceforge.net/DTD/sodipodi-0.dtd"
   xmlns:inkscape="http://www.inkscape.org/namespaces/inkscape"
   height="32"
   width="32"
   version="1"
   id="svg24"
   sodipodi:docname="trillian.svg"
   inkscape:version="0.92.1 r">
  <metadata
     id="metadata30">
    <rdf:RDF>
      <cc:Work
         rdf:about="">
        <dc:format>image/svg+xml</dc:format>
        <dc:type
           rdf:resource="http://purl.org/dc/dcmitype/StillImage" />
      </cc:Work>
    </rdf:RDF>
  </metadata>
  <defs
     id="defs28" />
  <sodipodi:namedview
     pagecolor="#ffffff"
     bordercolor="#666666"
     borderopacity="1"
     objecttolerance="10"
     gridtolerance="10"
     guidetolerance="10"
     inkscape:pageopacity="0"
     inkscape:pageshadow="2"
     inkscape:window-width="640"
     inkscape:window-height="480"
     id="namedview26"
     showgrid="false"
     inkscape:zoom="8.375"
     inkscape:cx="1.1940299"
     inkscape:cy="3.7014925"
     inkscape:current-layer="svg24" />
  <rect
     style="opacity:1;fill:#a32b58;fill-opacity:1;fill-rule:evenodd;stroke:none;stroke-width:1.03534329;stroke-linecap:round;stroke-linejoin:bevel;stroke-miterlimit:4;stroke-dasharray:none;stroke-dashoffset:0;stroke-opacity:1"
     id="rect4497-3-3"
     width="28.203388"
     height="28.203388"
     x="1.8983059"
     y="1.8983059"
     ry="5.575182" />
  <g
     id="g4524"
     transform="translate(35.485075,-5.0149245)">
    <path
       inkscape:connector-curvature="0"
       id="path10"
       d="m -15.985075,19.014925 a 5.9999999,5.9999999 0 0 0 -6,6 5.9999999,5.9999999 0 0 0 6,5.999999 5.9999999,5.9999999 0 0 0 5.9999994,-5.999999 5.9999999,5.9999999 0 0 0 -5.9999994,-6 z m 0.5,1 a 4.4999999,4.4999999 0 0 1 4.499999,4.5 4.4999999,4.4999999 0 0 1 -4.499999,4.5 4.4999999,4.4999999 0 0 1 -4.5,-4.5 4.4999999,4.4999999 0 0 1 4.5,-4.5 z"
       style="fill:#f3ab6f" />
    <circle
       id="circle14"
       r="3"
       cy="23.014925"
       cx="-12.985075"
       style="fill:#f7c39a" />
    <path
       inkscape:connector-curvature="0"
       id="path16"
       d="m -22.985075,11.014925 a 5.9999999,5.9999999 0 0 0 -6,6 5.9999999,5.9999999 0 0 0 6,6 5.9999999,5.9999999 0 0 0 6,-6 5.9999999,5.9999999 0 0 0 -6,-6 z m 0.5,1 a 4.4999999,4.4999999 0 0 1 4.5,4.5 4.4999999,4.4999999 0 0 1 -4.5,4.5 4.4999999,4.4999999 0 0 1 -4.5,-4.5 4.4999999,4.4999999 0 0 1 4.5,-4.5 z"
       style="fill:#f3ab6f" />
    <circle
       id="circle20"
       r="3"
       cx="-19.985075"
       cy="15.014925"
       style="fill:#f7c39a" />
  </g>
</svg>
