<?xml version="1.0" encoding="UTF-8" standalone="no"?>
<svg
   xmlns:dc="http://purl.org/dc/elements/1.1/"
   xmlns:cc="http://creativecommons.org/ns#"
   xmlns:rdf="http://www.w3.org/1999/02/22-rdf-syntax-ns#"
   xmlns:svg="http://www.w3.org/2000/svg"
   xmlns="http://www.w3.org/2000/svg"
   xmlns:sodipodi="http://sodipodi.sourceforge.net/DTD/sodipodi-0.dtd"
   xmlns:inkscape="http://www.inkscape.org/namespaces/inkscape"
   height="32"
   width="32"
   version="1"
   id="svg8"
   sodipodi:docname="trine3.svg"
   inkscape:version="0.92.1 r">
  <metadata
     id="metadata14">
    <rdf:RDF>
      <cc:Work
         rdf:about="">
        <dc:format>image/svg+xml</dc:format>
        <dc:type
           rdf:resource="http://purl.org/dc/dcmitype/StillImage" />
      </cc:Work>
    </rdf:RDF>
  </metadata>
  <defs
     id="defs12" />
  <sodipodi:namedview
     pagecolor="#ffffff"
     bordercolor="#666666"
     borderopacity="1"
     objecttolerance="10"
     gridtolerance="10"
     guidetolerance="10"
     inkscape:pageopacity="0"
     inkscape:pageshadow="2"
     inkscape:window-width="640"
     inkscape:window-height="480"
     id="namedview10"
     showgrid="false"
     inkscape:zoom="8.375"
     inkscape:cx="-6.6865672"
     inkscape:cy="16"
     inkscape:current-layer="svg8" />
  <rect
     style="opacity:1;fill:#9b6bca;fill-opacity:1;fill-rule:evenodd;stroke:none;stroke-width:1.03534329;stroke-linecap:round;stroke-linejoin:bevel;stroke-miterlimit:4;stroke-dasharray:none;stroke-dashoffset:0;stroke-opacity:1"
     id="rect4497-3-3"
     width="28.203388"
     height="28.203388"
     x="1.8983059"
     y="1.8983059"
     ry="5.575182" />
  <path
     style="fill:#ffffff;fill-opacity:1;stroke-width:1"
     d="m 6.3836413,5.2096035 c 0.771428,1.0671435 1.165428,2.1994449 0,3.8536722 -0.122354,1.4465143 0.384127,2.2873353 2.115004,2.2565063 0.409622,-0.02775 1.059798,-0.108669 1.401472,-0.430528 C 10.441743,10.225961 10.23176,9.8786717 10.008502,9.8325047 9.7765183,9.7639147 9.2153793,10.11129 9.7540993,10.368406 c 0.113568,0.464059 -1.180755,0.416276 -1.419536,0.02559 -0.898831,-1.6092162 1.492242,-2.7659831 4.2149537,-1.7160886 0.558126,4.3919526 1.191118,9.9880926 0.5073,15.2159846 -0.447473,1.038102 -0.92668,1.661405 -2.048769,2.125541 v 0.770734 c 1.541469,-0.770734 5.39514,-0.770734 7.707344,-0.770734 V 25.248699 C 17.718524,25.069117 16.927083,24.143174 16.809631,23.211973 16.422336,18.030171 16.139196,14.234286 17.173924,9.0632747 h 3.829586 c 0.477563,0.01079 0.673483,0.407179 0.79482,1.5414693 h 1.541469 C 22.802057,9.3203147 22.569065,8.2925402 22.569065,6.7510713 16.812062,7.6410384 12.609472,6.8501723 6.3836413,5.2096025 Z M 22.846047,17.550387 c -1.065501,-0.0096 -1.879401,0.341061 -2.476285,1.241906 -0.103364,0.208415 -0.141776,0.355551 -0.153545,0.59461 -0.01367,0.277934 0.04316,0.50024 0.191178,0.743638 0.04495,0.07392 0.165018,0.209034 0.228812,0.257413 0.148127,0.11235 0.37901,0.222101 0.492246,0.234834 0.02989,0.0034 0.07217,0.01035 0.09484,0.01505 0.365825,-0.01348 0.556976,-0.31958 0.556976,-0.716542 0,-0.50071 0.920105,-1.503655 1.234379,-0.152039 -0.07858,0.855499 -0.531248,1.025937 -1.136532,1.455664 -0.06656,0.04053 -0.103868,0.09235 -0.103868,0.147523 0.196267,0.409231 0.38349,0.790401 0.526868,1.219326 0.04947,0.120389 0.07872,0.15204 0.138492,0.15204 0.02638,0 0.04795,-0.01517 0.09032,-0.05871 0.234142,-0.322229 0.382494,-0.765357 0.621706,-0.347734 0.07564,0.142771 0.110498,0.243086 0.162577,0.469666 0.01205,0.05244 0.01622,0.1262 0.02107,0.298058 0.0047,0.168167 7.3e-5,0.228318 -0.03613,0.454613 -0.354663,0.938409 -0.924758,1.39032 -2.096939,1.122984 -0.111872,-0.05972 -0.218275,-0.163165 -0.218275,-0.212253 0,-0.03255 0.05986,-0.04631 0.183652,-0.04516 0.158332,0.0015 0.258752,-0.02619 0.328164,-0.08731 0.01277,-0.01124 0.03888,-0.03016 0.05871,-0.04365 0.03603,-0.02453 0.09598,-0.09557 0.126449,-0.150535 0.0089,-0.01604 0.01784,-0.03289 0.02107,-0.03612 0.02542,-0.02518 0.06749,-0.14869 0.07828,-0.260423 0.02365,-0.244978 -0.0034,-0.234606 -0.106879,-0.419991 -0.117453,-0.210379 -0.387123,-0.400322 -0.644286,-0.454613 -0.124327,-0.02621 -0.145085,-0.0296 -0.266445,-0.03011 -0.523723,-0.0066 -0.993115,0.426956 -1.240402,1.112448 -0.05857,0.33466 -0.06447,0.37826 -0.04365,0.611168 0.01841,0.206079 0.05645,0.361677 0.135481,0.550954 0.02989,0.07159 0.08989,0.194815 0.112901,0.233329 0.0058,0.0096 0.03222,0.05451 0.05871,0.100857 0.04745,0.08303 0.122122,0.189662 0.158062,0.225801 0.01011,0.01017 0.01807,0.02328 0.01807,0.0286 0,0.01734 0.261485,0.280033 0.350744,0.352251 0.03052,0.0247 0.06388,0.0521 0.07376,0.06172 0.09494,0.09274 0.42898,0.28427 0.581062,0.33268 0.02653,0.0084 0.09395,0.03125 0.149029,0.05118 0.09284,0.03361 0.344692,0.101562 0.412463,0.111396 0.01619,0.0023 0.06604,0.01389 0.111395,0.02409 0.04535,0.01019 0.129862,0.0246 0.188168,0.03312 0.05831,0.0085 0.191391,0.01691 0.295046,0.01807 0.226266,0.0025 0.654492,-0.01765 0.712027,-0.03312 0.02268,-0.0061 0.05734,-0.01347 0.07677,-0.01656 0.0364,-0.0058 0.269599,-0.05232 0.301068,-0.06022 0.06033,-0.01515 0.110921,-0.03065 0.204727,-0.05871 0.05831,-0.01743 0.127887,-0.03614 0.153545,-0.04215 0.02567,-0.006 0.05192,-0.01479 0.05871,-0.01957 0.0067,-0.0048 0.04114,-0.0183 0.07677,-0.0301 0.116528,-0.0386 0.350471,-0.15143 0.483215,-0.233328 0.04218,-0.02603 0.0856,-0.05231 0.09634,-0.05871 0.01069,-0.0064 0.05095,-0.03444 0.09032,-0.06172 0.03938,-0.02727 0.07496,-0.04967 0.07828,-0.04967 0.01285,0 0.135287,-0.08909 0.192683,-0.139997 0.01809,-0.01604 0.06006,-0.05136 0.09183,-0.07828 0.115649,-0.09798 0.283687,-0.273481 0.314616,-0.328164 0.0059,-0.01037 0.02814,-0.03812 0.04817,-0.06172 0.08184,-0.09636 0.147523,-0.18561 0.147523,-0.198704 0,-0.0051 0.02505,-0.04678 0.05419,-0.09183 0.02917,-0.04505 0.05269,-0.08376 0.05269,-0.08731 0,-0.0035 0.01895,-0.04701 0.04215,-0.09634 0.02321,-0.04933 0.0497,-0.105698 0.05871,-0.124943 0.05852,-0.12529 0.134559,-0.411832 0.152039,-0.57203 0.0035,-0.03208 0.01085,-0.09508 0.01656,-0.139996 0.0112,-0.08605 0.0089,-0.407047 -0.003,-0.466656 -0.0039,-0.01925 -0.01256,-0.08787 -0.01957,-0.152039 -0.02187,-0.201547 -0.08374,-0.468275 -0.147524,-0.635254 -0.02329,-0.06096 -0.05012,-0.133697 -0.06022,-0.162577 -0.01007,-0.02888 -0.0257,-0.06412 -0.03462,-0.07677 -0.0089,-0.01266 -0.01655,-0.03014 -0.01655,-0.03914 0,-0.02897 -0.15,-0.318404 -0.221285,-0.427517 -0.03802,-0.05821 -0.07246,-0.114274 -0.07677,-0.123438 -0.01031,-0.0218 -0.03539,-0.06184 -0.04366,-0.06924 -0.0035,-0.0032 -0.01976,-0.02544 -0.03462,-0.04967 -0.01486,-0.02423 -0.03292,-0.05085 -0.04064,-0.05871 -0.0077,-0.0079 -0.0265,-0.03173 -0.04215,-0.05419 -0.01568,-0.02246 -0.031,-0.04351 -0.03462,-0.04667 -0.0037,-0.0032 -0.02214,-0.02421 -0.04064,-0.04667 -0.04045,-0.04911 -0.178486,-0.201966 -0.30709,-0.338702 -0.137862,-0.146563 -0.251607,-0.149263 -0.260425,-0.189673 -0.0088,-0.04032 0.02142,-0.09437 0.09183,-0.167093 0.07992,-0.08254 0.168548,-0.207752 0.219779,-0.308595 0.0082,-0.01604 0.02055,-0.0337 0.0271,-0.04064 0.01209,-0.01269 0.144709,-0.271547 0.161071,-0.314616 0.0049,-0.01283 0.01462,-0.04509 0.02258,-0.07075 0.0079,-0.02567 0.02338,-0.07179 0.03462,-0.103869 0.03166,-0.09049 0.0711,-0.293503 0.07978,-0.409453 0.01569,-0.208869 0.0042,-0.546415 -0.02258,-0.666865 -0.01793,-0.08081 -0.105569,-0.331922 -0.135481,-0.388379 -0.01528,-0.02887 -0.04325,-0.08624 -0.06322,-0.127953 -0.05848,-0.122177 -0.116602,-0.202527 -0.258919,-0.356766 -0.07166,-0.07767 -0.296036,-0.274144 -0.364293,-0.319132 -0.124504,-0.08207 -0.208096,-0.131696 -0.278488,-0.164083 -0.138593,-0.06378 -0.202132,-0.09115 -0.240854,-0.105374 -0.02267,-0.0083 -0.04652,-0.02019 -0.05269,-0.02559 -0.0062,-0.0054 -0.01809,-0.009 -0.0271,-0.009 -0.0091,1e-6 -0.03377,-0.0076 -0.05419,-0.01656 -0.0938,-0.04137 -0.294399,-0.101922 -0.535901,-0.124943 z"
     id="path4"
     inkscape:connector-curvature="0" />
</svg>
