<?xml version="1.0" encoding="UTF-8" standalone="no"?>
<svg
   xmlns:dc="http://purl.org/dc/elements/1.1/"
   xmlns:cc="http://creativecommons.org/ns#"
   xmlns:rdf="http://www.w3.org/1999/02/22-rdf-syntax-ns#"
   xmlns:svg="http://www.w3.org/2000/svg"
   xmlns="http://www.w3.org/2000/svg"
   xmlns:sodipodi="http://sodipodi.sourceforge.net/DTD/sodipodi-0.dtd"
   xmlns:inkscape="http://www.inkscape.org/namespaces/inkscape"
   height="32"
   width="32"
   version="1.1"
   viewBox="0 0 32 32"
   id="svg10"
   sodipodi:docname="typecatcher.svg"
   inkscape:version="0.92.1 r">
  <metadata
     id="metadata16">
    <rdf:RDF>
      <cc:Work
         rdf:about="">
        <dc:format>image/svg+xml</dc:format>
        <dc:type
           rdf:resource="http://purl.org/dc/dcmitype/StillImage" />
      </cc:Work>
    </rdf:RDF>
  </metadata>
  <defs
     id="defs14" />
  <sodipodi:namedview
     pagecolor="#ffffff"
     bordercolor="#666666"
     borderopacity="1"
     objecttolerance="10"
     gridtolerance="10"
     guidetolerance="10"
     inkscape:pageopacity="0"
     inkscape:pageshadow="2"
     inkscape:window-width="640"
     inkscape:window-height="480"
     id="namedview12"
     showgrid="false"
     inkscape:zoom="8.375"
     inkscape:cx="-6.6865672"
     inkscape:cy="16"
     inkscape:current-layer="svg10" />
  <rect
     style="opacity:1;fill:#cccccc;fill-opacity:1;fill-rule:evenodd;stroke:none;stroke-width:1.03534329;stroke-linecap:round;stroke-linejoin:bevel;stroke-miterlimit:4;stroke-dasharray:none;stroke-dashoffset:0;stroke-opacity:1"
     id="rect4497-3-3"
     width="28.203388"
     height="28.203388"
     x="1.8983059"
     y="1.8983059"
     ry="5.575182" />
  <g
     id="g4507"
     transform="translate(36.41791,-0.5970147)">
    <path
       inkscape:connector-curvature="0"
       id="path4"
       d="m -20.41791,9.9402984 c -2.584803,0 -4.786246,1.5345726 -5.73363,3.7064596 -2.406203,0.346815 -4.251445,2.335842 -4.251445,4.765543 0,2.674003 2.235259,4.84143 4.992538,4.84143 h 10.609474 c 2.412394,0 4.368137,-1.896498 4.368137,-4.236334 0,-2.174084 -1.686146,-3.956087 -3.861561,-4.197725 -0.567152,-2.776051 -3.094707,-4.8793736 -6.123513,-4.8793736 z"
       style="fill:#666666;fill-opacity:1;stroke-width:1" />
    <path
       inkscape:connector-curvature="0"
       id="path6"
       d="m -21.749253,13.934328 h 2.662686 c 1.331344,0 1.331344,1.331344 1.331344,1.331344 v 5.325373 h -1.331344 V 18.59403 h -2.662686 v 1.997015 h -1.331344 v -5.325373 c 0,-1.331344 1.331344,-1.331344 1.331344,-1.331344 z m 0,1.331344 v 1.997015 h 2.662686 v -1.997015 z"
       style="opacity:0.5;fill:#ffffff;stroke-width:1" />
  </g>
</svg>
