<?xml version="1.0" encoding="UTF-8" standalone="no"?>
<svg
   xmlns:dc="http://purl.org/dc/elements/1.1/"
   xmlns:cc="http://creativecommons.org/ns#"
   xmlns:rdf="http://www.w3.org/1999/02/22-rdf-syntax-ns#"
   xmlns:svg="http://www.w3.org/2000/svg"
   xmlns="http://www.w3.org/2000/svg"
   xmlns:sodipodi="http://sodipodi.sourceforge.net/DTD/sodipodi-0.dtd"
   xmlns:inkscape="http://www.inkscape.org/namespaces/inkscape"
   height="32"
   width="32"
   version="1"
   id="svg12"
   sodipodi:docname="ufraw.svg"
   inkscape:version="0.92.1 r">
  <metadata
     id="metadata18">
    <rdf:RDF>
      <cc:Work
         rdf:about="">
        <dc:format>image/svg+xml</dc:format>
        <dc:type
           rdf:resource="http://purl.org/dc/dcmitype/StillImage" />
        <dc:title></dc:title>
      </cc:Work>
    </rdf:RDF>
  </metadata>
  <defs
     id="defs16" />
  <sodipodi:namedview
     pagecolor="#ffffff"
     bordercolor="#666666"
     borderopacity="1"
     objecttolerance="10"
     gridtolerance="10"
     guidetolerance="10"
     inkscape:pageopacity="0"
     inkscape:pageshadow="2"
     inkscape:window-width="1680"
     inkscape:window-height="965"
     id="namedview14"
     showgrid="false"
     inkscape:zoom="5.2149125"
     inkscape:cx="18.877603"
     inkscape:cy="16.916576"
     inkscape:window-x="0"
     inkscape:window-y="0"
     inkscape:window-maximized="1"
     inkscape:current-layer="svg12" />
  <rect
     style="opacity:1;fill:#999999;fill-opacity:1;fill-rule:evenodd;stroke:none;stroke-width:1.03534329;stroke-linecap:round;stroke-linejoin:bevel;stroke-miterlimit:4;stroke-dasharray:none;stroke-dashoffset:0;stroke-opacity:1"
     id="rect4497-3"
     width="28.203388"
     height="28.203388"
     x="1.8983059"
     y="1.8983059"
     ry="5.575182" />
  <path
     style="fill:#ffffff;stroke-width:0.99999988"
     d="m 15.361464,23.565722 c -0.919536,-0.123705 -1.541034,-0.262002 -1.58996,-0.3538 -0.0836,-0.156847 -0.420331,-1.960901 -0.573172,-3.070804 -0.0838,-0.60859 -0.206354,-1.842711 -0.185091,-1.863974 0.0073,-0.0073 0.21078,0.109153 0.452113,0.258854 2.056975,1.275984 4.412798,2.3731 6.709139,3.124465 0.284758,0.09317 0.543508,0.178809 0.575011,0.190303 0.07054,0.02574 0.01958,0.06798 -0.533354,0.441978 -0.976953,0.660805 -2.11226,1.081363 -3.351381,1.24147 -0.411776,0.0532 -1.216628,0.07007 -1.503305,0.03151 z M 12.996668,22.964338 C 11.309996,22.231113 9.9621159,20.937354 9.1678294,19.28923 8.951108,18.83953 8.7145148,18.198153 8.637222,17.850781 l -0.036016,-0.161868 0.4713287,-0.42162 c 1.0141873,-0.907217 2.3574873,-1.976918 3.1770413,-2.529948 l 0.27752,-0.187268 10e-4,1.386128 c 0.002,2.441702 0.222471,4.580152 0.690619,6.691778 0.05306,0.239303 0.09023,0.441326 0.08262,0.448939 -0.0075,0.0075 -0.144714,-0.04305 -0.304669,-0.112584 z m 7.254526,-1.707451 c -0.934634,-0.311148 -2.051207,-0.739916 -2.780432,-1.067696 -0.883815,-0.397267 -0.977949,-0.442676 -0.977949,-0.471746 0,-0.01644 0.185527,-0.1278 0.412273,-0.247462 0.344389,-0.181745 1.076481,-0.60138 1.658671,-0.950751 1.317516,-0.790636 3.244423,-2.238546 4.511753,-3.390203 0.192874,-0.175272 0.366954,-0.318676 0.38684,-0.318676 0.04898,0 0.125489,0.735898 0.125424,1.206417 -1.14e-4,0.806133 -0.223637,1.968291 -0.523274,2.720674 -0.394031,0.989412 -0.987181,1.910296 -1.650341,2.562196 l -0.261722,0.257279 z m -0.790456,-5.20972 c -0.004,-1.799913 -0.08514,-2.954133 -0.325749,-4.630862 -0.09653,-0.67273 -0.344714,-2.0347343 -0.439762,-2.4134501 l -0.02534,-0.100924 0.194262,0.076571 c 0.373492,0.1472162 0.964898,0.4638293 1.337433,0.7160001 1.525354,1.03253 2.641619,2.572492 3.096325,4.271588 l 0.0914,0.341536 -0.478686,0.431386 c -0.263277,0.237261 -0.714798,0.6287 -1.003382,0.869863 -0.713824,0.596522 -2.338106,1.809335 -2.423184,1.809335 -0.01118,0 -0.02166,-0.616969 -0.02331,-1.371042 z M 8.5024687,17.159141 c -0.00983,-0.01593 -0.039001,-0.270484 -0.064779,-0.565674 -0.1154921,-1.322335 0.1650383,-2.760831 0.7770572,-3.984585 0.3446292,-0.689097 0.9023271,-1.467548 1.3963451,-1.94905 l 0.225266,-0.21956 0.958624,0.322413 c 0.527244,0.177326 1.277896,0.450374 1.668116,0.606771 0.86448,0.346479 2.032592,0.872724 2.032592,0.915701 0,0.01729 -0.120957,0.09234 -0.268796,0.166793 -0.432528,0.217817 -1.484045,0.829308 -2.097499,1.219762 -1.55569,0.990176 -2.930293,2.033436 -4.2153146,3.199229 -0.3550906,0.322148 -0.3798964,0.339516 -0.4116117,0.2882 z M 18.869198,13.683862 c -0.08989,-0.0843 -1.149542,-0.711394 -1.858645,-1.099927 -1.525554,-0.835879 -3.364194,-1.634875 -5.062311,-2.19987 -0.358579,-0.119306 -0.677741,-0.225999 -0.709239,-0.237096 -0.0703,-0.02476 -0.01734,-0.06879 0.517482,-0.4304263 1.111412,-0.7514852 2.297487,-1.159882 3.713898,-1.2787937 0.810428,-0.068038 1.499927,0.00129 2.626711,0.2641044 0.04919,0.011471 0.104664,0.057405 0.123291,0.1020774 0.09618,0.2306361 0.376544,1.7115502 0.534493,2.8233032 0.08817,0.620636 0.230741,1.904614 0.230741,2.078131 0,0.04727 -0.05367,0.03736 -0.116421,-0.0215 z"
     id="path4513"
     inkscape:connector-curvature="0" />
  <path
     style="color:#000000;font-style:normal;font-variant:normal;font-weight:normal;font-stretch:normal;font-size:medium;line-height:normal;font-family:sans-serif;font-variant-ligatures:normal;font-variant-position:normal;font-variant-caps:normal;font-variant-numeric:normal;font-variant-alternates:normal;font-feature-settings:normal;text-indent:0;text-align:start;text-decoration:none;text-decoration-line:none;text-decoration-style:solid;text-decoration-color:#000000;letter-spacing:normal;word-spacing:normal;text-transform:none;writing-mode:lr-tb;direction:ltr;text-orientation:mixed;dominant-baseline:auto;baseline-shift:baseline;text-anchor:start;white-space:normal;shape-padding:0;clip-rule:nonzero;display:inline;overflow:visible;visibility:visible;opacity:1;isolation:auto;mix-blend-mode:normal;color-interpolation:sRGB;color-interpolation-filters:linearRGB;solid-color:#000000;solid-opacity:1;vector-effect:none;fill:#487aae;fill-opacity:1;fill-rule:evenodd;stroke:none;stroke-width:1.50000012;stroke-linecap:round;stroke-linejoin:bevel;stroke-miterlimit:4;stroke-dasharray:none;stroke-dashoffset:0;stroke-opacity:1;color-rendering:auto;image-rendering:auto;shape-rendering:auto;text-rendering:auto;enable-background:accumulate"
     d="m 16,6.5178145 c -5.229826,0 -9.4821855,4.2523595 -9.4821855,9.4821855 0,5.229826 4.2523595,9.482186 9.4821855,9.482186 5.229826,0 9.482186,-4.25236 9.482186,-9.482186 0,-5.229826 -4.25236,-9.4821855 -9.482186,-9.4821855 z m 0,1.1605288 c 4.602629,0 8.321657,3.7190267 8.321657,8.3216567 0,4.602629 -3.719028,8.321657 -8.321657,8.321657 C 11.39737,24.321657 7.6783433,20.602629 7.6783433,16 7.6783433,11.39737 11.39737,7.6783433 16,7.6783433 Z"
     id="path4515"
     inkscape:connector-curvature="0" />
</svg>
