<?xml version="1.0" encoding="UTF-8" standalone="no"?>
<svg
   xmlns:dc="http://purl.org/dc/elements/1.1/"
   xmlns:cc="http://creativecommons.org/ns#"
   xmlns:rdf="http://www.w3.org/1999/02/22-rdf-syntax-ns#"
   xmlns:svg="http://www.w3.org/2000/svg"
   xmlns="http://www.w3.org/2000/svg"
   xmlns:sodipodi="http://sodipodi.sourceforge.net/DTD/sodipodi-0.dtd"
   xmlns:inkscape="http://www.inkscape.org/namespaces/inkscape"
   height="32"
   width="32"
   version="1"
   id="svg12"
   sodipodi:docname="utilities-tweak-tool.svg"
   inkscape:version="0.92.1 r">
  <metadata
     id="metadata18">
    <rdf:RDF>
      <cc:Work
         rdf:about="">
        <dc:format>image/svg+xml</dc:format>
        <dc:type
           rdf:resource="http://purl.org/dc/dcmitype/StillImage" />
        <dc:title />
      </cc:Work>
    </rdf:RDF>
  </metadata>
  <defs
     id="defs16" />
  <sodipodi:namedview
     pagecolor="#ffffff"
     bordercolor="#666666"
     borderopacity="1"
     objecttolerance="10"
     gridtolerance="10"
     guidetolerance="10"
     inkscape:pageopacity="0"
     inkscape:pageshadow="2"
     inkscape:window-width="1680"
     inkscape:window-height="963"
     id="namedview14"
     showgrid="false"
     inkscape:zoom="7.375"
     inkscape:cx="3.1742373"
     inkscape:cy="12.474576"
     inkscape:window-x="0"
     inkscape:window-y="0"
     inkscape:window-maximized="1"
     inkscape:current-layer="svg12" />
  <g
     id="g4495"
     transform="translate(1.999999,-1.999999)">
    <rect
       ry="5.534977"
       y="3.999999"
       x="1.0000977e-06"
       height="28"
       width="28"
       id="rect4497-3"
       style="opacity:1;fill:#e94a63;fill-opacity:1;fill-rule:evenodd;stroke:none;stroke-width:1.17471647;stroke-linecap:round;stroke-linejoin:bevel;stroke-miterlimit:4;stroke-dasharray:none;stroke-dashoffset:0;stroke-opacity:1" />
    <path
       style="opacity:1;fill:#a43445;fill-opacity:1;stroke-width:1"
       inkscape:connector-curvature="0"
       id="path6-6"
       d="m 6.9851705,10.246187 c -0.727125,0 -1.3125001,0.585375 -1.3125001,1.3125 v 13.125002 c 0,0.727125 0.5853751,1.3125 1.3125001,1.3125 0.727125,0 1.3125001,-0.585375 1.3125001,-1.3125 V 11.558687 c 0,-0.727125 -0.5853751,-1.3125 -1.3125001,-1.3125 z" />
    <path
       style="fill:#ffffff;stroke-width:1"
       inkscape:connector-curvature="0"
       id="path10"
       d="m 9.1726703,15.058688 a 2.1875001,2.1875001 0 0 1 -2.1874998,2.1875 2.1875001,2.1875001 0 0 1 -2.1875001,-2.1875 2.1875001,2.1875001 0 0 1 2.1875001,-2.1875 2.1875001,2.1875001 0 0 1 2.1874998,2.1875 z" />
    <path
       style="opacity:1;fill:#a43445;fill-opacity:1;stroke-width:1"
       inkscape:connector-curvature="0"
       id="path14"
       d="m 20.985171,10.246187 c -0.727125,0 -1.3125,0.585375 -1.3125,1.3125 v 13.125002 c 0,0.727125 0.585375,1.3125 1.3125,1.3125 0.727125,0 1.3125,-0.585375 1.3125,-1.3125 V 11.558687 c 0,-0.727125 -0.585375,-1.3125 -1.3125,-1.3125 z" />
    <path
       style="fill:#ffffff;stroke-width:1"
       inkscape:connector-curvature="0"
       id="path18"
       d="m 23.172671,17.683688 a 2.1875001,2.1875001 0 0 1 -2.1875,2.1875 2.1875001,2.1875001 0 0 1 -2.1875,-2.1875 2.1875001,2.1875001 0 0 1 2.1875,-2.1875 2.1875001,2.1875001 0 0 1 2.1875,2.1875 z" />
    <path
       style="opacity:1;fill:#a43445;fill-opacity:1;stroke-width:1"
       inkscape:connector-curvature="0"
       id="path20"
       d="m 13.985171,10.246187 c -0.727125,0 -1.312501,0.585375 -1.312501,1.3125 v 13.125002 c 0,0.727125 0.585376,1.3125 1.312501,1.3125 0.727125,0 1.3125,-0.585375 1.3125,-1.3125 V 11.558687 c 0,-0.727125 -0.585375,-1.3125 -1.3125,-1.3125 z" />
    <path
       style="fill:#ffffff;stroke-width:1"
       inkscape:connector-curvature="0"
       id="path24"
       d="m 16.172671,21.183688 a 2.1875001,2.1875001 0 0 1 -2.1875,2.187501 2.1875001,2.1875001 0 0 1 -2.187501,-2.187501 2.1875001,2.1875001 0 0 1 2.187501,-2.1875 2.1875001,2.1875001 0 0 1 2.1875,2.1875 z" />
  </g>
</svg>
