<?xml version="1.0" encoding="UTF-8" standalone="no"?>
<svg
   xmlns:dc="http://purl.org/dc/elements/1.1/"
   xmlns:cc="http://creativecommons.org/ns#"
   xmlns:rdf="http://www.w3.org/1999/02/22-rdf-syntax-ns#"
   xmlns:svg="http://www.w3.org/2000/svg"
   xmlns="http://www.w3.org/2000/svg"
   xmlns:sodipodi="http://sodipodi.sourceforge.net/DTD/sodipodi-0.dtd"
   xmlns:inkscape="http://www.inkscape.org/namespaces/inkscape"
   width="32"
   height="32"
   version="1"
   id="svg20"
   sodipodi:docname="variety.svg"
   inkscape:version="0.92.1 r">
  <metadata
     id="metadata26">
    <rdf:RDF>
      <cc:Work
         rdf:about="">
        <dc:format>image/svg+xml</dc:format>
        <dc:type
           rdf:resource="http://purl.org/dc/dcmitype/StillImage" />
      </cc:Work>
    </rdf:RDF>
  </metadata>
  <defs
     id="defs24" />
  <sodipodi:namedview
     pagecolor="#ffffff"
     bordercolor="#666666"
     borderopacity="1"
     objecttolerance="10"
     gridtolerance="10"
     guidetolerance="10"
     inkscape:pageopacity="0"
     inkscape:pageshadow="2"
     inkscape:window-width="640"
     inkscape:window-height="480"
     id="namedview22"
     showgrid="false"
     inkscape:zoom="5.9220193"
     inkscape:cx="-28.243589"
     inkscape:cy="20.715385"
     inkscape:current-layer="svg20" />
  <rect
     style="opacity:1;fill:#8e8e8e;fill-opacity:1;fill-rule:evenodd;stroke:none;stroke-width:1.03534329;stroke-linecap:round;stroke-linejoin:bevel;stroke-miterlimit:4;stroke-dasharray:none;stroke-dashoffset:0;stroke-opacity:1"
     id="rect4497-3-3"
     width="28.203388"
     height="28.203388"
     x="1.8983059"
     y="1.8983059"
     ry="5.575182" />
  <g
     id="g4522"
     transform="translate(50.38806,-0.67115219)">
    <g
       style="stroke-width:1.0891577"
       transform="matrix(0.91814072,0,0,0.91814072,-18.079406,0.00205622)"
       id="g4514">
      <path
         inkscape:connector-curvature="0"
         style="opacity:1;fill:#474747;fill-opacity:1;fill-rule:nonzero;stroke:none;stroke-width:10.94166088;stroke-linecap:round;stroke-linejoin:bevel;stroke-miterlimit:4;stroke-dasharray:none;stroke-dashoffset:0;stroke-opacity:1"
         d="m -25.283203,8.7851562 c -1.977025,0 -3.568359,1.5913348 -3.568359,3.5683598 v 9.46289 c 0,1.977025 1.591334,3.56836 3.568359,3.56836 h 1.925781 c 0.163539,1.210237 1.184932,2.140625 2.441406,2.140625 h 6.306641 c 1.256474,0 2.277867,-0.930388 2.441406,-2.140625 h 1.925781 c 1.9770252,0 3.5683599,-1.591335 3.5683599,-3.56836 v -9.46289 c 0,-1.977025 -1.5913347,-3.5683598 -3.5683599,-3.5683598 z"
         id="rect4493" />
      <rect
         style="opacity:1;fill:#232323;fill-opacity:1;fill-rule:nonzero;stroke:none;stroke-width:10.94166088;stroke-linecap:round;stroke-linejoin:bevel;stroke-miterlimit:4;stroke-dasharray:none;stroke-dashoffset:0;stroke-opacity:1"
         id="rect4493-3"
         width="20.183289"
         height="14.499698"
         x="-27.854357"
         y="9.8348961"
         ry="2.5943706"
         rx="2.7033246" />
    </g>
    <path
       style="fill:#c0ca33;stroke-width:1"
       inkscape:connector-curvature="0"
       id="path16"
       d="m -31.088411,12.702847 c -0.821973,0 -1.488273,0.66633 -1.488273,1.488274 0,0.821943 0.66633,1.488272 1.488273,1.488272 0.821944,0 1.488273,-0.666329 1.488273,-1.488272 0,-0.821944 -0.666329,-1.488274 -1.488273,-1.488274 z" />
    <path
       style="fill:#c0ca33;stroke-width:1"
       inkscape:connector-curvature="0"
       id="path18"
       d="m -37.655795,17.56209 c -1.635928,0 -3.271855,1.189765 -3.271855,4.201062 v 0.558 h 13.08742 c 0,0 -1.090598,-3.569297 -2.726525,-3.569297 -1.635928,0 -1.635928,1.784649 -2.726527,1.784649 -1.09042,0 -2.726348,-2.974414 -4.362275,-2.974414 z" />
  </g>
</svg>
