<?xml version="1.0" encoding="UTF-8" standalone="no"?>
<svg
   xmlns:dc="http://purl.org/dc/elements/1.1/"
   xmlns:cc="http://creativecommons.org/ns#"
   xmlns:rdf="http://www.w3.org/1999/02/22-rdf-syntax-ns#"
   xmlns:svg="http://www.w3.org/2000/svg"
   xmlns="http://www.w3.org/2000/svg"
   xmlns:sodipodi="http://sodipodi.sourceforge.net/DTD/sodipodi-0.dtd"
   xmlns:inkscape="http://www.inkscape.org/namespaces/inkscape"
   height="32"
   width="32"
   version="1"
   id="svg16"
   sodipodi:docname="viber.svg"
   inkscape:version="0.92.1 r">
  <metadata
     id="metadata22">
    <rdf:RDF>
      <cc:Work
         rdf:about="">
        <dc:format>image/svg+xml</dc:format>
        <dc:type
           rdf:resource="http://purl.org/dc/dcmitype/StillImage" />
      </cc:Work>
    </rdf:RDF>
  </metadata>
  <defs
     id="defs20" />
  <sodipodi:namedview
     pagecolor="#ffffff"
     bordercolor="#666666"
     borderopacity="1"
     objecttolerance="10"
     gridtolerance="10"
     guidetolerance="10"
     inkscape:pageopacity="0"
     inkscape:pageshadow="2"
     inkscape:window-width="1680"
     inkscape:window-height="955"
     id="namedview18"
     showgrid="false"
     inkscape:zoom="7.375"
     inkscape:cx="-1.6271186"
     inkscape:cy="16"
     inkscape:window-x="0"
     inkscape:window-y="0"
     inkscape:window-maximized="1"
     inkscape:current-layer="svg16" />
  <rect
     style="opacity:1;fill:#7d529d;fill-opacity:1;fill-rule:evenodd;stroke:none;stroke-width:1.03534329;stroke-linecap:round;stroke-linejoin:bevel;stroke-miterlimit:4;stroke-dasharray:none;stroke-dashoffset:0;stroke-opacity:1"
     id="rect4497-3"
     width="28.203388"
     height="28.203388"
     x="1.8983059"
     y="1.8983059"
     ry="5.575182" />
  <path
     d="m 17.3735,8.0006112 c -0.35138,0 -0.64296,0.28065 -0.64631,0.62074 -0.0021,0.34164 0.2896,0.62893 0.64347,0.63069 1.5272,0.011469 2.7829,0.49414 3.7954,1.4459998 1.0006,0.94303 1.5222,2.2496 1.5355,3.9546 v 0.0015 c 0.0036,0.33917 0.29543,0.61929 0.64773,0.61929 3.7e-5,0 0.0067,-0.0014 0.0071,-0.0015 0.35309,-0.0032 0.64632,-0.28793 0.64346,-0.62927 v -0.0015 c -0.008,-0.995 -0.17,-1.909 -0.486,-2.713 -0.32,-0.8125 -0.806,-1.5313 -1.44,-2.1292998 -1.253,-1.1781 -2.853,-1.7867 -4.695,-1.7997 h -0.0057 z m -6.5596,1.4702 c -0.2464,-0.041884 -0.51331,0.00393 -0.77983,0.1321 h -0.02131 l -0.02984,0.017047 c -0.4938,0.2808 -0.9568,0.6571998 -1.3905,1.1292998 l -0.03409,0.03693 v 0.03409 c -0.3,0.3741 -0.4984,0.7507 -0.544,1.1279 -0.01456,0.06393 -0.0142,0.12156 -0.0142,0.18324 0,0.17161 0.02522,0.34601 0.07813,0.51705 l 0.0142,0.0483 0.02983,0.01705 c 0.17129,0.5877 0.56,1.5023 1.4105,3.0512 0.56649,1.026601 1.1453,1.884101 1.7202,2.606601 0.30283,0.37972 0.64588,0.77507 1.044,1.1733 0.0047,0.0048 0.02152,0.02188 0.03978,0.03835 0.0063,0.0063 0.01518,0.01944 0.03693,0.0412 l 0.03977,0.03977 h 0.0029 c 0.01401,0.01402 0.02347,0.02419 0.02557,0.02699 l 0.0071,0.0085 0.0071,0.0072 c 0.39814,0.3938 0.79083,0.73892 1.1747,1.0398 0.72137,0.57492 1.5787,1.1583 2.6051,1.7259 1.5506,0.85544 2.4737,1.2421 3.0582,1.4105 l 0.02131,0.02557 0.03552,0.01279 c 0.1656,0.05521 0.33792,0.0807 0.50852,0.07813 0.0692,0.0037 0.13047,-0.001 0.18892,-0.0142 0.40035,-0.04681 0.79676,-0.23637 1.1889,-0.56534 l 0.0043,-0.0057 0.0043,-0.0028 c 0.0061,-0.006 0.0025,-0.0031 0.0057,-0.0072 0.0035,-0.0031 0.005,-0.0068 0.0086,-0.01 0.46418,-0.42365 0.83883,-0.88441 1.1207,-1.3778 l 0.01846,-0.03125 v -0.02983 c 0.2589,-0.53913 0.15635,-1.0895 -0.2642,-1.4404 -0.0103,-0.0088 -0.21237,-0.17775 -0.46307,-0.3821 -0.25638,-0.20892 -0.56044,-0.4545 -0.76573,-0.60514 -0.38842,-0.28734 -0.98876,-0.65902 -1.331,-0.84944 h -0.0014 c -0.65728,-0.3681 -1.3441,-0.15418 -1.6463,0.23722 l -0.52983,0.66336 c -0.21368,0.26924 -0.64065,0.24356 -0.65199,0.2429 -3.5937,-0.92457 -4.5599,-4.538201 -4.5668,-4.563901 -6.41e-4,-0.01131 -0.02647,-0.43904 0.2429,-0.65626 l 0.66051,-0.52841 c 0.39233,-0.30048 0.6129,-0.98721 0.2429,-1.6463 -0.19302,-0.34075 -0.5663,-0.94563 -0.84943,-1.331 h -0.0014 c -0.153,-0.2061 -0.398,-0.5119 -0.607,-0.7686 -0.104,-0.1283 -0.199,-0.2457 -0.268,-0.3294998 -0.035,-0.0419 -0.063,-0.0757 -0.083,-0.0994 -0.01,-0.011847 -0.01831,-0.020182 -0.02415,-0.026989 -0.0029,-0.00342 -0.0045,-0.00567 -0.0071,-0.00852 -0.183,-0.2174 -0.416,-0.3498 -0.673,-0.3935 z m 6.598,1.4403998 c -0.34657,-0.02444 -0.65797,0.23525 -0.68324,0.56961 -0.02529,0.33473 0.24473,0.63327 0.59091,0.65767 0.85608,0.0605 1.4338,0.31219 1.8679,0.77131 v 0.0015 c 0.44311,0.46764 0.64473,1.0017 0.62784,1.7315 v 0.0028 c -0.0075,0.33584 0.27419,0.62046 0.62216,0.62782 h 0.0156 c 0.34289,0 0.62873,-0.27068 0.63636,-0.60228 0.02345,-1.0032 -0.30329,-1.8983 -0.96165,-2.5923 -0.663,-0.6974 -1.6,-1.0881 -2.717,-1.1675 z"
     id="path6"
     inkscape:connector-curvature="0"
     style="fill:#ffffff" />
</svg>
