<?xml version="1.0" encoding="UTF-8" standalone="no"?>
<svg
   xmlns:dc="http://purl.org/dc/elements/1.1/"
   xmlns:cc="http://creativecommons.org/ns#"
   xmlns:rdf="http://www.w3.org/1999/02/22-rdf-syntax-ns#"
   xmlns:svg="http://www.w3.org/2000/svg"
   xmlns="http://www.w3.org/2000/svg"
   xmlns:sodipodi="http://sodipodi.sourceforge.net/DTD/sodipodi-0.dtd"
   xmlns:inkscape="http://www.inkscape.org/namespaces/inkscape"
   height="32"
   width="32"
   version="1"
   id="svg28"
   sodipodi:docname="vidcutter.svg"
   inkscape:version="0.92.1 r">
  <metadata
     id="metadata34">
    <rdf:RDF>
      <cc:Work
         rdf:about="">
        <dc:format>image/svg+xml</dc:format>
        <dc:type
           rdf:resource="http://purl.org/dc/dcmitype/StillImage" />
      </cc:Work>
    </rdf:RDF>
  </metadata>
  <defs
     id="defs32" />
  <sodipodi:namedview
     pagecolor="#ffffff"
     bordercolor="#666666"
     borderopacity="1"
     objecttolerance="10"
     gridtolerance="10"
     guidetolerance="10"
     inkscape:pageopacity="0"
     inkscape:pageshadow="2"
     inkscape:window-width="640"
     inkscape:window-height="480"
     id="namedview30"
     showgrid="false"
     inkscape:zoom="9.5"
     inkscape:cx="2.7640379"
     inkscape:cy="29.632296"
     inkscape:current-layer="svg28" />
  <polygon
     points="713 603 688.5 578 676.5 569.5 693.5 560.5 693.5 540 732.5 497.5 664 430.5 588 333 517.5 214 500 192 386 355 328 328 304 332.5 299.5 366 318.5 403.5 338 431 309.5 462 275.5 507 300 533 304 551 318.5 569.5 340.5 583 351.5 604.5 373.5 617 395 637.5 452.5 723 488.5 788.5 502 812.5 551.5 721.5 612.5 637 628.5 616 668 619.5 707 615"
     transform="matrix(0.063142,0,0,0.063142,-131,-24.0295)"
     display="none"
     style="display:none;fill:#5a0e00"
     id="polygon4" />
  <g
     id="g4546">
    <path
       id="rect4497-3"
       d="m 7.4725768,1.8983064 c -3.0886797,0 -5.5742708,2.4855911 -5.5742708,5.5742706 V 24.52547 c 0,3.088679 2.4855911,5.576224 5.5742708,5.576224 H 15.89453 v -7.580149 c 0,-0.772169 0.154177,-1.506389 0.435551,-2.173848 0.281375,-0.66746 0.68951,-1.26764 1.19337,-1.771502 0.503862,-0.50386 1.104042,-0.911995 1.771502,-1.19337 0.667459,-0.281374 1.401679,-0.435551 2.173848,-0.435551 h 8.632893 V 7.472577 C 30.101693,4.3838975 27.614149,1.8983064 24.52547,1.8983064 Z"
       style="opacity:1;fill:#642c68;fill-opacity:1;fill-rule:evenodd;stroke:none;stroke-width:1.03534329;stroke-linecap:round;stroke-linejoin:bevel;stroke-miterlimit:4;stroke-dasharray:none;stroke-dashoffset:0;stroke-opacity:1"
       inkscape:connector-curvature="0" />
    <g
       style="stroke-width:1.14001822"
       transform="matrix(0.87720932,0,0,0.87714863,1.9646509,1.9656219)"
       id="g4524">
      <path
         inkscape:connector-curvature="0"
         style="opacity:1;fill:#ffffff;fill-opacity:1;stroke-width:1.14001822"
         d="M 4,4 V 7 H 7 V 4 Z m 21,0 v 3 h 3 V 4 Z M 4,11 v 3 h 3 v -3 z m 21,0 v 3 h 3 V 11 Z M 4,18 v 3 h 3 v -3 z m 21,0 v 3 h 3 V 18 Z M 4,25 v 3 h 3 v -3 z m 21,0 v 3 h 3 v -3 z"
         id="path10" />
      <rect
         style="opacity:1;fill:#ffffff;fill-opacity:1;stroke-width:1.14001822"
         width="14"
         height="9"
         x="9"
         y="5"
         id="rect16" />
      <rect
         y="18"
         x="9"
         height="9"
         width="14"
         style="opacity:1;fill:#ffffff;fill-opacity:1;stroke-width:1.14001822"
         id="rect20" />
    </g>
    <path
       id="path4526"
       d="m 30.101694,16.947274 h -8.632893 c -0.772169,0 -1.506389,0.154177 -2.173848,0.435551 -0.66746,0.281375 -1.26764,0.68951 -1.771502,1.19337 -0.50386,0.503862 -0.911995,1.104042 -1.19337,1.771502 -0.281374,0.667459 -0.435551,1.401679 -0.435551,2.173848 v 7.580149 h 8.63094 c 3.088679,0 5.576224,-2.487545 5.576224,-5.576224 z"
       style="opacity:1;fill:#64bc68;fill-opacity:1;fill-rule:evenodd;stroke:none;stroke-width:1.03534329;stroke-linecap:round;stroke-linejoin:bevel;stroke-miterlimit:4;stroke-dasharray:none;stroke-dashoffset:0;stroke-opacity:1"
       inkscape:connector-curvature="0" />
    <path
       id="path24"
       style="fill:#ffffff;fill-opacity:1;stroke-width:0.99999994"
       d="m 20.658595,19.591272 c -0.849016,0 -1.538028,0.688965 -1.538028,1.537922 0,0.849627 0.688803,1.538422 1.538527,1.538422 0.274516,0 0.52689,-0.08554 0.750014,-0.21153 l 1.212025,1.134943 -1.211524,1.134542 c -0.223124,-0.125983 -0.475498,-0.211529 -0.750014,-0.211529 -0.849015,0 -1.538028,0.688966 -1.538028,1.538923 0,0.848957 0.689013,1.537922 1.538028,1.537922 0.849686,0 1.53853,-0.688755 1.53853,-1.538422 0,-0.141014 -0.02215,-0.274087 -0.05766,-0.40383 l 1.307724,-1.269136 2.750052,2.596068 h 0.923097 v -0.615348 l -4.980893,-4.826655 c 0.03557,-0.129745 0.05766,-0.262808 0.05766,-0.40383 0,-0.849957 -0.689014,-1.538922 -1.53903,-1.538922 z m 0,0.923033 c 0.339867,0 0.615392,0.275506 0.615392,0.615349 0,0.339842 -0.275525,0.615349 -0.615392,0.615349 -0.339867,0 -0.61539,-0.275507 -0.61539,-0.615349 0,-0.339843 0.275523,-0.615349 0.61539,-0.615349 z m 5.538603,-0.307675 -2.423146,2.288385 0.807706,0.78842 2.538547,-2.461376 V 20.20671 Z m -5.538603,5.230536 c 0.339867,0 0.615392,0.275506 0.615392,0.615349 0,0.339842 -0.275525,0.615348 -0.615392,0.615348 -0.339867,0 -0.61539,-0.275506 -0.61539,-0.615348 0,-0.339843 0.275523,-0.615349 0.61539,-0.615349 z"
       inkscape:connector-curvature="0" />
  </g>
</svg>
