<?xml version="1.0" encoding="UTF-8" standalone="no"?>
<svg
   xmlns:dc="http://purl.org/dc/elements/1.1/"
   xmlns:cc="http://creativecommons.org/ns#"
   xmlns:rdf="http://www.w3.org/1999/02/22-rdf-syntax-ns#"
   xmlns:svg="http://www.w3.org/2000/svg"
   xmlns="http://www.w3.org/2000/svg"
   xmlns:sodipodi="http://sodipodi.sourceforge.net/DTD/sodipodi-0.dtd"
   xmlns:inkscape="http://www.inkscape.org/namespaces/inkscape"
   height="32"
   width="32"
   version="1"
   id="svg12"
   sodipodi:docname="vivaldi-snapshot.svg"
   inkscape:version="0.92.1 r">
  <metadata
     id="metadata18">
    <rdf:RDF>
      <cc:Work
         rdf:about="">
        <dc:format>image/svg+xml</dc:format>
        <dc:type
           rdf:resource="http://purl.org/dc/dcmitype/StillImage" />
      </cc:Work>
    </rdf:RDF>
  </metadata>
  <defs
     id="defs16" />
  <sodipodi:namedview
     pagecolor="#ffffff"
     bordercolor="#666666"
     borderopacity="1"
     objecttolerance="10"
     gridtolerance="10"
     guidetolerance="10"
     inkscape:pageopacity="0"
     inkscape:pageshadow="2"
     inkscape:window-width="1680"
     inkscape:window-height="955"
     id="namedview14"
     showgrid="false"
     inkscape:zoom="7.375"
     inkscape:cx="-10.711864"
     inkscape:cy="16"
     inkscape:window-x="0"
     inkscape:window-y="0"
     inkscape:window-maximized="1"
     inkscape:current-layer="svg12" />
  <rect
     style="opacity:1;fill:#c2352a;fill-opacity:1;fill-rule:evenodd;stroke:none;stroke-width:1.03534329;stroke-linecap:round;stroke-linejoin:bevel;stroke-miterlimit:4;stroke-dasharray:none;stroke-dashoffset:0;stroke-opacity:1"
     id="rect4497-3"
     width="28.203388"
     height="28.203388"
     x="1.8983059"
     y="1.8983059"
     ry="5.575182" />
  <path
     d="m 22.794567,7.5002191 c -0.36093,2.75e-4 -0.72638,0.07764 -1.0189,0.2283 -0.42747,0.22016 -0.85773,0.68653 -1.0486,1.1366 -0.20284,0.4783003 -0.23197,1.3214999 -0.06108,1.7696999 0.07228,0.18953 0.19701,0.51519 0.27713,0.72368 0.18094,0.47085 0.24607,1.5065 0.13135,2.0882 -0.12917,0.65498 -0.53047,1.4116 -1.0009,1.8872 -1.4117,1.427 -3.546,1.452 -4.9481,0.05793 -0.48382,-0.48107 -0.55244,-0.59593 -2.7365,-4.5837 -0.741,-1.3539996 -1.406,-2.4875999 -1.544,-2.6340999 -0.434,-0.4699 -1.0375004,-0.6379 -1.5901004,-0.6407 -1.188,-0.01973 -2.0114,0.93136 -2.2068,1.9523003 -0.14433,0.8170196 -0.21072,0.6763696 3.6269004,7.6730996 2.4223,4.4163 3.5736,6.4521 3.7624,6.6522 0.66871,0.70892 1.6214,0.88464 2.5129,0.4635 0.2344,-0.11074 0.49975,-0.30975 0.66925,-0.50194 0.33201,-0.37645 7.1978,-12.847 7.3092,-13.276 0.11676,-0.44961 0.08776,-1.0883996 -0.06936,-1.5304999 -0.19545,-0.5499 -0.73469,-1.1141 -1.2665,-1.3252 -0.23871,-0.09474 -0.51671,-0.14119 -0.79743,-0.14096 z"
     id="path8"
     inkscape:connector-curvature="0"
     style="fill:#ffffff" />
</svg>
