<?xml version="1.0" encoding="UTF-8" standalone="no"?>
<svg
   xmlns:dc="http://purl.org/dc/elements/1.1/"
   xmlns:cc="http://creativecommons.org/ns#"
   xmlns:rdf="http://www.w3.org/1999/02/22-rdf-syntax-ns#"
   xmlns:svg="http://www.w3.org/2000/svg"
   xmlns="http://www.w3.org/2000/svg"
   xmlns:sodipodi="http://sodipodi.sourceforge.net/DTD/sodipodi-0.dtd"
   xmlns:inkscape="http://www.inkscape.org/namespaces/inkscape"
   height="32"
   width="32"
   version="1"
   id="svg18"
   sodipodi:docname="vmware-workstation.svg"
   inkscape:version="0.92.1 r">
  <metadata
     id="metadata24">
    <rdf:RDF>
      <cc:Work
         rdf:about="">
        <dc:format>image/svg+xml</dc:format>
        <dc:type
           rdf:resource="http://purl.org/dc/dcmitype/StillImage" />
      </cc:Work>
    </rdf:RDF>
  </metadata>
  <defs
     id="defs22" />
  <sodipodi:namedview
     pagecolor="#ffffff"
     bordercolor="#666666"
     borderopacity="1"
     objecttolerance="10"
     gridtolerance="10"
     guidetolerance="10"
     inkscape:pageopacity="0"
     inkscape:pageshadow="2"
     inkscape:window-width="640"
     inkscape:window-height="480"
     id="namedview20"
     showgrid="false"
     inkscape:zoom="8.375"
     inkscape:cx="-37.850746"
     inkscape:cy="18.865672"
     inkscape:current-layer="svg18" />
  <rect
     style="opacity:1;fill:#4e91d9;fill-opacity:1;fill-rule:evenodd;stroke:none;stroke-width:1.03534329;stroke-linecap:round;stroke-linejoin:bevel;stroke-miterlimit:4;stroke-dasharray:none;stroke-dashoffset:0;stroke-opacity:1"
     id="rect4497-3-3"
     width="28.203388"
     height="28.203388"
     x="1.8983059"
     y="1.8983059"
     ry="5.575182" />
  <g
     id="g4509"
     transform="translate(33.432836,-1.5522389)">
    <path
       style="fill:#ffad53"
       inkscape:connector-curvature="0"
       id="path10"
       d="m -12.932836,27.552239 c 0.831,0 1.5,-0.669 1.5,-1.5 v -13 c 0,-0.831 -0.669,-1.5 -1.5,-1.5 h -13 c -0.831,0 -1.5,0.669 -1.5,1.5 v 13 c 0,0.831 0.669,1.5 1.5,1.5 z m -2.5,-4 h -8 v -8 h 8 z" />
    <path
       style="fill:#a3caf6"
       inkscape:connector-curvature="0"
       id="path12"
       d="m -8.9328358,23.552239 c 0.831,0 1.5,-0.669 1.5,-1.5 V 9.0522388 c 0,-0.831 -0.669,-1.5 -1.5,-1.5 H -21.932836 c -0.831,0 -1.5,0.669 -1.5,1.5 v 2.5000002 h 12 v 8 h -8 v -4 h -4 v 6.5 c 0,0.831 0.669,1.5 1.5,1.5 z" />
  </g>
</svg>
