<?xml version="1.0" encoding="UTF-8" standalone="no"?>
<svg
   xmlns:dc="http://purl.org/dc/elements/1.1/"
   xmlns:cc="http://creativecommons.org/ns#"
   xmlns:rdf="http://www.w3.org/1999/02/22-rdf-syntax-ns#"
   xmlns:svg="http://www.w3.org/2000/svg"
   xmlns="http://www.w3.org/2000/svg"
   xmlns:sodipodi="http://sodipodi.sourceforge.net/DTD/sodipodi-0.dtd"
   xmlns:inkscape="http://www.inkscape.org/namespaces/inkscape"
   height="32"
   width="32"
   version="1.1"
   viewBox="0 0 32 32"
   id="svg12"
   sodipodi:docname="wayland.svg"
   inkscape:version="0.92.1 r">
  <metadata
     id="metadata18">
    <rdf:RDF>
      <cc:Work
         rdf:about="">
        <dc:format>image/svg+xml</dc:format>
        <dc:type
           rdf:resource="http://purl.org/dc/dcmitype/StillImage" />
      </cc:Work>
    </rdf:RDF>
  </metadata>
  <defs
     id="defs16" />
  <sodipodi:namedview
     pagecolor="#ffffff"
     bordercolor="#666666"
     borderopacity="1"
     objecttolerance="10"
     gridtolerance="10"
     guidetolerance="10"
     inkscape:pageopacity="0"
     inkscape:pageshadow="2"
     inkscape:window-width="640"
     inkscape:window-height="480"
     id="namedview14"
     showgrid="false"
     inkscape:zoom="8.8125"
     inkscape:cx="14.143838"
     inkscape:cy="16"
     inkscape:current-layer="svg12" />
  <rect
     style="opacity:1;fill:#f3b616;fill-opacity:1;fill-rule:evenodd;stroke:none;stroke-width:1.03534329;stroke-linecap:round;stroke-linejoin:bevel;stroke-miterlimit:4;stroke-dasharray:none;stroke-dashoffset:0;stroke-opacity:1"
     id="rect4497-3"
     width="28.203388"
     height="28.203388"
     x="1.8983059"
     y="1.8983059"
     ry="5.575182" />
  <path
     style="fill:#ffffff;stroke-width:0.99999994"
     d="m 24.619793,4.861705 c 0.439223,2.54e-5 0.684685,0.345957 0.736377,1.0378077 L 24.801388,9.157734 h 0.135649 l 0.290672,-0.241352 h 0.07751 v 0.072406 c -0.400508,0.3057321 -0.788076,1.142406 -1.162704,2.510036 -0.142125,1.174586 -0.381128,2.260659 -0.717003,3.258228 -0.297149,1.029769 -0.445719,1.979075 -0.445701,2.847929 l -0.561975,1.713582 c -1.2e-5,0.144817 0.213148,0.289629 0.639486,0.434427 -0.07752,0.337899 -0.193798,0.506845 -0.348808,0.506839 v 0.09654 h 0.135649 v 0.0724 c -1.9e-5,0.177 -0.219637,0.265496 -0.658866,0.265488 l 0.07751,0.09654 v 0.337887 h -0.135649 c 0.09042,0.337899 0.2842,0.50684 0.581354,0.50684 v 0.168939 h -0.581354 v 0.09654 c 0.193768,6e-6 0.290664,0.144817 0.290677,0.434433 l -0.813888,0.337887 0.0775,0.09654 v 0.07241 c -1.2e-5,0.112631 -0.09691,0.168945 -0.290677,0.168945 v 0.09653 c 0.245443,6e-6 0.368176,0.05631 0.368188,0.168947 -0.348821,0.14481 -0.807442,0.860816 -1.375863,2.148015 -0.581362,1.142391 -1.0852,1.713585 -1.511508,1.713585 h -0.155028 c -0.322985,-0.257443 -0.587825,-1.110213 -0.794515,-2.558313 -0.826823,-2.204324 -1.240227,-3.499568 -1.240215,-3.885731 -1.2e-5,-0.99757 -0.264853,-1.881481 -0.794515,-3.007785 -0.14212,-0.498781 -0.239009,-1.370989 -0.290678,-2.127231 h -0.348808 c -0.878498,1.657277 -1.337118,2.922653 -1.375871,3.855862 -0.245461,0.547066 -0.439248,1.206754 -0.581348,1.979069 0.529667,0.176998 0.794509,0.345938 0.794515,0.506833 v 0.09654 c -0.413417,-0.06435 -0.704089,-0.185031 -0.872032,-0.362022 -0.180866,0.434433 -0.419869,1.373872 -0.716999,3.352933 -0.232545,0.917131 -0.523223,1.25878 -0.872026,1.25878 C 10.642223,25.844982 9.821871,25.302209 9.163011,24.385077 9.059657,24.385084 8.891707,23.926515 8.659173,23.009383 8.517061,23.009389 8.42017,22.55082 8.368496,21.633688 7.877574,20.330406 7.541687,19.109391 7.36082,17.436028 V 14.925992 H 7.28331 l -0.348809,0.09654 v -0.09654 c 0,-0.112611 0.116269,-0.168928 0.348809,-0.16894 L 7.2058,13.308952 V 12.174604 L 6.64383,8.55436 V 7.1878877 C 6.889291,6.222511 7.315617,5.7398132 7.922803,5.7397878 L 8.155355,5.98114 7.922816,5.9087339 c 0.943079,1.2872176 1.498596,2.1951213 1.66654,3.0800534 h 0.658866 V 9.1577337 H 9.744385 v 0.1930817 c 0.193781,0.7401536 0.335888,1.1102266 0.426326,1.1102076 h 0.155029 l 0.348809,-0.09654 0.07751,0.09654 0.07751,-0.09654 0.07751,0.09654 v 0.0724 c -0.258385,0.193095 -0.432785,0.458582 -0.523218,0.796456 h -0.05813 v 0.16894 h 0.13565 c 0.180859,2.687047 0.516753,5.07919 1.007675,6.462922 l 0.290677,0.265917 h 0.155022 c 0.193782,1.3e-5 0.600729,-1.055147 1.220842,-2.937687 0.400483,-0.852751 0.691155,-1.477169 0.872026,-2.120782 l -0.07751,-0.265487 c 0.400477,-0.627497 0.813881,-0.913472 1.240213,-0.913492 h 0.135651 c 0.271292,2e-5 0.465073,0.14923 0.581355,0.5032 0.361717,0.530982 0.652396,1.20367 0.872025,2.265592 l 1.085193,2.242594 c 0.142095,0.177004 0.213148,0.378125 0.21316,0.60338 0.400477,0.949313 0.762202,2.099102 1.085193,2.404809 h 0.232539 c 0.271286,6e-6 0.633011,-1.696843 1.085186,-4.04599 0.0775,1.2e-5 0.290666,-0.627496 0.639487,-1.882528 v -0.09654 l -0.368675,-0.168946 -0.290678,0.09654 h -0.368188 v -0.193081 l 0.736377,-0.07241 h 0.581841 c 0.555503,-2.075588 1.065798,-3.6845895 1.530895,-4.8269958 0.155011,-2.349116 0.368177,-3.5236836 0.639487,-3.5237027 l 1.058627,-0.4344337"
     id="path8"
     inkscape:connector-curvature="0" />
</svg>
