<?xml version="1.0" encoding="UTF-8" standalone="no"?>
<svg
   xmlns:dc="http://purl.org/dc/elements/1.1/"
   xmlns:cc="http://creativecommons.org/ns#"
   xmlns:rdf="http://www.w3.org/1999/02/22-rdf-syntax-ns#"
   xmlns:svg="http://www.w3.org/2000/svg"
   xmlns="http://www.w3.org/2000/svg"
   xmlns:sodipodi="http://sodipodi.sourceforge.net/DTD/sodipodi-0.dtd"
   xmlns:inkscape="http://www.inkscape.org/namespaces/inkscape"
   height="32"
   width="32"
   version="1"
   id="svg12"
   sodipodi:docname="whatsapp.svg"
   inkscape:version="0.92.1 r">
  <metadata
     id="metadata18">
    <rdf:RDF>
      <cc:Work
         rdf:about="">
        <dc:format>image/svg+xml</dc:format>
        <dc:type
           rdf:resource="http://purl.org/dc/dcmitype/StillImage" />
      </cc:Work>
    </rdf:RDF>
  </metadata>
  <defs
     id="defs16" />
  <sodipodi:namedview
     pagecolor="#ffffff"
     bordercolor="#666666"
     borderopacity="1"
     objecttolerance="10"
     gridtolerance="10"
     guidetolerance="10"
     inkscape:pageopacity="0"
     inkscape:pageshadow="2"
     inkscape:window-width="1680"
     inkscape:window-height="955"
     id="namedview14"
     showgrid="false"
     showguides="true"
     inkscape:guide-bbox="true"
     inkscape:zoom="7.375"
     inkscape:cx="-44.913757"
     inkscape:cy="-8.9531784"
     inkscape:window-x="0"
     inkscape:window-y="0"
     inkscape:window-maximized="1"
     inkscape:current-layer="svg12" />
  <rect
     style="opacity:1;fill:#47ad5d;fill-opacity:1;fill-rule:evenodd;stroke:none;stroke-width:1.03534329;stroke-linecap:round;stroke-linejoin:bevel;stroke-miterlimit:4;stroke-dasharray:none;stroke-dashoffset:0;stroke-opacity:1"
     id="rect4497-3"
     width="28.203388"
     height="28.203388"
     x="1.8983059"
     y="1.8983059"
     ry="5.575182" />
  <path
     style="fill:#ffffff;stroke-width:0.66101712"
     d="m 16.271268,6.7457094 c -0.222836,0 -0.4422,0.010481 -0.661017,0.025821 -0.02745,0.00203 -0.05519,0.00418 -0.08262,0.00646 -3.306011,0.2609034 -6.1055852,2.2462001 -7.5203599,5.0596216 0,0 -0.00132,0.0013 -0.00132,0.0013 -0.091515,0.182137 -0.1850522,0.363724 -0.2646651,0.55257 -0.4332177,0.978306 -0.6685995,2.016772 -0.7113672,3.103681 -0.00186,0.03512 -0.00241,0.07065 -0.00395,0.105867 -0.00285,0.103828 -0.00844,0.206432 -0.00778,0.311144 6.58e-5,0.02975 -0.00132,0.05804 -0.00132,0.08779 0,1.07607 0.1907369,2.103299 0.5254566,3.062368 0.1347084,0.429958 0.2904224,0.865277 0.4776882,1.305251 0.4664404,1.095833 0.5239688,1.394376 0.4505757,2.309686 -0.051146,0.63779 -0.2241416,1.288459 -0.4402477,1.655125 -0.1959251,0.331831 -0.3524559,0.675757 -0.3524559,0.76301 0,0.270019 1.5589866,0.175361 2.9397183,-0.178164 1.617576,-0.414148 1.75921,-0.413634 3.085607,0.0026 0.606768,0.190399 1.299916,0.293154 2.081172,0.321471 0.03268,0.0016 0.06536,0.0012 0.09811,0.0026 0.106909,0.003 0.209738,0.01031 0.320181,0.01031 0.009,0 0.01685,-0.0012 0.02582,-0.0013 0.01424,6.3e-5 0.02834,0.0013 0.04261,0.0013 0.258418,0 0.513925,-0.01299 0.766883,-0.03357 2.287847,-0.162702 4.124805,-1.009698 5.778735,-2.660852 1.362621,-1.360373 2.207038,-3.040224 2.540785,-4.797538 0.03074,-0.160601 0.05638,-0.321945 0.07875,-0.485434 0.01353,-0.100363 0.02723,-0.200129 0.03744,-0.300816 0.02243,-0.215934 0.03644,-0.435668 0.0439,-0.655852 0.0016,-0.05549 0.0033,-0.111034 0.0039,-0.166546 0.0013,-0.05089 0.0039,-0.102073 0.0039,-0.153634 0,-5.041314 -3.991407,-9.1135976 -8.998611,-9.2477841 -0.03889,-0.00112 -0.07729,-0.00197 -0.116195,-0.00259 -0.04694,-9.916e-4 -0.09316,-0.00387 -0.139432,-0.00387 z m -2.966831,4.6309936 c 0.572782,0.02369 0.749787,0.01505 1.275557,1.310414 0.456707,1.125192 0.457243,1.140227 -0.06585,1.753245 -0.1779,0.208488 -0.324054,0.427963 -0.324054,0.488016 0.442547,1.402485 1.83433,2.47058 3.201802,2.840309 0.116751,0 0.271567,-0.145934 0.631323,-0.592592 0.578062,-0.717703 0.495321,-0.714503 1.837164,-0.06843 1.055326,0.508106 1.094357,0.645765 1.009599,1.183892 -0.111215,0.706107 -0.43464,1.122414 -1.128376,1.453722 -0.672068,0.32097 -1.382266,0.294704 -2.530456,-0.09425 -1.877367,-0.63595 -3.180447,-1.657202 -4.516089,-3.537475 -0.778033,-1.095295 -1.046751,-1.753325 -1.050915,-2.573061 -0.0032,-0.645859 0.134004,-1.066158 0.517711,-1.589282 0.370871,-0.505616 0.556415,-0.598755 1.142579,-0.574516 z"
     id="path2"
     inkscape:connector-curvature="0" />
</svg>
