<?xml version="1.0" encoding="UTF-8" standalone="no"?>
<svg
   xmlns:dc="http://purl.org/dc/elements/1.1/"
   xmlns:cc="http://creativecommons.org/ns#"
   xmlns:rdf="http://www.w3.org/1999/02/22-rdf-syntax-ns#"
   xmlns:svg="http://www.w3.org/2000/svg"
   xmlns="http://www.w3.org/2000/svg"
   xmlns:sodipodi="http://sodipodi.sourceforge.net/DTD/sodipodi-0.dtd"
   xmlns:inkscape="http://www.inkscape.org/namespaces/inkscape"
   width="32"
   height="32"
   version="1.1"
   viewBox="0 0 32 32"
   id="svg12"
   sodipodi:docname="xhydra.svg"
   inkscape:version="0.92.1 r">
  <metadata
     id="metadata18">
    <rdf:RDF>
      <cc:Work
         rdf:about="">
        <dc:format>image/svg+xml</dc:format>
        <dc:type
           rdf:resource="http://purl.org/dc/dcmitype/StillImage" />
      </cc:Work>
    </rdf:RDF>
  </metadata>
  <defs
     id="defs16" />
  <sodipodi:namedview
     pagecolor="#ffffff"
     bordercolor="#666666"
     borderopacity="1"
     objecttolerance="10"
     gridtolerance="10"
     guidetolerance="10"
     inkscape:pageopacity="0"
     inkscape:pageshadow="2"
     inkscape:window-width="640"
     inkscape:window-height="480"
     id="namedview14"
     showgrid="false"
     inkscape:zoom="8.375"
     inkscape:cx="-6.6865672"
     inkscape:cy="16"
     inkscape:current-layer="svg12" />
  <rect
     style="opacity:1;fill:#008366;fill-opacity:1;fill-rule:evenodd;stroke:none;stroke-width:1.03534329;stroke-linecap:round;stroke-linejoin:bevel;stroke-miterlimit:4;stroke-dasharray:none;stroke-dashoffset:0;stroke-opacity:1"
     id="rect4497-3-3"
     width="28.203388"
     height="28.203388"
     x="1.8983059"
     y="1.8983059"
     ry="5.575182" />
  <path
     style="fill:#badc86"
     d="m 12.732374,4.508607 c -0.364124,0.03023 -0.500633,0.08683 -0.637572,0.261111 -0.147162,0.187293 -0.273344,0.23078 -0.810566,0.280764 -0.409276,0.03808 -0.696841,0.113022 -0.806381,0.210573 -0.211135,0.188025 -0.410167,0.644738 -0.410167,0.941964 0,0.210786 0.02062,0.220101 0.343201,0.168459 0.190246,-0.03046 0.484604,-0.0083 0.662684,0.05054 0.261,0.08624 0.301206,0.129424 0.217638,0.230227 -0.05961,0.07191 -0.263472,0.05194 -0.486897,0.05194 -0.447867,0 -0.494687,0.125494 -0.182762,0.48853 l 0.200898,0.234438 0.345991,-0.185305 c 0.393912,-0.211372 0.671566,-0.162235 0.948683,-0.0056 0.105541,0.05965 0.580928,0.130735 1.057505,0.157228 0.810161,0.04504 0.594968,0.06381 0.791034,0.291995 0.127099,0.147921 0.301869,0.354751 0.301348,0.525028 -0.0017,0.574029 -0.403157,1.590758 -1.593208,3.006985 -0.602492,0.716999 -0.721173,2.029767 -0.722673,2.376158 -4.72e-4,0.105981 -0.03849,0.214893 -0.08371,0.24286 -0.08674,0.05366 -0.140922,-0.276225 -0.22322,-1.358899 C 11.5627,11.405467 11.362076,10.806596 10.900598,10.329779 10.629822,10.049997 10.378518,9.883216 10.126305,9.815976 9.6852168,9.698389 9.6584538,9.608285 10.017485,9.459405 c 0.144955,-0.06011 0.263678,-0.143717 0.263678,-0.185304 0,-0.106657 -0.4017782,-0.194259 -0.6612882,-0.144593 -0.266175,0.05094 -0.2728,0.0037 -0.03348,-0.251285 0.4708302,-0.501726 -0.33052,-0.385608 -1.162134,0.168456 -0.746331,0.497247 -1.201698,1.008936 -1.270957,1.378531 -0.04371,0.233222 -0.1834,0.436891 -0.496664,0.725776 -0.580789,0.535589 -0.712277,0.806803 -0.637571,1.305553 0.108943,0.727282 0.192308,0.786846 0.531542,0.383243 0.212603,-0.252942 0.706073,-0.516 0.796616,-0.425358 0.08841,0.08851 -0.139765,0.404096 -0.405982,0.561529 -0.336483,0.198978 -0.332754,0.339029 0.01116,0.45905 0.32661,0.113982 0.387365,0.0837 0.572001,-0.282168 0.212896,-0.421872 0.463457,-0.659729 0.814752,-0.773506 0.174088,-0.05638 0.502205,-0.274656 0.729649,-0.485722 0.227445,-0.211065 0.456634,-0.383243 0.509221,-0.383243 0.180508,0 0.5141392,0.419789 0.6040872,0.759467 0.04951,0.186954 0.133839,0.930241 0.186948,1.652298 0.163742,2.225578 0.387468,2.540487 1.197015,4.304626 0.259539,0.565583 0.471551,1.085292 0.471551,1.154393 0,0.09318 -0.678736,0.140296 -1.194293,0.185304 -1.2198472,0.106528 -1.7317392,0.520954 -1.8206352,1.475417 -0.03205,0.34411 -0.0018,0.54414 0.115795,0.767889 0.242826,0.461735 0.388405,0.453109 0.323668,-0.01965 -0.05542,-0.404744 0.09149,-0.663147 0.200897,-0.353762 0.0808,0.228492 0.3919792,0.554508 0.5287522,0.554508 0.139268,0 0.140496,-0.0127 0.03069,-0.301822 -0.09615,-0.253197 -0.03765,-0.278707 0.207874,-0.09264 0.234881,0.177986 0.313965,0.09104 0.253912,-0.279362 -0.09504,-0.586337 0.840721,-1.096603 1.953241,-0.766492 0.540815,0.160472 0.690438,0.174856 0.929153,0.08844 0.455569,-0.164918 1.102126,-0.125802 1.399252,0.124486 0.299184,0.252025 0.05651,0.910591 -0.152068,1.208698 -0.212415,0.3036 -0.544807,0.431674 -1.376987,0.533452 -0.421592,0.05157 -0.859249,0.155093 -0.973796,0.230228 -0.228102,0.149623 -0.411562,0.485102 -0.411562,0.753851 0,0.231318 0.105294,0.21655 0.33483,-0.04774 0.105031,-0.12093 0.269961,-0.218997 0.366918,-0.218997 0.220402,0 0.221308,0.04721 0.0014,0.32709 -0.158301,0.201476 -0.249009,0.72718 -0.125561,0.72718 0.02741,0 0.179519,-0.138135 0.339016,-0.307437 0.159497,-0.1693 0.37412,-0.307437 0.477132,-0.307437 0.218574,0 0.230634,0.06673 0.05301,0.301821 -0.132374,0.175215 -0.18092,0.755679 -0.06278,0.749642 0.03624,-0.0018 0.145315,-0.129633 0.242752,-0.284977 0.16539,-0.263686 0.372468,-0.397949 1.068664,-0.692083 0.153795,-0.06497 0.740267,-0.606226 1.303046,-1.20167 1.00534,-1.063687 0.993213,-1.088149 0.964719,-1.450148 l -0.0293,-0.369204 1.019146,-0.106691 c 0.901906,-0.321818 1.381898,-0.348207 1.907189,-0.07581 0.696954,0.361418 1.355359,0.987571 1.259796,1.57649 -0.07033,0.433412 -0.308327,1.254968 -0.90962,1.313165 -1.431205,-0.02692 -3.427235,0.891042 -3.201861,2.225867 0.185853,0.89625 1.347472,1.48981 2.51267,1.756181 0.366554,0.08384 0.85593,0.111731 1.471855,0.08563 1.542591,-0.06535 2.528972,-0.145104 3.355273,-0.994371 0.302321,-0.310725 0.691934,-1.051568 0.834282,-1.414042 l 0.76588,0.417849 v -2.012193 l -1.99996,0.878193 1.048486,0.603848 c -0.123198,0.102527 -0.285216,0.352524 -0.468762,0.542268 -0.811539,0.838916 -1.367792,0.836556 -2.38287,0.973315 -0.832958,0.11222 -1.746329,-0.0055 -2.31399,-0.2569 -0.465445,-0.206114 -0.825913,-0.651224 -0.825913,-0.982674 0,-0.311755 0.371772,-0.596966 0.820334,-0.612066 1.213547,-0.04084 1.439765,-0.151613 1.439765,-0.151613 0.873833,-0.265904 1.701531,-1.784499 1.701531,-2.740258 0,-0.243888 0.03828,-0.543543 0.0851,-0.666816 0.06948,-0.182939 0.02938,-0.340327 -0.217639,-0.85633 -0.205656,-0.429591 -0.284547,-0.500992 -0.248331,-0.645454 0.04387,-0.174983 -0.03785,-0.305319 -0.461786,-0.734198 -0.458735,-0.464079 -0.503779,-0.683544 -0.407376,-0.838082 0.05953,-0.09543 0.10882,-0.193449 0.10882,-0.217592 0,-0.02414 -0.228452,-0.158536 -0.50643,-0.299014 -0.27798,-0.140478 -0.602195,-0.334439 -0.721279,-0.430973 -0.187394,-0.151909 -0.201072,-0.195326 -0.09765,-0.32007 0.06573,-0.07927 0.09663,-0.166834 0.06836,-0.195132 -0.02828,-0.0283 -0.358704,-0.108777 -0.733835,-0.179689 -0.846564,-0.160025 -0.977923,-0.229455 -1.012859,-0.533452 -0.0153,-0.133039 -0.05858,-0.23875 -0.09627,-0.234438 -0.03767,0.0042 -0.45813,0.0795 -0.934732,0.167054 -0.936868,0.172089 -1.149582,0.148662 -1.149582,-0.127747 0,-0.227855 0.0018,-0.229001 -0.584556,0.08423 -0.957471,0.511498 -1.734858,0.197449 -1.494178,-0.606756 0.06054,-0.202277 0.224284,-0.534931 0.364127,-0.738408 0.559215,-0.813691 1.624948,-1.072776 3.584596,-1.16305 1.092048,-0.0503 1.583715,-0.0992 1.904343,-0.244265 0.505762,-0.228819 1.667157,-1.032523 1.884056,-1.435731 0.09279,-0.172482 0.198455,-0.313053 0.235777,-0.313053 0.183308,0 0.419932,-0.375232 0.419932,-0.666814 0,-0.394639 0.1807,-0.365882 0.287395,0.04632 0.105859,0.40897 0.285926,0.207558 0.27484,-0.307437 -0.0094,-0.436765 0.05587,-0.486556 0.252516,-0.193728 0.212718,0.316736 0.281836,0.105486 0.160441,-0.485722 C 23.865543,9.03629 23.103434,7.644167 22.788212,7.244352 22.688332,7.117672 21.895988,6.991411 21.761637,6.963588 21.576864,6.925328 21.331798,6.771207 21.065989,6.329061 20.866078,5.996528 20.606858,5.686697 20.463296,5.611709 20.23672,5.493362 20.171001,5.495143 19.825724,5.627149 19.406027,5.78761 19.368256,5.853543 19.585763,6.034256 c 0.175046,0.145436 0.470157,0.814788 0.470157,1.065501 -1e-6,0.179074 -0.003,0.179725 -0.182761,0.01685 C 19.772534,7.025437 19.489994,6.810995 19.418348,6.640712 19.293922,6.344958 19.282054,6.338651 19.161646,6.501733 c -0.222289,0.301066 -0.159949,0.717265 0.139512,0.930734 0.293115,0.208948 0.557122,0.668047 0.655708,1.141306 0.03527,0.169302 0.138768,0.431786 0.230195,0.582585 0.342766,0.565466 0.276709,1.886892 -0.251122,2.137642 -0.183684,0.08726 -0.776485,0.165664 -1.686704,0.223208 -2.093637,0.132377 -3.045008,0.40359 -4.049172,1.390468 -0.479915,0.471656 -0.511661,0.489428 -0.45481,0.24988 0.09119,-0.384222 0.130814,-0.898587 0.998909,-2.034137 C 15.858197,9.66616 16.00159,9.316051 16.000018,8.270856 15.997018,7.377364 15.588795,6.360725 14.642293,5.592365 14.44733,5.457106 14.309201,5.311873 14.335366,5.269486 c 0.02616,-0.04239 0.207346,-0.07721 0.401796,-0.07721 0.412067,0 0.419822,-0.135392 0.02232,-0.367801 -0.331287,-0.193699 -1.430716,-0.36537 -2.027113,-0.315862 z"
     id="path8"
     inkscape:connector-curvature="0" />
</svg>
