<?xml version="1.0" encoding="UTF-8" standalone="no"?>
<svg
   xmlns:dc="http://purl.org/dc/elements/1.1/"
   xmlns:cc="http://creativecommons.org/ns#"
   xmlns:rdf="http://www.w3.org/1999/02/22-rdf-syntax-ns#"
   xmlns:svg="http://www.w3.org/2000/svg"
   xmlns="http://www.w3.org/2000/svg"
   xmlns:sodipodi="http://sodipodi.sourceforge.net/DTD/sodipodi-0.dtd"
   xmlns:inkscape="http://www.inkscape.org/namespaces/inkscape"
   width="32"
   height="32"
   version="1.1"
   viewBox="0 0 32 32"
   id="svg14"
   sodipodi:docname="org.tuxfamily.XMoto.svg"
   inkscape:version="0.92.1 r">
  <metadata
     id="metadata20">
    <rdf:RDF>
      <cc:Work
         rdf:about="">
        <dc:format>image/svg+xml</dc:format>
        <dc:type
           rdf:resource="http://purl.org/dc/dcmitype/StillImage" />
      </cc:Work>
    </rdf:RDF>
  </metadata>
  <defs
     id="defs18" />
  <sodipodi:namedview
     pagecolor="#ffffff"
     bordercolor="#666666"
     borderopacity="1"
     objecttolerance="10"
     gridtolerance="10"
     guidetolerance="10"
     inkscape:pageopacity="0"
     inkscape:pageshadow="2"
     inkscape:window-width="640"
     inkscape:window-height="480"
     id="namedview16"
     showgrid="false"
     inkscape:zoom="9.5"
     inkscape:cx="-4.1052632"
     inkscape:cy="16"
     inkscape:current-layer="svg14" />
  <rect
     style="opacity:1;fill:#f4b932;fill-opacity:1;fill-rule:evenodd;stroke:none;stroke-width:1.03534329;stroke-linecap:round;stroke-linejoin:bevel;stroke-miterlimit:4;stroke-dasharray:none;stroke-dashoffset:0;stroke-opacity:1"
     id="rect4497-3"
     width="28.203388"
     height="28.203388"
     x="1.8983059"
     y="1.8983059"
     ry="5.575182"
     inkscape:export-filename="/home/ramil/3.png"
     inkscape:export-xdpi="71"
     inkscape:export-ydpi="71" />
  <g
     id="g4506"
     transform="translate(41.684211,-8.4210531)">
    <path
       inkscape:connector-curvature="0"
       id="path4"
       d="m -24.839715,14.421053 c -6.140338,0 -9.423237,4.390604 -10.016427,9.181702 -0.408422,3.298762 0.340902,6.386662 1.320174,8.44566 1.433857,2.634382 1.81376,2.785944 4.063878,1.847702 4.572467,-1.907987 9.125013,-4.110208 12.600618,-5.949474 1.331779,-0.704768 1.251955,-3.543455 1.116029,-5.192475 -0.338966,-4.112228 -2.943935,-8.333115 -9.084272,-8.333115 z"
       style="fill:#ffffff;stroke-width:1" />
    <path
       inkscape:connector-curvature="0"
       id="path8"
       d="m -26.684022,20.564345 c -0.127945,0.0039 -0.253884,0.03371 -0.37058,0.08778 -1.506918,0.593696 -2.316396,1.338923 -4.048806,1.557744 -1.014395,0.128128 -2.469686,0.153824 -3.48234,0.03061 -0.581934,-0.07891 -1.098475,0.386778 -1.098463,0.990322 v 4.191666 c 1.68e-4,0.563225 0.452927,1.014936 1.000443,0.998127 1.570731,-0.118961 3.190665,-0.312799 4.660478,-0.823713 0,0 4.339079,-1.432897 4.339079,-6.033765 1.79e-4,-0.563217 -0.452292,-1.015219 -0.999811,-0.998777 z"
       style="fill:#444444;stroke-width:1" />
    <circle
       id="circle12"
       r="0.71428573"
       cy="22.278196"
       cx="-27.112782"
       style="fill:#ffffff;stroke-width:1" />
  </g>
</svg>
