<?xml version="1.0" encoding="UTF-8" standalone="no"?>
<svg
   xmlns:dc="http://purl.org/dc/elements/1.1/"
   xmlns:cc="http://creativecommons.org/ns#"
   xmlns:rdf="http://www.w3.org/1999/02/22-rdf-syntax-ns#"
   xmlns:svg="http://www.w3.org/2000/svg"
   xmlns="http://www.w3.org/2000/svg"
   xmlns:sodipodi="http://sodipodi.sourceforge.net/DTD/sodipodi-0.dtd"
   xmlns:inkscape="http://www.inkscape.org/namespaces/inkscape"
   height="32"
   width="32"
   version="1"
   id="svg12"
   sodipodi:docname="kdeneur.svg"
   inkscape:version="0.92.1 r">
  <metadata
     id="metadata18">
    <rdf:RDF>
      <cc:Work
         rdf:about="">
        <dc:format>image/svg+xml</dc:format>
        <dc:type
           rdf:resource="http://purl.org/dc/dcmitype/StillImage" />
      </cc:Work>
    </rdf:RDF>
  </metadata>
  <defs
     id="defs16" />
  <sodipodi:namedview
     pagecolor="#ffffff"
     bordercolor="#666666"
     borderopacity="1"
     objecttolerance="10"
     gridtolerance="10"
     guidetolerance="10"
     inkscape:pageopacity="0"
     inkscape:pageshadow="2"
     inkscape:window-width="1680"
     inkscape:window-height="972"
     id="namedview14"
     showgrid="false"
     inkscape:zoom="5.2149125"
     inkscape:cx="-56.9794"
     inkscape:cy="28.635646"
     inkscape:window-x="0"
     inkscape:window-y="0"
     inkscape:window-maximized="1"
     inkscape:current-layer="svg12" />
  <rect
     style="opacity:1;fill:#f58411;fill-opacity:1;fill-rule:evenodd;stroke:none;stroke-width:1.03534329;stroke-linecap:round;stroke-linejoin:bevel;stroke-miterlimit:4;stroke-dasharray:none;stroke-dashoffset:0;stroke-opacity:1"
     id="rect4497-3"
     width="28.203388"
     height="28.203388"
     x="1.8983059"
     y="1.8983059"
     ry="5.575182" />
  <path
     style="clip-rule:evenodd;opacity:1;fill:#ffffff;fill-opacity:1;fill-rule:evenodd;stroke-width:0.93075597;image-rendering:optimizeQuality;shape-rendering:geometricPrecision"
     d="m 19.254579,8.7735096 -2.832064,3.4228524 c -1.557827,1.881886 -2.833267,3.460188 -2.833267,3.505955 0,0.04576 1.33325,1.757193 2.961494,3.803438 l 2.959567,3.720735 h 3.101202 c 2.468341,0 3.084984,-0.02228 3.018101,-0.110802 -0.168012,-0.222209 -5.645419,-7.120305 -5.768908,-7.264831 -0.115019,-0.13489 0.133084,-0.46489 2.611019,-3.457779 1.507083,-1.820223 2.794166,-3.3793344 2.860005,-3.4642031 0.113212,-0.1469346 -0.04256,-0.1553653 -2.978035,-0.1553653 z m -12.0863707,0 c 0,0 5.2378547,6.9227854 5.1318697,6.8993404 0.01204,0.03372 -1.200769,1.59701 -2.6953247,3.474641 -1.494638,1.877069 -2.835998,3.563204 -2.979239,3.745627 l -0.259906,0.333212 h 6.2120397 l 1.453046,-1.821667 c 1.008067,-1.263958 1.428396,-1.853543 1.372352,-1.928215 -0.04457,-0.05841 -0.736463,-0.933958 -1.538557,-1.943872 L 12.406385,15.697099 13.932737,13.856 c 0.840017,-1.012323 1.518726,-1.847522 1.509091,-1.857157 z"
     id="path8"
     inkscape:connector-curvature="0" />
</svg>
