<?xml version="1.0" encoding="UTF-8" standalone="no"?>
<svg
   xmlns:dc="http://purl.org/dc/elements/1.1/"
   xmlns:cc="http://creativecommons.org/ns#"
   xmlns:rdf="http://www.w3.org/1999/02/22-rdf-syntax-ns#"
   xmlns:svg="http://www.w3.org/2000/svg"
   xmlns="http://www.w3.org/2000/svg"
   xmlns:sodipodi="http://sodipodi.sourceforge.net/DTD/sodipodi-0.dtd"
   xmlns:inkscape="http://www.inkscape.org/namespaces/inkscape"
   height="32"
   viewBox="0 0 32 32"
   width="32"
   version="1.1"
   id="svg34"
   sodipodi:docname="mate-panel-force-quit.svg"
   inkscape:version="0.92.1 r">
  <metadata
     id="metadata40">
    <rdf:RDF>
      <cc:Work
         rdf:about="">
        <dc:format>image/svg+xml</dc:format>
        <dc:type
           rdf:resource="http://purl.org/dc/dcmitype/StillImage" />
      </cc:Work>
    </rdf:RDF>
  </metadata>
  <defs
     id="defs38" />
  <sodipodi:namedview
     pagecolor="#ffffff"
     bordercolor="#666666"
     borderopacity="1"
     objecttolerance="10"
     gridtolerance="10"
     guidetolerance="10"
     inkscape:pageopacity="0"
     inkscape:pageshadow="2"
     inkscape:window-width="1680"
     inkscape:window-height="963"
     id="namedview36"
     showgrid="false"
     inkscape:zoom="7.375"
     inkscape:cx="-8.6779661"
     inkscape:cy="16"
     inkscape:window-x="0"
     inkscape:window-y="0"
     inkscape:window-maximized="1"
     inkscape:current-layer="svg34" />
  <g
     transform="translate(.51515 -1020.9)"
     id="g18">
    <g
       id="g16" />
  </g>
  <rect
     style="opacity:1;fill:#4f4f4f;fill-opacity:1;fill-rule:evenodd;stroke:none;stroke-width:1.03534329;stroke-linecap:round;stroke-linejoin:bevel;stroke-miterlimit:4;stroke-dasharray:none;stroke-dashoffset:0;stroke-opacity:1"
     id="rect4497-3"
     width="28.203388"
     height="28.203388"
     x="1.8983059"
     y="1.8983059"
     ry="5.575182" />
  <g
     transform="translate(-0.01048289,-1020.3033)"
     id="g24">
    <g
       id="g22">
      <path
         style="fill:#ffffff"
         d="M 9.5,6.90625 A 1.50015,1.50015 0 0 0 8.453125,9.4824219 l 5.941406,5.9394531 -5.9394529,5.939453 a 1.50015,1.50015 0 1 0 2.1210939,2.121094 l 5.939453,-5.939453 5.9375,5.939453 a 1.5005327,1.5005327 0 1 0 2.123047,-2.121094 L 18.636719,15.421875 24.576172,9.4824219 A 1.50015,1.50015 0 0 0 23.486328,6.90625 1.50015,1.50015 0 0 0 22.455078,7.3613281 L 16.515625,13.300781 10.576172,7.3613281 A 1.50015,1.50015 0 0 0 9.5,6.90625 Z"
         transform="translate(-0.50234,1020.8787)"
         id="path20"
         inkscape:connector-curvature="0" />
    </g>
  </g>
</svg>
