<?xml version="1.0" encoding="UTF-8" standalone="no"?>
<svg
   xmlns:dc="http://purl.org/dc/elements/1.1/"
   xmlns:cc="http://creativecommons.org/ns#"
   xmlns:rdf="http://www.w3.org/1999/02/22-rdf-syntax-ns#"
   xmlns:svg="http://www.w3.org/2000/svg"
   xmlns="http://www.w3.org/2000/svg"
   xmlns:sodipodi="http://sodipodi.sourceforge.net/DTD/sodipodi-0.dtd"
   xmlns:inkscape="http://www.inkscape.org/namespaces/inkscape"
   height="32"
   width="32"
   version="1.1"
   viewBox="0 0 32 32"
   id="svg8"
   sodipodi:docname="yacreader.svg"
   inkscape:version="0.92.2 2405546, 2018-03-11">
  <metadata
     id="metadata14">
    <rdf:RDF>
      <cc:Work
         rdf:about="">
        <dc:format>image/svg+xml</dc:format>
        <dc:type
           rdf:resource="http://purl.org/dc/dcmitype/StillImage" />
        <dc:title></dc:title>
      </cc:Work>
    </rdf:RDF>
  </metadata>
  <defs
     id="defs12" />
  <sodipodi:namedview
     pagecolor="#ffffff"
     bordercolor="#666666"
     borderopacity="1"
     objecttolerance="10"
     gridtolerance="10"
     guidetolerance="10"
     inkscape:pageopacity="0"
     inkscape:pageshadow="2"
     inkscape:window-width="1680"
     inkscape:window-height="972"
     id="namedview10"
     showgrid="false"
     inkscape:zoom="8.9375"
     inkscape:cx="-5.2587413"
     inkscape:cy="16"
     inkscape:current-layer="svg8"
     inkscape:window-x="0"
     inkscape:window-y="0"
     inkscape:window-maximized="1" />
  <path
     id="path2-3"
     d="M 7.5331197,2 H 24.46688 C 27.521301,2 30,4.4786993 30,7.5331199 V 24.466881 C 30,27.521302 27.521301,30 24.46688,30 H 7.5331197 C 4.478699,30 2.0000001,27.521302 2.0000001,24.466881 V 7.5331199 C 2.0000001,4.4786993 4.478699,2 7.5331197,2 Z m 0,0"
     style="fill:#ffc933;fill-opacity:1;fill-rule:evenodd;stroke:none;stroke-width:0.88254124"
     inkscape:connector-curvature="0" />
  <path
     style="fill:#f9f9f9;stroke-width:0.66190594"
     d="m 13.389005,24.84649 c -0.03141,-0.05072 0.239511,-0.487395 0.602056,-0.970408 0.928637,-1.237208 1.432824,-2.011966 1.019896,-2.490551 -0.169497,-0.196449 -0.400959,-0.421237 -1.782637,-0.421237 -2.991357,0 -4.2172127,-0.579832 -5.1450857,-1.584127 -1.276115,-1.381219 -1.7003252,-4.193594 -1.0445915,-6.537944 0.7691717,-2.749925 3.7107052,-4.7843296 8.0871102,-5.5931655 2.851993,-0.3733374 6.261706,-0.3494486 8.390542,1.7044794 1.887025,1.8826621 2.305018,5.3628241 0.976337,8.1288711 -0.869358,1.809827 -2.45202,3.374191 -4.425587,3.898631 -0.692356,0.183983 -0.779486,0.2484 -1.837096,1.358221 -1.129883,1.185662 -2.648104,1.914351 -3.704237,2.366015 -0.566079,0.242087 -1.037911,0.300704 -1.136707,0.141215 z"
     id="path4"
     inkscape:connector-curvature="0" />
</svg>
