<?xml version="1.0" encoding="UTF-8" standalone="no"?>
<svg
   xmlns:dc="http://purl.org/dc/elements/1.1/"
   xmlns:cc="http://creativecommons.org/ns#"
   xmlns:rdf="http://www.w3.org/1999/02/22-rdf-syntax-ns#"
   xmlns:svg="http://www.w3.org/2000/svg"
   xmlns="http://www.w3.org/2000/svg"
   xmlns:sodipodi="http://sodipodi.sourceforge.net/DTD/sodipodi-0.dtd"
   xmlns:inkscape="http://www.inkscape.org/namespaces/inkscape"
   height="32"
   width="32"
   version="1"
   id="svg12"
   sodipodi:docname="deja-dup.svg"
   inkscape:version="0.92.1 r">
  <metadata
     id="metadata18">
    <rdf:RDF>
      <cc:Work
         rdf:about="">
        <dc:format>image/svg+xml</dc:format>
        <dc:type
           rdf:resource="http://purl.org/dc/dcmitype/StillImage" />
      </cc:Work>
    </rdf:RDF>
  </metadata>
  <defs
     id="defs16" />
  <sodipodi:namedview
     pagecolor="#ffffff"
     bordercolor="#666666"
     borderopacity="1"
     objecttolerance="10"
     gridtolerance="10"
     guidetolerance="10"
     inkscape:pageopacity="0"
     inkscape:pageshadow="2"
     inkscape:window-width="1680"
     inkscape:window-height="955"
     id="namedview14"
     showgrid="false"
     inkscape:zoom="7.375"
     inkscape:cx="-37.423728"
     inkscape:cy="16"
     inkscape:window-x="0"
     inkscape:window-y="0"
     inkscape:window-maximized="1"
     inkscape:current-layer="svg12" />
  <rect
     style="opacity:1;fill:#5db43e;fill-opacity:1;fill-rule:evenodd;stroke:none;stroke-width:1.03534329;stroke-linecap:round;stroke-linejoin:bevel;stroke-miterlimit:4;stroke-dasharray:none;stroke-dashoffset:0;stroke-opacity:1"
     id="rect4497"
     width="28.203388"
     height="28.203388"
     x="1.8983059"
     y="1.8983059"
     ry="5.575182" />
  <path
     style="fill:#ffffff;stroke-width:1.04961574;enable-background:new"
     d="m 16.01715,7.186671 c 1.7532,0.00408 3.531,0.5820576 4.9196,1.7261329 0.97624,1.1896091 -0.88389,2.4636071 -1.7217,1.3036341 -2.522,-1.6142014 -6.0788,-1.0458819 -7.9763,1.367532 -1.0095,1.19765 -1.5784,2.795766 -1.5717,4.400162 h 1.6667 c -0.8892,1.410168 -1.778,2.820335 -2.6669,4.230502 l -2.6667,-4.230502 h 1.6667 c -0.05301,-3.830807 2.5514,-7.4744376 6.048,-8.4666225 0.7502,-0.2174963 1.5231,-0.3393215 2.302,-0.3307834 z m 7.3167,4.583815 c 0.888,1.410168 1.777,2.821437 2.666,4.231604 h -1.6667 c 0.04725,3.876528 -2.6237,7.561361 -6.1816,8.501105 -2.4008,0.709171 -5.1155,0.191695 -7.0886,-1.430879 -1.0067,-1.209439 0.87926,-2.471208 1.7248,-1.300659 2.4435,1.56826 5.8653,1.070824 7.7941,-1.169007 1.117,-1.21737 1.7598,-2.903842 1.7513,-4.60067 h -1.6667 l 2.6667,-4.231163 z"
     id="path10"
     inkscape:connector-curvature="0" />
</svg>
