<?xml version="1.0" encoding="UTF-8" standalone="no"?>
<svg
   xmlns:dc="http://purl.org/dc/elements/1.1/"
   xmlns:cc="http://creativecommons.org/ns#"
   xmlns:rdf="http://www.w3.org/1999/02/22-rdf-syntax-ns#"
   xmlns:svg="http://www.w3.org/2000/svg"
   xmlns="http://www.w3.org/2000/svg"
   xmlns:sodipodi="http://sodipodi.sourceforge.net/DTD/sodipodi-0.dtd"
   xmlns:inkscape="http://www.inkscape.org/namespaces/inkscape"
   height="32"
   width="32"
   version="1"
   id="svg28"
   sodipodi:docname="youtrack.svg"
   inkscape:version="0.92.1 r">
  <metadata
     id="metadata34">
    <rdf:RDF>
      <cc:Work
         rdf:about="">
        <dc:format>image/svg+xml</dc:format>
        <dc:type
           rdf:resource="http://purl.org/dc/dcmitype/StillImage" />
      </cc:Work>
    </rdf:RDF>
  </metadata>
  <defs
     id="defs32" />
  <sodipodi:namedview
     pagecolor="#ffffff"
     bordercolor="#666666"
     borderopacity="1"
     objecttolerance="10"
     gridtolerance="10"
     guidetolerance="10"
     inkscape:pageopacity="0"
     inkscape:pageshadow="2"
     inkscape:window-width="640"
     inkscape:window-height="480"
     id="namedview30"
     showgrid="false"
     inkscape:zoom="9.5"
     inkscape:cx="4.5263158"
     inkscape:cy="30.421053"
     inkscape:current-layer="svg28" />
  <path
     style="fill:#2086e7;fill-opacity:1;stroke-width:0.69999999"
     d="m 30.000001,6.9687497 c -0.05413,-0.578542 -0.119792,-1.157197 -0.335937,-1.669922 -0.281373,-0.667454 -0.689503,-1.267628 -1.19336,-1.771485 -0.503857,-0.503857 -1.10403,-0.911987 -1.771484,-1.193359 -0.511546,-0.215648 -1.088925,-0.279572 -1.666016,-0.333984 H 16 V 16 h 14.000001 z"
     id="path6-2"
     inkscape:connector-curvature="0" />
  <path
     style="fill:#cf4f8c;fill-opacity:1;stroke-width:0.69999999"
     d="m 6.964844,1.9999997 c -0.57709,0.05441 -1.15447,0.118337 -1.666016,0.333985 -0.667454,0.281372 -1.267627,0.689502 -1.771483,1.193359 -0.503857,0.503857 -0.911987,1.104031 -1.193359,1.771485 -0.215648,0.511545 -0.279573,1.088925 -0.333985,1.666015 V 16 H 16 V 1.9999997 Z"
     id="path4-8"
     inkscape:connector-curvature="0" />
  <path
     style="fill:#6655e4;fill-opacity:1;stroke-width:0.69999999"
     d="m 25.035157,30 c 0.577089,-0.05441 1.154471,-0.118337 1.666017,-0.333985 0.667454,-0.281372 1.267627,-0.689502 1.771483,-1.193359 0.503857,-0.503857 0.911987,-1.104031 1.193359,-1.771485 0.215647,-0.511545 0.279573,-1.088925 0.333985,-1.666015 V 16 h -14 v 14 z"
     id="path4-8-7"
     inkscape:connector-curvature="0" />
  <path
     style="fill:#2086e7;fill-opacity:1;stroke-width:0.69999999"
     d="m 2,25.03125 c 0.05413,0.578542 0.119792,1.157197 0.335937,1.669922 0.281373,0.667454 0.689503,1.267628 1.19336,1.771485 0.503857,0.503857 1.10403,0.911987 1.771484,1.193359 C 5.812327,29.881664 6.389707,29.945588 6.966798,30 h 9.033203 V 16 H 2 Z"
     id="path6-2-8"
     inkscape:connector-curvature="0" />
  <rect
     style="opacity:1;fill:#3f3f3f;fill-opacity:1;fill-rule:evenodd;stroke:none;stroke-width:0.78646272;stroke-linecap:round;stroke-linejoin:bevel;stroke-miterlimit:4;stroke-dasharray:none;stroke-dashoffset:0;stroke-opacity:1"
     id="rect4497-3-361"
     width="21.423727"
     height="21.423727"
     x="5.2881341"
     y="5.288136"
     ry="4.2349939" />
  <g
     id="g4557"
     transform="matrix(0.92478436,0,0,0.92477487,-3.8587499,40.635353)"
     style="stroke-width:1.08133876">
    <path
       inkscape:connector-curvature="0"
       id="path18"
       d="m 14.473927,-19.631579 h 7.999999"
       style="fill:none;stroke:#ffffff;stroke-width:2.16267753;stroke-linecap:round;stroke-opacity:1" />
    <path
       inkscape:connector-curvature="0"
       id="path22"
       d="m 17.473926,-25.631721 v -4.000002 m 3,-3.999999 -3,3.999999 m -2.999999,-3.999999 2.999999,3.999999"
       style="opacity:1;fill:none;stroke:#ffffff;stroke-width:2.16267729;stroke-linecap:round;stroke-opacity:1" />
    <path
       inkscape:connector-curvature="0"
       id="path26"
       style="opacity:1;fill:none;stroke:#ffffff;stroke-width:2.16267729;stroke-linecap:round;stroke-opacity:1"
       d="m 24.473924,-33.631723 h 3.999999 m -1.999997,8.000002 v -8.000002" />
  </g>
</svg>
