<?xml version="1.0" encoding="UTF-8" standalone="no"?>
<svg
   xmlns:dc="http://purl.org/dc/elements/1.1/"
   xmlns:cc="http://creativecommons.org/ns#"
   xmlns:rdf="http://www.w3.org/1999/02/22-rdf-syntax-ns#"
   xmlns:svg="http://www.w3.org/2000/svg"
   xmlns="http://www.w3.org/2000/svg"
   xmlns:sodipodi="http://sodipodi.sourceforge.net/DTD/sodipodi-0.dtd"
   xmlns:inkscape="http://www.inkscape.org/namespaces/inkscape"
   height="32"
   width="32"
   version="1.1"
   viewBox="0 0 32 32"
   id="svg22"
   sodipodi:docname="yubikey-personalization-gui.svg"
   inkscape:version="0.92.1 r">
  <metadata
     id="metadata28">
    <rdf:RDF>
      <cc:Work
         rdf:about="">
        <dc:format>image/svg+xml</dc:format>
        <dc:type
           rdf:resource="http://purl.org/dc/dcmitype/StillImage" />
      </cc:Work>
    </rdf:RDF>
  </metadata>
  <defs
     id="defs26" />
  <sodipodi:namedview
     pagecolor="#ffffff"
     bordercolor="#666666"
     borderopacity="1"
     objecttolerance="10"
     gridtolerance="10"
     guidetolerance="10"
     inkscape:pageopacity="0"
     inkscape:pageshadow="2"
     inkscape:window-width="640"
     inkscape:window-height="480"
     id="namedview24"
     showgrid="false"
     inkscape:zoom="9.5"
     inkscape:cx="-4.1052632"
     inkscape:cy="16"
     inkscape:current-layer="svg22" />
  <rect
     style="opacity:1;fill:#9aca3c;fill-opacity:1;fill-rule:evenodd;stroke:none;stroke-width:1.03534329;stroke-linecap:round;stroke-linejoin:bevel;stroke-miterlimit:4;stroke-dasharray:none;stroke-dashoffset:0;stroke-opacity:1"
     id="rect4497-6"
     width="28.203388"
     height="28.203388"
     x="1.8983059"
     y="1.8983059"
     ry="5.575182" />
  <g
     id="g4518"
     transform="translate(-0.99984108)">
    <path
       id="path10-3"
       d="m 12.5,22.5 10,-13"
       style="fill:none;stroke:#ffffff;stroke-width:3;stroke-linecap:round;stroke-linejoin:round"
       inkscape:connector-curvature="0" />
    <path
       id="path12-6"
       d="m 11.5,9.5 5.2,6.50002"
       style="fill:none;stroke:#ffffff;stroke-width:3;stroke-linecap:round;stroke-linejoin:round"
       inkscape:connector-curvature="0" />
  </g>
  <g
     id="g4525"
     transform="matrix(0.75,0,0,0.75,4.1052631,4.75)"
     style="stroke-width:1.33333337">
    <circle
       id="circle18"
       cy="23"
       r="8"
       cx="24"
       style="fill:#d939a1;stroke-width:1.33333337" />
    <path
       id="path20"
       d="m 22.96439,19.00006 -0.0882,1.0536 a 3.1429,3.1429 0 0 0 -0.91852,0.53126 l -0.95759,-0.4509 -1,1.7321 0.86941,0.6038 a 3.1429,3.1429 0 0 0 -0.048,0.53013 3.1429,3.1429 0 0 0 0.0457,0.53237 L 20,24.13398 l 1,1.7321 0.95536,-0.44978 a 3.1429,3.1429 0 0 0 0.92075,0.5279 L 22.96431,27 h 2 l 0.0882,-1.0536 a 3.1429,3.1429 0 0 0 0.91854,-0.53126 l 0.95758,0.4509 1,-1.7321 -0.86942,-0.6038 a 3.1429,3.1429 0 0 0 0.048,-0.53013 3.1429,3.1429 0 0 0 -0.0457,-0.53237 l 0.86719,-0.60156 -1,-1.7321 -0.95536,0.44978 a 3.1429,3.1429 0 0 0 -0.921,-0.528 l -0.088,-1.056 h -2 z m 1,2.8572 a 1.1429,1.1429 0 0 1 1.143,1.143 1.1429,1.1429 0 0 1 -1.143,1.143 1.1429,1.1429 0 0 1 -1.143,-1.143 1.1429,1.1429 0 0 1 1.143,-1.143 z"
       style="fill:#ffffff;stroke-width:1.33333337"
       inkscape:connector-curvature="0" />
  </g>
</svg>
