<?xml version="1.0" encoding="UTF-8" standalone="no"?>
<svg
   xmlns:dc="http://purl.org/dc/elements/1.1/"
   xmlns:cc="http://creativecommons.org/ns#"
   xmlns:rdf="http://www.w3.org/1999/02/22-rdf-syntax-ns#"
   xmlns:svg="http://www.w3.org/2000/svg"
   xmlns="http://www.w3.org/2000/svg"
   xmlns:sodipodi="http://sodipodi.sourceforge.net/DTD/sodipodi-0.dtd"
   xmlns:inkscape="http://www.inkscape.org/namespaces/inkscape"
   width="32"
   height="32"
   version="1.1"
   viewBox="0 0 32 32"
   id="svg18"
   sodipodi:docname="zandronum.svg"
   inkscape:version="0.92.1 r">
  <metadata
     id="metadata24">
    <rdf:RDF>
      <cc:Work
         rdf:about="">
        <dc:format>image/svg+xml</dc:format>
        <dc:type
           rdf:resource="http://purl.org/dc/dcmitype/StillImage" />
      </cc:Work>
    </rdf:RDF>
  </metadata>
  <defs
     id="defs22" />
  <sodipodi:namedview
     pagecolor="#ffffff"
     bordercolor="#666666"
     borderopacity="1"
     objecttolerance="10"
     gridtolerance="10"
     guidetolerance="10"
     inkscape:pageopacity="0"
     inkscape:pageshadow="2"
     inkscape:window-width="640"
     inkscape:window-height="480"
     id="namedview20"
     showgrid="false"
     inkscape:zoom="9.5"
     inkscape:cx="-24.105263"
     inkscape:cy="16"
     inkscape:current-layer="svg18" />
  <rect
     style="opacity:1;fill:#2caac6;fill-opacity:1;fill-rule:evenodd;stroke:none;stroke-width:1.03534329;stroke-linecap:round;stroke-linejoin:bevel;stroke-miterlimit:4;stroke-dasharray:none;stroke-dashoffset:0;stroke-opacity:1"
     id="rect4497-6"
     width="28.203388"
     height="28.203388"
     x="1.8983059"
     y="1.8983059"
     ry="5.575182" />
  <path
     style="fill:#6e6e6e;stroke-width:1"
     d="M 6.698149,12.03308 V 16 c 0,0.880542 -0.07013,2.396325 0.509705,3.101891 0.964427,1.615941 3.031118,5.112868 3.824296,6.713642 0.258861,0.478782 0.833384,0.605519 1.558382,0.60552 H 16 19.409468 c 0.724998,-1e-6 1.299521,-0.126738 1.558383,-0.60552 0.793178,-1.600774 2.859868,-5.097701 3.824296,-6.713642 C 25.371976,18.396325 25.301851,16.880542 25.301851,16 v -3.96692 c 0,-3.3278172 -4.134156,-6.4541329 -9.301851,-6.4541329 -5.167695,0 -9.301851,3.1263157 -9.301851,6.4541329 z"
     id="path4"
     inkscape:connector-curvature="0" />
  <path
     style="opacity:1;stroke-width:1;fill:#585858;fill-opacity:1"
     d="m 7.997878,15.98219 c -0.602752,0.0042 -1.205662,0.01321 -1.29936,0.02747 v 0.511726 c 0,0.880542 -0.07099,1.874932 0.50884,2.580498 0.964428,1.615941 3.031202,5.112868 3.824381,6.713642 0.258861,0.478785 0.83383,0.605522 1.558828,0.605523 H 16 19.409433 c 0.724999,-1e-6 1.299967,-0.126738 1.558828,-0.60552 0.793179,-1.600774 2.859953,-5.097701 3.824381,-6.713642 0.579829,-0.705566 0.50884,-1.699956 0.50884,-2.580498 v -0.511726 c -0.108402,5e-6 -2.266687,-0.01476 -2.361464,-0.0097 -2.101672,-0.01781 -2.013951,0.732723 -2.878785,2.08455 -0.811472,1.401259 -0.814814,3.149242 -1.220207,4.168081 C 18.270471,20.286226 18.584586,16.372143 16,16.372143 c -2.584586,0 -2.270471,3.914083 -2.841026,5.880451 -0.405393,-1.018839 -0.185427,-2.766822 -0.996899,-4.168081 -0.56177,-0.951763 -1.493527,-2.022098 -2.725849,-2.100326 -0.08309,-0.0053 -0.834191,-0.0063 -1.438348,-0.002 z"
     id="path6"
     inkscape:connector-curvature="0" />
  <path
     style="opacity:1;stroke-width:1;fill:#4b4b4b;fill-opacity:1"
     d="M 12.590567,26.421053 H 16 19.409433 L 18.841026,22.252631 C 18.270471,20.286264 18.584586,16.521053 16,16.521053 c -2.584586,0 -2.270471,3.765211 -2.841026,5.731578 z"
     id="path8"
     inkscape:connector-curvature="0" />
  <path
     style="fill:#7ac4eb;stroke-width:1"
     d="M 8.928571,14.511278 V 16 c 1.54045,-0.241165 2.298564,1.004099 2.936091,2.08421 0.811471,1.401259 0.888919,3.224018 1.294312,4.242858 C 13.729529,20.3607 13.415414,16.744361 16,16.744361 c 2.584586,0 2.270471,3.616339 2.841026,5.582707 0.405393,-1.01884 0.48284,-2.841599 1.294312,-4.242858 C 21.05828,16.641556 21.431299,16 23.071429,16 V 14.511278 H 16 Z"
     id="path12"
     inkscape:connector-curvature="0" />
</svg>
