<?xml version="1.0" encoding="UTF-8" standalone="no"?>
<svg
   xmlns:dc="http://purl.org/dc/elements/1.1/"
   xmlns:cc="http://creativecommons.org/ns#"
   xmlns:rdf="http://www.w3.org/1999/02/22-rdf-syntax-ns#"
   xmlns:svg="http://www.w3.org/2000/svg"
   xmlns="http://www.w3.org/2000/svg"
   xmlns:xlink="http://www.w3.org/1999/xlink"
   xmlns:sodipodi="http://sodipodi.sourceforge.net/DTD/sodipodi-0.dtd"
   xmlns:inkscape="http://www.inkscape.org/namespaces/inkscape"
   width="32"
   height="32"
   version="1.1"
   id="svg41"
   sodipodi:docname="application-x-wmf.svg"
   inkscape:version="0.92.1 r">
  <metadata
     id="metadata45">
    <rdf:RDF>
      <cc:Work
         rdf:about="">
        <dc:format>image/svg+xml</dc:format>
        <dc:type
           rdf:resource="http://purl.org/dc/dcmitype/StillImage" />
      </cc:Work>
    </rdf:RDF>
  </metadata>
  <sodipodi:namedview
     pagecolor="#ffffff"
     bordercolor="#666666"
     borderopacity="1"
     objecttolerance="10"
     gridtolerance="10"
     guidetolerance="10"
     inkscape:pageopacity="0"
     inkscape:pageshadow="2"
     inkscape:window-width="640"
     inkscape:window-height="480"
     id="namedview43"
     showgrid="false"
     inkscape:zoom="8.375"
     inkscape:cx="-6.8059701"
     inkscape:cy="16"
     inkscape:current-layer="svg41" />
  <defs
     id="defs13">
    <linearGradient
       id="a"
       y1="17"
       y2="24"
       x1="47"
       x2="54"
       gradientUnits="userSpaceOnUse"
       gradientTransform="translate(-69.86567,-5.13433)">
      <stop
         stop-color="#060606"
         id="stop2" />
      <stop
         offset="1"
         stop-opacity="0"
         id="stop4" />
    </linearGradient>
    <linearGradient
       id="b"
       y1="392.36"
       y2="365.36"
       x2="0"
       gradientUnits="userSpaceOnUse"
       gradientTransform="translate(309.57,152.44)">
      <stop
         stop-color="#ffffff"
         stop-opacity="0"
         id="stop7" />
      <stop
         offset="1"
         stop-color="#ffffff"
         stop-opacity=".2"
         id="stop9" />
    </linearGradient>
    <path
       id="c"
       d="m389.57 545.8v-28h15l7 7v21h-14z" />
  </defs>
  <use
     height="100%"
     width="100%"
     y="0"
     x="0"
     style="fill:url(#b)"
     id="use37"
     xlink:href="#c"
     transform="translate(-367.572,-516.802)" />
  <g
     id="g4555"
     transform="translate(40.716418,0.11940299)">
    <g
       style="fill:#4ac5e0;fill-opacity:1"
       id="g4518"
       transform="translate(-40.716418,-0.11940294)">
      <path
         style="opacity:1;fill:#4ac5e0;fill-opacity:1;fill-rule:evenodd;stroke:none;stroke-width:1.02788651;stroke-linecap:round;stroke-linejoin:bevel;stroke-miterlimit:4;stroke-dasharray:none;stroke-dashoffset:0;stroke-opacity:1"
         d="M 21.186981,1.9999999 H 7.536011 C 4.469605,1.9999999 2,4.4676662 2,7.534072 V 24.463989 C 2,27.530395 4.469605,30 7.536011,30 H 24.465928 C 27.532334,30 30,27.530395 30,24.463989 v -13.65097 z"
         id="path4508"
         inkscape:connector-curvature="0" />
    </g>
    <path
       inkscape:connector-curvature="0"
       id="rect4497-3"
       d="m -10.716418,10.693616 -8.813019,-8.8130188 v 3.2789473 c 0,3.0664059 2.467666,5.5340715 5.534072,5.5340715 z"
       style="opacity:1;fill:#abe4f1;fill-opacity:1;fill-rule:evenodd;stroke:none;stroke-width:1.02788651;stroke-linecap:round;stroke-linejoin:bevel;stroke-miterlimit:4;stroke-dasharray:none;stroke-dashoffset:0;stroke-opacity:1" />
  </g>
  <path
     style="color:#4d4d4d;opacity:0.9;color-interpolation:sRGB;color-interpolation-filters:linearRGB;fill:#abe4f1;fill-opacity:1;fill-rule:evenodd;color-rendering:auto;image-rendering:auto;shape-rendering:auto;text-rendering:auto"
     inkscape:connector-curvature="0"
     id="path29"
     d="m 12,10.956344 v 3 h 1 v 1.65 a 1.500006,1.500006 0 0 0 -1,1.41211 1.500006,1.500006 0 0 0 1,1.41211 v 1.525 h -1 v 3 h 3 v -1.809 a 6.999994,6 0 0 0 5,1.80859 v -1 A 5.999996,5.00001 0 0 1 14.23047,18.324294 1.500006,1.500006 0 0 0 15,17.017654 1.500006,1.500006 0 0 0 14.20117,15.695384 5.999996,5.00001 0 0 1 20,11.955154 v -1 a 6.999994,6 0 0 0 -5,1.80273 v -1.803 z m 1,1 h 1 v 1 h -1 z m 0,9 h 1 v 1 h -1 z" />
</svg>
