<?xml version="1.0" encoding="UTF-8" standalone="no"?>
<svg
   xmlns:dc="http://purl.org/dc/elements/1.1/"
   xmlns:cc="http://creativecommons.org/ns#"
   xmlns:rdf="http://www.w3.org/1999/02/22-rdf-syntax-ns#"
   xmlns:svg="http://www.w3.org/2000/svg"
   xmlns="http://www.w3.org/2000/svg"
   xmlns:sodipodi="http://sodipodi.sourceforge.net/DTD/sodipodi-0.dtd"
   xmlns:inkscape="http://www.inkscape.org/namespaces/inkscape"
   width="32"
   height="32"
   version="1.1"
   id="svg37"
   sodipodi:docname="application-x-kexi-connectiondata.svg"
   inkscape:version="0.92.1 r">
  <metadata
     id="metadata41">
    <rdf:RDF>
      <cc:Work
         rdf:about="">
        <dc:format>image/svg+xml</dc:format>
        <dc:type
           rdf:resource="http://purl.org/dc/dcmitype/StillImage" />
      </cc:Work>
    </rdf:RDF>
  </metadata>
  <sodipodi:namedview
     pagecolor="#ffffff"
     bordercolor="#666666"
     borderopacity="1"
     objecttolerance="10"
     gridtolerance="10"
     guidetolerance="10"
     inkscape:pageopacity="0"
     inkscape:pageshadow="2"
     inkscape:window-width="640"
     inkscape:window-height="480"
     id="namedview39"
     showgrid="false"
     inkscape:zoom="8.375"
     inkscape:cx="-6.6865672"
     inkscape:cy="16"
     inkscape:current-layer="svg37" />
  <defs
     id="defs17">
    <linearGradient
       id="a"
       y1="61"
       y2="3"
       x2="0"
       gradientUnits="userSpaceOnUse"
       gradientTransform="matrix(0.5,0,0,-0.48276,0,31.45)">
      <stop
         stop-color="#8e44ad"
         id="stop2" />
      <stop
         offset="1"
         stop-color="#9b59b6"
         id="stop4" />
    </linearGradient>
    <linearGradient
       id="b"
       y1="518.04"
       y2="524.8"
       x2="0"
       gradientUnits="userSpaceOnUse">
      <stop
         stop-color="#d3bdd7"
         id="stop7" />
      <stop
         offset="1"
         stop-color="#e8d9eb"
         id="stop9" />
    </linearGradient>
    <linearGradient
       id="c"
       y1="524.8"
       x1="404.57"
       y2="531.8"
       x2="411.57"
       gradientUnits="userSpaceOnUse">
      <stop
         stop-color="#383e51"
         id="stop12" />
      <stop
         offset="1"
         stop-color="#655c6f"
         stop-opacity="0"
         id="stop14" />
    </linearGradient>
  </defs>
  <g
     id="g4565"
     transform="translate(48.23881,-1.07463)">
    <path
       inkscape:connector-curvature="0"
       id="path4508"
       d="M -27.05183,3.07463 H -40.7028 c -3.0664,0 -5.53601,2.46767 -5.53601,5.53407 v 16.92992 c 0,3.0664 2.46961,5.53601 5.53601,5.53601 h 16.92992 c 3.0664,0 5.53407,-2.46961 5.53407,-5.53601 V 11.88765 Z"
       style="opacity:1;fill:#9148af;fill-opacity:1;fill-rule:evenodd;stroke:none;stroke-width:1.02788651;stroke-linecap:round;stroke-linejoin:bevel;stroke-miterlimit:4;stroke-dasharray:none;stroke-dashoffset:0;stroke-opacity:1" />
    <path
       inkscape:connector-curvature="0"
       id="rect4497-3"
       d="m -18.23881,11.88765 -8.81302,-8.81302 v 3.27895 c 0,3.0664 2.46767,5.53407 5.53407,5.53407 z"
       style="opacity:1;fill:#e2d1e5;fill-opacity:1;fill-rule:evenodd;stroke:none;stroke-width:1.02788651;stroke-linecap:round;stroke-linejoin:bevel;stroke-miterlimit:4;stroke-dasharray:none;stroke-dashoffset:0;stroke-opacity:1" />
  </g>
  <path
     style="fill:#e8d9eb"
     inkscape:connector-curvature="0"
     id="path33-3"
     d="m 16,10.955374 a 6,2 0 0 0 -6,2 v 4 a 6,2 0 0 0 5,1.9707 v 2.029 h -2 v -1 h -3 v 3 h 3 v -1 h 6 v 1 h 3 v -3 h -3 v 1 h -2 v -2.029 a 6,2 0 0 0 5,-1.9707 v -4 a 6,2 0 0 0 -6,-2 m 0,1 a 5,1 0 0 1 5,1 5,1 0 0 1 -5,1 5,1 0 0 1 -5,-1 5,1 0 0 1 5,-1 m -5,2.10156 a 6,2 0 0 0 5,0.89844 6,2 0 0 0 5,-0.89648 v 2.896 a 5,1 0 0 1 -5,1 5,1 0 0 1 -5,-1 v -1.104 z m 0,6.898 h 1 v 1 h -1 z m 9,0 h 1 v 1 h -1 z" />
</svg>
