<?xml version="1.0" encoding="UTF-8" standalone="no"?>
<svg
   xmlns:dc="http://purl.org/dc/elements/1.1/"
   xmlns:cc="http://creativecommons.org/ns#"
   xmlns:rdf="http://www.w3.org/1999/02/22-rdf-syntax-ns#"
   xmlns:svg="http://www.w3.org/2000/svg"
   xmlns="http://www.w3.org/2000/svg"
   xmlns:sodipodi="http://sodipodi.sourceforge.net/DTD/sodipodi-0.dtd"
   xmlns:inkscape="http://www.inkscape.org/namespaces/inkscape"
   width="32"
   height="32"
   version="1.1"
   id="svg35"
   sodipodi:docname="application-vnd.visio.svg"
   inkscape:version="0.92.1 r">
  <metadata
     id="metadata39">
    <rdf:RDF>
      <cc:Work
         rdf:about="">
        <dc:format>image/svg+xml</dc:format>
        <dc:type
           rdf:resource="http://purl.org/dc/dcmitype/StillImage" />
      </cc:Work>
    </rdf:RDF>
  </metadata>
  <sodipodi:namedview
     pagecolor="#ffffff"
     bordercolor="#666666"
     borderopacity="1"
     objecttolerance="10"
     gridtolerance="10"
     guidetolerance="10"
     inkscape:pageopacity="0"
     inkscape:pageshadow="2"
     inkscape:window-width="640"
     inkscape:window-height="480"
     id="namedview37"
     showgrid="false"
     inkscape:zoom="8.375"
     inkscape:cx="-29.373134"
     inkscape:cy="16"
     inkscape:current-layer="svg35" />
  <defs
     id="defs13">
    <linearGradient
       id="a"
       y1="524.8"
       x1="404.57"
       y2="531.8"
       x2="411.57"
       gradientUnits="userSpaceOnUse">
      <stop
         stop-color="#383e51"
         id="stop2" />
      <stop
         offset="1"
         stop-color="#655c6f"
         stop-opacity="0"
         id="stop4" />
    </linearGradient>
    <linearGradient
       id="b"
       y1="3"
       y2="61"
       x2="0"
       gradientUnits="userSpaceOnUse"
       gradientTransform="matrix(0.5,0,0,-0.48276,384.57,547.25)">
      <stop
         stop-color="#ffffff"
         stop-opacity="0"
         id="stop7" />
      <stop
         offset="1"
         stop-color="#ffffff"
         stop-opacity=".2"
         id="stop9" />
    </linearGradient>
    <path
       id="c"
       d="m389.57 545.8v-28h15l7 7v21h-7z" />
  </defs>
  <g
     id="g4539"
     transform="translate(44.895522,3.1044778)">
    <path
       inkscape:connector-curvature="0"
       id="path4508"
       d="m -23.708541,-1.1044776 h -13.65097 c -3.066406,0 -5.536011,2.4676663 -5.536011,5.5340721 V 21.359511 c 0,3.066406 2.469605,5.536011 5.536011,5.536011 h 16.929917 c 3.066406,0 5.534072,-2.469605 5.534072,-5.536011 V 7.7085415 Z"
       style="opacity:1;fill:#576cac;fill-opacity:1;fill-rule:evenodd;stroke:none;stroke-width:1.02788651;stroke-linecap:round;stroke-linejoin:bevel;stroke-miterlimit:4;stroke-dasharray:none;stroke-dashoffset:0;stroke-opacity:1" />
    <path
       inkscape:connector-curvature="0"
       id="rect4497-3"
       d="m -14.895522,7.7085415 -8.813019,-8.813019 v 3.2789473 c 0,3.0664056 2.467666,5.5340717 5.534072,5.5340717 z"
       style="opacity:1;fill:#afb9d7;fill-opacity:1;fill-rule:evenodd;stroke:none;stroke-width:1.02788651;stroke-linecap:round;stroke-linejoin:bevel;stroke-miterlimit:4;stroke-dasharray:none;stroke-dashoffset:0;stroke-opacity:1" />
  </g>
  <path
     style="opacity:1;fill:#9eaacf;fill-opacity:1;stroke-width:1.00000012"
     inkscape:connector-curvature="0"
     id="path29"
     d="m 20.675267,9.831222 -2.05404,2.05404 h -6.293903 a 1.9007157,1.9007157 0 0 0 -1.789347,-1.267144 1.9007157,1.9007157 0 0 0 -1.9007153,1.900716 1.9007157,1.9007157 0 0 0 1.2671438,1.789346 v 8.981516 h 3.8014315 v 1.267143 h 3.801431 V 23.289696 H 21.3087 v -8.716683 l 2.05404,-2.05404 z m 0,1.791741 0.895871,0.895871 -0.895871,0.895871 -0.895871,-0.895871 z M 10.538117,11.8853 a 0.6335719,0.6335719 0 0 1 0.633572,0.633572 0.6335719,0.6335719 0 0 1 -0.633572,0.633572 A 0.6335719,0.6335719 0 0 1 9.9045448,12.518872 0.6335719,0.6335719 0 0 1 10.538117,11.8853 m 1.789207,1.267144 h 6.293903 l 1.420468,1.420468 v 7.449538 h -2.534287 v -1.267143 h -3.801432 v 1.267143 h -2.534287 v -7.714371 a 1.9007157,1.9007157 0 0 0 1.155774,-1.155775 m 2.645796,8.870007 h 1.267144 v 1.267144 h -1.267144 z" />
</svg>
