<?xml version="1.0" encoding="UTF-8" standalone="no"?>
<svg
   xmlns:dc="http://purl.org/dc/elements/1.1/"
   xmlns:cc="http://creativecommons.org/ns#"
   xmlns:rdf="http://www.w3.org/1999/02/22-rdf-syntax-ns#"
   xmlns:svg="http://www.w3.org/2000/svg"
   xmlns="http://www.w3.org/2000/svg"
   xmlns:sodipodi="http://sodipodi.sourceforge.net/DTD/sodipodi-0.dtd"
   xmlns:inkscape="http://www.inkscape.org/namespaces/inkscape"
   width="32"
   height="32"
   version="1.1"
   id="svg37"
   sodipodi:docname="application-dicom.svg"
   inkscape:version="0.92.1 r">
  <metadata
     id="metadata41">
    <rdf:RDF>
      <cc:Work
         rdf:about="">
        <dc:format>image/svg+xml</dc:format>
        <dc:type
           rdf:resource="http://purl.org/dc/dcmitype/StillImage" />
        <dc:title></dc:title>
      </cc:Work>
    </rdf:RDF>
  </metadata>
  <sodipodi:namedview
     pagecolor="#ffffff"
     bordercolor="#666666"
     borderopacity="1"
     objecttolerance="10"
     gridtolerance="10"
     guidetolerance="10"
     inkscape:pageopacity="0"
     inkscape:pageshadow="2"
     inkscape:window-width="640"
     inkscape:window-height="480"
     id="namedview39"
     showgrid="false"
     inkscape:zoom="8.375"
     inkscape:cx="-6.6865672"
     inkscape:cy="16"
     inkscape:current-layer="svg37" />
  <defs
     id="defs17">
    <linearGradient
       id="a"
       y1="61"
       y2="3"
       x2="0"
       gradientUnits="userSpaceOnUse"
       gradientTransform="matrix(0.5,0,0,-0.48276,0,31.45)">
      <stop
         stop-color="#5e6b78"
         id="stop2" />
      <stop
         offset="1"
         stop-color="#768492"
         id="stop4" />
    </linearGradient>
    <linearGradient
       id="b"
       y1="518.04"
       y2="524.8"
       x2="0"
       gradientUnits="userSpaceOnUse">
      <stop
         stop-color="#dedede"
         id="stop7" />
      <stop
         offset="1"
         stop-color="#fbfbfb"
         id="stop9" />
    </linearGradient>
    <linearGradient
       id="c"
       y1="524.8"
       x1="404.57"
       y2="531.8"
       x2="411.57"
       gradientUnits="userSpaceOnUse">
      <stop
         stop-color="#383e51"
         id="stop12" />
      <stop
         offset="1"
         stop-color="#655c6f"
         stop-opacity="0"
         id="stop14" />
    </linearGradient>
  </defs>
  <g
     id="g4560"
     transform="translate(39.641791,10.626866)">
    <g
       style="fill:#607d8b;fill-opacity:1"
       id="g4518"
       transform="translate(-39.641791,-10.626866)">
      <path
         style="opacity:1;fill:#607d8b;fill-opacity:1;fill-rule:evenodd;stroke:none;stroke-width:1.02788651;stroke-linecap:round;stroke-linejoin:bevel;stroke-miterlimit:4;stroke-dasharray:none;stroke-dashoffset:0;stroke-opacity:1"
         d="M 21.186981,1.9999999 H 7.536011 C 4.469605,1.9999999 2,4.4676662 2,7.534072 V 24.463989 C 2,27.530395 4.469605,30 7.536011,30 H 24.465928 C 27.532334,30 30,27.530395 30,24.463989 v -13.65097 z"
         id="path4508"
         inkscape:connector-curvature="0" />
    </g>
    <path
       inkscape:connector-curvature="0"
       id="rect4497-3"
       d="M -9.641791,0.18615338 -18.45481,-8.6268655 v 3.2789473 c 0,3.0664059 2.467666,5.53407158 5.534072,5.53407158 z"
       style="opacity:1;fill:#4f6772;fill-opacity:1;fill-rule:evenodd;stroke:none;stroke-width:1.02788651;stroke-linecap:round;stroke-linejoin:bevel;stroke-miterlimit:4;stroke-dasharray:none;stroke-dashoffset:0;stroke-opacity:1" />
  </g>
  <path
     style="opacity:1;fill:#b8deec;fill-opacity:1;stroke-width:1"
     inkscape:connector-curvature="0"
     id="path33"
     d="m 14.864521,8.6180822 c -0.839589,0 -1.934383,0.4771233 -2.935479,1.2735616 -0.600411,0.2576712 -1.023288,0.8543832 -1.023288,1.5484932 0,0.216986 0.04068,0.430274 0.120822,0.628767 -1.0380825,0.200959 -1.8234245,1.11452 -1.8234245,2.210548 0,0.228082 0.03329,0.452465 0.101096,0.669452 -0.427808,0.422876 -0.669452,0.997397 -0.669452,1.603972 0,0.473425 0.146712,0.913562 0.396986,1.276027 -0.260137,0.377261 -0.396986,0.816165 -0.396986,1.278493 0,0.819863 0.446301,1.571918 1.153972,1.967671 -0.01233,0.101097 -0.01726,0.20096 -0.01726,0.303288 0,1.10589 0.7187675,2.084794 1.7654795,2.417671 0.454932,0.779178 1.284658,1.257534 2.190822,1.257534 0.993698,0 1.854246,-0.57452 2.270959,-1.409178 0.416712,0.833425 1.279726,1.409178 2.273424,1.409178 0.906164,0 1.733425,-0.478356 2.188355,-1.257534 1.046712,-0.332877 1.767946,-1.311781 1.767946,-2.417671 0,-0.102328 -0.0049,-0.202191 -0.01726,-0.303288 0.707671,-0.395753 1.153971,-1.147808 1.153971,-1.967671 0,-0.462328 -0.136849,-0.902465 -0.396985,-1.278493 0.250274,-0.363698 0.396985,-0.802602 0.396985,-1.276027 0,-0.606575 -0.241643,-1.181096 -0.669452,-1.603972 0.06781,-0.216987 0.101096,-0.44137 0.101096,-0.669452 0,-1.096028 -0.785342,-2.009589 -1.823424,-2.210548 0.0789,-0.19726 0.120822,-0.410548 0.120822,-0.628767 0,-0.69411 -0.422877,-1.289589 -1.023288,-1.5484932 -1.001096,-0.7964383 -2.09589,-1.2735616 -2.935479,-1.2735616 -0.46726,0 -0.881507,0.230548 -1.136711,0.5831507 C 15.743561,8.849863 15.331781,8.6180822 14.864521,8.6180822 m 0,0.5326027 c 0.479589,0 0.869178,0.3920548 0.869178,0.8716441 v 3.443424 c -0.239178,-0.189863 -0.541233,-0.303288 -0.869178,-0.303288 -0.146712,0 -0.267534,0.11959 -0.267534,0.267535 0,0.146712 0.120822,0.265068 0.267534,0.265068 0.479589,0 0.869178,0.389589 0.869178,0.869178 v 6.399863 c -0.330411,-0.426576 -0.797671,-0.750822 -1.346301,-0.898767 -0.141781,-0.03822 -0.289726,0.04562 -0.327945,0.187397 -0.03822,0.141781 0.04562,0.289726 0.187397,0.327945 0.87411,0.235479 1.485616,1.029452 1.485616,1.93315 0,1.105891 -0.9,2.00589 -2.00589,2.00589 -0.74589,0 -1.426438,-0.41178 -1.774109,-1.073835 -0.03452,-0.06534 -0.09493,-0.113425 -0.166439,-0.131918 -0.874109,-0.235479 -1.48315,-1.031918 -1.48315,-1.935616 0,-0.135616 0.01233,-0.27 0.03822,-0.401918 0.02466,-0.122054 -0.03822,-0.245342 -0.151644,-0.29589 -0.6213705,-0.276164 -1.0232875,-0.893836 -1.0232875,-1.571918 0,-0.308219 0.08137,-0.602876 0.233013,-0.864246 0.396986,0.350137 0.9184935,0.563424 1.4880825,0.563424 0.146712,0 0.265069,-0.119589 0.265069,-0.267534 0,-0.146712 -0.118356,-0.265068 -0.265069,-0.265068 -0.9493155,0 -1.7210955,-0.773014 -1.7210955,-1.721096 0,-0.510411 0.225616,-0.993699 0.618904,-1.321644 0.08877,-0.07397 0.118356,-0.196027 0.07397,-0.303287 -0.08384,-0.207124 -0.125753,-0.426576 -0.125753,-0.647261 0,-0.949315 0.7730135,-1.721095 1.7210955,-1.721095 0.949315,0 1.721096,0.773013 1.721096,1.721095 0,0.146713 0.118355,0.267535 0.265069,0.267535 0.146712,0 0.267534,-0.119589 0.267534,-0.267535 0,-1.194657 -0.933288,-2.171095 -2.109452,-2.246301 -0.106027,-0.177534 -0.163973,-0.382192 -0.163973,-0.591781 0,-0.474657 0.288494,-0.882739 0.697809,-1.059041 0.01603,-0.0049 0.03329,-0.0111 0.04808,-0.01973 0.126986,-0.04808 0.262603,-0.07521 0.406849,-0.07521 0.445069,0 0.845753,0.249041 1.040548,0.649726 0.06411,0.131918 0.221918,0.187397 0.353836,0.123288 0.131917,-0.06411 0.189863,-0.221918 0.125753,-0.353836 -0.221918,-0.457397 -0.644795,-0.7890405 -1.129315,-0.9049309 0.679315,-0.4142466 1.348767,-0.649726 1.882603,-0.649726 m 2.270958,0 c 0.533836,0 1.203288,0.2354794 1.882603,0.649726 -0.484522,0.1171233 -0.907397,0.4475339 -1.129315,0.9049309 -0.06411,0.131918 -0.0086,0.289726 0.123288,0.353836 0.131917,0.06411 0.29219,0.0086 0.3563,-0.123288 0.194795,-0.400685 0.591782,-0.649726 1.038082,-0.649726 0.144246,0 0.282329,0.02589 0.409315,0.07521 0.01479,0.0074 0.02959,0.01479 0.04562,0.01973 0.410548,0.176302 0.700274,0.584384 0.700274,1.059041 0,0.209589 -0.05671,0.414247 -0.163972,0.591781 -1.174932,0.07521 -2.109452,1.052877 -2.109452,2.246301 0,0.146713 0.120822,0.267535 0.267534,0.267535 0.146712,0 0.265069,-0.120822 0.265069,-0.267535 0,-0.949315 0.773013,-1.721095 1.721095,-1.721095 0.949315,0 1.721096,0.773013 1.721096,1.721095 0,0.221918 -0.04315,0.440137 -0.128219,0.647261 -0.04315,0.10726 -0.01233,0.229315 0.07767,0.303287 0.393288,0.327945 0.618904,0.811233 0.618904,1.321644 0,0.949315 -0.773013,1.721096 -1.721096,1.721096 -0.146712,0 -0.267534,0.118356 -0.267534,0.265068 0,0.146713 0.120822,0.267534 0.267534,0.267534 0.569589,0 1.091096,-0.213287 1.488082,-0.563424 0.152877,0.26137 0.233014,0.556027 0.233014,0.864246 0,0.679315 -0.401918,1.295754 -1.023287,1.571918 -0.114658,0.05055 -0.178768,0.173836 -0.15411,0.29589 0.02712,0.131918 0.04068,0.266302 0.04068,0.401918 0,0.903698 -0.610274,1.70137 -1.483151,1.935616 -0.07151,0.01973 -0.131917,0.06658 -0.166438,0.131918 -0.348904,0.662055 -1.028219,1.073835 -1.774109,1.073835 -1.105891,0 -2.005891,-0.899999 -2.005891,-2.00589 0,-0.07521 -0.0037,-0.147945 -0.0099,-0.221918 0.0062,-0.02219 0.0099,-0.04685 0.0099,-0.07274 v -8.791642 c 0,-0.479589 0.389589,-0.871644 0.869178,-0.871644 0.146713,0 0.267535,-0.118356 0.267535,-0.265068 0,-0.146713 -0.120822,-0.267535 -0.267535,-0.267535 -0.327945,0 -0.629999,0.113425 -0.869178,0.303288 v -2.306712 c 0,-0.4795891 0.389589,-0.8716438 0.869178,-0.8716438 m 3.976027,4.5801368 c -0.146712,0 -0.267534,0.118356 -0.267534,0.265068 0,0.949315 -0.770548,1.721096 -1.719863,1.721096 -0.466027,0 -0.903698,-0.182466 -1.230411,-0.515342 -0.102328,-0.104795 -0.271232,-0.107261 -0.376027,-0.0049 -0.104794,0.102328 -0.10726,0.271232 -0.0049,0.376027 0.36863,0.37726 0.845753,0.609041 1.362328,0.66452 0.122055,0.81 0.822329,1.432603 1.666849,1.432603 0.146713,0 0.267535,-0.118356 0.267535,-0.265068 0,-0.146713 -0.120822,-0.267535 -0.267535,-0.267535 -0.551095,0 -1.013424,-0.389589 -1.126849,-0.907397 1.104658,-0.144246 1.96274,-1.091096 1.96274,-2.235205 0,-0.146712 -0.120822,-0.265069 -0.267534,-0.265069 m -9.653424,0.284795 c -0.146713,0 -0.267534,0.118356 -0.267534,0.265068 0,1.142877 0.856849,2.089726 1.960273,2.235206 -0.113424,0.517808 -0.573287,0.907397 -1.124383,0.907397 -0.146712,0 -0.267534,0.118356 -0.267534,0.265068 0,0.146713 0.120822,0.267534 0.267534,0.267534 0.843287,0 1.543561,-0.622602 1.666849,-1.432602 0.516575,-0.05548 0.993699,-0.28726 1.362329,-0.664521 0.102328,-0.104794 0.09986,-0.272465 -0.0049,-0.376027 -0.104794,-0.102329 -0.272466,-0.09986 -0.376027,0.0049 -0.326713,0.332877 -0.764384,0.515343 -1.230411,0.515343 -0.949315,0 -1.721096,-0.773014 -1.721096,-1.721096 0,-0.146713 -0.118356,-0.265069 -0.265068,-0.265069 m 5.678629,3.976027 c -0.146712,0 -0.265068,0.118356 -0.265068,0.265069 0,0.146712 0.118356,0.267534 0.265068,0.267534 0.949315,0 1.721096,0.773014 1.721096,1.721096 0,0.06041 -0.0037,0.120822 -0.0099,0.18 -0.826027,0.334109 -1.411644,1.145342 -1.411644,2.089725 0,0.146713 0.120822,0.267535 0.267535,0.267535 0.146712,0 0.265068,-0.119589 0.265068,-0.267535 0,-0.949314 0.773014,-1.721095 1.721096,-1.721095 0.146712,0 0.267534,-0.118356 0.267534,-0.265069 0,-0.146712 -0.120822,-0.267534 -0.267534,-0.267534 -0.102329,0 -0.202192,0.0086 -0.300822,0.02219 0,-0.01233 0,-0.02589 0,-0.03822 0,-1.245205 -1.010959,-2.253698 -2.253699,-2.253698 m -3.122876,0.568356 c -1.245205,0 -2.253698,1.008493 -2.253698,2.251233 0,0.01233 0,0.02836 0,0.04068 -0.09863,-0.01356 -0.198493,-0.02219 -0.300822,-0.02219 -0.146713,0 -0.267534,0.118357 -0.267534,0.265069 0,0.146712 0.120821,0.267534 0.267534,0.267534 0.949315,0 1.721095,0.773013 1.721095,1.721095 0,0.146713 0.118357,0.265069 0.265069,0.265069 0.146712,0 0.267534,-0.118356 0.267534,-0.265069 0,-0.944383 -0.585616,-1.755615 -1.411644,-2.089725 -0.0062,-0.06041 -0.0099,-0.119589 -0.0099,-0.18 0,-0.949315 0.773014,-1.721096 1.721096,-1.721096 0.146712,0 0.265069,-0.120822 0.265069,-0.267534 h 0.0025 c 0,-0.146712 -0.120822,-0.265068 -0.267534,-0.265068" />
</svg>
