<?xml version="1.0" encoding="UTF-8" standalone="no"?>
<svg
   xmlns:dc="http://purl.org/dc/elements/1.1/"
   xmlns:cc="http://creativecommons.org/ns#"
   xmlns:rdf="http://www.w3.org/1999/02/22-rdf-syntax-ns#"
   xmlns:svg="http://www.w3.org/2000/svg"
   xmlns="http://www.w3.org/2000/svg"
   xmlns:sodipodi="http://sodipodi.sourceforge.net/DTD/sodipodi-0.dtd"
   xmlns:inkscape="http://www.inkscape.org/namespaces/inkscape"
   width="32"
   height="32"
   version="1"
   id="svg16"
   sodipodi:docname="application-pdf.svg"
   inkscape:version="0.92.1 r">
  <metadata
     id="metadata22">
    <rdf:RDF>
      <cc:Work
         rdf:about="">
        <dc:format>image/svg+xml</dc:format>
        <dc:type
           rdf:resource="http://purl.org/dc/dcmitype/StillImage" />
      </cc:Work>
    </rdf:RDF>
  </metadata>
  <defs
     id="defs20" />
  <sodipodi:namedview
     pagecolor="#ffffff"
     bordercolor="#666666"
     borderopacity="1"
     objecttolerance="10"
     gridtolerance="10"
     guidetolerance="10"
     inkscape:pageopacity="0"
     inkscape:pageshadow="2"
     inkscape:window-width="1680"
     inkscape:window-height="978"
     id="namedview18"
     showgrid="false"
     inkscape:zoom="7.375"
     inkscape:cx="-34.440678"
     inkscape:cy="16"
     inkscape:window-x="0"
     inkscape:window-y="0"
     inkscape:window-maximized="1"
     inkscape:current-layer="svg16" />
  <path
     style="opacity:1;fill:#c03630;fill-opacity:1;fill-rule:evenodd;stroke:none;stroke-width:1.02788651;stroke-linecap:round;stroke-linejoin:bevel;stroke-miterlimit:4;stroke-dasharray:none;stroke-dashoffset:0;stroke-opacity:1"
     d="M 21.186981,2 H 7.536011 C 4.469605,2 2,4.4676666 2,7.5340724 V 24.463989 C 2,27.530395 4.469605,30 7.536011,30 H 24.465928 C 27.532334,30 30,27.530395 30,24.463989 v -13.65097 z"
     id="path4508"
     inkscape:connector-curvature="0" />
  <path
     style="opacity:1;fill:#971f1f;fill-opacity:1;fill-rule:evenodd;stroke:none;stroke-width:1.02788651;stroke-linecap:round;stroke-linejoin:bevel;stroke-miterlimit:4;stroke-dasharray:none;stroke-dashoffset:0;stroke-opacity:1"
     d="M 30,10.813019 21.186981,2 v 3.2789477 c 0,3.0664056 2.467666,5.5340713 5.534072,5.5340713 z"
     id="rect4497-3"
     inkscape:connector-curvature="0" />
  <path
     d="m 15.776677,8.9843901 c -0.384266,0 -0.743606,0.1880874 -0.830539,0.4985229 -0.322831,1.190132 0.03848,3.030645 0.641105,5.323788 l -0.181783,0.44398 c -0.461414,1.124726 -1.038179,2.244893 -1.545379,3.238846 -2.093873,4.097108 -3.72296,6.307612 -4.809018,6.462497 l -0.0041,-0.04499 c -0.02358,-0.511052 0.919551,-1.828624 2.197841,-2.876294 0.133331,-0.107833 0.702312,-0.658299 0.702312,-0.658299 0,0 -0.768011,0.405432 -0.94053,0.509986 -1.601895,0.956112 -2.398977,1.914064 -2.528936,2.549997 -0.03858,0.188873 -0.01382,0.42128 0.153071,0.516703 l 0.409538,0.205722 c 1.114982,0.558118 2.486016,-0.90938 4.308642,-4.103907 1.854748,-0.608448 4.168952,-1.181294 6.275888,-1.491663 1.886072,1.07766 4.049523,1.590699 4.880861,1.369168 0.158177,-0.04183 0.324564,-0.165974 0.409538,-0.280338 0.06664,-0.10522 0.159803,-0.526261 0.159803,-0.526261 0,0 -0.156391,0.212827 -0.285164,0.275567 -0.526101,0.248348 -2.187044,-0.165975 -3.89144,-0.999845 1.473669,-0.156857 2.701415,-0.162895 3.357475,0.04682 0.833324,0.265996 0.833991,0.538657 0.822887,0.594199 0.0112,-0.04573 0.04856,-0.228408 0.04399,-0.306183 -0.0189,-0.19999 -0.08056,-0.378574 -0.231554,-0.526261 -0.308463,-0.303891 -1.070076,-0.457043 -2.107869,-0.470758 -0.78226,-0.0085 -1.720258,0.05998 -2.73847,0.205722 -0.466626,-0.267943 -0.959031,-0.562503 -1.349175,-0.927201 -0.989434,-0.924122 -1.81876,-2.207171 -2.333797,-3.645518 0.03515,-0.137903 0.06881,-0.272634 0.0995,-0.408578 0.143141,-0.643717 0.245896,-2.771926 0.245896,-2.771926 0,0 -0.407659,1.598829 -0.471705,1.839953 -0.04115,0.152926 -0.09236,0.316154 -0.151179,0.486074 -0.312408,-1.097907 -0.470758,-2.161985 -0.470758,-2.969064 0,-0.228088 0.01958,-0.6719216 0.08419,-1.022851 0.03148,-0.2502944 0.122135,-0.3802668 0.216266,-0.4430203 0.186248,0.045159 0.394729,0.3308024 0.61238,0.8085318 0.186901,0.4130435 0.175091,0.8913855 0.175091,1.1874655 0,0 0.200444,-0.733089 0.154058,-1.1663789 C 16.827373,9.6484965 16.5799,8.9793074 16.0538,8.9871449 h -0.04307 l -0.234419,-0.00253 z m 0.17893,6.6471049 c 0.544415,1.094655 1.295258,2.13426 2.280214,2.968131 0.219571,0.185594 0.453191,0.362179 0.693688,0.528166 -1.788636,0.332656 -3.667244,0.800601 -5.412827,1.531918 0.315661,-0.56073 0.656967,-1.171631 1.006603,-1.830357 0.677067,-1.280263 1.087324,-2.267818 1.432348,-3.197792 z"
     id="path12"
     inkscape:connector-curvature="0"
     style="fill:#ffffff;stroke-width:1.33291316" />
</svg>
