<?xml version="1.0" encoding="UTF-8" standalone="no"?>
<svg
   xmlns:dc="http://purl.org/dc/elements/1.1/"
   xmlns:cc="http://creativecommons.org/ns#"
   xmlns:rdf="http://www.w3.org/1999/02/22-rdf-syntax-ns#"
   xmlns:svg="http://www.w3.org/2000/svg"
   xmlns="http://www.w3.org/2000/svg"
   xmlns:sodipodi="http://sodipodi.sourceforge.net/DTD/sodipodi-0.dtd"
   xmlns:inkscape="http://www.inkscape.org/namespaces/inkscape"
   width="32"
   height="32"
   version="1"
   id="svg14"
   sodipodi:docname="application-x-gettext-translation.svg"
   inkscape:version="0.92.1 r">
  <metadata
     id="metadata20">
    <rdf:RDF>
      <cc:Work
         rdf:about="">
        <dc:format>image/svg+xml</dc:format>
        <dc:type
           rdf:resource="http://purl.org/dc/dcmitype/StillImage" />
      </cc:Work>
    </rdf:RDF>
  </metadata>
  <defs
     id="defs18" />
  <sodipodi:namedview
     pagecolor="#ffffff"
     bordercolor="#666666"
     borderopacity="1"
     objecttolerance="10"
     gridtolerance="10"
     guidetolerance="10"
     inkscape:pageopacity="0"
     inkscape:pageshadow="2"
     inkscape:window-width="1680"
     inkscape:window-height="978"
     id="namedview16"
     showgrid="false"
     inkscape:zoom="7.375"
     inkscape:cx="-34.440678"
     inkscape:cy="16"
     inkscape:window-x="0"
     inkscape:window-y="0"
     inkscape:window-maximized="1"
     inkscape:current-layer="svg14" />
  <path
     style="opacity:1;fill:#cccccc;fill-opacity:1;fill-rule:evenodd;stroke:none;stroke-width:1.02788651;stroke-linecap:round;stroke-linejoin:bevel;stroke-miterlimit:4;stroke-dasharray:none;stroke-dashoffset:0;stroke-opacity:1"
     d="M 21.186981,2 H 7.536011 C 4.469605,2 2,4.467666 2,7.534072 V 24.463989 C 2,27.530395 4.469605,30 7.536011,30 h 16.929917 c 3.066406,0 5.534071,-2.469605 5.534071,-5.536011 v -13.65097 z"
     id="path4508"
     inkscape:connector-curvature="0" />
  <path
     style="opacity:1;fill:#999999;fill-opacity:1;fill-rule:evenodd;stroke:none;stroke-width:1.02788651;stroke-linecap:round;stroke-linejoin:bevel;stroke-miterlimit:4;stroke-dasharray:none;stroke-dashoffset:0;stroke-opacity:1"
     d="M 29.999999,10.813019 21.186981,2 v 3.278947 c 0,3.066406 2.467666,5.534072 5.534072,5.534072 z"
     id="rect4497-3"
     inkscape:connector-curvature="0" />
  <path
     d="m 10.407695,10.443416 c -0.65525,0.402465 -1.973677,0.966776 -3.058949,1.281694 l 0.03394,0.09504 c 0.51615,-0.05154 1.068254,-0.124252 1.585781,-0.211799 v 1.319705 H 7.356826 l 0.04345,0.145273 h 1.318343 c -0.257624,1.062193 -0.731857,2.191121 -1.41255,3.0114 l 0.103188,0.0964 c 0.638303,-0.46248 1.154079,-0.99683 1.558671,-1.606215 v 2.742655 h 0.164279 c 0.439183,0 0.72407,-0.169061 0.731814,-0.221309 v -3.094263 c 0.327626,0.295148 0.637149,0.76382 0.697864,1.130986 0.111558,0.0939 0.233293,0.13985 0.344865,0.13985 0.232306,0 0.430397,-0.168824 0.430397,-0.403244 0,-0.317031 -0.361757,-0.733747 -1.473167,-0.982987 v -0.813273 h 1.207007 c 0.233001,0 0.344587,-0.03709 0.404606,-0.131703 L 10.64059,12.376814 10.191188,12.925331 H 9.86398 v -1.494856 c 0.38834,-0.08826 0.749708,-0.175136 1.042728,-0.263393 0.111559,0.02965 0.207837,0.04481 0.293271,0.04481 0.104496,0 0.189429,-0.02276 0.241677,-0.06653 l -1.033219,-0.7033 z m 3.970016,1.018287 -0.378803,0.433107 h -1.497497 l -0.958546,-0.353012 v 5.629066 c 0.809881,0 0.91375,-0.292659 0.91375,-0.308202 v -0.534948 h 1.627908 v 0.7033 c 0.68207,0 0.921898,-0.197688 0.921898,-0.211799 v -4.574103 c 0.180753,-0.03601 0.319116,-0.0945 0.370655,-0.161568 l -0.999282,-0.621827 z m -1.921123,0.579743 h 1.627908 v 4.141023 h -1.627908 z m 9.671099,6.614792 c -0.952511,0 -1.643896,0.222519 -2.074613,0.666638 -0.35728,0.367165 -0.557748,0.928126 -0.617768,1.664612 h -1.63611 v -1.395727 c 0,-0.182172 0.02839,-0.313292 0.08418,-0.392386 0.05507,-0.07837 0.143854,-0.121874 0.268829,-0.130341 l 0.253897,-0.01493 c 0.09391,-0.0085 0.1412,-0.05511 0.1412,-0.139851 0,-0.06284 -0.007,-0.101937 -0.02173,-0.116758 -0.01554,-0.01482 -0.05458,-0.02308 -0.11812,-0.02308 -0.01484,0 -0.05967,0.0018 -0.131704,0.0068 -0.283135,0.01265 -0.555343,0.019 -0.818708,0.019 -0.274669,0 -0.559737,-0.0063 -0.849936,-0.019 -0.0692,-0.0049 -0.110849,-0.0068 -0.123556,-0.0068 -0.06142,0 -0.100519,0.009 -0.116758,0.02308 -0.01624,0.01482 -0.02443,0.05321 -0.02443,0.116758 0,0.08543 0.04909,0.132079 0.149346,0.139851 l 0.237603,0.01493 c 0.131328,0.0078 0.223255,0.04995 0.278339,0.12763 0.05508,0.07837 0.08282,0.210103 0.08282,0.395097 v 3.741866 c 0,0.182881 -0.0271,0.314654 -0.08146,0.393735 -0.05367,0.07837 -0.14309,0.119802 -0.270192,0.128978 l -0.247099,0.01493 c -0.0063,0.0021 -0.01321,0.004 -0.02308,0.004 -0.08403,0.005 -0.126281,0.04717 -0.126281,0.127672 0,0.06637 0.0095,0.106664 0.02715,0.122194 0.01766,0.01693 0.05616,0.02444 0.114047,0.02444 0.01554,0 0.05458,-0.0013 0.11812,-0.004 0.294439,-0.01412 0.57934,-0.02173 0.854009,-0.02173 0.263365,0 0.536213,0.0063 0.820057,0.019 0.0692,0.0042 0.111989,0.0068 0.130341,0.0068 0.06144,0 0.100519,-0.0075 0.116758,-0.02444 0.01624,-0.01554 0.02444,-0.05653 0.02444,-0.122194 0,-0.08048 -0.03904,-0.122681 -0.11812,-0.12763 -0.01057,-0.0021 -0.01607,-0.004 -0.02173,-0.004 l -0.24575,-0.01493 c -0.131328,-0.0085 -0.223255,-0.04995 -0.278339,-0.12763 -0.05578,-0.07697 -0.08418,-0.209394 -0.08418,-0.395097 v -1.545046 h 1.625127 c 0.04095,0.812703 0.227468,1.42687 0.578395,1.817963 0.399017,0.442117 1.039948,0.663175 1.924182,0.663175 0.960978,0 1.663221,-0.223116 2.104504,-0.669362 0.441297,-0.4469 0.662564,-1.159834 0.662564,-2.137038 0,-0.989925 -0.201664,-1.705209 -0.605547,-2.146491 -0.403175,-0.442715 -1.056104,-0.661215 -1.959218,-0.661215 z m -0.08418,0.266119 c 0.659478,0 1.134642,0.197923 1.427009,0.593326 0.290908,0.394708 0.435833,1.045301 0.435833,1.946983 0,0.894606 -0.146218,1.540736 -0.438544,1.936139 -0.29302,0.396111 -0.766892,0.593326 -1.424228,0.593326 -0.658073,0 -1.133933,-0.197215 -1.427009,-0.593326 -0.291616,-0.395403 -0.437181,-1.045245 -0.437181,-1.948374 0,-0.88472 0.147428,-1.528362 0.44398,-1.927935 0.296552,-0.399643 0.769172,-0.600112 1.420196,-0.600112 z"
     id="path10"
     inkscape:connector-curvature="0"
     style="opacity:1;stroke-width:1.39030492;fill:#999999" />
</svg>
