<?xml version="1.0" encoding="UTF-8" standalone="no"?>
<svg
   xmlns:dc="http://purl.org/dc/elements/1.1/"
   xmlns:cc="http://creativecommons.org/ns#"
   xmlns:rdf="http://www.w3.org/1999/02/22-rdf-syntax-ns#"
   xmlns:svg="http://www.w3.org/2000/svg"
   xmlns="http://www.w3.org/2000/svg"
   xmlns:sodipodi="http://sodipodi.sourceforge.net/DTD/sodipodi-0.dtd"
   xmlns:inkscape="http://www.inkscape.org/namespaces/inkscape"
   width="32"
   height="32"
   version="1"
   id="svg24"
   sodipodi:docname="application-x-iso.svg"
   inkscape:version="0.92.1 r">
  <metadata
     id="metadata30">
    <rdf:RDF>
      <cc:Work
         rdf:about="">
        <dc:format>image/svg+xml</dc:format>
        <dc:type
           rdf:resource="http://purl.org/dc/dcmitype/StillImage" />
      </cc:Work>
    </rdf:RDF>
  </metadata>
  <defs
     id="defs28" />
  <sodipodi:namedview
     pagecolor="#ffffff"
     bordercolor="#666666"
     borderopacity="1"
     objecttolerance="10"
     gridtolerance="10"
     guidetolerance="10"
     inkscape:pageopacity="0"
     inkscape:pageshadow="2"
     inkscape:window-width="1680"
     inkscape:window-height="978"
     id="namedview26"
     showgrid="false"
     inkscape:zoom="14.75"
     inkscape:cx="-3.3899086"
     inkscape:cy="11.819399"
     inkscape:window-x="0"
     inkscape:window-y="0"
     inkscape:window-maximized="1"
     inkscape:current-layer="svg24" />
  <g
     id="g4518"
     style="fill:#99bdff;fill-opacity:1">
    <path
       inkscape:connector-curvature="0"
       id="path4508"
       d="M 21.186981,1.9999999 H 7.536011 C 4.469605,1.9999999 2,4.4676662 2,7.534072 V 24.463989 C 2,27.530395 4.469605,30 7.536011,30 H 24.465928 C 27.532334,30 30,27.530395 30,24.463989 v -13.65097 z"
       style="opacity:1;fill:#99bdff;fill-opacity:1;fill-rule:evenodd;stroke:none;stroke-width:1.02788651;stroke-linecap:round;stroke-linejoin:bevel;stroke-miterlimit:4;stroke-dasharray:none;stroke-dashoffset:0;stroke-opacity:1" />
  </g>
  <path
     style="opacity:1;fill:#6879a9;fill-opacity:0.47791165;fill-rule:evenodd;stroke:none;stroke-width:1.02788651;stroke-linecap:round;stroke-linejoin:bevel;stroke-miterlimit:4;stroke-dasharray:none;stroke-dashoffset:0;stroke-opacity:1"
     d="M 29.999999,10.813019 21.186981,2 v 3.2789473 c 0,3.0664059 2.467666,5.5340717 5.534072,5.5340717 z"
     id="rect4497-3"
     inkscape:connector-curvature="0" />
  <path
     style="opacity:1;fill:#9999ff;fill-opacity:1;fill-rule:evenodd;stroke:none;stroke-width:1.02788651;stroke-linecap:round;stroke-linejoin:bevel;stroke-miterlimit:4;stroke-dasharray:none;stroke-dashoffset:0;stroke-opacity:1"
     d="m -11.490986,2.2033901 h -13.65097 c -3.066406,0 -5.536011,2.4676661 -5.536011,5.5340719 v 16.929917 c 0,3.066406 2.469605,5.536011 5.536011,5.536011 h 16.9299174 c 3.066406,0 5.5340725,-2.469605 5.5340725,-5.536011 v -13.65097 z"
     id="path4508-3"
     inkscape:connector-curvature="0" />
  <path
     style="opacity:1;fill:#5b5895;fill-opacity:1;fill-rule:evenodd;stroke:none;stroke-width:1.02788651;stroke-linecap:round;stroke-linejoin:bevel;stroke-miterlimit:4;stroke-dasharray:none;stroke-dashoffset:0;stroke-opacity:1"
     d="M -2.6779661,11.016409 -11.490986,2.2033901 v 3.2789472 c 0,3.0664056 2.4676664,5.5340717 5.5340724,5.5340717 z"
     id="rect4497-3-3"
     inkscape:connector-curvature="0" />
  <g
     id="g4532"
     transform="translate(-32.677967,-1.2881359)">
    <path
       inkscape:connector-curvature="0"
       id="path4501"
       d="M 16,9.2216795 A 6.7780366,6.7780366 0 0 0 9.2226563,15.999024 6.7780366,6.7780366 0 0 0 16,22.778321 6.7780366,6.7780366 0 0 0 22.777344,15.999024 6.7780366,6.7780366 0 0 0 16,9.2216795 Z m 0.994141,1.6679685 c 0.639303,-0.04739 1.022137,0.05982 1.310546,0.341797 0.180531,0.176503 0.272297,0.346432 0.595704,1.103517 0.611079,1.430487 0.62059,1.493374 0.445312,2.521484 -0.01925,0.112955 -0.01136,0.173828 0.02148,0.173828 0.07986,0 0.28344,-0.24032 0.34375,-0.40625 0.06863,-0.188806 0.139198,-0.190655 0.511719,-0.01172 1.093831,0.52541 1.297409,0.836359 1.060547,1.615234 -0.108608,0.357133 -0.290826,0.640657 -0.568359,0.880859 -0.245235,0.21225 -0.929032,0.576361 -1.34961,0.71875 -0.242026,0.08194 -0.418305,0.100775 -1.035156,0.109375 -0.842571,0.01172 -0.905107,0.0057 -1.671875,-0.123047 -0.538772,-0.09044 -1.164618,-0.264551 -1.695312,-0.470703 -0.320992,-0.124691 -0.931148,-0.394495 -1.023438,-0.453125 -0.03833,-0.02435 -0.226333,-0.131097 -0.417969,-0.238281 -1.037508,-0.580285 -2.254482,-1.623941 -2.550781,-2.185547 -0.10065,-0.190769 -0.107677,-0.227545 -0.05469,-0.355469 0.08367,-0.201995 0.35924,-0.472152 0.582031,-0.570312 0.192992,-0.08503 1.388391,-0.209273 1.521484,-0.158203 0.05018,0.01924 0.0618,0.09063 0.04687,0.296875 -0.02988,0.41301 0.04627,0.585797 0.345703,0.777344 0.582407,0.372561 1.604731,0.832604 2.396485,1.080078 0.291432,0.0911 0.873047,0.135246 0.873047,0.06641 0,-0.01693 -0.06064,-0.124969 -0.134766,-0.242188 -0.07412,-0.117218 -0.149549,-0.308847 -0.167969,-0.423828 -0.05708,-0.356273 -0.137106,-0.421455 -0.75,-0.621094 -1.284068,-0.418256 -1.908078,-0.682691 -2.117187,-0.898437 -0.130024,-0.134147 -0.148585,-0.184279 -0.146485,-0.396484 0.0026,-0.258983 0.298603,-1.388773 0.435547,-1.660158 0.153148,-0.303496 0.431174,-0.465447 0.798828,-0.464843 0.135414,2.22e-4 0.506778,0.03245 0.826172,0.07031 0.424624,0.05034 0.651056,0.05499 0.837891,0.02148 0.276152,-0.04952 0.517367,-0.08186 0.730469,-0.09766 z m 0.492187,0.300781 c -0.248801,-0.02947 -0.572265,0.0091 -0.572265,0.06836 0,0.01882 0.09309,0.06206 0.207031,0.0957 0.293814,0.08675 0.34737,0.165964 0.193359,0.287109 -0.06713,0.05281 -0.123047,0.116928 -0.123047,0.140625 0,0.06825 0.451989,0.05016 0.632813,-0.02539 0.145094,-0.06064 0.161387,-0.08637 0.148437,-0.216797 -0.01931,-0.19452 -0.184505,-0.313862 -0.486328,-0.349609 z m -3.353515,0.792969 c -0.08713,0.05385 -0.156604,0.308734 -0.126954,0.466798 0.02251,0.11998 0.08183,0.198249 0.226563,0.300781 0.216024,0.15304 0.381637,0.17686 0.525391,0.07617 0.05206,-0.03646 0.268393,-0.0901 0.480468,-0.11914 0.489445,-0.06701 0.717108,-0.142388 0.736328,-0.242188 0.02249,-0.116786 -0.298408,-0.190012 -0.849609,-0.195312 -0.442632,-0.0042 -0.475609,-0.01342 -0.707031,-0.160157 -0.133591,-0.08471 -0.262377,-0.141032 -0.285156,-0.126954 z m -1.304688,4.671876 c 0.133206,0 0.203056,0.05567 0.529297,0.402344 l 0.376953,0.400391 0.195312,-0.0332 c 0.192467,-0.03252 0.196707,-0.03022 0.554688,0.308593 0.198652,0.188019 0.40947,0.385413 0.46875,0.439453 0.192666,0.175634 0.434738,0.200577 2.1875,0.222657 0.930178,0.01172 1.711155,0.04123 1.734375,0.06445 0.02533,0.02533 0.01319,0.150407 -0.0293,0.314453 -0.03896,0.150425 -0.103378,0.426825 -0.142578,0.613281 -0.06282,0.298764 -0.111325,0.391816 -0.408203,0.789063 -0.508506,0.68042 -0.535925,0.720152 -0.615235,0.859375 -0.08385,0.147177 -0.05973,0.21875 0.07422,0.21875 0.141536,0 0.365378,-0.129828 0.638672,-0.373047 0.136325,-0.121323 0.42305,-0.32039 0.638672,-0.441407 0.418471,-0.23487 0.432931,-0.24483 0.462891,-0.40039 0.02722,-0.141361 0.109581,-0.186603 0.298828,-0.158203 0.08943,0.01342 0.419416,0.02511 0.732422,0.02539 0.366922,3.3e-4 0.568359,0.01926 0.568359,0.05078 0,0.08178 -1.074164,1.121936 -1.363281,1.320312 -0.946711,0.649582 -1.814175,0.992888 -2.765625,1.09375 -0.245111,0.02599 -0.49862,0.05335 -0.5625,0.06055 -0.06388,0.0072 -0.262546,0.0076 -0.441407,0 -2.039772,-0.08651 -3.61814,-0.833274 -4.78125,-2.261719 -0.507929,-0.637358 -2.1201247,-2.585334 -0.328124,-2.296875 0.459926,-0.0073 0.879763,-0.0015 0.933593,0.01172 0.05383,0.01323 0.247904,0.157512 0.431641,0.322266 0.427249,0.383106 0.713149,0.452756 0.845703,0.205078 0.04389,-0.08201 0.02099,-0.125074 -0.15625,-0.310547 -0.458712,-0.480012 -0.639123,-0.847038 -0.564453,-1.144531 0.03658,-0.14576 0.287928,-0.302735 0.486328,-0.302735 z m 3.679688,2.513672 c -0.07546,0.0026 -0.123132,0.03357 -0.154297,0.0918 -0.07957,0.14867 -0.03998,0.186832 0.30664,0.302734 0.373844,0.125008 0.609852,0.11394 0.728516,-0.03125 0.10066,-0.123137 0.102642,-0.200091 0.0078,-0.294921 -0.06693,-0.0669 -0.0842,-0.0667 -0.207031,0.0059 -0.127163,0.07512 -0.148344,0.07494 -0.357422,0 -0.145433,-0.05213 -0.248756,-0.07683 -0.324218,-0.07422 z"
       style="opacity:1;fill:#262038;fill-opacity:0.53413654;fill-rule:nonzero;stroke:none;stroke-width:10.04599857;stroke-linecap:round;stroke-linejoin:bevel;stroke-miterlimit:4;stroke-dasharray:none;stroke-dashoffset:0;stroke-opacity:1" />
    <g
       transform="matrix(1,0,0,0.68833094,-17.822032,10.04769)"
       id="text4518"
       style="font-style:normal;font-weight:normal;font-size:8.17206287px;line-height:1.25;font-family:sans-serif;letter-spacing:0px;word-spacing:0px;fill:#262038;fill-opacity:0.53413654;stroke:none;stroke-width:1.20531714"
       aria-label="RPM">
      <path
         inkscape:connector-curvature="0"
         id="path4520"
         style="font-style:normal;font-variant:normal;font-weight:normal;font-stretch:normal;font-family:Impact;-inkscape-font-specification:Impact;fill:#262038;fill-opacity:0.53413654;stroke-width:1.20531714"
         d="m 26.976734,19.403511 h 1.189099 q 1.189099,0 1.608077,0.09178 0.422968,0.09178 0.686326,0.470852 0.267347,0.375085 0.267347,1.201069 0,0.754161 -0.187542,1.013528 -0.187543,0.259367 -0.738199,0.31124 0.498783,0.123699 0.670364,0.331192 0.171582,0.207494 0.211484,0.383066 0.04389,0.171581 0.04389,0.953673 v 1.703839 h -1.56019 v -2.146762 q 0,-0.518735 -0.0838,-0.642433 -0.07981,-0.123698 -0.426958,-0.123698 V 25.86375 H 26.97673 Z m 1.679902,1.105304 v 1.436495 q 0.283309,0 0.395036,-0.07581 0.115718,-0.07981 0.115718,-0.506764 v -0.355133 q 0,-0.307251 -0.111728,-0.403017 -0.107737,-0.09577 -0.399026,-0.09577 z" />
      <path
         inkscape:connector-curvature="0"
         id="path4522"
         style="font-style:normal;font-variant:normal;font-weight:normal;font-stretch:normal;font-family:Impact;-inkscape-font-specification:Impact;fill:#262038;fill-opacity:0.53413654;stroke-width:1.20531714"
         d="m 31.381987,19.403511 h 1.691872 q 0.686326,0 1.05343,0.107737 0.371095,0.107738 0.554647,0.311241 0.187542,0.203504 0.251387,0.494793 0.06783,0.287299 0.06783,0.893819 v 0.562628 q 0,0.618491 -0.127688,0.9018 -0.127689,0.283308 -0.470852,0.434939 -0.339172,0.15163 -0.889829,0.15163 h -0.4509 v 2.601652 h -1.679901 z m 1.679901,1.105304 v 1.643989 q 0.07182,0.004 0.123699,0.004 0.231435,0 0.319221,-0.111727 0.09178,-0.115718 0.09178,-0.474842 V 21.03952 q 0,-0.331192 -0.103747,-0.430949 -0.103747,-0.09976 -0.430949,-0.09976 z" />
      <path
         inkscape:connector-curvature="0"
         id="path4524"
         style="font-style:normal;font-variant:normal;font-weight:normal;font-stretch:normal;font-family:Impact;-inkscape-font-specification:Impact;fill:#262038;fill-opacity:0.53413654;stroke-width:1.20531714"
         d="m 40.667334,19.403511 v 6.460239 h -1.468418 v -4.361359 l -0.586569,4.361359 h -1.041459 l -0.618491,-4.261603 v 4.261603 h -1.468418 v -6.460239 h 2.174695 q 0.09577,0.582579 0.203503,1.372651 l 0.231436,1.64399 0.383065,-3.016641 z" />
    </g>
  </g>
  <g
     id="g4533">
    <path
       d="m 16,11.55175 c -3.02772,0 -5.465198,2.437481 -5.465198,5.465198 0,3.027719 2.437478,5.465198 5.465198,5.465198 3.027718,0 5.465198,-2.437479 5.465198,-5.465198 0,-3.027718 -2.43748,-5.465199 -5.465198,-5.465198 z m 0,3.122974 A 2.3422277,2.3422277 0 0 1 18.342227,17.016948 2.3422277,2.3422277 0 0 1 16,19.359177 2.3422277,2.3422277 0 0 1 13.657772,17.016948 2.3422277,2.3422277 0 0 1 16,14.674724 Z"
       id="path18-3-6"
       inkscape:connector-curvature="0"
       style="fill:#8091c7;fill-opacity:1;stroke-width:1.13559318" />
    <path
       d="m 16,7.6201499 c -5.205827,0 -9.3967989,4.1909741 -9.3967989,9.3968001 0,5.205825 4.1909719,9.396798 9.3967989,9.396798 5.205825,0 9.396798,-4.190973 9.396798,-9.396798 0,-5.205826 -4.190973,-9.3968001 -9.396798,-9.3968001 z m 0,5.3696021 A 4.0271992,4.0271992 0 0 1 20.027198,17.01695 4.0271992,4.0271992 0 0 1 16,21.04415 4.0271992,4.0271992 0 0 1 11.9728,17.01695 4.0271992,4.0271992 0 0 1 16,12.989752 Z"
       id="path18-3"
       inkscape:connector-curvature="0"
       style="fill:#6879a9;fill-opacity:1;stroke-width:1.13559318" />
  </g>
  <text
     xml:space="preserve"
     style="font-style:normal;font-weight:normal;font-size:5.5930419px;line-height:1.25;font-family:sans-serif;letter-spacing:0px;word-spacing:0px;fill:#99bdff;fill-opacity:1;stroke:none;stroke-width:1"
     x="12.105621"
     y="23.991468"
     id="text4500"
     transform="scale(0.97032701,1.0305804)"><tspan
       sodipodi:role="line"
       id="tspan4498"
       x="12.105621"
       y="23.991468"
       style="font-style:normal;font-variant:normal;font-weight:bold;font-stretch:normal;font-family:sans-serif;-inkscape-font-specification:'sans-serif Bold';fill:#99bdff;fill-opacity:1;stroke-width:4.8279562">iso</tspan></text>
</svg>
