<?xml version="1.0" encoding="UTF-8" standalone="no"?>
<svg
   xmlns:dc="http://purl.org/dc/elements/1.1/"
   xmlns:cc="http://creativecommons.org/ns#"
   xmlns:rdf="http://www.w3.org/1999/02/22-rdf-syntax-ns#"
   xmlns:svg="http://www.w3.org/2000/svg"
   xmlns="http://www.w3.org/2000/svg"
   xmlns:sodipodi="http://sodipodi.sourceforge.net/DTD/sodipodi-0.dtd"
   xmlns:inkscape="http://www.inkscape.org/namespaces/inkscape"
   width="32"
   height="32"
   version="1.1"
   id="svg32"
   sodipodi:docname="application-x-partial-download.svg"
   inkscape:version="0.92.1 r">
  <metadata
     id="metadata36">
    <rdf:RDF>
      <cc:Work
         rdf:about="">
        <dc:format>image/svg+xml</dc:format>
        <dc:type
           rdf:resource="http://purl.org/dc/dcmitype/StillImage" />
      </cc:Work>
    </rdf:RDF>
  </metadata>
  <sodipodi:namedview
     pagecolor="#ffffff"
     bordercolor="#666666"
     borderopacity="1"
     objecttolerance="10"
     gridtolerance="10"
     guidetolerance="10"
     inkscape:pageopacity="0"
     inkscape:pageshadow="2"
     inkscape:window-width="640"
     inkscape:window-height="480"
     id="namedview34"
     showgrid="false"
     inkscape:zoom="8.375"
     inkscape:cx="-29.373134"
     inkscape:cy="16"
     inkscape:current-layer="svg32" />
  <defs
     id="defs12">
    <linearGradient
       id="a"
       y1="524.8"
       x1="404.57"
       y2="531.8"
       x2="411.57"
       gradientUnits="userSpaceOnUse"
       gradientTransform="translate(-384.57,-515.8)">
      <stop
         stop-color="#383e51"
         id="stop2" />
      <stop
         offset="1"
         stop-color="#655c6f"
         stop-opacity="0"
         id="stop4" />
    </linearGradient>
    <linearGradient
       id="b"
       y1="3.421"
       y2="61.14"
       x1="6.508"
       x2="7.322"
       gradientUnits="userSpaceOnUse"
       gradientTransform="matrix(0.5,0,0,-0.48276,0,31.45)">
      <stop
         stop-color="#ffffff"
         stop-opacity="0"
         id="stop7" />
      <stop
         offset="1"
         stop-color="#ffffff"
         stop-opacity=".2"
         id="stop9" />
    </linearGradient>
  </defs>
  <g
     id="g4535"
     transform="translate(46.328358,4.5373132)">
    <path
       inkscape:connector-curvature="0"
       id="path4508"
       d="m -25.141377,-2.5373134 h -13.65097 c -3.066406,0 -5.536011,2.46766627 -5.536011,5.5340721 V 19.926676 c 0,3.066406 2.469605,5.536011 5.536011,5.536011 h 16.929917 c 3.066406,0 5.534072,-2.469605 5.534072,-5.536011 V 6.2757057 Z"
       style="opacity:1;fill:#d4d4d4;fill-opacity:1;fill-rule:evenodd;stroke:none;stroke-width:1.02788651;stroke-linecap:round;stroke-linejoin:bevel;stroke-miterlimit:4;stroke-dasharray:none;stroke-dashoffset:0;stroke-opacity:1" />
    <path
       inkscape:connector-curvature="0"
       id="rect4497-3"
       d="m -16.328358,6.2757057 -8.813019,-8.813019 v 3.27894727 c 0,3.06640563 2.467666,5.53407173 5.534072,5.53407173 z"
       style="opacity:1;fill:#b3b3b3;fill-opacity:1;fill-rule:evenodd;stroke:none;stroke-width:1.02788651;stroke-linecap:round;stroke-linejoin:bevel;stroke-miterlimit:4;stroke-dasharray:none;stroke-dashoffset:0;stroke-opacity:1" />
  </g>
  <path
     style="opacity:0.5;fill:#808080;fill-opacity:1;stroke-width:1"
     inkscape:connector-curvature="0"
     id="path24"
     d="m 16,9.5223886 c -4.171353,0 -7.5522385,3.3808854 -7.5522385,7.5522394 0,4.171353 3.3808855,7.552239 7.5522385,7.552239 4.171354,0 7.552239,-3.380886 7.552239,-7.552239 0,-4.171354 -3.380885,-7.5522394 -7.552239,-7.5522394 m 0,1.2587064 c 3.475289,0 6.293533,2.818244 6.293533,6.293533 0,3.475288 -2.818244,6.293532 -6.293533,6.293532 -3.475288,0 -6.293532,-2.818244 -6.293532,-6.293532 0,-3.475289 2.818244,-6.293533 6.293532,-6.293533 m -1.258706,1.258707 v 6.293532 h 6.293532 V 17.074628 H 16 v -5.034826 z" />
</svg>
