<?xml version="1.0" encoding="UTF-8" standalone="no"?>
<svg
   xmlns:dc="http://purl.org/dc/elements/1.1/"
   xmlns:cc="http://creativecommons.org/ns#"
   xmlns:rdf="http://www.w3.org/1999/02/22-rdf-syntax-ns#"
   xmlns:svg="http://www.w3.org/2000/svg"
   xmlns="http://www.w3.org/2000/svg"
   xmlns:sodipodi="http://sodipodi.sourceforge.net/DTD/sodipodi-0.dtd"
   xmlns:inkscape="http://www.inkscape.org/namespaces/inkscape"
   width="32"
   height="32"
   version="1.1"
   id="svg41"
   sodipodi:docname="application-x-sharedlib.svg"
   inkscape:version="0.92.1 r">
  <metadata
     id="metadata45">
    <rdf:RDF>
      <cc:Work
         rdf:about="">
        <dc:format>image/svg+xml</dc:format>
        <dc:type
           rdf:resource="http://purl.org/dc/dcmitype/StillImage" />
      </cc:Work>
    </rdf:RDF>
  </metadata>
  <sodipodi:namedview
     pagecolor="#ffffff"
     bordercolor="#666666"
     borderopacity="1"
     objecttolerance="10"
     gridtolerance="10"
     guidetolerance="10"
     inkscape:pageopacity="0"
     inkscape:pageshadow="2"
     inkscape:window-width="640"
     inkscape:window-height="480"
     id="namedview43"
     showgrid="false"
     inkscape:zoom="8.375"
     inkscape:cx="-6.8059701"
     inkscape:cy="20.776119"
     inkscape:current-layer="svg41" />
  <defs
     id="defs13">
    <linearGradient
       id="a"
       y1="392.36"
       y2="365.36"
       gradientUnits="userSpaceOnUse"
       x2="0"
       gradientTransform="translate(309.57,152.44)">
      <stop
         stop-color="#ffffff"
         stop-opacity="0"
         id="stop2" />
      <stop
         offset="1"
         stop-color="#ffffff"
         stop-opacity=".2"
         id="stop4" />
    </linearGradient>
    <linearGradient
       id="b"
       y1="17"
       x1="47"
       y2="24"
       gradientUnits="userSpaceOnUse"
       x2="54"
       gradientTransform="translate(-27,-8)">
      <stop
         stop-color="#060606"
         id="stop7" />
      <stop
         offset="1"
         stop-opacity="0"
         id="stop9" />
    </linearGradient>
    <path
       id="c"
       d="m389.57 545.8v-28h15l7 7v21h-14z" />
  </defs>
  <g
     id="g4552"
     transform="translate(42.746269,2.0298508)">
    <path
       inkscape:connector-curvature="0"
       id="path4508"
       d="m -21.559288,-0.0298507 h -13.65097 c -3.066406,0 -5.536011,2.467666 -5.536011,5.5340721 V 22.434138 c 0,3.066406 2.469605,5.536011 5.536011,5.536011 h 16.929917 c 3.066406,0 5.534072,-2.469605 5.534072,-5.536011 V 8.7831684 Z"
       style="opacity:1;fill:#707070;fill-opacity:1;fill-rule:evenodd;stroke:none;stroke-width:1.02788651;stroke-linecap:round;stroke-linejoin:bevel;stroke-miterlimit:4;stroke-dasharray:none;stroke-dashoffset:0;stroke-opacity:1" />
    <path
       inkscape:connector-curvature="0"
       id="rect4497-3"
       d="m -12.746269,8.7831684 -8.813019,-8.8130191 v 3.278947 c 0,3.066406 2.467666,5.5340721 5.534072,5.5340721 z"
       style="opacity:1;fill:#b7b7b7;fill-opacity:1;fill-rule:evenodd;stroke:none;stroke-width:1.02788651;stroke-linecap:round;stroke-linejoin:bevel;stroke-miterlimit:4;stroke-dasharray:none;stroke-dashoffset:0;stroke-opacity:1" />
  </g>
  <g
     id="g4548"
     transform="matrix(1.1755395,0,0,1.1755395,-2.77007,-3.7767111)"
     style="fill:#b7b7b7;fill-opacity:1;stroke-width:0.8506732">
    <path
       d="m 17.99,15.11 c 0.019,-0.152 0.033,-0.306 0.033,-0.463 0,-0.157 -0.014,-0.311 -0.033,-0.463 l 1,-0.785 c 0.09,-0.071 0.116,-0.199 0.057,-0.304 l -0.949,-1.644 c -0.059,-0.102 -0.183,-0.145 -0.289,-0.102 l -1.182,0.477 C 16.383,11.639 16.114,11.48 15.825,11.359 L 15.647,10.101 C 15.626,9.989 15.528,9.902 15.41,9.902 h -1.898 c -0.119,0 -0.216,0.088 -0.235,0.199 l -0.178,1.258 c -0.289,0.121 -0.558,0.278 -0.802,0.467 l -1.182,-0.477 c -0.107,-0.04 -0.23,0 -0.289,0.102 l -0.949,1.644 c -0.059,0.102 -0.033,0.23 0.057,0.304 l 1,0.785 c -0.019,0.152 -0.033,0.306 -0.033,0.463 0,0.157 0.014,0.311 0.033,0.463 l -1,0.785 c -0.09,0.071 -0.116,0.199 -0.057,0.304 l 0.949,1.644 c 0.059,0.102 0.183,0.145 0.289,0.102 l 1.182,-0.477 c 0.244,0.187 0.513,0.346 0.802,0.467 l 0.178,1.258 c 0.019,0.112 0.116,0.199 0.235,0.199 h 1.898 c 0.119,0 0.216,-0.088 0.235,-0.199 l 0.178,-1.258 c 0.289,-0.121 0.558,-0.278 0.802,-0.467 l 1.182,0.477 c 0.107,0.04 0.23,0 0.289,-0.102 l 0.949,-1.644 c 0.059,-0.102 0.033,-0.23 -0.057,-0.304 z m -3.526,1.198 c -0.918,0 -1.661,-0.743 -1.661,-1.661 0,-0.918 0.743,-1.661 1.661,-1.661 0.918,0 1.661,0.743 1.661,1.661 0,0.918 -0.743,1.661 -1.661,1.661"
       id="path31"
       inkscape:connector-curvature="0"
       style="fill:#b7b7b7;fill-opacity:1;stroke-width:0.8506732" />
    <path
       d="m 20.7,23.5 c 0.065,-0.091 0.129,-0.185 0.184,-0.286 0.055,-0.101 0.1,-0.205 0.141,-0.309 l 0.921,-0.153 c 0.083,-0.014 0.145,-0.087 0.143,-0.175 l -0.033,-1.39 C 22.053,21.101 21.989,21.03 21.906,21.02 L 20.979,20.912 C 20.888,20.706 20.771,20.51 20.628,20.33 l 0.327,-0.871 c 0.025,-0.079 -0.006,-0.17 -0.083,-0.211 l -1.22,-0.666 c -0.076,-0.042 -0.17,-0.019 -0.221,0.046 l -0.555,0.746 C 18.648,19.35 18.42,19.357 18.197,19.393 L 17.605,18.672 C 17.55,18.609 17.457,18.591 17.383,18.636 l -1.187,0.724 c -0.074,0.045 -0.102,0.136 -0.07,0.215 l 0.368,0.856 c -0.065,0.091 -0.129,0.185 -0.184,0.286 -0.055,0.101 -0.1,0.205 -0.141,0.309 L 15.25,21.18 c -0.083,0.014 -0.145,0.087 -0.143,0.175 l 0.033,1.39 c 0.003,0.086 0.067,0.157 0.15,0.167 l 0.927,0.108 c 0.091,0.206 0.208,0.402 0.351,0.582 l -0.327,0.871 c -0.027,0.078 0.005,0.169 0.081,0.21 l 1.22,0.666 c 0.076,0.042 0.17,0.019 0.221,-0.046 l 0.555,-0.746 c 0.228,0.024 0.456,0.017 0.679,-0.019 l 0.592,0.721 c 0.055,0.063 0.148,0.081 0.222,0.036 l 1.187,-0.724 c 0.074,-0.045 0.102,-0.136 0.07,-0.215 z m -2.686,-0.467 c -0.59,-0.322 -0.807,-1.06 -0.485,-1.65 0.322,-0.59 1.06,-0.807 1.65,-0.485 0.59,0.322 0.807,1.06 0.485,1.65 -0.322,0.59 -1.06,0.807 -1.65,0.485"
       id="path35"
       inkscape:connector-curvature="0"
       style="fill:#b7b7b7;fill-opacity:1;stroke-width:0.8506732" />
  </g>
</svg>
