<?xml version="1.0" encoding="UTF-8" standalone="no"?>
<svg
   xmlns:dc="http://purl.org/dc/elements/1.1/"
   xmlns:cc="http://creativecommons.org/ns#"
   xmlns:rdf="http://www.w3.org/1999/02/22-rdf-syntax-ns#"
   xmlns:svg="http://www.w3.org/2000/svg"
   xmlns="http://www.w3.org/2000/svg"
   xmlns:sodipodi="http://sodipodi.sourceforge.net/DTD/sodipodi-0.dtd"
   xmlns:inkscape="http://www.inkscape.org/namespaces/inkscape"
   viewBox="0 0 32 32"
   version="1.1"
   id="svg37"
   sodipodi:docname="application-x-pem-key.svg"
   inkscape:version="0.92.1 r">
  <metadata
     id="metadata41">
    <rdf:RDF>
      <cc:Work
         rdf:about="">
        <dc:format>image/svg+xml</dc:format>
        <dc:type
           rdf:resource="http://purl.org/dc/dcmitype/StillImage" />
      </cc:Work>
    </rdf:RDF>
  </metadata>
  <sodipodi:namedview
     pagecolor="#ffffff"
     bordercolor="#666666"
     borderopacity="1"
     objecttolerance="10"
     gridtolerance="10"
     guidetolerance="10"
     inkscape:pageopacity="0"
     inkscape:pageshadow="2"
     inkscape:window-width="640"
     inkscape:window-height="480"
     id="namedview39"
     showgrid="false"
     inkscape:zoom="8.375"
     inkscape:cx="-6.6865672"
     inkscape:cy="16"
     inkscape:current-layer="svg37" />
  <defs
     id="defs13">
    <linearGradient
       id="a"
       y1="9"
       x1="20"
       y2="16"
       x2="27"
       gradientUnits="userSpaceOnUse">
      <stop
         stop-color="#383e51"
         id="stop2" />
      <stop
         offset="1"
         stop-color="#655c6f"
         stop-opacity="0"
         id="stop4" />
    </linearGradient>
    <linearGradient
       id="b"
       y1="61"
       y2="3"
       x2="0"
       gradientUnits="userSpaceOnUse"
       gradientTransform="matrix(.5 0 0-.48276 0 31.448)">
      <stop
         stop-color="#ffffff"
         stop-opacity="0"
         id="stop7" />
      <stop
         offset="1"
         stop-color="#ffffff"
         stop-opacity=".2"
         id="stop9" />
    </linearGradient>
    <path
       id="c"
       d="m5 30v-28h15l7 7v21h-7z" />
  </defs>
  <g
     id="g4532"
     transform="translate(38.567164,-2.7462689)">
    <path
       inkscape:connector-curvature="0"
       id="path4508"
       d="m -17.380183,4.7462687 h -13.65097 c -3.066406,0 -5.536011,2.4676663 -5.536011,5.5340723 v 16.929917 c 0,3.066406 2.469605,5.536011 5.536011,5.536011 h 16.929917 c 3.066406,0 5.5340718,-2.469605 5.5340718,-5.536011 v -13.65097 z"
       style="opacity:1;fill:#5bdd5b;fill-opacity:1;fill-rule:evenodd;stroke:none;stroke-width:1.02788651;stroke-linecap:round;stroke-linejoin:bevel;stroke-miterlimit:4;stroke-dasharray:none;stroke-dashoffset:0;stroke-opacity:1" />
    <path
       inkscape:connector-curvature="0"
       id="rect4497-3"
       d="M -8.5671642,13.559288 -17.380183,4.7462688 v 3.2789473 c 0,3.0664059 2.467666,5.5340719 5.534072,5.5340719 z"
       style="opacity:1;fill:#a9eda9;fill-opacity:0.98823529;fill-rule:evenodd;stroke:none;stroke-width:1.02788651;stroke-linecap:round;stroke-linejoin:bevel;stroke-miterlimit:4;stroke-dasharray:none;stroke-dashoffset:0;stroke-opacity:1" />
  </g>
  <g
     id="g35"
     transform="matrix(1.139711,0,0,1.139711,-2.2177105,-3.2615031)"
     style="fill:#ffffff;stroke-width:0.87741542">
    <path
       d="m 18.04,11.967 c -2.168,0 -3.926,1.757 -3.926,3.924 0,0.589 0.133,1.146 0.365,1.646 l -0.672,0.795 -0.059,0.746 c -0.006,0.006 -0.73,0.025 -0.73,0.025 l -0.373,0.271 c 0,0 0.003,0.812 0,0.801 l -0.002,0.002 -0.799,0.014 -0.338,0.385 -0.008,0.729 c 0,0 -0.688,-0.043 -0.758,0.021 -0.441,0.406 -0.738,0.695 -0.738,0.695 l 0.004,1.908 c 0,0 0.255,-0.002 0.373,-0.002 l 5.084,-5.082 c 0.305,0.266 0.658,0.471 1.035,0.633 0.475,0.205 0.991,0.334 1.541,0.334 2.169,0 3.928,-1.755 3.928,-3.922 0,-2.166 -1.758,-3.924 -3.928,-3.924 m 0.75,1.869 c 0.723,0 1.309,0.586 1.309,1.309 0,0.723 -0.586,1.309 -1.309,1.309 -0.723,0 -1.309,-0.586 -1.309,-1.309 0,-0.723 0.586,-1.309 1.309,-1.309"
       id="path31"
       inkscape:connector-curvature="0"
       style="opacity:0.75;stroke-width:0.87741542" />
    <path
       d="m 18.793,13.836 c -0.723,0 -1.309,0.586 -1.309,1.309 0,0.723 0.586,1.309 1.309,1.309 0.723,0 1.309,-0.586 1.309,-1.309 0,-0.723 -0.586,-1.309 -1.309,-1.309 m 0,0.748 c 0.31,0 0.561,0.251 0.561,0.561 0,0.31 -0.251,0.561 -0.561,0.561 -0.31,0 -0.563,-0.251 -0.563,-0.561 0,-0.31 0.253,-0.561 0.563,-0.561 m -3.326,4.262 -5.086,5.084 h 1.869 l 4.439,-4.361 c -0.453,-0.167 -0.866,-0.412 -1.223,-0.723"
       id="path33"
       inkscape:connector-curvature="0"
       style="opacity:0.5;stroke-width:0.87741542" />
  </g>
</svg>
