<?xml version="1.0" encoding="UTF-8" standalone="no"?>
<svg
   xmlns:dc="http://purl.org/dc/elements/1.1/"
   xmlns:cc="http://creativecommons.org/ns#"
   xmlns:rdf="http://www.w3.org/1999/02/22-rdf-syntax-ns#"
   xmlns:svg="http://www.w3.org/2000/svg"
   xmlns="http://www.w3.org/2000/svg"
   xmlns:sodipodi="http://sodipodi.sourceforge.net/DTD/sodipodi-0.dtd"
   xmlns:inkscape="http://www.inkscape.org/namespaces/inkscape"
   width="32"
   height="32"
   version="1.1"
   id="svg37"
   sodipodi:docname="application-x-marble.svg"
   inkscape:version="0.92.1 r">
  <metadata
     id="metadata41">
    <rdf:RDF>
      <cc:Work
         rdf:about="">
        <dc:format>image/svg+xml</dc:format>
        <dc:type
           rdf:resource="http://purl.org/dc/dcmitype/StillImage" />
      </cc:Work>
    </rdf:RDF>
  </metadata>
  <sodipodi:namedview
     pagecolor="#ffffff"
     bordercolor="#666666"
     borderopacity="1"
     objecttolerance="10"
     gridtolerance="10"
     guidetolerance="10"
     inkscape:pageopacity="0"
     inkscape:pageshadow="2"
     inkscape:window-width="640"
     inkscape:window-height="480"
     id="namedview39"
     showgrid="false"
     inkscape:zoom="8.375"
     inkscape:cx="-29.373134"
     inkscape:cy="16"
     inkscape:current-layer="svg37" />
  <defs
     id="defs17">
    <linearGradient
       id="a"
       y1="61"
       y2="3"
       x2="0"
       gradientUnits="userSpaceOnUse"
       gradientTransform="matrix(0.5,0,0,-0.48276,0,31.45)">
      <stop
         stop-color="#22a7f0"
         id="stop2" />
      <stop
         offset="1"
         stop-color="#19b5fe"
         id="stop4" />
    </linearGradient>
    <linearGradient
       id="b"
       y1="518.04"
       y2="524.8"
       x2="0"
       gradientUnits="userSpaceOnUse">
      <stop
         stop-color="#c8e3fe"
         id="stop7" />
      <stop
         offset="1"
         stop-color="#ffffff"
         id="stop9" />
    </linearGradient>
    <linearGradient
       id="c"
       y1="524.8"
       x1="404.57"
       y2="531.8"
       x2="411.57"
       gradientUnits="userSpaceOnUse">
      <stop
         stop-color="#383e51"
         id="stop12" />
      <stop
         offset="1"
         stop-color="#655c6f"
         stop-opacity="0"
         id="stop14" />
    </linearGradient>
  </defs>
  <g
     id="g4540"
     transform="translate(32.716418,0.47761195)">
    <path
       inkscape:connector-curvature="0"
       id="path4508"
       d="m -11.529437,1.5223881 h -13.65097 c -3.066406,0 -5.536011,2.4676663 -5.536011,5.5340721 V 23.986377 c 0,3.066406 2.469605,5.536011 5.536011,5.536011 h 16.9299171 c 3.066406,0 5.534072,-2.469605 5.534072,-5.536011 v -13.65097 z"
       style="opacity:1;fill:#20aaf3;fill-opacity:1;fill-rule:evenodd;stroke:none;stroke-width:1.02788651;stroke-linecap:round;stroke-linejoin:bevel;stroke-miterlimit:4;stroke-dasharray:none;stroke-dashoffset:0;stroke-opacity:1" />
    <path
       inkscape:connector-curvature="0"
       id="rect4497-3"
       d="M -2.7164179,10.335407 -11.529437,1.5223882 v 3.2789473 c 0,3.0664056 2.4676661,5.5340715 5.5340721,5.5340715 z"
       style="opacity:1;fill:#dbedfe;fill-opacity:1;fill-rule:evenodd;stroke:none;stroke-width:1.02788651;stroke-linecap:round;stroke-linejoin:bevel;stroke-miterlimit:4;stroke-dasharray:none;stroke-dashoffset:0;stroke-opacity:1" />
  </g>
  <path
     style="color:#000000;fill:#dbedfe;fill-opacity:1"
     inkscape:connector-curvature="0"
     id="path33"
     d="m 16,10.955224 c -3.314,0 -6,2.686 -6,6 0,3.314 2.686,6 6,6 3.314,0 6,-2.686 6,-6 0,-3.314 -2.686,-6 -6,-6 m 0,1 c 0.173,0 0.332,0.014 0.5,0.031 0.04,0 0.085,0 0.125,0 0.053,0.01 0.104,0.023 0.156,0.031 0.144,0.023 0.267,0.059 0.406,0.094 0.257,0.063 0.511,0.149 0.75,0.25 0.132,0.056 0.249,0.121 0.375,0.188 0,0.01 10e-4,0.02 0,0.031 0.029,0.013 0.045,0.067 0.094,0.094 0.018,0.01 0.014,0.022 0.031,0.031 0.029,0.016 0.068,0.034 0.063,0.062 -0.008,0.04 -0.066,0.032 -0.094,0.062 0.004,0.058 -0.048,0.055 -0.063,0.094 0.009,0.025 0.058,0.033 0.063,0.062 -0.005,0.032 -0.075,0.03 -0.063,0.062 0.054,0.042 0.105,0.01 0.156,0 0.112,-0.014 0.212,-0.01 0.281,-0.062 -0.009,-0.053 0.1,-0.046 0.094,-0.094 0.029,0.021 0.065,0.041 0.094,0.062 -0.011,0.01 -0.019,0.026 -0.031,0.031 -0.021,0.01 -0.043,0.019 -0.063,0.031 -0.028,0.018 -0.062,0.042 -0.094,0.062 -0.023,0.016 -0.07,0.094 -0.094,0.094 -0.029,0 -0.073,-0.037 -0.094,-0.031 -0.03,0.01 -0.029,0.051 -0.063,0.062 -0.066,0.024 -0.196,-0.036 -0.219,0.062 0.028,0.057 0.137,0.031 0.188,0.062 0.031,0.02 0.086,0.091 0.094,0.125 0.008,0.028 0.012,0.158 0,0.188 -0.031,0.08 -0.127,0.063 -0.219,0.062 H 18.31 c -0.155,-0.01 -0.305,-0.08 -0.375,0.031 0.005,0.085 0.019,0.145 0,0.219 -0.014,0.054 -0.097,0.11 -0.094,0.156 10e-4,0.024 0.057,0.06 0.063,0.094 0.004,0.018 -0.008,0.045 0,0.062 0.026,0.049 0.079,-0.01 0.125,0 0.044,0.01 0.094,0.076 0.094,0.125 0,0.035 -0.009,0.091 -0.031,0.125 -0.044,0.066 -0.125,0.058 -0.188,0.094 -0.052,0.03 -0.063,0.105 -0.094,0.156 -0.033,0.056 -0.075,0.076 -0.063,0.156 -0.045,0.089 -0.094,0.144 -0.188,0.188 -0.027,0.012 -0.069,0.013 -0.094,0.031 -0.02,0.014 -0.034,0.062 -0.063,0.094 -0.035,0.039 -0.075,0.064 -0.094,0.094 -0.014,0.023 -0.016,0.062 -0.031,0.094 -0.022,0.042 -0.066,0.052 -0.094,0.094 -0.013,0.02 -0.017,0.068 -0.031,0.094 -0.032,0.058 -0.068,0.105 -0.063,0.156 0.005,0.048 0.06,0.05 0.063,0.094 0.003,0.024 -0.032,0.036 -0.031,0.062 0.001,0.038 0.028,0.064 0.031,0.094 0.007,0.074 -0.048,0.106 -0.063,0.156 -0.007,0.024 0.006,0.043 0,0.062 -0.012,0.037 -0.062,0.081 -0.063,0.125 -0.001,0.031 0.06,0.05 0.063,0.094 0.002,0.029 -0.037,0.066 -0.031,0.094 0.011,0.054 0.114,0.114 0.156,0.156 0.057,0.057 0.131,0.096 0.156,0.156 0.021,0.051 0.024,0.149 0.063,0.188 0.029,0.028 0.088,0.033 0.125,0.062 0.035,0.027 0.057,0.033 0.094,0.062 0.061,0.048 0.153,0.163 0.25,0.156 0.051,-0.01 0.099,-0.053 0.156,-0.062 0.059,-0.01 0.128,-0.036 0.188,-0.031 0.046,0.01 0.108,0.034 0.156,0.031 0.05,-0.01 0.099,-0.01 0.156,-0.031 0.099,-0.043 0.262,-0.115 0.406,-0.094 0.11,0.016 0.111,0.139 0.188,0.188 0.088,0.01 0.149,-0.017 0.219,0 0.053,0.013 0.12,0.083 0.125,0.125 0.005,0.043 -0.057,0.098 -0.063,0.125 -0.014,0.058 0.01,0.119 0,0.156 -0.008,0.029 -0.032,0.065 -0.031,0.094 0,0.026 0.036,0.091 0.063,0.125 0.033,0.042 0.085,0.08 0.125,0.125 0.073,0.084 0.105,0.17 0.156,0.281 0.013,0.028 -0.012,0.058 0,0.094 -0.022,0.168 -0.077,0.283 -0.188,0.469 -0.052,0.06 -0.126,0.113 -0.125,0.188 -0.004,0.18 0.102,0.295 0.094,0.469 -0.018,0.234 0.018,0.25 0,0.375 0.079,0.04 0.023,0.167 0,0.25 -0.034,0.099 -0.075,0.121 -0.094,0.188 0.053,0.023 0.129,0.014 0.188,0 -0.03,0.031 -0.063,0.063 -0.094,0.094 -0.226,0.226 -0.484,0.445 -0.75,0.625 -0.516,0.349 -1.09,0.613 -1.719,0.75 -0.344,0.075 -0.697,0.094 -1.063,0.094 -0.19,0 -0.378,-0.01 -0.563,-0.031 -0.147,-0.017 -0.295,-0.033 -0.438,-0.062 -0.283,-0.058 -0.549,-0.178 -0.813,-0.281 -0.009,-0.017 -0.033,-0.042 -0.031,-0.062 0.052,-0.022 0.15,0.074 0.188,0 0.019,-0.035 -0.025,-0.121 0,-0.156 0.018,-0.024 0.119,-0.024 0.156,-0.031 0.053,-0.01 0.126,-0.017 0.156,-0.031 0.033,-0.021 0.068,-0.095 0.063,-0.156 -0.003,-0.029 -0.04,-0.036 -0.063,-0.062 -0.019,-0.022 0.013,-0.042 0,-0.062 -0.024,-0.035 -0.084,-0.043 -0.094,-0.094 0.072,-0.014 0.177,0.06 0.281,0.031 0.049,-0.014 0.133,-0.11 0.156,-0.156 0.007,-0.014 -0.008,-0.044 0,-0.062 0.009,-0.018 0.028,-0.053 0.031,-0.062 0.007,-0.027 -0.006,-0.013 0,-0.031 0.018,-0.051 0.064,-0.089 0.094,-0.125 0.023,-0.028 0.073,-0.065 0.094,-0.094 0.024,-0.031 0.015,-0.034 0.031,-0.062 0.015,-0.091 -0.053,-0.17 -0.031,-0.25 0.024,-0.09 0.163,-0.146 0.25,-0.188 0.03,-0.014 0.069,-0.022 0.094,-0.031 0.06,-0.021 0.132,-0.043 0.188,-0.062 0.094,-0.034 0.11,-0.102 0.156,-0.188 0.022,-0.04 0.058,-0.096 0.063,-0.125 0.004,-0.026 -0.005,-0.032 0,-0.062 0.005,-0.029 -0.008,-0.06 0,-0.094 0.011,-0.043 0.031,-0.14 0.031,-0.188 0,-0.04 -0.03,-0.058 -0.031,-0.094 -0.007,-0.13 0.046,-0.116 0.094,-0.188 0.024,-0.035 0.046,-0.1 0.063,-0.125 0.081,-0.12 0.229,-0.162 0.219,-0.344 -0.004,-0.06 -0.05,-0.2 -0.094,-0.219 -0.025,-0.011 -0.057,-0.018 -0.094,-0.031 -0.118,-0.044 -0.221,-0.178 -0.344,-0.188 h -0.063 c -0.048,0 -0.102,-0.024 -0.156,-0.031 -0.034,-0.01 -0.105,0.01 -0.125,0 -0.031,-0.015 -0.038,-0.077 -0.063,-0.094 -0.02,-0.014 -0.063,-0.02 -0.094,-0.031 -0.049,-0.018 -0.068,-0.059 -0.125,-0.062 -0.018,0 -0.043,0.01 -0.063,0 -0.031,-0.01 -0.065,-0.013 -0.094,-0.031 -0.036,-0.022 -0.079,-0.031 -0.094,-0.062 0.033,-0.108 -0.072,-0.125 -0.094,-0.188 -0.01,-0.029 0.01,-0.099 0,-0.125 -0.013,-0.037 -0.053,-0.063 -0.094,-0.094 -0.072,-0.056 -0.116,-0.081 -0.219,-0.094 -0.046,-0.01 -0.101,0.01 -0.156,0 -0.058,-0.01 -0.144,-0.044 -0.188,-0.094 -0.042,-0.049 -0.057,-0.102 -0.094,-0.125 -0.035,-0.022 -0.07,-0.04 -0.094,-0.062 -0.011,-0.01 -0.021,-0.01 -0.031,-0.031 -0.018,-0.037 -0.053,-0.049 -0.031,-0.094 -0.04,-0.02 -0.019,0.038 -0.063,0.031 -0.039,-0.055 -0.068,-0.11 -0.156,-0.094 -0.04,0.01 -0.078,0.093 -0.125,0.094 -0.039,0 -0.074,-0.086 -0.125,-0.094 -0.039,-0.01 -0.098,0.036 -0.125,0.031 -0.043,-0.01 -0.055,-0.036 -0.094,-0.062 -0.029,-0.019 -0.078,-0.063 -0.094,-0.062 -0.05,0 -0.087,0.099 -0.156,0.062 -0.034,-0.043 0.071,-0.054 0.031,-0.094 -0.03,-0.029 -0.038,0.017 -0.063,0.031 -0.028,0.018 -0.063,0.02 -0.094,0.031 -0.069,0.026 -0.134,0.034 -0.188,0.062 -0.05,0.026 -0.065,0.043 -0.094,0.094 -0.023,0.042 -0.059,0.123 -0.094,0.125 -0.042,0 -0.056,-0.045 -0.094,-0.062 -0.115,-0.05 -0.186,0.029 -0.281,0.031 -0.088,0 -0.223,-0.136 -0.219,-0.219 0.003,-0.051 0.025,-0.125 0.031,-0.188 0.005,-0.05 0.062,-0.111 0.063,-0.156 10e-4,-0.062 -0.116,-0.087 -0.156,-0.094 -0.094,-0.017 -0.206,0.042 -0.313,0 -0.02,-0.034 0.019,-0.06 0.031,-0.094 0.007,-0.018 -0.007,-0.042 0,-0.062 0.012,-0.032 0.079,-0.06 0.094,-0.094 0.011,-0.026 -0.011,-0.061 0,-0.094 0.013,-0.036 0.06,-0.068 0.063,-0.094 0.004,-0.034 -0.036,-0.072 -0.063,-0.094 -0.083,0.01 -0.139,0.01 -0.188,0.031 -0.108,0.049 -0.079,0.185 -0.188,0.219 -0.037,0.012 -0.083,0.024 -0.125,0.031 -0.018,0.01 -0.042,0 -0.063,0 0.002,-0.01 -0.002,-0.021 0,-0.031 0.005,-0.023 0.026,-0.04 0.031,-0.062 0.071,-0.325 0.181,-0.64 0.313,-0.938 h 0.031 c 0.038,0.01 0.061,0.06 0.094,0.062 0.092,0.01 0.111,-0.085 0.188,-0.125 0.078,0.011 0.117,-0.01 0.188,0 0.048,0.01 0.118,0.058 0.156,0.062 0.032,0 0.033,-0.035 0.063,-0.031 0.03,0.01 0.089,0.058 0.094,0.094 0.005,0.045 -0.044,0.107 -0.031,0.156 0.047,0.048 0.152,0.066 0.219,0.094 0.044,-0.037 0.007,-0.104 0,-0.156 -10e-4,-0.023 0.003,-0.073 0,-0.094 -0.005,-0.036 -0.031,-0.063 -0.031,-0.094 0,-0.143 0.123,-0.194 0.219,-0.25 0.041,-0.024 0.089,-0.076 0.125,-0.094 0.051,-0.025 0.083,-0.01 0.125,-0.031 0.076,-0.043 0.128,-0.108 0.188,-0.156 0.027,-0.065 -0.003,-0.155 0,-0.219 0.027,-0.017 0.065,0 0.094,0 0.046,-0.01 0.068,-0.068 0.094,-0.094 0.015,-0.015 0.045,-0.016 0.063,-0.031 0.046,-0.036 0.054,-0.078 0.094,-0.094 0.014,-0.01 0.041,-0.024 0.063,-0.031 0.03,-0.01 0.077,-0.013 0.125,-0.031 0.031,-0.011 0.113,-0.018 0.125,-0.031 0.015,-0.015 -0.004,-0.071 0,-0.094 0.024,-0.113 0.18,-0.118 0.281,-0.156 0.07,-0.026 0.141,-0.108 0.219,-0.094 -0.015,0.054 -0.075,0.06 -0.063,0.125 0.017,0.091 0.124,-0.018 0.156,-0.031 0.061,-0.026 0.17,-0.064 0.25,-0.094 0.07,-0.025 0.191,-0.044 0.125,-0.125 -0.055,-0.01 -0.077,0.043 -0.125,0.062 -0.033,0.01 -0.034,-0.028 -0.063,-0.031 -0.027,0 -0.036,0.036 -0.063,0.031 -0.027,-0.01 -0.058,-0.061 -0.063,-0.094 -0.011,-0.084 0.06,-0.094 0.094,-0.156 -0.023,-0.076 -0.124,-0.033 -0.188,-0.062 0.007,-0.045 0.041,-0.084 0.094,-0.094 0.043,-0.01 0.161,0.01 0.188,0.031 0.015,0.013 -0.023,0.042 0,0.062 0.026,0.023 0.06,0.01 0.094,0 0.012,-0.057 -0.072,-0.025 -0.063,-0.062 0.068,-0.044 0.198,-0.02 0.281,-0.031 0.048,-0.01 0.113,-0.039 0.156,-0.062 0.04,-0.023 0.052,-0.069 0.094,-0.031 0.012,0.041 -0.008,0.072 -0.031,0.094 -0.077,0.068 -0.159,0.14 -0.219,0.219 0.037,0.036 0.094,0.024 0.156,0.031 0.024,0.01 0.069,0 0.094,0 0.03,0.01 0.07,-0.01 0.094,0 0.042,0.01 0.052,0.094 0.094,0.094 0.068,0 0.039,-0.08 0,-0.125 0.012,-0.047 0.048,-0.092 0.031,-0.125 -0.031,-0.062 -0.15,0.018 -0.156,-0.062 -0.004,-0.05 0.045,-0.056 0.063,-0.094 -0.008,-0.096 0.072,-0.101 0.063,-0.188 -0.005,-0.036 -0.038,-0.028 -0.063,-0.062 -0.013,-0.018 -0.016,-0.08 -0.031,-0.094 -0.052,-0.044 -0.15,-0.01 -0.156,-0.094 -0.003,-0.05 0.007,-0.103 0,-0.156 -0.007,-0.051 -0.05,-0.209 -0.094,-0.219 -0.056,-0.012 -0.089,0.094 -0.156,0.125 -0.036,0.017 -0.119,0.037 -0.156,0.031 -0.024,-0.01 -0.06,-0.015 -0.063,-0.062 -0.004,-0.042 0.047,-0.061 0.063,-0.094 0.004,-0.01 -0.002,-0.02 0,-0.031 0.073,-0.02 0.145,-0.045 0.219,-0.062 0.042,-0.01 0.083,-0.023 0.125,-0.031 0.03,-0.01 0.064,0.01 0.094,0 0.134,-0.025 0.269,-0.049 0.406,-0.062 0.166,-0.017 0.329,-0.031 0.5,-0.031 z m -2.031,0.469 c -0.032,0.183 -0.203,0.255 -0.406,0.25 -0.046,0.044 -0.006,0.126 -0.031,0.188 -0.021,0.051 -0.105,0.098 -0.156,0.094 -0.037,0 -0.094,-0.059 -0.094,-0.094 0,-0.043 0.068,-0.045 0.031,-0.094 0.002,-0.01 0.021,-0.021 0.031,-0.031 0.02,-0.013 0.042,-0.019 0.063,-0.031 0.181,-0.111 0.367,-0.193 0.563,-0.281 m 4.188,0.187 c -0.018,0.01 -0.015,0.021 -0.031,0.031 -0.038,0.023 -0.065,0.052 -0.094,0.062 -0.041,0.015 -0.088,0.025 -0.094,0.062 -0.005,0.031 0.032,0.034 0.031,0.062 -0.015,0.037 -0.023,0.049 -0.031,0.094 0.051,0.083 0.156,-0.018 0.219,-0.031 0.028,-0.01 0.048,-0.01 0.063,-0.031 0.017,-0.027 0.018,-0.056 0.031,-0.094 0.014,-0.042 0.067,-0.057 0.063,-0.094 -0.004,-0.037 -0.094,-0.067 -0.156,-0.062 m -5.469,0.626 c 0.047,0.038 0.114,0.121 0.031,0.156 -0.01,0.01 -0.132,0.035 -0.156,0.031 -0.01,0 -0.023,-0.024 -0.031,-0.031 0.052,-0.05 0.102,-0.108 0.156,-0.156 m 0.188,0.188 c 0.024,0 0.034,0.061 0.063,0.062 0.027,0 0.046,-0.035 0.063,-0.031 0.042,0.011 0.071,0.094 0.031,0.125 -0.033,0.01 -0.038,-0.035 -0.063,-0.031 -0.068,0.012 -0.105,0.16 -0.156,0.156 -0.048,-0.01 -0.08,-0.121 -0.031,-0.156 10e-4,-0.03 -0.002,-0.031 0,-0.062 0.015,-0.018 0.054,-0.065 0.094,-0.062 z m -0.25,0.031 c 0.014,0 0.026,-0.01 0.031,0 -0.007,0.053 -0.022,0.069 -0.063,0.094 -0.071,0.043 -0.133,0.096 -0.156,0.188 -0.007,0.027 -0.091,0.1 -0.125,0.094 -0.079,-0.017 0.045,-0.165 0.063,-0.188 0.02,-0.025 0.039,-0.034 0.063,-0.062 0.023,-0.028 0.041,-0.078 0.063,-0.094 0.024,-0.017 0.083,-0.033 0.125,-0.031 z m 6.781,0.156 c 0.079,-0.01 0.12,0.077 0.156,0.125 0.03,0.039 0.107,0.098 0.156,0.125 0.028,0.015 0.063,0.049 0.094,0.062 0.065,0.029 0.185,0.124 0.188,0.188 0.001,0.032 -0.036,0.064 -0.031,0.094 0.049,0.01 0.093,-0.076 0.094,-0.125 0.092,0.13 0.171,0.268 0.25,0.406 0.038,0.065 0.09,0.12 0.125,0.188 -0.044,0.013 -0.055,0.02 -0.063,0.062 -0.01,0.056 0.022,0.146 -0.063,0.156 -0.053,0.01 -0.115,-0.045 -0.188,-0.062 -0.03,-0.01 -0.07,0.01 -0.094,0 -0.055,-0.018 -0.047,-0.092 -0.094,-0.125 -0.027,-0.019 -0.113,-0.058 -0.156,-0.062 -0.027,0 -0.034,0.01 -0.063,0 -0.034,-0.01 -0.097,0.014 -0.125,0 -0.027,-0.017 -0.087,-0.071 -0.094,-0.094 -0.011,-0.037 0.092,-0.062 0.094,-0.094 0.002,-0.024 -0.026,-0.057 -0.031,-0.094 -0.004,-0.022 0.005,-0.047 0,-0.062 -0.007,-0.026 -0.053,-0.03 -0.094,-0.031 -0.036,0 -0.063,0 -0.094,0 -0.044,0 -0.133,0 -0.188,0 -0.033,0 -0.063,0 -0.094,0 -0.087,0.01 -0.151,-0.01 -0.219,0 -0.049,0 -0.142,0.042 -0.188,0.062 -0.023,0.011 -0.033,0.016 -0.063,0.031 -0.014,0.01 -0.045,0.023 -0.063,0.031 -0.028,0.013 -0.067,0.054 -0.094,0.062 -0.039,0.01 -0.085,-0.01 -0.156,0 -0.051,0 -0.124,-0.033 -0.125,-0.094 -0.001,-0.093 0.162,-0.045 0.25,-0.062 0.033,-0.01 0.054,-0.038 0.094,-0.062 0.019,-0.011 0.013,-0.019 0.031,-0.031 0.03,-0.021 0.089,-0.07 0.094,-0.094 0.004,-0.022 -0.003,-0.045 0,-0.062 0.004,-0.021 0.036,-0.034 0.063,-0.062 0.042,-0.042 0.073,-0.098 0.125,-0.125 0.035,-0.018 0.078,-0.034 0.094,-0.062 0.004,-0.032 -0.001,-0.032 0,-0.062 0.022,-0.02 0.045,-0.027 0.063,-0.031 0.054,-0.012 0.093,0 0.156,0 0.027,0 0.065,0.013 0.094,0 0.024,-0.016 0.038,-0.051 0.063,-0.062 0.026,-0.014 0.062,-0.029 0.094,-0.031 z m 0.563,0.594 h -0.125 c -0.044,0 -0.099,-0.023 -0.125,0 0.037,0.06 0.105,0.079 0.188,0.094 0.03,-0.022 0.048,-0.055 0.063,-0.094 m -6.844,-0.563 h 0.094 c 0.025,0 0.053,-0.01 0.063,0 -0.016,0.066 -0.167,0.055 -0.219,0.031 0.003,-0.025 0.031,-0.027 0.063,-0.031 m -0.219,0.125 c -0.044,0.032 -0.087,0.072 -0.156,0.094 -0.038,0.012 -0.087,0.011 -0.094,-0.031 -0.008,-0.052 0.06,-0.026 0.094,-0.031 0.044,-0.01 0.105,-0.029 0.156,-0.031 z m 6.5,0 c -0.033,0.011 -0.049,0.084 0,0.094 0.023,-0.014 0.037,-0.051 0.031,-0.094 -0.013,-0.014 -0.021,-0.01 -0.031,0 m -0.063,0.156 c 0.001,0.056 0.011,0.108 0,0.156 0.032,0.062 0.109,0.011 0.125,-0.031 0.019,-0.104 -0.014,-0.138 -0.063,-0.125 -0.016,0.01 -0.046,-0.013 -0.063,0 m -8.281,2.343 c 0.056,0.051 0.089,0.123 0.156,0.156 0.025,0.013 0.062,0.023 0.094,0.031 0.026,0.01 0.038,-0.01 0.063,0 0.053,0.018 0.114,0.043 0.156,0.062 0.064,0.028 0.132,0.124 0.188,0.156 0.003,0.032 -0.01,0.07 0,0.094 0.026,0.035 0.052,0.07 0.094,0.094 0.051,0.028 0.077,0.072 0.125,0.094 0.017,0.01 0.036,-0.01 0.063,0 0.066,0.02 0.099,0.111 0.156,0.094 0.037,-0.011 0.025,-0.058 0.031,-0.094 0.025,-0.027 0.055,-0.062 0.094,-0.062 0.062,0 0.071,0.096 0.094,0.156 0.013,0.034 0.053,0.058 0.063,0.094 0.015,0.062 0.013,0.244 0,0.281 -0.016,0.046 -0.087,0.043 -0.125,0.094 -0.018,0.024 -0.017,0.077 -0.031,0.094 -0.024,0.029 -0.045,0.035 -0.063,0.062 -0.01,0.015 -0.022,0.042 -0.031,0.062 -0.03,0.064 -0.087,0.111 -0.063,0.188 0.01,0.031 0.063,0.057 0.063,0.094 0,0.044 -0.087,0.077 -0.094,0.125 -0.005,0.035 0.02,0.078 0.031,0.125 0.008,0.035 0.073,0.071 0.094,0.094 0.035,0.039 0.062,0.107 0.094,0.156 0.063,0.097 0.094,0.217 0.156,0.313 0.033,0.049 0.103,0.073 0.125,0.125 0.011,0.026 -0.01,0.07 0,0.094 0.036,0.081 0.2,0.179 0.281,0.219 0.038,0.019 0.09,0.011 0.125,0.031 0.053,0.03 0.161,0.11 0.188,0.156 0.024,0.042 0.019,0.152 0.031,0.219 0.015,0.088 -0.004,0.155 0,0.25 0.003,0.052 0.031,0.073 0.031,0.125 0,0.018 10e-4,0.075 0,0.094 -0.001,0.062 0.005,0.125 0,0.188 -0.003,0.034 -0.002,0.065 0,0.094 0.003,0.031 0.029,0.035 0.031,0.062 0.002,0.029 -0.034,0.071 -0.031,0.094 0.007,0.063 0.05,0.098 0.063,0.156 0.01,0.046 0.037,0.164 0.031,0.219 -0.004,0.029 -0.027,0.061 -0.031,0.094 -0.003,0.026 0.004,0.039 0,0.062 -0.003,0.023 0.006,0.043 0,0.062 -0.032,-0.02 -0.062,-0.041 -0.094,-0.062 -0.266,-0.18 -0.524,-0.399 -0.75,-0.625 -0.031,-0.031 -0.064,-0.062 -0.094,-0.094 -0.181,-0.19 -0.351,-0.408 -0.5,-0.625 -0.014,-0.02 -0.018,-0.043 -0.031,-0.062 -0.173,-0.259 -0.315,-0.522 -0.438,-0.813 -0.009,-0.021 -0.023,-0.041 -0.031,-0.062 -0.105,-0.259 -0.189,-0.534 -0.25,-0.813 -0.012,-0.053 -0.021,-0.103 -0.031,-0.156 -0.025,-0.134 -0.049,-0.269 -0.063,-0.406 -0.017,-0.169 -0.031,-0.329 -0.031,-0.501 0,-0.238 0.03,-0.459 0.063,-0.688 m 1.938,0.531 c 0.048,-0.022 0.039,0.056 0,0.062 -0.037,0.01 -0.036,-0.044 0,-0.062" />
</svg>
