<?xml version="1.0" encoding="UTF-8" standalone="no"?>
<svg
   xmlns:dc="http://purl.org/dc/elements/1.1/"
   xmlns:cc="http://creativecommons.org/ns#"
   xmlns:rdf="http://www.w3.org/1999/02/22-rdf-syntax-ns#"
   xmlns:svg="http://www.w3.org/2000/svg"
   xmlns="http://www.w3.org/2000/svg"
   xmlns:sodipodi="http://sodipodi.sourceforge.net/DTD/sodipodi-0.dtd"
   xmlns:inkscape="http://www.inkscape.org/namespaces/inkscape"
   width="32"
   height="32"
   id="svg2"
   version="1.1"
   inkscape:version="0.92.1 r"
   sodipodi:docname="application-x-designer.svg">
  <metadata
     id="metadata49">
    <rdf:RDF>
      <cc:Work
         rdf:about="">
        <dc:format>image/svg+xml</dc:format>
        <dc:type
           rdf:resource="http://purl.org/dc/dcmitype/StillImage" />
      </cc:Work>
    </rdf:RDF>
  </metadata>
  <sodipodi:namedview
     pagecolor="#ffffff"
     bordercolor="#666666"
     borderopacity="1"
     objecttolerance="10"
     gridtolerance="10"
     guidetolerance="10"
     inkscape:pageopacity="0"
     inkscape:pageshadow="2"
     inkscape:window-width="1920"
     inkscape:window-height="1025"
     id="namedview47"
     showgrid="false"
     inkscape:zoom="7.375"
     inkscape:cx="-8.6779661"
     inkscape:cy="11.42175"
     inkscape:window-x="0"
     inkscape:window-y="26"
     inkscape:window-maximized="1"
     inkscape:current-layer="svg2" />
  <defs
     id="defs4">
    <linearGradient
       id="a"
       y1="61"
       y2="3"
       x2="0"
       gradientUnits="userSpaceOnUse"
       gradientTransform="matrix(0.5,0,0,-0.48276,0,31.45)">
      <stop
         stop-color="#22a7f0"
         id="stop7" />
      <stop
         offset="1"
         stop-color="#19b5fe"
         id="stop9" />
    </linearGradient>
    <linearGradient
       id="b"
       y1="518.04"
       y2="524.8"
       x2="0"
       gradientUnits="userSpaceOnUse"
       gradientTransform="translate(-384.57,-515.8)">
      <stop
         stop-color="#c8e3fe"
         id="stop12" />
      <stop
         offset="1"
         stop-color="#ffffff"
         id="stop14" />
    </linearGradient>
    <linearGradient
       id="c"
       y1="524.8"
       x1="404.57"
       y2="531.8"
       x2="411.57"
       gradientUnits="userSpaceOnUse"
       gradientTransform="translate(-384.57,-515.8)">
      <stop
         stop-color="#383e51"
         id="stop17" />
      <stop
         offset="1"
         stop-color="#655c6f"
         stop-opacity="0"
         id="stop19" />
    </linearGradient>
  </defs>
  <g
     id="g4515"
     transform="translate(43.118644,-9.627119)">
    <path
       inkscape:connector-curvature="0"
       id="path4508"
       d="m -21.931663,11.627119 h -13.65097 c -3.066406,0 -5.536011,2.467666 -5.536011,5.534072 v 16.929917 c 0,3.066406 2.469605,5.536011 5.536011,5.536011 h 16.929917 c 3.066406,0 5.534072,-2.469605 5.534072,-5.536011 v -13.65097 z"
       style="opacity:1;fill:#59d4fb;fill-opacity:1;fill-rule:evenodd;stroke:none;stroke-width:1.02788651;stroke-linecap:round;stroke-linejoin:bevel;stroke-miterlimit:4;stroke-dasharray:none;stroke-dashoffset:0;stroke-opacity:1" />
    <path
       inkscape:connector-curvature="0"
       id="rect4497-3"
       d="m -13.118644,20.440138 -8.813019,-8.813019 v 3.278947 c 0,3.066406 2.467666,5.534072 5.534072,5.534072 z"
       style="opacity:1;fill:#4e91a8;fill-opacity:1;fill-rule:evenodd;stroke:none;stroke-width:1.02788651;stroke-linecap:round;stroke-linejoin:bevel;stroke-miterlimit:4;stroke-dasharray:none;stroke-dashoffset:0;stroke-opacity:1" />
  </g>
  <path
     style="opacity:1;fill:#4e91a8;fill-opacity:1"
     d="m 15.983395,9.9471975 c -0.247217,0 -0.449219,0.2000495 -0.449219,0.4472665 v 0.408203 c -0.797053,0.204284 -1.369141,0.912201 -1.369141,1.761718 0,0.594464 0.283573,1.122121 0.726563,1.455078 0.04716,0.05573 0.07617,0.126483 0.07617,0.205078 0,0.02286 -10e-4,0.04498 -0.0039,0.06641 l -1.96875,4.173829 h -0.814454 c -0.132897,0 -0.242187,0.107338 -0.242187,0.240235 0,0.132897 0.10929,0.240234 0.242187,0.240234 h 0.587891 l -1.519531,3.222656 c -0.09574,0.204347 -0.04849,0.440848 0.101562,0.59375 l -0.585937,1.189453 0.925781,-1.001953 c 0.245788,0.0643 0.509632,-0.05327 0.621094,-0.289062 l 1.751953,-3.714844 h 1.539062 v 0.318359 c 0,0.202919 0.166747,0.367188 0.371094,0.367188 h 0.01953 c 0.204347,0 0.371094,-0.164269 0.371094,-0.367188 v -0.318359 h 1.574219 l 1.753906,3.714844 c 0.110033,0.237214 0.372829,0.353368 0.617188,0.289062 l 0.925781,1.001953 -0.583984,-1.189453 c 0.148616,-0.152902 0.197305,-0.387974 0.101562,-0.59375 l -1.519531,-3.222656 h 0.550781 c 0.134326,0 0.242188,-0.107337 0.242188,-0.240234 0,-0.132897 -0.107862,-0.238835 -0.242188,-0.240235 h -0.777344 l -1.96875,-4.173828 c -0.0029,-0.02144 -0.0039,-0.04355 -0.0039,-0.06641 0,-0.07717 0.02849,-0.149347 0.07422,-0.205078 0.44299,-0.332957 0.730469,-0.860614 0.730469,-1.455078 0,-0.860454 -0.600938,-1.575386 -1.40625,-1.769531 v -0.400391 c -1e-6,-0.247217 -0.200573,-0.4472665 -0.449219,-0.4472665 z m 0.429687,1.6484375 c 0.378596,0.159423 0.642578,0.53362 0.642578,0.96875 0,0.580174 -0.471655,1.048828 -1.054687,1.048828 -0.58589,0 -1.054688,-0.468654 -1.054688,-1.048828 0,-0.420482 0.253405,-0.777593 0.613282,-0.945312 0.05541,0.183337 0.220378,0.320312 0.423828,0.320312 0.211176,0 0.382331,-0.147399 0.429687,-0.34375 z m -0.419922,3.488281 h 0.0078 0.0098 c 0.05716,0 0.107234,0.02835 0.138672,0.06836 l 1.5625,3.3125 h -1.347656 v -0.388672 c 0,-0.204347 -0.166747,-0.367188 -0.371094,-0.367188 h -0.01953 c -0.204347,0 -0.371094,0.16427 -0.371094,0.367188 v 0.388672 h -1.3125 l 1.5625,-3.3125 c 0.03287,-0.04144 0.08346,-0.06836 0.140625,-0.06836 z"
     id="path39"
     inkscape:connector-curvature="0" />
</svg>
