<?xml version="1.0" encoding="UTF-8" standalone="no"?>
<svg
   xmlns:dc="http://purl.org/dc/elements/1.1/"
   xmlns:cc="http://creativecommons.org/ns#"
   xmlns:rdf="http://www.w3.org/1999/02/22-rdf-syntax-ns#"
   xmlns:svg="http://www.w3.org/2000/svg"
   xmlns="http://www.w3.org/2000/svg"
   xmlns:sodipodi="http://sodipodi.sourceforge.net/DTD/sodipodi-0.dtd"
   xmlns:inkscape="http://www.inkscape.org/namespaces/inkscape"
   width="32"
   height="32"
   version="1.1"
   id="svg16"
   sodipodi:docname="application-x-acad.svg"
   inkscape:version="0.92.1 r">
  <metadata
     id="metadata22">
    <rdf:RDF>
      <cc:Work
         rdf:about="">
        <dc:format>image/svg+xml</dc:format>
        <dc:type
           rdf:resource="http://purl.org/dc/dcmitype/StillImage" />
      </cc:Work>
    </rdf:RDF>
  </metadata>
  <defs
     id="defs20" />
  <sodipodi:namedview
     pagecolor="#ffffff"
     bordercolor="#666666"
     borderopacity="1"
     objecttolerance="10"
     gridtolerance="10"
     guidetolerance="10"
     inkscape:pageopacity="0"
     inkscape:pageshadow="2"
     inkscape:window-width="1680"
     inkscape:window-height="978"
     id="namedview18"
     showgrid="false"
     inkscape:zoom="16"
     inkscape:cx="-7.7017534"
     inkscape:cy="18.016847"
     inkscape:window-x="0"
     inkscape:window-y="0"
     inkscape:window-maximized="1"
     inkscape:current-layer="svg16" />
  <path
     style="opacity:1;fill:#1273b2;fill-opacity:1;fill-rule:evenodd;stroke:none;stroke-width:1.02788651;stroke-linecap:round;stroke-linejoin:bevel;stroke-miterlimit:4;stroke-dasharray:none;stroke-dashoffset:0;stroke-opacity:1"
     d="M 21.186981,1.9999999 H 7.536011 C 4.469605,1.9999999 2,4.4676662 2,7.534072 V 24.463989 C 2,27.530395 4.469605,30 7.536011,30 H 24.465928 C 27.532334,30 30,27.530395 30,24.463989 v -13.65097 z"
     id="path4508"
     inkscape:connector-curvature="0" />
  <path
     style="opacity:1;fill:#00467a;fill-opacity:1;fill-rule:evenodd;stroke:none;stroke-width:1.02788651;stroke-linecap:round;stroke-linejoin:bevel;stroke-miterlimit:4;stroke-dasharray:none;stroke-dashoffset:0;stroke-opacity:1"
     d="M 30,10.813019 21.186981,2 v 3.2789473 c 0,3.0664056 2.467666,5.5340717 5.534072,5.5340717 z"
     id="rect4497-3"
     inkscape:connector-curvature="0" />
  <path
     style="fill:#90bdc9;stroke-width:1.12;fill-opacity:1"
     d="M 11.52,2 V 16.56 H 7.04 v 4.48 l -5.08375,0 v 2.24 l 5.08375,0 v 4.48 h 4.48 V 30 h 2.24 v -2.24 h 4.48 V 23.28 H 29.98125 V 21.04 H 18.24 V 16.56 H 13.76 V 2 Z M 9.28,18.8 H 16 v 6.72 H 9.28 Z m 2.24,2.24 v 2.24 h 2.24 v -2.24 z"
     id="path14"
     inkscape:connector-curvature="0"
     sodipodi:nodetypes="ccccccccccccccccccccccccccccccc" />
</svg>
