<?xml version="1.0" encoding="UTF-8" standalone="no"?>
<svg
   xmlns:dc="http://purl.org/dc/elements/1.1/"
   xmlns:cc="http://creativecommons.org/ns#"
   xmlns:rdf="http://www.w3.org/1999/02/22-rdf-syntax-ns#"
   xmlns:svg="http://www.w3.org/2000/svg"
   xmlns="http://www.w3.org/2000/svg"
   xmlns:sodipodi="http://sodipodi.sourceforge.net/DTD/sodipodi-0.dtd"
   xmlns:inkscape="http://www.inkscape.org/namespaces/inkscape"
   width="32"
   height="32"
   version="1"
   id="svg22"
   sodipodi:docname="image-svg+xml-compressed.svg"
   inkscape:version="0.92.1 r">
  <metadata
     id="metadata28">
    <rdf:RDF>
      <cc:Work
         rdf:about="">
        <dc:format>image/svg+xml</dc:format>
        <dc:type
           rdf:resource="http://purl.org/dc/dcmitype/StillImage" />
      </cc:Work>
    </rdf:RDF>
  </metadata>
  <defs
     id="defs26" />
  <sodipodi:namedview
     pagecolor="#ffffff"
     bordercolor="#666666"
     borderopacity="1"
     objecttolerance="10"
     gridtolerance="10"
     guidetolerance="10"
     inkscape:pageopacity="0"
     inkscape:pageshadow="2"
     inkscape:window-width="1680"
     inkscape:window-height="965"
     id="namedview24"
     showgrid="false"
     inkscape:zoom="5.2149125"
     inkscape:cx="-44.611207"
     inkscape:cy="34.646982"
     inkscape:window-x="0"
     inkscape:window-y="0"
     inkscape:window-maximized="1"
     inkscape:current-layer="svg22" />
  <g
     id="g4519"
     transform="translate(46.777122,2.6963829)">
    <path
       inkscape:connector-curvature="0"
       id="path4508-3"
       d="m -25.590141,-0.69638273 h -13.65097 c -3.066406,0 -5.536011,2.46766623 -5.536011,5.53407203 V 21.767606 c 0,3.066406 2.469605,5.536011 5.536011,5.536011 h 16.929917 c 3.066406,0 5.534072,-2.469605 5.534072,-5.536011 V 8.1166362 Z"
       style="opacity:1;fill:#bf9a66;fill-opacity:1;fill-rule:evenodd;stroke:none;stroke-width:1.02788651;stroke-linecap:round;stroke-linejoin:bevel;stroke-miterlimit:4;stroke-dasharray:none;stroke-dashoffset:0;stroke-opacity:1" />
    <path
       inkscape:connector-curvature="0"
       id="rect4497-3"
       d="m -16.777122,8.1166362 -8.813019,-8.81301893 V 2.5825646 c 0,3.0664056 2.467666,5.5340716 5.534072,5.5340716 z"
       style="opacity:1;fill:#faeda7;fill-opacity:1;fill-rule:evenodd;stroke:none;stroke-width:1.02788651;stroke-linecap:round;stroke-linejoin:bevel;stroke-miterlimit:4;stroke-dasharray:none;stroke-dashoffset:0;stroke-opacity:1" />
    <g
       style="fill:#faeda7;fill-opacity:1"
       transform="translate(-45.777122,-4.6820849)"
       id="g4528">
      <path
         inkscape:connector-curvature="0"
         id="path16-6"
         d="m 15,14 c -1.105333,0 -2,0.9 -2,2 v 4 c 0,1.1 0.895,2 2,2 1.105,0 2,-0.9 2,-2 v -4 c 0,-1.1 -0.894667,-2 -2,-2 z m 0,1 c 0.552,0 1,0.4 1,1 0,0.499999 -0.448,1 -1,1 -0.552,0 -1,-0.500001 -1,-1 0,-0.6 0.448,-1 1,-1 z m 0,3 c 0.552285,0 1,0.447715 1,1 v 1 c 0,0.552285 -0.447715,1 -1,1 -0.552285,0 -1,-0.447715 -1,-1 v -1 c 0,-0.552285 0.447715,-1 1,-1 z"
         style="opacity:1;fill:#faeda7;fill-opacity:1" />
      <path
         inkscape:connector-curvature="0"
         id="path18-7"
         d="m 14,4 v 1 h 1 V 4 Z m 0,2 v 1 h 1 V 6 Z m 0,2 v 1 h 1 V 8 Z m 0,2 v 1 h 1 v -1 z m 0,2 v 1 h 1 v -1 z"
         style="opacity:1;fill:#faeda7;fill-opacity:1" />
      <path
         inkscape:connector-curvature="0"
         id="path20-5"
         d="m 15,5 v 1 h 1 V 5 Z m 0,2 v 1 h 1 V 7 Z m 0,2 v 1 h 1 V 9 Z m 0,2 v 1 h 1 v -1 z m 0,2 v 1 h 1 v -1 z"
         style="opacity:1;fill:#faeda7;fill-opacity:1" />
    </g>
    <path
       inkscape:connector-curvature="0"
       id="path8"
       d="m -40.560894,16.686771 a 1.802699,1.802699 0 0 0 -1.802699,1.802699 1.802699,1.802699 0 0 0 1.802699,1.802699 1.802699,1.802699 0 0 0 0.84079,-0.208437 l 1.799882,2.099863 a 1.802699,1.802699 0 0 0 -0.116893,0.632353 1.802699,1.802699 0 0 0 1.802699,1.802699 1.802699,1.802699 0 0 0 1.774532,-1.502719 l 2.967411,-0.592919 a 1.802699,1.802699 0 0 0 1.747773,1.374558 1.802699,1.802699 0 0 0 1.802699,-1.802699 1.802699,1.802699 0 0 0 -1.802699,-1.802699 1.802699,1.802699 0 0 0 -1.774532,1.50131 l -2.966003,0.594328 a 1.802699,1.802699 0 0 0 -1.749181,-1.374558 1.802699,1.802699 0 0 0 -1.280199,0.536585 l -1.649187,-1.923818 a 1.802699,1.802699 0 0 0 0.405607,-1.136546 1.802699,1.802699 0 0 0 -1.802699,-1.802699 z"
       style="fill:#faeda7;fill-opacity:1;stroke-width:1" />
  </g>
</svg>
