<?xml version="1.0" encoding="UTF-8" standalone="no"?>
<svg
   xmlns:dc="http://purl.org/dc/elements/1.1/"
   xmlns:cc="http://creativecommons.org/ns#"
   xmlns:rdf="http://www.w3.org/1999/02/22-rdf-syntax-ns#"
   xmlns:svg="http://www.w3.org/2000/svg"
   xmlns="http://www.w3.org/2000/svg"
   xmlns:sodipodi="http://sodipodi.sourceforge.net/DTD/sodipodi-0.dtd"
   xmlns:inkscape="http://www.inkscape.org/namespaces/inkscape"
   width="32"
   height="32"
   version="1.1"
   id="svg16"
   sodipodi:docname="application-x-ruby.svg"
   inkscape:version="0.92.1 r">
  <metadata
     id="metadata22">
    <rdf:RDF>
      <cc:Work
         rdf:about="">
        <dc:format>image/svg+xml</dc:format>
        <dc:type
           rdf:resource="http://purl.org/dc/dcmitype/StillImage" />
      </cc:Work>
    </rdf:RDF>
  </metadata>
  <defs
     id="defs20" />
  <sodipodi:namedview
     pagecolor="#ffffff"
     bordercolor="#666666"
     borderopacity="1"
     objecttolerance="10"
     gridtolerance="10"
     guidetolerance="10"
     inkscape:pageopacity="0"
     inkscape:pageshadow="2"
     inkscape:window-width="1680"
     inkscape:window-height="978"
     id="namedview18"
     showgrid="false"
     inkscape:zoom="7.375"
     inkscape:cx="-34.440678"
     inkscape:cy="16"
     inkscape:window-x="0"
     inkscape:window-y="0"
     inkscape:window-maximized="1"
     inkscape:current-layer="svg16" />
  <path
     style="opacity:1;fill:#f44336;fill-opacity:1;fill-rule:evenodd;stroke:none;stroke-width:1.02788651;stroke-linecap:round;stroke-linejoin:bevel;stroke-miterlimit:4;stroke-dasharray:none;stroke-dashoffset:0;stroke-opacity:1"
     d="M 21.186981,2 H 7.536011 C 4.469605,2 2,4.4676663 2,7.5340721 V 24.463989 C 2,27.530395 4.469605,30 7.536011,30 h 16.929917 c 3.066406,0 5.534071,-2.469605 5.534071,-5.536011 v -13.65097 z"
     id="path4508"
     inkscape:connector-curvature="0" />
  <path
     style="opacity:1;fill:#c9372c;fill-opacity:1;fill-rule:evenodd;stroke:none;stroke-width:1.02788651;stroke-linecap:round;stroke-linejoin:bevel;stroke-miterlimit:4;stroke-dasharray:none;stroke-dashoffset:0;stroke-opacity:1"
     d="M 29.999999,10.813019 21.186981,2.0000001 v 3.2789473 c 0,3.0664056 2.467666,5.5340716 5.534072,5.5340716 z"
     id="rect4497-3"
     inkscape:connector-curvature="0" />
  <path
     style="fill:#f3b08e;stroke-width:1.21307659;fill-opacity:1"
     d="m 10.541095,11.090791 -3.03257,3.63923 h 4.245646 z m 1.419299,0 0.400316,2.426153 2.025837,-2.426153 z m 4.039545,0 -3.032691,3.63923 h 6.065383 z m 1.613392,0 2.025838,2.426153 0.400315,-2.426153 z m 3.845453,0 -1.213077,3.63923 h 4.245768 z m -13.950259,4.852306 7.884876,8.491536 -3.63923,-8.491536 z m 5.458723,0 3.032691,7.27846 3.032692,-7.27846 z m 7.278459,0 -3.639229,8.491536 7.884997,-8.491536 z"
     id="path14"
     inkscape:connector-curvature="0" />
</svg>
