<?xml version="1.0" encoding="UTF-8" standalone="no"?>
<svg
   xmlns:dc="http://purl.org/dc/elements/1.1/"
   xmlns:cc="http://creativecommons.org/ns#"
   xmlns:rdf="http://www.w3.org/1999/02/22-rdf-syntax-ns#"
   xmlns:svg="http://www.w3.org/2000/svg"
   xmlns="http://www.w3.org/2000/svg"
   xmlns:sodipodi="http://sodipodi.sourceforge.net/DTD/sodipodi-0.dtd"
   xmlns:inkscape="http://www.inkscape.org/namespaces/inkscape"
   height="32"
   width="32"
   version="1"
   id="svg16"
   sodipodi:docname="folder-image-people-brown.svg"
   inkscape:version="0.92.1 r">
  <metadata
     id="metadata22">
    <rdf:RDF>
      <cc:Work
         rdf:about="">
        <dc:format>image/svg+xml</dc:format>
        <dc:type
           rdf:resource="http://purl.org/dc/dcmitype/StillImage" />
        <dc:title />
      </cc:Work>
    </rdf:RDF>
  </metadata>
  <defs
     id="defs20" />
  <sodipodi:namedview
     pagecolor="#ffffff"
     bordercolor="#666666"
     borderopacity="1"
     objecttolerance="10"
     gridtolerance="10"
     guidetolerance="10"
     inkscape:pageopacity="0"
     inkscape:pageshadow="2"
     inkscape:window-width="1680"
     inkscape:window-height="971"
     id="namedview18"
     showgrid="false"
     inkscape:zoom="7.375"
     inkscape:cx="-27.38983"
     inkscape:cy="16"
     inkscape:window-x="0"
     inkscape:window-y="0"
     inkscape:window-maximized="1"
     inkscape:current-layer="svg16" />
  <path
     style="fill:#856b35;fill-opacity:1;stroke:none;stroke-width:0.14515875;stroke-miterlimit:4;stroke-dasharray:none;stroke-opacity:1"
     d="m 27.90368,6.7271313 c 1.168734,-7.39e-4 2.109629,0.9408943 2.109629,2.1096293 V 26.447279 c 0,1.168735 -0.940895,2.109629 -2.109629,2.109629 H 4.0963208 c -1.168735,0 -2.109682,-0.940894 -2.10963,-2.109629 l 7.32e-4,-16.244506 7.31e-4,-5.0669078 c 0,-0.9377962 0.754977,-1.6927732 1.692773,-1.6927732 h 9.0908202 c 0.937797,0 1.704839,0.371321 2.299888,1.096152 L 16.8735,6.7341042 Z"
     id="rect4549"
     inkscape:connector-curvature="0"
     sodipodi:nodetypes="sssssscsssscs" />
  <path
     style="color:#000000;opacity:1;fill:#000000;fill-opacity:0.65098041"
     d="m 15.996,12.720339 c -1.402,0 -2.544,1.023 -2.586,2.301 -0.034,0.007 -0.069,0.02 -0.101,0.035 -0.323,0.151 -0.407,0.623 -0.186,1.06 0.178,0.352 0.493,0.57 0.779,0.563 0.216,1.169 1.074,2.041 2.094,2.041 h 0.008 c 1.02,0 1.878,-0.872 2.094,-2.041 0.286,0.007 0.601,-0.211 0.779,-0.563 0.221,-0.437 0.137,-0.909 -0.186,-1.06 -0.032,-0.015 -0.067,-0.028 -0.101,-0.035 -0.042,-1.278 -1.184,-2.301 -2.586,-2.301 z m 1.572,6.217 c -0.123,0.172 -0.287,0.327 -0.507,0.443 l -0.002,0.002 c -0.312,0.215 -0.673,0.338 -1.055,0.338 h -0.008 c -0.583,0 -1.109,-0.29 -1.496,-0.752 -1.631,0.241 -3.375,0.59 -3.484,0.988 -0.002,0.006 10e-4,0.013 0,0.018 -0.005,0.02 -0.006,0.038 -0.008,0.058 -10e-4,0.01 -0.008,0.016 -0.008,0.026 v 1.394 c 0,0.149 0.111,0.268 0.25,0.268 h 9.5 c 0.139,0 0.25,-0.119 0.25,-0.268 v -1.404 c -0.001,-0.032 -0.015,-0.06 -0.023,-0.092 -0.116,-0.414 -1.806,-0.777 -3.409,-1.019 z"
     id="path14"
     inkscape:connector-curvature="0" />
</svg>
