<?xml version="1.0" encoding="UTF-8" standalone="no"?>
<svg
   xmlns:dc="http://purl.org/dc/elements/1.1/"
   xmlns:cc="http://creativecommons.org/ns#"
   xmlns:rdf="http://www.w3.org/1999/02/22-rdf-syntax-ns#"
   xmlns:svg="http://www.w3.org/2000/svg"
   xmlns="http://www.w3.org/2000/svg"
   xmlns:sodipodi="http://sodipodi.sourceforge.net/DTD/sodipodi-0.dtd"
   xmlns:inkscape="http://www.inkscape.org/namespaces/inkscape"
   width="32"
   height="32"
   version="1"
   id="svg16"
   sodipodi:docname="folder-copy-cloud.svg"
   inkscape:version="0.92.1 r">
  <metadata
     id="metadata22">
    <rdf:RDF>
      <cc:Work
         rdf:about="">
        <dc:format>image/svg+xml</dc:format>
        <dc:type
           rdf:resource="http://purl.org/dc/dcmitype/StillImage" />
      </cc:Work>
    </rdf:RDF>
  </metadata>
  <defs
     id="defs20" />
  <sodipodi:namedview
     pagecolor="#ffffff"
     bordercolor="#666666"
     borderopacity="1"
     objecttolerance="10"
     gridtolerance="10"
     guidetolerance="10"
     inkscape:pageopacity="0"
     inkscape:pageshadow="2"
     inkscape:window-width="1680"
     inkscape:window-height="971"
     id="namedview18"
     showgrid="false"
     inkscape:zoom="7.375"
     inkscape:cx="-36.474576"
     inkscape:cy="16"
     inkscape:window-x="0"
     inkscape:window-y="0"
     inkscape:window-maximized="1"
     inkscape:current-layer="svg16" />
  <path
     style="fill:#5294e2;fill-opacity:1;stroke:none;stroke-width:0.14515875;stroke-miterlimit:4;stroke-dasharray:none;stroke-opacity:1"
     d="m 27.90368,6.7271306 c 1.168734,-7.39e-4 2.109629,0.940894 2.109629,2.109629 V 26.44728 c 0,1.168735 -0.940895,2.109629 -2.109629,2.109629 H 4.09632 c -1.168734,0 -2.109682,-0.940894 -2.109629,-2.109629 l 7.31e-4,-16.244507 7.32e-4,-5.0669084 c 0,-0.9377964 0.754977,-1.6927733 1.692773,-1.6927733 h 9.09082 c 0.937797,0 1.704839,0.3713213 2.299888,1.096152 L 16.8735,6.7341036 Z"
     id="rect4549-3"
     inkscape:connector-curvature="0"
     sodipodi:nodetypes="sssssscsssscs" />
  <path
     style="opacity:1;fill:#000000;fill-opacity:0.65098041"
     d="m 19.822034,12.779661 -2.25,3.75 1.5,0.75 z m -8.25,2.25 -2.2500001,1.607 3.0000001,-0.107 1.5,5.25 0.75,-0.75 6.75,0.75 -2.25,-3.75 -0.965,-0.536 -3.642,2.143 -1.715,-4.285 z m 4.179,1.607 -1.715,1.071 0.643,1.5 3,-1.714 -1.071,-0.857 z"
     id="path14"
     inkscape:connector-curvature="0" />
</svg>
