<?xml version="1.0" encoding="UTF-8" standalone="no"?>
<svg
   xmlns:dc="http://purl.org/dc/elements/1.1/"
   xmlns:cc="http://creativecommons.org/ns#"
   xmlns:rdf="http://www.w3.org/1999/02/22-rdf-syntax-ns#"
   xmlns:svg="http://www.w3.org/2000/svg"
   xmlns="http://www.w3.org/2000/svg"
   xmlns:sodipodi="http://sodipodi.sourceforge.net/DTD/sodipodi-0.dtd"
   xmlns:inkscape="http://www.inkscape.org/namespaces/inkscape"
   height="32"
   width="32"
   version="1"
   id="svg16"
   sodipodi:docname="folder-image-green.svg"
   inkscape:version="0.92.1 r">
  <metadata
     id="metadata22">
    <rdf:RDF>
      <cc:Work
         rdf:about="">
        <dc:format>image/svg+xml</dc:format>
        <dc:type
           rdf:resource="http://purl.org/dc/dcmitype/StillImage" />
        <dc:title />
      </cc:Work>
    </rdf:RDF>
  </metadata>
  <defs
     id="defs20" />
  <sodipodi:namedview
     pagecolor="#ffffff"
     bordercolor="#666666"
     borderopacity="1"
     objecttolerance="10"
     gridtolerance="10"
     guidetolerance="10"
     inkscape:pageopacity="0"
     inkscape:pageshadow="2"
     inkscape:window-width="1680"
     inkscape:window-height="971"
     id="namedview18"
     showgrid="false"
     inkscape:zoom="7.375"
     inkscape:cx="-0.13559295"
     inkscape:cy="24.677966"
     inkscape:window-x="0"
     inkscape:window-y="0"
     inkscape:window-maximized="1"
     inkscape:current-layer="svg16" />
  <path
     style="fill:#5ca543;fill-opacity:1;stroke:none;stroke-width:0.14515875;stroke-miterlimit:4;stroke-dasharray:none;stroke-opacity:1"
     d="m 27.90368,6.7271308 c 1.168734,-7.39e-4 2.109629,0.940894 2.109629,2.109629 V 26.447279 c 0,1.168735 -0.940895,2.109629 -2.109629,2.109629 H 4.0963211 c -1.168735,0 -2.109682,-0.940894 -2.10963,-2.109629 l 7.32e-4,-16.244506 7.31e-4,-5.0669092 c 0,-0.937795 0.754977,-1.692772 1.692773,-1.692772 h 9.0908199 c 0.937797,0 1.704839,0.371321 2.299888,1.096152 l 1.801865,2.194859 z"
     id="rect4549"
     inkscape:connector-curvature="0"
     sodipodi:nodetypes="sssssscsssscs" />
  <path
     style="color:#000000;opacity:1;fill:#000000;fill-opacity:0.65098039;enable-background:new"
     d="m 11.715,14.305085 c -0.714,0 -0.715,0.666 -0.715,0.666 v 6.668 c 0,0.667 0.715,0.666 0.715,0.666 h 8.57 c 0,0 0.715,0.001 0.715,-0.666 v -6.668 c 0,-0.667 -0.715,-0.666 -0.715,-0.666 z m 2.285,3 3,3 1.5,-2 1.5,2 v 1 h -8 v -2 z"
     id="path14"
     inkscape:connector-curvature="0" />
</svg>
