<?xml version="1.0" encoding="UTF-8" standalone="no"?>
<svg
   xmlns:dc="http://purl.org/dc/elements/1.1/"
   xmlns:cc="http://creativecommons.org/ns#"
   xmlns:rdf="http://www.w3.org/1999/02/22-rdf-syntax-ns#"
   xmlns:svg="http://www.w3.org/2000/svg"
   xmlns="http://www.w3.org/2000/svg"
   xmlns:sodipodi="http://sodipodi.sourceforge.net/DTD/sodipodi-0.dtd"
   xmlns:inkscape="http://www.inkscape.org/namespaces/inkscape"
   width="22"
   height="22"
   version="1.1"
   id="svg4"
   sodipodi:docname="airplane-mode-symbolic.svg"
   inkscape:version="0.92.1 r">
  <metadata
     id="metadata10">
    <rdf:RDF>
      <cc:Work
         rdf:about="">
        <dc:format>image/svg+xml</dc:format>
        <dc:type
           rdf:resource="http://purl.org/dc/dcmitype/StillImage" />
      </cc:Work>
    </rdf:RDF>
  </metadata>
  <defs
     id="defs8" />
  <sodipodi:namedview
     pagecolor="#ffffff"
     bordercolor="#666666"
     borderopacity="1"
     objecttolerance="10"
     gridtolerance="10"
     guidetolerance="10"
     inkscape:pageopacity="0"
     inkscape:pageshadow="2"
     inkscape:window-width="769"
     inkscape:window-height="480"
     id="namedview6"
     showgrid="false"
     inkscape:zoom="10.727273"
     inkscape:cx="11"
     inkscape:cy="11"
     inkscape:window-x="0"
     inkscape:window-y="0"
     inkscape:window-maximized="0"
     inkscape:current-layer="svg4" />
  <path
     style="fill:#5c616c"
     d="m 9.4976621,4 c -0.8,0 -0.78,0.03 -0.53,1.03 L 10.587662,10 H 6.0876621 l -1.22,-1.78 c -0.14,-0.21 -0.12,-0.22 -0.34,-0.22 h -0.22 c -0.42997,0 -0.28,0.43 -0.28,0.43 l 0.28,2.57 -0.28,2.56 c 0,0 -0.13997,0.44 0.25,0.44 h 0.25 c 0.21,0 0.2,-0.01 0.34,-0.22 l 1.22,-1.78 h 4.4999999 l -1.6199999,4.93 c -0.27,1.05 -0.27,1.07 0.53,1.07 0.43,0 0.43,-0.02 0.7199999,-0.5 l 3.68,-5.5 h 3.1 c 0.55,0 1,-0.45 1,-1 0,-0.56 -0.45,-1 -1,-1 h -3.1 l -3.68,-5.5 C 9.9476621,4.04 9.9276621,4 9.5576621,4 Z"
     id="path2"
     inkscape:connector-curvature="0" />
</svg>
