<?xml version="1.0" encoding="UTF-8" standalone="no"?>
<svg
   xmlns:dc="http://purl.org/dc/elements/1.1/"
   xmlns:cc="http://creativecommons.org/ns#"
   xmlns:rdf="http://www.w3.org/1999/02/22-rdf-syntax-ns#"
   xmlns:svg="http://www.w3.org/2000/svg"
   xmlns="http://www.w3.org/2000/svg"
   xmlns:sodipodi="http://sodipodi.sourceforge.net/DTD/sodipodi-0.dtd"
   xmlns:inkscape="http://www.inkscape.org/namespaces/inkscape"
   width="22"
   height="22"
   version="1.1"
   id="svg4"
   sodipodi:docname="alarm-symbolic.svg"
   inkscape:version="0.92.1 r">
  <metadata
     id="metadata10">
    <rdf:RDF>
      <cc:Work
         rdf:about="">
        <dc:format>image/svg+xml</dc:format>
        <dc:type
           rdf:resource="http://purl.org/dc/dcmitype/StillImage" />
      </cc:Work>
    </rdf:RDF>
  </metadata>
  <defs
     id="defs8" />
  <sodipodi:namedview
     pagecolor="#ffffff"
     bordercolor="#666666"
     borderopacity="1"
     objecttolerance="10"
     gridtolerance="10"
     guidetolerance="10"
     inkscape:pageopacity="0"
     inkscape:pageshadow="2"
     inkscape:window-width="769"
     inkscape:window-height="480"
     id="namedview6"
     showgrid="false"
     inkscape:zoom="10.727273"
     inkscape:cx="11"
     inkscape:cy="11"
     inkscape:window-x="0"
     inkscape:window-y="0"
     inkscape:window-maximized="0"
     inkscape:current-layer="svg4" />
  <path
     style="fill:#5c616c;stroke-width:0.875"
     d="M 7.9375,4 A 3.0625,3.0625 0 0 0 4.875,7.0625 3.0625,3.0625 0 0 0 5.0801,8.1614125 C 6.1756875,6.4231375 8.0089,5.196825 10.13865,4.9331 A 3.0625,3.0625 0 0 0 7.9375,4 Z m 6.125,0 A 3.0625,3.0625 0 0 0 11.864763,4.9331 C 13.9925,5.1976125 15.823,6.4234 16.9185,8.1596625 A 3.0625,3.0625 0 0 0 17.125,7.0625 3.0625,3.0625 0 0 0 14.0625,4 Z M 11,5.75 a 6.125,6.125 0 0 0 -6.125,6.125 6.125,6.125 0 0 0 1.4406875,3.94625 6.125,6.125 0 0 0 0.4032875,0.434 0.875,0.875 0 0 0 -0.7126,0.251125 0.875,0.875 0 0 0 0,1.23725 0.875,0.875 0 0 0 1.23725,0 0.875,0.875 0 0 0 0.2153375,-0.88025 6.125,6.125 0 0 0 0.5161625,0.328125 6.125,6.125 0 0 0 0.5212375,0.265125 6.125,6.125 0 0 0 0.049525,0.02188 6.125,6.125 0 0 0 0.4699625,0.182875 6.125,6.125 0 0 0 0.1486625,0.04988 6.125,6.125 0 0 0 0.4272625,0.118125 6.125,6.125 0 0 0 0.169225,0.03763 6.125,6.125 0 0 0 0.42385,0.07175 6.125,6.125 0 0 0 0.196525,0.02363 6.125,6.125 0 0 0 0.456313,0.03237 A 6.125,6.125 0 0 0 11,18 a 6.125,6.125 0 0 0 0.6118,-0.03063 6.125,6.125 0 0 0 2.908325,-1.08675 6.125,6.125 0 0 0 0.01925,-0.01225 0.875,0.875 0 0 0 0.217,0.87325 0.875,0.875 0 0 0 1.23725,0 0.875,0.875 0 0 0 0,-1.23725 0.875,0.875 0 0 0 -0.72275,-0.249375 6.125,6.125 0 0 0 0.389375,-0.419125 6.125,6.125 0 0 0 0.02712,-0.02888 6.125,6.125 0 0 0 0.0105,-0.014 6.125,6.125 0 0 0 0.322875,-0.42525 6.125,6.125 0 0 0 0.05162,-0.07 6.125,6.125 0 0 0 0.258125,-0.42175 6.125,6.125 0 0 0 0.063,-0.111125 6.125,6.125 0 0 0 0.2065,-0.431375 6.125,6.125 0 0 0 0.05687,-0.12425 6.125,6.125 0 0 0 0.147,-0.405125 6.125,6.125 0 0 0 0.063,-0.191625 6.125,6.125 0 0 0 0.09887,-0.385875 6.125,6.125 0 0 0 0.04637,-0.205625 6.125,6.125 0 0 0 0.05863,-0.392612 6.125,6.125 0 0 0 0.02712,-0.222163 A 6.125,6.125 0 0 0 17.125,11.875 6.125,6.125 0 0 0 11,5.75 Z M 11,7.5 A 4.375,4.375 0 0 1 15.375,11.875 4.375,4.375 0 0 1 11,16.25 4.375,4.375 0 0 1 6.625,11.875 4.375,4.375 0 0 1 6.647225,11.4375 4.375,4.375 0 0 1 11,7.5 Z m 2.17875,1.7465875 a 0.43754375,0.43754375 0 0 0 -0.301,0.1316 L 11,11.256375 9.5593125,9.8156875 a 0.43754375,0.43754375 0 1 0 -0.618625,0.6186255 l 1.7500005,1.75 a 0.43754375,0.43754375 0 0 0 0.618625,0 L 13.49725,9.9968125 a 0.43754375,0.43754375 0 0 0 -0.3185,-0.750225 z"
     id="path2"
     inkscape:connector-curvature="0" />
</svg>
