<?xml version="1.0" encoding="UTF-8" standalone="no"?>
<svg
   xmlns:dc="http://purl.org/dc/elements/1.1/"
   xmlns:cc="http://creativecommons.org/ns#"
   xmlns:rdf="http://www.w3.org/1999/02/22-rdf-syntax-ns#"
   xmlns:svg="http://www.w3.org/2000/svg"
   xmlns="http://www.w3.org/2000/svg"
   xmlns:sodipodi="http://sodipodi.sourceforge.net/DTD/sodipodi-0.dtd"
   xmlns:inkscape="http://www.inkscape.org/namespaces/inkscape"
   width="22"
   height="22"
   version="1.1"
   id="svg4"
   sodipodi:docname="dialog-question-symbolic.svg"
   inkscape:version="0.92.1 r">
  <metadata
     id="metadata10">
    <rdf:RDF>
      <cc:Work
         rdf:about="">
        <dc:format>image/svg+xml</dc:format>
        <dc:type
           rdf:resource="http://purl.org/dc/dcmitype/StillImage" />
      </cc:Work>
    </rdf:RDF>
  </metadata>
  <defs
     id="defs8" />
  <sodipodi:namedview
     pagecolor="#ffffff"
     bordercolor="#666666"
     borderopacity="1"
     objecttolerance="10"
     gridtolerance="10"
     guidetolerance="10"
     inkscape:pageopacity="0"
     inkscape:pageshadow="2"
     inkscape:window-width="769"
     inkscape:window-height="480"
     id="namedview6"
     showgrid="false"
     inkscape:zoom="10.727273"
     inkscape:cx="11"
     inkscape:cy="11"
     inkscape:window-x="0"
     inkscape:window-y="0"
     inkscape:window-maximized="0"
     inkscape:current-layer="svg4" />
  <path
     style="fill:#5c616c"
     d="m 11.000799,3.0005 c -0.2556,0 -0.5112,0.0971 -0.707,0.29297 L 3.2937987,10.2935 c -0.39173,0.3917 -0.39173,1.0223 0,1.414 l 7.0000003,6.998 c 0.3917,0.392 1.0223,0.392 1.414,0 l 6.9982,-6.998 c 0.392,-0.3917 0.392,-1.0223 0,-1.414 l -6.9982,-7.00003 c -0.1958,-0.19587 -0.4514,-0.29297 -0.707,-0.29297 z m -9e-4,3.999 c 1.105,0 2.0001,0.8954 2.0001,2 0,1.105 -0.8951,2 -2.0001,2 v 1 H 9.9998988 v -2 h 1.0000002 c 0.552,0 1,-0.448 1,-1 0,-0.5523 -0.448,-1 -1,-1 -0.552,0 -1.0000002,0.4477 -1.0000002,1 h -1 c 0,-1.1046 0.8949999,-2 2.0000002,-2 z m -1.0000002,6 h 1.0000002 v 1 H 9.9998988 Z"
     id="path2"
     inkscape:connector-curvature="0" />
</svg>
