<?xml version="1.0" encoding="UTF-8" standalone="no"?>
<svg
   xmlns:dc="http://purl.org/dc/elements/1.1/"
   xmlns:cc="http://creativecommons.org/ns#"
   xmlns:rdf="http://www.w3.org/1999/02/22-rdf-syntax-ns#"
   xmlns:svg="http://www.w3.org/2000/svg"
   xmlns="http://www.w3.org/2000/svg"
   xmlns:sodipodi="http://sodipodi.sourceforge.net/DTD/sodipodi-0.dtd"
   xmlns:inkscape="http://www.inkscape.org/namespaces/inkscape"
   width="22"
   height="22"
   version="1.1"
   id="svg4"
   sodipodi:docname="freon-fan-symbolic.svg"
   inkscape:version="0.92.1 r">
  <metadata
     id="metadata10">
    <rdf:RDF>
      <cc:Work
         rdf:about="">
        <dc:format>image/svg+xml</dc:format>
        <dc:type
           rdf:resource="http://purl.org/dc/dcmitype/StillImage" />
      </cc:Work>
    </rdf:RDF>
  </metadata>
  <defs
     id="defs8" />
  <sodipodi:namedview
     pagecolor="#ffffff"
     bordercolor="#666666"
     borderopacity="1"
     objecttolerance="10"
     gridtolerance="10"
     guidetolerance="10"
     inkscape:pageopacity="0"
     inkscape:pageshadow="2"
     inkscape:window-width="769"
     inkscape:window-height="480"
     id="namedview6"
     showgrid="false"
     inkscape:zoom="10.727273"
     inkscape:cx="11"
     inkscape:cy="11"
     inkscape:window-x="0"
     inkscape:window-y="0"
     inkscape:window-maximized="0"
     inkscape:current-layer="svg4" />
  <path
     style="fill:#5c616c"
     d="M 4,3 C 3.446,3 3,3.446 3,4 v 14 c 0,0.554 0.446,1 1,1 h 14 c 0.554,0 1,-0.446 1,-1 V 4 C 19,3.446 18.554,3 18,3 Z M 4.5,4 A 0.5,0.5 0 0 1 5,4.5 0.5,0.5 0 0 1 4.5,5 0.5,0.5 0 0 1 4,4.5 0.5,0.5 0 0 1 4.5,4 Z M 11,4 a 7,7 0 0 1 7,7 7,7 0 0 1 -7,7 7,7 0 0 1 -7,-7 7,7 0 0 1 7,-7 z m 6.5,0 A 0.5,0.5 0 0 1 18,4.5 0.5,0.5 0 0 1 17.5,5 0.5,0.5 0 0 1 17,4.5 0.5,0.5 0 0 1 17.5,4 Z M 12.002,5.1016 C 11.4489,5.1005 11.0001,5.5485 11,6.1016 V 8 a 3,3 0 0 1 2.344,1.1289 C 14.133,8.9584 14.799,8.8013 15.473,8.6426 16.367,8.4318 16.006,7.6531 15.648,7.2129 14.775,6.1393 13.557,5.3994 12.2012,5.1211 12.1356,5.1079 12.0688,5.1015 12.002,5.1016 Z M 8.0137,5.9727 C 7.7376,5.9958 7.433,6.1749 7.2129,6.3535 6.1393,7.2271 5.3994,8.445 5.1211,9.8008 5.1081,9.8668 5.1016,9.9331 5.1016,10 c -0.001,0.5531 0.447,1.0019 1,1.002 H 8 A 3,3 0 0 1 9.1289,8.6582 C 8.9584,7.8687 8.8013,7.2028 8.6426,6.5293 8.5371,6.0822 8.2897,5.9495 8.0137,5.9727 Z M 11,9 a 2,2 0 0 0 -2,2 2,2 0 0 0 2,2 2,2 0 0 0 2,-2 2,2 0 0 0 -2,-2 z m 2.998,1.998 a 3,3 0 0 1 -1.1289,2.344 c 0.1709,0.789 0.3279,1.455 0.4859,2.129 0.211,0.894 0.99,0.533 1.43,0.175 1.074,-0.873 1.814,-2.091 2.092,-3.4468 0.013,-0.066 0.02,-0.1323 0.019,-0.1992 10e-4,-0.5531 -0.446,-1.0019 -1,-1.002 z m -5.3437,1.875 c -0.7895,0.171 -1.4554,0.328 -2.1289,0.486 -0.8942,0.211 -0.533,0.99 -0.1758,1.43 0.8736,1.074 2.0915,1.814 3.4473,2.092 0.066,0.013 0.1323,0.019 0.1992,0.019 0.5531,0.001 1.0018,-0.447 1.0019,-1 V 14.002 A 3,3 0 0 1 8.6543,12.873 Z M 4.5,17 A 0.5,0.5 0 0 1 5,17.5 0.5,0.5 0 0 1 4.5,18 0.5,0.5 0 0 1 4,17.5 0.5,0.5 0 0 1 4.5,17 Z m 13,0 A 0.5,0.5 0 0 1 18,17.5 0.5,0.5 0 0 1 17.5,18 0.5,0.5 0 0 1 17,17.5 0.5,0.5 0 0 1 17.5,17 Z"
     id="path2"
     inkscape:connector-curvature="0" />
</svg>
