<?xml version="1.0" encoding="UTF-8" standalone="no"?>
<svg
   xmlns:dc="http://purl.org/dc/elements/1.1/"
   xmlns:cc="http://creativecommons.org/ns#"
   xmlns:rdf="http://www.w3.org/1999/02/22-rdf-syntax-ns#"
   xmlns:svg="http://www.w3.org/2000/svg"
   xmlns="http://www.w3.org/2000/svg"
   xmlns:sodipodi="http://sodipodi.sourceforge.net/DTD/sodipodi-0.dtd"
   xmlns:inkscape="http://www.inkscape.org/namespaces/inkscape"
   width="22"
   height="22"
   version="1.1"
   id="svg4"
   sodipodi:docname="microphone-sensitivity-medium-symbolic.svg"
   inkscape:version="0.92.1 r">
  <metadata
     id="metadata10">
    <rdf:RDF>
      <cc:Work
         rdf:about="">
        <dc:format>image/svg+xml</dc:format>
        <dc:type
           rdf:resource="http://purl.org/dc/dcmitype/StillImage" />
      </cc:Work>
    </rdf:RDF>
  </metadata>
  <defs
     id="defs8" />
  <sodipodi:namedview
     pagecolor="#ffffff"
     bordercolor="#666666"
     borderopacity="1"
     objecttolerance="10"
     gridtolerance="10"
     guidetolerance="10"
     inkscape:pageopacity="0"
     inkscape:pageshadow="2"
     inkscape:window-width="769"
     inkscape:window-height="480"
     id="namedview6"
     showgrid="false"
     inkscape:zoom="10.727273"
     inkscape:cx="11"
     inkscape:cy="11"
     inkscape:window-x="0"
     inkscape:window-y="0"
     inkscape:window-maximized="0"
     inkscape:current-layer="svg4" />
  <path
     style="fill:#5c616c"
     d="M 11,3 C 9.34,3 8,4.34 8,6 v 5 c 0,1.66 1.34,3 3,3 1.66,0 3,-1.34 3,-3 V 6 C 14,4.34 12.66,3 11,3 Z m 0,2 c 0.55,0 1,0.45 1,1 v 5 c 0,0.55 -0.45,1 -1,1 -0.55,0 -1,-0.45 -1,-1 V 6 c 0,-0.55 0.45,-1 1,-1 z m -6,5 v 1 c 0,2.97 2.16,5.43 5,5.91 V 19 h 2 v -2.09 c 2.84,-0.48 5,-2.94 5,-5.91 v -1 h -2 v 1 c 0,2.23 -1.77,4 -4,4 -2.23,0 -4,-1.77 -4,-4 v -1 z"
     id="path2"
     inkscape:connector-curvature="0" />
</svg>
