<?xml version="1.0" encoding="UTF-8" standalone="no"?>
<svg
   xmlns:dc="http://purl.org/dc/elements/1.1/"
   xmlns:cc="http://creativecommons.org/ns#"
   xmlns:rdf="http://www.w3.org/1999/02/22-rdf-syntax-ns#"
   xmlns:svg="http://www.w3.org/2000/svg"
   xmlns="http://www.w3.org/2000/svg"
   xmlns:sodipodi="http://sodipodi.sourceforge.net/DTD/sodipodi-0.dtd"
   xmlns:inkscape="http://www.inkscape.org/namespaces/inkscape"
   width="22"
   height="22"
   version="1.1"
   id="svg6"
   sodipodi:docname="notification-disabled-symbolic.svg"
   inkscape:version="0.92.1 r">
  <metadata
     id="metadata12">
    <rdf:RDF>
      <cc:Work
         rdf:about="">
        <dc:format>image/svg+xml</dc:format>
        <dc:type
           rdf:resource="http://purl.org/dc/dcmitype/StillImage" />
      </cc:Work>
    </rdf:RDF>
  </metadata>
  <defs
     id="defs10" />
  <sodipodi:namedview
     pagecolor="#ffffff"
     bordercolor="#666666"
     borderopacity="1"
     objecttolerance="10"
     gridtolerance="10"
     guidetolerance="10"
     inkscape:pageopacity="0"
     inkscape:pageshadow="2"
     inkscape:window-width="769"
     inkscape:window-height="480"
     id="namedview8"
     showgrid="false"
     inkscape:zoom="10.727273"
     inkscape:cx="11"
     inkscape:cy="11"
     inkscape:window-x="0"
     inkscape:window-y="0"
     inkscape:window-maximized="0"
     inkscape:current-layer="svg6" />
  <g
     id="g4491"
     transform="translate(3,2.5)">
    <path
       id="path2"
       d="M 8,1 C 7.45,1 7,1.45 7,2 7,2.03 6.9998,2.0696 7.0098,2.0996 6.513,2.1994 6.0506,2.385 5.6191,2.6191 L 13,10 V 9 7 C 13,4.57 11.28,2.5596 8.9902,2.0996 9.0002,2.0696 9,2.03 9,2 9,1.45 8.55,1 8,1 Z M 4.0078,4.0078 C 3.3813,4.8419 3,5.8717 3,7 v 4.5 l -2,2 V 14 h 2 10 1 z M 6.2695,15 C 6.6295,15.62 7.29,16 8,16 8.71,16 9.3705,15.62 9.7305,15 Z"
       style="fill:#5c616c"
       inkscape:connector-curvature="0" />
    <path
       id="path4"
       d="M 2.5,1.5 15,14 13.5,15.5 1,3 Z"
       style="fill:#5c616c"
       inkscape:connector-curvature="0" />
  </g>
</svg>
