<?xml version="1.0" encoding="UTF-8" standalone="no"?>
<svg
   xmlns:dc="http://purl.org/dc/elements/1.1/"
   xmlns:cc="http://creativecommons.org/ns#"
   xmlns:rdf="http://www.w3.org/1999/02/22-rdf-syntax-ns#"
   xmlns:svg="http://www.w3.org/2000/svg"
   xmlns="http://www.w3.org/2000/svg"
   xmlns:sodipodi="http://sodipodi.sourceforge.net/DTD/sodipodi-0.dtd"
   xmlns:inkscape="http://www.inkscape.org/namespaces/inkscape"
   width="22"
   height="22"
   version="1.1"
   id="svg6"
   sodipodi:docname="task-due-symbolic.svg"
   inkscape:version="0.92.1 r">
  <metadata
     id="metadata12">
    <rdf:RDF>
      <cc:Work
         rdf:about="">
        <dc:format>image/svg+xml</dc:format>
        <dc:type
           rdf:resource="http://purl.org/dc/dcmitype/StillImage" />
      </cc:Work>
    </rdf:RDF>
  </metadata>
  <defs
     id="defs10" />
  <sodipodi:namedview
     pagecolor="#ffffff"
     bordercolor="#666666"
     borderopacity="1"
     objecttolerance="10"
     gridtolerance="10"
     guidetolerance="10"
     inkscape:pageopacity="0"
     inkscape:pageshadow="2"
     inkscape:window-width="769"
     inkscape:window-height="480"
     id="namedview8"
     showgrid="false"
     inkscape:zoom="10.727273"
     inkscape:cx="9.834481"
     inkscape:cy="11"
     inkscape:window-x="0"
     inkscape:window-y="0"
     inkscape:window-maximized="0"
     inkscape:current-layer="svg6" />
  <g
     id="g4491"
     transform="translate(3,3)">
    <path
       id="path2"
       d="M 8,0 A 2,2 0 0 0 6,2 H 2 C 1.446,2 1,2.446 1,3 v 11 c 0,0.554 0.446,1 1,1 h 9 V 12 H 4 v -1 h 7 V 9 H 4 V 8 h 7 V 6 H 4 V 5 h 8 v 1 h 3 V 3 C 15,2.446 14.554,2 14,2 H 10 A 2,2 0 0 0 8,0 Z M 8,1 A 1,1 0 0 1 9,2 1,1 0 0 1 8,3 1,1 0 0 1 7,2 1,1 0 0 1 8,1 Z"
       style="fill:#5c616c"
       inkscape:connector-curvature="0" />
    <path
       id="path4"
       d="m 12,7 v 4 l 0.25,2 h 1.5 L 14,11 V 7 Z m 0,7 v 2 h 2 v -2 z"
       class="warning"
       style="fill:#5294e2"
       inkscape:connector-curvature="0" />
  </g>
</svg>
