<?xml version="1.0" encoding="UTF-8" standalone="no"?>
<svg
   xmlns:dc="http://purl.org/dc/elements/1.1/"
   xmlns:cc="http://creativecommons.org/ns#"
   xmlns:rdf="http://www.w3.org/1999/02/22-rdf-syntax-ns#"
   xmlns:svg="http://www.w3.org/2000/svg"
   xmlns="http://www.w3.org/2000/svg"
   xmlns:sodipodi="http://sodipodi.sourceforge.net/DTD/sodipodi-0.dtd"
   xmlns:inkscape="http://www.inkscape.org/namespaces/inkscape"
   width="22"
   height="22"
   version="1.1"
   id="svg6"
   sodipodi:docname="user-busy-symbolic.svg"
   inkscape:version="0.92.1 r">
  <metadata
     id="metadata12">
    <rdf:RDF>
      <cc:Work
         rdf:about="">
        <dc:format>image/svg+xml</dc:format>
        <dc:type
           rdf:resource="http://purl.org/dc/dcmitype/StillImage" />
      </cc:Work>
    </rdf:RDF>
  </metadata>
  <defs
     id="defs10" />
  <sodipodi:namedview
     pagecolor="#ffffff"
     bordercolor="#666666"
     borderopacity="1"
     objecttolerance="10"
     gridtolerance="10"
     guidetolerance="10"
     inkscape:pageopacity="0"
     inkscape:pageshadow="2"
     inkscape:window-width="1131"
     inkscape:window-height="480"
     id="namedview8"
     showgrid="false"
     inkscape:zoom="10.727273"
     inkscape:cx="11"
     inkscape:cy="11"
     inkscape:window-x="0"
     inkscape:window-y="0"
     inkscape:window-maximized="0"
     inkscape:current-layer="svg6" />
  <g
     id="g4491"
     transform="translate(2,2)">
    <path
       id="path2"
       d="M 8,2 C 6.34,2 5,3.34 5,5 5,6.65 6.34,8 8,8 9.66,8 11,6.65 11,5 11,3.34 9.66,2 8,2 Z m 0,8 c -6,0 -6,4 -6,4 v 1 H 8.76 A 4.5,4.5 0 0 1 8,12.5 4.5,4.5 0 0 1 8.74,10.03 C 8.5,10.01 8.26,10 8,10 Z"
       style="fill:#5c616c"
       inkscape:connector-curvature="0" />
    <path
       id="path4"
       d="M 12.5,9 A 3.5,3.5 0 0 0 9,12.5 3.5,3.5 0 0 0 12.5,16 3.5,3.5 0 0 0 16,12.5 3.5,3.5 0 0 0 12.5,9 Z M 10,12 h 5 v 1 h -5 z"
       class="warning"
       style="fill:#5294e2"
       inkscape:connector-curvature="0" />
  </g>
</svg>
