<?xml version="1.0" encoding="UTF-8" standalone="no"?>
<svg
   xmlns:dc="http://purl.org/dc/elements/1.1/"
   xmlns:cc="http://creativecommons.org/ns#"
   xmlns:rdf="http://www.w3.org/1999/02/22-rdf-syntax-ns#"
   xmlns:svg="http://www.w3.org/2000/svg"
   xmlns="http://www.w3.org/2000/svg"
   xmlns:sodipodi="http://sodipodi.sourceforge.net/DTD/sodipodi-0.dtd"
   xmlns:inkscape="http://www.inkscape.org/namespaces/inkscape"
   width="22"
   height="22"
   version="1.1"
   id="svg6"
   sodipodi:docname="weather-showers-scattered-symbolic.svg"
   inkscape:version="0.92.1 r">
  <metadata
     id="metadata12">
    <rdf:RDF>
      <cc:Work
         rdf:about="">
        <dc:format>image/svg+xml</dc:format>
        <dc:type
           rdf:resource="http://purl.org/dc/dcmitype/StillImage" />
      </cc:Work>
    </rdf:RDF>
  </metadata>
  <defs
     id="defs10" />
  <sodipodi:namedview
     pagecolor="#ffffff"
     bordercolor="#666666"
     borderopacity="1"
     objecttolerance="10"
     gridtolerance="10"
     guidetolerance="10"
     inkscape:pageopacity="0"
     inkscape:pageshadow="2"
     inkscape:window-width="1111"
     inkscape:window-height="480"
     id="namedview8"
     showgrid="false"
     inkscape:zoom="10.727273"
     inkscape:cx="10.648932"
     inkscape:cy="11"
     inkscape:window-x="0"
     inkscape:window-y="0"
     inkscape:window-maximized="0"
     inkscape:current-layer="svg6" />
  <g
     id="g824"
     transform="translate(3,3)">
    <path
       id="path2"
       d="M 8,0 C 5.93,0 4.17,1.27 3.41,3.06 1.48,3.35 0,4.99 0,7 0,7.73 0.2,8.41 0.54,9 H 0.52 c 0.56,0.97 1.52,1.68 2.65,1.91 L 5.5,8.58 7.25,10.33 C 7.43,9.84 7.69,9.39 8.04,9.04 l 2.46,-2.46 2.46,2.46 c 0.44,0.44 0.77,1.01 0.93,1.65 h 0.02 v 0 l 0.01,-0.01 h 0.01 l 0.01,-0.01 C 15.16,10.12 16,8.92 16,7.5 16,5.7 14.65,4.23 12.91,4.03 12.45,1.74 10.43,0 8,0 Z"
       style="fill:#5c616c"
       inkscape:connector-curvature="0" />
    <path
       id="path4"
       d="M 10.5,8 8.75,9.75 C 8.3,10.2 8,10.81 8,11.5 8,12.87 9.13,14 10.5,14 11.87,14 13,12.87 13,11.5 13,10.81 12.7,10.2 12.25,9.75 Z m -5,2 -1.75,1.75 C 3.3,12.2 3,12.81 3,13.5 3,14.87 4.13,16 5.5,16 6.87,16 8,14.87 8,13.5 8,12.81 7.7,12.2 7.25,11.75 Z"
       style="fill:#5c616c"
       inkscape:connector-curvature="0" />
  </g>
</svg>
