<?xml version="1.0" encoding="UTF-8" standalone="no"?>
<svg
   xmlns:dc="http://purl.org/dc/elements/1.1/"
   xmlns:cc="http://creativecommons.org/ns#"
   xmlns:rdf="http://www.w3.org/1999/02/22-rdf-syntax-ns#"
   xmlns:svg="http://www.w3.org/2000/svg"
   xmlns="http://www.w3.org/2000/svg"
   xmlns:sodipodi="http://sodipodi.sourceforge.net/DTD/sodipodi-0.dtd"
   xmlns:inkscape="http://www.inkscape.org/namespaces/inkscape"
   width="22"
   height="22"
   version="1.1"
   id="svg6"
   sodipodi:docname="weather-few-clouds-symbolic.svg"
   inkscape:version="0.92.1 r">
  <metadata
     id="metadata12">
    <rdf:RDF>
      <cc:Work
         rdf:about="">
        <dc:format>image/svg+xml</dc:format>
        <dc:type
           rdf:resource="http://purl.org/dc/dcmitype/StillImage" />
      </cc:Work>
    </rdf:RDF>
  </metadata>
  <defs
     id="defs10" />
  <sodipodi:namedview
     pagecolor="#ffffff"
     bordercolor="#666666"
     borderopacity="1"
     objecttolerance="10"
     gridtolerance="10"
     guidetolerance="10"
     inkscape:pageopacity="0"
     inkscape:pageshadow="2"
     inkscape:window-width="1111"
     inkscape:window-height="480"
     id="namedview8"
     showgrid="false"
     inkscape:zoom="10.727273"
     inkscape:cx="10.360031"
     inkscape:cy="11"
     inkscape:window-x="0"
     inkscape:window-y="0"
     inkscape:window-maximized="0"
     inkscape:current-layer="svg6" />
  <g
     id="g824"
     transform="translate(3,3)">
    <path
       id="path2"
       d="M 11,9 C 9.69,9 8.6,9.86 8.19,11.03 6.96,11.19 6,12.23 6,13.5 6,14.88 7.12,16 8.5,16 h 5 C 14.88,16 16,14.88 16,13.5 16,12.23 15.04,11.19 13.81,11.03 13.41,9.86 12.31,9 11,9 Z"
       style="fill:#5c616c"
       inkscape:connector-curvature="0" />
    <path
       id="path4"
       d="M 7,0 6.5,1.03 C 6.66,1.02 6.83,1 7,1 H 7.5 Z M 7,2 C 4.24,2 2,4.24 2,7 2,9.25 3.51,11.12 5.56,11.75 5.78,11.43 6.05,11.15 6.37,10.91 6.4,10.89 6.44,10.86 6.47,10.84 6.54,10.79 6.62,10.74 6.7,10.7 6.96,10.54 7.24,10.4 7.53,10.31 7.6,10.17 7.68,10.03 7.76,9.9 8.23,9.15 8.91,8.56 9.73,8.24 c 0,0 0,0 0.01,0 C 9.9,8.17 10.08,8.12 10.25,8.09 10.29,8.08 10.34,8.06 10.38,8.06 10.58,8.02 10.79,8 11,8 c 0.15,0 0.3,0.01 0.44,0.04 0.15,0.01 0.3,0.04 0.44,0.08 C 11.96,7.76 12,7.39 12,7 12,4.24 9.76,2 7,2 Z M 2.06,2.06 2.41,3.13 C 2.63,2.87 2.87,2.63 3.13,2.41 Z m 9.88,0 -1.1,0.38 h -0.06 c 0.14,0.11 0.28,0.22 0.41,0.34 0.13,0.12 0.26,0.24 0.37,0.38 z M 1,6.5 0,7 1.03,7.5 C 1.02,7.33 1,7.17 1,7 1,6.97 1,6.92 1,6.84 1.01,6.73 1.02,6.61 1.03,6.5 Z m 11.97,0 C 12.98,6.67 13,6.83 13,7 13,7.03 13,7.08 13,7.16 12.99,7.27 12.98,7.39 12.97,7.5 H 13 L 14,7 Z m -10.53,4.34 -0.38,1.1 1.1,-0.38 H 3.22 C 3.08,11.45 2.94,11.34 2.81,11.22 2.68,11.1 2.55,10.98 2.44,10.84 Z"
       style="fill:#5c616c"
       inkscape:connector-curvature="0" />
  </g>
</svg>
