<?xml version="1.0" encoding="UTF-8" standalone="no"?>
<svg
   xmlns:dc="http://purl.org/dc/elements/1.1/"
   xmlns:cc="http://creativecommons.org/ns#"
   xmlns:rdf="http://www.w3.org/1999/02/22-rdf-syntax-ns#"
   xmlns:svg="http://www.w3.org/2000/svg"
   xmlns="http://www.w3.org/2000/svg"
   xmlns:sodipodi="http://sodipodi.sourceforge.net/DTD/sodipodi-0.dtd"
   xmlns:inkscape="http://www.inkscape.org/namespaces/inkscape"
   height="32"
   width="32"
   version="1"
   id="svg16"
   sodipodi:docname="acetoneiso.svg"
   inkscape:version="0.92.1 r">
  <metadata
     id="metadata22">
    <rdf:RDF>
      <cc:Work
         rdf:about="">
        <dc:format>image/svg+xml</dc:format>
        <dc:type
           rdf:resource="http://purl.org/dc/dcmitype/StillImage" />
      </cc:Work>
    </rdf:RDF>
  </metadata>
  <defs
     id="defs20" />
  <sodipodi:namedview
     pagecolor="#ffffff"
     bordercolor="#666666"
     borderopacity="1"
     objecttolerance="10"
     gridtolerance="10"
     guidetolerance="10"
     inkscape:pageopacity="0"
     inkscape:pageshadow="2"
     inkscape:window-width="1680"
     inkscape:window-height="965"
     id="namedview18"
     showgrid="false"
     inkscape:zoom="14.75"
     inkscape:cx="13.777844"
     inkscape:cy="18.034583"
     inkscape:window-x="0"
     inkscape:window-y="0"
     inkscape:window-maximized="1"
     inkscape:current-layer="svg16" />
  <rect
     style="opacity:1;fill:#848484;fill-opacity:1;fill-rule:evenodd;stroke:none;stroke-width:1.03534329;stroke-linecap:round;stroke-linejoin:bevel;stroke-miterlimit:4;stroke-dasharray:none;stroke-dashoffset:0;stroke-opacity:1"
     id="rect4497-3"
     width="28.203388"
     height="28.203388"
     x="1.8983055"
     y="1.898306"
     ry="5.575182" />
  <path
     style="fill:#848484;stroke-width:0.836353"
     inkscape:connector-curvature="0"
     d="M 15.860972,9.6735827 A 6.2726476,6.2726476 0 0 0 9.588324,15.94623 6.2726476,6.2726476 0 0 0 15.860972,22.218878 6.2726476,6.2726476 0 0 0 22.133619,15.94623 6.2726476,6.2726476 0 0 0 15.860972,9.6735827 Z m 0,3.7635883 c 1.385753,0 2.509059,1.123307 2.509059,2.509059 0,1.385753 -1.123306,2.50906 -2.509059,2.50906 -1.385753,0 -2.50906,-1.123307 -2.50906,-2.50906 0,-1.385752 1.123307,-2.509059 2.50906,-2.509059 z"
     id="path4" />
  <path
     style="fill:#ffffff;stroke-width:0.836353"
     inkscape:connector-curvature="0"
     d="m 15.860972,4.2372877 c -6.4867544,0 -11.7089417,5.2221886 -11.7089417,11.7089423 0,6.486754 5.2221873,11.708942 11.7089417,11.708942 6.486754,0 11.708942,-5.222188 11.708942,-11.708942 0,-6.4867537 -5.222188,-11.7089423 -11.708942,-11.7089423 z m 0,6.6908243 a 5.018118,5.018118 0 0 1 5.018118,5.018118 5.018118,5.018118 0 0 1 -5.018118,5.018118 5.018118,5.018118 0 0 1 -5.018118,-5.018118 5.018118,5.018118 0 0 1 5.018118,-5.018118 z"
     id="path6" />
  <circle
     style="fill:#ba22ff;stroke-width:0.836353;enable-background:new"
     cx="22.551796"
     cy="21.800699"
     r="6.690824"
     id="circle10" />
  <path
     style="fill:#ffffff;stroke-width:0.836353"
     inkscape:connector-curvature="0"
     d="m 19.206384,22.080044 c 0,1.84767 1.497825,3.345412 3.345412,3.345412 1.828853,0 3.312125,-1.468135 3.34215,-3.289878 a 0.55757146,0.55757146 0 0 0 0.0034,-0.05554 0.55757146,0.55757146 0 0 0 -0.557571,-0.557572 0.55757146,0.55757146 0 0 0 -0.557571,0.557572 c 0,1.231697 -0.998521,2.230303 -2.230302,2.230303 -1.231698,0 -2.230302,-0.998523 -2.230302,-2.230303 0,-1.231698 0.998521,-2.230303 2.230302,-2.230303 v 1.115109 l 2.230302,-1.672705 -2.229967,-1.673209 v 1.11511 c -1.847672,0 -3.345412,1.497825 -3.345412,3.345412 z"
     id="path12" />
</svg>
