<?xml version="1.0" encoding="UTF-8" standalone="no"?>
<svg
   xmlns:dc="http://purl.org/dc/elements/1.1/"
   xmlns:cc="http://creativecommons.org/ns#"
   xmlns:rdf="http://www.w3.org/1999/02/22-rdf-syntax-ns#"
   xmlns:svg="http://www.w3.org/2000/svg"
   xmlns="http://www.w3.org/2000/svg"
   xmlns:sodipodi="http://sodipodi.sourceforge.net/DTD/sodipodi-0.dtd"
   xmlns:inkscape="http://www.inkscape.org/namespaces/inkscape"
   height="32"
   width="32"
   version="1"
   id="svg21"
   sodipodi:docname="akonadi.svg"
   inkscape:version="0.92.1 r">
  <metadata
     id="metadata25">
    <rdf:RDF>
      <cc:Work
         rdf:about="">
        <dc:format>image/svg+xml</dc:format>
        <dc:type
           rdf:resource="http://purl.org/dc/dcmitype/StillImage" />
      </cc:Work>
    </rdf:RDF>
  </metadata>
  <sodipodi:namedview
     pagecolor="#ffffff"
     bordercolor="#666666"
     borderopacity="1"
     objecttolerance="10"
     gridtolerance="10"
     guidetolerance="10"
     inkscape:pageopacity="0"
     inkscape:pageshadow="2"
     inkscape:window-width="1680"
     inkscape:window-height="963"
     id="namedview23"
     showgrid="false"
     inkscape:zoom="7.375"
     inkscape:cx="16"
     inkscape:cy="16"
     inkscape:window-x="0"
     inkscape:window-y="0"
     inkscape:window-maximized="1"
     inkscape:current-layer="svg21" />
  <defs
     id="defs5">
    <clipPath
       id="clipPath4186"
       clipPathUnits="userSpaceOnUse">
      <circle
         cx="286"
         cy="26"
         r="10"
         fill="url(#linearGradient4190)"
         id="circle2" />
    </clipPath>
  </defs>
  <g
     id="g4533"
     transform="translate(45.152544,7.4576273)">
    <rect
       ry="5.575182"
       y="-5.5593214"
       x="-43.254238"
       height="28.203388"
       width="28.203388"
       id="rect4497-3"
       style="opacity:1;fill:#608ab5;fill-opacity:1;fill-rule:evenodd;stroke:none;stroke-width:1.03534329;stroke-linecap:round;stroke-linejoin:bevel;stroke-miterlimit:4;stroke-dasharray:none;stroke-dashoffset:0;stroke-opacity:1" />
    <path
       style="fill:#cddff0;stroke-width:0.79981112"
       inkscape:connector-curvature="0"
       id="path7"
       d="M -18.683763,9.9890848 A 10.197592,10.197592 0 0 1 -28.881355,20.186677 10.197592,10.197592 0 0 1 -39.078947,9.9890848 10.197592,10.197592 0 0 1 -28.881355,-0.20850718 10.197592,10.197592 0 0 1 -18.683763,9.9890848 Z" />
    <path
       style="fill:#85b4df;stroke-width:0.79981112"
       inkscape:connector-curvature="0"
       id="path15"
       d="m -22.581243,19.257296 c -5.450713,3.148057 -12.421067,1.279698 -15.569123,-4.171015 -3.146857,-5.4515125 -1.279138,-12.4218666 4.172135,-15.56912338 6.422963,-0.029673 10.50152,13.84952938 11.397308,19.74013838 z" />
    <path
       style="fill:#608ab5;stroke-width:0.79981112"
       inkscape:connector-curvature="0"
       id="path17"
       d="m -17.484046,9.7891321 c 0,6.2945139 -5.102795,11.3973089 -11.397309,11.3973089 -6.294594,0 -11.397309,-5.102795 -11.397309,-11.3973089 3.186048,-5.577403 17.245528,-2.1698877 22.794618,0 z" />
  </g>
</svg>
