<?xml version="1.0" encoding="UTF-8" standalone="no"?>
<svg
   xmlns:dc="http://purl.org/dc/elements/1.1/"
   xmlns:cc="http://creativecommons.org/ns#"
   xmlns:rdf="http://www.w3.org/1999/02/22-rdf-syntax-ns#"
   xmlns:svg="http://www.w3.org/2000/svg"
   xmlns="http://www.w3.org/2000/svg"
   xmlns:sodipodi="http://sodipodi.sourceforge.net/DTD/sodipodi-0.dtd"
   xmlns:inkscape="http://www.inkscape.org/namespaces/inkscape"
   height="32"
   width="32"
   version="1"
   id="svg28"
   sodipodi:docname="appcode.svg"
   inkscape:version="0.92.1 r">
  <metadata
     id="metadata34">
    <rdf:RDF>
      <cc:Work
         rdf:about="">
        <dc:format>image/svg+xml</dc:format>
        <dc:type
           rdf:resource="http://purl.org/dc/dcmitype/StillImage" />
      </cc:Work>
    </rdf:RDF>
  </metadata>
  <defs
     id="defs32" />
  <sodipodi:namedview
     pagecolor="#ffffff"
     bordercolor="#666666"
     borderopacity="1"
     objecttolerance="10"
     gridtolerance="10"
     guidetolerance="10"
     inkscape:pageopacity="0"
     inkscape:pageshadow="2"
     inkscape:window-width="1680"
     inkscape:window-height="963"
     id="namedview30"
     showgrid="false"
     inkscape:zoom="3.6875"
     inkscape:cx="-35.801854"
     inkscape:cy="-5.013525"
     inkscape:window-x="0"
     inkscape:window-y="0"
     inkscape:window-maximized="1"
     inkscape:current-layer="svg28" />
  <g
     id="g4667"
     transform="translate(34.710971,-20.204152)">
    <path
       inkscape:connector-curvature="0"
       id="path6-2"
       d="m -4.7109704,27.172902 c -0.054134,-0.578542 -0.119792,-1.157197 -0.335937,-1.669922 -0.281373,-0.667454 -0.689503,-1.267628 -1.19336,-1.771485 -0.503857,-0.503857 -1.10403,-0.911987 -1.771484,-1.193359 -0.511546,-0.215648 -1.088925,-0.279572 -1.666016,-0.333984 h -9.0332036 v 14 h 14.0000006 z"
       style="fill:#2086e7;fill-opacity:1;stroke-width:0.69999999" />
    <path
       inkscape:connector-curvature="0"
       id="path4-8"
       d="m -27.746127,22.204152 c -0.57709,0.05441 -1.15447,0.118337 -1.666016,0.333985 -0.667454,0.281372 -1.267627,0.689502 -1.771483,1.193359 -0.503857,0.503857 -0.911987,1.104031 -1.193359,1.771485 -0.215648,0.511545 -0.279573,1.088925 -0.333985,1.666015 v 9.035156 h 13.999999 v -14 z"
       style="fill:#14ddb1;fill-opacity:1;stroke-width:0.69999999" />
    <path
       inkscape:connector-curvature="0"
       id="path4-8-7"
       d="m -9.6758139,50.204152 c 0.577089,-0.05441 1.154471,-0.118337 1.666017,-0.333985 0.667454,-0.281372 1.267627,-0.689502 1.771483,-1.193359 0.503857,-0.503857 0.9119865,-1.104031 1.1933585,-1.771485 0.215647,-0.511545 0.279573,-1.088925 0.333985,-1.666015 V 36.204152 H -18.71097 v 14 z"
       style="fill:#14ddb1;fill-opacity:1;stroke-width:0.69999999" />
    <path
       inkscape:connector-curvature="0"
       id="path6-2-8"
       d="m -32.710971,45.235402 c 0.05413,0.578542 0.119792,1.157197 0.335937,1.669922 0.281373,0.667454 0.689503,1.267628 1.19336,1.771485 0.503857,0.503857 1.10403,0.911987 1.771484,1.193359 0.511546,0.215648 1.088926,0.279572 1.666017,0.333984 h 9.033203 v -14 h -14.000001 z"
       style="fill:#2086e7;fill-opacity:1;stroke-width:0.69999999" />
  </g>
  <rect
     style="opacity:1;fill:#3f3f3f;fill-opacity:1;fill-rule:evenodd;stroke:none;stroke-width:0.78646272;stroke-linecap:round;stroke-linejoin:bevel;stroke-miterlimit:4;stroke-dasharray:none;stroke-dashoffset:0;stroke-opacity:1"
     id="rect4497-3-361"
     width="21.423727"
     height="21.423727"
     x="5.2881365"
     y="5.2881365"
     ry="4.2349939" />
  <g
     id="g4520"
     transform="matrix(0.88135848,0,0,0.88135848,2.7856417,1.8983274)">
    <path
       id="path18"
       d="m 21.000242,15.999758 c 0,0 0,1.000003 -2,1.000003 -1.999999,0 -1.999999,-2.000001 -1.999999,-4.000003 0,-1.999997 0,-3.999998 1.999999,-3.999998 2,0 2,0.999998 2,0.999998"
       style="fill:none;stroke:#ffffff;stroke-width:1.99999988;stroke-linecap:round;stroke-linejoin:bevel;stroke-opacity:1"
       inkscape:connector-curvature="0" />
    <path
       id="path22"
       d="m 9.0002425,13.999758 h 3.9999995 m -3.9998995,3 v -6 m 3.9998995,6 v -6 m -3.9999995,0 c 0,0 0,-2.000001 1.9999995,-2.000001 2,0 2,2.000001 2,2.000001"
       style="fill:none;stroke:#ffffff;stroke-width:1.99999988;stroke-linecap:round;stroke-linejoin:bevel;stroke-opacity:1"
       inkscape:connector-curvature="0" />
    <path
       id="path26"
       d="M 9.0002425,23 H 17.000242"
       style="fill:none;stroke:#ffffff;stroke-width:2;stroke-linecap:round;stroke-opacity:1"
       inkscape:connector-curvature="0" />
  </g>
</svg>
