<?xml version="1.0" encoding="UTF-8" standalone="no"?>
<svg
   xmlns:dc="http://purl.org/dc/elements/1.1/"
   xmlns:cc="http://creativecommons.org/ns#"
   xmlns:rdf="http://www.w3.org/1999/02/22-rdf-syntax-ns#"
   xmlns:svg="http://www.w3.org/2000/svg"
   xmlns="http://www.w3.org/2000/svg"
   xmlns:sodipodi="http://sodipodi.sourceforge.net/DTD/sodipodi-0.dtd"
   xmlns:inkscape="http://www.inkscape.org/namespaces/inkscape"
   height="32"
   width="32"
   version="1"
   id="svg12"
   sodipodi:docname="applications-development.svg"
   inkscape:version="0.92.1 r">
  <metadata
     id="metadata18">
    <rdf:RDF>
      <cc:Work
         rdf:about="">
        <dc:format>image/svg+xml</dc:format>
        <dc:type
           rdf:resource="http://purl.org/dc/dcmitype/StillImage" />
      </cc:Work>
    </rdf:RDF>
  </metadata>
  <defs
     id="defs16" />
  <sodipodi:namedview
     pagecolor="#ffffff"
     bordercolor="#666666"
     borderopacity="1"
     objecttolerance="10"
     gridtolerance="10"
     guidetolerance="10"
     inkscape:pageopacity="0"
     inkscape:pageshadow="2"
     inkscape:window-width="1680"
     inkscape:window-height="955"
     id="namedview14"
     showgrid="false"
     inkscape:zoom="7.375"
     inkscape:cx="-10.711864"
     inkscape:cy="16"
     inkscape:window-x="0"
     inkscape:window-y="0"
     inkscape:window-maximized="1"
     inkscape:current-layer="svg12" />
  <rect
     style="opacity:1;fill:#0286c2;fill-opacity:1;fill-rule:evenodd;stroke:none;stroke-width:1.03534329;stroke-linecap:round;stroke-linejoin:bevel;stroke-miterlimit:4;stroke-dasharray:none;stroke-dashoffset:0;stroke-opacity:1"
     id="rect4497"
     width="28.203388"
     height="28.203388"
     x="1.8983059"
     y="1.8983059"
     ry="5.575182" />
  <path
     style="fill:#ffffff;stroke-width:0.68155366;enable-background:new"
     d="m 14.046582,6.4581385 v 0.002 c -0.202292,0.02201 -0.379041,0.186622 -0.416016,0.386719 l -0.404297,2.042968 c -0.722651,0.282613 -1.400143,0.671336 -1.996093,1.1484385 L 9.2458009,9.3663415 c -0.205999,-0.07103 -0.45573,0.02125 -0.566407,0.208984 l -1.908203,3.3105475 c -0.107494,0.190358 -0.060301,0.453149 0.105469,0.595703 l 1.580078,1.386719 c -0.05562,0.371767 -0.089844,0.745553 -0.089844,1.132812 0,0.387274 0.034204,0.761026 0.089844,1.132813 l -1.580078,1.386719 c -0.165747,0.142554 -0.212963,0.405345 -0.105469,0.595703 l 1.908203,3.310547 c 0.110677,0.1877 0.360408,0.280015 0.566407,0.208984 l 1.9843751,-0.671875 c 0.595958,0.477068 1.275396,0.865798 1.998047,1.148438 l 0.402343,2.042968 c 0.04083,0.213803 0.243298,0.383755 0.460938,0.386719 h 3.816406 c 0.21764,-0.0027 0.422086,-0.172916 0.462891,-0.386719 l 0.402343,-2.042968 c 0.722651,-0.282613 1.402097,-0.671343 1.998047,-1.148438 l 1.982422,0.671875 c 0.205993,0.07103 0.455729,-0.02126 0.566406,-0.208984 l 1.908204,-3.310547 c 0.107488,-0.190358 0.06225,-0.453149 -0.103516,-0.595703 L 23.544629,17.13392 c 0.05561,-0.371767 0.08984,-0.745486 0.08984,-1.132813 0,-0.387271 -0.03426,-0.761024 -0.08984,-1.132812 l 1.580078,-1.386719 c 0.165747,-0.142554 0.211004,-0.405345 0.103516,-0.595703 L 23.320019,9.5753255 c -0.110677,-0.1877 -0.360413,-0.280015 -0.566406,-0.208984 L 20.771191,10.038217 C 20.174832,9.5607885 19.495591,9.1724195 18.773144,8.8897785 L 18.370801,6.8468105 C 18.329971,6.6330075 18.12555,6.4610965 17.90791,6.4581385 h -3.816406 c -0.01493,-3.48e-4 -0.03006,-3.48e-4 -0.04492,0 z m 1.953125,5.4531255 c 2.258464,0 4.089844,1.831379 4.089844,4.089843 0,2.258465 -1.83138,4.089844 -4.089844,4.089844 -2.258465,0 -4.087891,-1.831379 -4.087891,-4.089844 0,-2.258465 1.829426,-4.089843 4.087891,-4.089843 z"
     id="path2"
     inkscape:connector-curvature="0" />
</svg>
