<?xml version="1.0" encoding="UTF-8" standalone="no"?>
<svg
   xmlns:dc="http://purl.org/dc/elements/1.1/"
   xmlns:cc="http://creativecommons.org/ns#"
   xmlns:rdf="http://www.w3.org/1999/02/22-rdf-syntax-ns#"
   xmlns:svg="http://www.w3.org/2000/svg"
   xmlns="http://www.w3.org/2000/svg"
   xmlns:sodipodi="http://sodipodi.sourceforge.net/DTD/sodipodi-0.dtd"
   xmlns:inkscape="http://www.inkscape.org/namespaces/inkscape"
   height="32"
   width="32"
   version="1"
   id="svg14"
   sodipodi:docname="byobu.svg"
   inkscape:version="0.92.1 r">
  <metadata
     id="metadata20">
    <rdf:RDF>
      <cc:Work
         rdf:about="">
        <dc:format>image/svg+xml</dc:format>
        <dc:type
           rdf:resource="http://purl.org/dc/dcmitype/StillImage" />
      </cc:Work>
    </rdf:RDF>
  </metadata>
  <defs
     id="defs18" />
  <sodipodi:namedview
     pagecolor="#ffffff"
     bordercolor="#666666"
     borderopacity="1"
     objecttolerance="10"
     gridtolerance="10"
     guidetolerance="10"
     inkscape:pageopacity="0"
     inkscape:pageshadow="2"
     inkscape:window-width="1680"
     inkscape:window-height="963"
     id="namedview16"
     showgrid="false"
     inkscape:zoom="7.375"
     inkscape:cx="-34.440678"
     inkscape:cy="16"
     inkscape:window-x="0"
     inkscape:window-y="0"
     inkscape:window-maximized="1"
     inkscape:current-layer="svg14" />
  <rect
     style="opacity:1;fill:#ffcca3;fill-opacity:1;fill-rule:evenodd;stroke:none;stroke-width:1.03534329;stroke-linecap:round;stroke-linejoin:bevel;stroke-miterlimit:4;stroke-dasharray:none;stroke-dashoffset:0;stroke-opacity:1"
     id="rect4497-3"
     width="28.203388"
     height="28.203388"
     x="1.8983059"
     y="1.8983059"
     ry="5.575182" />
  <path
     style="fill:#3f3f3f"
     d="m 8.4322034,6.6694915 v 1 h -0.5 c -0.831,0 -1.5,0.669 -1.5,1.5 0,0.8310005 0.669,1.5000005 1.5,1.5000005 h 0.5 v 1 h -1.9082 c 0.206,0.582 0.754,1 1.4082,1 h 0.5 v 1 h 1 v -1 h 0.5 c 0.8309996,0 1.4999996,-0.669 1.4999996,-1.5 0,-0.831 -0.669,-1.5000005 -1.4999996,-1.5000005 h -0.5 v -1 h 1.9081996 c -0.206,-0.582 -0.754,-1 -1.4079996,-1 h -0.5 v -1 h -1 z m -0.5,2 h 0.5 v 1 h -0.5 c -0.277,0 -0.5,-0.223 -0.5,-0.5 0,-0.277 0.223,-0.5 0.5,-0.5 z m 1.5,2.0000005 h 0.5 c 0.2769996,0 0.4999996,0.223 0.4999996,0.5 0,0.277 -0.2233,0.513 -0.4999996,0.5 h -0.5 z m 2.9999996,2 v 1 h 5 v -1 z"
     id="path10"
     inkscape:connector-curvature="0" />
</svg>
