<?xml version="1.0" encoding="UTF-8" standalone="no"?>
<svg
   xmlns:dc="http://purl.org/dc/elements/1.1/"
   xmlns:cc="http://creativecommons.org/ns#"
   xmlns:rdf="http://www.w3.org/1999/02/22-rdf-syntax-ns#"
   xmlns:svg="http://www.w3.org/2000/svg"
   xmlns="http://www.w3.org/2000/svg"
   xmlns:sodipodi="http://sodipodi.sourceforge.net/DTD/sodipodi-0.dtd"
   xmlns:inkscape="http://www.inkscape.org/namespaces/inkscape"
   height="32"
   width="32"
   version="1"
   id="svg22"
   sodipodi:docname="clamav.svg"
   inkscape:version="0.92.1 r">
  <metadata
     id="metadata28">
    <rdf:RDF>
      <cc:Work
         rdf:about="">
        <dc:format>image/svg+xml</dc:format>
        <dc:type
           rdf:resource="http://purl.org/dc/dcmitype/StillImage" />
      </cc:Work>
    </rdf:RDF>
  </metadata>
  <defs
     id="defs26" />
  <sodipodi:namedview
     pagecolor="#ffffff"
     bordercolor="#666666"
     borderopacity="1"
     objecttolerance="10"
     gridtolerance="10"
     guidetolerance="10"
     inkscape:pageopacity="0"
     inkscape:pageshadow="2"
     inkscape:window-width="640"
     inkscape:window-height="480"
     id="namedview24"
     showgrid="false"
     inkscape:zoom="8.4375"
     inkscape:cx="-6.637037"
     inkscape:cy="16"
     inkscape:current-layer="svg22" />
  <rect
     style="opacity:1;fill:#e6e6e6;fill-opacity:1;fill-rule:evenodd;stroke:none;stroke-width:1.03534329;stroke-linecap:round;stroke-linejoin:bevel;stroke-miterlimit:4;stroke-dasharray:none;stroke-dashoffset:0;stroke-opacity:1"
     id="rect4497"
     width="28.203388"
     height="28.203388"
     x="1.8983059"
     y="1.8983059"
     ry="5.575182" />
  <g
     id="g4516"
     transform="matrix(0.75308642,0,0,0.75308642,3.9506173,3.9506173)"
     style="stroke-width:1.32786882">
    <path
       id="path2"
       d="M 25.854,2 A 10,10.257 0 0 1 22.625,7.9883 C 20.728,6.734 18.454,6 16,6 13.545,6 11.268,6.7345 9.3711,7.9902 A 10,10.257 0 0 1 6.1465,2.0664 10,10.257 0 0 0 6,3.7422 10,10.257 0 0 0 7.6523,9.377 C 5.4016,11.556 4,14.605 4,18 4,24.648 9.352,30 16,30 22.648,30 28,24.648 28,18 28,14.606 26.599,11.558 24.35,9.3789 A 10,10.257 0 0 0 26,3.7422 10,10.257 0 0 0 25.854,2 Z"
       inkscape:connector-curvature="0"
       style="fill:#e03c3b;stroke-width:1.32786882" />
    <path
       id="path10"
       d="M 15,21 C 13.816,22.913 11.194,23.568 9.1441,22.463 7.0938,21.359 6.3913,18.913 7.575,17 Z"
       inkscape:connector-curvature="0"
       style="fill:#ffffff;stroke-width:1.32786882" />
    <path
       id="path12"
       d="m 10.895,18.789 c -0.17,1.176 0.175,2.587 1.07,4.143 0.002,-10e-4 0.005,-0.002 0.008,-0.002 -0.48,-1.113 -0.41,-2.375 0.027,-3.545 z"
       inkscape:connector-curvature="0"
       style="fill:#2c2c2c;stroke-width:1.32786882" />
    <path
       id="path14"
       d="m 17,21 c 1.1838,1.913 3.8055,2.5684 5.8559,1.4639 2.05,-1.105 2.753,-3.551 1.569,-5.464 z"
       inkscape:connector-curvature="0"
       style="fill:#ffffff;stroke-width:1.32786882" />
    <path
       id="path16"
       d="M 21.105,18.789 20,19.385 c 0.437,1.17 0.507,2.432 0.027,3.545 0.003,0 0.006,0.001 0.008,0.002 0.895,-1.556 1.24,-2.967 1.07,-4.143 z"
       inkscape:connector-curvature="0"
       style="fill:#2c2c2c;stroke-width:1.32786882" />
  </g>
</svg>
