<?xml version="1.0" encoding="UTF-8" standalone="no"?>
<svg
   xmlns:dc="http://purl.org/dc/elements/1.1/"
   xmlns:cc="http://creativecommons.org/ns#"
   xmlns:rdf="http://www.w3.org/1999/02/22-rdf-syntax-ns#"
   xmlns:svg="http://www.w3.org/2000/svg"
   xmlns="http://www.w3.org/2000/svg"
   xmlns:sodipodi="http://sodipodi.sourceforge.net/DTD/sodipodi-0.dtd"
   xmlns:inkscape="http://www.inkscape.org/namespaces/inkscape"
   width="32"
   height="32"
   version="1"
   id="svg20"
   sodipodi:docname="cmyktool.svg"
   inkscape:version="0.92.1 r">
  <metadata
     id="metadata26">
    <rdf:RDF>
      <cc:Work
         rdf:about="">
        <dc:format>image/svg+xml</dc:format>
        <dc:type
           rdf:resource="http://purl.org/dc/dcmitype/StillImage" />
      </cc:Work>
    </rdf:RDF>
  </metadata>
  <defs
     id="defs24" />
  <sodipodi:namedview
     pagecolor="#ffffff"
     bordercolor="#666666"
     borderopacity="1"
     objecttolerance="10"
     gridtolerance="10"
     guidetolerance="10"
     inkscape:pageopacity="0"
     inkscape:pageshadow="2"
     inkscape:window-width="640"
     inkscape:window-height="480"
     id="namedview22"
     showgrid="false"
     inkscape:zoom="8.8125"
     inkscape:cx="-5.5602837"
     inkscape:cy="16"
     inkscape:current-layer="svg20" />
  <rect
     style="opacity:1;fill:#f1ca42;fill-opacity:1;fill-rule:evenodd;stroke:none;stroke-width:1.03534329;stroke-linecap:round;stroke-linejoin:bevel;stroke-miterlimit:4;stroke-dasharray:none;stroke-dashoffset:0;stroke-opacity:1"
     id="rect4497-3"
     width="28.203388"
     height="28.203388"
     x="1.8983059"
     y="1.8983059"
     ry="5.575182" />
  <path
     style="fill:#696853;stroke-width:1"
     d="m 15.999658,4.0638448 c -0.625256,0 -1.250929,0.2330515 -1.718323,0.700434 L 4.7642606,14.282413 c -0.9347873,0.934765 -0.9334616,2.499102 0.00135,3.433867 l 9.5170774,9.518135 c 0.934788,0.934765 2.50052,0.936091 3.435308,0.0014 l 9.517074,-9.518122 c 0.934788,-0.934765 0.934789,-2.500442 0,-3.435207 L 17.717982,4.7642788 C 17.250588,4.2968963 16.624914,4.0638448 15.999658,4.0638448 Z"
     id="path4"
     inkscape:connector-curvature="0" />
  <g
     id="g4513"
     transform="matrix(0.79574448,0,0,0.79574448,3.2680884,3.2680728)"
     style="stroke-width:1.25668478">
    <path
       id="path8"
       d="m 15.999833,4.0000392 c -0.261915,0 -0.524006,0.097624 -0.719794,0.2934074 l -3.986641,3.9870853 c -0.391577,0.3915661 -0.391022,1.0468572 6.12e-4,1.4384242 l 3.98664,3.9870839 c 0.391577,0.391567 1.047452,0.392122 1.439028,6.11e-4 l 3.98664,-3.9870839 c 0.391576,-0.391567 0.391576,-1.0474184 0,-1.4389853 L 16.719628,4.2934466 C 16.523839,4.097663 16.261748,4.0000392 15.999833,4.0000392 Z"
       style="fill:#3fa7e2;stroke-width:1.25668478"
       inkscape:connector-curvature="0" />
    <path
       id="path10"
       d="m 15.999833,18.00004 c -0.261915,0 -0.524006,0.09762 -0.719794,0.293406 l -3.986641,3.987086 c -0.391577,0.391565 -0.391022,1.046856 6.12e-4,1.438424 l 3.98664,3.987084 c 0.391577,0.391567 1.047452,0.392122 1.439028,6.11e-4 l 3.98664,-3.987084 c 0.391576,-0.391567 0.391576,-1.047419 0,-1.438985 L 16.719651,18.29347 c -0.195788,-0.195784 -0.457878,-0.293408 -0.719795,-0.293408 z"
       style="fill:#3f3f3f;stroke-width:1.25668478"
       inkscape:connector-curvature="0" />
    <path
       id="path12"
       d="m 28,15.999812 c 0,-0.261916 -0.09762,-0.524008 -0.293408,-0.719796 L 23.719491,11.29336 c -0.391568,-0.391578 -1.046861,-0.391023 -1.43843,6.11e-4 l -3.9871,3.986657 c -0.391568,0.391577 -0.392124,1.047454 -6.11e-4,1.439033 l 3.987099,3.986655 c 0.391569,0.391578 1.047424,0.391578 1.438993,0 l 3.98715,-3.986705 C 27.902377,16.523821 28,16.26173 28,15.999812 Z"
       style="fill:#f1ca42;stroke-width:1.25668478"
       inkscape:connector-curvature="0" />
    <path
       id="path14"
       d="m 14,15.999831 c 0,-0.261916 -0.09762,-0.524008 -0.293409,-0.719796 L 9.7194915,11.293379 C 9.3279234,10.901801 8.6726301,10.902356 8.2810611,11.29399 l -3.9870999,3.986657 c -0.3915683,0.391577 -0.392124,1.047455 -6.112e-4,1.439034 l 3.9870999,3.986655 c 0.3915684,0.391578 1.0474229,0.391578 1.4389916,0 l 3.9871275,-3.986684 c 0.195784,-0.195788 0.293408,-0.45788 0.293408,-0.719798 z"
       style="fill:#ea72bb;stroke-width:1.25668478"
       inkscape:connector-curvature="0" />
  </g>
</svg>
