<?xml version="1.0" encoding="UTF-8" standalone="no"?>
<svg
   xmlns:dc="http://purl.org/dc/elements/1.1/"
   xmlns:cc="http://creativecommons.org/ns#"
   xmlns:rdf="http://www.w3.org/1999/02/22-rdf-syntax-ns#"
   xmlns:svg="http://www.w3.org/2000/svg"
   xmlns="http://www.w3.org/2000/svg"
   xmlns:sodipodi="http://sodipodi.sourceforge.net/DTD/sodipodi-0.dtd"
   xmlns:inkscape="http://www.inkscape.org/namespaces/inkscape"
   height="32"
   width="32"
   version="1"
   id="svg20"
   sodipodi:docname="converseen.svg"
   inkscape:version="0.92.1 r">
  <metadata
     id="metadata26">
    <rdf:RDF>
      <cc:Work
         rdf:about="">
        <dc:format>image/svg+xml</dc:format>
        <dc:type
           rdf:resource="http://purl.org/dc/dcmitype/StillImage" />
      </cc:Work>
    </rdf:RDF>
  </metadata>
  <defs
     id="defs24" />
  <sodipodi:namedview
     pagecolor="#ffffff"
     bordercolor="#666666"
     borderopacity="1"
     objecttolerance="10"
     gridtolerance="10"
     guidetolerance="10"
     inkscape:pageopacity="0"
     inkscape:pageshadow="2"
     inkscape:window-width="640"
     inkscape:window-height="480"
     id="namedview22"
     showgrid="false"
     inkscape:zoom="12.462757"
     inkscape:cx="25.126036"
     inkscape:cy="15.172634"
     inkscape:current-layer="svg20" />
  <g
     transform="matrix(0.7,0,0,0.7,-2.8999997,5.9304692)"
     id="g18"
     style="fill:#ffffff">
    <path
       d="M 14,2 V 3 L 20.089844,6.4804688 21,6 Z m 0,2.0996094 C 7.4276685,4.0996094 2,9.4280682 2,16 c 0,0.156003 0.021444,0.305934 0.027344,0.460938 C 2.3164494,10.140811 7.6093717,5.0996094 14,5.0996094 Z m 10.583984,2.1210937 c -0.952019,-0.00252 -1.817053,1.4782827 -1.498046,2.6289063 0.187003,-0.8596175 0.812033,-1.630706 1.498046,-1.6289063 0.176004,4.998e-4 0.35334,0.051262 0.527344,0.1640625 2.846057,2.079042 4.716325,5.3952224 4.861328,9.1542964 C 29.980657,16.359059 30,16.182003 30,16 30,12.049921 28.074387,8.549209 25.111328,6.3847656 24.937324,6.2719634 24.759988,6.2212029 24.583984,6.2207031 Z"
       transform="matrix(1.4285714,0,0,1.4285714,4.1428571,1.1428571)"
       style="opacity:0.1;fill:#ffffff;fill-opacity:1"
       id="path16"
       inkscape:connector-curvature="0" />
  </g>
  <rect
     style="opacity:1;fill:#ececec;fill-opacity:1;fill-rule:evenodd;stroke:none;stroke-width:1.03534329;stroke-linecap:round;stroke-linejoin:bevel;stroke-miterlimit:4;stroke-dasharray:none;stroke-dashoffset:0;stroke-opacity:1"
     id="rect4497-3"
     width="28.203388"
     height="28.203388"
     x="1.8983059"
     y="1.8983059"
     ry="5.575182" />
  <g
     id="g4515"
     transform="matrix(0.72441674,0,0,0.72441674,4.4093829,4.4093575)"
     style="stroke-width:1.38042092">
    <g
       id="g6"
       transform="matrix(0.7,0,0,0.7,-2.9,-0.8)"
       style="fill:#9ccd44;stroke-width:1.38042092">
      <path
         id="path4"
         d="M 22.143,4 V 7 C 12.754,7 5,14.611 5,24 c 0,5.6431 2.75,10.644 6.9824,13.736 1.9893,1.2887 4.3615,-3.0761 2.0391,-4.7715 -2.468,-2.197 -4.022,-5.399 -4.022,-8.964 0,-6.627 5.515,-12 12.143,-12 v 3 l 10,-5.2857 z"
         transform="translate(2)"
         inkscape:connector-curvature="0"
         style="stroke-width:1.38042092" />
    </g>
    <g
       id="g10"
       transform="matrix(-0.7,0,0,-0.7,34.9,32.8)"
       style="fill:#5db43e;stroke-width:1.38042092">
      <path
         id="path8"
         d="m 37.264,10.029 c -1.7552,-0.0047 -3.3173,3.5224 -1.2852,5.0059 2.467,2.198 4.021,5.4 4.021,8.965 0,6.627 -5.515,12 -12.143,12 v -3 l -10,5.2857 10,5.7143 v -3 c 9.389,0 17.143,-7.611 17.143,-17 0,-5.643 -2.75,-10.644 -6.982,-13.736 -0.249,-0.161 -0.504,-0.234 -0.754,-0.235 z"
         transform="rotate(180,26,24)"
         inkscape:connector-curvature="0"
         style="stroke-width:1.38042092" />
    </g>
  </g>
</svg>
