<?xml version="1.0" encoding="UTF-8" standalone="no"?>
<!-- Created with Inkscape (http://www.inkscape.org/) -->

<svg
   xmlns:dc="http://purl.org/dc/elements/1.1/"
   xmlns:cc="http://creativecommons.org/ns#"
   xmlns:rdf="http://www.w3.org/1999/02/22-rdf-syntax-ns#"
   xmlns:svg="http://www.w3.org/2000/svg"
   xmlns="http://www.w3.org/2000/svg"
   xmlns:sodipodi="http://sodipodi.sourceforge.net/DTD/sodipodi-0.dtd"
   xmlns:inkscape="http://www.inkscape.org/namespaces/inkscape"
   height="32"
   width="32"
   version="1.1"
   viewBox="0 0 8.4666667 8.4666667"
   id="svg24"
   sodipodi:docname="crossstudio.svg"
   inkscape:version="0.92.1 r">
  <metadata
     id="metadata30">
    <rdf:RDF>
      <cc:Work
         rdf:about="">
        <dc:format>image/svg+xml</dc:format>
        <dc:type
           rdf:resource="http://purl.org/dc/dcmitype/StillImage" />
      </cc:Work>
    </rdf:RDF>
  </metadata>
  <defs
     id="defs28" />
  <sodipodi:namedview
     pagecolor="#ffffff"
     bordercolor="#666666"
     borderopacity="1"
     objecttolerance="10"
     gridtolerance="10"
     guidetolerance="10"
     inkscape:pageopacity="0"
     inkscape:pageshadow="2"
     inkscape:window-width="640"
     inkscape:window-height="480"
     id="namedview26"
     showgrid="false"
     inkscape:zoom="7.2247649"
     inkscape:cx="-7.4841411"
     inkscape:cy="25.782618"
     inkscape:current-layer="svg24" />
  <g
     id="g4596"
     transform="translate(12.783716,0.55707197)">
    <path
       transform="scale(0.26458333)"
       id="path4570"
       d="m -32.214844,13.996094 c -1.188815,0 -2.30916,0.228823 -3.359375,0.628906 -1.050215,0.400083 -2.028742,0.972347 -2.9375,1.658203 -0.908757,0.685856 -1.747276,1.484477 -2.511719,2.341797 -0.764442,0.85732 -1.454996,1.773025 -2.072265,2.6875 -1.016842,1.506434 -1.699443,2.891642 -2.306641,4.142578 0.997846,1.497152 2.618679,2.541016 4.560547,2.541016 h 0.775391 c 0.200213,-0.1179 0.463619,-0.09026 0.65039,-0.248047 0.662993,-0.560116 1.258307,-1.360114 1.898438,-2.320313 0.640131,-0.960198 1.325987,-2.081001 2.171875,-3.28125 0.845888,-1.200248 1.850597,-2.4795 3.130859,-3.759765 0,0 0.620534,-0.791333 1.574219,-1.546875 0.476842,-0.377771 1.035959,-0.747019 1.644531,-1.003906 0.608572,-0.256888 1.266374,-0.40254 1.935547,-0.332032 -0.541639,-0.361112 -1.404178,-0.768451 -2.34375,-1.070312 -0.939572,-0.301862 -1.957387,-0.497738 -2.810547,-0.4375 z"
       style="opacity:1;fill:#ffffff;fill-opacity:1;fill-rule:evenodd;stroke:none;stroke-width:1.03534329;stroke-linecap:round;stroke-linejoin:bevel;stroke-miterlimit:4;stroke-dasharray:none;stroke-dashoffset:0;stroke-opacity:1"
       inkscape:connector-curvature="0" />
    <path
       transform="scale(0.26458333)"
       id="path4577"
       d="m -29.076172,14.583984 c 0.300486,0.108071 0.503765,0.230658 0.771484,0.351563 -0.191835,-0.08662 -0.354021,-0.235591 -0.550781,-0.310547 -0.06898,-0.02628 -0.15112,-0.01623 -0.220703,-0.04102 z"
       style="opacity:1;fill:#fecd38;fill-opacity:1;fill-rule:evenodd;stroke:none;stroke-width:1.03534329;stroke-linecap:round;stroke-linejoin:bevel;stroke-miterlimit:4;stroke-dasharray:none;stroke-dashoffset:0;stroke-opacity:1"
       inkscape:connector-curvature="0" />
    <path
       transform="scale(0.26458333)"
       id="path4575"
       d="m -24.361328,27.996094 c -0.200213,-0.1179 -0.463619,-0.09026 -0.650391,-0.248047 -0.662993,-0.560116 -1.258306,-1.360114 -1.898437,-2.320313 -0.640131,-0.960198 -1.325988,-2.081001 -2.171875,-3.28125 -0.845888,-1.200248 -1.85255,-2.4795 -3.132813,-3.759765 -1.280262,1.280265 -2.284971,2.559517 -3.130859,3.759765 -0.845888,1.200249 -1.531744,2.321052 -2.171875,3.28125 -0.640131,0.960199 -1.235445,1.760197 -1.898438,2.320313 -0.186771,0.15779 -0.450177,0.130147 -0.65039,0.248047 z"
       style="opacity:1;fill:#4f4f4f;fill-opacity:1;fill-rule:evenodd;stroke:none;stroke-width:1.03534329;stroke-linecap:round;stroke-linejoin:bevel;stroke-miterlimit:4;stroke-dasharray:none;stroke-dashoffset:0;stroke-opacity:1"
       inkscape:connector-curvature="0" />
    <path
       transform="scale(0.26458333)"
       id="path4573"
       d="m -19.117188,25.289062 c -0.598873,-1.220121 -1.238685,-2.530399 -2.214843,-3.976562 -0.61727,-0.914475 -1.307823,-1.83018 -2.072266,-2.6875 -0.764442,-0.85732 -1.602961,-1.655941 -2.511719,-2.341797 -0.409988,-0.309425 -0.887232,-0.490402 -1.326172,-0.748047 -0.604133,-0.02796 -1.20245,0.068 -1.753906,0.300782 -0.608572,0.256886 -1.167689,0.626135 -1.644531,1.003906 -0.953685,0.755542 -1.574219,1.546875 -1.574219,1.546875 1.280263,1.280265 2.286925,2.559517 3.132813,3.759765 0.845887,1.200249 1.531744,2.321052 2.171875,3.28125 0.640131,0.960199 1.235444,1.760197 1.898437,2.320313 0.186772,0.15779 0.450178,0.130147 0.650391,0.248047 h 0.572266 c 2.014559,0 3.692802,-1.114541 4.671874,-2.707032 z"
       style="opacity:1;fill:#eba43c;fill-opacity:1;fill-rule:evenodd;stroke:none;stroke-width:1.03534329;stroke-linecap:round;stroke-linejoin:bevel;stroke-miterlimit:4;stroke-dasharray:none;stroke-dashoffset:0;stroke-opacity:1"
       inkscape:connector-curvature="0" />
    <path
       transform="scale(0.26458333)"
       id="path4568"
       d="m -19.054688,2.5917969 c -0.604622,1.2411218 -1.273805,2.6011689 -2.277343,4.0878906 -0.61727,0.914472 -1.307823,1.8301825 -2.072266,2.6875 -0.764442,0.8573175 -1.602961,1.6578955 -2.511719,2.3437505 -0.908757,0.685852 -1.889237,1.256168 -2.939453,1.65625 -1.050215,0.400079 -2.17056,0.628906 -3.359375,0.628906 0.85316,-0.06024 1.870975,0.135638 2.810547,0.4375 0.131623,0.04229 0.200196,0.10438 0.328125,0.15039 0.06958,0.02478 0.151724,0.01474 0.220703,0.04102 0.19676,0.07496 0.358946,0.223929 0.550781,0.310547 0.431925,0.195061 0.956603,0.376657 1.244141,0.568359 -0.0628,-0.0066 -0.119069,0.03415 -0.181641,0.03125 0.43894,0.257645 0.916184,0.438622 1.326172,0.748047 0.908758,0.685856 1.747277,1.484477 2.511719,2.341797 0.764443,0.85732 1.454996,1.773025 2.072266,2.6875 0.976158,1.446163 1.61597,2.756441 2.214843,3.976562 0.522006,-0.849057 0.902344,-1.793097 0.902344,-2.867187 V 5.3691406 c 0,-1.0341836 -0.353036,-1.9489111 -0.839844,-2.7773437 z"
       style="opacity:1;fill:#4f4f4f;fill-opacity:1;fill-rule:evenodd;stroke:none;stroke-width:1.03534329;stroke-linecap:round;stroke-linejoin:bevel;stroke-miterlimit:4;stroke-dasharray:none;stroke-dashoffset:0;stroke-opacity:1"
       inkscape:connector-curvature="0" />
    <path
       transform="scale(0.26458333)"
       id="path4584"
       d="m -32.214844,9.6074219 c 1.280263,-1.280255 2.286925,-2.5614761 3.132813,-3.7617188 0.845887,-1.2002427 1.531744,-2.3191007 2.171875,-3.2792969 0.640131,-0.9601959 1.235444,-1.76215034 1.898437,-2.32226558 0.340454,-0.28762513 0.793444,-0.30098039 1.185547,-0.45117187 h -16.77539 c 0.392103,0.15019148 0.845092,0.16354672 1.185546,0.45117187 0.662993,0.56011524 1.258307,1.36206948 1.898438,2.32226558 0.640131,0.9601962 1.325987,2.0790542 2.171875,3.2792969 0.845887,1.2002427 1.850597,2.4814638 3.130859,3.7617188 z"
       style="opacity:1;fill:#4f4f4f;fill-opacity:1;fill-rule:evenodd;stroke:none;stroke-width:1.03534329;stroke-linecap:round;stroke-linejoin:bevel;stroke-miterlimit:4;stroke-dasharray:none;stroke-dashoffset:0;stroke-opacity:1"
       inkscape:connector-curvature="0" />
    <path
       transform="scale(0.26458333)"
       id="path4582"
       d="m -36.134766,13.050781 c 0.195349,0.08846 0.360086,0.240041 0.560547,0.316407 0.06957,0.0265 0.152473,0.01603 0.222657,0.04101 -0.305127,-0.10974 -0.512002,-0.234533 -0.783204,-0.357422 z"
       style="opacity:1;fill:#fecd38;fill-opacity:1;fill-rule:evenodd;stroke:none;stroke-width:1.03534329;stroke-linecap:round;stroke-linejoin:bevel;stroke-miterlimit:4;stroke-dasharray:none;stroke-dashoffset:0;stroke-opacity:1"
       inkscape:connector-curvature="0" />
    <path
       transform="scale(0.26458333)"
       id="path4580"
       d="m -45.464844,2.4257812 c -0.552181,0.8656864 -0.953125,1.8364116 -0.953125,2.9433594 V 22.421875 c 0,1.146782 0.426342,2.149051 1.015625,3.033203 0.607198,-1.250936 1.289799,-2.636144 2.306641,-4.142578 0.617269,-0.914475 1.307824,-1.83018 2.072265,-2.6875 0.764443,-0.85732 1.602962,-1.655941 2.511719,-2.341797 0.908758,-0.685856 1.887285,-1.25812 2.9375,-1.658203 1.050215,-0.400083 2.17056,-0.628906 3.359375,-0.628906 -0.853159,0.06024 -1.869022,-0.135644 -2.808594,-0.4375 -0.131622,-0.04229 -0.200196,-0.10438 -0.328124,-0.150391 -0.07018,-0.02498 -0.153087,-0.01451 -0.222657,-0.04101 -0.200461,-0.07637 -0.365198,-0.227944 -0.560547,-0.316407 -0.426763,-0.193378 -0.947636,-0.372643 -1.232422,-0.5625 0.06221,0.0066 0.117737,-0.03415 0.179688,-0.03125 -0.438491,-0.257451 -0.914624,-0.436966 -1.324219,-0.746093 -0.908757,-0.685855 -1.747276,-1.486433 -2.511719,-2.3437505 -0.764442,-0.8573175 -1.454996,-1.773028 -2.072265,-2.6875 -1.044222,-1.5469932 -1.757102,-2.98361 -2.369141,-4.2539063 z"
       style="opacity:1;fill:#4f4f4f;fill-opacity:1;fill-rule:evenodd;stroke:none;stroke-width:1.03534329;stroke-linecap:round;stroke-linejoin:bevel;stroke-miterlimit:4;stroke-dasharray:none;stroke-dashoffset:0;stroke-opacity:1"
       inkscape:connector-curvature="0" />
    <path
       transform="scale(0.26458333)"
       id="path4565"
       d="m -45.464844,2.4257812 c 0.612039,1.2702963 1.324919,2.7069131 2.369141,4.2539063 0.617269,0.914472 1.307823,1.8301825 2.072265,2.6875 0.764443,0.8573175 1.602962,1.6578955 2.511719,2.3437505 0.409595,0.309127 0.885728,0.488642 1.324219,0.746093 0.604452,0.02832 1.201909,-0.06777 1.753906,-0.300781 0.608572,-0.256892 1.169642,-0.62613 1.646485,-1.003906 0.953684,-0.755553 1.572265,-1.5449221 1.572265,-1.5449221 -1.280262,-1.280255 -2.284972,-2.5614761 -3.130859,-3.7617188 -0.845888,-1.2002427 -1.531744,-2.3191007 -2.171875,-3.2792969 -0.640131,-0.9601961 -1.235445,-1.76215034 -1.898438,-2.32226558 -0.340454,-0.28762515 -0.793443,-0.30098039 -1.185546,-0.45117187 h -0.240235 c -1.981703,0 -3.63451,1.08302558 -4.623047,2.63281245 z"
       style="opacity:1;fill:#568cbf;fill-opacity:1;fill-rule:evenodd;stroke:none;stroke-width:1.03534329;stroke-linecap:round;stroke-linejoin:bevel;stroke-miterlimit:4;stroke-dasharray:none;stroke-dashoffset:0;stroke-opacity:1"
       inkscape:connector-curvature="0" />
    <path
       transform="scale(0.26458333)"
       id="rect4497-3"
       d="m -23.826172,-0.20703125 c -0.392103,0.15019148 -0.845093,0.16354672 -1.185547,0.45117187 -0.662993,0.56011524 -1.258306,1.36206948 -1.898437,2.32226558 -0.640131,0.9601962 -1.325988,2.0790542 -2.171875,3.2792969 -0.845888,1.2002427 -1.85255,2.4814638 -3.132813,3.7617188 0,0 -0.618581,0.7893691 -1.572265,1.5449221 -0.476843,0.377776 -1.037913,0.747014 -1.646485,1.003906 -0.608572,0.256892 -1.26442,0.402539 -1.933594,0.332031 0.54164,0.361093 1.404179,0.768456 2.34375,1.070313 0.939572,0.301856 1.955435,0.497738 2.808594,0.4375 1.188815,0 2.30916,-0.228825 3.359375,-0.628906 1.050216,-0.400082 2.030696,-0.970396 2.939453,-1.65625 0.908758,-0.685855 1.747277,-1.486433 2.511719,-2.3437505 0.764443,-0.8573175 1.454996,-1.773028 2.072266,-2.6875 1.003538,-1.4867217 1.672719,-2.8467688 2.277343,-4.0878906 -0.967072,-1.64573082 -2.679907,-2.79882815 -4.734374,-2.79882815 z"
       style="opacity:1;fill:#ffffff;fill-opacity:1;fill-rule:evenodd;stroke:none;stroke-width:1.03534329;stroke-linecap:round;stroke-linejoin:bevel;stroke-miterlimit:4;stroke-dasharray:none;stroke-dashoffset:0;stroke-opacity:1"
       inkscape:connector-curvature="0" />
  </g>
</svg>
