<?xml version="1.0" encoding="UTF-8" standalone="no"?>
<svg
   xmlns:dc="http://purl.org/dc/elements/1.1/"
   xmlns:cc="http://creativecommons.org/ns#"
   xmlns:rdf="http://www.w3.org/1999/02/22-rdf-syntax-ns#"
   xmlns:svg="http://www.w3.org/2000/svg"
   xmlns="http://www.w3.org/2000/svg"
   xmlns:sodipodi="http://sodipodi.sourceforge.net/DTD/sodipodi-0.dtd"
   xmlns:inkscape="http://www.inkscape.org/namespaces/inkscape"
   version="1"
   width="32"
   height="32"
   id="svg12"
   sodipodi:docname="curlew.svg"
   inkscape:version="0.92.1 r">
  <metadata
     id="metadata18">
    <rdf:RDF>
      <cc:Work
         rdf:about="">
        <dc:format>image/svg+xml</dc:format>
        <dc:type
           rdf:resource="http://purl.org/dc/dcmitype/StillImage" />
      </cc:Work>
    </rdf:RDF>
  </metadata>
  <defs
     id="defs16" />
  <sodipodi:namedview
     pagecolor="#ffffff"
     bordercolor="#666666"
     borderopacity="1"
     objecttolerance="10"
     gridtolerance="10"
     guidetolerance="10"
     inkscape:pageopacity="0"
     inkscape:pageshadow="2"
     inkscape:window-width="640"
     inkscape:window-height="480"
     id="namedview14"
     showgrid="false"
     inkscape:zoom="9.5938629"
     inkscape:cx="-11.730838"
     inkscape:cy="14.035871"
     inkscape:current-layer="svg12" />
  <g
     id="g4507"
     transform="translate(38.376953,2.7968748)">
    <path
       id="path4502"
       d="m -8.2753906,17.816406 c -0.391261,0.356623 -0.8632503,0.74993 -1.0175782,0.837891 -0.4117271,0.234758 -0.8369192,0.280947 -1.2187502,0.40625 -0.381831,0.125302 -0.721443,0.330244 -0.96289,0.880859 -0.08927,0.203604 -0.09278,0.516394 -0.123047,0.78711 -0.03026,0.270715 -0.08691,0.499523 -0.285156,0.533203 -0.691668,0.117503 -3.086288,0.04107 -3.417969,0.269531 -1.507486,0.859429 -3.356902,1.352193 -5.019531,1.826172 -0.317866,0.09059 -0.825137,1.10414 -1.152344,1.228516 -0.386644,0.146955 -0.806186,0.157871 -1.244141,0.0918 -0.437954,-0.06607 -0.894391,-0.209516 -1.351562,-0.371093 -0.914343,-0.323154 -1.834163,-0.71875 -2.632813,-0.71875 -1.045144,0 -2.491459,0.51546 -3.9375,0.851562 -0.72302,0.168051 -1.445724,0.29061 -2.11914,0.28125 -0.673417,-0.0094 -1.298338,-0.150657 -1.822266,-0.511719 -0.457713,-0.637047 -0.917453,-1.031474 -1.4375,-1.283203 -0.06738,-0.03261 -0.162935,-0.02665 -0.232422,-0.05469 0.53894,2.517625 2.662528,4.433594 5.345703,4.433594 h 17.052735 c 3.08865,0 5.5761714,-2.487522 5.5761714,-5.576172 z"
       style="opacity:1;fill:#4d4d4d;fill-opacity:1;fill-rule:evenodd;stroke:none;stroke-width:1.03534329;stroke-linecap:round;stroke-linejoin:bevel;stroke-miterlimit:4;stroke-dasharray:none;stroke-dashoffset:0;stroke-opacity:1"
       inkscape:connector-curvature="0" />
    <path
       id="rect4497"
       d="m -30.904297,-0.8984375 c -3.088651,0 -5.574219,2.4855679 -5.574219,5.5742187 V 21.728516 c 0,0.405475 0.147073,0.76212 0.228516,1.142578 0.06949,0.02804 0.165041,0.02207 0.232422,0.05469 0.520047,0.251729 0.979787,0.646156 1.4375,1.283203 0.523928,0.361062 1.148849,0.502359 1.822266,0.511719 0.673416,0.0094 1.39612,-0.113199 2.11914,-0.28125 1.446041,-0.336102 2.892356,-0.851562 3.9375,-0.851562 0.79865,0 1.71847,0.395596 2.632813,0.71875 0.457171,0.161577 0.913608,0.305019 1.351562,0.371093 0.437955,0.06607 0.857497,0.05516 1.244141,-0.0918 0.327207,-0.124376 0.834478,-1.137926 1.152344,-1.228516 1.662629,-0.473979 3.512045,-0.966743 5.019531,-1.826172 0.331681,-0.228465 2.726301,-0.152028 3.417969,-0.269531 0.198242,-0.03368 0.254891,-0.262488 0.285156,-0.533203 0.03026,-0.270716 0.03377,-0.583506 0.123047,-0.78711 0.241447,-0.550615 0.581059,-0.755557 0.96289,-0.880859 0.381831,-0.125303 0.8070231,-0.171492 1.2187502,-0.40625 0.1543279,-0.08796 0.6263172,-0.481268 1.0175782,-0.837891 V 4.6757812 c 0,-3.0886508 -2.4875214,-5.5742187 -5.5761714,-5.5742187 z"
       style="opacity:1;fill:#4ab1f1;fill-opacity:1;fill-rule:evenodd;stroke:none;stroke-width:1.03534329;stroke-linecap:round;stroke-linejoin:bevel;stroke-miterlimit:4;stroke-dasharray:none;stroke-dashoffset:0;stroke-opacity:1"
       inkscape:connector-curvature="0" />
    <path
       inkscape:connector-curvature="0"
       id="path8"
       d="m -26.279612,24.125224 c -0.618075,-0.305899 -0.739599,-0.810297 -0.470685,-0.976489 0.328118,-0.202876 0.140377,-1.381581 -0.431206,-2.707388 -0.561863,-1.303276 -0.569517,-1.343374 -0.311196,-1.631582 0.602983,-0.672781 0.571785,-0.710471 -0.502118,-0.606589 -2.982023,0.288331 -3.085908,0.781448 -4.114995,1.208894 -1.35532,0.562928 -2.576103,0.757921 -2.576103,0.600549 0,-0.06671 0.179222,-0.171597 0.398271,-0.233024 l 0.39827,-0.111548 -0.422297,-0.08518 c -0.421131,-0.08482 -0.419929,-0.08663 0.434477,-0.650348 2.514144,-2.553511 4.811849,-5.619886 8.101724,-7.347745 0.411993,-0.20878 0.883462,-0.520217 0.984113,-0.741122 0.09548,-0.209556 0.173605,-1.2886767 0.173605,-2.0308977 0,-1.5733796 0.253875,-2.4114525 1.204834,-2.6963665 0.742363,-0.096817 0.618536,-0.1407399 1.279948,0.2704093 0.440604,0.2738918 1.004121,1.098103 1.485851,1.157813 1.920069,0.2380042 3.711605,0.9709342 4.012577,1.4579222 0.05424,0.08775 -0.09068,0.06166 -0.322026,-0.05798 -1.253173,-0.648048 -3.887474,-1.0901016 -4.816563,-0.649222 -0.759952,0.360622 -0.309429,0.688813 -0.04049,2.2162227 0.364788,2.071793 0.108008,3.72572 -0.753873,4.855702 -0.207105,0.271549 -0.770504,0.783725 -1.252001,1.138247 -0.481497,0.354475 -1.470213,0.808015 -1.573917,1.007943 -0.103704,0.199853 -0.314277,0.523295 -0.46794,0.718653 -0.240294,0.305505 -0.281528,0.611379 -0.294694,2.186376 -0.0096,1.153938 0.0443,1.902985 0.14587,2.025394 0.08865,0.106732 0.120727,0.355309 0.07129,0.552386 -0.100907,0.401944 0.497638,0.999488 1.096615,0.999488 0.189148,0 0.470412,0.09555 0.625031,0.212532 0.259413,0.196242 0.225195,0.213023 -0.443003,0.217126 -0.452278,0.0044 -1.234932,-0.109902 -1.619369,-0.300172 z m -0.340166,-4.126508 c -0.0078,-0.258921 0.03343,-0.747622 0.09157,-1.086199 0.118743,-0.691429 -0.06353,-0.820324 -0.364605,-0.25774 -0.226922,0.423982 -0.230111,1.099416 -0.0072,1.516028 0.223757,0.417988 0.296569,0.373319 0.280195,-0.172089 z"
       style="fill:#4d4d4d" />
  </g>
</svg>
