<?xml version="1.0" encoding="UTF-8" standalone="no"?>
<svg
   xmlns:dc="http://purl.org/dc/elements/1.1/"
   xmlns:cc="http://creativecommons.org/ns#"
   xmlns:rdf="http://www.w3.org/1999/02/22-rdf-syntax-ns#"
   xmlns:svg="http://www.w3.org/2000/svg"
   xmlns="http://www.w3.org/2000/svg"
   xmlns:xlink="http://www.w3.org/1999/xlink"
   xmlns:sodipodi="http://sodipodi.sourceforge.net/DTD/sodipodi-0.dtd"
   xmlns:inkscape="http://www.inkscape.org/namespaces/inkscape"
   viewBox="0 0 32 32"
   width="32"
   version="1.1"
   height="32"
   id="svg30"
   sodipodi:docname="deepin-movie1.svg"
   inkscape:version="0.92.4 5da689c313, 2019-01-14">
  <metadata
     id="metadata36">
    <rdf:RDF>
      <cc:Work
         rdf:about="">
        <dc:format>image/svg+xml</dc:format>
        <dc:type
           rdf:resource="http://purl.org/dc/dcmitype/StillImage" />
        <dc:title></dc:title>
      </cc:Work>
    </rdf:RDF>
  </metadata>
  <defs
     id="defs34">
    <linearGradient
       inkscape:collect="always"
       id="linearGradient883">
      <stop
         style="stop-color:#547ff6;stop-opacity:1"
         offset="0"
         id="stop879" />
      <stop
         style="stop-color:#34b8ff;stop-opacity:1"
         offset="1"
         id="stop881" />
    </linearGradient>
    <linearGradient
       inkscape:collect="always"
       xlink:href="#linearGradient883"
       id="linearGradient917"
       x1="1.8984374"
       y1="16"
       x2="18.976562"
       y2="16"
       gradientUnits="userSpaceOnUse" />
  </defs>
  <sodipodi:namedview
     pagecolor="#ffffff"
     bordercolor="#666666"
     borderopacity="1"
     objecttolerance="10"
     gridtolerance="10"
     guidetolerance="10"
     inkscape:pageopacity="0"
     inkscape:pageshadow="2"
     inkscape:window-width="1680"
     inkscape:window-height="955"
     id="namedview32"
     showgrid="false"
     inkscape:zoom="5.2149125"
     inkscape:cx="-34.166675"
     inkscape:cy="32.452457"
     inkscape:window-x="0"
     inkscape:window-y="0"
     inkscape:window-maximized="1"
     inkscape:current-layer="svg30" />
  <rect
     ry="5.575182"
     y="1.8983059"
     x="1.8983059"
     height="28.203388"
     width="28.203388"
     id="rect902"
     style="opacity:1;fill:#0687ff;fill-opacity:1;fill-rule:evenodd;stroke:none;stroke-width:1.03534329;stroke-linecap:round;stroke-linejoin:bevel;stroke-miterlimit:4;stroke-dasharray:none;stroke-dashoffset:0;stroke-opacity:1" />
  <path
     style="opacity:1;fill:url(#linearGradient917);fill-opacity:1.0;fill-rule:evenodd;stroke:none;stroke-width:1.03534329;stroke-linecap:round;stroke-linejoin:bevel;stroke-miterlimit:4;stroke-dasharray:none;stroke-dashoffset:0;stroke-opacity:1"
     d="M 1.8984375 7.4707031 C 1.8984373 7.4713698 1.8984375 7.4719895 1.8984375 7.4726562 L 1.8984375 24.527344 C 1.8984375 27.615995 4.3840054 30.101562 7.4726562 30.101562 L 11.269531 30.101562 L 18.976562 30.101562 L 18.599609 24.011719 C 17.686143 23.981939 16.951327 23.78081 16.361328 23.453125 C 15.771329 23.12544 15.325479 22.672421 14.988281 22.140625 C 14.651083 21.608829 14.422643 20.997582 14.267578 20.355469 C 14.112513 19.713355 14.029926 19.039498 13.986328 18.380859 L 13.091797 1.8984375 L 7.4726562 1.8984375 C 4.3846722 1.8984375 1.8995107 4.3829791 1.8984375 7.4707031 z "
     id="rect4497-3-3" />
  <path
     style="fill:#ffffff;stroke-width:1.26150119"
     inkscape:connector-curvature="0"
     id="path4"
     d="m 12.975731,10.842863 a 0.51569094,0.57300599 0 0 0 -0.526015,0.573459 v 9.167518 a 0.51569094,0.57300599 0 0 0 0.771469,0.497962 l 7.219095,-4.58345 a 0.51569094,0.57300599 0 0 0 0,-0.995922 l -7.219095,-4.584069 a 0.51569094,0.57300599 0 0 0 -0.245443,-0.07529 z" />
  <path
     style="opacity:0.93599997;fill:#ffffff;fill-opacity:1;stroke:none;stroke-width:0.47999999;stroke-miterlimit:4;stroke-dasharray:none;stroke-opacity:1"
     d="M 6.6044922,4.373047 V 6.964844 H 9.196289 V 4.373047 Z m 5.4003908,0 V 6.964844 H 14.59668 V 4.373047 Z m 5.398437,0 v 2.591797 h 2.591797 V 4.373047 Z m 5.400391,0 v 2.591797 h 2.591797 V 4.373047 Z M 12.004883,25.035156 v 2.591797 h 2.591797 v -2.591797 z m 5.398437,0 v 2.591797 h 2.591797 v -2.591797 z m 5.400391,0 v 2.591797 h 2.591797 v -2.591797 z"
     id="rect858"
     inkscape:connector-curvature="0" />
  <rect
     style="opacity:0.93599997;fill:#f3f9ff;fill-opacity:1;stroke:none;stroke-width:0.1;stroke-miterlimit:4;stroke-dasharray:none;stroke-opacity:1"
     id="rect919"
     width="2.5917971"
     height="2.5917971"
     x="6.9201369"
     y="25.035156" />
</svg>
