<?xml version="1.0" encoding="UTF-8" standalone="no"?>
<svg
   xmlns:dc="http://purl.org/dc/elements/1.1/"
   xmlns:cc="http://creativecommons.org/ns#"
   xmlns:rdf="http://www.w3.org/1999/02/22-rdf-syntax-ns#"
   xmlns:svg="http://www.w3.org/2000/svg"
   xmlns="http://www.w3.org/2000/svg"
   xmlns:sodipodi="http://sodipodi.sourceforge.net/DTD/sodipodi-0.dtd"
   xmlns:inkscape="http://www.inkscape.org/namespaces/inkscape"
   height="32"
   width="32"
   version="1"
   id="svg26"
   sodipodi:docname="display-im6.Q16.svg"
   inkscape:version="0.92.1 r">
  <metadata
     id="metadata32">
    <rdf:RDF>
      <cc:Work
         rdf:about="">
        <dc:format>image/svg+xml</dc:format>
        <dc:type
           rdf:resource="http://purl.org/dc/dcmitype/StillImage" />
      </cc:Work>
    </rdf:RDF>
  </metadata>
  <defs
     id="defs30" />
  <sodipodi:namedview
     pagecolor="#ffffff"
     bordercolor="#666666"
     borderopacity="1"
     objecttolerance="10"
     gridtolerance="10"
     guidetolerance="10"
     inkscape:pageopacity="0"
     inkscape:pageshadow="2"
     inkscape:window-width="1680"
     inkscape:window-height="963"
     id="namedview28"
     showgrid="false"
     inkscape:zoom="7.375"
     inkscape:cx="-8.6779661"
     inkscape:cy="16"
     inkscape:window-x="0"
     inkscape:window-y="0"
     inkscape:window-maximized="1"
     inkscape:current-layer="svg26" />
  <rect
     style="opacity:1;fill:#3e50b4;fill-opacity:1;fill-rule:evenodd;stroke:none;stroke-width:1.03534329;stroke-linecap:round;stroke-linejoin:bevel;stroke-miterlimit:4;stroke-dasharray:none;stroke-dashoffset:0;stroke-opacity:1"
     id="rect4497-3"
     width="28.203388"
     height="28.203388"
     x="1.8983059"
     y="1.8983059"
     ry="5.575182" />
  <g
     id="g4521"
     transform="translate(44.609804,-0.67703716)">
    <path
       inkscape:connector-curvature="0"
       style="fill:#ffffff;stroke-width:0.58420575"
       id="path2"
       d="m -27.019225,8.0257265 c -1.671763,0.2330163 -3.468254,1.1119188 -4.929703,3.7122185 -3.34154,5.941957 -3.104236,8.010045 -3.636798,8.678376 -0.53456,0.665527 -1.975141,1.026742 -1.766813,1.783288 0.354122,0.709752 0.476945,0.788561 0.476945,0.788561 0,0 2.045538,3.159618 8.146749,2.306211 6.100861,-0.853408 6.946791,-2.244227 6.891291,-2.934524 -0.05528,-0.691057 -1.342797,-1.194935 -1.342797,-1.194935 0,0 -0.95319,-3.629202 -0.708466,-5.119102 0.2447,-1.490601 1.174312,-3.662737 2.093092,-4.130218 0.916093,-0.471857 1.374519,1.578699 1.848369,1.072602 0.472038,-0.507091 -0.784589,-3.4925574 -2.319297,-4.3822443 -1.228001,-0.8344795 -2.581605,-0.7542096 -4.752514,-0.5769616" />
    <g
       style="fill:#ffbe4b"
       id="g18"
       transform="matrix(0.44273448,0,0,0.41453487,-39.209028,6.9471133)">
      <path
         inkscape:connector-curvature="0"
         id="path12"
         d="m 22.089,17.167 3.882,-0.22261 2.055,-3.336 1.4104,3.805 3.7402,1.443 -2.8837,2.4851 -0.06285,4.0339 -3.0605,-2.1156 -4.0939,1.4241 1.1473,-3.9107 m -2.1354,-3.6076" />
      <path
         inkscape:connector-curvature="0"
         id="path14"
         d="m 21.507,29.297 3.6481,-1.4494 1.045,-3.8492 2.3868,3.1734 3.9682,0.18472 -2.0667,3.2934 1.045,3.8728 -3.5005,-1.0357 -3.5166,2.6698 0.02339,-4.1018 m -3.0313,-2.7566" />
      <path
         inkscape:connector-curvature="0"
         id="path16"
         d="m 12.064,24.197 3.8761,0.31418 2.4262,-3.0345 0.95295,3.966 3.5399,1.9483 -3.1512,2.0667 -0.5364,3.9897 -2.7799,-2.5103 -4.2313,0.85098 1.5931,-3.7181 m -1.6896,-3.8728" />
    </g>
  </g>
</svg>
