<?xml version="1.0" encoding="UTF-8" standalone="no"?>
<svg
   xmlns:dc="http://purl.org/dc/elements/1.1/"
   xmlns:cc="http://creativecommons.org/ns#"
   xmlns:rdf="http://www.w3.org/1999/02/22-rdf-syntax-ns#"
   xmlns:svg="http://www.w3.org/2000/svg"
   xmlns="http://www.w3.org/2000/svg"
   xmlns:sodipodi="http://sodipodi.sourceforge.net/DTD/sodipodi-0.dtd"
   xmlns:inkscape="http://www.inkscape.org/namespaces/inkscape"
   width="32"
   version="1.1"
   height="32"
   viewBox="0 0 32 32"
   id="svg24"
   sodipodi:docname="DV_Panels.svg"
   inkscape:version="0.92.2 2405546, 2018-03-11">
  <metadata
     id="metadata30">
    <rdf:RDF>
      <cc:Work
         rdf:about="">
        <dc:format>image/svg+xml</dc:format>
        <dc:type
           rdf:resource="http://purl.org/dc/dcmitype/StillImage" />
        <dc:title></dc:title>
      </cc:Work>
    </rdf:RDF>
  </metadata>
  <defs
     id="defs28" />
  <sodipodi:namedview
     pagecolor="#ffffff"
     bordercolor="#666666"
     borderopacity="1"
     objecttolerance="10"
     gridtolerance="10"
     guidetolerance="10"
     inkscape:pageopacity="0"
     inkscape:pageshadow="2"
     inkscape:window-width="1680"
     inkscape:window-height="972"
     id="namedview26"
     showgrid="false"
     inkscape:zoom="5.6568543"
     inkscape:cx="24.059622"
     inkscape:cy="10.305899"
     inkscape:window-x="1360"
     inkscape:window-y="0"
     inkscape:window-maximized="1"
     inkscape:current-layer="svg24" />
  <g
     id="g1099">
    <rect
       ry="5.575182"
       y="1.8983059"
       x="1.8983059"
       height="28.203388"
       width="28.203388"
       id="rect4497-3"
       style="opacity:1;fill:#2a2b2f;fill-opacity:1;fill-rule:evenodd;stroke:none;stroke-width:1.03534329;stroke-linecap:round;stroke-linejoin:bevel;stroke-miterlimit:4;stroke-dasharray:none;stroke-dashoffset:0;stroke-opacity:1" />
    <path
       id="path1060"
       d="M 21.410156 7.0410156 L 16.011719 16.267578 L 16.015625 16.273438 L 25.357422 10.949219 C 24.33546 9.2269701 22.956616 7.9375721 21.410156 7.0410156 z "
       style="fill:#fc9b08;fill-opacity:1;stroke:none;stroke-width:0.10996177;stroke-linecap:butt;stroke-linejoin:miter;stroke-miterlimit:4;stroke-dasharray:none;stroke-opacity:1" />
    <path
       id="path1006-3"
       d="M 16.046875 5.5703125 C 12.453591 5.5602551 8.8667788 7.3425269 6.7832031 10.949219 L 16.009766 16.275391 L 16.015625 16.273438 L 16.011719 16.267578 L 21.410156 7.0410156 C 19.754181 6.0809674 17.904958 5.5755132 16.046875 5.5703125 z "
       style="fill:#ffaf00;fill-opacity:1;stroke:none;stroke-width:0.10996177;stroke-linecap:butt;stroke-linejoin:miter;stroke-miterlimit:4;stroke-dasharray:none;stroke-opacity:1" />
    <path
       inkscape:transform-center-y="-5.3091307"
       inkscape:transform-center-x="-2.7538185"
       inkscape:connector-curvature="0"
       style="fill:#f1e80b;fill-opacity:1;stroke:none;stroke-width:0.10996177;stroke-linecap:butt;stroke-linejoin:miter;stroke-miterlimit:4;stroke-dasharray:none;stroke-opacity:1"
       d="m 16.095574,5.5641882 -0.0619,10.6896558 0.0063,0.0032 5.428124,-9.2818078 C 19.721939,5.9946283 17.883126,5.5673989 16.095574,5.5641882 Z"
       id="path1062" />
    <path
       id="path1064"
       d="m 10.754597,6.9425091 5.291221,9.2884639 0.0071,-3.79e-4 0.05999,-10.7523435 c -2.002522,0.023848 -3.808596,0.5732632 -5.358267,1.4642586 z"
       style="fill:#31fa1a;fill-opacity:1;stroke:none;stroke-width:0.10996177;stroke-linecap:butt;stroke-linejoin:miter;stroke-miterlimit:4;stroke-dasharray:none;stroke-opacity:1"
       inkscape:connector-curvature="0"
       inkscape:transform-center-x="2.563315"
       inkscape:transform-center-y="-5.365135" />
    <path
       inkscape:transform-center-y="-4.6874908"
       inkscape:transform-center-x="4.5624495"
       inkscape:connector-curvature="0"
       style="fill:#22f36d;fill-opacity:1;stroke:none;stroke-width:0.10996177;stroke-linecap:butt;stroke-linejoin:miter;stroke-miterlimit:4;stroke-dasharray:none;stroke-opacity:1"
       d="m 6.818336,10.806659 9.226564,5.398435 0.006,-0.0039 -5.32426,-9.3417761 C 9.0043293,7.8813318 7.7149309,9.2601764 6.8183741,10.806637 Z"
       id="path1066" />
    <path
       id="path1068"
       d="m 5.341509,16.121241 10.689656,0.0619 0.0032,-0.0064 -9.281832,-5.428085 C 5.7719711,12.494837 5.3447416,14.33365 5.341531,16.121203 Z"
       style="fill:#1ef3c8;fill-opacity:1;stroke:none;stroke-width:0.10996177;stroke-linecap:butt;stroke-linejoin:miter;stroke-miterlimit:4;stroke-dasharray:none;stroke-opacity:1"
       inkscape:connector-curvature="0"
       inkscape:transform-center-x="5.3091305"
       inkscape:transform-center-y="-2.7538482" />
    <path
       inkscape:transform-center-y="2.5633413"
       inkscape:transform-center-x="5.3651603"
       inkscape:connector-curvature="0"
       style="fill:#14a2eb;fill-opacity:1;stroke:none;stroke-width:0.10996177;stroke-linecap:butt;stroke-linejoin:miter;stroke-miterlimit:4;stroke-dasharray:none;stroke-opacity:1"
       d="m 6.7198303,21.462218 9.2884637,-5.291222 -4.29e-4,-0.0071 -10.7523446,-0.05994 c 0.023899,2.002518 0.5733139,3.808592 1.46431,5.358264 z"
       id="path1070" />
    <path
       id="path1072"
       d="m 10.58398,25.398479 5.398435,-9.226565 -0.0039,-0.0059 -9.3417735,5.324263 c 1.0219561,1.722282 2.4008004,3.01168 3.9472615,3.908237 z"
       style="fill:#1e5cfd;fill-opacity:1;stroke:none;stroke-width:0.10996177;stroke-linecap:butt;stroke-linejoin:miter;stroke-miterlimit:4;stroke-dasharray:none;stroke-opacity:1"
       inkscape:connector-curvature="0"
       inkscape:transform-center-x="4.6874893"
       inkscape:transform-center-y="4.5625173" />
    <path
       inkscape:transform-center-y="5.3091308"
       inkscape:transform-center-x="2.7537961"
       inkscape:connector-curvature="0"
       style="fill:#5514fd;fill-opacity:1;stroke:none;stroke-width:0.10996177;stroke-linecap:butt;stroke-linejoin:miter;stroke-miterlimit:4;stroke-dasharray:none;stroke-opacity:1"
       d="m 15.898562,26.875306 0.0619,-10.689657 -0.0063,-0.0032 -5.428081,9.281834 c 1.74618,0.980562 3.584994,1.407791 5.372547,1.411002 z"
       id="path1074" />
    <path
       id="path1076"
       d="m 21.239539,25.496985 -5.291222,-9.288465 -0.0071,3.79e-4 -0.05994,10.752344 c 2.002518,-0.0239 3.808592,-0.573314 5.358264,-1.46431 z"
       style="fill:#9c00fc;fill-opacity:1;stroke:none;stroke-width:0.10996177;stroke-linecap:butt;stroke-linejoin:miter;stroke-miterlimit:4;stroke-dasharray:none;stroke-opacity:1"
       inkscape:connector-curvature="0"
       inkscape:transform-center-x="-2.5633414"
       inkscape:transform-center-y="5.3651348" />
    <path
       inkscape:transform-center-y="4.6874888"
       inkscape:transform-center-x="-4.5624499"
       inkscape:connector-curvature="0"
       style="fill:#b200af;fill-opacity:1;stroke:none;stroke-width:0.10996177;stroke-linecap:butt;stroke-linejoin:miter;stroke-miterlimit:4;stroke-dasharray:none;stroke-opacity:1"
       d="m 25.1758,21.632835 -9.226565,-5.398436 -0.006,0.0039 5.324262,9.341773 c 1.722282,-1.021957 3.011681,-2.400801 3.908238,-3.947262 z"
       id="path1078" />
    <path
       id="path1080"
       d="m 26.652627,16.318252 -10.689657,-0.0619 -0.0032,0.0064 9.281833,5.428081 c 0.980561,-1.746181 1.407792,-3.584995 1.411002,-5.372548 z"
       style="fill:#d40235;fill-opacity:1;stroke:none;stroke-width:0.10996177;stroke-linecap:butt;stroke-linejoin:miter;stroke-miterlimit:4;stroke-dasharray:none;stroke-opacity:1"
       inkscape:connector-curvature="0"
       inkscape:transform-center-x="-5.3091309"
       inkscape:transform-center-y="2.7538458" />
    <path
       inkscape:transform-center-y="-2.5633417"
       inkscape:transform-center-x="-5.3651594"
       inkscape:connector-curvature="0"
       style="fill:#fc3b07;fill-opacity:1;stroke:none;stroke-width:0.10996177;stroke-linecap:butt;stroke-linejoin:miter;stroke-miterlimit:4;stroke-dasharray:none;stroke-opacity:1"
       d="m 25.274305,10.977275 -9.288464,5.291222 4.29e-4,0.0071 10.752343,0.05994 c -0.0239,-2.002518 -0.573314,-3.808593 -1.46431,-5.358264 z"
       id="path1082" />
    <path
       inkscape:connector-curvature="0"
       id="path1039"
       d="m 7.4726558,1.897461 c -3.08865,0 -5.574218,2.4875209 -5.574218,5.5761718 V 24.526367 c 0,3.088651 2.485568,5.576172 5.574218,5.576172 H 24.525391 c 3.08865,0 5.576171,-2.487521 5.576171,-5.576172 V 7.4736328 c 0,-3.0886509 -2.487521,-5.5761718 -5.576171,-5.5761718 z M 16,6.2490234 a 9.75,9.75 0 0 1 0.972656,0.048828 9.75,9.75 0 0 1 0.964844,0.1464844 9.75,9.75 0 0 1 0.94336,0.2402343 9.75,9.75 0 0 1 0.916015,0.3359376 9.75,9.75 0 0 1 0.876953,0.4238281 9.75,9.75 0 0 1 0.832032,0.5078125 9.75,9.75 0 0 1 0.77539,0.5898441 9.75,9.75 0 0 1 0.712891,0.6660151 9.75,9.75 0 0 1 0.642578,0.730469 9.75,9.75 0 0 1 0.568359,0.7929685 9.75,9.75 0 0 1 0.484375,0.845703 9.75,9.75 0 0 1 0.398438,0.890625 9.75,9.75 0 0 1 0.306641,0.923828 9.75,9.75 0 0 1 0.21289,0.951173 9.75,9.75 0 0 1 0.117188,0.966797 9.75,9.75 0 0 1 0.02539,0.689453 9.75,9.75 0 0 1 -0.04883,0.974608 9.75,9.75 0 0 1 -0.146484,0.962891 9.75,9.75 0 0 1 -0.240235,0.945313 9.75,9.75 0 0 1 -0.333984,0.914062 9.75,9.75 0 0 1 -0.423828,0.878906 9.75,9.75 0 0 1 -0.509766,0.830078 9.75,9.75 0 0 1 -0.589843,0.775391 9.75,9.75 0 0 1 -0.664063,0.714844 9.75,9.75 0 0 1 -0.732422,0.642578 9.75,9.75 0 0 1 -0.792969,0.566407 9.75,9.75 0 0 1 -0.845703,0.484374 9.75,9.75 0 0 1 -0.888672,0.398438 9.75,9.75 0 0 1 -0.925781,0.308593 9.75,9.75 0 0 1 -0.951172,0.212891 9.75,9.75 0 0 1 -0.966797,0.117188 9.75,9.75 0 0 1 -0.689453,0.02344 9.75,9.75 0 0 1 -0.972656,-0.04687 A 9.75,9.75 0 0 1 14.062498,25.555672 9.75,9.75 0 0 1 13.119139,25.315438 9.75,9.75 0 0 1 12.203123,24.9795 9.75,9.75 0 0 1 11.32617,24.555672 9.75,9.75 0 0 1 10.494139,24.04786 9.75,9.75 0 0 1 9.7187482,23.458016 9.75,9.75 0 0 1 9.0058582,22.792 9.75,9.75 0 0 1 8.3632798,22.061531 a 9.75,9.75 0 0 1 -0.56836,-0.792968 9.75,9.75 0 0 1 -0.484375,-0.845703 9.75,9.75 0 0 1 -0.398437,-0.890625 9.75,9.75 0 0 1 -0.306641,-0.923828 9.75,9.75 0 0 1 -0.212891,-0.951172 9.75,9.75 0 0 1 -0.11914,-0.966797 9.75,9.75 0 0 1 -0.023438,-0.691406 9.75,9.75 0 0 1 0.048828,-0.972656 9.75,9.75 0 0 1 0.144532,-0.962891 9.75,9.75 0 0 1 0.242187,-0.945313 9.75,9.75 0 0 1 0.333985,-0.916015 9.75,9.75 0 0 1 0.423828,-0.876953 9.75,9.75 0 0 1 0.509765,-0.830079 9.75,9.75 0 0 1 0.589844,-0.7753906 9.75,9.75 0 0 1 0.6640634,-0.714844 9.75,9.75 0 0 1 0.732421,-0.642578 9.75,9.75 0 0 1 0.7929688,-0.5664061 9.75,9.75 0 0 1 0.845703,-0.484375 9.75,9.75 0 0 1 0.888672,-0.3984375 9.75,9.75 0 0 1 0.925781,-0.3085938 9.75,9.75 0 0 1 0.949219,-0.2128906 9.75,9.75 0 0 1 0.96875,-0.1171875 9.75,9.75 0 0 1 0.689453,-0.025391 z m 0,1.375 a 8.3750009,8.3750009 0 0 0 -0.591797,0.021484 8.3750009,8.3750009 0 0 0 -0.832031,0.1015624 8.3750009,8.3750009 0 0 0 -0.816406,0.1816407 8.3750009,8.3750009 0 0 0 -0.794922,0.265625 8.3750009,8.3750009 0 0 0 -0.763672,0.3417967 8.3750009,8.3750009 0 0 0 -0.726562,0.4160159 8.3750009,8.3750009 0 0 0 -0.679688,0.4863281 8.3750009,8.3750009 0 0 0 -0.630859,0.5527339 8.3750009,8.3750009 0 0 0 -0.5703128,0.6132819 8.3750009,8.3750009 0 0 0 -0.505859,0.666015 8.3750009,8.3750009 0 0 0 -0.4375004,0.712891 8.3750009,8.3750009 0 0 0 -0.365235,0.753906 8.3750009,8.3750009 0 0 0 -0.285156,0.787109 8.3750009,8.3750009 0 0 0 -0.208984,0.8125 8.3750009,8.3750009 0 0 0 -0.125,0.826172 8.3750009,8.3750009 0 0 0 -0.041016,0.835938 8.3750009,8.3750009 0 0 0 0.019532,0.59375 8.3750009,8.3750009 0 0 0 0.103515,0.830078 8.3750009,8.3750009 0 0 0 0.181641,0.818359 8.3750009,8.3750009 0 0 0 0.263672,0.792969 8.3750009,8.3750009 0 0 0 0.341796,0.765625 8.3750009,8.3750009 0 0 0 0.4160164,0.726563 8.3750009,8.3750009 0 0 0 0.488281,0.679687 8.3750009,8.3750009 0 0 0 0.552735,0.628906 8.3750009,8.3750009 0 0 0 0.6132808,0.570312 8.3750009,8.3750009 0 0 0 0.666016,0.507813 8.3750009,8.3750009 0 0 0 0.71289,0.435547 8.3750009,8.3750009 0 0 0 0.753907,0.365234 8.3750009,8.3750009 0 0 0 0.787109,0.287109 8.3750009,8.3750009 0 0 0 0.810547,0.207032 8.3750009,8.3750009 0 0 0 0.828125,0.125 8.3750009,8.3750009 0 0 0 0.835937,0.04102 8.3750009,8.3750009 0 0 0 0.591797,-0.01953 8.3750009,8.3750009 0 0 0 0.830078,-0.101562 8.3750009,8.3750009 0 0 0 0.81836,-0.181641 8.3750009,8.3750009 0 0 0 0.794921,-0.265625 8.3750009,8.3750009 0 0 0 0.763672,-0.341797 8.3750009,8.3750009 0 0 0 0.726563,-0.416015 8.3750009,8.3750009 0 0 0 0.679687,-0.488282 8.3750009,8.3750009 0 0 0 0.63086,-0.550781 8.3750009,8.3750009 0 0 0 0.570312,-0.615234 8.3750009,8.3750009 0 0 0 0.50586,-0.666016 8.3750009,8.3750009 0 0 0 0.4375,-0.71289 8.3750009,8.3750009 0 0 0 0.365234,-0.753906 A 8.3750009,8.3750009 0 0 0 24,18.475591 a 8.3750009,8.3750009 0 0 0 0.207032,-0.8125 8.3750009,8.3750009 0 0 0 0.126953,-0.826172 8.3750009,8.3750009 0 0 0 0.04101,-0.83789 8.3750009,8.3750009 0 0 0 -0.02148,-0.591797 8.3750009,8.3750009 0 0 0 -0.101562,-0.830083 8.3750009,8.3750009 0 0 0 -0.18164,-0.81836 A 8.3750009,8.3750009 0 0 0 23.806641,12.965821 8.3750009,8.3750009 0 0 0 23.464844,12.200196 8.3750009,8.3750009 0 0 0 23.048828,11.473633 8.3750009,8.3750009 0 0 0 22.560547,10.793946 8.3750009,8.3750009 0 0 0 22.007813,10.165039 8.3750009,8.3750009 0 0 0 21.394532,9.5927735 8.3750009,8.3750009 0 0 0 20.728516,9.0869135 8.3750009,8.3750009 0 0 0 20.015625,8.6513676 8.3750009,8.3750009 0 0 0 19.261719,8.2861329 8.3750009,8.3750009 0 0 0 18.47461,7.9990234 8.3750009,8.3750009 0 0 0 17.664063,7.7919921 8.3750009,8.3750009 0 0 0 16.835938,7.665039 8.3750009,8.3750009 0 0 0 16,7.6240234 Z"
       style="opacity:1;fill:#2a2b2f;fill-opacity:1;fill-rule:evenodd;stroke:none;stroke-width:0.88933343;stroke-linecap:round;stroke-linejoin:bevel;stroke-miterlimit:4;stroke-dasharray:none;stroke-dashoffset:0;stroke-opacity:1" />
  </g>
  <circle
     style="fill:#47484d;fill-opacity:1;stroke:none;stroke-width:0.0931624;stroke-miterlimit:4;stroke-dasharray:none;stroke-opacity:1"
     id="path1101"
     cx="16"
     cy="16"
     r="6.8125" />
  <circle
     r="5.1875"
     cy="16"
     cx="16"
     id="circle1103"
     style="fill:#151519;fill-opacity:1;stroke:none;stroke-width:0.07094018;stroke-miterlimit:4;stroke-dasharray:none;stroke-opacity:1" />
  <circle
     style="fill:#2a2b2f;fill-opacity:1;stroke:none;stroke-width:0.05280923;stroke-miterlimit:4;stroke-dasharray:none;stroke-opacity:1"
     id="circle1105"
     cx="16"
     cy="16"
     r="3.8616748" />
</svg>
