<?xml version="1.0" encoding="UTF-8" standalone="no"?>
<svg
   xmlns:dc="http://purl.org/dc/elements/1.1/"
   xmlns:cc="http://creativecommons.org/ns#"
   xmlns:rdf="http://www.w3.org/1999/02/22-rdf-syntax-ns#"
   xmlns:svg="http://www.w3.org/2000/svg"
   xmlns="http://www.w3.org/2000/svg"
   xmlns:sodipodi="http://sodipodi.sourceforge.net/DTD/sodipodi-0.dtd"
   xmlns:inkscape="http://www.inkscape.org/namespaces/inkscape"
   width="32"
   version="1.1"
   height="32"
   viewBox="0 0 32 32"
   id="svg24"
   sodipodi:docname="DV_Uninstall.svg"
   inkscape:version="0.92.2 2405546, 2018-03-11">
  <metadata
     id="metadata30">
    <rdf:RDF>
      <cc:Work
         rdf:about="">
        <dc:format>image/svg+xml</dc:format>
        <dc:type
           rdf:resource="http://purl.org/dc/dcmitype/StillImage" />
        <dc:title></dc:title>
      </cc:Work>
    </rdf:RDF>
  </metadata>
  <defs
     id="defs28" />
  <sodipodi:namedview
     pagecolor="#ffffff"
     bordercolor="#666666"
     borderopacity="1"
     objecttolerance="10"
     gridtolerance="10"
     guidetolerance="10"
     inkscape:pageopacity="0"
     inkscape:pageshadow="2"
     inkscape:window-width="1680"
     inkscape:window-height="972"
     id="namedview26"
     showgrid="false"
     inkscape:zoom="4"
     inkscape:cx="23.572132"
     inkscape:cy="56.703253"
     inkscape:window-x="1360"
     inkscape:window-y="0"
     inkscape:window-maximized="1"
     inkscape:current-layer="svg24" />
  <rect
     style="opacity:1;fill:#838383;fill-opacity:1;fill-rule:evenodd;stroke:none;stroke-width:1.03534329;stroke-linecap:round;stroke-linejoin:bevel;stroke-miterlimit:4;stroke-dasharray:none;stroke-dashoffset:0;stroke-opacity:1"
     id="rect4497-3"
     width="28.203388"
     height="28.203388"
     x="1.8983059"
     y="1.8983059"
     ry="5.575182" />
  <path
     style="fill:#c8c8c8;fill-opacity:1;stroke:none;stroke-width:0.12455674;stroke-linecap:butt;stroke-linejoin:miter;stroke-miterlimit:4;stroke-dasharray:none;stroke-opacity:1"
     d="m 16.507281,17.726679 c 0.253695,2.353375 0.952207,4.35855 2.193108,5.353426 2.155264,1.706476 4.80461,0.732903 5.77068,-0.755531 l 0.0042,0.0025 c 0.0019,-0.0036 0.0021,-0.0082 0.004,-0.01171 0.0026,-0.004 0.0069,-0.0073 0.0093,-0.01146 l -0.0042,-0.0025 c 0.805785,-1.580625 0.309812,-4.336783 -2.245627,-5.350039 -1.482039,-0.577215 -3.566612,-0.181661 -5.731541,0.775319 z"
     id="path849"
     inkscape:connector-curvature="0" />
  <path
     style="fill:#c8c8c8;fill-opacity:1;stroke:none;stroke-width:0.12455674;stroke-linecap:butt;stroke-linejoin:miter;stroke-miterlimit:4;stroke-dasharray:none;stroke-opacity:1"
     d="m 16.039252,16.708321 c 1.911236,-1.396394 3.298513,-3.00391 3.53965,-4.576001 0.400219,-2.7197498 -1.767593,-4.5273646 -3.53965,-4.6197894 l 4e-5,-0.00486 c -0.0041,1.881e-4 -0.0082,0.00224 -0.01208,0.00237 -0.0047,-2.716e-4 -0.0098,-0.00224 -0.0146,-0.00237 l -4e-5,0.00486 c -1.771754,0.092483 -3.910671,1.9000857 -3.510456,4.6197894 0.241135,1.572091 1.625982,3.179606 3.537216,4.576001 z"
     id="path849-3"
     inkscape:connector-curvature="0" />
  <path
     inkscape:connector-curvature="0"
     id="path880"
     d="m 15.482399,17.729895 c -2.164931,-0.956982 -4.25072,-1.35464 -5.732758,-0.777426 -2.5554821,1.013274 -3.0370169,3.794462 -2.2310304,5.375321 l -0.00423,0.0024 c 0.00212,0.0034 0.00598,0.006 0.0081,0.0092 0.00212,0.0042 0.00299,0.0097 0.00523,0.01378 l 0.00423,-0.0024 c 0.9659712,1.488142 3.6008584,2.436697 5.7560854,0.73025 1.240901,-0.994876 1.940626,-2.997945 2.194323,-5.35132 z"
     style="fill:#c8c8c8;fill-opacity:1;stroke:none;stroke-width:0.12455674;stroke-linecap:butt;stroke-linejoin:miter;stroke-miterlimit:4;stroke-dasharray:none;stroke-opacity:1" />
  <rect
     style="fill:#cb2626;fill-opacity:1;stroke:none;stroke-width:0.1;stroke-miterlimit:4;stroke-dasharray:none;stroke-opacity:1"
     id="rect920"
     width="8.25"
     height="8.25"
     x="19.375"
     y="19.6875"
     ry="2.1875"
     rx="2.1875" />
  <rect
     style="fill:#c8c8c8;fill-opacity:1;stroke:none;stroke-width:0.10061108;stroke-miterlimit:4;stroke-dasharray:none;stroke-opacity:1"
     id="rect924"
     width="4.6780777"
     height="1.5214466"
     x="21.160961"
     y="23.051777"
     rx="0.019491991"
     ry="1.5214466" />
</svg>
