<?xml version="1.0" encoding="UTF-8" standalone="no"?>
<svg
   xmlns:dc="http://purl.org/dc/elements/1.1/"
   xmlns:cc="http://creativecommons.org/ns#"
   xmlns:rdf="http://www.w3.org/1999/02/22-rdf-syntax-ns#"
   xmlns:svg="http://www.w3.org/2000/svg"
   xmlns="http://www.w3.org/2000/svg"
   xmlns:sodipodi="http://sodipodi.sourceforge.net/DTD/sodipodi-0.dtd"
   xmlns:inkscape="http://www.inkscape.org/namespaces/inkscape"
   width="32"
   version="1.1"
   height="32"
   viewBox="0 0 32 32"
   id="svg10"
   sodipodi:docname="electrum-ltc.svg"
   inkscape:version="0.92.1 r">
  <metadata
     id="metadata16">
    <rdf:RDF>
      <cc:Work
         rdf:about="">
        <dc:format>image/svg+xml</dc:format>
        <dc:type
           rdf:resource="http://purl.org/dc/dcmitype/StillImage" />
      </cc:Work>
    </rdf:RDF>
  </metadata>
  <defs
     id="defs14" />
  <sodipodi:namedview
     pagecolor="#ffffff"
     bordercolor="#666666"
     borderopacity="1"
     objecttolerance="10"
     gridtolerance="10"
     guidetolerance="10"
     inkscape:pageopacity="0"
     inkscape:pageshadow="2"
     inkscape:window-width="640"
     inkscape:window-height="480"
     id="namedview12"
     showgrid="false"
     inkscape:zoom="8.8125"
     inkscape:cx="-5.5602837"
     inkscape:cy="16"
     inkscape:current-layer="svg10" />
  <rect
     style="opacity:1;fill:#3399cc;fill-opacity:1;fill-rule:evenodd;stroke:none;stroke-width:1.03534329;stroke-linecap:round;stroke-linejoin:bevel;stroke-miterlimit:4;stroke-dasharray:none;stroke-dashoffset:0;stroke-opacity:1"
     id="rect4497-3"
     width="28.203388"
     height="28.203388"
     x="1.8983059"
     y="1.8983059"
     ry="5.575182" />
  <path
     style="fill:#ffffff;stroke-width:1.03098261"
     d="M 19.531892,5.6221094 C 18.400015,5.5696494 17.189143,5.8909414 16,6.4894134 14.023812,5.4950024 11.983161,5.2862864 10.354055,6.2268514 8.7250992,7.1673294 7.8874902,9.0377494 7.7606142,11.246032 c -1.848316,1.214129 -3.049115,2.876064 -3.049115,4.756619 0,1.880556 1.200799,3.54249 3.049115,4.756619 0.126964,2.208132 0.966179,4.078704 2.5951358,5.019182 1.629105,0.940565 3.668149,0.731698 5.64425,-0.262562 1.975949,0.994347 4.013451,1.203127 5.642556,0.262562 1.628957,-0.940478 2.469714,-2.810964 2.59683,-5.019182 1.848315,-1.214129 3.049115,-2.876063 3.049115,-4.756619 0,-1.880555 -1.2008,-3.54249 -3.049115,-4.756619 C 24.112358,9.0376624 23.273207,7.1656354 21.64425,6.2251564 20.995511,5.8506074 20.280889,5.6568264 19.531892,5.6221094 Z m -0.06098,0.89102 c 0.62613,0.02735 1.208182,0.187121 1.726139,0.486164 1.16577,0.673057 1.877435,1.984899 2.095419,3.6911226 -1.032203,-0.536707 -2.219151,-0.9558736 -3.513258,-1.2365846 -0.890379,-0.980424 -1.846096,-1.798597 -2.827207,-2.424047 0.882036,-0.369454 1.735503,-0.550878 2.518907,-0.516655 z m -6.943511,0.0017 c 0.782966,-0.03421 1.635702,0.147627 2.517214,0.516656 -0.980242,0.6252 -1.935666,1.443021 -2.825514,2.422352 -1.294341,0.280899 -2.4810038,0.7012856 -3.5132568,1.2382786 0.217789,-1.7068446 0.929359,-3.0178976 2.0954178,-3.6911216 0.517957,-0.299042 1.100009,-0.458813 1.726139,-0.486165 z m 3.472603,0.980799 c 0.763027,0.431543 1.527356,1.004905 2.264814,1.693952 -0.731949,-0.09061 -1.489143,-0.138904 -2.264814,-0.138904 -0.776954,0 -1.535129,0.0497 -2.268203,0.140598 0.738575,-0.690404 1.50396,-1.263562 2.268203,-1.695646 z m 0,2.449455 c 1.158825,0 2.269943,0.1173716 3.309983,0.3235446 0.698559,0.797445 1.354972,1.701481 1.934494,2.705242 0.579547,1.003806 1.035691,2.024776 1.377184,3.028788 -0.341323,1.003647 -0.795994,2.023377 -1.37549,3.027093 -0.579958,1.004518 -1.23857,1.908781 -1.937882,2.706937 -1.03957,0.205966 -2.150075,0.323545 -3.308289,0.323545 -1.159436,0 -2.271169,-0.117164 -3.311678,-0.323545 -0.69872,-0.797723 -1.356666,-1.701481 -1.936188,-2.705242 -0.579155,-1.003126 -1.0325338,-2.024016 -1.3737958,-3.027094 0.341591,-1.00492 0.7953998,-2.02743 1.3754898,-3.032176 0.579522,-1.003761 1.235935,-1.906103 1.934494,-2.703548 1.040509,-0.206381 2.152242,-0.3235446 3.311678,-0.3235446 z m -4.768477,0.6877446 c -0.444535,0.588451 -0.864034,1.220462 -1.2518308,1.892145 -0.388697,0.673243 -0.725123,1.355212 -1.012984,2.036132 -0.228402,-0.984251 -0.343282,-1.93453 -0.335403,-2.811962 0.755413,-0.445284 1.6340818,-0.822032 2.6002178,-1.116315 z m 9.53526,0 c 0.96621,0.294186 1.844687,0.671114 2.600217,1.116315 0.0079,0.876841 -0.105621,1.825033 -0.333709,2.808573 -0.2876,-0.679379 -0.625121,-1.359251 -1.012984,-2.031048 -0.388209,-0.672398 -0.808605,-1.304775 -1.253524,-1.89384 z m -6.457348,1.033311 -0.945225,4.151878 -1.483903,0.228684 -0.216826,0.867303 1.502536,-0.232071 -0.635233,2.78994 h 6.287953 l 0.606435,-1.734607 h -3.897785 l 0.335402,-1.472046 1.699035,-0.262562 0.216826,-0.867304 -1.717669,0.265951 0.850365,-3.735166 z m -6.5555968,0.674194 c 0.05096,1.163528 0.280167,2.401297 0.684357,3.664019 -0.403554,1.261625 -0.63338,2.498266 -0.684357,3.660632 -1.36942,-1.042151 -2.147932,-2.315603 -2.147932,-3.662326 0,-1.346723 0.778512,-2.620175 2.147932,-3.662325 z m 16.4923228,0 c 1.369421,1.04215 2.147932,2.315602 2.147932,3.662325 0,1.346723 -0.778511,2.620175 -2.147932,3.662326 -0.05111,-1.162702 -0.280199,-2.400445 -0.684357,-3.662326 0.404268,-1.262071 0.633293,-2.49927 0.684357,-3.662325 z M 8.9667122,17.4476 c 0.287322,0.679117 0.623543,1.359452 1.01129,2.031049 0.3882088,0.672398 0.8083828,1.304715 1.2535248,1.893839 -0.966136,-0.294283 -1.8448048,-0.67103 -2.6002178,-1.116315 -0.0079,-0.876467 0.107358,-1.825215 0.335403,-2.808573 z m 14.0665828,0 c 0.228181,0.983662 0.341574,1.931852 0.333709,2.808573 -0.75553,0.445201 -1.634007,0.822129 -2.600217,1.116315 0.445008,-0.589212 0.865309,-1.223125 1.253524,-1.895533 0.387856,-0.671786 0.725469,-1.350129 1.012984,-2.029355 z M 8.7058442,21.3132 c 1.032253,0.536993 2.2189158,0.95738 3.5132568,1.238279 0.889944,0.979497 1.845335,1.797118 2.825514,2.422352 -1.586259,0.663811 -3.076006,0.701787 -4.241659,0.0288 C 9.6368982,24.329406 8.9238212,23.019721 8.7058442,21.313202 Z M 23.29247,21.3149 c -0.218235,1.705693 -0.931439,3.016427 -2.097114,3.689429 -1.166014,0.6732 -2.656541,0.635614 -4.243351,-0.02879 0.980704,-0.625266 1.936996,-1.442221 2.827207,-2.422353 1.294246,-0.280711 2.480961,-0.701523 3.513258,-1.238279 z m -9.560669,1.499149 c 0.733074,0.0909 1.491249,0.140598 2.268203,0.140598 0.776266,0 1.534036,-0.04816 2.266508,-0.138904 -0.737621,0.68933 -1.503473,1.262396 -2.266508,1.693952 -0.764251,-0.432098 -1.529464,-1.004958 -2.268203,-1.695646 z"
     id="path6"
     inkscape:connector-curvature="0" />
</svg>
