<?xml version="1.0" encoding="UTF-8" standalone="no"?>
<svg
   xmlns:dc="http://purl.org/dc/elements/1.1/"
   xmlns:cc="http://creativecommons.org/ns#"
   xmlns:rdf="http://www.w3.org/1999/02/22-rdf-syntax-ns#"
   xmlns:svg="http://www.w3.org/2000/svg"
   xmlns="http://www.w3.org/2000/svg"
   xmlns:sodipodi="http://sodipodi.sourceforge.net/DTD/sodipodi-0.dtd"
   xmlns:inkscape="http://www.inkscape.org/namespaces/inkscape"
   width="32"
   version="1.1"
   height="32"
   viewBox="0 0 32 32"
   id="svg10"
   sodipodi:docname="elisa.svg"
   inkscape:version="0.92.2 2405546, 2018-03-11">
  <metadata
     id="metadata16">
    <rdf:RDF>
      <cc:Work
         rdf:about="">
        <dc:format>image/svg+xml</dc:format>
        <dc:type
           rdf:resource="http://purl.org/dc/dcmitype/StillImage" />
        <dc:title></dc:title>
      </cc:Work>
    </rdf:RDF>
  </metadata>
  <defs
     id="defs14" />
  <sodipodi:namedview
     pagecolor="#ffffff"
     bordercolor="#666666"
     borderopacity="1"
     objecttolerance="10"
     gridtolerance="10"
     guidetolerance="10"
     inkscape:pageopacity="0"
     inkscape:pageshadow="2"
     inkscape:window-width="1680"
     inkscape:window-height="972"
     id="namedview12"
     showgrid="false"
     inkscape:zoom="6.2313785"
     inkscape:cx="1.7005066"
     inkscape:cy="38.356902"
     inkscape:current-layer="svg10"
     inkscape:window-x="1280"
     inkscape:window-y="0"
     inkscape:window-maximized="1" />
  <rect
     style="opacity:1;fill:#337d7e;fill-opacity:1;fill-rule:evenodd;stroke:none;stroke-width:1.03534329;stroke-linecap:round;stroke-linejoin:bevel;stroke-miterlimit:4;stroke-dasharray:none;stroke-dashoffset:0;stroke-opacity:1"
     id="rect4497-3"
     width="28.203388"
     height="28.203388"
     x="1.8983059"
     y="1.8983059"
     ry="5.575182" />
  <path
     style="fill:#ffffff;stroke-width:0.0326628"
     d="M 10.759696,25.114914 C 9.8134157,24.918002 9.0661443,24.348395 8.6660879,23.519061 7.933762,22.000916 8.6318057,20.191486 10.192602,19.562122 c 0.746386,-0.300967 1.578097,-0.273038 2.327527,0.07816 l 0.276408,0.129527 0.0083,-4.202504 0.0083,-4.202505 1.224855,-0.352936 C 14.711661,10.81775 16.409311,10.329482 17.810546,9.9268257 22.539393,8.56795 22.873151,8.471926 22.930962,8.453662 c 0.05501,-0.01737 0.05728,0.25309 0.04899,5.838949 l -0.0087,5.857173 -0.0864,0.312374 c -0.28978,1.047718 -1.064782,1.819016 -2.118342,2.10822 -0.160789,0.04414 -0.331201,0.05809 -0.70225,0.05749 -0.436695,-7.28e-4 -0.521118,-0.0103 -0.776782,-0.08823 -0.998632,-0.304423 -1.741029,-1.045674 -2.017337,-2.014228 -0.100135,-0.351011 -0.123068,-0.97578 -0.04925,-1.341574 0.179277,-0.888305 0.740433,-1.626978 1.536851,-2.023019 0.482268,-0.23982 0.753782,-0.303813 1.290182,-0.304079 0.518765,-1.81e-4 0.824144,0.06496 1.259584,0.269019 l 0.275567,0.129135 v -2.482454 c 0,-2.348822 -0.0031,-2.481556 -0.05716,-2.465775 -0.05514,0.01609 -0.974726,0.280017 -5.021904,1.441323 -1.041942,0.298976 -1.993334,0.57325 -2.1142,0.6095 l -0.219756,0.06591 -0.0092,4.18604 -0.0092,4.186039 -0.07468,0.244972 c -0.304077,0.997481 -1.102347,1.775968 -2.08033,2.028766 -0.340045,0.0879 -0.929433,0.10968 -1.236848,0.04571 z"
     id="path846"
     inkscape:connector-curvature="0" />
</svg>
