<?xml version="1.0" encoding="UTF-8" standalone="no"?>
<svg
   xmlns:dc="http://purl.org/dc/elements/1.1/"
   xmlns:cc="http://creativecommons.org/ns#"
   xmlns:rdf="http://www.w3.org/1999/02/22-rdf-syntax-ns#"
   xmlns:svg="http://www.w3.org/2000/svg"
   xmlns="http://www.w3.org/2000/svg"
   xmlns:sodipodi="http://sodipodi.sourceforge.net/DTD/sodipodi-0.dtd"
   xmlns:inkscape="http://www.inkscape.org/namespaces/inkscape"
   height="32"
   width="32"
   version="1"
   id="svg20"
   sodipodi:docname="eternallands.svg"
   inkscape:version="0.92.1 r">
  <metadata
     id="metadata26">
    <rdf:RDF>
      <cc:Work
         rdf:about="">
        <dc:format>image/svg+xml</dc:format>
        <dc:type
           rdf:resource="http://purl.org/dc/dcmitype/StillImage" />
        <dc:title></dc:title>
      </cc:Work>
    </rdf:RDF>
  </metadata>
  <defs
     id="defs24" />
  <sodipodi:namedview
     pagecolor="#ffffff"
     bordercolor="#666666"
     borderopacity="1"
     objecttolerance="10"
     gridtolerance="10"
     guidetolerance="10"
     inkscape:pageopacity="0"
     inkscape:pageshadow="2"
     inkscape:window-width="640"
     inkscape:window-height="480"
     id="namedview22"
     showgrid="false"
     inkscape:zoom="4.75"
     inkscape:cx="17.70299"
     inkscape:cy="20.117295"
     inkscape:current-layer="svg20" />
  <rect
     style="opacity:1;fill:#a07751;fill-opacity:1;fill-rule:evenodd;stroke:none;stroke-width:1.03534329;stroke-linecap:round;stroke-linejoin:bevel;stroke-miterlimit:4;stroke-dasharray:none;stroke-dashoffset:0;stroke-opacity:1"
     id="rect4497-3"
     width="28.203388"
     height="28.203388"
     x="1.8983059"
     y="1.8983059"
     ry="5.575182" />
  <g
     id="g4629"
     transform="matrix(0.09573522,0,0,0.09573522,64.935812,28.657233)"
     style="stroke-width:10.44547749">
    <path
       sodipodi:nodetypes="ccccccccccccccccsccccccccccccccccsccccccccc"
       inkscape:connector-curvature="0"
       id="path4519-6-7"
       d="m -447.67303,-49.334273 c -2.93744,5.25532 5.07804,3.1694 7.75335,1.36532 -7.62396,10.46806 -18.50029,18.57075 -35.36842,22.315777 -6.6558,1.38118 -0.36988,6.40205 3.57894,10.31579 -12.14035,-2.51313 -24.2807,-7.6162 -36.42105,-13.473677 -5.13169,-1.52979 -8.83954,-1.85479 -6.73684,2.736837 l 4.63158,7.15789 c -7.07734,-2.30683 -14.26924,-0.28784 -28.63158,-25.473677 -4.87625,-6.21431 -10.37996,-4.23064 -8.21053,5.47368 -1.4036,-3.23713 -13.1372,-2.84888 -10.31579,-34.94736 0.26706,-12.77051 -13.58191,-5.10058 -11.36842,4.84211 -3.6934,-4.62484 -7.80449,-8.57493 1.05263,-33.473687 1.92544,-10.12999 -3.87036,-9.86799 -10.52631,-0.21053 -1.39486,-3.32654 -1.29205,-8.07942 1.47368,-15.36842 -11.44545,8.55996 -26.06673,11.03292 -31.36842,31.368427 -1.62788,-5.13701 -2.26368,-11.17857 0.84211,-20.631587 9.80562,-23.63362 24.02809,-52.88088 35.24379,-79.54281 9.16753,-21.79303 10.39744,-29.57333 13.28253,-35.50982 4.04516,-17.53319 18.35532,-38.03773 40.52631,-22 l 18.10526,18.73684 c 3.55062,4.21256 12.39211,1.07081 9.47369,-7.15789 3.39928,-2.0961 7.12795,-0.34934 11.36842,7.36842 4.87484,4.66447 16.31399,8.60136 14.10526,-5.68421 5.03851,0.12925 8.22327,3.10093 9.05263,9.68421 3.20937,9.55832 8.67668,7.02275 9.05263,1.05263 -0.47991,-6.56555 1.31673,-11.61341 -14.52631,-28.42105 11.45336,2.80487 29.05066,16.58863 32,45.05263 5.90501,8.10117 14.98993,10.53004 11.15789,36 5.04968,2.11373 6.87786,7.57286 4.63158,17.26315 -2.43853,4.39691 -17.58928,13.81877 -25.26316,7.1579 1.26128,-6.857 4.88263,-13.36982 -6.73684,-22.10526 -9.70024,3.09644 -13.61537,-6.16621 -17.26316,-16 -10.54467,-0.9181 -20.96096,-2.65458 -33.68421,10.31579 17.06844,-3.46427 21.1729,-0.28197 21.80277,3.11641 0.79386,4.28319 -5.29461,9.21936 -13.17119,5.09412 11.69615,8.03772 1.39352,16.542 -4.16073,18.8857 -36.35718,15.43715 -37.03394,47.141247 -32.36637,56.998677 l -6.84777,-11.31371 c 4.78363,72.013997 77.38544,68.31344 73.5391,29.47519 -3.7075,-23.86907 -31.94442,-14.26193 -30.6661,-0.59546 0.47995,12.49037 16.59162,12.35813 18.45921,-1.48865 16.30607,27.88122 -37.42721,31.46703 -30.36838,-6.25231 13.44825,-41.302037 74.69358,-14.36736 52.86822,27.87261 z"
       style="fill:#8b4c2e;fill-opacity:1;stroke:none;stroke-width:50.13829422;stroke-linecap:butt;stroke-linejoin:miter;stroke-miterlimit:4;stroke-dasharray:none;stroke-opacity:1" />
    <path
       inkscape:connector-curvature="0"
       id="path4519-6"
       d="m -468.91992,-253.07422 5.57031,5.91016 c 7.80821,8.28361 11.10639,13.52184 12.52734,17.25781 1.37881,3.62515 1.11832,6.03194 1.33789,9.4082 -0.079,1.11136 -0.39311,1.9955 -0.71484,2.48047 -0.32728,0.49335 -0.53649,0.53206 -0.58594,0.53711 -0.0494,0.005 -0.28021,0.0579 -0.89648,-0.58594 -0.61627,-0.64384 -1.44713,-1.97632 -2.17383,-4.14062 l 0.10742,0.46484 c -0.4567,-3.62518 -1.6012,-6.55805 -3.60547,-8.63086 -2.00427,-2.07281 -4.7899,-3.07596 -7.76757,-3.15234 l -2.87305,-0.0742 0.43945,2.83984 c 0.50693,3.2787 0.13149,5.20554 -0.33203,6.07227 -0.46352,0.86673 -0.86335,1.04737 -1.85547,1.11523 -1.95573,0.13378 -5.74575,-1.64277 -7.77343,-3.52929 -2.10807,-3.72402 -4.14961,-6.3218 -6.53126,-7.75977 -2.50587,-1.51297 -5.58228,-1.40233 -7.86914,0.008 l -1.65039,1.01758 0.64844,1.82617 c 1.17183,3.30405 0.13265,4.5872 -1.22656,5.35157 -1.35922,0.76436 -3.19723,0.58984 -4.15039,-0.54102 l -0.0527,-0.0625 -18.30859,-18.94922 -0.17187,-0.12304 c -5.83886,-4.22364 -11.38263,-6.18329 -16.49219,-6.25 -5.10956,-0.0667 -9.67502,1.78462 -13.44531,4.70703 -7.47275,5.79223 -12.11723,15.59564 -14.25977,24.69726 -3.04097,6.38534 -4.22551,13.96258 -13.23047,35.36914 -11.17776,26.57173 -25.39622,55.80774 -35.24805,79.55274 l -0.0351,0.084 -0.0293,0.0879 c -3.23076,9.833379 -2.58682,16.623438 -0.84961,22.105471 l 2.51172,7.927735 2.09766,-8.046875 c 2.52096,-9.66956 7.028,-14.761251 12.48047,-18.773441 3.81792,-2.80941 8.14847,-5.17386 12.47851,-7.78515 -0.95181,4.4389 -0.80355,8.00964 0.40039,10.88086 l 1.69922,4.048824 2.49023,-3.615234 c 1.57451,-2.28453 3.07733,-3.96385 4.29688,-4.99414 1.12289,-0.94863 1.86664,-1.14168 2.04101,-1.18164 0.0159,0.0399 -5.5e-4,-0.007 0.0176,0.0527 0.1816,0.60231 0.26419,2.17281 -0.15234,4.42969 -4.39876,12.422926 -5.70549,19.837325 -5.27734,25.076172 0.43145,5.279355 2.91361,8.204025 4.69726,10.4375 l 4.2168,-2.019531 c -0.84759,-3.807257 1.60748,-7.239417 3.67969,-8.267578 1.0361,-0.51408 1.57169,-0.433081 1.92968,-0.164062 0.358,0.269018 1.07539,1.296394 1.01758,4.060547 l 0.01,-0.160157 c -1.43604,16.337485 0.78261,24.850962 3.93945,29.798828 1.57842,2.473934 3.39115,3.98692 4.74414,4.980469 1.35299,0.993549 1.96188,1.660474 1.82031,1.333984 l 4.54297,-1.478515 c -0.49142,-2.198237 -0.50008,-3.846628 -0.30469,-4.835938 0.1954,-0.989309 0.49628,-1.19696 0.57227,-1.238281 0.076,-0.04132 0.26373,-0.14366 0.95508,0.173828 0.68302,0.313665 1.69237,1.099176 2.72461,2.402344 7.19668,12.563029 12.74162,18.65462 17.65429,21.871094 4.95159,3.241947 9.04147,3.416389 12.15625,4.43164 l 6.43555,2.097657 -8.18555,-12.650391 c -0.0129,-0.03277 -0.004,-0.01188 -0.0156,-0.04297 0.71519,0.04673 1.91049,0.13498 3.85742,0.705078 12.11922,5.83563 24.32766,10.979687 36.69141,13.539063 l 7.92187,1.638672 -5.74609,-5.695313 c -2.06219,-2.043864 -4.56271,-4.34115 -5.4375,-5.701172 -0.11263,-0.175102 -0.11227,-0.206683 -0.1582,-0.30664 0.16587,-0.07064 0.31997,-0.149342 0.81445,-0.251953 l 0.0176,-0.0039 0.0156,-0.0039 c 17.3701,-3.856473 28.87064,-12.376397 36.78711,-23.246094 l -3.28125,-3.402343 c -0.6823,0.460106 -2.76837,1.191897 -4.15234,1.416015 5.55886,-10.940967 5.92007,-21.223342 2.83008,-29.605469 -3.11974,-8.462806 -9.60779,-14.940007 -17.25586,-18.613281 -7.64808,-3.673273 -16.52743,-4.584233 -24.50977,-1.71289 -7.98234,2.871336 -14.92273,9.616923 -18.47461,20.52539 l -0.0469,0.148438 -0.0293,0.152343 c -1.86471,9.964225 0.29608,17.670197 4.57812,22.791016 4.28205,5.120819 10.48078,7.589068 16.35743,7.775391 5.87664,0.186323 11.64179,-1.870267 14.88281,-6.382813 3.24102,-4.512546 3.35829,-11.215671 -1.01953,-18.701172 l -3.51758,-6.015625 -0.93164,6.90625 c -0.81173,6.018376 -4.37494,8.399133 -7.48438,8.544922 -3.10944,0.145789 -5.99882,-1.612923 -6.19922,-6.828125 l -0.002,-0.06445 -0.006,-0.06641 c -0.24085,-2.574928 0.88083,-5.015115 3.01172,-7.082031 2.13089,-2.066917 5.2448,-3.613245 8.42383,-4.09961 3.17903,-0.486365 6.34655,0.04395 8.91211,1.871094 2.55331,1.818425 4.67872,4.989184 5.53906,10.427734 0.86474,8.934573 -2.52291,15.460319 -8.23242,19.677735 -5.72377,4.227949 -13.93195,6.002287 -22.49414,4.492187 -15.18528,-2.678202 -31.44466,-15.543555 -36.57617,-42.953125 l 0.94726,1.566407 4.22266,-2.269532 c -1.88868,-3.988699 -3.03614,-14.033217 0.8789,-24.542967 3.91474,-10.50892 12.6153,-21.72909 30.25196,-29.21875 3.24539,-1.36944 7.49828,-4.1545 9.73828,-8.39649 1.12,-2.12099 1.6451,-4.74849 0.85156,-7.38086 -0.155,-0.51417 -0.56997,-0.98642 -0.8164,-1.48632 1.60772,-0.10075 3.12112,-0.43245 4.39843,-1.09766 3.15655,-1.64391 5.21333,-4.88059 4.58594,-8.26563 -0.46071,-2.48568 -2.67559,-5.0904 -6.5293,-6.02734 -2.36598,-0.57523 -5.73049,-0.54309 -9.71289,-0.17187 3.58694,-2.4693 6.94949,-3.85842 10.19727,-4.49024 4.57741,-0.89049 9.12337,-0.45428 13.90039,-0.0234 1.67203,4.44767 3.44225,8.8304 6.18945,12.10743 2.77431,3.30934 7.04993,5.14511 12.00586,4.13476 4.81046,3.80996 6.24954,6.76093 6.54688,9.49219 0.31363,2.88096 -0.75544,5.95683 -1.43555,9.6543 l -0.24805,1.34765 1.03516,0.89844 c 2.42523,2.10508 5.46684,2.91632 8.42969,2.89844 2.96284,-0.0179 5.91556,-0.80072 8.64843,-1.92188 2.73288,-1.12116 5.24447,-2.59062 7.29102,-4.10937 2.04655,-1.51876 3.62186,-2.97072 4.56641,-4.67383 l 0.16211,-0.29297 0.0762,-0.32812 c 1.17787,-5.08127 1.36645,-9.2394 0.39062,-12.67188 -0.79504,-2.79656 -2.53213,-5.00458 -4.81836,-6.44727 1.57343,-11.92165 0.33776,-19.22409 -2.3457,-24.31835 -2.72538,-5.17385 -6.44758,-7.94124 -9.11133,-11.4375 -3.30666,-28.77718 -21.13177,-43.24345 -33.67187,-46.31446 z m -64.46289,5.28906 c 3.90171,0.051 8.41964,1.53255 13.60937,5.25586 l 17.91797,18.54297 -0.10937,-0.11914 c 2.59746,3.0817 6.95425,3.44141 10.17382,1.63086 2.69317,-1.51452 4.33636,-4.87806 3.82618,-8.80859 0.40526,0.007 0.82741,0.1629 1.4375,0.53125 1.26839,0.76582 3.12264,2.79918 5.13672,6.46484 l 0.17578,0.32422 0.26757,0.25391 c 2.87125,2.74734 7.12939,5.22688 11.53125,4.92578 2.20094,-0.15055 4.55122,-1.37347 5.76368,-3.64063 0.83197,-1.5557 1.04791,-3.57771 1.0039,-5.84765 0.72146,0.27974 1.31778,0.68839 1.84571,1.23437 1.05508,1.09116 1.91835,2.93644 2.29101,5.89453 l 0.0293,0.23633 0.0762,0.22656 c 0.87798,2.61486 1.93458,4.55115 3.25781,5.9336 1.32324,1.38244 3.08602,2.22133 4.85156,2.04101 1.76555,-0.18032 3.1938,-1.29768 4.09766,-2.66015 0.90387,-1.36248 1.40133,-3.02701 1.51758,-4.87305 l 0.01,-0.16406 -0.0117,-0.16211 c -0.22082,-3.021 0.10912,-6.41757 -1.65235,-11.04883 -1.0703,-2.81404 -3.02383,-6.11754 -6.07031,-10.11133 8.93905,6.23818 18.36044,18.37462 20.41602,38.21289 l 0.0664,0.64453 0.38086,0.52149 c 3.23035,4.43176 6.8034,6.93435 9.04688,11.19336 2.24347,4.259 3.55057,10.58916 1.67773,23.03711 l -0.2793,1.84961 1.72461,0.7207 c 1.94115,0.81254 3.03081,1.98433 3.66993,4.23242 0.61497,2.16319 0.56765,5.47192 -0.38477,9.82031 -0.35601,0.55539 -1.42701,1.77256 -3.05469,2.98047 -1.71986,1.27632 -3.93309,2.57017 -6.25195,3.52149 -2.31886,0.95131 -4.74307,1.54975 -6.85547,1.5625 -1.60083,0.01 -2.91985,-0.40554 -4.10938,-1.08008 0.64449,-2.78619 1.52097,-5.83617 1.12891,-9.4375 -0.46524,-4.27356 -3.00813,-8.80418 -9.14258,-13.41602 l -0.99023,-0.74414 -1.18164,0.37695 c -4.10058,1.30896 -6.08839,0.2701 -8.33203,-2.40625 -2.24365,-2.67634 -4.13919,-7.25781 -5.95117,-12.14257 l -0.52735,-1.42383 -1.51367,-0.13281 c -5.21011,-0.45364 -10.71681,-1.17793 -16.69141,-0.0156 -5.97459,1.1623 -12.28566,4.28583 -18.91406,11.04297 l -5.48437,5.58984 7.67382,-1.55859 c 8.35708,-1.69618 13.39839,-1.6729 16.02149,-1.03516 2.6231,0.63775 2.77615,1.32559 2.94531,2.23828 0.16647,0.89816 -0.42561,2.26915 -2.08398,3.13282 -1.65837,0.86366 -4.25062,1.15865 -7.61524,-0.60352 l -2.47265,4.10547 c 2.62568,1.8044 3.73626,3.43053 4.12695,4.72656 0.39069,1.29603 0.18792,2.4492 -0.5,3.75196 -1.37585,2.6055 -5.05247,5.24253 -7.36133,6.21679 l -0.002,0.002 h -0.002 c -18.7177,7.94748 -28.53316,20.29695 -32.8789,31.96289 -2.0387,5.47278 -2.85577,10.69042 -2.94531,15.347652 l -0.39844,-0.658203 -4.44922,1.400391 c 2.44522,36.810936 22.57353,55.088261 41.98437,58.511719 9.70543,1.711729 19.22487,-0.218695 26.18164,-5.357422 6.95678,-5.138728 11.19118,-13.624068 10.15626,-24.074219 l -0.006,-0.06641 -0.01,-0.06445 c -1.00154,-6.447971 -3.78397,-11.014257 -7.51563,-13.671875 -3.73165,-2.657619 -8.23802,-3.347126 -12.42187,-2.707032 -4.18385,0.640095 -8.12115,2.568183 -11.04102,5.400391 -2.90247,2.815336 -4.81569,6.671899 -4.44726,10.900391 0.30819,7.237764 5.69166,11.639544 11.20898,11.380859 3.8226,-0.179226 7.49754,-2.557149 9.8125,-6.515625 0.97158,3.558809 0.4193,6.233895 -0.98242,8.185547 -2.0273,2.822658 -6.19596,4.533708 -10.83203,4.386719 -4.63607,-0.14699 -9.53004,-2.112522 -12.82812,-6.056641 -3.27659,-3.918408 -5.1643,-9.87006 -3.55665,-18.669922 3.18302,-9.641607 8.9074,-14.989966 15.47266,-17.351562 6.60144,-2.37461 14.19052,-1.656153 20.80664,1.521484 6.61612,3.177638 12.18639,8.770516 14.83203,15.947266 2.64564,7.176749 2.47971,15.991836 -2.71875,26.052734 l 0.0371,-0.07031 c -0.46408,0.830289 -0.79227,1.618898 -0.90625,2.507812 -0.11398,0.888914 0.0697,1.965201 0.66602,2.773438 0.92414,1.252572 2.1206,1.484941 3.24414,1.537109 -6.89221,7.216082 -15.95597,12.778908 -29.01172,15.683594 -2.02079,0.419345 -3.82612,1.270762 -4.55078,3.117187 -0.72467,1.846426 0.0363,3.503163 0.83203,4.740235 0.0964,0.149795 0.25199,0.274309 0.35547,0.421875 -9.24128,-2.723394 -18.56708,-6.721348 -27.94922,-11.248047 l -0.17188,-0.08398 -0.18554,-0.05469 c -2.67291,-0.796812 -4.8969,-1.52129 -7.30664,-0.964844 -1.20487,0.278223 -2.68474,1.426027 -3.01367,2.898438 -0.32894,1.47241 0.0844,2.722584 0.71679,4.103515 l 0.0723,0.158203 1.32422,2.046875 c -1.54128,-0.46455 -3.10062,-1.066496 -4.85157,-2.21289 -4.00428,-2.621725 -9.19523,-8.076894 -16.27734,-20.496094 l -0.0879,-0.154297 -0.10938,-0.138672 c -1.39269,-1.774855 -2.887,-3.07499 -4.53125,-3.830078 -1.64424,-0.755088 -3.61366,-0.920144 -5.25195,-0.0293 -1.63829,0.890848 -2.6095,2.607619 -2.98828,4.525391 -0.0455,0.230319 -0.0176,0.512177 -0.0488,0.751953 -0.66608,-0.626672 -1.33588,-1.366449 -1.99805,-2.404297 -2.35551,-3.691912 -4.59044,-11.035875 -3.20507,-26.796875 l 0.006,-0.07813 0.002,-0.08203 c 0.0757,-3.621102 -0.83724,-6.422228 -2.93164,-7.996094 -2.09441,-1.573866 -4.83315,-1.348752 -6.94922,-0.298828 -2.22892,1.105917 -4.15862,3.151666 -5.3418,5.707031 -0.13434,-0.596842 -0.27171,-1.187269 -0.33398,-1.949218 -0.33316,-4.07659 0.72768,-11.038697 5.10351,-23.339844 l 0.0606,-0.17382 0.0352,-0.18165 c 0.52225,-2.74762 0.61157,-4.92069 0.043,-6.80664 -0.28431,-0.94297 -0.77246,-1.84849 -1.57227,-2.53125 -0.79981,-0.68275 -1.88654,-1.03829 -2.88086,-1.03515 -1.98864,0.006 -3.61984,0.99563 -5.29883,2.41406 -0.52597,0.44435 -1.06214,1.04178 -1.5957,1.5957 0.13021,-2.2696 0.73421,-5.11108 2.13867,-8.8125 l 2.92774,-7.71679 -6.60938,4.94336 c -5.41897,4.0528 -11.9277,6.80965 -17.97266,11.25781 -4.15419,3.05685 -7.96244,7.11627 -10.88281,12.742182 0.0871,-2.922365 0.64356,-6.293422 2.03125,-10.533202 9.75819,-23.50482 23.95399,-52.70636 35.19141,-79.41992 9.21694,-21.9105 10.58656,-29.95637 13.22851,-35.39258 l 0.11914,-0.24414 0.0606,-0.26367 c 1.92929,-8.36222 6.42912,-17.4511 12.59766,-22.23242 3.08427,-2.39066 6.50776,-3.75451 10.44336,-3.70313 z"
       style="color:#000000;font-style:normal;font-variant:normal;font-weight:normal;font-stretch:normal;font-size:medium;line-height:normal;font-family:sans-serif;font-variant-ligatures:normal;font-variant-position:normal;font-variant-caps:normal;font-variant-numeric:normal;font-variant-alternates:normal;font-feature-settings:normal;text-indent:0;text-align:start;text-decoration:none;text-decoration-line:none;text-decoration-style:solid;text-decoration-color:#000000;letter-spacing:normal;word-spacing:normal;text-transform:none;writing-mode:lr-tb;direction:ltr;text-orientation:mixed;dominant-baseline:auto;baseline-shift:baseline;text-anchor:start;white-space:normal;shape-padding:0;clip-rule:nonzero;display:inline;overflow:visible;visibility:visible;opacity:1;isolation:auto;mix-blend-mode:normal;color-interpolation:sRGB;color-interpolation-filters:linearRGB;solid-color:#000000;solid-opacity:1;vector-effect:none;fill:#fcac53;fill-opacity:1;fill-rule:nonzero;stroke:none;stroke-width:50.13829422;stroke-linecap:butt;stroke-linejoin:miter;stroke-miterlimit:4;stroke-dasharray:none;stroke-dashoffset:0;stroke-opacity:1;color-rendering:auto;image-rendering:auto;shape-rendering:auto;text-rendering:auto;enable-background:accumulate" />
    <path
       sodipodi:nodetypes="ccsscccccccccccscccccccccccccc"
       inkscape:connector-curvature="0"
       id="path4568-5"
       d="m -565.12433,-213.15355 c -5.63162,-0.29399 -13.03682,3.18062 -6,11.05263 0.52957,0.9103 3.45886,2.80827 3.71361,6.94293 0.78708,12.77459 2.86378,40.25832 1.76572,52.13941 -0.31284,3.38494 -3.63149,8.4508 -4.32143,8.60187 -3.98183,6.21377 2.50339,6.85694 8,7.1579 l 39.57524,0.23369 c 3.20219,-0.0944 5.7062,-1.00284 6.95107,-5.0758 l 3.26316,-9.78947 -0.63158,53.263158 c 0.0675,2.25164 -0.25864,5.71365 -2.21052,7.26315 -6.02587,8.37086 1.77677,11.90961 5.68421,11.57895 l 45.89473,-1.47368 c 28.69106,-7.43437 -1.83761,-50.320788 -20.42105,-29.473688 5.86112,5.523698 16.2345,18.461138 3.1579,17.894738 -6.29235,-1.48302 -9.88779,-9.12767 -10.13025,-18.628778 -0.47544,-18.63079 -0.68038,-42.57622 0.44603,-42.0028 14.6283,-12.14494 2.70608,-15.83013 -0.63157,-15.78947 h -25.47369 c -2.94485,15.23445 -14.43705,22.38754 -18.31579,21.68421 -8.65062,1.18384 -9.84586,-3.67703 -9.89473,-6.94737 -2e-5,-6.83708 -0.10557,-13.97476 1.15789,-21.47369 1.78227,-11.96876 13.86622,-10.70492 11.47368,1.47369 24.74946,3.73349 10.74924,-47.99861 -12,-18.10527 l 0.63158,-12.8421 c 2.81776,-10.18737 18.79886,-7.08104 26.31579,3.78947 1.98319,1.5285 4.97875,1.67309 5.47369,-3.78947 l -1.68421,-13.68421 c -0.64971,-3.32581 -2.75742,-3.43757 -5.68421,-3.36842 z"
       style="fill:#fcac53;fill-opacity:1;stroke:none;stroke-width:50.13829422;stroke-linecap:butt;stroke-linejoin:miter;stroke-miterlimit:4;stroke-dasharray:none;stroke-opacity:1" />
    <path
       inkscape:connector-curvature="0"
       id="path4568"
       d="m -565,-215.55078 c -3.36208,-0.17551 -7.14799,0.53521 -9.63867,3.23437 -1.24534,1.34958 -1.98719,3.37935 -1.6836,5.47071 0.28501,1.9633 1.37893,3.90983 3.12305,5.95117 0.002,0.004 0.003,0.004 0.006,0.008 0.43009,0.73558 0.75895,0.9706 1.09961,1.32813 0.34259,0.35954 0.6883,0.73428 1.00977,1.16211 0.64292,0.85565 1.1833,1.86045 1.27734,3.38671 0.79002,12.82234 2.81281,40.50229 1.77148,51.76954 -0.0949,1.02733 -0.86468,3.02608 -1.72461,4.56445 -0.42996,0.76918 -0.87656,1.45065 -1.20312,1.88476 -0.0649,0.0863 -0.0841,0.10014 -0.13672,0.16407 l -0.35156,0.0781 -0.53516,0.83789 c -1.16528,1.81846 -1.81358,3.54265 -1.55859,5.33008 0.25499,1.78743 1.56611,3.16183 2.88672,3.87305 2.64121,1.42243 5.7705,1.49176 8.56054,1.64453 l 0.0586,0.004 39.67578,0.23438 0.043,-0.002 c 1.80933,-0.0533 3.70733,-0.33087 5.42187,-1.41602 0.82507,-0.5222 1.54157,-1.24057 2.15821,-2.0957 l -0.46875,39.533201 0.002,0.05078 c 0.0292,0.973275 -0.0391,2.229353 -0.28516,3.269532 -0.24602,1.040179 -0.67432,1.766973 -1.01953,2.041015 l -0.25976,0.207032 -0.19532,0.271484 c -1.69679,2.3571 -2.57712,4.58484 -2.65429,6.701172 -0.0772,2.116332 0.73767,4.017603 1.92773,5.351562 2.38011,2.667919 5.75628,3.555661 8.56055,3.31836 l -0.125,0.0078 46.16211,-1.482422 0.25781,-0.06641 c 7.81518,-2.025054 12.23899,-6.946124 13.2832,-12.556641 1.04421,-5.610516 -0.93598,-11.561675 -4.40625,-16.490234 -3.47026,-4.928561 -8.51041,-8.936321 -14.27539,-10.318361 -5.76497,-1.38204 -12.28098,0.21017 -17.41601,5.9707 l -1.55274,1.74219 1.69727,1.601565 c 2.76425,2.605119 6.72191,7.243269 8.1289,10.449219 0.7035,1.602974 0.59256,2.484063 0.49805,2.632812 -0.0899,0.14145 -0.88456,0.694439 -3.43359,0.644531 -2.2684,-0.595348 -4.14459,-2.218395 -5.59571,-4.996093 -1.4889,-2.850023 -2.4095,-6.806964 -2.52343,-11.271484 -0.23728,-9.29798 -0.40694,-19.92985 -0.37696,-28.13282 0.015,-4.10148 0.0796,-7.60547 0.20703,-9.98046 0.06,-1.11905 0.13997,-1.9398 0.21094,-2.42774 3.48777,-2.97476 5.6808,-5.57122 6.75,-8.04492 1.12537,-2.60366 0.88397,-5.27412 -0.30664,-7.1211 -1.1906,-1.84697 -2.97935,-2.8723 -4.63476,-3.51757 -1.65542,-0.64527 -3.17148,-0.92201 -4.46485,-0.90625 h -27.42383 l -0.37695,1.94336 c -1.3753,7.11477 -4.72875,12.27079 -8.11914,15.55078 -1.6952,1.63999 -3.40351,2.80156 -4.80273,3.48047 -1.39923,0.67891 -2.54715,0.75933 -2.60938,0.74804 l -0.375,-0.0684 -0.37891,0.0508 c -3.8734,0.53007 -5.34154,-0.26328 -6.09765,-1.06836 -0.75574,-0.80469 -1.04972,-2.17516 -1.07031,-3.53516 -10e-6,-6.6e-4 10e-6,-0.001 0,-0.002 -3.5e-4,-6.84996 -0.0932,-13.82067 1.12304,-21.03907 l 0.004,-0.0215 0.004,-0.0234 c 0.77295,-5.19065 3.34732,-6.43876 4.65235,-6.28711 0.65251,0.0758 1.25122,0.39781 1.76953,1.43164 0.51831,1.03384 0.84717,2.8517 0.32422,5.51367 l -0.48438,2.46094 2.48047,0.375 c 6.96271,1.05034 12.11044,-2.16081 14.29492,-6.81054 2.18449,-4.64974 1.95093,-10.35917 0.125,-15.26368 -1.82593,-4.9045 -5.47822,-9.28282 -10.77148,-10.03711 -3.91589,-0.55801 -8.19006,1.02606 -12.5625,5.04297 l 0.28125,-5.74414 c 0.55003,-1.85151 1.50706,-2.90449 2.91016,-3.58203 1.44366,-0.69712 3.44808,-0.93138 5.72265,-0.56055 4.54914,0.74166 9.96528,3.92028 13.33203,8.78907 l 0.21289,0.30664 0.29493,0.22851 c 1.42538,1.09858 3.53297,1.96774 5.70898,1.03125 2.17601,-0.93648 3.33419,-3.33737 3.62109,-6.5039 l 0.0234,-0.25586 -1.72656,-14.02344 -0.0156,-0.082 c -0.41751,-2.13724 -1.70161,-3.94642 -3.36523,-4.68945 -1.63122,-0.72857 -3.16238,-0.65575 -4.64258,-0.61915 z m -0.25,4.79492 0.0469,0.002 h 0.0469 l 46.14844,0.63282 0.0449,-0.002 c 1.41927,-0.0335 2.3758,0.0761 2.66016,0.20313 0.28019,0.12514 0.37861,0.0744 0.60351,1.20898 l 1.62305,13.18555 c -0.22628,2.06509 -0.75767,2.3915 -0.70117,2.36719 0.0527,-0.0227 -0.32655,-0.0724 -0.79297,-0.37891 -4.15049,-5.69207 -10.24448,-9.35006 -16.08789,-10.30273 -3.01255,-0.49115 -6.00184,-0.27133 -8.58203,0.97461 -2.5802,1.24593 -4.64549,3.61701 -5.51368,6.75585 l -0.0703,0.25586 -1.02539,20.8379 4.6875,-6.15821 c 5.41345,-7.11346 9.74849,-8.75529 12.70508,-8.33398 2.95659,0.42131 5.52317,3.13577 6.94726,6.96093 1.4241,3.82517 1.4716,8.48106 0.0312,11.54688 -1.21818,2.59295 -3.23164,4.21027 -7.06054,4.1875 0.0888,-2.20817 -0.11842,-4.23726 -0.91992,-5.83594 -1.13023,-2.25435 -3.21563,-3.78246 -5.50782,-4.04883 -4.57991,-0.53221 -8.93239,3.5638 -9.94726,10.33008 -1.30354,7.75605 -1.18948,15.04155 -1.18946,21.84571 v 0.0176 0.0176 c 0.0285,1.90969 0.35667,4.60497 2.37305,6.75195 2.01639,2.14699 5.47084,3.19088 10.24805,2.53711 l -0.75391,-0.0156 c 1.87714,0.34038 3.62011,-0.21178 5.5586,-1.15234 1.93848,-0.94056 4.01607,-2.38494 6.04687,-4.34961 3.71535,-3.59436 7.17735,-9.04174 8.95703,-16.14454 h 23.66992 0.0137 c 0.37545,-0.005 1.60248,0.16433 2.66406,0.57813 1.06158,0.4138 1.96513,1.06108 2.34375,1.64844 0.37862,0.58735 0.58272,1.11342 -0.0664,2.61523 -0.64912,1.50181 -2.38318,3.80539 -5.87109,6.70117 l 0.0254,-0.002 c -0.0484,0.0324 -0.15263,0.0397 -0.19141,0.0742 -0.5261,0.46848 -0.61944,0.7955 -0.7207,1.04492 -0.20252,0.49885 -0.24829,0.82509 -0.3125,1.22852 -0.12842,0.80685 -0.20931,1.80636 -0.27734,3.07422 -0.13608,2.53571 -0.19971,6.0767 -0.21485,10.21875 -0.0303,8.28409 0.14074,18.93866 0.37891,28.27148 0.12853,5.036587 1.12584,9.654713 3.06836,13.373047 1.94252,3.718334 4.9671,6.601923 8.91015,7.53125 l 0.22071,0.05273 0.22656,0.0098 c 3.65008,0.158099 6.52144,-0.602242 7.97656,-2.892578 1.45512,-2.290336 0.83557,-4.883718 -0.15234,-7.134766 -1.63034,-3.714861 -4.69061,-7.272358 -7.4707,-10.119143 3.64487,-3.23676 7.36117,-3.94262 11.09765,-3.04687 4.28915,1.02824 8.57225,4.297606 11.4707,8.41406 2.89846,4.116454 4.33163,8.977525 3.61133,12.847656 -0.71273,3.829491 -3.21511,7.018452 -9.59375,8.72461 l -45.60742,1.464843 -0.0625,0.0059 c -1.10317,0.09335 -3.58262,-0.622871 -4.57422,-1.734375 -0.4958,-0.555753 -0.74539,-1.087363 -0.71289,-1.978516 0.0325,-0.891153 0.43776,-2.24589 1.75391,-4.074219 l -0.45703,0.478516 c 1.60667,-1.275462 2.31888,-3.054199 2.70703,-4.695313 0.38814,-1.641113 0.44848,-3.241166 0.41015,-4.519531 l 0.002,0.09961 0.63086,-53.261721 -4.67578,-0.78711 -3.27344,9.81641 -0.008,0.0293 c -0.50553,1.65401 -1.08123,2.29221 -1.73046,2.70312 -0.64713,0.40957 -1.60082,0.63173 -2.98633,0.67383 l -39.41797,-0.23242 c -2.69635,-0.14971 -5.53774,-0.55058 -6.51367,-1.07618 -0.49005,-0.26391 -0.39729,-0.23402 -0.41016,-0.32421 -0.0108,-0.0753 0.21993,-0.81205 0.70899,-1.72266 0.0581,-0.0753 0.13154,-0.15797 0.19726,-0.22461 0.27502,-0.27887 0.51001,-0.56839 0.75977,-0.90039 0.4995,-0.66401 1.03159,-1.48845 1.55664,-2.42773 1.05009,-1.87857 2.09656,-4.10529 2.31445,-6.4629 1.15479,-12.49493 -0.97563,-39.78096 -1.75976,-52.50781 -0.16072,-2.60839 -1.21267,-4.62199 -2.23047,-5.97656 -0.5089,-0.67729 -1.00949,-1.20634 -1.37305,-1.58789 -0.36356,-0.38155 -0.60056,-0.72981 -0.43164,-0.43945 l -0.1211,-0.21094 -0.16406,-0.18164 c -1.56135,-1.74667 -2.12528,-3.06904 -2.23633,-3.83399 -0.11104,-0.76494 0.0306,-1.06101 0.46094,-1.52734 0.86062,-0.93265 3.59179,-1.81184 5.86133,-1.69336 z"
       style="color:#000000;font-style:normal;font-variant:normal;font-weight:normal;font-stretch:normal;font-size:medium;line-height:normal;font-family:sans-serif;font-variant-ligatures:normal;font-variant-position:normal;font-variant-caps:normal;font-variant-numeric:normal;font-variant-alternates:normal;font-feature-settings:normal;text-indent:0;text-align:start;text-decoration:none;text-decoration-line:none;text-decoration-style:solid;text-decoration-color:#000000;letter-spacing:normal;word-spacing:normal;text-transform:none;writing-mode:lr-tb;direction:ltr;text-orientation:mixed;dominant-baseline:auto;baseline-shift:baseline;text-anchor:start;white-space:normal;shape-padding:0;clip-rule:nonzero;display:inline;overflow:visible;visibility:visible;opacity:1;isolation:auto;mix-blend-mode:normal;color-interpolation:sRGB;color-interpolation-filters:linearRGB;solid-color:#000000;solid-opacity:1;vector-effect:none;fill:#8b4c2e;fill-opacity:1;fill-rule:nonzero;stroke:none;stroke-width:50.13829422;stroke-linecap:butt;stroke-linejoin:miter;stroke-miterlimit:4;stroke-dasharray:none;stroke-dashoffset:0;stroke-opacity:1;color-rendering:auto;image-rendering:auto;shape-rendering:auto;text-rendering:auto;enable-background:accumulate" />
    <path
       sodipodi:nodetypes="csccccsscccsccccccccscscssccscc"
       inkscape:connector-curvature="0"
       id="path4519-6-3"
       d="m -488.05859,-96.806949 c -4.11366,1.949729 -6.54977,4.774628 -9.25196,8.431949 -2.70219,3.657321 -4.64611,7.461711 -5.5332,10.494141 l -0.0352,0.115234 -0.0215,0.117187 c -1.86471,9.964225 0.29608,17.670197 4.57812,22.791016 4.28205,5.120819 10.48078,7.589068 16.35743,7.775391 5.87664,0.186323 11.64179,-1.870267 14.88281,-6.382813 3.24102,-4.512546 3.35829,-11.215671 -1.01953,-18.701172 l -3.51758,-6.015625 -0.93164,6.90625 c -0.81173,6.018376 -4.37494,8.399133 -7.48438,8.544922 -3.10944,0.145789 -5.99882,-1.612923 -6.19922,-6.828125 l -0.002,-0.06445 -0.006,-0.06641 c -0.12484,-1.334715 0.0794,-2.09724 0.39649,-2.654297 0.31708,-0.557057 0.8193,-1.017826 1.70898,-1.470703 1.77937,-0.905754 4.98477,-1.468847 8.65039,-2.068359 l -0.77539,-4.736329 c -3.62695,0.593188 -7.1179,1.033426 -10.05273,2.527344 -1.46742,0.746959 -2.82705,1.835903 -3.70313,3.375 -0.8647,1.519108 -1.17845,3.375422 -1.00195,5.398438 0.30725,7.238995 5.69114,11.641522 11.20898,11.382812 3.8226,-0.179226 7.49754,-2.557149 9.8125,-6.515625 0.97158,3.558809 0.4193,6.233895 -0.98242,8.185547 -2.0273,2.822658 -6.19596,4.533708 -10.83203,4.386719 -4.63607,-0.14699 -9.53004,-2.112522 -12.82812,-6.056641 -3.28077,-3.923407 -5.17338,-9.882768 -3.55469,-18.701172 0.66192,-2.202174 2.45146,-5.639515 4.74609,-8.884765 1.86532,-2.638088 1.30539,-2.344602 6.89268,-6.710732 z"
       style="color:#000000;font-style:normal;font-variant:normal;font-weight:normal;font-stretch:normal;font-size:medium;line-height:normal;font-family:sans-serif;font-variant-ligatures:normal;font-variant-position:normal;font-variant-caps:normal;font-variant-numeric:normal;font-variant-alternates:normal;font-feature-settings:normal;text-indent:0;text-align:start;text-decoration:none;text-decoration-line:none;text-decoration-style:solid;text-decoration-color:#000000;letter-spacing:normal;word-spacing:normal;text-transform:none;writing-mode:lr-tb;direction:ltr;text-orientation:mixed;dominant-baseline:auto;baseline-shift:baseline;text-anchor:start;white-space:normal;shape-padding:0;clip-rule:nonzero;display:inline;overflow:visible;visibility:visible;opacity:1;isolation:auto;mix-blend-mode:normal;color-interpolation:sRGB;color-interpolation-filters:linearRGB;solid-color:#000000;solid-opacity:1;vector-effect:none;fill:#fcac53;fill-opacity:1;fill-rule:nonzero;stroke:none;stroke-width:50.13829422;stroke-linecap:butt;stroke-linejoin:miter;stroke-miterlimit:4;stroke-dasharray:none;stroke-dashoffset:0;stroke-opacity:1;color-rendering:auto;image-rendering:auto;shape-rendering:auto;text-rendering:auto;enable-background:accumulate" />
    <path
       sodipodi:nodetypes="ccccc"
       inkscape:connector-curvature="0"
       id="path4615"
       d="m -498.78044,-72.061114 c 0.68456,-6.563841 3.49458,-12.505761 8.14886,-16.886255 L -484,-82.105264 c -2.92703,0.999168 -5.39616,4.366808 -6.93515,9.926664 z"
       style="fill:#8b4c2e;fill-opacity:1;stroke:none;stroke-width:1.04454768;stroke-linecap:butt;stroke-linejoin:miter;stroke-miterlimit:4;stroke-dasharray:none;stroke-opacity:1" />
  </g>
</svg>
