<?xml version="1.0" encoding="UTF-8" standalone="no"?>
<svg
   xmlns:dc="http://purl.org/dc/elements/1.1/"
   xmlns:cc="http://creativecommons.org/ns#"
   xmlns:rdf="http://www.w3.org/1999/02/22-rdf-syntax-ns#"
   xmlns:svg="http://www.w3.org/2000/svg"
   xmlns="http://www.w3.org/2000/svg"
   xmlns:sodipodi="http://sodipodi.sourceforge.net/DTD/sodipodi-0.dtd"
   xmlns:inkscape="http://www.inkscape.org/namespaces/inkscape"
   width="32"
   version="1"
   height="32"
   id="svg12"
   sodipodi:docname="firefox-trunk.svg"
   inkscape:version="0.92.2 2405546, 2018-03-11">
  <metadata
     id="metadata18">
    <rdf:RDF>
      <cc:Work
         rdf:about="">
        <dc:format>image/svg+xml</dc:format>
        <dc:type
           rdf:resource="http://purl.org/dc/dcmitype/StillImage" />
      </cc:Work>
    </rdf:RDF>
  </metadata>
  <defs
     id="defs16" />
  <sodipodi:namedview
     pagecolor="#ffffff"
     bordercolor="#666666"
     borderopacity="1"
     objecttolerance="10"
     gridtolerance="10"
     guidetolerance="10"
     inkscape:pageopacity="0"
     inkscape:pageshadow="2"
     inkscape:window-width="1680"
     inkscape:window-height="972"
     id="namedview14"
     showgrid="false"
     inkscape:zoom="7.375"
     inkscape:cx="-0.61017005"
     inkscape:cy="-0.27118645"
     inkscape:window-x="0"
     inkscape:window-y="0"
     inkscape:window-maximized="1"
     inkscape:current-layer="svg12" />
  <g
     id="g857"
     transform="translate(44.881356,-10.983051)">
    <path
       sodipodi:nodetypes="ssccsss"
       inkscape:connector-curvature="0"
       id="rect4497-3-9"
       d="m -37.4087,12.881488 c -3.088651,0 -5.574205,2.485568 -5.574218,5.574219 l -2.3e-5,5.343751 c 2.503892,13.426751 20.704098,23.189655 28.20317,0.978515 l -2.3e-5,-6.322266 c -1.1e-5,-3.088651 -2.485567,-5.574219 -5.574218,-5.574219 z"
       style="opacity:1;fill:#042c38;fill-opacity:1;fill-rule:evenodd;stroke:none;stroke-width:1.03534329;stroke-linecap:round;stroke-linejoin:bevel;stroke-miterlimit:4;stroke-dasharray:none;stroke-dashoffset:0;stroke-opacity:1" />
    <path
       sodipodi:nodetypes="cccsc"
       inkscape:connector-curvature="0"
       id="path4560"
       d="m -31.770376,33.339388 c 9.40248,5.850451 18.13995,-10.790524 7.77422,-18.797566 11.67766,1.520077 6.06597,14.08033 7.31469,22.259834 -4.37305,-0.195075 -10.14739,3.954797 -14.06207,1.743044 -0.96218,-0.543621 -0.59188,-4.344406 -1.02684,-5.205312 z"
       style="fill:#ffc607;fill-opacity:1;stroke:none;stroke-width:0.10000001;stroke-linecap:butt;stroke-linejoin:miter;stroke-miterlimit:4;stroke-dasharray:none;stroke-opacity:1" />
    <path
       sodipodi:nodetypes="ccccccccc"
       inkscape:connector-curvature="0"
       id="path4555"
       d="m -33.517866,26.016986 c -0.95277,1.859739 -0.51657,2.161633 -0.21819,2.516359 1.01391,0.896472 2.66643,0.395452 5.66475,-1.281573 0.14374,1.146671 -0.80898,2.462848 -3.29217,3.708649 -0.81498,0.407298 -1.21499,1.037162 -0.4069,2.378967 l 3.77482,4.541053 -5.26237,-0.447302 -4.34146,-11.05098 z"
       style="fill:#d14b01;fill-opacity:1;stroke:none;stroke-width:0.10000001;stroke-linecap:butt;stroke-linejoin:miter;stroke-miterlimit:4;stroke-dasharray:none;stroke-opacity:1" />
    <path
       sodipodi:nodetypes="cccc"
       inkscape:connector-curvature="0"
       id="path4562"
       d="m -24.440016,18.082727 c 4.57076,2.957716 3.48092,7.233658 4.83737,10.939911 l 0.96747,-6.828141 c -1.8364,-2.910582 -2.1269,-3.631658 -5.80484,-4.11177 z"
       style="fill:#f78f04;fill-opacity:1;stroke:none;stroke-width:0.10000001;stroke-linecap:butt;stroke-linejoin:miter;stroke-miterlimit:4;stroke-dasharray:none;stroke-opacity:1" />
    <path
       sodipodi:nodetypes="cccc"
       inkscape:connector-curvature="0"
       id="path4562-7"
       d="m -21.630626,25.18995 c 0.43002,3.955838 -0.0483,6.674477 0.707,6.82814 l 1.35819,-3.702452 c -0.34252,-0.305525 -1.13968,-2.142234 -2.06519,-3.125688 z"
       style="fill:#f78f04;fill-opacity:1;stroke:none;stroke-width:0.10000001;stroke-linecap:butt;stroke-linejoin:miter;stroke-miterlimit:4;stroke-dasharray:none;stroke-opacity:1" />
    <path
       sodipodi:nodetypes="cccc"
       inkscape:connector-curvature="0"
       id="path4514"
       d="m -39.730646,16.120535 c -1.55171,2.036274 -2.04014,4.015009 -1.63135,5.841232 l 2.97326,-2.183885 c -0.68459,-0.714897 -1.21595,-1.755383 -1.34191,-3.657347 z"
       style="fill:#dc4a04;fill-opacity:1;stroke:none;stroke-width:0.10000001;stroke-linecap:butt;stroke-linejoin:miter;stroke-miterlimit:4;stroke-dasharray:none;stroke-opacity:1" />
    <path
       sodipodi:nodetypes="cccc"
       inkscape:connector-curvature="0"
       id="path4549"
       d="m -33.231616,22.935305 c 1.92792,-0.0021 3.93491,0.359387 5.63073,-0.710419 -0.88061,1.30066 -1.87682,2.214625 -3.73627,3.025862 z"
       style="fill:#ffffff;fill-opacity:1;stroke:none;stroke-width:0.10000001;stroke-linecap:butt;stroke-linejoin:miter;stroke-miterlimit:4;stroke-dasharray:none;stroke-opacity:1" />
    <path
       sodipodi:nodetypes="ccccc"
       inkscape:connector-curvature="0"
       id="path4547"
       d="m -33.021126,20.119937 c 0.93956,0.587691 1.06136,1.405737 5.34131,1.052473 0.31421,0.332546 0.31705,0.684861 0.0789,1.052475 -1.46564,0.974797 -3.72003,1.038253 -5.48694,0.65433 z"
       style="fill:#f25900;fill-opacity:1;stroke:none;stroke-width:0.10000001;stroke-linecap:butt;stroke-linejoin:miter;stroke-miterlimit:4;stroke-dasharray:none;stroke-opacity:1" />
    <path
       sodipodi:nodetypes="ccc"
       inkscape:connector-curvature="0"
       id="path4551"
       d="m -27.679816,21.172411 c 0.32115,0.605362 0.004,0.897717 -0.19536,1.195391 1.11516,0.148883 1.30231,-1.498113 0.19536,-1.195391 z"
       style="fill:#656465;fill-opacity:1;stroke:none;stroke-width:0.10000001;stroke-linecap:butt;stroke-linejoin:miter;stroke-miterlimit:4;stroke-dasharray:none;stroke-opacity:1" />
    <path
       id="path4619"
       d="m -14.779771,24.777973 c -0.30325,-0.69864 -0.63093,-1.388672 -1.10547,-2.027344 -0.57333,-0.771632 -1.28502,-1.495305 -2.16406,-2.158203 -0.95553,1.692586 -1.54491,3.507989 -2.00977,5.283203 -0.46485,1.775213 -0.80496,3.509498 -1.26367,5.044921 -0.22936,0.767711 -0.48797,1.485504 -0.80664,2.132813 -0.31867,0.647308 -0.69746,1.224333 -1.16602,1.710937 -0.46855,0.486605 -1.02802,0.882372 -1.70703,1.167968 -0.679,0.285598 -1.47771,0.461572 -2.42773,0.50586 -1.13442,0.03885 -2.26664,-0.260463 -3.29492,-0.802735 -1.02829,-0.542272 -1.95214,-1.327304 -2.67188,-2.261718 -0.71974,-0.934415 -1.23458,-2.018669 -1.44336,-3.15625 -0.10439,-0.568791 -0.13356,-1.150226 -0.0723,-1.734376 0.0613,-0.584149 0.21255,-1.170206 0.46484,-1.746093 1.84779,-0.09575 3.97842,-0.0167 5.16992,0.201172 -0.92047,-0.701371 -1.64272,-1.43851 -2.16015,-2.210937 -0.51744,-0.772429 -0.82993,-1.580282 -0.92774,-2.421874 -0.0978,-0.841593 0.019,-1.718087 0.35742,-2.626954 0.33841,-0.908867 0.89825,-1.849971 1.68946,-2.824219 -0.76814,0.223902 -1.53408,0.458538 -2.26368,0.81836 -0.72959,0.359822 -1.42282,0.844829 -2.04882,1.566406 -0.52703,-0.34418 -1.17262,-0.524247 -1.86914,-0.554688 -0.69653,-0.03044 -1.44383,0.08854 -2.17383,0.34375 -0.73,0.255215 -1.44285,0.647373 -2.07031,1.160157 -0.62747,0.512783 -1.16969,1.146404 -1.5586,1.888672 -0.25663,0.439022 -0.47369,1.070802 -0.67969,1.722657 v 11.710936 c 0,3.08865 2.48557,5.574219 5.57422,5.574219 h 17.05274 c 3.08865,0 5.57617,-2.485569 5.57617,-5.574219 z"
       style="opacity:1;fill:#ef5a00;fill-opacity:1;fill-rule:evenodd;stroke:none;stroke-width:1.03534329;stroke-linecap:round;stroke-linejoin:bevel;stroke-miterlimit:4;stroke-dasharray:none;stroke-dashoffset:0;stroke-opacity:1"
       inkscape:connector-curvature="0" />
  </g>
</svg>
