<?xml version="1.0" encoding="UTF-8" standalone="no"?>
<svg
   xmlns:dc="http://purl.org/dc/elements/1.1/"
   xmlns:cc="http://creativecommons.org/ns#"
   xmlns:rdf="http://www.w3.org/1999/02/22-rdf-syntax-ns#"
   xmlns:svg="http://www.w3.org/2000/svg"
   xmlns="http://www.w3.org/2000/svg"
   xmlns:sodipodi="http://sodipodi.sourceforge.net/DTD/sodipodi-0.dtd"
   xmlns:inkscape="http://www.inkscape.org/namespaces/inkscape"
   height="32"
   width="32"
   version="1"
   id="svg23"
   sodipodi:docname="gnome-sound-recorder.svg"
   inkscape:version="0.92.1 r">
  <metadata
     id="metadata27">
    <rdf:RDF>
      <cc:Work
         rdf:about="">
        <dc:format>image/svg+xml</dc:format>
        <dc:type
           rdf:resource="http://purl.org/dc/dcmitype/StillImage" />
      </cc:Work>
    </rdf:RDF>
  </metadata>
  <sodipodi:namedview
     pagecolor="#ffffff"
     bordercolor="#666666"
     borderopacity="1"
     objecttolerance="10"
     gridtolerance="10"
     guidetolerance="10"
     inkscape:pageopacity="0"
     inkscape:pageshadow="2"
     inkscape:window-width="1680"
     inkscape:window-height="963"
     id="namedview25"
     showgrid="false"
     inkscape:zoom="7.375"
     inkscape:cx="-51.966771"
     inkscape:cy="35.57831"
     inkscape:window-x="0"
     inkscape:window-y="0"
     inkscape:window-maximized="1"
     inkscape:current-layer="svg23" />
  <defs
     id="defs7">
    <radialGradient
       id="radialGradient4807"
       gradientUnits="userSpaceOnUse"
       cy="11.491"
       cx="15.5"
       gradientTransform="matrix(1 0 0 1.1525 0 -1.7523)"
       r="6.5">
      <stop
         offset="0"
         id="stop2" />
      <stop
         stop-opacity="0"
         offset="1"
         id="stop4" />
    </radialGradient>
  </defs>
  <rect
     style="opacity:1;fill:#909090;fill-opacity:1;fill-rule:evenodd;stroke:none;stroke-width:1.03534329;stroke-linecap:round;stroke-linejoin:bevel;stroke-miterlimit:4;stroke-dasharray:none;stroke-dashoffset:0;stroke-opacity:1"
     id="rect4497-3"
     width="28.203388"
     height="28.203388"
     x="1.8983059"
     y="1.8983059"
     ry="5.575182" />
  <g
     id="g4515"
     transform="translate(50.801059,14.046257)">
    <rect
       style="fill:#4f4f4f;stroke-width:0.62754738"
       id="rect9"
       x="-10.111859"
       y="29.78068"
       width="1.2550948"
       height="10.040758"
       transform="matrix(0,-1,-1,0,0,0)" />
    <rect
       style="fill:#4f4f4f;stroke-width:0.62754738"
       id="rect11"
       x="-35.428608"
       y="-8.8567648"
       width="1.2550948"
       height="3.137737"
       transform="scale(1,-1)" />
    <path
       style="fill:#4f4f4f;stroke-width:0.62754738"
       inkscape:connector-curvature="0"
       id="path13"
       d="M -41.076533,0.07110153 V 1.1165945 c 0,2.897387 2.798862,5.229981 6.275474,5.229981 3.476613,0 6.275474,-2.332594 6.275474,-5.229981 V 0.07110153 h -1.255095 v 0.837148 c 0,2.31753197 -2.239089,4.18323097 -5.020379,4.18323097 -2.78129,0 -5.020379,-1.865699 -5.020379,-4.18323097 v -0.837148 z" />
    <rect
       style="fill:#ffffff;stroke-width:0.62754738"
       id="rect15"
       x="-3.836385"
       y="30.408226"
       width="10.040758"
       height="8.7856636"
       transform="matrix(0,-1,-1,0,0,0)"
       rx="4.1838584"
       ry="4.3928318" />
    <path
       inkscape:connector-curvature="0"
       style="opacity:0.7;fill:#909090;fill-opacity:1;stroke-width:0.62754738"
       id="path17"
       d="m -36.437723,-5.5768255 a 0.3137737,0.3137737 0 0 0 -0.313774,0.313774 0.3137737,0.3137737 0 0 0 0.313774,0.313773 0.3137737,0.3137737 0 0 0 0.313773,-0.313773 0.3137737,0.3137737 0 0 0 -0.313773,-0.313774 z m 1.255094,0 a 0.3137737,0.3137737 0 0 0 -0.313773,0.313774 0.3137737,0.3137737 0 0 0 0.313773,0.313773 0.3137737,0.3137737 0 0 0 0.313774,-0.313773 0.3137737,0.3137737 0 0 0 -0.313774,-0.313774 z m 1.255095,0 a 0.3137737,0.3137737 0 0 0 -0.313774,0.313774 0.3137737,0.3137737 0 0 0 0.313774,0.313773 0.3137737,0.3137737 0 0 0 0.313774,-0.313773 0.3137737,0.3137737 0 0 0 -0.313774,-0.313774 z m 1.255095,0 a 0.3137737,0.3137737 0 0 0 -0.313774,0.313774 0.3137737,0.3137737 0 0 0 0.313774,0.313773 0.3137737,0.3137737 0 0 0 0.313774,-0.313773 0.3137737,0.3137737 0 0 0 -0.313774,-0.313774 z m -4.750534,0.151992 c -0.172575,0.117477 -0.336365,0.2465 -0.489487,0.386067 a 0.3137737,0.3137737 0 0 0 0.219642,0.08949 0.3137737,0.3137737 0 0 0 0.313774,-0.313773 0.3137737,0.3137737 0 0 0 -0.04393,-0.161782 z m -0.269845,1.103103 a 0.3137737,0.3137737 0 0 0 -0.313774,0.313773 0.3137737,0.3137737 0 0 0 0.313774,0.313774 0.3137737,0.3137737 0 0 0 0.313774,-0.313774 0.3137737,0.3137737 0 0 0 -0.313774,-0.313773 z m 1.255095,0 a 0.3137737,0.3137737 0 0 0 -0.313774,0.313773 0.3137737,0.3137737 0 0 0 0.313774,0.313774 0.3137737,0.3137737 0 0 0 0.313773,-0.313774 0.3137737,0.3137737 0 0 0 -0.313773,-0.313773 z m 1.255094,0 a 0.3137737,0.3137737 0 0 0 -0.313773,0.313773 0.3137737,0.3137737 0 0 0 0.313773,0.313774 0.3137737,0.3137737 0 0 0 0.313774,-0.313774 0.3137737,0.3137737 0 0 0 -0.313774,-0.313773 z m 1.255095,0 a 0.3137737,0.3137737 0 0 0 -0.313774,0.313773 0.3137737,0.3137737 0 0 0 0.313774,0.313774 0.3137737,0.3137737 0 0 0 0.313774,-0.313774 0.3137737,0.3137737 0 0 0 -0.313774,-0.313773 z m 1.255095,0 a 0.3137737,0.3137737 0 0 0 -0.313774,0.313773 0.3137737,0.3137737 0 0 0 0.313774,0.313774 0.3137737,0.3137737 0 0 0 0.313774,-0.313774 0.3137737,0.3137737 0 0 0 -0.313774,-0.313773 z m 1.255095,0 a 0.3137737,0.3137737 0 0 0 -0.313774,0.313773 0.3137737,0.3137737 0 0 0 0.313774,0.313774 0.3137737,0.3137737 0 0 0 0.313773,-0.313774 0.3137737,0.3137737 0 0 0 -0.313773,-0.313773 z m -7.242525,0.188766 c -0.0861,0.140194 -0.165358,0.283777 -0.234138,0.433886 a 0.3137737,0.3137737 0 0 0 0.259868,-0.308879 0.3137737,0.3137737 0 0 0 -0.02573,-0.125007 z m -0.288044,1.066328 a 0.3137737,0.3137737 0 0 0 -0.187511,0.0625 c -0.03408,0.135362 -0.06094,0.272858 -0.08089,0.413052 a 0.3137737,0.3137737 0 0 0 0.268402,0.151992 0.3137737,0.3137737 0 0 0 0.313774,-0.313774 0.3137737,0.3137737 0 0 0 -0.313774,-0.313774 z m 1.255095,0 a 0.3137737,0.3137737 0 0 0 -0.313774,0.313774 0.3137737,0.3137737 0 0 0 0.313774,0.313774 0.3137737,0.3137737 0 0 0 0.313774,-0.313774 0.3137737,0.3137737 0 0 0 -0.313774,-0.313774 z m 1.255095,0 a 0.3137737,0.3137737 0 0 0 -0.313774,0.313774 0.3137737,0.3137737 0 0 0 0.313774,0.313774 0.3137737,0.3137737 0 0 0 0.313773,-0.313774 0.3137737,0.3137737 0 0 0 -0.313773,-0.313774 z m 1.255094,0 a 0.3137737,0.3137737 0 0 0 -0.313773,0.313774 0.3137737,0.3137737 0 0 0 0.313773,0.313774 0.3137737,0.3137737 0 0 0 0.313774,-0.313774 0.3137737,0.3137737 0 0 0 -0.313774,-0.313774 z m 1.255095,0 a 0.3137737,0.3137737 0 0 0 -0.313774,0.313774 0.3137737,0.3137737 0 0 0 0.313774,0.313774 0.3137737,0.3137737 0 0 0 0.313774,-0.313774 0.3137737,0.3137737 0 0 0 -0.313774,-0.313774 z m 1.255095,0 a 0.3137737,0.3137737 0 0 0 -0.313774,0.313774 0.3137737,0.3137737 0 0 0 0.313774,0.313774 0.3137737,0.3137737 0 0 0 0.313774,-0.313774 0.3137737,0.3137737 0 0 0 -0.313774,-0.313774 z m 1.255095,0 a 0.3137737,0.3137737 0 0 0 -0.313774,0.313774 0.3137737,0.3137737 0 0 0 0.313774,0.313774 0.3137737,0.3137737 0 0 0 0.313773,-0.313774 0.3137737,0.3137737 0 0 0 -0.313773,-0.313774 z m -7.530569,1.255095 a 0.3137737,0.3137737 0 0 0 -0.313774,0.313774 0.3137737,0.3137737 0 0 0 0.313774,0.313774 0.3137737,0.3137737 0 0 0 0.313774,-0.313774 0.3137737,0.3137737 0 0 0 -0.313774,-0.313774 z m 1.255095,0 a 0.3137737,0.3137737 0 0 0 -0.313774,0.313774 0.3137737,0.3137737 0 0 0 0.313774,0.313774 0.3137737,0.3137737 0 0 0 0.313774,-0.313774 0.3137737,0.3137737 0 0 0 -0.313774,-0.313774 z m 1.255095,0 a 0.3137737,0.3137737 0 0 0 -0.313774,0.313774 0.3137737,0.3137737 0 0 0 0.313774,0.313774 0.3137737,0.3137737 0 0 0 0.313773,-0.313774 0.3137737,0.3137737 0 0 0 -0.313773,-0.313774 z m 1.255094,0 a 0.3137737,0.3137737 0 0 0 -0.313773,0.313774 0.3137737,0.3137737 0 0 0 0.313773,0.313774 0.3137737,0.3137737 0 0 0 0.313774,-0.313774 0.3137737,0.3137737 0 0 0 -0.313774,-0.313774 z m 1.255095,0 a 0.3137737,0.3137737 0 0 0 -0.313774,0.313774 0.3137737,0.3137737 0 0 0 0.313774,0.313774 0.3137737,0.3137737 0 0 0 0.313774,-0.313774 0.3137737,0.3137737 0 0 0 -0.313774,-0.313774 z m 1.255095,0 a 0.3137737,0.3137737 0 0 0 -0.313774,0.313774 0.3137737,0.3137737 0 0 0 0.313774,0.313774 0.3137737,0.3137737 0 0 0 0.313774,-0.313774 0.3137737,0.3137737 0 0 0 -0.313774,-0.313774 z m 1.255095,0 a 0.3137737,0.3137737 0 0 0 -0.313774,0.313774 0.3137737,0.3137737 0 0 0 0.313774,0.313774 0.3137737,0.3137737 0 0 0 0.313773,-0.313774 0.3137737,0.3137737 0 0 0 -0.313773,-0.313774 z m -7.530569,1.25509503 a 0.3137737,0.3137737 0 0 0 -0.310071,0.273611 c 5.65e-4,0.03891 0.0044,0.07719 0.0061,0.116096 a 0.3137737,0.3137737 0 0 0 0.303984,0.237841 0.3137737,0.3137737 0 0 0 0.313773,-0.313774 0.3137737,0.3137737 0 0 0 -0.313773,-0.313774 z m 1.255095,0 a 0.3137737,0.3137737 0 0 0 -0.313774,0.313774 0.3137737,0.3137737 0 0 0 0.313774,0.313774 0.3137737,0.3137737 0 0 0 0.313774,-0.313774 0.3137737,0.3137737 0 0 0 -0.313774,-0.313774 z m 1.255095,0 a 0.3137737,0.3137737 0 0 0 -0.313774,0.313774 0.3137737,0.3137737 0 0 0 0.313774,0.313774 0.3137737,0.3137737 0 0 0 0.313773,-0.313774 0.3137737,0.3137737 0 0 0 -0.313773,-0.313774 z m 1.255094,0 a 0.3137737,0.3137737 0 0 0 -0.313773,0.313774 0.3137737,0.3137737 0 0 0 0.313773,0.313774 0.3137737,0.3137737 0 0 0 0.313774,-0.313774 0.3137737,0.3137737 0 0 0 -0.313774,-0.313774 z m 1.255095,0 a 0.3137737,0.3137737 0 0 0 -0.313774,0.313774 0.3137737,0.3137737 0 0 0 0.313774,0.313774 0.3137737,0.3137737 0 0 0 0.313774,-0.313774 0.3137737,0.3137737 0 0 0 -0.313774,-0.313774 z m 1.255095,0 a 0.3137737,0.3137737 0 0 0 -0.313774,0.313774 0.3137737,0.3137737 0 0 0 0.313774,0.313774 0.3137737,0.3137737 0 0 0 0.313774,-0.313774 0.3137737,0.3137737 0 0 0 -0.313774,-0.313774 z m 1.255095,0 a 0.3137737,0.3137737 0 0 0 -0.313774,0.313774 0.3137737,0.3137737 0 0 0 0.313774,0.313774 0.3137737,0.3137737 0 0 0 0.313773,-0.313774 0.3137737,0.3137737 0 0 0 -0.313773,-0.313774 z m -7.530569,1.255095 a 0.3137737,0.3137737 0 0 0 -0.159334,0.04267 c 0.05604,0.19956 0.123501,0.39472697 0.208346,0.58110897 a 0.3137737,0.3137737 0 0 0 0.264762,-0.310005 0.3137737,0.3137737 0 0 0 -0.313774,-0.31377397 z m 1.255095,0 a 0.3137737,0.3137737 0 0 0 -0.313774,0.31377397 0.3137737,0.3137737 0 0 0 0.313774,0.313773 0.3137737,0.3137737 0 0 0 0.313774,-0.313773 0.3137737,0.3137737 0 0 0 -0.313774,-0.31377397 z m 1.255095,0 a 0.3137737,0.3137737 0 0 0 -0.313774,0.31377397 0.3137737,0.3137737 0 0 0 0.313774,0.313773 0.3137737,0.3137737 0 0 0 0.313773,-0.313773 0.3137737,0.3137737 0 0 0 -0.313773,-0.31377397 z m 1.255094,0 a 0.3137737,0.3137737 0 0 0 -0.313773,0.31377397 0.3137737,0.3137737 0 0 0 0.313773,0.313773 0.3137737,0.3137737 0 0 0 0.313774,-0.313773 0.3137737,0.3137737 0 0 0 -0.313774,-0.31377397 z m 1.255095,0 a 0.3137737,0.3137737 0 0 0 -0.313774,0.31377397 0.3137737,0.3137737 0 0 0 0.313774,0.313773 0.3137737,0.3137737 0 0 0 0.313774,-0.313773 0.3137737,0.3137737 0 0 0 -0.313774,-0.31377397 z m 1.255095,0 a 0.3137737,0.3137737 0 0 0 -0.313774,0.31377397 0.3137737,0.3137737 0 0 0 0.313774,0.313773 0.3137737,0.3137737 0 0 0 0.313774,-0.313773 0.3137737,0.3137737 0 0 0 -0.313774,-0.31377397 z m 1.255095,0 a 0.3137737,0.3137737 0 0 0 -0.313774,0.31377397 0.3137737,0.3137737 0 0 0 0.313774,0.313773 0.3137737,0.3137737 0 0 0 0.313773,-0.313773 0.3137737,0.3137737 0 0 0 -0.313773,-0.31377397 z m -6.275474,1.25509497 a 0.3137737,0.3137737 0 0 0 -0.313774,0.313773 0.3137737,0.3137737 0 0 0 0.313774,0.313774 0.3137737,0.3137737 0 0 0 0.313774,-0.313774 0.3137737,0.3137737 0 0 0 -0.313774,-0.313773 z m 1.255095,0 a 0.3137737,0.3137737 0 0 0 -0.313774,0.313773 0.3137737,0.3137737 0 0 0 0.313774,0.313774 0.3137737,0.3137737 0 0 0 0.313773,-0.313774 0.3137737,0.3137737 0 0 0 -0.313773,-0.313773 z m 1.255094,0 a 0.3137737,0.3137737 0 0 0 -0.313773,0.313773 0.3137737,0.3137737 0 0 0 0.313773,0.313774 0.3137737,0.3137737 0 0 0 0.313774,-0.313774 0.3137737,0.3137737 0 0 0 -0.313774,-0.313773 z m 1.255095,0 a 0.3137737,0.3137737 0 0 0 -0.313774,0.313773 0.3137737,0.3137737 0 0 0 0.313774,0.313774 0.3137737,0.3137737 0 0 0 0.313774,-0.313774 0.3137737,0.3137737 0 0 0 -0.313774,-0.313773 z m 1.255095,0 a 0.3137737,0.3137737 0 0 0 -0.313774,0.313773 0.3137737,0.3137737 0 0 0 0.313774,0.313774 0.3137737,0.3137737 0 0 0 0.313774,-0.313774 0.3137737,0.3137737 0 0 0 -0.313774,-0.313773 z m 1.255095,0 a 0.3137737,0.3137737 0 0 0 -0.313774,0.313773 0.3137737,0.3137737 0 0 0 0.09099,0.220897 c 0.145591,-0.150611 0.283024,-0.307498 0.404141,-0.476936 a 0.3137737,0.3137737 0 0 0 -0.181361,-0.05773 z m -5.020379,1.255095 a 0.3137737,0.3137737 0 0 0 -0.301223,0.227799 c 0.188264,0.08472 0.382804,0.160025 0.585502,0.218387 a 0.3137737,0.3137737 0 0 0 0.02949,-0.132413 0.3137737,0.3137737 0 0 0 -0.313773,-0.313773 z m 1.255094,0 a 0.3137737,0.3137737 0 0 0 -0.313773,0.313773 0.3137737,0.3137737 0 0 0 0.19956,0.293065 c 0.06527,0.0056 0.131785,0.0063 0.197677,0.0094 a 0.3137737,0.3137737 0 0 0 0.23031,-0.302478 0.3137737,0.3137737 0 0 0 -0.313774,-0.313773 z m 1.255095,0 a 0.3137737,0.3137737 0 0 0 -0.313774,0.313773 0.3137737,0.3137737 0 0 0 0.122372,0.248509 c 0.15877,-0.02573 0.315029,-0.05899 0.466895,-0.100408 a 0.3137737,0.3137737 0 0 0 0.03828,-0.148101 0.3137737,0.3137737 0 0 0 -0.313774,-0.313773 z m 1.255095,0 a 0.3137737,0.3137737 0 0 0 -0.298085,0.215876 c 0.134295,-0.0615 0.264197,-0.129275 0.389707,-0.202698 a 0.3137737,0.3137737 0 0 0 -0.09162,-0.01318 z" />
  </g>
</svg>
