<?xml version="1.0" encoding="UTF-8" standalone="no"?>
<svg
   xmlns:dc="http://purl.org/dc/elements/1.1/"
   xmlns:cc="http://creativecommons.org/ns#"
   xmlns:rdf="http://www.w3.org/1999/02/22-rdf-syntax-ns#"
   xmlns:svg="http://www.w3.org/2000/svg"
   xmlns="http://www.w3.org/2000/svg"
   xmlns:sodipodi="http://sodipodi.sourceforge.net/DTD/sodipodi-0.dtd"
   xmlns:inkscape="http://www.inkscape.org/namespaces/inkscape"
   height="32"
   width="32"
   version="1"
   id="svg12"
   sodipodi:docname="gummi.svg"
   inkscape:version="0.92.1 r">
  <metadata
     id="metadata18">
    <rdf:RDF>
      <cc:Work
         rdf:about="">
        <dc:format>image/svg+xml</dc:format>
        <dc:type
           rdf:resource="http://purl.org/dc/dcmitype/StillImage" />
      </cc:Work>
    </rdf:RDF>
  </metadata>
  <defs
     id="defs16" />
  <sodipodi:namedview
     pagecolor="#ffffff"
     bordercolor="#666666"
     borderopacity="1"
     objecttolerance="10"
     gridtolerance="10"
     guidetolerance="10"
     inkscape:pageopacity="0"
     inkscape:pageshadow="2"
     inkscape:window-width="640"
     inkscape:window-height="480"
     id="namedview14"
     showgrid="false"
     inkscape:zoom="8.9375"
     inkscape:cx="-5.2587413"
     inkscape:cy="16"
     inkscape:current-layer="svg12" />
  <rect
     style="opacity:1;fill:#7cb14f;fill-opacity:1;fill-rule:evenodd;stroke:none;stroke-width:1.03534329;stroke-linecap:round;stroke-linejoin:bevel;stroke-miterlimit:4;stroke-dasharray:none;stroke-dashoffset:0;stroke-opacity:1"
     id="rect4497"
     width="28.203388"
     height="28.203388"
     x="1.8983059"
     y="1.8983059"
     ry="5.575182" />
  <path
     d="m 22.9999,11.9997 c -0.764,-2.4224 -3.377,-2.9817 -5.483,-3 -1.855,0 -3.218,0.694 -4.089,1.918 -0.864,1.216 -1.428,2.462 -1.428,5.088 0,2.603 0.5483,3.9204 1.3797,5.1522 0.83145,1.224 2.5251,1.8292 3.8854,1.836 1.2,0.006 2.541,-0.512 3.735,-0.994 v -3.9231 h -2 v -1.077 h 6 v 6 c -2.6267,1.401 -5.385,1.989 -8.1306,2 -3.07,0 -5.4843,-0.80181 -7.2432,-2.4054 C 7.8754,20.9908 7,18.7945 7,16.0056 7,13.209 7.87542,11.0088 9.6262,9.4052 c 1.759,-1.6032 4.173,-2.405 7.243,-2.405 2.62,0.0855 4.893,0.618 7.131,1.5 v 3.5 z"
     id="path6"
     inkscape:connector-curvature="0"
     style="fill:#2e2e2e" />
</svg>
