<?xml version="1.0" encoding="UTF-8" standalone="no"?>
<svg
   xmlns:dc="http://purl.org/dc/elements/1.1/"
   xmlns:cc="http://creativecommons.org/ns#"
   xmlns:rdf="http://www.w3.org/1999/02/22-rdf-syntax-ns#"
   xmlns:svg="http://www.w3.org/2000/svg"
   xmlns="http://www.w3.org/2000/svg"
   xmlns:sodipodi="http://sodipodi.sourceforge.net/DTD/sodipodi-0.dtd"
   xmlns:inkscape="http://www.inkscape.org/namespaces/inkscape"
   height="32"
   width="32"
   version="1"
   id="svg26"
   sodipodi:docname="hydrogen.svg"
   inkscape:version="0.92.2 2405546, 2018-03-11">
  <metadata
     id="metadata32">
    <rdf:RDF>
      <cc:Work
         rdf:about="">
        <dc:format>image/svg+xml</dc:format>
        <dc:type
           rdf:resource="http://purl.org/dc/dcmitype/StillImage" />
      </cc:Work>
    </rdf:RDF>
  </metadata>
  <defs
     id="defs30" />
  <sodipodi:namedview
     pagecolor="#ffffff"
     bordercolor="#666666"
     borderopacity="1"
     objecttolerance="10"
     gridtolerance="10"
     guidetolerance="10"
     inkscape:pageopacity="0"
     inkscape:pageshadow="2"
     inkscape:window-width="1680"
     inkscape:window-height="972"
     id="namedview28"
     showgrid="false"
     inkscape:zoom="12.639534"
     inkscape:cx="16.721052"
     inkscape:cy="8.3383271"
     inkscape:current-layer="svg26"
     inkscape:window-x="1280"
     inkscape:window-y="0"
     inkscape:window-maximized="1" />
  <rect
     style="opacity:1;fill:#3c424e;fill-opacity:1;fill-rule:evenodd;stroke:none;stroke-width:1.03534329;stroke-linecap:round;stroke-linejoin:bevel;stroke-miterlimit:4;stroke-dasharray:none;stroke-dashoffset:0;stroke-opacity:1"
     id="rect4497-3-3"
     width="28.203388"
     height="28.203388"
     x="1.8983059"
     y="1.8983059"
     ry="5.575182"
     inkscape:export-filename="/home/ramil/3.png"
     inkscape:export-xdpi="71"
     inkscape:export-ydpi="71" />
  <path
     style="fill:#ffffff;stroke-width:0.02041609"
     d="m 10.38334,21.694606 c 1.828066,-1.521509 3.330208,-2.768822 3.338091,-2.771808 0.0079,-0.003 0.0302,0.998424 0.0496,2.225354 0.01939,1.226929 0.04106,2.453572 0.04813,2.725871 l 0.01286,0.495091 0.726711,-2.17e-4 0.72671,-2.17e-4 2.508983,-6.829458 c 1.379941,-3.756201 2.505378,-6.832428 2.50097,-6.836058 -0.0044,-0.0037 -0.563839,0.192471 -1.243185,0.435783 -0.679345,0.243312 -2.627039,0.940143 -4.32821,1.548515 -1.70117,0.608371 -3.832609,1.370612 -4.7365307,1.69387 L 8.3439809,14.969071 8.3316239,13.641244 C 8.3248439,12.910937 8.3179299,11.22243 8.3163119,9.8890051 L 8.3133382,7.4645939 H 7.639607 6.9658766 V 16 24.535406 l 0.046851,-0.03721 c 0.025767,-0.02047 1.5425401,-1.282081 3.3706074,-2.803589 z m 14.65078,-0.164994 v -2.839501 l -0.07656,0.04727 c -0.0421,0.026 -1.26574,0.825841 -2.719183,1.777424 -1.453443,0.951584 -2.645597,1.727178 -2.649233,1.723542 -0.0037,-0.0037 1.22134,-3.311031 2.72217,-7.349766 1.500825,-4.038732 2.724043,-7.3478842 2.718259,-7.3536683 -0.01485,-0.014849 -14.910054,0.027831 -15.3661776,0.044028 l -0.375107,0.013321 0.012538,0.4414651 c 0.00691,0.2428058 0.018437,1.4964519 0.025649,2.7858812 0.011998,2.145686 0.015912,2.343615 0.046125,2.334965 0.033249,-0.0095 10.4180686,-3.2671509 11.9322696,-3.7430533 0.447328,-0.140593 0.816641,-0.2523066 0.820694,-0.2482528 0.0041,0.00409 -1.21861,3.4155431 -2.717031,7.5810881 -1.49842,4.165546 -2.724444,7.585204 -2.724495,7.59924 -7.5e-5,0.02033 0.848484,0.02552 4.174995,0.02552 h 4.17509 z"
     id="path841"
     inkscape:connector-curvature="0"
     sodipodi:nodetypes="ccsscccscsssccccccccccccccscscsccccscscscc" />
</svg>
