<?xml version="1.0" encoding="UTF-8" standalone="no"?>
<svg
   xmlns:dc="http://purl.org/dc/elements/1.1/"
   xmlns:cc="http://creativecommons.org/ns#"
   xmlns:rdf="http://www.w3.org/1999/02/22-rdf-syntax-ns#"
   xmlns:svg="http://www.w3.org/2000/svg"
   xmlns="http://www.w3.org/2000/svg"
   xmlns:sodipodi="http://sodipodi.sourceforge.net/DTD/sodipodi-0.dtd"
   xmlns:inkscape="http://www.inkscape.org/namespaces/inkscape"
   height="32"
   width="32"
   version="1"
   id="svg18"
   sodipodi:docname="kopete.svg"
   inkscape:version="0.92.1 r">
  <metadata
     id="metadata24">
    <rdf:RDF>
      <cc:Work
         rdf:about="">
        <dc:format>image/svg+xml</dc:format>
        <dc:type
           rdf:resource="http://purl.org/dc/dcmitype/StillImage" />
      </cc:Work>
    </rdf:RDF>
  </metadata>
  <defs
     id="defs22" />
  <sodipodi:namedview
     pagecolor="#ffffff"
     bordercolor="#666666"
     borderopacity="1"
     objecttolerance="10"
     gridtolerance="10"
     guidetolerance="10"
     inkscape:pageopacity="0"
     inkscape:pageshadow="2"
     inkscape:window-width="1680"
     inkscape:window-height="963"
     id="namedview20"
     showgrid="false"
     inkscape:zoom="10.429825"
     inkscape:cx="51.479819"
     inkscape:cy="7.4439162"
     inkscape:window-x="0"
     inkscape:window-y="0"
     inkscape:window-maximized="1"
     inkscape:current-layer="svg18" />
  <rect
     style="opacity:1;fill:#0286c2;fill-opacity:1;fill-rule:evenodd;stroke:none;stroke-width:1.03534329;stroke-linecap:round;stroke-linejoin:bevel;stroke-miterlimit:4;stroke-dasharray:none;stroke-dashoffset:0;stroke-opacity:1"
     id="rect4497-3"
     width="28.203388"
     height="28.203388"
     x="1.8983059"
     y="1.8983059"
     ry="5.575182" />
  <path
     inkscape:connector-curvature="0"
     d="m 12.495665,5.8763666 c -0.647133,0 -1.168111,0.5209777 -1.168111,1.1681115 V 17.946853 c 0,0.647133 0.520978,1.168111 1.168111,1.168111 H 23.39804 c 0.647134,0 1.168111,-0.520978 1.168111,-1.168111 V 8.2125897 l 2.336223,-2.3362231 z"
     style="fill:#ffffff;stroke-width:0.778741"
     id="path6" />
  <path
     inkscape:connector-curvature="0"
     d="m 5.0976256,12.885036 2.336223,2.336223 v 9.734263 c 0,0.647134 0.5209778,1.168111 1.1681116,1.168111 H 19.504335 c 0.647133,0 1.168111,-0.520977 1.168111,-1.168111 V 14.053147 c 0,-0.647133 -0.520978,-1.168111 -1.168111,-1.168111 z"
     style="fill:#35b9f5;stroke-width:0.778741"
     id="path10" />
  <path
     inkscape:connector-curvature="0"
     d="m 9.7700717,16.778741 v 0.778741 h 8.5661513 v -0.778741 z m 0,2.336223 v 0.778741 h 8.5661513 v -0.778741 z m 0,2.336223 v 0.778741 h 6.5414243 v -0.778741 z"
     style="fill:#aee3fb;stroke-width:0.778741"
     id="path12" />
</svg>
