<?xml version="1.0" encoding="UTF-8" standalone="no"?>
<svg
   xmlns:dc="http://purl.org/dc/elements/1.1/"
   xmlns:cc="http://creativecommons.org/ns#"
   xmlns:rdf="http://www.w3.org/1999/02/22-rdf-syntax-ns#"
   xmlns:svg="http://www.w3.org/2000/svg"
   xmlns="http://www.w3.org/2000/svg"
   xmlns:sodipodi="http://sodipodi.sourceforge.net/DTD/sodipodi-0.dtd"
   xmlns:inkscape="http://www.inkscape.org/namespaces/inkscape"
   height="32"
   width="32"
   version="1"
   id="svg12"
   sodipodi:docname="iron_product_logo.svg"
   inkscape:version="0.92.1 r">
  <metadata
     id="metadata18">
    <rdf:RDF>
      <cc:Work
         rdf:about="">
        <dc:format>image/svg+xml</dc:format>
        <dc:type
           rdf:resource="http://purl.org/dc/dcmitype/StillImage" />
      </cc:Work>
    </rdf:RDF>
  </metadata>
  <defs
     id="defs16" />
  <sodipodi:namedview
     pagecolor="#ffffff"
     bordercolor="#666666"
     borderopacity="1"
     objecttolerance="10"
     gridtolerance="10"
     guidetolerance="10"
     inkscape:pageopacity="0"
     inkscape:pageshadow="2"
     inkscape:window-width="640"
     inkscape:window-height="480"
     id="namedview14"
     showgrid="false"
     inkscape:zoom="8.9375"
     inkscape:cx="-5.3706294"
     inkscape:cy="16"
     inkscape:current-layer="svg12" />
  <rect
     style="opacity:1;fill:#0286c2;fill-opacity:1;fill-rule:evenodd;stroke:none;stroke-width:1.03534329;stroke-linecap:round;stroke-linejoin:bevel;stroke-miterlimit:4;stroke-dasharray:none;stroke-dashoffset:0;stroke-opacity:1"
     id="rect4497-3"
     width="28.203388"
     height="28.203388"
     x="1.8983059"
     y="1.8983059"
     ry="5.575182"
     inkscape:export-filename="/home/ramil/3.png"
     inkscape:export-xdpi="71"
     inkscape:export-ydpi="71" />
  <g
     id="g4503"
     transform="translate(41.395673,-1.0069942)">
    <rect
       id="rect4"
       x="-26.531469"
       y="15.87319"
       width="19.04895"
       height="19.04895"
       ry="9.5244751"
       rx="9.5244751"
       transform="matrix(0,-1,-1,0,0,0)"
       style="fill:#cccccc;stroke-width:0.99999994" />
    <path
       inkscape:connector-curvature="0"
       id="path10"
       d="m -26.295057,11.568364 c -1.387635,-0.04093 -2.722501,0.244918 -3.955196,0.535068 -1.816076,0.427467 -4.804701,1.752104 -4.804701,1.752104 -0.721117,0.312995 -0.732547,1.336562 -0.0186,1.665745 1.027147,0.525657 2.584301,0.744903 2.80126,1.930164 0.319821,1.747201 -1.515702,3.348446 -2.488374,4.959843 -0.582448,0.926132 0.657473,1.90828 1.417315,1.122664 0,0 4.707372,-4.369938 10.852906,-4.535288 1.144471,-0.0308 2.66866,0.476841 3.858642,1.027403 1.189983,0.550562 2.037392,0.96771 2.037392,0.96771 0.752342,0.491456 1.682108,-0.499648 1.327848,-1.328205 -1.762313,-4.117654 -5.4102,-7.50578 -10.42259,-8.058035 l -0.008,-9.11e-4 c -0.200237,-0.02013 -0.399697,-0.03244 -0.59793,-0.03828 z"
       style="fill:#f2f2f2;stroke-width:0.99999994" />
  </g>
</svg>
