<?xml version="1.0" encoding="UTF-8" standalone="no"?>
<svg
   xmlns:dc="http://purl.org/dc/elements/1.1/"
   xmlns:cc="http://creativecommons.org/ns#"
   xmlns:rdf="http://www.w3.org/1999/02/22-rdf-syntax-ns#"
   xmlns:svg="http://www.w3.org/2000/svg"
   xmlns="http://www.w3.org/2000/svg"
   xmlns:sodipodi="http://sodipodi.sourceforge.net/DTD/sodipodi-0.dtd"
   xmlns:inkscape="http://www.inkscape.org/namespaces/inkscape"
   height="32"
   width="32"
   version="1"
   id="svg22"
   sodipodi:docname="jabref.svg"
   inkscape:version="0.92.1 r">
  <metadata
     id="metadata28">
    <rdf:RDF>
      <cc:Work
         rdf:about="">
        <dc:format>image/svg+xml</dc:format>
        <dc:type
           rdf:resource="http://purl.org/dc/dcmitype/StillImage" />
      </cc:Work>
    </rdf:RDF>
  </metadata>
  <defs
     id="defs26" />
  <sodipodi:namedview
     pagecolor="#ffffff"
     bordercolor="#666666"
     borderopacity="1"
     objecttolerance="10"
     gridtolerance="10"
     guidetolerance="10"
     inkscape:pageopacity="0"
     inkscape:pageshadow="2"
     inkscape:window-width="640"
     inkscape:window-height="480"
     id="namedview24"
     showgrid="false"
     inkscape:zoom="8.9375"
     inkscape:cx="-5.3706294"
     inkscape:cy="16"
     inkscape:current-layer="svg22" />
  <rect
     style="opacity:1;fill:#55648f;fill-opacity:1;fill-rule:evenodd;stroke:none;stroke-width:1.03534329;stroke-linecap:round;stroke-linejoin:bevel;stroke-miterlimit:4;stroke-dasharray:none;stroke-dashoffset:0;stroke-opacity:1"
     id="rect4497-3"
     width="28.203388"
     height="28.203388"
     x="1.8983059"
     y="1.8983059"
     ry="5.575182"
     inkscape:export-filename="/home/ramil/3.png"
     inkscape:export-xdpi="71"
     inkscape:export-ydpi="71" />
  <g
     style="fill:#ffffff;fill-rule:evenodd"
     id="g16">
    <path
       d="m 7.2265625,7 c 3.8884995,4.429 4.4022655,9 4.1972655,12 -0.18,2.63 -1.7984218,3.614281 -2.1074218,3.738281 C 8.6720063,22.997281 7.158,23.384 5,22 5,23.615 6.3878344,25 8.8027344,25 11.217534,25 13.194703,23.060953 13.595703,20.876953 14.989403,9.6018531 12.337891,8.0175781 12.337891,8.0175781 12.337891,8.0175781 9.9104768,7.0005 7.2265625,7 Z M 15,7 c 0.706,2.9918 6,4.169797 6,5.591797 0,1.423 -4.058,1.667656 -4,3.972656 C 17.059,19.752453 22.176,23.97 27,25 24.882,22.548 19.529922,17.202125 21.294922,15.828125 27.647822,11.512125 21.8235,7.98092 15,7 Z"
       id="path14"
       inkscape:connector-curvature="0" />
  </g>
</svg>
