<?xml version="1.0" encoding="UTF-8" standalone="no"?>
<svg
   xmlns:dc="http://purl.org/dc/elements/1.1/"
   xmlns:cc="http://creativecommons.org/ns#"
   xmlns:rdf="http://www.w3.org/1999/02/22-rdf-syntax-ns#"
   xmlns:svg="http://www.w3.org/2000/svg"
   xmlns="http://www.w3.org/2000/svg"
   xmlns:sodipodi="http://sodipodi.sourceforge.net/DTD/sodipodi-0.dtd"
   xmlns:inkscape="http://www.inkscape.org/namespaces/inkscape"
   height="32"
   width="32"
   version="1"
   id="svg24"
   sodipodi:docname="kfoldersync.svg"
   inkscape:version="0.92.1 r">
  <metadata
     id="metadata30">
    <rdf:RDF>
      <cc:Work
         rdf:about="">
        <dc:format>image/svg+xml</dc:format>
        <dc:type
           rdf:resource="http://purl.org/dc/dcmitype/StillImage" />
      </cc:Work>
    </rdf:RDF>
  </metadata>
  <defs
     id="defs28" />
  <sodipodi:namedview
     pagecolor="#ffffff"
     bordercolor="#666666"
     borderopacity="1"
     objecttolerance="10"
     gridtolerance="10"
     guidetolerance="10"
     inkscape:pageopacity="0"
     inkscape:pageshadow="2"
     inkscape:window-width="1680"
     inkscape:window-height="963"
     id="namedview26"
     showgrid="false"
     inkscape:zoom="7.375"
     inkscape:cx="-9.7627119"
     inkscape:cy="16"
     inkscape:window-x="0"
     inkscape:window-y="0"
     inkscape:window-maximized="1"
     inkscape:current-layer="svg24" />
  <path
     style="opacity:1;fill:#5294e2;fill-opacity:1;fill-rule:evenodd;stroke:none;stroke-width:1.03534329;stroke-linecap:round;stroke-linejoin:bevel;stroke-miterlimit:4;stroke-dasharray:none;stroke-dashoffset:0;stroke-opacity:1"
     d="m 30.101562,13.677734 c -0.02424,-6.98e-4 -0.03808,-0.02541 -0.0625,-0.02539 l -12.630859,0.0078 -2.064453,-2.513672 C 15.003042,10.731468 14.612837,10.417089 14.173828,10.207031 13.73482,9.9969732 13.247892,9.8906248 12.710938,9.8906248 H 2.3007817 c -0.15727,0 -0.256111,0.1309902 -0.402344,0.1660152 v 14.468751 c 0,3.08865 2.4875211,5.576172 5.576172,5.576172 H 24.527343 c 3.088651,0 5.574219,-2.487522 5.574219,-5.576172 z"
     id="path4542"
     inkscape:connector-curvature="0" />
  <path
     style="opacity:1;fill:#a2c4fe;fill-opacity:1;fill-rule:evenodd;stroke:none;stroke-width:1.03534329;stroke-linecap:round;stroke-linejoin:bevel;stroke-miterlimit:4;stroke-dasharray:none;stroke-dashoffset:0;stroke-opacity:1"
     d="m 7.4746097,1.8984373 c -3.088651,0 -5.576172,2.4855679 -5.576172,5.5742187 v 2.583984 c 0.1462331,-0.03502 0.245074,-0.1660152 0.402344,-0.1660152 H 12.710938 c 0.536954,0 1.023882,0.1063484 1.46289,0.3164062 0.439009,0.210058 0.829214,0.524437 1.169922,0.939453 l 2.064453,2.513672 12.630859,-0.0078 c 0.02442,-1.5e-5 0.03826,0.02469 0.0625,0.02539 V 7.472656 c 0,-3.0886508 -2.485568,-5.5742187 -5.574219,-5.5742187 z"
     id="rect4497"
     inkscape:connector-curvature="0" />
  <g
     id="g4496"
     transform="matrix(0,2.0847458,-2.0847458,0,54.726803,-18.203966)"
     style="stroke-width:0.47967479">
    <path
       id="path18"
       style="fill:#ffffff;stroke-width:0.29979676"
       d="m 16.40678,15.451271 a 3.125,3.125 0 0 0 -3.125,3.125 3.125,3.125 0 0 0 3.125,3.125 3.125,3.125 0 0 0 3.125,-3.125 3.125,3.125 0 0 0 -3.125,-3.125 z m 0,0.625 a 2.5,2.5 0 0 1 2.5,2.5 2.5,2.5 0 0 1 -2.5,2.5 2.5,2.5 0 0 1 -2.5,-2.5 2.5,2.5 0 0 1 2.5,-2.5 z"
       inkscape:connector-curvature="0" />
    <path
       id="path20"
       style="fill:#ffffff;stroke-width:0.29979676"
       d="m 18.28178,15.763771 -1.25,0.78125 -1.25,0.78125 v -3.125 l 1.25,0.78125 z"
       inkscape:connector-curvature="0" />
    <path
       id="path22"
       style="fill:#ffffff;stroke-width:0.29979676"
       d="m 14.53178,21.388771 1.25,0.78125 1.25,0.78125 v -3.125 l -1.25,0.78125 z"
       inkscape:connector-curvature="0" />
  </g>
</svg>
