<?xml version="1.0" encoding="UTF-8" standalone="no"?>
<svg
   xmlns:dc="http://purl.org/dc/elements/1.1/"
   xmlns:cc="http://creativecommons.org/ns#"
   xmlns:rdf="http://www.w3.org/1999/02/22-rdf-syntax-ns#"
   xmlns:svg="http://www.w3.org/2000/svg"
   xmlns="http://www.w3.org/2000/svg"
   xmlns:sodipodi="http://sodipodi.sourceforge.net/DTD/sodipodi-0.dtd"
   xmlns:inkscape="http://www.inkscape.org/namespaces/inkscape"
   height="32"
   width="32"
   version="1"
   id="svg12"
   sodipodi:docname="knetattach.svg"
   inkscape:version="0.92.1 r">
  <metadata
     id="metadata18">
    <rdf:RDF>
      <cc:Work
         rdf:about="">
        <dc:format>image/svg+xml</dc:format>
        <dc:type
           rdf:resource="http://purl.org/dc/dcmitype/StillImage" />
        <dc:title />
      </cc:Work>
    </rdf:RDF>
  </metadata>
  <defs
     id="defs16" />
  <sodipodi:namedview
     pagecolor="#ffffff"
     bordercolor="#666666"
     borderopacity="1"
     objecttolerance="10"
     gridtolerance="10"
     guidetolerance="10"
     inkscape:pageopacity="0"
     inkscape:pageshadow="2"
     inkscape:window-width="1680"
     inkscape:window-height="965"
     id="namedview14"
     showgrid="false"
     inkscape:zoom="10.429825"
     inkscape:cx="8.5106239"
     inkscape:cy="1.3250572"
     inkscape:window-x="0"
     inkscape:window-y="0"
     inkscape:window-maximized="1"
     inkscape:current-layer="svg12" />
  <rect
     style="opacity:1;fill:#0066c4;fill-opacity:1;fill-rule:evenodd;stroke:none;stroke-width:1.03534329;stroke-linecap:round;stroke-linejoin:bevel;stroke-miterlimit:4;stroke-dasharray:none;stroke-dashoffset:0;stroke-opacity:1"
     id="rect4497-3"
     width="28"
     height="29.397137"
     x="2"
     y="1.3014317"
     ry="5.8111596" />
  <path
     style="fill:#52a8ea;fill-opacity:1;stroke-width:0.0153048"
     d="m 14.426096,26.643629 c -3.205985,-1.749903 -0.998972,-1.916031 -2.257449,-2.65109 l -0.177927,-0.374567 0.179813,-0.569194 0.179812,-0.5692 0.36284,-0.189634 0.362841,-0.189619 v -0.572307 -0.57229 l 0.366407,-0.192546 0.366406,-0.192553 v -0.38448 -0.384488 l 0.361586,-0.190198 0.361585,-0.190187 0.181036,-0.572876 0.181038,-0.572876 -0.181038,-0.383096 -0.181036,-0.383097 -0.376048,-0.198682 c -0.367933,-0.194393 -0.379776,-0.20265 -0.5492,-0.382566 l -0.173159,-0.183882 h -0.178689 -0.178685 l -0.181348,-0.379629 -0.18135,-0.379624 -0.358848,-0.18728 -0.358848,-0.187288 h -0.370546 -0.37073 l -0.17731,0.185385 -0.177309,0.185377 -0.179574,-0.377725 -0.179577,-0.377726 H 10.173763 9.8067337 l -0.182442,0.192348 -0.18244,0.192341 H 9.0798857 8.7179217 V 15.412577 15.214773 L 8.5347175,15.023227 8.3515145,14.831685 V 14.643996 14.456317 H 8.172731 7.9939474 l -0.1727557,0.182226 c -0.095023,0.100202 -0.1774691,0.182212 -0.1832309,0.182212 -0.00574,0 -0.088191,-0.164012 -0.1831904,-0.364471 L 7.2820511,14.091803 7.4644589,13.899491 7.6468695,13.707187 h 0.5260757 0.5260755 l 0.369241,0.194041 0.36924,0.194029 0.371427,-0.389573 0.3714283,-0.389574 0.177539,-0.751001 0.17754,-0.750995 0.368654,-0.389751 0.368657,-0.389751 h 0.535329 0.535331 v -0.374561 c 0,-0.206012 0.0022,-0.374569 0.0052,-0.374569 0.0028,0 0.249122,0.08548 0.547248,0.189967 L 13.437896,10.6654 13.801654,10.283099 14.16541,9.9007976 H 13.987319 13.809217 L 13.617868,9.5009236 C 13.430876,9.1101616 13.42259,9.0969786 13.254259,8.9222716 l -0.172253,-0.178778 -0.369102,0.193961 -0.369102,0.193962 H 11.61534 10.886915 l -0.179576,0.377728 -0.179574,0.377725 -0.17731,-0.185379 -0.177308,-0.185383 H 9.9951277 9.8171087 v -0.379858 -0.37985 l 0.5349063,-0.18693 0.534906,-0.1869221 0.174162,0.1820881 c 0.09578,0.100161 0.187197,0.182098 0.203128,0.182098 0.01593,0 0.262911,-0.082 0.548844,-0.182219 l 0.519879,-0.1822205 h 0.371627 c 0.204395,0 0.371629,-0.0049 0.371629,-0.010359 0,-0.0056 -0.07885,-0.1765172 -0.175238,-0.379629 C 12.729817,7.6316398 12.721356,7.6183719 12.539728,7.4255925 L 12.353744,7.228181 h -0.367149 -0.367148 l -0.178086,0.1877496 c -0.174688,0.1841717 -0.185078,0.1914132 -0.544437,0.379216 L 10.530576,7.9866102 10.342583,7.7913866 C 10.161206,7.603028 10.142704,7.5898567 9.8171067,7.4174397 L 9.4796297,7.2387359 9.2964267,7.2283769 9.1132237,7.2180179 9.2867847,7.0972656 c 1.4119493,-0.9824165 3.0159103,-1.567589 4.7536283,-1.7342737 0.345056,-0.033066 1.288781,-0.033557 1.639184,-6.158e-4 1.787888,0.1670911 3.40637,0.7538766 4.821124,1.7479125 l 0.183203,0.1287174 0.0052,0.5665961 0.0052,0.5665905 0.178068,0.188986 c 0.174573,0.185279 0.185223,0.19276 0.542549,0.381303 l 0.364485,0.19231 -0.180898,0.19073 -0.180901,0.190715 H 21.050468 20.6833 l -0.178001,0.187664 -0.178,0.187656 v 0.3737864 0.373786 l -0.178807,-0.186813 -0.178743,-0.18688 h -0.36645 -0.366447 l -0.182393,0.384689 -0.182392,0.384684 0.182392,0.384692 0.182393,0.38469 h 0.367213 0.367211 l 0.173159,-0.183889 c 0.169255,-0.179744 0.181638,-0.188377 0.549205,-0.383025 0.367665,-0.194695 0.379915,-0.203238 0.549408,-0.383232 l 0.173357,-0.184099 0.17756,0.369716 0.177559,0.369711 0.0011,0.191991 0.0011,0.191971 0.186241,0.196276 0.186242,0.196272 0.366389,-0.192533 0.36639,-0.192539 -0.359885,-0.378237 -0.359884,-0.378232 0.178754,-0.186894 0.178757,-0.186899 0.361308,0.379735 0.361308,0.379727 v 0.187089 0.187091 h 0.178763 0.17876 l 0.182437,0.192342 0.182446,0.192348 h 0.206299 0.206308 l 0.04215,0.116413 c 0.07575,0.209214 0.153791,0.456189 0.222293,0.703577 0.03701,0.133631 0.07195,0.258903 0.07765,0.278391 0.0095,0.03288 -0.01648,0.03547 -0.367159,0.03547 h -0.377596 l -0.366217,-0.192449 -0.366207,-0.192442 -0.371227,0.194207 c -0.361012,0.188869 -0.376134,0.199307 -0.549577,0.379296 l -0.178349,0.185083 -0.346989,-0.181252 c -0.341503,-0.17839 -0.349957,-0.184376 -0.534813,-0.379191 L 21.070427,12.937792 H 20.515444 19.96046 l -0.366021,0.192348 -0.366019,0.192342 h -0.362157 -0.362159 l -0.178001,0.187655 -0.178,0.18767 v 0.577045 0.577057 l -0.183203,0.191542 -0.183203,0.191547 v 0.567305 0.567297 l 0.183296,0.577344 0.183298,0.577342 0.356803,0.18698 0.356804,0.186978 h 0.376107 0.376107 l 0.366018,-0.192341 0.366021,-0.19235 h 0.347506 0.347506 l 0.366213,0.192453 0.366212,0.192442 v 0.374665 0.374667 l 0.184813,0.387664 0.184814,0.387657 -0.363051,0.381562 -0.363052,0.381564 0.361442,0.759277 0.36144,0.75927 v 0.37926 0.379247 l 0.225826,0.23771 0.225826,0.23772 -0.04849,0.05616 c -0.454774,0.526739 -0.757707,0.836981 -1.160602,1.188605 -1.552197,1.354685 -3.426543,2.186254 -5.432882,2.410324 -0.255502,0.0285 -1.022648,0.07417 -1.137787,0.06764 -0.02653,-0.0013 -0.200074,-0.0095 -0.385687,-0.01785 z m -1.523348,-14.647436 0.182569,-0.192478 -0.192462,-0.197268 -0.192464,-0.19728 0.182816,0.197539 0.182818,0.197539 -0.177998,0.186886 -0.178001,0.186881 -0.18815,-0.192077 -0.188149,-0.192078 0.182821,0.197409 c 0.100552,0.108573 0.187505,0.19741 0.193227,0.19741 0.0056,0 0.09256,-0.08662 0.192973,-0.192483 z m 0.728986,-0.380658 0.178743,-0.188444 -0.0063,-0.201307 -0.0063,-0.201295 -0.0042,0.202882 -0.0042,0.202891 -0.173573,0.181389 -0.17357,0.181386 -0.18319,-0.191534 -0.183194,-0.191529 -0.0042,-0.192747 -0.0042,-0.192738 -0.0063,0.19116 -0.0063,0.191167 0.188435,0.198584 c 0.103632,0.109218 0.193107,0.198586 0.198819,0.198586 0.0056,0 0.09081,-0.08482 0.18913,-0.188451 z m 5.075648,-1.9072274 0.18257,-0.192478 -0.192464,-0.197273 -0.192463,-0.197268 0.182818,0.197538 0.182819,0.197539 -0.177991,0.186869 -0.17799,0.186875 -0.173696,-0.181523 -0.173697,-0.181518 -0.0042,-0.202892 -0.0042,-0.202888 -0.0063,0.201301 -0.0063,0.201308 0.178746,0.188449 c 0.09831,0.103646 0.183426,0.188445 0.189147,0.188445 0.0056,0 0.09256,-0.08662 0.192974,-0.192484 z m 0.935169,0.071 c 0.01646,-0.03337 0.02559,-0.0607 0.02027,-0.0607 -0.0053,0 -0.02311,0.02732 -0.03955,0.0607 -0.01646,0.03344 -0.02557,0.0607 -0.02027,0.0607 0.0053,0 0.02311,-0.02732 0.03955,-0.0607 z m 0.115713,-0.222717 c 0.01646,-0.03344 0.02557,-0.06071 0.02027,-0.06071 -0.0053,0 -0.02311,0.02733 -0.03955,0.06071 -0.01646,0.03337 -0.02558,0.0607 -0.02027,0.0607 0.0053,0 0.02311,-0.02733 0.03955,-0.0607 z m -0.684724,-0.232968 -0.182566,-0.192477 0.175067,-0.183801 0.17507,-0.183807 0.349977,0.18394 c 0.192485,0.101155 0.356576,0.183447 0.364641,0.182862 0.008,-6.05e-4 -0.149426,-0.08793 -0.349983,-0.194066 l -0.364648,-0.192982 -0.184709,0.193924 -0.184703,0.193925 0.182567,0.192482 c 0.100412,0.105858 0.18691,0.192477 0.192211,0.192477 0.0053,0 -0.0725,-0.08662 -0.172924,-0.192477 z m 0.790792,0.03047 c 0.02166,-0.04452 0.03501,-0.08098 0.02972,-0.08098 -0.0053,0 -0.02734,0.0364 -0.049,0.08098 -0.02165,0.04452 -0.03501,0.08098 -0.02972,0.08098 0.0053,0 0.02735,-0.03645 0.04898,-0.08098 z m 0.0927,-0.192877 c -0.006,-0.0063 -0.01672,0.005 -0.02397,0.025 -0.0105,0.02888 -0.0081,0.03116 0.01078,0.01134 0.01316,-0.01372 0.01911,-0.03004 0.01316,-0.03627 z"
     id="path4635-6-3-3"
     inkscape:connector-curvature="0"
     sodipodi:nodetypes="ccccccccccccccccccccsccccccccccccccccccccccccccccsccccccccccccccccssccccccccccccccccccccccccsccssccccccccccccccccccccccccccccccccccccccccccccccccccccccccccccccccccccccscccccccccccccccccccccccccccccccccccccccccccccccccccccsccccccccccsscccccccccccccccscccccccccccccccccscccscsccscsccccccccccccsccscsccccccc" />
  <path
     style="opacity:1;fill:none;fill-opacity:1;fill-rule:evenodd;stroke:#52a8ea;stroke-width:0.85600001;stroke-linecap:round;stroke-linejoin:bevel;stroke-miterlimit:4;stroke-dasharray:none;stroke-dashoffset:0;stroke-opacity:1"
     id="path4565"
     sodipodi:type="arc"
     sodipodi:cx="-21.856251"
     sodipodi:cy="-5.855525"
     sodipodi:rx="10.555028"
     sodipodi:ry="10.555532"
     sodipodi:start="5.3462208"
     sodipodi:end="4.3961054"
     d="m -15.605176,-14.360794 a 10.555028,10.555532 0 0 1 3.485879,12.5798153 10.555028,10.555532 0 0 1 -11.405787,6.348217 10.555028,10.555532 0 0 1 -8.853479,-9.5923243 10.555028,10.555532 0 0 1 7.239312,-10.862395"
     sodipodi:open="true"
     transform="matrix(-0.86600468,-0.50003589,0.49996409,-0.86604613,0,0)" />
  <path
     style="fill:#ffffff;stroke-width:1"
     d="m 14.53201,11.178152 -2.868096,0.455795 v 10.892104 l 2.868096,-0.808676 v -4.208044 l 2.868096,4.960846 2.868094,-1.129203 -3.585119,-4.516809 3.586521,-4.891744 -2.782669,-0.754269 -2.954923,4.937318 z m -5.839824,2.953864 c -0.06782,0 -0.135647,0.02773 -0.18766,0.08234 L 7.377175,15.39796 c -0.104024,0.109204 -0.07898,0.265218 0,0.395515 l 1.166565,1.923174 c -0.08643,0.188366 -0.161277,0.382355 -0.22407,0.580774 -0.0028,0.0085 -0.0071,0.01644 -0.0098,0.025 l -2.1160619,0.494026 c -0.1435966,0.0335 -0.2660818,0.124937 -0.2660818,0.27936 v 0.739571 0.739567 c 0,0.154437 0.122488,0.245858 0.2660818,0.279362 L 8.30987,21.348334 c 0.0046,0.01464 0.0119,0.0281 0.01678,0.04264 0.06113,0.19275 0.133617,0.381315 0.217068,0.564602 l -1.166562,1.921707 c -0.07898,0.130299 -0.104024,0.286307 0,0.395513 l 1.127352,1.183606 c 0.104024,0.109203 0.271298,0.109203 0.375316,0 l 1.828972,-1.223305 c 0.1798,0.0918 0.365039,0.171366 0.554573,0.238191 0.01232,0.0046 0.02392,0.01176 0.03641,0.01625 l 0.469146,2.220176 c 0,0.154437 0.118988,0.279361 0.266085,0.279361 h 1.592295 c 0.147098,0 0.234174,-0.128591 0.266083,-0.279361 l 0.469147,-2.287812 c 0.215541,-0.08507 0.424778,-0.186806 0.625996,-0.304356 l 1.785557,1.340928 c 0.104023,0.109204 0.271303,0.109204 0.375317,0 l 1.127352,-1.183603 c 0.104024,-0.109203 0.07899,-0.265218 0,-0.395517 l -0.679211,-1.082152 -0.07142,0.02793 c -0.161509,0.06369 -0.343329,-0.0024 -0.432736,-0.15733 l -0.714221,-1.235066 c -0.595086,1.494458 -2.00045,2.545117 -3.639737,2.545117 -2.178007,0 -3.943632,-1.853724 -3.943632,-4.140409 0,-1.754722 1.041691,-3.250863 2.509584,-3.8537 v -0.824847 l -0.0056,0.02647 c -0.01589,0.0056 -0.03043,0.01482 -0.04622,0.02059 -0.187018,0.06521 -0.36991,0.142793 -0.547572,0.232308 L 8.879824,14.214442 c -0.05202,-0.05459 -0.119829,-0.08233 -0.187659,-0.08233 z"
     id="path10"
     inkscape:connector-curvature="0" />
</svg>
