<?xml version="1.0" encoding="UTF-8" standalone="no"?>
<svg
   xmlns:dc="http://purl.org/dc/elements/1.1/"
   xmlns:cc="http://creativecommons.org/ns#"
   xmlns:rdf="http://www.w3.org/1999/02/22-rdf-syntax-ns#"
   xmlns:svg="http://www.w3.org/2000/svg"
   xmlns="http://www.w3.org/2000/svg"
   xmlns:sodipodi="http://sodipodi.sourceforge.net/DTD/sodipodi-0.dtd"
   xmlns:inkscape="http://www.inkscape.org/namespaces/inkscape"
   height="32"
   width="32"
   version="1"
   id="svg16"
   sodipodi:docname="kolourpaint.svg"
   inkscape:version="0.92.2 2405546, 2018-03-11">
  <metadata
     id="metadata22">
    <rdf:RDF>
      <cc:Work
         rdf:about="">
        <dc:format>image/svg+xml</dc:format>
        <dc:type
           rdf:resource="http://purl.org/dc/dcmitype/StillImage" />
      </cc:Work>
    </rdf:RDF>
  </metadata>
  <defs
     id="defs20" />
  <sodipodi:namedview
     pagecolor="#ffffff"
     bordercolor="#666666"
     borderopacity="1"
     objecttolerance="10"
     gridtolerance="10"
     guidetolerance="10"
     inkscape:pageopacity="0"
     inkscape:pageshadow="2"
     inkscape:window-width="1680"
     inkscape:window-height="972"
     id="namedview18"
     showgrid="false"
     inkscape:zoom="17.625"
     inkscape:cx="24.832513"
     inkscape:cy="15.02269"
     inkscape:current-layer="svg16"
     inkscape:window-x="1280"
     inkscape:window-y="0"
     inkscape:window-maximized="1" />
  <rect
     style="opacity:1;fill:#00a4ef;fill-opacity:1;fill-rule:evenodd;stroke:none;stroke-width:1.03534329;stroke-linecap:round;stroke-linejoin:bevel;stroke-miterlimit:4;stroke-dasharray:none;stroke-dashoffset:0;stroke-opacity:1"
     id="rect4497-3-3"
     width="28.203388"
     height="28.203388"
     x="1.8983059"
     y="1.8983059"
     ry="5.575182" />
  <g
     id="g930"
     transform="matrix(0.62694921,0,0,0.62694921,6.9346371,7.2162672)">
    <path
       id="path830"
       d="M 11.378906,0.65625 C -3.6460153,6.7995113 -2.5329015,18.848836 2.9051236,25.520221 8.9798324,32.972692 23.205664,33.454352 29.144531,21.634766 33.421989,12.01855 26.344657,7.6712282 20.205078,9 18.739399,9.0084 17.534664,8.5826387 17.798828,6.4335938 18.269097,1.6706951 15.462869,-0.38575713 11.378906,0.65625 Z m 0.478516,3.8261719 c 0.07372,2.276e-4 0.147376,0.00414 0.220703,0.011719 0.07343,0.00741 0.146433,0.018495 0.21875,0.033203 0.07248,0.014628 0.144188,0.03288 0.214844,0.054687 0.07086,0.021231 0.140607,0.046002 0.208984,0.074219 0.068,0.0292 0.134487,0.061793 0.199219,0.097656 0.06437,0.035278 0.12695,0.073737 0.1875,0.1152344 0.06076,0.041325 0.119429,0.08565 0.175781,0.1328125 0.05656,0.048031 0.110661,0.098877 0.162109,0.1523438 0.05157,0.052859 0.100457,0.1082674 0.146485,0.1660156 0.04594,0.05771 0.08896,0.1176808 0.128906,0.1796878 0.03962,0.061945 0.07612,0.1258265 0.109375,0.1914062 0.03327,0.065524 0.06325,0.1326644 0.08984,0.2011719 0.02696,0.06909 0.05042,0.1394912 0.07031,0.2109375 0.01983,0.070759 0.03613,0.1424628 0.04883,0.2148438 0.01215,0.073096 0.02063,0.1467567 0.02539,0.2207031 0.0038,0.051998 0.0058,0.1041134 0.0059,0.15625 4.1e-4,0.073685 -0.0029,0.1473445 -0.0098,0.2207031 -0.0074,0.073425 -0.01849,0.1464326 -0.0332,0.21875 -0.01463,0.072483 -0.03288,0.144188 -0.05469,0.2148438 -0.02193,0.070234 -0.04735,0.1393301 -0.07617,0.2070312 -0.02856,0.067959 -0.0605,0.1344481 -0.0957,0.1992188 -0.03586,0.065078 -0.07497,0.1283096 -0.117187,0.1894531 -0.04132,0.060763 -0.08565,0.1194292 -0.132813,0.1757813 -0.0474,0.056509 -0.09759,0.110613 -0.15039,0.1621093 -0.05291,0.050901 -0.108314,0.099138 -0.166016,0.1445313 -0.05771,0.045937 -0.11768,0.088959 -0.179687,0.1289062 -0.06254,0.040337 -0.127076,0.077494 -0.19336,0.1113282 -0.06552,0.03327 -0.132664,0.063255 -0.201172,0.089844 -0.06909,0.026957 -0.139491,0.050424 -0.210937,0.070312 -0.07079,0.019176 -0.142497,0.03482 -0.214844,0.046875 -0.07242,0.012744 -0.145424,0.02187 -0.21875,0.027344 -0.05265,0.00384 -0.105416,0.00579 -0.158203,0.00586 -0.07372,-2.276e-4 -0.147376,-0.00414 -0.220703,-0.011719 -0.07343,-0.00741 -0.146433,-0.018494 -0.21875,-0.033203 -0.07183,-0.014691 -0.142877,-0.032942 -0.212891,-0.054687 -0.07089,-0.021871 -0.140644,-0.047294 -0.208984,-0.076172 -0.06796,-0.028563 -0.134448,-0.060503 -0.199219,-0.095703 -0.06437,-0.035278 -0.12695,-0.073737 -0.1875,-0.1152344 -0.06081,-0.041959 -0.119479,-0.086938 -0.175788,-0.1347666 -0.05651,-0.047397 -0.110613,-0.09759 -0.16211,-0.1503907 C 10.219916,8.1834685 10.171027,8.1280607 10.125,8.0703125 10.079063,8.0126026 10.036041,7.9526319 9.9960938,7.890625 9.9564779,7.8286798 9.9199743,7.7647985 9.8867188,7.6992188 9.8527268,7.6330956 9.8220889,7.5653013 9.7949219,7.4960938 9.7686863,7.4276082 9.7458716,7.3578607 9.7265625,7.2871094 9.7066656,7.2157072 9.6903691,7.1433503 9.6777344,7.0703125 c -0.012744,-0.072417 -0.02187,-0.1454243 -0.027344,-0.21875 -0.00379,-0.051998 -0.00575,-0.1041139 -0.00586,-0.15625 2.276e-4,-0.073717 0.00414,-0.1473765 0.011719,-0.2207031 0.00741,-0.073425 0.018494,-0.1464326 0.033203,-0.21875 0.014628,-0.072483 0.03288,-0.1441879 0.054687,-0.2148438 0.021933,-0.070234 0.047355,-0.1393302 0.076172,-0.2070312 0.028563,-0.067959 0.060504,-0.1344481 0.095703,-0.1992188 0.035221,-0.065037 0.073681,-0.1282676 0.1152346,-0.1894531 0.04196,-0.060807 0.08694,-0.119474 0.134766,-0.1757813 0.0474,-0.056509 0.09759,-0.110613 0.15039,-0.1621093 0.05286,-0.051568 0.108268,-0.1004571 0.166016,-0.1464844 0.05775,-0.045271 0.117723,-0.087641 0.179687,-0.1269531 0.0619,-0.040281 0.125787,-0.077436 0.191407,-0.1113282 0.06616,-0.033329 0.133955,-0.063315 0.203125,-0.089844 0.06845,-0.026896 0.138197,-0.050362 0.208984,-0.070312 0.0714,-0.019897 0.143759,-0.036193 0.216797,-0.048828 0.07245,-0.012089 0.145457,-0.020563 0.21875,-0.025391 0.052,-0.00379 0.104114,-0.00575 0.15625,-0.00586 z"
       style="fill:#ecf0f1;fill-opacity:1;stroke:none;stroke-width:0.1;stroke-linecap:butt;stroke-linejoin:miter;stroke-miterlimit:4;stroke-dasharray:none;stroke-opacity:1"
       inkscape:connector-curvature="0"
       sodipodi:nodetypes="cscccccccccccccccccccccccccccccccccccccccccccccccccccccccccccccccccccccc" />
    <circle
       r="2.9503546"
       cy="21.787237"
       cx="7.1773062"
       id="path832-3"
       style="opacity:1;fill:#00af67;fill-opacity:1;stroke:none;stroke-width:0.13333334;stroke-miterlimit:4;stroke-dasharray:none;stroke-opacity:1" />
    <circle
       r="2.9503546"
       cy="24.765959"
       cx="14.439715"
       id="path832-3-6"
       style="opacity:1;fill:#1380b6;fill-opacity:1;stroke:none;stroke-width:0.13333334;stroke-miterlimit:4;stroke-dasharray:none;stroke-opacity:1" />
    <circle
       r="2.9503546"
       cy="22.269636"
       cx="21.303455"
       id="path832-3-7"
       style="opacity:1;fill:#f89b36;fill-opacity:1;stroke:none;stroke-width:0.13333334;stroke-miterlimit:4;stroke-dasharray:none;stroke-opacity:1" />
    <circle
       r="2.9503546"
       cy="15.716312"
       cx="25.333334"
       id="path832-3-5"
       style="opacity:1;fill:#c6362b;fill-opacity:1;stroke:none;stroke-width:0.13333334;stroke-miterlimit:4;stroke-dasharray:none;stroke-opacity:1" />
    <circle
       r="1.3617021"
       cy="21.219858"
       cx="6.978724"
       id="path832-3-3"
       style="opacity:1;fill:#00ca77;fill-opacity:1;stroke:none;stroke-width:0.06153846;stroke-miterlimit:4;stroke-dasharray:none;stroke-opacity:1" />
    <circle
       r="1.3617021"
       cy="24.283688"
       cx="14.014184"
       id="path832-3-3-5"
       style="opacity:1;fill:#1c99d8;fill-opacity:1;stroke:none;stroke-width:0.06153846;stroke-miterlimit:4;stroke-dasharray:none;stroke-opacity:1" />
    <circle
       r="1.3617021"
       cy="21.957445"
       cx="20.652483"
       id="path832-3-3-6"
       style="opacity:1;fill:#f4c342;fill-opacity:1;stroke:none;stroke-width:0.06153846;stroke-miterlimit:4;stroke-dasharray:none;stroke-opacity:1" />
    <circle
       r="1.3617021"
       cy="15.319149"
       cx="24.680851"
       id="path832-3-3-2"
       style="opacity:1;fill:#ee483c;fill-opacity:1;stroke:none;stroke-width:0.06153846;stroke-miterlimit:4;stroke-dasharray:none;stroke-opacity:1" />
  </g>
  <g
     id="g832"
     transform="matrix(1.1569867,0,0,1.1569867,-2.7718895,-1.7210603)">
    <path
       sodipodi:nodetypes="cccc"
       inkscape:connector-curvature="0"
       id="path823"
       d="m 17.823832,14.017786 0.930787,0.55001 c 1.684572,2.772847 -2.863311,4.81901 -4.230847,2.961593 2.36829,0.276918 -0.02685,-3.199286 3.30006,-3.511603 z"
       style="fill:#94a5a6;fill-opacity:1;stroke:none;stroke-width:0.05272802;stroke-linecap:butt;stroke-linejoin:miter;stroke-miterlimit:4;stroke-dasharray:none;stroke-opacity:1" />
    <path
       inkscape:connector-curvature="0"
       id="path825"
       d="m 17.823832,14.017786 0.676936,-1.142329 0.867323,0.486548 -0.613472,1.205791 z"
       style="fill:#f89b36;fill-opacity:1;stroke:none;stroke-width:0.05272802;stroke-linecap:butt;stroke-linejoin:miter;stroke-miterlimit:4;stroke-dasharray:none;stroke-opacity:1" />
    <path
       sodipodi:nodetypes="cccc"
       inkscape:connector-curvature="0"
       id="path827"
       d="M 18.500768,12.875457 C 20.05095,9.8777619 21.335792,5.0226884 23.345088,5.2387781 24.793416,6.9929603 21.204541,10.47868 19.368091,13.362005 Z"
       style="fill:#32495d;fill-opacity:1;stroke:none;stroke-width:0.05230271;stroke-linecap:butt;stroke-linejoin:miter;stroke-miterlimit:4;stroke-dasharray:none;stroke-opacity:1" />
  </g>
</svg>
