<?xml version="1.0" encoding="UTF-8" standalone="no"?>
<svg
   xmlns:dc="http://purl.org/dc/elements/1.1/"
   xmlns:cc="http://creativecommons.org/ns#"
   xmlns:rdf="http://www.w3.org/1999/02/22-rdf-syntax-ns#"
   xmlns:svg="http://www.w3.org/2000/svg"
   xmlns="http://www.w3.org/2000/svg"
   xmlns:sodipodi="http://sodipodi.sourceforge.net/DTD/sodipodi-0.dtd"
   xmlns:inkscape="http://www.inkscape.org/namespaces/inkscape"
   height="32"
   width="32"
   version="1"
   id="svg12"
   sodipodi:docname="kplayer.svg"
   inkscape:version="0.92.2 2405546, 2018-03-11">
  <metadata
     id="metadata18">
    <rdf:RDF>
      <cc:Work
         rdf:about="">
        <dc:format>image/svg+xml</dc:format>
        <dc:type
           rdf:resource="http://purl.org/dc/dcmitype/StillImage" />
        <dc:title></dc:title>
      </cc:Work>
    </rdf:RDF>
  </metadata>
  <defs
     id="defs16" />
  <sodipodi:namedview
     pagecolor="#ffffff"
     bordercolor="#666666"
     borderopacity="1"
     objecttolerance="10"
     gridtolerance="10"
     guidetolerance="10"
     inkscape:pageopacity="0"
     inkscape:pageshadow="2"
     inkscape:window-width="1680"
     inkscape:window-height="972"
     id="namedview14"
     showgrid="false"
     inkscape:zoom="7.375"
     inkscape:cx="-27.389831"
     inkscape:cy="7.8644068"
     inkscape:window-x="1360"
     inkscape:window-y="0"
     inkscape:window-maximized="1"
     inkscape:current-layer="svg12" />
  <g
     id="g857"
     transform="translate(67.118645,2.9830509)">
    <path
       id="path4519"
       d="m -37.017082,18.983746 h -28.203125 v 2.560547 c 0,3.08865 2.487521,5.574218 5.576172,5.574218 h 17.052734 c 3.088651,0 5.574219,-2.485568 5.574219,-5.574218 z"
       style="opacity:1;fill:#cccccc;fill-opacity:1;fill-rule:evenodd;stroke:none;stroke-width:1.03534329;stroke-linecap:round;stroke-linejoin:bevel;stroke-miterlimit:4;stroke-dasharray:none;stroke-dashoffset:0;stroke-opacity:1"
       inkscape:connector-curvature="0" />
    <path
       id="rect4497-3-3"
       d="m -59.644035,-1.0846128 c -3.088651,0 -5.576172,2.4875207 -5.576172,5.5761717 V 18.983746 h 28.203125 V 4.4915589 c 0,-3.088651 -2.485568,-5.5761717 -5.574219,-5.5761717 z"
       style="opacity:1;fill:#239a69;fill-opacity:1;fill-rule:evenodd;stroke:none;stroke-width:1.03534329;stroke-linecap:round;stroke-linejoin:bevel;stroke-miterlimit:4;stroke-dasharray:none;stroke-dashoffset:0;stroke-opacity:1"
       inkscape:connector-curvature="0" />
    <path
       inkscape:connector-curvature="0"
       id="path20-3"
       style="fill:#ffffff"
       d="m -54.33667,5.2364809 c -0.24524,-1.3e-4 -0.44409,0.1991 -0.44396,0.44482 V 14.7911 c -8e-5,0.33795 0.36131,0.55243 0.65706,0.38996 l 8.3346,-4.5549 c 0.30749,-0.16869 0.30749,-0.61122 0,-0.7799098 l -7.502,-4.0991993 -0.833,-0.4552 c -0.0653,-0.0359 -0.13859,-0.0548 -0.2131,-0.0548 z" />
    <rect
       style="fill:#999999"
       id="rect8-6"
       x="-47.118645"
       y="21.795593"
       width="8"
       height="2"
       ry="1" />
    <rect
       style="opacity:0.98999999;fill:#239a69;fill-opacity:1"
       id="rect10-7"
       x="-63.118641"
       y="21.795593"
       width="16"
       height="2"
       ry="1" />
    <circle
       id="circle14-5"
       r="2"
       cy="22.796597"
       cx="-47.118645"
       style="fill:#ffffff" />
  </g>
</svg>
