<?xml version="1.0" encoding="UTF-8" standalone="no"?>
<svg
   xmlns:dc="http://purl.org/dc/elements/1.1/"
   xmlns:cc="http://creativecommons.org/ns#"
   xmlns:rdf="http://www.w3.org/1999/02/22-rdf-syntax-ns#"
   xmlns:svg="http://www.w3.org/2000/svg"
   xmlns="http://www.w3.org/2000/svg"
   xmlns:sodipodi="http://sodipodi.sourceforge.net/DTD/sodipodi-0.dtd"
   xmlns:inkscape="http://www.inkscape.org/namespaces/inkscape"
   height="32"
   width="32"
   version="1"
   id="svg30"
   sodipodi:docname="krename.svg"
   inkscape:version="0.92.1 r">
  <metadata
     id="metadata36">
    <rdf:RDF>
      <cc:Work
         rdf:about="">
        <dc:format>image/svg+xml</dc:format>
        <dc:type
           rdf:resource="http://purl.org/dc/dcmitype/StillImage" />
      </cc:Work>
    </rdf:RDF>
  </metadata>
  <defs
     id="defs34" />
  <sodipodi:namedview
     pagecolor="#ffffff"
     bordercolor="#666666"
     borderopacity="1"
     objecttolerance="10"
     gridtolerance="10"
     guidetolerance="10"
     inkscape:pageopacity="0"
     inkscape:pageshadow="2"
     inkscape:window-width="640"
     inkscape:window-height="480"
     id="namedview32"
     showgrid="false"
     inkscape:zoom="6.2313785"
     inkscape:cx="-46.483676"
     inkscape:cy="38.611993"
     inkscape:current-layer="svg30" />
  <rect
     style="opacity:1;fill:#0286c2;fill-opacity:1;fill-rule:evenodd;stroke:none;stroke-width:1.03534329;stroke-linecap:round;stroke-linejoin:bevel;stroke-miterlimit:4;stroke-dasharray:none;stroke-dashoffset:0;stroke-opacity:1"
     id="rect4497-3-1"
     width="28.203388"
     height="28.203388"
     x="1.8983059"
     y="1.8983059"
     ry="5.575182" />
  <g
     id="g4611"
     transform="translate(53.673828,1.0214844)">
    <path
       id="path4568"
       d="m -34.626953,11.628906 v 3.142578 h 1.837891 c 0.629232,0 1.101399,-0.131973 1.416015,-0.394531 0.320033,-0.262558 0.480469,-0.658984 0.480469,-1.189453 0,-0.519749 -0.15804,-0.908816 -0.472656,-1.166016 -0.314616,-0.262604 -0.78918,-0.392578 -1.423828,-0.392578 z"
       style="opacity:1;fill:#2297fd;fill-opacity:1;fill-rule:evenodd;stroke:none;stroke-width:1.03534329;stroke-linecap:round;stroke-linejoin:bevel;stroke-miterlimit:4;stroke-dasharray:none;stroke-dashoffset:0;stroke-opacity:1"
       inkscape:connector-curvature="0" />
    <path
       id="path4566"
       d="m -34.626953,6.9824219 v 2.5390625 h 1.732422 c 0.493615,0 0.868087,-0.1059792 1.123047,-0.3203125 0.254951,-0.2143334 0.382812,-0.5312654 0.382812,-0.9492188 0,-0.4125899 -0.127861,-0.725106 -0.382812,-0.9394531 -0.254951,-0.2196913 -0.629423,-0.3300781 -1.123047,-0.3300781 z"
       style="opacity:1;fill:#2297fd;fill-opacity:1;fill-rule:evenodd;stroke:none;stroke-width:1.03534329;stroke-linecap:round;stroke-linejoin:bevel;stroke-miterlimit:4;stroke-dasharray:none;stroke-dashoffset:0;stroke-opacity:1"
       inkscape:connector-curvature="0" />
    <path
       id="path4564"
       d="M -37.759766,4.8769531 V 16.876953 h 5.199219 c 0.808246,0 1.513116,-0.0709 2.115235,-0.212891 0.602118,-0.141994 1.102054,-0.354681 1.498046,-0.638671 0.395993,-0.28399 0.692629,-0.642871 0.890625,-1.074219 0.197997,-0.431349 0.296875,-0.934965 0.296875,-1.513672 0,-0.755523 -0.183876,-1.394313 -0.552734,-1.914062 -0.368857,-0.519773 -0.889857,-0.875461 -1.5625,-1.06836 0.526169,-0.198243 0.926478,-0.5009629 1.203125,-0.908203 0.276647,-0.41259 0.416016,-0.9120371 0.416016,-1.4960938 0,-0.5545918 -0.0953,-1.0323327 -0.285157,-1.4355468 C -28.730874,6.2120202 -29.014814,5.884649 -29.394531,5.6328125 -29.77154,5.380976 -30.266697,5.1923245 -30.876953,5.0664062 -31.48721,4.940488 -32.213137,4.8769531 -33.056641,4.8769531 Z m 3.132813,2.1054688 h 1.732422 c 0.493624,0 0.868096,0.1103868 1.123047,0.3300781 0.254951,0.2143471 0.382812,0.5268632 0.382812,0.9394531 0,0.4179534 -0.127861,0.7348854 -0.382812,0.9492188 -0.25496,0.2143333 -0.629432,0.3203125 -1.123047,0.3203125 h -1.732422 z m 0,4.6464841 h 1.837891 c 0.634648,0 1.109212,0.129974 1.423828,0.392578 0.314616,0.2572 0.472656,0.646267 0.472656,1.166016 0,0.530469 -0.160436,0.926895 -0.480469,1.189453 -0.314616,0.262558 -0.786783,0.394531 -1.416015,0.394531 h -1.837891 z"
       style="opacity:1;fill:#ffffff;fill-opacity:1;fill-rule:evenodd;stroke:none;stroke-width:1.03534329;stroke-linecap:round;stroke-linejoin:bevel;stroke-miterlimit:4;stroke-dasharray:none;stroke-dashoffset:0;stroke-opacity:1"
       inkscape:connector-curvature="0" />
    <path
       id="path4576"
       d="m -31.759766,20.876953 v 7.5 c 0,0.275423 -0.162495,0.481752 -0.291015,0.703125 h 2.904297 c 3.08865,0 5.574218,-2.485568 5.574218,-5.574219 v -2.914062 c -0.218067,0.123335 -0.418113,0.285156 -0.6875,0.285156 z"
       style="opacity:1;fill:#0286c2;fill-opacity:1;fill-rule:evenodd;stroke:none;stroke-width:1.03534329;stroke-linecap:round;stroke-linejoin:bevel;stroke-miterlimit:4;stroke-dasharray:none;stroke-dashoffset:0;stroke-opacity:1"
       inkscape:connector-curvature="0" />
    <path
       id="path4582"
       d="m -43.693359,19.537109 -0.634766,1.927735 h 3.136719 l -0.19336,-0.587891 h -0.875 c -0.4155,0 -0.791375,-0.168328 -1.0625,-0.439453 -0.230151,-0.230151 -0.329601,-0.559538 -0.371093,-0.900391 z"
       style="opacity:1;fill:#f3443f;fill-opacity:1;fill-rule:evenodd;stroke:none;stroke-width:1.03534329;stroke-linecap:round;stroke-linejoin:bevel;stroke-miterlimit:4;stroke-dasharray:none;stroke-dashoffset:0;stroke-opacity:1"
       inkscape:connector-curvature="0" />
    <path
       id="path4580"
       d="m -43.759766,13.876953 h -0.759765 l -4.240235,12 h 2.966797 l 0.728516,-2.185547 h 4.617187 l 0.720704,2.185547 h 2.966796 l -1.767578,-5 h -2.857422 l 0.19336,0.587891 h -3.136719 l 0.634766,-1.927735 c -0.0074,-0.06068 -0.06641,-0.09736 -0.06641,-0.160156 z"
       style="opacity:1;fill:#ffffff;fill-opacity:1;fill-rule:evenodd;stroke:none;stroke-width:1.03534329;stroke-linecap:round;stroke-linejoin:bevel;stroke-miterlimit:4;stroke-dasharray:none;stroke-dashoffset:0;stroke-opacity:1"
       inkscape:connector-curvature="0" />
    <path
       id="path4574"
       d="m -51.259766,8.8769531 c -0.201718,0 -0.340249,0.1413024 -0.515625,0.2128907 V 23.505859 c 0,3.088651 2.485568,5.574219 5.574219,5.574219 h 14.150391 c 0.12852,-0.221373 0.291015,-0.427702 0.291015,-0.703125 v -7.5 h -6.767578 l 1.767578,5 h -2.966796 l -0.720704,-2.185547 h -4.617187 l -0.728516,2.185547 h -2.966797 l 4.240235,-12 h 0.759765 V 8.8769531 Z"
       style="opacity:1;fill:#f3443f;fill-opacity:1;fill-rule:evenodd;stroke:none;stroke-width:1.03534329;stroke-linecap:round;stroke-linejoin:bevel;stroke-miterlimit:4;stroke-dasharray:none;stroke-dashoffset:0;stroke-opacity:1"
       inkscape:connector-curvature="0" />
    <path
       id="path4571"
       d="m -46.201172,0.87695312 c -3.088651,0 -5.574219,2.48752108 -5.574219,5.57617188 v 2.6367188 c 0.175376,-0.071588 0.313907,-0.2128907 0.515625,-0.2128907 h 7.5 v -7.5 c 0,-0.1954186 0.137681,-0.329092 0.205078,-0.49999998 z"
       style="opacity:1;fill:#0286c2;fill-opacity:1;fill-rule:evenodd;stroke:none;stroke-width:1.03534329;stroke-linecap:round;stroke-linejoin:bevel;stroke-miterlimit:4;stroke-dasharray:none;stroke-dashoffset:0;stroke-opacity:1"
       inkscape:connector-curvature="0" />
    <path
       id="rect4497-3"
       d="m -43.554688,0.87695312 c -0.0674,0.17090798 -0.205078,0.30458138 -0.205078,0.49999998 V 19.376953 c 0,0.4155 0.166375,0.789422 0.4375,1.060547 0.271125,0.271125 0.647,0.439453 1.0625,0.439453 h 18 c 0.269387,0 0.469433,-0.161821 0.6875,-0.285156 V 6.453125 c 0,-3.0886508 -2.485568,-5.57617187 -5.574218,-5.57617188 z m 5.794922,3.99999998 h 4.703125 c 0.843504,0 1.569431,0.063535 2.179688,0.1894531 0.610256,0.1259183 1.105413,0.3145698 1.482422,0.5664063 0.379717,0.2518365 0.663657,0.5792077 0.853515,0.9824219 0.189859,0.4032141 0.285157,0.8809551 0.285157,1.4355468 0,0.5840568 -0.139369,1.0835038 -0.416016,1.4960938 -0.276647,0.4072401 -0.676956,0.70996 -1.203125,0.908203 0.672643,0.192899 1.193643,0.548586 1.5625,1.06836 0.368858,0.519748 0.552734,1.158539 0.552734,1.914062 0,0.578707 -0.09888,1.082323 -0.296875,1.513672 -0.197996,0.431348 -0.494632,0.790229 -0.890625,1.074219 -0.395992,0.28399 -0.895928,0.496677 -1.498046,0.638671 -0.602119,0.141995 -1.306989,0.212891 -2.115235,0.212891 h -5.199219 z"
       style="opacity:1;fill:#2297fd;fill-opacity:1;fill-rule:evenodd;stroke:none;stroke-width:1.03534329;stroke-linecap:round;stroke-linejoin:bevel;stroke-miterlimit:4;stroke-dasharray:none;stroke-dashoffset:0;stroke-opacity:1"
       inkscape:connector-curvature="0" />
  </g>
</svg>
