<?xml version="1.0" encoding="UTF-8" standalone="no"?>
<svg
   xmlns:dc="http://purl.org/dc/elements/1.1/"
   xmlns:cc="http://creativecommons.org/ns#"
   xmlns:rdf="http://www.w3.org/1999/02/22-rdf-syntax-ns#"
   xmlns:svg="http://www.w3.org/2000/svg"
   xmlns="http://www.w3.org/2000/svg"
   xmlns:sodipodi="http://sodipodi.sourceforge.net/DTD/sodipodi-0.dtd"
   xmlns:inkscape="http://www.inkscape.org/namespaces/inkscape"
   height="32"
   width="32"
   version="1"
   id="svg26"
   sodipodi:docname="gnubik.svg"
   inkscape:version="0.92.1 r">
  <metadata
     id="metadata32">
    <rdf:RDF>
      <cc:Work
         rdf:about="">
        <dc:format>image/svg+xml</dc:format>
        <dc:type
           rdf:resource="http://purl.org/dc/dcmitype/StillImage" />
      </cc:Work>
    </rdf:RDF>
  </metadata>
  <defs
     id="defs30" />
  <sodipodi:namedview
     pagecolor="#ffffff"
     bordercolor="#666666"
     borderopacity="1"
     objecttolerance="10"
     gridtolerance="10"
     guidetolerance="10"
     inkscape:pageopacity="0"
     inkscape:pageshadow="2"
     inkscape:window-width="640"
     inkscape:window-height="480"
     id="namedview28"
     showgrid="false"
     inkscape:zoom="8.9375"
     inkscape:cx="1.2932404"
     inkscape:cy="25.74828"
     inkscape:current-layer="svg26" />
  <polygon
     points="713 603 688.5 578 676.5 569.5 693.5 560.5 693.5 540 732.5 497.5 664 430.5 588 333 517.5 214 500 192 386 355 328 328 304 332.5 299.5 366 318.5 403.5 338 431 309.5 462 275.5 507 300 533 304 551 318.5 569.5 340.5 583 351.5 604.5 373.5 617 395 637.5 452.5 723 488.5 788.5 502 812.5 551.5 721.5 612.5 637 628.5 616 668 619.5 707 615"
     fill="#5a0e00"
     transform="matrix(.063142 0 0 .063142 -131 -24.03)"
     display="none"
     id="polygon2" />
  <g
     id="g4563"
     transform="translate(39.720282,-4.4755244)">
    <rect
       ry="5.575182"
       y="6.3738303"
       x="-37.821976"
       height="28.203388"
       width="28.203388"
       id="rect4497-3"
       style="opacity:1;fill:#8e8e8e;fill-opacity:1;fill-rule:evenodd;stroke:none;stroke-width:1.03534329;stroke-linecap:round;stroke-linejoin:bevel;stroke-miterlimit:4;stroke-dasharray:none;stroke-dashoffset:0;stroke-opacity:1" />
    <path
       id="path4540"
       d="m -37.821843,24.118102 c 0.05537,0.144978 0.06636,0.31414 0.173828,0.421875 0.198027,0.198515 0.471794,0.320313 0.775391,0.320313 h 6.576172 c 0.303596,0 0.577364,-0.121798 0.77539,-0.320313 0.198027,-0.198515 0.320313,-0.473747 0.320313,-0.777343 v -6.576172 c 0,-0.303597 -0.122286,-0.577364 -0.320313,-0.775391 -0.198026,-0.198026 -0.471794,-0.320312 -0.77539,-0.320312 h -6.576172 c -0.303597,0 -0.577364,0.122286 -0.775391,0.320312 -0.107276,0.107276 -0.118449,0.275448 -0.173828,0.419922 z"
       style="opacity:1;fill:#94d551;fill-opacity:1;fill-rule:evenodd;stroke:none;stroke-width:1.03534329;stroke-linecap:round;stroke-linejoin:bevel;stroke-miterlimit:4;stroke-dasharray:none;stroke-dashoffset:0;stroke-opacity:1"
       inkscape:connector-curvature="0" />
    <path
       id="path4538"
       d="m -29.940984,34.577087 c 0.144475,-0.05538 0.312646,-0.06655 0.419922,-0.173828 0.198027,-0.198027 0.320313,-0.471793 0.320313,-0.775391 v -6.576172 c 0,-0.303597 -0.122286,-0.577364 -0.320313,-0.775391 -0.198026,-0.198026 -0.471794,-0.320312 -0.77539,-0.320312 h -6.576172 c -0.303597,0 -0.577364,0.122286 -0.775391,0.320312 -0.107276,0.107276 -0.118449,0.275448 -0.173828,0.419922 v 2.304688 c 0,3.088651 2.485568,5.576172 5.574219,5.576172 z"
       style="opacity:1;fill:#4b95d5;fill-opacity:1;fill-rule:evenodd;stroke:none;stroke-width:1.03534329;stroke-linecap:round;stroke-linejoin:bevel;stroke-miterlimit:4;stroke-dasharray:none;stroke-dashoffset:0;stroke-opacity:1"
       inkscape:connector-curvature="0" />
    <path
       id="path4536"
       d="m -20.077702,34.577087 c 0.144978,-0.05537 0.314139,-0.06636 0.421875,-0.173828 0.198515,-0.198027 0.320312,-0.471794 0.320312,-0.775391 v -6.576172 c 0,-0.303597 -0.121797,-0.577364 -0.320312,-0.775391 -0.198515,-0.198026 -0.473747,-0.320312 -0.777344,-0.320312 h -6.574219 c -0.303596,0 -0.578829,0.122286 -0.777344,0.320312 -0.198514,0.198027 -0.320312,0.471794 -0.320312,0.775391 v 6.576172 c 0,0.303597 0.121798,0.577364 0.320312,0.775391 0.107736,0.10747 0.276898,0.118456 0.421876,0.173828 z"
       style="opacity:1;fill:#ffc539;fill-opacity:1;fill-rule:evenodd;stroke:none;stroke-width:1.03534329;stroke-linecap:round;stroke-linejoin:bevel;stroke-miterlimit:4;stroke-dasharray:none;stroke-dashoffset:0;stroke-opacity:1"
       inkscape:connector-curvature="0" />
    <path
       id="path4534"
       d="m -9.6187177,26.696227 c -0.055379,-0.144474 -0.066552,-0.312646 -0.1738281,-0.419922 -0.1980266,-0.198026 -0.4717942,-0.320312 -0.7753902,-0.320312 h -6.576172 c -0.303597,0 -0.577364,0.122286 -0.775391,0.320312 -0.198027,0.198027 -0.320313,0.471794 -0.320313,0.775391 v 6.576172 c 0,0.303597 0.122286,0.577364 0.320313,0.775391 0.107276,0.107275 0.275447,0.118449 0.419922,0.173828 h 2.30664 c 3.088651,0 5.5742193,-2.487521 5.5742193,-5.576172 z"
       style="opacity:1;fill:#d55045;fill-opacity:1;fill-rule:evenodd;stroke:none;stroke-width:1.03534329;stroke-linecap:round;stroke-linejoin:bevel;stroke-miterlimit:4;stroke-dasharray:none;stroke-dashoffset:0;stroke-opacity:1"
       inkscape:connector-curvature="0" />
    <path
       id="path4530"
       d="m -17.499577,6.3739619 c -0.144475,0.055379 -0.312646,0.066552 -0.419922,0.1738281 -0.198027,0.1980266 -0.320313,0.471794 -0.320313,0.7753906 v 6.5761714 c 0,0.303597 0.122286,0.577364 0.320313,0.775391 0.198027,0.198027 0.471794,0.320312 0.775391,0.320312 h 6.576172 c 0.303596,0 0.5773636,-0.122286 0.7753902,-0.320312 0.107276,-0.107276 0.1184491,-0.275447 0.1738281,-0.419922 v -2.30664 c 0,-3.0886512 -2.4855683,-5.5742191 -5.5742193,-5.5742191 z"
       style="opacity:1;fill:#94d551;fill-opacity:1;fill-rule:evenodd;stroke:none;stroke-width:1.03534329;stroke-linecap:round;stroke-linejoin:bevel;stroke-miterlimit:4;stroke-dasharray:none;stroke-dashoffset:0;stroke-opacity:1"
       inkscape:connector-curvature="0" />
    <path
       id="path4528"
       d="m -27.362858,6.3739619 c -0.144978,0.055372 -0.31414,0.066357 -0.421876,0.1738281 -0.198514,0.1980265 -0.320312,0.4717938 -0.320312,0.7753906 v 6.5761714 c 0,0.303597 0.121798,0.577364 0.320312,0.775391 0.198515,0.198027 0.473748,0.320312 0.777344,0.320312 h 6.574219 c 0.303597,0 0.578829,-0.122286 0.777344,-0.320312 0.198515,-0.198026 0.320312,-0.471794 0.320312,-0.775391 V 7.3231806 c 0,-0.3035968 -0.121797,-0.5773641 -0.320312,-0.7753906 -0.107736,-0.1074708 -0.276897,-0.1184564 -0.421875,-0.1738281 z"
       style="opacity:1;fill:#ffc539;fill-opacity:1;fill-rule:evenodd;stroke:none;stroke-width:1.03534329;stroke-linecap:round;stroke-linejoin:bevel;stroke-miterlimit:4;stroke-dasharray:none;stroke-dashoffset:0;stroke-opacity:1"
       inkscape:connector-curvature="0" />
    <path
       id="path4526"
       d="m -37.821843,14.254821 v 2.576172 c 0.05538,-0.144474 0.06655,-0.312646 0.173828,-0.419922 0.198027,-0.198026 0.471794,-0.320312 0.775391,-0.320312 h 6.576172 c 0.303596,0 0.577364,0.122286 0.77539,0.320312 0.198027,0.198027 0.320313,0.471794 0.320313,0.775391 v 6.576172 c 0,0.303596 -0.122286,0.578828 -0.320313,0.777343 -0.198026,0.198515 -0.471794,0.320313 -0.77539,0.320313 h -6.576172 c -0.303597,0 -0.577364,-0.121798 -0.775391,-0.320313 -0.107471,-0.107735 -0.118456,-0.276897 -0.173828,-0.421875 v 2.578125 c 0.05538,-0.144474 0.06655,-0.312646 0.173828,-0.419922 0.198027,-0.198026 0.471794,-0.320312 0.775391,-0.320312 h 6.576172 c 0.303596,0 0.577364,0.122286 0.77539,0.320312 0.198027,0.198027 0.320313,0.471794 0.320313,0.775391 v 6.576172 c 0,0.303598 -0.122286,0.577364 -0.320313,0.775391 -0.107276,0.107275 -0.275447,0.118449 -0.419922,0.173828 h 2.578126 c -0.144978,-0.05537 -0.31414,-0.06636 -0.421876,-0.173828 -0.198514,-0.198027 -0.320312,-0.471794 -0.320312,-0.775391 v -6.576172 c 0,-0.303597 0.121798,-0.577364 0.320312,-0.775391 0.198515,-0.198026 0.473748,-0.320312 0.777344,-0.320312 h 6.574219 c 0.303597,0 0.578829,0.122286 0.777344,0.320312 0.198515,0.198027 0.320312,0.471794 0.320312,0.775391 v 6.576172 c 0,0.303597 -0.121797,0.577364 -0.320312,0.775391 -0.107736,0.10747 -0.276897,0.118456 -0.421875,0.173828 h 2.578125 c -0.144475,-0.05538 -0.312646,-0.06655 -0.419922,-0.173828 -0.198027,-0.198027 -0.320313,-0.471794 -0.320313,-0.775391 v -6.576172 c 0,-0.303597 0.122286,-0.577364 0.320313,-0.775391 0.198027,-0.198026 0.471794,-0.320312 0.775391,-0.320312 h 6.576172 c 0.303596,0 0.5773636,0.122286 0.7753902,0.320312 0.107276,0.107276 0.1184491,0.275448 0.1738281,0.419922 v -2.578125 c -0.055372,0.144978 -0.066357,0.31414 -0.1738281,0.421875 -0.1980266,0.198515 -0.4717942,0.320313 -0.7753902,0.320313 h -6.576172 c -0.303597,0 -0.577364,-0.121798 -0.775391,-0.320313 -0.198027,-0.198515 -0.320313,-0.473747 -0.320313,-0.777343 v -6.576172 c 0,-0.303597 0.122286,-0.577364 0.320313,-0.775391 0.198027,-0.198026 0.471794,-0.320312 0.775391,-0.320312 h 6.576172 c 0.303596,0 0.5773636,0.122286 0.7753902,0.320312 0.107276,0.107276 0.1184491,0.275448 0.1738281,0.419922 v -2.576172 c -0.055379,0.144475 -0.066552,0.312646 -0.1738281,0.419922 -0.1980266,0.198026 -0.4717942,0.320312 -0.7753902,0.320312 h -6.576172 c -0.303597,0 -0.577364,-0.122285 -0.775391,-0.320312 -0.198027,-0.198027 -0.320313,-0.471794 -0.320313,-0.775391 V 7.3231806 c 0,-0.3035966 0.122286,-0.577364 0.320313,-0.7753906 0.107276,-0.107276 0.275447,-0.1184491 0.419922,-0.1738281 h -2.578125 c 0.144978,0.055372 0.314139,0.066357 0.421875,0.1738281 0.198515,0.1980265 0.320312,0.4717938 0.320312,0.7753906 v 6.5761714 c 0,0.303597 -0.121797,0.577365 -0.320312,0.775391 -0.198515,0.198026 -0.473747,0.320312 -0.777344,0.320312 h -6.574219 c -0.303596,0 -0.578829,-0.122285 -0.777344,-0.320312 -0.198514,-0.198027 -0.320312,-0.471794 -0.320312,-0.775391 V 7.3231806 c 0,-0.3035968 0.121798,-0.5773641 0.320312,-0.7753906 0.107736,-0.1074708 0.276898,-0.1184564 0.421876,-0.1738281 h -2.578126 c 0.144475,0.055379 0.312646,0.066552 0.419922,0.1738281 0.198027,0.1980266 0.320313,0.471794 0.320313,0.7753906 v 6.5761714 c 0,0.303597 -0.122286,0.577365 -0.320313,0.775391 -0.198026,0.198026 -0.471794,0.320312 -0.77539,0.320312 h -6.576172 c -0.303597,0 -0.577364,-0.122285 -0.775391,-0.320312 -0.107276,-0.107276 -0.118449,-0.275447 -0.173828,-0.419922 z"
       style="opacity:1;fill:#f9f9f9;fill-opacity:1;fill-rule:evenodd;stroke:none;stroke-width:1.03534329;stroke-linecap:round;stroke-linejoin:bevel;stroke-miterlimit:4;stroke-dasharray:none;stroke-dashoffset:0;stroke-opacity:1"
       inkscape:connector-curvature="0" />
    <path
       id="rect4497-3-3"
       d="m -37.821843,14.254821 c 0.05538,0.144475 0.06655,0.312646 0.173828,0.419922 0.198027,0.198027 0.471794,0.320312 0.775391,0.320312 h 6.576172 c 0.303596,0 0.577364,-0.122286 0.77539,-0.320312 0.198027,-0.198026 0.320313,-0.471794 0.320313,-0.775391 V 7.3231806 c 0,-0.3035966 -0.122286,-0.577364 -0.320313,-0.7753906 -0.107276,-0.107276 -0.275447,-0.1184491 -0.419922,-0.1738281 h -2.30664 c -3.088651,0 -5.574219,2.4855679 -5.574219,5.5742191 z"
       style="opacity:1;fill:#d55045;fill-opacity:1;fill-rule:evenodd;stroke:none;stroke-width:1.03534329;stroke-linecap:round;stroke-linejoin:bevel;stroke-miterlimit:4;stroke-dasharray:none;stroke-dashoffset:0;stroke-opacity:1"
       inkscape:connector-curvature="0" />
    <path
       id="path4544"
       d="m -27.00739,16.090759 c -0.303596,0 -0.578829,0.122285 -0.777344,0.320312 -0.198514,0.198027 -0.320312,0.471794 -0.320312,0.775391 v 6.576172 c 0,0.303596 0.121798,0.578828 0.320312,0.777343 0.198515,0.198515 0.473748,0.320313 0.777344,0.320313 h 6.574219 c 0.303597,0 0.578829,-0.121798 0.777344,-0.320313 0.198515,-0.198515 0.320312,-0.473747 0.320312,-0.777343 v -6.576172 c 0,-0.303597 -0.121797,-0.577364 -0.320312,-0.775391 -0.198515,-0.198027 -0.473747,-0.320312 -0.777344,-0.320312 z"
       style="opacity:1;fill:#8e8e8e;fill-opacity:1;fill-rule:evenodd;stroke:none;stroke-width:1.03534329;stroke-linecap:round;stroke-linejoin:bevel;stroke-miterlimit:4;stroke-dasharray:none;stroke-dashoffset:0;stroke-opacity:1"
       inkscape:connector-curvature="0" />
    <path
       id="path4542"
       d="m -27.00739,16.090759 h 6.574219 c 0.303597,0 0.578829,0.122285 0.777344,0.320312 0.198515,0.198027 0.320312,0.471794 0.320312,0.775391 v 6.576172 c 0,0.303596 -0.121797,0.578828 -0.320312,0.777343 -0.198515,0.198515 -0.473747,0.320313 -0.777344,0.320313 h -6.574219 c -0.303596,0 -0.578829,-0.121798 -0.777344,-0.320313 -0.198514,-0.198515 -0.320312,-0.473747 -0.320312,-0.777343 v -6.576172 c 0,-0.303597 0.121798,-0.577364 0.320312,-0.775391 0.198515,-0.198027 0.473748,-0.320312 0.777344,-0.320312 z"
       style="opacity:1;fill:#4b95d5;fill-opacity:1;fill-rule:evenodd;stroke:none;stroke-width:1.03534329;stroke-linecap:round;stroke-linejoin:bevel;stroke-miterlimit:4;stroke-dasharray:none;stroke-dashoffset:0;stroke-opacity:1"
       inkscape:connector-curvature="0" />
    <path
       id="path4532"
       d="m -9.6187177,16.830993 c -0.055379,-0.144474 -0.066552,-0.312646 -0.1738281,-0.419922 -0.1980266,-0.198026 -0.4717942,-0.320312 -0.7753902,-0.320312 h -6.576172 c -0.303597,0 -0.577364,0.122286 -0.775391,0.320312 -0.198027,0.198027 -0.320313,0.471794 -0.320313,0.775391 v 6.576172 c 0,0.303596 0.122286,0.578828 0.320313,0.777343 0.198027,0.198515 0.471794,0.320313 0.775391,0.320313 h 6.576172 c 0.303596,0 0.5773636,-0.121798 0.7753902,-0.320313 0.1074708,-0.107735 0.1184564,-0.276897 0.1738281,-0.421875 z"
       style="opacity:1;fill:#94d551;fill-opacity:1;fill-rule:evenodd;stroke:none;stroke-width:1.03534329;stroke-linecap:round;stroke-linejoin:bevel;stroke-miterlimit:4;stroke-dasharray:none;stroke-dashoffset:0;stroke-opacity:1"
       inkscape:connector-curvature="0" />
  </g>
</svg>
