<?xml version="1.0" encoding="UTF-8" standalone="no"?>
<svg
   xmlns:dc="http://purl.org/dc/elements/1.1/"
   xmlns:cc="http://creativecommons.org/ns#"
   xmlns:rdf="http://www.w3.org/1999/02/22-rdf-syntax-ns#"
   xmlns:svg="http://www.w3.org/2000/svg"
   xmlns="http://www.w3.org/2000/svg"
   xmlns:sodipodi="http://sodipodi.sourceforge.net/DTD/sodipodi-0.dtd"
   xmlns:inkscape="http://www.inkscape.org/namespaces/inkscape"
   height="32"
   width="32"
   version="1"
   id="svg12"
   sodipodi:docname="last-fm.svg"
   inkscape:version="0.92.1 r">
  <metadata
     id="metadata18">
    <rdf:RDF>
      <cc:Work
         rdf:about="">
        <dc:format>image/svg+xml</dc:format>
        <dc:type
           rdf:resource="http://purl.org/dc/dcmitype/StillImage" />
      </cc:Work>
    </rdf:RDF>
  </metadata>
  <defs
     id="defs16" />
  <sodipodi:namedview
     pagecolor="#ffffff"
     bordercolor="#666666"
     borderopacity="1"
     objecttolerance="10"
     gridtolerance="10"
     guidetolerance="10"
     inkscape:pageopacity="0"
     inkscape:pageshadow="2"
     inkscape:window-width="640"
     inkscape:window-height="480"
     id="namedview14"
     showgrid="false"
     inkscape:zoom="9.5"
     inkscape:cx="-4.1052632"
     inkscape:cy="16"
     inkscape:current-layer="svg12" />
  <rect
     style="opacity:1;fill:#c2352a;fill-opacity:1;fill-rule:evenodd;stroke:none;stroke-width:1.03534329;stroke-linecap:round;stroke-linejoin:bevel;stroke-miterlimit:4;stroke-dasharray:none;stroke-dashoffset:0;stroke-opacity:1"
     id="rect4497-3"
     width="28.203388"
     height="28.203388"
     x="1.8983059"
     y="1.8983059"
     ry="5.575182"
     inkscape:export-filename="/home/ramil/3.png"
     inkscape:export-xdpi="71"
     inkscape:export-ydpi="71" />
  <path
     style="fill:#ffffff"
     d="m 12.053706,20.952695 c -0.320122,-0.044 -0.88957,-0.232 -1.269408,-0.4177 -2.4747929,-1.2044 -3.4868729,-4.2378 -2.2679449,-6.7929 1.392532,-2.9215 5.1921399,-3.6662 7.4785529,-1.4657 0.661176,0.6353 0.954826,1.1774 1.950284,3.5812 1.039166,2.5138 1.23124,2.909 1.567984,3.2441 0.360753,0.3565 0.695035,0.4765 1.334664,0.4765 1.050863,0 1.801304,-0.6597 1.801304,-1.5802 0,-0.7791 -0.269642,-1.0286 -1.644937,-1.5245 -2.094339,-0.7673 -2.772752,-1.4607 -2.775215,-2.8533 0,-0.7429 0.185302,-1.2382 0.656251,-1.7515 0.675951,-0.7329 1.841935,-0.9749 2.873714,-0.611 0.440169,0.1589 1.361136,0.9868 1.361136,1.2238 0,0.115 -0.533742,0.4665 -0.829856,0.5496 -0.156367,0.041 -0.291188,-0.012 -0.471564,-0.1882 -0.365679,-0.3564 -0.613158,-0.4665 -1.050864,-0.4665 -0.755366,0 -1.223852,0.4615 -1.223852,1.2069 0,0.7429 0.29796,0.9942 1.786529,1.5045 2.051246,0.7035 2.657016,1.3388 2.669328,2.8089 0.01231,1.2701 -0.55098,2.1862 -1.671408,2.7283 -0.509733,0.2445 -0.682723,0.2758 -1.515041,0.2758 -1.188146,0 -1.721889,-0.2245 -2.38799,-0.9868 -0.447555,-0.5127 -0.901883,-1.4751 -2.356593,-4.9882 -0.603307,-1.4557 -1.377757,-2.1692 -2.669328,-2.45 -0.654404,-0.1419 -1.565522,-0.01 -2.159595,0.3077 -0.579299,0.3077 -1.226315,1.0018 -1.5316639,1.6365 -0.252404,0.5152 -0.276413,0.6597 -0.276413,1.5558 0,0.8548 0.03386,1.0574 0.245017,1.5264 0.320122,0.716 0.9499019,1.3775 1.6424749,1.734 0.500499,0.2564 0.656251,0.2883 1.45471,0.2883 0.767062,0 0.964061,-0.037 1.421466,-0.2589 0.522046,-0.2589 1.223853,-0.8942 1.510116,-1.3701 l 0.14898,-0.247 0.293651,0.6816 c 0.163755,0.3764 0.295498,0.7304 0.295498,0.7941 0,0.1883 -0.663639,0.8036 -1.271871,1.1869 -0.92343,0.5791 -1.984143,0.796 -3.116884,0.6397 m -0.0025,0"
     id="path10"
     inkscape:connector-curvature="0" />
</svg>
