<?xml version="1.0" encoding="UTF-8" standalone="no"?>
<svg
   xmlns:dc="http://purl.org/dc/elements/1.1/"
   xmlns:cc="http://creativecommons.org/ns#"
   xmlns:rdf="http://www.w3.org/1999/02/22-rdf-syntax-ns#"
   xmlns:svg="http://www.w3.org/2000/svg"
   xmlns="http://www.w3.org/2000/svg"
   xmlns:sodipodi="http://sodipodi.sourceforge.net/DTD/sodipodi-0.dtd"
   xmlns:inkscape="http://www.inkscape.org/namespaces/inkscape"
   width="32"
   height="32"
   viewBox="0 0 32 32"
   version="1.1"
   id="svg14"
   sodipodi:docname="latte-dock.svg"
   inkscape:version="0.92.1 r">
  <metadata
     id="metadata20">
    <rdf:RDF>
      <cc:Work
         rdf:about="">
        <dc:format>image/svg+xml</dc:format>
        <dc:type
           rdf:resource="http://purl.org/dc/dcmitype/StillImage" />
      </cc:Work>
    </rdf:RDF>
  </metadata>
  <defs
     id="defs18" />
  <sodipodi:namedview
     pagecolor="#ffffff"
     bordercolor="#666666"
     borderopacity="1"
     objecttolerance="10"
     gridtolerance="10"
     guidetolerance="10"
     inkscape:pageopacity="0"
     inkscape:pageshadow="2"
     inkscape:window-width="640"
     inkscape:window-height="480"
     id="namedview16"
     showgrid="false"
     inkscape:zoom="9.5"
     inkscape:cx="-4.1052632"
     inkscape:cy="16"
     inkscape:current-layer="svg14" />
  <rect
     style="opacity:1;fill:#d2a35c;fill-opacity:1;fill-rule:evenodd;stroke:none;stroke-width:1.03534329;stroke-linecap:round;stroke-linejoin:bevel;stroke-miterlimit:4;stroke-dasharray:none;stroke-dashoffset:0;stroke-opacity:1"
     id="rect4497-3"
     width="28.203388"
     height="28.203388"
     x="1.8983059"
     y="1.8983059"
     ry="5.575182"
     inkscape:export-filename="/home/ramil/3.png"
     inkscape:export-xdpi="71"
     inkscape:export-ydpi="71" />
  <path
     inkscape:connector-curvature="0"
     id="path8"
     d="m 23.261719,4.7510002 c -0.839079,0 -1.644064,0.2206 -2.416016,0.664 -0.755172,0.4264 -1.469362,1.0488 -2.140625,1.8672 -0.654481,0.8015 -1.250098,1.79 -1.787109,2.9667998 -0.537009,1.1594 -0.996835,2.4729 -1.382813,3.9395 -0.268504,1.0402 -0.538135,1.9185 -0.80664,2.6347 -0.268505,0.7163 -0.544792,1.3117 -0.830078,1.7891 -0.62092,-0.2387 -1.233753,-0.958 -1.837891,-1.1113 -0.587355,-0.1706 -1.191582,-0.2559 -1.8125,-0.2559 -0.486665,0 -0.931227,0.077 -1.333984,0.2305 C 8.528085,17.629 8.19349,17.8163 7.908203,18.0381 7.622915,18.2597 7.396331,18.4971 7.228516,18.7529 7.077482,19.0105 7,19.7753 7,19.997 c 0,0.3581 0.168275,0.656 0.503907,0.8946 0.335632,0.2388 0.840455,0.3574 1.511718,0.3574 1.778847,0 3.280803,-0.4682 4.505859,-1.4062 0.771953,0.3413 1.55972,0.6638 2.365235,0.9707 0.822298,0.2899 1.728636,0.4355 2.71875,0.4355 1.124365,0 2.022096,-0.2373 2.693359,-0.7148 0.671264,-0.4944 1.056227,-1.126 1.458984,-2.0469 0.01678,-0.1029 -0.0051,-0.1714 -0.07227,-0.2051 -0.05034,-0.051 -0.110607,-0.051 -0.177735,0 -0.285284,0.5798 -0.495318,0.9468 -0.93164,1.2539 -0.436322,0.3068 -1.074985,0.4609 -1.914063,0.4609 -1.006895,0 -1.928498,-0.1122 -2.767578,-0.3339 -0.822298,-0.2387 -1.612016,-0.5032 -2.367187,-0.793 1.040458,-1.2448 1.856004,-3.0099 2.443359,-5.2949 0.352414,-1.4325 0.695618,-2.6252 1.03125,-3.5800998 0.335632,-0.9549 0.696055,-1.7125 1.082031,-2.2754 0.385976,-0.5798 0.806663,-0.9073 1.259766,-1.1289 0.469884,-0.2388 1.022457,-0.3555 1.660156,-0.3555 0.469885,0 0.854184,0.086 1.15625,0.2559 0.318851,0.1534 0.554043,0.3575 0.705078,0.6133 0.151039,0.2558 0.237131,0.4627 0.253907,0.7695 0.01679,0.307 -0.02627,0.9119 -0.126953,1.2188 -0.01679,0.086 0.0071,0.1458 0.07422,0.1796 0.08391,0.035 0.16139,0.027 0.228516,-0.025 0.167816,-0.2899 0.325528,-0.957 0.476562,-1.4003 C 24.92252,7.3861002 25,6.9827002 25,6.6416002 c 0,-0.5287 -0.161619,-0.9701 -0.480469,-1.3281 -0.318849,-0.3753 -0.737583,-0.5625 -1.257812,-0.5625 z M 9.140625,18.0908 c 0.721609,0 1.401364,0.1004 2.039063,0.3047 0.6377,0.2047 1.267752,0.9714 1.888671,1.2441 -0.385976,0.3752 -0.82388,0.6292 -1.310547,0.7657 -0.469884,0.1191 -1.005238,0.1796 -1.609374,0.1796 -0.688046,0 -1.227304,-0.1102 -1.613281,-0.332 -0.369195,-0.2217 -0.552735,-1.0279 -0.552735,-1.3691 0,-0.5285 0.386251,-0.793 1.158203,-0.793 z M 11.5,22.249 a 1.4999999,1.4999999 0 0 0 -1.5,1.5 1.4999999,1.4999999 0 0 0 1.5,1.5 1.4999999,1.4999999 0 0 0 1.5,-1.5 1.4999999,1.4999999 0 0 0 -1.5,-1.5 z m 8,0 a 1.4999999,1.4999999 0 0 0 -1.5,1.5 1.4999999,1.4999999 0 0 0 1.5,1.5 1.4999999,1.4999999 0 0 0 1.5,-1.5 1.4999999,1.4999999 0 0 0 -1.5,-1.5 z m -4,2 a 1.5000004,1.5000004 0 0 0 -1.5,1.5 1.5000004,1.5000004 0 0 0 1.5,1.5 1.5000004,1.5000004 0 0 0 1.5,-1.5 1.5000004,1.5000004 0 0 0 -1.5,-1.5 z"
     style="font-weight:bold;line-height:125%;font-family:Tangerine;letter-spacing:0px;word-spacing:0px;fill:#ffffff;fill-opacity:1" />
</svg>
