<?xml version="1.0" encoding="UTF-8" standalone="no"?>
<svg
   xmlns:dc="http://purl.org/dc/elements/1.1/"
   xmlns:cc="http://creativecommons.org/ns#"
   xmlns:rdf="http://www.w3.org/1999/02/22-rdf-syntax-ns#"
   xmlns:svg="http://www.w3.org/2000/svg"
   xmlns="http://www.w3.org/2000/svg"
   xmlns:sodipodi="http://sodipodi.sourceforge.net/DTD/sodipodi-0.dtd"
   xmlns:inkscape="http://www.inkscape.org/namespaces/inkscape"
   height="32"
   width="32"
   version="1"
   id="svg18"
   sodipodi:docname="gnome-ldraw.svg"
   inkscape:version="0.92.1 r">
  <metadata
     id="metadata24">
    <rdf:RDF>
      <cc:Work
         rdf:about="">
        <dc:format>image/svg+xml</dc:format>
        <dc:type
           rdf:resource="http://purl.org/dc/dcmitype/StillImage" />
      </cc:Work>
    </rdf:RDF>
  </metadata>
  <defs
     id="defs22" />
  <sodipodi:namedview
     pagecolor="#ffffff"
     bordercolor="#666666"
     borderopacity="1"
     objecttolerance="10"
     gridtolerance="10"
     guidetolerance="10"
     inkscape:pageopacity="0"
     inkscape:pageshadow="2"
     inkscape:window-width="640"
     inkscape:window-height="480"
     id="namedview20"
     showgrid="false"
     inkscape:zoom="8.8125"
     inkscape:cx="-12.886418"
     inkscape:cy="16"
     inkscape:current-layer="svg18" />
  <g
     id="g4549"
     transform="translate(62.865234,-7.5185548)">
    <path
       id="path4535"
       d="m -32.763672,20.521484 c -0.204974,-0.103569 -0.383692,-0.255859 -0.630859,-0.255859 h -26.941407 c -0.247039,0 -0.425895,0.152285 -0.630859,0.255859 v 11.523438 c 0,3.088651 2.485568,5.576172 5.574219,5.576172 h 17.054687 c 3.088651,0 5.574219,-2.487521 5.574219,-5.576172 z"
       style="opacity:1;fill:#e49815;fill-opacity:1;fill-rule:evenodd;stroke:none;stroke-width:1.03534329;stroke-linecap:round;stroke-linejoin:bevel;stroke-miterlimit:4;stroke-dasharray:none;stroke-dashoffset:0;stroke-opacity:1"
       inkscape:connector-curvature="0" />
    <path
       id="path4540"
       d="m -35.263672,20.265625 c 0.03984,-0.127506 0.158203,-0.21759 0.158203,-0.357422 v -1.425781 c 0,-0.394808 -0.171178,-0.750167 -0.447265,-1.007813 -0.276088,-0.257646 -0.656726,-0.416015 -1.080078,-0.416015 h -7.634766 c 0,0 -0.002,0 -0.002,0 -0.422556,4.99e-4 -0.804425,0.158775 -1.080078,0.416015 -0.276088,0.257646 -0.447266,0.613005 -0.447266,1.007813 v 1.425781 c 0,0.139751 0.118407,0.229983 0.158203,0.357422 z"
       style="opacity:1;fill:#f2b740;fill-opacity:1;fill-rule:evenodd;stroke:none;stroke-width:1.03534329;stroke-linecap:round;stroke-linejoin:bevel;stroke-miterlimit:4;stroke-dasharray:none;stroke-dashoffset:0;stroke-opacity:1"
       inkscape:connector-curvature="0" />
    <path
       id="path4543"
       d="m -48.091797,20.265625 c 0.0398,-0.127426 0.158203,-0.21769 0.158203,-0.357422 v -1.425781 c 0,-0.394808 -0.171178,-0.750167 -0.447265,-1.007813 -0.276088,-0.257646 -0.65868,-0.416015 -1.082032,-0.416015 h -7.634765 c -0.423085,0 -0.804031,0.158369 -1.080078,0.416015 -0.276047,0.257646 -0.447266,0.613005 -0.447266,1.007813 v 1.425781 c 0,0.139732 0.118405,0.229996 0.158203,0.357422 z"
       style="opacity:1;fill:#f2b740;fill-opacity:1;fill-rule:evenodd;stroke:none;stroke-width:1.03534329;stroke-linecap:round;stroke-linejoin:bevel;stroke-miterlimit:4;stroke-dasharray:none;stroke-dashoffset:0;stroke-opacity:1"
       inkscape:connector-curvature="0" />
    <path
       id="rect4497-3-3"
       d="m -55.392578,9.4160156 c -3.088651,0 -5.574219,2.4875194 -5.574219,5.5761724 v 5.529296 c 0.204964,-0.103574 0.38382,-0.255859 0.630859,-0.255859 h 1.869141 c -0.0398,-0.127426 -0.158203,-0.21769 -0.158203,-0.357422 v -1.425781 c 0,-0.394808 0.171219,-0.750167 0.447266,-1.007813 0.276047,-0.257646 0.656993,-0.416015 1.080078,-0.416015 h 7.634765 c 0.423352,0 0.805944,0.158369 1.082032,0.416015 0.276087,0.257646 0.447265,0.613005 0.447265,1.007813 v 1.425781 c 0,0.139732 -0.118407,0.229996 -0.158203,0.357422 h 2.453125 c -0.0398,-0.127439 -0.158203,-0.217671 -0.158203,-0.357422 v -1.425781 c 0,-0.394808 0.171178,-0.750167 0.447266,-1.007813 0.275653,-0.25724 0.657522,-0.415516 1.080078,-0.416015 h 0.002 7.634766 c 0.423352,0 0.80399,0.158369 1.080078,0.416015 0.276087,0.257646 0.447265,0.613005 0.447265,1.007813 v 1.425781 c 0,0.139832 -0.118358,0.229916 -0.158203,0.357422 h 1.869141 c 0.247167,0 0.425885,0.15229 0.630859,0.255859 v -5.529296 c 0,-3.088652 -2.485568,-5.5761724 -5.574219,-5.5761724 z"
       style="opacity:1;fill:#8e8e8e;fill-opacity:1;fill-rule:evenodd;stroke:none;stroke-width:1.03534329;stroke-linecap:round;stroke-linejoin:bevel;stroke-miterlimit:4;stroke-dasharray:none;stroke-dashoffset:0;stroke-opacity:1"
       inkscape:connector-curvature="0" />
  </g>
</svg>
