<?xml version="1.0" encoding="UTF-8" standalone="no"?>
<svg
   xmlns:dc="http://purl.org/dc/elements/1.1/"
   xmlns:cc="http://creativecommons.org/ns#"
   xmlns:rdf="http://www.w3.org/1999/02/22-rdf-syntax-ns#"
   xmlns:svg="http://www.w3.org/2000/svg"
   xmlns="http://www.w3.org/2000/svg"
   xmlns:sodipodi="http://sodipodi.sourceforge.net/DTD/sodipodi-0.dtd"
   xmlns:inkscape="http://www.inkscape.org/namespaces/inkscape"
   height="32"
   width="32"
   version="1"
   id="svg14"
   sodipodi:docname="libreoffice-base.svg"
   inkscape:version="0.92.4 5da689c313, 2019-01-14">
  <metadata
     id="metadata20">
    <rdf:RDF>
      <cc:Work
         rdf:about="">
        <dc:format>image/svg+xml</dc:format>
        <dc:type
           rdf:resource="http://purl.org/dc/dcmitype/StillImage" />
      </cc:Work>
    </rdf:RDF>
  </metadata>
  <defs
     id="defs18" />
  <sodipodi:namedview
     pagecolor="#ffffff"
     bordercolor="#666666"
     borderopacity="1"
     objecttolerance="10"
     gridtolerance="10"
     guidetolerance="10"
     inkscape:pageopacity="0"
     inkscape:pageshadow="2"
     inkscape:window-width="1680"
     inkscape:window-height="963"
     id="namedview16"
     showgrid="false"
     inkscape:zoom="5.3119795"
     inkscape:cx="-23.098031"
     inkscape:cy="28.946202"
     inkscape:window-x="0"
     inkscape:window-y="0"
     inkscape:window-maximized="1"
     inkscape:current-layer="svg14" />
  <path
     inkscape:connector-curvature="0"
     style="opacity:1;fill:#e81d62;fill-opacity:1;fill-rule:evenodd;stroke:none;stroke-width:1.03534329;stroke-linecap:round;stroke-linejoin:bevel;stroke-miterlimit:4;stroke-dasharray:none;stroke-dashoffset:0;stroke-opacity:1"
     d="M 30.101562,12.222656 V 7.4726562 c 0,-3.0886508 -2.485568,-5.5742187 -5.574219,-5.5742187 h -4.75 z"
     id="path4496" />
  <path
     style="color:#000000;font-style:normal;font-variant:normal;font-weight:normal;font-stretch:normal;font-size:medium;line-height:normal;font-family:sans-serif;font-variant-ligatures:normal;font-variant-position:normal;font-variant-caps:normal;font-variant-numeric:normal;font-variant-alternates:normal;font-feature-settings:normal;text-indent:0;text-align:start;text-decoration:none;text-decoration-line:none;text-decoration-style:solid;text-decoration-color:#000000;letter-spacing:normal;word-spacing:normal;text-transform:none;writing-mode:lr-tb;direction:ltr;text-orientation:mixed;dominant-baseline:auto;baseline-shift:baseline;text-anchor:start;white-space:normal;shape-padding:0;clip-rule:nonzero;display:inline;overflow:visible;visibility:visible;opacity:1;isolation:auto;mix-blend-mode:normal;color-interpolation:sRGB;color-interpolation-filters:linearRGB;solid-color:#000000;solid-opacity:1;vector-effect:none;fill:#e81d62;fill-opacity:1;fill-rule:evenodd;stroke:none;stroke-width:1.23500001;stroke-linecap:round;stroke-linejoin:bevel;stroke-miterlimit:4;stroke-dasharray:none;stroke-dashoffset:0;stroke-opacity:1;color-rendering:auto;image-rendering:auto;shape-rendering:auto;text-rendering:auto;enable-background:accumulate"
     d="m 7.6972655,2.0195312 c -3.3391012,0 -6.046875,2.7055608 -6.046875,6.0449219 V 24.671875 c 0,3.339364 2.7075136,6.046875 6.046875,6.046875 H 24.304687 c 3.339363,0 6.044922,-2.707772 6.044922,-6.046875 V 14.3125 L 30.169921,13.876953 18.492187,2.1992188 18.05664,2.0195312 Z m 0,1.234375 H 17.800781 L 29.115234,14.568359 v 10.103516 c 0,2.676533 -2.134277,4.8125 -4.810547,4.8125 H 7.6972655 c -2.6762698,0 -4.8125,-2.136228 -4.8125,-4.8125 V 8.0644531 c 0,-2.6762693 2.13597,-4.8105469 4.8125,-4.8105469 z"
     id="path4494"
     inkscape:connector-curvature="0" />
  <path
     inkscape:connector-curvature="0"
     style="opacity:1;fill:#ffffff;fill-opacity:1;fill-rule:evenodd;stroke:none;stroke-width:1.03534329;stroke-linecap:round;stroke-linejoin:bevel;stroke-miterlimit:4;stroke-dasharray:none;stroke-dashoffset:0;stroke-opacity:1"
     d="M 18.111328,1.8984375 30.101562,13.888672 V 12.222656 L 19.777343,1.8984375 Z"
     id="rect4497-3" />
  <path
     style="fill:#e81d62;fill-opacity:1;stroke-width:1"
     d="m 14.926285,25.434459 c -2.78586,-0.293582 -4.809799,-1.481523 -5.2331576,-3.071575 -0.040747,-0.153047 -0.057693,-0.495668 -0.05805,-1.173665 l -5.136e-4,-0.957521 0.2675532,0.250283 c 1.3060214,1.22172 3.6578784,1.979498 6.1397424,1.97825 2.39741,-0.0012 4.766661,-0.772148 6.043428,-1.966501 l 0.280113,-0.262032 -5.13e-4,0.957521 c -5.49e-4,1.020833 -0.0234,1.18843 -0.221122,1.620305 -0.141568,0.309227 -0.377964,0.619755 -0.726847,0.954779 -0.815036,0.782663 -2.140035,1.335744 -3.853947,1.608715 -0.482468,0.07684 -2.126955,0.115161 -2.636723,0.06144 z m 4.623631,-1.363342 c 0.666241,-0.278373 0.681894,-1.218675 0.02235,-1.342407 -0.583714,-0.109505 -1.117207,0.639071 -0.797024,1.118355 0.175602,0.26286 0.474736,0.349376 0.774678,0.224052 z M 14.890242,21.219742 C 12.381601,20.956907 10.643775,20.212666 9.8595766,19.065308 l -0.204054,-0.298551 -0.012117,-1.262391 -0.012117,-1.26239 0.2424453,0.237055 c 0.8148781,0.796764 2.2000701,1.426872 3.8020531,1.729511 1.41164,0.26668 3.353105,0.257048 4.750147,-0.02357 1.564397,-0.31423 2.814204,-0.889268 3.685003,-1.695474 l 0.258062,-0.23892 -0.01226,1.258088 -0.01226,1.258088 -0.19978,0.292294 c -0.562757,0.823364 -1.633379,1.454022 -3.111507,1.832862 -0.973878,0.249601 -1.570375,0.319468 -2.844743,0.333198 -0.621885,0.0067 -1.20608,0.0043 -1.298211,-0.0054 z m 4.681184,-1.245653 c 0.07411,-0.0318 0.194848,-0.121316 0.268292,-0.198919 0.436626,-0.461353 0.205342,-1.125223 -0.392014,-1.125223 -0.713329,0 -1.061002,1.009456 -0.453442,1.316556 0.157621,0.07967 0.401692,0.08288 0.577164,0.0076 z m -4.199591,-2.77585 C 12.549562,17.076666 10.470008,16.232976 9.7890743,14.933275 L 9.6299947,14.62964 9.6427577,13.383797 c 0.012474,-1.21763 0.015008,-1.250109 0.1120381,-1.434291 0.3816122,-0.724404 1.2620722,-1.234828 2.7749522,-1.608705 2.737503,-0.6765179 6.530206,-0.4424389 8.463721,0.522367 0.649834,0.324261 1.019104,0.644737 1.251737,1.086338 0.09703,0.184182 0.09956,0.216661 0.112039,1.434291 l 0.01276,1.245843 -0.149372,0.282696 c -0.198451,0.375582 -0.484446,0.691928 -0.886174,0.980216 -1.036318,0.743681 -2.501595,1.167966 -4.455029,1.289996 -0.655104,0.04093 -0.869923,0.04316 -1.507599,0.01569 z m 4.334349,-1.429 c 0.455915,-0.312104 0.466967,-0.967327 0.0201,-1.191839 -0.195597,-0.09827 -0.363126,-0.09229 -0.584622,0.02088 -0.272856,0.139404 -0.429497,0.35813 -0.452155,0.631373 -0.04851,0.584926 0.514191,0.883574 1.016674,0.539592 z m -1.758866,-1.869077 c 1.660623,-0.233631 2.944105,-0.70175 3.276934,-1.195184 0.125151,-0.185541 0.120119,-0.224037 -0.05456,-0.417382 -0.634979,-0.702845 -2.489121,-1.186985 -4.771855,-1.245992 -1.981836,-0.05123 -3.76241,0.23289 -4.903239,0.782391 -0.348156,0.167696 -0.746588,0.484538 -0.792933,0.630559 -0.04319,0.13608 0.138621,0.370444 0.436606,0.562804 0.740687,0.478141 1.874415,0.780872 3.584457,0.957131 0.09213,0.0095 0.742282,0.01257 1.444782,0.0068 0.922813,-0.0076 1.416731,-0.03007 1.779805,-0.08115 z"
     id="path866"
     inkscape:connector-curvature="0" />
</svg>
