<?xml version="1.0" encoding="UTF-8" standalone="no"?>
<svg
   xmlns:dc="http://purl.org/dc/elements/1.1/"
   xmlns:cc="http://creativecommons.org/ns#"
   xmlns:rdf="http://www.w3.org/1999/02/22-rdf-syntax-ns#"
   xmlns:svg="http://www.w3.org/2000/svg"
   xmlns="http://www.w3.org/2000/svg"
   xmlns:sodipodi="http://sodipodi.sourceforge.net/DTD/sodipodi-0.dtd"
   xmlns:inkscape="http://www.inkscape.org/namespaces/inkscape"
   width="32"
   height="32"
   version="1"
   id="svg26"
   sodipodi:docname="lives.svg"
   inkscape:version="0.92.2 2405546, 2018-03-11">
  <metadata
     id="metadata32">
    <rdf:RDF>
      <cc:Work
         rdf:about="">
        <dc:format>image/svg+xml</dc:format>
        <dc:type
           rdf:resource="http://purl.org/dc/dcmitype/StillImage" />
        <dc:title></dc:title>
      </cc:Work>
    </rdf:RDF>
  </metadata>
  <defs
     id="defs30" />
  <sodipodi:namedview
     pagecolor="#ffffff"
     bordercolor="#666666"
     borderopacity="1"
     objecttolerance="10"
     gridtolerance="10"
     guidetolerance="10"
     inkscape:pageopacity="0"
     inkscape:pageshadow="2"
     inkscape:window-width="1680"
     inkscape:window-height="972"
     id="namedview28"
     showgrid="false"
     inkscape:zoom="6.3197669"
     inkscape:cx="16.927025"
     inkscape:cy="11.822699"
     inkscape:current-layer="svg26"
     inkscape:window-x="1360"
     inkscape:window-y="0"
     inkscape:window-maximized="1" />
  <rect
     style="opacity:1;fill:#0071e8;fill-opacity:1;fill-rule:evenodd;stroke:none;stroke-width:1.03534329;stroke-linecap:round;stroke-linejoin:bevel;stroke-miterlimit:4;stroke-dasharray:none;stroke-dashoffset:0;stroke-opacity:1"
     id="rect4497-3-3"
     width="28.203388"
     height="28.203388"
     x="1.8983059"
     y="1.8983059"
     ry="5.575182" />
  <path
     style="fill:#ffffff;stroke-width:0.02767381"
     d="m 18.452629,25.954935 c -0.849918,-0.219678 -1.52446,-0.84066 -1.803203,-1.660026 -0.177083,-0.520535 -0.135823,-1.13762 0.149935,-2.24242 0.124064,-0.479656 0.128801,-0.512496 0.127735,-0.885562 -10e-4,-0.375408 -0.04657,-0.769902 -0.136906,-1.187138 -0.02341,-0.108104 -0.0488,-0.227105 -0.05642,-0.264448 -0.0076,-0.03734 -0.06921,-0.258956 -0.13684,-0.492477 -0.132725,-0.458257 -0.141128,-0.510986 -0.08838,-0.554507 0.07676,-0.06333 1.025763,-0.47859 1.045588,-0.457521 0.01173,0.01247 0.285697,0.514569 0.608812,1.115783 0.323115,0.601212 1.032557,1.921253 1.576536,2.933423 0.543979,1.01217 1.015121,1.884151 1.046981,1.937737 0.15668,0.263516 0.195135,0.606887 0.09366,0.836293 -0.114626,0.259128 -0.405203,0.501406 -0.887137,0.739675 -0.397802,0.196674 -0.611819,0.250431 -0.98632,0.247748 -0.223699,-0.0016 -0.371339,-0.01934 -0.554033,-0.06656 z m 0.65577,-0.623714 c 0.323965,-0.125934 0.603136,-0.435998 0.724518,-0.804689 0.02706,-0.08219 0.05611,-0.267861 0.06455,-0.412592 0.01918,-0.328854 -0.0478,-0.625099 -0.218954,-0.968336 -0.230398,-0.462056 -0.717084,-0.851184 -1.177997,-0.941863 -0.682283,-0.13423 -1.309919,0.296449 -1.461439,1.002829 -0.0862,0.40185 -0.02919,0.776765 0.183542,1.207285 0.116153,0.235058 0.178994,0.323543 0.353761,0.498129 0.229294,0.229056 0.508087,0.394174 0.783701,0.464153 0.206538,0.05245 0.551066,0.03177 0.748318,-0.04491 z M 6.8635343,21.580214 C 6.2991274,21.443467 5.8660815,21.032363 5.6919556,20.467999 L 5.6263273,20.25529 5.6264877,14.415316 C 5.6266663,7.9916958 5.6164714,8.3767227 5.7961404,8.0080291 5.920609,7.7526119 6.2652365,7.4137604 6.5252168,7.2911717 6.9087149,7.1103406 6.420837,7.1210946 13.879332,7.1290576 l 6.787201,0.00725 0.197971,0.073548 c 0.269113,0.099979 0.462864,0.2296879 0.657217,0.4399857 0.196072,0.2121554 0.362124,0.5422846 0.402884,0.8009725 0.01819,0.1154349 0.02842,1.3833872 0.02855,3.5391472 l 2.21e-4,3.359267 -0.214472,-0.01921 C 21.56343,15.314298 21.05947,15.223766 20.770321,15.156014 l -0.06226,-0.01459 V 12.69181 c 0,-1.740469 -0.0091,-2.479821 -0.03126,-2.553956 C 20.628382,9.9762839 20.462441,9.7805257 20.29294,9.6850269 L 20.140734,9.5992709 17.391756,9.5854327 14.642779,9.5715944 14.319963,9.0183573 C 13.88337,8.2701291 13.681984,8.070511 13.240117,7.9479845 c -0.244581,-0.06782 -1.096075,-0.074083 -1.221957,-0.00898 -0.117867,0.060952 -0.145604,0.1886199 -0.134045,0.6169716 0.0094,0.3466162 0.01319,0.3674443 0.08008,0.4343115 0.04145,0.041429 0.119244,0.078595 0.189697,0.090625 l 0.119439,0.020387 0.08012,0.2197664 c 0.04407,0.120871 0.08012,0.2298008 0.08012,0.2420655 0,0.012268 -1.11145,0.02231 -2.4698873,0.022319 L 7.4937958,9.585472 7.3275018,9.664145 C 7.1422324,9.751794 7.0031076,9.8929703 6.9155736,10.082151 l -0.058269,0.125938 v 4.137236 c 0,4.726494 -0.022302,4.312262 0.2466078,4.58117 0.254878,0.254877 -0.1574217,0.234073 4.6389706,0.234073 h 4.225386 l 0.07152,0.255982 c 0.251336,0.899563 0.362305,1.715533 0.28603,2.10321 l -0.02042,0.103777 -4.641027,-0.0023 c -3.8762446,-0.0019 -4.6673629,-0.0087 -4.8008394,-0.04102 z M 8.3639826,20.7672 c 0.075118,-0.07512 0.090643,-0.19002 0.079984,-0.59204 -0.00899,-0.339232 -0.011474,-0.351522 -0.085937,-0.425965 -0.076499,-0.07647 -0.077741,-0.07668 -0.5220397,-0.08606 -0.5146753,-0.01087 -0.6143092,0.0022 -0.7050406,0.093 -0.063954,0.06395 -0.066094,0.07988 -0.066094,0.492563 0,0.389545 0.005,0.432783 0.057355,0.499386 l 0.057355,0.07292 h 0.565305 c 0.5229999,0 0.5693305,-0.0041 0.6191086,-0.0538 z m 2.4242594,-0.01412 c 0.06609,-0.06609 0.06792,-0.07915 0.06792,-0.483855 v -0.415928 l -0.08071,-0.09038 -0.0807,-0.09038 -0.46525,-0.0094 c -0.7560737,-0.01529 -0.7658339,-0.007 -0.752068,0.636985 0.011889,0.556226 -0.03501,0.520884 0.691206,0.520884 0.548824,0 0.552019,-3.51e-4 0.619596,-0.06792 z m 2.418192,-0.005 c 0.05239,-0.0666 0.05735,-0.109842 0.05735,-0.499387 0,-0.412682 -0.0022,-0.428606 -0.06609,-0.492562 -0.09073,-0.09073 -0.190365,-0.103875 -0.70504,-0.093 -0.444431,0.0094 -0.445519,0.0096 -0.52204,0.08614 l -0.07668,0.07673 v 0.426086 c 0,0.412857 0.0021,0.428303 0.06709,0.4975 l 0.06709,0.07142 h 0.56048 0.560481 z m 2.400928,0.01274 c 0.06182,-0.05808 0.06405,-0.07571 0.06405,-0.507142 0,-0.444604 -3.76e-4,-0.447325 -0.07136,-0.51406 -0.06838,-0.06429 -0.08988,-0.06748 -0.51512,-0.0765 -0.513022,-0.01088 -0.612752,0.0023 -0.703445,0.093 -0.06408,0.06407 -0.0661,0.0794 -0.0661,0.501429 0,0.601833 -0.04594,0.563436 0.674131,0.563436 0.530499,0 0.556481,-0.0025 0.617837,-0.06017 z M 8.3678563,8.9830766 8.448548,8.8927008 V 8.5030557 C 8.448548,8.0800262 8.423235,7.987842 8.2904663,7.9273487 8.2508581,7.9093002 8.0254132,7.8973168 7.7255979,7.8973168 H 7.2266433 l -0.08089,0.08089 -0.08089,0.08089 v 0.4249146 c 0,0.4540829 0.017462,0.5220026 0.1482482,0.5767043 0.03262,0.01364 0.2876249,0.022086 0.5666828,0.018764 l 0.5073774,-0.00604 z m 2.3368797,0.07115 c 0.126853,-0.057795 0.151433,-0.1490091 0.151433,-0.5619256 0,-0.5980579 -0.0058,-0.6026597 -0.742708,-0.5898576 -0.6575483,0.011423 -0.6237575,-0.017168 -0.6361559,0.5382565 -0.010223,0.4577719 0.01163,0.5491632 0.1451967,0.6073211 0.1128664,0.049141 0.9771142,0.054102 1.0822342,0.00621 z m 4.895334,-0.047864 c 0.07081,-0.066595 0.07134,-0.07033 0.07134,-0.5027834 0,-0.2396318 -0.0078,-0.4558532 -0.01719,-0.480492 -0.03983,-0.1038009 -0.154799,-0.1257714 -0.658141,-0.1257714 -0.296039,0 -0.510583,0.011949 -0.551799,0.030722 -0.109396,0.04984 -0.128886,0.1365271 -0.128886,0.5732431 0,0.435496 0.01846,0.5051516 0.148249,0.5594357 0.03262,0.01364 0.285605,0.022086 0.562195,0.018764 0.490202,-0.00587 0.504691,-0.00776 0.574232,-0.073125 z m 2.366641,0.040255 c 0.11211,-0.057976 0.139995,-0.1693861 0.139995,-0.5593357 0,-0.3923196 -0.03489,-0.5176915 -0.156999,-0.564117 -0.04686,-0.017816 -0.274274,-0.025813 -0.584943,-0.020576 l -0.508289,0.00854 -0.06673,0.077646 c -0.06411,0.074601 -0.06673,0.093945 -0.06673,0.4930293 0,0.2307921 0.01261,0.43894 0.02837,0.4683921 0.06201,0.115868 0.153596,0.1347938 0.657932,0.1359611 0.368736,8.541e-4 0.496819,-0.0082 0.557393,-0.039565 z m 2.409802,-0.00112 c 0.04446,-0.022992 0.09365,-0.065758 0.109321,-0.09504 0.01592,-0.02973 0.0285,-0.2366518 0.0285,-0.4686251 0,-0.3990817 -0.0026,-0.4184302 -0.06673,-0.4930293 l -0.06673,-0.077646 -0.504371,-0.0087 c -0.740779,-0.012786 -0.745863,-0.00876 -0.745863,0.5911319 0,0.4151044 0.02876,0.5133976 0.164859,0.5634596 0.0387,0.014235 0.279579,0.026865 0.53528,0.028065 0.363834,0.00173 0.482482,-0.0069 0.545737,-0.039617 z M 19.857075,21.238367 c -0.11035,-0.211334 -0.200635,-0.391695 -0.200635,-0.400803 0,-0.0091 0.167215,-0.01656 0.371588,-0.01656 0.36847,0 0.372069,-6.11e-4 0.428944,-0.07292 0.05239,-0.0666 0.05735,-0.109842 0.05735,-0.499387 0,-0.412683 -0.0022,-0.428606 -0.06609,-0.492563 -0.09069,-0.09069 -0.190423,-0.103878 -0.703444,-0.093 -0.425242,0.009 -0.446742,0.01221 -0.515122,0.0765 -0.03925,0.0369 -0.07136,0.0836 -0.07136,0.103777 0,0.06383 -0.03997,0.0381 -0.08412,-0.05415 -0.02343,-0.04897 -0.108569,-0.210457 -0.189187,-0.358858 l -0.14658,-0.26982 h 0.661631 c 0.786532,0 0.856296,-0.01516 1.074565,-0.233422 0.174965,-0.174967 0.233422,-0.332588 0.233422,-0.629395 0,-0.143869 0.0106,-0.216462 0.03162,-0.216462 0.01739,0 0.207302,0.09579 0.422025,0.212856 0.214723,0.117071 0.477578,0.258889 0.584122,0.315152 l 0.193717,0.102296 0.0073,0.751489 c 0.006,0.61516 -6.37e-4,0.782649 -0.03673,0.923252 -0.113973,0.443884 -0.420654,0.836808 -0.812081,1.040452 -0.268088,0.139474 -0.500232,0.195951 -0.80514,0.195874 l -0.235227,-5.5e-5 -0.200635,-0.384243 z m 5.597028,-1.326118 c -0.116391,-0.04126 -2.064362,-1.074431 -3.70829,-1.9668 -0.555248,-0.301404 -0.534517,-0.290263 -1.63899,-0.880775 -0.505709,-0.27038 -0.919778,-0.501447 -0.920154,-0.513482 -3.77e-4,-0.01204 0.101977,-0.247184 0.227451,-0.522551 0.165758,-0.363773 0.245327,-0.5085 0.291008,-0.529314 0.04911,-0.02237 0.10974,-0.01259 0.276912,0.04471 0.668665,0.229164 1.537567,0.385113 2.165043,0.388577 0.398125,0.0022 0.45181,-0.0039 0.747193,-0.08412 1.040478,-0.282762 1.846876,-0.352314 2.338437,-0.201692 0.997577,0.305674 1.718405,1.226471 1.775815,2.268453 0.0214,0.38837 -0.0324,0.667086 -0.195073,1.010476 -0.392795,0.829198 -0.855656,1.165109 -1.359352,0.986518 z m 0.110696,-1.084292 c 0.753708,-0.28212 1.042731,-1.021886 0.688885,-1.76323 -0.182865,-0.38312 -0.497259,-0.67971 -0.928533,-0.875952 -0.512969,-0.233414 -1.013266,-0.238393 -1.460518,-0.01454 -0.815315,0.408078 -0.93215,1.38719 -0.251779,2.109967 0.283218,0.30087 0.573283,0.473413 0.962032,0.572262 0.29346,0.07462 0.749484,0.06149 0.989913,-0.02851 z M 16.453921,18.28135 c -0.01691,-0.04533 -0.507211,-1.312802 -0.773227,-1.998851 -0.06787,-0.175036 -0.15174,-0.392968 -0.186378,-0.484292 -0.08108,-0.21377 -0.90461,-2.33988 -1.109437,-2.864239 C 14.223799,12.521601 13.518807,10.697874 13.23487,9.9590327 13.14713,9.7307234 12.987849,9.319968 12.880913,9.0462427 12.741871,8.6903392 12.695789,8.5426414 12.719153,8.5277825 c 0.0527,-0.033517 0.328234,-0.022353 0.440916,0.017859 0.247087,0.088177 0.276483,0.1290678 1.085704,1.5102495 0.209563,0.357684 0.539491,0.918078 0.733174,1.245322 0.193681,0.327243 0.704116,1.192741 1.134297,1.92333 0.723278,1.228363 1.371155,2.325113 1.59603,2.701817 0.140127,0.234737 0.132437,0.274727 -0.16988,0.883379 -0.239729,0.482642 -0.262848,0.543104 -0.262294,0.685955 3.71e-4,0.0958 0.02187,0.203524 0.05534,0.277295 0.03011,0.06635 0.05474,0.126307 0.05474,0.133238 0,0.0139 -0.363966,0.185616 -0.699856,0.330188 -0.194938,0.0839 -0.217271,0.0882 -0.23341,0.04493 z m -0.07174,-2.716803 c 0.194182,-0.08816 0.266958,-0.322391 0.162769,-0.523872 -0.06187,-0.119637 -0.25119,-0.20745 -0.390793,-0.18126 -0.200033,0.03753 -0.354429,0.272729 -0.305914,0.466023 0.02579,0.102738 0.149742,0.234223 0.247493,0.262523 0.128219,0.03712 0.158578,0.03464 0.286445,-0.02341 z m 2.374865,0.783617 c -0.169957,-0.07978 -0.327601,-0.08292 -0.518587,-0.01033 -0.08007,0.03044 -0.145674,0.05534 -0.145784,0.05534 -1.11e-4,7e-6 0.0043,-0.05652 0.0098,-0.125616 0.0055,-0.0691 0.0023,-0.166554 -0.0071,-0.216572 -0.0094,-0.05002 -0.177433,-0.363968 -0.373445,-0.697666 -0.196011,-0.333698 -0.3539,-0.609531 -0.350865,-0.612962 0.0047,-0.0053 1.764748,0.672867 1.9029,0.733146 0.04045,0.01765 0.01942,0.07954 -0.162123,0.476902 -0.114737,0.25114 -0.210376,0.457987 -0.212531,0.459661 -0.0022,0.0016 -0.06619,-0.02618 -0.142288,-0.06191 z M 14.60597,15.362859 C 14.34722,15.210161 13.898904,14.945317 13.609713,14.774316 13.320521,14.603314 12.79126,14.291687 12.433575,14.081812 12.075891,13.871936 11.515497,13.542006 11.188254,13.348633 10.861011,13.155261 10.418922,12.894053 10.205834,12.768172 9.9927455,12.64229 9.7842024,12.515204 9.7424046,12.485759 c -0.095675,-0.0674 -0.2127849,-0.265097 -0.24729,-0.417461 -0.030619,-0.135195 -0.00613,-0.351977 0.039798,-0.351977 0.017255,0 0.2064033,0.06819 0.4203298,0.151539 0.2139256,0.08335 0.8434986,0.326953 1.3990496,0.541345 0.555552,0.214393 1.365011,0.526931 1.798798,0.694529 0.433787,0.1676 0.857196,0.330601 0.94091,0.362224 0.08371,0.03163 0.166129,0.07119 0.183147,0.08792 0.01701,0.01673 0.108459,0.229674 0.203206,0.473203 0.414909,1.06645 0.61472,1.595623 0.60573,1.604193 -0.0053,0.0051 -0.221368,-0.115719 -0.480117,-0.268417 z"
     id="path851"
     inkscape:connector-curvature="0" />
  <path
     style="fill:#b2ece3;stroke-width:0.02767381;fill-opacity:1"
     d="m 18.452629,25.954929 c -0.849918,-0.219678 -1.52446,-0.84066 -1.803203,-1.660026 -0.177083,-0.520535 -0.135823,-1.13762 0.149935,-2.24242 0.124064,-0.479656 0.128801,-0.512496 0.127735,-0.885562 -10e-4,-0.375408 -0.04657,-0.769902 -0.136906,-1.187138 -0.02341,-0.108104 -0.0488,-0.227105 -0.05642,-0.264448 -0.0076,-0.03734 -0.06921,-0.258956 -0.13684,-0.492477 -0.132725,-0.458257 -0.141128,-0.510986 -0.08838,-0.554507 0.07676,-0.06333 1.025763,-0.47859 1.045588,-0.457521 0.01173,0.01247 0.285697,0.514569 0.608812,1.115783 0.323115,0.601212 1.032557,1.921253 1.576536,2.933423 0.543979,1.01217 1.015121,1.884151 1.046981,1.937737 0.15668,0.263516 0.195135,0.606887 0.09366,0.836293 -0.114626,0.259128 -0.405203,0.501406 -0.887137,0.739675 -0.397802,0.196674 -0.611819,0.250431 -0.98632,0.247748 -0.223699,-0.0016 -0.371339,-0.01934 -0.554033,-0.06656 z"
     id="path904"
     inkscape:connector-curvature="0" />
  <path
     style="fill:#0071e8;stroke-width:0.02767381;fill-opacity:1"
     d="m 19.108399,25.331215 c 0.323965,-0.125934 0.603136,-0.435998 0.724518,-0.804689 0.02706,-0.08219 0.05611,-0.267861 0.06455,-0.412592 0.01918,-0.328854 -0.0478,-0.625099 -0.218954,-0.968336 -0.230398,-0.462056 -0.717084,-0.851184 -1.177997,-0.941863 -0.682283,-0.13423 -1.309919,0.296449 -1.461439,1.002829 -0.0862,0.40185 -0.02919,0.776765 0.183542,1.207285 0.116153,0.235058 0.178994,0.323543 0.353761,0.498129 0.229294,0.229056 0.508087,0.394174 0.783701,0.464153 0.206538,0.05245 0.551066,0.03177 0.748318,-0.04491 z"
     id="path902"
     inkscape:connector-curvature="0" />
  <path
     style="fill:#b2ece3;stroke-width:0.02767381;fill-opacity:1"
     d="m 25.454103,19.912272 c -0.116391,-0.04126 -2.064362,-1.074431 -3.70829,-1.9668 -0.555248,-0.301404 -0.534517,-0.290263 -1.63899,-0.880775 -0.505709,-0.27038 -0.919778,-0.501447 -0.920154,-0.513482 -3.77e-4,-0.01204 0.101977,-0.247184 0.227451,-0.522551 0.165758,-0.363773 0.245327,-0.5085 0.291008,-0.529314 0.04911,-0.02237 0.10974,-0.01259 0.276912,0.04471 0.668665,0.229164 1.537567,0.385113 2.165043,0.388577 0.398125,0.0022 0.45181,-0.0039 0.747193,-0.08412 1.040478,-0.282762 1.846876,-0.352314 2.338437,-0.201692 0.997577,0.305674 1.718405,1.226471 1.775815,2.268453 0.0214,0.38837 -0.0324,0.667086 -0.195073,1.010476 -0.392795,0.829198 -0.855656,1.165109 -1.359352,0.986518 z"
     id="path878"
     inkscape:connector-curvature="0" />
  <path
     style="fill:#0071e8;stroke-width:0.02767381;fill-opacity:1"
     d="m 25.564799,18.82798 c 0.753708,-0.28212 1.042731,-1.021886 0.688885,-1.76323 -0.182865,-0.38312 -0.497259,-0.67971 -0.928533,-0.875952 -0.512969,-0.233414 -1.013266,-0.238393 -1.460518,-0.01454 -0.815315,0.408078 -0.93215,1.38719 -0.251779,2.109967 0.283218,0.30087 0.573283,0.473413 0.962032,0.572262 0.29346,0.07462 0.749484,0.06149 0.989913,-0.02851 z"
     id="path876"
     inkscape:connector-curvature="0" />
</svg>
