<?xml version="1.0" encoding="UTF-8" standalone="no"?>
<svg
   xmlns:dc="http://purl.org/dc/elements/1.1/"
   xmlns:cc="http://creativecommons.org/ns#"
   xmlns:rdf="http://www.w3.org/1999/02/22-rdf-syntax-ns#"
   xmlns:svg="http://www.w3.org/2000/svg"
   xmlns="http://www.w3.org/2000/svg"
   xmlns:sodipodi="http://sodipodi.sourceforge.net/DTD/sodipodi-0.dtd"
   xmlns:inkscape="http://www.inkscape.org/namespaces/inkscape"
   height="32"
   width="32"
   version="1"
   id="svg19"
   sodipodi:docname="marsshooter.svg"
   inkscape:version="0.92.1 r">
  <metadata
     id="metadata23">
    <rdf:RDF>
      <cc:Work
         rdf:about="">
        <dc:format>image/svg+xml</dc:format>
        <dc:type
           rdf:resource="http://purl.org/dc/dcmitype/StillImage" />
      </cc:Work>
    </rdf:RDF>
  </metadata>
  <sodipodi:namedview
     pagecolor="#ffffff"
     bordercolor="#666666"
     borderopacity="1"
     objecttolerance="10"
     gridtolerance="10"
     guidetolerance="10"
     inkscape:pageopacity="0"
     inkscape:pageshadow="2"
     inkscape:window-width="1680"
     inkscape:window-height="963"
     id="namedview21"
     showgrid="false"
     inkscape:zoom="7.375"
     inkscape:cx="-9.7627119"
     inkscape:cy="-5.6949153"
     inkscape:window-x="0"
     inkscape:window-y="0"
     inkscape:window-maximized="1"
     inkscape:current-layer="svg19" />
  <defs
     id="defs5">
    <clipPath
       id="clipPath4186"
       clipPathUnits="userSpaceOnUse">
      <circle
         cx="286"
         cy="26"
         r="10"
         fill="url(#linearGradient4190)"
         id="circle2" />
    </clipPath>
  </defs>
  <path
     id="path2"
     d="M 7.5331197,2.0000003 H 24.46688 C 27.521301,2.0000003 30,4.4786997 30,7.5331197 V 24.46688 C 30,27.521301 27.521301,30 24.46688,30 H 7.5331197 C 4.478699,30 2.0000002,27.521301 2.0000002,24.46688 V 7.5331197 c 0,-3.05442 2.4786988,-5.5331194 5.5331195,-5.5331194 z m 0,0"
     style="fill:#c23f2c;fill-opacity:1;fill-rule:evenodd;stroke:none;stroke-width:1.33333325"
     inkscape:connector-curvature="0" />
  <g
     id="g4502"
     transform="matrix(0.66190596,0,0,0.66190596,30.090744,9.8969924)"
     style="stroke-width:1.51078868">
    <path
       inkscape:connector-curvature="0"
       style="fill:#9b200d;fill-opacity:1;fill-rule:nonzero;stroke:none;stroke-width:2.01438475"
       d="m -21.288136,-7.1859109 c 9.057292,0 16.4062507,7.34895853 16.4062507,16.4062503 0,9.0572916 -7.3489587,16.4062506 -16.4062507,16.4062506 -9.057291,0 -16.40625,-7.348959 -16.40625,-16.4062506 0,-9.05729177 7.348959,-16.4062503 16.40625,-16.4062503 z m 0,0"
       id="path4" />
    <path
       inkscape:connector-curvature="0"
       style="fill:#e57452;fill-opacity:1;fill-rule:nonzero;stroke:none;stroke-width:2.01438475"
       d="m -21.288136,-7.1859109 c -2.067708,0 -4.036458,0.3958347 -5.859374,1.0885427 -0.130213,0.125 -0.302084,0.2187493 -0.4375,0.203124 -0.02084,0 -0.04167,-0.010413 -0.05729,-0.020832 -0.895834,0.375 -1.75,0.8385413 -2.557292,1.3593746 0.104173,0.1666667 0.135417,0.3593747 -0.07812,0.453124 -0.03645,0.015625 -0.494791,0.057292 -0.651042,0.057292 -2.296874,1.6666666 -4.135416,3.90625057 -5.3125,6.5260412 0.01563,0 0.03125,-0.0104 0.05208,-0.0104 0.177083,-0.0052 0.4375,0.04688 0.609375,0.083333 0.156251,0.031253 0.286459,0.135416 0.421875,0.1458333 0.390625,0.031253 0.484376,-0.2708333 0.796874,-0.4375 0.328126,0.041667 0.546876,-0.057293 0.843751,-0.02604 0.203125,0.02604 0.348959,0.2395827 0.505208,0.25 0.130209,0.015627 0.25,-0.1197866 0.375,-0.1041733 0.125,0.02084 0.338543,0.2916667 0.359375,0.442708 0.02604,0.1875 -0.140624,0.3593747 -0.08333,0.567708 0.197918,0.2031253 0.557292,0.244792 0.838543,0.359376 0.1875,-0.1510427 0.02604,-0.432292 0,-0.6562507 0,-0.093747 0.01563,-0.182292 0,-0.2708333 -0.01563,-0.1510413 -0.08333,-0.2864587 -0.08333,-0.4166667 0,-0.5989586 0.484374,-0.8802079 0.885416,-1.1145826 0.171876,-0.1041733 0.307292,-0.2864587 0.458333,-0.35937599 0.213543,-0.10937333 0.375,-0.135416 0.552084,-0.23437466 0.317708,-0.177084 0.588541,-0.322916 0.838541,-0.52604132 0.114587,-0.27083333 0.0104,-0.63541732 0.02084,-0.90104265 0.114587,-0.07292 0.213542,0.0312533 0.338542,0.02084 0.192708,-0.0416667 0.208333,-0.31250128 0.317708,-0.42187598 0.06251,-0.062493 0.234376,-0.1041733 0.312501,-0.1666667 0.192697,-0.1510573 0.255197,-0.375016 0.421864,-0.442724 0.0625,-0.020833 0.197916,-0.015625 0.291667,-0.041667 0.125,-0.031251 0.302082,-0.182292 0.505208,-0.25 0.135416,-0.046875 0.4375,-0.057292 0.484374,-0.1041667 0.06249,-0.067708 0,-0.244792 0.02084,-0.3385413 0.10416,-0.4739587 0.817703,-0.5729173 1.244785,-0.7343747 0.291667,-0.114584 0.598959,-0.3177093 0.921875,-0.2552093 -0.06249,0.2239587 -0.364583,0.1458333 -0.3125,0.421876 0.06771,0.380208 0.578125,-0.109376 0.713543,-0.1666667 0.255208,-0.109376 0.697916,-0.177084 1.031249,-0.2968759 0.296875,-0.1093747 0.828125,-0.2708334 0.546875,-0.6093747 -0.229167,-0.015625 -0.34375,0.2708333 -0.546875,0.3593747 -0.140625,0.020833 -0.109375,-0.1197907 -0.229167,-0.130208 -0.114584,-0.015625 -0.177082,0.1041666 -0.296874,0.083333 -0.114584,-0.015625 -0.276043,-0.197916 -0.296875,-0.3333333 -0.04167,-0.3541667 0.296875,-0.494792 0.442708,-0.7604173 -0.09375,-0.317708 -0.531251,-0.062499 -0.796876,-0.1874987 0.02084,-0.1875013 0.218751,-0.3177093 0.437501,-0.354168 0.182291,-0.031249 0.588542,-0.015624 0.697916,0.078125 0.06249,0.057292 0.0052,0.1875 0.104174,0.2760427 0.109373,0.098957 0.239584,0.088541 0.380208,0.062499 0.04687,-0.2395827 -0.312507,-0.1770827 -0.27084,-0.3385414 0.28125,-0.1822906 0.744792,-0.031249 1.09375,-0.083333 0.197916,-0.031249 0.40625,-0.1718747 0.588542,-0.2708333 0.166666,-0.093749 0.385416,-0.260416 0.5625,-0.1041667 0.05208,0.1718747 -0.15625,0.2291667 -0.25,0.3125 -0.322916,0.2864587 -0.651042,0.614584 -0.901042,0.9479173 0.151042,0.1510413 0.432291,0.072916 0.692708,0.1041667 0.09896,0.015624 0.223959,0.046875 0.333334,0.0625 0.125,0.020833 0.260417,0.015625 0.359374,0.041667 0.177084,0.046875 0.223959,0.2343747 0.395834,0.2343747 0.291666,0 0.291666,-0.3125 0.130213,-0.505208 0.05208,-0.2031253 0.130213,-0.302084 0.06249,-0.4427093 -0.130213,-0.260416 -0.604165,-0.015624 -0.630208,-0.3385413 -0.01563,-0.2083334 0.177084,-0.197916 0.25,-0.3541667 -0.03125,-0.4062493 0.333334,-0.4375 0.296875,-0.7968746 -0.02083,-0.1562494 -0.145831,-0.1562494 -0.255207,-0.2968747 -0.05208,-0.072917 -0.07813,-0.2031253 -0.140624,-0.2656253 -0.489584,-0.041667 -0.989584,-0.072917 -1.489584,-0.072917 z m -8.463541,3.3125013 c 0.09896,0.015624 0.213542,0.1197907 0.333334,0.125 0.114586,0.00521 0.208333,-0.057292 0.276041,-0.041667 0.177084,0.046875 0.25,0.3124987 0.08333,0.442708 -0.135417,0.015625 -0.192708,-0.057292 -0.291666,-0.041667 -0.286459,0.046875 -0.395834,0.6093747 -0.609375,0.5885414 -0.203125,-0.015625 -0.3125,-0.505208 -0.109376,-0.6510413 0.01563,-0.130208 -0.08855,-0.1510427 -0.08333,-0.2760427 0.05729,-0.078124 0.234376,-0.1614573 0.401042,-0.1458314 z m -0.947917,0.062499 c 0.05729,0.00521 0.104173,0.020835 0.125,0.041667 -0.02604,0.2239587 -0.203125,0.2135427 -0.375,0.3177094 -0.302083,0.1770826 -0.473957,0.4531253 -0.567708,0.8385413 -0.02604,0.114584 -0.322916,0.4114586 -0.463541,0.380208 -0.333334,-0.067708 0.08854,-0.6822907 0.166666,-0.7760414 0.08333,-0.1041666 0.197916,-0.197916 0.296875,-0.317708 0.09375,-0.114584 0.156249,-0.2708333 0.25,-0.3333333 0.104173,-0.072917 0.390625,-0.1562506 0.567708,-0.151043 z m 2.489584,0.7604173 c 0.104173,0 0.203125,0.015625 0.244792,0.0625 -0.06771,0.2760413 -0.666667,0.2031253 -0.885417,0.1041666 0.01563,-0.1041666 0.177084,-0.1354173 0.317708,-0.1510413 0.09375,0 0.213541,-0.020833 0.322917,-0.015625 z m -1.359376,0.5104173 c 0.06771,0 0.140625,0.015624 0.213543,0.036457 -0.192708,0.1614587 -0.401042,0.25 -0.734375,0.3541667 -0.156251,0.052084 -0.432292,0.114584 -0.463543,-0.0625 -0.03125,-0.2187493 0.234375,-0.1666667 0.38021,-0.1875 0.187498,-0.026041 0.385416,-0.135416 0.604165,-0.1406237 z m 20.8854168,1.2447906 c -0.02084,0.062493 -0.041667,0.1197867 -0.036453,0.177084 0.0104,0.1041734 0.1197867,0.19791602 0.1458333,0.33854135 0.015627,0.07292 -0.031253,0.22916666 0,0.29687466 0.1041734,0.19270933 0.369792,0.05208 0.557292,0.0624933 -0.2135413,-0.29687466 -0.432292,-0.59374931 -0.6666666,-0.87499991 z m 1.0781253,1.44791733 c -0.031253,0.14583333 -0.1302134,0.33333332 -0.2083334,0.45312399 -0.182292,0.28125066 -0.432292,0.29687599 -0.6979173,0.44270928 -0.2187493,0.125 -0.3125,0.3333334 -0.442708,0.5468747 -0.135416,0.2343747 -0.2239586,0.375 -0.1666666,0.7135413 -0.1875,0.375 -0.4739587,0.6041667 -0.8593747,0.7812507 -0.1197871,0.05208 -0.2760411,0.067707 -0.3802091,0.1458333 -0.08333,0.062493 -0.130214,0.2239586 -0.25,0.3541666 -0.151042,0.1666667 -0.302083,0.2343747 -0.380208,0.3593747 -0.06249,0.09896 -0.08333,0.2916667 -0.151042,0.4218747 -0.08855,0.177084 -0.276041,0.2656253 -0.395833,0.4427079 -0.05208,0.083333 -0.08855,0.25 -0.151041,0.359376 -0.130214,0.2395827 -0.359375,0.4166667 -0.333333,0.630208 0.02084,0.2031253 0.255207,0.239584 0.270833,0.4218747 0.0052,0.09896 -0.06771,0.1614586 -0.06249,0.2708333 0.0052,0.1614587 0.114587,0.2760413 0.125,0.4010413 0.03125,0.3125014 -0.104173,0.4375013 -0.161458,0.6510427 -0.03125,0.09896 -0.01563,0.2135413 -0.04688,0.2916666 -0.05208,0.1614587 -0.265625,0.3020827 -0.270833,0.4843747 0,0.1302133 0.135416,0.2395826 0.145833,0.4218746 0,0.125 -0.06249,0.2604174 -0.04167,0.3802094 0.04688,0.2291653 0.453124,0.4947906 0.630208,0.6718746 0.239583,0.239582 0.552084,0.421874 0.651041,0.671874 0.08855,0.213542 0.08855,0.489584 0.255208,0.651042 0.119787,0.119786 0.322918,0.192708 0.484376,0.317708 0.1458338,0.114586 0.3020831,0.213542 0.4583338,0.333333 0.260416,0.203125 0.6458333,0.598959 1.0520826,0.567709 0.2135413,-0.01563 0.432292,-0.1875 0.6718747,-0.229166 0.25,-0.04688 0.5729173,-0.06771 0.8229173,-0.04167 0.192708,0.02084 0.3906253,0.135416 0.5885413,0.125 0.2135413,-0.01563 0.4531253,-0.171876 0.6927093,-0.276041 0.192708,-0.08333 0.4322907,-0.177084 0.692708,-0.244792 0.1145813,-0.796875 0.1822907,-1.619792 0.1822907,-2.4531253 0,-3.3593746 -1.0052094,-6.4739585 -2.7239586,-9.06770777 z M -34.741261,5.6630475 c -0.348957,0.02084 -0.578125,0.036453 -0.776041,0.125 -0.453125,0.2083333 -0.364583,0.8229173 -0.817708,0.9687506 -0.161459,0.05208 -0.375,0.05208 -0.546875,0.088547 -0.151042,0.02604 -0.333333,0.1093733 -0.489584,0.1041733 -0.04167,0 -0.09896,-0.031253 -0.15625,-0.05208 -0.04167,0.2916667 -0.07292,0.5833333 -0.09896,0.875 0.432291,0.083333 0.65625,0.6562507 1.041667,0.8437506 0.104167,0.05208 0.239583,0.057293 0.375,0.088547 0.109375,0.02084 0.192708,0.067707 0.296875,0.1041733 0.218749,0.07292 0.494792,0.067707 0.671874,0.1458334 0.265626,0.1197866 0.463542,0.625 0.69271,0.7552093 0.01562,0.140624 -0.02604,0.322916 0.02083,0.421875 0.109376,0.145833 0.265625,0.114587 0.442709,0.213541 0.213541,0.114587 0.281249,0.411459 0.484375,0.505208 0.07292,0.03125 0.244792,0.02604 0.359374,0.05729 0.276043,0.08855 0.369792,0.411458 0.609376,0.338541 0.15625,-0.04688 0.140624,-0.208333 0.166667,-0.354167 0.104165,-0.114586 0.218749,-0.291666 0.380208,-0.296874 0.260416,-0.0104 0.281249,0.270833 0.380208,0.526041 0.05208,0.140625 0.192708,0.265625 0.229167,0.416667 0.06771,0.265625 0.03125,1.046876 -0.02084,1.203125 -0.06771,0.192708 -0.328126,0.270833 -0.484375,0.484375 -0.07812,0.09896 -0.114584,0.244792 -0.171876,0.317709 -0.104165,0.125 -0.255208,0.156249 -0.333333,0.270832 -0.04167,0.06771 -0.08333,0.208333 -0.125,0.291667 -0.130208,0.270834 -0.296875,0.458333 -0.192708,0.78125 0.04688,0.130214 0.255209,0.21875 0.255209,0.375 0,0.182292 -0.390625,0.348959 -0.421876,0.546875 -0.02083,0.151043 0.119792,0.416667 0.166667,0.614584 0.03646,0.145833 0.3125,0.234375 0.401041,0.333333 0.145835,0.166667 0.265625,0.401042 0.401043,0.609375 0.265624,0.411459 0.473957,0.911459 0.734374,1.307292 0.135418,0.208333 0.328126,0.395833 0.421875,0.609374 0.04688,0.109374 0.04167,0.239583 0.08333,0.338542 0.151042,0.338542 0.8125,0.692708 1.156251,0.859374 0.161457,0.07812 0.338541,0.104174 0.484375,0.187502 0.223958,0.125 0.666666,0.458333 0.776041,0.651041 0.104173,0.177083 0.166667,0.604167 0.213543,0.885416 0.06249,0.369792 0,0.651041 0.02083,1.052084 0.01563,0.218749 0.08333,0.432291 0.08333,0.651041 0,0.07292 -0.03645,0.130214 -0.04167,0.208334 0,0.01563 0.0052,0.02604 0.0052,0.04167 2.0625,0.932292 4.354166,1.468751 6.776041,1.468751 0.4375,0 0.869792,-0.02604 1.296875,-0.05729 0.02084,-0.03125 0.03645,-0.06771 0.06249,-0.09896 0.09896,-0.125 0.1875,-0.239584 0.25,-0.354167 0.06249,-0.385417 -0.151041,-0.651041 -0.06249,-0.989583 0.09896,-0.375 0.625,-0.609376 0.989584,-0.776042 0.125,-0.06249 0.255208,-0.15625 0.354166,-0.192708 0.255208,-0.08855 0.572916,-0.04167 0.802083,-0.125 0.395833,-0.140626 0.4375,-0.567708 0.630209,-0.927084 0.09375,-0.166667 0.213542,-0.338542 0.229166,-0.458334 0.01563,-0.109373 -0.03645,-0.213541 -0.02083,-0.338541 0.02083,-0.130213 0.135416,-0.239583 0.166667,-0.380208 0.04688,-0.182292 0.06771,-0.447917 0.06771,-0.651041 0,-0.166667 -0.07812,-0.3125 -0.08333,-0.463543 -0.02604,-0.541667 0.197916,-0.604165 0.395833,-0.901041 0.104174,-0.145834 0.140624,-0.317708 0.213542,-0.421875 0.338541,-0.505208 0.927082,-0.75 0.880208,-1.515625 -0.0104,-0.25 -0.171875,-0.822916 -0.354167,-0.901041 -0.109373,-0.04688 -0.354167,-0.0052 -0.505208,-0.06249 -0.5,-0.1875 -0.791667,-0.802082 -1.307292,-0.843749 -0.109373,-0.01563 -0.208333,0.04688 -0.333333,0.04167 -0.203126,-0.0104 -0.510416,-0.140626 -0.739583,-0.166667 -0.140625,-0.01563 -0.333333,0.04167 -0.416667,0 -0.135417,-0.06251 -0.145833,-0.307292 -0.255209,-0.380209 -0.08333,-0.05729 -0.25,-0.07812 -0.375,-0.125 -0.208333,-0.07812 -0.375,-0.171875 -0.609375,-0.1875 -0.07812,-0.0052 -0.166666,0.03125 -0.255208,0.02084 -0.130213,-0.02084 -0.234374,-0.177083 -0.359374,-0.255208 -0.151043,-0.09375 -0.291667,-0.135418 -0.354167,-0.270834 0.135416,-0.453125 -0.244792,-0.578125 -0.338543,-0.838541 -0.04167,-0.125 -0.02083,-0.270833 -0.06249,-0.380208 -0.05208,-0.156251 -0.208333,-0.25 -0.380209,-0.380209 -0.302083,-0.234375 -0.572916,-0.453124 -1.010416,-0.505208 -0.1875,-0.02604 -0.38021,0.05729 -0.609375,0.04167 -0.24478,-0.01567 -0.552072,-0.229206 -0.734364,-0.43754 -0.177083,-0.203125 -0.265624,-0.390625 -0.421875,-0.484374 -0.145833,-0.09375 -0.338541,-0.09375 -0.442708,-0.1875 -0.04167,-0.04167 -0.03645,-0.114587 -0.08333,-0.213542 -0.07292,-0.151042 -0.197917,-0.239584 -0.104173,-0.421876 -0.166667,-0.083333 -0.171875,0.161459 -0.359376,0.130214 -0.161457,-0.2343767 -0.296875,-0.3437513 -0.671875,-0.2760434 -0.166666,0.031253 -0.265624,0.2447924 -0.463541,0.2500004 -0.161459,0.01563 -0.286459,-0.177083 -0.5,-0.2083337 -0.166667,-0.02084 -0.348959,0.041667 -0.463541,0.02084 -0.182292,-0.036453 -0.234376,-0.182292 -0.401043,-0.2916666 -0.119787,-0.07812 -0.354165,-0.2135414 -0.421875,-0.2135414 -0.208333,0.015627 -0.359374,0.4531253 -0.651041,0.2968747 -0.140619,-0.1823027 0.229173,-0.276052 0.06251,-0.4427187 -0.130214,-0.1302133 -0.234375,0.057293 -0.338542,0.1302134 -0.114586,0.07812 -0.223958,0.1562506 -0.354166,0.2083333 -0.286459,0.1041733 -0.468751,0.04688 -0.692708,0.1666667 -0.213543,0.1093733 -0.218751,0.2864593 -0.338543,0.5052083 -0.09896,0.177084 -0.317708,0.432292 -0.463541,0.442709 -0.177084,0.01563 -0.343751,-0.244792 -0.505208,-0.3125 -0.479167,-0.208333 -0.713543,0.182292 -1.114584,0.1875 -0.369791,0.01563 -0.901042,-0.598958 -0.880208,-0.9479173 0,-0.2135414 0.119792,-0.5364587 0.145833,-0.7968747 0.02083,-0.2135413 0.166667,-0.3385413 0.166667,-0.5312506 0.0052,-0.2552134 -0.338542,-0.4479214 -0.505208,-0.4791707 -0.390626,-0.072917 -0.9375,0.1562493 -1.385418,-0.020835 -0.08854,-0.145832 0.09896,-0.2447906 0.145834,-0.380208 0.03125,-0.083333 0.01563,-0.1875 0.04167,-0.2708333 0.05208,-0.135416 0.19271,-0.2395826 0.255208,-0.380208 0.04688,-0.1093733 0.05729,-0.2656253 0.104168,-0.4010413 0.05208,-0.1510427 0.15625,-0.25 0.166667,-0.359376 0.01562,-0.140624 -0.03646,-0.3020826 -0.145835,-0.395832 z m 5.625,4.4531255 c 0.140626,0.01563 0.161459,0.307292 0.01563,0.333333 -0.156249,0.02604 -0.239583,-0.244792 -0.08333,-0.317708 0.02084,-0.01563 0.04688,-0.01563 0.06771,-0.0104 z m 0,0"
       id="path6" />
  </g>
</svg>
