<?xml version="1.0" encoding="UTF-8" standalone="no"?>
<svg
   xmlns:dc="http://purl.org/dc/elements/1.1/"
   xmlns:cc="http://creativecommons.org/ns#"
   xmlns:rdf="http://www.w3.org/1999/02/22-rdf-syntax-ns#"
   xmlns:svg="http://www.w3.org/2000/svg"
   xmlns="http://www.w3.org/2000/svg"
   xmlns:sodipodi="http://sodipodi.sourceforge.net/DTD/sodipodi-0.dtd"
   xmlns:inkscape="http://www.inkscape.org/namespaces/inkscape"
   width="32"
   height="32"
   version="1.1"
   viewBox="0 0 32 32"
   id="svg8"
   sodipodi:docname="start-here.svg"
   inkscape:version="0.92.1 r">
  <metadata
     id="metadata14">
    <rdf:RDF>
      <cc:Work
         rdf:about="">
        <dc:format>image/svg+xml</dc:format>
        <dc:type
           rdf:resource="http://purl.org/dc/dcmitype/StillImage" />
        <dc:title />
      </cc:Work>
    </rdf:RDF>
  </metadata>
  <defs
     id="defs12" />
  <sodipodi:namedview
     pagecolor="#ffffff"
     bordercolor="#666666"
     borderopacity="1"
     objecttolerance="10"
     gridtolerance="10"
     guidetolerance="10"
     inkscape:pageopacity="0"
     inkscape:pageshadow="2"
     inkscape:window-width="1680"
     inkscape:window-height="987"
     id="namedview10"
     showgrid="false"
     inkscape:zoom="12.120252"
     inkscape:cx="1.6028707"
     inkscape:cy="11.367304"
     inkscape:window-x="0"
     inkscape:window-y="0"
     inkscape:window-maximized="1"
     inkscape:current-layer="svg8" />
  <rect
     style="opacity:1;fill:#388dff;fill-opacity:1;fill-rule:evenodd;stroke:none;stroke-width:1.03534329;stroke-linecap:round;stroke-linejoin:bevel;stroke-miterlimit:4;stroke-dasharray:none;stroke-dashoffset:0;stroke-opacity:1"
     id="rect4497-3"
     width="28.203388"
     height="28.203388"
     x="1.8983059"
     y="1.8983059"
     ry="5.575182" />
  <path
     style="fill:#fefeff;fill-opacity:1;stroke-width:0.07152183"
     d="m 15.403393,25.56096 c -2.26769,-0.204941 -4.29991,-1.172282 -5.9638821,-2.838825 -0.523429,-0.524235 -0.7331,-0.783473 -0.7331,-0.906403 0,-0.138841 0.122658,-0.249571 0.633561,-0.571938 0.348462,-0.219873 0.6751961,-0.399767 0.7260831,-0.399767 0.05089,0 0.385344,0.282454 0.743235,0.627677 1.067519,1.029734 2.086747,1.619927 3.455548,2.000979 0.645556,0.17971 0.799409,0.194551 1.987125,0.191722 1.15752,-0.0029 1.356798,-0.02186 1.975351,-0.189356 1.355663,-0.367077 2.42748,-0.991477 3.469807,-2.021378 2.207111,-2.18079 2.883599,-5.426412 1.734146,-8.319994 C 22.613064,11.07397 20.88668,9.4144313 18.826748,8.7074399 15.895439,7.7013814 12.696525,8.4807754 10.583929,10.71575 c -0.245814,0.260057 -0.478087,0.472829 -0.516165,0.472829 -0.09923,0 -1.2368101,-0.718184 -1.3434741,-0.848173 -0.04917,-0.05992 -0.0894,-0.130921 -0.0894,-0.157777 0,-0.08591 0.757244,-0.9009867 1.262927,-1.3593848 2.7873861,-2.5267271 6.9738321,-3.1423761 10.3879901,-1.5276314 2.864426,1.3547504 4.897573,4.0497612 5.410826,7.1722572 0.175765,1.069299 0.11411,2.777443 -0.136135,3.771611 -0.622843,2.474411 -2.059119,4.485362 -4.183095,5.856805 -1.720527,1.110938 -3.920334,1.650277 -5.97401,1.464674 z M 6.2031463,15.923299 V 9.6998693 L 11.44212,12.792336 c 2.881437,1.700856 5.238973,3.116281 5.238973,3.145382 0,0.04576 -10.1477693,6.075565 -10.3885431,6.172876 -0.071115,0.02875 -0.089404,-1.236965 -0.089404,-6.187295 z m 8.9927147,5.956757 c -0.722208,-0.136985 -1.569178,-0.466778 -2.130466,-0.829554 -0.560487,-0.362262 -1.283548,-1.045357 -1.283548,-1.212604 0,-0.143346 1.168471,-0.924178 1.383705,-0.924663 0.07264,-1.42e-4 0.272365,0.123198 0.443837,0.274137 0.413588,0.364051 1.034495,0.687241 1.605509,0.835686 0.667188,0.173441 1.797418,0.116301 2.442209,-0.123474 1.198135,-0.445543 2.136712,-1.476949 2.520515,-2.769791 0.145485,-0.490065 0.150636,-1.618117 0.0098,-2.147313 -0.39487,-1.483791 -1.634069,-2.653081 -3.148723,-2.971084 -0.62962,-0.132191 -1.014844,-0.132555 -1.633188,-0.0017 -0.626716,0.132789 -1.116881,0.361481 -1.666631,0.77758 -0.241421,0.182728 -0.490479,0.332234 -0.553461,0.332234 -0.06299,0 -0.404552,-0.180266 -0.759045,-0.400586 -0.833023,-0.517732 -0.837215,-0.573781 -0.09023,-1.20598 2.356621,-1.9945097 5.749914,-1.9315737 7.953863,0.147521 1.263602,1.192021 1.892039,2.657607 1.883028,4.391441 -0.0031,0.595751 -0.04575,0.980239 -0.154734,1.394675 -0.320248,1.217862 -1.100372,2.437549 -2.046709,3.199934 -0.569102,0.458478 -1.554404,0.957486 -2.233858,1.131341 -0.750461,0.192027 -1.83741,0.235658 -2.541873,0.102038 z"
     id="path4487"
     inkscape:connector-curvature="0"
     sodipodi:nodetypes="ssscsssssssssscsssssssscsscsccscssscsscssssscssscc" />
</svg>
