<?xml version="1.0" encoding="UTF-8" standalone="no"?>
<svg
   xmlns:dc="http://purl.org/dc/elements/1.1/"
   xmlns:cc="http://creativecommons.org/ns#"
   xmlns:rdf="http://www.w3.org/1999/02/22-rdf-syntax-ns#"
   xmlns:svg="http://www.w3.org/2000/svg"
   xmlns="http://www.w3.org/2000/svg"
   xmlns:sodipodi="http://sodipodi.sourceforge.net/DTD/sodipodi-0.dtd"
   xmlns:inkscape="http://www.inkscape.org/namespaces/inkscape"
   height="32"
   viewBox="0 0 32 32"
   width="32"
   version="1.1"
   id="svg44"
   sodipodi:docname="mcomix.svg"
   inkscape:version="0.92.1 r">
  <metadata
     id="metadata50">
    <rdf:RDF>
      <cc:Work
         rdf:about="">
        <dc:format>image/svg+xml</dc:format>
        <dc:type
           rdf:resource="http://purl.org/dc/dcmitype/StillImage" />
      </cc:Work>
    </rdf:RDF>
  </metadata>
  <defs
     id="defs48" />
  <sodipodi:namedview
     pagecolor="#ffffff"
     bordercolor="#666666"
     borderopacity="1"
     objecttolerance="10"
     gridtolerance="10"
     guidetolerance="10"
     inkscape:pageopacity="0"
     inkscape:pageshadow="2"
     inkscape:window-width="640"
     inkscape:window-height="480"
     id="namedview46"
     showgrid="false"
     inkscape:zoom="8.9375"
     inkscape:cx="-27.85478"
     inkscape:cy="20.362021"
     inkscape:current-layer="svg44" />
  <rect
     style="opacity:1;fill:#966129;fill-opacity:1;fill-rule:evenodd;stroke:none;stroke-width:1.03534329;stroke-linecap:round;stroke-linejoin:bevel;stroke-miterlimit:4;stroke-dasharray:none;stroke-dashoffset:0;stroke-opacity:1"
     id="rect4497-3-3"
     width="28.203388"
     height="28.203388"
     x="1.8983059"
     y="1.8983059"
     ry="5.575182" />
  <g
     id="g4560"
     transform="matrix(1.0843102,0,0,1.0843102,48.028856,7.198825)"
     style="stroke-width:0.92224532">
    <path
       inkscape:connector-curvature="0"
       id="path8"
       style="fill:#f8bb88;fill-opacity:1;stroke-width:0.92224526"
       d="m -36.236173,3.1989839 a 4.5826446,4.5826446 0 0 0 -4.582645,4.5826434 4.5826446,4.5826446 0 0 0 4.582645,4.5826447 4.5826446,4.5826446 0 0 0 4.582644,-4.5826447 4.5826446,4.5826446 0 0 0 -4.582644,-4.5826434 z" />
    <path
       inkscape:connector-curvature="0"
       id="path14"
       d="m -36.236174,5.3140502 a 2.4675778,2.4675778 0 0 0 -2.467577,2.4675778 2.4675778,2.4675778 0 0 0 2.467577,2.467578 2.4675778,2.4675778 0 0 0 2.467579,-2.467578 2.4675778,2.4675778 0 0 0 -2.467579,-2.4675778 z"
       style="fill:#b3733f;fill-opacity:1;stroke-width:0.92224526" />
    <path
       inkscape:connector-curvature="0"
       id="path16"
       d="m -22.840751,3.1989839 a 4.5826446,4.5826446 0 0 0 -4.582644,4.5826434 4.5826446,4.5826446 0 0 0 4.582644,4.5826447 4.5826446,4.5826446 0 0 0 4.582645,-4.5826447 4.5826446,4.5826446 0 0 0 -4.582645,-4.5826434 z"
       style="fill:#f8bb88;fill-opacity:1;stroke-width:0.92224526" />
    <path
       inkscape:connector-curvature="0"
       id="path22"
       style="fill:#b3733f;fill-opacity:1;stroke-width:0.92224526"
       d="m -22.840751,5.3140502 a 2.4675778,2.4675778 0 0 0 -2.467578,2.4675778 2.4675778,2.4675778 0 0 0 2.467578,2.467578 2.4675778,2.4675778 0 0 0 2.467578,-2.467578 2.4675778,2.4675778 0 0 0 -2.467578,-2.4675778 z" />
    <path
       inkscape:connector-curvature="0"
       id="path24"
       d="m -29.538462,1.0839159 a 7.7552446,7.7552446 0 0 1 0.595187,0.024948 7.7552446,7.7552446 0 0 0 -0.595187,-0.024948 z m 0,0 a 7.7552446,7.7552446 0 0 0 -6.818806,4.0763153 7.7552446,7.7552446 0 0 1 6.818806,-4.0763153 z m 0.967624,0.070389 a 7.7552446,7.7552446 0 0 1 0.406295,0.055242 7.7552446,7.7552446 0 0 0 -0.406295,-0.055242 z m 0.719926,0.1256306 a 7.7552446,7.7552446 0 0 1 0.448172,0.1069198 7.7552446,7.7552446 0 0 0 -0.448172,-0.1069198 z m 0.720817,0.1978015 a 7.7552446,7.7552446 0 0 1 0.462429,0.1612708 7.7552446,7.7552446 0 0 0 -0.462429,-0.1612708 z m 0.686959,0.2610624 a 7.7552446,7.7552446 0 0 1 0.492722,0.2289865 7.7552446,7.7552446 0 0 0 -0.492722,-0.2289865 z m 0.637064,0.3118493 a 7.7552446,7.7552446 0 0 1 0.523907,0.3100674 7.7552446,7.7552446 0 0 0 -0.523907,-0.3100674 z m 0.655775,0.4045128 a 7.7552446,7.7552446 0 0 1 0.498067,0.3670913 7.7552446,7.7552446 0 0 0 -0.498067,-0.3670913 z m 0.587166,0.4454991 a 7.7552446,7.7552446 0 0 1 0.489158,0.441044 7.7552446,7.7552446 0 0 0 -0.489158,-0.441044 z m 0.558656,0.5158876 a 7.7552446,7.7552446 0 0 1 0.4553,0.5025229 7.7552446,7.7552446 0 0 0 -0.4553,-0.5025229 z m -9.411609,0.4045132 a 3.8776224,3.8776224 0 0 0 -2.960786,1.3730281 7.7552446,7.7552446 0 0 0 -9.16e-4,8.883e-4 7.7552446,7.7552446 0 0 0 -0.915947,3.6441599 7.7552446,7.7552446 0 0 0 7.755244,7.7552673 7.7552446,7.7552446 0 0 0 7.755245,-7.7552448 7.7552446,7.7552446 0 0 0 -0.903471,-3.6227969 3.8776224,3.8776224 0 0 0 -9.17e-4,-0.00178 3.8776224,3.8776224 0 0 0 -2.973237,-1.3935238 3.8776224,3.8776224 0 0 0 -3.877623,3.8776224 3.8776224,3.8776224 0 0 0 0.01158,0.2280952 h -0.01961 a 3.8776224,3.8776224 0 0 0 0.008,-0.2280952 3.8776224,3.8776224 0 0 0 -3.877623,-3.8776224 z m 10.728504,1.393521 a 7.7552446,7.7552446 0 0 0 -0.388475,-0.6548837 7.7552446,7.7552446 0 0 1 0.388475,0.6548837 z M -23.50908,3.97164 A 7.7552446,7.7552446 0 0 1 -23.083182,4.5481156 7.7552446,7.7552446 0 0 0 -23.50908,3.97164 Z"
       style="fill:#f59d56;fill-opacity:1;stroke-width:0.92224526" />
    <path
       inkscape:connector-curvature="0"
       id="path28"
       d="m -29.538462,1.0839159 a 7.7552446,7.7552446 0 0 0 -6.839299,4.1110638 3.8776224,3.8776224 0 0 1 2.961677,-1.3739186 3.8776224,3.8776224 0 0 1 3.877622,3.8776224 3.8776224,3.8776224 0 0 1 3.877623,-3.8776224 3.8776224,3.8776224 0 0 1 2.97415,1.3953026 7.7552446,7.7552446 0 0 0 -6.851773,-4.1324478 z m 0,6.6147676 a 3.8776224,3.8776224 0 0 1 -0.008,0.2280952 h 0.01961 a 3.8776224,3.8776224 0 0 1 -0.01159,-0.2280952 z"
       style="opacity:1;fill:#b3733f;fill-opacity:1;stroke-width:0.92224526" />
    <circle
       id="circle32"
       r="1.4100444"
       cy="8.8391609"
       cx="-32.358551"
       style="opacity:1;fill:#3f3f3f;fill-opacity:1;stroke-width:0.92224526" />
    <circle
       id="circle36"
       style="opacity:1;fill:#3f3f3f;fill-opacity:1;stroke-width:0.92224526"
       cx="-26.718372"
       cy="8.8391609"
       r="1.4100444" />
    <path
       inkscape:connector-curvature="0"
       id="path40"
       d="m -33.055735,12.357868 a 0.70509274,0.70509274 0 0 0 -0.466801,1.246182 c 0,0 1.75108,1.580792 3.983651,1.580792 2.23257,0 3.985028,-1.580792 3.985028,-1.580792 a 0.70509274,0.70509274 0 1 0 -0.918457,-1.069926 c 0,0 -1.539023,1.240674 -3.066571,1.240674 -1.527549,0 -3.065195,-1.240674 -3.065195,-1.240674 a 0.70509274,0.70509274 0 0 0 -0.451655,-0.176256 z"
       style="color:#000000;font-style:normal;font-variant:normal;font-weight:normal;font-stretch:normal;font-size:medium;line-height:normal;font-family:sans-serif;font-variant-ligatures:normal;font-variant-position:normal;font-variant-caps:normal;font-variant-numeric:normal;font-variant-alternates:normal;font-feature-settings:normal;text-indent:0;text-align:start;text-decoration:none;text-decoration-line:none;text-decoration-style:solid;text-decoration-color:#000000;letter-spacing:normal;word-spacing:normal;text-transform:none;writing-mode:lr-tb;direction:ltr;text-orientation:mixed;dominant-baseline:auto;baseline-shift:baseline;text-anchor:start;white-space:normal;shape-padding:0;clip-rule:nonzero;display:inline;overflow:visible;visibility:visible;opacity:1;isolation:auto;mix-blend-mode:normal;color-interpolation:sRGB;color-interpolation-filters:linearRGB;solid-color:#000000;solid-opacity:1;vector-effect:none;fill:#3f3f3f;fill-opacity:1;fill-rule:nonzero;stroke:none;stroke-width:1.84449053;stroke-linecap:round;stroke-linejoin:round;stroke-miterlimit:4;stroke-dasharray:none;stroke-dashoffset:0;stroke-opacity:1;color-rendering:auto;image-rendering:auto;shape-rendering:auto;text-rendering:auto;enable-background:accumulate" />
  </g>
</svg>
