<?xml version="1.0" encoding="UTF-8" standalone="no"?>
<svg
   xmlns:dc="http://purl.org/dc/elements/1.1/"
   xmlns:cc="http://creativecommons.org/ns#"
   xmlns:rdf="http://www.w3.org/1999/02/22-rdf-syntax-ns#"
   xmlns:svg="http://www.w3.org/2000/svg"
   xmlns="http://www.w3.org/2000/svg"
   xmlns:sodipodi="http://sodipodi.sourceforge.net/DTD/sodipodi-0.dtd"
   xmlns:inkscape="http://www.inkscape.org/namespaces/inkscape"
   width="32"
   height="32"
   version="1.1"
   viewBox="0 0 32 32"
   id="svg14"
   sodipodi:docname="mstdn.svg"
   inkscape:version="0.92.1 r">
  <metadata
     id="metadata20">
    <rdf:RDF>
      <cc:Work
         rdf:about="">
        <dc:format>image/svg+xml</dc:format>
        <dc:type
           rdf:resource="http://purl.org/dc/dcmitype/StillImage" />
      </cc:Work>
    </rdf:RDF>
  </metadata>
  <defs
     id="defs18" />
  <sodipodi:namedview
     pagecolor="#ffffff"
     bordercolor="#666666"
     borderopacity="1"
     objecttolerance="10"
     gridtolerance="10"
     guidetolerance="10"
     inkscape:pageopacity="0"
     inkscape:pageshadow="2"
     inkscape:window-width="640"
     inkscape:window-height="480"
     id="namedview16"
     showgrid="false"
     inkscape:zoom="8.9375"
     inkscape:cx="-5.3706294"
     inkscape:cy="16"
     inkscape:current-layer="svg14" />
  <rect
     style="opacity:1;fill:#0286c2;fill-opacity:1;fill-rule:evenodd;stroke:none;stroke-width:1.03534329;stroke-linecap:round;stroke-linejoin:bevel;stroke-miterlimit:4;stroke-dasharray:none;stroke-dashoffset:0;stroke-opacity:1"
     id="rect4497-3"
     width="28.203388"
     height="28.203388"
     x="1.8983059"
     y="1.8983059"
     ry="5.575182"
     inkscape:export-filename="/home/ramil/3.png"
     inkscape:export-xdpi="71"
     inkscape:export-ydpi="71" />
  <g
     id="g4506"
     transform="translate(42.24126,-2.461537)">
    <path
       inkscape:connector-curvature="0"
       id="rect4"
       d="m -29.551151,7.3437762 c -3.666068,0 -6.616681,3.0601728 -6.616681,6.8617428 v 3.378137 0.369145 c 0,0.119584 0.01129,0.235589 0.01706,0.353634 0.0593,2.648687 0.410693,7.135676 2.098541,9.057998 1.700435,1.936659 5.667549,2.214866 7.269663,2.214866 2.847189,0 4.114875,-1.115188 4.114875,-1.115188 v -1.831763 c 0,0 -1.717615,0.600596 -3.745731,0.564574 -1.39272,-0.02474 -2.585395,-0.389642 -3.184258,-1.292006 -0.216111,-0.325638 -0.2005,-0.646299 -0.266777,-1.107433 0.104676,0.0051 0.207385,0.01706 0.313308,0.01706 h 6.619783 c 3.666068,0 6.616681,-3.060173 6.616681,-6.861743 v -3.747282 c 0,-3.80157 -2.950613,-6.861743 -6.616681,-6.861743 z"
       style="fill:#ffffff;stroke-width:1" />
    <circle
       id="circle10"
       r="1.1911888"
       cy="14.093845"
       cx="-30.211887"
       style="fill:#0286c2;fill-opacity:1;stroke-width:1" />
  </g>
</svg>
