<?xml version="1.0" encoding="UTF-8" standalone="no"?>
<svg
   xmlns:dc="http://purl.org/dc/elements/1.1/"
   xmlns:cc="http://creativecommons.org/ns#"
   xmlns:rdf="http://www.w3.org/1999/02/22-rdf-syntax-ns#"
   xmlns:svg="http://www.w3.org/2000/svg"
   xmlns="http://www.w3.org/2000/svg"
   xmlns:sodipodi="http://sodipodi.sourceforge.net/DTD/sodipodi-0.dtd"
   xmlns:inkscape="http://www.inkscape.org/namespaces/inkscape"
   height="32"
   width="32"
   version="1"
   id="svg20"
   sodipodi:docname="qtoctave.svg"
   inkscape:version="0.92.1 r">
  <metadata
     id="metadata26">
    <rdf:RDF>
      <cc:Work
         rdf:about="">
        <dc:format>image/svg+xml</dc:format>
        <dc:type
           rdf:resource="http://purl.org/dc/dcmitype/StillImage" />
      </cc:Work>
    </rdf:RDF>
  </metadata>
  <defs
     id="defs24" />
  <sodipodi:namedview
     pagecolor="#ffffff"
     bordercolor="#666666"
     borderopacity="1"
     objecttolerance="10"
     gridtolerance="10"
     guidetolerance="10"
     inkscape:pageopacity="0"
     inkscape:pageshadow="2"
     inkscape:window-width="640"
     inkscape:window-height="480"
     id="namedview22"
     showgrid="false"
     inkscape:zoom="8.9375"
     inkscape:cx="-5.3706294"
     inkscape:cy="16"
     inkscape:current-layer="svg20" />
  <rect
     style="opacity:1;fill:#cccccc;fill-opacity:1;fill-rule:evenodd;stroke:none;stroke-width:1.03534329;stroke-linecap:round;stroke-linejoin:bevel;stroke-miterlimit:4;stroke-dasharray:none;stroke-dashoffset:0;stroke-opacity:1"
     id="rect4497-6"
     width="28.203388"
     height="28.203388"
     x="1.8983059"
     y="1.8983059"
     ry="5.575182" />
  <g
     id="g4513"
     transform="translate(53.534965,13.762238)">
    <path
       style="fill:#3c8cf8"
       inkscape:connector-curvature="0"
       id="path4"
       d="m -37.034965,-8.7622378 a 11,11 0 0 0 -11,11 11,11 0 0 0 11,10.9999998 11,11 0 0 0 11,-10.9999998 11,11 0 0 0 -11,-11 z m 1.25,2.5 a 8.25,8.25 0 0 1 8.25,8.25 8.25,8.25 0 0 1 -8.25,8.2499998 8.25,8.25 0 0 1 -8.25,-8.2499998 8.25,8.25 0 0 1 8.25,-8.25 z" />
    <rect
       style="fill:#fc924d"
       id="rect6"
       x="-49.034966"
       y="-1.7622378"
       width="8"
       height="8"
       ry="1.6"
       rx="1.6" />
    <rect
       style="fill:#fc924d"
       id="rect8"
       x="-31.034966"
       y="4.2377625"
       width="5"
       height="5"
       ry="1"
       rx="1" />
    <rect
       style="fill:#fc924d"
       id="rect10"
       x="-33.034966"
       y="-7.7622375"
       width="4"
       height="4"
       ry="0.80000001"
       rx="0.80000001" />
  </g>
</svg>
