<?xml version="1.0" encoding="UTF-8" standalone="no"?>
<svg
   xmlns:dc="http://purl.org/dc/elements/1.1/"
   xmlns:cc="http://creativecommons.org/ns#"
   xmlns:rdf="http://www.w3.org/1999/02/22-rdf-syntax-ns#"
   xmlns:svg="http://www.w3.org/2000/svg"
   xmlns="http://www.w3.org/2000/svg"
   xmlns:sodipodi="http://sodipodi.sourceforge.net/DTD/sodipodi-0.dtd"
   xmlns:inkscape="http://www.inkscape.org/namespaces/inkscape"
   height="32"
   width="32"
   version="1"
   id="svg48"
   sodipodi:docname="office_section.svg"
   inkscape:version="0.92.2 2405546, 2018-03-11">
  <metadata
     id="metadata54">
    <rdf:RDF>
      <cc:Work
         rdf:about="">
        <dc:format>image/svg+xml</dc:format>
        <dc:type
           rdf:resource="http://purl.org/dc/dcmitype/StillImage" />
        <dc:title></dc:title>
      </cc:Work>
    </rdf:RDF>
  </metadata>
  <defs
     id="defs52" />
  <sodipodi:namedview
     pagecolor="#ffffff"
     bordercolor="#666666"
     borderopacity="1"
     objecttolerance="10"
     gridtolerance="10"
     guidetolerance="10"
     inkscape:pageopacity="0"
     inkscape:pageshadow="2"
     inkscape:window-width="1680"
     inkscape:window-height="972"
     id="namedview50"
     showgrid="false"
     inkscape:zoom="10.429825"
     inkscape:cx="20.650053"
     inkscape:cy="14.359288"
     inkscape:window-x="0"
     inkscape:window-y="0"
     inkscape:window-maximized="1"
     inkscape:current-layer="svg48"
     showguides="true"
     inkscape:guide-bbox="true" />
  <rect
     style="opacity:1;fill:#e9803b;fill-opacity:1;fill-rule:evenodd;stroke:none;stroke-width:1.03534329;stroke-linecap:round;stroke-linejoin:bevel;stroke-miterlimit:4;stroke-dasharray:none;stroke-dashoffset:0;stroke-opacity:1"
     id="rect4497-3"
     width="28.203388"
     height="28.203388"
     x="1.8983059"
     y="1.8983059"
     ry="5.575182" />
  <path
     style="fill:#ffffff;stroke-width:0.04252674"
     d="M 9.2366019,25.082167 C 9.0323445,24.97917 8.8554806,24.707811 8.8554806,24.497425 c 0,-0.06026 0.043062,-0.194945 0.095686,-0.299308 0.1436717,-0.284907 0.3633461,-0.38112 0.8701785,-0.38112 H 10.216339 V 22.796355 21.775714 H 9.1409174 c -1.0306777,0 -1.0833155,-0.004 -1.2651706,-0.09569 -0.1386184,-0.0699 -0.2155348,-0.146816 -0.285435,-0.285435 l -0.095686,-0.18975 V 17.012715 12.82059 l 0.095686,-0.18975 c 0.1029983,-0.204257 0.3743562,-0.38112 0.5847436,-0.38112 0.2103854,0 0.4817415,0.176863 0.5847416,0.38112 l 0.095686,0.18975 v 3.797133 3.797133 h 2.436278 2.436275 l 0.18975,0.09569 c 0.204258,0.102998 0.38112,0.374356 0.38112,0.584742 0,0.210387 -0.176862,0.481742 -0.38112,0.584743 -0.181855,0.09171 -0.234492,0.09569 -1.26517,0.09569 h -1.075421 v 1.020642 1.020642 l 0.393371,9.36e-4 c 0.4683,0.0011 0.706385,0.08765 0.838902,0.304912 0.129518,0.212349 0.149252,0.393242 0.06652,0.609857 -0.229912,0.602016 -1.073051,0.56314 -1.259167,-0.05806 l -0.05309,-0.177216 h -0.670316 -0.670318 l -0.02606,0.118666 c -0.04656,0.21201 -0.189184,0.393922 -0.3749447,0.478248 -0.2348007,0.106586 -0.3549342,0.104084 -0.5854861,-0.01217 z m 6.1238501,0 c -0.138618,-0.0699 -0.215533,-0.146816 -0.285435,-0.285435 l -0.09569,-0.189748 V 22.172502 19.73802 L 12.778568,19.72559 C 10.620476,19.713403 10.573924,19.71137 10.377205,19.62048 10.095436,19.490309 9.7763414,19.177214 9.6574302,18.914241 L 9.5571751,18.692517 v -3.019399 c 0,-2.87944 0.00376,-3.029248 0.081945,-3.231908 0.1073543,-0.278377 0.4378899,-0.624181 0.7174749,-0.750619 0.207653,-0.09391 0.270755,-0.09998 1.029224,-0.09904 1.021475,0.0012 1.04696,0.0097 2.304798,0.765387 l 0.943941,0.567083 1.161132,0.01369 c 1.265385,0.01492 1.294953,0.02025 1.579663,0.28434 0.4965,0.460552 0.370102,1.306109 -0.244397,1.63493 -0.169254,0.09057 -0.214053,0.09317 -1.59878,0.09317 H 14.10753 L 13.873633,14.820399 C 13.74499,14.749031 13.481855,14.59102 13.28889,14.469262 l -0.350845,-0.221381 v 1.720169 1.720173 l 1.520332,0.01308 c 1.492259,0.01285 1.524425,0.01494 1.742054,0.113344 0.262974,0.118911 0.576069,0.438006 0.706241,0.719775 0.09148,0.198008 0.09284,0.233544 0.104887,2.741581 l 0.01221,2.540973 h 0.39341 c 0.505114,0 0.725078,0.09652 0.868595,0.38112 0.05263,0.104359 0.09569,0.239051 0.09569,0.299308 0,0.210386 -0.176863,0.481742 -0.381121,0.584743 -0.182578,0.09207 -0.232463,0.09569 -1.319949,0.09569 -1.087487,0 -1.137371,-0.0036 -1.31995,-0.09569 z m 4.599191,0.03634 c -0.221905,-0.122992 -0.214191,0.0265 -0.215808,-4.182696 l -0.0015,-3.923094 h -2.20939 c -1.622378,0 -2.239015,-0.01349 -2.320896,-0.05081 -0.172118,-0.07842 -0.23271,-0.24236 -0.23271,-0.629621 0,-0.387263 0.06059,-0.551199 0.23271,-0.629622 0.08269,-0.03768 0.804917,-0.05081 2.794426,-0.05081 h 2.682919 l -0.112052,-0.08815 c -0.158295,-0.124515 -0.158295,-0.379634 0,-0.504148 0.10017,-0.07879 0.17006,-0.08815 0.659164,-0.08815 h 0.547113 V 13.69272 12.414022 l -0.340228,0.183634 c -0.327874,0.176966 -0.342439,0.191354 -0.401134,0.396267 -0.0335,0.116949 -0.123024,0.429723 -0.198947,0.695053 -0.18636,0.651291 -0.180614,0.648008 -0.824153,0.470927 -0.378975,-0.104286 -0.510549,-0.159258 -0.559332,-0.233709 -0.05944,-0.09071 -0.0051,-0.304566 0.794965,-3.130207 0.472315,-1.6680696 0.874645,-3.0747485 0.894068,-3.1259532 0.07193,-0.1896286 0.172246,-0.1969499 0.701833,-0.051224 0.700075,0.1926387 0.6792,0.1237233 0.368118,1.2152882 l -0.25199,0.8842161 0.237982,0.4872769 0.237982,0.487278 0.01254,2.479489 0.01254,2.479488 h 0.85073 c 0.949979,0 1.057423,0.02453 1.139581,0.260214 0.03332,0.09559 0.04714,1.42392 0.04714,4.532503 0,4.777245 0.01024,4.571786 -0.232709,4.682468 -0.169285,0.07713 -4.172706,0.0692 -4.312973,-0.0086 z M 11.300768,10.861352 C 9.640645,10.6121 8.9675674,8.6007248 10.148952,7.4193408 c 1.083352,-1.0833522 2.884414,-0.6377717 3.366499,0.8328669 0.04953,0.1510681 0.07668,0.3619052 0.07668,0.595374 0,0.8854673 -0.523029,1.6271993 -1.34741,1.9108283 -0.247465,0.08515 -0.719584,0.136627 -0.943945,0.102945 z"
     id="path855"
     inkscape:connector-curvature="0" />
</svg>
