<?xml version="1.0" encoding="UTF-8" standalone="no"?>
<svg
   xmlns:dc="http://purl.org/dc/elements/1.1/"
   xmlns:cc="http://creativecommons.org/ns#"
   xmlns:rdf="http://www.w3.org/1999/02/22-rdf-syntax-ns#"
   xmlns:svg="http://www.w3.org/2000/svg"
   xmlns="http://www.w3.org/2000/svg"
   xmlns:sodipodi="http://sodipodi.sourceforge.net/DTD/sodipodi-0.dtd"
   xmlns:inkscape="http://www.inkscape.org/namespaces/inkscape"
   height="32"
   viewBox="0 0 32 32"
   width="32"
   version="1.1"
   id="svg10"
   sodipodi:docname="org.shotcut.Shotcut.svg"
   inkscape:version="0.92.2 2405546, 2018-03-11">
  <metadata
     id="metadata16">
    <rdf:RDF>
      <cc:Work
         rdf:about="">
        <dc:format>image/svg+xml</dc:format>
        <dc:type
           rdf:resource="http://purl.org/dc/dcmitype/StillImage" />
        <dc:title></dc:title>
      </cc:Work>
    </rdf:RDF>
  </metadata>
  <defs
     id="defs14" />
  <sodipodi:namedview
     pagecolor="#ffffff"
     bordercolor="#666666"
     borderopacity="1"
     objecttolerance="10"
     gridtolerance="10"
     guidetolerance="10"
     inkscape:pageopacity="0"
     inkscape:pageshadow="2"
     inkscape:window-width="1680"
     inkscape:window-height="972"
     id="namedview12"
     showgrid="false"
     inkscape:zoom="6.7175144"
     inkscape:cx="15.090032"
     inkscape:cy="29.155277"
     inkscape:current-layer="svg10"
     inkscape:window-x="1360"
     inkscape:window-y="0"
     inkscape:window-maximized="1" />
  <g
     id="g963"
     transform="translate(-39.376954,-4.6855467)">
    <path
       id="path850-3"
       d="m 46.849609,6.5839844 c -3.088651,0 -5.574218,2.4855679 -5.574218,5.5742186 v 17.054688 c 0,3.088651 2.485567,5.574218 5.574218,5.574218 h 3.052735 1.83789 12.164063 c 3.088651,10e-7 5.574219,-2.485566 5.574219,-5.574218 V 12.158203 c 10e-7,-3.0886507 -2.485567,-5.5742186 -5.574219,-5.5742186 h -12.164063 -1.83789 z"
       style="opacity:1;fill:#e6e6e6;fill-opacity:1;fill-rule:evenodd;stroke:none;stroke-width:1.03534329;stroke-linecap:round;stroke-linejoin:bevel;stroke-miterlimit:4;stroke-dasharray:none;stroke-dashoffset:0;stroke-opacity:1"
       inkscape:connector-curvature="0" />
    <g
       transform="matrix(0.74708848,0,0,0.74708848,71.015164,34.007861)"
       id="g956">
      <rect
         style="fill:#165c76;fill-opacity:1;stroke:none;stroke-width:1;stroke-miterlimit:4;stroke-dasharray:none;stroke-opacity:1"
         id="rect951"
         width="7.3736129"
         height="26.11488"
         x="-34.143265"
         y="-30.889751" />
      <rect
         style="fill:#165c76;fill-opacity:1;stroke:none;stroke-width:1;stroke-miterlimit:4;stroke-dasharray:none;stroke-opacity:1"
         id="rect949"
         width="18.126799"
         height="26.11488"
         x="-25.847948"
         y="-30.889751" />
      <path
         style="fill:#000000;stroke-width:0.15361694"
         d="m -34.143263,-5.3125296 v -0.537659 h 3.149148 3.149147 V -17.832311 -29.814432 h -3.149147 -3.149148 v -0.537659 -0.53766 h 3.686807 3.686806 v 13.05744 13.0574404 h -3.686806 -3.686807 z m 8.295315,-12.5197814 v -13.05744 h 9.0634 9.0633993 v 0.53766 0.537659 h -8.5257403 -8.52574 v 11.982121 11.9821224 h 8.52574 8.5257403 v 0.537659 0.537659 h -9.0633993 -9.0634 z"
         id="path947"
         inkscape:connector-curvature="0" />
    </g>
  </g>
</svg>
