<?xml version="1.0" encoding="UTF-8" standalone="no"?>
<svg
   xmlns:dc="http://purl.org/dc/elements/1.1/"
   xmlns:cc="http://creativecommons.org/ns#"
   xmlns:rdf="http://www.w3.org/1999/02/22-rdf-syntax-ns#"
   xmlns:svg="http://www.w3.org/2000/svg"
   xmlns="http://www.w3.org/2000/svg"
   xmlns:sodipodi="http://sodipodi.sourceforge.net/DTD/sodipodi-0.dtd"
   xmlns:inkscape="http://www.inkscape.org/namespaces/inkscape"
   height="32"
   width="32"
   version="1"
   id="svg8"
   sodipodi:docname="application-x-virtualbox-vbox-extpack.svg"
   inkscape:version="0.92.1 r">
  <metadata
     id="metadata14">
    <rdf:RDF>
      <cc:Work
         rdf:about="">
        <dc:format>image/svg+xml</dc:format>
        <dc:type
           rdf:resource="http://purl.org/dc/dcmitype/StillImage" />
      </cc:Work>
    </rdf:RDF>
  </metadata>
  <defs
     id="defs12" />
  <sodipodi:namedview
     pagecolor="#ffffff"
     bordercolor="#666666"
     borderopacity="1"
     objecttolerance="10"
     gridtolerance="10"
     guidetolerance="10"
     inkscape:pageopacity="0"
     inkscape:pageshadow="2"
     inkscape:window-width="1680"
     inkscape:window-height="965"
     id="namedview10"
     showgrid="false"
     inkscape:zoom="7.375"
     inkscape:cx="16"
     inkscape:cy="-0.27118644"
     inkscape:window-x="0"
     inkscape:window-y="0"
     inkscape:window-maximized="1"
     inkscape:current-layer="svg8" />
  <rect
     style="opacity:1;fill:#7ad354;fill-opacity:1;fill-rule:evenodd;stroke:none;stroke-width:1.03534329;stroke-linecap:round;stroke-linejoin:bevel;stroke-miterlimit:4;stroke-dasharray:none;stroke-dashoffset:0;stroke-opacity:1"
     id="rect4497-3"
     width="28.203388"
     height="28.203388"
     x="1.8983059"
     y="1.8983059"
     ry="5.575182" />
  <path
     d="m 15.557276,4.8898309 c -1.195747,0 -2.158387,0.96264 -2.158387,2.158386 V 9.206604 H 8.3626547 c -0.797165,0 -1.438925,0.6417609 -1.438925,1.438925 v 4.316774 h 2.158386 c 1.1957463,0 2.1583863,0.96264 2.1583863,2.158387 0,1.195746 -0.96264,2.158387 -2.1583863,2.158387 h -2.158386 v 5.036236 c 0,0.797164 0.64176,1.438924 1.438925,1.438924 h 5.0362343 v -1.438924 c 0,-1.195747 0.96264,-2.158387 2.158387,-2.158387 1.195746,0 2.158386,0.96264 2.158386,2.158387 v 1.438924 h 4.316774 c 0.797164,0 1.438925,-0.64176 1.438925,-1.438924 v -5.036236 h 2.158387 c 1.195746,0 2.158386,-0.962641 2.158386,-2.158387 0,-1.195747 -0.96264,-2.158387 -2.158386,-2.158387 h -2.158387 v -4.316774 c 0,-0.7971641 -0.641761,-1.438925 -1.438925,-1.438925 H 17.715662 V 7.0482169 c 0,-1.195746 -0.96264,-2.158386 -2.158386,-2.158386 z"
     id="path4-3"
     style="fill:#ffffff;stroke-width:0.71946234"
     inkscape:connector-curvature="0" />
</svg>
