<?xml version="1.0" encoding="UTF-8" standalone="no"?>
<svg
   xmlns:dc="http://purl.org/dc/elements/1.1/"
   xmlns:cc="http://creativecommons.org/ns#"
   xmlns:rdf="http://www.w3.org/1999/02/22-rdf-syntax-ns#"
   xmlns:svg="http://www.w3.org/2000/svg"
   xmlns="http://www.w3.org/2000/svg"
   xmlns:sodipodi="http://sodipodi.sourceforge.net/DTD/sodipodi-0.dtd"
   xmlns:inkscape="http://www.inkscape.org/namespaces/inkscape"
   height="32"
   viewBox="0 0 32 32"
   width="32"
   version="1.1"
   id="svg12"
   sodipodi:docname="password.svg"
   inkscape:version="0.92.1 r">
  <metadata
     id="metadata18">
    <rdf:RDF>
      <cc:Work
         rdf:about="">
        <dc:format>image/svg+xml</dc:format>
        <dc:type
           rdf:resource="http://purl.org/dc/dcmitype/StillImage" />
        <dc:title></dc:title>
      </cc:Work>
    </rdf:RDF>
  </metadata>
  <defs
     id="defs16" />
  <sodipodi:namedview
     pagecolor="#ffffff"
     bordercolor="#666666"
     borderopacity="1"
     objecttolerance="10"
     gridtolerance="10"
     guidetolerance="10"
     inkscape:pageopacity="0"
     inkscape:pageshadow="2"
     inkscape:window-width="1680"
     inkscape:window-height="955"
     id="namedview14"
     showgrid="false"
     inkscape:zoom="7.375"
     inkscape:cx="-14.164098"
     inkscape:cy="15.099626"
     inkscape:window-x="0"
     inkscape:window-y="0"
     inkscape:window-maximized="1"
     inkscape:current-layer="svg12" />
  <rect
     style="opacity:1;fill:#4bae4f;fill-opacity:1;fill-rule:evenodd;stroke:none;stroke-width:1.03534329;stroke-linecap:round;stroke-linejoin:bevel;stroke-miterlimit:4;stroke-dasharray:none;stroke-dashoffset:0;stroke-opacity:1"
     id="rect4497"
     width="28.203388"
     height="28.203388"
     x="1.8983059"
     y="1.8983059"
     ry="5.575182" />
  <path
     style="fill:#ffffff;stroke-width:1.00000012"
     d="m 9.7563788,25.012271 c -0.349996,-0.107892 -0.632109,-0.496568 -0.707052,-0.974129 -0.04814,-0.306777 -0.04862,-8.438319 -5.92e-4,-8.771004 0.06131,-0.424032 0.28638,-0.765781 0.610787,-0.92744 0.14516,-0.07234 0.235077,-0.09106 0.4373242,-0.09106 h 0.254596 l 0.0186,-1.143883 c 0.01869,-1.149556 0.03949,-1.369272 0.18391,-1.942566 0.481124,-1.9098547 1.984591,-3.4865049 3.836708,-4.0234606 0.575002,-0.1667022 0.903365,-0.2094349 1.609313,-0.2094349 0.705945,0 1.034309,0.042733 1.60931,0.2094349 1.852117,0.5369557 3.355585,2.1136059 3.836708,4.0234606 0.144423,0.573294 0.165224,0.79301 0.18391,1.942566 l 0.0186,1.143883 h 0.254592 c 0.20225,0 0.292167,0.01872 0.437325,0.09106 0.32441,0.161659 0.549474,0.503408 0.610787,0.92744 0.048,0.331912 0.04764,8.463916 -2.96e-4,8.771004 -0.07502,0.479742 -0.363456,0.869721 -0.722023,0.976203 -0.257545,0.07648 -12.224113,0.07449 -12.4724932,-0.0021 z m 7.1190362,-2.412708 c 0.05502,-0.04016 0.135948,-0.143297 0.179839,-0.229198 0.07843,-0.153498 0.07981,-0.178357 0.07981,-1.445422 v -1.289238 l 0.122888,-0.160941 c 0.246064,-0.322259 0.358259,-0.835532 0.267114,-1.222008 -0.151955,-0.644333 -0.624576,-1.086454 -1.259131,-1.177871 -0.873935,-0.125902 -1.595323,0.348553 -1.790902,1.177871 -0.09114,0.386476 0.02106,0.899749 0.267114,1.222008 l 0.122888,0.160941 v 1.280158 c 0,1.349771 0.0083,1.42799 0.169832,1.609518 0.132217,0.148542 0.236439,0.164657 1.007028,0.155711 0.676856,-0.0079 0.741215,-0.01415 0.833524,-0.08153 z m 2.414773,-9.459336 c -0.01247,-0.99964 -0.02132,-1.135507 -0.0902,-1.384497 -0.32677,-1.18144 -1.233627,-2.090283 -2.401884,-2.4071435 -0.406387,-0.1102223 -1.189728,-0.1102223 -1.596115,0 -1.168254,0.3168605 -2.075111,1.2257035 -2.401884,2.4071435 -0.06887,0.24899 -0.07772,0.384857 -0.0902,1.384497 l -0.01383,1.108413 h 3.303982 3.303979 z"
     id="path4513"
     inkscape:connector-curvature="0" />
</svg>
