<?xml version="1.0" encoding="UTF-8" standalone="no"?>
<svg
   xmlns:dc="http://purl.org/dc/elements/1.1/"
   xmlns:cc="http://creativecommons.org/ns#"
   xmlns:rdf="http://www.w3.org/1999/02/22-rdf-syntax-ns#"
   xmlns:svg="http://www.w3.org/2000/svg"
   xmlns="http://www.w3.org/2000/svg"
   xmlns:sodipodi="http://sodipodi.sourceforge.net/DTD/sodipodi-0.dtd"
   xmlns:inkscape="http://www.inkscape.org/namespaces/inkscape"
   height="32"
   width="32"
   version="1"
   id="svg18"
   sodipodi:docname="photolayoutseditor.svg"
   inkscape:version="0.92.1 r">
  <metadata
     id="metadata24">
    <rdf:RDF>
      <cc:Work
         rdf:about="">
        <dc:format>image/svg+xml</dc:format>
        <dc:type
           rdf:resource="http://purl.org/dc/dcmitype/StillImage" />
      </cc:Work>
    </rdf:RDF>
  </metadata>
  <defs
     id="defs22" />
  <sodipodi:namedview
     pagecolor="#ffffff"
     bordercolor="#666666"
     borderopacity="1"
     objecttolerance="10"
     gridtolerance="10"
     guidetolerance="10"
     inkscape:pageopacity="0"
     inkscape:pageshadow="2"
     inkscape:window-width="640"
     inkscape:window-height="480"
     id="namedview20"
     showgrid="false"
     inkscape:zoom="9.5"
     inkscape:cx="-4.1052632"
     inkscape:cy="16"
     inkscape:current-layer="svg18" />
  <g
     id="g4523"
     transform="translate(42.842105,6.105263)">
    <path
       id="path4541"
       d="m -12.740543,15.751182 c -1.041418,-0.337541 -1.909456,-0.660363 -2.248047,-0.6875 -0.688939,-0.05433 -1.594583,0.164366 -2.416016,0.404297 -0.821493,0.240026 -1.558489,0.501354 -1.910156,0.527344 -0.351656,0.02587 -1.569155,0.0016 -2.330078,-0.06836 -0.760899,-0.07002 -1.416349,-0.159797 -1.699219,-0.185547 -0.282786,-0.02627 -1.083039,-0.122306 -1.544922,-0.185546 -0.461956,-0.06373 -0.868578,-0.122677 -1.214844,-0.154297 -0.346266,-0.0318 -1.873269,-0.144861 -2.984374,-0.212891 -1.111022,-0.06783 -2.152769,-0.125 -2.570313,-0.125 -0.417531,-0.0048 -1.75598,0.03803 -2.564453,0.08594 -0.808498,0.04886 -1.504151,0.09739 -1.888672,0.08398 -0.384474,-0.01313 -1.616177,-0.22368 -2.441406,-0.378906 -0.825242,-0.155825 -1.628662,-0.270181 -2.308594,-0.13086 -0.01809,0.0037 -0.06156,0.04116 -0.08203,0.04687 v 2.648438 h 28.203125 z"
       style="fill:#000000;fill-opacity:1;stroke-width:1.19773805"
       inkscape:connector-curvature="0" />
    <path
       id="path4534"
       d="m -35.367496,-4.1394431 c -0.772163,0 -1.506375,0.1541744 -2.173829,0.4355469 -0.667453,0.2813725 -1.26958,0.6895023 -1.773437,1.1933594 -0.503857,0.503857 -0.910034,1.1040305 -1.191406,1.7714844 -0.281373,0.6674538 -0.4375,1.4016654 -0.4375,2.1738281 V 14.770713 c 0.02047,-0.0057 0.06394,-0.04317 0.08203,-0.04687 0.679932,-0.139321 1.483352,-0.02497 2.308594,0.13086 0.825229,0.155226 2.056932,0.365779 2.441406,0.378906 0.384521,0.01341 1.080174,-0.03512 1.888672,-0.08398 0.808473,-0.04791 2.146922,-0.09073 2.564453,-0.08594 0.417544,0 1.459291,0.05717 2.570313,0.125 1.111105,0.06803 2.638108,0.181091 2.984374,0.212891 0.346266,0.03162 0.752888,0.09057 1.214844,0.154297 0.461883,0.06324 1.262136,0.159279 1.544922,0.185546 0.28287,0.02575 0.93832,0.115528 1.699219,0.185547 0.760923,0.06995 1.978422,0.09423 2.330078,0.06836 0.351667,-0.02599 1.088663,-0.287318 1.910156,-0.527344 0.821433,-0.239931 1.727077,-0.458626 2.416016,-0.404297 0.338591,0.02714 1.206629,0.349959 2.248047,0.6875 V 1.4347757 c 0,-0.7721627 -0.154175,-1.5063743 -0.435547,-2.1738281 -0.281372,-0.6674539 -0.689501,-1.2676274 -1.193358,-1.7714844 -0.503859,-0.5038571 -1.104031,-0.9119869 -1.771485,-1.1933594 -0.667454,-0.2813725 -1.401665,-0.4355469 -2.173828,-0.4355469 z"
       style="fill:#8c93dd;fill-opacity:1;stroke-width:1.19773805"
       inkscape:connector-curvature="0" />
    <path
       inkscape:connector-curvature="0"
       id="path10-3"
       style="fill:#fffca3;fill-opacity:1;fill-rule:evenodd;stroke-width:0.99399543;enable-background:new"
       d="m -20.820359,1.8483548 c 2.195836,0 3.975982,1.7801463 3.975982,3.975981 0,2.195836 -1.780146,3.975982 -3.975982,3.975982 -2.195835,0 -3.975981,-1.780146 -3.975981,-3.975982 0,-2.1958347 1.780146,-3.975981 3.975981,-3.975981 z" />
    <path
       inkscape:connector-curvature="0"
       id="path12-6"
       d="m -40.943667,17.419151 v 0.933594 c 0,0.772163 0.156127,1.506374 0.4375,2.173828 0.281372,0.667454 0.687549,1.269581 1.191406,1.773438 0.503857,0.503857 1.105983,0.910034 1.773437,1.191406 0.667454,0.281372 1.401666,0.4375 2.173828,0.4375 h 17.052735 c 0.772162,0 1.506374,-0.156128 2.173828,-0.4375 0.667454,-0.281372 1.267627,-0.687549 1.771484,-1.191406 0.503857,-0.503857 0.911987,-1.105984 1.19336,-1.773438 0.281372,-0.667454 0.435546,-1.401665 0.435546,-2.173828 v -0.933594 z"
       style="fill:#5184b0;fill-opacity:1;stroke-width:1.19773805" />
  </g>
</svg>
