<?xml version="1.0" encoding="UTF-8" standalone="no"?>
<svg
   xmlns:dc="http://purl.org/dc/elements/1.1/"
   xmlns:cc="http://creativecommons.org/ns#"
   xmlns:rdf="http://www.w3.org/1999/02/22-rdf-syntax-ns#"
   xmlns:svg="http://www.w3.org/2000/svg"
   xmlns="http://www.w3.org/2000/svg"
   xmlns:sodipodi="http://sodipodi.sourceforge.net/DTD/sodipodi-0.dtd"
   xmlns:inkscape="http://www.inkscape.org/namespaces/inkscape"
   height="32"
   width="32"
   version="1"
   id="svg20"
   sodipodi:docname="portal2.svg"
   inkscape:version="0.92.1 r">
  <metadata
     id="metadata26">
    <rdf:RDF>
      <cc:Work
         rdf:about="">
        <dc:format>image/svg+xml</dc:format>
        <dc:type
           rdf:resource="http://purl.org/dc/dcmitype/StillImage" />
      </cc:Work>
    </rdf:RDF>
  </metadata>
  <defs
     id="defs24" />
  <sodipodi:namedview
     pagecolor="#ffffff"
     bordercolor="#666666"
     borderopacity="1"
     objecttolerance="10"
     gridtolerance="10"
     guidetolerance="10"
     inkscape:pageopacity="0"
     inkscape:pageshadow="2"
     inkscape:window-width="640"
     inkscape:window-height="480"
     id="namedview22"
     showgrid="false"
     inkscape:zoom="9.5"
     inkscape:cx="-5.9425914"
     inkscape:cy="6.3918812"
     inkscape:current-layer="svg20" />
  <g
     transform="translate(-0.59580564)"
     id="g4535">
    <rect
       ry="5.575182"
       y="1.8983059"
       x="1.8983059"
       height="28.203388"
       width="28.203388"
       id="rect4497-3"
       style="opacity:1;fill:#f2f2f2;fill-opacity:1;fill-rule:evenodd;stroke:none;stroke-width:1.03534329;stroke-linecap:round;stroke-linejoin:bevel;stroke-miterlimit:4;stroke-dasharray:none;stroke-dashoffset:0;stroke-opacity:1" />
    <circle
       style="fill:#56aad4;stroke-width:1"
       id="circle2-3"
       r="14.105264"
       cx="16"
       cy="16" />
    <path
       inkscape:connector-curvature="0"
       id="path4522"
       d="m 23.285156,1.8984375 h -9.367187 l 8.091797,8.0917969 -0.002,0.00195 a 8.4999999,8.4999999 0 0 1 0.269532,0.2832036 8.4999999,8.4999999 0 0 1 0.537109,0.658203 8.4999999,8.4999999 0 0 1 0.470703,0.707031 z"
       style="opacity:1;fill:#56aad4;fill-opacity:1;fill-rule:evenodd;stroke:none;stroke-width:1.03534329;stroke-linecap:round;stroke-linejoin:bevel;stroke-miterlimit:4;stroke-dasharray:none;stroke-dashoffset:0;stroke-opacity:1" />
    <path
       inkscape:connector-curvature="0"
       id="path4520"
       d="M 30.101562,12.203125 V 7.4726562 c 10e-7,-3.0886508 -2.485567,-5.5742187 -5.574218,-5.5742187 H 24.5 V 16 a 8.4999999,8.4999999 0 0 1 -0.01172,0.390625 8.4999999,8.4999999 0 0 1 -0.08398,0.845703 8.4999999,8.4999999 0 0 1 -0.169922,0.832031 z M 28.105469,4.0722656 a 17,17 0 0 1 0.458984,0.5039063 c -0.153,-0.1681786 -0.299913,-0.342042 -0.458984,-0.5039063 z m 1.052734,1.1796875 a 17,17 0 0 1 0.464844,0.609375 c -0.153,-0.2050928 -0.303344,-0.4115679 -0.464844,-0.609375 z m 0.951172,1.2871094 c 0.1445,0.2151714 0.279276,0.4361102 0.414063,0.6582031 A 17,17 0 0 0 30.109375,6.5390625 Z m 0.830078,1.3808594 c 0.123858,0.2291357 0.243279,0.4598625 0.357422,0.6953125 A 17,17 0 0 0 30.939453,7.9199219 Z"
       style="opacity:1;fill:#56aad4;fill-opacity:1;fill-rule:evenodd;stroke:none;stroke-width:1.03534329;stroke-linecap:round;stroke-linejoin:bevel;stroke-miterlimit:4;stroke-dasharray:none;stroke-dashoffset:0;stroke-opacity:1" />
    <path
       inkscape:connector-curvature="0"
       id="path4518"
       d="m 30.101562,23.285156 v -9.367187 l -8.091796,8.091797 -0.002,-0.002 a 8.4999999,8.4999999 0 0 1 -0.283203,0.269532 8.4999999,8.4999999 0 0 1 -0.658203,0.537109 8.4999999,8.4999999 0 0 1 -0.707031,0.470703 z"
       style="opacity:1;fill:#56aad4;fill-opacity:1;fill-rule:evenodd;stroke:none;stroke-width:1.03534329;stroke-linecap:round;stroke-linejoin:bevel;stroke-miterlimit:4;stroke-dasharray:none;stroke-dashoffset:0;stroke-opacity:1" />
    <path
       inkscape:connector-curvature="0"
       id="path4516"
       d="m 19.798828,30.101562 h 4.728516 c 3.088651,10e-7 5.574218,-2.485567 5.574218,-5.574218 V 24.5 H 16 a 8.4999999,8.4999999 0 0 1 -0.390625,-0.01172 8.4999999,8.4999999 0 0 1 -0.84375,-0.08398 8.4999999,8.4999999 0 0 1 -0.833984,-0.169922 z m 8.126953,-1.996093 a 17,17 0 0 1 -0.46875,0.427734 c 0.156643,-0.143286 0.318179,-0.279591 0.46875,-0.427734 z m -1.191406,1.066406 a 17,17 0 0 1 -0.558594,0.423828 c 0.187,-0.139643 0.377665,-0.276899 0.558594,-0.423828 z"
       style="opacity:1;fill:#56aad4;fill-opacity:1;fill-rule:evenodd;stroke:none;stroke-width:1.03534329;stroke-linecap:round;stroke-linejoin:bevel;stroke-miterlimit:4;stroke-dasharray:none;stroke-dashoffset:0;stroke-opacity:1" />
    <path
       inkscape:connector-curvature="0"
       id="path4514"
       d="m 8.7148438,30.101562 h 9.3671872 l -8.0917966,-8.091796 0.00195,-0.002 A 8.4999999,8.4999999 0 0 1 9.7246094,21.724609 8.4999999,8.4999999 0 0 1 9.1855469,21.066406 8.4999999,8.4999999 0 0 1 8.7148438,20.359375 Z"
       style="opacity:1;fill:#56aad4;fill-opacity:1;fill-rule:evenodd;stroke:none;stroke-width:1.03534329;stroke-linecap:round;stroke-linejoin:bevel;stroke-miterlimit:4;stroke-dasharray:none;stroke-dashoffset:0;stroke-opacity:1" />
    <path
       inkscape:connector-curvature="0"
       id="path4512"
       d="m 1.8984375,19.796875 v 4.730469 c 0,3.088651 2.4855679,5.574218 5.5742187,5.574218 H 7.5 V 16 a 8.4999999,8.4999999 0 0 1 0.011719,-0.390625 8.4999999,8.4999999 0 0 1 0.083984,-0.84375 8.4999999,8.4999999 0 0 1 0.1699219,-0.833984 z m 0.4550781,6.310547 C 2.5144085,26.324779 2.6729,26.543096 2.84375,26.751953 A 17,17 0 0 1 2.3535156,26.107422 Z m 1.0800782,1.316406 c 0.1528786,0.168785 0.3016233,0.340453 0.4609374,0.501953 A 17,17 0 0 1 3.4335938,27.423828 Z"
       style="opacity:1;fill:#56aad4;fill-opacity:1;fill-rule:evenodd;stroke:none;stroke-width:1.03534329;stroke-linecap:round;stroke-linejoin:bevel;stroke-miterlimit:4;stroke-dasharray:none;stroke-dashoffset:0;stroke-opacity:1" />
    <path
       inkscape:connector-curvature="0"
       id="path4510"
       d="m 1.8984375,8.7148438 v 9.3671872 l 8.0917969,-8.0917966 0.00195,0.00195 a 8.4999999,8.4999999 0 0 1 0.2851566,-0.2695313 8.4999999,8.4999999 0 0 1 0.65625,-0.5371093 8.4999999,8.4999999 0 0 1 0.707031,-0.4707031 z"
       style="opacity:1;fill:#56aad4;fill-opacity:1;fill-rule:evenodd;stroke:none;stroke-width:1.03534329;stroke-linecap:round;stroke-linejoin:bevel;stroke-miterlimit:4;stroke-dasharray:none;stroke-dashoffset:0;stroke-opacity:1" />
    <path
       inkscape:connector-curvature="0"
       id="path4508"
       d="M 12.203125,1.8984375 H 7.4726562 c -3.0886508,0 -5.5742187,2.4855679 -5.5742187,5.5742187 V 7.5 H 16 a 8.4999999,8.4999999 0 0 1 0.390625,0.011719 8.4999999,8.4999999 0 0 1 0.845703,0.083984 8.4999999,8.4999999 0 0 1 0.832031,0.1699219 z M 5.8613281,2.3769531 C 5.6562353,2.5294674 5.4497602,2.6804183 5.2519531,2.8417969 A 17,17 0 0 1 5.8613281,2.3769531 Z M 4.5761719,3.4355469 C 4.4079933,3.5884254 4.2341299,3.7352169 4.0722656,3.8945312 A 17,17 0 0 1 4.5761719,3.4355469 Z"
       style="opacity:1;fill:#56aad4;fill-opacity:1;fill-rule:evenodd;stroke:none;stroke-width:1.03534329;stroke-linecap:round;stroke-linejoin:bevel;stroke-miterlimit:4;stroke-dasharray:none;stroke-dashoffset:0;stroke-opacity:1" />
    <path
       inkscape:connector-curvature="0"
       id="rect4497-3-3"
       d="M 12.203125,1.8984375 18.068359,7.765625 A 8.4999999,8.4999999 0 0 0 17.236328,7.5957031 8.4999999,8.4999999 0 0 0 16.390625,7.5117188 8.4999999,8.4999999 0 0 0 16,7.5 H 1.8984375 v 1.2148438 h 9.7421875 a 8.4999999,8.4999999 0 0 0 -0.707031,0.4707031 8.4999999,8.4999999 0 0 0 -0.65625,0.5371093 8.4999999,8.4999999 0 0 0 -0.2851565,0.2695313 l -0.00195,-0.00195 -8.0917969,8.0917965 v 1.714844 L 7.765625,13.931641 A 8.4999999,8.4999999 0 0 0 7.5957031,14.765625 8.4999999,8.4999999 0 0 0 7.5117188,15.609375 8.4999999,8.4999999 0 0 0 7.5,16 v 14.101562 h 1.2148438 v -9.742187 a 8.4999999,8.4999999 0 0 0 0.4707031,0.707031 8.4999999,8.4999999 0 0 0 0.5390625,0.658203 8.4999999,8.4999999 0 0 0 0.2675781,0.283203 l -0.00195,0.002 8.0917965,8.091796 h 1.716797 l -5.867187,-5.867187 a 8.4999999,8.4999999 0 0 0 0.833984,0.169922 8.4999999,8.4999999 0 0 0 0.84375,0.08398 A 8.4999999,8.4999999 0 0 0 16,24.5 h 14.101562 v -1.214844 h -9.742187 a 8.4999999,8.4999999 0 0 0 0.707031,-0.470703 8.4999999,8.4999999 0 0 0 0.658203,-0.537109 8.4999999,8.4999999 0 0 0 0.283203,-0.269532 l 0.002,0.002 8.091796,-8.091797 v -1.714844 l -5.867187,5.865234 a 8.4999999,8.4999999 0 0 0 0.169922,-0.832031 8.4999999,8.4999999 0 0 0 0.08398,-0.845703 A 8.4999999,8.4999999 0 0 0 24.5,16 V 1.8984375 H 23.285156 V 11.640625 A 8.4999999,8.4999999 0 0 0 22.814453,10.933594 8.4999999,8.4999999 0 0 0 22.277344,10.275391 8.4999999,8.4999999 0 0 0 22.007812,9.9921875 l 0.002,-0.00195 -8.091797,-8.0917969 z"
       style="opacity:1;fill:#f2f2f2;fill-opacity:1;fill-rule:evenodd;stroke:none;stroke-width:1.03534329;stroke-linecap:round;stroke-linejoin:bevel;stroke-miterlimit:4;stroke-dasharray:none;stroke-dashoffset:0;stroke-opacity:1" />
  </g>
  <g
     id="g4534"
     transform="matrix(0.75,0,0,0.75,4.2719007,5.5633606)"
     style="stroke-width:1.33333337">
    <circle
       id="circle12"
       r="8"
       cy="23"
       cx="24"
       style="fill:#ba22ff;stroke-width:1.33333337;enable-background:new" />
    <g
       id="g16"
       transform="matrix(1.0396,0,0,0.96669,-0.87107,-0.0673)"
       style="fill:#ffffff;stroke-width:1.33333337">
      <path
         id="path14"
         d="m 26.81,28 h -4.79 v -1.0498 l 1.6797,-1.8115 q 0.31738,-0.3418 0.57617,-0.62988 0.25879,-0.28809 0.44434,-0.56152 0.18555,-0.27344 0.28808,-0.55664 0.10254,-0.2832 0.10254,-0.61035 0,-0.36133 -0.21973,-0.56152 -0.21484,-0.2002 -0.58106,-0.2002 -0.38574,0 -0.74219,0.19043 -0.35645,0.19043 -0.74707,0.54199 l -0.821,-0.971 q 0.21973,-0.2002 0.45898,-0.38086 0.23926,-0.18555 0.52734,-0.32715 0.28809,-0.1416 0.63477,-0.22461 0.34668,-0.08789 0.77637,-0.08789 0.5127,0 0.91797,0.1416 0.41016,0.1416 0.69824,0.40527 0.28809,0.25879 0.43945,0.62988 0.15625,0.37109 0.15625,0.83496 0,0.41992 -0.14648,0.80566 -0.14648,0.38086 -0.40039,0.75195 -0.25391,0.36621 -0.59082,0.73242 -0.33203,0.36133 -0.71289,0.7373 l -0.85938,0.86426 v 0.06836 h 2.9102 v 1.2695 z"
         inkscape:connector-curvature="0"
         style="stroke-width:1.33333337" />
    </g>
  </g>
</svg>
