<?xml version="1.0" encoding="UTF-8" standalone="no"?>
<svg
   xmlns:dc="http://purl.org/dc/elements/1.1/"
   xmlns:cc="http://creativecommons.org/ns#"
   xmlns:rdf="http://www.w3.org/1999/02/22-rdf-syntax-ns#"
   xmlns:svg="http://www.w3.org/2000/svg"
   xmlns="http://www.w3.org/2000/svg"
   xmlns:sodipodi="http://sodipodi.sourceforge.net/DTD/sodipodi-0.dtd"
   xmlns:inkscape="http://www.inkscape.org/namespaces/inkscape"
   width="32"
   height="32"
   version="1"
   id="svg20"
   sodipodi:docname="preferences-desktop-joystick.svg"
   inkscape:version="0.92.2 2405546, 2018-03-11">
  <metadata
     id="metadata26">
    <rdf:RDF>
      <cc:Work
         rdf:about="">
        <dc:format>image/svg+xml</dc:format>
        <dc:type
           rdf:resource="http://purl.org/dc/dcmitype/StillImage" />
        <dc:title />
      </cc:Work>
    </rdf:RDF>
  </metadata>
  <defs
     id="defs24" />
  <sodipodi:namedview
     pagecolor="#ffffff"
     bordercolor="#666666"
     borderopacity="1"
     objecttolerance="10"
     gridtolerance="10"
     guidetolerance="10"
     inkscape:pageopacity="0"
     inkscape:pageshadow="2"
     inkscape:window-width="1680"
     inkscape:window-height="972"
     id="namedview22"
     showgrid="false"
     inkscape:zoom="5.2149125"
     inkscape:cx="-45.112891"
     inkscape:cy="16.772694"
     inkscape:window-x="0"
     inkscape:window-y="0"
     inkscape:window-maximized="1"
     inkscape:current-layer="svg20" />
  <g
     id="g883"
     transform="translate(54.735069,-0.27586285)">
    <path
       sodipodi:nodetypes="csssssscc"
       id="path4524-3"
       d="m -47.262413,2.1743007 c -3.088651,0 -5.574219,2.4855679 -5.574219,5.5742187 V 24.803206 c 0,3.088651 2.485568,5.574219 5.574219,5.574219 h 17.054687 c 3.088651,1e-6 5.574219,-2.485567 5.574219,-5.574219 V 7.7485194 c 1e-6,-3.0886508 -2.485567,-5.5742187 -5.574219,-5.5742187 0,0 4.482125,0 -17.054687,0 z"
       style="opacity:1;fill:#e6e6e6;fill-opacity:1;fill-rule:evenodd;stroke:none;stroke-width:1.03534329;stroke-linecap:round;stroke-linejoin:bevel;stroke-miterlimit:4;stroke-dasharray:none;stroke-dashoffset:0;stroke-opacity:1"
       inkscape:connector-curvature="0" />
    <path
       id="rect4497-3-3-6"
       d="m -36.245264,5.089555 c -0.129237,0.1566871 -0.313432,0.3165108 -0.432269,0.4725517 -0.547381,0.7187532 -0.986428,1.4293166 -1.344835,2.1334551 -0.716813,1.4082768 -1.108437,2.7865762 -1.38202,4.1274682 l 1.087643,0.221557 c 0.262719,-1.287643 0.613006,-2.5568211 1.270467,-3.8501345 0.328731,-0.6466567 0.734232,-1.2988219 1.244128,-1.9630266 0.286425,-0.3731044 0.693321,-0.7605798 1.050459,-1.1418709 z"
       style="opacity:1;fill:#666666;fill-opacity:1;fill-rule:evenodd;stroke:none;stroke-width:0.8213039;stroke-linecap:round;stroke-linejoin:bevel;stroke-miterlimit:4;stroke-dasharray:none;stroke-dashoffset:0;stroke-opacity:1"
       inkscape:connector-curvature="0" />
    <path
       id="path4651-7"
       d="m -30.560698,27.178638 -1.320047,-1.657805 c -1.401014,-1.758618 -1.45726,-1.820086 -1.636114,-1.789499 -0.622868,0.106522 -1.22108,0.107866 -1.608225,0.0031 -0.483132,-0.130779 -1.026778,-0.470094 -1.349484,-0.841297 -0.259392,-0.298373 -0.57125,-0.897653 -0.630584,-1.213141 l -0.03719,-0.201416 h -1.622166 -1.620621 l -0.136343,0.416775 c -0.209742,0.641339 -0.569138,1.135734 -1.04891,1.462587 -0.479772,0.326854 -1.078751,0.485579 -1.766259,0.455509 l -0.57171,-0.02479 -1.564844,1.809641 c -0.823199,0.951842 -1.173784,1.364401 -1.437797,1.58033 0.448475,0.152305 0.910133,0.283531 1.411458,0.283531 h 13.528928 c 0.500796,1e-6 0.961837,-0.131534 1.409909,-0.283531 z"
       style="opacity:1;fill:#e6e6e6;fill-opacity:1;fill-rule:evenodd;stroke:none;stroke-width:0.8213039;stroke-linecap:round;stroke-linejoin:bevel;stroke-miterlimit:4;stroke-dasharray:none;stroke-dashoffset:0;stroke-opacity:1"
       inkscape:connector-curvature="0" />
    <path
       id="path4649-5"
       d="m -27.548762,21.1904 c -0.01174,-0.0492 -0.02334,-0.0991 -0.03409,-0.14409 -0.08522,-0.356608 -0.448147,-1.898838 -0.807212,-3.427161 -0.518424,-2.206626 -0.700528,-2.8808 -0.88313,-3.272226 -0.217001,-0.465174 -0.496003,-0.886921 -0.835098,-1.265819 -0.339096,-0.378899 -0.739,-0.714935 -1.194549,-1.003981 -0.911098,-0.578089 -2.048443,-0.972547 -3.391528,-1.169759 -0.792307,-0.116336 -7.458883,-0.115017 -8.115495,0.0015 -1.035395,0.183811 -1.842339,0.407057 -2.523891,0.717349 -0.681552,0.310292 -1.238728,0.707364 -1.772457,1.237932 -0.537315,0.534134 -0.659365,0.696417 -0.909468,1.203845 -0.304289,0.617366 -0.33144,0.715078 -1.426951,5.187222 -0.150248,0.613349 -0.309851,1.267432 -0.47875,1.956829 v 1.828234 c 0,1.948799 1.267032,3.546262 3.010387,4.138314 0.264013,-0.215931 0.614598,-0.62849 1.437797,-1.580338 l 1.564844,-1.809641 0.571711,0.02479 c 0.687507,0.03007 1.286486,-0.128655 1.766258,-0.455509 0.479772,-0.326852 0.839168,-0.821249 1.048911,-1.462587 l 0.136343,-0.416774 h 1.620619 1.622169 l 0.03719,0.201415 c 0.05934,0.31549 0.371193,0.914769 0.630585,1.213141 0.322706,0.371204 0.866351,0.710519 1.349484,0.841297 0.387145,0.104767 0.985357,0.103423 1.608226,-0.0031 0.178852,-0.03059 0.235099,0.03088 1.636113,1.789499 l 1.320047,1.657804 c 1.744098,-0.59164 3.011936,-2.188985 3.011936,-4.138314 z m -5.986688,-7.968306 c 0.303831,0.204459 0.402863,0.53998 0.266488,0.897074 -0.08935,0.233957 -0.262044,0.394641 -0.466355,0.464805 -0.204311,0.07017 -0.439012,0.04947 -0.652276,-0.08057 -0.227681,-0.138826 -0.35667,-0.35388 -0.378042,-0.579458 -0.02137,-0.225578 0.06445,-0.462085 0.26184,-0.64298 0.276802,-0.253669 0.64612,-0.275714 0.968345,-0.05888 z m -10.75094,0.229303 h 0.802563 0.802564 v 0.770028 0.770027 l 0.787069,0.01705 0.78707,0.01704 0.01704,0.78707 0.01859,0.788618 h -0.805662 -0.804112 v 0.802564 0.802563 h -0.802559 -0.802563 v -0.802568 -0.802564 h -0.771577 -0.773126 v -0.804111 -0.802563 h 0.773126 0.771577 v -0.771577 z m 4.754955,5.495544 h 0.802562 0.802564 v 0.432268 0.432269 h -0.802564 -0.802562 v -0.432269 z m -3.348145,0.841297 c 0.359441,0.06085 0.690569,0.286404 0.869185,0.655375 0.12314,0.254373 0.149067,0.511684 0.102257,0.746786 -0.04681,0.235103 -0.166978,0.448123 -0.33311,0.613543 -0.166132,0.165421 -0.378717,0.283136 -0.613542,0.328462 -0.234826,0.04533 -0.490798,0.01828 -0.743689,-0.106904 -0.367363,-0.18184 -0.590969,-0.513852 -0.650727,-0.872284 -0.05976,-0.358433 0.04423,-0.744532 0.333111,-1.033417 0.289687,-0.289686 0.677074,-0.392414 1.036515,-0.331561 z"
       style="opacity:1;fill:#666666;fill-opacity:1;fill-rule:evenodd;stroke:none;stroke-width:0.8213039;stroke-linecap:round;stroke-linejoin:bevel;stroke-miterlimit:4;stroke-dasharray:none;stroke-dashoffset:0;stroke-opacity:1"
       inkscape:connector-curvature="0" />
    <path
       id="path4646-3"
       d="m -34.661828,19.805281 c -0.33007,0.07818 -0.622324,0.298012 -0.78707,0.638332 -0.148535,0.306836 -0.159243,0.632243 -0.05577,0.918764 0.103467,0.286522 0.322129,0.532825 0.635234,0.681714 0.358431,0.170445 0.750921,0.131058 1.067502,-0.05577 0.31658,-0.186835 0.556355,-0.520996 0.611993,-0.935808 0.04126,-0.307601 -0.19943,-0.858917 -0.452409,-1.036515 -0.320902,-0.225282 -0.689402,-0.288898 -1.019473,-0.210711 z"
       style="opacity:1;fill:#e6e6e6;fill-opacity:1;fill-rule:evenodd;stroke:none;stroke-width:0.8213039;stroke-linecap:round;stroke-linejoin:bevel;stroke-miterlimit:4;stroke-dasharray:none;stroke-dashoffset:0;stroke-opacity:1"
       inkscape:connector-curvature="0" />
    <path
       id="path4644-5"
       d="m -34.661828,19.805281 c 0.330071,-0.07818 0.69857,-0.01457 1.019472,0.210712 0.25298,0.177597 0.493667,0.728914 0.45241,1.036514 -0.05564,0.414813 -0.295412,0.748976 -0.611993,0.935809 -0.316579,0.186834 -0.709071,0.226221 -1.067502,0.05578 -0.313105,-0.148889 -0.531767,-0.395192 -0.635233,-0.681713 -0.103467,-0.286522 -0.09276,-0.611929 0.05577,-0.918766 0.164747,-0.340319 0.457,-0.560145 0.787071,-0.638331 z"
       style="opacity:1;fill:#e6e6e6;fill-opacity:1;fill-rule:evenodd;stroke:none;stroke-width:0.8213039;stroke-linecap:round;stroke-linejoin:bevel;stroke-miterlimit:4;stroke-dasharray:none;stroke-dashoffset:0;stroke-opacity:1"
       inkscape:connector-curvature="0" />
    <path
       id="path4642-6"
       d="m -42.87958,19.788238 c -0.359441,-0.06085 -0.746828,0.04188 -1.036515,0.331561 -0.288885,0.288885 -0.392868,0.674984 -0.333111,1.033417 0.05976,0.358432 0.283364,0.690444 0.650727,0.872284 0.252891,0.125178 0.508863,0.152233 0.743689,0.106905 0.234825,-0.04533 0.44741,-0.163042 0.613542,-0.328462 0.166132,-0.165421 0.286299,-0.378441 0.33311,-0.613542 0.04681,-0.235103 0.02088,-0.492413 -0.102257,-0.746787 -0.178616,-0.368971 -0.509744,-0.594521 -0.869185,-0.655376 z"
       style="opacity:1;fill:#e6e6e6;fill-opacity:1;fill-rule:evenodd;stroke:none;stroke-width:0.8213039;stroke-linecap:round;stroke-linejoin:bevel;stroke-miterlimit:4;stroke-dasharray:none;stroke-dashoffset:0;stroke-opacity:1"
       inkscape:connector-curvature="0" />
    <path
       id="path4640-2"
       d="m -39.531435,18.946942 v 0.432268 0.432269 h 0.802562 0.802564 V 19.37921 18.946942 h -0.802564 z"
       style="opacity:1;fill:#e6e6e6;fill-opacity:1;fill-rule:evenodd;stroke:none;stroke-width:0.8213039;stroke-linecap:round;stroke-linejoin:bevel;stroke-miterlimit:4;stroke-dasharray:none;stroke-dashoffset:0;stroke-opacity:1"
       inkscape:connector-curvature="0" />
    <path
       id="path4638-9"
       d="m -34.114907,16.249525 c -0.325131,0.0436 -0.544878,0.266638 -0.62129,0.534524 -0.07642,0.267886 -0.0099,0.579905 0.240149,0.799464 0.216157,0.18979 0.494111,0.237803 0.735941,0.170429 0.241831,-0.06737 0.448898,-0.249736 0.523682,-0.520581 0.07972,-0.288735 0.01064,-0.555092 -0.153386,-0.73904 -0.164025,-0.18395 -0.423925,-0.285181 -0.725096,-0.244796 z"
       style="opacity:1;fill:#e6e6e6;fill-opacity:1;fill-rule:evenodd;stroke:none;stroke-width:0.8213039;stroke-linecap:round;stroke-linejoin:bevel;stroke-miterlimit:4;stroke-dasharray:none;stroke-dashoffset:0;stroke-opacity:1"
       inkscape:connector-curvature="0" />
    <path
       id="path4636-1"
       d="m -34.114907,16.249525 c 0.301171,-0.04039 0.56107,0.06085 0.725095,0.244796 0.164026,0.18395 0.23311,0.450305 0.153386,0.73904 -0.07478,0.270845 -0.28185,0.453206 -0.523681,0.520582 -0.24183,0.06737 -0.519784,0.01936 -0.735941,-0.170428 -0.250066,-0.219561 -0.316561,-0.53158 -0.240149,-0.799466 0.07642,-0.267886 0.296159,-0.490925 0.62129,-0.534524 z"
       style="opacity:1;fill:#e6e6e6;fill-opacity:1;fill-rule:evenodd;stroke:none;stroke-width:0.8213039;stroke-linecap:round;stroke-linejoin:bevel;stroke-miterlimit:4;stroke-dasharray:none;stroke-dashoffset:0;stroke-opacity:1"
       inkscape:connector-curvature="0" />
    <path
       id="path4634-2"
       d="m -35.225792,14.738908 c -0.324313,-0.165452 -0.616818,-0.111376 -0.890876,0.162681 -0.177205,0.177202 -0.204514,0.246365 -0.204514,0.511286 0,0.353513 0.153259,0.596794 0.458608,0.729744 0.257805,0.112249 0.324742,0.107821 0.627486,-0.03874 0.296394,-0.14349 0.446062,-0.409448 0.447763,-0.677065 0.0017,-0.267618 -0.143927,-0.53765 -0.438467,-0.687912 z"
       style="opacity:1;fill:#e6e6e6;fill-opacity:1;fill-rule:evenodd;stroke:none;stroke-width:0.8213039;stroke-linecap:round;stroke-linejoin:bevel;stroke-miterlimit:4;stroke-dasharray:none;stroke-dashoffset:0;stroke-opacity:1"
       inkscape:connector-curvature="0" />
    <path
       id="path4632-7"
       d="m -35.225792,14.738908 c 0.29454,0.150262 0.440167,0.420293 0.438467,0.687913 -0.0017,0.267617 -0.151369,0.533576 -0.447763,0.677065 -0.302743,0.146555 -0.369681,0.150983 -0.627486,0.03873 -0.305349,-0.132949 -0.458608,-0.376232 -0.458608,-0.729744 0,-0.26492 0.02731,-0.334083 0.204514,-0.511285 0.274058,-0.274057 0.566563,-0.328133 0.890876,-0.162682 z"
       style="opacity:1;fill:#e6e6e6;fill-opacity:1;fill-rule:evenodd;stroke:none;stroke-width:0.8213039;stroke-linecap:round;stroke-linejoin:bevel;stroke-miterlimit:4;stroke-dasharray:none;stroke-dashoffset:0;stroke-opacity:1"
       inkscape:connector-curvature="0" />
    <path
       id="path4630-0"
       d="m -32.102302,14.707922 c -0.308392,-0.128855 -0.610241,-0.06063 -0.864538,0.193668 -0.177204,0.177202 -0.204513,0.246365 -0.204513,0.511286 0,0.353513 0.151711,0.596794 0.457058,0.729744 0.246866,0.107512 0.364927,0.106859 0.624388,-0.0016 0.303543,-0.126829 0.453321,-0.421264 0.450861,-0.7158 -0.0025,-0.294536 -0.157584,-0.589631 -0.463256,-0.717348 z"
       style="opacity:1;fill:#e6e6e6;fill-opacity:1;fill-rule:evenodd;stroke:none;stroke-width:0.8213039;stroke-linecap:round;stroke-linejoin:bevel;stroke-miterlimit:4;stroke-dasharray:none;stroke-dashoffset:0;stroke-opacity:1"
       inkscape:connector-curvature="0" />
    <path
       id="path4628-9"
       d="m -32.102302,14.707922 c 0.305671,0.127717 0.460795,0.422812 0.463256,0.717347 0.0025,0.294537 -0.147318,0.588972 -0.450861,0.7158 -0.259461,0.108409 -0.377522,0.109062 -0.624388,0.0016 -0.305348,-0.132949 -0.457058,-0.376231 -0.457058,-0.729744 0,-0.26492 0.0273,-0.334084 0.204513,-0.511285 0.254297,-0.254296 0.556146,-0.322523 0.864538,-0.193668 z"
       style="opacity:1;fill:#ffca58;fill-opacity:1;fill-rule:evenodd;stroke:none;stroke-width:0.8213039;stroke-linecap:round;stroke-linejoin:bevel;stroke-miterlimit:4;stroke-dasharray:none;stroke-dashoffset:0;stroke-opacity:1"
       inkscape:connector-curvature="0" />
    <path
       id="path4626-3"
       d="m -44.28639,13.451399 v 0.771576 0.771577 h -0.771577 -0.773126 v 0.802562 0.804111 h 0.773126 0.771577 v 0.802564 0.802563 h 0.802563 0.802564 v -0.802563 -0.802564 h 0.804112 0.805662 l -0.01859,-0.788617 -0.01704,-0.787071 -0.78707,-0.01704 -0.787068,-0.01705 V 14.22142 13.451392 h -0.802564 z"
       style="opacity:1;fill:#e6e6e6;fill-opacity:1;fill-rule:evenodd;stroke:none;stroke-width:0.8213039;stroke-linecap:round;stroke-linejoin:bevel;stroke-miterlimit:4;stroke-dasharray:none;stroke-dashoffset:0;stroke-opacity:1"
       inkscape:connector-curvature="0" />
    <path
       id="path4624-6"
       d="m -33.53545,13.222094 c -0.322225,-0.216839 -0.691544,-0.194794 -0.968345,0.05888 -0.19739,0.180895 -0.283211,0.417401 -0.26184,0.64298 0.02137,0.225579 0.150361,0.440631 0.378042,0.579457 0.213264,0.130036 0.447964,0.150731 0.652276,0.08057 0.204311,-0.07016 0.377006,-0.230848 0.466355,-0.464807 0.136375,-0.357093 0.03734,-0.692615 -0.266488,-0.897073 z"
       style="opacity:1;fill:#ee5353;fill-opacity:1;fill-rule:evenodd;stroke:none;stroke-width:0.8213039;stroke-linecap:round;stroke-linejoin:bevel;stroke-miterlimit:4;stroke-dasharray:none;stroke-dashoffset:0;stroke-opacity:1"
       inkscape:connector-curvature="0" />
  </g>
</svg>
