<?xml version="1.0" encoding="UTF-8" standalone="no"?>
<svg
   xmlns:dc="http://purl.org/dc/elements/1.1/"
   xmlns:cc="http://creativecommons.org/ns#"
   xmlns:rdf="http://www.w3.org/1999/02/22-rdf-syntax-ns#"
   xmlns:svg="http://www.w3.org/2000/svg"
   xmlns="http://www.w3.org/2000/svg"
   xmlns:sodipodi="http://sodipodi.sourceforge.net/DTD/sodipodi-0.dtd"
   xmlns:inkscape="http://www.inkscape.org/namespaces/inkscape"
   height="32"
   width="32"
   version="1"
   id="svg12"
   sodipodi:docname="qt-recordmydesktop.svg"
   inkscape:version="0.92.2 2405546, 2018-03-11">
  <metadata
     id="metadata18">
    <rdf:RDF>
      <cc:Work
         rdf:about="">
        <dc:format>image/svg+xml</dc:format>
        <dc:type
           rdf:resource="http://purl.org/dc/dcmitype/StillImage" />
        <dc:title></dc:title>
      </cc:Work>
    </rdf:RDF>
  </metadata>
  <defs
     id="defs16" />
  <sodipodi:namedview
     pagecolor="#ffffff"
     bordercolor="#666666"
     borderopacity="1"
     objecttolerance="10"
     gridtolerance="10"
     guidetolerance="10"
     inkscape:pageopacity="0"
     inkscape:pageshadow="2"
     inkscape:window-width="1680"
     inkscape:window-height="972"
     id="namedview14"
     showgrid="false"
     inkscape:zoom="14.75"
     inkscape:cx="2.6101718"
     inkscape:cy="15.878073"
     inkscape:window-x="1360"
     inkscape:window-y="0"
     inkscape:window-maximized="1"
     inkscape:current-layer="svg12" />
  <rect
     style="opacity:1;fill:#ececec;fill-opacity:1;fill-rule:evenodd;stroke:none;stroke-width:1.03534329;stroke-linecap:round;stroke-linejoin:bevel;stroke-miterlimit:4;stroke-dasharray:none;stroke-dashoffset:0;stroke-opacity:1"
     id="rect4497-3"
     width="28.203388"
     height="28.203388"
     x="1.8983059"
     y="1.8983059"
     ry="5.575182" />
  <path
     style="fill:#00008c;fill-opacity:1;stroke-width:0.32215771"
     d="M 11.531283,24.722958 C 9.4740891,24.31698 7.7213301,23.42092 8.0245891,22.930236 8.1212991,22.77376 8.7420431,22.472674 9.4040251,22.261156 10.066008,22.049638 10.729788,21.764684 10.879093,21.627924 11.304215,21.238522 10.62646,20.271172 9.1892741,19.216072 4.8683561,16.043898 6.1211971,9.8455709 11.574103,7.4173332 12.865219,6.8423851 13.792268,6.6981569 16.24539,6.6905843 c 3.483096,-0.010752 5.45676,0.6530702 7.357318,2.4745609 2.990844,2.8664188 3.068581,6.2233438 0.224489,9.6941828 -1.454179,1.774634 -1.47901,2.582107 -0.09164,2.979999 2.286252,0.655689 0.546966,2.096256 -3.455546,2.862063 -2.913621,0.557468 -5.994697,0.565063 -8.748727,0.02157 z m 10.029709,-0.877059 c 1.956642,-0.521861 2.302175,-0.923944 1.394234,-1.622413 -0.934547,-0.718937 -1.674666,-0.738967 -2.691308,-0.07284 -0.505867,0.331457 -2.189152,0.650932 -4.667914,0.885934 -3.726453,0.353292 -4.735706,0.751117 -3.15498,1.243622 0.991119,0.308802 7.495071,-9.34e-4 9.119968,-0.434305 z m 0.798812,-5.193603 c 1.965773,-1.004461 2.677877,-2.099956 2.824247,-4.3448 C 25.352859,11.718528 24.626354,10.482694 22.200862,9.2328924 19.718917,7.9540016 16.391886,7.7216666 14.233328,8.6764992 11.568531,9.8552659 8.8775441,12.846529 9.3019151,14.158189 c 0.21385,0.660977 2.1074539,1.997385 2.8301649,1.997385 0.284959,0 1.326376,-0.906069 2.31426,-2.013486 l 1.796154,-2.013486 0.0014,2.126923 c 0.0029,4.250679 2.661402,6.161914 6.115863,4.396771 z m -1.360675,-2.75825 c 0.142301,-1.480954 0.09942,-1.59635 -0.664422,-1.788063 -0.449098,-0.112716 -1.038575,-0.119736 -1.30995,-0.0156 -0.65998,0.253258 -1.18167,-0.103102 -0.967601,-0.660956 0.254976,-0.664456 2.014532,-1.17637 3.248037,-0.944963 2.169194,0.406943 2.372162,2.281064 0.446813,4.125666 l -0.904996,0.867041 z"
     id="path965"
     inkscape:connector-curvature="0" />
</svg>
