<?xml version="1.0" encoding="UTF-8" standalone="no"?>
<svg
   xmlns:dc="http://purl.org/dc/elements/1.1/"
   xmlns:cc="http://creativecommons.org/ns#"
   xmlns:rdf="http://www.w3.org/1999/02/22-rdf-syntax-ns#"
   xmlns:svg="http://www.w3.org/2000/svg"
   xmlns="http://www.w3.org/2000/svg"
   xmlns:sodipodi="http://sodipodi.sourceforge.net/DTD/sodipodi-0.dtd"
   xmlns:inkscape="http://www.inkscape.org/namespaces/inkscape"
   height="32"
   width="32"
   version="1"
   id="svg12"
   sodipodi:docname="rambox.svg"
   inkscape:version="0.92.1 r">
  <metadata
     id="metadata18">
    <rdf:RDF>
      <cc:Work
         rdf:about="">
        <dc:format>image/svg+xml</dc:format>
        <dc:type
           rdf:resource="http://purl.org/dc/dcmitype/StillImage" />
      </cc:Work>
    </rdf:RDF>
  </metadata>
  <defs
     id="defs16" />
  <sodipodi:namedview
     pagecolor="#ffffff"
     bordercolor="#666666"
     borderopacity="1"
     objecttolerance="10"
     gridtolerance="10"
     guidetolerance="10"
     inkscape:pageopacity="0"
     inkscape:pageshadow="2"
     inkscape:window-width="640"
     inkscape:window-height="480"
     id="namedview14"
     showgrid="false"
     inkscape:zoom="6.3197669"
     inkscape:cx="-8.6401689"
     inkscape:cy="12.280269"
     inkscape:current-layer="svg12" />
  <rect
     style="opacity:1;fill:#5a4080;fill-opacity:1;fill-rule:evenodd;stroke:none;stroke-width:1.03534329;stroke-linecap:round;stroke-linejoin:bevel;stroke-miterlimit:4;stroke-dasharray:none;stroke-dashoffset:0;stroke-opacity:1"
     id="rect4497-6-3"
     width="28.203388"
     height="28.203388"
     x="1.8983059"
     y="1.8983059"
     ry="5.575182" />
  <g
     id="g4536"
     transform="translate(47.105468,-1.2304686)">
    <path
       id="path4532"
       d="m -29.208984,31.332031 c 0.164502,-0.719141 0.354496,-1.378141 0.419922,-2.322265 0.09844,-1.420485 0.08423,-2.818113 -0.04102,-3.351563 -0.167,-0.657 -0.598313,-1.836812 -0.570313,-1.882812 0.02856,-0.04611 0.733532,0.02539 1.332032,0.02539 0.70707,0 1.225309,0.02548 1.599609,-0.08789 0.31687,-0.09597 0.695212,-0.251585 0.919922,-0.240235 0.4996,0.02521 1.066053,-0.07646 1.548828,-0.294922 0.482775,-0.218465 0.881828,-0.553697 1.048828,-0.998046 0.1037,-0.275961 0.539477,-0.632556 0.654297,-0.791016 0.18795,-0.25939 0.286756,-0.47303 0.166016,-0.88086 -0.17,-0.576 -0.866516,-0.913937 -1.603516,-1.585937 -0.558,-0.51 -0.837234,-0.564375 -0.865234,-1.109375 -0.02054,-0.4008 0.08637,-0.680056 -0.13086,-0.884766 -0.24624,-0.23205 -0.869536,-0.08344 -0.910156,-0.08789 -0.129345,-0.15049 -0.254579,-0.304307 -0.289063,-0.47461 -0.03448,-0.170302 0.02179,-0.357118 0.259766,-0.574218 0.36,-0.329 0.570313,-0.475938 0.570313,-0.835938 0,-0.35365 -0.209295,-0.456889 -0.521485,-0.730469 -0.20622,-0.18071 -0.426567,-0.328125 -0.492187,-0.328125 -0.06562,0 -0.397758,-0.263617 -0.736328,-0.585937 -0.328,-0.3125 -0.607766,-0.446078 -0.869141,-0.501953 -0.261375,-0.05587 -0.504266,-0.0332 -0.759766,-0.0332 -0.2065,0 -0.361218,-0.100141 -0.464843,-0.275391 -0.103625,-0.17525 -0.15625,-0.425609 -0.15625,-0.724609 0.275,-0.995501 0.818359,-1.8805691 1.396484,-2.5742191 0.578125,-0.69365 1.191016,-1.1958813 1.603516,-1.4257813 -1.045,-0.14795 -1.948297,0.036353 -2.763672,0.4160156 -0.815375,0.3796625 -1.542828,0.9546845 -2.236328,1.5839844 -0.06496,-0.7308714 0.920981,-2.5242742 1,-2.9980468 -0.739953,0.38792 -1.322344,1.0578296 -1.802735,1.7949218 -0.480912,0.7378925 -0.860062,1.5424254 -1.195312,2.2031254 -0.42617,-0.57609 -0.3346,-1.7839004 -0.5,-2.5000004 -0.65495,0.8622501 -1.126138,2.0346064 -1.5,3.2070314 -0.373863,1.172425 -0.650363,2.344881 -0.914063,3.207031 -0.373365,1.22565 -0.797794,2.21575 -1.298828,3.007813 -0.501034,0.792062 -1.078712,1.386118 -1.757812,1.824218 -0.80705,0.52062 -1.53025,0.788408 -3.09375,1.142578 -0.243353,0.07203 -1.796297,0.616534 -3.044922,1.050782 v 4.042968 c 0,3.088651 2.487521,5.574219 5.576172,5.574219 z"
       style="opacity:1;fill:#7abccb;fill-opacity:1;fill-rule:evenodd;stroke:none;stroke-width:1.03534329;stroke-linecap:round;stroke-linejoin:bevel;stroke-miterlimit:4;stroke-dasharray:none;stroke-dashoffset:0;stroke-opacity:1"
       inkscape:connector-curvature="0" />
    <path
       id="rect4497-6"
       d="m -39.630859,3.1289062 c -3.088651,0 -5.576172,2.4875211 -5.576172,5.5761719 V 21.714844 c 1.248625,-0.434248 2.801569,-0.978747 3.044922,-1.050782 1.5635,-0.35417 2.2867,-0.621958 3.09375,-1.142578 0.6791,-0.4381 1.256778,-1.032156 1.757812,-1.824218 0.501034,-0.792063 0.925463,-1.782163 1.298828,-3.007813 0.2637,-0.86215 0.5402,-2.034606 0.914063,-3.207031 0.373862,-1.172425 0.84505,-2.3447813 1.5,-3.2070314 0.1654,0.7161 0.07383,1.9239104 0.5,2.5000004 0.33525,-0.6607 0.7144,-1.4652329 1.195312,-2.2031254 0.480391,-0.7370922 1.062782,-1.4070018 1.802735,-1.7949218 0,0 0,-0.00195 0,-0.00195 0,0 0,0 0,0 0,0 0,0.00195 0,0.00195 -0.07902,0.4737726 -1.064962,2.2671754 -1,2.9980468 0.6935,-0.6292999 1.420953,-1.2043219 2.236328,-1.5839844 0.815375,-0.3796624 1.718672,-0.5639656 2.763672,-0.4160156 -0.4125,0.2299 -1.025391,0.7321313 -1.603516,1.4257813 -0.578125,0.69365 -1.121484,1.5787181 -1.396484,2.5742191 0,0.299 0.05263,0.549359 0.15625,0.724609 0.103625,0.17525 0.258343,0.275391 0.464843,0.275391 0.2555,0 0.498391,-0.02267 0.759766,0.0332 0.261375,0.05588 0.541141,0.189453 0.869141,0.501953 0.33857,0.32232 0.670708,0.585937 0.736328,0.585937 0.06562,0 0.285967,0.147415 0.492187,0.328125 0.31219,0.27358 0.521485,0.376819 0.521485,0.730469 0,0.36 -0.210313,0.506938 -0.570313,0.835938 -0.23798,0.2171 -0.294249,0.403916 -0.259766,0.574218 0.03448,0.170303 0.159718,0.32412 0.289063,0.47461 0.04062,0.0045 0.663916,-0.14416 0.910156,0.08789 0.21723,0.20471 0.11032,0.483966 0.13086,0.884766 0.028,0.545 0.307234,0.599375 0.865234,1.109375 0.737,0.672 1.433516,1.009937 1.603516,1.585937 0.12074,0.40783 0.02193,0.62147 -0.166016,0.88086 -0.11482,0.15846 -0.550597,0.515055 -0.654297,0.791016 -0.167,0.444349 -0.566053,0.779581 -1.048828,0.998046 -0.482775,0.218465 -1.049228,0.320132 -1.548828,0.294922 -0.22471,-0.01135 -0.603052,0.144265 -0.919922,0.240235 -0.3743,0.11337 -0.892539,0.08789 -1.599609,0.08789 -0.5985,0 -1.303472,-0.0715 -1.332032,-0.02539 -0.028,0.046 0.403313,1.225812 0.570313,1.882812 0.125245,0.53345 0.139452,1.931078 0.04102,3.351563 -0.06543,0.944124 -0.25542,1.603124 -0.419922,2.322265 h 6.630859 c 3.088651,0 5.574219,-2.485568 5.574219,-5.574219 V 8.7050781 c 0,-3.0886508 -2.485568,-5.5761719 -5.574219,-5.5761719 z"
       style="opacity:1;fill:#5a4080;fill-opacity:1;fill-rule:evenodd;stroke:none;stroke-width:1.03534329;stroke-linecap:round;stroke-linejoin:bevel;stroke-miterlimit:4;stroke-dasharray:none;stroke-dashoffset:0;stroke-opacity:1"
       inkscape:connector-curvature="0" />
  </g>
</svg>
