<?xml version="1.0" encoding="UTF-8" standalone="no"?>
<svg
   xmlns:dc="http://purl.org/dc/elements/1.1/"
   xmlns:cc="http://creativecommons.org/ns#"
   xmlns:rdf="http://www.w3.org/1999/02/22-rdf-syntax-ns#"
   xmlns:svg="http://www.w3.org/2000/svg"
   xmlns="http://www.w3.org/2000/svg"
   xmlns:sodipodi="http://sodipodi.sourceforge.net/DTD/sodipodi-0.dtd"
   xmlns:inkscape="http://www.inkscape.org/namespaces/inkscape"
   width="32"
   height="32"
   version="1.1"
   viewBox="0 0 32 32"
   id="svg22"
   sodipodi:docname="com.jagex.RuneScape.svg"
   inkscape:version="0.92.1 r">
  <metadata
     id="metadata28">
    <rdf:RDF>
      <cc:Work
         rdf:about="">
        <dc:format>image/svg+xml</dc:format>
        <dc:type
           rdf:resource="http://purl.org/dc/dcmitype/StillImage" />
      </cc:Work>
    </rdf:RDF>
  </metadata>
  <defs
     id="defs26" />
  <sodipodi:namedview
     pagecolor="#ffffff"
     bordercolor="#666666"
     borderopacity="1"
     objecttolerance="10"
     gridtolerance="10"
     guidetolerance="10"
     inkscape:pageopacity="0"
     inkscape:pageshadow="2"
     inkscape:window-width="640"
     inkscape:window-height="480"
     id="namedview24"
     showgrid="false"
     inkscape:zoom="8.8125"
     inkscape:cx="-5.6737589"
     inkscape:cy="16"
     inkscape:current-layer="svg22" />
  <rect
     style="opacity:1;fill:#38738f;fill-opacity:1;fill-rule:evenodd;stroke:none;stroke-width:1.03534329;stroke-linecap:round;stroke-linejoin:bevel;stroke-miterlimit:4;stroke-dasharray:none;stroke-dashoffset:0;stroke-opacity:1"
     id="rect4497-3"
     width="28.203388"
     height="28.203388"
     x="1.8983059"
     y="1.8983059"
     ry="5.575182" />
  <path
     style="fill:#ffffff;stroke-width:0.99999988"
     d="M 16,5.51773 A 10.48227,10.48227 0 0 0 5.5177305,16 10.48227,10.48227 0 0 0 16,26.482269 10.48227,10.48227 0 0 0 26.482269,16 10.48227,10.48227 0 0 0 16,5.51773 Z"
     id="path4"
     inkscape:connector-curvature="0" />
  <g
     id="g4517"
     transform="matrix(0.75035461,0,0,0.75035461,3.6723404,4.5617021)"
     style="fill:#38738f;fill-opacity:1;stroke-width:1.33270323">
    <path
       id="path8"
       d="m 12,11 h 3 V 24.295455 L 13.5,26 12,24.295455 Z"
       style="fill:#38738f;fill-opacity:1;stroke-width:1.33270323"
       inkscape:connector-curvature="0" />
    <path
       id="path10"
       d="m 12.550781,10 v 0.0059 c -0.567365,0.0042 -1.012333,0.01414 -1.537109,0.134766 C 10.479846,10.263338 10,10.367326 10,11.033992 l 0.699219,0.332032 c 0,0 0.366053,-0.275148 0.701172,-0.332032 0.383497,-0.06509 0.812496,0.152555 1.15039,0.365235 v 0.300781 H 13 14 c 0,0 0.959589,-0.77465 1.599609,-0.666016 0.335119,0.05688 0.701172,0.332032 0.701172,0.332032 L 17,11.033992 C 17,10.367326 16.520154,10.263338 15.986328,10.140625 15.321534,9.987808 14.858992,10.0095 14,10 h -1 z"
       style="fill:#38738f;fill-opacity:1;stroke-width:1.33270323"
       inkscape:connector-curvature="0" />
    <rect
       id="rect12"
       transform="rotate(90)"
       y="-14"
       x="6.5999999"
       height="1"
       width="4"
       style="fill:#38738f;fill-opacity:1;stroke-width:1.33270323" />
    <path
       id="path14"
       d="M 15,6 C 15,6.5522845 14.328426,7 13.5,7 12.671574,7 12,6.5522845 12,6 Z"
       style="fill:#38738f;fill-opacity:1;stroke-width:1.33270323"
       inkscape:connector-curvature="0" />
    <rect
       id="rect16"
       transform="rotate(45)"
       y="2.48"
       x="19.450001"
       height="2.1210001"
       width="2.1210001"
       style="fill:#38738f;fill-opacity:1;stroke-width:1.33270323" />
    <path
       id="path18"
       d="M 17.660156,10 C 17.860475,10.303301 18,10.674471 18,11.033203 a 1.0001,1.0001 0 0 1 -0.306641,0.720703 C 18.515052,12.326342 19,13.361843 19,14.382812 19,16.274988 17.945159,16.441368 16,17 c 1.167345,2.853612 3.493869,5.378553 5.794922,6.685547 C 23.758094,24.872377 25.557087,25.707458 28,26 25.302155,22.706834 21.100699,21.257197 19,18 20.403877,17.263798 22,16.628085 22,14.195312 22,12.22177 20.199804,10 18.861328,10 Z"
       style="fill:#38738f;fill-opacity:1;stroke-width:1.33270323"
       inkscape:connector-curvature="0" />
  </g>
</svg>
