<?xml version="1.0" encoding="UTF-8" standalone="no"?>
<svg
   xmlns:dc="http://purl.org/dc/elements/1.1/"
   xmlns:cc="http://creativecommons.org/ns#"
   xmlns:rdf="http://www.w3.org/1999/02/22-rdf-syntax-ns#"
   xmlns:svg="http://www.w3.org/2000/svg"
   xmlns="http://www.w3.org/2000/svg"
   xmlns:sodipodi="http://sodipodi.sourceforge.net/DTD/sodipodi-0.dtd"
   xmlns:inkscape="http://www.inkscape.org/namespaces/inkscape"
   height="32"
   width="32"
   version="1"
   id="svg8"
   sodipodi:docname="sayonara.svg"
   inkscape:version="0.92.4 5da689c313, 2019-01-14">
  <metadata
     id="metadata14">
    <rdf:RDF>
      <cc:Work
         rdf:about="">
        <dc:format>image/svg+xml</dc:format>
        <dc:type
           rdf:resource="http://purl.org/dc/dcmitype/StillImage" />
      </cc:Work>
    </rdf:RDF>
  </metadata>
  <defs
     id="defs12" />
  <sodipodi:namedview
     pagecolor="#ffffff"
     bordercolor="#666666"
     borderopacity="1"
     objecttolerance="10"
     gridtolerance="10"
     guidetolerance="10"
     inkscape:pageopacity="0"
     inkscape:pageshadow="2"
     inkscape:window-width="640"
     inkscape:window-height="480"
     id="namedview10"
     showgrid="false"
     inkscape:zoom="6.2313785"
     inkscape:cx="-44.162812"
     inkscape:cy="34.527623"
     inkscape:current-layer="svg8" />
  <rect
     style="opacity:1;fill:#3c3c3c;fill-opacity:1;fill-rule:evenodd;stroke:none;stroke-width:1.03534329;stroke-linecap:round;stroke-linejoin:bevel;stroke-miterlimit:4;stroke-dasharray:none;stroke-dashoffset:0;stroke-opacity:1"
     id="rect4497-3"
     width="28.203388"
     height="28.203388"
     x="1.8983059"
     y="1.8983059"
     ry="5.575182" />
  <g
     id="g841"
     transform="translate(0.03225375,-0.24071815)">
    <path
       inkscape:connector-curvature="0"
       id="rect827"
       d="m 14.090394,13.979586 c -1.252878,0 -2.26217,1.008253 -2.26217,2.261131 0,1.252878 1.009292,2.261131 2.26217,2.261131 h 10.154838 c 1.252878,0 2.26217,-1.008253 2.26217,-2.261131 0,-1.252878 -1.009292,-2.261131 -2.26217,-2.261131 z m -6.4022108,0.0011 a 2.2600926,2.2600926 0 0 0 -2.2600927,2.260093 2.2600926,2.2600926 0 0 0 2.2600927,2.260093 2.2600926,2.2600926 0 0 0 2.260093,-2.260093 2.2600926,2.2600926 0 0 0 -2.260093,-2.260093 z"
       style="opacity:1;fill:#ffffff;fill-opacity:1;stroke:none;stroke-width:0.47999999;stroke-miterlimit:4;stroke-dasharray:none;stroke-opacity:1" />
    <path
       inkscape:connector-curvature="0"
       style="opacity:1;fill:#ffffff;fill-opacity:1;stroke:none;stroke-width:0.47999999;stroke-miterlimit:4;stroke-dasharray:none;stroke-opacity:1"
       d="m 14.090394,8.2191303 c -1.252878,0 -2.26217,1.0082529 -2.26217,2.2611317 0,1.252878 1.009292,2.261131 2.26217,2.261131 h 10.154838 c 1.252878,0 2.26217,-1.008253 2.26217,-2.261131 0,-1.2528788 -1.009292,-2.2611317 -2.26217,-2.2611317 z m -6.4022108,0.00104 a 2.2600926,2.2600926 0 0 0 -2.2600927,2.2600927 2.2600926,2.2600926 0 0 0 2.2600927,2.260092 2.2600926,2.2600926 0 0 0 2.260093,-2.260092 2.2600926,2.2600926 0 0 0 -2.260093,-2.2600927 z"
       id="path834" />
    <path
       id="path836"
       d="m 14.090394,19.740043 c -1.252878,0 -2.26217,1.008253 -2.26217,2.261132 0,1.252878 1.009292,2.261131 2.26217,2.261131 h 10.154838 c 1.252878,0 2.26217,-1.008253 2.26217,-2.261131 0,-1.252879 -1.009292,-2.261132 -2.26217,-2.261132 z m -6.4022108,0.0011 a 2.2600926,2.2600926 0 0 0 -2.2600927,2.260093 2.2600926,2.2600926 0 0 0 2.2600927,2.260093 2.2600926,2.2600926 0 0 0 2.260093,-2.260093 2.2600926,2.2600926 0 0 0 -2.260093,-2.260093 z"
       style="opacity:1;fill:#f47d13;fill-opacity:1;stroke:none;stroke-width:0.47999999;stroke-miterlimit:4;stroke-dasharray:none;stroke-opacity:1"
       inkscape:connector-curvature="0" />
  </g>
</svg>
