<?xml version="1.0" encoding="UTF-8" standalone="no"?>
<svg
   xmlns:dc="http://purl.org/dc/elements/1.1/"
   xmlns:cc="http://creativecommons.org/ns#"
   xmlns:rdf="http://www.w3.org/1999/02/22-rdf-syntax-ns#"
   xmlns:svg="http://www.w3.org/2000/svg"
   xmlns="http://www.w3.org/2000/svg"
   xmlns:sodipodi="http://sodipodi.sourceforge.net/DTD/sodipodi-0.dtd"
   xmlns:inkscape="http://www.inkscape.org/namespaces/inkscape"
   height="32"
   width="32"
   version="1"
   id="svg16"
   sodipodi:docname="screenshot.svg"
   inkscape:version="0.92.2 2405546, 2018-03-11">
  <metadata
     id="metadata22">
    <rdf:RDF>
      <cc:Work
         rdf:about="">
        <dc:format>image/svg+xml</dc:format>
        <dc:type
           rdf:resource="http://purl.org/dc/dcmitype/StillImage" />
        <dc:title></dc:title>
      </cc:Work>
    </rdf:RDF>
  </metadata>
  <defs
     id="defs20" />
  <sodipodi:namedview
     pagecolor="#ffffff"
     bordercolor="#666666"
     borderopacity="1"
     objecttolerance="10"
     gridtolerance="10"
     guidetolerance="10"
     inkscape:pageopacity="0"
     inkscape:pageshadow="2"
     inkscape:window-width="1680"
     inkscape:window-height="972"
     id="namedview18"
     showgrid="false"
     inkscape:zoom="14.75"
     inkscape:cx="-8.2537016"
     inkscape:cy="18.509983"
     inkscape:window-x="1360"
     inkscape:window-y="0"
     inkscape:window-maximized="1"
     inkscape:current-layer="svg16" />
  <rect
     style="opacity:1;fill:#5b5b5b;fill-opacity:1;fill-rule:evenodd;stroke:none;stroke-width:1.03534329;stroke-linecap:round;stroke-linejoin:bevel;stroke-miterlimit:4;stroke-dasharray:none;stroke-dashoffset:0;stroke-opacity:1"
     id="rect4497-3-3-3-3"
     width="28.203388"
     height="28.203388"
     x="1.8983057"
     y="1.898306"
     ry="5.575182" />
  <path
     inkscape:connector-curvature="0"
     style="opacity:1;fill:#8e8e8e;fill-opacity:1;fill-rule:evenodd;stroke:none;stroke-width:1.03534329;stroke-linecap:round;stroke-linejoin:bevel;stroke-miterlimit:4;stroke-dasharray:none;stroke-dashoffset:0;stroke-opacity:1"
     d="M 7.269533,1.939453 C 4.281525,2.051921 1.898439,4.456166 1.898439,7.472656 v 17.054687 c 0,3.088651 2.485568,5.574219 5.574219,5.574219 h 17.052735 c 3.088651,0 5.576172,-2.485568 5.576172,-5.574219 V 7.472656 c 0,-3.088651 -2.487521,-5.574219 -5.576172,-5.574219 h -13.25586 v 1.5625 c 0,0.277 -0.112219,0.526282 -0.292969,0.707032 -0.18075,0.18075 -0.430031,0.292968 -0.707031,0.292968 h -2 c -0.277,0 -0.528234,-0.112218 -0.708984,-0.292968 C 7.379799,3.987219 7.269533,3.737937 7.269533,3.460937 Z"
     id="path4525-6" />
  <path
     inkscape:connector-curvature="0"
     style="opacity:1;fill:#4d4d4d;fill-opacity:1;fill-rule:evenodd;stroke:none;stroke-width:1.03534329;stroke-linecap:round;stroke-linejoin:bevel;stroke-miterlimit:4;stroke-dasharray:none;stroke-dashoffset:0;stroke-opacity:1"
     d="m 7.269533,1.939453 v 1.521484 c 0,0.277 0.110266,0.526282 0.291016,0.707032 0.18075,0.18075 0.431984,0.292968 0.708984,0.292968 h 2 c 0.277,0 0.526281,-0.112218 0.707031,-0.292968 0.18075,-0.18075 0.292969,-0.430032 0.292969,-0.707032 v -1.5625 H 7.472658 c -0.07216,0 -0.131645,0.03833 -0.203125,0.04102 z"
     id="rect4497-3-3" />
  <circle
     style="opacity:1;fill:#4d4d4d;fill-opacity:1"
     cx="25.861708"
     cy="7.2978725"
     r="1"
     id="circle8-6-7" />
  <circle
     style="opacity:1;fill:#4d4d4d;fill-opacity:1"
     cx="16.000006"
     cy="16"
     r="8"
     id="circle10-5" />
  <circle
     style="fill:#0085e5;fill-opacity:1"
     cx="16.000006"
     cy="-16"
     r="6"
     transform="scale(1,-1)"
     id="circle14-7-3" />
  <circle
     style="fill:#66bffd;fill-opacity:1"
     cx="16.000006"
     cy="16"
     r="4"
     id="circle18-5-5" />
</svg>
