<?xml version="1.0" encoding="UTF-8" standalone="no"?>
<svg
   xmlns:dc="http://purl.org/dc/elements/1.1/"
   xmlns:cc="http://creativecommons.org/ns#"
   xmlns:rdf="http://www.w3.org/1999/02/22-rdf-syntax-ns#"
   xmlns:svg="http://www.w3.org/2000/svg"
   xmlns="http://www.w3.org/2000/svg"
   xmlns:sodipodi="http://sodipodi.sourceforge.net/DTD/sodipodi-0.dtd"
   xmlns:inkscape="http://www.inkscape.org/namespaces/inkscape"
   height="32"
   width="32"
   version="1"
   id="svg16"
   sodipodi:docname="stremio.svg"
   inkscape:version="0.92.1 r">
  <metadata
     id="metadata22">
    <rdf:RDF>
      <cc:Work
         rdf:about="">
        <dc:format>image/svg+xml</dc:format>
        <dc:type
           rdf:resource="http://purl.org/dc/dcmitype/StillImage" />
      </cc:Work>
    </rdf:RDF>
  </metadata>
  <defs
     id="defs20" />
  <sodipodi:namedview
     pagecolor="#ffffff"
     bordercolor="#666666"
     borderopacity="1"
     objecttolerance="10"
     gridtolerance="10"
     guidetolerance="10"
     inkscape:pageopacity="0"
     inkscape:pageshadow="2"
     inkscape:window-width="640"
     inkscape:window-height="480"
     id="namedview18"
     showgrid="false"
     inkscape:zoom="8.375"
     inkscape:cx="-6.6865672"
     inkscape:cy="16"
     inkscape:current-layer="svg16" />
  <rect
     style="opacity:1;fill:#050505;fill-opacity:0.2;fill-rule:evenodd;stroke:none;stroke-width:1.03534329;stroke-linecap:round;stroke-linejoin:bevel;stroke-miterlimit:4;stroke-dasharray:none;stroke-dashoffset:0;stroke-opacity:1"
     id="rect4497-3-3"
     width="28.203388"
     height="28.203388"
     x="1.8983059"
     y="1.8983059"
     ry="5.575182" />
  <path
     style="fill:#67428d;stroke-width:1"
     d="m 15.999701,5.1791337 c -0.566833,0 -1.134046,0.211276 -1.557769,0.634988 L 5.8141021,14.442914 c -0.847444,0.847423 -0.846242,2.265594 0.0012,3.113018 l 8.6278299,8.628792 c 0.847445,0.847424 2.26688,0.848625 3.114324,0.0012 l 8.627841,-8.628781 c 0.847444,-0.847424 0.847445,-2.266809 0,-3.114232 L 17.557444,5.8140957 c -0.423722,-0.423712 -0.990935,-0.634988 -1.55777,-0.634988 z"
     id="path4"
     inkscape:connector-curvature="0" />
  <g
     transform="matrix(0.52425055,0,0,0.51567319,3.6331917,3.4087123)"
     id="g12"
     style="fill:#8b93ff;stroke-width:1.38620746">
    <path
       d="m 24.956,23.844 v 0.08935 c 3.5841,0.46662 5.5137,2.1941 5.5137,5.1825 0,2.0154 -0.68504,3.6039 -2.0551,4.7655 -1.3701,1.1517 -3.3508,1.7275 -5.942,1.7275 -2.4026,0 -4.3237,-0.39216 -5.7633,-1.1765 v -2.5317 c 1.8268,0.9531 3.728,1.4297 5.7037,1.4297 3.5146,0 5.2719,-1.4346 5.2719,-4.3039 0,-2.5615 -1.8913,-3.8422 -5.6739,-3.8422 h -1.1735 v -2.1659 h 1.1735 c 1.5885,0 2.4068,-0.46011 3.2805,-1.2146 0.87368,-0.75454 1.3105,-1.7523 1.3105,-2.9933 0,-1.0127 -0.33756,-1.8119 -1.0127,-2.3976 -0.67512,-0.59569 -1.5786,-0.89353 -2.7104,-0.89353 -1.7672,0 -3.0621,0.60065 -4.7101,1.802 l -1.371,-1.862 c 1.8566,-1.4892 3.6081,-2.2338 6.0802,-2.2338 2.0452,0 3.3434,0.49144 4.4852,1.4743 1.1517,0.98289 1.7275,2.2934 1.7275,3.9316 0,1.3701 -0.1319,2.5168 -0.94601,3.4401 -0.81411,0.92332 -1.6804,1.514 -3.1895,1.7722 z"
       id="path10"
       inkscape:connector-curvature="0"
       style="stroke-width:1.38620746" />
  </g>
</svg>
