<?xml version="1.0" encoding="UTF-8" standalone="no"?>
<svg
   xmlns:dc="http://purl.org/dc/elements/1.1/"
   xmlns:cc="http://creativecommons.org/ns#"
   xmlns:rdf="http://www.w3.org/1999/02/22-rdf-syntax-ns#"
   xmlns:svg="http://www.w3.org/2000/svg"
   xmlns="http://www.w3.org/2000/svg"
   xmlns:sodipodi="http://sodipodi.sourceforge.net/DTD/sodipodi-0.dtd"
   xmlns:inkscape="http://www.inkscape.org/namespaces/inkscape"
   height="32"
   width="32"
   version="1"
   id="svg64"
   sodipodi:docname="supertuxkart.svg"
   inkscape:version="0.92.1 r">
  <metadata
     id="metadata70">
    <rdf:RDF>
      <cc:Work
         rdf:about="">
        <dc:format>image/svg+xml</dc:format>
        <dc:type
           rdf:resource="http://purl.org/dc/dcmitype/StillImage" />
      </cc:Work>
    </rdf:RDF>
  </metadata>
  <defs
     id="defs68" />
  <sodipodi:namedview
     pagecolor="#ffffff"
     bordercolor="#666666"
     borderopacity="1"
     objecttolerance="10"
     gridtolerance="10"
     guidetolerance="10"
     inkscape:pageopacity="0"
     inkscape:pageshadow="2"
     inkscape:window-width="640"
     inkscape:window-height="480"
     id="namedview66"
     showgrid="false"
     inkscape:zoom="9.5"
     inkscape:cx="-11.732616"
     inkscape:cy="23.119052"
     inkscape:current-layer="svg64" />
  <g
     id="g4694"
     transform="translate(58.210937,6.8417967)">
    <path
       id="rect4497-3"
       d="m -50.736328,-4.9433594 c -3.088651,0 -5.576172,2.485568 -5.576172,5.57421878 V 17.683594 c 0,0.17325 0.08234,0.319153 0.09766,0.488281 0.03021,-0.321222 0.135254,-0.626601 0.353516,-0.841797 0.246527,-0.243064 0.587276,-0.394531 0.964844,-0.394531 h 1.302734 c 0.377568,0 0.718317,0.151467 0.964844,0.394531 0.246527,0.243064 0.398437,0.579397 0.398437,0.951172 v 1.677734 c 0,-0.69554 0.290068,-1.358249 0.808594,-1.960937 0.518526,-0.602689 1.266967,-1.145748 2.185547,-1.601563 0.91858,-0.455814 2.006868,-0.82516 3.207031,-1.080078 1.200163,-0.254918 2.511726,-0.394531 3.875,-0.394531 1.363274,0 2.674837,0.139613 3.875,0.394531 1.200163,0.254918 2.288451,0.624264 3.207031,1.080078 0.918581,0.455815 1.667021,0.998874 2.185547,1.601563 0.517461,0.601451 0.805457,1.263054 0.806641,1.957031 V 18.28125 c 0,-0.371775 0.152351,-0.708108 0.398437,-0.951172 0.24566,-0.242642 0.585856,-0.394011 0.962891,-0.394531 h 0.002 1.302735 c 0.377819,0 0.718253,0.151467 0.964843,0.394531 0.171095,0.168648 0.21646,0.421119 0.277344,0.660156 0.0061,-0.10732 0.0625,-0.19774 0.0625,-0.30664 V 0.63085938 c 0,-3.08865078 -2.485568,-5.57421878 -5.574219,-5.57421878 z"
       style="opacity:1;fill:#fecd38;fill-opacity:1;fill-rule:evenodd;stroke:none;stroke-width:1.03534329;stroke-linecap:round;stroke-linejoin:bevel;stroke-miterlimit:4;stroke-dasharray:none;stroke-dashoffset:0;stroke-opacity:1"
       inkscape:connector-curvature="0" />
    <g
       style="fill:#4f4f4f;stroke-width:0.99253714"
       id="g10"
       transform="matrix(0.91550225,0,0,0.89222856,-56.627657,-3.214097)">
      <g
         style="stroke-width:0.99253714"
         id="g8">
        <path
           style="stroke-width:0.99253714"
           inkscape:connector-curvature="0"
           id="path6"
           d="m 24.002,4 c -7.384,0 -13.371,5.8328 -13.371,13.031 0,1.2664 0.19247,2.487 0.53906,3.6445 0,0 -2.0468,7.2865 -1.3867,10.883 0.19231,1.0477 0.5872,2.0562 1.1094,3.0059 2.034,-2.741 7.26,-4.561 13.107,-4.565 5.8442,0.0017 11.071,1.8183 13.111,4.5566 0.52053,-0.94737 0.91546,-1.9531 1.1074,-2.998 0.66062,-3.5962 -1.3867,-10.883 -1.3867,-10.883 0.34789,-1.1576 0.53906,-2.3782 0.53906,-3.6445 10e-4,-7.1969 -5.982,-13.031 -13.368,-13.031 z"
           transform="matrix(0.77036,0,0,0.79045,-2.6794,-3.1618)" />
      </g>
    </g>
    <circle
       style="fill:#ffffff;stroke-width:1"
       id="circle14"
       r="2.015038"
       cx="-47.19194"
       cy="3.838536" />
    <circle
       style="fill:#ffffff;stroke-width:1"
       id="circle18"
       r="2.015038"
       cx="-37.116753"
       cy="3.838536" />
    <ellipse
       style="fill:#ffffff;stroke-width:1"
       id="ellipse20"
       cx="-42.154346"
       cy="14.417486"
       ry="7.7578959"
       rx="7.0526328" />
    <circle
       style="fill:#303030;stroke-width:1"
       id="circle28"
       r="1.007519"
       cx="-47.19194"
       cy="3.838536" />
    <circle
       style="fill:#303030;stroke-width:1"
       id="circle30"
       r="1.007519"
       cx="-37.116753"
       cy="3.838536" />
    <path
       style="fill:#cd5252;stroke-width:1"
       inkscape:connector-curvature="0"
       id="path34"
       d="m -44.169385,4.8460548 h 4.030076 c -0.323081,3.1049721 -2.015038,6.0451142 -2.015038,6.0451142 0,0 -2.015038,-3.4897437 -2.015038,-6.0451142 z" />
    <path
       style="fill:#303030;stroke-width:1"
       inkscape:connector-curvature="0"
       id="path36"
       d="m -42.154347,10.891169 a 4.030076,4.030076 0 0 0 -4.030076,4.030076 4.030076,4.030076 0 0 0 4.030076,4.030076 4.030076,4.030076 0 0 0 4.030076,-4.030076 4.030076,4.030076 0 0 0 -4.030076,-4.030076 z m 0,1.61203 a 2.4180456,2.4180456 0 0 1 1.571126,0.580895 l -1.570723,0.906767 -1.569714,-0.905759 a 2.4180456,2.4180456 0 0 1 1.569714,-0.582346 z m 2.377141,1.975644 a 2.4180456,2.4180456 0 0 1 0.04131,0.442301 2.4180456,2.4180456 0 0 1 -1.61203,2.2779 v -1.813535 l 1.571125,-0.906767 z m -4.752669,0.0016 1.569513,0.905155 v 1.811922 a 2.4180456,2.4180456 0 0 1 -1.61203,-2.275985 2.4180456,2.4180456 0 0 1 0.04232,-0.441293 z" />
    <ellipse
       style="fill:#4f4f4f;stroke-width:1"
       id="ellipse40"
       cx="-33.873173"
       cy="-26.817554"
       ry="4.4270396"
       transform="matrix(0.70175164,-0.71242167,0.86960968,0.49373982,0,0)"
       rx="2.5036788" />
    <ellipse
       style="fill:#4f4f4f;stroke-width:1"
       id="ellipse42"
       cx="9.2175951"
       cy="35.358669"
       ry="4.4270396"
       transform="matrix(-0.70175164,-0.71242167,-0.86960968,0.49373982,0,0)"
       rx="2.5036788" />
    <path
       sodipodi:nodetypes="csssssssccssccccc"
       inkscape:connector-curvature="0"
       id="path4648"
       d="m -32.080078,19.955078 c -0.0012,-0.693977 -0.28918,-1.35558 -0.806641,-1.957031 -0.518526,-0.602689 -1.266966,-1.145748 -2.185547,-1.601563 -0.91858,-0.455814 -2.006868,-0.82516 -3.207031,-1.080078 -1.200163,-0.254918 -2.511726,-0.394531 -3.875,-0.394531 -1.363274,0 -2.674837,0.139613 -3.875,0.394531 -1.200163,0.254918 -2.288451,0.624264 -3.207031,1.080078 -0.91858,0.455815 -1.667021,0.998874 -2.185547,1.601563 -0.518526,0.602688 -0.808594,1.265397 -0.808594,1.960937 -0.003,1.013745 0,1.944675 0,3 0.485246,0.137051 0.963862,0.300782 1.494141,0.300782 h 17.052734 c 0.569552,0 1.086729,-0.164979 1.603516,-0.322266 v -1.970703 0 c 0,0 -0.0059,-0.517951 0,-1.003906 z"
       style="opacity:1;fill:#f5432a;fill-opacity:1;fill-rule:evenodd;stroke:none;stroke-width:1.03534329;stroke-linecap:round;stroke-linejoin:bevel;stroke-miterlimit:4;stroke-dasharray:none;stroke-dashoffset:0;stroke-opacity:1" />
    <path
       id="path4645"
       d="m -40.474609,18.615234 c -0.186048,0 -0.335938,0.299768 -0.335938,0.671875 v 1.341797 c 0,0.372117 0.14988,0.671875 0.335938,0.671875 0.186049,0 0.335937,-0.299768 0.335937,-0.671875 v -1.341797 c 0,-0.371774 -0.149546,-0.671875 -0.335937,-0.671875 z"
       style="opacity:1;fill:#ffffff;fill-opacity:1;fill-rule:evenodd;stroke:none;stroke-width:1.03534329;stroke-linecap:round;stroke-linejoin:bevel;stroke-miterlimit:4;stroke-dasharray:none;stroke-dashoffset:0;stroke-opacity:1"
       inkscape:connector-curvature="0" />
    <path
       id="path4643"
       d="m -40.474609,18.615234 c 0.186391,0 0.335937,0.300101 0.335937,0.671875 v 1.341797 c 0,0.372107 -0.149888,0.671875 -0.335937,0.671875 -0.186058,0 -0.335938,-0.299758 -0.335938,-0.671875 v -1.341797 c 0,-0.372107 0.14989,-0.671875 0.335938,-0.671875 z"
       style="opacity:1;fill:#ffffff;fill-opacity:1;fill-rule:evenodd;stroke:none;stroke-width:1.03534329;stroke-linecap:round;stroke-linejoin:bevel;stroke-miterlimit:4;stroke-dasharray:none;stroke-dashoffset:0;stroke-opacity:1"
       inkscape:connector-curvature="0" />
    <path
       id="path4641"
       d="m -43.833984,18.615234 c -0.186391,0 -0.335938,0.300101 -0.335938,0.671875 v 1.341797 c 0,0.372107 0.14989,0.671875 0.335938,0.671875 0.186059,0 0.335937,-0.299758 0.335937,-0.671875 v -1.341797 c 0,-0.372107 -0.149888,-0.671875 -0.335937,-0.671875 z"
       style="opacity:1;fill:#ffffff;fill-opacity:1;fill-rule:evenodd;stroke:none;stroke-width:1.03534329;stroke-linecap:round;stroke-linejoin:bevel;stroke-miterlimit:4;stroke-dasharray:none;stroke-dashoffset:0;stroke-opacity:1"
       inkscape:connector-curvature="0" />
    <path
       id="path4639"
       d="m -43.833984,18.615234 c 0.186049,0 0.335937,0.299768 0.335937,0.671875 v 1.341797 c 0,0.372117 -0.149878,0.671875 -0.335937,0.671875 -0.186048,0 -0.335938,-0.299768 -0.335938,-0.671875 v -1.341797 c 0,-0.371774 0.149547,-0.671875 0.335938,-0.671875 z"
       style="opacity:1;fill:#ffffff;fill-opacity:1;fill-rule:evenodd;stroke:none;stroke-width:1.03534329;stroke-linecap:round;stroke-linejoin:bevel;stroke-miterlimit:4;stroke-dasharray:none;stroke-dashoffset:0;stroke-opacity:1"
       inkscape:connector-curvature="0" />
    <path
       id="path4637"
       d="m -42.490234,17.943359 c -0.186059,0 -0.335938,0.449647 -0.335938,1.007813 v 2.015625 c 0,0.558165 0.149889,1.007812 0.335938,1.007812 0.185383,0 0.335937,-0.449647 0.335937,-1.007812 0,0.558165 0.150555,1.007812 0.335938,1.007812 0.186049,0 0.335937,-0.449647 0.335937,-1.007812 v -2.015625 c 0,-0.558166 -0.149878,-1.007813 -0.335937,-1.007813 -0.186049,0 -0.335938,0.449647 -0.335938,1.007813 0,-0.558166 -0.149888,-1.007813 -0.335937,-1.007813 z"
       style="opacity:1;fill:#ffffff;fill-opacity:1;fill-rule:evenodd;stroke:none;stroke-width:1.03534329;stroke-linecap:round;stroke-linejoin:bevel;stroke-miterlimit:4;stroke-dasharray:none;stroke-dashoffset:0;stroke-opacity:1"
       inkscape:connector-curvature="0" />
    <path
       id="path4635"
       d="m -42.490234,17.943359 c 0.186049,0 0.335937,0.449647 0.335937,1.007813 0,-0.558166 0.149889,-1.007813 0.335938,-1.007813 0.186059,0 0.335937,0.449647 0.335937,1.007813 v 2.015625 c 0,0.558165 -0.149888,1.007812 -0.335937,1.007812 -0.185383,0 -0.335938,-0.449647 -0.335938,-1.007812 0,0.558165 -0.150554,1.007812 -0.335937,1.007812 -0.186049,0 -0.335938,-0.449647 -0.335938,-1.007812 v -2.015625 c 0,-0.558166 0.149879,-1.007813 0.335938,-1.007813 z"
       style="opacity:1;fill:#ffffff;fill-opacity:1;fill-rule:evenodd;stroke:none;stroke-width:1.03534329;stroke-linecap:round;stroke-linejoin:bevel;stroke-miterlimit:4;stroke-dasharray:none;stroke-dashoffset:0;stroke-opacity:1"
       inkscape:connector-curvature="0" />
    <path
       id="path4630"
       d="m -36.613281,18.144531 a 1.5112785,1.4105266 0 0 0 -0.107422,0.0039 1.5112785,1.4105266 0 0 0 -0.148438,0.01758 1.5112785,1.4105266 0 0 0 -0.148437,0.03125 1.5112785,1.4105266 0 0 0 -0.142578,0.04297 1.5112785,1.4105266 0 0 0 -0.138672,0.05859 1.5112785,1.4105266 0 0 0 -0.13086,0.07031 1.5112785,1.4105266 0 0 0 -0.123046,0.08203 1.5112785,1.4105266 0 0 0 -0.113282,0.09375 1.5112785,1.4105266 0 0 0 -0.103515,0.101562 1.5112785,1.4105266 0 0 0 -0.08984,0.113282 1.5112785,1.4105266 0 0 0 -0.08008,0.11914 1.5112785,1.4105266 0 0 0 -0.06641,0.126953 1.5112785,1.4105266 0 0 0 -0.05078,0.132813 1.5112785,1.4105266 0 0 0 -0.03711,0.136719 1.5112785,1.4105266 0 0 0 -0.02344,0.138671 1.5112785,1.4105266 0 0 0 -0.0078,0.142579 1.5112785,1.4105266 0 0 0 0.0039,0.09961 1.5112785,1.4105266 0 0 0 0.01953,0.138672 1.5112785,1.4105266 0 0 0 0.0332,0.138672 1.5112785,1.4105266 0 0 0 0.04687,0.132812 1.5112785,1.4105266 0 0 0 0.0625,0.128906 1.5112785,1.4105266 0 0 0 0.07422,0.123047 1.5112785,1.4105266 0 0 0 0.08789,0.115235 1.5112785,1.4105266 0 0 0 0.09961,0.105468 1.5112785,1.4105266 0 0 0 0.111328,0.0957 1.5112785,1.4105266 0 0 0 0.119141,0.08594 1.5112785,1.4105266 0 0 0 0.128906,0.07227 1.5112785,1.4105266 0 0 0 0.136719,0.0625 1.5112785,1.4105266 0 0 0 0.140625,0.04883 1.5112785,1.4105266 0 0 0 0.146485,0.0332 1.5112785,1.4105266 0 0 0 0.15039,0.02148 1.5112785,1.4105266 0 0 0 0.150391,0.0078 1.5112785,1.4105266 0 0 0 0.107422,-0.0039 1.5112785,1.4105266 0 0 0 0.15039,-0.01758 1.5112785,1.4105266 0 0 0 0.146485,-0.03125 1.5112785,1.4105266 0 0 0 0.144531,-0.04297 1.5112785,1.4105266 0 0 0 0.136719,-0.05859 1.5112785,1.4105266 0 0 0 0.130859,-0.07031 1.5112785,1.4105266 0 0 0 0.123047,-0.08203 1.5112785,1.4105266 0 0 0 0.113281,-0.0918 1.5112785,1.4105266 0 0 0 0.103516,-0.103515 1.5112785,1.4105266 0 0 0 0.0918,-0.113282 1.5112785,1.4105266 0 0 0 0.07813,-0.11914 1.5112785,1.4105266 0 0 0 0.06641,-0.126953 1.5112785,1.4105266 0 0 0 0.05078,-0.132813 1.5112785,1.4105266 0 0 0 0.03711,-0.136718 1.5112785,1.4105266 0 0 0 0.02344,-0.138672 1.5112785,1.4105266 0 0 0 0.0078,-0.140625 1.5112785,1.4105266 0 0 0 -0.0039,-0.09961 1.5112785,1.4105266 0 0 0 -0.01758,-0.140625 1.5112785,1.4105266 0 0 0 -0.0332,-0.138672 1.5112785,1.4105266 0 0 0 -0.04883,-0.132812 1.5112785,1.4105266 0 0 0 -0.06055,-0.128906 1.5112785,1.4105266 0 0 0 -0.07617,-0.123047 1.5112785,1.4105266 0 0 0 -0.08789,-0.113281 1.5112785,1.4105266 0 0 0 -0.09961,-0.107422 1.5112785,1.4105266 0 0 0 -0.109375,-0.0957 1.5112785,1.4105266 0 0 0 -0.121094,-0.08398 1.5112785,1.4105266 0 0 0 -0.128906,-0.07422 1.5112785,1.4105266 0 0 0 -0.136719,-0.0625 1.5112785,1.4105266 0 0 0 -0.140625,-0.04687 1.5112785,1.4105266 0 0 0 -0.146484,-0.03516 1.5112785,1.4105266 0 0 0 -0.150391,-0.02148 1.5112785,1.4105266 0 0 0 -0.15039,-0.0078 z"
       style="opacity:1;fill:#ffffff;fill-opacity:1;fill-rule:evenodd;stroke:none;stroke-width:1.03534329;stroke-linecap:round;stroke-linejoin:bevel;stroke-miterlimit:4;stroke-dasharray:none;stroke-dashoffset:0;stroke-opacity:1"
       inkscape:connector-curvature="0" />
    <path
       id="path4628"
       d="m -36.613281,18.144531 a 1.5112785,1.4105266 0 0 1 0.15039,0.0078 1.5112785,1.4105266 0 0 1 0.150391,0.02148 1.5112785,1.4105266 0 0 1 0.146484,0.03516 1.5112785,1.4105266 0 0 1 0.140625,0.04687 1.5112785,1.4105266 0 0 1 0.136719,0.0625 1.5112785,1.4105266 0 0 1 0.128906,0.07422 1.5112785,1.4105266 0 0 1 0.121094,0.08398 1.5112785,1.4105266 0 0 1 0.109375,0.0957 1.5112785,1.4105266 0 0 1 0.09961,0.107422 1.5112785,1.4105266 0 0 1 0.08789,0.113281 1.5112785,1.4105266 0 0 1 0.07617,0.123047 1.5112785,1.4105266 0 0 1 0.06055,0.128906 1.5112785,1.4105266 0 0 1 0.04883,0.132812 1.5112785,1.4105266 0 0 1 0.0332,0.138672 1.5112785,1.4105266 0 0 1 0.01758,0.140625 1.5112785,1.4105266 0 0 1 0.0039,0.09961 1.5112785,1.4105266 0 0 1 -0.0078,0.140625 1.5112785,1.4105266 0 0 1 -0.02344,0.138672 1.5112785,1.4105266 0 0 1 -0.03711,0.136718 1.5112785,1.4105266 0 0 1 -0.05078,0.132813 1.5112785,1.4105266 0 0 1 -0.06641,0.126953 1.5112785,1.4105266 0 0 1 -0.07813,0.11914 1.5112785,1.4105266 0 0 1 -0.0918,0.113282 1.5112785,1.4105266 0 0 1 -0.103516,0.103515 1.5112785,1.4105266 0 0 1 -0.113281,0.0918 1.5112785,1.4105266 0 0 1 -0.123047,0.08203 1.5112785,1.4105266 0 0 1 -0.130859,0.07031 1.5112785,1.4105266 0 0 1 -0.136719,0.05859 1.5112785,1.4105266 0 0 1 -0.144531,0.04297 1.5112785,1.4105266 0 0 1 -0.146485,0.03125 1.5112785,1.4105266 0 0 1 -0.15039,0.01758 1.5112785,1.4105266 0 0 1 -0.107422,0.0039 1.5112785,1.4105266 0 0 1 -0.150391,-0.0078 1.5112785,1.4105266 0 0 1 -0.15039,-0.02148 1.5112785,1.4105266 0 0 1 -0.146485,-0.0332 1.5112785,1.4105266 0 0 1 -0.140625,-0.04883 1.5112785,1.4105266 0 0 1 -0.136719,-0.0625 1.5112785,1.4105266 0 0 1 -0.128906,-0.07227 1.5112785,1.4105266 0 0 1 -0.119141,-0.08594 1.5112785,1.4105266 0 0 1 -0.111328,-0.0957 1.5112785,1.4105266 0 0 1 -0.09961,-0.105468 1.5112785,1.4105266 0 0 1 -0.08789,-0.115235 1.5112785,1.4105266 0 0 1 -0.07422,-0.123047 1.5112785,1.4105266 0 0 1 -0.0625,-0.128906 1.5112785,1.4105266 0 0 1 -0.04687,-0.132812 1.5112785,1.4105266 0 0 1 -0.0332,-0.138672 1.5112785,1.4105266 0 0 1 -0.01953,-0.138672 1.5112785,1.4105266 0 0 1 -0.0039,-0.09961 1.5112785,1.4105266 0 0 1 0.0078,-0.142579 1.5112785,1.4105266 0 0 1 0.02344,-0.138671 1.5112785,1.4105266 0 0 1 0.03711,-0.136719 1.5112785,1.4105266 0 0 1 0.05078,-0.132813 1.5112785,1.4105266 0 0 1 0.06641,-0.126953 1.5112785,1.4105266 0 0 1 0.08008,-0.11914 1.5112785,1.4105266 0 0 1 0.08984,-0.113282 1.5112785,1.4105266 0 0 1 0.103515,-0.101562 1.5112785,1.4105266 0 0 1 0.113282,-0.09375 1.5112785,1.4105266 0 0 1 0.123046,-0.08203 1.5112785,1.4105266 0 0 1 0.13086,-0.07031 1.5112785,1.4105266 0 0 1 0.138672,-0.05859 1.5112785,1.4105266 0 0 1 0.142578,-0.04297 1.5112785,1.4105266 0 0 1 0.148437,-0.03125 1.5112785,1.4105266 0 0 1 0.148438,-0.01758 1.5112785,1.4105266 0 0 1 0.107422,-0.0039 z"
       style="opacity:1;fill:#ffffff;fill-opacity:1;fill-rule:evenodd;stroke:none;stroke-width:1.03534329;stroke-linecap:round;stroke-linejoin:bevel;stroke-miterlimit:4;stroke-dasharray:none;stroke-dashoffset:0;stroke-opacity:1"
       inkscape:connector-curvature="0" />
    <path
       id="path4628-6"
       d="m -47.785533,18.381991 a 1.5112785,1.4105266 0 0 1 0.15039,0.0078 1.5112785,1.4105266 0 0 1 0.150391,0.02148 1.5112785,1.4105266 0 0 1 0.146484,0.03516 1.5112785,1.4105266 0 0 1 0.140625,0.04687 1.5112785,1.4105266 0 0 1 0.136719,0.0625 1.5112785,1.4105266 0 0 1 0.128906,0.07422 1.5112785,1.4105266 0 0 1 0.121094,0.08398 1.5112785,1.4105266 0 0 1 0.109375,0.0957 1.5112785,1.4105266 0 0 1 0.09961,0.107422 1.5112785,1.4105266 0 0 1 0.08789,0.113281 1.5112785,1.4105266 0 0 1 0.07617,0.123047 1.5112785,1.4105266 0 0 1 0.06055,0.128906 1.5112785,1.4105266 0 0 1 0.04883,0.132812 1.5112785,1.4105266 0 0 1 0.0332,0.138672 1.5112785,1.4105266 0 0 1 0.01758,0.140625 1.5112785,1.4105266 0 0 1 0.0039,0.09961 1.5112785,1.4105266 0 0 1 -0.0078,0.140625 1.5112785,1.4105266 0 0 1 -0.02344,0.138672 1.5112785,1.4105266 0 0 1 -0.03711,0.136718 1.5112785,1.4105266 0 0 1 -0.05078,0.132813 1.5112785,1.4105266 0 0 1 -0.06641,0.126953 1.5112785,1.4105266 0 0 1 -0.07813,0.11914 1.5112785,1.4105266 0 0 1 -0.0918,0.113282 1.5112785,1.4105266 0 0 1 -0.103516,0.103515 1.5112785,1.4105266 0 0 1 -0.113281,0.0918 1.5112785,1.4105266 0 0 1 -0.123047,0.08203 1.5112785,1.4105266 0 0 1 -0.130859,0.07031 1.5112785,1.4105266 0 0 1 -0.136719,0.05859 1.5112785,1.4105266 0 0 1 -0.144531,0.04297 1.5112785,1.4105266 0 0 1 -0.146485,0.03125 1.5112785,1.4105266 0 0 1 -0.15039,0.01758 1.5112785,1.4105266 0 0 1 -0.107422,0.0039 1.5112785,1.4105266 0 0 1 -0.150391,-0.0078 1.5112785,1.4105266 0 0 1 -0.15039,-0.02148 1.5112785,1.4105266 0 0 1 -0.146485,-0.0332 1.5112785,1.4105266 0 0 1 -0.140625,-0.04883 1.5112785,1.4105266 0 0 1 -0.136719,-0.0625 1.5112785,1.4105266 0 0 1 -0.128906,-0.07227 1.5112785,1.4105266 0 0 1 -0.119141,-0.08594 1.5112785,1.4105266 0 0 1 -0.111328,-0.0957 1.5112785,1.4105266 0 0 1 -0.09961,-0.105468 1.5112785,1.4105266 0 0 1 -0.08789,-0.115235 1.5112785,1.4105266 0 0 1 -0.07422,-0.123047 1.5112785,1.4105266 0 0 1 -0.0625,-0.128906 1.5112785,1.4105266 0 0 1 -0.04687,-0.132812 1.5112785,1.4105266 0 0 1 -0.0332,-0.138672 1.5112785,1.4105266 0 0 1 -0.01953,-0.138672 1.5112785,1.4105266 0 0 1 -0.0039,-0.09961 1.5112785,1.4105266 0 0 1 0.0078,-0.142579 1.5112785,1.4105266 0 0 1 0.02344,-0.138671 1.5112785,1.4105266 0 0 1 0.03711,-0.136719 1.5112785,1.4105266 0 0 1 0.05078,-0.132813 1.5112785,1.4105266 0 0 1 0.06641,-0.126953 1.5112785,1.4105266 0 0 1 0.08008,-0.11914 1.5112785,1.4105266 0 0 1 0.08984,-0.113282 1.5112785,1.4105266 0 0 1 0.103515,-0.101562 1.5112785,1.4105266 0 0 1 0.113282,-0.09375 1.5112785,1.4105266 0 0 1 0.123046,-0.08203 1.5112785,1.4105266 0 0 1 0.13086,-0.07031 1.5112785,1.4105266 0 0 1 0.138672,-0.05859 1.5112785,1.4105266 0 0 1 0.142578,-0.04297 1.5112785,1.4105266 0 0 1 0.148437,-0.03125 1.5112785,1.4105266 0 0 1 0.148438,-0.01758 1.5112785,1.4105266 0 0 1 0.107422,-0.0039 z"
       style="opacity:1;fill:#ffffff;fill-opacity:1;fill-rule:evenodd;stroke:none;stroke-width:1.03534329;stroke-linecap:round;stroke-linejoin:bevel;stroke-miterlimit:4;stroke-dasharray:none;stroke-dashoffset:0;stroke-opacity:1"
       inkscape:connector-curvature="0" />
    <path
       id="path4623"
       d="m -28.171875,17.990234 c -0.06088,-0.239037 -0.106249,-0.491508 -0.277344,-0.660156 -0.24659,-0.243064 -0.587024,-0.394531 -0.964843,-0.394531 h -1.302735 c 0,0 -0.002,0 -0.002,0 -0.377035,5.2e-4 -0.717231,0.151889 -0.962891,0.394531 -0.246086,0.243064 -0.398437,0.579397 -0.398437,0.951172 v 4.65625 c 2.186912,-0.665601 3.773206,-2.572027 3.908203,-4.947266 z"
       style="opacity:1;fill:#303030;fill-opacity:1;fill-rule:evenodd;stroke:none;stroke-width:1.03534329;stroke-linecap:round;stroke-linejoin:bevel;stroke-miterlimit:4;stroke-dasharray:none;stroke-dashoffset:0;stroke-opacity:1"
       inkscape:connector-curvature="0" />
    <path
       id="path4625"
       d="M -52.230469,22.958984 V 18.28125 c 0,-0.371775 -0.15191,-0.708108 -0.398437,-0.951172 -0.246527,-0.243064 -0.587276,-0.394531 -0.964844,-0.394531 h -1.302734 c -0.377568,0 -0.718317,0.151467 -0.964844,0.394531 -0.218262,0.215196 -0.323302,0.520575 -0.353516,0.841797 0.210834,2.328381 1.801804,4.170675 3.984375,4.787109 z"
       style="opacity:1;fill:#303030;fill-opacity:1;fill-rule:evenodd;stroke:none;stroke-width:1.03534329;stroke-linecap:round;stroke-linejoin:bevel;stroke-miterlimit:4;stroke-dasharray:none;stroke-dashoffset:0;stroke-opacity:1"
       inkscape:connector-curvature="0" />
  </g>
</svg>
