<?xml version="1.0" encoding="UTF-8" standalone="no"?>
<svg
   xmlns:dc="http://purl.org/dc/elements/1.1/"
   xmlns:cc="http://creativecommons.org/ns#"
   xmlns:rdf="http://www.w3.org/1999/02/22-rdf-syntax-ns#"
   xmlns:svg="http://www.w3.org/2000/svg"
   xmlns="http://www.w3.org/2000/svg"
   xmlns:sodipodi="http://sodipodi.sourceforge.net/DTD/sodipodi-0.dtd"
   xmlns:inkscape="http://www.inkscape.org/namespaces/inkscape"
   height="32"
   viewBox="0 0 32 32"
   width="32"
   version="1.1"
   id="svg12"
   sodipodi:docname="synapse.svg"
   inkscape:version="0.92.1 r">
  <metadata
     id="metadata18">
    <rdf:RDF>
      <cc:Work
         rdf:about="">
        <dc:format>image/svg+xml</dc:format>
        <dc:type
           rdf:resource="http://purl.org/dc/dcmitype/StillImage" />
      </cc:Work>
    </rdf:RDF>
  </metadata>
  <defs
     id="defs16" />
  <sodipodi:namedview
     pagecolor="#ffffff"
     bordercolor="#666666"
     borderopacity="1"
     objecttolerance="10"
     gridtolerance="10"
     guidetolerance="10"
     inkscape:pageopacity="0"
     inkscape:pageshadow="2"
     inkscape:window-width="640"
     inkscape:window-height="480"
     id="namedview14"
     showgrid="false"
     inkscape:zoom="8.375"
     inkscape:cx="-21.047339"
     inkscape:cy="-8.0061769"
     inkscape:current-layer="svg12" />
  <rect
     style="opacity:1;fill:#06987e;fill-opacity:1;fill-rule:evenodd;stroke:none;stroke-width:1.03534329;stroke-linecap:round;stroke-linejoin:bevel;stroke-miterlimit:4;stroke-dasharray:none;stroke-dashoffset:0;stroke-opacity:1"
     id="rect4497-3-3"
     width="28.203388"
     height="28.203388"
     x="1.8983059"
     y="1.8983059"
     ry="5.575182" />
  <g
     id="g4503"
     transform="matrix(0.73560767,0,0,0.73560767,4.2302773,4.2302773)"
     style="stroke-width:1.3594203">
    <rect
       id="rect2"
       x="-30"
       y="-30"
       width="28"
       height="28"
       transform="matrix(0,-1,-1,0,0,0)"
       rx="14"
       ry="14"
       style="fill:#20b293;stroke-width:2.06332731" />
    <path
       id="path6"
       d="m 15.097,7 v 2.0256 c -2.9638,0.3572 -5.3676,2.4612 -6.0977,5.2166 h 1.873 c 0.7686,-1.9904 2.8067,-3.5424 5.0285,-3.5264 h 0.16133 c 0.8092,0.01 1.6026,0.2 2.3215,0.5489 1.2964,0.5677 2.2586,1.6877 2.7262,2.9802 h 1.8895 c -0.7301,-2.7554 -3.1339,-4.8601 -6.0977,-5.2167 V 7.0027 h -1.8047 z m 0.90234,5.1734 c -2.1987,0 -3.9785,1.7251 -3.9785,3.8699 0,0 -0.0273,0.3622 0.0875,0.7734 h 6.1113 c -0.1666,0.4486 -0.46226,0.8517 -0.86406,1.1196 -0.924,0.711 -2.3242,0.4513 -3.1117,-0.3434 h -1.8922 c 0.6153,1.3659 2.0153,2.3203 3.6477,2.3203 2.1987,0 3.9785,-1.7307 3.9785,-3.8699 0,0 -1.96e-4,-0.3975 -0.0793,-0.7735 h -6.1127 c 0.3444,-0.8466 1.1671,-1.5304 2.1205,-1.5387 h 0.14219 c 0.6398,0.014 1.2607,0.3083 1.6926,0.768 h 1.9059 c -0.6153,-1.3659 -2.0181,-2.323 -3.6477,-2.323 z m -7,5.5844 c 0.7301,2.7554 3.1339,4.8601 6.0977,5.2167 V 25 h 1.8047 v -2.0255 c 2.9638,-0.36 5.3676,-2.4613 6.0977,-5.2167 h -1.8621 c -0.7301,2.0908 -2.9892,3.602 -5.2691,3.5238 -2.2232,0.011 -4.2349,-1.5334 -4.9902,-3.5238 h -1.8785 z"
       inkscape:connector-curvature="0"
       style="fill:#ffffff;stroke-width:2.06332731" />
  </g>
</svg>
