<?xml version="1.0" encoding="UTF-8" standalone="no"?>
<svg
   xmlns:dc="http://purl.org/dc/elements/1.1/"
   xmlns:cc="http://creativecommons.org/ns#"
   xmlns:rdf="http://www.w3.org/1999/02/22-rdf-syntax-ns#"
   xmlns:svg="http://www.w3.org/2000/svg"
   xmlns="http://www.w3.org/2000/svg"
   xmlns:sodipodi="http://sodipodi.sourceforge.net/DTD/sodipodi-0.dtd"
   xmlns:inkscape="http://www.inkscape.org/namespaces/inkscape"
   height="32"
   width="32"
   version="1"
   id="svg12"
   sodipodi:docname="preferences-system.svg"
   inkscape:version="0.92.2 2405546, 2018-03-11">
  <metadata
     id="metadata18">
    <rdf:RDF>
      <cc:Work
         rdf:about="">
        <dc:format>image/svg+xml</dc:format>
        <dc:type
           rdf:resource="http://purl.org/dc/dcmitype/StillImage" />
        <dc:title></dc:title>
      </cc:Work>
    </rdf:RDF>
  </metadata>
  <defs
     id="defs16" />
  <sodipodi:namedview
     pagecolor="#ffffff"
     bordercolor="#666666"
     borderopacity="1"
     objecttolerance="10"
     gridtolerance="10"
     guidetolerance="10"
     inkscape:pageopacity="0"
     inkscape:pageshadow="2"
     inkscape:window-width="1680"
     inkscape:window-height="972"
     id="namedview14"
     showgrid="false"
     inkscape:zoom="7.375"
     inkscape:cx="17.953898"
     inkscape:cy="17.491525"
     inkscape:window-x="0"
     inkscape:window-y="0"
     inkscape:window-maximized="1"
     inkscape:current-layer="svg12" />
  <g
     id="g854"
     transform="translate(-33.220339,2.7118644)">
    <rect
       ry="5.575182"
       y="-0.81355852"
       x="35.118645"
       height="28.203388"
       width="28.203388"
       id="rect4497-3"
       style="opacity:1;fill:#e94a63;fill-opacity:1;fill-rule:evenodd;stroke:none;stroke-width:26.20000076;stroke-linecap:round;stroke-linejoin:bevel;stroke-miterlimit:4;stroke-dasharray:none;stroke-dashoffset:0;stroke-opacity:1" />
    <path
       sodipodi:nodetypes="ccscccsscsccscscssccscsscssccccscssccsscscsssssccssscsscsssccsssssscccc"
       inkscape:connector-curvature="0"
       id="path997"
       d="m 56.217562,22.747912 c 1.110451,-0.316431 1.839114,-1.276418 1.842074,-2.426881 0.0034,-1.317152 -0.946908,-2.390483 -2.246113,-2.536901 l -0.252378,-0.02844 -1.996491,-1.995085 -1.996483,-1.995085 -0.08052,0.08571 c -0.04429,0.04714 -0.08052,0.09702 -0.08052,0.110837 0,0.01382 0.05832,0.101522 0.129587,0.194895 0.188198,0.246552 0.256308,0.516398 0.230579,0.913535 -0.03453,0.53299 -0.185232,0.767795 -0.979451,1.526097 l -0.146798,0.140164 -0.23456,-0.06009 c -0.320637,-0.08214 -0.632215,-0.02939 -0.848671,0.143686 -0.0378,0.03022 0.347438,0.436363 1.694474,1.786483 l 1.743389,1.747374 0.02518,0.274662 c 0.05877,0.640608 0.423681,1.281412 0.960556,1.686775 0.318096,0.240174 0.584006,0.367335 0.933704,0.446506 0.142919,0.03235 0.293262,0.0667 0.334094,0.07633 0.146408,0.03452 0.716502,-0.0188 0.968335,-0.09057 z M 55.23067,21.303219 c -0.776029,-0.236912 -1.060722,-1.142349 -0.558834,-1.77729 0.216204,-0.273515 0.48777,-0.396738 0.874365,-0.396738 0.240245,0 0.330245,0.01701 0.47114,0.08902 0.224728,0.114871 0.408227,0.306129 0.532411,0.554937 0.08705,0.174399 0.09739,0.232989 0.0852,0.482583 -0.01015,0.208094 -0.03838,0.33245 -0.105397,0.464905 -0.117031,0.231228 -0.382103,0.469253 -0.615292,0.552515 -0.186173,0.06647 -0.516717,0.08101 -0.683592,0.03007 z m -8.931284,-7.925737 c 0.118029,-0.248732 0.130838,-0.517588 0.04256,-0.893546 -0.02473,-0.105294 -0.0017,-0.135684 0.394242,-0.519835 0.467244,-0.453362 0.734152,-0.614476 1.135766,-0.685586 0.369896,-0.06549 0.790313,0.04134 1.103882,0.280508 0.126938,0.09682 0.133822,0.09795 0.204788,0.03373 0.04039,-0.03655 0.07329,-0.08475 0.07311,-0.107107 -1.89e-4,-0.02236 -0.305045,-0.343876 -0.67747,-0.714487 -0.372432,-0.370611 -0.765567,-0.764432 -0.873642,-0.8751576 l -0.196499,-0.201319 0.04279,-0.182811 c 0.216553,-0.925075 0.192787,-1.484634 -0.103854,-2.444744 -0.0545,-0.176412 -0.316076,-0.657491 -0.494912,-0.910238 -0.572922,-0.809704 -1.474094,-1.405116 -2.410538,-1.592667 -0.467709,-0.09367 -0.852887,-0.119517 -1.179932,-0.07917 -0.403368,0.04976 -0.861763,0.144831 -0.861763,0.178729 0,0.01405 0.485483,0.509879 1.07885,1.101839 0.593373,0.591959 1.093586,1.102688 1.111587,1.134953 0.02036,0.03654 0.01543,0.09254 -0.01308,0.148487 -0.02518,0.0494 -0.08447,0.181699 -0.131728,0.293992 -0.04727,0.112293 -0.108822,0.254283 -0.136804,0.315534 -0.02799,0.06125 -0.140602,0.325938 -0.250256,0.588191 l -0.199372,0.476827 -0.64608,0.27605 c -0.355349,0.151828 -0.729611,0.314961 -0.831698,0.362517 -0.102081,0.04756 -0.21925,0.09702 -0.260363,0.109921 -0.06113,0.01918 -0.277515,-0.179389 -1.187665,-1.089914 -0.612097,-0.612353 -1.121889,-1.113369 -1.132874,-1.113369 -0.02713,0 -0.09898,0.263614 -0.151829,0.556825 -0.05536,0.30701 -0.05335,1.039153 0.0034,1.322692 0.239758,1.1936256 0.850094,2.0880466 1.866747,2.7356376 0.117794,0.07503 0.221739,0.136423 0.230992,0.136423 0.0092,0 0.104984,0.04092 0.212727,0.09094 0.473813,0.219941 1.101325,0.354522 1.653023,0.354522 0.272381,0 0.855182,-0.08535 1.141405,-0.167163 0.05887,-0.01683 0.201019,0.105931 0.686327,0.592675 0.336647,0.337643 0.631257,0.613896 0.654685,0.613896 0.02341,0 0.06988,-0.0575 0.103223,-0.127769 z"
       style="fill:#ffffff;stroke-width:0.03712171" />
    <path
       sodipodi:nodetypes="cscssccssssscsccccccccsccccsccscscccsccsccsssscc"
       inkscape:connector-curvature="0"
       id="path997-5"
       d="m 43.481647,23.010468 c 0.188829,-0.08721 0.350122,-0.243003 4.05386,-3.9156 l 1.158362,-1.148627 -0.0214,-0.280885 c -0.04641,-0.610142 0.275473,-1.146797 0.859989,-1.433699 0.201363,-0.09884 0.259347,-0.109522 0.60437,-0.111387 l 0.381638,-0.0021 0.27412,-0.272293 c 0.36522,-0.362782 0.447688,-0.527135 0.446736,-0.890333 -0.0011,-0.3426 -0.05547,-0.457564 -0.357591,-0.753373 -0.119383,-0.116889 -0.217058,-0.225514 -0.217058,-0.24139 0,-0.01588 1.165154,-1.192341 2.589237,-2.614366 l 2.589239,-2.5854996 0.408342,-0.212187 c 1.180298,-0.613324 1.209612,-0.631318 1.293841,-0.794102 0.07031,-0.135883 0.281623,-0.520776 0.358463,-0.652907 0.03562,-0.06125 0.145014,-0.261708 0.243091,-0.445461 0.09808,-0.183752 0.246285,-0.451028 0.329356,-0.593947 0.08307,-0.142919 0.175147,-0.306555 0.204621,-0.363638 l 0.05358,-0.103751 -0.64312,-0.643909 -0.64312,-0.64391 -0.20858,0.120491 c -0.114724,0.06627 -0.321853,0.181967 -0.460292,0.257105 -0.138439,0.07514 -0.313839,0.172029 -0.389779,0.215314 -0.07593,0.04328 -0.246647,0.137602 -0.379361,0.209594 -0.132708,0.07199 -0.363781,0.203053 -0.513486,0.291246 -0.149712,0.08819 -0.28351,0.16035 -0.297329,0.16035 -0.03092,0 -0.06279,0.05143 -0.264368,0.4269 -0.08769,0.163335 -0.188324,0.347088 -0.223632,0.408338 -0.03534,0.06125 -0.151662,0.278413 -0.258562,0.482583 l -0.194363,0.371217 -2.567066,2.570678 c -1.411887,1.4138726 -2.575464,2.5700476 -2.585727,2.5692766 -0.01027,-7.46e-4 -0.127247,-0.103439 -0.259955,-0.228152 -0.293962,-0.276248 -0.471398,-0.36287 -0.742431,-0.362438 -0.321256,5.12e-4 -0.549346,0.118186 -0.894827,0.46165 l -0.298304,0.296559 0.02415,0.208004 c 0.04687,0.403907 -0.08647,0.817598 -0.365851,1.134993 -0.279994,0.318086 -0.630959,0.462856 -1.121729,0.462704 -0.325983,-1.11e-4 -0.340576,0.0036 -0.468821,0.11836 -0.0728,0.06515 -1.206004,1.179216 -2.518231,2.475691 -2.188835,2.162569 -2.394598,2.376321 -2.491631,2.588424 -0.126312,0.276099 -0.137877,0.524603 -0.03534,0.758733 0.09901,0.226001 2.599139,2.710133 2.78791,2.770072 0.198988,0.06318 0.548961,0.0336 0.760994,-0.06433 z"
       style="fill:#a43445;fill-opacity:1;stroke-width:0.03712171" />
  </g>
</svg>
