<?xml version="1.0" encoding="UTF-8" standalone="no"?>
<svg
   xmlns:dc="http://purl.org/dc/elements/1.1/"
   xmlns:cc="http://creativecommons.org/ns#"
   xmlns:rdf="http://www.w3.org/1999/02/22-rdf-syntax-ns#"
   xmlns:svg="http://www.w3.org/2000/svg"
   xmlns="http://www.w3.org/2000/svg"
   xmlns:sodipodi="http://sodipodi.sourceforge.net/DTD/sodipodi-0.dtd"
   xmlns:inkscape="http://www.inkscape.org/namespaces/inkscape"
   height="32"
   width="32"
   version="1"
   id="svg19"
   sodipodi:docname="com.github.needle-and-thread.vocal.svg"
   inkscape:version="0.92.1 r">
  <metadata
     id="metadata23">
    <rdf:RDF>
      <cc:Work
         rdf:about="">
        <dc:format>image/svg+xml</dc:format>
        <dc:type
           rdf:resource="http://purl.org/dc/dcmitype/StillImage" />
      </cc:Work>
    </rdf:RDF>
  </metadata>
  <sodipodi:namedview
     pagecolor="#ffffff"
     bordercolor="#666666"
     borderopacity="1"
     objecttolerance="10"
     gridtolerance="10"
     guidetolerance="10"
     inkscape:pageopacity="0"
     inkscape:pageshadow="2"
     inkscape:window-width="640"
     inkscape:window-height="480"
     id="namedview21"
     showgrid="false"
     inkscape:zoom="8.8125"
     inkscape:cx="-13.637511"
     inkscape:cy="16"
     inkscape:current-layer="svg19" />
  <defs
     id="defs7">
    <radialGradient
       id="radialGradient4807"
       gradientUnits="userSpaceOnUse"
       cy="11.491"
       cx="15.5"
       gradientTransform="matrix(1,0,0,1.1525,0,-1.7523)"
       r="6.5">
      <stop
         offset="0"
         id="stop2" />
      <stop
         stop-opacity="0"
         offset="1"
         id="stop4" />
    </radialGradient>
  </defs>
  <rect
     style="opacity:1;fill:#4d4d4d;fill-opacity:1;fill-rule:evenodd;stroke:none;stroke-width:1.03534329;stroke-linecap:round;stroke-linejoin:bevel;stroke-miterlimit:4;stroke-dasharray:none;stroke-dashoffset:0;stroke-opacity:1"
     id="rect4497-3"
     width="28.203388"
     height="28.203388"
     x="1.8983059"
     y="1.8983059"
     ry="5.575182" />
  <g
     id="g4509"
     transform="matrix(0.70496454,0,0,0.70496454,4.7205674,4.7205674)"
     style="stroke-width:1.41851103">
    <path
       id="path9"
       d="m 6,13 v 1.666 c 0,4.3356 3.9331,7.8773 9,8.293 V 27 H 8 v 2 h 16 v -2 h -7 v -4.041 c 5.0669,-0.41566 9,-3.9574 9,-8.293 V 13 h -2 v 1.334 C 24,18.027 20.432,21 16,21 11.568,21 8,18.027 8,14.334 V 13 Z"
       inkscape:connector-curvature="0"
       style="fill:#d846d8;stroke-width:2.01217365" />
    <rect
       id="rect11"
       x="-19"
       y="-23"
       width="16"
       height="14"
       transform="matrix(0,-1,-1,0,0,0)"
       rx="6.6669998"
       ry="7"
       style="fill:#909090;stroke-width:2.01217365" />
    <path
       id="path13"
       d="M 13.5,4 A 0.5,0.5 0 0 0 13,4.5 0.5,0.5 0 0 0 13.5,5 0.5,0.5 0 0 0 14,4.5 0.5,0.5 0 0 0 13.5,4 Z m 2,0 A 0.5,0.5 0 0 0 15,4.5 0.5,0.5 0 0 0 15.5,5 0.5,0.5 0 0 0 16,4.5 0.5,0.5 0 0 0 15.5,4 Z m 2,0 A 0.5,0.5 0 0 0 17,4.5 0.5,0.5 0 0 0 17.5,5 0.5,0.5 0 0 0 18,4.5 0.5,0.5 0 0 0 17.5,4 Z m 2,0 A 0.5,0.5 0 0 0 19,4.5 0.5,0.5 0 0 0 19.5,5 0.5,0.5 0 0 0 20,4.5 0.5,0.5 0 0 0 19.5,4 Z M 11.93,4.2422 C 11.655,4.4294 11.394,4.635 11.15,4.8574 A 0.5,0.5 0 0 0 11.5,5 0.5,0.5 0 0 0 12,4.5 0.5,0.5 0 0 0 11.93,4.2422 Z M 11.5,6 A 0.5,0.5 0 0 0 11,6.5 0.5,0.5 0 0 0 11.5,7 0.5,0.5 0 0 0 12,6.5 0.5,0.5 0 0 0 11.5,6 Z m 2,0 A 0.5,0.5 0 0 0 13,6.5 0.5,0.5 0 0 0 13.5,7 0.5,0.5 0 0 0 14,6.5 0.5,0.5 0 0 0 13.5,6 Z m 2,0 A 0.5,0.5 0 0 0 15,6.5 0.5,0.5 0 0 0 15.5,7 0.5,0.5 0 0 0 16,6.5 0.5,0.5 0 0 0 15.5,6 Z m 2,0 A 0.5,0.5 0 0 0 17,6.5 0.5,0.5 0 0 0 17.5,7 0.5,0.5 0 0 0 18,6.5 0.5,0.5 0 0 0 17.5,6 Z m 2,0 A 0.5,0.5 0 0 0 19,6.5 0.5,0.5 0 0 0 19.5,7 0.5,0.5 0 0 0 20,6.5 0.5,0.5 0 0 0 19.5,6 Z m 2,0 A 0.5,0.5 0 0 0 21,6.5 0.5,0.5 0 0 0 21.5,7 0.5,0.5 0 0 0 22,6.5 0.5,0.5 0 0 0 21.5,6 Z M 9.959,6.3008 C 9.8218,6.5242 9.6955,6.753 9.5859,6.9922 A 0.5,0.5 0 0 0 10,6.5 0.5,0.5 0 0 0 9.959,6.3008 Z M 9.5,8 A 0.5,0.5 0 0 0 9.2012,8.0996 C 9.1469,8.3153 9.1041,8.5344 9.0723,8.7578 A 0.5,0.5 0 0 0 9.5,9 0.5,0.5 0 0 0 10,8.5 0.5,0.5 0 0 0 9.5,8 Z m 2,0 A 0.5,0.5 0 0 0 11,8.5 0.5,0.5 0 0 0 11.5,9 0.5,0.5 0 0 0 12,8.5 0.5,0.5 0 0 0 11.5,8 Z m 2,0 A 0.5,0.5 0 0 0 13,8.5 0.5,0.5 0 0 0 13.5,9 0.5,0.5 0 0 0 14,8.5 0.5,0.5 0 0 0 13.5,8 Z m 2,0 A 0.5,0.5 0 0 0 15,8.5 0.5,0.5 0 0 0 15.5,9 0.5,0.5 0 0 0 16,8.5 0.5,0.5 0 0 0 15.5,8 Z m 2,0 A 0.5,0.5 0 0 0 17,8.5 0.5,0.5 0 0 0 17.5,9 0.5,0.5 0 0 0 18,8.5 0.5,0.5 0 0 0 17.5,8 Z m 2,0 A 0.5,0.5 0 0 0 19,8.5 0.5,0.5 0 0 0 19.5,9 0.5,0.5 0 0 0 20,8.5 0.5,0.5 0 0 0 19.5,8 Z m 2,0 A 0.5,0.5 0 0 0 21,8.5 0.5,0.5 0 0 0 21.5,9 0.5,0.5 0 0 0 22,8.5 0.5,0.5 0 0 0 21.5,8 Z m -12,2 A 0.5,0.5 0 0 0 9,10.5 0.5,0.5 0 0 0 9.5,11 0.5,0.5 0 0 0 10,10.5 0.5,0.5 0 0 0 9.5,10 Z m 2,0 A 0.5,0.5 0 0 0 11,10.5 0.5,0.5 0 0 0 11.5,11 0.5,0.5 0 0 0 12,10.5 0.5,0.5 0 0 0 11.5,10 Z m 2,0 A 0.5,0.5 0 0 0 13,10.5 0.5,0.5 0 0 0 13.5,11 0.5,0.5 0 0 0 14,10.5 0.5,0.5 0 0 0 13.5,10 Z m 2,0 A 0.5,0.5 0 0 0 15,10.5 0.5,0.5 0 0 0 15.5,11 0.5,0.5 0 0 0 16,10.5 0.5,0.5 0 0 0 15.5,10 Z m 2,0 A 0.5,0.5 0 0 0 17,10.5 0.5,0.5 0 0 0 17.5,11 0.5,0.5 0 0 0 18,10.5 0.5,0.5 0 0 0 17.5,10 Z m 2,0 A 0.5,0.5 0 0 0 19,10.5 0.5,0.5 0 0 0 19.5,11 0.5,0.5 0 0 0 20,10.5 0.5,0.5 0 0 0 19.5,10 Z m 2,0 A 0.5,0.5 0 0 0 21,10.5 0.5,0.5 0 0 0 21.5,11 0.5,0.5 0 0 0 22,10.5 0.5,0.5 0 0 0 21.5,10 Z m -12,2 a 0.5,0.5 0 0 0 -0.4941,0.436 c 9e-4,0.062 0.007,0.123 0.0097,0.185 A 0.5,0.5 0 0 0 9.5,13 0.5,0.5 0 0 0 10,12.5 0.5,0.5 0 0 0 9.5,12 Z m 2,0 A 0.5,0.5 0 0 0 11,12.5 0.5,0.5 0 0 0 11.5,13 0.5,0.5 0 0 0 12,12.5 0.5,0.5 0 0 0 11.5,12 Z m 2,0 A 0.5,0.5 0 0 0 13,12.5 0.5,0.5 0 0 0 13.5,13 0.5,0.5 0 0 0 14,12.5 0.5,0.5 0 0 0 13.5,12 Z m 2,0 A 0.5,0.5 0 0 0 15,12.5 0.5,0.5 0 0 0 15.5,13 0.5,0.5 0 0 0 16,12.5 0.5,0.5 0 0 0 15.5,12 Z m 2,0 A 0.5,0.5 0 0 0 17,12.5 0.5,0.5 0 0 0 17.5,13 0.5,0.5 0 0 0 18,12.5 0.5,0.5 0 0 0 17.5,12 Z m 2,0 A 0.5,0.5 0 0 0 19,12.5 0.5,0.5 0 0 0 19.5,13 0.5,0.5 0 0 0 20,12.5 0.5,0.5 0 0 0 19.5,12 Z m 2,0 A 0.5,0.5 0 0 0 21,12.5 0.5,0.5 0 0 0 21.5,13 0.5,0.5 0 0 0 22,12.5 0.5,0.5 0 0 0 21.5,12 Z m -12,2 a 0.5,0.5 0 0 0 -0.2539,0.068 c 0.0893,0.318 0.1968,0.629 0.332,0.926 A 0.5,0.5 0 0 0 10,14.5 0.5,0.5 0 0 0 9.5,14 Z m 2,0 A 0.5,0.5 0 0 0 11,14.5 0.5,0.5 0 0 0 11.5,15 0.5,0.5 0 0 0 12,14.5 0.5,0.5 0 0 0 11.5,14 Z m 2,0 A 0.5,0.5 0 0 0 13,14.5 0.5,0.5 0 0 0 13.5,15 0.5,0.5 0 0 0 14,14.5 0.5,0.5 0 0 0 13.5,14 Z m 2,0 A 0.5,0.5 0 0 0 15,14.5 0.5,0.5 0 0 0 15.5,15 0.5,0.5 0 0 0 16,14.5 0.5,0.5 0 0 0 15.5,14 Z m 2,0 A 0.5,0.5 0 0 0 17,14.5 0.5,0.5 0 0 0 17.5,15 0.5,0.5 0 0 0 18,14.5 0.5,0.5 0 0 0 17.5,14 Z m 2,0 A 0.5,0.5 0 0 0 19,14.5 0.5,0.5 0 0 0 19.5,15 0.5,0.5 0 0 0 20,14.5 0.5,0.5 0 0 0 19.5,14 Z m 2,0 A 0.5,0.5 0 0 0 21,14.5 0.5,0.5 0 0 0 21.5,15 0.5,0.5 0 0 0 22,14.5 0.5,0.5 0 0 0 21.5,14 Z m -10,2 A 0.5,0.5 0 0 0 11,16.5 0.5,0.5 0 0 0 11.5,17 0.5,0.5 0 0 0 12,16.5 0.5,0.5 0 0 0 11.5,16 Z m 2,0 A 0.5,0.5 0 0 0 13,16.5 0.5,0.5 0 0 0 13.5,17 0.5,0.5 0 0 0 14,16.5 0.5,0.5 0 0 0 13.5,16 Z m 2,0 A 0.5,0.5 0 0 0 15,16.5 0.5,0.5 0 0 0 15.5,17 0.5,0.5 0 0 0 16,16.5 0.5,0.5 0 0 0 15.5,16 Z m 2,0 A 0.5,0.5 0 0 0 17,16.5 0.5,0.5 0 0 0 17.5,17 0.5,0.5 0 0 0 18,16.5 0.5,0.5 0 0 0 17.5,16 Z m 2,0 A 0.5,0.5 0 0 0 19,16.5 0.5,0.5 0 0 0 19.5,17 0.5,0.5 0 0 0 20,16.5 0.5,0.5 0 0 0 19.5,16 Z m 2,0 a 0.5,0.5 0 0 0 -0.5,0.5 0.5,0.5 0 0 0 0.145,0.352 c 0.232,-0.24 0.451,-0.49 0.644,-0.76 A 0.5,0.5 0 0 0 21.5,16 Z m -8,2 a 0.5,0.5 0 0 0 -0.48,0.363 c 0.3,0.135 0.61,0.255 0.933,0.348 A 0.5,0.5 0 0 0 14,18.5 0.5,0.5 0 0 0 13.5,18 Z m 2,0 a 0.5,0.5 0 0 0 -0.5,0.5 0.5,0.5 0 0 0 0.318,0.467 c 0.104,0.009 0.21,0.01 0.315,0.015 A 0.5,0.5 0 0 0 16,18.5 0.5,0.5 0 0 0 15.5,18 Z m 2,0 a 0.5,0.5 0 0 0 -0.5,0.5 0.5,0.5 0 0 0 0.195,0.396 c 0.253,-0.041 0.502,-0.094 0.744,-0.16 A 0.5,0.5 0 0 0 18,18.5 0.5,0.5 0 0 0 17.5,18 Z m 2,0 a 0.5,0.5 0 0 0 -0.475,0.344 c 0.214,-0.098 0.421,-0.206 0.621,-0.323 A 0.5,0.5 0 0 0 19.5,18 Z"
       inkscape:connector-curvature="0"
       style="opacity:0.7;fill:url(#radialGradient4807);stroke-width:2.01217365" />
  </g>
</svg>
