<?xml version="1.0" encoding="UTF-8" standalone="no"?>
<svg
   xmlns:dc="http://purl.org/dc/elements/1.1/"
   xmlns:cc="http://creativecommons.org/ns#"
   xmlns:rdf="http://www.w3.org/1999/02/22-rdf-syntax-ns#"
   xmlns:svg="http://www.w3.org/2000/svg"
   xmlns="http://www.w3.org/2000/svg"
   xmlns:sodipodi="http://sodipodi.sourceforge.net/DTD/sodipodi-0.dtd"
   xmlns:inkscape="http://www.inkscape.org/namespaces/inkscape"
   height="32"
   width="32"
   version="1"
   id="svg18"
   sodipodi:docname="vstudio.svg"
   inkscape:version="0.92.1 r">
  <metadata
     id="metadata24">
    <rdf:RDF>
      <cc:Work
         rdf:about="">
        <dc:format>image/svg+xml</dc:format>
        <dc:type
           rdf:resource="http://purl.org/dc/dcmitype/StillImage" />
      </cc:Work>
    </rdf:RDF>
  </metadata>
  <defs
     id="defs22" />
  <sodipodi:namedview
     pagecolor="#ffffff"
     bordercolor="#666666"
     borderopacity="1"
     objecttolerance="10"
     gridtolerance="10"
     guidetolerance="10"
     inkscape:pageopacity="0"
     inkscape:pageshadow="2"
     inkscape:window-width="640"
     inkscape:window-height="480"
     id="namedview20"
     showgrid="false"
     inkscape:zoom="8.375"
     inkscape:cx="-6.6865672"
     inkscape:cy="16"
     inkscape:current-layer="svg18" />
  <rect
     style="opacity:1;fill:#72a7ce;fill-opacity:1;fill-rule:evenodd;stroke:none;stroke-width:1.03534329;stroke-linecap:round;stroke-linejoin:bevel;stroke-miterlimit:4;stroke-dasharray:none;stroke-dashoffset:0;stroke-opacity:1"
     id="rect4497-3-3"
     width="28.203388"
     height="28.203388"
     x="1.8983059"
     y="1.8983059"
     ry="5.575182" />
  <g
     id="g4510"
     transform="translate(-1.7133498e-5,-2.2149106e-4)">
    <path
       id="path8"
       d="m 23.999,8.0007 c 0,0 -2.3993,-0.067294 -4.7972,1.1327 -0.73291,0.33314 -1.5324,0.86616 -2.1987,1.5324 -1.0774,1.0774 -2.7511,3.0609 -4.069,4.664 h -2.927 l -1.3326,1.9988 2.26,0.61098 c 0.0067,0.08062 0.02798,0.19455 0.09061,0.34846 l -0.35113,0.77222 c 0,0 -0.13326,0.26651 0.86616,1.3326 1.067,1.067 1.4,0.933 1.4,0.933 l 0.82819,-0.37578 c 0.12393,0.03864 0.21588,0.05197 0.27584,0.05197 l 0.6283,2.3227 1.9988,-1.3326 v -3.0162 c 1.6144,-1.3052 3.5952,-2.9456 4.664,-3.9797 0.66628,-0.66628 1.1993,-1.4658 1.5984,-2.1987 1.132,-2.3979 1.066,-4.7965 1.066,-4.7965 z"
       inkscape:connector-curvature="0"
       style="fill:#ffca68" />
    <path
       id="path12"
       d="m 19.335,13.997 c -0.73358,0 -1.3326,-0.59965 -1.3326,-1.3326 0,-0.73357 0.59898,-1.3326 1.3326,-1.3326 0.73291,0 1.3326,0.59899 1.3326,1.3326 0,0.73291 -0.60032,1.3326 -1.3326,1.3326 z"
       inkscape:connector-curvature="0"
       style="fill:#ffffff" />
    <path
       id="path14"
       d="m 12.339,21.993 c 0.13326,0.06729 0.19988,0.13326 0.33314,0.19988 -0.13326,0.13326 -0.26651,0.33314 -0.40044,0.4664 -1.5331,1.5324 -4.2635,1.3326 -4.2635,1.3326 0,0 -0.19988,-2.7324 1.3326,-4.2635 0.13326,-0.13392 0.33314,-0.26585 0.4664,-0.40044 0.066628,0.13326 0.13259,0.19988 0.19988,0.33314 -0.99942,1.2653 -0.86616,3.1981 -0.86616,3.1981 0,0 1.9315,0.13326 3.1981,-0.86616 z"
       inkscape:connector-curvature="0"
       style="fill:#ffca68" />
  </g>
</svg>
