<?xml version="1.0" encoding="UTF-8" standalone="no"?>
<svg
   xmlns:dc="http://purl.org/dc/elements/1.1/"
   xmlns:cc="http://creativecommons.org/ns#"
   xmlns:rdf="http://www.w3.org/1999/02/22-rdf-syntax-ns#"
   xmlns:svg="http://www.w3.org/2000/svg"
   xmlns="http://www.w3.org/2000/svg"
   xmlns:sodipodi="http://sodipodi.sourceforge.net/DTD/sodipodi-0.dtd"
   xmlns:inkscape="http://www.inkscape.org/namespaces/inkscape"
   width="32"
   height="32"
   version="1"
   id="svg40"
   sodipodi:docname="net.sourceforge.btanks.svg"
   inkscape:version="0.92.1 r">
  <metadata
     id="metadata46">
    <rdf:RDF>
      <cc:Work
         rdf:about="">
        <dc:format>image/svg+xml</dc:format>
        <dc:type
           rdf:resource="http://purl.org/dc/dcmitype/StillImage" />
      </cc:Work>
    </rdf:RDF>
  </metadata>
  <defs
     id="defs44" />
  <sodipodi:namedview
     pagecolor="#ffffff"
     bordercolor="#666666"
     borderopacity="1"
     objecttolerance="10"
     gridtolerance="10"
     guidetolerance="10"
     inkscape:pageopacity="0"
     inkscape:pageshadow="2"
     inkscape:window-width="640"
     inkscape:window-height="480"
     id="namedview42"
     showgrid="false"
     inkscape:zoom="8.9375"
     inkscape:cx="-7.955925"
     inkscape:cy="20.297039"
     inkscape:current-layer="svg40" />
  <g
     id="g4548"
     transform="translate(55.048828,4.8105467)">
    <path
       id="path4537"
       d="m -25.203125,20.982422 c -0.04093,-0.408776 -0.08677,-0.818975 -0.244141,-1.181641 -0.207329,-0.477798 -0.507638,-0.908844 -0.878906,-1.269531 -0.371267,-0.360687 -0.814826,-0.652094 -1.30664,-0.853516 -0.491815,-0.201421 -1.032594,-0.3125 -1.601563,-0.3125 h -19.720703 c -0.568969,0 -1.109749,0.111079 -1.601563,0.3125 -0.491814,0.201422 -0.935373,0.492829 -1.30664,0.853516 -0.371268,0.360687 -0.669624,0.791733 -0.876953,1.269531 -0.128245,0.295544 -0.147134,0.635592 -0.199219,0.962891 0.503196,2.564453 2.647173,4.527344 5.363281,4.527344 h 17.054688 c 2.638343,0 4.733444,-1.854227 5.318359,-4.308594 z"
       style="opacity:1;fill:#666666;fill-opacity:1;fill-rule:evenodd;stroke:none;stroke-width:1.03534329;stroke-linecap:round;stroke-linejoin:bevel;stroke-miterlimit:4;stroke-dasharray:none;stroke-dashoffset:0;stroke-opacity:1"
       inkscape:connector-curvature="0" />
    <path
       id="path4532"
       d="m -53.150391,12.0625 v 7.652344 c 0,0.372543 0.141919,0.697086 0.210938,1.048828 0.05208,-0.327299 0.07097,-0.667347 0.199219,-0.962891 0.207329,-0.477798 0.505685,-0.908844 0.876953,-1.269531 0.371267,-0.360687 0.814826,-0.652094 1.30664,-0.853516 0.491814,-0.201421 1.032594,-0.3125 1.601563,-0.3125 h 19.720703 c 0.568969,0 1.109748,0.111079 1.601563,0.3125 0.491814,0.201422 0.935373,0.492829 1.30664,0.853516 0.371268,0.360687 0.671577,0.791733 0.878906,1.269531 0.157371,0.362666 0.203208,0.772865 0.244141,1.181641 0.09983,-0.418906 0.255859,-0.817272 0.255859,-1.267578 V 12.0625 Z"
       style="opacity:1;fill:#38592b;fill-opacity:1;fill-rule:evenodd;stroke:none;stroke-width:1.03534329;stroke-linecap:round;stroke-linejoin:bevel;stroke-miterlimit:4;stroke-dasharray:none;stroke-dashoffset:0;stroke-opacity:1"
       inkscape:connector-curvature="0" />
    <path
       sodipodi:nodetypes="ssccsss"
       inkscape:connector-curvature="0"
       id="rect4497-3"
       d="m -47.576172,-2.9121094 c -3.088651,0 -5.574219,2.48556797 -5.574219,5.5742188 V 13.882187 h 28.203125 V 2.6621094 c 0,-3.08865083 -2.485568,-5.5742188 -5.574218,-5.5742188 z"
       style="opacity:1;fill:#e6e6e6;fill-opacity:1;fill-rule:evenodd;stroke:none;stroke-width:1.03534329;stroke-linecap:round;stroke-linejoin:bevel;stroke-miterlimit:4;stroke-dasharray:none;stroke-dashoffset:0;stroke-opacity:1" />
    <g
       style="fill:#b3b3b3;stroke-width:0.75168955"
       transform="matrix(1.3303363,0,0,1.3303363,-58.384284,-7.9107562)"
       id="g30">
      <circle
         style="fill:#b3b3b3;stroke-width:0.75168955"
         id="circle22"
         r="2"
         cy="22"
         cx="7" />
      <circle
         style="fill:#b3b3b3;stroke-width:0.75168955"
         id="circle24"
         r="2"
         cy="22"
         cx="12" />
      <circle
         style="fill:#b3b3b3;stroke-width:0.75168955"
         id="circle26"
         r="2"
         cy="22"
         cx="17" />
      <circle
         style="fill:#b3b3b3;stroke-width:0.75168955"
         id="circle28"
         r="2"
         cy="22"
         cx="22" />
    </g>
    <path
       style="fill:#5b7338;stroke-width:1"
       inkscape:connector-curvature="0"
       id="path4"
       d="m -40.551157,8.3119477 c -3.242439,0 -5.870945,2.1904213 -5.870945,4.8924553 0.0024,0.233906 0.02497,0.467812 0.06756,0.698922 h 11.607697 c 0.04211,-0.231352 0.06425,-0.464923 0.06625,-0.698922 -0.0016,-0.473562 -0.08573,-0.711447 -0.249721,-1.16487 h 9.942399 V 10.17574 h -10.753148 c -1.09591,-1.3116439 -2.891673,-1.8615557 -4.809516,-1.8637923 z" />
  </g>
</svg>
