<?xml version="1.0" encoding="UTF-8" standalone="no"?>
<svg
   xmlns:dc="http://purl.org/dc/elements/1.1/"
   xmlns:cc="http://creativecommons.org/ns#"
   xmlns:rdf="http://www.w3.org/1999/02/22-rdf-syntax-ns#"
   xmlns:svg="http://www.w3.org/2000/svg"
   xmlns="http://www.w3.org/2000/svg"
   xmlns:sodipodi="http://sodipodi.sourceforge.net/DTD/sodipodi-0.dtd"
   xmlns:inkscape="http://www.inkscape.org/namespaces/inkscape"
   width="32"
   height="32"
   version="1"
   id="svg16"
   sodipodi:docname="org.gna.Warmux.svg"
   inkscape:version="0.92.1 r">
  <metadata
     id="metadata22">
    <rdf:RDF>
      <cc:Work
         rdf:about="">
        <dc:format>image/svg+xml</dc:format>
        <dc:type
           rdf:resource="http://purl.org/dc/dcmitype/StillImage" />
      </cc:Work>
    </rdf:RDF>
  </metadata>
  <defs
     id="defs20" />
  <sodipodi:namedview
     pagecolor="#ffffff"
     bordercolor="#666666"
     borderopacity="1"
     objecttolerance="10"
     gridtolerance="10"
     guidetolerance="10"
     inkscape:pageopacity="0"
     inkscape:pageshadow="2"
     inkscape:window-width="640"
     inkscape:window-height="480"
     id="namedview18"
     showgrid="false"
     inkscape:zoom="8.9375"
     inkscape:cx="-5.3706294"
     inkscape:cy="16"
     inkscape:current-layer="svg16" />
  <rect
     style="opacity:1;fill:#4f4f4f;fill-opacity:1;fill-rule:evenodd;stroke:none;stroke-width:1.03534329;stroke-linecap:round;stroke-linejoin:bevel;stroke-miterlimit:4;stroke-dasharray:none;stroke-dashoffset:0;stroke-opacity:1"
     id="rect4497-3"
     width="28.203388"
     height="28.203388"
     x="1.8983059"
     y="1.8983059"
     ry="5.575182"
     inkscape:export-filename="/home/ramil/3.png"
     inkscape:export-xdpi="71"
     inkscape:export-ydpi="71" />
  <g
     id="g4516"
     transform="translate(44.303291,11.022446)">
    <rect
       id="rect2"
       transform="rotate(30)"
       ry="0.19399925"
       rx="0.1903663"
       y="7.1417937"
       x="-22.179285"
       height="4.3595338"
       width="1.4531779"
       style="fill:#ffd38d;stroke-width:1" />
    <path
       id="path4"
       d="m -24.892979,-3.7071726 c -0.232509,-0.134201 -0.527504,-0.055075 -0.661923,0.1772877 l -0.658471,1.1405267 a 8.7190673,8.7190673 0 0 0 -9.638929,4.1008679 8.7190673,8.7190673 0 0 0 3.191179,11.9102463 8.7190673,8.7190673 0 0 0 11.910246,-3.191179 8.7190673,8.7190673 0 0 0 -1.268625,-10.39603453 l 0.659416,-1.14212517 c 0.134179,-0.2323995 0.0551,-0.5275181 -0.177302,-0.66169 l -3.355969,-1.9375947 z"
       inkscape:connector-curvature="0"
       style="fill:#ffffff;stroke-width:1" />
    <path
       id="path12"
       d="m -29.401225,-0.46825708 c -0.128439,-9.0097e-4 -0.245381,0.003684 -0.347685,0.012772 -0.962715,0.0856377 -2.218063,0.94304349 -3.282422,2.24362738 -1.02885,1.2572045 -1.325844,2.2617581 -0.886949,3.0014365 0.494265,0.8329994 1.066645,1.3067056 1.864722,1.5454205 0.682752,0.2042231 0.886792,0.3281102 1.471627,0.8940452 0.944012,0.913517 1.269246,1.0162872 3.25404,1.0217657 0.838378,0.00254 1.847851,-0.031861 2.243627,-0.075214 0.585167,-0.064063 0.832202,-0.1388424 1.315523,-0.4030294 1.282099,-0.7008074 1.488785,-1.1771591 1.11117,-2.5501572 -0.117777,-0.4282072 -0.310162,-1.3330008 -0.427154,-2.0108915 -0.116983,-0.6778915 -0.264056,-1.3376881 -0.327817,-1.4659499 -0.283783,-0.5708301 -1.196881,-1.12026571 -2.77012,-1.66746493 -0.862194,-0.29988985 -2.319472,-0.53997387 -3.218562,-0.54636035 z m -0.557714,2.90635578 c 0.762669,0.032072 0.934933,0.7007921 0.930942,1.2729497 0,0.8079298 -0.116328,1.1201683 -0.533589,1.4290529 -0.311653,0.2306913 -1.073434,0.2782153 -1.301332,0.08089 -0.238129,-0.20619 -0.344846,-0.5922608 -0.344846,-1.2474057 0,-0.986633 0.445696,-1.5351996 1.248825,-1.5354869 z m 3.869938,0 h 0.0015 c 0.188194,-0.00327 0.389324,0.056572 0.630088,0.1773901 0.249111,0.1250177 0.528597,0.3271888 0.621575,0.4484413 0.221753,0.2891867 0.222893,0.9399205 0.0043,1.6646269 -0.330569,1.0937183 -0.988397,1.5347048 -1.893105,1.2658538 -0.348203,-0.1034576 -0.759094,-0.5940257 -0.833086,-0.996221 -0.119564,-0.6498779 0.41289,-2.0260795 0.913912,-2.3628338 0.190933,-0.1283287 0.366813,-0.1936745 0.554876,-0.1972573 z m -6.371845,4.3595336 c -0.305521,-0.00182 -0.630346,0.099731 -0.942295,0.3065297 -0.382329,0.2534633 -1.128693,1.134565 -1.326876,1.5681265 -0.375029,0.8204649 0.247542,2.0884965 1.182126,2.4054065 0.328745,0.11148 0.333912,0.110819 0.631508,-0.03264 0.3538,-0.17055 0.527449,-0.399893 1.140972,-1.5099427 0.414451,-0.7498645 0.524943,-1.0303911 0.554875,-1.4120232 0.03389,-0.4317711 0.0116,-0.5080273 -0.228478,-0.8174125 -0.259318,-0.3341285 -0.619017,-0.5058767 -1.011832,-0.5080463 z m 3.022724,2.1797668 c -0.705234,0 -1.206308,0.4431045 -1.532649,1.3524199 -0.282841,0.78814 -0.314885,1.457263 -0.08089,1.69159 0.407581,0.408145 1.917853,0.738136 2.378443,0.519398 0.192277,-0.09131 0.252084,-0.227026 0.343427,-0.780516 0.08744,-0.529818 -0.03421,-1.713136 -0.222802,-2.1698324 -0.168194,-0.4072466 -0.465877,-0.6130595 -0.88553,-0.6130595 z m 3.309385,0 c -0.06327,-4.86e-4 -0.136631,0.00342 -0.22422,0.00993 -0.522564,0.039912 -0.805064,0.2175785 -1.057245,0.6655671 -0.168121,0.2986499 -0.183654,0.4080708 -0.149007,1.0132518 0.04325,0.754899 0.159455,1.141617 0.363295,1.197736 0.21895,0.06026 1.202893,-0.02821 1.634825,-0.147589 0.531169,-0.146778 0.892626,-0.43547 0.892626,-0.710977 0,-0.294142 -0.764643,-1.6905901 -1.034538,-1.8888479 -0.135327,-0.099415 -0.236003,-0.1374735 -0.425736,-0.1390735 z"
       style="fill:#4f4f4f;fill-opacity:1;stroke-width:1"
       inkscape:connector-curvature="0" />
  </g>
</svg>
