<?xml version="1.0" encoding="UTF-8" standalone="no"?>
<svg
   xmlns:dc="http://purl.org/dc/elements/1.1/"
   xmlns:cc="http://creativecommons.org/ns#"
   xmlns:rdf="http://www.w3.org/1999/02/22-rdf-syntax-ns#"
   xmlns:svg="http://www.w3.org/2000/svg"
   xmlns="http://www.w3.org/2000/svg"
   xmlns:sodipodi="http://sodipodi.sourceforge.net/DTD/sodipodi-0.dtd"
   xmlns:inkscape="http://www.inkscape.org/namespaces/inkscape"
   height="32"
   width="32"
   version="1"
   id="svg8"
   sodipodi:docname="warzone2100.svg"
   inkscape:version="0.92.1 r">
  <metadata
     id="metadata14">
    <rdf:RDF>
      <cc:Work
         rdf:about="">
        <dc:format>image/svg+xml</dc:format>
        <dc:type
           rdf:resource="http://purl.org/dc/dcmitype/StillImage" />
        <dc:title />
      </cc:Work>
    </rdf:RDF>
  </metadata>
  <defs
     id="defs12" />
  <sodipodi:namedview
     pagecolor="#ffffff"
     bordercolor="#666666"
     borderopacity="1"
     objecttolerance="10"
     gridtolerance="10"
     guidetolerance="10"
     inkscape:pageopacity="0"
     inkscape:pageshadow="2"
     inkscape:window-width="1680"
     inkscape:window-height="955"
     id="namedview10"
     showgrid="false"
     inkscape:zoom="20.85965"
     inkscape:cx="15.356858"
     inkscape:cy="17.808275"
     inkscape:window-x="0"
     inkscape:window-y="0"
     inkscape:window-maximized="1"
     inkscape:current-layer="svg8" />
  <rect
     style="opacity:1;fill:#435672;fill-opacity:1;fill-rule:evenodd;stroke:none;stroke-width:1.03534329;stroke-linecap:round;stroke-linejoin:bevel;stroke-miterlimit:4;stroke-dasharray:none;stroke-dashoffset:0;stroke-opacity:1"
     id="rect4497-2-4"
     width="28.203388"
     height="28.203388"
     x="1.8983058"
     y="1.8983057"
     ry="5.575182" />
  <path
     inkscape:connector-curvature="0"
     style="color:#000000;font-style:normal;font-variant:normal;font-weight:normal;font-stretch:normal;font-size:medium;line-height:normal;font-family:sans-serif;font-variant-ligatures:normal;font-variant-position:normal;font-variant-caps:normal;font-variant-numeric:normal;font-variant-alternates:normal;font-feature-settings:normal;text-indent:0;text-align:start;text-decoration:none;text-decoration-line:none;text-decoration-style:solid;text-decoration-color:#000000;letter-spacing:normal;word-spacing:normal;text-transform:none;writing-mode:lr-tb;direction:ltr;text-orientation:mixed;dominant-baseline:auto;baseline-shift:baseline;text-anchor:start;white-space:normal;shape-padding:0;clip-rule:nonzero;display:inline;overflow:visible;visibility:visible;opacity:1;isolation:auto;mix-blend-mode:normal;color-interpolation:sRGB;color-interpolation-filters:linearRGB;solid-color:#000000;solid-opacity:1;vector-effect:none;fill:#99bde0;fill-opacity:1;fill-rule:nonzero;stroke:none;stroke-width:9;stroke-linecap:butt;stroke-linejoin:miter;stroke-miterlimit:4;stroke-dasharray:none;stroke-dashoffset:0;stroke-opacity:1;color-rendering:auto;image-rendering:auto;shape-rendering:auto;text-rendering:auto;enable-background:accumulate"
     d="M 1.92355,9.849995 H 30.064175 V 9.236714 H 1.92355 Z"
     id="path4703-7" />
  <path
     inkscape:connector-curvature="0"
     style="color:#000000;font-style:normal;font-variant:normal;font-weight:normal;font-stretch:normal;font-size:medium;line-height:normal;font-family:sans-serif;font-variant-ligatures:normal;font-variant-position:normal;font-variant-caps:normal;font-variant-numeric:normal;font-variant-alternates:normal;font-feature-settings:normal;text-indent:0;text-align:start;text-decoration:none;text-decoration-line:none;text-decoration-style:solid;text-decoration-color:#000000;letter-spacing:normal;word-spacing:normal;text-transform:none;writing-mode:lr-tb;direction:ltr;text-orientation:mixed;dominant-baseline:auto;baseline-shift:baseline;text-anchor:start;white-space:normal;shape-padding:0;clip-rule:nonzero;display:inline;overflow:visible;visibility:visible;opacity:1;isolation:auto;mix-blend-mode:normal;color-interpolation:sRGB;color-interpolation-filters:linearRGB;solid-color:#000000;solid-opacity:1;vector-effect:none;fill:#99bde0;fill-opacity:1;fill-rule:nonzero;stroke:none;stroke-width:9;stroke-linecap:butt;stroke-linejoin:miter;stroke-miterlimit:4;stroke-dasharray:none;stroke-dashoffset:0;stroke-opacity:1;color-rendering:auto;image-rendering:auto;shape-rendering:auto;text-rendering:auto;enable-background:accumulate"
     d="m 1.92355,19.799215 h 2.714843 l 2.699219,4.4375 h 17.472656 l 2.552735,-4.511719 h 2.701172 V 19.111715 H 27.286831 L 24.478237,16.930074 H 7.550503 L 4.7048,19.185933 H 2.064175 L 1.92355,19.029683 Z m 5.839843,-2.25586 H 24.2673 l 2.517578,1.955078 -2.333985,4.125 H 7.683315 l -2.46875,-4.060546 z"
     id="path4701-6" />
  <path
     style="font-style:normal;font-variant:normal;font-weight:normal;font-stretch:normal;font-size:medium;line-height:1.25;font-family:Impact;-inkscape-font-specification:Impact;letter-spacing:0px;word-spacing:0px;fill:#dce7f5;fill-opacity:1;stroke:none;stroke-width:1"
     d="M 20.005859 10.898438 C 19.726362 10.898438 19.479664 10.94335 19.269531 11.035156 C 19.059399 11.126962 18.893979 11.258317 18.769531 11.429688 C 18.647123 11.601058 18.573308 11.791907 18.548828 12 C 18.526388 12.206053 18.513672 12.556898 18.513672 13.054688 L 18.513672 13.902344 C 18.513672 14.412375 18.526301 14.770597 18.550781 14.974609 C 18.575263 15.178622 18.652722 15.367606 18.78125 15.541016 C 18.909778 15.714426 19.07893 15.843915 19.289062 15.931641 C 19.501236 16.017326 19.740643 16.060547 20.005859 16.060547 C 20.285356 16.060547 20.530101 16.01368 20.740234 15.921875 C 20.950367 15.830069 21.115874 15.698714 21.238281 15.527344 C 21.362731 15.355973 21.436544 15.16699 21.458984 14.960938 C 21.483464 14.752845 21.496094 14.400134 21.496094 13.902344 L 21.496094 13.054688 C 21.496094 12.544657 21.483464 12.188388 21.458984 11.984375 C 21.434503 11.780362 21.357044 11.591379 21.228516 11.417969 C 21.099988 11.244558 20.930923 11.114982 20.71875 11.029297 C 20.508617 10.941571 20.271075 10.898437 20.005859 10.898438 z M 4.1933594 11.001953 L 4.7675781 15.957031 L 6.3691406 15.957031 C 6.5568322 14.641151 6.6755594 13.775473 6.7265625 13.361328 C 6.8387694 14.330387 6.9683454 15.196065 7.1152344 15.957031 L 8.7246094 15.957031 L 9.296875 11.001953 L 8.0449219 11.001953 C 7.8776317 12.148503 7.7589044 13.320025 7.6875 14.517578 L 7.546875 12.636719 C 7.4713906 11.692141 7.4246113 11.146802 7.40625 11.001953 L 6.0664062 11.001953 C 5.8766744 12.403518 5.7578602 13.535464 5.7109375 14.398438 L 5.5761719 12.730469 L 5.4453125 11.001953 L 4.1933594 11.001953 z M 9.8613281 11.001953 L 9.2050781 15.957031 L 10.539062 15.957031 L 10.617188 15.066406 L 11.078125 15.066406 L 11.142578 15.957031 L 12.460938 15.957031 L 11.724609 11.001953 L 9.8613281 11.001953 z M 12.6875 11.001953 L 12.6875 15.957031 L 13.976562 15.957031 L 13.976562 13.722656 C 14.154056 13.722656 14.263888 13.75316 14.304688 13.816406 C 14.347527 13.87965 14.367187 14.045331 14.367188 14.310547 L 14.367188 15.957031 L 15.564453 15.957031 L 15.564453 14.650391 C 15.564453 14.250526 15.55369 14.005694 15.53125 13.917969 C 15.510849 13.828203 15.456866 13.731087 15.369141 13.625 C 15.281415 13.518917 15.110484 13.43434 14.855469 13.371094 C 15.137006 13.344572 15.324036 13.263467 15.419922 13.130859 C 15.515808 12.998251 15.564453 12.741052 15.564453 12.355469 C 15.564453 11.933163 15.496064 11.625366 15.359375 11.433594 C 15.224727 11.239779 15.050238 11.119186 14.833984 11.072266 C 14.619771 11.025346 14.207567 11.001953 13.599609 11.001953 L 12.6875 11.001953 z M 15.962891 11.001953 L 15.962891 11.994141 L 16.837891 11.994141 L 15.845703 15.236328 L 15.845703 15.957031 L 18.220703 15.957031 L 18.220703 14.964844 L 17.259766 14.964844 L 18.220703 11.994141 L 18.220703 11.001953 L 15.962891 11.001953 z M 21.978516 11.001953 L 21.978516 15.957031 L 23.056641 15.957031 L 23.056641 13.703125 L 23.726562 15.957031 L 24.855469 15.957031 L 24.855469 11.001953 L 23.777344 11.001953 L 23.777344 13.232422 L 23.056641 11.001953 L 21.978516 11.001953 z M 25.369141 11.001953 L 25.369141 15.957031 L 27.603516 15.957031 L 27.603516 14.964844 L 26.658203 14.964844 L 26.658203 13.875 L 27.462891 13.875 L 27.462891 12.933594 L 26.658203 12.933594 L 26.658203 11.994141 L 27.517578 11.994141 L 27.517578 11.001953 L 25.369141 11.001953 z M 20.011719 11.736328 C 20.091285 11.736328 20.143489 11.768698 20.167969 11.833984 C 20.194489 11.897228 20.207031 12.044857 20.207031 12.275391 L 20.207031 14.550781 C 20.207031 14.842519 20.194402 15.027944 20.169922 15.105469 C 20.145441 15.182993 20.089678 15.222656 20.001953 15.222656 C 19.916266 15.222656 19.860418 15.188418 19.835938 15.121094 C 19.813498 15.05377 19.802734 14.875549 19.802734 14.587891 L 19.802734 12.275391 C 19.802734 12.020372 19.820789 11.867406 19.855469 11.816406 C 19.892191 11.76336 19.944395 11.736328 20.011719 11.736328 z M 13.976562 11.849609 C 14.125489 11.849609 14.228116 11.874868 14.283203 11.923828 C 14.340323 11.972791 14.367188 12.075333 14.367188 12.232422 L 14.367188 12.503906 C 14.367188 12.722202 14.338457 12.851778 14.279297 12.892578 C 14.222174 12.931338 14.121412 12.951172 13.976562 12.951172 L 13.976562 11.849609 z M 10.845703 12.109375 C 10.910984 12.933585 10.975729 13.626465 11.041016 14.1875 L 10.601562 14.1875 C 10.634204 13.748873 10.715135 13.055992 10.845703 12.109375 z M 12.185547 18.662109 C 11.995446 18.662109 11.833273 18.69168 11.697266 18.751953 C 11.561258 18.812229 11.450239 18.90207 11.365234 19.019531 C 11.280232 19.136992 11.226718 19.256809 11.205078 19.378906 C 11.183438 19.499458 11.171875 19.664807 11.171875 19.875 L 11.171875 20.011719 L 12.011719 20.011719 L 12.011719 19.654297 C 12.011719 19.488926 12.0285 19.377906 12.0625 19.322266 C 12.098047 19.266626 12.151562 19.238281 12.222656 19.238281 C 12.293753 19.238281 12.346859 19.263453 12.380859 19.314453 C 12.416406 19.36391 12.433594 19.440963 12.433594 19.542969 C 12.433594 19.675885 12.375681 19.861597 12.259766 20.099609 C 12.145396 20.336077 11.782362 20.952755 11.171875 21.951172 L 11.171875 22.486328 L 13.234375 22.486328 L 13.234375 21.847656 L 12.207031 21.847656 C 12.732514 21.070252 13.047655 20.561824 13.154297 20.322266 C 13.262484 20.082708 13.316406 19.855455 13.316406 19.640625 C 13.316406 19.357792 13.220943 19.123372 13.029297 18.939453 C 12.839196 18.753989 12.558022 18.662109 12.185547 18.662109 z M 16.494141 18.662109 C 16.242218 18.662109 16.027346 18.712856 15.849609 18.816406 C 15.673415 18.919957 15.554414 19.058914 15.494141 19.230469 C 15.435407 19.402023 15.40625 19.659252 15.40625 20.003906 L 15.40625 21.314453 C 15.40625 21.57874 15.423844 21.770481 15.460938 21.892578 C 15.49803 22.01313 15.560341 22.128548 15.648438 22.238281 C 15.736533 22.348016 15.855534 22.429875 16.003906 22.482422 C 16.152278 22.533422 16.338397 22.558594 16.5625 22.558594 C 16.732509 22.558594 16.885885 22.533835 17.023438 22.484375 C 17.16099 22.434918 17.279584 22.353058 17.376953 22.240234 C 17.47432 22.12741 17.537446 22.006778 17.568359 21.876953 C 17.599273 21.747128 17.615234 21.540238 17.615234 21.255859 L 17.615234 20.003906 C 17.615234 19.719528 17.599679 19.512637 17.570312 19.382812 C 17.542493 19.252987 17.488571 19.136754 17.408203 19.033203 C 17.327835 18.929652 17.207203 18.842579 17.044922 18.771484 C 16.882641 18.698844 16.699697 18.662109 16.494141 18.662109 z M 19.042969 18.662109 C 18.791046 18.662109 18.576174 18.712856 18.398438 18.816406 C 18.222244 18.919957 18.105195 19.058914 18.044922 19.230469 C 17.986189 19.402023 17.955078 19.659252 17.955078 20.003906 L 17.955078 21.314453 C 17.955078 21.57874 17.974625 21.770481 18.011719 21.892578 C 18.048812 22.01313 18.111123 22.128548 18.199219 22.238281 C 18.287314 22.348016 18.406316 22.429875 18.554688 22.482422 C 18.703059 22.533422 18.889179 22.558594 19.113281 22.558594 C 19.283291 22.558594 19.436666 22.533835 19.574219 22.484375 C 19.711771 22.434918 19.828412 22.353058 19.925781 22.240234 C 20.023147 22.12741 20.088227 22.006778 20.119141 21.876953 C 20.150054 21.747128 20.166016 21.540238 20.166016 21.255859 L 20.166016 20.003906 C 20.166016 19.719528 20.15046 19.512637 20.121094 19.382812 C 20.093274 19.252987 20.039352 19.136754 19.958984 19.033203 C 19.878616 18.929652 19.757984 18.842579 19.595703 18.771484 C 19.433422 18.698844 19.248525 18.662109 19.042969 18.662109 z M 14.490234 18.734375 C 14.255313 19.0373 13.911827 19.236616 13.458984 19.333984 L 13.458984 19.771484 L 13.550781 19.771484 C 13.767158 19.771484 13.90693 19.787446 13.96875 19.818359 C 14.032114 19.847728 14.070071 19.892445 14.083984 19.951172 C 14.097891 20.009903 14.105469 20.184049 14.105469 20.474609 L 14.105469 22.486328 L 15.041016 22.486328 L 15.041016 18.734375 L 14.490234 18.734375 z M 16.513672 19.238281 C 16.584767 19.238281 16.629891 19.263453 16.648438 19.314453 C 16.668531 19.36391 16.677734 19.490078 16.677734 19.689453 L 16.677734 21.548828 C 16.677734 21.732749 16.668124 21.849797 16.646484 21.902344 C 16.624847 21.95489 16.579315 21.982422 16.509766 21.982422 C 16.440219 21.982422 16.394687 21.958882 16.373047 21.914062 C 16.352954 21.869242 16.341797 21.737452 16.341797 21.519531 L 16.341797 19.689453 C 16.341797 19.496259 16.35336 19.372859 16.375 19.320312 C 16.398183 19.266219 16.444123 19.238281 16.513672 19.238281 z M 19.064453 19.238281 C 19.135548 19.238281 19.180672 19.263453 19.199219 19.314453 C 19.219312 19.36391 19.228516 19.490078 19.228516 19.689453 L 19.228516 21.548828 C 19.228516 21.732749 19.218906 21.849797 19.197266 21.902344 C 19.175628 21.95489 19.128143 21.982422 19.058594 21.982422 C 18.989047 21.982422 18.943515 21.958882 18.921875 21.914062 C 18.901782 21.869242 18.892578 21.737452 18.892578 21.519531 L 18.892578 19.689453 C 18.892578 19.496259 18.904141 19.372859 18.925781 19.320312 C 18.948964 19.266219 18.994904 19.238281 19.064453 19.238281 z "
     id="path4497" />
</svg>
