<?xml version="1.0" encoding="UTF-8" standalone="no"?>
<svg
   xmlns:dc="http://purl.org/dc/elements/1.1/"
   xmlns:cc="http://creativecommons.org/ns#"
   xmlns:rdf="http://www.w3.org/1999/02/22-rdf-syntax-ns#"
   xmlns:svg="http://www.w3.org/2000/svg"
   xmlns="http://www.w3.org/2000/svg"
   xmlns:sodipodi="http://sodipodi.sourceforge.net/DTD/sodipodi-0.dtd"
   xmlns:inkscape="http://www.inkscape.org/namespaces/inkscape"
   height="32"
   width="32"
   version="1"
   id="svg12"
   sodipodi:docname="worms.svg"
   inkscape:version="0.92.1 r">
  <metadata
     id="metadata18">
    <rdf:RDF>
      <cc:Work
         rdf:about="">
        <dc:format>image/svg+xml</dc:format>
        <dc:type
           rdf:resource="http://purl.org/dc/dcmitype/StillImage" />
      </cc:Work>
    </rdf:RDF>
  </metadata>
  <defs
     id="defs16" />
  <sodipodi:namedview
     pagecolor="#ffffff"
     bordercolor="#666666"
     borderopacity="1"
     objecttolerance="10"
     gridtolerance="10"
     guidetolerance="10"
     inkscape:pageopacity="0"
     inkscape:pageshadow="2"
     inkscape:window-width="640"
     inkscape:window-height="480"
     id="namedview14"
     showgrid="false"
     inkscape:zoom="8.8125"
     inkscape:cx="-5.6737589"
     inkscape:cy="16"
     inkscape:current-layer="svg12" />
  <rect
     style="opacity:1;fill:#fecd38;fill-opacity:1;fill-rule:evenodd;stroke:none;stroke-width:1.03534329;stroke-linecap:round;stroke-linejoin:bevel;stroke-miterlimit:4;stroke-dasharray:none;stroke-dashoffset:0;stroke-opacity:1"
     id="rect4497-6"
     width="28.203388"
     height="28.203388"
     x="1.8983059"
     y="1.8983059"
     ry="5.575182" />
  <path
     d="m 15.922114,6 c -3.265,0 -5.213,2.0371 -5.213,2.0371 l 2.996,5.6929 a 4,4 0 0 1 2.295,-0.73 4,4 0 0 1 2.184,0.654 l 2.959,-5.6169 c 0,0 -1.957,-2.0371 -5.221,-2.0371 z m 0.078,9 c -1.104,0 -2,0.896 -2,2 0,1.105 0.896,2 2,2 1.105,0 2,-0.895 2,-2 0,-1.105 -0.895,-2 -2,-2 z m 4.055,1.881 c -0.01,0.293 -0.058,0.588 -0.129,0.879 a 4,4 0 0 1 -0.03,0.129 c -0.005,0.02 -0.009,0.041 -0.015,0.062 a 4,4 0 0 1 -1.998,2.574 l 3.672,5.393 c 0,0 2.815,-0.609 4.447,-3.324 1.632,-2.715 0.769,-5.354 0.769,-5.354 v -0.002 z m -8.112,0.082 -6.7164004,0.359 c 0,0 -0.8589,2.647 0.7734,5.362 1.6321,2.715 4.4430004,3.316 4.4430004,3.316 l 3.682,-5.408 c -0.357,-0.213 -0.682,-0.479 -0.973,-0.785 a 4,4 0 0 1 -0.15,-0.166 c -0.043,-0.051 -0.09,-0.098 -0.131,-0.151 a 4,4 0 0 1 -0.004,-0.004 4,4 0 0 1 -0.277,-0.404 c -0.009,-0.014 -0.021,-0.026 -0.029,-0.041 -0.018,-0.029 -0.029,-0.059 -0.045,-0.088 a 4,4 0 0 1 -0.131,-0.252 c -0.274,-0.56 -0.422,-1.15 -0.442,-1.738 z"
     id="path10"
     inkscape:connector-curvature="0"
     style="fill:#3f3f3f" />
</svg>
