<?xml version="1.0" encoding="UTF-8" standalone="no"?>
<svg
   xmlns:dc="http://purl.org/dc/elements/1.1/"
   xmlns:cc="http://creativecommons.org/ns#"
   xmlns:rdf="http://www.w3.org/1999/02/22-rdf-syntax-ns#"
   xmlns:svg="http://www.w3.org/2000/svg"
   xmlns="http://www.w3.org/2000/svg"
   xmlns:sodipodi="http://sodipodi.sourceforge.net/DTD/sodipodi-0.dtd"
   xmlns:inkscape="http://www.inkscape.org/namespaces/inkscape"
   width="32"
   height="32"
   version="1"
   id="svg44"
   sodipodi:docname="wpscrackgui.svg"
   inkscape:version="0.92.1 r">
  <metadata
     id="metadata48">
    <rdf:RDF>
      <cc:Work
         rdf:about="">
        <dc:format>image/svg+xml</dc:format>
        <dc:type
           rdf:resource="http://purl.org/dc/dcmitype/StillImage" />
      </cc:Work>
    </rdf:RDF>
  </metadata>
  <sodipodi:namedview
     pagecolor="#ffffff"
     bordercolor="#666666"
     borderopacity="1"
     objecttolerance="10"
     gridtolerance="10"
     guidetolerance="10"
     inkscape:pageopacity="0"
     inkscape:pageshadow="2"
     inkscape:window-width="640"
     inkscape:window-height="480"
     id="namedview46"
     showgrid="false"
     inkscape:zoom="8.375"
     inkscape:cx="-29.768289"
     inkscape:cy="13.350029"
     inkscape:current-layer="svg44" />
  <defs
     id="defs14">
    <clipPath
       id="clipPath5078"
       clipPathUnits="userSpaceOnUse">
      <path
         fill="#2095f2"
         d="m160 247c-7.9134 0-15.037 2.8117-20.945 7.1718l20.94 22.82 20.78-22.9c-5.88-4.31-12.93-7.09-20.78-7.09z"
         id="path2" />
    </clipPath>
    <filter
       id="filter5060"
       style="color-interpolation-filters:sRGB"
       width="1.205"
       height="1.288"
       x="-.1"
       y="-.14">
      <feGaussianBlur
         stdDeviation="1.443"
         id="feGaussianBlur5" />
    </filter>
    <clipPath
       id="clipPath5085"
       clipPathUnits="userSpaceOnUse">
      <path
         fill="#2095f2"
         d="m160 247c-7.9134 0-15.037 2.8117-20.945 7.1718l20.94 22.82 20.78-22.9c-5.88-4.31-12.93-7.09-20.78-7.09z"
         id="path8" />
    </clipPath>
    <filter
       id="filter5064"
       style="color-interpolation-filters:sRGB"
       width="1.274"
       height="1.385"
       x="-.14"
       y="-.19">
      <feGaussianBlur
         stdDeviation="1.443"
         id="feGaussianBlur11" />
    </filter>
  </defs>
  <rect
     style="opacity:1;fill:#8e8e8e;fill-opacity:1;fill-rule:evenodd;stroke:none;stroke-width:1.03534329;stroke-linecap:round;stroke-linejoin:bevel;stroke-miterlimit:4;stroke-dasharray:none;stroke-dashoffset:0;stroke-opacity:1"
     id="rect4497-3-3"
     width="28.203388"
     height="28.203388"
     x="1.8983059"
     y="1.8983059"
     ry="5.575182" />
  <g
     id="g4509"
     transform="translate(-0.3582083,2.1510347)">
    <path
       style="fill:#4f4f4f;stroke-width:1"
       inkscape:connector-curvature="0"
       id="path16"
       d="m 16.401462,5.8390216 c -4.226868,0 -8.0316104,1.501872 -11.1875434,3.831175 L 16.401462,21.858989 27.502498,9.6261416 c -3.143117,-2.303191 -6.906207,-3.78744 -11.101036,-3.78744 z" />
    <path
       style="fill:#797979;stroke-width:1"
       inkscape:connector-curvature="0"
       id="path20"
       d="m 16.358208,9.0392506 c -3.367156,0 -6.4922514,1.1042564 -9.0024204,2.9693004 l 9.0496794,9.850678 8.955162,-9.850678 C 22.851101,10.143827 19.725606,9.0394906 16.358208,9.0394906 Z" />
    <path
       style="fill:#cccccc;stroke-width:1"
       inkscape:connector-curvature="0"
       id="path24"
       d="m 16.358208,12.243804 c -2.525387,0 -4.869188,0.828233 -6.7515344,2.226936 l 6.7867784,7.388409 6.716211,-7.387848 c -1.882346,-1.398783 -4.226227,-2.226936 -6.751535,-2.226936 z" />
  </g>
  <g
     id="g4536"
     transform="matrix(0.99219724,0,0,0.99219724,46.806241,4.2432529)"
     style="stroke-width:1.00786412">
    <circle
       id="circle36"
       r="6.4079866"
       cy="17.144251"
       cx="-25.633116"
       style="fill:#5565cc;stroke-width:1.00786412" />
    <path
       inkscape:connector-curvature="0"
       id="path38"
       d="m -27.235111,13.940259 a 3.2039933,3.2039933 0 0 0 -3.203994,3.203993 3.2039933,3.2039933 0 0 0 3.203994,3.203994 3.2039933,3.2039933 0 0 0 3.203993,-3.203994 3.2039933,3.2039933 0 0 0 -3.203993,-3.203993 z m 0,1.601997 a 1.6019966,1.6019966 0 0 1 1.601997,1.601996 1.6019966,1.6019966 0 0 1 -1.601997,1.601997 1.6019966,1.6019966 0 0 1 -1.601997,-1.601997 1.6019966,1.6019966 0 0 1 1.601997,-1.601996 z"
       style="fill:#ffffff;stroke-width:1.00786412" />
    <rect
       id="rect40"
       y="16.343254"
       x="-24.832117"
       height="1.6019967"
       width="4.8059902"
       style="fill:#ffffff;stroke-width:1.00786412" />
    <rect
       id="rect42"
       transform="rotate(90)"
       y="20.827126"
       x="17.94525"
       height="0.80099833"
       width="1.6019967"
       style="fill:#ffffff;stroke-width:1.00786412" />
  </g>
</svg>
