<?xml version="1.0" encoding="UTF-8" standalone="no"?>
<svg
   xmlns:dc="http://purl.org/dc/elements/1.1/"
   xmlns:cc="http://creativecommons.org/ns#"
   xmlns:rdf="http://www.w3.org/1999/02/22-rdf-syntax-ns#"
   xmlns:svg="http://www.w3.org/2000/svg"
   xmlns="http://www.w3.org/2000/svg"
   xmlns:sodipodi="http://sodipodi.sourceforge.net/DTD/sodipodi-0.dtd"
   xmlns:inkscape="http://www.inkscape.org/namespaces/inkscape"
   height="32"
   width="32"
   version="1"
   id="svg14"
   sodipodi:docname="application-x-yarock.svg"
   inkscape:version="0.92.1 r">
  <metadata
     id="metadata20">
    <rdf:RDF>
      <cc:Work
         rdf:about="">
        <dc:format>image/svg+xml</dc:format>
        <dc:type
           rdf:resource="http://purl.org/dc/dcmitype/StillImage" />
      </cc:Work>
    </rdf:RDF>
  </metadata>
  <defs
     id="defs18" />
  <sodipodi:namedview
     pagecolor="#ffffff"
     bordercolor="#666666"
     borderopacity="1"
     objecttolerance="10"
     gridtolerance="10"
     guidetolerance="10"
     inkscape:pageopacity="0"
     inkscape:pageshadow="2"
     inkscape:window-width="1680"
     inkscape:window-height="965"
     id="namedview16"
     showgrid="false"
     inkscape:zoom="10.429825"
     inkscape:cx="-4.885485"
     inkscape:cy="22.344207"
     inkscape:window-x="0"
     inkscape:window-y="0"
     inkscape:window-maximized="1"
     inkscape:current-layer="svg14" />
  <rect
     style="opacity:1;fill:#fabd7f;fill-opacity:1;fill-rule:evenodd;stroke:none;stroke-width:1.03534329;stroke-linecap:round;stroke-linejoin:bevel;stroke-miterlimit:4;stroke-dasharray:none;stroke-dashoffset:0;stroke-opacity:1"
     id="rect4497-3"
     width="28.203388"
     height="28.203388"
     x="1.8983059"
     y="1.8983059"
     ry="5.575182" />
  <g
     id="g4525"
     transform="translate(65.33627,11.829755)">
    <path
       d="m -53.300789,-3.9660857 c -0.503992,0 -0.909732,0.4141961 -0.909732,0.9286909 V 6.2286195 L -57.017,3.3636543 c -0.356374,-0.3638008 -0.930065,-0.3638008 -1.286407,0 l -0.643227,0.6566309 c -0.356378,0.3638008 -0.356378,0.9494008 0,1.3132155 l 4.889812,4.9917143 a 5.4583945,5.5721459 0 0 0 5.30465,4.282519 5.4583945,5.5721459 0 0 0 5.458394,-5.572146 V -3.0373948 c 0,-0.5144948 -0.40574,-0.9286909 -0.909732,-0.9286909 h -0.909733 c -0.503991,0 -0.909732,0.4141961 -0.909732,0.9286909 v 5.2392102 c 0,-0.3303214 -0.405741,-0.5958481 -0.909733,-0.5958481 h -0.909732 c -0.503991,0 -0.909732,0.2655313 -0.909732,0.5958481 v 0.00365 c 0,-0.3322995 -0.405741,-0.59947 -0.909733,-0.59947 h -0.909732 c -0.503992,0 -0.909733,0.2671751 -0.909733,0.59947 v -5.2429249 c 0,-0.5144948 -0.40574,-0.928691 -0.909732,-0.928691 h -0.909732 z"
       id="path2"
       inkscape:connector-curvature="0"
       style="fill:#ffffff;stroke-width:0.4595814" />
    <g
       transform="matrix(0.45486621,0,0,0.46434549,-61.943247,-5.8236999)"
       id="g6"
       style="fill:#facea2">
      <path
         d="M 20.094,4.6562 C 18.989,4.6562 18,5.3431 18,7 c 0,1.6569 0.89543,3 2,3 1.10457,0 2,-1.3431 2,-3 0,-1.6569 -0.80168,-2.3438 -1.9062,-2.3438 z m 17.906,0 c -1.1046,0 -2,0.6869 -2,2.3438 0,1.6569 0.89543,3 2,3 1.10457,0 2,-1.3431 2,-3 C 40,5.3431 39.105,4.6562 38,4.6562 Z M 8.762,20.3112 c -0.27708,0.02161 -0.57683,0.16399 -0.93555,0.37109 -0.95659,0.55228 -1.9769,1.3561 -1.1484,2.791 0.82843,1.4349 2.2758,2.1499 3.2324,1.5977 0.95658,-0.55228 1.0608,-2.1628 0.23242,-3.5977 -0.51777,-0.8968 -0.91906,-1.1981 -1.3809,-1.1621 z"
         id="path4"
         inkscape:connector-curvature="0" />
    </g>
    <path
       d="m -53.300789,-3.9660857 c -0.503992,0 -0.909732,0.4141961 -0.909732,0.9286909 V 6.2286195 L -57.017,3.3636543 c -0.356374,-0.3638008 -0.930065,-0.3638008 -1.286407,0 l -0.643227,0.6566309 c -0.356378,0.3638008 -0.356378,0.9494008 0,1.3132155 l 4.889812,4.9917143 c 0.584594,2.508533 2.778823,4.279919 5.30465,4.282519 3.01458,0 5.458394,-2.494743 5.458394,-5.572146 V -3.0373948 c 0,-0.5144948 -0.40574,-0.9286909 -0.909732,-0.9286909 h -0.909733 c -0.503991,0 -0.909732,0.4141961 -0.909732,0.9286909 v 5.2392102 c 0,-0.3303214 -0.405741,-0.5958481 -0.909733,-0.5958481 h -0.909732 c -0.503991,0 -0.909732,0.2655313 -0.909732,0.5958481 v 0.00365 c 0,-0.3322949 -0.405741,-0.59947 -0.909733,-0.59947 h -0.909732 c -0.503992,0 -0.909733,0.2671751 -0.909733,0.59947 v -5.2429249 c 0,-0.5144948 -0.40574,-0.928691 -0.909732,-0.928691 z m 0,0.6965182 h 0.909733 c 0.137802,0 0.227433,0.091499 0.227433,0.2321727 v 8.2147361 c 0.01324,0.8165051 1.154769,0.9008767 1.345039,0.1077282 0.04123,-0.021891 0.126148,-2.9824911 0.246979,-2.9824911 h 0.909732 c 0.120831,0 0.205754,2.4962749 0.246979,2.5181456 0.169902,0.7077089 1.155587,0.7077089 1.325526,0 0.0419,-0.021877 0.126234,-2.5181456 0.246978,-2.5181456 h 0.909733 c 0.121158,0 0.206232,3.099924 0.247866,3.1217947 0.193954,0.7899446 1.330938,0.7027869 1.344174,-0.1114429 v -8.350325 c 0,-0.1406734 0.08963,-0.2321727 0.227433,-0.2321727 h 0.909733 c 0.137802,0 0.227433,0.091499 0.227433,0.2321727 V 9.035588 c 0,2.70068 -2.129774,4.875163 -4.775185,4.875628 -2.213789,-0.0023 -4.129594,-1.548825 -4.64191,-3.747408 -0.02926,-0.125327 -0.092,-0.2399178 -0.181237,-0.331027 l -4.889812,-4.991714 c -0.0975,-0.099532 -0.0975,-0.2287738 0,-0.3283062 l 0.643227,-0.656631 c 0.0975,-0.099533 0.224103,-0.099533 0.321604,0 l 2.806479,2.8649652 c 0.429844,0.4385001 1.164457,0.1278854 1.164685,-0.4924384 v -9.2660142 c 0,-0.1406735 0.08963,-0.2321727 0.227433,-0.2321727 z"
       id="path8"
       inkscape:connector-curvature="0"
       style="fill:#e8a560;stroke-width:0.4595814" />
  </g>
</svg>
