<?xml version="1.0" encoding="UTF-8" standalone="no"?>
<svg
   xmlns:dc="http://purl.org/dc/elements/1.1/"
   xmlns:cc="http://creativecommons.org/ns#"
   xmlns:rdf="http://www.w3.org/1999/02/22-rdf-syntax-ns#"
   xmlns:svg="http://www.w3.org/2000/svg"
   xmlns="http://www.w3.org/2000/svg"
   xmlns:sodipodi="http://sodipodi.sourceforge.net/DTD/sodipodi-0.dtd"
   xmlns:inkscape="http://www.inkscape.org/namespaces/inkscape"
   width="32"
   height="32"
   version="1"
   id="svg12"
   sodipodi:docname="audio-input-microphone.svg"
   inkscape:version="0.92.1 r">
  <metadata
     id="metadata18">
    <rdf:RDF>
      <cc:Work
         rdf:about="">
        <dc:format>image/svg+xml</dc:format>
        <dc:type
           rdf:resource="http://purl.org/dc/dcmitype/StillImage" />
      </cc:Work>
    </rdf:RDF>
  </metadata>
  <defs
     id="defs16" />
  <sodipodi:namedview
     pagecolor="#ffffff"
     bordercolor="#666666"
     borderopacity="1"
     objecttolerance="10"
     gridtolerance="10"
     guidetolerance="10"
     inkscape:pageopacity="0"
     inkscape:pageshadow="2"
     inkscape:window-width="1680"
     inkscape:window-height="970"
     id="namedview14"
     showgrid="false"
     inkscape:zoom="6.0000001"
     inkscape:cx="-39.371308"
     inkscape:cy="3.1820201"
     inkscape:window-x="0"
     inkscape:window-y="0"
     inkscape:window-maximized="1"
     inkscape:current-layer="svg12" />
  <rect
     style="opacity:1;fill:#8e8e8e;fill-opacity:1;fill-rule:evenodd;stroke:none;stroke-width:1.03534329;stroke-linecap:round;stroke-linejoin:bevel;stroke-miterlimit:4;stroke-dasharray:none;stroke-dashoffset:0;stroke-opacity:1"
     id="rect4497-3"
     width="28.203388"
     height="28.203388"
     x="1.8983059"
     y="1.8983059"
     ry="5.575182" />
  <path
     style="fill:#4d4d4d;fill-opacity:1;stroke-width:0.06037757"
     d="m 19.526825,27.287666 c 0,-0.306214 -0.20473,-0.734445 -0.485223,-1.014938 -0.330871,-0.330871 -0.569307,-0.413876 -1.190254,-0.414353 l -0.437737,-3.37e-4 v -1.678492 -1.678492 l 0.377359,-0.07701 c 2.394724,-0.488755 4.385227,-2.25411 5.172975,-4.587852 0.233691,-0.692321 0.31761,-1.230139 0.350406,-2.245703 0.02969,-0.919394 0.02228,-1.022215 -0.09237,-1.281413 -0.30974,-0.700217 -1.271109,-0.716713 -1.58412,-0.02719 -0.09712,0.213964 -0.116133,0.398465 -0.117244,1.138184 -0.002,1.277521 -0.244471,2.176051 -0.822481,3.046858 -1.35756,2.045251 -3.880172,2.841416 -6.185745,1.952293 -0.841227,-0.324411 -1.707227,-1.005315 -2.259173,-1.776304 -0.673454,-0.940716 -0.92435,-1.786963 -0.979924,-3.305164 -0.04108,-1.122147 -0.09027,-1.283383 -0.448038,-1.46839 -0.27918,-0.144369 -0.787963,-0.09371 -0.9972691,0.0993 -0.2762967,0.254782 -0.3238305,0.460876 -0.3238305,1.404018 0,1.676957 0.3646537,2.926346 1.2273256,4.205091 0.369596,0.547856 1.134177,1.325446 1.681191,1.709796 0.774847,0.544434 1.947592,1.04432 2.721691,1.16013 l 0.286793,0.0429 v 1.683716 1.683716 l -0.498115,0.0013 c -0.550308,0.0015 -0.852599,0.104624 -1.154027,0.393803 -0.218553,0.209672 -0.459713,0.722104 -0.460482,0.978462 l -5.91e-4,0.196224 h 3.109445 3.109445 z"
     id="path871"
     inkscape:connector-curvature="0" />
  <path
     style="fill:#ececec;fill-opacity:1;stroke-width:0.06037757"
     d="m 17.323369,19.123318 c 0.652027,-0.169832 1.109855,-0.438565 1.63692,-0.960831 0.845955,-0.83825 1.068581,-1.438802 1.075303,-2.900712 l 0.0044,-0.966041 -3.637748,-0.01557 -3.637748,-0.01557 0.0011,0.830663 c 6.27e-4,0.49501 0.03678,0.999307 0.08946,1.248019 0.289747,1.367708 1.287522,2.414525 2.652298,2.782663 0.420407,0.113397 1.375855,0.112022 1.816019,-0.0027 z"
     id="path869"
     inkscape:connector-curvature="0" />
  <path
     style="fill:#ececec;fill-opacity:1;stroke-width:0.06037757"
     d="m 20.0586,13.525921 -0.01856,-0.256605 -3.637748,-0.01557 -3.637749,-0.01557 v 0.27217 0.272169 h 3.656315 3.656314 z"
     id="path867"
     inkscape:connector-curvature="0" />
  <path
     style="fill:#ececec;fill-opacity:1;stroke-width:0.06037757"
     d="m 20.0586,12.469314 0.01856,-0.256604 h -3.656314 -3.656315 v 0.27217 0.272171 l 3.637749,-0.01557 3.637747,-0.01557 z"
     id="path865"
     inkscape:connector-curvature="0" />
  <path
     style="fill:#ececec;fill-opacity:1;stroke-width:0.06037757"
     d="m 20.0586,11.442896 0.01856,-0.256605 h -3.656314 -3.656315 v 0.231447 c 0,0.127297 0.01832,0.249773 0.04072,0.27217 0.0224,0.0224 1.659384,0.03371 3.637748,0.02516 l 3.597026,-0.01557 z"
     id="path863"
     inkscape:connector-curvature="0" />
  <path
     style="fill:#ececec;fill-opacity:1;stroke-width:0.06037757"
     d="m 20.070227,10.39782 v -0.237947 l -3.426426,-0.0051 c -1.884534,-0.0028 -3.494352,-0.01259 -3.577371,-0.02181 -0.244696,-0.02721 -0.301888,0.02477 -0.301888,0.27434 v 0.234575 l 3.607559,0.01557 c 1.984158,0.0086 3.627937,0.0072 3.652844,-0.0031 0.02491,-0.01029 0.04528,-0.125734 0.04528,-0.256604 z"
     id="path861"
     inkscape:connector-curvature="0" />
  <path
     style="fill:#ffffff;fill-opacity:1;stroke-width:0.06037757"
     d="M 20.048047,9.0962816 C 19.995747,8.4158789 19.919051,8.1109861 19.664216,7.5704548 19.399894,7.0097959 18.710987,6.2941448 18.157092,6.0048187 15.765651,4.7556564 12.932385,6.3486158 12.780375,9.0277928 l -0.0334,0.5886812 h 3.670528 3.67053 z"
     id="path22-3-6"
     inkscape:connector-curvature="0" />
</svg>
