<?xml version="1.0" encoding="UTF-8" standalone="no"?>
<svg
   xmlns:dc="http://purl.org/dc/elements/1.1/"
   xmlns:cc="http://creativecommons.org/ns#"
   xmlns:rdf="http://www.w3.org/1999/02/22-rdf-syntax-ns#"
   xmlns:svg="http://www.w3.org/2000/svg"
   xmlns="http://www.w3.org/2000/svg"
   xmlns:sodipodi="http://sodipodi.sourceforge.net/DTD/sodipodi-0.dtd"
   xmlns:inkscape="http://www.inkscape.org/namespaces/inkscape"
   width="32"
   height="32"
   version="1"
   id="svg18"
   sodipodi:docname="media-floppy.svg"
   inkscape:version="0.92.1 r">
  <metadata
     id="metadata24">
    <rdf:RDF>
      <cc:Work
         rdf:about="">
        <dc:format>image/svg+xml</dc:format>
        <dc:type
           rdf:resource="http://purl.org/dc/dcmitype/StillImage" />
      </cc:Work>
    </rdf:RDF>
  </metadata>
  <defs
     id="defs22" />
  <sodipodi:namedview
     pagecolor="#ffffff"
     bordercolor="#666666"
     borderopacity="1"
     objecttolerance="10"
     gridtolerance="10"
     guidetolerance="10"
     inkscape:pageopacity="0"
     inkscape:pageshadow="2"
     inkscape:window-width="1680"
     inkscape:window-height="965"
     id="namedview20"
     showgrid="false"
     inkscape:zoom="14.75"
     inkscape:cx="26.65264"
     inkscape:cy="21.996478"
     inkscape:window-x="0"
     inkscape:window-y="0"
     inkscape:window-maximized="1"
     inkscape:current-layer="svg18" />
  <g
     id="g4497"
     transform="translate(0,1.8983059)">
    <rect
       ry="5.575182"
       y="0"
       x="1.8983059"
       height="28.203388"
       width="28.203388"
       id="rect4497-3"
       style="opacity:1;fill:#8e8e8e;fill-opacity:1;fill-rule:evenodd;stroke:none;stroke-width:1.03534329;stroke-linecap:round;stroke-linejoin:bevel;stroke-miterlimit:4;stroke-dasharray:none;stroke-dashoffset:0;stroke-opacity:1" />
    <path
       id="path14"
       d="m 7.7440088,0 v 9.4652503 c 0,0.7496487 0.6025304,1.3521787 1.352177,1.3521787 H 23.699716 c 0.748566,0 1.352179,-0.60253 1.352179,-1.3521787 V 0 Z M 18.561437,2.1634859 h 3.245228 c 0.599287,0 1.081744,0.4824575 1.081744,1.0817438 v 4.3269708 c 0,0.5992858 -0.482457,1.0817428 -1.081744,1.0817428 h -3.245228 c -0.599286,0 -1.081742,-0.482457 -1.081742,-1.0817428 V 3.2452297 c 0,-0.5992863 0.482456,-1.0817438 1.081742,-1.0817438 z"
       style="fill:#e6e6e6;fill-opacity:1;stroke-width:0.69023746"
       inkscape:connector-curvature="0" />
  </g>
  <g
     id="g4493"
     transform="translate(0.76703232,-0.73192468)">
    <rect
       id="rect8"
       ry="1.3521786"
       rx="1.3521786"
       y="15.5974"
       x="4.4155374"
       height="12.980914"
       width="21.634857"
       style="fill:#ffffff;stroke-width:0.69023746" />
    <path
       id="path10"
       d="m 4.4155409,25.333086 v 1.893049 c 0,0.748568 0.6030711,1.352179 1.3521789,1.352179 H 24.698219 c 0.748566,0 1.352179,-0.603611 1.352179,-1.352179 v -1.893049 z"
       style="fill:#ffae3f;stroke-width:0.69023746"
       inkscape:connector-curvature="0" />
  </g>
</svg>
