<?xml version="1.0" encoding="UTF-8" standalone="no"?>
<svg
   xmlns:dc="http://purl.org/dc/elements/1.1/"
   xmlns:cc="http://creativecommons.org/ns#"
   xmlns:rdf="http://www.w3.org/1999/02/22-rdf-syntax-ns#"
   xmlns:svg="http://www.w3.org/2000/svg"
   xmlns="http://www.w3.org/2000/svg"
   xmlns:sodipodi="http://sodipodi.sourceforge.net/DTD/sodipodi-0.dtd"
   xmlns:inkscape="http://www.inkscape.org/namespaces/inkscape"
   width="32"
   height="32"
   version="1"
   id="svg42"
   sodipodi:docname="smartphone.svg"
   inkscape:version="0.92.1 r">
  <metadata
     id="metadata48">
    <rdf:RDF>
      <cc:Work
         rdf:about="">
        <dc:format>image/svg+xml</dc:format>
        <dc:type
           rdf:resource="http://purl.org/dc/dcmitype/StillImage" />
      </cc:Work>
    </rdf:RDF>
  </metadata>
  <defs
     id="defs46" />
  <sodipodi:namedview
     pagecolor="#ffffff"
     bordercolor="#666666"
     borderopacity="1"
     objecttolerance="10"
     gridtolerance="10"
     guidetolerance="10"
     inkscape:pageopacity="0"
     inkscape:pageshadow="2"
     inkscape:window-width="1680"
     inkscape:window-height="965"
     id="namedview44"
     showgrid="false"
     inkscape:zoom="10.429825"
     inkscape:cx="-14.931846"
     inkscape:cy="11.021235"
     inkscape:window-x="0"
     inkscape:window-y="0"
     inkscape:window-maximized="1"
     inkscape:current-layer="svg42" />
  <g
     id="g4514"
     transform="translate(45.530695,1.1623206)">
    <rect
       ry="5.575182"
       y="0.73598534"
       x="-43.632389"
       height="28.203388"
       width="28.203388"
       id="rect4497-3"
       style="opacity:1;fill:#8e8e8e;fill-opacity:1;fill-rule:evenodd;stroke:none;stroke-width:1.03534329;stroke-linecap:round;stroke-linejoin:bevel;stroke-miterlimit:4;stroke-dasharray:none;stroke-dashoffset:0;stroke-opacity:1" />
    <path
       id="path6"
       d="m -37.704629,3.9558293 h 16.347864 c 0.822996,0 1.485642,0.7388376 1.485642,1.6565115 V 23.834652 c 0,0.917184 -0.662646,1.656218 -1.485642,1.656218 h -16.347864 c -0.822802,0 -1.485642,-0.738622 -1.485642,-1.656022 V 5.6135155 c 9.66e-4,-0.9175762 0.663806,-1.6564138 1.487091,-1.6564138 z"
       style="opacity:1;fill:#4d4d4d;stroke-width:0.99999994"
       inkscape:connector-curvature="0" />
    <path
       id="path10"
       d="m -31.465643,6.8132282 -0.681363,0.3938514 0.942881,1.6339318 c -1.723494,0.83268 -1.730583,2.7756266 -1.730583,2.7756266 h 7.089325 c 0,0 -0.0079,-1.9428676 -1.730584,-2.7753906 l 0.94288,-1.6341678 -0.681543,-0.3938514 -1.019996,1.7661871 c -0.312718,-0.069948 -0.657646,-0.1138467 -1.053868,-0.1138467 -0.397002,0 -0.743434,0.043742 -1.056939,0.1138467 l -1.020075,-1.7661871 z m 0.501767,3.2277688 c 0.218194,0 0.392276,0.175658 0.392276,0.392276 0,0.216618 -0.176445,0.395427 -0.392276,0.395427 -0.218194,0 -0.395426,-0.176445 -0.395426,-0.395427 0,-0.216618 0.177232,-0.392276 0.395426,-0.392276 z m 3.150811,0 c 0.218193,0 0.392276,0.175658 0.392276,0.392276 0,0.216618 -0.176446,0.395427 -0.392276,0.395427 -0.218194,0 -0.395427,-0.176445 -0.395427,-0.395427 0,-0.216618 0.177233,-0.392276 0.395427,-0.392276 z m -6.661681,2.363108 c -0.453165,0 -0.82307,0.418271 -0.82307,0.93264 v 3.647773 c 0,0.513582 0.369905,0.933428 0.82307,0.933428 0.453166,0 0.752335,-0.419846 0.752335,-0.934216 v -3.647772 c 0,-0.51437 -0.298618,-0.931853 -0.752335,-0.931853 z m 1.540038,0 v 6.695473 c -6e-6,0.185686 0.208166,0.393852 0.393851,0.393852 h 1.181555 v 1.476942 c 0,0.489951 0.31193,0.886166 0.787702,0.886166 0.472771,0 0.803378,-0.396758 0.787703,-0.886166 V 19.49343 h 0.787703 v 1.476942 c 0,0.489951 0.31193,0.886166 0.787702,0.886166 0.472771,0 0.787703,-0.40317 0.787703,-0.886166 V 19.49343 h 1.181554 c 0.185898,0 0.393852,-0.207954 0.393852,-0.393852 v -6.695473 z m 8.700177,0 c -0.45293,0 -0.82315,0.418271 -0.82315,0.93264 v 3.647773 c 0,0.513582 0.37022,0.933428 0.82315,0.933428 0.452928,0 0.752255,-0.419846 0.752255,-0.934216 v -3.647772 c 0,-0.51437 -0.298539,-0.931853 -0.752255,-0.931853 z"
       inkscape:connector-curvature="0"
       style="fill:#a4ca39;stroke-width:0.99999994" />
    <rect
       id="rect12"
       ry="0.48297873"
       rx="0.48297873"
       y="2.0809417"
       x="-33.338272"
       height="0.96595746"
       width="7.7276597"
       style="opacity:1;fill:#4d4d4d;stroke-width:1" />
    <circle
       id="circle14"
       r="0.96595746"
       cy="27.025623"
       cx="-29.531179"
       style="opacity:1;fill:#4d4d4d;stroke-width:1" />
  </g>
</svg>
